<?xml version="1.0" encoding="UTF-8" standalone="no"?>
<!DOCTYPE svg PUBLIC "-//W3C//DTD SVG 1.1//EN"
 "http://www.w3.org/Graphics/SVG/1.1/DTD/svg11.dtd">
<!-- Generated by graphviz version 12.2.0 (0)
 -->
<!-- Title: oneDegreeRelationshipsDiagram Pages: 1 -->
<svg width="219pt" height="164pt"
 viewBox="0.00 0.00 219.00 163.50" xmlns="http://www.w3.org/2000/svg" xmlns:xlink="http://www.w3.org/1999/xlink">
<g id="graph0" class="graph" transform="scale(1 1) rotate(0) translate(4 159.5)">
<title>oneDegreeRelationshipsDiagram</title>
<polygon fill="#ffffff" stroke="none" points="-4,4 -4,-159.5 215,-159.5 215,4 -4,4"/>
<text text-anchor="middle" x="79.25" y="-7.05" font-family="Helvetica,sans-Serif" font-size="11.00">Generated by SchemaSpy</text>
<!-- aud_revision -->
<g id="node1" class="node">
<title>aud_revision</title>
<g id="a_node1"><a xlink:href="../../tables/aud_revision.html" xlink:title="aud_revision" target="_top">
<polygon fill="#ffffff" stroke="none" points="8,-38.5 8,-151.5 203,-151.5 203,-38.5 8,-38.5"/>
<polygon fill="#f5f5f5" stroke="none" points="10,-126 10,-149.5 201,-149.5 201,-126 10,-126"/>
<polygon fill="none" stroke="black" points="10,-126 10,-149.5 201,-149.5 201,-126 10,-126"/>
<text text-anchor="start" x="15" y="-135.05" font-family="Helvetica,sans-Serif" font-weight="bold" font-size="11.00">aud_revision</text>
<text text-anchor="start" x="159.25" y="-134.05" font-family="Helvetica,sans-Serif" font-size="11.00">[table]</text>
<polygon fill="none" stroke="black" points="10,-104 10,-126 116,-126 116,-104 10,-104"/>
<image xlink:href="../../images/primaryKeys.png" width="11px" height="12px" preserveAspectRatio="xMinYMin meet" x="15" y="-121"/>
<text text-anchor="start" x="30" y="-110.55" font-family="Helvetica,sans-Serif" font-size="11.00">id</text>
<polygon fill="none" stroke="black" points="116,-104 116,-126 197.12,-126 197.12,-104 116,-104"/>
<text text-anchor="start" x="119" y="-111.3" font-family="Helvetica,sans-Serif" font-size="11.00">int[10]</text>
<polygon fill="none" stroke="black" points="10,-82 10,-104 116,-104 116,-82 10,-82"/>
<text text-anchor="start" x="30" y="-88.55" font-family="Helvetica,sans-Serif" font-size="11.00">timestamp</text>
<polygon fill="none" stroke="black" points="116,-82 116,-104 197.12,-104 197.12,-82 116,-82"/>
<text text-anchor="start" x="119" y="-89.3" font-family="Helvetica,sans-Serif" font-size="11.00">bigint[19]</text>
<polygon fill="none" stroke="black" points="10,-60 10,-82 116,-82 116,-60 10,-60"/>
<text text-anchor="start" x="30" y="-66.55" font-family="Helvetica,sans-Serif" font-size="11.00">username</text>
<polygon fill="none" stroke="black" points="116,-60 116,-82 197.12,-82 197.12,-60 116,-60"/>
<text text-anchor="start" x="119" y="-67.3" font-family="Helvetica,sans-Serif" font-size="11.00">varchar[255]</text>
<polygon fill="#ffffff" stroke="none" points="10,-40.5 10,-60 69,-60 69,-40.5 10,-40.5"/>
<polygon fill="none" stroke="black" points="10,-40.5 10,-60 69,-60 69,-40.5 10,-40.5"/>
<text text-anchor="start" x="13" y="-46.55" font-family="Helvetica,sans-Serif" font-size="11.00">&lt; 0</text>
<polygon fill="#ffffff" stroke="none" points="69,-40.5 69,-60 116,-60 116,-40.5 69,-40.5"/>
<polygon fill="none" stroke="black" points="69,-40.5 69,-60 116,-60 116,-40.5 69,-40.5"/>
<text text-anchor="start" x="105.5" y="-46.55" font-family="Helvetica,sans-Serif" font-size="11.00"> &#160;</text>
<polygon fill="#ffffff" stroke="none" points="116,-40.5 116,-60 197.12,-60 197.12,-40.5 116,-40.5"/>
<polygon fill="none" stroke="black" points="116,-40.5 116,-60 197.12,-60 197.12,-40.5 116,-40.5"/>
<text text-anchor="start" x="174.62" y="-46.55" font-family="Helvetica,sans-Serif" font-size="11.00">0 &gt;</text>
<polygon fill="none" stroke="black" stroke-width="2" points="9,-39.5 9,-150.5 202,-150.5 202,-39.5 9,-39.5"/>
</a>
</g>
</g>
</g>
</svg>
