<?xml version="1.0" encoding="UTF-8" standalone="no"?>
<!DOCTYPE svg PUBLIC "-//W3C//DTD SVG 1.1//EN"
 "http://www.w3.org/Graphics/SVG/1.1/DTD/svg11.dtd">
<!-- Generated by graphviz version 12.2.0 (0)
 -->
<!-- Title: oneDegreeRelationshipsDiagram Pages: 1 -->
<svg width="523pt" height="401pt"
 viewBox="0.00 0.00 522.50 401.25" xmlns="http://www.w3.org/2000/svg" xmlns:xlink="http://www.w3.org/1999/xlink">
<g id="graph0" class="graph" transform="scale(1 1) rotate(0) translate(4 397.25)">
<title>oneDegreeRelationshipsDiagram</title>
<polygon fill="#ffffff" stroke="none" points="-4,4 -4,-397.25 518.5,-397.25 518.5,4 -4,4"/>
<text text-anchor="middle" x="79.25" y="-7.05" font-family="Helvetica,sans-Serif" font-size="11.00">Generated by SchemaSpy</text>
<!-- check_slip_line -->
<g id="node1" class="node">
<title>check_slip_line</title>
<g id="a_node1"><a xlink:href="../../tables/check_slip_line.html" xlink:title="check_slip_line" target="_top">
<polygon fill="#ffffff" stroke="none" points="327.62,-282.75 327.62,-389.25 475.62,-389.25 475.62,-282.75 327.62,-282.75"/>
<polygon fill="#f5f5f5" stroke="none" points="327.62,-365.75 327.62,-389.25 475.62,-389.25 475.62,-365.75 327.62,-365.75"/>
<polygon fill="none" stroke="black" points="327.62,-365.75 327.62,-389.25 475.62,-389.25 475.62,-365.75 327.62,-365.75"/>
<text text-anchor="start" x="332.62" y="-374.8" font-family="Helvetica,sans-Serif" font-weight="bold" font-size="11.00">check_slip_line</text>
<text text-anchor="start" x="433.88" y="-373.8" font-family="Helvetica,sans-Serif" font-size="11.00">[table]</text>
<polygon fill="none" stroke="black" points="327.62,-343.75 327.62,-365.75 475.62,-365.75 475.62,-343.75 327.62,-343.75"/>
<image xlink:href="../../images/primaryKeys.png" width="11px" height="12px" preserveAspectRatio="xMinYMin meet" x="332.625" y="-360.75"/>
<text text-anchor="start" x="347.62" y="-350.3" font-family="Helvetica,sans-Serif" font-size="11.00">identifier</text>
<polygon fill="#ffffff" stroke="none" points="327.62,-321.75 327.62,-343.75 475.62,-343.75 475.62,-321.75 327.62,-321.75"/>
<polygon fill="none" stroke="black" points="327.62,-321.75 327.62,-343.75 475.62,-343.75 475.62,-321.75 327.62,-321.75"/>
<image xlink:href="../../images/foreignKeys.png" width="11px" height="12px" preserveAspectRatio="xMinYMin meet" x="332.625" y="-338.75"/>
<text text-anchor="start" x="347.62" y="-328.3" font-family="Helvetica,sans-Serif" font-size="11.00">check_slip</text>
<polygon fill="none" stroke="black" points="327.62,-302.25 327.62,-321.75 475.62,-321.75 475.62,-302.25 327.62,-302.25"/>
<text text-anchor="start" x="330.62" y="-308.3" font-family="Helvetica,sans-Serif" font-size="11.00">...</text>
<polygon fill="#ffffff" stroke="none" points="327.62,-282.75 327.62,-302.25 384.96,-302.25 384.96,-282.75 327.62,-282.75"/>
<polygon fill="none" stroke="black" points="327.62,-282.75 327.62,-302.25 384.96,-302.25 384.96,-282.75 327.62,-282.75"/>
<text text-anchor="start" x="330.62" y="-288.8" font-family="Helvetica,sans-Serif" font-size="11.00">&lt; 1</text>
<polygon fill="#ffffff" stroke="none" points="384.96,-282.75 384.96,-302.25 430.29,-302.25 430.29,-282.75 384.96,-282.75"/>
<polygon fill="none" stroke="black" points="384.96,-282.75 384.96,-302.25 430.29,-302.25 430.29,-282.75 384.96,-282.75"/>
<text text-anchor="start" x="419.79" y="-288.8" font-family="Helvetica,sans-Serif" font-size="11.00"> &#160;</text>
<polygon fill="#ffffff" stroke="none" points="430.29,-282.75 430.29,-302.25 475.62,-302.25 475.62,-282.75 430.29,-282.75"/>
<polygon fill="none" stroke="black" points="430.29,-282.75 430.29,-302.25 475.62,-302.25 475.62,-282.75 430.29,-282.75"/>
<text text-anchor="start" x="465.12" y="-288.8" font-family="Helvetica,sans-Serif" font-size="11.00"> &#160;</text>
</a>
</g>
</g>
<!-- check_slip -->
<g id="node2" class="node">
<title>check_slip</title>
<g id="a_node2"><a xlink:href="../../tables/check_slip.html" xlink:title="check_slip" target="_top">
<polygon fill="#ffffff" stroke="none" points="8,-38.5 8,-283.5 247.75,-283.5 247.75,-38.5 8,-38.5"/>
<polygon fill="#f5f5f5" stroke="none" points="10,-258 10,-281.5 245.75,-281.5 245.75,-258 10,-258"/>
<polygon fill="none" stroke="black" points="10,-258 10,-281.5 245.75,-281.5 245.75,-258 10,-258"/>
<text text-anchor="start" x="15" y="-267.05" font-family="Helvetica,sans-Serif" font-weight="bold" font-size="11.00">check_slip</text>
<text text-anchor="start" x="204" y="-266.05" font-family="Helvetica,sans-Serif" font-size="11.00">[table]</text>
<polygon fill="none" stroke="black" points="10,-236 10,-258 158,-258 158,-236 10,-236"/>
<image xlink:href="../../images/primaryKeys.png" width="11px" height="12px" preserveAspectRatio="xMinYMin meet" x="15" y="-253"/>
<text text-anchor="start" x="30" y="-242.55" font-family="Helvetica,sans-Serif" font-size="11.00">identifier</text>
<polygon fill="none" stroke="black" points="158,-236 158,-258 245.75,-258 245.75,-236 158,-236"/>
<text text-anchor="start" x="161" y="-243.3" font-family="Helvetica,sans-Serif" font-size="11.00">varchar[191]</text>
<polygon fill="none" stroke="black" points="10,-214 10,-236 158,-236 158,-214 10,-214"/>
<text text-anchor="start" x="30" y="-220.55" font-family="Helvetica,sans-Serif" font-size="11.00">lot_label</text>
<polygon fill="none" stroke="black" points="158,-214 158,-236 245.75,-236 245.75,-214 158,-214"/>
<text text-anchor="start" x="161" y="-221.3" font-family="Helvetica,sans-Serif" font-size="11.00">varchar[255]</text>
<polygon fill="none" stroke="black" points="10,-192 10,-214 158,-214 158,-192 10,-192"/>
<text text-anchor="start" x="30" y="-198.55" font-family="Helvetica,sans-Serif" font-size="11.00">deposit_date</text>
<polygon fill="none" stroke="black" points="158,-192 158,-214 245.75,-214 245.75,-192 158,-192"/>
<text text-anchor="start" x="161" y="-199.3" font-family="Helvetica,sans-Serif" font-size="11.00">date[10]</text>
<polygon fill="none" stroke="black" points="10,-170 10,-192 158,-192 158,-170 10,-170"/>
<text text-anchor="start" x="30" y="-176.55" font-family="Helvetica,sans-Serif" font-size="11.00">uncompleted</text>
<polygon fill="none" stroke="black" points="158,-170 158,-192 245.75,-192 245.75,-170 158,-170"/>
<text text-anchor="start" x="161" y="-177.3" font-family="Helvetica,sans-Serif" font-size="11.00">bit[1]</text>
<polygon fill="none" stroke="black" points="10,-148 10,-170 158,-170 158,-148 10,-148"/>
<text text-anchor="start" x="30" y="-154.55" font-family="Helvetica,sans-Serif" font-size="11.00">version</text>
<polygon fill="none" stroke="black" points="158,-148 158,-170 245.75,-170 245.75,-148 158,-148"/>
<text text-anchor="start" x="161" y="-155.3" font-family="Helvetica,sans-Serif" font-size="11.00">bigint[19]</text>
<polygon fill="none" stroke="black" points="10,-126 10,-148 158,-148 158,-126 10,-126"/>
<text text-anchor="start" x="30" y="-132.55" font-family="Helvetica,sans-Serif" font-size="11.00">created_by</text>
<polygon fill="none" stroke="black" points="158,-126 158,-148 245.75,-148 245.75,-126 158,-126"/>
<text text-anchor="start" x="161" y="-133.3" font-family="Helvetica,sans-Serif" font-size="11.00">varchar[191]</text>
<polygon fill="none" stroke="black" points="10,-104 10,-126 158,-126 158,-104 10,-104"/>
<text text-anchor="start" x="30" y="-110.55" font-family="Helvetica,sans-Serif" font-size="11.00">last_modified_by</text>
<polygon fill="none" stroke="black" points="158,-104 158,-126 245.75,-126 245.75,-104 158,-104"/>
<text text-anchor="start" x="161" y="-111.3" font-family="Helvetica,sans-Serif" font-size="11.00">varchar[191]</text>
<polygon fill="none" stroke="black" points="10,-82 10,-104 158,-104 158,-82 10,-82"/>
<text text-anchor="start" x="30" y="-88.55" font-family="Helvetica,sans-Serif" font-size="11.00">created_date</text>
<polygon fill="none" stroke="black" points="158,-82 158,-104 245.75,-104 245.75,-82 158,-82"/>
<text text-anchor="start" x="161" y="-89.3" font-family="Helvetica,sans-Serif" font-size="11.00">timestamp[19]</text>
<polygon fill="none" stroke="black" points="10,-60 10,-82 158,-82 158,-60 10,-60"/>
<text text-anchor="start" x="30" y="-66.55" font-family="Helvetica,sans-Serif" font-size="11.00">last_modified_date</text>
<polygon fill="none" stroke="black" points="158,-60 158,-82 245.75,-82 245.75,-60 158,-60"/>
<text text-anchor="start" x="161" y="-67.3" font-family="Helvetica,sans-Serif" font-size="11.00">timestamp[19]</text>
<polygon fill="#ffffff" stroke="none" points="10,-40.5 10,-60 90,-60 90,-40.5 10,-40.5"/>
<polygon fill="none" stroke="black" points="10,-40.5 10,-60 90,-60 90,-40.5 10,-40.5"/>
<text text-anchor="start" x="13" y="-46.55" font-family="Helvetica,sans-Serif" font-size="11.00">&lt; 0</text>
<polygon fill="#ffffff" stroke="none" points="90,-40.5 90,-60 158,-60 158,-40.5 90,-40.5"/>
<polygon fill="none" stroke="black" points="90,-40.5 90,-60 158,-60 158,-40.5 90,-40.5"/>
<text text-anchor="start" x="147.5" y="-46.55" font-family="Helvetica,sans-Serif" font-size="11.00"> &#160;</text>
<polygon fill="#ffffff" stroke="none" points="158,-40.5 158,-60 245.75,-60 245.75,-40.5 158,-40.5"/>
<polygon fill="none" stroke="black" points="158,-40.5 158,-60 245.75,-60 245.75,-40.5 158,-40.5"/>
<text text-anchor="start" x="223.25" y="-46.55" font-family="Helvetica,sans-Serif" font-size="11.00">2 &gt;</text>
<polygon fill="none" stroke="black" stroke-width="2" points="9,-39.5 9,-282.5 246.75,-282.5 246.75,-39.5 9,-39.5"/>
</a>
</g>
</g>
<!-- check_slip_line&#45;&gt;check_slip -->
<g id="edge1" class="edge">
<title>check_slip_line:w&#45;&gt;check_slip:e</title>
<path fill="none" stroke="black" d="M311.22,-329.49C279.19,-313.83 292.73,-247 246.75,-247"/>
<polygon fill="black" stroke="black" points="318.47,-331.03 325.55,-336.2 322.71,-331.92 325.97,-332.61 325.97,-332.61 325.97,-332.61 322.71,-331.92 327.04,-329.16 318.47,-331.03"/>
<ellipse fill="none" stroke="black" cx="313.66" cy="-330.01" rx="3.2" ry="3.2"/>
</g>
<!-- del_delivered_document -->
<g id="node3" class="node">
<title>del_delivered_document</title>
<g id="a_node3"><a xlink:href="../../tables/del_delivered_document.html" xlink:title="del_delivered_document" target="_top">
<polygon fill="#ffffff" stroke="none" points="296.75,-110.75 296.75,-261.25 506.5,-261.25 506.5,-110.75 296.75,-110.75"/>
<polygon fill="#f5f5f5" stroke="none" points="296.75,-237.75 296.75,-261.25 506.5,-261.25 506.5,-237.75 296.75,-237.75"/>
<polygon fill="none" stroke="black" points="296.75,-237.75 296.75,-261.25 506.5,-261.25 506.5,-237.75 296.75,-237.75"/>
<text text-anchor="start" x="301.75" y="-246.8" font-family="Helvetica,sans-Serif" font-weight="bold" font-size="11.00">del_delivered_document</text>
<text text-anchor="start" x="464.75" y="-245.8" font-family="Helvetica,sans-Serif" font-size="11.00">[table]</text>
<polygon fill="none" stroke="black" points="296.75,-215.75 296.75,-237.75 506.5,-237.75 506.5,-215.75 296.75,-215.75"/>
<image xlink:href="../../images/primaryKeys.png" width="11px" height="12px" preserveAspectRatio="xMinYMin meet" x="301.75" y="-232.75"/>
<text text-anchor="start" x="329.62" y="-222.3" font-family="Helvetica,sans-Serif" font-size="11.00">identifier</text>
<polygon fill="#ffffff" stroke="none" points="296.75,-193.75 296.75,-215.75 506.5,-215.75 506.5,-193.75 296.75,-193.75"/>
<polygon fill="none" stroke="black" points="296.75,-193.75 296.75,-215.75 506.5,-215.75 506.5,-193.75 296.75,-193.75"/>
<image xlink:href="../../images/foreignKeys.png" width="11px" height="12px" preserveAspectRatio="xMinYMin meet" x="301.75" y="-210.75"/>
<text text-anchor="start" x="329.62" y="-200.3" font-family="Helvetica,sans-Serif" font-size="11.00">delivery</text>
<polygon fill="#ffffff" stroke="none" points="296.75,-171.75 296.75,-193.75 506.5,-193.75 506.5,-171.75 296.75,-171.75"/>
<polygon fill="none" stroke="black" points="296.75,-171.75 296.75,-193.75 506.5,-193.75 506.5,-171.75 296.75,-171.75"/>
<image xlink:href="../../images/foreignKeys.png" width="11px" height="12px" preserveAspectRatio="xMinYMin meet" x="301.75" y="-188.75"/>
<text text-anchor="start" x="329.62" y="-178.3" font-family="Helvetica,sans-Serif" font-size="11.00">digital_document</text>
<polygon fill="#ffffff" stroke="none" points="296.75,-149.75 296.75,-171.75 506.5,-171.75 506.5,-149.75 296.75,-149.75"/>
<polygon fill="none" stroke="black" points="296.75,-149.75 296.75,-171.75 506.5,-171.75 506.5,-149.75 296.75,-149.75"/>
<image xlink:href="../../images/foreignKeys.png" width="11px" height="12px" preserveAspectRatio="xMinYMin meet" x="301.75" y="-166.75"/>
<text text-anchor="start" x="329.62" y="-156.3" font-family="Helvetica,sans-Serif" font-size="11.00">check_slip</text>
<polygon fill="none" stroke="black" points="296.75,-130.25 296.75,-149.75 506.5,-149.75 506.5,-130.25 296.75,-130.25"/>
<text text-anchor="start" x="299.75" y="-136.3" font-family="Helvetica,sans-Serif" font-size="11.00">...</text>
<polygon fill="#ffffff" stroke="none" points="296.75,-110.75 296.75,-130.25 374.67,-130.25 374.67,-110.75 296.75,-110.75"/>
<polygon fill="none" stroke="black" points="296.75,-110.75 296.75,-130.25 374.67,-130.25 374.67,-110.75 296.75,-110.75"/>
<text text-anchor="start" x="299.75" y="-116.8" font-family="Helvetica,sans-Serif" font-size="11.00">&lt; 3</text>
<polygon fill="#ffffff" stroke="none" points="374.67,-110.75 374.67,-130.25 440.58,-130.25 440.58,-110.75 374.67,-110.75"/>
<polygon fill="none" stroke="black" points="374.67,-110.75 374.67,-130.25 440.58,-130.25 440.58,-110.75 374.67,-110.75"/>
<text text-anchor="start" x="430.08" y="-116.8" font-family="Helvetica,sans-Serif" font-size="11.00"> &#160;</text>
<polygon fill="#ffffff" stroke="none" points="440.58,-110.75 440.58,-130.25 506.5,-130.25 506.5,-110.75 440.58,-110.75"/>
<polygon fill="none" stroke="black" points="440.58,-110.75 440.58,-130.25 506.5,-130.25 506.5,-110.75 440.58,-110.75"/>
<text text-anchor="start" x="496" y="-116.8" font-family="Helvetica,sans-Serif" font-size="11.00"> &#160;</text>
</a>
</g>
</g>
<!-- del_delivered_document&#45;&gt;check_slip -->
<g id="edge2" class="edge">
<title>del_delivered_document:w&#45;&gt;check_slip:e</title>
<path fill="none" stroke="black" d="M281.08,-165.89C261.46,-184.46 284.29,-247 246.75,-247"/>
<polygon fill="black" stroke="black" points="287.88,-163.5 296.62,-164.26 291.97,-162.07 295.12,-160.97 295.12,-160.97 295.12,-160.97 291.97,-162.07 294.24,-157.46 287.88,-163.5"/>
<ellipse fill="none" stroke="black" cx="283.24" cy="-165.13" rx="3.2" ry="3.2"/>
</g>
</g>
</svg>
