<?xml version="1.0" encoding="UTF-8" standalone="no"?>
<!DOCTYPE svg PUBLIC "-//W3C//DTD SVG 1.1//EN"
 "http://www.w3.org/Graphics/SVG/1.1/DTD/svg11.dtd">
<!-- Generated by graphviz version 12.2.0 (0)
 -->
<!-- Title: oneDegreeRelationshipsDiagram Pages: 1 -->
<svg width="470pt" height="384pt"
 viewBox="0.00 0.00 470.25 383.50" xmlns="http://www.w3.org/2000/svg" xmlns:xlink="http://www.w3.org/1999/xlink">
<g id="graph0" class="graph" transform="scale(1 1) rotate(0) translate(4 379.5)">
<title>oneDegreeRelationshipsDiagram</title>
<polygon fill="#ffffff" stroke="none" points="-4,4 -4,-379.5 466.25,-379.5 466.25,4 -4,4"/>
<text text-anchor="middle" x="79.25" y="-7.05" font-family="Helvetica,sans-Serif" font-size="11.00">Generated by SchemaSpy</text>
<!-- check_slip_line -->
<g id="node1" class="node">
<title>check_slip_line</title>
<g id="a_node1"><a xlink:href="../../tables/check_slip_line.html" xlink:title="check_slip_line" target="_top">
<polygon fill="#ffffff" stroke="none" points="205,-38.5 205,-371.5 454.25,-371.5 454.25,-38.5 205,-38.5"/>
<polygon fill="#f5f5f5" stroke="none" points="207,-346 207,-369.5 452.25,-369.5 452.25,-346 207,-346"/>
<polygon fill="none" stroke="black" points="207,-346 207,-369.5 452.25,-369.5 452.25,-346 207,-346"/>
<text text-anchor="start" x="212" y="-355.05" font-family="Helvetica,sans-Serif" font-weight="bold" font-size="11.00">check_slip_line</text>
<text text-anchor="start" x="410.5" y="-354.05" font-family="Helvetica,sans-Serif" font-size="11.00">[table]</text>
<polygon fill="none" stroke="black" points="207,-324 207,-346 355,-346 355,-324 207,-324"/>
<image xlink:href="../../images/primaryKeys.png" width="11px" height="12px" preserveAspectRatio="xMinYMin meet" x="212" y="-341"/>
<text text-anchor="start" x="227" y="-330.55" font-family="Helvetica,sans-Serif" font-size="11.00">identifier</text>
<polygon fill="none" stroke="black" points="355,-324 355,-346 447.5,-346 447.5,-324 355,-324"/>
<text text-anchor="start" x="358" y="-331.3" font-family="Helvetica,sans-Serif" font-size="11.00">varchar[191]</text>
<polygon fill="none" stroke="black" points="207,-302 207,-324 355,-324 355,-302 207,-302"/>
<text text-anchor="start" x="227" y="-308.55" font-family="Helvetica,sans-Serif" font-size="11.00">pgcn_id</text>
<polygon fill="none" stroke="black" points="355,-302 355,-324 447.5,-324 447.5,-302 355,-302"/>
<text text-anchor="start" x="358" y="-309.3" font-family="Helvetica,sans-Serif" font-size="11.00">varchar[255]</text>
<polygon fill="none" stroke="black" points="207,-280 207,-302 355,-302 355,-280 207,-280"/>
<text text-anchor="start" x="227" y="-286.55" font-family="Helvetica,sans-Serif" font-size="11.00">title</text>
<polygon fill="none" stroke="black" points="355,-280 355,-302 447.5,-302 447.5,-280 355,-280"/>
<text text-anchor="start" x="358" y="-287.3" font-family="Helvetica,sans-Serif" font-size="11.00">varchar[255]</text>
<polygon fill="none" stroke="black" points="207,-258 207,-280 355,-280 355,-258 207,-258"/>
<text text-anchor="start" x="227" y="-264.55" font-family="Helvetica,sans-Serif" font-size="11.00">status</text>
<polygon fill="none" stroke="black" points="355,-258 355,-280 447.5,-280 447.5,-258 355,-258"/>
<text text-anchor="start" x="358" y="-265.3" font-family="Helvetica,sans-Serif" font-size="11.00">varchar[255]</text>
<polygon fill="none" stroke="black" points="207,-236 207,-258 355,-258 355,-236 207,-236"/>
<text text-anchor="start" x="227" y="-242.55" font-family="Helvetica,sans-Serif" font-size="11.00">doc_errors</text>
<polygon fill="none" stroke="black" points="355,-236 355,-258 447.5,-258 447.5,-236 355,-236"/>
<text text-anchor="start" x="358" y="-243.3" font-family="Helvetica,sans-Serif" font-size="11.00">text[65535]</text>
<polygon fill="none" stroke="black" points="207,-214 207,-236 355,-236 355,-214 207,-214"/>
<text text-anchor="start" x="227" y="-220.55" font-family="Helvetica,sans-Serif" font-size="11.00">nb_pages</text>
<polygon fill="none" stroke="black" points="355,-214 355,-236 447.5,-236 447.5,-214 355,-214"/>
<text text-anchor="start" x="358" y="-221.3" font-family="Helvetica,sans-Serif" font-size="11.00">int[10]</text>
<polygon fill="none" stroke="black" points="207,-192 207,-214 355,-214 355,-192 207,-192"/>
<text text-anchor="start" x="227" y="-198.55" font-family="Helvetica,sans-Serif" font-size="11.00">nb_pages_to_bill</text>
<polygon fill="none" stroke="black" points="355,-192 355,-214 447.5,-214 447.5,-192 355,-192"/>
<text text-anchor="start" x="358" y="-199.3" font-family="Helvetica,sans-Serif" font-size="11.00">int[10]</text>
<polygon fill="#ffffff" stroke="none" points="207,-170 207,-192 355,-192 355,-170 207,-170"/>
<polygon fill="none" stroke="black" points="207,-170 207,-192 355,-192 355,-170 207,-170"/>
<image xlink:href="../../images/foreignKeys.png" width="11px" height="12px" preserveAspectRatio="xMinYMin meet" x="212" y="-187"/>
<text text-anchor="start" x="227" y="-176.55" font-family="Helvetica,sans-Serif" font-size="11.00">check_slip</text>
<polygon fill="none" stroke="black" points="355,-170 355,-192 447.5,-192 447.5,-170 355,-170"/>
<text text-anchor="start" x="358" y="-177.3" font-family="Helvetica,sans-Serif" font-size="11.00">varchar[191]</text>
<polygon fill="none" stroke="black" points="207,-148 207,-170 355,-170 355,-148 207,-148"/>
<text text-anchor="start" x="227" y="-154.55" font-family="Helvetica,sans-Serif" font-size="11.00">version</text>
<polygon fill="none" stroke="black" points="355,-148 355,-170 447.5,-170 447.5,-148 355,-148"/>
<text text-anchor="start" x="358" y="-155.3" font-family="Helvetica,sans-Serif" font-size="11.00">bigint[19]</text>
<polygon fill="none" stroke="black" points="207,-126 207,-148 355,-148 355,-126 207,-126"/>
<text text-anchor="start" x="227" y="-132.55" font-family="Helvetica,sans-Serif" font-size="11.00">created_by</text>
<polygon fill="none" stroke="black" points="355,-126 355,-148 447.5,-148 447.5,-126 355,-126"/>
<text text-anchor="start" x="358" y="-133.3" font-family="Helvetica,sans-Serif" font-size="11.00">varchar[191]</text>
<polygon fill="none" stroke="black" points="207,-104 207,-126 355,-126 355,-104 207,-104"/>
<text text-anchor="start" x="227" y="-110.55" font-family="Helvetica,sans-Serif" font-size="11.00">last_modified_by</text>
<polygon fill="none" stroke="black" points="355,-104 355,-126 447.5,-126 447.5,-104 355,-104"/>
<text text-anchor="start" x="358" y="-111.3" font-family="Helvetica,sans-Serif" font-size="11.00">varchar[191]</text>
<polygon fill="none" stroke="black" points="207,-82 207,-104 355,-104 355,-82 207,-82"/>
<text text-anchor="start" x="227" y="-88.55" font-family="Helvetica,sans-Serif" font-size="11.00">created_date</text>
<polygon fill="none" stroke="black" points="355,-82 355,-104 447.5,-104 447.5,-82 355,-82"/>
<text text-anchor="start" x="358" y="-89.3" font-family="Helvetica,sans-Serif" font-size="11.00">timestamp[19]</text>
<polygon fill="none" stroke="black" points="207,-60 207,-82 355,-82 355,-60 207,-60"/>
<text text-anchor="start" x="227" y="-66.55" font-family="Helvetica,sans-Serif" font-size="11.00">last_modified_date</text>
<polygon fill="none" stroke="black" points="355,-60 355,-82 447.5,-82 447.5,-60 355,-60"/>
<text text-anchor="start" x="358" y="-67.3" font-family="Helvetica,sans-Serif" font-size="11.00">timestamp[19]</text>
<polygon fill="#ffffff" stroke="none" points="207,-40.5 207,-60 287,-60 287,-40.5 207,-40.5"/>
<polygon fill="none" stroke="black" points="207,-40.5 207,-60 287,-60 287,-40.5 207,-40.5"/>
<text text-anchor="start" x="210" y="-46.55" font-family="Helvetica,sans-Serif" font-size="11.00">&lt; 1</text>
<polygon fill="#ffffff" stroke="none" points="287,-40.5 287,-60 355,-60 355,-40.5 287,-40.5"/>
<polygon fill="none" stroke="black" points="287,-40.5 287,-60 355,-60 355,-40.5 287,-40.5"/>
<text text-anchor="start" x="344.5" y="-46.55" font-family="Helvetica,sans-Serif" font-size="11.00"> &#160;</text>
<polygon fill="#ffffff" stroke="none" points="355,-40.5 355,-60 447.5,-60 447.5,-40.5 355,-40.5"/>
<polygon fill="none" stroke="black" points="355,-40.5 355,-60 447.5,-60 447.5,-40.5 355,-40.5"/>
<text text-anchor="start" x="425" y="-46.55" font-family="Helvetica,sans-Serif" font-size="11.00">0 &gt;</text>
<polygon fill="none" stroke="black" stroke-width="2" points="206,-39.5 206,-370.5 453.25,-370.5 453.25,-39.5 206,-39.5"/>
</a>
</g>
</g>
<!-- check_slip -->
<g id="node2" class="node">
<title>check_slip</title>
<g id="a_node2"><a xlink:href="../../tables/check_slip.html" xlink:title="check_slip" target="_top">
<polygon fill="#ffffff" stroke="none" points="8,-131.75 8,-216.25 156,-216.25 156,-131.75 8,-131.75"/>
<polygon fill="#f5f5f5" stroke="none" points="8,-192.75 8,-216.25 156,-216.25 156,-192.75 8,-192.75"/>
<polygon fill="none" stroke="black" points="8,-192.75 8,-216.25 156,-216.25 156,-192.75 8,-192.75"/>
<text text-anchor="start" x="13" y="-201.8" font-family="Helvetica,sans-Serif" font-weight="bold" font-size="11.00">check_slip</text>
<text text-anchor="start" x="114.25" y="-200.8" font-family="Helvetica,sans-Serif" font-size="11.00">[table]</text>
<polygon fill="none" stroke="black" points="8,-170.75 8,-192.75 156,-192.75 156,-170.75 8,-170.75"/>
<image xlink:href="../../images/primaryKeys.png" width="11px" height="12px" preserveAspectRatio="xMinYMin meet" x="13" y="-187.75"/>
<text text-anchor="start" x="28" y="-177.3" font-family="Helvetica,sans-Serif" font-size="11.00">identifier</text>
<polygon fill="none" stroke="black" points="8,-151.25 8,-170.75 156,-170.75 156,-151.25 8,-151.25"/>
<text text-anchor="start" x="11" y="-157.3" font-family="Helvetica,sans-Serif" font-size="11.00">...</text>
<polygon fill="#ffffff" stroke="none" points="8,-131.75 8,-151.25 53.33,-151.25 53.33,-131.75 8,-131.75"/>
<polygon fill="none" stroke="black" points="8,-131.75 8,-151.25 53.33,-151.25 53.33,-131.75 8,-131.75"/>
<text text-anchor="start" x="11" y="-137.8" font-family="Helvetica,sans-Serif" font-size="11.00"> &#160;</text>
<polygon fill="#ffffff" stroke="none" points="53.33,-131.75 53.33,-151.25 98.67,-151.25 98.67,-131.75 53.33,-131.75"/>
<polygon fill="none" stroke="black" points="53.33,-131.75 53.33,-151.25 98.67,-151.25 98.67,-131.75 53.33,-131.75"/>
<text text-anchor="start" x="88.17" y="-137.8" font-family="Helvetica,sans-Serif" font-size="11.00"> &#160;</text>
<polygon fill="#ffffff" stroke="none" points="98.67,-131.75 98.67,-151.25 156,-151.25 156,-131.75 98.67,-131.75"/>
<polygon fill="none" stroke="black" points="98.67,-131.75 98.67,-151.25 156,-151.25 156,-131.75 98.67,-131.75"/>
<text text-anchor="start" x="133.5" y="-137.8" font-family="Helvetica,sans-Serif" font-size="11.00">2 &gt;</text>
</a>
</g>
</g>
<!-- check_slip_line&#45;&gt;check_slip -->
<g id="edge1" class="edge">
<title>check_slip_line:w&#45;&gt;check_slip:e</title>
<path fill="none" stroke="black" d="M190.42,-181.15C179.71,-181.37 172.48,-181.75 157,-181.75"/>
<polygon fill="black" stroke="black" points="197.67,-181.08 205.7,-184.6 202,-181.04 205.33,-181.01 205.33,-181.01 205.33,-181.01 202,-181.04 205.63,-177.4 197.67,-181.08"/>
<ellipse fill="none" stroke="black" cx="192.75" cy="-181.13" rx="3.2" ry="3.2"/>
</g>
</g>
</svg>
