<?xml version="1.0" encoding="UTF-8" standalone="no"?>
<!DOCTYPE svg PUBLIC "-//W3C//DTD SVG 1.1//EN"
 "http://www.w3.org/Graphics/SVG/1.1/DTD/svg11.dtd">
<!-- Generated by graphviz version 12.2.0 (0)
 -->
<!-- Title: oneDegreeRelationshipsDiagram Pages: 1 -->
<svg width="752pt" height="406pt"
 viewBox="0.00 0.00 751.50 405.50" xmlns="http://www.w3.org/2000/svg" xmlns:xlink="http://www.w3.org/1999/xlink">
<g id="graph0" class="graph" transform="scale(1 1) rotate(0) translate(4 401.5)">
<title>oneDegreeRelationshipsDiagram</title>
<polygon fill="#ffffff" stroke="none" points="-4,4 -4,-401.5 747.5,-401.5 747.5,4 -4,4"/>
<text text-anchor="middle" x="79.25" y="-7.05" font-family="Helvetica,sans-Serif" font-size="11.00">Generated by SchemaSpy</text>
<!-- conf_email -->
<g id="node1" class="node">
<title>conf_email</title>
<g id="a_node1"><a xlink:href="../../tables/conf_email.html" xlink:title="conf_email" target="_top">
<polygon fill="#ffffff" stroke="none" points="291,-38.5 291,-393.5 530.75,-393.5 530.75,-38.5 291,-38.5"/>
<polygon fill="#f5f5f5" stroke="none" points="293,-368 293,-391.5 528.75,-391.5 528.75,-368 293,-368"/>
<polygon fill="none" stroke="black" points="293,-368 293,-391.5 528.75,-391.5 528.75,-368 293,-368"/>
<text text-anchor="start" x="298" y="-377.05" font-family="Helvetica,sans-Serif" font-weight="bold" font-size="11.00">conf_email</text>
<text text-anchor="start" x="487" y="-376.05" font-family="Helvetica,sans-Serif" font-size="11.00">[table]</text>
<polygon fill="none" stroke="black" points="293,-346 293,-368 441,-368 441,-346 293,-346"/>
<image xlink:href="../../images/primaryKeys.png" width="11px" height="12px" preserveAspectRatio="xMinYMin meet" x="298" y="-363"/>
<text text-anchor="start" x="313" y="-352.55" font-family="Helvetica,sans-Serif" font-size="11.00">identifier</text>
<polygon fill="none" stroke="black" points="441,-346 441,-368 528.75,-368 528.75,-346 441,-346"/>
<text text-anchor="start" x="444" y="-353.3" font-family="Helvetica,sans-Serif" font-size="11.00">varchar[191]</text>
<polygon fill="none" stroke="black" points="293,-324 293,-346 441,-346 441,-324 293,-324"/>
<text text-anchor="start" x="313" y="-330.55" font-family="Helvetica,sans-Serif" font-size="11.00">label</text>
<polygon fill="none" stroke="black" points="441,-324 441,-346 528.75,-346 528.75,-324 441,-324"/>
<text text-anchor="start" x="444" y="-331.3" font-family="Helvetica,sans-Serif" font-size="11.00">varchar[255]</text>
<polygon fill="#ffffff" stroke="none" points="293,-302 293,-324 441,-324 441,-302 293,-302"/>
<polygon fill="none" stroke="black" points="293,-302 293,-324 441,-324 441,-302 293,-302"/>
<image xlink:href="../../images/foreignKeys.png" width="11px" height="12px" preserveAspectRatio="xMinYMin meet" x="298" y="-319"/>
<text text-anchor="start" x="313" y="-308.55" font-family="Helvetica,sans-Serif" font-size="11.00">library</text>
<polygon fill="none" stroke="black" points="441,-302 441,-324 528.75,-324 528.75,-302 441,-302"/>
<text text-anchor="start" x="444" y="-309.3" font-family="Helvetica,sans-Serif" font-size="11.00">varchar[191]</text>
<polygon fill="none" stroke="black" points="293,-280 293,-302 441,-302 441,-280 293,-280"/>
<text text-anchor="start" x="313" y="-286.55" font-family="Helvetica,sans-Serif" font-size="11.00">username</text>
<polygon fill="none" stroke="black" points="441,-280 441,-302 528.75,-302 528.75,-280 441,-280"/>
<text text-anchor="start" x="444" y="-287.3" font-family="Helvetica,sans-Serif" font-size="11.00">varchar[255]</text>
<polygon fill="none" stroke="black" points="293,-258 293,-280 441,-280 441,-258 293,-258"/>
<text text-anchor="start" x="313" y="-264.55" font-family="Helvetica,sans-Serif" font-size="11.00">password</text>
<polygon fill="none" stroke="black" points="441,-258 441,-280 528.75,-280 528.75,-258 441,-258"/>
<text text-anchor="start" x="444" y="-265.3" font-family="Helvetica,sans-Serif" font-size="11.00">varchar[255]</text>
<polygon fill="none" stroke="black" points="293,-236 293,-258 441,-258 441,-236 293,-236"/>
<text text-anchor="start" x="313" y="-242.55" font-family="Helvetica,sans-Serif" font-size="11.00">host</text>
<polygon fill="none" stroke="black" points="441,-236 441,-258 528.75,-258 528.75,-236 441,-236"/>
<text text-anchor="start" x="444" y="-243.3" font-family="Helvetica,sans-Serif" font-size="11.00">varchar[255]</text>
<polygon fill="none" stroke="black" points="293,-214 293,-236 441,-236 441,-214 293,-214"/>
<text text-anchor="start" x="313" y="-220.55" font-family="Helvetica,sans-Serif" font-size="11.00">port</text>
<polygon fill="none" stroke="black" points="441,-214 441,-236 528.75,-236 528.75,-214 441,-214"/>
<text text-anchor="start" x="444" y="-221.3" font-family="Helvetica,sans-Serif" font-size="11.00">int[10]</text>
<polygon fill="none" stroke="black" points="293,-192 293,-214 441,-214 441,-192 293,-192"/>
<text text-anchor="start" x="313" y="-198.55" font-family="Helvetica,sans-Serif" font-size="11.00">inbox</text>
<polygon fill="none" stroke="black" points="441,-192 441,-214 528.75,-214 528.75,-192 441,-192"/>
<text text-anchor="start" x="444" y="-199.3" font-family="Helvetica,sans-Serif" font-size="11.00">varchar[255]</text>
<polygon fill="none" stroke="black" points="293,-170 293,-192 441,-192 441,-170 293,-170"/>
<text text-anchor="start" x="313" y="-176.55" font-family="Helvetica,sans-Serif" font-size="11.00">active</text>
<polygon fill="none" stroke="black" points="441,-170 441,-192 528.75,-192 528.75,-170 441,-170"/>
<text text-anchor="start" x="444" y="-177.3" font-family="Helvetica,sans-Serif" font-size="11.00">bit[1]</text>
<polygon fill="none" stroke="black" points="293,-148 293,-170 441,-170 441,-148 293,-148"/>
<text text-anchor="start" x="313" y="-154.55" font-family="Helvetica,sans-Serif" font-size="11.00">version</text>
<polygon fill="none" stroke="black" points="441,-148 441,-170 528.75,-170 528.75,-148 441,-148"/>
<text text-anchor="start" x="444" y="-155.3" font-family="Helvetica,sans-Serif" font-size="11.00">bigint[19]</text>
<polygon fill="none" stroke="black" points="293,-126 293,-148 441,-148 441,-126 293,-126"/>
<text text-anchor="start" x="313" y="-132.55" font-family="Helvetica,sans-Serif" font-size="11.00">created_by</text>
<polygon fill="none" stroke="black" points="441,-126 441,-148 528.75,-148 528.75,-126 441,-126"/>
<text text-anchor="start" x="444" y="-133.3" font-family="Helvetica,sans-Serif" font-size="11.00">varchar[255]</text>
<polygon fill="none" stroke="black" points="293,-104 293,-126 441,-126 441,-104 293,-104"/>
<text text-anchor="start" x="313" y="-110.55" font-family="Helvetica,sans-Serif" font-size="11.00">last_modified_by</text>
<polygon fill="none" stroke="black" points="441,-104 441,-126 528.75,-126 528.75,-104 441,-104"/>
<text text-anchor="start" x="444" y="-111.3" font-family="Helvetica,sans-Serif" font-size="11.00">varchar[255]</text>
<polygon fill="none" stroke="black" points="293,-82 293,-104 441,-104 441,-82 293,-82"/>
<text text-anchor="start" x="313" y="-88.55" font-family="Helvetica,sans-Serif" font-size="11.00">created_date</text>
<polygon fill="none" stroke="black" points="441,-82 441,-104 528.75,-104 528.75,-82 441,-82"/>
<text text-anchor="start" x="444" y="-89.3" font-family="Helvetica,sans-Serif" font-size="11.00">timestamp[19]</text>
<polygon fill="none" stroke="black" points="293,-60 293,-82 441,-82 441,-60 293,-60"/>
<text text-anchor="start" x="313" y="-66.55" font-family="Helvetica,sans-Serif" font-size="11.00">last_modified_date</text>
<polygon fill="none" stroke="black" points="441,-60 441,-82 528.75,-82 528.75,-60 441,-60"/>
<text text-anchor="start" x="444" y="-67.3" font-family="Helvetica,sans-Serif" font-size="11.00">timestamp[19]</text>
<polygon fill="#ffffff" stroke="none" points="293,-40.5 293,-60 373,-60 373,-40.5 293,-40.5"/>
<polygon fill="none" stroke="black" points="293,-40.5 293,-60 373,-60 373,-40.5 293,-40.5"/>
<text text-anchor="start" x="296" y="-46.55" font-family="Helvetica,sans-Serif" font-size="11.00">&lt; 1</text>
<polygon fill="#ffffff" stroke="none" points="373,-40.5 373,-60 441,-60 441,-40.5 373,-40.5"/>
<polygon fill="none" stroke="black" points="373,-40.5 373,-60 441,-60 441,-40.5 373,-40.5"/>
<text text-anchor="start" x="430.5" y="-46.55" font-family="Helvetica,sans-Serif" font-size="11.00"> &#160;</text>
<polygon fill="#ffffff" stroke="none" points="441,-40.5 441,-60 528.75,-60 528.75,-40.5 441,-40.5"/>
<polygon fill="none" stroke="black" points="441,-40.5 441,-60 528.75,-60 528.75,-40.5 441,-40.5"/>
<text text-anchor="start" x="506.25" y="-46.55" font-family="Helvetica,sans-Serif" font-size="11.00">1 &gt;</text>
<polygon fill="none" stroke="black" stroke-width="2" points="292,-39.5 292,-392.5 529.75,-392.5 529.75,-39.5 292,-39.5"/>
</a>
</g>
</g>
<!-- lib_library -->
<g id="node2" class="node">
<title>lib_library</title>
<g id="a_node2"><a xlink:href="../../tables/lib_library.html" xlink:title="lib_library" target="_top">
<polygon fill="#ffffff" stroke="none" points="8,-130.75 8,-347.25 242,-347.25 242,-130.75 8,-130.75"/>
<polygon fill="#f5f5f5" stroke="none" points="8,-323.75 8,-347.25 242,-347.25 242,-323.75 8,-323.75"/>
<polygon fill="none" stroke="black" points="8,-323.75 8,-347.25 242,-347.25 242,-323.75 8,-323.75"/>
<text text-anchor="start" x="13" y="-332.8" font-family="Helvetica,sans-Serif" font-weight="bold" font-size="11.00">lib_library</text>
<text text-anchor="start" x="200.25" y="-331.8" font-family="Helvetica,sans-Serif" font-size="11.00">[table]</text>
<polygon fill="none" stroke="black" points="8,-301.75 8,-323.75 242,-323.75 242,-301.75 8,-301.75"/>
<image xlink:href="../../images/primaryKeys.png" width="11px" height="12px" preserveAspectRatio="xMinYMin meet" x="13" y="-318.75"/>
<text text-anchor="start" x="28" y="-308.3" font-family="Helvetica,sans-Serif" font-size="11.00">identifier</text>
<polygon fill="#ffffff" stroke="none" points="8,-279.75 8,-301.75 242,-301.75 242,-279.75 8,-279.75"/>
<polygon fill="none" stroke="black" points="8,-279.75 8,-301.75 242,-301.75 242,-279.75 8,-279.75"/>
<image xlink:href="../../images/foreignKeys.png" width="11px" height="12px" preserveAspectRatio="xMinYMin meet" x="13" y="-296.75"/>
<text text-anchor="start" x="28" y="-286.3" font-family="Helvetica,sans-Serif" font-size="11.00">address</text>
<polygon fill="#ffffff" stroke="none" points="8,-257.75 8,-279.75 242,-279.75 242,-257.75 8,-257.75"/>
<polygon fill="none" stroke="black" points="8,-257.75 8,-279.75 242,-279.75 242,-257.75 8,-257.75"/>
<image xlink:href="../../images/foreignKeys.png" width="11px" height="12px" preserveAspectRatio="xMinYMin meet" x="13" y="-274.75"/>
<text text-anchor="start" x="28" y="-264.3" font-family="Helvetica,sans-Serif" font-size="11.00">active_configuration_ftp</text>
<polygon fill="#ffffff" stroke="none" points="8,-235.75 8,-257.75 242,-257.75 242,-235.75 8,-235.75"/>
<polygon fill="none" stroke="black" points="8,-235.75 8,-257.75 242,-257.75 242,-235.75 8,-235.75"/>
<image xlink:href="../../images/foreignKeys.png" width="11px" height="12px" preserveAspectRatio="xMinYMin meet" x="13" y="-252.75"/>
<text text-anchor="start" x="28" y="-242.3" font-family="Helvetica,sans-Serif" font-size="11.00">active_configuration_check</text>
<polygon fill="#ffffff" stroke="none" points="8,-213.75 8,-235.75 242,-235.75 242,-213.75 8,-213.75"/>
<polygon fill="none" stroke="black" points="8,-213.75 8,-235.75 242,-235.75 242,-213.75 8,-213.75"/>
<image xlink:href="../../images/foreignKeys.png" width="11px" height="12px" preserveAspectRatio="xMinYMin meet" x="13" y="-230.75"/>
<text text-anchor="start" x="28" y="-220.3" font-family="Helvetica,sans-Serif" font-size="11.00">role</text>
<polygon fill="#ffffff" stroke="none" points="8,-191.75 8,-213.75 242,-213.75 242,-191.75 8,-191.75"/>
<polygon fill="none" stroke="black" points="8,-191.75 8,-213.75 242,-213.75 242,-191.75 8,-191.75"/>
<image xlink:href="../../images/foreignKeys.png" width="11px" height="12px" preserveAspectRatio="xMinYMin meet" x="13" y="-208.75"/>
<text text-anchor="start" x="28" y="-198.3" font-family="Helvetica,sans-Serif" font-size="11.00">active_configuration_export_ftp</text>
<polygon fill="#ffffff" stroke="none" points="8,-169.75 8,-191.75 242,-191.75 242,-169.75 8,-169.75"/>
<polygon fill="none" stroke="black" points="8,-169.75 8,-191.75 242,-191.75 242,-169.75 8,-169.75"/>
<image xlink:href="../../images/foreignKeys.png" width="11px" height="12px" preserveAspectRatio="xMinYMin meet" x="13" y="-186.75"/>
<text text-anchor="start" x="28" y="-176.3" font-family="Helvetica,sans-Serif" font-size="11.00">active_configuration_ocr_lang</text>
<polygon fill="none" stroke="black" points="8,-150.25 8,-169.75 242,-169.75 242,-150.25 8,-150.25"/>
<text text-anchor="start" x="11" y="-156.3" font-family="Helvetica,sans-Serif" font-size="11.00">...</text>
<polygon fill="#ffffff" stroke="none" points="8,-130.75 8,-150.25 87.75,-150.25 87.75,-130.75 8,-130.75"/>
<polygon fill="none" stroke="black" points="8,-130.75 8,-150.25 87.75,-150.25 87.75,-130.75 8,-130.75"/>
<text text-anchor="start" x="11" y="-136.8" font-family="Helvetica,sans-Serif" font-size="11.00">&lt; 6</text>
<polygon fill="#ffffff" stroke="none" points="87.75,-130.75 87.75,-150.25 155.5,-150.25 155.5,-130.75 87.75,-130.75"/>
<polygon fill="none" stroke="black" points="87.75,-130.75 87.75,-150.25 155.5,-150.25 155.5,-130.75 87.75,-130.75"/>
<text text-anchor="start" x="145" y="-136.8" font-family="Helvetica,sans-Serif" font-size="11.00"> &#160;</text>
<polygon fill="#ffffff" stroke="none" points="155.5,-130.75 155.5,-150.25 242,-150.25 242,-130.75 155.5,-130.75"/>
<polygon fill="none" stroke="black" points="155.5,-130.75 155.5,-150.25 242,-150.25 242,-130.75 155.5,-130.75"/>
<text text-anchor="start" x="212.75" y="-136.8" font-family="Helvetica,sans-Serif" font-size="11.00">27 &gt;</text>
</a>
</g>
</g>
<!-- conf_email&#45;&gt;lib_library -->
<g id="edge1" class="edge">
<title>conf_email:w&#45;&gt;lib_library:e</title>
<path fill="none" stroke="black" d="M276.42,-312.95C265.71,-312.88 258.48,-312.75 243,-312.75"/>
<polygon fill="black" stroke="black" points="283.67,-312.97 291.65,-316.6 288,-312.99 291.33,-313 291.33,-313 291.33,-313 288,-312.99 291.68,-309.4 283.67,-312.97"/>
<ellipse fill="none" stroke="black" cx="278.75" cy="-312.96" rx="3.2" ry="3.2"/>
</g>
<!-- conf_email_prop -->
<g id="node3" class="node">
<title>conf_email_prop</title>
<g id="a_node3"><a xlink:href="../../tables/conf_email_prop.html" xlink:title="conf_email_prop" target="_top">
<polygon fill="#ffffff" stroke="none" points="579.75,-306.75 579.75,-391.25 735.5,-391.25 735.5,-306.75 579.75,-306.75"/>
<polygon fill="#f5f5f5" stroke="none" points="579.75,-367.75 579.75,-391.25 735.5,-391.25 735.5,-367.75 579.75,-367.75"/>
<polygon fill="none" stroke="black" points="579.75,-367.75 579.75,-391.25 735.5,-391.25 735.5,-367.75 579.75,-367.75"/>
<text text-anchor="start" x="584.75" y="-376.8" font-family="Helvetica,sans-Serif" font-weight="bold" font-size="11.00">conf_email_prop</text>
<text text-anchor="start" x="693.75" y="-375.8" font-family="Helvetica,sans-Serif" font-size="11.00">[table]</text>
<polygon fill="#ffffff" stroke="none" points="579.75,-345.75 579.75,-367.75 735.5,-367.75 735.5,-345.75 579.75,-345.75"/>
<polygon fill="none" stroke="black" points="579.75,-345.75 579.75,-367.75 735.5,-367.75 735.5,-345.75 579.75,-345.75"/>
<image xlink:href="../../images/foreignKeys.png" width="11px" height="12px" preserveAspectRatio="xMinYMin meet" x="584.75" y="-362.75"/>
<text text-anchor="start" x="612.62" y="-352.3" font-family="Helvetica,sans-Serif" font-size="11.00">conf_id</text>
<polygon fill="none" stroke="black" points="579.75,-326.25 579.75,-345.75 735.5,-345.75 735.5,-326.25 579.75,-326.25"/>
<text text-anchor="start" x="582.75" y="-332.3" font-family="Helvetica,sans-Serif" font-size="11.00">...</text>
<polygon fill="#ffffff" stroke="none" points="579.75,-306.75 579.75,-326.25 639.67,-326.25 639.67,-306.75 579.75,-306.75"/>
<polygon fill="none" stroke="black" points="579.75,-306.75 579.75,-326.25 639.67,-326.25 639.67,-306.75 579.75,-306.75"/>
<text text-anchor="start" x="582.75" y="-312.8" font-family="Helvetica,sans-Serif" font-size="11.00">&lt; 1</text>
<polygon fill="#ffffff" stroke="none" points="639.67,-306.75 639.67,-326.25 687.58,-326.25 687.58,-306.75 639.67,-306.75"/>
<polygon fill="none" stroke="black" points="639.67,-306.75 639.67,-326.25 687.58,-326.25 687.58,-306.75 639.67,-306.75"/>
<text text-anchor="start" x="677.08" y="-312.8" font-family="Helvetica,sans-Serif" font-size="11.00"> &#160;</text>
<polygon fill="#ffffff" stroke="none" points="687.58,-306.75 687.58,-326.25 735.5,-326.25 735.5,-306.75 687.58,-306.75"/>
<polygon fill="none" stroke="black" points="687.58,-306.75 687.58,-326.25 735.5,-326.25 735.5,-306.75 687.58,-306.75"/>
<text text-anchor="start" x="725" y="-312.8" font-family="Helvetica,sans-Serif" font-size="11.00"> &#160;</text>
</a>
</g>
</g>
<!-- conf_email_prop&#45;&gt;conf_email -->
<g id="edge2" class="edge">
<title>conf_email_prop:w&#45;&gt;conf_email:e</title>
<path fill="none" stroke="black" d="M563.17,-356.8C552.46,-356.87 545.23,-357 529.75,-357"/>
<polygon fill="black" stroke="black" points="570.42,-356.78 578.43,-360.35 574.75,-356.76 578.08,-356.75 578.08,-356.75 578.08,-356.75 574.75,-356.76 578.4,-353.15 570.42,-356.78"/>
<ellipse fill="none" stroke="black" cx="565.5" cy="-356.79" rx="3.2" ry="3.2"/>
</g>
</g>
</svg>
