<?xml version="1.0" encoding="UTF-8" standalone="no"?>
<!DOCTYPE svg PUBLIC "-//W3C//DTD SVG 1.1//EN"
 "http://www.w3.org/Graphics/SVG/1.1/DTD/svg11.dtd">
<!-- Generated by graphviz version 12.2.0 (0)
 -->
<!-- Title: twoDegreesRelationshipsDiagram Pages: 1 -->
<svg width="2039pt" height="1137pt"
 viewBox="0.00 0.00 2039.01 1136.79" xmlns="http://www.w3.org/2000/svg" xmlns:xlink="http://www.w3.org/1999/xlink">
<g id="graph0" class="graph" transform="scale(1 1) rotate(0) translate(4 1132.79)">
<title>twoDegreesRelationshipsDiagram</title>
<polygon fill="#ffffff" stroke="none" points="-4,4 -4,-1132.79 2035.01,-1132.79 2035.01,4 -4,4"/>
<text text-anchor="middle" x="79.25" y="-7.05" font-family="Helvetica,sans-Serif" font-size="11.00">Generated by SchemaSpy</text>
<!-- conf_configuration_check -->
<g id="node1" class="node">
<title>conf_configuration_check</title>
<g id="a_node1"><a xlink:href="../../tables/conf_configuration_check.html" xlink:title="conf_configuration_check" target="_top">
<polygon fill="#ffffff" stroke="none" points="581.51,-519.75 581.51,-582.25 799.26,-582.25 799.26,-519.75 581.51,-519.75"/>
<polygon fill="#f5f5f5" stroke="none" points="581.51,-558.75 581.51,-582.25 799.26,-582.25 799.26,-558.75 581.51,-558.75"/>
<polygon fill="none" stroke="black" points="581.51,-558.75 581.51,-582.25 799.26,-582.25 799.26,-558.75 581.51,-558.75"/>
<text text-anchor="start" x="586.51" y="-567.8" font-family="Helvetica,sans-Serif" font-weight="bold" font-size="11.00">conf_configuration_check</text>
<text text-anchor="start" x="757.51" y="-566.8" font-family="Helvetica,sans-Serif" font-size="11.00">[table]</text>
<polygon fill="none" stroke="black" points="581.51,-539.25 581.51,-558.75 799.26,-558.75 799.26,-539.25 581.51,-539.25"/>
<text text-anchor="start" x="584.51" y="-545.3" font-family="Helvetica,sans-Serif" font-size="11.00">...</text>
<polygon fill="#ffffff" stroke="none" points="581.51,-519.75 581.51,-539.25 658.1,-539.25 658.1,-519.75 581.51,-519.75"/>
<polygon fill="none" stroke="black" points="581.51,-519.75 581.51,-539.25 658.1,-539.25 658.1,-519.75 581.51,-519.75"/>
<text text-anchor="start" x="584.51" y="-525.8" font-family="Helvetica,sans-Serif" font-size="11.00">&lt; 1</text>
<polygon fill="#ffffff" stroke="none" points="658.1,-519.75 658.1,-539.25 722.68,-539.25 722.68,-519.75 658.1,-519.75"/>
<polygon fill="none" stroke="black" points="658.1,-519.75 658.1,-539.25 722.68,-539.25 722.68,-519.75 658.1,-519.75"/>
<text text-anchor="start" x="712.18" y="-525.8" font-family="Helvetica,sans-Serif" font-size="11.00"> &#160;</text>
<polygon fill="#ffffff" stroke="none" points="722.68,-519.75 722.68,-539.25 799.26,-539.25 799.26,-519.75 722.68,-519.75"/>
<polygon fill="none" stroke="black" points="722.68,-519.75 722.68,-539.25 799.26,-539.25 799.26,-519.75 722.68,-519.75"/>
<text text-anchor="start" x="776.76" y="-525.8" font-family="Helvetica,sans-Serif" font-size="11.00">4 &gt;</text>
</a>
</g>
</g>
<!-- lib_library -->
<g id="node2" class="node">
<title>lib_library</title>
<g id="a_node2"><a xlink:href="../../tables/lib_library.html" xlink:title="lib_library" target="_top">
<polygon fill="#ffffff" stroke="none" points="337.26,-425.75 337.26,-488.25 451.01,-488.25 451.01,-425.75 337.26,-425.75"/>
<polygon fill="#f5f5f5" stroke="none" points="337.26,-464.75 337.26,-488.25 451.01,-488.25 451.01,-464.75 337.26,-464.75"/>
<polygon fill="none" stroke="black" points="337.26,-464.75 337.26,-488.25 451.01,-488.25 451.01,-464.75 337.26,-464.75"/>
<text text-anchor="start" x="342.26" y="-473.8" font-family="Helvetica,sans-Serif" font-weight="bold" font-size="11.00">lib_library</text>
<text text-anchor="start" x="409.26" y="-472.8" font-family="Helvetica,sans-Serif" font-size="11.00">[table]</text>
<polygon fill="none" stroke="black" points="337.26,-445.25 337.26,-464.75 451.01,-464.75 451.01,-445.25 337.26,-445.25"/>
<text text-anchor="start" x="340.26" y="-451.3" font-family="Helvetica,sans-Serif" font-size="11.00">...</text>
<polygon fill="#ffffff" stroke="none" points="337.26,-425.75 337.26,-445.25 376.93,-445.25 376.93,-425.75 337.26,-425.75"/>
<polygon fill="none" stroke="black" points="337.26,-425.75 337.26,-445.25 376.93,-445.25 376.93,-425.75 337.26,-425.75"/>
<text text-anchor="start" x="340.26" y="-431.8" font-family="Helvetica,sans-Serif" font-size="11.00">&lt; 6</text>
<polygon fill="#ffffff" stroke="none" points="376.93,-425.75 376.93,-445.25 404.6,-445.25 404.6,-425.75 376.93,-425.75"/>
<polygon fill="none" stroke="black" points="376.93,-425.75 376.93,-445.25 404.6,-445.25 404.6,-425.75 376.93,-425.75"/>
<text text-anchor="start" x="394.1" y="-431.8" font-family="Helvetica,sans-Serif" font-size="11.00"> &#160;</text>
<polygon fill="#ffffff" stroke="none" points="404.6,-425.75 404.6,-445.25 451.01,-445.25 451.01,-425.75 404.6,-425.75"/>
<polygon fill="none" stroke="black" points="404.6,-425.75 404.6,-445.25 451.01,-445.25 451.01,-425.75 404.6,-425.75"/>
<text text-anchor="start" x="421.76" y="-431.8" font-family="Helvetica,sans-Serif" font-size="11.00">27 &gt;</text>
</a>
</g>
</g>
<!-- conf_configuration_check&#45;&gt;lib_library -->
<g id="edge1" class="edge">
<title>conf_configuration_check:w&#45;&gt;lib_library:e</title>
<path fill="none" stroke="black" d="M565.04,-547.29C511.3,-534.55 517.11,-455 452.01,-455"/>
<polygon fill="black" stroke="black" points="572.23,-548.08 579.78,-552.54 576.54,-548.56 579.85,-548.93 579.85,-548.93 579.85,-548.93 576.54,-548.56 580.58,-545.39 572.23,-548.08"/>
<ellipse fill="none" stroke="black" cx="567.34" cy="-547.54" rx="3.2" ry="3.2"/>
</g>
<!-- lib_library&#45;&gt;conf_configuration_check -->
<g id="edge23" class="edge">
<title>lib_library:w&#45;&gt;conf_configuration_check:e</title>
<path fill="none" stroke="black" d="M323.08,-446.44C316.46,-427.46 349.73,-386.22 459.01,-421.75 518.85,-441.2 514.16,-484.13 573.51,-505 597.2,-513.33 781.66,-497.84 799.26,-515.75 809.63,-526.3 815.05,-549 800.26,-549"/>
<polygon fill="black" stroke="black" points="329.27,-450.46 334.02,-457.84 332.91,-452.82 335.7,-454.64 335.7,-454.64 335.7,-454.64 332.91,-452.82 337.94,-451.8 329.27,-450.46"/>
<ellipse fill="none" stroke="black" cx="325.15" cy="-447.78" rx="3.2" ry="3.2"/>
</g>
<!-- conf_configuration_ftp -->
<g id="node3" class="node">
<title>conf_configuration_ftp</title>
<g id="a_node3"><a xlink:href="../../tables/conf_configuration_ftp.html" xlink:title="conf_configuration_ftp" target="_top">
<polygon fill="#ffffff" stroke="none" points="9.01,-550.75 9.01,-613.25 206.76,-613.25 206.76,-550.75 9.01,-550.75"/>
<polygon fill="#f5f5f5" stroke="none" points="9.01,-589.75 9.01,-613.25 206.76,-613.25 206.76,-589.75 9.01,-589.75"/>
<polygon fill="none" stroke="black" points="9.01,-589.75 9.01,-613.25 206.76,-613.25 206.76,-589.75 9.01,-589.75"/>
<text text-anchor="start" x="14.01" y="-598.8" font-family="Helvetica,sans-Serif" font-weight="bold" font-size="11.00">conf_configuration_ftp</text>
<text text-anchor="start" x="165.01" y="-597.8" font-family="Helvetica,sans-Serif" font-size="11.00">[table]</text>
<polygon fill="none" stroke="black" points="9.01,-570.25 9.01,-589.75 206.76,-589.75 206.76,-570.25 9.01,-570.25"/>
<text text-anchor="start" x="12.01" y="-576.3" font-family="Helvetica,sans-Serif" font-size="11.00">...</text>
<polygon fill="#ffffff" stroke="none" points="9.01,-550.75 9.01,-570.25 78.93,-570.25 78.93,-550.75 9.01,-550.75"/>
<polygon fill="none" stroke="black" points="9.01,-550.75 9.01,-570.25 78.93,-570.25 78.93,-550.75 9.01,-550.75"/>
<text text-anchor="start" x="12.01" y="-556.8" font-family="Helvetica,sans-Serif" font-size="11.00">&lt; 1</text>
<polygon fill="#ffffff" stroke="none" points="78.93,-550.75 78.93,-570.25 136.85,-570.25 136.85,-550.75 78.93,-550.75"/>
<polygon fill="none" stroke="black" points="78.93,-550.75 78.93,-570.25 136.85,-570.25 136.85,-550.75 78.93,-550.75"/>
<text text-anchor="start" x="126.35" y="-556.8" font-family="Helvetica,sans-Serif" font-size="11.00"> &#160;</text>
<polygon fill="#ffffff" stroke="none" points="136.85,-550.75 136.85,-570.25 206.76,-570.25 206.76,-550.75 136.85,-550.75"/>
<polygon fill="none" stroke="black" points="136.85,-550.75 136.85,-570.25 206.76,-570.25 206.76,-550.75 136.85,-550.75"/>
<text text-anchor="start" x="184.26" y="-556.8" font-family="Helvetica,sans-Serif" font-size="11.00">3 &gt;</text>
</a>
</g>
</g>
<!-- lib_library&#45;&gt;conf_configuration_ftp -->
<g id="edge25" class="edge">
<title>lib_library:w&#45;&gt;conf_configuration_ftp:e</title>
<path fill="none" stroke="black" d="M320.64,-456.86C260.47,-472.41 281.68,-580 207.76,-580"/>
<polygon fill="black" stroke="black" points="327.99,-455.99 336.36,-458.61 332.29,-455.47 335.6,-455.08 335.6,-455.08 335.6,-455.08 332.29,-455.47 335.5,-451.46 327.99,-455.99"/>
<ellipse fill="none" stroke="black" cx="323.1" cy="-456.57" rx="3.2" ry="3.2"/>
</g>
<!-- conf_export_ftp -->
<g id="node5" class="node">
<title>conf_export_ftp</title>
<g id="a_node5"><a xlink:href="../../tables/conf_export_ftp.html" xlink:title="conf_export_ftp" target="_top">
<polygon fill="#ffffff" stroke="none" points="32.01,-383.75 32.01,-446.25 183.76,-446.25 183.76,-383.75 32.01,-383.75"/>
<polygon fill="#f5f5f5" stroke="none" points="32.01,-422.75 32.01,-446.25 183.76,-446.25 183.76,-422.75 32.01,-422.75"/>
<polygon fill="none" stroke="black" points="32.01,-422.75 32.01,-446.25 183.76,-446.25 183.76,-422.75 32.01,-422.75"/>
<text text-anchor="start" x="37.01" y="-431.8" font-family="Helvetica,sans-Serif" font-weight="bold" font-size="11.00">conf_export_ftp</text>
<text text-anchor="start" x="142.01" y="-430.8" font-family="Helvetica,sans-Serif" font-size="11.00">[table]</text>
<polygon fill="none" stroke="black" points="32.01,-403.25 32.01,-422.75 183.76,-422.75 183.76,-403.25 32.01,-403.25"/>
<text text-anchor="start" x="35.01" y="-409.3" font-family="Helvetica,sans-Serif" font-size="11.00">...</text>
<polygon fill="#ffffff" stroke="none" points="32.01,-383.75 32.01,-403.25 86.6,-403.25 86.6,-383.75 32.01,-383.75"/>
<polygon fill="none" stroke="black" points="32.01,-383.75 32.01,-403.25 86.6,-403.25 86.6,-383.75 32.01,-383.75"/>
<text text-anchor="start" x="35.01" y="-389.8" font-family="Helvetica,sans-Serif" font-size="11.00">&lt; 1</text>
<polygon fill="#ffffff" stroke="none" points="86.6,-383.75 86.6,-403.25 129.18,-403.25 129.18,-383.75 86.6,-383.75"/>
<polygon fill="none" stroke="black" points="86.6,-383.75 86.6,-403.25 129.18,-403.25 129.18,-383.75 86.6,-383.75"/>
<text text-anchor="start" x="118.68" y="-389.8" font-family="Helvetica,sans-Serif" font-size="11.00"> &#160;</text>
<polygon fill="#ffffff" stroke="none" points="129.18,-383.75 129.18,-403.25 183.76,-403.25 183.76,-383.75 129.18,-383.75"/>
<polygon fill="none" stroke="black" points="129.18,-383.75 129.18,-403.25 183.76,-403.25 183.76,-383.75 129.18,-383.75"/>
<text text-anchor="start" x="161.26" y="-389.8" font-family="Helvetica,sans-Serif" font-size="11.00">5 &gt;</text>
</a>
</g>
</g>
<!-- lib_library&#45;&gt;conf_export_ftp -->
<g id="edge24" class="edge">
<title>lib_library:w&#45;&gt;conf_export_ftp:e</title>
<path fill="none" stroke="black" d="M320.51,-454.7C276.53,-453.08 229.94,-445.09 191.7,-436.7"/>
<polygon fill="black" stroke="black" points="327.93,-454.84 335.86,-458.59 332.26,-454.92 335.59,-454.99 335.59,-454.99 335.59,-454.99 332.26,-454.92 336,-451.39 327.93,-454.84"/>
<ellipse fill="none" stroke="black" cx="323.01" cy="-454.75" rx="3.2" ry="3.2"/>
</g>
<!-- conf_configuration_ftp&#45;&gt;lib_library -->
<g id="edge2" class="edge">
<title>conf_configuration_ftp:w&#45;&gt;lib_library:e</title>
<path fill="none" stroke="black" d="M0,-566.61C1.3,-560.07 5.02,-552.41 9.01,-546.75 31.03,-515.54 291.72,-428.82 329.26,-421.75 382.44,-411.74 412.18,-384.07 451.01,-421.75 461.62,-432.05 466.8,-455 452.01,-455"/>
<polygon fill="black" stroke="black" points="3.73,-572.85 4.75,-581.56 5.96,-576.57 7.67,-579.43 7.67,-579.43 7.67,-579.43 5.96,-576.57 10.93,-577.86 3.73,-572.85"/>
<ellipse fill="none" stroke="black" cx="1.21" cy="-568.63" rx="3.2" ry="3.2"/>
</g>
<!-- conf_delivery_folder -->
<g id="node4" class="node">
<title>conf_delivery_folder</title>
<g id="a_node4"><a xlink:href="../../tables/conf_delivery_folder.html" xlink:title="conf_delivery_folder" target="_top">
<polygon fill="#ffffff" stroke="none" points="255.76,-38.5 255.76,-261.5 532.51,-261.5 532.51,-38.5 255.76,-38.5"/>
<polygon fill="#f5f5f5" stroke="none" points="257.76,-236 257.76,-259.5 530.51,-259.5 530.51,-236 257.76,-236"/>
<polygon fill="none" stroke="black" points="257.76,-236 257.76,-259.5 530.51,-259.5 530.51,-236 257.76,-236"/>
<text text-anchor="start" x="262.76" y="-245.05" font-family="Helvetica,sans-Serif" font-weight="bold" font-size="11.00">conf_delivery_folder</text>
<text text-anchor="start" x="488.76" y="-244.05" font-family="Helvetica,sans-Serif" font-size="11.00">[table]</text>
<polygon fill="none" stroke="black" points="257.76,-214 257.76,-236 414.76,-236 414.76,-214 257.76,-214"/>
<image xlink:href="../../images/primaryKeys.png" width="11px" height="12px" preserveAspectRatio="xMinYMin meet" x="262.763" y="-231"/>
<text text-anchor="start" x="277.76" y="-220.55" font-family="Helvetica,sans-Serif" font-size="11.00">identifier</text>
<polygon fill="none" stroke="black" points="414.76,-214 414.76,-236 516.51,-236 516.51,-214 414.76,-214"/>
<text text-anchor="start" x="417.76" y="-221.3" font-family="Helvetica,sans-Serif" font-size="11.00">varchar[191]</text>
<polygon fill="#ffffff" stroke="none" points="257.76,-192 257.76,-214 414.76,-214 414.76,-192 257.76,-192"/>
<polygon fill="none" stroke="black" points="257.76,-192 257.76,-214 414.76,-214 414.76,-192 257.76,-192"/>
<text text-anchor="start" x="277.76" y="-198.55" font-family="Helvetica,sans-Serif" font-size="11.00">name</text>
<polygon fill="none" stroke="black" points="414.76,-192 414.76,-214 516.51,-214 516.51,-192 414.76,-192"/>
<text text-anchor="start" x="417.76" y="-199.3" font-family="Helvetica,sans-Serif" font-size="11.00">varchar[191]</text>
<polygon fill="#ffffff" stroke="none" points="257.76,-170 257.76,-192 414.76,-192 414.76,-170 257.76,-170"/>
<polygon fill="none" stroke="black" points="257.76,-170 257.76,-192 414.76,-192 414.76,-170 257.76,-170"/>
<image xlink:href="../../images/foreignKeys.png" width="11px" height="12px" preserveAspectRatio="xMinYMin meet" x="262.763" y="-187"/>
<text text-anchor="start" x="277.76" y="-176.55" font-family="Helvetica,sans-Serif" font-size="11.00">conf_export_ftp</text>
<polygon fill="none" stroke="black" points="414.76,-170 414.76,-192 516.51,-192 516.51,-170 414.76,-170"/>
<text text-anchor="start" x="417.76" y="-177.3" font-family="Helvetica,sans-Serif" font-size="11.00">varchar[191]</text>
<polygon fill="none" stroke="black" points="257.76,-148 257.76,-170 414.76,-170 414.76,-148 257.76,-148"/>
<text text-anchor="start" x="277.76" y="-154.55" font-family="Helvetica,sans-Serif" font-size="11.00">version</text>
<polygon fill="none" stroke="black" points="414.76,-148 414.76,-170 516.51,-170 516.51,-148 414.76,-148"/>
<text text-anchor="start" x="417.76" y="-155.3" font-family="Helvetica,sans-Serif" font-size="11.00">bigint[19]</text>
<polygon fill="none" stroke="black" points="257.76,-126 257.76,-148 414.76,-148 414.76,-126 257.76,-126"/>
<text text-anchor="start" x="277.76" y="-132.55" font-family="Helvetica,sans-Serif" font-size="11.00">created_by</text>
<polygon fill="none" stroke="black" points="414.76,-126 414.76,-148 516.51,-148 516.51,-126 414.76,-126"/>
<text text-anchor="start" x="417.76" y="-133.3" font-family="Helvetica,sans-Serif" font-size="11.00">varchar[255]</text>
<polygon fill="none" stroke="black" points="257.76,-104 257.76,-126 414.76,-126 414.76,-104 257.76,-104"/>
<text text-anchor="start" x="277.76" y="-110.55" font-family="Helvetica,sans-Serif" font-size="11.00">last_modified_by</text>
<polygon fill="none" stroke="black" points="414.76,-104 414.76,-126 516.51,-126 516.51,-104 414.76,-104"/>
<text text-anchor="start" x="417.76" y="-111.3" font-family="Helvetica,sans-Serif" font-size="11.00">varchar[255]</text>
<polygon fill="none" stroke="black" points="257.76,-82 257.76,-104 414.76,-104 414.76,-82 257.76,-82"/>
<text text-anchor="start" x="277.76" y="-88.55" font-family="Helvetica,sans-Serif" font-size="11.00">created_date</text>
<polygon fill="none" stroke="black" points="414.76,-82 414.76,-104 516.51,-104 516.51,-82 414.76,-82"/>
<text text-anchor="start" x="417.76" y="-89.3" font-family="Helvetica,sans-Serif" font-size="11.00">timestamp[19]</text>
<polygon fill="none" stroke="black" points="257.76,-60 257.76,-82 414.76,-82 414.76,-60 257.76,-60"/>
<text text-anchor="start" x="277.76" y="-66.55" font-family="Helvetica,sans-Serif" font-size="11.00">last_modified_date</text>
<polygon fill="none" stroke="black" points="414.76,-60 414.76,-82 516.51,-82 516.51,-60 414.76,-60"/>
<text text-anchor="start" x="417.76" y="-67.3" font-family="Helvetica,sans-Serif" font-size="11.00">timestamp[19]</text>
<polygon fill="#ffffff" stroke="none" points="257.76,-40.5 257.76,-60 342.26,-60 342.26,-40.5 257.76,-40.5"/>
<polygon fill="none" stroke="black" points="257.76,-40.5 257.76,-60 342.26,-60 342.26,-40.5 257.76,-40.5"/>
<text text-anchor="start" x="260.76" y="-46.55" font-family="Helvetica,sans-Serif" font-size="11.00">&lt; 1</text>
<polygon fill="#ffffff" stroke="none" points="342.26,-40.5 342.26,-60 414.76,-60 414.76,-40.5 342.26,-40.5"/>
<polygon fill="none" stroke="black" points="342.26,-40.5 342.26,-60 414.76,-60 414.76,-40.5 342.26,-40.5"/>
<text text-anchor="start" x="404.26" y="-46.55" font-family="Helvetica,sans-Serif" font-size="11.00"> &#160;</text>
<polygon fill="#ffffff" stroke="none" points="414.76,-40.5 414.76,-60 516.51,-60 516.51,-40.5 414.76,-40.5"/>
<polygon fill="none" stroke="black" points="414.76,-40.5 414.76,-60 516.51,-60 516.51,-40.5 414.76,-40.5"/>
<text text-anchor="start" x="494.01" y="-46.55" font-family="Helvetica,sans-Serif" font-size="11.00">3 &gt;</text>
<polygon fill="none" stroke="black" stroke-width="2" points="256.76,-39.5 256.76,-260.5 531.51,-260.5 531.51,-39.5 256.76,-39.5"/>
</a>
</g>
</g>
<!-- conf_delivery_folder&#45;&gt;conf_export_ftp -->
<g id="edge3" class="edge">
<title>conf_delivery_folder:w&#45;&gt;conf_export_ftp:e</title>
<path fill="none" stroke="black" d="M240.99,-182.34C159.53,-196.43 126.14,-318.51 114.4,-379.97"/>
<polygon fill="black" stroke="black" points="248.46,-181.7 256.73,-184.62 252.78,-181.34 256.1,-181.06 256.1,-181.06 256.1,-181.06 252.78,-181.34 256.13,-177.44 248.46,-181.7"/>
<ellipse fill="none" stroke="black" cx="243.56" cy="-182.12" rx="3.2" ry="3.2"/>
</g>
<!-- conf_export_ftp&#45;&gt;lib_library -->
<g id="edge4" class="edge">
<title>conf_export_ftp:w&#45;&gt;lib_library:e</title>
<path fill="none" stroke="black" d="M207.22,-410.19C302.14,-406.61 433.96,-404.87 451.01,-421.75 461.52,-432.15 466.8,-455 452.01,-455"/>
<polygon fill="black" stroke="black" points="199.77,-410.48 191.63,-407.2 195.44,-410.65 192.11,-410.79 192.11,-410.79 192.11,-410.79 195.44,-410.65 191.92,-414.4 199.77,-410.48"/>
<ellipse fill="none" stroke="black" cx="204.68" cy="-410.29" rx="3.2" ry="3.2"/>
</g>
<!-- conf_files_gestion -->
<g id="node6" class="node">
<title>conf_files_gestion</title>
<g id="a_node6"><a xlink:href="../../tables/conf_files_gestion.html" xlink:title="conf_files_gestion" target="_top">
<polygon fill="#ffffff" stroke="none" points="607.01,-220.75 607.01,-283.25 773.76,-283.25 773.76,-220.75 607.01,-220.75"/>
<polygon fill="#f5f5f5" stroke="none" points="607.01,-259.75 607.01,-283.25 773.76,-283.25 773.76,-259.75 607.01,-259.75"/>
<polygon fill="none" stroke="black" points="607.01,-259.75 607.01,-283.25 773.76,-283.25 773.76,-259.75 607.01,-259.75"/>
<text text-anchor="start" x="612.01" y="-268.8" font-family="Helvetica,sans-Serif" font-weight="bold" font-size="11.00">conf_files_gestion</text>
<text text-anchor="start" x="732.01" y="-267.8" font-family="Helvetica,sans-Serif" font-size="11.00">[table]</text>
<polygon fill="none" stroke="black" points="607.01,-240.25 607.01,-259.75 773.76,-259.75 773.76,-240.25 607.01,-240.25"/>
<text text-anchor="start" x="610.01" y="-246.3" font-family="Helvetica,sans-Serif" font-size="11.00">...</text>
<polygon fill="#ffffff" stroke="none" points="607.01,-220.75 607.01,-240.25 670.6,-240.25 670.6,-220.75 607.01,-220.75"/>
<polygon fill="none" stroke="black" points="607.01,-220.75 607.01,-240.25 670.6,-240.25 670.6,-220.75 607.01,-220.75"/>
<text text-anchor="start" x="610.01" y="-226.8" font-family="Helvetica,sans-Serif" font-size="11.00">&lt; 3</text>
<polygon fill="#ffffff" stroke="none" points="670.6,-220.75 670.6,-240.25 722.18,-240.25 722.18,-220.75 670.6,-220.75"/>
<polygon fill="none" stroke="black" points="670.6,-220.75 670.6,-240.25 722.18,-240.25 722.18,-220.75 670.6,-220.75"/>
<text text-anchor="start" x="711.68" y="-226.8" font-family="Helvetica,sans-Serif" font-size="11.00"> &#160;</text>
<polygon fill="#ffffff" stroke="none" points="722.18,-220.75 722.18,-240.25 773.76,-240.25 773.76,-220.75 722.18,-220.75"/>
<polygon fill="none" stroke="black" points="722.18,-220.75 722.18,-240.25 773.76,-240.25 773.76,-220.75 722.18,-220.75"/>
<text text-anchor="start" x="763.26" y="-226.8" font-family="Helvetica,sans-Serif" font-size="11.00"> &#160;</text>
</a>
</g>
</g>
<!-- conf_files_gestion&#45;&gt;lib_library -->
<g id="edge7" class="edge">
<title>conf_files_gestion:w&#45;&gt;lib_library:e</title>
<path fill="none" stroke="black" d="M585.89,-288.14C581.57,-290.9 577.42,-293.85 573.51,-297 552.79,-313.72 556.31,-325.56 540.51,-347 503.71,-396.96 514.07,-455 452.01,-455"/>
<polygon fill="black" stroke="black" points="592.06,-284.58 600.79,-283.71 595.82,-282.42 598.7,-280.76 598.7,-280.76 598.7,-280.76 595.82,-282.42 597.2,-277.47 592.06,-284.58"/>
<ellipse fill="none" stroke="black" cx="587.8" cy="-287.04" rx="3.2" ry="3.2"/>
</g>
<!-- conf_files_gestion&#45;&gt;conf_delivery_folder -->
<g id="edge6" class="edge">
<title>conf_files_gestion:w&#45;&gt;conf_delivery_folder:e</title>
<path fill="none" stroke="black" d="M583.64,-230.11C561.87,-227.09 539.02,-225 517.51,-225"/>
<polygon fill="black" stroke="black" points="591.02,-231.21 598.4,-235.96 595.31,-231.86 598.6,-232.35 598.6,-232.35 598.6,-232.35 595.31,-231.86 599.47,-228.84 591.02,-231.21"/>
<ellipse fill="none" stroke="black" cx="586.16" cy="-230.48" rx="3.2" ry="3.2"/>
</g>
<!-- conf_files_gestion&#45;&gt;conf_export_ftp -->
<g id="edge5" class="edge">
<title>conf_files_gestion:w&#45;&gt;conf_export_ftp:e</title>
<path fill="none" stroke="black" d="M584.2,-281.54C471.47,-313.19 294.86,-362.78 191.64,-391.76"/>
<polygon fill="black" stroke="black" points="591.3,-279.54 599.97,-280.85 595.47,-278.37 598.68,-277.47 598.68,-277.47 598.68,-277.47 595.47,-278.37 598.03,-273.91 591.3,-279.54"/>
<ellipse fill="none" stroke="black" cx="586.56" cy="-280.87" rx="3.2" ry="3.2"/>
</g>
<!-- conf_lists_omeka -->
<g id="node7" class="node">
<title>conf_lists_omeka</title>
<g id="a_node7"><a xlink:href="../../tables/conf_lists_omeka.html" xlink:title="conf_lists_omeka" target="_top">
<polygon fill="#ffffff" stroke="none" points="902.26,-713.75 902.26,-776.25 1063.01,-776.25 1063.01,-713.75 902.26,-713.75"/>
<polygon fill="#f5f5f5" stroke="none" points="902.26,-752.75 902.26,-776.25 1063.01,-776.25 1063.01,-752.75 902.26,-752.75"/>
<polygon fill="none" stroke="black" points="902.26,-752.75 902.26,-776.25 1063.01,-776.25 1063.01,-752.75 902.26,-752.75"/>
<text text-anchor="start" x="907.26" y="-761.8" font-family="Helvetica,sans-Serif" font-weight="bold" font-size="11.00">conf_lists_omeka</text>
<text text-anchor="start" x="1021.26" y="-760.8" font-family="Helvetica,sans-Serif" font-size="11.00">[table]</text>
<polygon fill="none" stroke="black" points="902.26,-733.25 902.26,-752.75 1063.01,-752.75 1063.01,-733.25 902.26,-733.25"/>
<text text-anchor="start" x="905.26" y="-739.3" font-family="Helvetica,sans-Serif" font-size="11.00">...</text>
<polygon fill="#ffffff" stroke="none" points="902.26,-713.75 902.26,-733.25 959.85,-733.25 959.85,-713.75 902.26,-713.75"/>
<polygon fill="none" stroke="black" points="902.26,-713.75 902.26,-733.25 959.85,-733.25 959.85,-713.75 902.26,-713.75"/>
<text text-anchor="start" x="905.26" y="-719.8" font-family="Helvetica,sans-Serif" font-size="11.00">&lt; 1</text>
<polygon fill="#ffffff" stroke="none" points="959.85,-713.75 959.85,-733.25 1005.43,-733.25 1005.43,-713.75 959.85,-713.75"/>
<polygon fill="none" stroke="black" points="959.85,-713.75 959.85,-733.25 1005.43,-733.25 1005.43,-713.75 959.85,-713.75"/>
<text text-anchor="start" x="994.93" y="-719.8" font-family="Helvetica,sans-Serif" font-size="11.00"> &#160;</text>
<polygon fill="#ffffff" stroke="none" points="1005.43,-713.75 1005.43,-733.25 1063.01,-733.25 1063.01,-713.75 1005.43,-713.75"/>
<polygon fill="none" stroke="black" points="1005.43,-713.75 1005.43,-733.25 1063.01,-733.25 1063.01,-713.75 1005.43,-713.75"/>
<text text-anchor="start" x="1040.51" y="-719.8" font-family="Helvetica,sans-Serif" font-size="11.00">6 &gt;</text>
</a>
</g>
</g>
<!-- conf_omeka -->
<g id="node8" class="node">
<title>conf_omeka</title>
<g id="a_node8"><a xlink:href="../../tables/conf_omeka.html" xlink:title="conf_omeka" target="_top">
<polygon fill="#ffffff" stroke="none" points="627.01,-660.75 627.01,-723.25 753.76,-723.25 753.76,-660.75 627.01,-660.75"/>
<polygon fill="#f5f5f5" stroke="none" points="627.01,-699.75 627.01,-723.25 753.76,-723.25 753.76,-699.75 627.01,-699.75"/>
<polygon fill="none" stroke="black" points="627.01,-699.75 627.01,-723.25 753.76,-723.25 753.76,-699.75 627.01,-699.75"/>
<text text-anchor="start" x="632.01" y="-708.8" font-family="Helvetica,sans-Serif" font-weight="bold" font-size="11.00">conf_omeka</text>
<text text-anchor="start" x="712.01" y="-707.8" font-family="Helvetica,sans-Serif" font-size="11.00">[table]</text>
<polygon fill="none" stroke="black" points="627.01,-680.25 627.01,-699.75 753.76,-699.75 753.76,-680.25 627.01,-680.25"/>
<text text-anchor="start" x="630.01" y="-686.3" font-family="Helvetica,sans-Serif" font-size="11.00">...</text>
<polygon fill="#ffffff" stroke="none" points="627.01,-660.75 627.01,-680.25 673.26,-680.25 673.26,-660.75 627.01,-660.75"/>
<polygon fill="none" stroke="black" points="627.01,-660.75 627.01,-680.25 673.26,-680.25 673.26,-660.75 627.01,-660.75"/>
<text text-anchor="start" x="630.01" y="-666.8" font-family="Helvetica,sans-Serif" font-size="11.00">&lt; 1</text>
<polygon fill="#ffffff" stroke="none" points="673.26,-660.75 673.26,-680.25 707.51,-680.25 707.51,-660.75 673.26,-660.75"/>
<polygon fill="none" stroke="black" points="673.26,-660.75 673.26,-680.25 707.51,-680.25 707.51,-660.75 673.26,-660.75"/>
<text text-anchor="start" x="697.01" y="-666.8" font-family="Helvetica,sans-Serif" font-size="11.00"> &#160;</text>
<polygon fill="#ffffff" stroke="none" points="707.51,-660.75 707.51,-680.25 753.76,-680.25 753.76,-660.75 707.51,-660.75"/>
<polygon fill="none" stroke="black" points="707.51,-660.75 707.51,-680.25 753.76,-680.25 753.76,-660.75 707.51,-660.75"/>
<text text-anchor="start" x="731.26" y="-666.8" font-family="Helvetica,sans-Serif" font-size="11.00">3 &gt;</text>
</a>
</g>
</g>
<!-- conf_lists_omeka&#45;&gt;conf_omeka -->
<g id="edge8" class="edge">
<title>conf_lists_omeka:w&#45;&gt;conf_omeka:e</title>
<path fill="none" stroke="black" d="M885.74,-742.03C830.35,-734.85 818.46,-690 754.76,-690"/>
<polygon fill="black" stroke="black" points="892.94,-742.48 900.71,-746.57 897.27,-742.75 900.6,-742.96 900.6,-742.96 900.6,-742.96 897.27,-742.75 901.15,-739.39 892.94,-742.48"/>
<ellipse fill="none" stroke="black" cx="888.04" cy="-742.18" rx="3.2" ry="3.2"/>
</g>
<!-- conf_omeka&#45;&gt;lib_library -->
<g id="edge9" class="edge">
<title>conf_omeka:w&#45;&gt;lib_library:e</title>
<path fill="none" stroke="black" d="M610.42,-688.74C503.04,-670.24 576.39,-455 452.01,-455"/>
<polygon fill="black" stroke="black" points="617.71,-689.33 625.39,-693.56 622.03,-689.68 625.35,-689.95 625.35,-689.95 625.35,-689.95 622.03,-689.68 625.97,-686.38 617.71,-689.33"/>
<ellipse fill="none" stroke="black" cx="612.8" cy="-688.93" rx="3.2" ry="3.2"/>
</g>
<!-- conf_views_format_configuration -->
<g id="node9" class="node">
<title>conf_views_format_configuration</title>
<g id="a_node9"><a xlink:href="../../tables/conf_views_format_configuration.html" xlink:title="conf_views_format_configuration" target="_top">
<polygon fill="#ffffff" stroke="none" points="848.26,-549.75 848.26,-612.25 1117.01,-612.25 1117.01,-549.75 848.26,-549.75"/>
<polygon fill="#f5f5f5" stroke="none" points="848.26,-588.75 848.26,-612.25 1117.01,-612.25 1117.01,-588.75 848.26,-588.75"/>
<polygon fill="none" stroke="black" points="848.26,-588.75 848.26,-612.25 1117.01,-612.25 1117.01,-588.75 848.26,-588.75"/>
<text text-anchor="start" x="853.26" y="-597.8" font-family="Helvetica,sans-Serif" font-weight="bold" font-size="11.00">conf_views_format_configuration</text>
<text text-anchor="start" x="1075.26" y="-596.8" font-family="Helvetica,sans-Serif" font-size="11.00">[table]</text>
<polygon fill="none" stroke="black" points="848.26,-569.25 848.26,-588.75 1117.01,-588.75 1117.01,-569.25 848.26,-569.25"/>
<text text-anchor="start" x="851.26" y="-575.3" font-family="Helvetica,sans-Serif" font-size="11.00">...</text>
<polygon fill="#ffffff" stroke="none" points="848.26,-549.75 848.26,-569.25 941.85,-569.25 941.85,-549.75 848.26,-549.75"/>
<polygon fill="none" stroke="black" points="848.26,-549.75 848.26,-569.25 941.85,-569.25 941.85,-549.75 848.26,-549.75"/>
<text text-anchor="start" x="851.26" y="-555.8" font-family="Helvetica,sans-Serif" font-size="11.00">&lt; 1</text>
<polygon fill="#ffffff" stroke="none" points="941.85,-549.75 941.85,-569.25 1023.43,-569.25 1023.43,-549.75 941.85,-549.75"/>
<polygon fill="none" stroke="black" points="941.85,-549.75 941.85,-569.25 1023.43,-569.25 1023.43,-549.75 941.85,-549.75"/>
<text text-anchor="start" x="1012.93" y="-555.8" font-family="Helvetica,sans-Serif" font-size="11.00"> &#160;</text>
<polygon fill="#ffffff" stroke="none" points="1023.43,-549.75 1023.43,-569.25 1117.01,-569.25 1117.01,-549.75 1023.43,-549.75"/>
<polygon fill="none" stroke="black" points="1023.43,-549.75 1023.43,-569.25 1117.01,-569.25 1117.01,-549.75 1023.43,-549.75"/>
<text text-anchor="start" x="1094.51" y="-555.8" font-family="Helvetica,sans-Serif" font-size="11.00">3 &gt;</text>
</a>
</g>
</g>
<!-- conf_views_format_configuration&#45;&gt;lib_library -->
<g id="edge10" class="edge">
<title>conf_views_format_configuration:w&#45;&gt;lib_library:e</title>
<path fill="none" stroke="black" d="M832.44,-573.84C819.38,-560.51 831.36,-524.83 807.26,-509 763.58,-480.3 625.04,-491.77 573.51,-483 518.88,-473.7 507.43,-455 452.01,-455"/>
<polygon fill="black" stroke="black" points="839.39,-576.26 845.76,-582.29 843.49,-577.69 846.63,-578.78 846.63,-578.78 846.63,-578.78 843.49,-577.69 848.13,-575.49 839.39,-576.26"/>
<ellipse fill="none" stroke="black" cx="834.75" cy="-574.64" rx="3.2" ry="3.2"/>
</g>
<!-- del_delivery -->
<g id="node10" class="node">
<title>del_delivery</title>
<g id="a_node10"><a xlink:href="../../tables/del_delivery.html" xlink:title="del_delivery" target="_top">
<polygon fill="#ffffff" stroke="none" points="1634.01,-703.75 1634.01,-766.25 1761.76,-766.25 1761.76,-703.75 1634.01,-703.75"/>
<polygon fill="#f5f5f5" stroke="none" points="1634.01,-742.75 1634.01,-766.25 1761.76,-766.25 1761.76,-742.75 1634.01,-742.75"/>
<polygon fill="none" stroke="black" points="1634.01,-742.75 1634.01,-766.25 1761.76,-766.25 1761.76,-742.75 1634.01,-742.75"/>
<text text-anchor="start" x="1639.01" y="-751.8" font-family="Helvetica,sans-Serif" font-weight="bold" font-size="11.00">del_delivery</text>
<text text-anchor="start" x="1720.01" y="-750.8" font-family="Helvetica,sans-Serif" font-size="11.00">[table]</text>
<polygon fill="none" stroke="black" points="1634.01,-723.25 1634.01,-742.75 1761.76,-742.75 1761.76,-723.25 1634.01,-723.25"/>
<text text-anchor="start" x="1637.01" y="-729.3" font-family="Helvetica,sans-Serif" font-size="11.00">...</text>
<polygon fill="#ffffff" stroke="none" points="1634.01,-703.75 1634.01,-723.25 1680.6,-723.25 1680.6,-703.75 1634.01,-703.75"/>
<polygon fill="none" stroke="black" points="1634.01,-703.75 1634.01,-723.25 1680.6,-723.25 1680.6,-703.75 1634.01,-703.75"/>
<text text-anchor="start" x="1637.01" y="-709.8" font-family="Helvetica,sans-Serif" font-size="11.00">&lt; 2</text>
<polygon fill="#ffffff" stroke="none" points="1680.6,-703.75 1680.6,-723.25 1715.18,-723.25 1715.18,-703.75 1680.6,-703.75"/>
<polygon fill="none" stroke="black" points="1680.6,-703.75 1680.6,-723.25 1715.18,-723.25 1715.18,-703.75 1680.6,-703.75"/>
<text text-anchor="start" x="1704.68" y="-709.8" font-family="Helvetica,sans-Serif" font-size="11.00"> &#160;</text>
<polygon fill="#ffffff" stroke="none" points="1715.18,-703.75 1715.18,-723.25 1761.76,-723.25 1761.76,-703.75 1715.18,-703.75"/>
<polygon fill="none" stroke="black" points="1715.18,-703.75 1715.18,-723.25 1761.76,-723.25 1761.76,-703.75 1715.18,-703.75"/>
<text text-anchor="start" x="1739.26" y="-709.8" font-family="Helvetica,sans-Serif" font-size="11.00">4 &gt;</text>
</a>
</g>
</g>
<!-- lot_lot -->
<g id="node11" class="node">
<title>lot_lot</title>
<g id="a_node11"><a xlink:href="../../tables/lot_lot.html" xlink:title="lot_lot" target="_top">
<polygon fill="#ffffff" stroke="none" points="1431.26,-701.75 1431.26,-764.25 1520.01,-764.25 1520.01,-701.75 1431.26,-701.75"/>
<polygon fill="#f5f5f5" stroke="none" points="1431.26,-740.75 1431.26,-764.25 1520.01,-764.25 1520.01,-740.75 1431.26,-740.75"/>
<polygon fill="none" stroke="black" points="1431.26,-740.75 1431.26,-764.25 1520.01,-764.25 1520.01,-740.75 1431.26,-740.75"/>
<text text-anchor="start" x="1436.14" y="-749.8" font-family="Helvetica,sans-Serif" font-weight="bold" font-size="11.00">lot_lot</text>
<text text-anchor="start" x="1478.26" y="-748.8" font-family="Helvetica,sans-Serif" font-size="11.00">[table]</text>
<polygon fill="none" stroke="black" points="1431.26,-721.25 1431.26,-740.75 1520.01,-740.75 1520.01,-721.25 1431.26,-721.25"/>
<text text-anchor="start" x="1434.26" y="-727.3" font-family="Helvetica,sans-Serif" font-size="11.00">...</text>
<polygon fill="#ffffff" stroke="none" points="1431.26,-701.75 1431.26,-721.25 1469.35,-721.25 1469.35,-701.75 1431.26,-701.75"/>
<polygon fill="none" stroke="black" points="1431.26,-701.75 1431.26,-721.25 1469.35,-721.25 1469.35,-701.75 1431.26,-701.75"/>
<text text-anchor="start" x="1434.26" y="-707.8" font-family="Helvetica,sans-Serif" font-size="11.00">&lt; 14</text>
<polygon fill="#ffffff" stroke="none" points="1469.35,-701.75 1469.35,-721.25 1488.68,-721.25 1488.68,-701.75 1469.35,-701.75"/>
<polygon fill="none" stroke="black" points="1469.35,-701.75 1469.35,-721.25 1488.68,-721.25 1488.68,-701.75 1469.35,-701.75"/>
<text text-anchor="start" x="1478.18" y="-707.8" font-family="Helvetica,sans-Serif" font-size="11.00"> &#160;</text>
<polygon fill="#ffffff" stroke="none" points="1488.68,-701.75 1488.68,-721.25 1520.01,-721.25 1520.01,-701.75 1488.68,-701.75"/>
<polygon fill="none" stroke="black" points="1488.68,-701.75 1488.68,-721.25 1520.01,-721.25 1520.01,-701.75 1488.68,-701.75"/>
<text text-anchor="start" x="1497.51" y="-707.8" font-family="Helvetica,sans-Serif" font-size="11.00">4 &gt;</text>
</a>
</g>
</g>
<!-- del_delivery&#45;&gt;lot_lot -->
<g id="edge11" class="edge">
<title>del_delivery:w&#45;&gt;lot_lot:e</title>
<path fill="none" stroke="black" d="M1617.53,-733C1586.6,-733 1553.84,-733 1527.7,-733"/>
<polygon fill="black" stroke="black" points="1624.68,-733 1632.68,-736.6 1629.01,-733 1632.34,-733 1632.34,-733 1632.34,-733 1629.01,-733 1632.68,-729.4 1624.68,-733"/>
<ellipse fill="none" stroke="black" cx="1619.76" cy="-733" rx="3.2" ry="3.2"/>
</g>
<!-- lot_lot&#45;&gt;conf_configuration_check -->
<g id="edge26" class="edge">
<title>lot_lot:w&#45;&gt;conf_configuration_check:e</title>
<path fill="none" stroke="black" d="M1407.82,-745.09C1387.89,-748.51 1365.97,-752.09 1345.76,-755 1262.6,-766.96 1240.26,-759.86 1158.01,-777 1143.01,-780.13 1140.17,-784.75 1125.01,-787 1062.42,-796.28 888.57,-827.87 840.26,-787 799.32,-752.36 853.89,-549 800.26,-549"/>
<polygon fill="black" stroke="black" points="1415.1,-743.83 1423.6,-746 1419.37,-743.08 1422.65,-742.51 1422.65,-742.51 1422.65,-742.51 1419.37,-743.08 1422.36,-738.91 1415.1,-743.83"/>
<ellipse fill="none" stroke="black" cx="1410.25" cy="-744.67" rx="3.2" ry="3.2"/>
</g>
<!-- lot_lot&#45;&gt;conf_configuration_ftp -->
<g id="edge28" class="edge">
<title>lot_lot:w&#45;&gt;conf_configuration_ftp:e</title>
<path fill="none" stroke="black" d="M1438.24,-780.15C1414.82,-807.05 1382.03,-838.93 1345.76,-857 1270.13,-894.69 1219.73,-829.28 1158.01,-887 1110.06,-931.85 1176.37,-990.08 1125.01,-1031 933.31,-1183.74 794.78,-1136.44 573.51,-1031 515.27,-1003.24 272.28,-580 207.76,-580"/>
<polygon fill="black" stroke="black" points="1442.95,-774.57 1450.86,-770.78 1445.74,-771.26 1447.89,-768.71 1447.89,-768.71 1447.89,-768.71 1445.74,-771.26 1445.36,-766.14 1442.95,-774.57"/>
<ellipse fill="none" stroke="black" cx="1439.78" cy="-778.33" rx="3.2" ry="3.2"/>
</g>
<!-- lot_lot&#45;&gt;conf_delivery_folder -->
<g id="edge29" class="edge">
<title>lot_lot:w&#45;&gt;conf_delivery_folder:e</title>
<path fill="none" stroke="black" d="M1410.68,-699.37C1398.18,-689.9 1386.55,-678.44 1378.76,-665 1340.39,-598.73 1395.38,-380.33 1345.76,-322 1280.03,-244.73 1223.51,-288.25 1125.01,-264 984.31,-229.36 951.24,-207.33 807.26,-191 704.04,-179.29 673.56,-163.01 573.51,-191 545.47,-198.85 546.63,-225 517.51,-225"/>
<polygon fill="black" stroke="black" points="1416.52,-703.43 1421.04,-710.94 1420.08,-705.9 1422.82,-707.8 1422.82,-707.8 1422.82,-707.8 1420.08,-705.9 1425.15,-705.03 1416.52,-703.43"/>
<ellipse fill="none" stroke="black" cx="1412.48" cy="-700.62" rx="3.2" ry="3.2"/>
</g>
<!-- lot_lot&#45;&gt;conf_export_ftp -->
<g id="edge27" class="edge">
<title>lot_lot:w&#45;&gt;conf_export_ftp:e</title>
<path fill="none" stroke="black" d="M1426.28,-778.51C1403.51,-797.42 1374.97,-817.77 1345.76,-830 1267.95,-862.59 1220.97,-801.84 1158.01,-858 1115.77,-895.68 1169.92,-946.55 1125.01,-981 1024.6,-1058.03 958.09,-1027.18 840.26,-981 689.83,-922.05 658.35,-871.51 573.51,-734 545.82,-689.11 575.7,-659.29 540.51,-620 446.59,-515.12 373.41,-562.5 247.76,-499 218.84,-484.38 187.88,-465.95 162.55,-450.07"/>
<polygon fill="black" stroke="black" points="1431.98,-773.64 1440.4,-771.17 1435.27,-770.82 1437.8,-768.65 1437.8,-768.65 1437.8,-768.65 1435.27,-770.82 1435.71,-765.7 1431.98,-773.64"/>
<ellipse fill="none" stroke="black" cx="1428.24" cy="-776.84" rx="3.2" ry="3.2"/>
</g>
<!-- lot_lot&#45;&gt;conf_lists_omeka -->
<g id="edge34" class="edge">
<title>lot_lot:w&#45;&gt;conf_lists_omeka:e</title>
<path fill="none" stroke="black" d="M1407.76,-731.28C1326.5,-732.83 1185.23,-738.68 1064.01,-743"/>
<polygon fill="black" stroke="black" points="1415.1,-731.16 1423.16,-734.63 1419.44,-731.09 1422.77,-731.04 1422.77,-731.04 1422.77,-731.04 1419.44,-731.09 1423.04,-727.43 1415.1,-731.16"/>
<ellipse fill="none" stroke="black" cx="1410.18" cy="-731.24" rx="3.2" ry="3.2"/>
</g>
<!-- lot_lot&#45;&gt;conf_lists_omeka -->
<g id="edge35" class="edge">
<title>lot_lot:w&#45;&gt;conf_lists_omeka:e</title>
<path fill="none" stroke="black" d="M1407.76,-739.98C1326.5,-744.36 1185.23,-747.32 1064.01,-743"/>
<polygon fill="black" stroke="black" points="1415.11,-739.55 1423.31,-742.68 1419.44,-739.3 1422.77,-739.11 1422.77,-739.11 1422.77,-739.11 1419.44,-739.3 1422.89,-735.5 1415.11,-739.55"/>
<ellipse fill="none" stroke="black" cx="1410.2" cy="-739.84" rx="3.2" ry="3.2"/>
</g>
<!-- lot_lot&#45;&gt;conf_omeka -->
<g id="edge36" class="edge">
<title>lot_lot:w&#45;&gt;conf_omeka:e</title>
<path fill="none" stroke="black" d="M1407.84,-726.26C1337.54,-719.4 1223.6,-708.96 1125.01,-703 960.66,-693.07 919.42,-690 754.76,-690"/>
<polygon fill="black" stroke="black" points="1415.16,-726.98 1422.77,-731.34 1419.47,-727.4 1422.79,-727.73 1422.79,-727.73 1422.79,-727.73 1419.47,-727.4 1423.47,-724.18 1415.16,-726.98"/>
<ellipse fill="none" stroke="black" cx="1410.26" cy="-726.5" rx="3.2" ry="3.2"/>
</g>
<!-- lot_lot&#45;&gt;conf_views_format_configuration -->
<g id="edge30" class="edge">
<title>lot_lot:w&#45;&gt;conf_views_format_configuration:e</title>
<path fill="none" stroke="black" d="M1408.93,-703.23C1388.93,-694.92 1366.69,-686.42 1345.76,-680 1264.28,-655.02 1228.29,-689.21 1158.01,-641 1130.97,-622.45 1150.81,-579 1118.01,-579"/>
<polygon fill="black" stroke="black" points="1415.72,-706.11 1421.68,-712.55 1419.71,-707.8 1422.78,-709.1 1422.78,-709.1 1422.78,-709.1 1419.71,-707.8 1424.49,-705.92 1415.72,-706.11"/>
<ellipse fill="none" stroke="black" cx="1411.19" cy="-704.19" rx="3.2" ry="3.2"/>
</g>
<!-- conf_language_ocr -->
<g id="node13" class="node">
<title>conf_language_ocr</title>
<g id="a_node13"><a xlink:href="../../tables/conf_language_ocr.html" xlink:title="conf_language_ocr" target="_top">
<polygon fill="#ffffff" stroke="none" points="1166.01,-897.75 1166.01,-960.25 1337.76,-960.25 1337.76,-897.75 1166.01,-897.75"/>
<polygon fill="#f5f5f5" stroke="none" points="1166.01,-936.75 1166.01,-960.25 1337.76,-960.25 1337.76,-936.75 1166.01,-936.75"/>
<polygon fill="none" stroke="black" points="1166.01,-936.75 1166.01,-960.25 1337.76,-960.25 1337.76,-936.75 1166.01,-936.75"/>
<text text-anchor="start" x="1171.01" y="-945.8" font-family="Helvetica,sans-Serif" font-weight="bold" font-size="11.00">conf_language_ocr</text>
<text text-anchor="start" x="1296.01" y="-944.8" font-family="Helvetica,sans-Serif" font-size="11.00">[table]</text>
<polygon fill="none" stroke="black" points="1166.01,-917.25 1166.01,-936.75 1337.76,-936.75 1337.76,-917.25 1166.01,-917.25"/>
<text text-anchor="start" x="1169.01" y="-923.3" font-family="Helvetica,sans-Serif" font-size="11.00">...</text>
<polygon fill="#ffffff" stroke="none" points="1166.01,-897.75 1166.01,-917.25 1219.26,-917.25 1219.26,-897.75 1166.01,-897.75"/>
<polygon fill="none" stroke="black" points="1166.01,-897.75 1166.01,-917.25 1219.26,-917.25 1219.26,-897.75 1166.01,-897.75"/>
<text text-anchor="start" x="1169.01" y="-903.8" font-family="Helvetica,sans-Serif" font-size="11.00"> &#160;</text>
<polygon fill="#ffffff" stroke="none" points="1219.26,-897.75 1219.26,-917.25 1272.51,-917.25 1272.51,-897.75 1219.26,-897.75"/>
<polygon fill="none" stroke="black" points="1219.26,-897.75 1219.26,-917.25 1272.51,-917.25 1272.51,-897.75 1219.26,-897.75"/>
<text text-anchor="start" x="1262.01" y="-903.8" font-family="Helvetica,sans-Serif" font-size="11.00"> &#160;</text>
<polygon fill="#ffffff" stroke="none" points="1272.51,-897.75 1272.51,-917.25 1337.76,-917.25 1337.76,-897.75 1272.51,-897.75"/>
<polygon fill="none" stroke="black" points="1272.51,-897.75 1272.51,-917.25 1337.76,-917.25 1337.76,-897.75 1272.51,-897.75"/>
<text text-anchor="start" x="1315.26" y="-903.8" font-family="Helvetica,sans-Serif" font-size="11.00">3 &gt;</text>
</a>
</g>
</g>
<!-- lot_lot&#45;&gt;conf_language_ocr -->
<g id="edge31" class="edge">
<title>lot_lot:w&#45;&gt;conf_language_ocr:e</title>
<path fill="none" stroke="black" d="M1462.85,-783.12C1446.01,-840.61 1409.01,-927 1338.76,-927"/>
<polygon fill="black" stroke="black" points="1464.77,-776.17 1470.37,-769.41 1465.93,-771.99 1466.81,-768.78 1466.81,-768.78 1466.81,-768.78 1465.93,-771.99 1463.43,-767.5 1464.77,-776.17"/>
<ellipse fill="none" stroke="black" cx="1463.47" cy="-780.91" rx="3.2" ry="3.2"/>
</g>
<!-- conf_classement_pac -->
<g id="node14" class="node">
<title>conf_classement_pac</title>
<g id="a_node14"><a xlink:href="../../tables/conf_classement_pac.html" xlink:title="conf_classement_pac" target="_top">
<polygon fill="#ffffff" stroke="none" points="888.76,-907.75 888.76,-970.25 1076.51,-970.25 1076.51,-907.75 888.76,-907.75"/>
<polygon fill="#f5f5f5" stroke="none" points="888.76,-946.75 888.76,-970.25 1076.51,-970.25 1076.51,-946.75 888.76,-946.75"/>
<polygon fill="none" stroke="black" points="888.76,-946.75 888.76,-970.25 1076.51,-970.25 1076.51,-946.75 888.76,-946.75"/>
<text text-anchor="start" x="893.76" y="-955.8" font-family="Helvetica,sans-Serif" font-weight="bold" font-size="11.00">conf_classement_pac</text>
<text text-anchor="start" x="1034.76" y="-954.8" font-family="Helvetica,sans-Serif" font-size="11.00">[table]</text>
<polygon fill="none" stroke="black" points="888.76,-927.25 888.76,-946.75 1076.51,-946.75 1076.51,-927.25 888.76,-927.25"/>
<text text-anchor="start" x="891.76" y="-933.3" font-family="Helvetica,sans-Serif" font-size="11.00">...</text>
<polygon fill="#ffffff" stroke="none" points="888.76,-907.75 888.76,-927.25 955.35,-927.25 955.35,-907.75 888.76,-907.75"/>
<polygon fill="none" stroke="black" points="888.76,-907.75 888.76,-927.25 955.35,-927.25 955.35,-907.75 888.76,-907.75"/>
<text text-anchor="start" x="891.76" y="-913.8" font-family="Helvetica,sans-Serif" font-size="11.00">&lt; 1</text>
<polygon fill="#ffffff" stroke="none" points="955.35,-907.75 955.35,-927.25 1009.93,-927.25 1009.93,-907.75 955.35,-907.75"/>
<polygon fill="none" stroke="black" points="955.35,-907.75 955.35,-927.25 1009.93,-927.25 1009.93,-907.75 955.35,-907.75"/>
<text text-anchor="start" x="999.43" y="-913.8" font-family="Helvetica,sans-Serif" font-size="11.00"> &#160;</text>
<polygon fill="#ffffff" stroke="none" points="1009.93,-907.75 1009.93,-927.25 1076.51,-927.25 1076.51,-907.75 1009.93,-907.75"/>
<polygon fill="none" stroke="black" points="1009.93,-907.75 1009.93,-927.25 1076.51,-927.25 1076.51,-907.75 1009.93,-907.75"/>
<text text-anchor="start" x="1054.01" y="-913.8" font-family="Helvetica,sans-Serif" font-size="11.00">3 &gt;</text>
</a>
</g>
</g>
<!-- lot_lot&#45;&gt;conf_classement_pac -->
<g id="edge32" class="edge">
<title>lot_lot:w&#45;&gt;conf_classement_pac:e</title>
<path fill="none" stroke="black" d="M1409.72,-773.48C1389.8,-784.45 1367.42,-795.38 1345.76,-803 1265.77,-831.15 1226.86,-787.48 1158.01,-837 1133.31,-854.77 1144.31,-873.47 1125.01,-897 1107.51,-918.34 1105.11,-937 1077.51,-937"/>
<polygon fill="black" stroke="black" points="1416.15,-769.83 1424.89,-769.02 1419.93,-767.69 1422.82,-766.05 1422.82,-766.05 1422.82,-766.05 1419.93,-767.69 1421.34,-762.76 1416.15,-769.83"/>
<ellipse fill="none" stroke="black" cx="1411.88" cy="-772.25" rx="3.2" ry="3.2"/>
</g>
<!-- conf_collection_ia -->
<g id="node15" class="node">
<title>conf_collection_ia</title>
<g id="a_node15"><a xlink:href="../../tables/conf_collection_ia.html" xlink:title="conf_collection_ia" target="_top">
<polygon fill="#ffffff" stroke="none" points="900.26,-823.75 900.26,-886.25 1065.01,-886.25 1065.01,-823.75 900.26,-823.75"/>
<polygon fill="#f5f5f5" stroke="none" points="900.26,-862.75 900.26,-886.25 1065.01,-886.25 1065.01,-862.75 900.26,-862.75"/>
<polygon fill="none" stroke="black" points="900.26,-862.75 900.26,-886.25 1065.01,-886.25 1065.01,-862.75 900.26,-862.75"/>
<text text-anchor="start" x="905.26" y="-871.8" font-family="Helvetica,sans-Serif" font-weight="bold" font-size="11.00">conf_collection_ia</text>
<text text-anchor="start" x="1023.26" y="-870.8" font-family="Helvetica,sans-Serif" font-size="11.00">[table]</text>
<polygon fill="none" stroke="black" points="900.26,-843.25 900.26,-862.75 1065.01,-862.75 1065.01,-843.25 900.26,-843.25"/>
<text text-anchor="start" x="903.26" y="-849.3" font-family="Helvetica,sans-Serif" font-size="11.00">...</text>
<polygon fill="#ffffff" stroke="none" points="900.26,-823.75 900.26,-843.25 959.18,-843.25 959.18,-823.75 900.26,-823.75"/>
<polygon fill="none" stroke="black" points="900.26,-823.75 900.26,-843.25 959.18,-843.25 959.18,-823.75 900.26,-823.75"/>
<text text-anchor="start" x="903.26" y="-829.8" font-family="Helvetica,sans-Serif" font-size="11.00">&lt; 1</text>
<polygon fill="#ffffff" stroke="none" points="959.18,-823.75 959.18,-843.25 1006.1,-843.25 1006.1,-823.75 959.18,-823.75"/>
<polygon fill="none" stroke="black" points="959.18,-823.75 959.18,-843.25 1006.1,-843.25 1006.1,-823.75 959.18,-823.75"/>
<text text-anchor="start" x="995.6" y="-829.8" font-family="Helvetica,sans-Serif" font-size="11.00"> &#160;</text>
<polygon fill="#ffffff" stroke="none" points="1006.1,-823.75 1006.1,-843.25 1065.01,-843.25 1065.01,-823.75 1006.1,-823.75"/>
<polygon fill="none" stroke="black" points="1006.1,-823.75 1006.1,-843.25 1065.01,-843.25 1065.01,-823.75 1006.1,-823.75"/>
<text text-anchor="start" x="1042.51" y="-829.8" font-family="Helvetica,sans-Serif" font-size="11.00">3 &gt;</text>
</a>
</g>
</g>
<!-- lot_lot&#45;&gt;conf_collection_ia -->
<g id="edge33" class="edge">
<title>lot_lot:w&#45;&gt;conf_collection_ia:e</title>
<path fill="none" stroke="black" d="M1408.59,-757.05C1388.58,-763.79 1366.43,-770.71 1345.76,-776 1263.61,-797.03 1238.82,-784.28 1158.01,-810 1115,-823.69 1111.15,-853 1066.01,-853"/>
<polygon fill="black" stroke="black" points="1415.52,-754.67 1424.26,-755.48 1419.62,-753.27 1422.77,-752.18 1422.77,-752.18 1422.77,-752.18 1419.62,-753.27 1421.92,-748.67 1415.52,-754.67"/>
<ellipse fill="none" stroke="black" cx="1410.87" cy="-756.27" rx="3.2" ry="3.2"/>
</g>
<!-- proj_project -->
<g id="node16" class="node">
<title>proj_project</title>
<g id="a_node16"><a xlink:href="../../tables/proj_project.html" xlink:title="proj_project" target="_top">
<polygon fill="#ffffff" stroke="none" points="1188.51,-538.75 1188.51,-601.25 1315.26,-601.25 1315.26,-538.75 1188.51,-538.75"/>
<polygon fill="#f5f5f5" stroke="none" points="1188.51,-577.75 1188.51,-601.25 1315.26,-601.25 1315.26,-577.75 1188.51,-577.75"/>
<polygon fill="none" stroke="black" points="1188.51,-577.75 1188.51,-601.25 1315.26,-601.25 1315.26,-577.75 1188.51,-577.75"/>
<text text-anchor="start" x="1193.51" y="-586.8" font-family="Helvetica,sans-Serif" font-weight="bold" font-size="11.00">proj_project</text>
<text text-anchor="start" x="1273.51" y="-585.8" font-family="Helvetica,sans-Serif" font-size="11.00">[table]</text>
<polygon fill="none" stroke="black" points="1188.51,-558.25 1188.51,-577.75 1315.26,-577.75 1315.26,-558.25 1188.51,-558.25"/>
<text text-anchor="start" x="1191.51" y="-564.3" font-family="Helvetica,sans-Serif" font-size="11.00">...</text>
<polygon fill="#ffffff" stroke="none" points="1188.51,-538.75 1188.51,-558.25 1239.26,-558.25 1239.26,-538.75 1188.51,-538.75"/>
<polygon fill="none" stroke="black" points="1188.51,-538.75 1188.51,-558.25 1239.26,-558.25 1239.26,-538.75 1188.51,-538.75"/>
<text text-anchor="start" x="1191.51" y="-544.8" font-family="Helvetica,sans-Serif" font-size="11.00">&lt; 13</text>
<polygon fill="#ffffff" stroke="none" points="1239.26,-538.75 1239.26,-558.25 1271.26,-558.25 1271.26,-538.75 1239.26,-538.75"/>
<polygon fill="none" stroke="black" points="1239.26,-538.75 1239.26,-558.25 1271.26,-558.25 1271.26,-538.75 1239.26,-538.75"/>
<text text-anchor="start" x="1260.76" y="-544.8" font-family="Helvetica,sans-Serif" font-size="11.00"> &#160;</text>
<polygon fill="#ffffff" stroke="none" points="1271.26,-538.75 1271.26,-558.25 1315.26,-558.25 1315.26,-538.75 1271.26,-538.75"/>
<polygon fill="none" stroke="black" points="1271.26,-538.75 1271.26,-558.25 1315.26,-558.25 1315.26,-538.75 1271.26,-538.75"/>
<text text-anchor="start" x="1292.76" y="-544.8" font-family="Helvetica,sans-Serif" font-size="11.00">7 &gt;</text>
</a>
</g>
</g>
<!-- lot_lot&#45;&gt;proj_project -->
<g id="edge37" class="edge">
<title>lot_lot:w&#45;&gt;proj_project:e</title>
<path fill="none" stroke="black" d="M1409.3,-709.69C1398.25,-703.78 1387.53,-696.6 1378.76,-688 1355.07,-664.75 1368.71,-644.99 1345.76,-621 1339.15,-614.09 1331.39,-607.88 1323.23,-602.37"/>
<polygon fill="black" stroke="black" points="1415.87,-712.87 1421.49,-719.6 1419.77,-714.76 1422.76,-716.22 1422.76,-716.22 1422.76,-716.22 1419.77,-714.76 1424.64,-713.12 1415.87,-712.87"/>
<ellipse fill="none" stroke="black" cx="1411.44" cy="-710.73" rx="3.2" ry="3.2"/>
</g>
<!-- user_user -->
<g id="node18" class="node">
<title>user_user</title>
<g id="a_node18"><a xlink:href="../../tables/user_user.html" xlink:title="user_user" target="_top">
<polygon fill="#ffffff" stroke="none" points="926.76,-274.75 926.76,-337.25 1038.51,-337.25 1038.51,-274.75 926.76,-274.75"/>
<polygon fill="#f5f5f5" stroke="none" points="926.76,-313.75 926.76,-337.25 1038.51,-337.25 1038.51,-313.75 926.76,-313.75"/>
<polygon fill="none" stroke="black" points="926.76,-313.75 926.76,-337.25 1038.51,-337.25 1038.51,-313.75 926.76,-313.75"/>
<text text-anchor="start" x="931.76" y="-322.8" font-family="Helvetica,sans-Serif" font-weight="bold" font-size="11.00">user_user</text>
<text text-anchor="start" x="996.76" y="-321.8" font-family="Helvetica,sans-Serif" font-size="11.00">[table]</text>
<polygon fill="none" stroke="black" points="926.76,-294.25 926.76,-313.75 1038.51,-313.75 1038.51,-294.25 926.76,-294.25"/>
<text text-anchor="start" x="929.76" y="-300.3" font-family="Helvetica,sans-Serif" font-size="11.00">...</text>
<polygon fill="#ffffff" stroke="none" points="926.76,-274.75 926.76,-294.25 968.01,-294.25 968.01,-274.75 926.76,-274.75"/>
<polygon fill="none" stroke="black" points="926.76,-274.75 926.76,-294.25 968.01,-294.25 968.01,-274.75 926.76,-274.75"/>
<text text-anchor="start" x="929.76" y="-280.8" font-family="Helvetica,sans-Serif" font-size="11.00">&lt; 4</text>
<polygon fill="#ffffff" stroke="none" points="968.01,-274.75 968.01,-294.25 997.26,-294.25 997.26,-274.75 968.01,-274.75"/>
<polygon fill="none" stroke="black" points="968.01,-274.75 968.01,-294.25 997.26,-294.25 997.26,-274.75 968.01,-274.75"/>
<text text-anchor="start" x="986.76" y="-280.8" font-family="Helvetica,sans-Serif" font-size="11.00"> &#160;</text>
<polygon fill="#ffffff" stroke="none" points="997.26,-274.75 997.26,-294.25 1038.51,-294.25 1038.51,-274.75 997.26,-274.75"/>
<polygon fill="none" stroke="black" points="997.26,-274.75 997.26,-294.25 1038.51,-294.25 1038.51,-274.75 997.26,-274.75"/>
<text text-anchor="start" x="1016.01" y="-280.8" font-family="Helvetica,sans-Serif" font-size="11.00">4 &gt;</text>
</a>
</g>
</g>
<!-- lot_lot&#45;&gt;user_user -->
<g id="edge38" class="edge">
<title>lot_lot:w&#45;&gt;user_user:e</title>
<path fill="none" stroke="black" d="M1410.74,-697.52C1398.65,-688.31 1387.17,-677.42 1378.76,-665 1343.65,-613.14 1379.33,-580.87 1345.76,-528 1255.38,-385.63 1208.15,-304 1039.51,-304"/>
<polygon fill="black" stroke="black" points="1416.66,-701.71 1421.12,-709.27 1420.2,-704.21 1422.92,-706.13 1422.92,-706.13 1422.92,-706.13 1420.2,-704.21 1425.27,-703.39 1416.66,-701.71"/>
<ellipse fill="none" stroke="black" cx="1412.65" cy="-698.87" rx="3.2" ry="3.2"/>
</g>
<!-- workflow_model -->
<g id="node19" class="node">
<title>workflow_model</title>
<g id="a_node19"><a xlink:href="../../tables/workflow_model.html" xlink:title="workflow_model" target="_top">
<polygon fill="#ffffff" stroke="none" points="904.76,-465.75 904.76,-528.25 1060.51,-528.25 1060.51,-465.75 904.76,-465.75"/>
<polygon fill="#f5f5f5" stroke="none" points="904.76,-504.75 904.76,-528.25 1060.51,-528.25 1060.51,-504.75 904.76,-504.75"/>
<polygon fill="none" stroke="black" points="904.76,-504.75 904.76,-528.25 1060.51,-528.25 1060.51,-504.75 904.76,-504.75"/>
<text text-anchor="start" x="909.76" y="-513.8" font-family="Helvetica,sans-Serif" font-weight="bold" font-size="11.00">workflow_model</text>
<text text-anchor="start" x="1018.76" y="-512.8" font-family="Helvetica,sans-Serif" font-size="11.00">[table]</text>
<polygon fill="none" stroke="black" points="904.76,-485.25 904.76,-504.75 1060.51,-504.75 1060.51,-485.25 904.76,-485.25"/>
<text text-anchor="start" x="907.76" y="-491.3" font-family="Helvetica,sans-Serif" font-size="11.00">...</text>
<polygon fill="#ffffff" stroke="none" points="904.76,-465.75 904.76,-485.25 960.68,-485.25 960.68,-465.75 904.76,-465.75"/>
<polygon fill="none" stroke="black" points="904.76,-465.75 904.76,-485.25 960.68,-485.25 960.68,-465.75 904.76,-465.75"/>
<text text-anchor="start" x="907.76" y="-471.8" font-family="Helvetica,sans-Serif" font-size="11.00">&lt; 1</text>
<polygon fill="#ffffff" stroke="none" points="960.68,-465.75 960.68,-485.25 1004.6,-485.25 1004.6,-465.75 960.68,-465.75"/>
<polygon fill="none" stroke="black" points="960.68,-465.75 960.68,-485.25 1004.6,-485.25 1004.6,-465.75 960.68,-465.75"/>
<text text-anchor="start" x="994.1" y="-471.8" font-family="Helvetica,sans-Serif" font-size="11.00"> &#160;</text>
<polygon fill="#ffffff" stroke="none" points="1004.6,-465.75 1004.6,-485.25 1060.51,-485.25 1060.51,-465.75 1004.6,-465.75"/>
<polygon fill="none" stroke="black" points="1004.6,-465.75 1004.6,-485.25 1060.51,-485.25 1060.51,-465.75 1004.6,-465.75"/>
<text text-anchor="start" x="1038.01" y="-471.8" font-family="Helvetica,sans-Serif" font-size="11.00">4 &gt;</text>
</a>
</g>
</g>
<!-- lot_lot&#45;&gt;workflow_model -->
<g id="edge39" class="edge">
<title>lot_lot:w&#45;&gt;workflow_model:e</title>
<path fill="none" stroke="black" d="M1409.35,-707.9C1398.55,-702.23 1387.91,-695.6 1378.76,-688 1359.42,-671.91 1367.17,-655.23 1345.76,-642 1273.88,-597.58 1225.16,-663.3 1158.01,-612 1129.72,-590.39 1147.81,-566.35 1125.01,-539 1103.03,-512.62 1095.85,-495 1061.51,-495"/>
<polygon fill="black" stroke="black" points="1416.03,-711.15 1421.64,-717.89 1419.92,-713.05 1422.92,-714.51 1422.92,-714.51 1422.92,-714.51 1419.92,-713.05 1424.79,-711.42 1416.03,-711.15"/>
<ellipse fill="none" stroke="black" cx="1411.6" cy="-709" rx="3.2" ry="3.2"/>
</g>
<!-- doc_unit -->
<g id="node12" class="node">
<title>doc_unit</title>
<g id="a_node12"><a xlink:href="../../tables/doc_unit.html" xlink:title="doc_unit" target="_top">
<polygon fill="#ffffff" stroke="none" points="1646.51,-960.75 1646.51,-1023.25 1749.26,-1023.25 1749.26,-960.75 1646.51,-960.75"/>
<polygon fill="#f5f5f5" stroke="none" points="1646.51,-999.75 1646.51,-1023.25 1749.26,-1023.25 1749.26,-999.75 1646.51,-999.75"/>
<polygon fill="none" stroke="black" points="1646.51,-999.75 1646.51,-1023.25 1749.26,-1023.25 1749.26,-999.75 1646.51,-999.75"/>
<text text-anchor="start" x="1651.51" y="-1008.8" font-family="Helvetica,sans-Serif" font-weight="bold" font-size="11.00">doc_unit</text>
<text text-anchor="start" x="1707.51" y="-1007.8" font-family="Helvetica,sans-Serif" font-size="11.00">[table]</text>
<polygon fill="none" stroke="black" points="1646.51,-980.25 1646.51,-999.75 1749.26,-999.75 1749.26,-980.25 1646.51,-980.25"/>
<text text-anchor="start" x="1649.51" y="-986.3" font-family="Helvetica,sans-Serif" font-size="11.00">...</text>
<polygon fill="#ffffff" stroke="none" points="1646.51,-960.75 1646.51,-980.25 1687.01,-980.25 1687.01,-960.75 1646.51,-960.75"/>
<polygon fill="none" stroke="black" points="1646.51,-960.75 1646.51,-980.25 1687.01,-980.25 1687.01,-960.75 1646.51,-960.75"/>
<text text-anchor="start" x="1649.51" y="-966.8" font-family="Helvetica,sans-Serif" font-size="11.00">&lt; 13</text>
<polygon fill="#ffffff" stroke="none" points="1687.01,-960.75 1687.01,-980.25 1708.76,-980.25 1708.76,-960.75 1687.01,-960.75"/>
<polygon fill="none" stroke="black" points="1687.01,-960.75 1687.01,-980.25 1708.76,-980.25 1708.76,-960.75 1687.01,-960.75"/>
<text text-anchor="start" x="1698.26" y="-966.8" font-family="Helvetica,sans-Serif" font-size="11.00"> &#160;</text>
<polygon fill="#ffffff" stroke="none" points="1708.76,-960.75 1708.76,-980.25 1749.26,-980.25 1749.26,-960.75 1708.76,-960.75"/>
<polygon fill="none" stroke="black" points="1708.76,-960.75 1708.76,-980.25 1749.26,-980.25 1749.26,-960.75 1708.76,-960.75"/>
<text text-anchor="start" x="1720.01" y="-966.8" font-family="Helvetica,sans-Serif" font-size="11.00">11 &gt;</text>
</a>
</g>
</g>
<!-- doc_unit&#45;&gt;lib_library -->
<g id="edge17" class="edge">
<title>doc_unit:w&#45;&gt;lib_library:e</title>
<path fill="none" stroke="black" d="M1630.12,-992.7C1604.15,-1003.24 1607.37,-1041.64 1572.51,-1055 1267.07,-1172.05 1128.97,-1134.76 840.26,-981 697.65,-905.05 648.24,-877.26 573.51,-734 524.12,-639.32 604.06,-581.82 540.51,-496 514.72,-461.16 495.36,-455 452.01,-455"/>
<polygon fill="black" stroke="black" points="1637.3,-991.44 1645.81,-993.6 1641.57,-990.69 1644.85,-990.12 1644.85,-990.12 1644.85,-990.12 1641.57,-990.69 1644.56,-986.51 1637.3,-991.44"/>
<ellipse fill="none" stroke="black" cx="1632.46" cy="-992.29" rx="3.2" ry="3.2"/>
</g>
<!-- doc_unit&#45;&gt;conf_lists_omeka -->
<g id="edge15" class="edge">
<title>doc_unit:w&#45;&gt;conf_lists_omeka:e</title>
<path fill="none" stroke="black" d="M1629.88,-990.2C1539.36,-991.95 1196.58,-1003.61 1158.01,-971 1103.23,-924.68 1156.95,-877.24 1125.01,-813 1106.64,-776.05 1105.28,-743 1064.01,-743"/>
<polygon fill="black" stroke="black" points="1637.18,-990.11 1645.23,-993.6 1641.51,-990.05 1644.84,-990.01 1644.84,-990.01 1644.84,-990.01 1641.51,-990.05 1645.13,-986.4 1637.18,-990.11"/>
<ellipse fill="none" stroke="black" cx="1632.26" cy="-990.17" rx="3.2" ry="3.2"/>
</g>
<!-- doc_unit&#45;&gt;conf_lists_omeka -->
<g id="edge16" class="edge">
<title>doc_unit:w&#45;&gt;conf_lists_omeka:e</title>
<path fill="none" stroke="black" d="M1629.88,-990.15C1539.34,-991.43 1196.54,-999.68 1158.01,-967 1104.63,-921.72 1156.34,-875.6 1125.01,-813 1106.55,-776.1 1105.28,-743 1064.01,-743"/>
<polygon fill="black" stroke="black" points="1637.18,-990.08 1645.21,-993.6 1641.51,-990.04 1644.84,-990.01 1644.84,-990.01 1644.84,-990.01 1641.51,-990.04 1645.14,-986.4 1637.18,-990.08"/>
<ellipse fill="none" stroke="black" cx="1632.26" cy="-990.13" rx="3.2" ry="3.2"/>
</g>
<!-- doc_unit&#45;&gt;lot_lot -->
<g id="edge18" class="edge">
<title>doc_unit:w&#45;&gt;lot_lot:e</title>
<path fill="none" stroke="black" d="M1630.31,-986.2C1580.03,-962.32 1518.79,-831.98 1491.26,-768.2"/>
<polygon fill="black" stroke="black" points="1637.43,-987.98 1644.32,-993.41 1641.63,-989.03 1644.86,-989.84 1644.86,-989.84 1644.86,-989.84 1641.63,-989.03 1646.06,-986.43 1637.43,-987.98"/>
<ellipse fill="none" stroke="black" cx="1632.66" cy="-986.79" rx="3.2" ry="3.2"/>
</g>
<!-- doc_unit&#45;&gt;conf_language_ocr -->
<g id="edge12" class="edge">
<title>doc_unit:w&#45;&gt;conf_language_ocr:e</title>
<path fill="none" stroke="black" d="M1629.82,-989.18C1608.87,-986.78 1599.18,-979.6 1572.51,-974 1468.81,-952.21 1444.73,-927 1338.76,-927"/>
<polygon fill="black" stroke="black" points="1637.19,-989.56 1644.99,-993.58 1641.52,-989.79 1644.84,-989.97 1644.84,-989.97 1644.84,-989.97 1641.52,-989.79 1645.37,-986.39 1637.19,-989.56"/>
<ellipse fill="none" stroke="black" cx="1632.28" cy="-989.31" rx="3.2" ry="3.2"/>
</g>
<!-- doc_unit&#45;&gt;conf_classement_pac -->
<g id="edge13" class="edge">
<title>doc_unit:w&#45;&gt;conf_classement_pac:e</title>
<path fill="none" stroke="black" d="M1630.08,-992.32C1607.22,-1000.01 1603.02,-1024.68 1572.51,-1033 1483.65,-1057.23 1239.33,-1076.27 1158.01,-1033 1134.83,-1020.67 1141.76,-1004.22 1125.01,-984 1106.07,-961.13 1107.21,-937 1077.51,-937"/>
<polygon fill="black" stroke="black" points="1637.27,-991.24 1645.72,-993.61 1641.56,-990.59 1644.85,-990.1 1644.85,-990.1 1644.85,-990.1 1641.56,-990.59 1644.65,-986.49 1637.27,-991.24"/>
<ellipse fill="none" stroke="black" cx="1632.41" cy="-991.97" rx="3.2" ry="3.2"/>
</g>
<!-- doc_unit&#45;&gt;conf_collection_ia -->
<g id="edge14" class="edge">
<title>doc_unit:w&#45;&gt;conf_collection_ia:e</title>
<path fill="none" stroke="black" d="M1629.86,-991.08C1609.02,-994.18 1599.6,-1003.07 1572.51,-1006 1480.94,-1015.92 1231.98,-1060.89 1158.01,-1006 1117.37,-975.84 1154.09,-938.43 1125.01,-897 1106.22,-870.23 1098.72,-853 1066.01,-853"/>
<polygon fill="black" stroke="black" points="1637.2,-990.57 1645.43,-993.61 1641.52,-990.28 1644.85,-990.05 1644.85,-990.05 1644.85,-990.05 1641.52,-990.28 1644.93,-986.43 1637.2,-990.57"/>
<ellipse fill="none" stroke="black" cx="1632.29" cy="-990.91" rx="3.2" ry="3.2"/>
</g>
<!-- doc_unit&#45;&gt;proj_project -->
<g id="edge19" class="edge">
<title>doc_unit:w&#45;&gt;proj_project:e</title>
<path fill="none" stroke="black" d="M1630.58,-984.91C1584.2,-948.92 1619.1,-732.89 1572.51,-691 1507.91,-632.91 1451.16,-713.04 1378.76,-665 1354.69,-649.03 1367.52,-628 1345.76,-609 1339.05,-603.13 1331.32,-598.06 1323.25,-593.69"/>
<polygon fill="black" stroke="black" points="1637.62,-987.31 1644.04,-993.3 1641.73,-988.71 1644.88,-989.78 1644.88,-989.78 1644.88,-989.78 1641.73,-988.71 1646.36,-986.48 1637.62,-987.31"/>
<ellipse fill="none" stroke="black" cx="1632.97" cy="-985.73" rx="3.2" ry="3.2"/>
</g>
<!-- proj_project&#45;&gt;conf_configuration_check -->
<g id="edge42" class="edge">
<title>proj_project:w&#45;&gt;conf_configuration_check:e</title>
<path fill="none" stroke="black" d="M1214.78,-523.15C1192.11,-497.74 1160.51,-468.77 1125.01,-455 1066.02,-432.11 893.04,-420.1 840.26,-455 802.39,-480.04 845.67,-549 800.26,-549"/>
<polygon fill="black" stroke="black" points="1219.42,-528.56 1221.9,-536.98 1222.24,-531.85 1224.41,-534.38 1224.41,-534.38 1224.41,-534.38 1222.24,-531.85 1227.36,-532.29 1219.42,-528.56"/>
<ellipse fill="none" stroke="black" cx="1216.22" cy="-524.83" rx="3.2" ry="3.2"/>
</g>
<!-- proj_project&#45;&gt;lib_library -->
<g id="edge51" class="edge">
<title>proj_project:w&#45;&gt;lib_library:e</title>
<path fill="none" stroke="black" d="M1223.02,-522.03C1201.05,-489.36 1167.13,-448.77 1125.01,-430 1056.91,-399.65 470,-455 452.01,-455"/>
<polygon fill="black" stroke="black" points="1226.88,-528 1228.21,-536.68 1229.24,-531.64 1231.05,-534.44 1231.05,-534.44 1231.05,-534.44 1229.24,-531.64 1234.25,-532.77 1226.88,-528"/>
<ellipse fill="none" stroke="black" cx="1224.21" cy="-523.87" rx="3.2" ry="3.2"/>
</g>
<!-- proj_project&#45;&gt;conf_configuration_ftp -->
<g id="edge44" class="edge">
<title>proj_project:w&#45;&gt;conf_configuration_ftp:e</title>
<path fill="none" stroke="black" d="M1166.43,-610.9C1152.86,-615.91 1138.75,-620.23 1125.01,-623 978.4,-652.61 384.33,-580 207.76,-580"/>
<polygon fill="black" stroke="black" points="1173.14,-608.28 1181.9,-608.72 1177.18,-606.7 1180.28,-605.49 1180.28,-605.49 1180.28,-605.49 1177.18,-606.7 1179.28,-602.02 1173.14,-608.28"/>
<ellipse fill="none" stroke="black" cx="1168.56" cy="-610.07" rx="3.2" ry="3.2"/>
</g>
<!-- proj_project&#45;&gt;conf_delivery_folder -->
<g id="edge45" class="edge">
<title>proj_project:w&#45;&gt;conf_delivery_folder:e</title>
<path fill="none" stroke="black" d="M1215.65,-522.01C1197.77,-497.06 1176.08,-465.83 1158.01,-437 1142.06,-411.54 1150.1,-394.54 1125.01,-378 1071.89,-342.98 888.08,-389.98 840.26,-348 792.87,-306.39 856.77,-249.06 807.26,-210 766.48,-177.82 625.01,-203.22 573.51,-210 547.97,-213.36 543.28,-225 517.51,-225"/>
<polygon fill="black" stroke="black" points="1220,-528.05 1221.76,-536.64 1222.53,-531.56 1224.48,-534.26 1224.48,-534.26 1224.48,-534.26 1222.53,-531.56 1227.6,-532.43 1220,-528.05"/>
<ellipse fill="none" stroke="black" cx="1217.12" cy="-524.06" rx="3.2" ry="3.2"/>
</g>
<!-- proj_project&#45;&gt;conf_export_ftp -->
<g id="edge43" class="edge">
<title>proj_project:w&#45;&gt;conf_export_ftp:e</title>
<path fill="none" stroke="black" d="M1225.84,-521.21C1204.44,-485.34 1169.99,-439.29 1125.01,-418 960.88,-340.3 403.57,-385.63 191.62,-406.36"/>
<polygon fill="black" stroke="black" points="1229.52,-527.64 1230.37,-536.37 1231.68,-531.4 1233.33,-534.29 1233.33,-534.29 1233.33,-534.29 1231.68,-531.4 1236.62,-532.79 1229.52,-527.64"/>
<ellipse fill="none" stroke="black" cx="1227.08" cy="-523.37" rx="3.2" ry="3.2"/>
</g>
<!-- proj_project&#45;&gt;conf_lists_omeka -->
<g id="edge49" class="edge">
<title>proj_project:w&#45;&gt;conf_lists_omeka:e</title>
<path fill="none" stroke="black" d="M1222.65,-618.51C1191.3,-668.28 1135.54,-738.89 1064.01,-743"/>
<polygon fill="black" stroke="black" points="1226.5,-612.21 1233.74,-607.26 1228.76,-608.51 1230.49,-605.67 1230.49,-605.67 1230.49,-605.67 1228.76,-608.51 1227.59,-603.51 1226.5,-612.21"/>
<ellipse fill="none" stroke="black" cx="1223.93" cy="-616.41" rx="3.2" ry="3.2"/>
</g>
<!-- proj_project&#45;&gt;conf_lists_omeka -->
<g id="edge50" class="edge">
<title>proj_project:w&#45;&gt;conf_lists_omeka:e</title>
<path fill="none" stroke="black" d="M1227.68,-619.03C1197.49,-671.74 1139.54,-747.34 1064.01,-743"/>
<polygon fill="black" stroke="black" points="1231.27,-612.49 1238.27,-607.21 1233.35,-608.69 1234.96,-605.77 1234.96,-605.77 1234.96,-605.77 1233.35,-608.69 1231.96,-603.75 1231.27,-612.49"/>
<ellipse fill="none" stroke="black" cx="1228.9" cy="-616.8" rx="3.2" ry="3.2"/>
</g>
<!-- proj_project&#45;&gt;conf_omeka -->
<g id="edge52" class="edge">
<title>proj_project:w&#45;&gt;conf_omeka:e</title>
<path fill="none" stroke="black" d="M1190.37,-613.65C1170.43,-626.04 1147.57,-638.25 1125.01,-646 1123.79,-646.42 756.06,-690 754.76,-690"/>
<polygon fill="black" stroke="black" points="1196.66,-609.6 1205.33,-608.3 1200.3,-607.26 1203.1,-605.46 1203.1,-605.46 1203.1,-605.46 1200.3,-607.26 1201.44,-602.25 1196.66,-609.6"/>
<ellipse fill="none" stroke="black" cx="1192.52" cy="-612.26" rx="3.2" ry="3.2"/>
</g>
<!-- proj_project&#45;&gt;conf_views_format_configuration -->
<g id="edge46" class="edge">
<title>proj_project:w&#45;&gt;conf_views_format_configuration:e</title>
<path fill="none" stroke="black" d="M1165.17,-577.51C1149.5,-578.4 1133.27,-579 1118.01,-579"/>
<polygon fill="black" stroke="black" points="1172.29,-577.07 1180.5,-580.15 1176.62,-576.79 1179.94,-576.58 1179.94,-576.58 1179.94,-576.58 1176.62,-576.79 1180.05,-572.97 1172.29,-577.07"/>
<ellipse fill="none" stroke="black" cx="1167.38" cy="-577.37" rx="3.2" ry="3.2"/>
</g>
<!-- proj_project&#45;&gt;conf_classement_pac -->
<g id="edge47" class="edge">
<title>proj_project:w&#45;&gt;conf_classement_pac:e</title>
<path fill="none" stroke="black" d="M1231.55,-619.69C1212.69,-668.2 1183.25,-744.12 1158.01,-810 1143.22,-848.62 1148.93,-863.26 1125.01,-897 1109.05,-919.51 1105.11,-937 1077.51,-937"/>
<polygon fill="black" stroke="black" points="1234.26,-612.72 1240.51,-606.57 1235.83,-608.68 1237.04,-605.57 1237.04,-605.57 1237.04,-605.57 1235.83,-608.68 1233.8,-603.96 1234.26,-612.72"/>
<ellipse fill="none" stroke="black" cx="1232.48" cy="-617.3" rx="3.2" ry="3.2"/>
</g>
<!-- proj_project&#45;&gt;conf_collection_ia -->
<g id="edge48" class="edge">
<title>proj_project:w&#45;&gt;conf_collection_ia:e</title>
<path fill="none" stroke="black" d="M1230.28,-619.49C1194.91,-700.62 1121.13,-853 1066.01,-853"/>
<polygon fill="black" stroke="black" points="1233.23,-612.64 1239.7,-606.72 1234.94,-608.66 1236.26,-605.6 1236.26,-605.6 1236.26,-605.6 1234.94,-608.66 1233.08,-603.87 1233.23,-612.64"/>
<ellipse fill="none" stroke="black" cx="1231.28" cy="-617.16" rx="3.2" ry="3.2"/>
</g>
<!-- proj_project&#45;&gt;user_user -->
<g id="edge53" class="edge">
<title>proj_project:w&#45;&gt;user_user:e</title>
<path fill="none" stroke="black" d="M1220.61,-521.85C1202,-491.75 1177.97,-451.99 1158.01,-416 1142.3,-387.66 1147.54,-374.28 1125.01,-351 1094.86,-319.84 1082.88,-304 1039.51,-304"/>
<polygon fill="black" stroke="black" points="1224.35,-527.87 1225.52,-536.57 1226.64,-531.55 1228.4,-534.38 1228.4,-534.38 1228.4,-534.38 1226.64,-531.55 1231.63,-532.77 1224.35,-527.87"/>
<ellipse fill="none" stroke="black" cx="1221.76" cy="-523.69" rx="3.2" ry="3.2"/>
</g>
<!-- proj_project&#45;&gt;workflow_model -->
<g id="edge54" class="edge">
<title>proj_project:w&#45;&gt;workflow_model:e</title>
<path fill="none" stroke="black" d="M1180.91,-527.82C1146.24,-510.76 1103,-495 1061.51,-495"/>
<polygon fill="black" stroke="black" points="1187.31,-531.11 1192.79,-537.97 1191.17,-533.09 1194.13,-534.61 1194.13,-534.61 1194.13,-534.61 1191.17,-533.09 1196.08,-531.56 1187.31,-531.11"/>
<ellipse fill="none" stroke="black" cx="1182.94" cy="-528.86" rx="3.2" ry="3.2"/>
</g>
<!-- exc_import_report -->
<g id="node17" class="node">
<title>exc_import_report</title>
<g id="a_node17"><a xlink:href="../../tables/exc_import_report.html" xlink:title="exc_import_report" target="_top">
<polygon fill="#ffffff" stroke="none" points="1613.51,-551.75 1613.51,-614.25 1782.26,-614.25 1782.26,-551.75 1613.51,-551.75"/>
<polygon fill="#f5f5f5" stroke="none" points="1613.51,-590.75 1613.51,-614.25 1782.26,-614.25 1782.26,-590.75 1613.51,-590.75"/>
<polygon fill="none" stroke="black" points="1613.51,-590.75 1613.51,-614.25 1782.26,-614.25 1782.26,-590.75 1613.51,-590.75"/>
<text text-anchor="start" x="1618.51" y="-599.8" font-family="Helvetica,sans-Serif" font-weight="bold" font-size="11.00">exc_import_report</text>
<text text-anchor="start" x="1740.51" y="-598.8" font-family="Helvetica,sans-Serif" font-size="11.00">[table]</text>
<polygon fill="none" stroke="black" points="1613.51,-571.25 1613.51,-590.75 1782.26,-590.75 1782.26,-571.25 1613.51,-571.25"/>
<text text-anchor="start" x="1616.51" y="-577.3" font-family="Helvetica,sans-Serif" font-size="11.00">...</text>
<polygon fill="#ffffff" stroke="none" points="1613.51,-551.75 1613.51,-571.25 1673.76,-571.25 1673.76,-551.75 1613.51,-551.75"/>
<polygon fill="none" stroke="black" points="1613.51,-551.75 1613.51,-571.25 1673.76,-571.25 1673.76,-551.75 1613.51,-551.75"/>
<text text-anchor="start" x="1616.51" y="-557.8" font-family="Helvetica,sans-Serif" font-size="11.00">&lt; 7</text>
<polygon fill="#ffffff" stroke="none" points="1673.76,-551.75 1673.76,-571.25 1722.01,-571.25 1722.01,-551.75 1673.76,-551.75"/>
<polygon fill="none" stroke="black" points="1673.76,-551.75 1673.76,-571.25 1722.01,-571.25 1722.01,-551.75 1673.76,-551.75"/>
<text text-anchor="start" x="1711.51" y="-557.8" font-family="Helvetica,sans-Serif" font-size="11.00"> &#160;</text>
<polygon fill="#ffffff" stroke="none" points="1722.01,-551.75 1722.01,-571.25 1782.26,-571.25 1782.26,-551.75 1722.01,-551.75"/>
<polygon fill="none" stroke="black" points="1722.01,-551.75 1722.01,-571.25 1782.26,-571.25 1782.26,-551.75 1722.01,-551.75"/>
<text text-anchor="start" x="1759.76" y="-557.8" font-family="Helvetica,sans-Serif" font-size="11.00">3 &gt;</text>
</a>
</g>
</g>
<!-- exc_import_report&#45;&gt;lib_library -->
<g id="edge20" class="edge">
<title>exc_import_report:w&#45;&gt;lib_library:e</title>
<path fill="none" stroke="black" d="M1597.68,-576.25C1547.06,-537.65 1627.17,-275.83 1572.51,-227 1526,-185.45 1000.58,-120.25 840.26,-232 806.34,-255.65 839.95,-293.66 807.26,-319 724.65,-383.05 668.82,-302.07 573.51,-345 507.1,-374.92 524.86,-455 452.01,-455"/>
<polygon fill="black" stroke="black" points="1604.58,-578.46 1611.1,-584.33 1608.7,-579.78 1611.88,-580.8 1611.88,-580.8 1611.88,-580.8 1608.7,-579.78 1613.29,-577.47 1604.58,-578.46"/>
<ellipse fill="none" stroke="black" cx="1599.89" cy="-576.96" rx="3.2" ry="3.2"/>
</g>
<!-- exc_import_report&#45;&gt;lot_lot -->
<g id="edge21" class="edge">
<title>exc_import_report:w&#45;&gt;lot_lot:e</title>
<path fill="none" stroke="black" d="M1597.21,-584.9C1578.87,-597.62 1594.76,-638.54 1572.51,-665 1560.04,-679.84 1543.62,-693.03 1527.9,-703.75"/>
<polygon fill="black" stroke="black" points="1604.44,-583.06 1613.08,-584.57 1608.64,-581.99 1611.86,-581.17 1611.86,-581.17 1611.86,-581.17 1608.64,-581.99 1611.3,-577.59 1604.44,-583.06"/>
<ellipse fill="none" stroke="black" cx="1599.67" cy="-584.28" rx="3.2" ry="3.2"/>
</g>
<!-- exc_import_report&#45;&gt;proj_project -->
<g id="edge22" class="edge">
<title>exc_import_report:w&#45;&gt;proj_project:e</title>
<path fill="none" stroke="black" d="M1596.78,-580.97C1500.02,-580.55 1391.88,-576.48 1323.16,-573.42"/>
<polygon fill="black" stroke="black" points="1604.18,-580.98 1612.17,-584.6 1608.51,-580.99 1611.84,-581 1611.84,-581 1611.84,-581 1608.51,-580.99 1612.19,-577.4 1604.18,-580.98"/>
<ellipse fill="none" stroke="black" cx="1599.26" cy="-580.97" rx="3.2" ry="3.2"/>
</g>
<!-- user_user&#45;&gt;lib_library -->
<g id="edge62" class="edge">
<title>user_user:w&#45;&gt;lib_library:e</title>
<path fill="none" stroke="black" d="M910.2,-305.13C864.47,-312.22 858.31,-351 807.26,-371 788.38,-378.4 472.29,-455 452.01,-455"/>
<polygon fill="black" stroke="black" points="917.45,-304.6 925.69,-307.61 921.77,-304.29 925.1,-304.05 925.1,-304.05 925.1,-304.05 921.77,-304.29 925.17,-300.43 917.45,-304.6"/>
<ellipse fill="none" stroke="black" cx="912.54" cy="-304.96" rx="3.2" ry="3.2"/>
</g>
<!-- workflow_model&#45;&gt;lib_library -->
<g id="edge63" class="edge">
<title>workflow_model:w&#45;&gt;lib_library:e</title>
<path fill="none" stroke="black" d="M888.17,-494.74C857.32,-493.66 844.47,-489.36 807.26,-486 649.42,-471.75 610.5,-455 452.01,-455"/>
<polygon fill="black" stroke="black" points="895.43,-494.86 903.37,-498.59 899.76,-494.93 903.09,-494.99 903.09,-494.99 903.09,-494.99 899.76,-494.93 903.49,-491.39 895.43,-494.86"/>
<ellipse fill="none" stroke="black" cx="890.51" cy="-494.78" rx="3.2" ry="3.2"/>
</g>
<!-- plat_platform -->
<g id="node20" class="node">
<title>plat_platform</title>
<g id="a_node20"><a xlink:href="../../tables/plat_platform.html" xlink:title="plat_platform" target="_top">
<polygon fill="#ffffff" stroke="none" points="1629.51,-441.75 1629.51,-504.25 1766.26,-504.25 1766.26,-441.75 1629.51,-441.75"/>
<polygon fill="#f5f5f5" stroke="none" points="1629.51,-480.75 1629.51,-504.25 1766.26,-504.25 1766.26,-480.75 1629.51,-480.75"/>
<polygon fill="none" stroke="black" points="1629.51,-480.75 1629.51,-504.25 1766.26,-504.25 1766.26,-480.75 1629.51,-480.75"/>
<text text-anchor="start" x="1634.51" y="-489.8" font-family="Helvetica,sans-Serif" font-weight="bold" font-size="11.00">plat_platform</text>
<text text-anchor="start" x="1724.51" y="-488.8" font-family="Helvetica,sans-Serif" font-size="11.00">[table]</text>
<polygon fill="none" stroke="black" points="1629.51,-461.25 1629.51,-480.75 1766.26,-480.75 1766.26,-461.25 1629.51,-461.25"/>
<text text-anchor="start" x="1632.51" y="-467.3" font-family="Helvetica,sans-Serif" font-size="11.00">...</text>
<polygon fill="#ffffff" stroke="none" points="1629.51,-441.75 1629.51,-461.25 1679.1,-461.25 1679.1,-441.75 1629.51,-441.75"/>
<polygon fill="none" stroke="black" points="1629.51,-441.75 1629.51,-461.25 1679.1,-461.25 1679.1,-441.75 1629.51,-441.75"/>
<text text-anchor="start" x="1632.51" y="-447.8" font-family="Helvetica,sans-Serif" font-size="11.00">&lt; 2</text>
<polygon fill="#ffffff" stroke="none" points="1679.1,-441.75 1679.1,-461.25 1716.68,-461.25 1716.68,-441.75 1679.1,-441.75"/>
<polygon fill="none" stroke="black" points="1679.1,-441.75 1679.1,-461.25 1716.68,-461.25 1716.68,-441.75 1679.1,-441.75"/>
<text text-anchor="start" x="1706.18" y="-447.8" font-family="Helvetica,sans-Serif" font-size="11.00"> &#160;</text>
<polygon fill="#ffffff" stroke="none" points="1716.68,-441.75 1716.68,-461.25 1766.26,-461.25 1766.26,-441.75 1716.68,-441.75"/>
<polygon fill="none" stroke="black" points="1716.68,-441.75 1716.68,-461.25 1766.26,-461.25 1766.26,-441.75 1716.68,-441.75"/>
<text text-anchor="start" x="1743.76" y="-447.8" font-family="Helvetica,sans-Serif" font-size="11.00">1 &gt;</text>
</a>
</g>
</g>
<!-- plat_platform&#45;&gt;lib_library -->
<g id="edge40" class="edge">
<title>plat_platform:w&#45;&gt;lib_library:e</title>
<path fill="none" stroke="black" d="M1612.94,-469.8C1514.77,-453.07 1667.43,-265.03 1572.51,-187 1321.11,19.67 1102.11,6.26 840.26,-187 800.22,-216.55 845.34,-261.95 807.26,-294 727.13,-361.45 666.64,-276.07 573.51,-324 502.91,-360.34 531.42,-455 452.01,-455"/>
<polygon fill="black" stroke="black" points="1620.2,-470.36 1627.9,-474.56 1624.52,-470.69 1627.85,-470.95 1627.85,-470.95 1627.85,-470.95 1624.52,-470.69 1628.46,-467.38 1620.2,-470.36"/>
<ellipse fill="none" stroke="black" cx="1615.3" cy="-469.99" rx="3.2" ry="3.2"/>
</g>
<!-- plat_platform&#45;&gt;lot_lot -->
<g id="edge41" class="edge">
<title>plat_platform:w&#45;&gt;lot_lot:e</title>
<path fill="none" stroke="black" d="M1612.85,-472.54C1549.45,-486.77 1620.3,-596.18 1572.51,-665 1560.99,-681.59 1544.04,-695.52 1527.59,-706.37"/>
<polygon fill="black" stroke="black" points="1620.22,-471.82 1628.53,-474.62 1624.53,-471.39 1627.85,-471.07 1627.85,-471.07 1627.85,-471.07 1624.53,-471.39 1627.83,-467.45 1620.22,-471.82"/>
<ellipse fill="none" stroke="black" cx="1615.32" cy="-472.3" rx="3.2" ry="3.2"/>
</g>
<!-- proj_project_library -->
<g id="node21" class="node">
<title>proj_project_library</title>
<g id="a_node21"><a xlink:href="../../tables/proj_project_library.html" xlink:title="proj_project_library" target="_top">
<polygon fill="#ffffff" stroke="none" points="1386.76,-237.75 1386.76,-300.25 1564.51,-300.25 1564.51,-237.75 1386.76,-237.75"/>
<polygon fill="#f5f5f5" stroke="none" points="1386.76,-276.75 1386.76,-300.25 1564.51,-300.25 1564.51,-276.75 1386.76,-276.75"/>
<polygon fill="none" stroke="black" points="1386.76,-276.75 1386.76,-300.25 1564.51,-300.25 1564.51,-276.75 1386.76,-276.75"/>
<text text-anchor="start" x="1391.76" y="-285.8" font-family="Helvetica,sans-Serif" font-weight="bold" font-size="11.00">proj_project_library</text>
<text text-anchor="start" x="1522.76" y="-284.8" font-family="Helvetica,sans-Serif" font-size="11.00">[table]</text>
<polygon fill="none" stroke="black" points="1386.76,-257.25 1386.76,-276.75 1564.51,-276.75 1564.51,-257.25 1386.76,-257.25"/>
<text text-anchor="start" x="1389.76" y="-263.3" font-family="Helvetica,sans-Serif" font-size="11.00">...</text>
<polygon fill="#ffffff" stroke="none" points="1386.76,-237.75 1386.76,-257.25 1454.01,-257.25 1454.01,-237.75 1386.76,-237.75"/>
<polygon fill="none" stroke="black" points="1386.76,-237.75 1386.76,-257.25 1454.01,-257.25 1454.01,-237.75 1386.76,-237.75"/>
<text text-anchor="start" x="1389.76" y="-243.8" font-family="Helvetica,sans-Serif" font-size="11.00">&lt; 2</text>
<polygon fill="#ffffff" stroke="none" points="1454.01,-237.75 1454.01,-257.25 1509.26,-257.25 1509.26,-237.75 1454.01,-237.75"/>
<polygon fill="none" stroke="black" points="1454.01,-237.75 1454.01,-257.25 1509.26,-257.25 1509.26,-237.75 1454.01,-237.75"/>
<text text-anchor="start" x="1498.76" y="-243.8" font-family="Helvetica,sans-Serif" font-size="11.00"> &#160;</text>
<polygon fill="#ffffff" stroke="none" points="1509.26,-237.75 1509.26,-257.25 1564.51,-257.25 1564.51,-237.75 1509.26,-237.75"/>
<polygon fill="none" stroke="black" points="1509.26,-237.75 1509.26,-257.25 1564.51,-257.25 1564.51,-237.75 1509.26,-237.75"/>
<text text-anchor="start" x="1554.01" y="-243.8" font-family="Helvetica,sans-Serif" font-size="11.00"> &#160;</text>
</a>
</g>
</g>
<!-- proj_project_library&#45;&gt;lib_library -->
<g id="edge55" class="edge">
<title>proj_project_library:w&#45;&gt;lib_library:e</title>
<path fill="none" stroke="black" d="M1370.26,-266.67C1238.99,-261.58 936.97,-199.28 840.26,-264 808.3,-285.39 837.9,-320.74 807.26,-344 723.93,-407.27 671.46,-335.21 573.51,-372 512.29,-394.99 517.41,-455 452.01,-455"/>
<polygon fill="black" stroke="black" points="1377.43,-266.83 1385.35,-270.59 1381.76,-266.92 1385.09,-266.99 1385.09,-266.99 1385.09,-266.99 1381.76,-266.92 1385.5,-263.39 1377.43,-266.83"/>
<ellipse fill="none" stroke="black" cx="1372.51" cy="-266.72" rx="3.2" ry="3.2"/>
</g>
<!-- proj_project_library&#45;&gt;proj_project -->
<g id="edge56" class="edge">
<title>proj_project_library:w&#45;&gt;proj_project:e</title>
<path fill="none" stroke="black" d="M1370.12,-268.21C1268.43,-284.4 1254.05,-458.93 1252.65,-534.95"/>
<polygon fill="black" stroke="black" points="1377.45,-267.64 1385.71,-270.62 1381.77,-267.31 1385.1,-267.05 1385.1,-267.05 1385.1,-267.05 1381.77,-267.31 1385.15,-263.44 1377.45,-267.64"/>
<ellipse fill="none" stroke="black" cx="1372.55" cy="-268.02" rx="3.2" ry="3.2"/>
</g>
<!-- proj_project_platform -->
<g id="node22" class="node">
<title>proj_project_platform</title>
<g id="a_node22"><a xlink:href="../../tables/proj_project_platform.html" xlink:title="proj_project_platform" target="_top">
<polygon fill="#ffffff" stroke="none" points="1831.26,-469.75 1831.26,-532.25 2023.01,-532.25 2023.01,-469.75 1831.26,-469.75"/>
<polygon fill="#f5f5f5" stroke="none" points="1831.26,-508.75 1831.26,-532.25 2023.01,-532.25 2023.01,-508.75 1831.26,-508.75"/>
<polygon fill="none" stroke="black" points="1831.26,-508.75 1831.26,-532.25 2023.01,-532.25 2023.01,-508.75 1831.26,-508.75"/>
<text text-anchor="start" x="1836.26" y="-517.8" font-family="Helvetica,sans-Serif" font-weight="bold" font-size="11.00">proj_project_platform</text>
<text text-anchor="start" x="1981.26" y="-516.8" font-family="Helvetica,sans-Serif" font-size="11.00">[table]</text>
<polygon fill="none" stroke="black" points="1831.26,-489.25 1831.26,-508.75 2023.01,-508.75 2023.01,-489.25 1831.26,-489.25"/>
<text text-anchor="start" x="1834.26" y="-495.3" font-family="Helvetica,sans-Serif" font-size="11.00">...</text>
<polygon fill="#ffffff" stroke="none" points="1831.26,-469.75 1831.26,-489.25 1903.18,-489.25 1903.18,-469.75 1831.26,-469.75"/>
<polygon fill="none" stroke="black" points="1831.26,-469.75 1831.26,-489.25 1903.18,-489.25 1903.18,-469.75 1831.26,-469.75"/>
<text text-anchor="start" x="1834.26" y="-475.8" font-family="Helvetica,sans-Serif" font-size="11.00">&lt; 2</text>
<polygon fill="#ffffff" stroke="none" points="1903.18,-469.75 1903.18,-489.25 1963.1,-489.25 1963.1,-469.75 1903.18,-469.75"/>
<polygon fill="none" stroke="black" points="1903.18,-469.75 1903.18,-489.25 1963.1,-489.25 1963.1,-469.75 1903.18,-469.75"/>
<text text-anchor="start" x="1952.6" y="-475.8" font-family="Helvetica,sans-Serif" font-size="11.00"> &#160;</text>
<polygon fill="#ffffff" stroke="none" points="1963.1,-469.75 1963.1,-489.25 2023.01,-489.25 2023.01,-469.75 1963.1,-469.75"/>
<polygon fill="none" stroke="black" points="1963.1,-469.75 1963.1,-489.25 2023.01,-489.25 2023.01,-469.75 1963.1,-469.75"/>
<text text-anchor="start" x="2012.51" y="-475.8" font-family="Helvetica,sans-Serif" font-size="11.00"> &#160;</text>
</a>
</g>
</g>
<!-- proj_project_platform&#45;&gt;proj_project -->
<g id="edge58" class="edge">
<title>proj_project_platform:w&#45;&gt;proj_project:e</title>
<path fill="none" stroke="black" d="M1814.89,-502.44C1807.51,-506.19 1802.32,-512.03 1790.26,-515 1745.95,-525.9 1458.42,-552.02 1323.1,-563.91"/>
<polygon fill="black" stroke="black" points="1822.13,-500.82 1830.72,-502.59 1826.36,-499.87 1829.61,-499.15 1829.61,-499.15 1829.61,-499.15 1826.36,-499.87 1829.15,-495.56 1822.13,-500.82"/>
<ellipse fill="none" stroke="black" cx="1817.33" cy="-501.9" rx="3.2" ry="3.2"/>
</g>
<!-- proj_project_platform&#45;&gt;plat_platform -->
<g id="edge57" class="edge">
<title>proj_project_platform:w&#45;&gt;plat_platform:e</title>
<path fill="none" stroke="black" d="M1814.94,-496.11C1797.79,-488.96 1791.8,-471 1767.26,-471"/>
<polygon fill="black" stroke="black" points="1822.07,-497.46 1829.27,-502.48 1826.33,-498.26 1829.61,-498.88 1829.61,-498.88 1829.61,-498.88 1826.33,-498.26 1830.6,-495.4 1822.07,-497.46"/>
<ellipse fill="none" stroke="black" cx="1817.24" cy="-496.54" rx="3.2" ry="3.2"/>
</g>
<!-- proj_project_user -->
<g id="node23" class="node">
<title>proj_project_user</title>
<g id="a_node23"><a xlink:href="../../tables/proj_project_user.html" xlink:title="proj_project_user" target="_top">
<polygon fill="#ffffff" stroke="none" points="1394.26,-401.75 1394.26,-464.25 1557.01,-464.25 1557.01,-401.75 1394.26,-401.75"/>
<polygon fill="#f5f5f5" stroke="none" points="1394.26,-440.75 1394.26,-464.25 1557.01,-464.25 1557.01,-440.75 1394.26,-440.75"/>
<polygon fill="none" stroke="black" points="1394.26,-440.75 1394.26,-464.25 1557.01,-464.25 1557.01,-440.75 1394.26,-440.75"/>
<text text-anchor="start" x="1399.26" y="-449.8" font-family="Helvetica,sans-Serif" font-weight="bold" font-size="11.00">proj_project_user</text>
<text text-anchor="start" x="1515.26" y="-448.8" font-family="Helvetica,sans-Serif" font-size="11.00">[table]</text>
<polygon fill="none" stroke="black" points="1394.26,-421.25 1394.26,-440.75 1557.01,-440.75 1557.01,-421.25 1394.26,-421.25"/>
<text text-anchor="start" x="1397.26" y="-427.3" font-family="Helvetica,sans-Serif" font-size="11.00">...</text>
<polygon fill="#ffffff" stroke="none" points="1394.26,-401.75 1394.26,-421.25 1456.51,-421.25 1456.51,-401.75 1394.26,-401.75"/>
<polygon fill="none" stroke="black" points="1394.26,-401.75 1394.26,-421.25 1456.51,-421.25 1456.51,-401.75 1394.26,-401.75"/>
<text text-anchor="start" x="1397.26" y="-407.8" font-family="Helvetica,sans-Serif" font-size="11.00">&lt; 2</text>
<polygon fill="#ffffff" stroke="none" points="1456.51,-401.75 1456.51,-421.25 1506.76,-421.25 1506.76,-401.75 1456.51,-401.75"/>
<polygon fill="none" stroke="black" points="1456.51,-401.75 1456.51,-421.25 1506.76,-421.25 1506.76,-401.75 1456.51,-401.75"/>
<text text-anchor="start" x="1496.26" y="-407.8" font-family="Helvetica,sans-Serif" font-size="11.00"> &#160;</text>
<polygon fill="#ffffff" stroke="none" points="1506.76,-401.75 1506.76,-421.25 1557.01,-421.25 1557.01,-401.75 1506.76,-401.75"/>
<polygon fill="none" stroke="black" points="1506.76,-401.75 1506.76,-421.25 1557.01,-421.25 1557.01,-401.75 1506.76,-401.75"/>
<text text-anchor="start" x="1546.51" y="-407.8" font-family="Helvetica,sans-Serif" font-size="11.00"> &#160;</text>
</a>
</g>
</g>
<!-- proj_project_user&#45;&gt;proj_project -->
<g id="edge60" class="edge">
<title>proj_project_user:w&#45;&gt;proj_project:e</title>
<path fill="none" stroke="black" d="M1377.75,-432.46C1326.7,-442.1 1289.21,-497.45 1269.26,-534.92"/>
<polygon fill="black" stroke="black" points="1384.97,-431.78 1393.27,-434.62 1389.28,-431.37 1392.6,-431.06 1392.6,-431.06 1392.6,-431.06 1389.28,-431.37 1392.59,-427.45 1384.97,-431.78"/>
<ellipse fill="none" stroke="black" cx="1380.07" cy="-432.24" rx="3.2" ry="3.2"/>
</g>
<!-- proj_project_user&#45;&gt;user_user -->
<g id="edge59" class="edge">
<title>proj_project_user:w&#45;&gt;user_user:e</title>
<path fill="none" stroke="black" d="M1378.08,-427.18C1366.53,-420.08 1363.36,-404.79 1345.76,-396 1218.63,-332.47 1181.63,-304 1039.51,-304"/>
<polygon fill="black" stroke="black" points="1385.18,-428.97 1392.06,-434.41 1389.38,-430.02 1392.61,-430.84 1392.61,-430.84 1392.61,-430.84 1389.38,-430.02 1393.82,-427.43 1385.18,-428.97"/>
<ellipse fill="none" stroke="black" cx="1380.41" cy="-427.77" rx="3.2" ry="3.2"/>
</g>
<!-- train_train -->
<g id="node24" class="node">
<title>train_train</title>
<g id="a_node24"><a xlink:href="../../tables/train_train.html" xlink:title="train_train" target="_top">
<polygon fill="#ffffff" stroke="none" points="1417.26,-591.75 1417.26,-654.25 1534.01,-654.25 1534.01,-591.75 1417.26,-591.75"/>
<polygon fill="#f5f5f5" stroke="none" points="1417.26,-630.75 1417.26,-654.25 1534.01,-654.25 1534.01,-630.75 1417.26,-630.75"/>
<polygon fill="none" stroke="black" points="1417.26,-630.75 1417.26,-654.25 1534.01,-654.25 1534.01,-630.75 1417.26,-630.75"/>
<text text-anchor="start" x="1422.26" y="-639.8" font-family="Helvetica,sans-Serif" font-weight="bold" font-size="11.00">train_train</text>
<text text-anchor="start" x="1492.26" y="-638.8" font-family="Helvetica,sans-Serif" font-size="11.00">[table]</text>
<polygon fill="none" stroke="black" points="1417.26,-611.25 1417.26,-630.75 1534.01,-630.75 1534.01,-611.25 1417.26,-611.25"/>
<text text-anchor="start" x="1420.26" y="-617.3" font-family="Helvetica,sans-Serif" font-size="11.00">...</text>
<polygon fill="#ffffff" stroke="none" points="1417.26,-591.75 1417.26,-611.25 1460.18,-611.25 1460.18,-591.75 1417.26,-591.75"/>
<polygon fill="none" stroke="black" points="1417.26,-591.75 1417.26,-611.25 1460.18,-611.25 1460.18,-591.75 1417.26,-591.75"/>
<text text-anchor="start" x="1420.26" y="-597.8" font-family="Helvetica,sans-Serif" font-size="11.00">&lt; 1</text>
<polygon fill="#ffffff" stroke="none" points="1460.18,-591.75 1460.18,-611.25 1491.1,-611.25 1491.1,-591.75 1460.18,-591.75"/>
<polygon fill="none" stroke="black" points="1460.18,-591.75 1460.18,-611.25 1491.1,-611.25 1491.1,-591.75 1460.18,-591.75"/>
<text text-anchor="start" x="1480.6" y="-597.8" font-family="Helvetica,sans-Serif" font-size="11.00"> &#160;</text>
<polygon fill="#ffffff" stroke="none" points="1491.1,-591.75 1491.1,-611.25 1534.01,-611.25 1534.01,-591.75 1491.1,-591.75"/>
<polygon fill="none" stroke="black" points="1491.1,-591.75 1491.1,-611.25 1534.01,-611.25 1534.01,-591.75 1491.1,-591.75"/>
<text text-anchor="start" x="1511.51" y="-597.8" font-family="Helvetica,sans-Serif" font-size="11.00">1 &gt;</text>
</a>
</g>
</g>
<!-- train_train&#45;&gt;proj_project -->
<g id="edge61" class="edge">
<title>train_train:w&#45;&gt;proj_project:e</title>
<path fill="none" stroke="black" d="M1400.64,-620.33C1373.94,-618.09 1346.69,-610.58 1322.99,-602.01"/>
<polygon fill="black" stroke="black" points="1407.94,-620.64 1415.77,-624.58 1412.27,-620.83 1415.59,-620.97 1415.59,-620.97 1415.59,-620.97 1412.27,-620.83 1416.08,-617.39 1407.94,-620.64"/>
<ellipse fill="none" stroke="black" cx="1403.02" cy="-620.43" rx="3.2" ry="3.2"/>
</g>
</g>
</svg>
