<?xml version="1.0" encoding="UTF-8" standalone="no"?>
<!DOCTYPE svg PUBLIC "-//W3C//DTD SVG 1.1//EN"
 "http://www.w3.org/Graphics/SVG/1.1/DTD/svg11.dtd">
<!-- Generated by graphviz version 12.2.0 (0)
 -->
<!-- Title: oneDegreeRelationshipsDiagram Pages: 1 -->
<svg width="286pt" height="450pt"
 viewBox="0.00 0.00 285.75 449.50" xmlns="http://www.w3.org/2000/svg" xmlns:xlink="http://www.w3.org/1999/xlink">
<g id="graph0" class="graph" transform="scale(1 1) rotate(0) translate(4 445.5)">
<title>oneDegreeRelationshipsDiagram</title>
<polygon fill="#ffffff" stroke="none" points="-4,4 -4,-445.5 281.75,-445.5 281.75,4 -4,4"/>
<text text-anchor="middle" x="79.25" y="-7.05" font-family="Helvetica,sans-Serif" font-size="11.00">Generated by SchemaSpy</text>
<!-- conf_z3950_server -->
<g id="node1" class="node">
<title>conf_z3950_server</title>
<g id="a_node1"><a xlink:href="../../tables/conf_z3950_server.html" xlink:title="conf_z3950_server" target="_top">
<polygon fill="#ffffff" stroke="none" points="8,-38.5 8,-437.5 269.75,-437.5 269.75,-38.5 8,-38.5"/>
<polygon fill="#f5f5f5" stroke="none" points="10,-412 10,-435.5 267.75,-435.5 267.75,-412 10,-412"/>
<polygon fill="none" stroke="black" points="10,-412 10,-435.5 267.75,-435.5 267.75,-412 10,-412"/>
<text text-anchor="start" x="15" y="-421.05" font-family="Helvetica,sans-Serif" font-weight="bold" font-size="11.00">conf_z3950_server</text>
<text text-anchor="start" x="226" y="-420.05" font-family="Helvetica,sans-Serif" font-size="11.00">[table]</text>
<polygon fill="none" stroke="black" points="10,-390 10,-412 158,-412 158,-390 10,-390"/>
<image xlink:href="../../images/primaryKeys.png" width="11px" height="12px" preserveAspectRatio="xMinYMin meet" x="15" y="-407"/>
<text text-anchor="start" x="30" y="-396.55" font-family="Helvetica,sans-Serif" font-size="11.00">identifier</text>
<polygon fill="none" stroke="black" points="158,-390 158,-412 256.75,-412 256.75,-390 158,-390"/>
<text text-anchor="start" x="161" y="-397.3" font-family="Helvetica,sans-Serif" font-size="11.00">varchar[191]</text>
<polygon fill="#ffffff" stroke="none" points="10,-368 10,-390 158,-390 158,-368 10,-368"/>
<polygon fill="none" stroke="black" points="10,-368 10,-390 158,-390 158,-368 10,-368"/>
<text text-anchor="start" x="30" y="-374.55" font-family="Helvetica,sans-Serif" font-size="11.00">name</text>
<polygon fill="none" stroke="black" points="158,-368 158,-390 256.75,-390 256.75,-368 158,-368"/>
<text text-anchor="start" x="161" y="-375.3" font-family="Helvetica,sans-Serif" font-size="11.00">varchar[191]</text>
<polygon fill="none" stroke="black" points="10,-346 10,-368 158,-368 158,-346 10,-346"/>
<text text-anchor="start" x="30" y="-352.55" font-family="Helvetica,sans-Serif" font-size="11.00">host</text>
<polygon fill="none" stroke="black" points="158,-346 158,-368 256.75,-368 256.75,-346 158,-346"/>
<text text-anchor="start" x="161" y="-353.3" font-family="Helvetica,sans-Serif" font-size="11.00">varchar[255]</text>
<polygon fill="none" stroke="black" points="10,-324 10,-346 158,-346 158,-324 10,-324"/>
<text text-anchor="start" x="30" y="-330.55" font-family="Helvetica,sans-Serif" font-size="11.00">port</text>
<polygon fill="none" stroke="black" points="158,-324 158,-346 256.75,-346 256.75,-324 158,-324"/>
<text text-anchor="start" x="161" y="-331.3" font-family="Helvetica,sans-Serif" font-size="11.00">int[10]</text>
<polygon fill="none" stroke="black" points="10,-302 10,-324 158,-324 158,-302 10,-302"/>
<text text-anchor="start" x="30" y="-308.55" font-family="Helvetica,sans-Serif" font-size="11.00">dbname</text>
<polygon fill="none" stroke="black" points="158,-302 158,-324 256.75,-324 256.75,-302 158,-302"/>
<text text-anchor="start" x="161" y="-309.3" font-family="Helvetica,sans-Serif" font-size="11.00">varchar[255]</text>
<polygon fill="none" stroke="black" points="10,-280 10,-302 158,-302 158,-280 10,-280"/>
<text text-anchor="start" x="30" y="-286.55" font-family="Helvetica,sans-Serif" font-size="11.00">user_id</text>
<polygon fill="none" stroke="black" points="158,-280 158,-302 256.75,-302 256.75,-280 158,-280"/>
<text text-anchor="start" x="161" y="-287.3" font-family="Helvetica,sans-Serif" font-size="11.00">varchar[255]</text>
<polygon fill="none" stroke="black" points="10,-258 10,-280 158,-280 158,-258 10,-258"/>
<text text-anchor="start" x="30" y="-264.55" font-family="Helvetica,sans-Serif" font-size="11.00">password</text>
<polygon fill="none" stroke="black" points="158,-258 158,-280 256.75,-280 256.75,-258 158,-258"/>
<text text-anchor="start" x="161" y="-265.3" font-family="Helvetica,sans-Serif" font-size="11.00">varchar[255]</text>
<polygon fill="none" stroke="black" points="10,-236 10,-258 158,-258 158,-236 10,-236"/>
<text text-anchor="start" x="30" y="-242.55" font-family="Helvetica,sans-Serif" font-size="11.00">active</text>
<polygon fill="none" stroke="black" points="158,-236 158,-258 256.75,-258 256.75,-236 158,-236"/>
<text text-anchor="start" x="161" y="-243.3" font-family="Helvetica,sans-Serif" font-size="11.00">bit[1]</text>
<polygon fill="none" stroke="black" points="10,-214 10,-236 158,-236 158,-214 10,-214"/>
<text text-anchor="start" x="30" y="-220.55" font-family="Helvetica,sans-Serif" font-size="11.00">data_format</text>
<polygon fill="none" stroke="black" points="158,-214 158,-236 256.75,-236 256.75,-214 158,-214"/>
<text text-anchor="start" x="161" y="-221.3" font-family="Helvetica,sans-Serif" font-size="11.00">varchar[255]</text>
<polygon fill="none" stroke="black" points="10,-192 10,-214 158,-214 158,-192 10,-192"/>
<text text-anchor="start" x="30" y="-198.55" font-family="Helvetica,sans-Serif" font-size="11.00">data_encoding</text>
<polygon fill="none" stroke="black" points="158,-192 158,-214 256.75,-214 256.75,-192 158,-192"/>
<text text-anchor="start" x="161" y="-199.3" font-family="Helvetica,sans-Serif" font-size="11.00">varchar[255]</text>
<polygon fill="none" stroke="black" points="10,-170 10,-192 158,-192 158,-170 10,-170"/>
<text text-anchor="start" x="30" y="-176.55" font-family="Helvetica,sans-Serif" font-size="11.00">record_type</text>
<polygon fill="none" stroke="black" points="158,-170 158,-192 256.75,-192 256.75,-170 158,-170"/>
<text text-anchor="start" x="161" y="-177.3" font-family="Helvetica,sans-Serif" font-size="11.00">varchar[255]</text>
<polygon fill="none" stroke="black" points="10,-148 10,-170 158,-170 158,-148 10,-148"/>
<text text-anchor="start" x="30" y="-154.55" font-family="Helvetica,sans-Serif" font-size="11.00">version</text>
<polygon fill="none" stroke="black" points="158,-148 158,-170 256.75,-170 256.75,-148 158,-148"/>
<text text-anchor="start" x="161" y="-155.3" font-family="Helvetica,sans-Serif" font-size="11.00">bigint[19]</text>
<polygon fill="none" stroke="black" points="10,-126 10,-148 158,-148 158,-126 10,-126"/>
<text text-anchor="start" x="30" y="-132.55" font-family="Helvetica,sans-Serif" font-size="11.00">created_by</text>
<polygon fill="none" stroke="black" points="158,-126 158,-148 256.75,-148 256.75,-126 158,-126"/>
<text text-anchor="start" x="161" y="-133.3" font-family="Helvetica,sans-Serif" font-size="11.00">varchar[255]</text>
<polygon fill="none" stroke="black" points="10,-104 10,-126 158,-126 158,-104 10,-104"/>
<text text-anchor="start" x="30" y="-110.55" font-family="Helvetica,sans-Serif" font-size="11.00">last_modified_by</text>
<polygon fill="none" stroke="black" points="158,-104 158,-126 256.75,-126 256.75,-104 158,-104"/>
<text text-anchor="start" x="161" y="-111.3" font-family="Helvetica,sans-Serif" font-size="11.00">varchar[255]</text>
<polygon fill="none" stroke="black" points="10,-82 10,-104 158,-104 158,-82 10,-82"/>
<text text-anchor="start" x="30" y="-88.55" font-family="Helvetica,sans-Serif" font-size="11.00">created_date</text>
<polygon fill="none" stroke="black" points="158,-82 158,-104 256.75,-104 256.75,-82 158,-82"/>
<text text-anchor="start" x="161" y="-89.3" font-family="Helvetica,sans-Serif" font-size="11.00">timestamp[19]</text>
<polygon fill="none" stroke="black" points="10,-60 10,-82 158,-82 158,-60 10,-60"/>
<text text-anchor="start" x="30" y="-66.55" font-family="Helvetica,sans-Serif" font-size="11.00">last_modified_date</text>
<polygon fill="none" stroke="black" points="158,-60 158,-82 256.75,-82 256.75,-60 158,-60"/>
<text text-anchor="start" x="161" y="-67.3" font-family="Helvetica,sans-Serif" font-size="11.00">timestamp[19]</text>
<polygon fill="#ffffff" stroke="none" points="10,-40.5 10,-60 90,-60 90,-40.5 10,-40.5"/>
<polygon fill="none" stroke="black" points="10,-40.5 10,-60 90,-60 90,-40.5 10,-40.5"/>
<text text-anchor="start" x="13" y="-46.55" font-family="Helvetica,sans-Serif" font-size="11.00">&lt; 0</text>
<polygon fill="#ffffff" stroke="none" points="90,-40.5 90,-60 158,-60 158,-40.5 90,-40.5"/>
<polygon fill="none" stroke="black" points="90,-40.5 90,-60 158,-60 158,-40.5 90,-40.5"/>
<text text-anchor="start" x="147.5" y="-46.55" font-family="Helvetica,sans-Serif" font-size="11.00"> &#160;</text>
<polygon fill="#ffffff" stroke="none" points="158,-40.5 158,-60 256.75,-60 256.75,-40.5 158,-40.5"/>
<polygon fill="none" stroke="black" points="158,-40.5 158,-60 256.75,-60 256.75,-40.5 158,-40.5"/>
<text text-anchor="start" x="234.25" y="-46.55" font-family="Helvetica,sans-Serif" font-size="11.00">0 &gt;</text>
<polygon fill="none" stroke="black" stroke-width="2" points="9,-39.5 9,-436.5 268.75,-436.5 268.75,-39.5 9,-39.5"/>
</a>
</g>
</g>
</g>
</svg>
