<?xml version="1.0" encoding="UTF-8" standalone="no"?>
<!DOCTYPE svg PUBLIC "-//W3C//DTD SVG 1.1//EN"
 "http://www.w3.org/Graphics/SVG/1.1/DTD/svg11.dtd">
<!-- Generated by graphviz version 12.2.0 (0)
 -->
<!-- Title: oneDegreeRelationshipsDiagram Pages: 1 -->
<svg width="1343pt" height="828pt"
 viewBox="0.00 0.00 1342.50 828.25" xmlns="http://www.w3.org/2000/svg" xmlns:xlink="http://www.w3.org/1999/xlink">
<g id="graph0" class="graph" transform="scale(1 1) rotate(0) translate(4 824.25)">
<title>oneDegreeRelationshipsDiagram</title>
<polygon fill="#ffffff" stroke="none" points="-4,4 -4,-824.25 1338.5,-824.25 1338.5,4 -4,4"/>
<text text-anchor="middle" x="79.25" y="-7.05" font-family="Helvetica,sans-Serif" font-size="11.00">Generated by SchemaSpy</text>
<!-- conf_lists_omeka -->
<g id="node1" class="node">
<title>conf_lists_omeka</title>
<g id="a_node1"><a xlink:href="../../tables/conf_lists_omeka.html" xlink:title="conf_lists_omeka" target="_top">
<polygon fill="#ffffff" stroke="none" points="579.75,-541.75 579.75,-648.25 740.5,-648.25 740.5,-541.75 579.75,-541.75"/>
<polygon fill="#f5f5f5" stroke="none" points="579.75,-624.75 579.75,-648.25 740.5,-648.25 740.5,-624.75 579.75,-624.75"/>
<polygon fill="none" stroke="black" points="579.75,-624.75 579.75,-648.25 740.5,-648.25 740.5,-624.75 579.75,-624.75"/>
<text text-anchor="start" x="584.75" y="-633.8" font-family="Helvetica,sans-Serif" font-weight="bold" font-size="11.00">conf_lists_omeka</text>
<text text-anchor="start" x="698.75" y="-632.8" font-family="Helvetica,sans-Serif" font-size="11.00">[table]</text>
<polygon fill="none" stroke="black" points="579.75,-602.75 579.75,-624.75 740.5,-624.75 740.5,-602.75 579.75,-602.75"/>
<image xlink:href="../../images/primaryKeys.png" width="11px" height="12px" preserveAspectRatio="xMinYMin meet" x="584.75" y="-619.75"/>
<text text-anchor="start" x="606.12" y="-609.3" font-family="Helvetica,sans-Serif" font-size="11.00">identifier</text>
<polygon fill="#ffffff" stroke="none" points="579.75,-580.75 579.75,-602.75 740.5,-602.75 740.5,-580.75 579.75,-580.75"/>
<polygon fill="none" stroke="black" points="579.75,-580.75 579.75,-602.75 740.5,-602.75 740.5,-580.75 579.75,-580.75"/>
<image xlink:href="../../images/foreignKeys.png" width="11px" height="12px" preserveAspectRatio="xMinYMin meet" x="584.75" y="-597.75"/>
<text text-anchor="start" x="606.12" y="-587.3" font-family="Helvetica,sans-Serif" font-size="11.00">conf_omeka</text>
<polygon fill="none" stroke="black" points="579.75,-561.25 579.75,-580.75 740.5,-580.75 740.5,-561.25 579.75,-561.25"/>
<text text-anchor="start" x="582.75" y="-567.3" font-family="Helvetica,sans-Serif" font-size="11.00">...</text>
<polygon fill="#ffffff" stroke="none" points="579.75,-541.75 579.75,-561.25 637.33,-561.25 637.33,-541.75 579.75,-541.75"/>
<polygon fill="none" stroke="black" points="579.75,-541.75 579.75,-561.25 637.33,-561.25 637.33,-541.75 579.75,-541.75"/>
<text text-anchor="start" x="582.75" y="-547.8" font-family="Helvetica,sans-Serif" font-size="11.00">&lt; 1</text>
<polygon fill="#ffffff" stroke="none" points="637.33,-541.75 637.33,-561.25 682.92,-561.25 682.92,-541.75 637.33,-541.75"/>
<polygon fill="none" stroke="black" points="637.33,-541.75 637.33,-561.25 682.92,-561.25 682.92,-541.75 637.33,-541.75"/>
<text text-anchor="start" x="672.42" y="-547.8" font-family="Helvetica,sans-Serif" font-size="11.00"> &#160;</text>
<polygon fill="#ffffff" stroke="none" points="682.92,-541.75 682.92,-561.25 740.5,-561.25 740.5,-541.75 682.92,-541.75"/>
<polygon fill="none" stroke="black" points="682.92,-541.75 682.92,-561.25 740.5,-561.25 740.5,-541.75 682.92,-541.75"/>
<text text-anchor="start" x="718" y="-547.8" font-family="Helvetica,sans-Serif" font-size="11.00">6 &gt;</text>
</a>
</g>
</g>
<!-- conf_omeka -->
<g id="node2" class="node">
<title>conf_omeka</title>
<g id="a_node2"><a xlink:href="../../tables/conf_omeka.html" xlink:title="conf_omeka" target="_top">
<polygon fill="#ffffff" stroke="none" points="291,-38.5 291,-591.5 530.75,-591.5 530.75,-38.5 291,-38.5"/>
<polygon fill="#f5f5f5" stroke="none" points="293,-566 293,-589.5 528.75,-589.5 528.75,-566 293,-566"/>
<polygon fill="none" stroke="black" points="293,-566 293,-589.5 528.75,-589.5 528.75,-566 293,-566"/>
<text text-anchor="start" x="298" y="-575.05" font-family="Helvetica,sans-Serif" font-weight="bold" font-size="11.00">conf_omeka</text>
<text text-anchor="start" x="487" y="-574.05" font-family="Helvetica,sans-Serif" font-size="11.00">[table]</text>
<polygon fill="none" stroke="black" points="293,-544 293,-566 441,-566 441,-544 293,-544"/>
<image xlink:href="../../images/primaryKeys.png" width="11px" height="12px" preserveAspectRatio="xMinYMin meet" x="298" y="-561"/>
<text text-anchor="start" x="313" y="-550.55" font-family="Helvetica,sans-Serif" font-size="11.00">identifier</text>
<polygon fill="none" stroke="black" points="441,-544 441,-566 528.75,-566 528.75,-544 441,-544"/>
<text text-anchor="start" x="444" y="-551.3" font-family="Helvetica,sans-Serif" font-size="11.00">varchar[191]</text>
<polygon fill="none" stroke="black" points="293,-522 293,-544 441,-544 441,-522 293,-522"/>
<text text-anchor="start" x="313" y="-528.55" font-family="Helvetica,sans-Serif" font-size="11.00">label</text>
<polygon fill="none" stroke="black" points="441,-522 441,-544 528.75,-544 528.75,-522 441,-522"/>
<text text-anchor="start" x="444" y="-529.3" font-family="Helvetica,sans-Serif" font-size="11.00">varchar[255]</text>
<polygon fill="#ffffff" stroke="none" points="293,-500 293,-522 441,-522 441,-500 293,-500"/>
<polygon fill="none" stroke="black" points="293,-500 293,-522 441,-522 441,-500 293,-500"/>
<image xlink:href="../../images/foreignKeys.png" width="11px" height="12px" preserveAspectRatio="xMinYMin meet" x="298" y="-517"/>
<text text-anchor="start" x="313" y="-506.55" font-family="Helvetica,sans-Serif" font-size="11.00">library</text>
<polygon fill="none" stroke="black" points="441,-500 441,-522 528.75,-522 528.75,-500 441,-500"/>
<text text-anchor="start" x="444" y="-507.3" font-family="Helvetica,sans-Serif" font-size="11.00">varchar[191]</text>
<polygon fill="none" stroke="black" points="293,-478 293,-500 441,-500 441,-478 293,-478"/>
<text text-anchor="start" x="313" y="-484.55" font-family="Helvetica,sans-Serif" font-size="11.00">storage_server</text>
<polygon fill="none" stroke="black" points="441,-478 441,-500 528.75,-500 528.75,-478 441,-478"/>
<text text-anchor="start" x="444" y="-485.3" font-family="Helvetica,sans-Serif" font-size="11.00">varchar[255]</text>
<polygon fill="none" stroke="black" points="293,-456 293,-478 441,-478 441,-456 293,-456"/>
<text text-anchor="start" x="313" y="-462.55" font-family="Helvetica,sans-Serif" font-size="11.00">active</text>
<polygon fill="none" stroke="black" points="441,-456 441,-478 528.75,-478 528.75,-456 441,-456"/>
<text text-anchor="start" x="444" y="-463.3" font-family="Helvetica,sans-Serif" font-size="11.00">bit[1]</text>
<polygon fill="none" stroke="black" points="293,-434 293,-456 441,-456 441,-434 293,-434"/>
<text text-anchor="start" x="313" y="-440.55" font-family="Helvetica,sans-Serif" font-size="11.00">version</text>
<polygon fill="none" stroke="black" points="441,-434 441,-456 528.75,-456 528.75,-434 441,-434"/>
<text text-anchor="start" x="444" y="-441.3" font-family="Helvetica,sans-Serif" font-size="11.00">bigint[19]</text>
<polygon fill="none" stroke="black" points="293,-412 293,-434 441,-434 441,-412 293,-412"/>
<text text-anchor="start" x="313" y="-418.55" font-family="Helvetica,sans-Serif" font-size="11.00">created_by</text>
<polygon fill="none" stroke="black" points="441,-412 441,-434 528.75,-434 528.75,-412 441,-412"/>
<text text-anchor="start" x="444" y="-419.3" font-family="Helvetica,sans-Serif" font-size="11.00">varchar[255]</text>
<polygon fill="none" stroke="black" points="293,-390 293,-412 441,-412 441,-390 293,-390"/>
<text text-anchor="start" x="313" y="-396.55" font-family="Helvetica,sans-Serif" font-size="11.00">last_modified_by</text>
<polygon fill="none" stroke="black" points="441,-390 441,-412 528.75,-412 528.75,-390 441,-390"/>
<text text-anchor="start" x="444" y="-397.3" font-family="Helvetica,sans-Serif" font-size="11.00">varchar[255]</text>
<polygon fill="none" stroke="black" points="293,-368 293,-390 441,-390 441,-368 293,-368"/>
<text text-anchor="start" x="313" y="-374.55" font-family="Helvetica,sans-Serif" font-size="11.00">created_date</text>
<polygon fill="none" stroke="black" points="441,-368 441,-390 528.75,-390 528.75,-368 441,-368"/>
<text text-anchor="start" x="444" y="-375.3" font-family="Helvetica,sans-Serif" font-size="11.00">timestamp[19]</text>
<polygon fill="none" stroke="black" points="293,-346 293,-368 441,-368 441,-346 293,-346"/>
<text text-anchor="start" x="313" y="-352.55" font-family="Helvetica,sans-Serif" font-size="11.00">last_modified_date</text>
<polygon fill="none" stroke="black" points="441,-346 441,-368 528.75,-368 528.75,-346 441,-346"/>
<text text-anchor="start" x="444" y="-353.3" font-family="Helvetica,sans-Serif" font-size="11.00">timestamp[19]</text>
<polygon fill="none" stroke="black" points="293,-324 293,-346 441,-346 441,-324 293,-324"/>
<text text-anchor="start" x="313" y="-330.55" font-family="Helvetica,sans-Serif" font-size="11.00">address</text>
<polygon fill="none" stroke="black" points="441,-324 441,-346 528.75,-346 528.75,-324 441,-324"/>
<text text-anchor="start" x="444" y="-331.3" font-family="Helvetica,sans-Serif" font-size="11.00">varchar[255]</text>
<polygon fill="none" stroke="black" points="293,-302 293,-324 441,-324 441,-302 293,-302"/>
<text text-anchor="start" x="313" y="-308.55" font-family="Helvetica,sans-Serif" font-size="11.00">login</text>
<polygon fill="none" stroke="black" points="441,-302 441,-324 528.75,-324 528.75,-302 441,-302"/>
<text text-anchor="start" x="444" y="-309.3" font-family="Helvetica,sans-Serif" font-size="11.00">varchar[255]</text>
<polygon fill="none" stroke="black" points="293,-280 293,-302 441,-302 441,-280 293,-280"/>
<text text-anchor="start" x="313" y="-286.55" font-family="Helvetica,sans-Serif" font-size="11.00">password</text>
<polygon fill="none" stroke="black" points="441,-280 441,-302 528.75,-302 528.75,-280 441,-280"/>
<text text-anchor="start" x="444" y="-287.3" font-family="Helvetica,sans-Serif" font-size="11.00">varchar[255]</text>
<polygon fill="none" stroke="black" points="293,-258 293,-280 441,-280 441,-258 293,-258"/>
<text text-anchor="start" x="313" y="-264.55" font-family="Helvetica,sans-Serif" font-size="11.00">export_mets</text>
<polygon fill="none" stroke="black" points="441,-258 441,-280 528.75,-280 528.75,-258 441,-258"/>
<text text-anchor="start" x="444" y="-265.3" font-family="Helvetica,sans-Serif" font-size="11.00">bit[1]</text>
<polygon fill="none" stroke="black" points="293,-236 293,-258 441,-258 441,-236 293,-236"/>
<text text-anchor="start" x="313" y="-242.55" font-family="Helvetica,sans-Serif" font-size="11.00">export_master</text>
<polygon fill="none" stroke="black" points="441,-236 441,-258 528.75,-258 528.75,-236 441,-236"/>
<text text-anchor="start" x="444" y="-243.3" font-family="Helvetica,sans-Serif" font-size="11.00">bit[1]</text>
<polygon fill="none" stroke="black" points="293,-214 293,-236 441,-236 441,-214 293,-214"/>
<text text-anchor="start" x="313" y="-220.55" font-family="Helvetica,sans-Serif" font-size="11.00">export_view</text>
<polygon fill="none" stroke="black" points="441,-214 441,-236 528.75,-236 528.75,-214 441,-214"/>
<text text-anchor="start" x="444" y="-221.3" font-family="Helvetica,sans-Serif" font-size="11.00">bit[1]</text>
<polygon fill="none" stroke="black" points="293,-192 293,-214 441,-214 441,-192 293,-192"/>
<text text-anchor="start" x="313" y="-198.55" font-family="Helvetica,sans-Serif" font-size="11.00">export_thumb</text>
<polygon fill="none" stroke="black" points="441,-192 441,-214 528.75,-214 528.75,-192 441,-192"/>
<text text-anchor="start" x="444" y="-199.3" font-family="Helvetica,sans-Serif" font-size="11.00">bit[1]</text>
<polygon fill="none" stroke="black" points="293,-170 293,-192 441,-192 441,-170 293,-170"/>
<text text-anchor="start" x="313" y="-176.55" font-family="Helvetica,sans-Serif" font-size="11.00">export_pdf</text>
<polygon fill="none" stroke="black" points="441,-170 441,-192 528.75,-192 528.75,-170 441,-170"/>
<text text-anchor="start" x="444" y="-177.3" font-family="Helvetica,sans-Serif" font-size="11.00">bit[1]</text>
<polygon fill="none" stroke="black" points="293,-148 293,-170 441,-170 441,-148 293,-148"/>
<text text-anchor="start" x="313" y="-154.55" font-family="Helvetica,sans-Serif" font-size="11.00">port</text>
<polygon fill="none" stroke="black" points="441,-148 441,-170 528.75,-170 528.75,-148 441,-148"/>
<text text-anchor="start" x="444" y="-155.3" font-family="Helvetica,sans-Serif" font-size="11.00">varchar[255]</text>
<polygon fill="none" stroke="black" points="293,-126 293,-148 441,-148 441,-126 293,-126"/>
<text text-anchor="start" x="313" y="-132.55" font-family="Helvetica,sans-Serif" font-size="11.00">access_url</text>
<polygon fill="none" stroke="black" points="441,-126 441,-148 528.75,-148 528.75,-126 441,-126"/>
<text text-anchor="start" x="444" y="-133.3" font-family="Helvetica,sans-Serif" font-size="11.00">varchar[255]</text>
<polygon fill="none" stroke="black" points="293,-104 293,-126 441,-126 441,-104 293,-104"/>
<text text-anchor="start" x="313" y="-110.55" font-family="Helvetica,sans-Serif" font-size="11.00">mail_csv</text>
<polygon fill="none" stroke="black" points="441,-104 441,-126 528.75,-126 528.75,-104 441,-104"/>
<text text-anchor="start" x="444" y="-111.3" font-family="Helvetica,sans-Serif" font-size="11.00">varchar[255]</text>
<polygon fill="none" stroke="black" points="293,-82 293,-104 441,-104 441,-82 293,-82"/>
<text text-anchor="start" x="313" y="-88.55" font-family="Helvetica,sans-Serif" font-size="11.00">omekas</text>
<polygon fill="none" stroke="black" points="441,-82 441,-104 528.75,-104 528.75,-82 441,-82"/>
<text text-anchor="start" x="444" y="-89.3" font-family="Helvetica,sans-Serif" font-size="11.00">bit[1]</text>
<polygon fill="none" stroke="black" points="293,-60 293,-82 441,-82 441,-60 293,-60"/>
<text text-anchor="start" x="313" y="-66.55" font-family="Helvetica,sans-Serif" font-size="11.00">sftp</text>
<polygon fill="none" stroke="black" points="441,-60 441,-82 528.75,-82 528.75,-60 441,-60"/>
<text text-anchor="start" x="444" y="-67.3" font-family="Helvetica,sans-Serif" font-size="11.00">bit[1]</text>
<polygon fill="#ffffff" stroke="none" points="293,-40.5 293,-60 373,-60 373,-40.5 293,-40.5"/>
<polygon fill="none" stroke="black" points="293,-40.5 293,-60 373,-60 373,-40.5 293,-40.5"/>
<text text-anchor="start" x="296" y="-46.55" font-family="Helvetica,sans-Serif" font-size="11.00">&lt; 1</text>
<polygon fill="#ffffff" stroke="none" points="373,-40.5 373,-60 441,-60 441,-40.5 373,-40.5"/>
<polygon fill="none" stroke="black" points="373,-40.5 373,-60 441,-60 441,-40.5 373,-40.5"/>
<text text-anchor="start" x="430.5" y="-46.55" font-family="Helvetica,sans-Serif" font-size="11.00"> &#160;</text>
<polygon fill="#ffffff" stroke="none" points="441,-40.5 441,-60 528.75,-60 528.75,-40.5 441,-40.5"/>
<polygon fill="none" stroke="black" points="441,-40.5 441,-60 528.75,-60 528.75,-40.5 441,-40.5"/>
<text text-anchor="start" x="506.25" y="-46.55" font-family="Helvetica,sans-Serif" font-size="11.00">3 &gt;</text>
<polygon fill="none" stroke="black" stroke-width="2" points="292,-39.5 292,-590.5 529.75,-590.5 529.75,-39.5 292,-39.5"/>
</a>
</g>
</g>
<!-- conf_lists_omeka&#45;&gt;conf_omeka -->
<g id="edge1" class="edge">
<title>conf_lists_omeka:w&#45;&gt;conf_omeka:e</title>
<path fill="none" stroke="black" d="M564.15,-586.64C552.29,-576.54 550.59,-555 529.75,-555"/>
<polygon fill="black" stroke="black" points="570.88,-589 577.24,-595.04 574.97,-590.43 578.12,-591.53 578.12,-591.53 578.12,-591.53 574.97,-590.43 579.62,-588.24 570.88,-589"/>
<ellipse fill="none" stroke="black" cx="566.24" cy="-587.37" rx="3.2" ry="3.2"/>
</g>
<!-- lib_library -->
<g id="node3" class="node">
<title>lib_library</title>
<g id="a_node3"><a xlink:href="../../tables/lib_library.html" xlink:title="lib_library" target="_top">
<polygon fill="#ffffff" stroke="none" points="8,-412.75 8,-629.25 242,-629.25 242,-412.75 8,-412.75"/>
<polygon fill="#f5f5f5" stroke="none" points="8,-605.75 8,-629.25 242,-629.25 242,-605.75 8,-605.75"/>
<polygon fill="none" stroke="black" points="8,-605.75 8,-629.25 242,-629.25 242,-605.75 8,-605.75"/>
<text text-anchor="start" x="13" y="-614.8" font-family="Helvetica,sans-Serif" font-weight="bold" font-size="11.00">lib_library</text>
<text text-anchor="start" x="200.25" y="-613.8" font-family="Helvetica,sans-Serif" font-size="11.00">[table]</text>
<polygon fill="none" stroke="black" points="8,-583.75 8,-605.75 242,-605.75 242,-583.75 8,-583.75"/>
<image xlink:href="../../images/primaryKeys.png" width="11px" height="12px" preserveAspectRatio="xMinYMin meet" x="13" y="-600.75"/>
<text text-anchor="start" x="28" y="-590.3" font-family="Helvetica,sans-Serif" font-size="11.00">identifier</text>
<polygon fill="#ffffff" stroke="none" points="8,-561.75 8,-583.75 242,-583.75 242,-561.75 8,-561.75"/>
<polygon fill="none" stroke="black" points="8,-561.75 8,-583.75 242,-583.75 242,-561.75 8,-561.75"/>
<image xlink:href="../../images/foreignKeys.png" width="11px" height="12px" preserveAspectRatio="xMinYMin meet" x="13" y="-578.75"/>
<text text-anchor="start" x="28" y="-568.3" font-family="Helvetica,sans-Serif" font-size="11.00">address</text>
<polygon fill="#ffffff" stroke="none" points="8,-539.75 8,-561.75 242,-561.75 242,-539.75 8,-539.75"/>
<polygon fill="none" stroke="black" points="8,-539.75 8,-561.75 242,-561.75 242,-539.75 8,-539.75"/>
<image xlink:href="../../images/foreignKeys.png" width="11px" height="12px" preserveAspectRatio="xMinYMin meet" x="13" y="-556.75"/>
<text text-anchor="start" x="28" y="-546.3" font-family="Helvetica,sans-Serif" font-size="11.00">active_configuration_ftp</text>
<polygon fill="#ffffff" stroke="none" points="8,-517.75 8,-539.75 242,-539.75 242,-517.75 8,-517.75"/>
<polygon fill="none" stroke="black" points="8,-517.75 8,-539.75 242,-539.75 242,-517.75 8,-517.75"/>
<image xlink:href="../../images/foreignKeys.png" width="11px" height="12px" preserveAspectRatio="xMinYMin meet" x="13" y="-534.75"/>
<text text-anchor="start" x="28" y="-524.3" font-family="Helvetica,sans-Serif" font-size="11.00">active_configuration_check</text>
<polygon fill="#ffffff" stroke="none" points="8,-495.75 8,-517.75 242,-517.75 242,-495.75 8,-495.75"/>
<polygon fill="none" stroke="black" points="8,-495.75 8,-517.75 242,-517.75 242,-495.75 8,-495.75"/>
<image xlink:href="../../images/foreignKeys.png" width="11px" height="12px" preserveAspectRatio="xMinYMin meet" x="13" y="-512.75"/>
<text text-anchor="start" x="28" y="-502.3" font-family="Helvetica,sans-Serif" font-size="11.00">role</text>
<polygon fill="#ffffff" stroke="none" points="8,-473.75 8,-495.75 242,-495.75 242,-473.75 8,-473.75"/>
<polygon fill="none" stroke="black" points="8,-473.75 8,-495.75 242,-495.75 242,-473.75 8,-473.75"/>
<image xlink:href="../../images/foreignKeys.png" width="11px" height="12px" preserveAspectRatio="xMinYMin meet" x="13" y="-490.75"/>
<text text-anchor="start" x="28" y="-480.3" font-family="Helvetica,sans-Serif" font-size="11.00">active_configuration_export_ftp</text>
<polygon fill="#ffffff" stroke="none" points="8,-451.75 8,-473.75 242,-473.75 242,-451.75 8,-451.75"/>
<polygon fill="none" stroke="black" points="8,-451.75 8,-473.75 242,-473.75 242,-451.75 8,-451.75"/>
<image xlink:href="../../images/foreignKeys.png" width="11px" height="12px" preserveAspectRatio="xMinYMin meet" x="13" y="-468.75"/>
<text text-anchor="start" x="28" y="-458.3" font-family="Helvetica,sans-Serif" font-size="11.00">active_configuration_ocr_lang</text>
<polygon fill="none" stroke="black" points="8,-432.25 8,-451.75 242,-451.75 242,-432.25 8,-432.25"/>
<text text-anchor="start" x="11" y="-438.3" font-family="Helvetica,sans-Serif" font-size="11.00">...</text>
<polygon fill="#ffffff" stroke="none" points="8,-412.75 8,-432.25 87.75,-432.25 87.75,-412.75 8,-412.75"/>
<polygon fill="none" stroke="black" points="8,-412.75 8,-432.25 87.75,-432.25 87.75,-412.75 8,-412.75"/>
<text text-anchor="start" x="11" y="-418.8" font-family="Helvetica,sans-Serif" font-size="11.00">&lt; 6</text>
<polygon fill="#ffffff" stroke="none" points="87.75,-412.75 87.75,-432.25 155.5,-432.25 155.5,-412.75 87.75,-412.75"/>
<polygon fill="none" stroke="black" points="87.75,-412.75 87.75,-432.25 155.5,-432.25 155.5,-412.75 87.75,-412.75"/>
<text text-anchor="start" x="145" y="-418.8" font-family="Helvetica,sans-Serif" font-size="11.00"> &#160;</text>
<polygon fill="#ffffff" stroke="none" points="155.5,-412.75 155.5,-432.25 242,-432.25 242,-412.75 155.5,-412.75"/>
<polygon fill="none" stroke="black" points="155.5,-412.75 155.5,-432.25 242,-432.25 242,-412.75 155.5,-412.75"/>
<text text-anchor="start" x="212.75" y="-418.8" font-family="Helvetica,sans-Serif" font-size="11.00">27 &gt;</text>
</a>
</g>
</g>
<!-- conf_omeka&#45;&gt;lib_library -->
<g id="edge2" class="edge">
<title>conf_omeka:w&#45;&gt;lib_library:e</title>
<path fill="none" stroke="black" d="M277.32,-516.24C258.36,-534.57 279.56,-594.75 243,-594.75"/>
<polygon fill="black" stroke="black" points="284.15,-513.8 292.89,-514.5 288.23,-512.34 291.37,-511.22 291.37,-511.22 291.37,-511.22 288.23,-512.34 290.48,-507.72 284.15,-513.8"/>
<ellipse fill="none" stroke="black" cx="279.52" cy="-515.45" rx="3.2" ry="3.2"/>
</g>
<!-- lot_lot -->
<g id="node4" class="node">
<title>lot_lot</title>
<g id="a_node4"><a xlink:href="../../tables/lot_lot.html" xlink:title="lot_lot" target="_top">
<polygon fill="#ffffff" stroke="none" points="1082.5,-205.75 1082.5,-620.25 1326.5,-620.25 1326.5,-205.75 1082.5,-205.75"/>
<polygon fill="#f5f5f5" stroke="none" points="1082.5,-596.75 1082.5,-620.25 1326.5,-620.25 1326.5,-596.75 1082.5,-596.75"/>
<polygon fill="none" stroke="black" points="1082.5,-596.75 1082.5,-620.25 1326.5,-620.25 1326.5,-596.75 1082.5,-596.75"/>
<text text-anchor="start" x="1087.38" y="-605.8" font-family="Helvetica,sans-Serif" font-weight="bold" font-size="11.00">lot_lot</text>
<text text-anchor="start" x="1284.75" y="-604.8" font-family="Helvetica,sans-Serif" font-size="11.00">[table]</text>
<polygon fill="none" stroke="black" points="1082.5,-574.75 1082.5,-596.75 1326.5,-596.75 1326.5,-574.75 1082.5,-574.75"/>
<image xlink:href="../../images/primaryKeys.png" width="11px" height="12px" preserveAspectRatio="xMinYMin meet" x="1087.5" y="-591.75"/>
<text text-anchor="start" x="1102.5" y="-581.3" font-family="Helvetica,sans-Serif" font-size="11.00">identifier</text>
<polygon fill="#ffffff" stroke="none" points="1082.5,-552.75 1082.5,-574.75 1326.5,-574.75 1326.5,-552.75 1082.5,-552.75"/>
<polygon fill="none" stroke="black" points="1082.5,-552.75 1082.5,-574.75 1326.5,-574.75 1326.5,-552.75 1082.5,-552.75"/>
<text text-anchor="start" x="1102.5" y="-559.3" font-family="Helvetica,sans-Serif" font-size="11.00">code</text>
<polygon fill="#ffffff" stroke="none" points="1082.5,-530.75 1082.5,-552.75 1326.5,-552.75 1326.5,-530.75 1082.5,-530.75"/>
<polygon fill="none" stroke="black" points="1082.5,-530.75 1082.5,-552.75 1326.5,-552.75 1326.5,-530.75 1082.5,-530.75"/>
<image xlink:href="../../images/foreignKeys.png" width="11px" height="12px" preserveAspectRatio="xMinYMin meet" x="1087.5" y="-547.75"/>
<text text-anchor="start" x="1102.5" y="-537.3" font-family="Helvetica,sans-Serif" font-size="11.00">project</text>
<polygon fill="#ffffff" stroke="none" points="1082.5,-508.75 1082.5,-530.75 1326.5,-530.75 1326.5,-508.75 1082.5,-508.75"/>
<polygon fill="none" stroke="black" points="1082.5,-508.75 1082.5,-530.75 1326.5,-530.75 1326.5,-508.75 1082.5,-508.75"/>
<image xlink:href="../../images/foreignKeys.png" width="11px" height="12px" preserveAspectRatio="xMinYMin meet" x="1087.5" y="-525.75"/>
<text text-anchor="start" x="1102.5" y="-515.3" font-family="Helvetica,sans-Serif" font-size="11.00">active_configuration_ftp</text>
<polygon fill="#ffffff" stroke="none" points="1082.5,-486.75 1082.5,-508.75 1326.5,-508.75 1326.5,-486.75 1082.5,-486.75"/>
<polygon fill="none" stroke="black" points="1082.5,-486.75 1082.5,-508.75 1326.5,-508.75 1326.5,-486.75 1082.5,-486.75"/>
<image xlink:href="../../images/foreignKeys.png" width="11px" height="12px" preserveAspectRatio="xMinYMin meet" x="1087.5" y="-503.75"/>
<text text-anchor="start" x="1102.5" y="-493.3" font-family="Helvetica,sans-Serif" font-size="11.00">active_configuration_check</text>
<polygon fill="#ffffff" stroke="none" points="1082.5,-464.75 1082.5,-486.75 1326.5,-486.75 1326.5,-464.75 1082.5,-464.75"/>
<polygon fill="none" stroke="black" points="1082.5,-464.75 1082.5,-486.75 1326.5,-486.75 1326.5,-464.75 1082.5,-464.75"/>
<image xlink:href="../../images/foreignKeys.png" width="11px" height="12px" preserveAspectRatio="xMinYMin meet" x="1087.5" y="-481.75"/>
<text text-anchor="start" x="1102.5" y="-471.3" font-family="Helvetica,sans-Serif" font-size="11.00">provider</text>
<polygon fill="#ffffff" stroke="none" points="1082.5,-442.75 1082.5,-464.75 1326.5,-464.75 1326.5,-442.75 1082.5,-442.75"/>
<polygon fill="none" stroke="black" points="1082.5,-442.75 1082.5,-464.75 1326.5,-464.75 1326.5,-442.75 1082.5,-442.75"/>
<image xlink:href="../../images/foreignKeys.png" width="11px" height="12px" preserveAspectRatio="xMinYMin meet" x="1087.5" y="-459.75"/>
<text text-anchor="start" x="1102.5" y="-449.3" font-family="Helvetica,sans-Serif" font-size="11.00">collection_omeka</text>
<polygon fill="#ffffff" stroke="none" points="1082.5,-420.75 1082.5,-442.75 1326.5,-442.75 1326.5,-420.75 1082.5,-420.75"/>
<polygon fill="none" stroke="black" points="1082.5,-420.75 1082.5,-442.75 1326.5,-442.75 1326.5,-420.75 1082.5,-420.75"/>
<image xlink:href="../../images/foreignKeys.png" width="11px" height="12px" preserveAspectRatio="xMinYMin meet" x="1087.5" y="-437.75"/>
<text text-anchor="start" x="1102.5" y="-427.3" font-family="Helvetica,sans-Serif" font-size="11.00">items_omeka</text>
<polygon fill="#ffffff" stroke="none" points="1082.5,-398.75 1082.5,-420.75 1326.5,-420.75 1326.5,-398.75 1082.5,-398.75"/>
<polygon fill="none" stroke="black" points="1082.5,-398.75 1082.5,-420.75 1326.5,-420.75 1326.5,-398.75 1082.5,-398.75"/>
<image xlink:href="../../images/foreignKeys.png" width="11px" height="12px" preserveAspectRatio="xMinYMin meet" x="1087.5" y="-415.75"/>
<text text-anchor="start" x="1102.5" y="-405.3" font-family="Helvetica,sans-Serif" font-size="11.00">active_configuration_export_ftp</text>
<polygon fill="#ffffff" stroke="none" points="1082.5,-376.75 1082.5,-398.75 1326.5,-398.75 1326.5,-376.75 1082.5,-376.75"/>
<polygon fill="none" stroke="black" points="1082.5,-376.75 1082.5,-398.75 1326.5,-398.75 1326.5,-376.75 1082.5,-376.75"/>
<image xlink:href="../../images/foreignKeys.png" width="11px" height="12px" preserveAspectRatio="xMinYMin meet" x="1087.5" y="-393.75"/>
<text text-anchor="start" x="1102.5" y="-383.3" font-family="Helvetica,sans-Serif" font-size="11.00">active_ocr_lang</text>
<polygon fill="#ffffff" stroke="none" points="1082.5,-354.75 1082.5,-376.75 1326.5,-376.75 1326.5,-354.75 1082.5,-354.75"/>
<polygon fill="none" stroke="black" points="1082.5,-354.75 1082.5,-376.75 1326.5,-376.75 1326.5,-354.75 1082.5,-354.75"/>
<image xlink:href="../../images/foreignKeys.png" width="11px" height="12px" preserveAspectRatio="xMinYMin meet" x="1087.5" y="-371.75"/>
<text text-anchor="start" x="1102.5" y="-361.3" font-family="Helvetica,sans-Serif" font-size="11.00">collection_ia</text>
<polygon fill="#ffffff" stroke="none" points="1082.5,-332.75 1082.5,-354.75 1326.5,-354.75 1326.5,-332.75 1082.5,-332.75"/>
<polygon fill="none" stroke="black" points="1082.5,-332.75 1082.5,-354.75 1326.5,-354.75 1326.5,-332.75 1082.5,-332.75"/>
<image xlink:href="../../images/foreignKeys.png" width="11px" height="12px" preserveAspectRatio="xMinYMin meet" x="1087.5" y="-349.75"/>
<text text-anchor="start" x="1102.5" y="-339.3" font-family="Helvetica,sans-Serif" font-size="11.00">classement_pac</text>
<polygon fill="#ffffff" stroke="none" points="1082.5,-310.75 1082.5,-332.75 1326.5,-332.75 1326.5,-310.75 1082.5,-310.75"/>
<polygon fill="none" stroke="black" points="1082.5,-310.75 1082.5,-332.75 1326.5,-332.75 1326.5,-310.75 1082.5,-310.75"/>
<image xlink:href="../../images/foreignKeys.png" width="11px" height="12px" preserveAspectRatio="xMinYMin meet" x="1087.5" y="-327.75"/>
<text text-anchor="start" x="1102.5" y="-317.3" font-family="Helvetica,sans-Serif" font-size="11.00">workflow_model</text>
<polygon fill="#ffffff" stroke="none" points="1082.5,-288.75 1082.5,-310.75 1326.5,-310.75 1326.5,-288.75 1082.5,-288.75"/>
<polygon fill="none" stroke="black" points="1082.5,-288.75 1082.5,-310.75 1326.5,-310.75 1326.5,-288.75 1082.5,-288.75"/>
<image xlink:href="../../images/foreignKeys.png" width="11px" height="12px" preserveAspectRatio="xMinYMin meet" x="1087.5" y="-305.75"/>
<text text-anchor="start" x="1102.5" y="-295.3" font-family="Helvetica,sans-Serif" font-size="11.00">active_format_configuration</text>
<polygon fill="#ffffff" stroke="none" points="1082.5,-266.75 1082.5,-288.75 1326.5,-288.75 1326.5,-266.75 1082.5,-266.75"/>
<polygon fill="none" stroke="black" points="1082.5,-266.75 1082.5,-288.75 1326.5,-288.75 1326.5,-266.75 1082.5,-266.75"/>
<image xlink:href="../../images/foreignKeys.png" width="11px" height="12px" preserveAspectRatio="xMinYMin meet" x="1087.5" y="-283.75"/>
<text text-anchor="start" x="1102.5" y="-273.3" font-family="Helvetica,sans-Serif" font-size="11.00">omeka_configuration</text>
<polygon fill="#ffffff" stroke="none" points="1082.5,-244.75 1082.5,-266.75 1326.5,-266.75 1326.5,-244.75 1082.5,-244.75"/>
<polygon fill="none" stroke="black" points="1082.5,-244.75 1082.5,-266.75 1326.5,-266.75 1326.5,-244.75 1082.5,-244.75"/>
<image xlink:href="../../images/foreignKeys.png" width="11px" height="12px" preserveAspectRatio="xMinYMin meet" x="1087.5" y="-261.75"/>
<text text-anchor="start" x="1102.5" y="-251.3" font-family="Helvetica,sans-Serif" font-size="11.00">active_export_ftp_delivery_folder</text>
<polygon fill="none" stroke="black" points="1082.5,-225.25 1082.5,-244.75 1326.5,-244.75 1326.5,-225.25 1082.5,-225.25"/>
<text text-anchor="start" x="1085.5" y="-231.3" font-family="Helvetica,sans-Serif" font-size="11.00">...</text>
<polygon fill="#ffffff" stroke="none" points="1082.5,-205.75 1082.5,-225.25 1172.33,-225.25 1172.33,-205.75 1082.5,-205.75"/>
<polygon fill="none" stroke="black" points="1082.5,-205.75 1082.5,-225.25 1172.33,-225.25 1172.33,-205.75 1082.5,-205.75"/>
<text text-anchor="start" x="1085.5" y="-211.8" font-family="Helvetica,sans-Serif" font-size="11.00">&lt; 14</text>
<polygon fill="#ffffff" stroke="none" points="1172.33,-205.75 1172.33,-225.25 1243.42,-225.25 1243.42,-205.75 1172.33,-205.75"/>
<polygon fill="none" stroke="black" points="1172.33,-205.75 1172.33,-225.25 1243.42,-225.25 1243.42,-205.75 1172.33,-205.75"/>
<text text-anchor="start" x="1232.92" y="-211.8" font-family="Helvetica,sans-Serif" font-size="11.00"> &#160;</text>
<polygon fill="#ffffff" stroke="none" points="1243.42,-205.75 1243.42,-225.25 1326.5,-225.25 1326.5,-205.75 1243.42,-205.75"/>
<polygon fill="none" stroke="black" points="1243.42,-205.75 1243.42,-225.25 1326.5,-225.25 1326.5,-205.75 1243.42,-205.75"/>
<text text-anchor="start" x="1304" y="-211.8" font-family="Helvetica,sans-Serif" font-size="11.00">4 &gt;</text>
</a>
</g>
</g>
<!-- lot_lot&#45;&gt;conf_lists_omeka -->
<g id="edge3" class="edge">
<title>lot_lot:w&#45;&gt;conf_lists_omeka:e</title>
<path fill="none" stroke="black" d="M1066.31,-449.62C1058.92,-445 1054.08,-437.8 1041.5,-435 985.1,-422.44 826.6,-398.88 781.5,-435 717.96,-485.89 822.91,-613.75 741.5,-613.75"/>
<polygon fill="black" stroke="black" points="1073.46,-451.56 1080.23,-457.14 1077.64,-452.7 1080.85,-453.57 1080.85,-453.57 1080.85,-453.57 1077.64,-452.7 1082.12,-450.19 1073.46,-451.56"/>
<ellipse fill="none" stroke="black" cx="1068.71" cy="-450.27" rx="3.2" ry="3.2"/>
</g>
<!-- lot_lot&#45;&gt;conf_lists_omeka -->
<g id="edge4" class="edge">
<title>lot_lot:w&#45;&gt;conf_lists_omeka:e</title>
<path fill="none" stroke="black" d="M1066.31,-427.62C1058.92,-423 1054.08,-415.8 1041.5,-413 928.71,-387.88 870.84,-339.71 781.5,-413 711.17,-470.7 832.48,-613.75 741.5,-613.75"/>
<polygon fill="black" stroke="black" points="1073.46,-429.56 1080.23,-435.14 1077.64,-430.7 1080.85,-431.57 1080.85,-431.57 1080.85,-431.57 1077.64,-430.7 1082.12,-428.19 1073.46,-429.56"/>
<ellipse fill="none" stroke="black" cx="1068.71" cy="-428.27" rx="3.2" ry="3.2"/>
</g>
<!-- lot_lot&#45;&gt;conf_omeka -->
<g id="edge5" class="edge">
<title>lot_lot:w&#45;&gt;conf_omeka:e</title>
<path fill="none" stroke="black" d="M1065.99,-277.89C939.12,-280.31 902.73,-313.19 781.5,-371 680.33,-419.24 657.57,-438.92 571.75,-511 551.05,-528.39 556.78,-555 529.75,-555"/>
<polygon fill="black" stroke="black" points="1073.17,-277.83 1081.2,-281.35 1077.5,-277.79 1080.83,-277.76 1080.83,-277.76 1080.83,-277.76 1077.5,-277.79 1081.13,-274.15 1073.17,-277.83"/>
<ellipse fill="none" stroke="black" cx="1068.25" cy="-277.87" rx="3.2" ry="3.2"/>
</g>
<!-- proj_project -->
<g id="node5" class="node">
<title>proj_project</title>
<g id="a_node5"><a xlink:href="../../tables/proj_project.html" xlink:title="proj_project" target="_top">
<polygon fill="#ffffff" stroke="none" points="789.5,-445.75 789.5,-816.25 1033.5,-816.25 1033.5,-445.75 789.5,-445.75"/>
<polygon fill="#f5f5f5" stroke="none" points="789.5,-792.75 789.5,-816.25 1033.5,-816.25 1033.5,-792.75 789.5,-792.75"/>
<polygon fill="none" stroke="black" points="789.5,-792.75 789.5,-816.25 1033.5,-816.25 1033.5,-792.75 789.5,-792.75"/>
<text text-anchor="start" x="794.5" y="-801.8" font-family="Helvetica,sans-Serif" font-weight="bold" font-size="11.00">proj_project</text>
<text text-anchor="start" x="991.75" y="-800.8" font-family="Helvetica,sans-Serif" font-size="11.00">[table]</text>
<polygon fill="none" stroke="black" points="789.5,-770.75 789.5,-792.75 1033.5,-792.75 1033.5,-770.75 789.5,-770.75"/>
<image xlink:href="../../images/primaryKeys.png" width="11px" height="12px" preserveAspectRatio="xMinYMin meet" x="794.5" y="-787.75"/>
<text text-anchor="start" x="809.5" y="-777.3" font-family="Helvetica,sans-Serif" font-size="11.00">identifier</text>
<polygon fill="#ffffff" stroke="none" points="789.5,-748.75 789.5,-770.75 1033.5,-770.75 1033.5,-748.75 789.5,-748.75"/>
<polygon fill="none" stroke="black" points="789.5,-748.75 789.5,-770.75 1033.5,-770.75 1033.5,-748.75 789.5,-748.75"/>
<image xlink:href="../../images/foreignKeys.png" width="11px" height="12px" preserveAspectRatio="xMinYMin meet" x="794.5" y="-765.75"/>
<text text-anchor="start" x="809.5" y="-755.3" font-family="Helvetica,sans-Serif" font-size="11.00">library</text>
<polygon fill="#ffffff" stroke="none" points="789.5,-726.75 789.5,-748.75 1033.5,-748.75 1033.5,-726.75 789.5,-726.75"/>
<polygon fill="none" stroke="black" points="789.5,-726.75 789.5,-748.75 1033.5,-748.75 1033.5,-726.75 789.5,-726.75"/>
<image xlink:href="../../images/foreignKeys.png" width="11px" height="12px" preserveAspectRatio="xMinYMin meet" x="794.5" y="-743.75"/>
<text text-anchor="start" x="809.5" y="-733.3" font-family="Helvetica,sans-Serif" font-size="11.00">active_configuration_ftp</text>
<polygon fill="#ffffff" stroke="none" points="789.5,-704.75 789.5,-726.75 1033.5,-726.75 1033.5,-704.75 789.5,-704.75"/>
<polygon fill="none" stroke="black" points="789.5,-704.75 789.5,-726.75 1033.5,-726.75 1033.5,-704.75 789.5,-704.75"/>
<image xlink:href="../../images/foreignKeys.png" width="11px" height="12px" preserveAspectRatio="xMinYMin meet" x="794.5" y="-721.75"/>
<text text-anchor="start" x="809.5" y="-711.3" font-family="Helvetica,sans-Serif" font-size="11.00">active_configuration_check</text>
<polygon fill="#ffffff" stroke="none" points="789.5,-682.75 789.5,-704.75 1033.5,-704.75 1033.5,-682.75 789.5,-682.75"/>
<polygon fill="none" stroke="black" points="789.5,-682.75 789.5,-704.75 1033.5,-704.75 1033.5,-682.75 789.5,-682.75"/>
<image xlink:href="../../images/foreignKeys.png" width="11px" height="12px" preserveAspectRatio="xMinYMin meet" x="794.5" y="-699.75"/>
<text text-anchor="start" x="809.5" y="-689.3" font-family="Helvetica,sans-Serif" font-size="11.00">provider</text>
<polygon fill="#ffffff" stroke="none" points="789.5,-660.75 789.5,-682.75 1033.5,-682.75 1033.5,-660.75 789.5,-660.75"/>
<polygon fill="none" stroke="black" points="789.5,-660.75 789.5,-682.75 1033.5,-682.75 1033.5,-660.75 789.5,-660.75"/>
<image xlink:href="../../images/foreignKeys.png" width="11px" height="12px" preserveAspectRatio="xMinYMin meet" x="794.5" y="-677.75"/>
<text text-anchor="start" x="809.5" y="-667.3" font-family="Helvetica,sans-Serif" font-size="11.00">collection_omeka</text>
<polygon fill="#ffffff" stroke="none" points="789.5,-638.75 789.5,-660.75 1033.5,-660.75 1033.5,-638.75 789.5,-638.75"/>
<polygon fill="none" stroke="black" points="789.5,-638.75 789.5,-660.75 1033.5,-660.75 1033.5,-638.75 789.5,-638.75"/>
<image xlink:href="../../images/foreignKeys.png" width="11px" height="12px" preserveAspectRatio="xMinYMin meet" x="794.5" y="-655.75"/>
<text text-anchor="start" x="809.5" y="-645.3" font-family="Helvetica,sans-Serif" font-size="11.00">items_omeka</text>
<polygon fill="#ffffff" stroke="none" points="789.5,-616.75 789.5,-638.75 1033.5,-638.75 1033.5,-616.75 789.5,-616.75"/>
<polygon fill="none" stroke="black" points="789.5,-616.75 789.5,-638.75 1033.5,-638.75 1033.5,-616.75 789.5,-616.75"/>
<image xlink:href="../../images/foreignKeys.png" width="11px" height="12px" preserveAspectRatio="xMinYMin meet" x="794.5" y="-633.75"/>
<text text-anchor="start" x="809.5" y="-623.3" font-family="Helvetica,sans-Serif" font-size="11.00">active_configuration_export_ftp</text>
<polygon fill="#ffffff" stroke="none" points="789.5,-594.75 789.5,-616.75 1033.5,-616.75 1033.5,-594.75 789.5,-594.75"/>
<polygon fill="none" stroke="black" points="789.5,-594.75 789.5,-616.75 1033.5,-616.75 1033.5,-594.75 789.5,-594.75"/>
<image xlink:href="../../images/foreignKeys.png" width="11px" height="12px" preserveAspectRatio="xMinYMin meet" x="794.5" y="-611.75"/>
<text text-anchor="start" x="809.5" y="-601.3" font-family="Helvetica,sans-Serif" font-size="11.00">collection_ia</text>
<polygon fill="#ffffff" stroke="none" points="789.5,-572.75 789.5,-594.75 1033.5,-594.75 1033.5,-572.75 789.5,-572.75"/>
<polygon fill="none" stroke="black" points="789.5,-572.75 789.5,-594.75 1033.5,-594.75 1033.5,-572.75 789.5,-572.75"/>
<image xlink:href="../../images/foreignKeys.png" width="11px" height="12px" preserveAspectRatio="xMinYMin meet" x="794.5" y="-589.75"/>
<text text-anchor="start" x="809.5" y="-579.3" font-family="Helvetica,sans-Serif" font-size="11.00">classement_pac</text>
<polygon fill="#ffffff" stroke="none" points="789.5,-550.75 789.5,-572.75 1033.5,-572.75 1033.5,-550.75 789.5,-550.75"/>
<polygon fill="none" stroke="black" points="789.5,-550.75 789.5,-572.75 1033.5,-572.75 1033.5,-550.75 789.5,-550.75"/>
<image xlink:href="../../images/foreignKeys.png" width="11px" height="12px" preserveAspectRatio="xMinYMin meet" x="794.5" y="-567.75"/>
<text text-anchor="start" x="809.5" y="-557.3" font-family="Helvetica,sans-Serif" font-size="11.00">workflow_model</text>
<polygon fill="#ffffff" stroke="none" points="789.5,-528.75 789.5,-550.75 1033.5,-550.75 1033.5,-528.75 789.5,-528.75"/>
<polygon fill="none" stroke="black" points="789.5,-528.75 789.5,-550.75 1033.5,-550.75 1033.5,-528.75 789.5,-528.75"/>
<image xlink:href="../../images/foreignKeys.png" width="11px" height="12px" preserveAspectRatio="xMinYMin meet" x="794.5" y="-545.75"/>
<text text-anchor="start" x="809.5" y="-535.3" font-family="Helvetica,sans-Serif" font-size="11.00">active_format_configuration</text>
<polygon fill="#ffffff" stroke="none" points="789.5,-506.75 789.5,-528.75 1033.5,-528.75 1033.5,-506.75 789.5,-506.75"/>
<polygon fill="none" stroke="black" points="789.5,-506.75 789.5,-528.75 1033.5,-528.75 1033.5,-506.75 789.5,-506.75"/>
<image xlink:href="../../images/foreignKeys.png" width="11px" height="12px" preserveAspectRatio="xMinYMin meet" x="794.5" y="-523.75"/>
<text text-anchor="start" x="809.5" y="-513.3" font-family="Helvetica,sans-Serif" font-size="11.00">omeka_configuration</text>
<polygon fill="#ffffff" stroke="none" points="789.5,-484.75 789.5,-506.75 1033.5,-506.75 1033.5,-484.75 789.5,-484.75"/>
<polygon fill="none" stroke="black" points="789.5,-484.75 789.5,-506.75 1033.5,-506.75 1033.5,-484.75 789.5,-484.75"/>
<image xlink:href="../../images/foreignKeys.png" width="11px" height="12px" preserveAspectRatio="xMinYMin meet" x="794.5" y="-501.75"/>
<text text-anchor="start" x="809.5" y="-491.3" font-family="Helvetica,sans-Serif" font-size="11.00">active_export_ftp_delivery_folder</text>
<polygon fill="none" stroke="black" points="789.5,-465.25 789.5,-484.75 1033.5,-484.75 1033.5,-465.25 789.5,-465.25"/>
<text text-anchor="start" x="792.5" y="-471.3" font-family="Helvetica,sans-Serif" font-size="11.00">...</text>
<polygon fill="#ffffff" stroke="none" points="789.5,-445.75 789.5,-465.25 879.33,-465.25 879.33,-445.75 789.5,-445.75"/>
<polygon fill="none" stroke="black" points="789.5,-445.75 789.5,-465.25 879.33,-465.25 879.33,-445.75 789.5,-445.75"/>
<text text-anchor="start" x="792.5" y="-451.8" font-family="Helvetica,sans-Serif" font-size="11.00">&lt; 13</text>
<polygon fill="#ffffff" stroke="none" points="879.33,-445.75 879.33,-465.25 950.42,-465.25 950.42,-445.75 879.33,-445.75"/>
<polygon fill="none" stroke="black" points="879.33,-445.75 879.33,-465.25 950.42,-465.25 950.42,-445.75 879.33,-445.75"/>
<text text-anchor="start" x="939.92" y="-451.8" font-family="Helvetica,sans-Serif" font-size="11.00"> &#160;</text>
<polygon fill="#ffffff" stroke="none" points="950.42,-445.75 950.42,-465.25 1033.5,-465.25 1033.5,-445.75 950.42,-445.75"/>
<polygon fill="none" stroke="black" points="950.42,-445.75 950.42,-465.25 1033.5,-465.25 1033.5,-445.75 950.42,-445.75"/>
<text text-anchor="start" x="1011" y="-451.8" font-family="Helvetica,sans-Serif" font-size="11.00">7 &gt;</text>
</a>
</g>
</g>
<!-- lot_lot&#45;&gt;proj_project -->
<g id="edge6" class="edge">
<title>lot_lot:w&#45;&gt;proj_project:e</title>
<path fill="none" stroke="black" d="M1066.08,-543.82C990.61,-567.28 1137.25,-781.75 1034.5,-781.75"/>
<polygon fill="black" stroke="black" points="1073.24,-542.86 1081.65,-545.36 1077.54,-542.28 1080.84,-541.84 1080.84,-541.84 1080.84,-541.84 1077.54,-542.28 1080.69,-538.23 1073.24,-542.86"/>
<ellipse fill="none" stroke="black" cx="1068.37" cy="-543.52" rx="3.2" ry="3.2"/>
</g>
<!-- proj_project&#45;&gt;conf_lists_omeka -->
<g id="edge7" class="edge">
<title>proj_project:w&#45;&gt;conf_lists_omeka:e</title>
<path fill="none" stroke="black" d="M774.29,-665.98C760.88,-651.31 768.2,-613.75 741.5,-613.75"/>
<polygon fill="black" stroke="black" points="780.78,-668.61 786.84,-674.96 784.79,-670.24 787.88,-671.5 787.88,-671.5 787.88,-671.5 784.79,-670.24 789.55,-668.29 780.78,-668.61"/>
<ellipse fill="none" stroke="black" cx="776.22" cy="-666.76" rx="3.2" ry="3.2"/>
</g>
<!-- proj_project&#45;&gt;conf_lists_omeka -->
<g id="edge8" class="edge">
<title>proj_project:w&#45;&gt;conf_lists_omeka:e</title>
<path fill="none" stroke="black" d="M773.76,-644.12C763,-634 761.23,-613.75 741.5,-613.75"/>
<polygon fill="black" stroke="black" points="780.71,-646.78 786.9,-652.99 784.76,-648.32 787.87,-649.51 787.87,-649.51 787.87,-649.51 784.76,-648.32 789.47,-646.27 780.71,-646.78"/>
<ellipse fill="none" stroke="black" cx="776.12" cy="-645.03" rx="3.2" ry="3.2"/>
</g>
<!-- proj_project&#45;&gt;conf_omeka -->
<g id="edge10" class="edge">
<title>proj_project:w&#45;&gt;conf_omeka:e</title>
<path fill="none" stroke="black" d="M772.74,-517.62C688.63,-516.26 658.99,-504.96 571.75,-531 551.15,-537.15 551.25,-555 529.75,-555"/>
<polygon fill="black" stroke="black" points="780.17,-517.68 788.14,-521.35 784.5,-517.72 787.83,-517.74 787.83,-517.74 787.83,-517.74 784.5,-517.72 788.19,-514.15 780.17,-517.68"/>
<ellipse fill="none" stroke="black" cx="775.25" cy="-517.64" rx="3.2" ry="3.2"/>
</g>
<!-- proj_project&#45;&gt;lib_library -->
<g id="edge9" class="edge">
<title>proj_project:w&#45;&gt;lib_library:e</title>
<path fill="none" stroke="black" d="M772.94,-757.95C674.98,-740.07 302.43,-594.75 243,-594.75"/>
<polygon fill="black" stroke="black" points="780.22,-758.79 787.75,-763.29 784.53,-759.29 787.84,-759.67 787.84,-759.67 787.84,-759.67 784.53,-759.29 788.58,-756.14 780.22,-758.79"/>
<ellipse fill="none" stroke="black" cx="775.33" cy="-758.23" rx="3.2" ry="3.2"/>
</g>
</g>
</svg>
