<?xml version="1.0" encoding="UTF-8" standalone="no"?>
<!DOCTYPE svg PUBLIC "-//W3C//DTD SVG 1.1//EN"
 "http://www.w3.org/Graphics/SVG/1.1/DTD/svg11.dtd">
<!-- Generated by graphviz version 12.2.0 (0)
 -->
<!-- Title: oneDegreeRelationshipsDiagram Pages: 1 -->
<svg width="811pt" height="381pt"
 viewBox="0.00 0.00 811.00 381.25" xmlns="http://www.w3.org/2000/svg" xmlns:xlink="http://www.w3.org/1999/xlink">
<g id="graph0" class="graph" transform="scale(1 1) rotate(0) translate(4 377.25)">
<title>oneDegreeRelationshipsDiagram</title>
<polygon fill="#ffffff" stroke="none" points="-4,4 -4,-377.25 807,-377.25 807,4 -4,4"/>
<text text-anchor="middle" x="79.25" y="-7.05" font-family="Helvetica,sans-Serif" font-size="11.00">Generated by SchemaSpy</text>
<!-- conf_collection_ia -->
<g id="node1" class="node">
<title>conf_collection_ia</title>
<g id="a_node1"><a xlink:href="../../tables/conf_collection_ia.html" xlink:title="conf_collection_ia" target="_top">
<polygon fill="#ffffff" stroke="none" points="630.25,-240.75 630.25,-369.25 795,-369.25 795,-240.75 630.25,-240.75"/>
<polygon fill="#f5f5f5" stroke="none" points="630.25,-345.75 630.25,-369.25 795,-369.25 795,-345.75 630.25,-345.75"/>
<polygon fill="none" stroke="black" points="630.25,-345.75 630.25,-369.25 795,-369.25 795,-345.75 630.25,-345.75"/>
<text text-anchor="start" x="635.25" y="-354.8" font-family="Helvetica,sans-Serif" font-weight="bold" font-size="11.00">conf_collection_ia</text>
<text text-anchor="start" x="753.25" y="-353.8" font-family="Helvetica,sans-Serif" font-size="11.00">[table]</text>
<polygon fill="none" stroke="black" points="630.25,-323.75 630.25,-345.75 795,-345.75 795,-323.75 630.25,-323.75"/>
<image xlink:href="../../images/primaryKeys.png" width="11px" height="12px" preserveAspectRatio="xMinYMin meet" x="635.25" y="-340.75"/>
<text text-anchor="start" x="658.62" y="-330.3" font-family="Helvetica,sans-Serif" font-size="11.00">identifier</text>
<polygon fill="#ffffff" stroke="none" points="630.25,-301.75 630.25,-323.75 795,-323.75 795,-301.75 630.25,-301.75"/>
<polygon fill="none" stroke="black" points="630.25,-301.75 630.25,-323.75 795,-323.75 795,-301.75 630.25,-301.75"/>
<text text-anchor="start" x="658.62" y="-308.3" font-family="Helvetica,sans-Serif" font-size="11.00">name</text>
<polygon fill="#ffffff" stroke="none" points="630.25,-279.75 630.25,-301.75 795,-301.75 795,-279.75 630.25,-279.75"/>
<polygon fill="none" stroke="black" points="630.25,-279.75 630.25,-301.75 795,-301.75 795,-279.75 630.25,-279.75"/>
<image xlink:href="../../images/foreignKeys.png" width="11px" height="12px" preserveAspectRatio="xMinYMin meet" x="635.25" y="-296.75"/>
<text text-anchor="start" x="658.62" y="-286.3" font-family="Helvetica,sans-Serif" font-size="11.00">conf_ia</text>
<polygon fill="none" stroke="black" points="630.25,-260.25 630.25,-279.75 795,-279.75 795,-260.25 630.25,-260.25"/>
<text text-anchor="start" x="633.25" y="-266.3" font-family="Helvetica,sans-Serif" font-size="11.00">...</text>
<polygon fill="#ffffff" stroke="none" points="630.25,-240.75 630.25,-260.25 689.17,-260.25 689.17,-240.75 630.25,-240.75"/>
<polygon fill="none" stroke="black" points="630.25,-240.75 630.25,-260.25 689.17,-260.25 689.17,-240.75 630.25,-240.75"/>
<text text-anchor="start" x="633.25" y="-246.8" font-family="Helvetica,sans-Serif" font-size="11.00">&lt; 1</text>
<polygon fill="#ffffff" stroke="none" points="689.17,-240.75 689.17,-260.25 736.08,-260.25 736.08,-240.75 689.17,-240.75"/>
<polygon fill="none" stroke="black" points="689.17,-240.75 689.17,-260.25 736.08,-260.25 736.08,-240.75 689.17,-240.75"/>
<text text-anchor="start" x="725.58" y="-246.8" font-family="Helvetica,sans-Serif" font-size="11.00"> &#160;</text>
<polygon fill="#ffffff" stroke="none" points="736.08,-240.75 736.08,-260.25 795,-260.25 795,-240.75 736.08,-240.75"/>
<polygon fill="none" stroke="black" points="736.08,-240.75 736.08,-260.25 795,-260.25 795,-240.75 736.08,-240.75"/>
<text text-anchor="start" x="772.5" y="-246.8" font-family="Helvetica,sans-Serif" font-size="11.00">3 &gt;</text>
</a>
</g>
</g>
<!-- conf_internet_archive -->
<g id="node2" class="node">
<title>conf_internet_archive</title>
<g id="a_node2"><a xlink:href="../../tables/conf_internet_archive.html" xlink:title="conf_internet_archive" target="_top">
<polygon fill="#ffffff" stroke="none" points="291,-38.5 291,-327.5 581.25,-327.5 581.25,-38.5 291,-38.5"/>
<polygon fill="#f5f5f5" stroke="none" points="293,-302 293,-325.5 579.25,-325.5 579.25,-302 293,-302"/>
<polygon fill="none" stroke="black" points="293,-302 293,-325.5 579.25,-325.5 579.25,-302 293,-302"/>
<text text-anchor="start" x="298" y="-311.05" font-family="Helvetica,sans-Serif" font-weight="bold" font-size="11.00">conf_internet_archive</text>
<text text-anchor="start" x="537.5" y="-310.05" font-family="Helvetica,sans-Serif" font-size="11.00">[table]</text>
<polygon fill="none" stroke="black" points="293,-280 293,-302 459,-302 459,-280 293,-280"/>
<image xlink:href="../../images/primaryKeys.png" width="11px" height="12px" preserveAspectRatio="xMinYMin meet" x="298" y="-297"/>
<text text-anchor="start" x="313" y="-286.55" font-family="Helvetica,sans-Serif" font-size="11.00">identifier</text>
<polygon fill="none" stroke="black" points="459,-280 459,-302 563,-302 563,-280 459,-280"/>
<text text-anchor="start" x="462" y="-287.3" font-family="Helvetica,sans-Serif" font-size="11.00">varchar[191]</text>
<polygon fill="none" stroke="black" points="293,-258 293,-280 459,-280 459,-258 293,-258"/>
<text text-anchor="start" x="313" y="-264.55" font-family="Helvetica,sans-Serif" font-size="11.00">label</text>
<polygon fill="none" stroke="black" points="459,-258 459,-280 563,-280 563,-258 459,-258"/>
<text text-anchor="start" x="462" y="-265.3" font-family="Helvetica,sans-Serif" font-size="11.00">varchar[255]</text>
<polygon fill="#ffffff" stroke="none" points="293,-236 293,-258 459,-258 459,-236 293,-236"/>
<polygon fill="none" stroke="black" points="293,-236 293,-258 459,-258 459,-236 293,-236"/>
<image xlink:href="../../images/foreignKeys.png" width="11px" height="12px" preserveAspectRatio="xMinYMin meet" x="298" y="-253"/>
<text text-anchor="start" x="313" y="-242.55" font-family="Helvetica,sans-Serif" font-size="11.00">library</text>
<polygon fill="none" stroke="black" points="459,-236 459,-258 563,-258 563,-236 459,-236"/>
<text text-anchor="start" x="462" y="-243.3" font-family="Helvetica,sans-Serif" font-size="11.00">varchar[191]</text>
<polygon fill="none" stroke="black" points="293,-214 293,-236 459,-236 459,-214 293,-214"/>
<text text-anchor="start" x="313" y="-220.55" font-family="Helvetica,sans-Serif" font-size="11.00">access_key</text>
<polygon fill="none" stroke="black" points="459,-214 459,-236 563,-236 563,-214 459,-214"/>
<text text-anchor="start" x="462" y="-221.3" font-family="Helvetica,sans-Serif" font-size="11.00">varchar[255]</text>
<polygon fill="none" stroke="black" points="293,-192 293,-214 459,-214 459,-192 293,-192"/>
<text text-anchor="start" x="313" y="-198.55" font-family="Helvetica,sans-Serif" font-size="11.00">secret_key</text>
<polygon fill="none" stroke="black" points="459,-192 459,-214 563,-214 563,-192 459,-192"/>
<text text-anchor="start" x="462" y="-199.3" font-family="Helvetica,sans-Serif" font-size="11.00">varchar[255]</text>
<polygon fill="none" stroke="black" points="293,-170 293,-192 459,-192 459,-170 293,-170"/>
<text text-anchor="start" x="313" y="-176.55" font-family="Helvetica,sans-Serif" font-size="11.00">active</text>
<polygon fill="none" stroke="black" points="459,-170 459,-192 563,-192 563,-170 459,-170"/>
<text text-anchor="start" x="462" y="-177.3" font-family="Helvetica,sans-Serif" font-size="11.00">bit[1]</text>
<polygon fill="none" stroke="black" points="293,-148 293,-170 459,-170 459,-148 293,-148"/>
<text text-anchor="start" x="313" y="-154.55" font-family="Helvetica,sans-Serif" font-size="11.00">version</text>
<polygon fill="none" stroke="black" points="459,-148 459,-170 563,-170 563,-148 459,-148"/>
<text text-anchor="start" x="462" y="-155.3" font-family="Helvetica,sans-Serif" font-size="11.00">bigint[19]</text>
<polygon fill="none" stroke="black" points="293,-126 293,-148 459,-148 459,-126 293,-126"/>
<text text-anchor="start" x="313" y="-132.55" font-family="Helvetica,sans-Serif" font-size="11.00">created_by</text>
<polygon fill="none" stroke="black" points="459,-126 459,-148 563,-148 563,-126 459,-126"/>
<text text-anchor="start" x="462" y="-133.3" font-family="Helvetica,sans-Serif" font-size="11.00">varchar[255]</text>
<polygon fill="none" stroke="black" points="293,-104 293,-126 459,-126 459,-104 293,-104"/>
<text text-anchor="start" x="313" y="-110.55" font-family="Helvetica,sans-Serif" font-size="11.00">last_modified_by</text>
<polygon fill="none" stroke="black" points="459,-104 459,-126 563,-126 563,-104 459,-104"/>
<text text-anchor="start" x="462" y="-111.3" font-family="Helvetica,sans-Serif" font-size="11.00">varchar[255]</text>
<polygon fill="none" stroke="black" points="293,-82 293,-104 459,-104 459,-82 293,-82"/>
<text text-anchor="start" x="313" y="-88.55" font-family="Helvetica,sans-Serif" font-size="11.00">created_date</text>
<polygon fill="none" stroke="black" points="459,-82 459,-104 563,-104 563,-82 459,-82"/>
<text text-anchor="start" x="462" y="-89.3" font-family="Helvetica,sans-Serif" font-size="11.00">timestamp[19]</text>
<polygon fill="none" stroke="black" points="293,-60 293,-82 459,-82 459,-60 293,-60"/>
<text text-anchor="start" x="313" y="-66.55" font-family="Helvetica,sans-Serif" font-size="11.00">last_modified_date</text>
<polygon fill="none" stroke="black" points="459,-60 459,-82 563,-82 563,-60 459,-60"/>
<text text-anchor="start" x="462" y="-67.3" font-family="Helvetica,sans-Serif" font-size="11.00">timestamp[19]</text>
<polygon fill="#ffffff" stroke="none" points="293,-40.5 293,-60 382,-60 382,-40.5 293,-40.5"/>
<polygon fill="none" stroke="black" points="293,-40.5 293,-60 382,-60 382,-40.5 293,-40.5"/>
<text text-anchor="start" x="296" y="-46.55" font-family="Helvetica,sans-Serif" font-size="11.00">&lt; 1</text>
<polygon fill="#ffffff" stroke="none" points="382,-40.5 382,-60 459,-60 459,-40.5 382,-40.5"/>
<polygon fill="none" stroke="black" points="382,-40.5 382,-60 459,-60 459,-40.5 382,-40.5"/>
<text text-anchor="start" x="448.5" y="-46.55" font-family="Helvetica,sans-Serif" font-size="11.00"> &#160;</text>
<polygon fill="#ffffff" stroke="none" points="459,-40.5 459,-60 563,-60 563,-40.5 459,-40.5"/>
<polygon fill="none" stroke="black" points="459,-40.5 459,-60 563,-60 563,-40.5 459,-40.5"/>
<text text-anchor="start" x="540.5" y="-46.55" font-family="Helvetica,sans-Serif" font-size="11.00">1 &gt;</text>
<polygon fill="none" stroke="black" stroke-width="2" points="292,-39.5 292,-326.5 580.25,-326.5 580.25,-39.5 292,-39.5"/>
</a>
</g>
</g>
<!-- conf_collection_ia&#45;&gt;conf_internet_archive -->
<g id="edge1" class="edge">
<title>conf_collection_ia:w&#45;&gt;conf_internet_archive:e</title>
<path fill="none" stroke="black" d="M613.65,-290.78C596.32,-290.84 587,-291 564,-291"/>
<polygon fill="black" stroke="black" points="620.92,-290.76 628.92,-294.35 625.25,-290.76 628.58,-290.75 628.58,-290.75 628.58,-290.75 625.25,-290.76 628.91,-287.15 620.92,-290.76"/>
<ellipse fill="none" stroke="black" cx="616" cy="-290.77" rx="3.2" ry="3.2"/>
</g>
<!-- lib_library -->
<g id="node3" class="node">
<title>lib_library</title>
<g id="a_node3"><a xlink:href="../../tables/lib_library.html" xlink:title="lib_library" target="_top">
<polygon fill="#ffffff" stroke="none" points="8,-65.75 8,-282.25 242,-282.25 242,-65.75 8,-65.75"/>
<polygon fill="#f5f5f5" stroke="none" points="8,-258.75 8,-282.25 242,-282.25 242,-258.75 8,-258.75"/>
<polygon fill="none" stroke="black" points="8,-258.75 8,-282.25 242,-282.25 242,-258.75 8,-258.75"/>
<text text-anchor="start" x="13" y="-267.8" font-family="Helvetica,sans-Serif" font-weight="bold" font-size="11.00">lib_library</text>
<text text-anchor="start" x="200.25" y="-266.8" font-family="Helvetica,sans-Serif" font-size="11.00">[table]</text>
<polygon fill="none" stroke="black" points="8,-236.75 8,-258.75 242,-258.75 242,-236.75 8,-236.75"/>
<image xlink:href="../../images/primaryKeys.png" width="11px" height="12px" preserveAspectRatio="xMinYMin meet" x="13" y="-253.75"/>
<text text-anchor="start" x="28" y="-243.3" font-family="Helvetica,sans-Serif" font-size="11.00">identifier</text>
<polygon fill="#ffffff" stroke="none" points="8,-214.75 8,-236.75 242,-236.75 242,-214.75 8,-214.75"/>
<polygon fill="none" stroke="black" points="8,-214.75 8,-236.75 242,-236.75 242,-214.75 8,-214.75"/>
<image xlink:href="../../images/foreignKeys.png" width="11px" height="12px" preserveAspectRatio="xMinYMin meet" x="13" y="-231.75"/>
<text text-anchor="start" x="28" y="-221.3" font-family="Helvetica,sans-Serif" font-size="11.00">address</text>
<polygon fill="#ffffff" stroke="none" points="8,-192.75 8,-214.75 242,-214.75 242,-192.75 8,-192.75"/>
<polygon fill="none" stroke="black" points="8,-192.75 8,-214.75 242,-214.75 242,-192.75 8,-192.75"/>
<image xlink:href="../../images/foreignKeys.png" width="11px" height="12px" preserveAspectRatio="xMinYMin meet" x="13" y="-209.75"/>
<text text-anchor="start" x="28" y="-199.3" font-family="Helvetica,sans-Serif" font-size="11.00">active_configuration_ftp</text>
<polygon fill="#ffffff" stroke="none" points="8,-170.75 8,-192.75 242,-192.75 242,-170.75 8,-170.75"/>
<polygon fill="none" stroke="black" points="8,-170.75 8,-192.75 242,-192.75 242,-170.75 8,-170.75"/>
<image xlink:href="../../images/foreignKeys.png" width="11px" height="12px" preserveAspectRatio="xMinYMin meet" x="13" y="-187.75"/>
<text text-anchor="start" x="28" y="-177.3" font-family="Helvetica,sans-Serif" font-size="11.00">active_configuration_check</text>
<polygon fill="#ffffff" stroke="none" points="8,-148.75 8,-170.75 242,-170.75 242,-148.75 8,-148.75"/>
<polygon fill="none" stroke="black" points="8,-148.75 8,-170.75 242,-170.75 242,-148.75 8,-148.75"/>
<image xlink:href="../../images/foreignKeys.png" width="11px" height="12px" preserveAspectRatio="xMinYMin meet" x="13" y="-165.75"/>
<text text-anchor="start" x="28" y="-155.3" font-family="Helvetica,sans-Serif" font-size="11.00">role</text>
<polygon fill="#ffffff" stroke="none" points="8,-126.75 8,-148.75 242,-148.75 242,-126.75 8,-126.75"/>
<polygon fill="none" stroke="black" points="8,-126.75 8,-148.75 242,-148.75 242,-126.75 8,-126.75"/>
<image xlink:href="../../images/foreignKeys.png" width="11px" height="12px" preserveAspectRatio="xMinYMin meet" x="13" y="-143.75"/>
<text text-anchor="start" x="28" y="-133.3" font-family="Helvetica,sans-Serif" font-size="11.00">active_configuration_export_ftp</text>
<polygon fill="#ffffff" stroke="none" points="8,-104.75 8,-126.75 242,-126.75 242,-104.75 8,-104.75"/>
<polygon fill="none" stroke="black" points="8,-104.75 8,-126.75 242,-126.75 242,-104.75 8,-104.75"/>
<image xlink:href="../../images/foreignKeys.png" width="11px" height="12px" preserveAspectRatio="xMinYMin meet" x="13" y="-121.75"/>
<text text-anchor="start" x="28" y="-111.3" font-family="Helvetica,sans-Serif" font-size="11.00">active_configuration_ocr_lang</text>
<polygon fill="none" stroke="black" points="8,-85.25 8,-104.75 242,-104.75 242,-85.25 8,-85.25"/>
<text text-anchor="start" x="11" y="-91.3" font-family="Helvetica,sans-Serif" font-size="11.00">...</text>
<polygon fill="#ffffff" stroke="none" points="8,-65.75 8,-85.25 87.75,-85.25 87.75,-65.75 8,-65.75"/>
<polygon fill="none" stroke="black" points="8,-65.75 8,-85.25 87.75,-85.25 87.75,-65.75 8,-65.75"/>
<text text-anchor="start" x="11" y="-71.8" font-family="Helvetica,sans-Serif" font-size="11.00">&lt; 6</text>
<polygon fill="#ffffff" stroke="none" points="87.75,-65.75 87.75,-85.25 155.5,-85.25 155.5,-65.75 87.75,-65.75"/>
<polygon fill="none" stroke="black" points="87.75,-65.75 87.75,-85.25 155.5,-85.25 155.5,-65.75 87.75,-65.75"/>
<text text-anchor="start" x="145" y="-71.8" font-family="Helvetica,sans-Serif" font-size="11.00"> &#160;</text>
<polygon fill="#ffffff" stroke="none" points="155.5,-65.75 155.5,-85.25 242,-85.25 242,-65.75 155.5,-65.75"/>
<polygon fill="none" stroke="black" points="155.5,-65.75 155.5,-85.25 242,-85.25 242,-65.75 155.5,-65.75"/>
<text text-anchor="start" x="212.75" y="-71.8" font-family="Helvetica,sans-Serif" font-size="11.00">27 &gt;</text>
</a>
</g>
</g>
<!-- conf_internet_archive&#45;&gt;lib_library -->
<g id="edge2" class="edge">
<title>conf_internet_archive:w&#45;&gt;lib_library:e</title>
<path fill="none" stroke="black" d="M276.42,-247.15C265.71,-247.37 258.48,-247.75 243,-247.75"/>
<polygon fill="black" stroke="black" points="283.67,-247.08 291.7,-250.6 288,-247.04 291.33,-247.01 291.33,-247.01 291.33,-247.01 288,-247.04 291.63,-243.4 283.67,-247.08"/>
<ellipse fill="none" stroke="black" cx="278.75" cy="-247.13" rx="3.2" ry="3.2"/>
</g>
</g>
</svg>
