<?xml version="1.0" encoding="UTF-8" standalone="no"?>
<!DOCTYPE svg PUBLIC "-//W3C//DTD SVG 1.1//EN"
 "http://www.w3.org/Graphics/SVG/1.1/DTD/svg11.dtd">
<!-- Generated by graphviz version 12.2.0 (0)
 -->
<!-- Title: oneDegreeRelationshipsDiagram Pages: 1 -->
<svg width="1110pt" height="644pt"
 viewBox="0.00 0.00 1110.08 644.17" xmlns="http://www.w3.org/2000/svg" xmlns:xlink="http://www.w3.org/1999/xlink">
<g id="graph0" class="graph" transform="scale(1 1) rotate(0) translate(4 640.17)">
<title>oneDegreeRelationshipsDiagram</title>
<polygon fill="#ffffff" stroke="none" points="-4,4 -4,-640.17 1106.08,-640.17 1106.08,4 -4,4"/>
<text text-anchor="middle" x="79.25" y="-7.05" font-family="Helvetica,sans-Serif" font-size="11.00">Generated by SchemaSpy</text>
<!-- conf_delivery_folder -->
<g id="node1" class="node">
<title>conf_delivery_folder</title>
<g id="a_node1"><a xlink:href="../../tables/conf_delivery_folder.html" xlink:title="conf_delivery_folder" target="_top">
<polygon fill="#ffffff" stroke="none" points="506.58,-113.42 506.58,-241.92 689.33,-241.92 689.33,-113.42 506.58,-113.42"/>
<polygon fill="#f5f5f5" stroke="none" points="506.58,-218.42 506.58,-241.92 689.33,-241.92 689.33,-218.42 506.58,-218.42"/>
<polygon fill="none" stroke="black" points="506.58,-218.42 506.58,-241.92 689.33,-241.92 689.33,-218.42 506.58,-218.42"/>
<text text-anchor="start" x="511.58" y="-227.47" font-family="Helvetica,sans-Serif" font-weight="bold" font-size="11.00">conf_delivery_folder</text>
<text text-anchor="start" x="647.58" y="-226.47" font-family="Helvetica,sans-Serif" font-size="11.00">[table]</text>
<polygon fill="none" stroke="black" points="506.58,-196.42 506.58,-218.42 689.33,-218.42 689.33,-196.42 506.58,-196.42"/>
<image xlink:href="../../images/primaryKeys.png" width="11px" height="12px" preserveAspectRatio="xMinYMin meet" x="511.583" y="-213.423"/>
<text text-anchor="start" x="539.46" y="-202.97" font-family="Helvetica,sans-Serif" font-size="11.00">identifier</text>
<polygon fill="#ffffff" stroke="none" points="506.58,-174.42 506.58,-196.42 689.33,-196.42 689.33,-174.42 506.58,-174.42"/>
<polygon fill="none" stroke="black" points="506.58,-174.42 506.58,-196.42 689.33,-196.42 689.33,-174.42 506.58,-174.42"/>
<text text-anchor="start" x="539.46" y="-180.97" font-family="Helvetica,sans-Serif" font-size="11.00">name</text>
<polygon fill="#ffffff" stroke="none" points="506.58,-152.42 506.58,-174.42 689.33,-174.42 689.33,-152.42 506.58,-152.42"/>
<polygon fill="none" stroke="black" points="506.58,-152.42 506.58,-174.42 689.33,-174.42 689.33,-152.42 506.58,-152.42"/>
<image xlink:href="../../images/foreignKeys.png" width="11px" height="12px" preserveAspectRatio="xMinYMin meet" x="511.583" y="-169.423"/>
<text text-anchor="start" x="539.46" y="-158.97" font-family="Helvetica,sans-Serif" font-size="11.00">conf_export_ftp</text>
<polygon fill="none" stroke="black" points="506.58,-132.92 506.58,-152.42 689.33,-152.42 689.33,-132.92 506.58,-132.92"/>
<text text-anchor="start" x="509.58" y="-138.97" font-family="Helvetica,sans-Serif" font-size="11.00">...</text>
<polygon fill="#ffffff" stroke="none" points="506.58,-113.42 506.58,-132.92 571.5,-132.92 571.5,-113.42 506.58,-113.42"/>
<polygon fill="none" stroke="black" points="506.58,-113.42 506.58,-132.92 571.5,-132.92 571.5,-113.42 506.58,-113.42"/>
<text text-anchor="start" x="509.58" y="-119.47" font-family="Helvetica,sans-Serif" font-size="11.00">&lt; 1</text>
<polygon fill="#ffffff" stroke="none" points="571.5,-113.42 571.5,-132.92 624.42,-132.92 624.42,-113.42 571.5,-113.42"/>
<polygon fill="none" stroke="black" points="571.5,-113.42 571.5,-132.92 624.42,-132.92 624.42,-113.42 571.5,-113.42"/>
<text text-anchor="start" x="613.92" y="-119.47" font-family="Helvetica,sans-Serif" font-size="11.00"> &#160;</text>
<polygon fill="#ffffff" stroke="none" points="624.42,-113.42 624.42,-132.92 689.33,-132.92 689.33,-113.42 624.42,-113.42"/>
<polygon fill="none" stroke="black" points="624.42,-113.42 624.42,-132.92 689.33,-132.92 689.33,-113.42 624.42,-113.42"/>
<text text-anchor="start" x="666.83" y="-119.47" font-family="Helvetica,sans-Serif" font-size="11.00">3 &gt;</text>
</a>
</g>
</g>
<!-- conf_export_ftp -->
<g id="node2" class="node">
<title>conf_export_ftp</title>
<g id="a_node2"><a xlink:href="../../tables/conf_export_ftp.html" xlink:title="conf_export_ftp" target="_top">
<polygon fill="#ffffff" stroke="none" points="305.83,-91.42 305.83,-197.92 457.58,-197.92 457.58,-91.42 305.83,-91.42"/>
<polygon fill="#f5f5f5" stroke="none" points="305.83,-174.42 305.83,-197.92 457.58,-197.92 457.58,-174.42 305.83,-174.42"/>
<polygon fill="none" stroke="black" points="305.83,-174.42 305.83,-197.92 457.58,-197.92 457.58,-174.42 305.83,-174.42"/>
<text text-anchor="start" x="310.83" y="-183.47" font-family="Helvetica,sans-Serif" font-weight="bold" font-size="11.00">conf_export_ftp</text>
<text text-anchor="start" x="415.83" y="-182.47" font-family="Helvetica,sans-Serif" font-size="11.00">[table]</text>
<polygon fill="none" stroke="black" points="305.83,-152.42 305.83,-174.42 457.58,-174.42 457.58,-152.42 305.83,-152.42"/>
<image xlink:href="../../images/primaryKeys.png" width="11px" height="12px" preserveAspectRatio="xMinYMin meet" x="310.833" y="-169.423"/>
<text text-anchor="start" x="327.71" y="-158.97" font-family="Helvetica,sans-Serif" font-size="11.00">identifier</text>
<polygon fill="#ffffff" stroke="none" points="305.83,-130.42 305.83,-152.42 457.58,-152.42 457.58,-130.42 305.83,-130.42"/>
<polygon fill="none" stroke="black" points="305.83,-130.42 305.83,-152.42 457.58,-152.42 457.58,-130.42 305.83,-130.42"/>
<image xlink:href="../../images/foreignKeys.png" width="11px" height="12px" preserveAspectRatio="xMinYMin meet" x="310.833" y="-147.423"/>
<text text-anchor="start" x="327.71" y="-136.97" font-family="Helvetica,sans-Serif" font-size="11.00">library</text>
<polygon fill="none" stroke="black" points="305.83,-110.92 305.83,-130.42 457.58,-130.42 457.58,-110.92 305.83,-110.92"/>
<text text-anchor="start" x="308.83" y="-116.97" font-family="Helvetica,sans-Serif" font-size="11.00">...</text>
<polygon fill="#ffffff" stroke="none" points="305.83,-91.42 305.83,-110.92 360.42,-110.92 360.42,-91.42 305.83,-91.42"/>
<polygon fill="none" stroke="black" points="305.83,-91.42 305.83,-110.92 360.42,-110.92 360.42,-91.42 305.83,-91.42"/>
<text text-anchor="start" x="308.83" y="-97.47" font-family="Helvetica,sans-Serif" font-size="11.00">&lt; 1</text>
<polygon fill="#ffffff" stroke="none" points="360.42,-91.42 360.42,-110.92 403,-110.92 403,-91.42 360.42,-91.42"/>
<polygon fill="none" stroke="black" points="360.42,-91.42 360.42,-110.92 403,-110.92 403,-91.42 360.42,-91.42"/>
<text text-anchor="start" x="392.5" y="-97.47" font-family="Helvetica,sans-Serif" font-size="11.00"> &#160;</text>
<polygon fill="#ffffff" stroke="none" points="403,-91.42 403,-110.92 457.58,-110.92 457.58,-91.42 403,-91.42"/>
<polygon fill="none" stroke="black" points="403,-91.42 403,-110.92 457.58,-110.92 457.58,-91.42 403,-91.42"/>
<text text-anchor="start" x="435.08" y="-97.47" font-family="Helvetica,sans-Serif" font-size="11.00">5 &gt;</text>
</a>
</g>
</g>
<!-- conf_delivery_folder&#45;&gt;conf_export_ftp -->
<g id="edge1" class="edge">
<title>conf_delivery_folder:w&#45;&gt;conf_export_ftp:e</title>
<path fill="none" stroke="black" d="M489.97,-163.42C480.06,-163.42 473.11,-163.42 458.58,-163.42"/>
<polygon fill="black" stroke="black" points="497.25,-163.42 505.25,-167.02 501.58,-163.42 504.91,-163.42 504.91,-163.42 504.91,-163.42 501.58,-163.42 505.25,-159.82 497.25,-163.42"/>
<ellipse fill="none" stroke="black" cx="492.33" cy="-163.42" rx="3.2" ry="3.2"/>
</g>
<!-- lib_library -->
<g id="node3" class="node">
<title>lib_library</title>
<g id="a_node3"><a xlink:href="../../tables/lib_library.html" xlink:title="lib_library" target="_top">
<polygon fill="#ffffff" stroke="none" points="22.83,-91.42 22.83,-307.92 256.83,-307.92 256.83,-91.42 22.83,-91.42"/>
<polygon fill="#f5f5f5" stroke="none" points="22.83,-284.42 22.83,-307.92 256.83,-307.92 256.83,-284.42 22.83,-284.42"/>
<polygon fill="none" stroke="black" points="22.83,-284.42 22.83,-307.92 256.83,-307.92 256.83,-284.42 22.83,-284.42"/>
<text text-anchor="start" x="27.83" y="-293.47" font-family="Helvetica,sans-Serif" font-weight="bold" font-size="11.00">lib_library</text>
<text text-anchor="start" x="215.08" y="-292.47" font-family="Helvetica,sans-Serif" font-size="11.00">[table]</text>
<polygon fill="none" stroke="black" points="22.83,-262.42 22.83,-284.42 256.83,-284.42 256.83,-262.42 22.83,-262.42"/>
<image xlink:href="../../images/primaryKeys.png" width="11px" height="12px" preserveAspectRatio="xMinYMin meet" x="27.8328" y="-279.423"/>
<text text-anchor="start" x="42.83" y="-268.97" font-family="Helvetica,sans-Serif" font-size="11.00">identifier</text>
<polygon fill="#ffffff" stroke="none" points="22.83,-240.42 22.83,-262.42 256.83,-262.42 256.83,-240.42 22.83,-240.42"/>
<polygon fill="none" stroke="black" points="22.83,-240.42 22.83,-262.42 256.83,-262.42 256.83,-240.42 22.83,-240.42"/>
<image xlink:href="../../images/foreignKeys.png" width="11px" height="12px" preserveAspectRatio="xMinYMin meet" x="27.8328" y="-257.423"/>
<text text-anchor="start" x="42.83" y="-246.97" font-family="Helvetica,sans-Serif" font-size="11.00">address</text>
<polygon fill="#ffffff" stroke="none" points="22.83,-218.42 22.83,-240.42 256.83,-240.42 256.83,-218.42 22.83,-218.42"/>
<polygon fill="none" stroke="black" points="22.83,-218.42 22.83,-240.42 256.83,-240.42 256.83,-218.42 22.83,-218.42"/>
<image xlink:href="../../images/foreignKeys.png" width="11px" height="12px" preserveAspectRatio="xMinYMin meet" x="27.8328" y="-235.423"/>
<text text-anchor="start" x="42.83" y="-224.97" font-family="Helvetica,sans-Serif" font-size="11.00">active_configuration_ftp</text>
<polygon fill="#ffffff" stroke="none" points="22.83,-196.42 22.83,-218.42 256.83,-218.42 256.83,-196.42 22.83,-196.42"/>
<polygon fill="none" stroke="black" points="22.83,-196.42 22.83,-218.42 256.83,-218.42 256.83,-196.42 22.83,-196.42"/>
<image xlink:href="../../images/foreignKeys.png" width="11px" height="12px" preserveAspectRatio="xMinYMin meet" x="27.8328" y="-213.423"/>
<text text-anchor="start" x="42.83" y="-202.97" font-family="Helvetica,sans-Serif" font-size="11.00">active_configuration_check</text>
<polygon fill="#ffffff" stroke="none" points="22.83,-174.42 22.83,-196.42 256.83,-196.42 256.83,-174.42 22.83,-174.42"/>
<polygon fill="none" stroke="black" points="22.83,-174.42 22.83,-196.42 256.83,-196.42 256.83,-174.42 22.83,-174.42"/>
<image xlink:href="../../images/foreignKeys.png" width="11px" height="12px" preserveAspectRatio="xMinYMin meet" x="27.8328" y="-191.423"/>
<text text-anchor="start" x="42.83" y="-180.97" font-family="Helvetica,sans-Serif" font-size="11.00">role</text>
<polygon fill="#ffffff" stroke="none" points="22.83,-152.42 22.83,-174.42 256.83,-174.42 256.83,-152.42 22.83,-152.42"/>
<polygon fill="none" stroke="black" points="22.83,-152.42 22.83,-174.42 256.83,-174.42 256.83,-152.42 22.83,-152.42"/>
<image xlink:href="../../images/foreignKeys.png" width="11px" height="12px" preserveAspectRatio="xMinYMin meet" x="27.8328" y="-169.423"/>
<text text-anchor="start" x="42.83" y="-158.97" font-family="Helvetica,sans-Serif" font-size="11.00">active_configuration_export_ftp</text>
<polygon fill="#ffffff" stroke="none" points="22.83,-130.42 22.83,-152.42 256.83,-152.42 256.83,-130.42 22.83,-130.42"/>
<polygon fill="none" stroke="black" points="22.83,-130.42 22.83,-152.42 256.83,-152.42 256.83,-130.42 22.83,-130.42"/>
<image xlink:href="../../images/foreignKeys.png" width="11px" height="12px" preserveAspectRatio="xMinYMin meet" x="27.8328" y="-147.423"/>
<text text-anchor="start" x="42.83" y="-136.97" font-family="Helvetica,sans-Serif" font-size="11.00">active_configuration_ocr_lang</text>
<polygon fill="none" stroke="black" points="22.83,-110.92 22.83,-130.42 256.83,-130.42 256.83,-110.92 22.83,-110.92"/>
<text text-anchor="start" x="25.83" y="-116.97" font-family="Helvetica,sans-Serif" font-size="11.00">...</text>
<polygon fill="#ffffff" stroke="none" points="22.83,-91.42 22.83,-110.92 102.58,-110.92 102.58,-91.42 22.83,-91.42"/>
<polygon fill="none" stroke="black" points="22.83,-91.42 22.83,-110.92 102.58,-110.92 102.58,-91.42 22.83,-91.42"/>
<text text-anchor="start" x="25.83" y="-97.47" font-family="Helvetica,sans-Serif" font-size="11.00">&lt; 6</text>
<polygon fill="#ffffff" stroke="none" points="102.58,-91.42 102.58,-110.92 170.33,-110.92 170.33,-91.42 102.58,-91.42"/>
<polygon fill="none" stroke="black" points="102.58,-91.42 102.58,-110.92 170.33,-110.92 170.33,-91.42 102.58,-91.42"/>
<text text-anchor="start" x="159.83" y="-97.47" font-family="Helvetica,sans-Serif" font-size="11.00"> &#160;</text>
<polygon fill="#ffffff" stroke="none" points="170.33,-91.42 170.33,-110.92 256.83,-110.92 256.83,-91.42 170.33,-91.42"/>
<polygon fill="none" stroke="black" points="170.33,-91.42 170.33,-110.92 256.83,-110.92 256.83,-91.42 170.33,-91.42"/>
<text text-anchor="start" x="227.58" y="-97.47" font-family="Helvetica,sans-Serif" font-size="11.00">27 &gt;</text>
</a>
</g>
</g>
<!-- conf_export_ftp&#45;&gt;lib_library -->
<g id="edge2" class="edge">
<title>conf_export_ftp:w&#45;&gt;lib_library:e</title>
<path fill="none" stroke="black" d="M289.89,-145.23C256.87,-166.87 313.78,-273.42 257.83,-273.42"/>
<polygon fill="black" stroke="black" points="296.76,-143.48 305.4,-144.99 300.96,-142.41 304.18,-141.59 304.18,-141.59 304.18,-141.59 300.96,-142.41 303.62,-138.02 296.76,-143.48"/>
<ellipse fill="none" stroke="black" cx="291.99" cy="-144.7" rx="3.2" ry="3.2"/>
</g>
<!-- lib_library&#45;&gt;conf_export_ftp -->
<g id="edge6" class="edge">
<title>lib_library:w&#45;&gt;conf_export_ftp:e</title>
<path fill="none" stroke="black" d="M7.32,-158.44C-7.45,-144.82 3.3,-106.7 22.83,-87.42 99.38,-11.87 178.89,-22.75 264.83,-87.42 307.15,-119.27 255.52,-170.08 297.83,-201.92 354.56,-244.61 406.73,-251.47 457.58,-201.92 469.84,-189.98 475.7,-163.42 458.58,-163.42"/>
<polygon fill="black" stroke="black" points="13.95,-160.72 20.35,-166.72 18.05,-162.12 21.2,-163.21 21.2,-163.21 21.2,-163.21 18.05,-162.12 22.69,-159.91 13.95,-160.72"/>
<ellipse fill="none" stroke="black" cx="9.3" cy="-159.12" rx="3.2" ry="3.2"/>
</g>
<!-- conf_files_gestion -->
<g id="node4" class="node">
<title>conf_files_gestion</title>
<g id="a_node4"><a xlink:href="../../tables/conf_files_gestion.html" xlink:title="conf_files_gestion" target="_top">
<polygon fill="#ffffff" stroke="none" points="738.33,-57.17 738.33,-632.17 1094.08,-632.17 1094.08,-57.17 738.33,-57.17"/>
<polygon fill="#f5f5f5" stroke="none" points="740.33,-606.67 740.33,-630.17 1092.08,-630.17 1092.08,-606.67 740.33,-606.67"/>
<polygon fill="none" stroke="black" points="740.33,-606.67 740.33,-630.17 1092.08,-630.17 1092.08,-606.67 740.33,-606.67"/>
<text text-anchor="start" x="745.33" y="-615.72" font-family="Helvetica,sans-Serif" font-weight="bold" font-size="11.00">conf_files_gestion</text>
<text text-anchor="start" x="1050.33" y="-614.72" font-family="Helvetica,sans-Serif" font-size="11.00">[table]</text>
<polygon fill="none" stroke="black" points="740.33,-584.67 740.33,-606.67 984.33,-606.67 984.33,-584.67 740.33,-584.67"/>
<image xlink:href="../../images/primaryKeys.png" width="11px" height="12px" preserveAspectRatio="xMinYMin meet" x="745.333" y="-601.673"/>
<text text-anchor="start" x="760.33" y="-591.22" font-family="Helvetica,sans-Serif" font-size="11.00">identifier</text>
<polygon fill="none" stroke="black" points="984.33,-584.67 984.33,-606.67 1082.08,-606.67 1082.08,-584.67 984.33,-584.67"/>
<text text-anchor="start" x="987.33" y="-591.97" font-family="Helvetica,sans-Serif" font-size="11.00">varchar[191]</text>
<polygon fill="none" stroke="black" points="740.33,-562.67 740.33,-584.67 984.33,-584.67 984.33,-562.67 740.33,-562.67"/>
<text text-anchor="start" x="760.33" y="-569.22" font-family="Helvetica,sans-Serif" font-size="11.00">trigger_type</text>
<polygon fill="none" stroke="black" points="984.33,-562.67 984.33,-584.67 1082.08,-584.67 1082.08,-562.67 984.33,-562.67"/>
<text text-anchor="start" x="987.33" y="-569.97" font-family="Helvetica,sans-Serif" font-size="11.00">varchar[255]</text>
<polygon fill="none" stroke="black" points="740.33,-540.67 740.33,-562.67 984.33,-562.67 984.33,-540.67 740.33,-540.67"/>
<text text-anchor="start" x="760.33" y="-547.22" font-family="Helvetica,sans-Serif" font-size="11.00">delay</text>
<polygon fill="none" stroke="black" points="984.33,-540.67 984.33,-562.67 1082.08,-562.67 1082.08,-540.67 984.33,-540.67"/>
<text text-anchor="start" x="987.33" y="-547.97" font-family="Helvetica,sans-Serif" font-size="11.00">int[10]</text>
<polygon fill="none" stroke="black" points="740.33,-518.67 740.33,-540.67 984.33,-540.67 984.33,-518.67 740.33,-518.67"/>
<text text-anchor="start" x="760.33" y="-525.22" font-family="Helvetica,sans-Serif" font-size="11.00">destination_dir</text>
<polygon fill="none" stroke="black" points="984.33,-518.67 984.33,-540.67 1082.08,-540.67 1082.08,-518.67 984.33,-518.67"/>
<text text-anchor="start" x="987.33" y="-525.97" font-family="Helvetica,sans-Serif" font-size="11.00">varchar[255]</text>
<polygon fill="none" stroke="black" points="740.33,-496.67 740.33,-518.67 984.33,-518.67 984.33,-496.67 740.33,-496.67"/>
<text text-anchor="start" x="760.33" y="-503.22" font-family="Helvetica,sans-Serif" font-size="11.00">delete_master</text>
<polygon fill="none" stroke="black" points="984.33,-496.67 984.33,-518.67 1082.08,-518.67 1082.08,-496.67 984.33,-496.67"/>
<text text-anchor="start" x="987.33" y="-503.97" font-family="Helvetica,sans-Serif" font-size="11.00">bit[1]</text>
<polygon fill="none" stroke="black" points="740.33,-474.67 740.33,-496.67 984.33,-496.67 984.33,-474.67 740.33,-474.67"/>
<text text-anchor="start" x="760.33" y="-481.22" font-family="Helvetica,sans-Serif" font-size="11.00">delete_print</text>
<polygon fill="none" stroke="black" points="984.33,-474.67 984.33,-496.67 1082.08,-496.67 1082.08,-474.67 984.33,-474.67"/>
<text text-anchor="start" x="987.33" y="-481.97" font-family="Helvetica,sans-Serif" font-size="11.00">bit[1]</text>
<polygon fill="none" stroke="black" points="740.33,-452.67 740.33,-474.67 984.33,-474.67 984.33,-452.67 740.33,-452.67"/>
<text text-anchor="start" x="760.33" y="-459.22" font-family="Helvetica,sans-Serif" font-size="11.00">delete_view</text>
<polygon fill="none" stroke="black" points="984.33,-452.67 984.33,-474.67 1082.08,-474.67 1082.08,-452.67 984.33,-452.67"/>
<text text-anchor="start" x="987.33" y="-459.97" font-family="Helvetica,sans-Serif" font-size="11.00">bit[1]</text>
<polygon fill="none" stroke="black" points="740.33,-430.67 740.33,-452.67 984.33,-452.67 984.33,-430.67 740.33,-430.67"/>
<text text-anchor="start" x="760.33" y="-437.22" font-family="Helvetica,sans-Serif" font-size="11.00">delete_thumb</text>
<polygon fill="none" stroke="black" points="984.33,-430.67 984.33,-452.67 1082.08,-452.67 1082.08,-430.67 984.33,-430.67"/>
<text text-anchor="start" x="987.33" y="-437.97" font-family="Helvetica,sans-Serif" font-size="11.00">bit[1]</text>
<polygon fill="none" stroke="black" points="740.33,-408.67 740.33,-430.67 984.33,-430.67 984.33,-408.67 740.33,-408.67"/>
<text text-anchor="start" x="760.33" y="-415.22" font-family="Helvetica,sans-Serif" font-size="11.00">save_master</text>
<polygon fill="none" stroke="black" points="984.33,-408.67 984.33,-430.67 1082.08,-430.67 1082.08,-408.67 984.33,-408.67"/>
<text text-anchor="start" x="987.33" y="-415.97" font-family="Helvetica,sans-Serif" font-size="11.00">bit[1]</text>
<polygon fill="none" stroke="black" points="740.33,-386.67 740.33,-408.67 984.33,-408.67 984.33,-386.67 740.33,-386.67"/>
<text text-anchor="start" x="760.33" y="-393.22" font-family="Helvetica,sans-Serif" font-size="11.00">save_print</text>
<polygon fill="none" stroke="black" points="984.33,-386.67 984.33,-408.67 1082.08,-408.67 1082.08,-386.67 984.33,-386.67"/>
<text text-anchor="start" x="987.33" y="-393.97" font-family="Helvetica,sans-Serif" font-size="11.00">bit[1]</text>
<polygon fill="none" stroke="black" points="740.33,-364.67 740.33,-386.67 984.33,-386.67 984.33,-364.67 740.33,-364.67"/>
<text text-anchor="start" x="760.33" y="-371.22" font-family="Helvetica,sans-Serif" font-size="11.00">save_view</text>
<polygon fill="none" stroke="black" points="984.33,-364.67 984.33,-386.67 1082.08,-386.67 1082.08,-364.67 984.33,-364.67"/>
<text text-anchor="start" x="987.33" y="-371.97" font-family="Helvetica,sans-Serif" font-size="11.00">bit[1]</text>
<polygon fill="none" stroke="black" points="740.33,-342.67 740.33,-364.67 984.33,-364.67 984.33,-342.67 740.33,-342.67"/>
<text text-anchor="start" x="760.33" y="-349.22" font-family="Helvetica,sans-Serif" font-size="11.00">save_thumb</text>
<polygon fill="none" stroke="black" points="984.33,-342.67 984.33,-364.67 1082.08,-364.67 1082.08,-342.67 984.33,-342.67"/>
<text text-anchor="start" x="987.33" y="-349.97" font-family="Helvetica,sans-Serif" font-size="11.00">bit[1]</text>
<polygon fill="#ffffff" stroke="none" points="740.33,-320.67 740.33,-342.67 984.33,-342.67 984.33,-320.67 740.33,-320.67"/>
<polygon fill="none" stroke="black" points="740.33,-320.67 740.33,-342.67 984.33,-342.67 984.33,-320.67 740.33,-320.67"/>
<image xlink:href="../../images/foreignKeys.png" width="11px" height="12px" preserveAspectRatio="xMinYMin meet" x="745.333" y="-337.673"/>
<text text-anchor="start" x="760.33" y="-327.22" font-family="Helvetica,sans-Serif" font-size="11.00">library</text>
<polygon fill="none" stroke="black" points="984.33,-320.67 984.33,-342.67 1082.08,-342.67 1082.08,-320.67 984.33,-320.67"/>
<text text-anchor="start" x="987.33" y="-327.97" font-family="Helvetica,sans-Serif" font-size="11.00">varchar[191]</text>
<polygon fill="none" stroke="black" points="740.33,-298.67 740.33,-320.67 984.33,-320.67 984.33,-298.67 740.33,-298.67"/>
<text text-anchor="start" x="760.33" y="-305.22" font-family="Helvetica,sans-Serif" font-size="11.00">version</text>
<polygon fill="none" stroke="black" points="984.33,-298.67 984.33,-320.67 1082.08,-320.67 1082.08,-298.67 984.33,-298.67"/>
<text text-anchor="start" x="987.33" y="-305.97" font-family="Helvetica,sans-Serif" font-size="11.00">bigint[19]</text>
<polygon fill="none" stroke="black" points="740.33,-276.67 740.33,-298.67 984.33,-298.67 984.33,-276.67 740.33,-276.67"/>
<text text-anchor="start" x="760.33" y="-283.22" font-family="Helvetica,sans-Serif" font-size="11.00">created_by</text>
<polygon fill="none" stroke="black" points="984.33,-276.67 984.33,-298.67 1082.08,-298.67 1082.08,-276.67 984.33,-276.67"/>
<text text-anchor="start" x="987.33" y="-283.97" font-family="Helvetica,sans-Serif" font-size="11.00">varchar[255]</text>
<polygon fill="none" stroke="black" points="740.33,-254.67 740.33,-276.67 984.33,-276.67 984.33,-254.67 740.33,-254.67"/>
<text text-anchor="start" x="760.33" y="-261.22" font-family="Helvetica,sans-Serif" font-size="11.00">last_modified_by</text>
<polygon fill="none" stroke="black" points="984.33,-254.67 984.33,-276.67 1082.08,-276.67 1082.08,-254.67 984.33,-254.67"/>
<text text-anchor="start" x="987.33" y="-261.97" font-family="Helvetica,sans-Serif" font-size="11.00">varchar[255]</text>
<polygon fill="none" stroke="black" points="740.33,-232.67 740.33,-254.67 984.33,-254.67 984.33,-232.67 740.33,-232.67"/>
<text text-anchor="start" x="760.33" y="-239.22" font-family="Helvetica,sans-Serif" font-size="11.00">created_date</text>
<polygon fill="none" stroke="black" points="984.33,-232.67 984.33,-254.67 1082.08,-254.67 1082.08,-232.67 984.33,-232.67"/>
<text text-anchor="start" x="987.33" y="-239.97" font-family="Helvetica,sans-Serif" font-size="11.00">timestamp[19]</text>
<polygon fill="none" stroke="black" points="740.33,-210.67 740.33,-232.67 984.33,-232.67 984.33,-210.67 740.33,-210.67"/>
<text text-anchor="start" x="760.33" y="-217.22" font-family="Helvetica,sans-Serif" font-size="11.00">last_modified_date</text>
<polygon fill="none" stroke="black" points="984.33,-210.67 984.33,-232.67 1082.08,-232.67 1082.08,-210.67 984.33,-210.67"/>
<text text-anchor="start" x="987.33" y="-217.97" font-family="Helvetica,sans-Serif" font-size="11.00">timestamp[19]</text>
<polygon fill="none" stroke="black" points="740.33,-188.67 740.33,-210.67 984.33,-210.67 984.33,-188.67 740.33,-188.67"/>
<text text-anchor="start" x="760.33" y="-195.22" font-family="Helvetica,sans-Serif" font-size="11.00">delete_pdf</text>
<polygon fill="none" stroke="black" points="984.33,-188.67 984.33,-210.67 1082.08,-210.67 1082.08,-188.67 984.33,-188.67"/>
<text text-anchor="start" x="987.33" y="-195.97" font-family="Helvetica,sans-Serif" font-size="11.00">bit[1]</text>
<polygon fill="none" stroke="black" points="740.33,-166.67 740.33,-188.67 984.33,-188.67 984.33,-166.67 740.33,-166.67"/>
<text text-anchor="start" x="760.33" y="-173.22" font-family="Helvetica,sans-Serif" font-size="11.00">save_pdf</text>
<polygon fill="none" stroke="black" points="984.33,-166.67 984.33,-188.67 1082.08,-188.67 1082.08,-166.67 984.33,-166.67"/>
<text text-anchor="start" x="987.33" y="-173.97" font-family="Helvetica,sans-Serif" font-size="11.00">bit[1]</text>
<polygon fill="none" stroke="black" points="740.33,-144.67 740.33,-166.67 984.33,-166.67 984.33,-144.67 740.33,-144.67"/>
<text text-anchor="start" x="760.33" y="-151.22" font-family="Helvetica,sans-Serif" font-size="11.00">save_aip_sip</text>
<polygon fill="none" stroke="black" points="984.33,-144.67 984.33,-166.67 1082.08,-166.67 1082.08,-144.67 984.33,-144.67"/>
<text text-anchor="start" x="987.33" y="-151.97" font-family="Helvetica,sans-Serif" font-size="11.00">bit[1]</text>
<polygon fill="none" stroke="black" points="740.33,-122.67 740.33,-144.67 984.33,-144.67 984.33,-122.67 740.33,-122.67"/>
<text text-anchor="start" x="760.33" y="-129.22" font-family="Helvetica,sans-Serif" font-size="11.00">export_ftp</text>
<polygon fill="none" stroke="black" points="984.33,-122.67 984.33,-144.67 1082.08,-144.67 1082.08,-122.67 984.33,-122.67"/>
<text text-anchor="start" x="987.33" y="-129.97" font-family="Helvetica,sans-Serif" font-size="11.00">bit[1]</text>
<polygon fill="#ffffff" stroke="none" points="740.33,-100.67 740.33,-122.67 984.33,-122.67 984.33,-100.67 740.33,-100.67"/>
<polygon fill="none" stroke="black" points="740.33,-100.67 740.33,-122.67 984.33,-122.67 984.33,-100.67 740.33,-100.67"/>
<image xlink:href="../../images/foreignKeys.png" width="11px" height="12px" preserveAspectRatio="xMinYMin meet" x="745.333" y="-117.673"/>
<text text-anchor="start" x="760.33" y="-107.22" font-family="Helvetica,sans-Serif" font-size="11.00">active_export_ftp_delivery_folder</text>
<polygon fill="none" stroke="black" points="984.33,-100.67 984.33,-122.67 1082.08,-122.67 1082.08,-100.67 984.33,-100.67"/>
<text text-anchor="start" x="987.33" y="-107.97" font-family="Helvetica,sans-Serif" font-size="11.00">varchar[191]</text>
<polygon fill="#ffffff" stroke="none" points="740.33,-78.67 740.33,-100.67 984.33,-100.67 984.33,-78.67 740.33,-78.67"/>
<polygon fill="none" stroke="black" points="740.33,-78.67 740.33,-100.67 984.33,-100.67 984.33,-78.67 740.33,-78.67"/>
<image xlink:href="../../images/foreignKeys.png" width="11px" height="12px" preserveAspectRatio="xMinYMin meet" x="745.333" y="-95.6732"/>
<text text-anchor="start" x="760.33" y="-85.22" font-family="Helvetica,sans-Serif" font-size="11.00">active_export_ftp_conf</text>
<polygon fill="none" stroke="black" points="984.33,-78.67 984.33,-100.67 1082.08,-100.67 1082.08,-78.67 984.33,-78.67"/>
<text text-anchor="start" x="987.33" y="-85.97" font-family="Helvetica,sans-Serif" font-size="11.00">varchar[191]</text>
<polygon fill="#ffffff" stroke="none" points="740.33,-59.17 740.33,-78.67 868.33,-78.67 868.33,-59.17 740.33,-59.17"/>
<polygon fill="none" stroke="black" points="740.33,-59.17 740.33,-78.67 868.33,-78.67 868.33,-59.17 740.33,-59.17"/>
<text text-anchor="start" x="743.33" y="-65.22" font-family="Helvetica,sans-Serif" font-size="11.00">&lt; 3</text>
<polygon fill="#ffffff" stroke="none" points="868.33,-59.17 868.33,-78.67 984.33,-78.67 984.33,-59.17 868.33,-59.17"/>
<polygon fill="none" stroke="black" points="868.33,-59.17 868.33,-78.67 984.33,-78.67 984.33,-59.17 868.33,-59.17"/>
<text text-anchor="start" x="973.83" y="-65.22" font-family="Helvetica,sans-Serif" font-size="11.00"> &#160;</text>
<polygon fill="#ffffff" stroke="none" points="984.33,-59.17 984.33,-78.67 1082.08,-78.67 1082.08,-59.17 984.33,-59.17"/>
<polygon fill="none" stroke="black" points="984.33,-59.17 984.33,-78.67 1082.08,-78.67 1082.08,-59.17 984.33,-59.17"/>
<text text-anchor="start" x="1059.58" y="-65.22" font-family="Helvetica,sans-Serif" font-size="11.00">0 &gt;</text>
<polygon fill="none" stroke="black" stroke-width="2" points="739.33,-58.17 739.33,-631.17 1093.08,-631.17 1093.08,-58.17 739.33,-58.17"/>
</a>
</g>
</g>
<!-- conf_files_gestion&#45;&gt;conf_delivery_folder -->
<g id="edge4" class="edge">
<title>conf_files_gestion:w&#45;&gt;conf_delivery_folder:e</title>
<path fill="none" stroke="black" d="M724.54,-116.55C702.51,-136.07 731.6,-207.42 690.33,-207.42"/>
<polygon fill="black" stroke="black" points="731.42,-114.28 740.14,-115.2 735.53,-112.93 738.7,-111.88 738.7,-111.88 738.7,-111.88 735.53,-112.93 737.89,-108.36 731.42,-114.28"/>
<ellipse fill="none" stroke="black" cx="726.75" cy="-115.82" rx="3.2" ry="3.2"/>
</g>
<!-- conf_files_gestion&#45;&gt;conf_export_ftp -->
<g id="edge3" class="edge">
<title>conf_files_gestion:w&#45;&gt;conf_export_ftp:e</title>
<path fill="none" stroke="black" d="M723.51,-89.38C627.91,-85.82 586.79,-52.02 498.58,-102.67 470.55,-118.77 490.91,-163.42 458.58,-163.42"/>
<polygon fill="black" stroke="black" points="731,-89.52 738.93,-93.27 735.33,-89.6 738.66,-89.66 738.66,-89.66 738.66,-89.66 735.33,-89.6 739.07,-86.07 731,-89.52"/>
<ellipse fill="none" stroke="black" cx="726.08" cy="-89.43" rx="3.2" ry="3.2"/>
</g>
<!-- conf_files_gestion&#45;&gt;lib_library -->
<g id="edge5" class="edge">
<title>conf_files_gestion:w&#45;&gt;lib_library:e</title>
<path fill="none" stroke="black" d="M723.53,-331.57C521.16,-328.81 468.03,-273.42 257.83,-273.42"/>
<polygon fill="black" stroke="black" points="731,-331.62 738.97,-335.27 735.33,-331.65 738.66,-331.67 738.66,-331.67 738.66,-331.67 735.33,-331.65 739.02,-328.07 731,-331.62"/>
<ellipse fill="none" stroke="black" cx="726.08" cy="-331.58" rx="3.2" ry="3.2"/>
</g>
</g>
</svg>
