<?xml version="1.0" encoding="UTF-8" standalone="no"?>
<!DOCTYPE svg PUBLIC "-//W3C//DTD SVG 1.1//EN"
 "http://www.w3.org/Graphics/SVG/1.1/DTD/svg11.dtd">
<!-- Generated by graphviz version 12.2.0 (0)
 -->
<!-- Title: oneDegreeRelationshipsDiagram Pages: 1 -->
<svg width="552pt" height="467pt"
 viewBox="0.00 0.00 552.25 467.25" xmlns="http://www.w3.org/2000/svg" xmlns:xlink="http://www.w3.org/1999/xlink">
<g id="graph0" class="graph" transform="scale(1 1) rotate(0) translate(4 463.25)">
<title>oneDegreeRelationshipsDiagram</title>
<polygon fill="#ffffff" stroke="none" points="-4,4 -4,-463.25 548.25,-463.25 548.25,4 -4,4"/>
<text text-anchor="middle" x="79.25" y="-7.05" font-family="Helvetica,sans-Serif" font-size="11.00">Generated by SchemaSpy</text>
<!-- conf_activated_ocr_lang -->
<g id="node1" class="node">
<title>conf_activated_ocr_lang</title>
<g id="a_node1"><a xlink:href="../../tables/conf_activated_ocr_lang.html" xlink:title="conf_activated_ocr_lang" target="_top">
<polygon fill="#ffffff" stroke="none" points="315.38,-326.75 315.38,-455.25 523.12,-455.25 523.12,-326.75 315.38,-326.75"/>
<polygon fill="#f5f5f5" stroke="none" points="315.38,-431.75 315.38,-455.25 523.12,-455.25 523.12,-431.75 315.38,-431.75"/>
<polygon fill="none" stroke="black" points="315.38,-431.75 315.38,-455.25 523.12,-455.25 523.12,-431.75 315.38,-431.75"/>
<text text-anchor="start" x="320.38" y="-440.8" font-family="Helvetica,sans-Serif" font-weight="bold" font-size="11.00">conf_activated_ocr_lang</text>
<text text-anchor="start" x="481.38" y="-439.8" font-family="Helvetica,sans-Serif" font-size="11.00">[table]</text>
<polygon fill="none" stroke="black" points="315.38,-409.75 315.38,-431.75 523.12,-431.75 523.12,-409.75 315.38,-409.75"/>
<image xlink:href="../../images/primaryKeys.png" width="11px" height="12px" preserveAspectRatio="xMinYMin meet" x="320.375" y="-426.75"/>
<text text-anchor="start" x="348.25" y="-416.3" font-family="Helvetica,sans-Serif" font-size="11.00">identifier</text>
<polygon fill="#ffffff" stroke="none" points="315.38,-387.75 315.38,-409.75 523.12,-409.75 523.12,-387.75 315.38,-387.75"/>
<polygon fill="none" stroke="black" points="315.38,-387.75 315.38,-409.75 523.12,-409.75 523.12,-387.75 315.38,-387.75"/>
<image xlink:href="../../images/foreignKeys.png" width="11px" height="12px" preserveAspectRatio="xMinYMin meet" x="320.375" y="-404.75"/>
<text text-anchor="start" x="348.25" y="-394.3" font-family="Helvetica,sans-Serif" font-size="11.00">ocr_lang_configuration</text>
<polygon fill="#ffffff" stroke="none" points="315.38,-365.75 315.38,-387.75 523.12,-387.75 523.12,-365.75 315.38,-365.75"/>
<polygon fill="none" stroke="black" points="315.38,-365.75 315.38,-387.75 523.12,-387.75 523.12,-365.75 315.38,-365.75"/>
<image xlink:href="../../images/foreignKeys.png" width="11px" height="12px" preserveAspectRatio="xMinYMin meet" x="320.375" y="-382.75"/>
<text text-anchor="start" x="348.25" y="-372.3" font-family="Helvetica,sans-Serif" font-size="11.00">ocr_language</text>
<polygon fill="none" stroke="black" points="315.38,-346.25 315.38,-365.75 523.12,-365.75 523.12,-346.25 315.38,-346.25"/>
<text text-anchor="start" x="318.38" y="-352.3" font-family="Helvetica,sans-Serif" font-size="11.00">...</text>
<polygon fill="#ffffff" stroke="none" points="315.38,-326.75 315.38,-346.25 392.62,-346.25 392.62,-326.75 315.38,-326.75"/>
<polygon fill="none" stroke="black" points="315.38,-326.75 315.38,-346.25 392.62,-346.25 392.62,-326.75 315.38,-326.75"/>
<text text-anchor="start" x="318.38" y="-332.8" font-family="Helvetica,sans-Serif" font-size="11.00">&lt; 2</text>
<polygon fill="#ffffff" stroke="none" points="392.62,-326.75 392.62,-346.25 457.88,-346.25 457.88,-326.75 392.62,-326.75"/>
<polygon fill="none" stroke="black" points="392.62,-326.75 392.62,-346.25 457.88,-346.25 457.88,-326.75 392.62,-326.75"/>
<text text-anchor="start" x="447.38" y="-332.8" font-family="Helvetica,sans-Serif" font-size="11.00"> &#160;</text>
<polygon fill="#ffffff" stroke="none" points="457.88,-326.75 457.88,-346.25 523.12,-346.25 523.12,-326.75 457.88,-326.75"/>
<polygon fill="none" stroke="black" points="457.88,-326.75 457.88,-346.25 523.12,-346.25 523.12,-326.75 457.88,-326.75"/>
<text text-anchor="start" x="512.62" y="-332.8" font-family="Helvetica,sans-Serif" font-size="11.00"> &#160;</text>
</a>
</g>
</g>
<!-- conf_ocr_lang -->
<g id="node2" class="node">
<title>conf_ocr_lang</title>
<g id="a_node2"><a xlink:href="../../tables/conf_ocr_lang.html" xlink:title="conf_ocr_lang" target="_top">
<polygon fill="#ffffff" stroke="none" points="8,-38.5 8,-305.5 253.25,-305.5 253.25,-38.5 8,-38.5"/>
<polygon fill="#f5f5f5" stroke="none" points="10,-280 10,-303.5 251.25,-303.5 251.25,-280 10,-280"/>
<polygon fill="none" stroke="black" points="10,-280 10,-303.5 251.25,-303.5 251.25,-280 10,-280"/>
<text text-anchor="start" x="15" y="-289.05" font-family="Helvetica,sans-Serif" font-weight="bold" font-size="11.00">conf_ocr_lang</text>
<text text-anchor="start" x="209.5" y="-288.05" font-family="Helvetica,sans-Serif" font-size="11.00">[table]</text>
<polygon fill="none" stroke="black" points="10,-258 10,-280 158,-280 158,-258 10,-258"/>
<image xlink:href="../../images/primaryKeys.png" width="11px" height="12px" preserveAspectRatio="xMinYMin meet" x="15" y="-275"/>
<text text-anchor="start" x="30" y="-264.55" font-family="Helvetica,sans-Serif" font-size="11.00">identifier</text>
<polygon fill="none" stroke="black" points="158,-258 158,-280 248.5,-280 248.5,-258 158,-258"/>
<text text-anchor="start" x="161" y="-265.3" font-family="Helvetica,sans-Serif" font-size="11.00">varchar[191]</text>
<polygon fill="none" stroke="black" points="10,-236 10,-258 158,-258 158,-236 10,-236"/>
<text text-anchor="start" x="30" y="-242.55" font-family="Helvetica,sans-Serif" font-size="11.00">label</text>
<polygon fill="none" stroke="black" points="158,-236 158,-258 248.5,-258 248.5,-236 158,-236"/>
<text text-anchor="start" x="161" y="-243.3" font-family="Helvetica,sans-Serif" font-size="11.00">varchar[255]</text>
<polygon fill="none" stroke="black" points="10,-214 10,-236 158,-236 158,-214 10,-214"/>
<text text-anchor="start" x="30" y="-220.55" font-family="Helvetica,sans-Serif" font-size="11.00">description</text>
<polygon fill="none" stroke="black" points="158,-214 158,-236 248.5,-236 248.5,-214 158,-214"/>
<text text-anchor="start" x="161" y="-221.3" font-family="Helvetica,sans-Serif" font-size="11.00">varchar[255]</text>
<polygon fill="none" stroke="black" points="10,-192 10,-214 158,-214 158,-192 10,-192"/>
<text text-anchor="start" x="30" y="-198.55" font-family="Helvetica,sans-Serif" font-size="11.00">active</text>
<polygon fill="none" stroke="black" points="158,-192 158,-214 248.5,-214 248.5,-192 158,-192"/>
<text text-anchor="start" x="161" y="-199.3" font-family="Helvetica,sans-Serif" font-size="11.00">bit[1]</text>
<polygon fill="none" stroke="black" points="10,-170 10,-192 158,-192 158,-170 10,-170"/>
<text text-anchor="start" x="30" y="-176.55" font-family="Helvetica,sans-Serif" font-size="11.00">library</text>
<polygon fill="none" stroke="black" points="158,-170 158,-192 248.5,-192 248.5,-170 158,-170"/>
<text text-anchor="start" x="161" y="-177.3" font-family="Helvetica,sans-Serif" font-size="11.00">varchar[191]</text>
<polygon fill="none" stroke="black" points="10,-148 10,-170 158,-170 158,-148 10,-148"/>
<text text-anchor="start" x="30" y="-154.55" font-family="Helvetica,sans-Serif" font-size="11.00">version</text>
<polygon fill="none" stroke="black" points="158,-148 158,-170 248.5,-170 248.5,-148 158,-148"/>
<text text-anchor="start" x="161" y="-155.3" font-family="Helvetica,sans-Serif" font-size="11.00">bigint[19]</text>
<polygon fill="none" stroke="black" points="10,-126 10,-148 158,-148 158,-126 10,-126"/>
<text text-anchor="start" x="30" y="-132.55" font-family="Helvetica,sans-Serif" font-size="11.00">created_by</text>
<polygon fill="none" stroke="black" points="158,-126 158,-148 248.5,-148 248.5,-126 158,-126"/>
<text text-anchor="start" x="161" y="-133.3" font-family="Helvetica,sans-Serif" font-size="11.00">varchar[255]</text>
<polygon fill="none" stroke="black" points="10,-104 10,-126 158,-126 158,-104 10,-104"/>
<text text-anchor="start" x="30" y="-110.55" font-family="Helvetica,sans-Serif" font-size="11.00">last_modified_by</text>
<polygon fill="none" stroke="black" points="158,-104 158,-126 248.5,-126 248.5,-104 158,-104"/>
<text text-anchor="start" x="161" y="-111.3" font-family="Helvetica,sans-Serif" font-size="11.00">varchar[255]</text>
<polygon fill="none" stroke="black" points="10,-82 10,-104 158,-104 158,-82 10,-82"/>
<text text-anchor="start" x="30" y="-88.55" font-family="Helvetica,sans-Serif" font-size="11.00">created_date</text>
<polygon fill="none" stroke="black" points="158,-82 158,-104 248.5,-104 248.5,-82 158,-82"/>
<text text-anchor="start" x="161" y="-89.3" font-family="Helvetica,sans-Serif" font-size="11.00">timestamp[19]</text>
<polygon fill="none" stroke="black" points="10,-60 10,-82 158,-82 158,-60 10,-60"/>
<text text-anchor="start" x="30" y="-66.55" font-family="Helvetica,sans-Serif" font-size="11.00">last_modified_date</text>
<polygon fill="none" stroke="black" points="158,-60 158,-82 248.5,-82 248.5,-60 158,-60"/>
<text text-anchor="start" x="161" y="-67.3" font-family="Helvetica,sans-Serif" font-size="11.00">timestamp[19]</text>
<polygon fill="#ffffff" stroke="none" points="10,-40.5 10,-60 90,-60 90,-40.5 10,-40.5"/>
<polygon fill="none" stroke="black" points="10,-40.5 10,-60 90,-60 90,-40.5 10,-40.5"/>
<text text-anchor="start" x="13" y="-46.55" font-family="Helvetica,sans-Serif" font-size="11.00">&lt; 0</text>
<polygon fill="#ffffff" stroke="none" points="90,-40.5 90,-60 158,-60 158,-40.5 90,-40.5"/>
<polygon fill="none" stroke="black" points="90,-40.5 90,-60 158,-60 158,-40.5 90,-40.5"/>
<text text-anchor="start" x="147.5" y="-46.55" font-family="Helvetica,sans-Serif" font-size="11.00"> &#160;</text>
<polygon fill="#ffffff" stroke="none" points="158,-40.5 158,-60 248.5,-60 248.5,-40.5 158,-40.5"/>
<polygon fill="none" stroke="black" points="158,-40.5 158,-60 248.5,-60 248.5,-40.5 158,-40.5"/>
<text text-anchor="start" x="226" y="-46.55" font-family="Helvetica,sans-Serif" font-size="11.00">2 &gt;</text>
<polygon fill="none" stroke="black" stroke-width="2" points="9,-39.5 9,-304.5 252.25,-304.5 252.25,-39.5 9,-39.5"/>
</a>
</g>
</g>
<!-- conf_activated_ocr_lang&#45;&gt;conf_ocr_lang -->
<g id="edge1" class="edge">
<title>conf_activated_ocr_lang:w&#45;&gt;conf_ocr_lang:e</title>
<path fill="none" stroke="black" d="M298.92,-395.28C261.19,-374.65 307.68,-269 249.5,-269"/>
<polygon fill="black" stroke="black" points="306.24,-396.92 313.26,-402.19 310.47,-397.87 313.72,-398.6 313.72,-398.6 313.72,-398.6 310.47,-397.87 314.84,-395.16 306.24,-396.92"/>
<ellipse fill="none" stroke="black" cx="301.44" cy="-395.85" rx="3.2" ry="3.2"/>
</g>
<!-- lib_library -->
<g id="node3" class="node">
<title>lib_library</title>
<g id="a_node3"><a xlink:href="../../tables/lib_library.html" xlink:title="lib_library" target="_top">
<polygon fill="#ffffff" stroke="none" points="302.25,-88.75 302.25,-305.25 536.25,-305.25 536.25,-88.75 302.25,-88.75"/>
<polygon fill="#f5f5f5" stroke="none" points="302.25,-281.75 302.25,-305.25 536.25,-305.25 536.25,-281.75 302.25,-281.75"/>
<polygon fill="none" stroke="black" points="302.25,-281.75 302.25,-305.25 536.25,-305.25 536.25,-281.75 302.25,-281.75"/>
<text text-anchor="start" x="307.25" y="-290.8" font-family="Helvetica,sans-Serif" font-weight="bold" font-size="11.00">lib_library</text>
<text text-anchor="start" x="494.5" y="-289.8" font-family="Helvetica,sans-Serif" font-size="11.00">[table]</text>
<polygon fill="none" stroke="black" points="302.25,-259.75 302.25,-281.75 536.25,-281.75 536.25,-259.75 302.25,-259.75"/>
<image xlink:href="../../images/primaryKeys.png" width="11px" height="12px" preserveAspectRatio="xMinYMin meet" x="307.25" y="-276.75"/>
<text text-anchor="start" x="322.25" y="-266.3" font-family="Helvetica,sans-Serif" font-size="11.00">identifier</text>
<polygon fill="#ffffff" stroke="none" points="302.25,-237.75 302.25,-259.75 536.25,-259.75 536.25,-237.75 302.25,-237.75"/>
<polygon fill="none" stroke="black" points="302.25,-237.75 302.25,-259.75 536.25,-259.75 536.25,-237.75 302.25,-237.75"/>
<image xlink:href="../../images/foreignKeys.png" width="11px" height="12px" preserveAspectRatio="xMinYMin meet" x="307.25" y="-254.75"/>
<text text-anchor="start" x="322.25" y="-244.3" font-family="Helvetica,sans-Serif" font-size="11.00">address</text>
<polygon fill="#ffffff" stroke="none" points="302.25,-215.75 302.25,-237.75 536.25,-237.75 536.25,-215.75 302.25,-215.75"/>
<polygon fill="none" stroke="black" points="302.25,-215.75 302.25,-237.75 536.25,-237.75 536.25,-215.75 302.25,-215.75"/>
<image xlink:href="../../images/foreignKeys.png" width="11px" height="12px" preserveAspectRatio="xMinYMin meet" x="307.25" y="-232.75"/>
<text text-anchor="start" x="322.25" y="-222.3" font-family="Helvetica,sans-Serif" font-size="11.00">active_configuration_ftp</text>
<polygon fill="#ffffff" stroke="none" points="302.25,-193.75 302.25,-215.75 536.25,-215.75 536.25,-193.75 302.25,-193.75"/>
<polygon fill="none" stroke="black" points="302.25,-193.75 302.25,-215.75 536.25,-215.75 536.25,-193.75 302.25,-193.75"/>
<image xlink:href="../../images/foreignKeys.png" width="11px" height="12px" preserveAspectRatio="xMinYMin meet" x="307.25" y="-210.75"/>
<text text-anchor="start" x="322.25" y="-200.3" font-family="Helvetica,sans-Serif" font-size="11.00">active_configuration_check</text>
<polygon fill="#ffffff" stroke="none" points="302.25,-171.75 302.25,-193.75 536.25,-193.75 536.25,-171.75 302.25,-171.75"/>
<polygon fill="none" stroke="black" points="302.25,-171.75 302.25,-193.75 536.25,-193.75 536.25,-171.75 302.25,-171.75"/>
<image xlink:href="../../images/foreignKeys.png" width="11px" height="12px" preserveAspectRatio="xMinYMin meet" x="307.25" y="-188.75"/>
<text text-anchor="start" x="322.25" y="-178.3" font-family="Helvetica,sans-Serif" font-size="11.00">role</text>
<polygon fill="#ffffff" stroke="none" points="302.25,-149.75 302.25,-171.75 536.25,-171.75 536.25,-149.75 302.25,-149.75"/>
<polygon fill="none" stroke="black" points="302.25,-149.75 302.25,-171.75 536.25,-171.75 536.25,-149.75 302.25,-149.75"/>
<image xlink:href="../../images/foreignKeys.png" width="11px" height="12px" preserveAspectRatio="xMinYMin meet" x="307.25" y="-166.75"/>
<text text-anchor="start" x="322.25" y="-156.3" font-family="Helvetica,sans-Serif" font-size="11.00">active_configuration_export_ftp</text>
<polygon fill="#ffffff" stroke="none" points="302.25,-127.75 302.25,-149.75 536.25,-149.75 536.25,-127.75 302.25,-127.75"/>
<polygon fill="none" stroke="black" points="302.25,-127.75 302.25,-149.75 536.25,-149.75 536.25,-127.75 302.25,-127.75"/>
<image xlink:href="../../images/foreignKeys.png" width="11px" height="12px" preserveAspectRatio="xMinYMin meet" x="307.25" y="-144.75"/>
<text text-anchor="start" x="322.25" y="-134.3" font-family="Helvetica,sans-Serif" font-size="11.00">active_configuration_ocr_lang</text>
<polygon fill="none" stroke="black" points="302.25,-108.25 302.25,-127.75 536.25,-127.75 536.25,-108.25 302.25,-108.25"/>
<text text-anchor="start" x="305.25" y="-114.3" font-family="Helvetica,sans-Serif" font-size="11.00">...</text>
<polygon fill="#ffffff" stroke="none" points="302.25,-88.75 302.25,-108.25 382,-108.25 382,-88.75 302.25,-88.75"/>
<polygon fill="none" stroke="black" points="302.25,-88.75 302.25,-108.25 382,-108.25 382,-88.75 302.25,-88.75"/>
<text text-anchor="start" x="305.25" y="-94.8" font-family="Helvetica,sans-Serif" font-size="11.00">&lt; 6</text>
<polygon fill="#ffffff" stroke="none" points="382,-88.75 382,-108.25 449.75,-108.25 449.75,-88.75 382,-88.75"/>
<polygon fill="none" stroke="black" points="382,-88.75 382,-108.25 449.75,-108.25 449.75,-88.75 382,-88.75"/>
<text text-anchor="start" x="439.25" y="-94.8" font-family="Helvetica,sans-Serif" font-size="11.00"> &#160;</text>
<polygon fill="#ffffff" stroke="none" points="449.75,-88.75 449.75,-108.25 536.25,-108.25 536.25,-88.75 449.75,-88.75"/>
<polygon fill="none" stroke="black" points="449.75,-88.75 449.75,-108.25 536.25,-108.25 536.25,-88.75 449.75,-88.75"/>
<text text-anchor="start" x="507" y="-94.8" font-family="Helvetica,sans-Serif" font-size="11.00">27 &gt;</text>
</a>
</g>
</g>
<!-- lib_library&#45;&gt;conf_ocr_lang -->
<g id="edge2" class="edge">
<title>lib_library:w&#45;&gt;conf_ocr_lang:e</title>
<path fill="none" stroke="black" d="M286.17,-142.51C252.36,-163.86 305.46,-269 249.5,-269"/>
<polygon fill="black" stroke="black" points="293.16,-140.77 301.8,-142.32 297.37,-139.72 300.6,-138.91 300.6,-138.91 300.6,-138.91 297.37,-139.72 300.06,-135.34 293.16,-140.77"/>
<ellipse fill="none" stroke="black" cx="288.39" cy="-141.95" rx="3.2" ry="3.2"/>
</g>
</g>
</svg>
