<?xml version="1.0" encoding="UTF-8" standalone="no"?>
<!DOCTYPE svg PUBLIC "-//W3C//DTD SVG 1.1//EN"
 "http://www.w3.org/Graphics/SVG/1.1/DTD/svg11.dtd">
<!-- Generated by graphviz version 12.2.0 (0)
 -->
<!-- Title: twoDegreesRelationshipsDiagram Pages: 1 -->
<svg width="615pt" height="164pt"
 viewBox="0.00 0.00 614.75 163.50" xmlns="http://www.w3.org/2000/svg" xmlns:xlink="http://www.w3.org/1999/xlink">
<g id="graph0" class="graph" transform="scale(1 1) rotate(0) translate(4 159.5)">
<title>twoDegreesRelationshipsDiagram</title>
<polygon fill="#ffffff" stroke="none" points="-4,4 -4,-159.5 610.75,-159.5 610.75,4 -4,4"/>
<text text-anchor="middle" x="79.25" y="-7.05" font-family="Helvetica,sans-Serif" font-size="11.00">Generated by SchemaSpy</text>
<!-- conf_email -->
<g id="node1" class="node">
<title>conf_email</title>
<g id="a_node1"><a xlink:href="../../tables/conf_email.html" xlink:title="conf_email" target="_top">
<polygon fill="#ffffff" stroke="none" points="170.75,-42.75 170.75,-149.25 318.75,-149.25 318.75,-42.75 170.75,-42.75"/>
<polygon fill="#f5f5f5" stroke="none" points="170.75,-125.75 170.75,-149.25 318.75,-149.25 318.75,-125.75 170.75,-125.75"/>
<polygon fill="none" stroke="black" points="170.75,-125.75 170.75,-149.25 318.75,-149.25 318.75,-125.75 170.75,-125.75"/>
<text text-anchor="start" x="175.75" y="-134.8" font-family="Helvetica,sans-Serif" font-weight="bold" font-size="11.00">conf_email</text>
<text text-anchor="start" x="277" y="-133.8" font-family="Helvetica,sans-Serif" font-size="11.00">[table]</text>
<polygon fill="none" stroke="black" points="170.75,-103.75 170.75,-125.75 318.75,-125.75 318.75,-103.75 170.75,-103.75"/>
<image xlink:href="../../images/primaryKeys.png" width="11px" height="12px" preserveAspectRatio="xMinYMin meet" x="175.75" y="-120.75"/>
<text text-anchor="start" x="190.75" y="-110.3" font-family="Helvetica,sans-Serif" font-size="11.00">identifier</text>
<polygon fill="#ffffff" stroke="none" points="170.75,-81.75 170.75,-103.75 318.75,-103.75 318.75,-81.75 170.75,-81.75"/>
<polygon fill="none" stroke="black" points="170.75,-81.75 170.75,-103.75 318.75,-103.75 318.75,-81.75 170.75,-81.75"/>
<image xlink:href="../../images/foreignKeys.png" width="11px" height="12px" preserveAspectRatio="xMinYMin meet" x="175.75" y="-98.75"/>
<text text-anchor="start" x="190.75" y="-88.3" font-family="Helvetica,sans-Serif" font-size="11.00">library</text>
<polygon fill="none" stroke="black" points="170.75,-62.25 170.75,-81.75 318.75,-81.75 318.75,-62.25 170.75,-62.25"/>
<text text-anchor="start" x="173.75" y="-68.3" font-family="Helvetica,sans-Serif" font-size="11.00">...</text>
<polygon fill="#ffffff" stroke="none" points="170.75,-42.75 170.75,-62.25 224.08,-62.25 224.08,-42.75 170.75,-42.75"/>
<polygon fill="none" stroke="black" points="170.75,-42.75 170.75,-62.25 224.08,-62.25 224.08,-42.75 170.75,-42.75"/>
<text text-anchor="start" x="173.75" y="-48.8" font-family="Helvetica,sans-Serif" font-size="11.00">&lt; 1</text>
<polygon fill="#ffffff" stroke="none" points="224.08,-42.75 224.08,-62.25 265.42,-62.25 265.42,-42.75 224.08,-42.75"/>
<polygon fill="none" stroke="black" points="224.08,-42.75 224.08,-62.25 265.42,-62.25 265.42,-42.75 224.08,-42.75"/>
<text text-anchor="start" x="254.92" y="-48.8" font-family="Helvetica,sans-Serif" font-size="11.00"> &#160;</text>
<polygon fill="#ffffff" stroke="none" points="265.42,-42.75 265.42,-62.25 318.75,-62.25 318.75,-42.75 265.42,-42.75"/>
<polygon fill="none" stroke="black" points="265.42,-42.75 265.42,-62.25 318.75,-62.25 318.75,-42.75 265.42,-42.75"/>
<text text-anchor="start" x="296.25" y="-48.8" font-family="Helvetica,sans-Serif" font-size="11.00">1 &gt;</text>
</a>
</g>
</g>
<!-- lib_library -->
<g id="node2" class="node">
<title>lib_library</title>
<g id="a_node2"><a xlink:href="../../tables/lib_library.html" xlink:title="lib_library" target="_top">
<polygon fill="#ffffff" stroke="none" points="8,-63.75 8,-126.25 121.75,-126.25 121.75,-63.75 8,-63.75"/>
<polygon fill="#f5f5f5" stroke="none" points="8,-102.75 8,-126.25 121.75,-126.25 121.75,-102.75 8,-102.75"/>
<polygon fill="none" stroke="black" points="8,-102.75 8,-126.25 121.75,-126.25 121.75,-102.75 8,-102.75"/>
<text text-anchor="start" x="13" y="-111.8" font-family="Helvetica,sans-Serif" font-weight="bold" font-size="11.00">lib_library</text>
<text text-anchor="start" x="80" y="-110.8" font-family="Helvetica,sans-Serif" font-size="11.00">[table]</text>
<polygon fill="none" stroke="black" points="8,-83.25 8,-102.75 121.75,-102.75 121.75,-83.25 8,-83.25"/>
<text text-anchor="start" x="11" y="-89.3" font-family="Helvetica,sans-Serif" font-size="11.00">...</text>
<polygon fill="#ffffff" stroke="none" points="8,-63.75 8,-83.25 47.67,-83.25 47.67,-63.75 8,-63.75"/>
<polygon fill="none" stroke="black" points="8,-63.75 8,-83.25 47.67,-83.25 47.67,-63.75 8,-63.75"/>
<text text-anchor="start" x="11" y="-69.8" font-family="Helvetica,sans-Serif" font-size="11.00">&lt; 6</text>
<polygon fill="#ffffff" stroke="none" points="47.67,-63.75 47.67,-83.25 75.33,-83.25 75.33,-63.75 47.67,-63.75"/>
<polygon fill="none" stroke="black" points="47.67,-63.75 47.67,-83.25 75.33,-83.25 75.33,-63.75 47.67,-63.75"/>
<text text-anchor="start" x="64.83" y="-69.8" font-family="Helvetica,sans-Serif" font-size="11.00"> &#160;</text>
<polygon fill="#ffffff" stroke="none" points="75.33,-63.75 75.33,-83.25 121.75,-83.25 121.75,-63.75 75.33,-63.75"/>
<polygon fill="none" stroke="black" points="75.33,-63.75 75.33,-83.25 121.75,-83.25 121.75,-63.75 75.33,-63.75"/>
<text text-anchor="start" x="92.5" y="-69.8" font-family="Helvetica,sans-Serif" font-size="11.00">27 &gt;</text>
</a>
</g>
</g>
<!-- conf_email&#45;&gt;lib_library -->
<g id="edge1" class="edge">
<title>conf_email:w&#45;&gt;lib_library:e</title>
<path fill="none" stroke="black" d="M154.13,-92.81C144.22,-92.88 137.27,-93 122.75,-93"/>
<polygon fill="black" stroke="black" points="161.42,-92.78 169.43,-96.35 165.75,-92.76 169.08,-92.75 169.08,-92.75 169.08,-92.75 165.75,-92.76 169.4,-89.15 161.42,-92.78"/>
<ellipse fill="none" stroke="black" cx="156.5" cy="-92.8" rx="3.2" ry="3.2"/>
</g>
<!-- conf_email_prop -->
<g id="node3" class="node">
<title>conf_email_prop</title>
<g id="a_node3"><a xlink:href="../../tables/conf_email_prop.html" xlink:title="conf_email_prop" target="_top">
<polygon fill="#ffffff" stroke="none" points="367.75,-38.5 367.75,-151.5 598.75,-151.5 598.75,-38.5 367.75,-38.5"/>
<polygon fill="#f5f5f5" stroke="none" points="369.75,-126 369.75,-149.5 596.75,-149.5 596.75,-126 369.75,-126"/>
<polygon fill="none" stroke="black" points="369.75,-126 369.75,-149.5 596.75,-149.5 596.75,-126 369.75,-126"/>
<text text-anchor="start" x="374.75" y="-135.05" font-family="Helvetica,sans-Serif" font-weight="bold" font-size="11.00">conf_email_prop</text>
<text text-anchor="start" x="555" y="-134.05" font-family="Helvetica,sans-Serif" font-size="11.00">[table]</text>
<polygon fill="#ffffff" stroke="none" points="369.75,-104 369.75,-126 499.75,-126 499.75,-104 369.75,-104"/>
<polygon fill="none" stroke="black" points="369.75,-104 369.75,-126 499.75,-126 499.75,-104 369.75,-104"/>
<image xlink:href="../../images/foreignKeys.png" width="11px" height="12px" preserveAspectRatio="xMinYMin meet" x="374.75" y="-121"/>
<text text-anchor="start" x="389.75" y="-110.55" font-family="Helvetica,sans-Serif" font-size="11.00">conf_id</text>
<polygon fill="none" stroke="black" points="499.75,-104 499.75,-126 586.88,-126 586.88,-104 499.75,-104"/>
<text text-anchor="start" x="502.75" y="-111.3" font-family="Helvetica,sans-Serif" font-size="11.00">varchar[191]</text>
<polygon fill="none" stroke="black" points="369.75,-82 369.75,-104 499.75,-104 499.75,-82 369.75,-82"/>
<text text-anchor="start" x="389.75" y="-88.55" font-family="Helvetica,sans-Serif" font-size="11.00">name</text>
<polygon fill="none" stroke="black" points="499.75,-82 499.75,-104 586.88,-104 586.88,-82 499.75,-82"/>
<text text-anchor="start" x="502.75" y="-89.3" font-family="Helvetica,sans-Serif" font-size="11.00">varchar[255]</text>
<polygon fill="none" stroke="black" points="369.75,-60 369.75,-82 499.75,-82 499.75,-60 369.75,-60"/>
<text text-anchor="start" x="389.75" y="-66.55" font-family="Helvetica,sans-Serif" font-size="11.00">value</text>
<polygon fill="none" stroke="black" points="499.75,-60 499.75,-82 586.88,-82 586.88,-60 499.75,-60"/>
<text text-anchor="start" x="502.75" y="-67.3" font-family="Helvetica,sans-Serif" font-size="11.00">varchar[255]</text>
<polygon fill="#ffffff" stroke="none" points="369.75,-40.5 369.75,-60 440.75,-60 440.75,-40.5 369.75,-40.5"/>
<polygon fill="none" stroke="black" points="369.75,-40.5 369.75,-60 440.75,-60 440.75,-40.5 369.75,-40.5"/>
<text text-anchor="start" x="372.75" y="-46.55" font-family="Helvetica,sans-Serif" font-size="11.00">&lt; 1</text>
<polygon fill="#ffffff" stroke="none" points="440.75,-40.5 440.75,-60 499.75,-60 499.75,-40.5 440.75,-40.5"/>
<polygon fill="none" stroke="black" points="440.75,-40.5 440.75,-60 499.75,-60 499.75,-40.5 440.75,-40.5"/>
<text text-anchor="start" x="489.25" y="-46.55" font-family="Helvetica,sans-Serif" font-size="11.00"> &#160;</text>
<polygon fill="#ffffff" stroke="none" points="499.75,-40.5 499.75,-60 586.88,-60 586.88,-40.5 499.75,-40.5"/>
<polygon fill="none" stroke="black" points="499.75,-40.5 499.75,-60 586.88,-60 586.88,-40.5 499.75,-40.5"/>
<text text-anchor="start" x="564.38" y="-46.55" font-family="Helvetica,sans-Serif" font-size="11.00">0 &gt;</text>
<polygon fill="none" stroke="black" stroke-width="2" points="368.75,-39.5 368.75,-150.5 597.75,-150.5 597.75,-39.5 368.75,-39.5"/>
</a>
</g>
</g>
<!-- conf_email_prop&#45;&gt;conf_email -->
<g id="edge2" class="edge">
<title>conf_email_prop:w&#45;&gt;conf_email:e</title>
<path fill="none" stroke="black" d="M353.17,-114.95C342.46,-114.88 335.23,-114.75 319.75,-114.75"/>
<polygon fill="black" stroke="black" points="360.42,-114.97 368.4,-118.6 364.75,-114.99 368.08,-115 368.08,-115 368.08,-115 364.75,-114.99 368.43,-111.4 360.42,-114.97"/>
<ellipse fill="none" stroke="black" cx="355.5" cy="-114.96" rx="3.2" ry="3.2"/>
</g>
</g>
</svg>
