<?xml version="1.0" encoding="UTF-8" standalone="no"?>
<!DOCTYPE svg PUBLIC "-//W3C//DTD SVG 1.1//EN"
 "http://www.w3.org/Graphics/SVG/1.1/DTD/svg11.dtd">
<!-- Generated by graphviz version 12.2.0 (0)
 -->
<!-- Title: oneDegreeRelationshipsDiagram Pages: 1 -->
<svg width="1300pt" height="781pt"
 viewBox="0.00 0.00 1299.75 781.46" xmlns="http://www.w3.org/2000/svg" xmlns:xlink="http://www.w3.org/1999/xlink">
<g id="graph0" class="graph" transform="scale(1 1) rotate(0) translate(4 777.46)">
<title>oneDegreeRelationshipsDiagram</title>
<polygon fill="#ffffff" stroke="none" points="-4,4 -4,-777.46 1295.75,-777.46 1295.75,4 -4,4"/>
<text text-anchor="middle" x="79.25" y="-7.05" font-family="Helvetica,sans-Serif" font-size="11.00">Generated by SchemaSpy</text>
<!-- conf_lists_omeka -->
<g id="node1" class="node">
<title>conf_lists_omeka</title>
<g id="a_node1"><a xlink:href="../../tables/conf_lists_omeka.html" xlink:title="conf_lists_omeka" target="_top">
<polygon fill="#ffffff" stroke="none" points="205,-201.71 205,-446.71 461.75,-446.71 461.75,-201.71 205,-201.71"/>
<polygon fill="#f5f5f5" stroke="none" points="207,-421.21 207,-444.71 459.75,-444.71 459.75,-421.21 207,-421.21"/>
<polygon fill="none" stroke="black" points="207,-421.21 207,-444.71 459.75,-444.71 459.75,-421.21 207,-421.21"/>
<text text-anchor="start" x="212" y="-430.26" font-family="Helvetica,sans-Serif" font-weight="bold" font-size="11.00">conf_lists_omeka</text>
<text text-anchor="start" x="418" y="-429.26" font-family="Helvetica,sans-Serif" font-size="11.00">[table]</text>
<polygon fill="none" stroke="black" points="207,-399.21 207,-421.21 355,-421.21 355,-399.21 207,-399.21"/>
<image xlink:href="../../images/primaryKeys.png" width="11px" height="12px" preserveAspectRatio="xMinYMin meet" x="212" y="-416.206"/>
<text text-anchor="start" x="227" y="-405.76" font-family="Helvetica,sans-Serif" font-size="11.00">identifier</text>
<polygon fill="none" stroke="black" points="355,-399.21 355,-421.21 451.25,-421.21 451.25,-399.21 355,-399.21"/>
<text text-anchor="start" x="358" y="-406.51" font-family="Helvetica,sans-Serif" font-size="11.00">varchar[191]</text>
<polygon fill="none" stroke="black" points="207,-377.21 207,-399.21 355,-399.21 355,-377.21 207,-377.21"/>
<text text-anchor="start" x="227" y="-383.76" font-family="Helvetica,sans-Serif" font-size="11.00">name</text>
<polygon fill="none" stroke="black" points="355,-377.21 355,-399.21 451.25,-399.21 451.25,-377.21 355,-377.21"/>
<text text-anchor="start" x="358" y="-384.51" font-family="Helvetica,sans-Serif" font-size="11.00">varchar[255]</text>
<polygon fill="#ffffff" stroke="none" points="207,-355.21 207,-377.21 355,-377.21 355,-355.21 207,-355.21"/>
<polygon fill="none" stroke="black" points="207,-355.21 207,-377.21 355,-377.21 355,-355.21 207,-355.21"/>
<image xlink:href="../../images/foreignKeys.png" width="11px" height="12px" preserveAspectRatio="xMinYMin meet" x="212" y="-372.206"/>
<text text-anchor="start" x="227" y="-361.76" font-family="Helvetica,sans-Serif" font-size="11.00">conf_omeka</text>
<polygon fill="none" stroke="black" points="355,-355.21 355,-377.21 451.25,-377.21 451.25,-355.21 355,-355.21"/>
<text text-anchor="start" x="358" y="-362.51" font-family="Helvetica,sans-Serif" font-size="11.00">varchar[191]</text>
<polygon fill="none" stroke="black" points="207,-333.21 207,-355.21 355,-355.21 355,-333.21 207,-333.21"/>
<text text-anchor="start" x="227" y="-339.76" font-family="Helvetica,sans-Serif" font-size="11.00">list_type</text>
<polygon fill="none" stroke="black" points="355,-333.21 355,-355.21 451.25,-355.21 451.25,-333.21 355,-333.21"/>
<text text-anchor="start" x="358" y="-340.51" font-family="Helvetica,sans-Serif" font-size="11.00">varchar[191]</text>
<polygon fill="none" stroke="black" points="207,-311.21 207,-333.21 355,-333.21 355,-311.21 207,-311.21"/>
<text text-anchor="start" x="227" y="-317.76" font-family="Helvetica,sans-Serif" font-size="11.00">version</text>
<polygon fill="none" stroke="black" points="355,-311.21 355,-333.21 451.25,-333.21 451.25,-311.21 355,-311.21"/>
<text text-anchor="start" x="358" y="-318.51" font-family="Helvetica,sans-Serif" font-size="11.00">bigint[19]</text>
<polygon fill="none" stroke="black" points="207,-289.21 207,-311.21 355,-311.21 355,-289.21 207,-289.21"/>
<text text-anchor="start" x="227" y="-295.76" font-family="Helvetica,sans-Serif" font-size="11.00">created_by</text>
<polygon fill="none" stroke="black" points="355,-289.21 355,-311.21 451.25,-311.21 451.25,-289.21 355,-289.21"/>
<text text-anchor="start" x="358" y="-296.51" font-family="Helvetica,sans-Serif" font-size="11.00">varchar[255]</text>
<polygon fill="none" stroke="black" points="207,-267.21 207,-289.21 355,-289.21 355,-267.21 207,-267.21"/>
<text text-anchor="start" x="227" y="-273.76" font-family="Helvetica,sans-Serif" font-size="11.00">last_modified_by</text>
<polygon fill="none" stroke="black" points="355,-267.21 355,-289.21 451.25,-289.21 451.25,-267.21 355,-267.21"/>
<text text-anchor="start" x="358" y="-274.51" font-family="Helvetica,sans-Serif" font-size="11.00">varchar[255]</text>
<polygon fill="none" stroke="black" points="207,-245.21 207,-267.21 355,-267.21 355,-245.21 207,-245.21"/>
<text text-anchor="start" x="227" y="-251.76" font-family="Helvetica,sans-Serif" font-size="11.00">created_date</text>
<polygon fill="none" stroke="black" points="355,-245.21 355,-267.21 451.25,-267.21 451.25,-245.21 355,-245.21"/>
<text text-anchor="start" x="358" y="-252.51" font-family="Helvetica,sans-Serif" font-size="11.00">timestamp[19]</text>
<polygon fill="none" stroke="black" points="207,-223.21 207,-245.21 355,-245.21 355,-223.21 207,-223.21"/>
<text text-anchor="start" x="227" y="-229.76" font-family="Helvetica,sans-Serif" font-size="11.00">last_modified_date</text>
<polygon fill="none" stroke="black" points="355,-223.21 355,-245.21 451.25,-245.21 451.25,-223.21 355,-223.21"/>
<text text-anchor="start" x="358" y="-230.51" font-family="Helvetica,sans-Serif" font-size="11.00">timestamp[19]</text>
<polygon fill="#ffffff" stroke="none" points="207,-203.71 207,-223.21 287,-223.21 287,-203.71 207,-203.71"/>
<polygon fill="none" stroke="black" points="207,-203.71 207,-223.21 287,-223.21 287,-203.71 207,-203.71"/>
<text text-anchor="start" x="210" y="-209.76" font-family="Helvetica,sans-Serif" font-size="11.00">&lt; 1</text>
<polygon fill="#ffffff" stroke="none" points="287,-203.71 287,-223.21 355,-223.21 355,-203.71 287,-203.71"/>
<polygon fill="none" stroke="black" points="287,-203.71 287,-223.21 355,-223.21 355,-203.71 287,-203.71"/>
<text text-anchor="start" x="344.5" y="-209.76" font-family="Helvetica,sans-Serif" font-size="11.00"> &#160;</text>
<polygon fill="#ffffff" stroke="none" points="355,-203.71 355,-223.21 451.25,-223.21 451.25,-203.71 355,-203.71"/>
<polygon fill="none" stroke="black" points="355,-203.71 355,-223.21 451.25,-223.21 451.25,-203.71 355,-203.71"/>
<text text-anchor="start" x="428.75" y="-209.76" font-family="Helvetica,sans-Serif" font-size="11.00">6 &gt;</text>
<polygon fill="none" stroke="black" stroke-width="2" points="206,-202.71 206,-445.71 460.75,-445.71 460.75,-202.71 206,-202.71"/>
</a>
</g>
</g>
<!-- conf_omeka -->
<g id="node2" class="node">
<title>conf_omeka</title>
<g id="a_node2"><a xlink:href="../../tables/conf_omeka.html" xlink:title="conf_omeka" target="_top">
<polygon fill="#ffffff" stroke="none" points="8,-293.96 8,-400.46 156,-400.46 156,-293.96 8,-293.96"/>
<polygon fill="#f5f5f5" stroke="none" points="8,-376.96 8,-400.46 156,-400.46 156,-376.96 8,-376.96"/>
<polygon fill="none" stroke="black" points="8,-376.96 8,-400.46 156,-400.46 156,-376.96 8,-376.96"/>
<text text-anchor="start" x="13" y="-386.01" font-family="Helvetica,sans-Serif" font-weight="bold" font-size="11.00">conf_omeka</text>
<text text-anchor="start" x="114.25" y="-385.01" font-family="Helvetica,sans-Serif" font-size="11.00">[table]</text>
<polygon fill="none" stroke="black" points="8,-354.96 8,-376.96 156,-376.96 156,-354.96 8,-354.96"/>
<image xlink:href="../../images/primaryKeys.png" width="11px" height="12px" preserveAspectRatio="xMinYMin meet" x="13" y="-371.956"/>
<text text-anchor="start" x="28" y="-361.51" font-family="Helvetica,sans-Serif" font-size="11.00">identifier</text>
<polygon fill="#ffffff" stroke="none" points="8,-332.96 8,-354.96 156,-354.96 156,-332.96 8,-332.96"/>
<polygon fill="none" stroke="black" points="8,-332.96 8,-354.96 156,-354.96 156,-332.96 8,-332.96"/>
<image xlink:href="../../images/foreignKeys.png" width="11px" height="12px" preserveAspectRatio="xMinYMin meet" x="13" y="-349.956"/>
<text text-anchor="start" x="28" y="-339.51" font-family="Helvetica,sans-Serif" font-size="11.00">library</text>
<polygon fill="none" stroke="black" points="8,-313.46 8,-332.96 156,-332.96 156,-313.46 8,-313.46"/>
<text text-anchor="start" x="11" y="-319.51" font-family="Helvetica,sans-Serif" font-size="11.00">...</text>
<polygon fill="#ffffff" stroke="none" points="8,-293.96 8,-313.46 61.33,-313.46 61.33,-293.96 8,-293.96"/>
<polygon fill="none" stroke="black" points="8,-293.96 8,-313.46 61.33,-313.46 61.33,-293.96 8,-293.96"/>
<text text-anchor="start" x="11" y="-300.01" font-family="Helvetica,sans-Serif" font-size="11.00">&lt; 1</text>
<polygon fill="#ffffff" stroke="none" points="61.33,-293.96 61.33,-313.46 102.67,-313.46 102.67,-293.96 61.33,-293.96"/>
<polygon fill="none" stroke="black" points="61.33,-293.96 61.33,-313.46 102.67,-313.46 102.67,-293.96 61.33,-293.96"/>
<text text-anchor="start" x="92.17" y="-300.01" font-family="Helvetica,sans-Serif" font-size="11.00"> &#160;</text>
<polygon fill="#ffffff" stroke="none" points="102.67,-293.96 102.67,-313.46 156,-313.46 156,-293.96 102.67,-293.96"/>
<polygon fill="none" stroke="black" points="102.67,-293.96 102.67,-313.46 156,-313.46 156,-293.96 102.67,-293.96"/>
<text text-anchor="start" x="133.5" y="-300.01" font-family="Helvetica,sans-Serif" font-size="11.00">3 &gt;</text>
</a>
</g>
</g>
<!-- conf_lists_omeka&#45;&gt;conf_omeka -->
<g id="edge1" class="edge">
<title>conf_lists_omeka:w&#45;&gt;conf_omeka:e</title>
<path fill="none" stroke="black" d="M190.42,-366.16C179.71,-366.08 172.48,-365.96 157,-365.96"/>
<polygon fill="black" stroke="black" points="197.67,-366.18 205.65,-369.8 202,-366.19 205.33,-366.2 205.33,-366.2 205.33,-366.2 202,-366.19 205.68,-362.6 197.67,-366.18"/>
<ellipse fill="none" stroke="black" cx="192.75" cy="-366.16" rx="3.2" ry="3.2"/>
</g>
<!-- doc_unit -->
<g id="node3" class="node">
<title>doc_unit</title>
<g id="a_node3"><a xlink:href="../../tables/doc_unit.html" xlink:title="doc_unit" target="_top">
<polygon fill="#ffffff" stroke="none" points="1096.75,-92.96 1096.75,-507.46 1283.75,-507.46 1283.75,-92.96 1096.75,-92.96"/>
<polygon fill="#f5f5f5" stroke="none" points="1096.75,-483.96 1096.75,-507.46 1283.75,-507.46 1283.75,-483.96 1096.75,-483.96"/>
<polygon fill="none" stroke="black" points="1096.75,-483.96 1096.75,-507.46 1283.75,-507.46 1283.75,-483.96 1096.75,-483.96"/>
<text text-anchor="start" x="1101.75" y="-493.01" font-family="Helvetica,sans-Serif" font-weight="bold" font-size="11.00">doc_unit</text>
<text text-anchor="start" x="1242" y="-492.01" font-family="Helvetica,sans-Serif" font-size="11.00">[table]</text>
<polygon fill="none" stroke="black" points="1096.75,-461.96 1096.75,-483.96 1283.75,-483.96 1283.75,-461.96 1096.75,-461.96"/>
<image xlink:href="../../images/primaryKeys.png" width="11px" height="12px" preserveAspectRatio="xMinYMin meet" x="1101.75" y="-478.956"/>
<text text-anchor="start" x="1116.75" y="-468.51" font-family="Helvetica,sans-Serif" font-size="11.00">identifier</text>
<polygon fill="#ffffff" stroke="none" points="1096.75,-439.96 1096.75,-461.96 1283.75,-461.96 1283.75,-439.96 1096.75,-439.96"/>
<polygon fill="none" stroke="black" points="1096.75,-439.96 1096.75,-461.96 1283.75,-461.96 1283.75,-439.96 1096.75,-439.96"/>
<text text-anchor="start" x="1116.75" y="-446.51" font-family="Helvetica,sans-Serif" font-size="11.00">pgcn_id</text>
<polygon fill="#ffffff" stroke="none" points="1096.75,-417.96 1096.75,-439.96 1283.75,-439.96 1283.75,-417.96 1096.75,-417.96"/>
<polygon fill="none" stroke="black" points="1096.75,-417.96 1096.75,-439.96 1283.75,-439.96 1283.75,-417.96 1096.75,-417.96"/>
<image xlink:href="../../images/foreignKeys.png" width="11px" height="12px" preserveAspectRatio="xMinYMin meet" x="1101.75" y="-434.956"/>
<text text-anchor="start" x="1116.75" y="-424.51" font-family="Helvetica,sans-Serif" font-size="11.00">library</text>
<polygon fill="#ffffff" stroke="none" points="1096.75,-395.96 1096.75,-417.96 1283.75,-417.96 1283.75,-395.96 1096.75,-395.96"/>
<polygon fill="none" stroke="black" points="1096.75,-395.96 1096.75,-417.96 1283.75,-417.96 1283.75,-395.96 1096.75,-395.96"/>
<image xlink:href="../../images/foreignKeys.png" width="11px" height="12px" preserveAspectRatio="xMinYMin meet" x="1101.75" y="-412.956"/>
<text text-anchor="start" x="1116.75" y="-402.51" font-family="Helvetica,sans-Serif" font-size="11.00">project</text>
<polygon fill="#ffffff" stroke="none" points="1096.75,-373.96 1096.75,-395.96 1283.75,-395.96 1283.75,-373.96 1096.75,-373.96"/>
<polygon fill="none" stroke="black" points="1096.75,-373.96 1096.75,-395.96 1283.75,-395.96 1283.75,-373.96 1096.75,-373.96"/>
<text text-anchor="start" x="1116.75" y="-380.51" font-family="Helvetica,sans-Serif" font-size="11.00">state</text>
<polygon fill="#ffffff" stroke="none" points="1096.75,-351.96 1096.75,-373.96 1283.75,-373.96 1283.75,-351.96 1096.75,-351.96"/>
<polygon fill="none" stroke="black" points="1096.75,-351.96 1096.75,-373.96 1283.75,-373.96 1283.75,-351.96 1096.75,-351.96"/>
<image xlink:href="../../images/foreignKeys.png" width="11px" height="12px" preserveAspectRatio="xMinYMin meet" x="1101.75" y="-368.956"/>
<text text-anchor="start" x="1116.75" y="-358.51" font-family="Helvetica,sans-Serif" font-size="11.00">lot</text>
<polygon fill="#ffffff" stroke="none" points="1096.75,-329.96 1096.75,-351.96 1283.75,-351.96 1283.75,-329.96 1096.75,-329.96"/>
<polygon fill="none" stroke="black" points="1096.75,-329.96 1096.75,-351.96 1283.75,-351.96 1283.75,-329.96 1096.75,-329.96"/>
<image xlink:href="../../images/foreignKeys.png" width="11px" height="12px" preserveAspectRatio="xMinYMin meet" x="1101.75" y="-346.956"/>
<text text-anchor="start" x="1116.75" y="-336.51" font-family="Helvetica,sans-Serif" font-size="11.00">collection_omeka</text>
<polygon fill="#ffffff" stroke="none" points="1096.75,-307.96 1096.75,-329.96 1283.75,-329.96 1283.75,-307.96 1096.75,-307.96"/>
<polygon fill="none" stroke="black" points="1096.75,-307.96 1096.75,-329.96 1283.75,-329.96 1283.75,-307.96 1096.75,-307.96"/>
<image xlink:href="../../images/foreignKeys.png" width="11px" height="12px" preserveAspectRatio="xMinYMin meet" x="1101.75" y="-324.956"/>
<text text-anchor="start" x="1116.75" y="-314.51" font-family="Helvetica,sans-Serif" font-size="11.00">items_omeka</text>
<polygon fill="#ffffff" stroke="none" points="1096.75,-285.96 1096.75,-307.96 1283.75,-307.96 1283.75,-285.96 1096.75,-285.96"/>
<polygon fill="none" stroke="black" points="1096.75,-285.96 1096.75,-307.96 1283.75,-307.96 1283.75,-285.96 1096.75,-285.96"/>
<image xlink:href="../../images/foreignKeys.png" width="11px" height="12px" preserveAspectRatio="xMinYMin meet" x="1101.75" y="-302.956"/>
<text text-anchor="start" x="1116.75" y="-292.51" font-family="Helvetica,sans-Serif" font-size="11.00">parent</text>
<polygon fill="#ffffff" stroke="none" points="1096.75,-263.96 1096.75,-285.96 1283.75,-285.96 1283.75,-263.96 1096.75,-263.96"/>
<polygon fill="none" stroke="black" points="1096.75,-263.96 1096.75,-285.96 1283.75,-285.96 1283.75,-263.96 1096.75,-263.96"/>
<image xlink:href="../../images/foreignKeys.png" width="11px" height="12px" preserveAspectRatio="xMinYMin meet" x="1101.75" y="-280.956"/>
<text text-anchor="start" x="1116.75" y="-270.51" font-family="Helvetica,sans-Serif" font-size="11.00">active_ocr_lang</text>
<polygon fill="#ffffff" stroke="none" points="1096.75,-241.96 1096.75,-263.96 1283.75,-263.96 1283.75,-241.96 1096.75,-241.96"/>
<polygon fill="none" stroke="black" points="1096.75,-241.96 1096.75,-263.96 1283.75,-263.96 1283.75,-241.96 1096.75,-241.96"/>
<image xlink:href="../../images/foreignKeys.png" width="11px" height="12px" preserveAspectRatio="xMinYMin meet" x="1101.75" y="-258.956"/>
<text text-anchor="start" x="1116.75" y="-248.51" font-family="Helvetica,sans-Serif" font-size="11.00">collection_ia</text>
<polygon fill="#ffffff" stroke="none" points="1096.75,-219.96 1096.75,-241.96 1283.75,-241.96 1283.75,-219.96 1096.75,-219.96"/>
<polygon fill="none" stroke="black" points="1096.75,-219.96 1096.75,-241.96 1283.75,-241.96 1283.75,-219.96 1096.75,-219.96"/>
<image xlink:href="../../images/foreignKeys.png" width="11px" height="12px" preserveAspectRatio="xMinYMin meet" x="1101.75" y="-236.956"/>
<text text-anchor="start" x="1116.75" y="-226.51" font-family="Helvetica,sans-Serif" font-size="11.00">classement_pac</text>
<polygon fill="#ffffff" stroke="none" points="1096.75,-197.96 1096.75,-219.96 1283.75,-219.96 1283.75,-197.96 1096.75,-197.96"/>
<polygon fill="none" stroke="black" points="1096.75,-197.96 1096.75,-219.96 1283.75,-219.96 1283.75,-197.96 1096.75,-197.96"/>
<image xlink:href="../../images/foreignKeys.png" width="11px" height="12px" preserveAspectRatio="xMinYMin meet" x="1101.75" y="-214.956"/>
<text text-anchor="start" x="1116.75" y="-204.51" font-family="Helvetica,sans-Serif" font-size="11.00">sibling</text>
<polygon fill="#ffffff" stroke="none" points="1096.75,-175.96 1096.75,-197.96 1283.75,-197.96 1283.75,-175.96 1096.75,-175.96"/>
<polygon fill="none" stroke="black" points="1096.75,-175.96 1096.75,-197.96 1283.75,-197.96 1283.75,-175.96 1096.75,-175.96"/>
<image xlink:href="../../images/foreignKeys.png" width="11px" height="12px" preserveAspectRatio="xMinYMin meet" x="1101.75" y="-192.956"/>
<text text-anchor="start" x="1116.75" y="-182.51" font-family="Helvetica,sans-Serif" font-size="11.00">export_data</text>
<polygon fill="#ffffff" stroke="none" points="1096.75,-153.96 1096.75,-175.96 1283.75,-175.96 1283.75,-153.96 1096.75,-153.96"/>
<polygon fill="none" stroke="black" points="1096.75,-153.96 1096.75,-175.96 1283.75,-175.96 1283.75,-153.96 1096.75,-153.96"/>
<image xlink:href="../../images/foreignKeys.png" width="11px" height="12px" preserveAspectRatio="xMinYMin meet" x="1101.75" y="-170.956"/>
<text text-anchor="start" x="1116.75" y="-160.51" font-family="Helvetica,sans-Serif" font-size="11.00">archive_item</text>
<polygon fill="#ffffff" stroke="none" points="1096.75,-131.96 1096.75,-153.96 1283.75,-153.96 1283.75,-131.96 1096.75,-131.96"/>
<polygon fill="none" stroke="black" points="1096.75,-131.96 1096.75,-153.96 1283.75,-153.96 1283.75,-131.96 1096.75,-131.96"/>
<image xlink:href="../../images/foreignKeys.png" width="11px" height="12px" preserveAspectRatio="xMinYMin meet" x="1101.75" y="-148.956"/>
<text text-anchor="start" x="1116.75" y="-138.51" font-family="Helvetica,sans-Serif" font-size="11.00">workflow</text>
<polygon fill="none" stroke="black" points="1096.75,-112.46 1096.75,-131.96 1283.75,-131.96 1283.75,-112.46 1096.75,-112.46"/>
<text text-anchor="start" x="1099.75" y="-118.51" font-family="Helvetica,sans-Serif" font-size="11.00">...</text>
<polygon fill="#ffffff" stroke="none" points="1096.75,-92.96 1096.75,-112.46 1165.33,-112.46 1165.33,-92.96 1096.75,-92.96"/>
<polygon fill="none" stroke="black" points="1096.75,-92.96 1096.75,-112.46 1165.33,-112.46 1165.33,-92.96 1096.75,-92.96"/>
<text text-anchor="start" x="1099.75" y="-99.01" font-family="Helvetica,sans-Serif" font-size="11.00">&lt; 13</text>
<polygon fill="#ffffff" stroke="none" points="1165.33,-92.96 1165.33,-112.46 1215.17,-112.46 1215.17,-92.96 1165.33,-92.96"/>
<polygon fill="none" stroke="black" points="1165.33,-92.96 1165.33,-112.46 1215.17,-112.46 1215.17,-92.96 1165.33,-92.96"/>
<text text-anchor="start" x="1204.67" y="-99.01" font-family="Helvetica,sans-Serif" font-size="11.00"> &#160;</text>
<polygon fill="#ffffff" stroke="none" points="1215.17,-92.96 1215.17,-112.46 1283.75,-112.46 1283.75,-92.96 1215.17,-92.96"/>
<polygon fill="none" stroke="black" points="1215.17,-92.96 1215.17,-112.46 1283.75,-112.46 1283.75,-92.96 1215.17,-92.96"/>
<text text-anchor="start" x="1254.5" y="-99.01" font-family="Helvetica,sans-Serif" font-size="11.00">11 &gt;</text>
</a>
</g>
</g>
<!-- doc_unit&#45;&gt;conf_lists_omeka -->
<g id="edge2" class="edge">
<title>doc_unit:w&#45;&gt;conf_lists_omeka:e</title>
<path fill="none" stroke="black" d="M1080.31,-338.83C1029.68,-322.03 1114.17,-209.94 1055.75,-163.21 1010.63,-127.11 851.7,-148.77 795.75,-163.21 651.67,-200.39 609.59,-221.63 502.75,-325.21 471.2,-355.79 496.19,-410.21 452.25,-410.21"/>
<polygon fill="black" stroke="black" points="1087.49,-339.82 1094.93,-344.48 1091.79,-340.41 1095.09,-340.86 1095.09,-340.86 1095.09,-340.86 1091.79,-340.41 1095.91,-337.34 1087.49,-339.82"/>
<ellipse fill="none" stroke="black" cx="1082.62" cy="-339.15" rx="3.2" ry="3.2"/>
</g>
<!-- doc_unit&#45;&gt;conf_lists_omeka -->
<g id="edge3" class="edge">
<title>doc_unit:w&#45;&gt;conf_lists_omeka:e</title>
<path fill="none" stroke="black" d="M1080.23,-316.82C1029.35,-299.92 1114.45,-187.22 1055.75,-140.21 863.66,13.65 685.91,-4.81 502.75,-169.21 421.31,-242.3 561.69,-410.21 452.25,-410.21"/>
<polygon fill="black" stroke="black" points="1087.49,-317.82 1094.93,-322.48 1091.79,-318.41 1095.09,-318.86 1095.09,-318.86 1095.09,-318.86 1091.79,-318.41 1095.91,-315.34 1087.49,-317.82"/>
<ellipse fill="none" stroke="black" cx="1082.62" cy="-317.15" rx="3.2" ry="3.2"/>
</g>
<!-- lot_lot -->
<g id="node4" class="node">
<title>lot_lot</title>
<g id="a_node4"><a xlink:href="../../tables/lot_lot.html" xlink:title="lot_lot" target="_top">
<polygon fill="#ffffff" stroke="none" points="803.75,-173.96 803.75,-588.46 1047.75,-588.46 1047.75,-173.96 803.75,-173.96"/>
<polygon fill="#f5f5f5" stroke="none" points="803.75,-564.96 803.75,-588.46 1047.75,-588.46 1047.75,-564.96 803.75,-564.96"/>
<polygon fill="none" stroke="black" points="803.75,-564.96 803.75,-588.46 1047.75,-588.46 1047.75,-564.96 803.75,-564.96"/>
<text text-anchor="start" x="808.62" y="-574.01" font-family="Helvetica,sans-Serif" font-weight="bold" font-size="11.00">lot_lot</text>
<text text-anchor="start" x="1006" y="-573.01" font-family="Helvetica,sans-Serif" font-size="11.00">[table]</text>
<polygon fill="none" stroke="black" points="803.75,-542.96 803.75,-564.96 1047.75,-564.96 1047.75,-542.96 803.75,-542.96"/>
<image xlink:href="../../images/primaryKeys.png" width="11px" height="12px" preserveAspectRatio="xMinYMin meet" x="808.75" y="-559.956"/>
<text text-anchor="start" x="823.75" y="-549.51" font-family="Helvetica,sans-Serif" font-size="11.00">identifier</text>
<polygon fill="#ffffff" stroke="none" points="803.75,-520.96 803.75,-542.96 1047.75,-542.96 1047.75,-520.96 803.75,-520.96"/>
<polygon fill="none" stroke="black" points="803.75,-520.96 803.75,-542.96 1047.75,-542.96 1047.75,-520.96 803.75,-520.96"/>
<text text-anchor="start" x="823.75" y="-527.51" font-family="Helvetica,sans-Serif" font-size="11.00">code</text>
<polygon fill="#ffffff" stroke="none" points="803.75,-498.96 803.75,-520.96 1047.75,-520.96 1047.75,-498.96 803.75,-498.96"/>
<polygon fill="none" stroke="black" points="803.75,-498.96 803.75,-520.96 1047.75,-520.96 1047.75,-498.96 803.75,-498.96"/>
<image xlink:href="../../images/foreignKeys.png" width="11px" height="12px" preserveAspectRatio="xMinYMin meet" x="808.75" y="-515.956"/>
<text text-anchor="start" x="823.75" y="-505.51" font-family="Helvetica,sans-Serif" font-size="11.00">project</text>
<polygon fill="#ffffff" stroke="none" points="803.75,-476.96 803.75,-498.96 1047.75,-498.96 1047.75,-476.96 803.75,-476.96"/>
<polygon fill="none" stroke="black" points="803.75,-476.96 803.75,-498.96 1047.75,-498.96 1047.75,-476.96 803.75,-476.96"/>
<image xlink:href="../../images/foreignKeys.png" width="11px" height="12px" preserveAspectRatio="xMinYMin meet" x="808.75" y="-493.956"/>
<text text-anchor="start" x="823.75" y="-483.51" font-family="Helvetica,sans-Serif" font-size="11.00">active_configuration_ftp</text>
<polygon fill="#ffffff" stroke="none" points="803.75,-454.96 803.75,-476.96 1047.75,-476.96 1047.75,-454.96 803.75,-454.96"/>
<polygon fill="none" stroke="black" points="803.75,-454.96 803.75,-476.96 1047.75,-476.96 1047.75,-454.96 803.75,-454.96"/>
<image xlink:href="../../images/foreignKeys.png" width="11px" height="12px" preserveAspectRatio="xMinYMin meet" x="808.75" y="-471.956"/>
<text text-anchor="start" x="823.75" y="-461.51" font-family="Helvetica,sans-Serif" font-size="11.00">active_configuration_check</text>
<polygon fill="#ffffff" stroke="none" points="803.75,-432.96 803.75,-454.96 1047.75,-454.96 1047.75,-432.96 803.75,-432.96"/>
<polygon fill="none" stroke="black" points="803.75,-432.96 803.75,-454.96 1047.75,-454.96 1047.75,-432.96 803.75,-432.96"/>
<image xlink:href="../../images/foreignKeys.png" width="11px" height="12px" preserveAspectRatio="xMinYMin meet" x="808.75" y="-449.956"/>
<text text-anchor="start" x="823.75" y="-439.51" font-family="Helvetica,sans-Serif" font-size="11.00">provider</text>
<polygon fill="#ffffff" stroke="none" points="803.75,-410.96 803.75,-432.96 1047.75,-432.96 1047.75,-410.96 803.75,-410.96"/>
<polygon fill="none" stroke="black" points="803.75,-410.96 803.75,-432.96 1047.75,-432.96 1047.75,-410.96 803.75,-410.96"/>
<image xlink:href="../../images/foreignKeys.png" width="11px" height="12px" preserveAspectRatio="xMinYMin meet" x="808.75" y="-427.956"/>
<text text-anchor="start" x="823.75" y="-417.51" font-family="Helvetica,sans-Serif" font-size="11.00">collection_omeka</text>
<polygon fill="#ffffff" stroke="none" points="803.75,-388.96 803.75,-410.96 1047.75,-410.96 1047.75,-388.96 803.75,-388.96"/>
<polygon fill="none" stroke="black" points="803.75,-388.96 803.75,-410.96 1047.75,-410.96 1047.75,-388.96 803.75,-388.96"/>
<image xlink:href="../../images/foreignKeys.png" width="11px" height="12px" preserveAspectRatio="xMinYMin meet" x="808.75" y="-405.956"/>
<text text-anchor="start" x="823.75" y="-395.51" font-family="Helvetica,sans-Serif" font-size="11.00">items_omeka</text>
<polygon fill="#ffffff" stroke="none" points="803.75,-366.96 803.75,-388.96 1047.75,-388.96 1047.75,-366.96 803.75,-366.96"/>
<polygon fill="none" stroke="black" points="803.75,-366.96 803.75,-388.96 1047.75,-388.96 1047.75,-366.96 803.75,-366.96"/>
<image xlink:href="../../images/foreignKeys.png" width="11px" height="12px" preserveAspectRatio="xMinYMin meet" x="808.75" y="-383.956"/>
<text text-anchor="start" x="823.75" y="-373.51" font-family="Helvetica,sans-Serif" font-size="11.00">active_configuration_export_ftp</text>
<polygon fill="#ffffff" stroke="none" points="803.75,-344.96 803.75,-366.96 1047.75,-366.96 1047.75,-344.96 803.75,-344.96"/>
<polygon fill="none" stroke="black" points="803.75,-344.96 803.75,-366.96 1047.75,-366.96 1047.75,-344.96 803.75,-344.96"/>
<image xlink:href="../../images/foreignKeys.png" width="11px" height="12px" preserveAspectRatio="xMinYMin meet" x="808.75" y="-361.956"/>
<text text-anchor="start" x="823.75" y="-351.51" font-family="Helvetica,sans-Serif" font-size="11.00">active_ocr_lang</text>
<polygon fill="#ffffff" stroke="none" points="803.75,-322.96 803.75,-344.96 1047.75,-344.96 1047.75,-322.96 803.75,-322.96"/>
<polygon fill="none" stroke="black" points="803.75,-322.96 803.75,-344.96 1047.75,-344.96 1047.75,-322.96 803.75,-322.96"/>
<image xlink:href="../../images/foreignKeys.png" width="11px" height="12px" preserveAspectRatio="xMinYMin meet" x="808.75" y="-339.956"/>
<text text-anchor="start" x="823.75" y="-329.51" font-family="Helvetica,sans-Serif" font-size="11.00">collection_ia</text>
<polygon fill="#ffffff" stroke="none" points="803.75,-300.96 803.75,-322.96 1047.75,-322.96 1047.75,-300.96 803.75,-300.96"/>
<polygon fill="none" stroke="black" points="803.75,-300.96 803.75,-322.96 1047.75,-322.96 1047.75,-300.96 803.75,-300.96"/>
<image xlink:href="../../images/foreignKeys.png" width="11px" height="12px" preserveAspectRatio="xMinYMin meet" x="808.75" y="-317.956"/>
<text text-anchor="start" x="823.75" y="-307.51" font-family="Helvetica,sans-Serif" font-size="11.00">classement_pac</text>
<polygon fill="#ffffff" stroke="none" points="803.75,-278.96 803.75,-300.96 1047.75,-300.96 1047.75,-278.96 803.75,-278.96"/>
<polygon fill="none" stroke="black" points="803.75,-278.96 803.75,-300.96 1047.75,-300.96 1047.75,-278.96 803.75,-278.96"/>
<image xlink:href="../../images/foreignKeys.png" width="11px" height="12px" preserveAspectRatio="xMinYMin meet" x="808.75" y="-295.956"/>
<text text-anchor="start" x="823.75" y="-285.51" font-family="Helvetica,sans-Serif" font-size="11.00">workflow_model</text>
<polygon fill="#ffffff" stroke="none" points="803.75,-256.96 803.75,-278.96 1047.75,-278.96 1047.75,-256.96 803.75,-256.96"/>
<polygon fill="none" stroke="black" points="803.75,-256.96 803.75,-278.96 1047.75,-278.96 1047.75,-256.96 803.75,-256.96"/>
<image xlink:href="../../images/foreignKeys.png" width="11px" height="12px" preserveAspectRatio="xMinYMin meet" x="808.75" y="-273.956"/>
<text text-anchor="start" x="823.75" y="-263.51" font-family="Helvetica,sans-Serif" font-size="11.00">active_format_configuration</text>
<polygon fill="#ffffff" stroke="none" points="803.75,-234.96 803.75,-256.96 1047.75,-256.96 1047.75,-234.96 803.75,-234.96"/>
<polygon fill="none" stroke="black" points="803.75,-234.96 803.75,-256.96 1047.75,-256.96 1047.75,-234.96 803.75,-234.96"/>
<image xlink:href="../../images/foreignKeys.png" width="11px" height="12px" preserveAspectRatio="xMinYMin meet" x="808.75" y="-251.956"/>
<text text-anchor="start" x="823.75" y="-241.51" font-family="Helvetica,sans-Serif" font-size="11.00">omeka_configuration</text>
<polygon fill="#ffffff" stroke="none" points="803.75,-212.96 803.75,-234.96 1047.75,-234.96 1047.75,-212.96 803.75,-212.96"/>
<polygon fill="none" stroke="black" points="803.75,-212.96 803.75,-234.96 1047.75,-234.96 1047.75,-212.96 803.75,-212.96"/>
<image xlink:href="../../images/foreignKeys.png" width="11px" height="12px" preserveAspectRatio="xMinYMin meet" x="808.75" y="-229.956"/>
<text text-anchor="start" x="823.75" y="-219.51" font-family="Helvetica,sans-Serif" font-size="11.00">active_export_ftp_delivery_folder</text>
<polygon fill="none" stroke="black" points="803.75,-193.46 803.75,-212.96 1047.75,-212.96 1047.75,-193.46 803.75,-193.46"/>
<text text-anchor="start" x="806.75" y="-199.51" font-family="Helvetica,sans-Serif" font-size="11.00">...</text>
<polygon fill="#ffffff" stroke="none" points="803.75,-173.96 803.75,-193.46 893.58,-193.46 893.58,-173.96 803.75,-173.96"/>
<polygon fill="none" stroke="black" points="803.75,-173.96 803.75,-193.46 893.58,-193.46 893.58,-173.96 803.75,-173.96"/>
<text text-anchor="start" x="806.75" y="-180.01" font-family="Helvetica,sans-Serif" font-size="11.00">&lt; 14</text>
<polygon fill="#ffffff" stroke="none" points="893.58,-173.96 893.58,-193.46 964.67,-193.46 964.67,-173.96 893.58,-173.96"/>
<polygon fill="none" stroke="black" points="893.58,-173.96 893.58,-193.46 964.67,-193.46 964.67,-173.96 893.58,-173.96"/>
<text text-anchor="start" x="954.17" y="-180.01" font-family="Helvetica,sans-Serif" font-size="11.00"> &#160;</text>
<polygon fill="#ffffff" stroke="none" points="964.67,-173.96 964.67,-193.46 1047.75,-193.46 1047.75,-173.96 964.67,-173.96"/>
<polygon fill="none" stroke="black" points="964.67,-173.96 964.67,-193.46 1047.75,-193.46 1047.75,-173.96 964.67,-173.96"/>
<text text-anchor="start" x="1025.25" y="-180.01" font-family="Helvetica,sans-Serif" font-size="11.00">4 &gt;</text>
</a>
</g>
</g>
<!-- doc_unit&#45;&gt;lot_lot -->
<g id="edge4" class="edge">
<title>doc_unit:w&#45;&gt;lot_lot:e</title>
<path fill="none" stroke="black" d="M1080.35,-365.66C1025.24,-388.87 1130.02,-553.96 1048.75,-553.96"/>
<polygon fill="black" stroke="black" points="1087.54,-364.4 1096.04,-366.56 1091.81,-363.65 1095.09,-363.07 1095.09,-363.07 1095.09,-363.07 1091.81,-363.65 1094.8,-359.47 1087.54,-364.4"/>
<ellipse fill="none" stroke="black" cx="1082.7" cy="-365.25" rx="3.2" ry="3.2"/>
</g>
<!-- proj_project -->
<g id="node5" class="node">
<title>proj_project</title>
<g id="a_node5"><a xlink:href="../../tables/proj_project.html" xlink:title="proj_project" target="_top">
<polygon fill="#ffffff" stroke="none" points="510.75,-398.96 510.75,-769.46 754.75,-769.46 754.75,-398.96 510.75,-398.96"/>
<polygon fill="#f5f5f5" stroke="none" points="510.75,-745.96 510.75,-769.46 754.75,-769.46 754.75,-745.96 510.75,-745.96"/>
<polygon fill="none" stroke="black" points="510.75,-745.96 510.75,-769.46 754.75,-769.46 754.75,-745.96 510.75,-745.96"/>
<text text-anchor="start" x="515.75" y="-755.01" font-family="Helvetica,sans-Serif" font-weight="bold" font-size="11.00">proj_project</text>
<text text-anchor="start" x="713" y="-754.01" font-family="Helvetica,sans-Serif" font-size="11.00">[table]</text>
<polygon fill="none" stroke="black" points="510.75,-723.96 510.75,-745.96 754.75,-745.96 754.75,-723.96 510.75,-723.96"/>
<image xlink:href="../../images/primaryKeys.png" width="11px" height="12px" preserveAspectRatio="xMinYMin meet" x="515.75" y="-740.956"/>
<text text-anchor="start" x="530.75" y="-730.51" font-family="Helvetica,sans-Serif" font-size="11.00">identifier</text>
<polygon fill="#ffffff" stroke="none" points="510.75,-701.96 510.75,-723.96 754.75,-723.96 754.75,-701.96 510.75,-701.96"/>
<polygon fill="none" stroke="black" points="510.75,-701.96 510.75,-723.96 754.75,-723.96 754.75,-701.96 510.75,-701.96"/>
<image xlink:href="../../images/foreignKeys.png" width="11px" height="12px" preserveAspectRatio="xMinYMin meet" x="515.75" y="-718.956"/>
<text text-anchor="start" x="530.75" y="-708.51" font-family="Helvetica,sans-Serif" font-size="11.00">library</text>
<polygon fill="#ffffff" stroke="none" points="510.75,-679.96 510.75,-701.96 754.75,-701.96 754.75,-679.96 510.75,-679.96"/>
<polygon fill="none" stroke="black" points="510.75,-679.96 510.75,-701.96 754.75,-701.96 754.75,-679.96 510.75,-679.96"/>
<image xlink:href="../../images/foreignKeys.png" width="11px" height="12px" preserveAspectRatio="xMinYMin meet" x="515.75" y="-696.956"/>
<text text-anchor="start" x="530.75" y="-686.51" font-family="Helvetica,sans-Serif" font-size="11.00">active_configuration_ftp</text>
<polygon fill="#ffffff" stroke="none" points="510.75,-657.96 510.75,-679.96 754.75,-679.96 754.75,-657.96 510.75,-657.96"/>
<polygon fill="none" stroke="black" points="510.75,-657.96 510.75,-679.96 754.75,-679.96 754.75,-657.96 510.75,-657.96"/>
<image xlink:href="../../images/foreignKeys.png" width="11px" height="12px" preserveAspectRatio="xMinYMin meet" x="515.75" y="-674.956"/>
<text text-anchor="start" x="530.75" y="-664.51" font-family="Helvetica,sans-Serif" font-size="11.00">active_configuration_check</text>
<polygon fill="#ffffff" stroke="none" points="510.75,-635.96 510.75,-657.96 754.75,-657.96 754.75,-635.96 510.75,-635.96"/>
<polygon fill="none" stroke="black" points="510.75,-635.96 510.75,-657.96 754.75,-657.96 754.75,-635.96 510.75,-635.96"/>
<image xlink:href="../../images/foreignKeys.png" width="11px" height="12px" preserveAspectRatio="xMinYMin meet" x="515.75" y="-652.956"/>
<text text-anchor="start" x="530.75" y="-642.51" font-family="Helvetica,sans-Serif" font-size="11.00">provider</text>
<polygon fill="#ffffff" stroke="none" points="510.75,-613.96 510.75,-635.96 754.75,-635.96 754.75,-613.96 510.75,-613.96"/>
<polygon fill="none" stroke="black" points="510.75,-613.96 510.75,-635.96 754.75,-635.96 754.75,-613.96 510.75,-613.96"/>
<image xlink:href="../../images/foreignKeys.png" width="11px" height="12px" preserveAspectRatio="xMinYMin meet" x="515.75" y="-630.956"/>
<text text-anchor="start" x="530.75" y="-620.51" font-family="Helvetica,sans-Serif" font-size="11.00">collection_omeka</text>
<polygon fill="#ffffff" stroke="none" points="510.75,-591.96 510.75,-613.96 754.75,-613.96 754.75,-591.96 510.75,-591.96"/>
<polygon fill="none" stroke="black" points="510.75,-591.96 510.75,-613.96 754.75,-613.96 754.75,-591.96 510.75,-591.96"/>
<image xlink:href="../../images/foreignKeys.png" width="11px" height="12px" preserveAspectRatio="xMinYMin meet" x="515.75" y="-608.956"/>
<text text-anchor="start" x="530.75" y="-598.51" font-family="Helvetica,sans-Serif" font-size="11.00">items_omeka</text>
<polygon fill="#ffffff" stroke="none" points="510.75,-569.96 510.75,-591.96 754.75,-591.96 754.75,-569.96 510.75,-569.96"/>
<polygon fill="none" stroke="black" points="510.75,-569.96 510.75,-591.96 754.75,-591.96 754.75,-569.96 510.75,-569.96"/>
<image xlink:href="../../images/foreignKeys.png" width="11px" height="12px" preserveAspectRatio="xMinYMin meet" x="515.75" y="-586.956"/>
<text text-anchor="start" x="530.75" y="-576.51" font-family="Helvetica,sans-Serif" font-size="11.00">active_configuration_export_ftp</text>
<polygon fill="#ffffff" stroke="none" points="510.75,-547.96 510.75,-569.96 754.75,-569.96 754.75,-547.96 510.75,-547.96"/>
<polygon fill="none" stroke="black" points="510.75,-547.96 510.75,-569.96 754.75,-569.96 754.75,-547.96 510.75,-547.96"/>
<image xlink:href="../../images/foreignKeys.png" width="11px" height="12px" preserveAspectRatio="xMinYMin meet" x="515.75" y="-564.956"/>
<text text-anchor="start" x="530.75" y="-554.51" font-family="Helvetica,sans-Serif" font-size="11.00">collection_ia</text>
<polygon fill="#ffffff" stroke="none" points="510.75,-525.96 510.75,-547.96 754.75,-547.96 754.75,-525.96 510.75,-525.96"/>
<polygon fill="none" stroke="black" points="510.75,-525.96 510.75,-547.96 754.75,-547.96 754.75,-525.96 510.75,-525.96"/>
<image xlink:href="../../images/foreignKeys.png" width="11px" height="12px" preserveAspectRatio="xMinYMin meet" x="515.75" y="-542.956"/>
<text text-anchor="start" x="530.75" y="-532.51" font-family="Helvetica,sans-Serif" font-size="11.00">classement_pac</text>
<polygon fill="#ffffff" stroke="none" points="510.75,-503.96 510.75,-525.96 754.75,-525.96 754.75,-503.96 510.75,-503.96"/>
<polygon fill="none" stroke="black" points="510.75,-503.96 510.75,-525.96 754.75,-525.96 754.75,-503.96 510.75,-503.96"/>
<image xlink:href="../../images/foreignKeys.png" width="11px" height="12px" preserveAspectRatio="xMinYMin meet" x="515.75" y="-520.956"/>
<text text-anchor="start" x="530.75" y="-510.51" font-family="Helvetica,sans-Serif" font-size="11.00">workflow_model</text>
<polygon fill="#ffffff" stroke="none" points="510.75,-481.96 510.75,-503.96 754.75,-503.96 754.75,-481.96 510.75,-481.96"/>
<polygon fill="none" stroke="black" points="510.75,-481.96 510.75,-503.96 754.75,-503.96 754.75,-481.96 510.75,-481.96"/>
<image xlink:href="../../images/foreignKeys.png" width="11px" height="12px" preserveAspectRatio="xMinYMin meet" x="515.75" y="-498.956"/>
<text text-anchor="start" x="530.75" y="-488.51" font-family="Helvetica,sans-Serif" font-size="11.00">active_format_configuration</text>
<polygon fill="#ffffff" stroke="none" points="510.75,-459.96 510.75,-481.96 754.75,-481.96 754.75,-459.96 510.75,-459.96"/>
<polygon fill="none" stroke="black" points="510.75,-459.96 510.75,-481.96 754.75,-481.96 754.75,-459.96 510.75,-459.96"/>
<image xlink:href="../../images/foreignKeys.png" width="11px" height="12px" preserveAspectRatio="xMinYMin meet" x="515.75" y="-476.956"/>
<text text-anchor="start" x="530.75" y="-466.51" font-family="Helvetica,sans-Serif" font-size="11.00">omeka_configuration</text>
<polygon fill="#ffffff" stroke="none" points="510.75,-437.96 510.75,-459.96 754.75,-459.96 754.75,-437.96 510.75,-437.96"/>
<polygon fill="none" stroke="black" points="510.75,-437.96 510.75,-459.96 754.75,-459.96 754.75,-437.96 510.75,-437.96"/>
<image xlink:href="../../images/foreignKeys.png" width="11px" height="12px" preserveAspectRatio="xMinYMin meet" x="515.75" y="-454.956"/>
<text text-anchor="start" x="530.75" y="-444.51" font-family="Helvetica,sans-Serif" font-size="11.00">active_export_ftp_delivery_folder</text>
<polygon fill="none" stroke="black" points="510.75,-418.46 510.75,-437.96 754.75,-437.96 754.75,-418.46 510.75,-418.46"/>
<text text-anchor="start" x="513.75" y="-424.51" font-family="Helvetica,sans-Serif" font-size="11.00">...</text>
<polygon fill="#ffffff" stroke="none" points="510.75,-398.96 510.75,-418.46 600.58,-418.46 600.58,-398.96 510.75,-398.96"/>
<polygon fill="none" stroke="black" points="510.75,-398.96 510.75,-418.46 600.58,-418.46 600.58,-398.96 510.75,-398.96"/>
<text text-anchor="start" x="513.75" y="-405.01" font-family="Helvetica,sans-Serif" font-size="11.00">&lt; 13</text>
<polygon fill="#ffffff" stroke="none" points="600.58,-398.96 600.58,-418.46 671.67,-418.46 671.67,-398.96 600.58,-398.96"/>
<polygon fill="none" stroke="black" points="600.58,-398.96 600.58,-418.46 671.67,-418.46 671.67,-398.96 600.58,-398.96"/>
<text text-anchor="start" x="661.17" y="-405.01" font-family="Helvetica,sans-Serif" font-size="11.00"> &#160;</text>
<polygon fill="#ffffff" stroke="none" points="671.67,-398.96 671.67,-418.46 754.75,-418.46 754.75,-398.96 671.67,-398.96"/>
<polygon fill="none" stroke="black" points="671.67,-398.96 671.67,-418.46 754.75,-418.46 754.75,-398.96 671.67,-398.96"/>
<text text-anchor="start" x="732.25" y="-405.01" font-family="Helvetica,sans-Serif" font-size="11.00">7 &gt;</text>
</a>
</g>
</g>
<!-- doc_unit&#45;&gt;proj_project -->
<g id="edge5" class="edge">
<title>doc_unit:w&#45;&gt;proj_project:e</title>
<path fill="none" stroke="black" d="M1080.03,-408.73C1022.02,-424.14 1106.48,-535.89 1055.75,-599.21 964.24,-713.42 902.1,-734.96 755.75,-734.96"/>
<polygon fill="black" stroke="black" points="1087.47,-407.89 1095.82,-410.57 1091.78,-407.41 1095.09,-407.03 1095.09,-407.03 1095.09,-407.03 1091.78,-407.41 1095.01,-403.42 1087.47,-407.89"/>
<ellipse fill="none" stroke="black" cx="1082.58" cy="-408.45" rx="3.2" ry="3.2"/>
</g>
<!-- lot_lot&#45;&gt;conf_lists_omeka -->
<g id="edge6" class="edge">
<title>lot_lot:w&#45;&gt;conf_lists_omeka:e</title>
<path fill="none" stroke="black" d="M788.09,-416.28C780.15,-408.23 778.11,-393.82 762.75,-388.21 654.22,-348.54 615.88,-364.63 502.75,-388.21 478.78,-393.2 476.73,-410.21 452.25,-410.21"/>
<polygon fill="black" stroke="black" points="794.98,-418.95 801.14,-425.19 799.02,-420.51 802.13,-421.71 802.13,-421.71 802.13,-421.71 799.02,-420.51 803.74,-418.48 794.98,-418.95"/>
<ellipse fill="none" stroke="black" cx="790.39" cy="-417.17" rx="3.2" ry="3.2"/>
</g>
<!-- lot_lot&#45;&gt;conf_lists_omeka -->
<g id="edge7" class="edge">
<title>lot_lot:w&#45;&gt;conf_lists_omeka:e</title>
<path fill="none" stroke="black" d="M788.16,-394.07C779.9,-384.98 779.24,-367.88 762.75,-361.21 655.64,-317.83 609.84,-317.79 502.75,-361.21 473.77,-372.96 483.52,-410.21 452.25,-410.21"/>
<polygon fill="black" stroke="black" points="795.02,-396.84 801.09,-403.17 799.04,-398.46 802.13,-399.71 802.13,-399.71 802.13,-399.71 799.04,-398.46 803.79,-396.49 795.02,-396.84"/>
<ellipse fill="none" stroke="black" cx="790.46" cy="-395" rx="3.2" ry="3.2"/>
</g>
<!-- lot_lot&#45;&gt;conf_omeka -->
<g id="edge8" class="edge">
<title>lot_lot:w&#45;&gt;conf_omeka:e</title>
<path fill="none" stroke="black" d="M787.08,-245.71C527.55,-237.39 404.27,-26.02 197,-191.21 134.69,-240.86 236.68,-365.96 157,-365.96"/>
<polygon fill="black" stroke="black" points="794.42,-245.82 802.36,-249.55 798.75,-245.89 802.08,-245.95 802.08,-245.95 802.08,-245.95 798.75,-245.89 802.47,-242.35 794.42,-245.82"/>
<ellipse fill="none" stroke="black" cx="789.5" cy="-245.74" rx="3.2" ry="3.2"/>
</g>
<!-- lot_lot&#45;&gt;proj_project -->
<g id="edge9" class="edge">
<title>lot_lot:w&#45;&gt;proj_project:e</title>
<path fill="none" stroke="black" d="M787.36,-512.18C718.14,-535.55 851.92,-734.96 755.75,-734.96"/>
<polygon fill="black" stroke="black" points="794.5,-511.15 802.93,-513.57 798.79,-510.53 802.09,-510.05 802.09,-510.05 802.09,-510.05 798.79,-510.53 801.9,-506.44 794.5,-511.15"/>
<ellipse fill="none" stroke="black" cx="789.63" cy="-511.85" rx="3.2" ry="3.2"/>
</g>
<!-- proj_project&#45;&gt;conf_lists_omeka -->
<g id="edge10" class="edge">
<title>proj_project:w&#45;&gt;conf_lists_omeka:e</title>
<path fill="none" stroke="black" d="M494.32,-622.69C427.03,-599.74 545.07,-410.21 452.25,-410.21"/>
<polygon fill="black" stroke="black" points="501.5,-623.74 508.9,-628.47 505.79,-624.37 509.09,-624.86 509.09,-624.86 509.09,-624.86 505.79,-624.37 509.94,-621.35 501.5,-623.74"/>
<ellipse fill="none" stroke="black" cx="496.64" cy="-623.03" rx="3.2" ry="3.2"/>
</g>
<!-- proj_project&#45;&gt;conf_lists_omeka -->
<g id="edge11" class="edge">
<title>proj_project:w&#45;&gt;conf_lists_omeka:e</title>
<path fill="none" stroke="black" d="M494.24,-600.38C435.95,-577.5 535.54,-410.21 452.25,-410.21"/>
<polygon fill="black" stroke="black" points="501.53,-601.59 508.83,-606.45 505.8,-602.3 509.09,-602.85 509.09,-602.85 509.09,-602.85 505.8,-602.3 510.01,-599.35 501.53,-601.59"/>
<ellipse fill="none" stroke="black" cx="496.68" cy="-600.78" rx="3.2" ry="3.2"/>
</g>
<!-- proj_project&#45;&gt;conf_omeka -->
<g id="edge12" class="edge">
<title>proj_project:w&#45;&gt;conf_omeka:e</title>
<path fill="none" stroke="black" d="M494.19,-471.23C366.05,-475.69 307.4,-532.86 197,-457.21 160.47,-432.17 201.28,-365.96 157,-365.96"/>
<polygon fill="black" stroke="black" points="501.42,-471.1 509.48,-474.56 505.75,-471.03 509.08,-470.97 509.08,-470.97 509.08,-470.97 505.75,-471.03 509.35,-467.36 501.42,-471.1"/>
<ellipse fill="none" stroke="black" cx="496.5" cy="-471.19" rx="3.2" ry="3.2"/>
</g>
</g>
</svg>
