<?xml version="1.0" encoding="UTF-8" standalone="no"?>
<!DOCTYPE svg PUBLIC "-//W3C//DTD SVG 1.1//EN"
 "http://www.w3.org/Graphics/SVG/1.1/DTD/svg11.dtd">
<!-- Generated by graphviz version 12.2.0 (0)
 -->
<!-- Title: oneDegreeRelationshipsDiagram Pages: 1 -->
<svg width="324pt" height="406pt"
 viewBox="0.00 0.00 324.38 405.50" xmlns="http://www.w3.org/2000/svg" xmlns:xlink="http://www.w3.org/1999/xlink">
<g id="graph0" class="graph" transform="scale(1 1) rotate(0) translate(4 401.5)">
<title>oneDegreeRelationshipsDiagram</title>
<polygon fill="#ffffff" stroke="none" points="-4,4 -4,-401.5 320.38,-401.5 320.38,4 -4,4"/>
<text text-anchor="middle" x="79.25" y="-7.05" font-family="Helvetica,sans-Serif" font-size="11.00">Generated by SchemaSpy</text>
<!-- DATABASECHANGELOG -->
<g id="node1" class="node">
<title>DATABASECHANGELOG</title>
<g id="a_node1"><a xlink:href="../../tables/DATABASECHANGELOG.html" xlink:title="DATABASECHANGELOG" target="_top">
<polygon fill="#ffffff" stroke="none" points="8,-38.5 8,-393.5 308.38,-393.5 308.38,-38.5 8,-38.5"/>
<polygon fill="#f5f5f5" stroke="none" points="10,-368 10,-391.5 306.38,-391.5 306.38,-368 10,-368"/>
<polygon fill="none" stroke="black" points="10,-368 10,-391.5 306.38,-391.5 306.38,-368 10,-368"/>
<text text-anchor="start" x="15" y="-377.05" font-family="Helvetica,sans-Serif" font-weight="bold" font-size="11.00">DATABASECHANGELOG</text>
<text text-anchor="start" x="264.62" y="-376.05" font-family="Helvetica,sans-Serif" font-size="11.00">[table]</text>
<polygon fill="none" stroke="black" points="10,-346 10,-368 186,-368 186,-346 10,-346"/>
<text text-anchor="start" x="30" y="-352.55" font-family="Helvetica,sans-Serif" font-size="11.00">ID</text>
<polygon fill="none" stroke="black" points="186,-346 186,-368 285.19,-368 285.19,-346 186,-346"/>
<text text-anchor="start" x="189" y="-353.3" font-family="Helvetica,sans-Serif" font-size="11.00">varchar[255]</text>
<polygon fill="none" stroke="black" points="10,-324 10,-346 186,-346 186,-324 10,-324"/>
<text text-anchor="start" x="30" y="-330.55" font-family="Helvetica,sans-Serif" font-size="11.00">AUTHOR</text>
<polygon fill="none" stroke="black" points="186,-324 186,-346 285.19,-346 285.19,-324 186,-324"/>
<text text-anchor="start" x="189" y="-331.3" font-family="Helvetica,sans-Serif" font-size="11.00">varchar[255]</text>
<polygon fill="none" stroke="black" points="10,-302 10,-324 186,-324 186,-302 10,-302"/>
<text text-anchor="start" x="30" y="-308.55" font-family="Helvetica,sans-Serif" font-size="11.00">FILENAME</text>
<polygon fill="none" stroke="black" points="186,-302 186,-324 285.19,-324 285.19,-302 186,-302"/>
<text text-anchor="start" x="189" y="-309.3" font-family="Helvetica,sans-Serif" font-size="11.00">varchar[255]</text>
<polygon fill="none" stroke="black" points="10,-280 10,-302 186,-302 186,-280 10,-280"/>
<text text-anchor="start" x="30" y="-286.55" font-family="Helvetica,sans-Serif" font-size="11.00">DATEEXECUTED</text>
<polygon fill="none" stroke="black" points="186,-280 186,-302 285.19,-302 285.19,-280 186,-280"/>
<text text-anchor="start" x="189" y="-287.3" font-family="Helvetica,sans-Serif" font-size="11.00">datetime[19]</text>
<polygon fill="none" stroke="black" points="10,-258 10,-280 186,-280 186,-258 10,-258"/>
<text text-anchor="start" x="30" y="-264.55" font-family="Helvetica,sans-Serif" font-size="11.00">ORDEREXECUTED</text>
<polygon fill="none" stroke="black" points="186,-258 186,-280 285.19,-280 285.19,-258 186,-258"/>
<text text-anchor="start" x="189" y="-265.3" font-family="Helvetica,sans-Serif" font-size="11.00">int[10]</text>
<polygon fill="none" stroke="black" points="10,-236 10,-258 186,-258 186,-236 10,-236"/>
<text text-anchor="start" x="30" y="-242.55" font-family="Helvetica,sans-Serif" font-size="11.00">EXECTYPE</text>
<polygon fill="none" stroke="black" points="186,-236 186,-258 285.19,-258 285.19,-236 186,-236"/>
<text text-anchor="start" x="189" y="-243.3" font-family="Helvetica,sans-Serif" font-size="11.00">varchar[10]</text>
<polygon fill="none" stroke="black" points="10,-214 10,-236 186,-236 186,-214 10,-214"/>
<text text-anchor="start" x="30" y="-220.55" font-family="Helvetica,sans-Serif" font-size="11.00">MD5SUM</text>
<polygon fill="none" stroke="black" points="186,-214 186,-236 285.19,-236 285.19,-214 186,-214"/>
<text text-anchor="start" x="189" y="-221.3" font-family="Helvetica,sans-Serif" font-size="11.00">varchar[35]</text>
<polygon fill="none" stroke="black" points="10,-192 10,-214 186,-214 186,-192 10,-192"/>
<text text-anchor="start" x="30" y="-198.55" font-family="Helvetica,sans-Serif" font-size="11.00">DESCRIPTION</text>
<polygon fill="none" stroke="black" points="186,-192 186,-214 285.19,-214 285.19,-192 186,-192"/>
<text text-anchor="start" x="189" y="-199.3" font-family="Helvetica,sans-Serif" font-size="11.00">varchar[255]</text>
<polygon fill="none" stroke="black" points="10,-170 10,-192 186,-192 186,-170 10,-170"/>
<text text-anchor="start" x="30" y="-176.55" font-family="Helvetica,sans-Serif" font-size="11.00">COMMENTS</text>
<polygon fill="none" stroke="black" points="186,-170 186,-192 285.19,-192 285.19,-170 186,-170"/>
<text text-anchor="start" x="189" y="-177.3" font-family="Helvetica,sans-Serif" font-size="11.00">varchar[255]</text>
<polygon fill="none" stroke="black" points="10,-148 10,-170 186,-170 186,-148 10,-148"/>
<text text-anchor="start" x="30" y="-154.55" font-family="Helvetica,sans-Serif" font-size="11.00">TAG</text>
<polygon fill="none" stroke="black" points="186,-148 186,-170 285.19,-170 285.19,-148 186,-148"/>
<text text-anchor="start" x="189" y="-155.3" font-family="Helvetica,sans-Serif" font-size="11.00">varchar[255]</text>
<polygon fill="none" stroke="black" points="10,-126 10,-148 186,-148 186,-126 10,-126"/>
<text text-anchor="start" x="30" y="-132.55" font-family="Helvetica,sans-Serif" font-size="11.00">LIQUIBASE</text>
<polygon fill="none" stroke="black" points="186,-126 186,-148 285.19,-148 285.19,-126 186,-126"/>
<text text-anchor="start" x="189" y="-133.3" font-family="Helvetica,sans-Serif" font-size="11.00">varchar[20]</text>
<polygon fill="none" stroke="black" points="10,-104 10,-126 186,-126 186,-104 10,-104"/>
<text text-anchor="start" x="30" y="-110.55" font-family="Helvetica,sans-Serif" font-size="11.00">CONTEXTS</text>
<polygon fill="none" stroke="black" points="186,-104 186,-126 285.19,-126 285.19,-104 186,-104"/>
<text text-anchor="start" x="189" y="-111.3" font-family="Helvetica,sans-Serif" font-size="11.00">varchar[255]</text>
<polygon fill="none" stroke="black" points="10,-82 10,-104 186,-104 186,-82 10,-82"/>
<text text-anchor="start" x="30" y="-88.55" font-family="Helvetica,sans-Serif" font-size="11.00">LABELS</text>
<polygon fill="none" stroke="black" points="186,-82 186,-104 285.19,-104 285.19,-82 186,-82"/>
<text text-anchor="start" x="189" y="-89.3" font-family="Helvetica,sans-Serif" font-size="11.00">varchar[255]</text>
<polygon fill="none" stroke="black" points="10,-60 10,-82 186,-82 186,-60 10,-60"/>
<text text-anchor="start" x="30" y="-66.55" font-family="Helvetica,sans-Serif" font-size="11.00">DEPLOYMENT_ID</text>
<polygon fill="none" stroke="black" points="186,-60 186,-82 285.19,-82 285.19,-60 186,-60"/>
<text text-anchor="start" x="189" y="-67.3" font-family="Helvetica,sans-Serif" font-size="11.00">varchar[10]</text>
<polygon fill="#ffffff" stroke="none" points="10,-40.5 10,-60 104,-60 104,-40.5 10,-40.5"/>
<polygon fill="none" stroke="black" points="10,-40.5 10,-60 104,-60 104,-40.5 10,-40.5"/>
<text text-anchor="start" x="13" y="-46.55" font-family="Helvetica,sans-Serif" font-size="11.00">&lt; 0</text>
<polygon fill="#ffffff" stroke="none" points="104,-40.5 104,-60 186,-60 186,-40.5 104,-40.5"/>
<polygon fill="none" stroke="black" points="104,-40.5 104,-60 186,-60 186,-40.5 104,-40.5"/>
<text text-anchor="start" x="175.5" y="-46.55" font-family="Helvetica,sans-Serif" font-size="11.00"> &#160;</text>
<polygon fill="#ffffff" stroke="none" points="186,-40.5 186,-60 285.19,-60 285.19,-40.5 186,-40.5"/>
<polygon fill="none" stroke="black" points="186,-40.5 186,-60 285.19,-60 285.19,-40.5 186,-40.5"/>
<text text-anchor="start" x="262.69" y="-46.55" font-family="Helvetica,sans-Serif" font-size="11.00">0 &gt;</text>
<polygon fill="none" stroke="black" stroke-width="2" points="9,-39.5 9,-392.5 307.38,-392.5 307.38,-39.5 9,-39.5"/>
</a>
</g>
</g>
</g>
</svg>
