<?xml version="1.0" encoding="UTF-8" standalone="no"?>
<!DOCTYPE svg PUBLIC "-//W3C//DTD SVG 1.1//EN"
 "http://www.w3.org/Graphics/SVG/1.1/DTD/svg11.dtd">
<!-- Generated by graphviz version 12.2.0 (0)
 -->
<!-- Title: twoDegreesRelationshipsDiagram Pages: 1 -->
<svg width="957pt" height="503pt"
 viewBox="0.00 0.00 956.50 503.00" xmlns="http://www.w3.org/2000/svg" xmlns:xlink="http://www.w3.org/1999/xlink">
<g id="graph0" class="graph" transform="scale(1 1) rotate(0) translate(4 499)">
<title>twoDegreesRelationshipsDiagram</title>
<polygon fill="#ffffff" stroke="none" points="-4,4 -4,-499 952.5,-499 952.5,4 -4,4"/>
<text text-anchor="middle" x="79.25" y="-7.05" font-family="Helvetica,sans-Serif" font-size="11.00">Generated by SchemaSpy</text>
<!-- check_automatic_result -->
<g id="node1" class="node">
<title>check_automatic_result</title>
<g id="a_node1"><a xlink:href="../../tables/check_automatic_result.html" xlink:title="check_automatic_result" target="_top">
<polygon fill="#ffffff" stroke="none" points="521.25,-428.5 521.25,-491 726,-491 726,-428.5 521.25,-428.5"/>
<polygon fill="#f5f5f5" stroke="none" points="521.25,-467.5 521.25,-491 726,-491 726,-467.5 521.25,-467.5"/>
<polygon fill="none" stroke="black" points="521.25,-467.5 521.25,-491 726,-491 726,-467.5 521.25,-467.5"/>
<text text-anchor="start" x="526.25" y="-476.55" font-family="Helvetica,sans-Serif" font-weight="bold" font-size="11.00">check_automatic_result</text>
<text text-anchor="start" x="684.25" y="-475.55" font-family="Helvetica,sans-Serif" font-size="11.00">[table]</text>
<polygon fill="none" stroke="black" points="521.25,-448 521.25,-467.5 726,-467.5 726,-448 521.25,-448"/>
<text text-anchor="start" x="524.25" y="-454.05" font-family="Helvetica,sans-Serif" font-size="11.00">...</text>
<polygon fill="#ffffff" stroke="none" points="521.25,-428.5 521.25,-448 597.5,-448 597.5,-428.5 521.25,-428.5"/>
<polygon fill="none" stroke="black" points="521.25,-428.5 521.25,-448 597.5,-448 597.5,-428.5 521.25,-428.5"/>
<text text-anchor="start" x="524.25" y="-434.55" font-family="Helvetica,sans-Serif" font-size="11.00">&lt; 6</text>
<polygon fill="#ffffff" stroke="none" points="597.5,-428.5 597.5,-448 661.75,-448 661.75,-428.5 597.5,-428.5"/>
<polygon fill="none" stroke="black" points="597.5,-428.5 597.5,-448 661.75,-448 661.75,-428.5 597.5,-428.5"/>
<text text-anchor="start" x="651.25" y="-434.55" font-family="Helvetica,sans-Serif" font-size="11.00"> &#160;</text>
<polygon fill="#ffffff" stroke="none" points="661.75,-428.5 661.75,-448 726,-448 726,-428.5 661.75,-428.5"/>
<polygon fill="none" stroke="black" points="661.75,-428.5 661.75,-448 726,-448 726,-428.5 661.75,-428.5"/>
<text text-anchor="start" x="715.5" y="-434.55" font-family="Helvetica,sans-Serif" font-size="11.00"> &#160;</text>
</a>
</g>
</g>
<!-- del_delivery -->
<g id="node2" class="node">
<title>del_delivery</title>
<g id="a_node2"><a xlink:href="../../tables/del_delivery.html" xlink:title="del_delivery" target="_top">
<polygon fill="#ffffff" stroke="none" points="256.75,-225.5 256.75,-354 454.75,-354 454.75,-225.5 256.75,-225.5"/>
<polygon fill="#f5f5f5" stroke="none" points="256.75,-330.5 256.75,-354 454.75,-354 454.75,-330.5 256.75,-330.5"/>
<polygon fill="none" stroke="black" points="256.75,-330.5 256.75,-354 454.75,-354 454.75,-330.5 256.75,-330.5"/>
<text text-anchor="start" x="261.75" y="-339.55" font-family="Helvetica,sans-Serif" font-weight="bold" font-size="11.00">del_delivery</text>
<text text-anchor="start" x="413" y="-338.55" font-family="Helvetica,sans-Serif" font-size="11.00">[table]</text>
<polygon fill="none" stroke="black" points="256.75,-308.5 256.75,-330.5 454.75,-330.5 454.75,-308.5 256.75,-308.5"/>
<image xlink:href="../../images/primaryKeys.png" width="11px" height="12px" preserveAspectRatio="xMinYMin meet" x="261.75" y="-325.5"/>
<text text-anchor="start" x="276.75" y="-315.05" font-family="Helvetica,sans-Serif" font-size="11.00">identifier</text>
<polygon fill="#ffffff" stroke="none" points="256.75,-286.5 256.75,-308.5 454.75,-308.5 454.75,-286.5 256.75,-286.5"/>
<polygon fill="none" stroke="black" points="256.75,-286.5 256.75,-308.5 454.75,-308.5 454.75,-286.5 256.75,-286.5"/>
<image xlink:href="../../images/foreignKeys.png" width="11px" height="12px" preserveAspectRatio="xMinYMin meet" x="261.75" y="-303.5"/>
<text text-anchor="start" x="276.75" y="-293.05" font-family="Helvetica,sans-Serif" font-size="11.00">lot_identifier</text>
<polygon fill="#ffffff" stroke="none" points="256.75,-264.5 256.75,-286.5 454.75,-286.5 454.75,-264.5 256.75,-264.5"/>
<polygon fill="none" stroke="black" points="256.75,-264.5 256.75,-286.5 454.75,-286.5 454.75,-264.5 256.75,-264.5"/>
<image xlink:href="../../images/foreignKeys.png" width="11px" height="12px" preserveAspectRatio="xMinYMin meet" x="261.75" y="-281.5"/>
<text text-anchor="start" x="276.75" y="-271.05" font-family="Helvetica,sans-Serif" font-size="11.00">multi_lots_delivery</text>
<polygon fill="none" stroke="black" points="256.75,-245 256.75,-264.5 454.75,-264.5 454.75,-245 256.75,-245"/>
<text text-anchor="start" x="259.75" y="-251.05" font-family="Helvetica,sans-Serif" font-size="11.00">...</text>
<polygon fill="#ffffff" stroke="none" points="256.75,-225.5 256.75,-245 326.75,-245 326.75,-225.5 256.75,-225.5"/>
<polygon fill="none" stroke="black" points="256.75,-225.5 256.75,-245 326.75,-245 326.75,-225.5 256.75,-225.5"/>
<text text-anchor="start" x="259.75" y="-231.55" font-family="Helvetica,sans-Serif" font-size="11.00">&lt; 2</text>
<polygon fill="#ffffff" stroke="none" points="326.75,-225.5 326.75,-245 384.75,-245 384.75,-225.5 326.75,-225.5"/>
<polygon fill="none" stroke="black" points="326.75,-225.5 326.75,-245 384.75,-245 384.75,-225.5 326.75,-225.5"/>
<text text-anchor="start" x="374.25" y="-231.55" font-family="Helvetica,sans-Serif" font-size="11.00"> &#160;</text>
<polygon fill="#ffffff" stroke="none" points="384.75,-225.5 384.75,-245 454.75,-245 454.75,-225.5 384.75,-225.5"/>
<polygon fill="none" stroke="black" points="384.75,-225.5 384.75,-245 454.75,-245 454.75,-225.5 384.75,-225.5"/>
<text text-anchor="start" x="432.25" y="-231.55" font-family="Helvetica,sans-Serif" font-size="11.00">4 &gt;</text>
</a>
</g>
</g>
<!-- check_automatic_result&#45;&gt;del_delivery -->
<g id="edge1" class="edge">
<title>check_automatic_result:w&#45;&gt;del_delivery:e</title>
<path fill="none" stroke="black" d="M504.87,-454.47C464.33,-433.53 517.33,-319.5 455.75,-319.5"/>
<polygon fill="black" stroke="black" points="512.1,-456.01 519.17,-461.2 516.34,-456.92 519.6,-457.61 519.6,-457.61 519.6,-457.61 516.34,-456.92 520.67,-454.16 512.1,-456.01"/>
<ellipse fill="none" stroke="black" cx="507.29" cy="-454.98" rx="3.2" ry="3.2"/>
</g>
<!-- lot_lot -->
<g id="node4" class="node">
<title>lot_lot</title>
<g id="a_node4"><a xlink:href="../../tables/lot_lot.html" xlink:title="lot_lot" target="_top">
<polygon fill="#ffffff" stroke="none" points="63.5,-299.5 63.5,-362 152.25,-362 152.25,-299.5 63.5,-299.5"/>
<polygon fill="#f5f5f5" stroke="none" points="63.5,-338.5 63.5,-362 152.25,-362 152.25,-338.5 63.5,-338.5"/>
<polygon fill="none" stroke="black" points="63.5,-338.5 63.5,-362 152.25,-362 152.25,-338.5 63.5,-338.5"/>
<text text-anchor="start" x="68.38" y="-347.55" font-family="Helvetica,sans-Serif" font-weight="bold" font-size="11.00">lot_lot</text>
<text text-anchor="start" x="110.5" y="-346.55" font-family="Helvetica,sans-Serif" font-size="11.00">[table]</text>
<polygon fill="none" stroke="black" points="63.5,-319 63.5,-338.5 152.25,-338.5 152.25,-319 63.5,-319"/>
<text text-anchor="start" x="66.5" y="-325.05" font-family="Helvetica,sans-Serif" font-size="11.00">...</text>
<polygon fill="#ffffff" stroke="none" points="63.5,-299.5 63.5,-319 101.58,-319 101.58,-299.5 63.5,-299.5"/>
<polygon fill="none" stroke="black" points="63.5,-299.5 63.5,-319 101.58,-319 101.58,-299.5 63.5,-299.5"/>
<text text-anchor="start" x="66.5" y="-305.55" font-family="Helvetica,sans-Serif" font-size="11.00">&lt; 14</text>
<polygon fill="#ffffff" stroke="none" points="101.58,-299.5 101.58,-319 120.92,-319 120.92,-299.5 101.58,-299.5"/>
<polygon fill="none" stroke="black" points="101.58,-299.5 101.58,-319 120.92,-319 120.92,-299.5 101.58,-299.5"/>
<text text-anchor="start" x="110.42" y="-305.55" font-family="Helvetica,sans-Serif" font-size="11.00"> &#160;</text>
<polygon fill="#ffffff" stroke="none" points="120.92,-299.5 120.92,-319 152.25,-319 152.25,-299.5 120.92,-299.5"/>
<polygon fill="none" stroke="black" points="120.92,-299.5 120.92,-319 152.25,-319 152.25,-299.5 120.92,-299.5"/>
<text text-anchor="start" x="129.75" y="-305.55" font-family="Helvetica,sans-Serif" font-size="11.00">4 &gt;</text>
</a>
</g>
</g>
<!-- del_delivery&#45;&gt;lot_lot -->
<g id="edge3" class="edge">
<title>del_delivery:w&#45;&gt;lot_lot:e</title>
<path fill="none" stroke="black" d="M240.08,-298.76C205.78,-304.61 195.11,-328.75 153.25,-328.75"/>
<polygon fill="black" stroke="black" points="247.44,-298.17 255.71,-301.12 251.76,-297.82 255.08,-297.55 255.08,-297.55 255.08,-297.55 251.76,-297.82 255.13,-293.94 247.44,-298.17"/>
<ellipse fill="none" stroke="black" cx="242.54" cy="-298.57" rx="3.2" ry="3.2"/>
</g>
<!-- del_multi_lots_delivery -->
<g id="node5" class="node">
<title>del_multi_lots_delivery</title>
<g id="a_node5"><a xlink:href="../../tables/del_multi_lots_delivery.html" xlink:title="del_multi_lots_delivery" target="_top">
<polygon fill="#ffffff" stroke="none" points="8,-215.5 8,-278 207.75,-278 207.75,-215.5 8,-215.5"/>
<polygon fill="#f5f5f5" stroke="none" points="8,-254.5 8,-278 207.75,-278 207.75,-254.5 8,-254.5"/>
<polygon fill="none" stroke="black" points="8,-254.5 8,-278 207.75,-278 207.75,-254.5 8,-254.5"/>
<text text-anchor="start" x="13" y="-263.55" font-family="Helvetica,sans-Serif" font-weight="bold" font-size="11.00">del_multi_lots_delivery</text>
<text text-anchor="start" x="166" y="-262.55" font-family="Helvetica,sans-Serif" font-size="11.00">[table]</text>
<polygon fill="none" stroke="black" points="8,-235 8,-254.5 207.75,-254.5 207.75,-235 8,-235"/>
<text text-anchor="start" x="11" y="-241.05" font-family="Helvetica,sans-Serif" font-size="11.00">...</text>
<polygon fill="#ffffff" stroke="none" points="8,-215.5 8,-235 70.58,-235 70.58,-215.5 8,-215.5"/>
<polygon fill="none" stroke="black" points="8,-215.5 8,-235 70.58,-235 70.58,-215.5 8,-215.5"/>
<text text-anchor="start" x="11" y="-221.55" font-family="Helvetica,sans-Serif" font-size="11.00"> &#160;</text>
<polygon fill="#ffffff" stroke="none" points="70.58,-215.5 70.58,-235 133.17,-235 133.17,-215.5 70.58,-215.5"/>
<polygon fill="none" stroke="black" points="70.58,-215.5 70.58,-235 133.17,-235 133.17,-215.5 70.58,-215.5"/>
<text text-anchor="start" x="122.67" y="-221.55" font-family="Helvetica,sans-Serif" font-size="11.00"> &#160;</text>
<polygon fill="#ffffff" stroke="none" points="133.17,-215.5 133.17,-235 207.75,-235 207.75,-215.5 133.17,-215.5"/>
<polygon fill="none" stroke="black" points="133.17,-215.5 133.17,-235 207.75,-235 207.75,-215.5 133.17,-215.5"/>
<text text-anchor="start" x="185.25" y="-221.55" font-family="Helvetica,sans-Serif" font-size="11.00">1 &gt;</text>
</a>
</g>
</g>
<!-- del_delivery&#45;&gt;del_multi_lots_delivery -->
<g id="edge4" class="edge">
<title>del_delivery:w&#45;&gt;del_multi_lots_delivery:e</title>
<path fill="none" stroke="black" d="M241.05,-270.42C230.44,-261.69 227.28,-244.75 208.75,-244.75"/>
<polygon fill="black" stroke="black" points="247.87,-272.78 254.26,-278.79 251.97,-274.19 255.12,-275.28 255.12,-275.28 255.12,-275.28 251.97,-274.19 256.61,-271.99 247.87,-272.78"/>
<ellipse fill="none" stroke="black" cx="243.22" cy="-271.17" rx="3.2" ry="3.2"/>
</g>
<!-- del_delivered_document -->
<g id="node3" class="node">
<title>del_delivered_document</title>
<g id="a_node3"><a xlink:href="../../tables/del_delivered_document.html" xlink:title="del_delivered_document" target="_top">
<polygon fill="#ffffff" stroke="none" points="518.75,-344.5 518.75,-407 728.5,-407 728.5,-344.5 518.75,-344.5"/>
<polygon fill="#f5f5f5" stroke="none" points="518.75,-383.5 518.75,-407 728.5,-407 728.5,-383.5 518.75,-383.5"/>
<polygon fill="none" stroke="black" points="518.75,-383.5 518.75,-407 728.5,-407 728.5,-383.5 518.75,-383.5"/>
<text text-anchor="start" x="523.75" y="-392.55" font-family="Helvetica,sans-Serif" font-weight="bold" font-size="11.00">del_delivered_document</text>
<text text-anchor="start" x="686.75" y="-391.55" font-family="Helvetica,sans-Serif" font-size="11.00">[table]</text>
<polygon fill="none" stroke="black" points="518.75,-364 518.75,-383.5 728.5,-383.5 728.5,-364 518.75,-364"/>
<text text-anchor="start" x="521.75" y="-370.05" font-family="Helvetica,sans-Serif" font-size="11.00">...</text>
<polygon fill="#ffffff" stroke="none" points="518.75,-344.5 518.75,-364 596.67,-364 596.67,-344.5 518.75,-344.5"/>
<polygon fill="none" stroke="black" points="518.75,-344.5 518.75,-364 596.67,-364 596.67,-344.5 518.75,-344.5"/>
<text text-anchor="start" x="521.75" y="-350.55" font-family="Helvetica,sans-Serif" font-size="11.00">&lt; 3</text>
<polygon fill="#ffffff" stroke="none" points="596.67,-344.5 596.67,-364 662.58,-364 662.58,-344.5 596.67,-344.5"/>
<polygon fill="none" stroke="black" points="596.67,-344.5 596.67,-364 662.58,-364 662.58,-344.5 596.67,-344.5"/>
<text text-anchor="start" x="652.08" y="-350.55" font-family="Helvetica,sans-Serif" font-size="11.00"> &#160;</text>
<polygon fill="#ffffff" stroke="none" points="662.58,-344.5 662.58,-364 728.5,-364 728.5,-344.5 662.58,-344.5"/>
<polygon fill="none" stroke="black" points="662.58,-344.5 662.58,-364 728.5,-364 728.5,-344.5 662.58,-344.5"/>
<text text-anchor="start" x="718" y="-350.55" font-family="Helvetica,sans-Serif" font-size="11.00"> &#160;</text>
</a>
</g>
</g>
<!-- del_delivered_document&#45;&gt;del_delivery -->
<g id="edge2" class="edge">
<title>del_delivered_document:w&#45;&gt;del_delivery:e</title>
<path fill="none" stroke="black" d="M502.62,-369.49C483.58,-356.7 486.07,-319.5 455.75,-319.5"/>
<polygon fill="black" stroke="black" points="509.73,-371.49 516.45,-377.12 513.9,-372.67 517.11,-373.57 517.11,-373.57 517.11,-373.57 513.9,-372.67 518.4,-370.19 509.73,-371.49"/>
<ellipse fill="none" stroke="black" cx="504.99" cy="-370.16" rx="3.2" ry="3.2"/>
</g>
<!-- del_slip -->
<g id="node6" class="node">
<title>del_slip</title>
<g id="a_node6"><a xlink:href="../../tables/del_slip.html" xlink:title="del_slip" target="_top">
<polygon fill="#ffffff" stroke="none" points="503.75,-122.25 503.75,-323.25 743.5,-323.25 743.5,-122.25 503.75,-122.25"/>
<polygon fill="#f5f5f5" stroke="none" points="505.75,-297.75 505.75,-321.25 741.5,-321.25 741.5,-297.75 505.75,-297.75"/>
<polygon fill="none" stroke="black" points="505.75,-297.75 505.75,-321.25 741.5,-321.25 741.5,-297.75 505.75,-297.75"/>
<text text-anchor="start" x="510.75" y="-306.8" font-family="Helvetica,sans-Serif" font-weight="bold" font-size="11.00">del_slip</text>
<text text-anchor="start" x="699.75" y="-305.8" font-family="Helvetica,sans-Serif" font-size="11.00">[table]</text>
<polygon fill="none" stroke="black" points="505.75,-275.75 505.75,-297.75 653.75,-297.75 653.75,-275.75 505.75,-275.75"/>
<image xlink:href="../../images/primaryKeys.png" width="11px" height="12px" preserveAspectRatio="xMinYMin meet" x="510.75" y="-292.75"/>
<text text-anchor="start" x="525.75" y="-282.3" font-family="Helvetica,sans-Serif" font-size="11.00">identifier</text>
<polygon fill="none" stroke="black" points="653.75,-275.75 653.75,-297.75 741.5,-297.75 741.5,-275.75 653.75,-275.75"/>
<text text-anchor="start" x="656.75" y="-283.05" font-family="Helvetica,sans-Serif" font-size="11.00">varchar[191]</text>
<polygon fill="#ffffff" stroke="none" points="505.75,-253.75 505.75,-275.75 653.75,-275.75 653.75,-253.75 505.75,-253.75"/>
<polygon fill="none" stroke="black" points="505.75,-253.75 505.75,-275.75 653.75,-275.75 653.75,-253.75 505.75,-253.75"/>
<image xlink:href="../../images/foreignKeys.png" width="11px" height="12px" preserveAspectRatio="xMinYMin meet" x="510.75" y="-270.75"/>
<text text-anchor="start" x="525.75" y="-260.3" font-family="Helvetica,sans-Serif" font-size="11.00">delivery</text>
<polygon fill="none" stroke="black" points="653.75,-253.75 653.75,-275.75 741.5,-275.75 741.5,-253.75 653.75,-253.75"/>
<text text-anchor="start" x="656.75" y="-261.05" font-family="Helvetica,sans-Serif" font-size="11.00">varchar[191]</text>
<polygon fill="none" stroke="black" points="505.75,-231.75 505.75,-253.75 653.75,-253.75 653.75,-231.75 505.75,-231.75"/>
<text text-anchor="start" x="525.75" y="-238.3" font-family="Helvetica,sans-Serif" font-size="11.00">version</text>
<polygon fill="none" stroke="black" points="653.75,-231.75 653.75,-253.75 741.5,-253.75 741.5,-231.75 653.75,-231.75"/>
<text text-anchor="start" x="656.75" y="-239.05" font-family="Helvetica,sans-Serif" font-size="11.00">bigint[19]</text>
<polygon fill="none" stroke="black" points="505.75,-209.75 505.75,-231.75 653.75,-231.75 653.75,-209.75 505.75,-209.75"/>
<text text-anchor="start" x="525.75" y="-216.3" font-family="Helvetica,sans-Serif" font-size="11.00">created_by</text>
<polygon fill="none" stroke="black" points="653.75,-209.75 653.75,-231.75 741.5,-231.75 741.5,-209.75 653.75,-209.75"/>
<text text-anchor="start" x="656.75" y="-217.05" font-family="Helvetica,sans-Serif" font-size="11.00">varchar[191]</text>
<polygon fill="none" stroke="black" points="505.75,-187.75 505.75,-209.75 653.75,-209.75 653.75,-187.75 505.75,-187.75"/>
<text text-anchor="start" x="525.75" y="-194.3" font-family="Helvetica,sans-Serif" font-size="11.00">last_modified_by</text>
<polygon fill="none" stroke="black" points="653.75,-187.75 653.75,-209.75 741.5,-209.75 741.5,-187.75 653.75,-187.75"/>
<text text-anchor="start" x="656.75" y="-195.05" font-family="Helvetica,sans-Serif" font-size="11.00">varchar[191]</text>
<polygon fill="none" stroke="black" points="505.75,-165.75 505.75,-187.75 653.75,-187.75 653.75,-165.75 505.75,-165.75"/>
<text text-anchor="start" x="525.75" y="-172.3" font-family="Helvetica,sans-Serif" font-size="11.00">created_date</text>
<polygon fill="none" stroke="black" points="653.75,-165.75 653.75,-187.75 741.5,-187.75 741.5,-165.75 653.75,-165.75"/>
<text text-anchor="start" x="656.75" y="-173.05" font-family="Helvetica,sans-Serif" font-size="11.00">timestamp[19]</text>
<polygon fill="none" stroke="black" points="505.75,-143.75 505.75,-165.75 653.75,-165.75 653.75,-143.75 505.75,-143.75"/>
<text text-anchor="start" x="525.75" y="-150.3" font-family="Helvetica,sans-Serif" font-size="11.00">last_modified_date</text>
<polygon fill="none" stroke="black" points="653.75,-143.75 653.75,-165.75 741.5,-165.75 741.5,-143.75 653.75,-143.75"/>
<text text-anchor="start" x="656.75" y="-151.05" font-family="Helvetica,sans-Serif" font-size="11.00">timestamp[19]</text>
<polygon fill="#ffffff" stroke="none" points="505.75,-124.25 505.75,-143.75 585.75,-143.75 585.75,-124.25 505.75,-124.25"/>
<polygon fill="none" stroke="black" points="505.75,-124.25 505.75,-143.75 585.75,-143.75 585.75,-124.25 505.75,-124.25"/>
<text text-anchor="start" x="508.75" y="-130.3" font-family="Helvetica,sans-Serif" font-size="11.00">&lt; 1</text>
<polygon fill="#ffffff" stroke="none" points="585.75,-124.25 585.75,-143.75 653.75,-143.75 653.75,-124.25 585.75,-124.25"/>
<polygon fill="none" stroke="black" points="585.75,-124.25 585.75,-143.75 653.75,-143.75 653.75,-124.25 585.75,-124.25"/>
<text text-anchor="start" x="643.25" y="-130.3" font-family="Helvetica,sans-Serif" font-size="11.00"> &#160;</text>
<polygon fill="#ffffff" stroke="none" points="653.75,-124.25 653.75,-143.75 741.5,-143.75 741.5,-124.25 653.75,-124.25"/>
<polygon fill="none" stroke="black" points="653.75,-124.25 653.75,-143.75 741.5,-143.75 741.5,-124.25 653.75,-124.25"/>
<text text-anchor="start" x="719" y="-130.3" font-family="Helvetica,sans-Serif" font-size="11.00">1 &gt;</text>
<polygon fill="none" stroke="black" stroke-width="2" points="504.75,-123.25 504.75,-322.25 742.5,-322.25 742.5,-123.25 504.75,-123.25"/>
</a>
</g>
</g>
<!-- del_slip&#45;&gt;del_delivery -->
<g id="edge5" class="edge">
<title>del_slip:w&#45;&gt;del_delivery:e</title>
<path fill="none" stroke="black" d="M490.09,-270.61C476.7,-284.73 481.77,-319.5 455.75,-319.5"/>
<polygon fill="black" stroke="black" points="497.01,-267.84 505.78,-268.22 501.04,-266.23 504.13,-265 504.13,-265 504.13,-265 501.04,-266.23 503.1,-261.53 497.01,-267.84"/>
<ellipse fill="none" stroke="black" cx="492.44" cy="-269.67" rx="3.2" ry="3.2"/>
</g>
<!-- del_slip_line -->
<g id="node7" class="node">
<title>del_slip_line</title>
<g id="a_node7"><a xlink:href="../../tables/del_slip_line.html" xlink:title="del_slip_line" target="_top">
<polygon fill="#ffffff" stroke="none" points="792.5,-236.5 792.5,-343 940.5,-343 940.5,-236.5 792.5,-236.5"/>
<polygon fill="#f5f5f5" stroke="none" points="792.5,-319.5 792.5,-343 940.5,-343 940.5,-319.5 792.5,-319.5"/>
<polygon fill="none" stroke="black" points="792.5,-319.5 792.5,-343 940.5,-343 940.5,-319.5 792.5,-319.5"/>
<text text-anchor="start" x="797.5" y="-328.55" font-family="Helvetica,sans-Serif" font-weight="bold" font-size="11.00">del_slip_line</text>
<text text-anchor="start" x="898.75" y="-327.55" font-family="Helvetica,sans-Serif" font-size="11.00">[table]</text>
<polygon fill="none" stroke="black" points="792.5,-297.5 792.5,-319.5 940.5,-319.5 940.5,-297.5 792.5,-297.5"/>
<image xlink:href="../../images/primaryKeys.png" width="11px" height="12px" preserveAspectRatio="xMinYMin meet" x="797.5" y="-314.5"/>
<text text-anchor="start" x="812.5" y="-304.05" font-family="Helvetica,sans-Serif" font-size="11.00">identifier</text>
<polygon fill="#ffffff" stroke="none" points="792.5,-275.5 792.5,-297.5 940.5,-297.5 940.5,-275.5 792.5,-275.5"/>
<polygon fill="none" stroke="black" points="792.5,-275.5 792.5,-297.5 940.5,-297.5 940.5,-275.5 792.5,-275.5"/>
<image xlink:href="../../images/foreignKeys.png" width="11px" height="12px" preserveAspectRatio="xMinYMin meet" x="797.5" y="-292.5"/>
<text text-anchor="start" x="812.5" y="-282.05" font-family="Helvetica,sans-Serif" font-size="11.00">slip</text>
<polygon fill="none" stroke="black" points="792.5,-256 792.5,-275.5 940.5,-275.5 940.5,-256 792.5,-256"/>
<text text-anchor="start" x="795.5" y="-262.05" font-family="Helvetica,sans-Serif" font-size="11.00">...</text>
<polygon fill="#ffffff" stroke="none" points="792.5,-236.5 792.5,-256 849.83,-256 849.83,-236.5 792.5,-236.5"/>
<polygon fill="none" stroke="black" points="792.5,-236.5 792.5,-256 849.83,-256 849.83,-236.5 792.5,-236.5"/>
<text text-anchor="start" x="795.5" y="-242.55" font-family="Helvetica,sans-Serif" font-size="11.00">&lt; 1</text>
<polygon fill="#ffffff" stroke="none" points="849.83,-236.5 849.83,-256 895.17,-256 895.17,-236.5 849.83,-236.5"/>
<polygon fill="none" stroke="black" points="849.83,-236.5 849.83,-256 895.17,-256 895.17,-236.5 849.83,-236.5"/>
<text text-anchor="start" x="884.67" y="-242.55" font-family="Helvetica,sans-Serif" font-size="11.00"> &#160;</text>
<polygon fill="#ffffff" stroke="none" points="895.17,-236.5 895.17,-256 940.5,-256 940.5,-236.5 895.17,-236.5"/>
<polygon fill="none" stroke="black" points="895.17,-236.5 895.17,-256 940.5,-256 940.5,-236.5 895.17,-236.5"/>
<text text-anchor="start" x="930" y="-242.55" font-family="Helvetica,sans-Serif" font-size="11.00"> &#160;</text>
</a>
</g>
</g>
<!-- del_slip_line&#45;&gt;del_slip -->
<g id="edge6" class="edge">
<title>del_slip_line:w&#45;&gt;del_slip:e</title>
<path fill="none" stroke="black" d="M775.92,-286.55C765.21,-286.62 757.98,-286.75 742.5,-286.75"/>
<polygon fill="black" stroke="black" points="783.17,-286.53 791.18,-290.1 787.5,-286.51 790.83,-286.5 790.83,-286.5 790.83,-286.5 787.5,-286.51 791.15,-282.9 783.17,-286.53"/>
<ellipse fill="none" stroke="black" cx="778.25" cy="-286.54" rx="3.2" ry="3.2"/>
</g>
<!-- doc_sample -->
<g id="node8" class="node">
<title>doc_sample</title>
<g id="a_node8"><a xlink:href="../../tables/doc_sample.html" xlink:title="doc_sample" target="_top">
<polygon fill="#ffffff" stroke="none" points="561.25,-38.5 561.25,-101 686,-101 686,-38.5 561.25,-38.5"/>
<polygon fill="#f5f5f5" stroke="none" points="561.25,-77.5 561.25,-101 686,-101 686,-77.5 561.25,-77.5"/>
<polygon fill="none" stroke="black" points="561.25,-77.5 561.25,-101 686,-101 686,-77.5 561.25,-77.5"/>
<text text-anchor="start" x="566.25" y="-86.55" font-family="Helvetica,sans-Serif" font-weight="bold" font-size="11.00">doc_sample</text>
<text text-anchor="start" x="644.25" y="-85.55" font-family="Helvetica,sans-Serif" font-size="11.00">[table]</text>
<polygon fill="none" stroke="black" points="561.25,-58 561.25,-77.5 686,-77.5 686,-58 561.25,-58"/>
<text text-anchor="start" x="564.25" y="-64.05" font-family="Helvetica,sans-Serif" font-size="11.00">...</text>
<polygon fill="#ffffff" stroke="none" points="561.25,-38.5 561.25,-58 606.83,-58 606.83,-38.5 561.25,-38.5"/>
<polygon fill="none" stroke="black" points="561.25,-38.5 561.25,-58 606.83,-58 606.83,-38.5 561.25,-38.5"/>
<text text-anchor="start" x="564.25" y="-44.55" font-family="Helvetica,sans-Serif" font-size="11.00">&lt; 2</text>
<polygon fill="#ffffff" stroke="none" points="606.83,-38.5 606.83,-58 640.42,-58 640.42,-38.5 606.83,-38.5"/>
<polygon fill="none" stroke="black" points="606.83,-38.5 606.83,-58 640.42,-58 640.42,-38.5 606.83,-38.5"/>
<text text-anchor="start" x="629.92" y="-44.55" font-family="Helvetica,sans-Serif" font-size="11.00"> &#160;</text>
<polygon fill="#ffffff" stroke="none" points="640.42,-38.5 640.42,-58 686,-58 686,-38.5 640.42,-38.5"/>
<polygon fill="none" stroke="black" points="640.42,-38.5 640.42,-58 686,-58 686,-38.5 640.42,-38.5"/>
<text text-anchor="start" x="663.5" y="-44.55" font-family="Helvetica,sans-Serif" font-size="11.00">1 &gt;</text>
</a>
</g>
</g>
<!-- doc_sample&#45;&gt;del_delivery -->
<g id="edge7" class="edge">
<title>doc_sample:w&#45;&gt;del_delivery:e</title>
<path fill="none" stroke="black" d="M544.64,-69.01C521.7,-73.18 511.6,-87.62 495.75,-111.75 469.94,-151.05 502.76,-319.5 455.75,-319.5"/>
<polygon fill="black" stroke="black" points="551.94,-68.42 560.21,-71.37 556.26,-68.07 559.58,-67.8 559.58,-67.8 559.58,-67.8 556.26,-68.07 559.63,-64.19 551.94,-68.42"/>
<ellipse fill="none" stroke="black" cx="547.04" cy="-68.82" rx="3.2" ry="3.2"/>
</g>
</g>
</svg>
