<?xml version="1.0" encoding="UTF-8" standalone="no"?>
<!DOCTYPE svg PUBLIC "-//W3C//DTD SVG 1.1//EN"
 "http://www.w3.org/Graphics/SVG/1.1/DTD/svg11.dtd">
<!-- Generated by graphviz version 12.2.0 (0)
 -->
<!-- Title: oneDegreeRelationshipsDiagram Pages: 1 -->
<svg width="461pt" height="406pt"
 viewBox="0.00 0.00 461.25 405.50" xmlns="http://www.w3.org/2000/svg" xmlns:xlink="http://www.w3.org/1999/xlink">
<g id="graph0" class="graph" transform="scale(1 1) rotate(0) translate(4 401.5)">
<title>oneDegreeRelationshipsDiagram</title>
<polygon fill="#ffffff" stroke="none" points="-4,4 -4,-401.5 457.25,-401.5 457.25,4 -4,4"/>
<text text-anchor="middle" x="79.25" y="-7.05" font-family="Helvetica,sans-Serif" font-size="11.00">Generated by SchemaSpy</text>
<!-- del_slip_line -->
<g id="node1" class="node">
<title>del_slip_line</title>
<g id="a_node1"><a xlink:href="../../tables/del_slip_line.html" xlink:title="del_slip_line" target="_top">
<polygon fill="#ffffff" stroke="none" points="205,-38.5 205,-393.5 445.25,-393.5 445.25,-38.5 205,-38.5"/>
<polygon fill="#f5f5f5" stroke="none" points="207,-368 207,-391.5 443.25,-391.5 443.25,-368 207,-368"/>
<polygon fill="none" stroke="black" points="207,-368 207,-391.5 443.25,-391.5 443.25,-368 207,-368"/>
<text text-anchor="start" x="212" y="-377.05" font-family="Helvetica,sans-Serif" font-weight="bold" font-size="11.00">del_slip_line</text>
<text text-anchor="start" x="401.5" y="-376.05" font-family="Helvetica,sans-Serif" font-size="11.00">[table]</text>
<polygon fill="none" stroke="black" points="207,-346 207,-368 355,-368 355,-346 207,-346"/>
<image xlink:href="../../images/primaryKeys.png" width="11px" height="12px" preserveAspectRatio="xMinYMin meet" x="212" y="-363"/>
<text text-anchor="start" x="227" y="-352.55" font-family="Helvetica,sans-Serif" font-size="11.00">identifier</text>
<polygon fill="none" stroke="black" points="355,-346 355,-368 443,-368 443,-346 355,-346"/>
<text text-anchor="start" x="358" y="-353.3" font-family="Helvetica,sans-Serif" font-size="11.00">varchar[191]</text>
<polygon fill="#ffffff" stroke="none" points="207,-324 207,-346 355,-346 355,-324 207,-324"/>
<polygon fill="none" stroke="black" points="207,-324 207,-346 355,-346 355,-324 207,-324"/>
<image xlink:href="../../images/foreignKeys.png" width="11px" height="12px" preserveAspectRatio="xMinYMin meet" x="212" y="-341"/>
<text text-anchor="start" x="227" y="-330.55" font-family="Helvetica,sans-Serif" font-size="11.00">slip</text>
<polygon fill="none" stroke="black" points="355,-324 355,-346 443,-346 443,-324 355,-324"/>
<text text-anchor="start" x="358" y="-331.3" font-family="Helvetica,sans-Serif" font-size="11.00">varchar[191]</text>
<polygon fill="none" stroke="black" points="207,-302 207,-324 355,-324 355,-302 207,-302"/>
<text text-anchor="start" x="227" y="-308.55" font-family="Helvetica,sans-Serif" font-size="11.00">pgcn_id</text>
<polygon fill="none" stroke="black" points="355,-302 355,-324 443,-324 443,-302 355,-302"/>
<text text-anchor="start" x="358" y="-309.3" font-family="Helvetica,sans-Serif" font-size="11.00">varchar[255]</text>
<polygon fill="none" stroke="black" points="207,-280 207,-302 355,-302 355,-280 207,-280"/>
<text text-anchor="start" x="227" y="-286.55" font-family="Helvetica,sans-Serif" font-size="11.00">lot</text>
<polygon fill="none" stroke="black" points="355,-280 355,-302 443,-302 443,-280 355,-280"/>
<text text-anchor="start" x="358" y="-287.3" font-family="Helvetica,sans-Serif" font-size="11.00">varchar[255]</text>
<polygon fill="none" stroke="black" points="207,-258 207,-280 355,-280 355,-258 207,-258"/>
<text text-anchor="start" x="227" y="-264.55" font-family="Helvetica,sans-Serif" font-size="11.00">train</text>
<polygon fill="none" stroke="black" points="355,-258 355,-280 443,-280 443,-258 355,-258"/>
<text text-anchor="start" x="358" y="-265.3" font-family="Helvetica,sans-Serif" font-size="11.00">varchar[255]</text>
<polygon fill="none" stroke="black" points="207,-236 207,-258 355,-258 355,-236 207,-236"/>
<text text-anchor="start" x="227" y="-242.55" font-family="Helvetica,sans-Serif" font-size="11.00">radical</text>
<polygon fill="none" stroke="black" points="355,-236 355,-258 443,-258 443,-236 355,-236"/>
<text text-anchor="start" x="358" y="-243.3" font-family="Helvetica,sans-Serif" font-size="11.00">varchar[255]</text>
<polygon fill="none" stroke="black" points="207,-214 207,-236 355,-236 355,-214 207,-214"/>
<text text-anchor="start" x="227" y="-220.55" font-family="Helvetica,sans-Serif" font-size="11.00">title</text>
<polygon fill="none" stroke="black" points="355,-214 355,-236 443,-236 443,-214 355,-214"/>
<text text-anchor="start" x="358" y="-221.3" font-family="Helvetica,sans-Serif" font-size="11.00">varchar[255]</text>
<polygon fill="none" stroke="black" points="207,-192 207,-214 355,-214 355,-192 207,-192"/>
<text text-anchor="start" x="227" y="-198.55" font-family="Helvetica,sans-Serif" font-size="11.00">nb_pages</text>
<polygon fill="none" stroke="black" points="355,-192 355,-214 443,-214 443,-192 355,-192"/>
<text text-anchor="start" x="358" y="-199.3" font-family="Helvetica,sans-Serif" font-size="11.00">varchar[255]</text>
<polygon fill="none" stroke="black" points="207,-170 207,-192 355,-192 355,-170 207,-170"/>
<text text-anchor="start" x="227" y="-176.55" font-family="Helvetica,sans-Serif" font-size="11.00">date</text>
<polygon fill="none" stroke="black" points="355,-170 355,-192 443,-192 443,-170 355,-170"/>
<text text-anchor="start" x="358" y="-177.3" font-family="Helvetica,sans-Serif" font-size="11.00">varchar[255]</text>
<polygon fill="none" stroke="black" points="207,-148 207,-170 355,-170 355,-148 207,-148"/>
<text text-anchor="start" x="227" y="-154.55" font-family="Helvetica,sans-Serif" font-size="11.00">version</text>
<polygon fill="none" stroke="black" points="355,-148 355,-170 443,-170 443,-148 355,-148"/>
<text text-anchor="start" x="358" y="-155.3" font-family="Helvetica,sans-Serif" font-size="11.00">bigint[19]</text>
<polygon fill="none" stroke="black" points="207,-126 207,-148 355,-148 355,-126 207,-126"/>
<text text-anchor="start" x="227" y="-132.55" font-family="Helvetica,sans-Serif" font-size="11.00">created_by</text>
<polygon fill="none" stroke="black" points="355,-126 355,-148 443,-148 443,-126 355,-126"/>
<text text-anchor="start" x="358" y="-133.3" font-family="Helvetica,sans-Serif" font-size="11.00">varchar[191]</text>
<polygon fill="none" stroke="black" points="207,-104 207,-126 355,-126 355,-104 207,-104"/>
<text text-anchor="start" x="227" y="-110.55" font-family="Helvetica,sans-Serif" font-size="11.00">last_modified_by</text>
<polygon fill="none" stroke="black" points="355,-104 355,-126 443,-126 443,-104 355,-104"/>
<text text-anchor="start" x="358" y="-111.3" font-family="Helvetica,sans-Serif" font-size="11.00">varchar[191]</text>
<polygon fill="none" stroke="black" points="207,-82 207,-104 355,-104 355,-82 207,-82"/>
<text text-anchor="start" x="227" y="-88.55" font-family="Helvetica,sans-Serif" font-size="11.00">created_date</text>
<polygon fill="none" stroke="black" points="355,-82 355,-104 443,-104 443,-82 355,-82"/>
<text text-anchor="start" x="358" y="-89.3" font-family="Helvetica,sans-Serif" font-size="11.00">timestamp[19]</text>
<polygon fill="none" stroke="black" points="207,-60 207,-82 355,-82 355,-60 207,-60"/>
<text text-anchor="start" x="227" y="-66.55" font-family="Helvetica,sans-Serif" font-size="11.00">last_modified_date</text>
<polygon fill="none" stroke="black" points="355,-60 355,-82 443,-82 443,-60 355,-60"/>
<text text-anchor="start" x="358" y="-67.3" font-family="Helvetica,sans-Serif" font-size="11.00">timestamp[19]</text>
<polygon fill="#ffffff" stroke="none" points="207,-40.5 207,-60 287,-60 287,-40.5 207,-40.5"/>
<polygon fill="none" stroke="black" points="207,-40.5 207,-60 287,-60 287,-40.5 207,-40.5"/>
<text text-anchor="start" x="210" y="-46.55" font-family="Helvetica,sans-Serif" font-size="11.00">&lt; 1</text>
<polygon fill="#ffffff" stroke="none" points="287,-40.5 287,-60 355,-60 355,-40.5 287,-40.5"/>
<polygon fill="none" stroke="black" points="287,-40.5 287,-60 355,-60 355,-40.5 287,-40.5"/>
<text text-anchor="start" x="344.5" y="-46.55" font-family="Helvetica,sans-Serif" font-size="11.00"> &#160;</text>
<polygon fill="#ffffff" stroke="none" points="355,-40.5 355,-60 443,-60 443,-40.5 355,-40.5"/>
<polygon fill="none" stroke="black" points="355,-40.5 355,-60 443,-60 443,-40.5 355,-40.5"/>
<text text-anchor="start" x="420.5" y="-46.55" font-family="Helvetica,sans-Serif" font-size="11.00">0 &gt;</text>
<polygon fill="none" stroke="black" stroke-width="2" points="206,-39.5 206,-392.5 444.25,-392.5 444.25,-39.5 206,-39.5"/>
</a>
</g>
</g>
<!-- del_slip -->
<g id="node2" class="node">
<title>del_slip</title>
<g id="a_node2"><a xlink:href="../../tables/del_slip.html" xlink:title="del_slip" target="_top">
<polygon fill="#ffffff" stroke="none" points="8,-262.75 8,-369.25 156,-369.25 156,-262.75 8,-262.75"/>
<polygon fill="#f5f5f5" stroke="none" points="8,-345.75 8,-369.25 156,-369.25 156,-345.75 8,-345.75"/>
<polygon fill="none" stroke="black" points="8,-345.75 8,-369.25 156,-369.25 156,-345.75 8,-345.75"/>
<text text-anchor="start" x="13" y="-354.8" font-family="Helvetica,sans-Serif" font-weight="bold" font-size="11.00">del_slip</text>
<text text-anchor="start" x="114.25" y="-353.8" font-family="Helvetica,sans-Serif" font-size="11.00">[table]</text>
<polygon fill="none" stroke="black" points="8,-323.75 8,-345.75 156,-345.75 156,-323.75 8,-323.75"/>
<image xlink:href="../../images/primaryKeys.png" width="11px" height="12px" preserveAspectRatio="xMinYMin meet" x="13" y="-340.75"/>
<text text-anchor="start" x="28" y="-330.3" font-family="Helvetica,sans-Serif" font-size="11.00">identifier</text>
<polygon fill="#ffffff" stroke="none" points="8,-301.75 8,-323.75 156,-323.75 156,-301.75 8,-301.75"/>
<polygon fill="none" stroke="black" points="8,-301.75 8,-323.75 156,-323.75 156,-301.75 8,-301.75"/>
<image xlink:href="../../images/foreignKeys.png" width="11px" height="12px" preserveAspectRatio="xMinYMin meet" x="13" y="-318.75"/>
<text text-anchor="start" x="28" y="-308.3" font-family="Helvetica,sans-Serif" font-size="11.00">delivery</text>
<polygon fill="none" stroke="black" points="8,-282.25 8,-301.75 156,-301.75 156,-282.25 8,-282.25"/>
<text text-anchor="start" x="11" y="-288.3" font-family="Helvetica,sans-Serif" font-size="11.00">...</text>
<polygon fill="#ffffff" stroke="none" points="8,-262.75 8,-282.25 61.33,-282.25 61.33,-262.75 8,-262.75"/>
<polygon fill="none" stroke="black" points="8,-262.75 8,-282.25 61.33,-282.25 61.33,-262.75 8,-262.75"/>
<text text-anchor="start" x="11" y="-268.8" font-family="Helvetica,sans-Serif" font-size="11.00">&lt; 1</text>
<polygon fill="#ffffff" stroke="none" points="61.33,-262.75 61.33,-282.25 102.67,-282.25 102.67,-262.75 61.33,-262.75"/>
<polygon fill="none" stroke="black" points="61.33,-262.75 61.33,-282.25 102.67,-282.25 102.67,-262.75 61.33,-262.75"/>
<text text-anchor="start" x="92.17" y="-268.8" font-family="Helvetica,sans-Serif" font-size="11.00"> &#160;</text>
<polygon fill="#ffffff" stroke="none" points="102.67,-262.75 102.67,-282.25 156,-282.25 156,-262.75 102.67,-262.75"/>
<polygon fill="none" stroke="black" points="102.67,-262.75 102.67,-282.25 156,-282.25 156,-262.75 102.67,-262.75"/>
<text text-anchor="start" x="133.5" y="-268.8" font-family="Helvetica,sans-Serif" font-size="11.00">1 &gt;</text>
</a>
</g>
</g>
<!-- del_slip_line&#45;&gt;del_slip -->
<g id="edge1" class="edge">
<title>del_slip_line:w&#45;&gt;del_slip:e</title>
<path fill="none" stroke="black" d="M190.42,-334.95C179.71,-334.88 172.48,-334.75 157,-334.75"/>
<polygon fill="black" stroke="black" points="197.67,-334.97 205.65,-338.6 202,-334.99 205.33,-335 205.33,-335 205.33,-335 202,-334.99 205.68,-331.4 197.67,-334.97"/>
<ellipse fill="none" stroke="black" cx="192.75" cy="-334.96" rx="3.2" ry="3.2"/>
</g>
</g>
</svg>
