<?xml version="1.0" encoding="UTF-8" standalone="no"?>
<!DOCTYPE svg PUBLIC "-//W3C//DTD SVG 1.1//EN"
 "http://www.w3.org/Graphics/SVG/1.1/DTD/svg11.dtd">
<!-- Generated by graphviz version 12.2.0 (0)
 -->
<!-- Title: oneDegreeRelationshipsDiagram Pages: 1 -->
<svg width="956pt" height="625pt"
 viewBox="0.00 0.00 956.25 625.25" xmlns="http://www.w3.org/2000/svg" xmlns:xlink="http://www.w3.org/1999/xlink">
<g id="graph0" class="graph" transform="scale(1 1) rotate(0) translate(4 621.25)">
<title>oneDegreeRelationshipsDiagram</title>
<polygon fill="#ffffff" stroke="none" points="-4,4 -4,-621.25 952.25,-621.25 952.25,4 -4,4"/>
<text text-anchor="middle" x="79.25" y="-7.05" font-family="Helvetica,sans-Serif" font-size="11.00">Generated by SchemaSpy</text>
<!-- check_automatic_result -->
<g id="node1" class="node">
<title>check_automatic_result</title>
<g id="a_node1"><a xlink:href="../../tables/check_automatic_result.html" xlink:title="check_automatic_result" target="_top">
<polygon fill="#ffffff" stroke="none" points="735.5,-396.75 735.5,-613.25 940.25,-613.25 940.25,-396.75 735.5,-396.75"/>
<polygon fill="#f5f5f5" stroke="none" points="735.5,-589.75 735.5,-613.25 940.25,-613.25 940.25,-589.75 735.5,-589.75"/>
<polygon fill="none" stroke="black" points="735.5,-589.75 735.5,-613.25 940.25,-613.25 940.25,-589.75 735.5,-589.75"/>
<text text-anchor="start" x="740.5" y="-598.8" font-family="Helvetica,sans-Serif" font-weight="bold" font-size="11.00">check_automatic_result</text>
<text text-anchor="start" x="898.5" y="-597.8" font-family="Helvetica,sans-Serif" font-size="11.00">[table]</text>
<polygon fill="none" stroke="black" points="735.5,-567.75 735.5,-589.75 940.25,-589.75 940.25,-567.75 735.5,-567.75"/>
<image xlink:href="../../images/primaryKeys.png" width="11px" height="12px" preserveAspectRatio="xMinYMin meet" x="740.5" y="-584.75"/>
<text text-anchor="start" x="768.38" y="-574.3" font-family="Helvetica,sans-Serif" font-size="11.00">identifier</text>
<polygon fill="#ffffff" stroke="none" points="735.5,-545.75 735.5,-567.75 940.25,-567.75 940.25,-545.75 735.5,-545.75"/>
<polygon fill="none" stroke="black" points="735.5,-545.75 735.5,-567.75 940.25,-567.75 940.25,-545.75 735.5,-545.75"/>
<image xlink:href="../../images/foreignKeys.png" width="11px" height="12px" preserveAspectRatio="xMinYMin meet" x="740.5" y="-562.75"/>
<text text-anchor="start" x="768.38" y="-552.3" font-family="Helvetica,sans-Serif" font-size="11.00">check_type</text>
<polygon fill="#ffffff" stroke="none" points="735.5,-523.75 735.5,-545.75 940.25,-545.75 940.25,-523.75 735.5,-523.75"/>
<polygon fill="none" stroke="black" points="735.5,-523.75 735.5,-545.75 940.25,-545.75 940.25,-523.75 735.5,-523.75"/>
<image xlink:href="../../images/foreignKeys.png" width="11px" height="12px" preserveAspectRatio="xMinYMin meet" x="740.5" y="-540.75"/>
<text text-anchor="start" x="768.38" y="-530.3" font-family="Helvetica,sans-Serif" font-size="11.00">digital_document</text>
<polygon fill="#ffffff" stroke="none" points="735.5,-501.75 735.5,-523.75 940.25,-523.75 940.25,-501.75 735.5,-501.75"/>
<polygon fill="none" stroke="black" points="735.5,-501.75 735.5,-523.75 940.25,-523.75 940.25,-501.75 735.5,-501.75"/>
<image xlink:href="../../images/foreignKeys.png" width="11px" height="12px" preserveAspectRatio="xMinYMin meet" x="740.5" y="-518.75"/>
<text text-anchor="start" x="768.38" y="-508.3" font-family="Helvetica,sans-Serif" font-size="11.00">doc_unit</text>
<polygon fill="#ffffff" stroke="none" points="735.5,-479.75 735.5,-501.75 940.25,-501.75 940.25,-479.75 735.5,-479.75"/>
<polygon fill="none" stroke="black" points="735.5,-479.75 735.5,-501.75 940.25,-501.75 940.25,-479.75 735.5,-479.75"/>
<image xlink:href="../../images/foreignKeys.png" width="11px" height="12px" preserveAspectRatio="xMinYMin meet" x="740.5" y="-496.75"/>
<text text-anchor="start" x="768.38" y="-486.3" font-family="Helvetica,sans-Serif" font-size="11.00">page</text>
<polygon fill="#ffffff" stroke="none" points="735.5,-457.75 735.5,-479.75 940.25,-479.75 940.25,-457.75 735.5,-457.75"/>
<polygon fill="none" stroke="black" points="735.5,-457.75 735.5,-479.75 940.25,-479.75 940.25,-457.75 735.5,-457.75"/>
<image xlink:href="../../images/foreignKeys.png" width="11px" height="12px" preserveAspectRatio="xMinYMin meet" x="740.5" y="-474.75"/>
<text text-anchor="start" x="768.38" y="-464.3" font-family="Helvetica,sans-Serif" font-size="11.00">delivery</text>
<polygon fill="#ffffff" stroke="none" points="735.5,-435.75 735.5,-457.75 940.25,-457.75 940.25,-435.75 735.5,-435.75"/>
<polygon fill="none" stroke="black" points="735.5,-435.75 735.5,-457.75 940.25,-457.75 940.25,-435.75 735.5,-435.75"/>
<image xlink:href="../../images/foreignKeys.png" width="11px" height="12px" preserveAspectRatio="xMinYMin meet" x="740.5" y="-452.75"/>
<text text-anchor="start" x="768.38" y="-442.3" font-family="Helvetica,sans-Serif" font-size="11.00">physical_document</text>
<polygon fill="none" stroke="black" points="735.5,-416.25 735.5,-435.75 940.25,-435.75 940.25,-416.25 735.5,-416.25"/>
<text text-anchor="start" x="738.5" y="-422.3" font-family="Helvetica,sans-Serif" font-size="11.00">...</text>
<polygon fill="#ffffff" stroke="none" points="735.5,-396.75 735.5,-416.25 811.75,-416.25 811.75,-396.75 735.5,-396.75"/>
<polygon fill="none" stroke="black" points="735.5,-396.75 735.5,-416.25 811.75,-416.25 811.75,-396.75 735.5,-396.75"/>
<text text-anchor="start" x="738.5" y="-402.8" font-family="Helvetica,sans-Serif" font-size="11.00">&lt; 6</text>
<polygon fill="#ffffff" stroke="none" points="811.75,-396.75 811.75,-416.25 876,-416.25 876,-396.75 811.75,-396.75"/>
<polygon fill="none" stroke="black" points="811.75,-396.75 811.75,-416.25 876,-416.25 876,-396.75 811.75,-396.75"/>
<text text-anchor="start" x="865.5" y="-402.8" font-family="Helvetica,sans-Serif" font-size="11.00"> &#160;</text>
<polygon fill="#ffffff" stroke="none" points="876,-396.75 876,-416.25 940.25,-416.25 940.25,-396.75 876,-396.75"/>
<polygon fill="none" stroke="black" points="876,-396.75 876,-416.25 940.25,-416.25 940.25,-396.75 876,-396.75"/>
<text text-anchor="start" x="929.75" y="-402.8" font-family="Helvetica,sans-Serif" font-size="11.00"> &#160;</text>
</a>
</g>
</g>
<!-- doc_digital_document -->
<g id="node2" class="node">
<title>doc_digital_document</title>
<g id="a_node2"><a xlink:href="../../tables/doc_digital_document.html" xlink:title="doc_digital_document" target="_top">
<polygon fill="#ffffff" stroke="none" points="8,-175.75 8,-282.25 200.75,-282.25 200.75,-175.75 8,-175.75"/>
<polygon fill="#f5f5f5" stroke="none" points="8,-258.75 8,-282.25 200.75,-282.25 200.75,-258.75 8,-258.75"/>
<polygon fill="none" stroke="black" points="8,-258.75 8,-282.25 200.75,-282.25 200.75,-258.75 8,-258.75"/>
<text text-anchor="start" x="13" y="-267.8" font-family="Helvetica,sans-Serif" font-weight="bold" font-size="11.00">doc_digital_document</text>
<text text-anchor="start" x="159" y="-266.8" font-family="Helvetica,sans-Serif" font-size="11.00">[table]</text>
<polygon fill="none" stroke="black" points="8,-236.75 8,-258.75 200.75,-258.75 200.75,-236.75 8,-236.75"/>
<image xlink:href="../../images/primaryKeys.png" width="11px" height="12px" preserveAspectRatio="xMinYMin meet" x="13" y="-253.75"/>
<text text-anchor="start" x="40.88" y="-243.3" font-family="Helvetica,sans-Serif" font-size="11.00">identifier</text>
<polygon fill="#ffffff" stroke="none" points="8,-214.75 8,-236.75 200.75,-236.75 200.75,-214.75 8,-214.75"/>
<polygon fill="none" stroke="black" points="8,-214.75 8,-236.75 200.75,-236.75 200.75,-214.75 8,-214.75"/>
<image xlink:href="../../images/foreignKeys.png" width="11px" height="12px" preserveAspectRatio="xMinYMin meet" x="13" y="-231.75"/>
<text text-anchor="start" x="40.88" y="-221.3" font-family="Helvetica,sans-Serif" font-size="11.00">doc_unit</text>
<polygon fill="none" stroke="black" points="8,-195.25 8,-214.75 200.75,-214.75 200.75,-195.25 8,-195.25"/>
<text text-anchor="start" x="11" y="-201.3" font-family="Helvetica,sans-Serif" font-size="11.00">...</text>
<polygon fill="#ffffff" stroke="none" points="8,-175.75 8,-195.25 76.25,-195.25 76.25,-175.75 8,-175.75"/>
<polygon fill="none" stroke="black" points="8,-175.75 8,-195.25 76.25,-195.25 76.25,-175.75 8,-175.75"/>
<text text-anchor="start" x="11" y="-181.8" font-family="Helvetica,sans-Serif" font-size="11.00">&lt; 1</text>
<polygon fill="#ffffff" stroke="none" points="76.25,-175.75 76.25,-195.25 132.5,-195.25 132.5,-175.75 76.25,-175.75"/>
<polygon fill="none" stroke="black" points="76.25,-175.75 76.25,-195.25 132.5,-195.25 132.5,-175.75 76.25,-175.75"/>
<text text-anchor="start" x="122" y="-181.8" font-family="Helvetica,sans-Serif" font-size="11.00"> &#160;</text>
<polygon fill="#ffffff" stroke="none" points="132.5,-175.75 132.5,-195.25 200.75,-195.25 200.75,-175.75 132.5,-175.75"/>
<polygon fill="none" stroke="black" points="132.5,-175.75 132.5,-195.25 200.75,-195.25 200.75,-175.75 132.5,-175.75"/>
<text text-anchor="start" x="178.25" y="-181.8" font-family="Helvetica,sans-Serif" font-size="11.00">6 &gt;</text>
</a>
</g>
</g>
<!-- check_automatic_result&#45;&gt;doc_digital_document -->
<g id="edge1" class="edge">
<title>check_automatic_result:w&#45;&gt;doc_digital_document:e</title>
<path fill="none" stroke="black" d="M718.98,-534.5C588.72,-530.15 560.22,-470.29 438.75,-404 383.38,-373.78 264.83,-247.75 201.75,-247.75"/>
<polygon fill="black" stroke="black" points="726.17,-534.61 734.11,-538.34 730.5,-534.68 733.83,-534.74 733.83,-534.74 733.83,-534.74 730.5,-534.68 734.22,-531.15 726.17,-534.61"/>
<ellipse fill="none" stroke="black" cx="721.25" cy="-534.53" rx="3.2" ry="3.2"/>
</g>
<!-- doc_page -->
<g id="node3" class="node">
<title>doc_page</title>
<g id="a_node3"><a xlink:href="../../tables/doc_page.html" xlink:title="doc_page" target="_top">
<polygon fill="#ffffff" stroke="none" points="446.75,-38.5 446.75,-393.5 686.5,-393.5 686.5,-38.5 446.75,-38.5"/>
<polygon fill="#f5f5f5" stroke="none" points="448.75,-368 448.75,-391.5 684.5,-391.5 684.5,-368 448.75,-368"/>
<polygon fill="none" stroke="black" points="448.75,-368 448.75,-391.5 684.5,-391.5 684.5,-368 448.75,-368"/>
<text text-anchor="start" x="453.75" y="-377.05" font-family="Helvetica,sans-Serif" font-weight="bold" font-size="11.00">doc_page</text>
<text text-anchor="start" x="642.75" y="-376.05" font-family="Helvetica,sans-Serif" font-size="11.00">[table]</text>
<polygon fill="none" stroke="black" points="448.75,-346 448.75,-368 596.75,-368 596.75,-346 448.75,-346"/>
<image xlink:href="../../images/primaryKeys.png" width="11px" height="12px" preserveAspectRatio="xMinYMin meet" x="453.75" y="-363"/>
<text text-anchor="start" x="468.75" y="-352.55" font-family="Helvetica,sans-Serif" font-size="11.00">identifier</text>
<polygon fill="none" stroke="black" points="596.75,-346 596.75,-368 684.5,-368 684.5,-346 596.75,-346"/>
<text text-anchor="start" x="599.75" y="-353.3" font-family="Helvetica,sans-Serif" font-size="11.00">varchar[191]</text>
<polygon fill="none" stroke="black" points="448.75,-324 448.75,-346 596.75,-346 596.75,-324 448.75,-324"/>
<text text-anchor="start" x="468.75" y="-330.55" font-family="Helvetica,sans-Serif" font-size="11.00">number</text>
<polygon fill="none" stroke="black" points="596.75,-324 596.75,-346 684.5,-346 684.5,-324 596.75,-324"/>
<text text-anchor="start" x="599.75" y="-331.3" font-family="Helvetica,sans-Serif" font-size="11.00">int[10]</text>
<polygon fill="none" stroke="black" points="448.75,-302 448.75,-324 596.75,-324 596.75,-302 448.75,-302"/>
<text text-anchor="start" x="468.75" y="-308.55" font-family="Helvetica,sans-Serif" font-size="11.00">description</text>
<polygon fill="none" stroke="black" points="596.75,-302 596.75,-324 684.5,-324 684.5,-302 596.75,-302"/>
<text text-anchor="start" x="599.75" y="-309.3" font-family="Helvetica,sans-Serif" font-size="11.00">text[65535]</text>
<polygon fill="none" stroke="black" points="448.75,-280 448.75,-302 596.75,-302 596.75,-280 448.75,-280"/>
<text text-anchor="start" x="468.75" y="-286.55" font-family="Helvetica,sans-Serif" font-size="11.00">check_notes</text>
<polygon fill="none" stroke="black" points="596.75,-280 596.75,-302 684.5,-302 684.5,-280 596.75,-280"/>
<text text-anchor="start" x="599.75" y="-287.3" font-family="Helvetica,sans-Serif" font-size="11.00">text[65535]</text>
<polygon fill="none" stroke="black" points="448.75,-258 448.75,-280 596.75,-280 596.75,-258 448.75,-258"/>
<text text-anchor="start" x="468.75" y="-264.55" font-family="Helvetica,sans-Serif" font-size="11.00">status</text>
<polygon fill="none" stroke="black" points="596.75,-258 596.75,-280 684.5,-280 684.5,-258 596.75,-258"/>
<text text-anchor="start" x="599.75" y="-265.3" font-family="Helvetica,sans-Serif" font-size="11.00">varchar[255]</text>
<polygon fill="#ffffff" stroke="none" points="448.75,-236 448.75,-258 596.75,-258 596.75,-236 448.75,-236"/>
<polygon fill="none" stroke="black" points="448.75,-236 448.75,-258 596.75,-258 596.75,-236 448.75,-236"/>
<image xlink:href="../../images/foreignKeys.png" width="11px" height="12px" preserveAspectRatio="xMinYMin meet" x="453.75" y="-253"/>
<text text-anchor="start" x="468.75" y="-242.55" font-family="Helvetica,sans-Serif" font-size="11.00">digital_document</text>
<polygon fill="none" stroke="black" points="596.75,-236 596.75,-258 684.5,-258 684.5,-236 596.75,-236"/>
<text text-anchor="start" x="599.75" y="-243.3" font-family="Helvetica,sans-Serif" font-size="11.00">varchar[191]</text>
<polygon fill="none" stroke="black" points="448.75,-214 448.75,-236 596.75,-236 596.75,-214 448.75,-214"/>
<text text-anchor="start" x="468.75" y="-220.55" font-family="Helvetica,sans-Serif" font-size="11.00">version</text>
<polygon fill="none" stroke="black" points="596.75,-214 596.75,-236 684.5,-236 684.5,-214 596.75,-214"/>
<text text-anchor="start" x="599.75" y="-221.3" font-family="Helvetica,sans-Serif" font-size="11.00">bigint[19]</text>
<polygon fill="none" stroke="black" points="448.75,-192 448.75,-214 596.75,-214 596.75,-192 448.75,-192"/>
<text text-anchor="start" x="468.75" y="-198.55" font-family="Helvetica,sans-Serif" font-size="11.00">created_by</text>
<polygon fill="none" stroke="black" points="596.75,-192 596.75,-214 684.5,-214 684.5,-192 596.75,-192"/>
<text text-anchor="start" x="599.75" y="-199.3" font-family="Helvetica,sans-Serif" font-size="11.00">varchar[191]</text>
<polygon fill="none" stroke="black" points="448.75,-170 448.75,-192 596.75,-192 596.75,-170 448.75,-170"/>
<text text-anchor="start" x="468.75" y="-176.55" font-family="Helvetica,sans-Serif" font-size="11.00">last_modified_by</text>
<polygon fill="none" stroke="black" points="596.75,-170 596.75,-192 684.5,-192 684.5,-170 596.75,-170"/>
<text text-anchor="start" x="599.75" y="-177.3" font-family="Helvetica,sans-Serif" font-size="11.00">varchar[191]</text>
<polygon fill="none" stroke="black" points="448.75,-148 448.75,-170 596.75,-170 596.75,-148 448.75,-148"/>
<text text-anchor="start" x="468.75" y="-154.55" font-family="Helvetica,sans-Serif" font-size="11.00">created_date</text>
<polygon fill="none" stroke="black" points="596.75,-148 596.75,-170 684.5,-170 684.5,-148 596.75,-148"/>
<text text-anchor="start" x="599.75" y="-155.3" font-family="Helvetica,sans-Serif" font-size="11.00">timestamp[19]</text>
<polygon fill="none" stroke="black" points="448.75,-126 448.75,-148 596.75,-148 596.75,-126 448.75,-126"/>
<text text-anchor="start" x="468.75" y="-132.55" font-family="Helvetica,sans-Serif" font-size="11.00">last_modified_date</text>
<polygon fill="none" stroke="black" points="596.75,-126 596.75,-148 684.5,-148 684.5,-126 596.75,-126"/>
<text text-anchor="start" x="599.75" y="-133.3" font-family="Helvetica,sans-Serif" font-size="11.00">timestamp[19]</text>
<polygon fill="#ffffff" stroke="none" points="448.75,-104 448.75,-126 596.75,-126 596.75,-104 448.75,-104"/>
<polygon fill="none" stroke="black" points="448.75,-104 448.75,-126 596.75,-126 596.75,-104 448.75,-104"/>
<image xlink:href="../../images/foreignKeys.png" width="11px" height="12px" preserveAspectRatio="xMinYMin meet" x="453.75" y="-121"/>
<text text-anchor="start" x="468.75" y="-110.55" font-family="Helvetica,sans-Serif" font-size="11.00">sample</text>
<polygon fill="none" stroke="black" points="596.75,-104 596.75,-126 684.5,-126 684.5,-104 596.75,-104"/>
<text text-anchor="start" x="599.75" y="-111.3" font-family="Helvetica,sans-Serif" font-size="11.00">varchar[191]</text>
<polygon fill="#ffffff" stroke="none" points="448.75,-82 448.75,-104 596.75,-104 596.75,-82 448.75,-82"/>
<polygon fill="none" stroke="black" points="448.75,-82 448.75,-104 596.75,-104 596.75,-82 448.75,-82"/>
<text text-anchor="start" x="468.75" y="-88.55" font-family="Helvetica,sans-Serif" font-size="11.00">piece</text>
<polygon fill="none" stroke="black" points="596.75,-82 596.75,-104 684.5,-104 684.5,-82 596.75,-82"/>
<text text-anchor="start" x="599.75" y="-89.3" font-family="Helvetica,sans-Serif" font-size="11.00">varchar[191]</text>
<polygon fill="none" stroke="black" points="448.75,-60 448.75,-82 596.75,-82 596.75,-60 448.75,-60"/>
<text text-anchor="start" x="468.75" y="-66.55" font-family="Helvetica,sans-Serif" font-size="11.00">piece_number</text>
<polygon fill="none" stroke="black" points="596.75,-60 596.75,-82 684.5,-82 684.5,-60 596.75,-60"/>
<text text-anchor="start" x="599.75" y="-67.3" font-family="Helvetica,sans-Serif" font-size="11.00">int[10]</text>
<polygon fill="#ffffff" stroke="none" points="448.75,-40.5 448.75,-60 528.75,-60 528.75,-40.5 448.75,-40.5"/>
<polygon fill="none" stroke="black" points="448.75,-40.5 448.75,-60 528.75,-60 528.75,-40.5 448.75,-40.5"/>
<text text-anchor="start" x="451.75" y="-46.55" font-family="Helvetica,sans-Serif" font-size="11.00">&lt; 2</text>
<polygon fill="#ffffff" stroke="none" points="528.75,-40.5 528.75,-60 596.75,-60 596.75,-40.5 528.75,-40.5"/>
<polygon fill="none" stroke="black" points="528.75,-40.5 528.75,-60 596.75,-60 596.75,-40.5 528.75,-40.5"/>
<text text-anchor="start" x="586.25" y="-46.55" font-family="Helvetica,sans-Serif" font-size="11.00"> &#160;</text>
<polygon fill="#ffffff" stroke="none" points="596.75,-40.5 596.75,-60 684.5,-60 684.5,-40.5 596.75,-40.5"/>
<polygon fill="none" stroke="black" points="596.75,-40.5 596.75,-60 684.5,-60 684.5,-40.5 596.75,-40.5"/>
<text text-anchor="start" x="662" y="-46.55" font-family="Helvetica,sans-Serif" font-size="11.00">3 &gt;</text>
<polygon fill="none" stroke="black" stroke-width="2" points="447.75,-39.5 447.75,-392.5 685.5,-392.5 685.5,-39.5 447.75,-39.5"/>
</a>
</g>
</g>
<!-- check_automatic_result&#45;&gt;doc_page -->
<g id="edge2" class="edge">
<title>check_automatic_result:w&#45;&gt;doc_page:e</title>
<path fill="none" stroke="black" d="M719.28,-486.89C685.5,-464.96 742.38,-357 685.5,-357"/>
<polygon fill="black" stroke="black" points="726.42,-488.7 733.29,-494.16 730.62,-489.77 733.85,-490.59 733.85,-490.59 733.85,-490.59 730.62,-489.77 735.06,-487.18 726.42,-488.7"/>
<ellipse fill="none" stroke="black" cx="721.65" cy="-487.49" rx="3.2" ry="3.2"/>
</g>
<!-- doc_page&#45;&gt;doc_digital_document -->
<g id="edge4" class="edge">
<title>doc_page:w&#45;&gt;doc_digital_document:e</title>
<path fill="none" stroke="black" d="M432,-247.01C335.49,-247.07 305.64,-247.75 201.75,-247.75"/>
<polygon fill="black" stroke="black" points="439.42,-247 447.42,-250.6 443.75,-247 447.08,-247 447.08,-247 447.08,-247 443.75,-247 447.41,-243.4 439.42,-247"/>
<ellipse fill="none" stroke="black" cx="434.5" cy="-247" rx="3.2" ry="3.2"/>
</g>
<!-- doc_sample -->
<g id="node5" class="node">
<title>doc_sample</title>
<g id="a_node5"><a xlink:href="../../tables/doc_sample.html" xlink:title="doc_sample" target="_top">
<polygon fill="#ffffff" stroke="none" points="249.75,-58.75 249.75,-187.25 397.75,-187.25 397.75,-58.75 249.75,-58.75"/>
<polygon fill="#f5f5f5" stroke="none" points="249.75,-163.75 249.75,-187.25 397.75,-187.25 397.75,-163.75 249.75,-163.75"/>
<polygon fill="none" stroke="black" points="249.75,-163.75 249.75,-187.25 397.75,-187.25 397.75,-163.75 249.75,-163.75"/>
<text text-anchor="start" x="254.75" y="-172.8" font-family="Helvetica,sans-Serif" font-weight="bold" font-size="11.00">doc_sample</text>
<text text-anchor="start" x="356" y="-171.8" font-family="Helvetica,sans-Serif" font-size="11.00">[table]</text>
<polygon fill="none" stroke="black" points="249.75,-141.75 249.75,-163.75 397.75,-163.75 397.75,-141.75 249.75,-141.75"/>
<image xlink:href="../../images/primaryKeys.png" width="11px" height="12px" preserveAspectRatio="xMinYMin meet" x="254.75" y="-158.75"/>
<text text-anchor="start" x="269.75" y="-148.3" font-family="Helvetica,sans-Serif" font-size="11.00">identifier</text>
<polygon fill="#ffffff" stroke="none" points="249.75,-119.75 249.75,-141.75 397.75,-141.75 397.75,-119.75 249.75,-119.75"/>
<polygon fill="none" stroke="black" points="249.75,-119.75 249.75,-141.75 397.75,-141.75 397.75,-119.75 249.75,-119.75"/>
<image xlink:href="../../images/foreignKeys.png" width="11px" height="12px" preserveAspectRatio="xMinYMin meet" x="254.75" y="-136.75"/>
<text text-anchor="start" x="269.75" y="-126.3" font-family="Helvetica,sans-Serif" font-size="11.00">delivery</text>
<polygon fill="#ffffff" stroke="none" points="249.75,-97.75 249.75,-119.75 397.75,-119.75 397.75,-97.75 249.75,-97.75"/>
<polygon fill="none" stroke="black" points="249.75,-97.75 249.75,-119.75 397.75,-119.75 397.75,-97.75 249.75,-97.75"/>
<image xlink:href="../../images/foreignKeys.png" width="11px" height="12px" preserveAspectRatio="xMinYMin meet" x="254.75" y="-114.75"/>
<text text-anchor="start" x="269.75" y="-104.3" font-family="Helvetica,sans-Serif" font-size="11.00">digital_document</text>
<polygon fill="none" stroke="black" points="249.75,-78.25 249.75,-97.75 397.75,-97.75 397.75,-78.25 249.75,-78.25"/>
<text text-anchor="start" x="252.75" y="-84.3" font-family="Helvetica,sans-Serif" font-size="11.00">...</text>
<polygon fill="#ffffff" stroke="none" points="249.75,-58.75 249.75,-78.25 303.08,-78.25 303.08,-58.75 249.75,-58.75"/>
<polygon fill="none" stroke="black" points="249.75,-58.75 249.75,-78.25 303.08,-78.25 303.08,-58.75 249.75,-58.75"/>
<text text-anchor="start" x="252.75" y="-64.8" font-family="Helvetica,sans-Serif" font-size="11.00">&lt; 2</text>
<polygon fill="#ffffff" stroke="none" points="303.08,-58.75 303.08,-78.25 344.42,-78.25 344.42,-58.75 303.08,-58.75"/>
<polygon fill="none" stroke="black" points="303.08,-58.75 303.08,-78.25 344.42,-78.25 344.42,-58.75 303.08,-58.75"/>
<text text-anchor="start" x="333.92" y="-64.8" font-family="Helvetica,sans-Serif" font-size="11.00"> &#160;</text>
<polygon fill="#ffffff" stroke="none" points="344.42,-58.75 344.42,-78.25 397.75,-78.25 397.75,-58.75 344.42,-58.75"/>
<polygon fill="none" stroke="black" points="344.42,-58.75 344.42,-78.25 397.75,-78.25 397.75,-58.75 344.42,-58.75"/>
<text text-anchor="start" x="375.25" y="-64.8" font-family="Helvetica,sans-Serif" font-size="11.00">1 &gt;</text>
</a>
</g>
</g>
<!-- doc_page&#45;&gt;doc_sample -->
<g id="edge5" class="edge">
<title>doc_page:w&#45;&gt;doc_sample:e</title>
<path fill="none" stroke="black" d="M433.07,-120.25C421.22,-130.62 419.8,-152.75 398.75,-152.75"/>
<polygon fill="black" stroke="black" points="439.9,-117.81 448.65,-118.5 443.98,-116.35 447.12,-115.23 447.12,-115.23 447.12,-115.23 443.98,-116.35 446.22,-111.72 439.9,-117.81"/>
<ellipse fill="none" stroke="black" cx="435.27" cy="-119.46" rx="3.2" ry="3.2"/>
</g>
<!-- doc_check -->
<g id="node4" class="node">
<title>doc_check</title>
<g id="a_node4"><a xlink:href="../../tables/doc_check.html" xlink:title="doc_check" target="_top">
<polygon fill="#ffffff" stroke="none" points="763.88,-268.75 763.88,-375.25 911.88,-375.25 911.88,-268.75 763.88,-268.75"/>
<polygon fill="#f5f5f5" stroke="none" points="763.88,-351.75 763.88,-375.25 911.88,-375.25 911.88,-351.75 763.88,-351.75"/>
<polygon fill="none" stroke="black" points="763.88,-351.75 763.88,-375.25 911.88,-375.25 911.88,-351.75 763.88,-351.75"/>
<text text-anchor="start" x="768.88" y="-360.8" font-family="Helvetica,sans-Serif" font-weight="bold" font-size="11.00">doc_check</text>
<text text-anchor="start" x="870.12" y="-359.8" font-family="Helvetica,sans-Serif" font-size="11.00">[table]</text>
<polygon fill="none" stroke="black" points="763.88,-329.75 763.88,-351.75 911.88,-351.75 911.88,-329.75 763.88,-329.75"/>
<image xlink:href="../../images/primaryKeys.png" width="11px" height="12px" preserveAspectRatio="xMinYMin meet" x="768.875" y="-346.75"/>
<text text-anchor="start" x="783.88" y="-336.3" font-family="Helvetica,sans-Serif" font-size="11.00">identifier</text>
<polygon fill="#ffffff" stroke="none" points="763.88,-307.75 763.88,-329.75 911.88,-329.75 911.88,-307.75 763.88,-307.75"/>
<polygon fill="none" stroke="black" points="763.88,-307.75 763.88,-329.75 911.88,-329.75 911.88,-307.75 763.88,-307.75"/>
<image xlink:href="../../images/foreignKeys.png" width="11px" height="12px" preserveAspectRatio="xMinYMin meet" x="768.875" y="-324.75"/>
<text text-anchor="start" x="783.88" y="-314.3" font-family="Helvetica,sans-Serif" font-size="11.00">page</text>
<polygon fill="none" stroke="black" points="763.88,-288.25 763.88,-307.75 911.88,-307.75 911.88,-288.25 763.88,-288.25"/>
<text text-anchor="start" x="766.88" y="-294.3" font-family="Helvetica,sans-Serif" font-size="11.00">...</text>
<polygon fill="#ffffff" stroke="none" points="763.88,-268.75 763.88,-288.25 821.21,-288.25 821.21,-268.75 763.88,-268.75"/>
<polygon fill="none" stroke="black" points="763.88,-268.75 763.88,-288.25 821.21,-288.25 821.21,-268.75 763.88,-268.75"/>
<text text-anchor="start" x="766.88" y="-274.8" font-family="Helvetica,sans-Serif" font-size="11.00">&lt; 1</text>
<polygon fill="#ffffff" stroke="none" points="821.21,-268.75 821.21,-288.25 866.54,-288.25 866.54,-268.75 821.21,-268.75"/>
<polygon fill="none" stroke="black" points="821.21,-268.75 821.21,-288.25 866.54,-288.25 866.54,-268.75 821.21,-268.75"/>
<text text-anchor="start" x="856.04" y="-274.8" font-family="Helvetica,sans-Serif" font-size="11.00"> &#160;</text>
<polygon fill="#ffffff" stroke="none" points="866.54,-268.75 866.54,-288.25 911.88,-288.25 911.88,-268.75 866.54,-268.75"/>
<polygon fill="none" stroke="black" points="866.54,-268.75 866.54,-288.25 911.88,-288.25 911.88,-268.75 866.54,-268.75"/>
<text text-anchor="start" x="901.38" y="-274.8" font-family="Helvetica,sans-Serif" font-size="11.00"> &#160;</text>
</a>
</g>
</g>
<!-- doc_check&#45;&gt;doc_page -->
<g id="edge3" class="edge">
<title>doc_check:w&#45;&gt;doc_page:e</title>
<path fill="none" stroke="black" d="M747.37,-321.26C723.39,-329.77 717.87,-357 685.5,-357"/>
<polygon fill="black" stroke="black" points="754.65,-320.08 763.12,-322.36 758.93,-319.39 762.21,-318.86 762.21,-318.86 762.21,-318.86 758.93,-319.39 761.97,-315.25 754.65,-320.08"/>
<ellipse fill="none" stroke="black" cx="749.79" cy="-320.87" rx="3.2" ry="3.2"/>
</g>
<!-- doc_sample&#45;&gt;doc_digital_document -->
<g id="edge6" class="edge">
<title>doc_sample:w&#45;&gt;doc_digital_document:e</title>
<path fill="none" stroke="black" d="M233.62,-112.47C198.41,-134.57 260.6,-247.75 201.75,-247.75"/>
<polygon fill="black" stroke="black" points="240.66,-110.74 249.28,-112.33 244.87,-109.7 248.1,-108.91 248.1,-108.91 248.1,-108.91 244.87,-109.7 247.57,-105.33 240.66,-110.74"/>
<ellipse fill="none" stroke="black" cx="235.88" cy="-111.91" rx="3.2" ry="3.2"/>
</g>
<!-- sto_stored_file -->
<g id="node6" class="node">
<title>sto_stored_file</title>
<g id="a_node6"><a xlink:href="../../tables/sto_stored_file.html" xlink:title="sto_stored_file" target="_top">
<polygon fill="#ffffff" stroke="none" points="756.38,-118.75 756.38,-247.25 919.38,-247.25 919.38,-118.75 756.38,-118.75"/>
<polygon fill="#f5f5f5" stroke="none" points="756.38,-223.75 756.38,-247.25 919.38,-247.25 919.38,-223.75 756.38,-223.75"/>
<polygon fill="none" stroke="black" points="756.38,-223.75 756.38,-247.25 919.38,-247.25 919.38,-223.75 756.38,-223.75"/>
<text text-anchor="start" x="761.38" y="-232.8" font-family="Helvetica,sans-Serif" font-weight="bold" font-size="11.00">sto_stored_file</text>
<text text-anchor="start" x="877.62" y="-231.8" font-family="Helvetica,sans-Serif" font-size="11.00">[table]</text>
<polygon fill="none" stroke="black" points="756.38,-201.75 756.38,-223.75 919.38,-223.75 919.38,-201.75 756.38,-201.75"/>
<image xlink:href="../../images/primaryKeys.png" width="11px" height="12px" preserveAspectRatio="xMinYMin meet" x="761.375" y="-218.75"/>
<text text-anchor="start" x="776.38" y="-208.3" font-family="Helvetica,sans-Serif" font-size="11.00">identifier</text>
<polygon fill="#ffffff" stroke="none" points="756.38,-179.75 756.38,-201.75 919.38,-201.75 919.38,-179.75 756.38,-179.75"/>
<polygon fill="none" stroke="black" points="756.38,-179.75 756.38,-201.75 919.38,-201.75 919.38,-179.75 756.38,-179.75"/>
<image xlink:href="../../images/foreignKeys.png" width="11px" height="12px" preserveAspectRatio="xMinYMin meet" x="761.375" y="-196.75"/>
<text text-anchor="start" x="776.38" y="-186.3" font-family="Helvetica,sans-Serif" font-size="11.00">page</text>
<polygon fill="#ffffff" stroke="none" points="756.38,-157.75 756.38,-179.75 919.38,-179.75 919.38,-157.75 756.38,-157.75"/>
<polygon fill="none" stroke="black" points="756.38,-157.75 756.38,-179.75 919.38,-179.75 919.38,-157.75 756.38,-157.75"/>
<image xlink:href="../../images/foreignKeys.png" width="11px" height="12px" preserveAspectRatio="xMinYMin meet" x="761.375" y="-174.75"/>
<text text-anchor="start" x="776.38" y="-164.3" font-family="Helvetica,sans-Serif" font-size="11.00">format_configuration</text>
<polygon fill="none" stroke="black" points="756.38,-138.25 756.38,-157.75 919.38,-157.75 919.38,-138.25 756.38,-138.25"/>
<text text-anchor="start" x="759.38" y="-144.3" font-family="Helvetica,sans-Serif" font-size="11.00">...</text>
<polygon fill="#ffffff" stroke="none" points="756.38,-118.75 756.38,-138.25 818.71,-138.25 818.71,-118.75 756.38,-118.75"/>
<polygon fill="none" stroke="black" points="756.38,-118.75 756.38,-138.25 818.71,-138.25 818.71,-118.75 756.38,-118.75"/>
<text text-anchor="start" x="759.38" y="-124.8" font-family="Helvetica,sans-Serif" font-size="11.00">&lt; 2</text>
<polygon fill="#ffffff" stroke="none" points="818.71,-118.75 818.71,-138.25 869.04,-138.25 869.04,-118.75 818.71,-118.75"/>
<polygon fill="none" stroke="black" points="818.71,-118.75 818.71,-138.25 869.04,-138.25 869.04,-118.75 818.71,-118.75"/>
<text text-anchor="start" x="858.54" y="-124.8" font-family="Helvetica,sans-Serif" font-size="11.00"> &#160;</text>
<polygon fill="#ffffff" stroke="none" points="869.04,-118.75 869.04,-138.25 919.38,-138.25 919.38,-118.75 869.04,-118.75"/>
<polygon fill="none" stroke="black" points="869.04,-118.75 869.04,-138.25 919.38,-138.25 919.38,-118.75 869.04,-118.75"/>
<text text-anchor="start" x="908.88" y="-124.8" font-family="Helvetica,sans-Serif" font-size="11.00"> &#160;</text>
</a>
</g>
</g>
<!-- sto_stored_file&#45;&gt;doc_page -->
<g id="edge7" class="edge">
<title>sto_stored_file:w&#45;&gt;doc_page:e</title>
<path fill="none" stroke="black" d="M739.88,-193.5C688.01,-215.11 759.54,-357 685.5,-357"/>
<polygon fill="black" stroke="black" points="747.17,-192.2 755.67,-194.35 751.44,-191.45 754.72,-190.87 754.72,-190.87 754.72,-190.87 751.44,-191.45 754.42,-187.26 747.17,-192.2"/>
<ellipse fill="none" stroke="black" cx="742.33" cy="-193.06" rx="3.2" ry="3.2"/>
</g>
</g>
</svg>
