<?xml version="1.0" encoding="UTF-8" standalone="no"?>
<!DOCTYPE svg PUBLIC "-//W3C//DTD SVG 1.1//EN"
 "http://www.w3.org/Graphics/SVG/1.1/DTD/svg11.dtd">
<!-- Generated by graphviz version 12.2.0 (0)
 -->
<!-- Title: oneDegreeRelationshipsDiagram Pages: 1 -->
<svg width="708pt" height="357pt"
 viewBox="0.00 0.00 707.75 357.25" xmlns="http://www.w3.org/2000/svg" xmlns:xlink="http://www.w3.org/1999/xlink">
<g id="graph0" class="graph" transform="scale(1 1) rotate(0) translate(4 353.25)">
<title>oneDegreeRelationshipsDiagram</title>
<polygon fill="#ffffff" stroke="none" points="-4,4 -4,-353.25 703.75,-353.25 703.75,4 -4,4"/>
<text text-anchor="middle" x="79.25" y="-7.05" font-family="Helvetica,sans-Serif" font-size="11.00">Generated by SchemaSpy</text>
<!-- doc_page -->
<g id="node1" class="node">
<title>doc_page</title>
<g id="a_node1"><a xlink:href="../../tables/doc_page.html" xlink:title="doc_page" target="_top">
<polygon fill="#ffffff" stroke="none" points="543.75,-194.75 543.75,-345.25 691.75,-345.25 691.75,-194.75 543.75,-194.75"/>
<polygon fill="#f5f5f5" stroke="none" points="543.75,-321.75 543.75,-345.25 691.75,-345.25 691.75,-321.75 543.75,-321.75"/>
<polygon fill="none" stroke="black" points="543.75,-321.75 543.75,-345.25 691.75,-345.25 691.75,-321.75 543.75,-321.75"/>
<text text-anchor="start" x="548.75" y="-330.8" font-family="Helvetica,sans-Serif" font-weight="bold" font-size="11.00">doc_page</text>
<text text-anchor="start" x="650" y="-329.8" font-family="Helvetica,sans-Serif" font-size="11.00">[table]</text>
<polygon fill="none" stroke="black" points="543.75,-299.75 543.75,-321.75 691.75,-321.75 691.75,-299.75 543.75,-299.75"/>
<image xlink:href="../../images/primaryKeys.png" width="11px" height="12px" preserveAspectRatio="xMinYMin meet" x="548.75" y="-316.75"/>
<text text-anchor="start" x="563.75" y="-306.3" font-family="Helvetica,sans-Serif" font-size="11.00">identifier</text>
<polygon fill="#ffffff" stroke="none" points="543.75,-277.75 543.75,-299.75 691.75,-299.75 691.75,-277.75 543.75,-277.75"/>
<polygon fill="none" stroke="black" points="543.75,-277.75 543.75,-299.75 691.75,-299.75 691.75,-277.75 543.75,-277.75"/>
<image xlink:href="../../images/foreignKeys.png" width="11px" height="12px" preserveAspectRatio="xMinYMin meet" x="548.75" y="-294.75"/>
<text text-anchor="start" x="563.75" y="-284.3" font-family="Helvetica,sans-Serif" font-size="11.00">digital_document</text>
<polygon fill="#ffffff" stroke="none" points="543.75,-255.75 543.75,-277.75 691.75,-277.75 691.75,-255.75 543.75,-255.75"/>
<polygon fill="none" stroke="black" points="543.75,-255.75 543.75,-277.75 691.75,-277.75 691.75,-255.75 543.75,-255.75"/>
<image xlink:href="../../images/foreignKeys.png" width="11px" height="12px" preserveAspectRatio="xMinYMin meet" x="548.75" y="-272.75"/>
<text text-anchor="start" x="563.75" y="-262.3" font-family="Helvetica,sans-Serif" font-size="11.00">sample</text>
<polygon fill="#ffffff" stroke="none" points="543.75,-233.75 543.75,-255.75 691.75,-255.75 691.75,-233.75 543.75,-233.75"/>
<polygon fill="none" stroke="black" points="543.75,-233.75 543.75,-255.75 691.75,-255.75 691.75,-233.75 543.75,-233.75"/>
<text text-anchor="start" x="563.75" y="-240.3" font-family="Helvetica,sans-Serif" font-size="11.00">piece</text>
<polygon fill="none" stroke="black" points="543.75,-214.25 543.75,-233.75 691.75,-233.75 691.75,-214.25 543.75,-214.25"/>
<text text-anchor="start" x="546.75" y="-220.3" font-family="Helvetica,sans-Serif" font-size="11.00">...</text>
<polygon fill="#ffffff" stroke="none" points="543.75,-194.75 543.75,-214.25 597.08,-214.25 597.08,-194.75 543.75,-194.75"/>
<polygon fill="none" stroke="black" points="543.75,-194.75 543.75,-214.25 597.08,-214.25 597.08,-194.75 543.75,-194.75"/>
<text text-anchor="start" x="546.75" y="-200.8" font-family="Helvetica,sans-Serif" font-size="11.00">&lt; 2</text>
<polygon fill="#ffffff" stroke="none" points="597.08,-194.75 597.08,-214.25 638.42,-214.25 638.42,-194.75 597.08,-194.75"/>
<polygon fill="none" stroke="black" points="597.08,-194.75 597.08,-214.25 638.42,-214.25 638.42,-194.75 597.08,-194.75"/>
<text text-anchor="start" x="627.92" y="-200.8" font-family="Helvetica,sans-Serif" font-size="11.00"> &#160;</text>
<polygon fill="#ffffff" stroke="none" points="638.42,-194.75 638.42,-214.25 691.75,-214.25 691.75,-194.75 638.42,-194.75"/>
<polygon fill="none" stroke="black" points="638.42,-194.75 638.42,-214.25 691.75,-214.25 691.75,-194.75 638.42,-194.75"/>
<text text-anchor="start" x="669.25" y="-200.8" font-family="Helvetica,sans-Serif" font-size="11.00">3 &gt;</text>
</a>
</g>
</g>
<!-- doc_digital_document -->
<g id="node2" class="node">
<title>doc_digital_document</title>
<g id="a_node2"><a xlink:href="../../tables/doc_digital_document.html" xlink:title="doc_digital_document" target="_top">
<polygon fill="#ffffff" stroke="none" points="10.62,-236.75 10.62,-343.25 203.38,-343.25 203.38,-236.75 10.62,-236.75"/>
<polygon fill="#f5f5f5" stroke="none" points="10.62,-319.75 10.62,-343.25 203.38,-343.25 203.38,-319.75 10.62,-319.75"/>
<polygon fill="none" stroke="black" points="10.62,-319.75 10.62,-343.25 203.38,-343.25 203.38,-319.75 10.62,-319.75"/>
<text text-anchor="start" x="15.62" y="-328.8" font-family="Helvetica,sans-Serif" font-weight="bold" font-size="11.00">doc_digital_document</text>
<text text-anchor="start" x="161.62" y="-327.8" font-family="Helvetica,sans-Serif" font-size="11.00">[table]</text>
<polygon fill="none" stroke="black" points="10.62,-297.75 10.62,-319.75 203.38,-319.75 203.38,-297.75 10.62,-297.75"/>
<image xlink:href="../../images/primaryKeys.png" width="11px" height="12px" preserveAspectRatio="xMinYMin meet" x="15.625" y="-314.75"/>
<text text-anchor="start" x="43.5" y="-304.3" font-family="Helvetica,sans-Serif" font-size="11.00">identifier</text>
<polygon fill="#ffffff" stroke="none" points="10.62,-275.75 10.62,-297.75 203.38,-297.75 203.38,-275.75 10.62,-275.75"/>
<polygon fill="none" stroke="black" points="10.62,-275.75 10.62,-297.75 203.38,-297.75 203.38,-275.75 10.62,-275.75"/>
<image xlink:href="../../images/foreignKeys.png" width="11px" height="12px" preserveAspectRatio="xMinYMin meet" x="15.625" y="-292.75"/>
<text text-anchor="start" x="43.5" y="-282.3" font-family="Helvetica,sans-Serif" font-size="11.00">doc_unit</text>
<polygon fill="none" stroke="black" points="10.62,-256.25 10.62,-275.75 203.38,-275.75 203.38,-256.25 10.62,-256.25"/>
<text text-anchor="start" x="13.62" y="-262.3" font-family="Helvetica,sans-Serif" font-size="11.00">...</text>
<polygon fill="#ffffff" stroke="none" points="10.62,-236.75 10.62,-256.25 78.88,-256.25 78.88,-236.75 10.62,-236.75"/>
<polygon fill="none" stroke="black" points="10.62,-236.75 10.62,-256.25 78.88,-256.25 78.88,-236.75 10.62,-236.75"/>
<text text-anchor="start" x="13.62" y="-242.8" font-family="Helvetica,sans-Serif" font-size="11.00">&lt; 1</text>
<polygon fill="#ffffff" stroke="none" points="78.88,-236.75 78.88,-256.25 135.12,-256.25 135.12,-236.75 78.88,-236.75"/>
<polygon fill="none" stroke="black" points="78.88,-236.75 78.88,-256.25 135.12,-256.25 135.12,-236.75 78.88,-236.75"/>
<text text-anchor="start" x="124.62" y="-242.8" font-family="Helvetica,sans-Serif" font-size="11.00"> &#160;</text>
<polygon fill="#ffffff" stroke="none" points="135.12,-236.75 135.12,-256.25 203.38,-256.25 203.38,-236.75 135.12,-236.75"/>
<polygon fill="none" stroke="black" points="135.12,-236.75 135.12,-256.25 203.38,-256.25 203.38,-236.75 135.12,-236.75"/>
<text text-anchor="start" x="180.88" y="-242.8" font-family="Helvetica,sans-Serif" font-size="11.00">6 &gt;</text>
</a>
</g>
</g>
<!-- doc_page&#45;&gt;doc_digital_document -->
<g id="edge1" class="edge">
<title>doc_page:w&#45;&gt;doc_digital_document:e</title>
<path fill="none" stroke="black" d="M527.19,-289.94C519.89,-291.15 514.05,-292.98 502.75,-294 370.51,-305.93 337.15,-308.75 204.38,-308.75"/>
<polygon fill="black" stroke="black" points="534.44,-289.39 542.69,-292.37 538.76,-289.06 542.08,-288.8 542.08,-288.8 542.08,-288.8 538.76,-289.06 542.14,-285.19 534.44,-289.39"/>
<ellipse fill="none" stroke="black" cx="529.54" cy="-289.76" rx="3.2" ry="3.2"/>
</g>
<!-- doc_sample -->
<g id="node3" class="node">
<title>doc_sample</title>
<g id="a_node3"><a xlink:href="../../tables/doc_sample.html" xlink:title="doc_sample" target="_top">
<polygon fill="#ffffff" stroke="none" points="255,-38.5 255,-283.5 494.75,-283.5 494.75,-38.5 255,-38.5"/>
<polygon fill="#f5f5f5" stroke="none" points="257,-258 257,-281.5 492.75,-281.5 492.75,-258 257,-258"/>
<polygon fill="none" stroke="black" points="257,-258 257,-281.5 492.75,-281.5 492.75,-258 257,-258"/>
<text text-anchor="start" x="262" y="-267.05" font-family="Helvetica,sans-Serif" font-weight="bold" font-size="11.00">doc_sample</text>
<text text-anchor="start" x="451" y="-266.05" font-family="Helvetica,sans-Serif" font-size="11.00">[table]</text>
<polygon fill="none" stroke="black" points="257,-236 257,-258 405,-258 405,-236 257,-236"/>
<image xlink:href="../../images/primaryKeys.png" width="11px" height="12px" preserveAspectRatio="xMinYMin meet" x="262" y="-253"/>
<text text-anchor="start" x="277" y="-242.55" font-family="Helvetica,sans-Serif" font-size="11.00">identifier</text>
<polygon fill="none" stroke="black" points="405,-236 405,-258 492.75,-258 492.75,-236 405,-236"/>
<text text-anchor="start" x="408" y="-243.3" font-family="Helvetica,sans-Serif" font-size="11.00">varchar[191]</text>
<polygon fill="none" stroke="black" points="257,-214 257,-236 405,-236 405,-214 257,-214"/>
<text text-anchor="start" x="277" y="-220.55" font-family="Helvetica,sans-Serif" font-size="11.00">sampling_mode</text>
<polygon fill="none" stroke="black" points="405,-214 405,-236 492.75,-236 492.75,-214 405,-214"/>
<text text-anchor="start" x="408" y="-221.3" font-family="Helvetica,sans-Serif" font-size="11.00">varchar[255]</text>
<polygon fill="#ffffff" stroke="none" points="257,-192 257,-214 405,-214 405,-192 257,-192"/>
<polygon fill="none" stroke="black" points="257,-192 257,-214 405,-214 405,-192 257,-192"/>
<image xlink:href="../../images/foreignKeys.png" width="11px" height="12px" preserveAspectRatio="xMinYMin meet" x="262" y="-209"/>
<text text-anchor="start" x="277" y="-198.55" font-family="Helvetica,sans-Serif" font-size="11.00">delivery</text>
<polygon fill="none" stroke="black" points="405,-192 405,-214 492.75,-214 492.75,-192 405,-192"/>
<text text-anchor="start" x="408" y="-199.3" font-family="Helvetica,sans-Serif" font-size="11.00">varchar[191]</text>
<polygon fill="#ffffff" stroke="none" points="257,-170 257,-192 405,-192 405,-170 257,-170"/>
<polygon fill="none" stroke="black" points="257,-170 257,-192 405,-192 405,-170 257,-170"/>
<image xlink:href="../../images/foreignKeys.png" width="11px" height="12px" preserveAspectRatio="xMinYMin meet" x="262" y="-187"/>
<text text-anchor="start" x="277" y="-176.55" font-family="Helvetica,sans-Serif" font-size="11.00">digital_document</text>
<polygon fill="none" stroke="black" points="405,-170 405,-192 492.75,-192 492.75,-170 405,-170"/>
<text text-anchor="start" x="408" y="-177.3" font-family="Helvetica,sans-Serif" font-size="11.00">varchar[191]</text>
<polygon fill="none" stroke="black" points="257,-148 257,-170 405,-170 405,-148 257,-148"/>
<text text-anchor="start" x="277" y="-154.55" font-family="Helvetica,sans-Serif" font-size="11.00">version</text>
<polygon fill="none" stroke="black" points="405,-148 405,-170 492.75,-170 492.75,-148 405,-148"/>
<text text-anchor="start" x="408" y="-155.3" font-family="Helvetica,sans-Serif" font-size="11.00">bigint[19]</text>
<polygon fill="none" stroke="black" points="257,-126 257,-148 405,-148 405,-126 257,-126"/>
<text text-anchor="start" x="277" y="-132.55" font-family="Helvetica,sans-Serif" font-size="11.00">created_by</text>
<polygon fill="none" stroke="black" points="405,-126 405,-148 492.75,-148 492.75,-126 405,-126"/>
<text text-anchor="start" x="408" y="-133.3" font-family="Helvetica,sans-Serif" font-size="11.00">varchar[191]</text>
<polygon fill="none" stroke="black" points="257,-104 257,-126 405,-126 405,-104 257,-104"/>
<text text-anchor="start" x="277" y="-110.55" font-family="Helvetica,sans-Serif" font-size="11.00">last_modified_by</text>
<polygon fill="none" stroke="black" points="405,-104 405,-126 492.75,-126 492.75,-104 405,-104"/>
<text text-anchor="start" x="408" y="-111.3" font-family="Helvetica,sans-Serif" font-size="11.00">varchar[191]</text>
<polygon fill="none" stroke="black" points="257,-82 257,-104 405,-104 405,-82 257,-82"/>
<text text-anchor="start" x="277" y="-88.55" font-family="Helvetica,sans-Serif" font-size="11.00">created_date</text>
<polygon fill="none" stroke="black" points="405,-82 405,-104 492.75,-104 492.75,-82 405,-82"/>
<text text-anchor="start" x="408" y="-89.3" font-family="Helvetica,sans-Serif" font-size="11.00">timestamp[19]</text>
<polygon fill="none" stroke="black" points="257,-60 257,-82 405,-82 405,-60 257,-60"/>
<text text-anchor="start" x="277" y="-66.55" font-family="Helvetica,sans-Serif" font-size="11.00">last_modified_date</text>
<polygon fill="none" stroke="black" points="405,-60 405,-82 492.75,-82 492.75,-60 405,-60"/>
<text text-anchor="start" x="408" y="-67.3" font-family="Helvetica,sans-Serif" font-size="11.00">timestamp[19]</text>
<polygon fill="#ffffff" stroke="none" points="257,-40.5 257,-60 337,-60 337,-40.5 257,-40.5"/>
<polygon fill="none" stroke="black" points="257,-40.5 257,-60 337,-60 337,-40.5 257,-40.5"/>
<text text-anchor="start" x="260" y="-46.55" font-family="Helvetica,sans-Serif" font-size="11.00">&lt; 2</text>
<polygon fill="#ffffff" stroke="none" points="337,-40.5 337,-60 405,-60 405,-40.5 337,-40.5"/>
<polygon fill="none" stroke="black" points="337,-40.5 337,-60 405,-60 405,-40.5 337,-40.5"/>
<text text-anchor="start" x="394.5" y="-46.55" font-family="Helvetica,sans-Serif" font-size="11.00"> &#160;</text>
<polygon fill="#ffffff" stroke="none" points="405,-40.5 405,-60 492.75,-60 492.75,-40.5 405,-40.5"/>
<polygon fill="none" stroke="black" points="405,-40.5 405,-60 492.75,-60 492.75,-40.5 405,-40.5"/>
<text text-anchor="start" x="470.25" y="-46.55" font-family="Helvetica,sans-Serif" font-size="11.00">1 &gt;</text>
<polygon fill="none" stroke="black" stroke-width="2" points="256,-39.5 256,-282.5 493.75,-282.5 493.75,-39.5 256,-39.5"/>
</a>
</g>
</g>
<!-- doc_page&#45;&gt;doc_sample -->
<g id="edge2" class="edge">
<title>doc_page:w&#45;&gt;doc_sample:e</title>
<path fill="none" stroke="black" d="M527.42,-263.13C516.55,-257.43 510.81,-247 493.75,-247"/>
<polygon fill="black" stroke="black" points="534.64,-264.83 541.6,-270.18 538.86,-265.83 542.1,-266.6 542.1,-266.6 542.1,-266.6 538.86,-265.83 543.25,-263.17 534.64,-264.83"/>
<ellipse fill="none" stroke="black" cx="529.85" cy="-263.7" rx="3.2" ry="3.2"/>
</g>
<!-- doc_sample&#45;&gt;doc_digital_document -->
<g id="edge4" class="edge">
<title>doc_sample:w&#45;&gt;doc_digital_document:e</title>
<path fill="none" stroke="black" d="M240.72,-184.96C208.24,-206.53 259.15,-308.75 204.38,-308.75"/>
<polygon fill="black" stroke="black" points="247.93,-183.09 256.58,-184.57 252.13,-182 255.35,-181.17 255.35,-181.17 255.35,-181.17 252.13,-182 254.77,-177.6 247.93,-183.09"/>
<ellipse fill="none" stroke="black" cx="243.17" cy="-184.33" rx="3.2" ry="3.2"/>
</g>
<!-- del_delivery -->
<g id="node4" class="node">
<title>del_delivery</title>
<g id="a_node4"><a xlink:href="../../tables/del_delivery.html" xlink:title="del_delivery" target="_top">
<polygon fill="#ffffff" stroke="none" points="8,-86.75 8,-215.25 206,-215.25 206,-86.75 8,-86.75"/>
<polygon fill="#f5f5f5" stroke="none" points="8,-191.75 8,-215.25 206,-215.25 206,-191.75 8,-191.75"/>
<polygon fill="none" stroke="black" points="8,-191.75 8,-215.25 206,-215.25 206,-191.75 8,-191.75"/>
<text text-anchor="start" x="13" y="-200.8" font-family="Helvetica,sans-Serif" font-weight="bold" font-size="11.00">del_delivery</text>
<text text-anchor="start" x="164.25" y="-199.8" font-family="Helvetica,sans-Serif" font-size="11.00">[table]</text>
<polygon fill="none" stroke="black" points="8,-169.75 8,-191.75 206,-191.75 206,-169.75 8,-169.75"/>
<image xlink:href="../../images/primaryKeys.png" width="11px" height="12px" preserveAspectRatio="xMinYMin meet" x="13" y="-186.75"/>
<text text-anchor="start" x="28" y="-176.3" font-family="Helvetica,sans-Serif" font-size="11.00">identifier</text>
<polygon fill="#ffffff" stroke="none" points="8,-147.75 8,-169.75 206,-169.75 206,-147.75 8,-147.75"/>
<polygon fill="none" stroke="black" points="8,-147.75 8,-169.75 206,-169.75 206,-147.75 8,-147.75"/>
<image xlink:href="../../images/foreignKeys.png" width="11px" height="12px" preserveAspectRatio="xMinYMin meet" x="13" y="-164.75"/>
<text text-anchor="start" x="28" y="-154.3" font-family="Helvetica,sans-Serif" font-size="11.00">lot_identifier</text>
<polygon fill="#ffffff" stroke="none" points="8,-125.75 8,-147.75 206,-147.75 206,-125.75 8,-125.75"/>
<polygon fill="none" stroke="black" points="8,-125.75 8,-147.75 206,-147.75 206,-125.75 8,-125.75"/>
<image xlink:href="../../images/foreignKeys.png" width="11px" height="12px" preserveAspectRatio="xMinYMin meet" x="13" y="-142.75"/>
<text text-anchor="start" x="28" y="-132.3" font-family="Helvetica,sans-Serif" font-size="11.00">multi_lots_delivery</text>
<polygon fill="none" stroke="black" points="8,-106.25 8,-125.75 206,-125.75 206,-106.25 8,-106.25"/>
<text text-anchor="start" x="11" y="-112.3" font-family="Helvetica,sans-Serif" font-size="11.00">...</text>
<polygon fill="#ffffff" stroke="none" points="8,-86.75 8,-106.25 78,-106.25 78,-86.75 8,-86.75"/>
<polygon fill="none" stroke="black" points="8,-86.75 8,-106.25 78,-106.25 78,-86.75 8,-86.75"/>
<text text-anchor="start" x="11" y="-92.8" font-family="Helvetica,sans-Serif" font-size="11.00">&lt; 2</text>
<polygon fill="#ffffff" stroke="none" points="78,-86.75 78,-106.25 136,-106.25 136,-86.75 78,-86.75"/>
<polygon fill="none" stroke="black" points="78,-86.75 78,-106.25 136,-106.25 136,-86.75 78,-86.75"/>
<text text-anchor="start" x="125.5" y="-92.8" font-family="Helvetica,sans-Serif" font-size="11.00"> &#160;</text>
<polygon fill="#ffffff" stroke="none" points="136,-86.75 136,-106.25 206,-106.25 206,-86.75 136,-86.75"/>
<polygon fill="none" stroke="black" points="136,-86.75 136,-106.25 206,-106.25 206,-86.75 136,-86.75"/>
<text text-anchor="start" x="183.5" y="-92.8" font-family="Helvetica,sans-Serif" font-size="11.00">4 &gt;</text>
</a>
</g>
</g>
<!-- doc_sample&#45;&gt;del_delivery -->
<g id="edge3" class="edge">
<title>doc_sample:w&#45;&gt;del_delivery:e</title>
<path fill="none" stroke="black" d="M240.9,-199.12C229.86,-192.75 224.56,-180.75 207,-180.75"/>
<polygon fill="black" stroke="black" points="247.93,-200.93 254.78,-206.4 252.13,-202.01 255.35,-202.83 255.35,-202.83 255.35,-202.83 252.13,-202.01 256.57,-199.43 247.93,-200.93"/>
<ellipse fill="none" stroke="black" cx="243.16" cy="-199.7" rx="3.2" ry="3.2"/>
</g>
</g>
</svg>
