<?xml version="1.0" encoding="UTF-8" standalone="no"?>
<!DOCTYPE svg PUBLIC "-//W3C//DTD SVG 1.1//EN"
 "http://www.w3.org/Graphics/SVG/1.1/DTD/svg11.dtd">
<!-- Generated by graphviz version 12.2.0 (0)
 -->
<!-- Title: oneDegreeRelationshipsDiagram Pages: 1 -->
<svg width="710pt" height="698pt"
 viewBox="0.00 0.00 710.00 698.25" xmlns="http://www.w3.org/2000/svg" xmlns:xlink="http://www.w3.org/1999/xlink">
<g id="graph0" class="graph" transform="scale(1 1) rotate(0) translate(4 694.25)">
<title>oneDegreeRelationshipsDiagram</title>
<polygon fill="#ffffff" stroke="none" points="-4,4 -4,-694.25 706,-694.25 706,4 -4,4"/>
<text text-anchor="middle" x="79.25" y="-7.05" font-family="Helvetica,sans-Serif" font-size="11.00">Generated by SchemaSpy</text>
<!-- doc_unit -->
<g id="node1" class="node">
<title>doc_unit</title>
<g id="a_node1"><a xlink:href="../../tables/doc_unit.html" xlink:title="doc_unit" target="_top">
<polygon fill="#ffffff" stroke="none" points="507,-271.75 507,-686.25 694,-686.25 694,-271.75 507,-271.75"/>
<polygon fill="#f5f5f5" stroke="none" points="507,-662.75 507,-686.25 694,-686.25 694,-662.75 507,-662.75"/>
<polygon fill="none" stroke="black" points="507,-662.75 507,-686.25 694,-686.25 694,-662.75 507,-662.75"/>
<text text-anchor="start" x="512" y="-671.8" font-family="Helvetica,sans-Serif" font-weight="bold" font-size="11.00">doc_unit</text>
<text text-anchor="start" x="652.25" y="-670.8" font-family="Helvetica,sans-Serif" font-size="11.00">[table]</text>
<polygon fill="none" stroke="black" points="507,-640.75 507,-662.75 694,-662.75 694,-640.75 507,-640.75"/>
<image xlink:href="../../images/primaryKeys.png" width="11px" height="12px" preserveAspectRatio="xMinYMin meet" x="512" y="-657.75"/>
<text text-anchor="start" x="527" y="-647.3" font-family="Helvetica,sans-Serif" font-size="11.00">identifier</text>
<polygon fill="#ffffff" stroke="none" points="507,-618.75 507,-640.75 694,-640.75 694,-618.75 507,-618.75"/>
<polygon fill="none" stroke="black" points="507,-618.75 507,-640.75 694,-640.75 694,-618.75 507,-618.75"/>
<text text-anchor="start" x="527" y="-625.3" font-family="Helvetica,sans-Serif" font-size="11.00">pgcn_id</text>
<polygon fill="#ffffff" stroke="none" points="507,-596.75 507,-618.75 694,-618.75 694,-596.75 507,-596.75"/>
<polygon fill="none" stroke="black" points="507,-596.75 507,-618.75 694,-618.75 694,-596.75 507,-596.75"/>
<image xlink:href="../../images/foreignKeys.png" width="11px" height="12px" preserveAspectRatio="xMinYMin meet" x="512" y="-613.75"/>
<text text-anchor="start" x="527" y="-603.3" font-family="Helvetica,sans-Serif" font-size="11.00">library</text>
<polygon fill="#ffffff" stroke="none" points="507,-574.75 507,-596.75 694,-596.75 694,-574.75 507,-574.75"/>
<polygon fill="none" stroke="black" points="507,-574.75 507,-596.75 694,-596.75 694,-574.75 507,-574.75"/>
<image xlink:href="../../images/foreignKeys.png" width="11px" height="12px" preserveAspectRatio="xMinYMin meet" x="512" y="-591.75"/>
<text text-anchor="start" x="527" y="-581.3" font-family="Helvetica,sans-Serif" font-size="11.00">project</text>
<polygon fill="#ffffff" stroke="none" points="507,-552.75 507,-574.75 694,-574.75 694,-552.75 507,-552.75"/>
<polygon fill="none" stroke="black" points="507,-552.75 507,-574.75 694,-574.75 694,-552.75 507,-552.75"/>
<text text-anchor="start" x="527" y="-559.3" font-family="Helvetica,sans-Serif" font-size="11.00">state</text>
<polygon fill="#ffffff" stroke="none" points="507,-530.75 507,-552.75 694,-552.75 694,-530.75 507,-530.75"/>
<polygon fill="none" stroke="black" points="507,-530.75 507,-552.75 694,-552.75 694,-530.75 507,-530.75"/>
<image xlink:href="../../images/foreignKeys.png" width="11px" height="12px" preserveAspectRatio="xMinYMin meet" x="512" y="-547.75"/>
<text text-anchor="start" x="527" y="-537.3" font-family="Helvetica,sans-Serif" font-size="11.00">lot</text>
<polygon fill="#ffffff" stroke="none" points="507,-508.75 507,-530.75 694,-530.75 694,-508.75 507,-508.75"/>
<polygon fill="none" stroke="black" points="507,-508.75 507,-530.75 694,-530.75 694,-508.75 507,-508.75"/>
<image xlink:href="../../images/foreignKeys.png" width="11px" height="12px" preserveAspectRatio="xMinYMin meet" x="512" y="-525.75"/>
<text text-anchor="start" x="527" y="-515.3" font-family="Helvetica,sans-Serif" font-size="11.00">collection_omeka</text>
<polygon fill="#ffffff" stroke="none" points="507,-486.75 507,-508.75 694,-508.75 694,-486.75 507,-486.75"/>
<polygon fill="none" stroke="black" points="507,-486.75 507,-508.75 694,-508.75 694,-486.75 507,-486.75"/>
<image xlink:href="../../images/foreignKeys.png" width="11px" height="12px" preserveAspectRatio="xMinYMin meet" x="512" y="-503.75"/>
<text text-anchor="start" x="527" y="-493.3" font-family="Helvetica,sans-Serif" font-size="11.00">items_omeka</text>
<polygon fill="#ffffff" stroke="none" points="507,-464.75 507,-486.75 694,-486.75 694,-464.75 507,-464.75"/>
<polygon fill="none" stroke="black" points="507,-464.75 507,-486.75 694,-486.75 694,-464.75 507,-464.75"/>
<image xlink:href="../../images/foreignKeys.png" width="11px" height="12px" preserveAspectRatio="xMinYMin meet" x="512" y="-481.75"/>
<text text-anchor="start" x="527" y="-471.3" font-family="Helvetica,sans-Serif" font-size="11.00">parent</text>
<polygon fill="#ffffff" stroke="none" points="507,-442.75 507,-464.75 694,-464.75 694,-442.75 507,-442.75"/>
<polygon fill="none" stroke="black" points="507,-442.75 507,-464.75 694,-464.75 694,-442.75 507,-442.75"/>
<image xlink:href="../../images/foreignKeys.png" width="11px" height="12px" preserveAspectRatio="xMinYMin meet" x="512" y="-459.75"/>
<text text-anchor="start" x="527" y="-449.3" font-family="Helvetica,sans-Serif" font-size="11.00">active_ocr_lang</text>
<polygon fill="#ffffff" stroke="none" points="507,-420.75 507,-442.75 694,-442.75 694,-420.75 507,-420.75"/>
<polygon fill="none" stroke="black" points="507,-420.75 507,-442.75 694,-442.75 694,-420.75 507,-420.75"/>
<image xlink:href="../../images/foreignKeys.png" width="11px" height="12px" preserveAspectRatio="xMinYMin meet" x="512" y="-437.75"/>
<text text-anchor="start" x="527" y="-427.3" font-family="Helvetica,sans-Serif" font-size="11.00">collection_ia</text>
<polygon fill="#ffffff" stroke="none" points="507,-398.75 507,-420.75 694,-420.75 694,-398.75 507,-398.75"/>
<polygon fill="none" stroke="black" points="507,-398.75 507,-420.75 694,-420.75 694,-398.75 507,-398.75"/>
<image xlink:href="../../images/foreignKeys.png" width="11px" height="12px" preserveAspectRatio="xMinYMin meet" x="512" y="-415.75"/>
<text text-anchor="start" x="527" y="-405.3" font-family="Helvetica,sans-Serif" font-size="11.00">classement_pac</text>
<polygon fill="#ffffff" stroke="none" points="507,-376.75 507,-398.75 694,-398.75 694,-376.75 507,-376.75"/>
<polygon fill="none" stroke="black" points="507,-376.75 507,-398.75 694,-398.75 694,-376.75 507,-376.75"/>
<image xlink:href="../../images/foreignKeys.png" width="11px" height="12px" preserveAspectRatio="xMinYMin meet" x="512" y="-393.75"/>
<text text-anchor="start" x="527" y="-383.3" font-family="Helvetica,sans-Serif" font-size="11.00">sibling</text>
<polygon fill="#ffffff" stroke="none" points="507,-354.75 507,-376.75 694,-376.75 694,-354.75 507,-354.75"/>
<polygon fill="none" stroke="black" points="507,-354.75 507,-376.75 694,-376.75 694,-354.75 507,-354.75"/>
<image xlink:href="../../images/foreignKeys.png" width="11px" height="12px" preserveAspectRatio="xMinYMin meet" x="512" y="-371.75"/>
<text text-anchor="start" x="527" y="-361.3" font-family="Helvetica,sans-Serif" font-size="11.00">export_data</text>
<polygon fill="#ffffff" stroke="none" points="507,-332.75 507,-354.75 694,-354.75 694,-332.75 507,-332.75"/>
<polygon fill="none" stroke="black" points="507,-332.75 507,-354.75 694,-354.75 694,-332.75 507,-332.75"/>
<image xlink:href="../../images/foreignKeys.png" width="11px" height="12px" preserveAspectRatio="xMinYMin meet" x="512" y="-349.75"/>
<text text-anchor="start" x="527" y="-339.3" font-family="Helvetica,sans-Serif" font-size="11.00">archive_item</text>
<polygon fill="#ffffff" stroke="none" points="507,-310.75 507,-332.75 694,-332.75 694,-310.75 507,-310.75"/>
<polygon fill="none" stroke="black" points="507,-310.75 507,-332.75 694,-332.75 694,-310.75 507,-310.75"/>
<image xlink:href="../../images/foreignKeys.png" width="11px" height="12px" preserveAspectRatio="xMinYMin meet" x="512" y="-327.75"/>
<text text-anchor="start" x="527" y="-317.3" font-family="Helvetica,sans-Serif" font-size="11.00">workflow</text>
<polygon fill="none" stroke="black" points="507,-291.25 507,-310.75 694,-310.75 694,-291.25 507,-291.25"/>
<text text-anchor="start" x="510" y="-297.3" font-family="Helvetica,sans-Serif" font-size="11.00">...</text>
<polygon fill="#ffffff" stroke="none" points="507,-271.75 507,-291.25 575.58,-291.25 575.58,-271.75 507,-271.75"/>
<polygon fill="none" stroke="black" points="507,-271.75 507,-291.25 575.58,-291.25 575.58,-271.75 507,-271.75"/>
<text text-anchor="start" x="510" y="-277.8" font-family="Helvetica,sans-Serif" font-size="11.00">&lt; 13</text>
<polygon fill="#ffffff" stroke="none" points="575.58,-271.75 575.58,-291.25 625.42,-291.25 625.42,-271.75 575.58,-271.75"/>
<polygon fill="none" stroke="black" points="575.58,-271.75 575.58,-291.25 625.42,-291.25 625.42,-271.75 575.58,-271.75"/>
<text text-anchor="start" x="614.92" y="-277.8" font-family="Helvetica,sans-Serif" font-size="11.00"> &#160;</text>
<polygon fill="#ffffff" stroke="none" points="625.42,-271.75 625.42,-291.25 694,-291.25 694,-271.75 625.42,-271.75"/>
<polygon fill="none" stroke="black" points="625.42,-271.75 625.42,-291.25 694,-291.25 694,-271.75 625.42,-271.75"/>
<text text-anchor="start" x="664.75" y="-277.8" font-family="Helvetica,sans-Serif" font-size="11.00">11 &gt;</text>
</a>
</g>
</g>
<!-- doc_workflow -->
<g id="node2" class="node">
<title>doc_workflow</title>
<g id="a_node2"><a xlink:href="../../tables/doc_workflow.html" xlink:title="doc_workflow" target="_top">
<polygon fill="#ffffff" stroke="none" points="212.75,-38.5 212.75,-283.5 458,-283.5 458,-38.5 212.75,-38.5"/>
<polygon fill="#f5f5f5" stroke="none" points="214.75,-258 214.75,-281.5 456,-281.5 456,-258 214.75,-258"/>
<polygon fill="none" stroke="black" points="214.75,-258 214.75,-281.5 456,-281.5 456,-258 214.75,-258"/>
<text text-anchor="start" x="219.75" y="-267.05" font-family="Helvetica,sans-Serif" font-weight="bold" font-size="11.00">doc_workflow</text>
<text text-anchor="start" x="414.25" y="-266.05" font-family="Helvetica,sans-Serif" font-size="11.00">[table]</text>
<polygon fill="none" stroke="black" points="214.75,-236 214.75,-258 362.75,-258 362.75,-236 214.75,-236"/>
<image xlink:href="../../images/primaryKeys.png" width="11px" height="12px" preserveAspectRatio="xMinYMin meet" x="219.75" y="-253"/>
<text text-anchor="start" x="234.75" y="-242.55" font-family="Helvetica,sans-Serif" font-size="11.00">identifier</text>
<polygon fill="none" stroke="black" points="362.75,-236 362.75,-258 453.25,-258 453.25,-236 362.75,-236"/>
<text text-anchor="start" x="365.75" y="-243.3" font-family="Helvetica,sans-Serif" font-size="11.00">varchar[191]</text>
<polygon fill="#ffffff" stroke="none" points="214.75,-214 214.75,-236 362.75,-236 362.75,-214 214.75,-214"/>
<polygon fill="none" stroke="black" points="214.75,-214 214.75,-236 362.75,-236 362.75,-214 214.75,-214"/>
<image xlink:href="../../images/foreignKeys.png" width="11px" height="12px" preserveAspectRatio="xMinYMin meet" x="219.75" y="-231"/>
<text text-anchor="start" x="234.75" y="-220.55" font-family="Helvetica,sans-Serif" font-size="11.00">model</text>
<polygon fill="none" stroke="black" points="362.75,-214 362.75,-236 453.25,-236 453.25,-214 362.75,-214"/>
<text text-anchor="start" x="365.75" y="-221.3" font-family="Helvetica,sans-Serif" font-size="11.00">varchar[191]</text>
<polygon fill="none" stroke="black" points="214.75,-192 214.75,-214 362.75,-214 362.75,-192 214.75,-192"/>
<text text-anchor="start" x="234.75" y="-198.55" font-family="Helvetica,sans-Serif" font-size="11.00">start_date</text>
<polygon fill="none" stroke="black" points="362.75,-192 362.75,-214 453.25,-214 453.25,-192 362.75,-192"/>
<text text-anchor="start" x="365.75" y="-199.3" font-family="Helvetica,sans-Serif" font-size="11.00">datetime[19]</text>
<polygon fill="none" stroke="black" points="214.75,-170 214.75,-192 362.75,-192 362.75,-170 214.75,-170"/>
<text text-anchor="start" x="234.75" y="-176.55" font-family="Helvetica,sans-Serif" font-size="11.00">end_date</text>
<polygon fill="none" stroke="black" points="362.75,-170 362.75,-192 453.25,-192 453.25,-170 362.75,-170"/>
<text text-anchor="start" x="365.75" y="-177.3" font-family="Helvetica,sans-Serif" font-size="11.00">datetime[19]</text>
<polygon fill="none" stroke="black" points="214.75,-148 214.75,-170 362.75,-170 362.75,-148 214.75,-148"/>
<text text-anchor="start" x="234.75" y="-154.55" font-family="Helvetica,sans-Serif" font-size="11.00">version</text>
<polygon fill="none" stroke="black" points="362.75,-148 362.75,-170 453.25,-170 453.25,-148 362.75,-148"/>
<text text-anchor="start" x="365.75" y="-155.3" font-family="Helvetica,sans-Serif" font-size="11.00">bigint[19]</text>
<polygon fill="none" stroke="black" points="214.75,-126 214.75,-148 362.75,-148 362.75,-126 214.75,-126"/>
<text text-anchor="start" x="234.75" y="-132.55" font-family="Helvetica,sans-Serif" font-size="11.00">created_by</text>
<polygon fill="none" stroke="black" points="362.75,-126 362.75,-148 453.25,-148 453.25,-126 362.75,-126"/>
<text text-anchor="start" x="365.75" y="-133.3" font-family="Helvetica,sans-Serif" font-size="11.00">varchar[255]</text>
<polygon fill="none" stroke="black" points="214.75,-104 214.75,-126 362.75,-126 362.75,-104 214.75,-104"/>
<text text-anchor="start" x="234.75" y="-110.55" font-family="Helvetica,sans-Serif" font-size="11.00">last_modified_by</text>
<polygon fill="none" stroke="black" points="362.75,-104 362.75,-126 453.25,-126 453.25,-104 362.75,-104"/>
<text text-anchor="start" x="365.75" y="-111.3" font-family="Helvetica,sans-Serif" font-size="11.00">varchar[255]</text>
<polygon fill="none" stroke="black" points="214.75,-82 214.75,-104 362.75,-104 362.75,-82 214.75,-82"/>
<text text-anchor="start" x="234.75" y="-88.55" font-family="Helvetica,sans-Serif" font-size="11.00">created_date</text>
<polygon fill="none" stroke="black" points="362.75,-82 362.75,-104 453.25,-104 453.25,-82 362.75,-82"/>
<text text-anchor="start" x="365.75" y="-89.3" font-family="Helvetica,sans-Serif" font-size="11.00">timestamp[19]</text>
<polygon fill="none" stroke="black" points="214.75,-60 214.75,-82 362.75,-82 362.75,-60 214.75,-60"/>
<text text-anchor="start" x="234.75" y="-66.55" font-family="Helvetica,sans-Serif" font-size="11.00">last_modified_date</text>
<polygon fill="none" stroke="black" points="362.75,-60 362.75,-82 453.25,-82 453.25,-60 362.75,-60"/>
<text text-anchor="start" x="365.75" y="-67.3" font-family="Helvetica,sans-Serif" font-size="11.00">timestamp[19]</text>
<polygon fill="#ffffff" stroke="none" points="214.75,-40.5 214.75,-60 294.75,-60 294.75,-40.5 214.75,-40.5"/>
<polygon fill="none" stroke="black" points="214.75,-40.5 214.75,-60 294.75,-60 294.75,-40.5 214.75,-40.5"/>
<text text-anchor="start" x="217.75" y="-46.55" font-family="Helvetica,sans-Serif" font-size="11.00">&lt; 1</text>
<polygon fill="#ffffff" stroke="none" points="294.75,-40.5 294.75,-60 362.75,-60 362.75,-40.5 294.75,-40.5"/>
<polygon fill="none" stroke="black" points="294.75,-40.5 294.75,-60 362.75,-60 362.75,-40.5 294.75,-40.5"/>
<text text-anchor="start" x="352.25" y="-46.55" font-family="Helvetica,sans-Serif" font-size="11.00"> &#160;</text>
<polygon fill="#ffffff" stroke="none" points="362.75,-40.5 362.75,-60 453.25,-60 453.25,-40.5 362.75,-40.5"/>
<polygon fill="none" stroke="black" points="362.75,-40.5 362.75,-60 453.25,-60 453.25,-40.5 362.75,-40.5"/>
<text text-anchor="start" x="430.75" y="-46.55" font-family="Helvetica,sans-Serif" font-size="11.00">2 &gt;</text>
<polygon fill="none" stroke="black" stroke-width="2" points="213.75,-39.5 213.75,-282.5 457,-282.5 457,-39.5 213.75,-39.5"/>
</a>
</g>
</g>
<!-- doc_unit&#45;&gt;doc_workflow -->
<g id="edge1" class="edge">
<title>doc_unit:w&#45;&gt;doc_workflow:e</title>
<path fill="none" stroke="black" d="M491.11,-316.37C473.26,-299.23 488.03,-247 454.25,-247"/>
<polygon fill="black" stroke="black" points="498.16,-318.92 504.46,-325.02 502.24,-320.39 505.37,-321.52 505.37,-321.52 505.37,-321.52 502.24,-320.39 506.91,-318.25 498.16,-318.92"/>
<ellipse fill="none" stroke="black" cx="493.53" cy="-317.25" rx="3.2" ry="3.2"/>
</g>
<!-- workflow_model -->
<g id="node3" class="node">
<title>workflow_model</title>
<g id="a_node3"><a xlink:href="../../tables/workflow_model.html" xlink:title="workflow_model" target="_top">
<polygon fill="#ffffff" stroke="none" points="8,-130.75 8,-259.25 163.75,-259.25 163.75,-130.75 8,-130.75"/>
<polygon fill="#f5f5f5" stroke="none" points="8,-235.75 8,-259.25 163.75,-259.25 163.75,-235.75 8,-235.75"/>
<polygon fill="none" stroke="black" points="8,-235.75 8,-259.25 163.75,-259.25 163.75,-235.75 8,-235.75"/>
<text text-anchor="start" x="13" y="-244.8" font-family="Helvetica,sans-Serif" font-weight="bold" font-size="11.00">workflow_model</text>
<text text-anchor="start" x="122" y="-243.8" font-family="Helvetica,sans-Serif" font-size="11.00">[table]</text>
<polygon fill="none" stroke="black" points="8,-213.75 8,-235.75 163.75,-235.75 163.75,-213.75 8,-213.75"/>
<image xlink:href="../../images/primaryKeys.png" width="11px" height="12px" preserveAspectRatio="xMinYMin meet" x="13" y="-230.75"/>
<text text-anchor="start" x="31.88" y="-220.3" font-family="Helvetica,sans-Serif" font-size="11.00">identifier</text>
<polygon fill="#ffffff" stroke="none" points="8,-191.75 8,-213.75 163.75,-213.75 163.75,-191.75 8,-191.75"/>
<polygon fill="none" stroke="black" points="8,-191.75 8,-213.75 163.75,-213.75 163.75,-191.75 8,-191.75"/>
<text text-anchor="start" x="31.88" y="-198.3" font-family="Helvetica,sans-Serif" font-size="11.00">name</text>
<polygon fill="#ffffff" stroke="none" points="8,-169.75 8,-191.75 163.75,-191.75 163.75,-169.75 8,-169.75"/>
<polygon fill="none" stroke="black" points="8,-169.75 8,-191.75 163.75,-191.75 163.75,-169.75 8,-169.75"/>
<image xlink:href="../../images/foreignKeys.png" width="11px" height="12px" preserveAspectRatio="xMinYMin meet" x="13" y="-186.75"/>
<text text-anchor="start" x="31.88" y="-176.3" font-family="Helvetica,sans-Serif" font-size="11.00">library</text>
<polygon fill="none" stroke="black" points="8,-150.25 8,-169.75 163.75,-169.75 163.75,-150.25 8,-150.25"/>
<text text-anchor="start" x="11" y="-156.3" font-family="Helvetica,sans-Serif" font-size="11.00">...</text>
<polygon fill="#ffffff" stroke="none" points="8,-130.75 8,-150.25 63.92,-150.25 63.92,-130.75 8,-130.75"/>
<polygon fill="none" stroke="black" points="8,-130.75 8,-150.25 63.92,-150.25 63.92,-130.75 8,-130.75"/>
<text text-anchor="start" x="11" y="-136.8" font-family="Helvetica,sans-Serif" font-size="11.00">&lt; 1</text>
<polygon fill="#ffffff" stroke="none" points="63.92,-130.75 63.92,-150.25 107.83,-150.25 107.83,-130.75 63.92,-130.75"/>
<polygon fill="none" stroke="black" points="63.92,-130.75 63.92,-150.25 107.83,-150.25 107.83,-130.75 63.92,-130.75"/>
<text text-anchor="start" x="97.33" y="-136.8" font-family="Helvetica,sans-Serif" font-size="11.00"> &#160;</text>
<polygon fill="#ffffff" stroke="none" points="107.83,-130.75 107.83,-150.25 163.75,-150.25 163.75,-130.75 107.83,-130.75"/>
<polygon fill="none" stroke="black" points="107.83,-130.75 107.83,-150.25 163.75,-150.25 163.75,-130.75 107.83,-130.75"/>
<text text-anchor="start" x="141.25" y="-136.8" font-family="Helvetica,sans-Serif" font-size="11.00">4 &gt;</text>
</a>
</g>
</g>
<!-- doc_workflow&#45;&gt;workflow_model -->
<g id="edge2" class="edge">
<title>doc_workflow:w&#45;&gt;workflow_model:e</title>
<path fill="none" stroke="black" d="M198.17,-224.95C187.46,-224.88 180.23,-224.75 164.75,-224.75"/>
<polygon fill="black" stroke="black" points="205.42,-224.97 213.4,-228.6 209.75,-224.99 213.08,-225 213.08,-225 213.08,-225 209.75,-224.99 213.43,-221.4 205.42,-224.97"/>
<ellipse fill="none" stroke="black" cx="200.5" cy="-224.96" rx="3.2" ry="3.2"/>
</g>
<!-- doc_workflow_state -->
<g id="node4" class="node">
<title>doc_workflow_state</title>
<g id="a_node4"><a xlink:href="../../tables/doc_workflow_state.html" xlink:title="doc_workflow_state" target="_top">
<polygon fill="#ffffff" stroke="none" points="511.12,-121.75 511.12,-250.25 689.88,-250.25 689.88,-121.75 511.12,-121.75"/>
<polygon fill="#f5f5f5" stroke="none" points="511.12,-226.75 511.12,-250.25 689.88,-250.25 689.88,-226.75 511.12,-226.75"/>
<polygon fill="none" stroke="black" points="511.12,-226.75 511.12,-250.25 689.88,-250.25 689.88,-226.75 511.12,-226.75"/>
<text text-anchor="start" x="516.12" y="-235.8" font-family="Helvetica,sans-Serif" font-weight="bold" font-size="11.00">doc_workflow_state</text>
<text text-anchor="start" x="648.12" y="-234.8" font-family="Helvetica,sans-Serif" font-size="11.00">[table]</text>
<polygon fill="none" stroke="black" points="511.12,-204.75 511.12,-226.75 689.88,-226.75 689.88,-204.75 511.12,-204.75"/>
<image xlink:href="../../images/primaryKeys.png" width="11px" height="12px" preserveAspectRatio="xMinYMin meet" x="516.125" y="-221.75"/>
<text text-anchor="start" x="544" y="-211.3" font-family="Helvetica,sans-Serif" font-size="11.00">identifier</text>
<polygon fill="#ffffff" stroke="none" points="511.12,-182.75 511.12,-204.75 689.88,-204.75 689.88,-182.75 511.12,-182.75"/>
<polygon fill="none" stroke="black" points="511.12,-182.75 511.12,-204.75 689.88,-204.75 689.88,-182.75 511.12,-182.75"/>
<image xlink:href="../../images/foreignKeys.png" width="11px" height="12px" preserveAspectRatio="xMinYMin meet" x="516.125" y="-199.75"/>
<text text-anchor="start" x="544" y="-189.3" font-family="Helvetica,sans-Serif" font-size="11.00">model_state</text>
<polygon fill="#ffffff" stroke="none" points="511.12,-160.75 511.12,-182.75 689.88,-182.75 689.88,-160.75 511.12,-160.75"/>
<polygon fill="none" stroke="black" points="511.12,-160.75 511.12,-182.75 689.88,-182.75 689.88,-160.75 511.12,-160.75"/>
<image xlink:href="../../images/foreignKeys.png" width="11px" height="12px" preserveAspectRatio="xMinYMin meet" x="516.125" y="-177.75"/>
<text text-anchor="start" x="544" y="-167.3" font-family="Helvetica,sans-Serif" font-size="11.00">workflow</text>
<polygon fill="none" stroke="black" points="511.12,-141.25 511.12,-160.75 689.88,-160.75 689.88,-141.25 511.12,-141.25"/>
<text text-anchor="start" x="514.12" y="-147.3" font-family="Helvetica,sans-Serif" font-size="11.00">...</text>
<polygon fill="#ffffff" stroke="none" points="511.12,-121.75 511.12,-141.25 578.71,-141.25 578.71,-121.75 511.12,-121.75"/>
<polygon fill="none" stroke="black" points="511.12,-121.75 511.12,-141.25 578.71,-141.25 578.71,-121.75 511.12,-121.75"/>
<text text-anchor="start" x="514.12" y="-127.8" font-family="Helvetica,sans-Serif" font-size="11.00">&lt; 2</text>
<polygon fill="#ffffff" stroke="none" points="578.71,-121.75 578.71,-141.25 634.29,-141.25 634.29,-121.75 578.71,-121.75"/>
<polygon fill="none" stroke="black" points="578.71,-121.75 578.71,-141.25 634.29,-141.25 634.29,-121.75 578.71,-121.75"/>
<text text-anchor="start" x="623.79" y="-127.8" font-family="Helvetica,sans-Serif" font-size="11.00"> &#160;</text>
<polygon fill="#ffffff" stroke="none" points="634.29,-121.75 634.29,-141.25 689.88,-141.25 689.88,-121.75 634.29,-121.75"/>
<polygon fill="none" stroke="black" points="634.29,-121.75 634.29,-141.25 689.88,-141.25 689.88,-121.75 634.29,-121.75"/>
<text text-anchor="start" x="679.38" y="-127.8" font-family="Helvetica,sans-Serif" font-size="11.00"> &#160;</text>
</a>
</g>
</g>
<!-- doc_workflow_state&#45;&gt;doc_workflow -->
<g id="edge3" class="edge">
<title>doc_workflow_state:w&#45;&gt;doc_workflow:e</title>
<path fill="none" stroke="black" d="M495.13,-176.69C475.36,-193.43 489.4,-247 454.25,-247"/>
<polygon fill="black" stroke="black" points="502.21,-174.36 510.93,-175.27 506.33,-173 509.49,-171.96 509.49,-171.96 509.49,-171.96 506.33,-173 508.68,-168.44 502.21,-174.36"/>
<ellipse fill="none" stroke="black" cx="497.54" cy="-175.9" rx="3.2" ry="3.2"/>
</g>
</g>
</svg>
