<?xml version="1.0" encoding="UTF-8" standalone="no"?>
<!DOCTYPE svg PUBLIC "-//W3C//DTD SVG 1.1//EN"
 "http://www.w3.org/Graphics/SVG/1.1/DTD/svg11.dtd">
<!-- Generated by graphviz version 12.2.0 (0)
 -->
<!-- Title: oneDegreeRelationshipsDiagram Pages: 1 -->
<svg width="599pt" height="428pt"
 viewBox="0.00 0.00 598.75 427.50" xmlns="http://www.w3.org/2000/svg" xmlns:xlink="http://www.w3.org/1999/xlink">
<g id="graph0" class="graph" transform="scale(1 1) rotate(0) translate(4 423.5)">
<title>oneDegreeRelationshipsDiagram</title>
<polygon fill="#ffffff" stroke="none" points="-4,4 -4,-423.5 594.75,-423.5 594.75,4 -4,4"/>
<text text-anchor="middle" x="79.25" y="-7.05" font-family="Helvetica,sans-Serif" font-size="11.00">Generated by SchemaSpy</text>
<!-- doc_check_slip_config -->
<g id="node1" class="node">
<title>doc_check_slip_config</title>
<g id="a_node1"><a xlink:href="../../tables/doc_check_slip_config.html" xlink:title="doc_check_slip_config" target="_top">
<polygon fill="#ffffff" stroke="none" points="291,-38.5 291,-415.5 582.75,-415.5 582.75,-38.5 291,-38.5"/>
<polygon fill="#f5f5f5" stroke="none" points="293,-390 293,-413.5 580.75,-413.5 580.75,-390 293,-390"/>
<polygon fill="none" stroke="black" points="293,-390 293,-413.5 580.75,-413.5 580.75,-390 293,-390"/>
<text text-anchor="start" x="298" y="-399.05" font-family="Helvetica,sans-Serif" font-weight="bold" font-size="11.00">doc_check_slip_config</text>
<text text-anchor="start" x="539" y="-398.05" font-family="Helvetica,sans-Serif" font-size="11.00">[table]</text>
<polygon fill="none" stroke="black" points="293,-368 293,-390 460,-390 460,-368 293,-368"/>
<image xlink:href="../../images/primaryKeys.png" width="11px" height="12px" preserveAspectRatio="xMinYMin meet" x="298" y="-385"/>
<text text-anchor="start" x="313" y="-374.55" font-family="Helvetica,sans-Serif" font-size="11.00">identifier</text>
<polygon fill="none" stroke="black" points="460,-368 460,-390 564.25,-390 564.25,-368 460,-368"/>
<text text-anchor="start" x="463" y="-375.3" font-family="Helvetica,sans-Serif" font-size="11.00">varchar[191]</text>
<polygon fill="#ffffff" stroke="none" points="293,-346 293,-368 460,-368 460,-346 293,-346"/>
<polygon fill="none" stroke="black" points="293,-346 293,-368 460,-368 460,-346 293,-346"/>
<image xlink:href="../../images/foreignKeys.png" width="11px" height="12px" preserveAspectRatio="xMinYMin meet" x="298" y="-363"/>
<text text-anchor="start" x="313" y="-352.55" font-family="Helvetica,sans-Serif" font-size="11.00">library</text>
<polygon fill="none" stroke="black" points="460,-346 460,-368 564.25,-368 564.25,-346 460,-346"/>
<text text-anchor="start" x="463" y="-353.3" font-family="Helvetica,sans-Serif" font-size="11.00">varchar[191]</text>
<polygon fill="none" stroke="black" points="293,-324 293,-346 460,-346 460,-324 293,-324"/>
<text text-anchor="start" x="313" y="-330.55" font-family="Helvetica,sans-Serif" font-size="11.00">pgcn_id</text>
<polygon fill="none" stroke="black" points="460,-324 460,-346 564.25,-346 564.25,-324 460,-324"/>
<text text-anchor="start" x="463" y="-331.3" font-family="Helvetica,sans-Serif" font-size="11.00">bit[1]</text>
<polygon fill="none" stroke="black" points="293,-302 293,-324 460,-324 460,-302 293,-302"/>
<text text-anchor="start" x="313" y="-308.55" font-family="Helvetica,sans-Serif" font-size="11.00">title</text>
<polygon fill="none" stroke="black" points="460,-302 460,-324 564.25,-324 564.25,-302 460,-302"/>
<text text-anchor="start" x="463" y="-309.3" font-family="Helvetica,sans-Serif" font-size="11.00">bit[1]</text>
<polygon fill="none" stroke="black" points="293,-280 293,-302 460,-302 460,-280 293,-280"/>
<text text-anchor="start" x="313" y="-286.55" font-family="Helvetica,sans-Serif" font-size="11.00">state</text>
<polygon fill="none" stroke="black" points="460,-280 460,-302 564.25,-302 564.25,-280 460,-280"/>
<text text-anchor="start" x="463" y="-287.3" font-family="Helvetica,sans-Serif" font-size="11.00">bit[1]</text>
<polygon fill="none" stroke="black" points="293,-258 293,-280 460,-280 460,-258 293,-258"/>
<text text-anchor="start" x="313" y="-264.55" font-family="Helvetica,sans-Serif" font-size="11.00">errors</text>
<polygon fill="none" stroke="black" points="460,-258 460,-280 564.25,-280 564.25,-258 460,-258"/>
<text text-anchor="start" x="463" y="-265.3" font-family="Helvetica,sans-Serif" font-size="11.00">bit[1]</text>
<polygon fill="none" stroke="black" points="293,-236 293,-258 460,-258 460,-236 293,-236"/>
<text text-anchor="start" x="313" y="-242.55" font-family="Helvetica,sans-Serif" font-size="11.00">nb_pages</text>
<polygon fill="none" stroke="black" points="460,-236 460,-258 564.25,-258 564.25,-236 460,-236"/>
<text text-anchor="start" x="463" y="-243.3" font-family="Helvetica,sans-Serif" font-size="11.00">bit[1]</text>
<polygon fill="none" stroke="black" points="293,-214 293,-236 460,-236 460,-214 293,-214"/>
<text text-anchor="start" x="313" y="-220.55" font-family="Helvetica,sans-Serif" font-size="11.00">nb_pages_tobill</text>
<polygon fill="none" stroke="black" points="460,-214 460,-236 564.25,-236 564.25,-214 460,-214"/>
<text text-anchor="start" x="463" y="-221.3" font-family="Helvetica,sans-Serif" font-size="11.00">bit[1]</text>
<polygon fill="none" stroke="black" points="293,-192 293,-214 460,-214 460,-192 293,-192"/>
<text text-anchor="start" x="313" y="-198.55" font-family="Helvetica,sans-Serif" font-size="11.00">separator</text>
<polygon fill="none" stroke="black" points="460,-192 460,-214 564.25,-214 564.25,-192 460,-192"/>
<text text-anchor="start" x="463" y="-199.3" font-family="Helvetica,sans-Serif" font-size="11.00">varchar[255]</text>
<polygon fill="none" stroke="black" points="293,-170 293,-192 460,-192 460,-170 293,-170"/>
<text text-anchor="start" x="313" y="-176.55" font-family="Helvetica,sans-Serif" font-size="11.00">encoding</text>
<polygon fill="none" stroke="black" points="460,-170 460,-192 564.25,-192 564.25,-170 460,-170"/>
<text text-anchor="start" x="463" y="-177.3" font-family="Helvetica,sans-Serif" font-size="11.00">varchar[255]</text>
<polygon fill="none" stroke="black" points="293,-148 293,-170 460,-170 460,-148 293,-148"/>
<text text-anchor="start" x="313" y="-154.55" font-family="Helvetica,sans-Serif" font-size="11.00">version</text>
<polygon fill="none" stroke="black" points="460,-148 460,-170 564.25,-170 564.25,-148 460,-148"/>
<text text-anchor="start" x="463" y="-155.3" font-family="Helvetica,sans-Serif" font-size="11.00">bigint[19]</text>
<polygon fill="none" stroke="black" points="293,-126 293,-148 460,-148 460,-126 293,-126"/>
<text text-anchor="start" x="313" y="-132.55" font-family="Helvetica,sans-Serif" font-size="11.00">created_by</text>
<polygon fill="none" stroke="black" points="460,-126 460,-148 564.25,-148 564.25,-126 460,-126"/>
<text text-anchor="start" x="463" y="-133.3" font-family="Helvetica,sans-Serif" font-size="11.00">varchar[191]</text>
<polygon fill="none" stroke="black" points="293,-104 293,-126 460,-126 460,-104 293,-104"/>
<text text-anchor="start" x="313" y="-110.55" font-family="Helvetica,sans-Serif" font-size="11.00">last_modified_by</text>
<polygon fill="none" stroke="black" points="460,-104 460,-126 564.25,-126 564.25,-104 460,-104"/>
<text text-anchor="start" x="463" y="-111.3" font-family="Helvetica,sans-Serif" font-size="11.00">varchar[191]</text>
<polygon fill="none" stroke="black" points="293,-82 293,-104 460,-104 460,-82 293,-82"/>
<text text-anchor="start" x="313" y="-88.55" font-family="Helvetica,sans-Serif" font-size="11.00">created_date</text>
<polygon fill="none" stroke="black" points="460,-82 460,-104 564.25,-104 564.25,-82 460,-82"/>
<text text-anchor="start" x="463" y="-89.3" font-family="Helvetica,sans-Serif" font-size="11.00">timestamp[19]</text>
<polygon fill="none" stroke="black" points="293,-60 293,-82 460,-82 460,-60 293,-60"/>
<text text-anchor="start" x="313" y="-66.55" font-family="Helvetica,sans-Serif" font-size="11.00">last_modified_date</text>
<polygon fill="none" stroke="black" points="460,-60 460,-82 564.25,-82 564.25,-60 460,-60"/>
<text text-anchor="start" x="463" y="-67.3" font-family="Helvetica,sans-Serif" font-size="11.00">timestamp[19]</text>
<polygon fill="#ffffff" stroke="none" points="293,-40.5 293,-60 382.5,-60 382.5,-40.5 293,-40.5"/>
<polygon fill="none" stroke="black" points="293,-40.5 293,-60 382.5,-60 382.5,-40.5 293,-40.5"/>
<text text-anchor="start" x="296" y="-46.55" font-family="Helvetica,sans-Serif" font-size="11.00">&lt; 1</text>
<polygon fill="#ffffff" stroke="none" points="382.5,-40.5 382.5,-60 460,-60 460,-40.5 382.5,-40.5"/>
<polygon fill="none" stroke="black" points="382.5,-40.5 382.5,-60 460,-60 460,-40.5 382.5,-40.5"/>
<text text-anchor="start" x="449.5" y="-46.55" font-family="Helvetica,sans-Serif" font-size="11.00"> &#160;</text>
<polygon fill="#ffffff" stroke="none" points="460,-40.5 460,-60 564.25,-60 564.25,-40.5 460,-40.5"/>
<polygon fill="none" stroke="black" points="460,-40.5 460,-60 564.25,-60 564.25,-40.5 460,-40.5"/>
<text text-anchor="start" x="541.75" y="-46.55" font-family="Helvetica,sans-Serif" font-size="11.00">0 &gt;</text>
<polygon fill="none" stroke="black" stroke-width="2" points="292,-39.5 292,-414.5 581.75,-414.5 581.75,-39.5 292,-39.5"/>
</a>
</g>
</g>
<!-- lib_library -->
<g id="node2" class="node">
<title>lib_library</title>
<g id="a_node2"><a xlink:href="../../tables/lib_library.html" xlink:title="lib_library" target="_top">
<polygon fill="#ffffff" stroke="none" points="8,-174.75 8,-391.25 242,-391.25 242,-174.75 8,-174.75"/>
<polygon fill="#f5f5f5" stroke="none" points="8,-367.75 8,-391.25 242,-391.25 242,-367.75 8,-367.75"/>
<polygon fill="none" stroke="black" points="8,-367.75 8,-391.25 242,-391.25 242,-367.75 8,-367.75"/>
<text text-anchor="start" x="13" y="-376.8" font-family="Helvetica,sans-Serif" font-weight="bold" font-size="11.00">lib_library</text>
<text text-anchor="start" x="200.25" y="-375.8" font-family="Helvetica,sans-Serif" font-size="11.00">[table]</text>
<polygon fill="none" stroke="black" points="8,-345.75 8,-367.75 242,-367.75 242,-345.75 8,-345.75"/>
<image xlink:href="../../images/primaryKeys.png" width="11px" height="12px" preserveAspectRatio="xMinYMin meet" x="13" y="-362.75"/>
<text text-anchor="start" x="28" y="-352.3" font-family="Helvetica,sans-Serif" font-size="11.00">identifier</text>
<polygon fill="#ffffff" stroke="none" points="8,-323.75 8,-345.75 242,-345.75 242,-323.75 8,-323.75"/>
<polygon fill="none" stroke="black" points="8,-323.75 8,-345.75 242,-345.75 242,-323.75 8,-323.75"/>
<image xlink:href="../../images/foreignKeys.png" width="11px" height="12px" preserveAspectRatio="xMinYMin meet" x="13" y="-340.75"/>
<text text-anchor="start" x="28" y="-330.3" font-family="Helvetica,sans-Serif" font-size="11.00">address</text>
<polygon fill="#ffffff" stroke="none" points="8,-301.75 8,-323.75 242,-323.75 242,-301.75 8,-301.75"/>
<polygon fill="none" stroke="black" points="8,-301.75 8,-323.75 242,-323.75 242,-301.75 8,-301.75"/>
<image xlink:href="../../images/foreignKeys.png" width="11px" height="12px" preserveAspectRatio="xMinYMin meet" x="13" y="-318.75"/>
<text text-anchor="start" x="28" y="-308.3" font-family="Helvetica,sans-Serif" font-size="11.00">active_configuration_ftp</text>
<polygon fill="#ffffff" stroke="none" points="8,-279.75 8,-301.75 242,-301.75 242,-279.75 8,-279.75"/>
<polygon fill="none" stroke="black" points="8,-279.75 8,-301.75 242,-301.75 242,-279.75 8,-279.75"/>
<image xlink:href="../../images/foreignKeys.png" width="11px" height="12px" preserveAspectRatio="xMinYMin meet" x="13" y="-296.75"/>
<text text-anchor="start" x="28" y="-286.3" font-family="Helvetica,sans-Serif" font-size="11.00">active_configuration_check</text>
<polygon fill="#ffffff" stroke="none" points="8,-257.75 8,-279.75 242,-279.75 242,-257.75 8,-257.75"/>
<polygon fill="none" stroke="black" points="8,-257.75 8,-279.75 242,-279.75 242,-257.75 8,-257.75"/>
<image xlink:href="../../images/foreignKeys.png" width="11px" height="12px" preserveAspectRatio="xMinYMin meet" x="13" y="-274.75"/>
<text text-anchor="start" x="28" y="-264.3" font-family="Helvetica,sans-Serif" font-size="11.00">role</text>
<polygon fill="#ffffff" stroke="none" points="8,-235.75 8,-257.75 242,-257.75 242,-235.75 8,-235.75"/>
<polygon fill="none" stroke="black" points="8,-235.75 8,-257.75 242,-257.75 242,-235.75 8,-235.75"/>
<image xlink:href="../../images/foreignKeys.png" width="11px" height="12px" preserveAspectRatio="xMinYMin meet" x="13" y="-252.75"/>
<text text-anchor="start" x="28" y="-242.3" font-family="Helvetica,sans-Serif" font-size="11.00">active_configuration_export_ftp</text>
<polygon fill="#ffffff" stroke="none" points="8,-213.75 8,-235.75 242,-235.75 242,-213.75 8,-213.75"/>
<polygon fill="none" stroke="black" points="8,-213.75 8,-235.75 242,-235.75 242,-213.75 8,-213.75"/>
<image xlink:href="../../images/foreignKeys.png" width="11px" height="12px" preserveAspectRatio="xMinYMin meet" x="13" y="-230.75"/>
<text text-anchor="start" x="28" y="-220.3" font-family="Helvetica,sans-Serif" font-size="11.00">active_configuration_ocr_lang</text>
<polygon fill="none" stroke="black" points="8,-194.25 8,-213.75 242,-213.75 242,-194.25 8,-194.25"/>
<text text-anchor="start" x="11" y="-200.3" font-family="Helvetica,sans-Serif" font-size="11.00">...</text>
<polygon fill="#ffffff" stroke="none" points="8,-174.75 8,-194.25 87.75,-194.25 87.75,-174.75 8,-174.75"/>
<polygon fill="none" stroke="black" points="8,-174.75 8,-194.25 87.75,-194.25 87.75,-174.75 8,-174.75"/>
<text text-anchor="start" x="11" y="-180.8" font-family="Helvetica,sans-Serif" font-size="11.00">&lt; 6</text>
<polygon fill="#ffffff" stroke="none" points="87.75,-174.75 87.75,-194.25 155.5,-194.25 155.5,-174.75 87.75,-174.75"/>
<polygon fill="none" stroke="black" points="87.75,-174.75 87.75,-194.25 155.5,-194.25 155.5,-174.75 87.75,-174.75"/>
<text text-anchor="start" x="145" y="-180.8" font-family="Helvetica,sans-Serif" font-size="11.00"> &#160;</text>
<polygon fill="#ffffff" stroke="none" points="155.5,-174.75 155.5,-194.25 242,-194.25 242,-174.75 155.5,-174.75"/>
<polygon fill="none" stroke="black" points="155.5,-174.75 155.5,-194.25 242,-194.25 242,-174.75 155.5,-174.75"/>
<text text-anchor="start" x="212.75" y="-180.8" font-family="Helvetica,sans-Serif" font-size="11.00">27 &gt;</text>
</a>
</g>
</g>
<!-- doc_check_slip_config&#45;&gt;lib_library -->
<g id="edge1" class="edge">
<title>doc_check_slip_config:w&#45;&gt;lib_library:e</title>
<path fill="none" stroke="black" d="M276.42,-356.95C265.71,-356.88 258.48,-356.75 243,-356.75"/>
<polygon fill="black" stroke="black" points="283.67,-356.97 291.65,-360.6 288,-356.99 291.33,-357 291.33,-357 291.33,-357 288,-356.99 291.68,-353.4 283.67,-356.97"/>
<ellipse fill="none" stroke="black" cx="278.75" cy="-356.96" rx="3.2" ry="3.2"/>
</g>
</g>
</svg>
