<?xml version="1.0" encoding="UTF-8" standalone="no"?>
<!DOCTYPE svg PUBLIC "-//W3C//DTD SVG 1.1//EN"
 "http://www.w3.org/Graphics/SVG/1.1/DTD/svg11.dtd">
<!-- Generated by graphviz version 12.2.0 (0)
 -->
<!-- Title: twoDegreesRelationshipsDiagram Pages: 1 -->
<svg width="876pt" height="463pt"
 viewBox="0.00 0.00 876.25 463.00" xmlns="http://www.w3.org/2000/svg" xmlns:xlink="http://www.w3.org/1999/xlink">
<g id="graph0" class="graph" transform="scale(1 1) rotate(0) translate(4 459)">
<title>twoDegreesRelationshipsDiagram</title>
<polygon fill="#ffffff" stroke="none" points="-4,4 -4,-459 872.25,-459 872.25,4 -4,4"/>
<text text-anchor="middle" x="79.25" y="-7.05" font-family="Helvetica,sans-Serif" font-size="11.00">Generated by SchemaSpy</text>
<!-- check_automatic_result -->
<g id="node1" class="node">
<title>check_automatic_result</title>
<g id="a_node1"><a xlink:href="../../tables/check_automatic_result.html" xlink:title="check_automatic_result" target="_top">
<polygon fill="#ffffff" stroke="none" points="638,-388.5 638,-451 842.75,-451 842.75,-388.5 638,-388.5"/>
<polygon fill="#f5f5f5" stroke="none" points="638,-427.5 638,-451 842.75,-451 842.75,-427.5 638,-427.5"/>
<polygon fill="none" stroke="black" points="638,-427.5 638,-451 842.75,-451 842.75,-427.5 638,-427.5"/>
<text text-anchor="start" x="643" y="-436.55" font-family="Helvetica,sans-Serif" font-weight="bold" font-size="11.00">check_automatic_result</text>
<text text-anchor="start" x="801" y="-435.55" font-family="Helvetica,sans-Serif" font-size="11.00">[table]</text>
<polygon fill="none" stroke="black" points="638,-408 638,-427.5 842.75,-427.5 842.75,-408 638,-408"/>
<text text-anchor="start" x="641" y="-414.05" font-family="Helvetica,sans-Serif" font-size="11.00">...</text>
<polygon fill="#ffffff" stroke="none" points="638,-388.5 638,-408 714.25,-408 714.25,-388.5 638,-388.5"/>
<polygon fill="none" stroke="black" points="638,-388.5 638,-408 714.25,-408 714.25,-388.5 638,-388.5"/>
<text text-anchor="start" x="641" y="-394.55" font-family="Helvetica,sans-Serif" font-size="11.00">&lt; 6</text>
<polygon fill="#ffffff" stroke="none" points="714.25,-388.5 714.25,-408 778.5,-408 778.5,-388.5 714.25,-388.5"/>
<polygon fill="none" stroke="black" points="714.25,-388.5 714.25,-408 778.5,-408 778.5,-388.5 714.25,-388.5"/>
<text text-anchor="start" x="768" y="-394.55" font-family="Helvetica,sans-Serif" font-size="11.00"> &#160;</text>
<polygon fill="#ffffff" stroke="none" points="778.5,-388.5 778.5,-408 842.75,-408 842.75,-388.5 778.5,-388.5"/>
<polygon fill="none" stroke="black" points="778.5,-388.5 778.5,-408 842.75,-408 842.75,-388.5 778.5,-388.5"/>
<text text-anchor="start" x="832.25" y="-394.55" font-family="Helvetica,sans-Serif" font-size="11.00"> &#160;</text>
</a>
</g>
</g>
<!-- doc_digital_document -->
<g id="node2" class="node">
<title>doc_digital_document</title>
<g id="a_node2"><a xlink:href="../../tables/doc_digital_document.html" xlink:title="doc_digital_document" target="_top">
<polygon fill="#ffffff" stroke="none" points="8,-272.5 8,-335 200.75,-335 200.75,-272.5 8,-272.5"/>
<polygon fill="#f5f5f5" stroke="none" points="8,-311.5 8,-335 200.75,-335 200.75,-311.5 8,-311.5"/>
<polygon fill="none" stroke="black" points="8,-311.5 8,-335 200.75,-335 200.75,-311.5 8,-311.5"/>
<text text-anchor="start" x="13" y="-320.55" font-family="Helvetica,sans-Serif" font-weight="bold" font-size="11.00">doc_digital_document</text>
<text text-anchor="start" x="159" y="-319.55" font-family="Helvetica,sans-Serif" font-size="11.00">[table]</text>
<polygon fill="none" stroke="black" points="8,-292 8,-311.5 200.75,-311.5 200.75,-292 8,-292"/>
<text text-anchor="start" x="11" y="-298.05" font-family="Helvetica,sans-Serif" font-size="11.00">...</text>
<polygon fill="#ffffff" stroke="none" points="8,-272.5 8,-292 76.25,-292 76.25,-272.5 8,-272.5"/>
<polygon fill="none" stroke="black" points="8,-272.5 8,-292 76.25,-292 76.25,-272.5 8,-272.5"/>
<text text-anchor="start" x="11" y="-278.55" font-family="Helvetica,sans-Serif" font-size="11.00">&lt; 1</text>
<polygon fill="#ffffff" stroke="none" points="76.25,-272.5 76.25,-292 132.5,-292 132.5,-272.5 76.25,-272.5"/>
<polygon fill="none" stroke="black" points="76.25,-272.5 76.25,-292 132.5,-292 132.5,-272.5 76.25,-272.5"/>
<text text-anchor="start" x="122" y="-278.55" font-family="Helvetica,sans-Serif" font-size="11.00"> &#160;</text>
<polygon fill="#ffffff" stroke="none" points="132.5,-272.5 132.5,-292 200.75,-292 200.75,-272.5 132.5,-272.5"/>
<polygon fill="none" stroke="black" points="132.5,-272.5 132.5,-292 200.75,-292 200.75,-272.5 132.5,-272.5"/>
<text text-anchor="start" x="178.25" y="-278.55" font-family="Helvetica,sans-Serif" font-size="11.00">6 &gt;</text>
</a>
</g>
</g>
<!-- check_automatic_result&#45;&gt;doc_digital_document -->
<g id="edge1" class="edge">
<title>check_automatic_result:w&#45;&gt;doc_digital_document:e</title>
<path fill="none" stroke="black" d="M621.38,-415.93C538.77,-401.17 248.08,-301.75 201.75,-301.75"/>
<polygon fill="black" stroke="black" points="628.72,-416.78 636.25,-421.29 633.03,-417.29 636.34,-417.67 636.34,-417.67 636.34,-417.67 633.03,-417.29 637.08,-414.14 628.72,-416.78"/>
<ellipse fill="none" stroke="black" cx="623.84" cy="-416.21" rx="3.2" ry="3.2"/>
</g>
<!-- doc_page -->
<g id="node3" class="node">
<title>doc_page</title>
<g id="a_node3"><a xlink:href="../../tables/doc_page.html" xlink:title="doc_page" target="_top">
<polygon fill="#ffffff" stroke="none" points="423.5,-172.5 423.5,-323 571.5,-323 571.5,-172.5 423.5,-172.5"/>
<polygon fill="#f5f5f5" stroke="none" points="423.5,-299.5 423.5,-323 571.5,-323 571.5,-299.5 423.5,-299.5"/>
<polygon fill="none" stroke="black" points="423.5,-299.5 423.5,-323 571.5,-323 571.5,-299.5 423.5,-299.5"/>
<text text-anchor="start" x="428.5" y="-308.55" font-family="Helvetica,sans-Serif" font-weight="bold" font-size="11.00">doc_page</text>
<text text-anchor="start" x="529.75" y="-307.55" font-family="Helvetica,sans-Serif" font-size="11.00">[table]</text>
<polygon fill="none" stroke="black" points="423.5,-277.5 423.5,-299.5 571.5,-299.5 571.5,-277.5 423.5,-277.5"/>
<image xlink:href="../../images/primaryKeys.png" width="11px" height="12px" preserveAspectRatio="xMinYMin meet" x="428.5" y="-294.5"/>
<text text-anchor="start" x="443.5" y="-284.05" font-family="Helvetica,sans-Serif" font-size="11.00">identifier</text>
<polygon fill="#ffffff" stroke="none" points="423.5,-255.5 423.5,-277.5 571.5,-277.5 571.5,-255.5 423.5,-255.5"/>
<polygon fill="none" stroke="black" points="423.5,-255.5 423.5,-277.5 571.5,-277.5 571.5,-255.5 423.5,-255.5"/>
<image xlink:href="../../images/foreignKeys.png" width="11px" height="12px" preserveAspectRatio="xMinYMin meet" x="428.5" y="-272.5"/>
<text text-anchor="start" x="443.5" y="-262.05" font-family="Helvetica,sans-Serif" font-size="11.00">digital_document</text>
<polygon fill="#ffffff" stroke="none" points="423.5,-233.5 423.5,-255.5 571.5,-255.5 571.5,-233.5 423.5,-233.5"/>
<polygon fill="none" stroke="black" points="423.5,-233.5 423.5,-255.5 571.5,-255.5 571.5,-233.5 423.5,-233.5"/>
<image xlink:href="../../images/foreignKeys.png" width="11px" height="12px" preserveAspectRatio="xMinYMin meet" x="428.5" y="-250.5"/>
<text text-anchor="start" x="443.5" y="-240.05" font-family="Helvetica,sans-Serif" font-size="11.00">sample</text>
<polygon fill="#ffffff" stroke="none" points="423.5,-211.5 423.5,-233.5 571.5,-233.5 571.5,-211.5 423.5,-211.5"/>
<polygon fill="none" stroke="black" points="423.5,-211.5 423.5,-233.5 571.5,-233.5 571.5,-211.5 423.5,-211.5"/>
<text text-anchor="start" x="443.5" y="-218.05" font-family="Helvetica,sans-Serif" font-size="11.00">piece</text>
<polygon fill="none" stroke="black" points="423.5,-192 423.5,-211.5 571.5,-211.5 571.5,-192 423.5,-192"/>
<text text-anchor="start" x="426.5" y="-198.05" font-family="Helvetica,sans-Serif" font-size="11.00">...</text>
<polygon fill="#ffffff" stroke="none" points="423.5,-172.5 423.5,-192 476.83,-192 476.83,-172.5 423.5,-172.5"/>
<polygon fill="none" stroke="black" points="423.5,-172.5 423.5,-192 476.83,-192 476.83,-172.5 423.5,-172.5"/>
<text text-anchor="start" x="426.5" y="-178.55" font-family="Helvetica,sans-Serif" font-size="11.00">&lt; 2</text>
<polygon fill="#ffffff" stroke="none" points="476.83,-172.5 476.83,-192 518.17,-192 518.17,-172.5 476.83,-172.5"/>
<polygon fill="none" stroke="black" points="476.83,-172.5 476.83,-192 518.17,-192 518.17,-172.5 476.83,-172.5"/>
<text text-anchor="start" x="507.67" y="-178.55" font-family="Helvetica,sans-Serif" font-size="11.00"> &#160;</text>
<polygon fill="#ffffff" stroke="none" points="518.17,-172.5 518.17,-192 571.5,-192 571.5,-172.5 518.17,-172.5"/>
<polygon fill="none" stroke="black" points="518.17,-172.5 518.17,-192 571.5,-192 571.5,-172.5 518.17,-172.5"/>
<text text-anchor="start" x="549" y="-178.55" font-family="Helvetica,sans-Serif" font-size="11.00">3 &gt;</text>
</a>
</g>
</g>
<!-- check_automatic_result&#45;&gt;doc_page -->
<g id="edge2" class="edge">
<title>check_automatic_result:w&#45;&gt;doc_page:e</title>
<path fill="none" stroke="black" d="M621.62,-414.29C584.06,-393.74 630.43,-288.5 572.5,-288.5"/>
<polygon fill="black" stroke="black" points="628.87,-415.92 635.88,-421.19 633.1,-416.87 636.35,-417.6 636.35,-417.6 636.35,-417.6 633.1,-416.87 637.46,-414.16 628.87,-415.92"/>
<ellipse fill="none" stroke="black" cx="624.07" cy="-414.84" rx="3.2" ry="3.2"/>
</g>
<!-- doc_page&#45;&gt;doc_digital_document -->
<g id="edge4" class="edge">
<title>doc_page:w&#45;&gt;doc_digital_document:e</title>
<path fill="none" stroke="black" d="M407.33,-271.04C399.87,-276.35 395.45,-284.89 382.5,-288.75 305.32,-311.76 282.29,-301.75 201.75,-301.75"/>
<polygon fill="black" stroke="black" points="414.52,-268.89 423.21,-270.04 418.67,-267.65 421.86,-266.69 421.86,-266.69 421.86,-266.69 418.67,-267.65 421.15,-263.15 414.52,-268.89"/>
<ellipse fill="none" stroke="black" cx="409.8" cy="-270.3" rx="3.2" ry="3.2"/>
</g>
<!-- doc_sample -->
<g id="node5" class="node">
<title>doc_sample</title>
<g id="a_node5"><a xlink:href="../../tables/doc_sample.html" xlink:title="doc_sample" target="_top">
<polygon fill="#ffffff" stroke="none" points="249.75,-215.5 249.75,-278 374.5,-278 374.5,-215.5 249.75,-215.5"/>
<polygon fill="#f5f5f5" stroke="none" points="249.75,-254.5 249.75,-278 374.5,-278 374.5,-254.5 249.75,-254.5"/>
<polygon fill="none" stroke="black" points="249.75,-254.5 249.75,-278 374.5,-278 374.5,-254.5 249.75,-254.5"/>
<text text-anchor="start" x="254.75" y="-263.55" font-family="Helvetica,sans-Serif" font-weight="bold" font-size="11.00">doc_sample</text>
<text text-anchor="start" x="332.75" y="-262.55" font-family="Helvetica,sans-Serif" font-size="11.00">[table]</text>
<polygon fill="none" stroke="black" points="249.75,-235 249.75,-254.5 374.5,-254.5 374.5,-235 249.75,-235"/>
<text text-anchor="start" x="252.75" y="-241.05" font-family="Helvetica,sans-Serif" font-size="11.00">...</text>
<polygon fill="#ffffff" stroke="none" points="249.75,-215.5 249.75,-235 295.33,-235 295.33,-215.5 249.75,-215.5"/>
<polygon fill="none" stroke="black" points="249.75,-215.5 249.75,-235 295.33,-235 295.33,-215.5 249.75,-215.5"/>
<text text-anchor="start" x="252.75" y="-221.55" font-family="Helvetica,sans-Serif" font-size="11.00">&lt; 2</text>
<polygon fill="#ffffff" stroke="none" points="295.33,-215.5 295.33,-235 328.92,-235 328.92,-215.5 295.33,-215.5"/>
<polygon fill="none" stroke="black" points="295.33,-215.5 295.33,-235 328.92,-235 328.92,-215.5 295.33,-215.5"/>
<text text-anchor="start" x="318.42" y="-221.55" font-family="Helvetica,sans-Serif" font-size="11.00"> &#160;</text>
<polygon fill="#ffffff" stroke="none" points="328.92,-215.5 328.92,-235 374.5,-235 374.5,-215.5 328.92,-215.5"/>
<polygon fill="none" stroke="black" points="328.92,-215.5 328.92,-235 374.5,-235 374.5,-215.5 328.92,-215.5"/>
<text text-anchor="start" x="352" y="-221.55" font-family="Helvetica,sans-Serif" font-size="11.00">1 &gt;</text>
</a>
</g>
</g>
<!-- doc_page&#45;&gt;doc_sample -->
<g id="edge5" class="edge">
<title>doc_page:w&#45;&gt;doc_sample:e</title>
<path fill="none" stroke="black" d="M406.88,-244.56C396.97,-244.63 390.02,-244.75 375.5,-244.75"/>
<polygon fill="black" stroke="black" points="414.17,-244.53 422.18,-248.1 418.5,-244.51 421.83,-244.5 421.83,-244.5 421.83,-244.5 418.5,-244.51 422.15,-240.9 414.17,-244.53"/>
<ellipse fill="none" stroke="black" cx="409.25" cy="-244.55" rx="3.2" ry="3.2"/>
</g>
<!-- doc_check -->
<g id="node4" class="node">
<title>doc_check</title>
<g id="a_node4"><a xlink:href="../../tables/doc_check.html" xlink:title="doc_check" target="_top">
<polygon fill="#ffffff" stroke="none" points="620.5,-122.25 620.5,-367.25 860.25,-367.25 860.25,-122.25 620.5,-122.25"/>
<polygon fill="#f5f5f5" stroke="none" points="622.5,-341.75 622.5,-365.25 858.25,-365.25 858.25,-341.75 622.5,-341.75"/>
<polygon fill="none" stroke="black" points="622.5,-341.75 622.5,-365.25 858.25,-365.25 858.25,-341.75 622.5,-341.75"/>
<text text-anchor="start" x="627.5" y="-350.8" font-family="Helvetica,sans-Serif" font-weight="bold" font-size="11.00">doc_check</text>
<text text-anchor="start" x="816.5" y="-349.8" font-family="Helvetica,sans-Serif" font-size="11.00">[table]</text>
<polygon fill="none" stroke="black" points="622.5,-319.75 622.5,-341.75 770.5,-341.75 770.5,-319.75 622.5,-319.75"/>
<image xlink:href="../../images/primaryKeys.png" width="11px" height="12px" preserveAspectRatio="xMinYMin meet" x="627.5" y="-336.75"/>
<text text-anchor="start" x="642.5" y="-326.3" font-family="Helvetica,sans-Serif" font-size="11.00">identifier</text>
<polygon fill="none" stroke="black" points="770.5,-319.75 770.5,-341.75 858.25,-341.75 858.25,-319.75 770.5,-319.75"/>
<text text-anchor="start" x="773.5" y="-327.05" font-family="Helvetica,sans-Serif" font-size="11.00">varchar[191]</text>
<polygon fill="none" stroke="black" points="622.5,-297.75 622.5,-319.75 770.5,-319.75 770.5,-297.75 622.5,-297.75"/>
<text text-anchor="start" x="642.5" y="-304.3" font-family="Helvetica,sans-Serif" font-size="11.00">err_label</text>
<polygon fill="none" stroke="black" points="770.5,-297.75 770.5,-319.75 858.25,-319.75 858.25,-297.75 770.5,-297.75"/>
<text text-anchor="start" x="773.5" y="-305.05" font-family="Helvetica,sans-Serif" font-size="11.00">varchar[255]</text>
<polygon fill="none" stroke="black" points="622.5,-275.75 622.5,-297.75 770.5,-297.75 770.5,-275.75 622.5,-275.75"/>
<text text-anchor="start" x="642.5" y="-282.3" font-family="Helvetica,sans-Serif" font-size="11.00">err_type</text>
<polygon fill="none" stroke="black" points="770.5,-275.75 770.5,-297.75 858.25,-297.75 858.25,-275.75 770.5,-275.75"/>
<text text-anchor="start" x="773.5" y="-283.05" font-family="Helvetica,sans-Serif" font-size="11.00">varchar[255]</text>
<polygon fill="#ffffff" stroke="none" points="622.5,-253.75 622.5,-275.75 770.5,-275.75 770.5,-253.75 622.5,-253.75"/>
<polygon fill="none" stroke="black" points="622.5,-253.75 622.5,-275.75 770.5,-275.75 770.5,-253.75 622.5,-253.75"/>
<image xlink:href="../../images/foreignKeys.png" width="11px" height="12px" preserveAspectRatio="xMinYMin meet" x="627.5" y="-270.75"/>
<text text-anchor="start" x="642.5" y="-260.3" font-family="Helvetica,sans-Serif" font-size="11.00">page</text>
<polygon fill="none" stroke="black" points="770.5,-253.75 770.5,-275.75 858.25,-275.75 858.25,-253.75 770.5,-253.75"/>
<text text-anchor="start" x="773.5" y="-261.05" font-family="Helvetica,sans-Serif" font-size="11.00">varchar[191]</text>
<polygon fill="none" stroke="black" points="622.5,-231.75 622.5,-253.75 770.5,-253.75 770.5,-231.75 622.5,-231.75"/>
<text text-anchor="start" x="642.5" y="-238.3" font-family="Helvetica,sans-Serif" font-size="11.00">version</text>
<polygon fill="none" stroke="black" points="770.5,-231.75 770.5,-253.75 858.25,-253.75 858.25,-231.75 770.5,-231.75"/>
<text text-anchor="start" x="773.5" y="-239.05" font-family="Helvetica,sans-Serif" font-size="11.00">bigint[19]</text>
<polygon fill="none" stroke="black" points="622.5,-209.75 622.5,-231.75 770.5,-231.75 770.5,-209.75 622.5,-209.75"/>
<text text-anchor="start" x="642.5" y="-216.3" font-family="Helvetica,sans-Serif" font-size="11.00">created_by</text>
<polygon fill="none" stroke="black" points="770.5,-209.75 770.5,-231.75 858.25,-231.75 858.25,-209.75 770.5,-209.75"/>
<text text-anchor="start" x="773.5" y="-217.05" font-family="Helvetica,sans-Serif" font-size="11.00">varchar[191]</text>
<polygon fill="none" stroke="black" points="622.5,-187.75 622.5,-209.75 770.5,-209.75 770.5,-187.75 622.5,-187.75"/>
<text text-anchor="start" x="642.5" y="-194.3" font-family="Helvetica,sans-Serif" font-size="11.00">last_modified_by</text>
<polygon fill="none" stroke="black" points="770.5,-187.75 770.5,-209.75 858.25,-209.75 858.25,-187.75 770.5,-187.75"/>
<text text-anchor="start" x="773.5" y="-195.05" font-family="Helvetica,sans-Serif" font-size="11.00">varchar[191]</text>
<polygon fill="none" stroke="black" points="622.5,-165.75 622.5,-187.75 770.5,-187.75 770.5,-165.75 622.5,-165.75"/>
<text text-anchor="start" x="642.5" y="-172.3" font-family="Helvetica,sans-Serif" font-size="11.00">created_date</text>
<polygon fill="none" stroke="black" points="770.5,-165.75 770.5,-187.75 858.25,-187.75 858.25,-165.75 770.5,-165.75"/>
<text text-anchor="start" x="773.5" y="-173.05" font-family="Helvetica,sans-Serif" font-size="11.00">timestamp[19]</text>
<polygon fill="none" stroke="black" points="622.5,-143.75 622.5,-165.75 770.5,-165.75 770.5,-143.75 622.5,-143.75"/>
<text text-anchor="start" x="642.5" y="-150.3" font-family="Helvetica,sans-Serif" font-size="11.00">last_modified_date</text>
<polygon fill="none" stroke="black" points="770.5,-143.75 770.5,-165.75 858.25,-165.75 858.25,-143.75 770.5,-143.75"/>
<text text-anchor="start" x="773.5" y="-151.05" font-family="Helvetica,sans-Serif" font-size="11.00">timestamp[19]</text>
<polygon fill="#ffffff" stroke="none" points="622.5,-124.25 622.5,-143.75 702.5,-143.75 702.5,-124.25 622.5,-124.25"/>
<polygon fill="none" stroke="black" points="622.5,-124.25 622.5,-143.75 702.5,-143.75 702.5,-124.25 622.5,-124.25"/>
<text text-anchor="start" x="625.5" y="-130.3" font-family="Helvetica,sans-Serif" font-size="11.00">&lt; 1</text>
<polygon fill="#ffffff" stroke="none" points="702.5,-124.25 702.5,-143.75 770.5,-143.75 770.5,-124.25 702.5,-124.25"/>
<polygon fill="none" stroke="black" points="702.5,-124.25 702.5,-143.75 770.5,-143.75 770.5,-124.25 702.5,-124.25"/>
<text text-anchor="start" x="760" y="-130.3" font-family="Helvetica,sans-Serif" font-size="11.00"> &#160;</text>
<polygon fill="#ffffff" stroke="none" points="770.5,-124.25 770.5,-143.75 858.25,-143.75 858.25,-124.25 770.5,-124.25"/>
<polygon fill="none" stroke="black" points="770.5,-124.25 770.5,-143.75 858.25,-143.75 858.25,-124.25 770.5,-124.25"/>
<text text-anchor="start" x="835.75" y="-130.3" font-family="Helvetica,sans-Serif" font-size="11.00">0 &gt;</text>
<polygon fill="none" stroke="black" stroke-width="2" points="621.5,-123.25 621.5,-366.25 859.25,-366.25 859.25,-123.25 621.5,-123.25"/>
</a>
</g>
</g>
<!-- doc_check&#45;&gt;doc_page -->
<g id="edge3" class="edge">
<title>doc_check:w&#45;&gt;doc_page:e</title>
<path fill="none" stroke="black" d="M606.33,-268.89C595.32,-275.69 590.27,-288.5 572.5,-288.5"/>
<polygon fill="black" stroke="black" points="613.46,-266.94 622.12,-268.31 617.64,-265.8 620.85,-264.93 620.85,-264.93 620.85,-264.93 617.64,-265.8 620.23,-261.36 613.46,-266.94"/>
<ellipse fill="none" stroke="black" cx="608.71" cy="-268.24" rx="3.2" ry="3.2"/>
</g>
<!-- doc_sample&#45;&gt;doc_digital_document -->
<g id="edge6" class="edge">
<title>doc_sample:w&#45;&gt;doc_digital_document:e</title>
<path fill="none" stroke="black" d="M234.25,-250.85C221.37,-265.55 227.92,-301.75 201.75,-301.75"/>
<polygon fill="black" stroke="black" points="241.07,-247.98 249.84,-248.2 245.06,-246.3 248.13,-245.01 248.13,-245.01 248.13,-245.01 245.06,-246.3 247.05,-241.56 241.07,-247.98"/>
<ellipse fill="none" stroke="black" cx="236.53" cy="-249.89" rx="3.2" ry="3.2"/>
</g>
<!-- sto_stored_file -->
<g id="node6" class="node">
<title>sto_stored_file</title>
<g id="a_node6"><a xlink:href="../../tables/sto_stored_file.html" xlink:title="sto_stored_file" target="_top">
<polygon fill="#ffffff" stroke="none" points="668,-38.5 668,-101 812.75,-101 812.75,-38.5 668,-38.5"/>
<polygon fill="#f5f5f5" stroke="none" points="668,-77.5 668,-101 812.75,-101 812.75,-77.5 668,-77.5"/>
<polygon fill="none" stroke="black" points="668,-77.5 668,-101 812.75,-101 812.75,-77.5 668,-77.5"/>
<text text-anchor="start" x="673" y="-86.55" font-family="Helvetica,sans-Serif" font-weight="bold" font-size="11.00">sto_stored_file</text>
<text text-anchor="start" x="771" y="-85.55" font-family="Helvetica,sans-Serif" font-size="11.00">[table]</text>
<polygon fill="none" stroke="black" points="668,-58 668,-77.5 812.75,-77.5 812.75,-58 668,-58"/>
<text text-anchor="start" x="671" y="-64.05" font-family="Helvetica,sans-Serif" font-size="11.00">...</text>
<polygon fill="#ffffff" stroke="none" points="668,-38.5 668,-58 724.25,-58 724.25,-38.5 668,-38.5"/>
<polygon fill="none" stroke="black" points="668,-38.5 668,-58 724.25,-58 724.25,-38.5 668,-38.5"/>
<text text-anchor="start" x="671" y="-44.55" font-family="Helvetica,sans-Serif" font-size="11.00">&lt; 2</text>
<polygon fill="#ffffff" stroke="none" points="724.25,-38.5 724.25,-58 768.5,-58 768.5,-38.5 724.25,-38.5"/>
<polygon fill="none" stroke="black" points="724.25,-38.5 724.25,-58 768.5,-58 768.5,-38.5 724.25,-38.5"/>
<text text-anchor="start" x="758" y="-44.55" font-family="Helvetica,sans-Serif" font-size="11.00"> &#160;</text>
<polygon fill="#ffffff" stroke="none" points="768.5,-38.5 768.5,-58 812.75,-58 812.75,-38.5 768.5,-38.5"/>
<polygon fill="none" stroke="black" points="768.5,-38.5 768.5,-58 812.75,-58 812.75,-38.5 768.5,-38.5"/>
<text text-anchor="start" x="802.25" y="-44.55" font-family="Helvetica,sans-Serif" font-size="11.00"> &#160;</text>
</a>
</g>
</g>
<!-- sto_stored_file&#45;&gt;doc_page -->
<g id="edge7" class="edge">
<title>sto_stored_file:w&#45;&gt;doc_page:e</title>
<path fill="none" stroke="black" d="M651.28,-69.7C632.81,-74.95 625.74,-90.49 612.5,-111.75 569.92,-180.11 653.04,-288.5 572.5,-288.5"/>
<polygon fill="black" stroke="black" points="658.73,-68.77 667.11,-71.36 663.03,-68.24 666.34,-67.83 666.34,-67.83 666.34,-67.83 663.03,-68.24 666.23,-64.22 658.73,-68.77"/>
<ellipse fill="none" stroke="black" cx="653.85" cy="-69.38" rx="3.2" ry="3.2"/>
</g>
</g>
</svg>
