<?xml version="1.0" encoding="UTF-8" standalone="no"?>
<!DOCTYPE svg PUBLIC "-//W3C//DTD SVG 1.1//EN"
 "http://www.w3.org/Graphics/SVG/1.1/DTD/svg11.dtd">
<!-- Generated by graphviz version 12.2.0 (0)
 -->
<!-- Title: twoDegreesRelationshipsDiagram Pages: 1 -->
<svg width="535pt" height="861pt"
 viewBox="0.00 0.00 535.00 861.25" xmlns="http://www.w3.org/2000/svg" xmlns:xlink="http://www.w3.org/1999/xlink">
<g id="graph0" class="graph" transform="scale(1 1) rotate(0) translate(4 857.25)">
<title>twoDegreesRelationshipsDiagram</title>
<polygon fill="#ffffff" stroke="none" points="-4,4 -4,-857.25 531,-857.25 531,4 -4,4"/>
<text text-anchor="middle" x="79.25" y="-7.05" font-family="Helvetica,sans-Serif" font-size="11.00">Generated by SchemaSpy</text>
<!-- doc_archive_collection -->
<g id="node1" class="node">
<title>doc_archive_collection</title>
<g id="a_node1"><a xlink:href="../../tables/doc_archive_collection.html" xlink:title="doc_archive_collection" target="_top">
<polygon fill="#ffffff" stroke="none" points="219.75,-626.25 219.75,-849.25 519,-849.25 519,-626.25 219.75,-626.25"/>
<polygon fill="#f5f5f5" stroke="none" points="221.75,-823.75 221.75,-847.25 517,-847.25 517,-823.75 221.75,-823.75"/>
<polygon fill="none" stroke="black" points="221.75,-823.75 221.75,-847.25 517,-847.25 517,-823.75 221.75,-823.75"/>
<text text-anchor="start" x="226.75" y="-832.8" font-family="Helvetica,sans-Serif" font-weight="bold" font-size="11.00">doc_archive_collection</text>
<text text-anchor="start" x="475.25" y="-831.8" font-family="Helvetica,sans-Serif" font-size="11.00">[table]</text>
<polygon fill="none" stroke="black" points="221.75,-801.75 221.75,-823.75 393.75,-823.75 393.75,-801.75 221.75,-801.75"/>
<image xlink:href="../../images/primaryKeys.png" width="11px" height="12px" preserveAspectRatio="xMinYMin meet" x="226.75" y="-818.75"/>
<text text-anchor="start" x="241.75" y="-808.3" font-family="Helvetica,sans-Serif" font-size="11.00">identifier</text>
<polygon fill="none" stroke="black" points="393.75,-801.75 393.75,-823.75 499.25,-823.75 499.25,-801.75 393.75,-801.75"/>
<text text-anchor="start" x="396.75" y="-809.05" font-family="Helvetica,sans-Serif" font-size="11.00">varchar[191]</text>
<polygon fill="none" stroke="black" points="221.75,-779.75 221.75,-801.75 393.75,-801.75 393.75,-779.75 221.75,-779.75"/>
<text text-anchor="start" x="241.75" y="-786.3" font-family="Helvetica,sans-Serif" font-size="11.00">value</text>
<polygon fill="none" stroke="black" points="393.75,-779.75 393.75,-801.75 499.25,-801.75 499.25,-779.75 393.75,-779.75"/>
<text text-anchor="start" x="396.75" y="-787.05" font-family="Helvetica,sans-Serif" font-size="11.00">text[65535]</text>
<polygon fill="#ffffff" stroke="none" points="221.75,-757.75 221.75,-779.75 393.75,-779.75 393.75,-757.75 221.75,-757.75"/>
<polygon fill="none" stroke="black" points="221.75,-757.75 221.75,-779.75 393.75,-779.75 393.75,-757.75 221.75,-757.75"/>
<image xlink:href="../../images/foreignKeys.png" width="11px" height="12px" preserveAspectRatio="xMinYMin meet" x="226.75" y="-774.75"/>
<text text-anchor="start" x="241.75" y="-764.3" font-family="Helvetica,sans-Serif" font-size="11.00">item</text>
<polygon fill="none" stroke="black" points="393.75,-757.75 393.75,-779.75 499.25,-779.75 499.25,-757.75 393.75,-757.75"/>
<text text-anchor="start" x="396.75" y="-765.05" font-family="Helvetica,sans-Serif" font-size="11.00">varchar[191]</text>
<polygon fill="none" stroke="black" points="221.75,-735.75 221.75,-757.75 393.75,-757.75 393.75,-735.75 221.75,-735.75"/>
<text text-anchor="start" x="241.75" y="-742.3" font-family="Helvetica,sans-Serif" font-size="11.00">version</text>
<polygon fill="none" stroke="black" points="393.75,-735.75 393.75,-757.75 499.25,-757.75 499.25,-735.75 393.75,-735.75"/>
<text text-anchor="start" x="396.75" y="-743.05" font-family="Helvetica,sans-Serif" font-size="11.00">bigint[19]</text>
<polygon fill="none" stroke="black" points="221.75,-713.75 221.75,-735.75 393.75,-735.75 393.75,-713.75 221.75,-713.75"/>
<text text-anchor="start" x="241.75" y="-720.3" font-family="Helvetica,sans-Serif" font-size="11.00">created_by</text>
<polygon fill="none" stroke="black" points="393.75,-713.75 393.75,-735.75 499.25,-735.75 499.25,-713.75 393.75,-713.75"/>
<text text-anchor="start" x="396.75" y="-721.05" font-family="Helvetica,sans-Serif" font-size="11.00">varchar[191]</text>
<polygon fill="none" stroke="black" points="221.75,-691.75 221.75,-713.75 393.75,-713.75 393.75,-691.75 221.75,-691.75"/>
<text text-anchor="start" x="241.75" y="-698.3" font-family="Helvetica,sans-Serif" font-size="11.00">last_modified_by</text>
<polygon fill="none" stroke="black" points="393.75,-691.75 393.75,-713.75 499.25,-713.75 499.25,-691.75 393.75,-691.75"/>
<text text-anchor="start" x="396.75" y="-699.05" font-family="Helvetica,sans-Serif" font-size="11.00">varchar[191]</text>
<polygon fill="none" stroke="black" points="221.75,-669.75 221.75,-691.75 393.75,-691.75 393.75,-669.75 221.75,-669.75"/>
<text text-anchor="start" x="241.75" y="-676.3" font-family="Helvetica,sans-Serif" font-size="11.00">created_date</text>
<polygon fill="none" stroke="black" points="393.75,-669.75 393.75,-691.75 499.25,-691.75 499.25,-669.75 393.75,-669.75"/>
<text text-anchor="start" x="396.75" y="-677.05" font-family="Helvetica,sans-Serif" font-size="11.00">timestamp[19]</text>
<polygon fill="none" stroke="black" points="221.75,-647.75 221.75,-669.75 393.75,-669.75 393.75,-647.75 221.75,-647.75"/>
<text text-anchor="start" x="241.75" y="-654.3" font-family="Helvetica,sans-Serif" font-size="11.00">last_modified_date</text>
<polygon fill="none" stroke="black" points="393.75,-647.75 393.75,-669.75 499.25,-669.75 499.25,-647.75 393.75,-647.75"/>
<text text-anchor="start" x="396.75" y="-655.05" font-family="Helvetica,sans-Serif" font-size="11.00">timestamp[19]</text>
<polygon fill="#ffffff" stroke="none" points="221.75,-628.25 221.75,-647.75 313.75,-647.75 313.75,-628.25 221.75,-628.25"/>
<polygon fill="none" stroke="black" points="221.75,-628.25 221.75,-647.75 313.75,-647.75 313.75,-628.25 221.75,-628.25"/>
<text text-anchor="start" x="224.75" y="-634.3" font-family="Helvetica,sans-Serif" font-size="11.00">&lt; 1</text>
<polygon fill="#ffffff" stroke="none" points="313.75,-628.25 313.75,-647.75 393.75,-647.75 393.75,-628.25 313.75,-628.25"/>
<polygon fill="none" stroke="black" points="313.75,-628.25 313.75,-647.75 393.75,-647.75 393.75,-628.25 313.75,-628.25"/>
<text text-anchor="start" x="383.25" y="-634.3" font-family="Helvetica,sans-Serif" font-size="11.00"> &#160;</text>
<polygon fill="#ffffff" stroke="none" points="393.75,-628.25 393.75,-647.75 499.25,-647.75 499.25,-628.25 393.75,-628.25"/>
<polygon fill="none" stroke="black" points="393.75,-628.25 393.75,-647.75 499.25,-647.75 499.25,-628.25 393.75,-628.25"/>
<text text-anchor="start" x="476.75" y="-634.3" font-family="Helvetica,sans-Serif" font-size="11.00">0 &gt;</text>
<polygon fill="none" stroke="black" stroke-width="2" points="220.75,-627.25 220.75,-848.25 518,-848.25 518,-627.25 220.75,-627.25"/>
</a>
</g>
</g>
<!-- doc_archive_item -->
<g id="node2" class="node">
<title>doc_archive_item</title>
<g id="a_node2"><a xlink:href="../../tables/doc_archive_item.html" xlink:title="doc_archive_item" target="_top">
<polygon fill="#ffffff" stroke="none" points="8,-312.5 8,-397 170.75,-397 170.75,-312.5 8,-312.5"/>
<polygon fill="#f5f5f5" stroke="none" points="8,-373.5 8,-397 170.75,-397 170.75,-373.5 8,-373.5"/>
<polygon fill="none" stroke="black" points="8,-373.5 8,-397 170.75,-397 170.75,-373.5 8,-373.5"/>
<text text-anchor="start" x="13" y="-382.55" font-family="Helvetica,sans-Serif" font-weight="bold" font-size="11.00">doc_archive_item</text>
<text text-anchor="start" x="129" y="-381.55" font-family="Helvetica,sans-Serif" font-size="11.00">[table]</text>
<polygon fill="none" stroke="black" points="8,-351.5 8,-373.5 170.75,-373.5 170.75,-351.5 8,-351.5"/>
<image xlink:href="../../images/primaryKeys.png" width="11px" height="12px" preserveAspectRatio="xMinYMin meet" x="13" y="-368.5"/>
<text text-anchor="start" x="35.38" y="-358.05" font-family="Helvetica,sans-Serif" font-size="11.00">identifier</text>
<polygon fill="none" stroke="black" points="8,-332 8,-351.5 170.75,-351.5 170.75,-332 8,-332"/>
<text text-anchor="start" x="11" y="-338.05" font-family="Helvetica,sans-Serif" font-size="11.00">...</text>
<polygon fill="#ffffff" stroke="none" points="8,-312.5 8,-332 58.25,-332 58.25,-312.5 8,-312.5"/>
<polygon fill="none" stroke="black" points="8,-312.5 8,-332 58.25,-332 58.25,-312.5 8,-312.5"/>
<text text-anchor="start" x="11" y="-318.55" font-family="Helvetica,sans-Serif" font-size="11.00"> &#160;</text>
<polygon fill="#ffffff" stroke="none" points="58.25,-312.5 58.25,-332 108.5,-332 108.5,-312.5 58.25,-312.5"/>
<polygon fill="none" stroke="black" points="58.25,-312.5 58.25,-332 108.5,-332 108.5,-312.5 58.25,-312.5"/>
<text text-anchor="start" x="98" y="-318.55" font-family="Helvetica,sans-Serif" font-size="11.00"> &#160;</text>
<polygon fill="#ffffff" stroke="none" points="108.5,-312.5 108.5,-332 170.75,-332 170.75,-312.5 108.5,-312.5"/>
<polygon fill="none" stroke="black" points="108.5,-312.5 108.5,-332 170.75,-332 170.75,-312.5 108.5,-312.5"/>
<text text-anchor="start" x="148.25" y="-318.55" font-family="Helvetica,sans-Serif" font-size="11.00">8 &gt;</text>
</a>
</g>
</g>
<!-- doc_archive_collection&#45;&gt;doc_archive_item -->
<g id="edge1" class="edge">
<title>doc_archive_collection:w&#45;&gt;doc_archive_item:e</title>
<path fill="none" stroke="black" d="M205.84,-763.9C146.02,-718.07 256.82,-362.5 171.75,-362.5"/>
<polygon fill="black" stroke="black" points="212.82,-766.17 219.32,-772.07 216.95,-767.51 220.11,-768.54 220.11,-768.54 220.11,-768.54 216.95,-767.51 221.54,-765.22 212.82,-766.17"/>
<ellipse fill="none" stroke="black" cx="208.15" cy="-764.65" rx="3.2" ry="3.2"/>
</g>
<!-- doc_archive_contributor -->
<g id="node3" class="node">
<title>doc_archive_contributor</title>
<g id="a_node3"><a xlink:href="../../tables/doc_archive_contributor.html" xlink:title="doc_archive_contributor" target="_top">
<polygon fill="#ffffff" stroke="none" points="265,-542.5 265,-605 473.75,-605 473.75,-542.5 265,-542.5"/>
<polygon fill="#f5f5f5" stroke="none" points="265,-581.5 265,-605 473.75,-605 473.75,-581.5 265,-581.5"/>
<polygon fill="none" stroke="black" points="265,-581.5 265,-605 473.75,-605 473.75,-581.5 265,-581.5"/>
<text text-anchor="start" x="270" y="-590.55" font-family="Helvetica,sans-Serif" font-weight="bold" font-size="11.00">doc_archive_contributor</text>
<text text-anchor="start" x="432" y="-589.55" font-family="Helvetica,sans-Serif" font-size="11.00">[table]</text>
<polygon fill="none" stroke="black" points="265,-562 265,-581.5 473.75,-581.5 473.75,-562 265,-562"/>
<text text-anchor="start" x="268" y="-568.05" font-family="Helvetica,sans-Serif" font-size="11.00">...</text>
<polygon fill="#ffffff" stroke="none" points="265,-542.5 265,-562 342.58,-562 342.58,-542.5 265,-542.5"/>
<polygon fill="none" stroke="black" points="265,-542.5 265,-562 342.58,-562 342.58,-542.5 265,-542.5"/>
<text text-anchor="start" x="268" y="-548.55" font-family="Helvetica,sans-Serif" font-size="11.00">&lt; 1</text>
<polygon fill="#ffffff" stroke="none" points="342.58,-542.5 342.58,-562 408.17,-562 408.17,-542.5 342.58,-542.5"/>
<polygon fill="none" stroke="black" points="342.58,-542.5 342.58,-562 408.17,-562 408.17,-542.5 342.58,-542.5"/>
<text text-anchor="start" x="397.67" y="-548.55" font-family="Helvetica,sans-Serif" font-size="11.00"> &#160;</text>
<polygon fill="#ffffff" stroke="none" points="408.17,-542.5 408.17,-562 473.75,-562 473.75,-542.5 408.17,-542.5"/>
<polygon fill="none" stroke="black" points="408.17,-542.5 408.17,-562 473.75,-562 473.75,-542.5 408.17,-542.5"/>
<text text-anchor="start" x="463.25" y="-548.55" font-family="Helvetica,sans-Serif" font-size="11.00"> &#160;</text>
</a>
</g>
</g>
<!-- doc_archive_contributor&#45;&gt;doc_archive_item -->
<g id="edge2" class="edge">
<title>doc_archive_contributor:w&#45;&gt;doc_archive_item:e</title>
<path fill="none" stroke="black" d="M248.41,-569.82C231.44,-564.96 224.36,-551.21 211.75,-531.75 169.73,-466.87 249.04,-362.5 171.75,-362.5"/>
<polygon fill="black" stroke="black" points="255.73,-570.73 263.23,-575.28 260.03,-571.26 263.34,-571.67 263.34,-571.67 263.34,-571.67 260.03,-571.26 264.11,-568.14 255.73,-570.73"/>
<ellipse fill="none" stroke="black" cx="250.85" cy="-570.12" rx="3.2" ry="3.2"/>
</g>
<!-- doc_archive_coverage -->
<g id="node4" class="node">
<title>doc_archive_coverage</title>
<g id="a_node4"><a xlink:href="../../tables/doc_archive_coverage.html" xlink:title="doc_archive_coverage" target="_top">
<polygon fill="#ffffff" stroke="none" points="272.5,-458.5 272.5,-521 466.25,-521 466.25,-458.5 272.5,-458.5"/>
<polygon fill="#f5f5f5" stroke="none" points="272.5,-497.5 272.5,-521 466.25,-521 466.25,-497.5 272.5,-497.5"/>
<polygon fill="none" stroke="black" points="272.5,-497.5 272.5,-521 466.25,-521 466.25,-497.5 272.5,-497.5"/>
<text text-anchor="start" x="277.5" y="-506.55" font-family="Helvetica,sans-Serif" font-weight="bold" font-size="11.00">doc_archive_coverage</text>
<text text-anchor="start" x="424.5" y="-505.55" font-family="Helvetica,sans-Serif" font-size="11.00">[table]</text>
<polygon fill="none" stroke="black" points="272.5,-478 272.5,-497.5 466.25,-497.5 466.25,-478 272.5,-478"/>
<text text-anchor="start" x="275.5" y="-484.05" font-family="Helvetica,sans-Serif" font-size="11.00">...</text>
<polygon fill="#ffffff" stroke="none" points="272.5,-458.5 272.5,-478 345.08,-478 345.08,-458.5 272.5,-458.5"/>
<polygon fill="none" stroke="black" points="272.5,-458.5 272.5,-478 345.08,-478 345.08,-458.5 272.5,-458.5"/>
<text text-anchor="start" x="275.5" y="-464.55" font-family="Helvetica,sans-Serif" font-size="11.00">&lt; 1</text>
<polygon fill="#ffffff" stroke="none" points="345.08,-458.5 345.08,-478 405.67,-478 405.67,-458.5 345.08,-458.5"/>
<polygon fill="none" stroke="black" points="345.08,-458.5 345.08,-478 405.67,-478 405.67,-458.5 345.08,-458.5"/>
<text text-anchor="start" x="395.17" y="-464.55" font-family="Helvetica,sans-Serif" font-size="11.00"> &#160;</text>
<polygon fill="#ffffff" stroke="none" points="405.67,-458.5 405.67,-478 466.25,-478 466.25,-458.5 405.67,-458.5"/>
<polygon fill="none" stroke="black" points="405.67,-458.5 405.67,-478 466.25,-478 466.25,-458.5 405.67,-458.5"/>
<text text-anchor="start" x="455.75" y="-464.55" font-family="Helvetica,sans-Serif" font-size="11.00"> &#160;</text>
</a>
</g>
</g>
<!-- doc_archive_coverage&#45;&gt;doc_archive_item -->
<g id="edge3" class="edge">
<title>doc_archive_coverage:w&#45;&gt;doc_archive_item:e</title>
<path fill="none" stroke="black" d="M255.9,-486.14C236.44,-481.54 228.67,-467.44 211.75,-447.75 184.48,-416.01 213.6,-362.5 171.75,-362.5"/>
<polygon fill="black" stroke="black" points="263.21,-486.89 270.8,-491.3 267.52,-487.34 270.83,-487.68 270.83,-487.68 270.83,-487.68 267.52,-487.34 271.54,-484.13 263.21,-486.89"/>
<ellipse fill="none" stroke="black" cx="258.32" cy="-486.39" rx="3.2" ry="3.2"/>
</g>
<!-- doc_archive_creator -->
<g id="node5" class="node">
<title>doc_archive_creator</title>
<g id="a_node5"><a xlink:href="../../tables/doc_archive_creator.html" xlink:title="doc_archive_creator" target="_top">
<polygon fill="#ffffff" stroke="none" points="279,-374.5 279,-437 459.75,-437 459.75,-374.5 279,-374.5"/>
<polygon fill="#f5f5f5" stroke="none" points="279,-413.5 279,-437 459.75,-437 459.75,-413.5 279,-413.5"/>
<polygon fill="none" stroke="black" points="279,-413.5 279,-437 459.75,-437 459.75,-413.5 279,-413.5"/>
<text text-anchor="start" x="284" y="-422.55" font-family="Helvetica,sans-Serif" font-weight="bold" font-size="11.00">doc_archive_creator</text>
<text text-anchor="start" x="418" y="-421.55" font-family="Helvetica,sans-Serif" font-size="11.00">[table]</text>
<polygon fill="none" stroke="black" points="279,-394 279,-413.5 459.75,-413.5 459.75,-394 279,-394"/>
<text text-anchor="start" x="282" y="-400.05" font-family="Helvetica,sans-Serif" font-size="11.00">...</text>
<polygon fill="#ffffff" stroke="none" points="279,-374.5 279,-394 347.25,-394 347.25,-374.5 279,-374.5"/>
<polygon fill="none" stroke="black" points="279,-374.5 279,-394 347.25,-394 347.25,-374.5 279,-374.5"/>
<text text-anchor="start" x="282" y="-380.55" font-family="Helvetica,sans-Serif" font-size="11.00">&lt; 1</text>
<polygon fill="#ffffff" stroke="none" points="347.25,-374.5 347.25,-394 403.5,-394 403.5,-374.5 347.25,-374.5"/>
<polygon fill="none" stroke="black" points="347.25,-374.5 347.25,-394 403.5,-394 403.5,-374.5 347.25,-374.5"/>
<text text-anchor="start" x="393" y="-380.55" font-family="Helvetica,sans-Serif" font-size="11.00"> &#160;</text>
<polygon fill="#ffffff" stroke="none" points="403.5,-374.5 403.5,-394 459.75,-394 459.75,-374.5 403.5,-374.5"/>
<polygon fill="none" stroke="black" points="403.5,-374.5 403.5,-394 459.75,-394 459.75,-374.5 403.5,-374.5"/>
<text text-anchor="start" x="449.25" y="-380.55" font-family="Helvetica,sans-Serif" font-size="11.00"> &#160;</text>
</a>
</g>
</g>
<!-- doc_archive_creator&#45;&gt;doc_archive_item -->
<g id="edge4" class="edge">
<title>doc_archive_creator:w&#45;&gt;doc_archive_item:e</title>
<path fill="none" stroke="black" d="M262.41,-402.28C225.64,-394.93 216.67,-362.5 171.75,-362.5"/>
<polygon fill="black" stroke="black" points="269.7,-402.97 277.33,-407.3 274.02,-403.37 277.33,-403.69 277.33,-403.69 277.33,-403.69 274.02,-403.37 278,-400.13 269.7,-402.97"/>
<ellipse fill="none" stroke="black" cx="264.81" cy="-402.51" rx="3.2" ry="3.2"/>
</g>
<!-- doc_archive_header -->
<g id="node6" class="node">
<title>doc_archive_header</title>
<g id="a_node6"><a xlink:href="../../tables/doc_archive_header.html" xlink:title="doc_archive_header" target="_top">
<polygon fill="#ffffff" stroke="none" points="279.5,-290.5 279.5,-353 459.25,-353 459.25,-290.5 279.5,-290.5"/>
<polygon fill="#f5f5f5" stroke="none" points="279.5,-329.5 279.5,-353 459.25,-353 459.25,-329.5 279.5,-329.5"/>
<polygon fill="none" stroke="black" points="279.5,-329.5 279.5,-353 459.25,-353 459.25,-329.5 279.5,-329.5"/>
<text text-anchor="start" x="284.5" y="-338.55" font-family="Helvetica,sans-Serif" font-weight="bold" font-size="11.00">doc_archive_header</text>
<text text-anchor="start" x="417.5" y="-337.55" font-family="Helvetica,sans-Serif" font-size="11.00">[table]</text>
<polygon fill="none" stroke="black" points="279.5,-310 279.5,-329.5 459.25,-329.5 459.25,-310 279.5,-310"/>
<text text-anchor="start" x="282.5" y="-316.05" font-family="Helvetica,sans-Serif" font-size="11.00">...</text>
<polygon fill="#ffffff" stroke="none" points="279.5,-290.5 279.5,-310 347.42,-310 347.42,-290.5 279.5,-290.5"/>
<polygon fill="none" stroke="black" points="279.5,-290.5 279.5,-310 347.42,-310 347.42,-290.5 279.5,-290.5"/>
<text text-anchor="start" x="282.5" y="-296.55" font-family="Helvetica,sans-Serif" font-size="11.00">&lt; 1</text>
<polygon fill="#ffffff" stroke="none" points="347.42,-290.5 347.42,-310 403.33,-310 403.33,-290.5 347.42,-290.5"/>
<polygon fill="none" stroke="black" points="347.42,-290.5 347.42,-310 403.33,-310 403.33,-290.5 347.42,-290.5"/>
<text text-anchor="start" x="392.83" y="-296.55" font-family="Helvetica,sans-Serif" font-size="11.00"> &#160;</text>
<polygon fill="#ffffff" stroke="none" points="403.33,-290.5 403.33,-310 459.25,-310 459.25,-290.5 403.33,-290.5"/>
<polygon fill="none" stroke="black" points="403.33,-290.5 403.33,-310 459.25,-310 459.25,-290.5 403.33,-290.5"/>
<text text-anchor="start" x="448.75" y="-296.55" font-family="Helvetica,sans-Serif" font-size="11.00"> &#160;</text>
</a>
</g>
</g>
<!-- doc_archive_header&#45;&gt;doc_archive_item -->
<g id="edge5" class="edge">
<title>doc_archive_header:w&#45;&gt;doc_archive_item:e</title>
<path fill="none" stroke="black" d="M262.79,-321.27C225.77,-328.89 217.07,-362.5 171.75,-362.5"/>
<polygon fill="black" stroke="black" points="270.2,-320.55 278.51,-323.37 274.52,-320.14 277.83,-319.81 277.83,-319.81 277.83,-319.81 274.52,-320.14 277.82,-316.2 270.2,-320.55"/>
<ellipse fill="none" stroke="black" cx="265.31" cy="-321.03" rx="3.2" ry="3.2"/>
</g>
<!-- doc_archive_language -->
<g id="node7" class="node">
<title>doc_archive_language</title>
<g id="a_node7"><a xlink:href="../../tables/doc_archive_language.html" xlink:title="doc_archive_language" target="_top">
<polygon fill="#ffffff" stroke="none" points="272,-206.5 272,-269 466.75,-269 466.75,-206.5 272,-206.5"/>
<polygon fill="#f5f5f5" stroke="none" points="272,-245.5 272,-269 466.75,-269 466.75,-245.5 272,-245.5"/>
<polygon fill="none" stroke="black" points="272,-245.5 272,-269 466.75,-269 466.75,-245.5 272,-245.5"/>
<text text-anchor="start" x="277" y="-254.55" font-family="Helvetica,sans-Serif" font-weight="bold" font-size="11.00">doc_archive_language</text>
<text text-anchor="start" x="425" y="-253.55" font-family="Helvetica,sans-Serif" font-size="11.00">[table]</text>
<polygon fill="none" stroke="black" points="272,-226 272,-245.5 466.75,-245.5 466.75,-226 272,-226"/>
<text text-anchor="start" x="275" y="-232.05" font-family="Helvetica,sans-Serif" font-size="11.00">...</text>
<polygon fill="#ffffff" stroke="none" points="272,-206.5 272,-226 344.92,-226 344.92,-206.5 272,-206.5"/>
<polygon fill="none" stroke="black" points="272,-206.5 272,-226 344.92,-226 344.92,-206.5 272,-206.5"/>
<text text-anchor="start" x="275" y="-212.55" font-family="Helvetica,sans-Serif" font-size="11.00">&lt; 1</text>
<polygon fill="#ffffff" stroke="none" points="344.92,-206.5 344.92,-226 405.83,-226 405.83,-206.5 344.92,-206.5"/>
<polygon fill="none" stroke="black" points="344.92,-206.5 344.92,-226 405.83,-226 405.83,-206.5 344.92,-206.5"/>
<text text-anchor="start" x="395.33" y="-212.55" font-family="Helvetica,sans-Serif" font-size="11.00"> &#160;</text>
<polygon fill="#ffffff" stroke="none" points="405.83,-206.5 405.83,-226 466.75,-226 466.75,-206.5 405.83,-206.5"/>
<polygon fill="none" stroke="black" points="405.83,-206.5 405.83,-226 466.75,-226 466.75,-206.5 405.83,-206.5"/>
<text text-anchor="start" x="456.25" y="-212.55" font-family="Helvetica,sans-Serif" font-size="11.00"> &#160;</text>
</a>
</g>
</g>
<!-- doc_archive_language&#45;&gt;doc_archive_item -->
<g id="edge6" class="edge">
<title>doc_archive_language:w&#45;&gt;doc_archive_item:e</title>
<path fill="none" stroke="black" d="M255.43,-237.57C235.65,-242.85 228.82,-259.12 211.75,-279.75 185.71,-311.22 212.6,-362.5 171.75,-362.5"/>
<polygon fill="black" stroke="black" points="262.72,-236.72 271.09,-239.36 267.03,-236.21 270.34,-235.83 270.34,-235.83 270.34,-235.83 267.03,-236.21 270.25,-232.21 262.72,-236.72"/>
<ellipse fill="none" stroke="black" cx="257.84" cy="-237.29" rx="3.2" ry="3.2"/>
</g>
<!-- doc_archive_subject -->
<g id="node8" class="node">
<title>doc_archive_subject</title>
<g id="a_node8"><a xlink:href="../../tables/doc_archive_subject.html" xlink:title="doc_archive_subject" target="_top">
<polygon fill="#ffffff" stroke="none" points="278.5,-122.5 278.5,-185 460.25,-185 460.25,-122.5 278.5,-122.5"/>
<polygon fill="#f5f5f5" stroke="none" points="278.5,-161.5 278.5,-185 460.25,-185 460.25,-161.5 278.5,-161.5"/>
<polygon fill="none" stroke="black" points="278.5,-161.5 278.5,-185 460.25,-185 460.25,-161.5 278.5,-161.5"/>
<text text-anchor="start" x="283.5" y="-170.55" font-family="Helvetica,sans-Serif" font-weight="bold" font-size="11.00">doc_archive_subject</text>
<text text-anchor="start" x="418.5" y="-169.55" font-family="Helvetica,sans-Serif" font-size="11.00">[table]</text>
<polygon fill="none" stroke="black" points="278.5,-142 278.5,-161.5 460.25,-161.5 460.25,-142 278.5,-142"/>
<text text-anchor="start" x="281.5" y="-148.05" font-family="Helvetica,sans-Serif" font-size="11.00">...</text>
<polygon fill="#ffffff" stroke="none" points="278.5,-122.5 278.5,-142 347.08,-142 347.08,-122.5 278.5,-122.5"/>
<polygon fill="none" stroke="black" points="278.5,-122.5 278.5,-142 347.08,-142 347.08,-122.5 278.5,-122.5"/>
<text text-anchor="start" x="281.5" y="-128.55" font-family="Helvetica,sans-Serif" font-size="11.00">&lt; 1</text>
<polygon fill="#ffffff" stroke="none" points="347.08,-122.5 347.08,-142 403.67,-142 403.67,-122.5 347.08,-122.5"/>
<polygon fill="none" stroke="black" points="347.08,-122.5 347.08,-142 403.67,-142 403.67,-122.5 347.08,-122.5"/>
<text text-anchor="start" x="393.17" y="-128.55" font-family="Helvetica,sans-Serif" font-size="11.00"> &#160;</text>
<polygon fill="#ffffff" stroke="none" points="403.67,-122.5 403.67,-142 460.25,-142 460.25,-122.5 403.67,-122.5"/>
<polygon fill="none" stroke="black" points="403.67,-122.5 403.67,-142 460.25,-142 460.25,-122.5 403.67,-122.5"/>
<text text-anchor="start" x="449.75" y="-128.55" font-family="Helvetica,sans-Serif" font-size="11.00"> &#160;</text>
</a>
</g>
</g>
<!-- doc_archive_subject&#45;&gt;doc_archive_item -->
<g id="edge7" class="edge">
<title>doc_archive_subject:w&#45;&gt;doc_archive_item:e</title>
<path fill="none" stroke="black" d="M262.03,-152.97C238.64,-157.09 228.55,-171.63 211.75,-195.75 168.2,-258.3 247.96,-362.5 171.75,-362.5"/>
<polygon fill="black" stroke="black" points="269.19,-152.4 277.45,-155.37 273.51,-152.06 276.83,-151.8 276.83,-151.8 276.83,-151.8 273.51,-152.06 276.88,-148.19 269.19,-152.4"/>
<ellipse fill="none" stroke="black" cx="264.29" cy="-152.79" rx="3.2" ry="3.2"/>
</g>
<!-- doc_unit -->
<g id="node9" class="node">
<title>doc_unit</title>
<g id="a_node9"><a xlink:href="../../tables/doc_unit.html" xlink:title="doc_unit" target="_top">
<polygon fill="#ffffff" stroke="none" points="318,-38.5 318,-101 420.75,-101 420.75,-38.5 318,-38.5"/>
<polygon fill="#f5f5f5" stroke="none" points="318,-77.5 318,-101 420.75,-101 420.75,-77.5 318,-77.5"/>
<polygon fill="none" stroke="black" points="318,-77.5 318,-101 420.75,-101 420.75,-77.5 318,-77.5"/>
<text text-anchor="start" x="323" y="-86.55" font-family="Helvetica,sans-Serif" font-weight="bold" font-size="11.00">doc_unit</text>
<text text-anchor="start" x="379" y="-85.55" font-family="Helvetica,sans-Serif" font-size="11.00">[table]</text>
<polygon fill="none" stroke="black" points="318,-58 318,-77.5 420.75,-77.5 420.75,-58 318,-58"/>
<text text-anchor="start" x="321" y="-64.05" font-family="Helvetica,sans-Serif" font-size="11.00">...</text>
<polygon fill="#ffffff" stroke="none" points="318,-38.5 318,-58 358.5,-58 358.5,-38.5 318,-38.5"/>
<polygon fill="none" stroke="black" points="318,-38.5 318,-58 358.5,-58 358.5,-38.5 318,-38.5"/>
<text text-anchor="start" x="321" y="-44.55" font-family="Helvetica,sans-Serif" font-size="11.00">&lt; 13</text>
<polygon fill="#ffffff" stroke="none" points="358.5,-38.5 358.5,-58 380.25,-58 380.25,-38.5 358.5,-38.5"/>
<polygon fill="none" stroke="black" points="358.5,-38.5 358.5,-58 380.25,-58 380.25,-38.5 358.5,-38.5"/>
<text text-anchor="start" x="369.75" y="-44.55" font-family="Helvetica,sans-Serif" font-size="11.00"> &#160;</text>
<polygon fill="#ffffff" stroke="none" points="380.25,-38.5 380.25,-58 420.75,-58 420.75,-38.5 380.25,-38.5"/>
<polygon fill="none" stroke="black" points="380.25,-38.5 380.25,-58 420.75,-58 420.75,-38.5 380.25,-38.5"/>
<text text-anchor="start" x="391.5" y="-44.55" font-family="Helvetica,sans-Serif" font-size="11.00">11 &gt;</text>
</a>
</g>
</g>
<!-- doc_unit&#45;&gt;doc_archive_item -->
<g id="edge8" class="edge">
<title>doc_unit:w&#45;&gt;doc_archive_item:e</title>
<path fill="none" stroke="black" d="M301.3,-67.94C261.13,-69.08 239.67,-76.26 211.75,-111.75 176.86,-156.1 228.18,-362.5 171.75,-362.5"/>
<polygon fill="black" stroke="black" points="308.67,-67.85 316.71,-71.35 313,-67.8 316.33,-67.76 316.33,-67.76 316.33,-67.76 313,-67.8 316.62,-64.15 308.67,-67.85"/>
<ellipse fill="none" stroke="black" cx="303.75" cy="-67.91" rx="3.2" ry="3.2"/>
</g>
</g>
</svg>
