<?xml version="1.0" encoding="UTF-8" standalone="no"?>
<!DOCTYPE svg PUBLIC "-//W3C//DTD SVG 1.1//EN"
 "http://www.w3.org/Graphics/SVG/1.1/DTD/svg11.dtd">
<!-- Generated by graphviz version 12.2.0 (0)
 -->
<!-- Title: oneDegreeRelationshipsDiagram Pages: 1 -->
<svg width="955pt" height="421pt"
 viewBox="0.00 0.00 955.25 421.25" xmlns="http://www.w3.org/2000/svg" xmlns:xlink="http://www.w3.org/1999/xlink">
<g id="graph0" class="graph" transform="scale(1 1) rotate(0) translate(4 417.25)">
<title>oneDegreeRelationshipsDiagram</title>
<polygon fill="#ffffff" stroke="none" points="-4,4 -4,-417.25 951.25,-417.25 951.25,4 -4,4"/>
<text text-anchor="middle" x="79.25" y="-7.05" font-family="Helvetica,sans-Serif" font-size="11.00">Generated by SchemaSpy</text>
<!-- doc_condreport_desc -->
<g id="node1" class="node">
<title>doc_condreport_desc</title>
<g id="a_node1"><a xlink:href="../../tables/doc_condreport_desc.html" xlink:title="doc_condreport_desc" target="_top">
<polygon fill="#ffffff" stroke="none" points="751.5,-258.75 751.5,-409.25 939.25,-409.25 939.25,-258.75 751.5,-258.75"/>
<polygon fill="#f5f5f5" stroke="none" points="751.5,-385.75 751.5,-409.25 939.25,-409.25 939.25,-385.75 751.5,-385.75"/>
<polygon fill="none" stroke="black" points="751.5,-385.75 751.5,-409.25 939.25,-409.25 939.25,-385.75 751.5,-385.75"/>
<text text-anchor="start" x="756.5" y="-394.8" font-family="Helvetica,sans-Serif" font-weight="bold" font-size="11.00">doc_condreport_desc</text>
<text text-anchor="start" x="897.5" y="-393.8" font-family="Helvetica,sans-Serif" font-size="11.00">[table]</text>
<polygon fill="none" stroke="black" points="751.5,-363.75 751.5,-385.75 939.25,-385.75 939.25,-363.75 751.5,-363.75"/>
<image xlink:href="../../images/primaryKeys.png" width="11px" height="12px" preserveAspectRatio="xMinYMin meet" x="756.5" y="-380.75"/>
<text text-anchor="start" x="784.38" y="-370.3" font-family="Helvetica,sans-Serif" font-size="11.00">identifier</text>
<polygon fill="#ffffff" stroke="none" points="751.5,-341.75 751.5,-363.75 939.25,-363.75 939.25,-341.75 751.5,-341.75"/>
<polygon fill="none" stroke="black" points="751.5,-341.75 751.5,-363.75 939.25,-363.75 939.25,-341.75 751.5,-341.75"/>
<image xlink:href="../../images/foreignKeys.png" width="11px" height="12px" preserveAspectRatio="xMinYMin meet" x="756.5" y="-358.75"/>
<text text-anchor="start" x="784.38" y="-348.3" font-family="Helvetica,sans-Serif" font-size="11.00">property</text>
<polygon fill="#ffffff" stroke="none" points="751.5,-319.75 751.5,-341.75 939.25,-341.75 939.25,-319.75 751.5,-319.75"/>
<polygon fill="none" stroke="black" points="751.5,-319.75 751.5,-341.75 939.25,-341.75 939.25,-319.75 751.5,-319.75"/>
<image xlink:href="../../images/foreignKeys.png" width="11px" height="12px" preserveAspectRatio="xMinYMin meet" x="756.5" y="-336.75"/>
<text text-anchor="start" x="784.38" y="-326.3" font-family="Helvetica,sans-Serif" font-size="11.00">value</text>
<polygon fill="#ffffff" stroke="none" points="751.5,-297.75 751.5,-319.75 939.25,-319.75 939.25,-297.75 751.5,-297.75"/>
<polygon fill="none" stroke="black" points="751.5,-297.75 751.5,-319.75 939.25,-319.75 939.25,-297.75 751.5,-297.75"/>
<image xlink:href="../../images/foreignKeys.png" width="11px" height="12px" preserveAspectRatio="xMinYMin meet" x="756.5" y="-314.75"/>
<text text-anchor="start" x="784.38" y="-304.3" font-family="Helvetica,sans-Serif" font-size="11.00">detail</text>
<polygon fill="none" stroke="black" points="751.5,-278.25 751.5,-297.75 939.25,-297.75 939.25,-278.25 751.5,-278.25"/>
<text text-anchor="start" x="754.5" y="-284.3" font-family="Helvetica,sans-Serif" font-size="11.00">...</text>
<polygon fill="#ffffff" stroke="none" points="751.5,-258.75 751.5,-278.25 822.08,-278.25 822.08,-258.75 751.5,-258.75"/>
<polygon fill="none" stroke="black" points="751.5,-258.75 751.5,-278.25 822.08,-278.25 822.08,-258.75 751.5,-258.75"/>
<text text-anchor="start" x="754.5" y="-264.8" font-family="Helvetica,sans-Serif" font-size="11.00">&lt; 3</text>
<polygon fill="#ffffff" stroke="none" points="822.08,-258.75 822.08,-278.25 880.67,-278.25 880.67,-258.75 822.08,-258.75"/>
<polygon fill="none" stroke="black" points="822.08,-258.75 822.08,-278.25 880.67,-278.25 880.67,-258.75 822.08,-258.75"/>
<text text-anchor="start" x="870.17" y="-264.8" font-family="Helvetica,sans-Serif" font-size="11.00"> &#160;</text>
<polygon fill="#ffffff" stroke="none" points="880.67,-258.75 880.67,-278.25 939.25,-278.25 939.25,-258.75 880.67,-258.75"/>
<polygon fill="none" stroke="black" points="880.67,-258.75 880.67,-278.25 939.25,-278.25 939.25,-258.75 880.67,-258.75"/>
<text text-anchor="start" x="928.75" y="-264.8" font-family="Helvetica,sans-Serif" font-size="11.00"> &#160;</text>
</a>
</g>
</g>
<!-- doc_condreport_desc_property -->
<g id="node2" class="node">
<title>doc_condreport_desc_property</title>
<g id="a_node2"><a xlink:href="../../tables/doc_condreport_desc_property.html" xlink:title="doc_condreport_desc_property" target="_top">
<polygon fill="#ffffff" stroke="none" points="8,-38.5 8,-327.5 389.75,-327.5 389.75,-38.5 8,-38.5"/>
<polygon fill="#f5f5f5" stroke="none" points="10,-302 10,-325.5 387.75,-325.5 387.75,-302 10,-302"/>
<polygon fill="none" stroke="black" points="10,-302 10,-325.5 387.75,-325.5 387.75,-302 10,-302"/>
<text text-anchor="start" x="15" y="-311.05" font-family="Helvetica,sans-Serif" font-weight="bold" font-size="11.00">doc_condreport_desc_property</text>
<text text-anchor="start" x="346" y="-310.05" font-family="Helvetica,sans-Serif" font-size="11.00">[table]</text>
<polygon fill="none" stroke="black" points="10,-280 10,-302 237,-302 237,-280 10,-280"/>
<image xlink:href="../../images/primaryKeys.png" width="11px" height="12px" preserveAspectRatio="xMinYMin meet" x="15" y="-297"/>
<text text-anchor="start" x="30" y="-286.55" font-family="Helvetica,sans-Serif" font-size="11.00">identifier</text>
<polygon fill="none" stroke="black" points="237,-280 237,-302 356.25,-302 356.25,-280 237,-280"/>
<text text-anchor="start" x="240" y="-287.3" font-family="Helvetica,sans-Serif" font-size="11.00">varchar[191]</text>
<polygon fill="none" stroke="black" points="10,-258 10,-280 237,-280 237,-258 10,-258"/>
<text text-anchor="start" x="30" y="-264.55" font-family="Helvetica,sans-Serif" font-size="11.00">label</text>
<polygon fill="none" stroke="black" points="237,-258 237,-280 356.25,-280 356.25,-258 237,-258"/>
<text text-anchor="start" x="240" y="-265.3" font-family="Helvetica,sans-Serif" font-size="11.00">varchar[255]</text>
<polygon fill="none" stroke="black" points="10,-236 10,-258 237,-258 237,-236 10,-236"/>
<text text-anchor="start" x="30" y="-242.55" font-family="Helvetica,sans-Serif" font-size="11.00">allow_comment</text>
<polygon fill="none" stroke="black" points="237,-236 237,-258 356.25,-258 356.25,-236 237,-236"/>
<text text-anchor="start" x="240" y="-243.3" font-family="Helvetica,sans-Serif" font-size="11.00">bit[1]</text>
<polygon fill="none" stroke="black" points="10,-214 10,-236 237,-236 237,-214 10,-214"/>
<text text-anchor="start" x="30" y="-220.55" font-family="Helvetica,sans-Serif" font-size="11.00">version</text>
<polygon fill="none" stroke="black" points="237,-214 237,-236 356.25,-236 356.25,-214 237,-214"/>
<text text-anchor="start" x="240" y="-221.3" font-family="Helvetica,sans-Serif" font-size="11.00">bigint[19]</text>
<polygon fill="none" stroke="black" points="10,-192 10,-214 237,-214 237,-192 10,-192"/>
<text text-anchor="start" x="30" y="-198.55" font-family="Helvetica,sans-Serif" font-size="11.00">created_by</text>
<polygon fill="none" stroke="black" points="237,-192 237,-214 356.25,-214 356.25,-192 237,-192"/>
<text text-anchor="start" x="240" y="-199.3" font-family="Helvetica,sans-Serif" font-size="11.00">varchar[191]</text>
<polygon fill="none" stroke="black" points="10,-170 10,-192 237,-192 237,-170 10,-170"/>
<text text-anchor="start" x="30" y="-176.55" font-family="Helvetica,sans-Serif" font-size="11.00">last_modified_by</text>
<polygon fill="none" stroke="black" points="237,-170 237,-192 356.25,-192 356.25,-170 237,-170"/>
<text text-anchor="start" x="240" y="-177.3" font-family="Helvetica,sans-Serif" font-size="11.00">varchar[191]</text>
<polygon fill="none" stroke="black" points="10,-148 10,-170 237,-170 237,-148 10,-148"/>
<text text-anchor="start" x="30" y="-154.55" font-family="Helvetica,sans-Serif" font-size="11.00">created_date</text>
<polygon fill="none" stroke="black" points="237,-148 237,-170 356.25,-170 356.25,-148 237,-148"/>
<text text-anchor="start" x="240" y="-155.3" font-family="Helvetica,sans-Serif" font-size="11.00">timestamp[19]</text>
<polygon fill="none" stroke="black" points="10,-126 10,-148 237,-148 237,-126 10,-126"/>
<text text-anchor="start" x="30" y="-132.55" font-family="Helvetica,sans-Serif" font-size="11.00">last_modified_date</text>
<polygon fill="none" stroke="black" points="237,-126 237,-148 356.25,-148 356.25,-126 237,-126"/>
<text text-anchor="start" x="240" y="-133.3" font-family="Helvetica,sans-Serif" font-size="11.00">timestamp[19]</text>
<polygon fill="none" stroke="black" points="10,-104 10,-126 237,-126 237,-104 10,-104"/>
<text text-anchor="start" x="30" y="-110.55" font-family="Helvetica,sans-Serif" font-size="11.00">type</text>
<polygon fill="none" stroke="black" points="237,-104 237,-126 356.25,-126 356.25,-104 237,-104"/>
<text text-anchor="start" x="240" y="-111.3" font-family="Helvetica,sans-Serif" font-size="11.00">varchar[255]</text>
<polygon fill="none" stroke="black" points="10,-82 10,-104 237,-104 237,-82 10,-82"/>
<text text-anchor="start" x="30" y="-88.55" font-family="Helvetica,sans-Serif" font-size="11.00">code</text>
<polygon fill="none" stroke="black" points="237,-82 237,-104 356.25,-104 356.25,-82 237,-82"/>
<text text-anchor="start" x="240" y="-89.3" font-family="Helvetica,sans-Serif" font-size="11.00">varchar[255]</text>
<polygon fill="none" stroke="black" points="10,-60 10,-82 237,-82 237,-60 10,-60"/>
<text text-anchor="start" x="30" y="-66.55" font-family="Helvetica,sans-Serif" font-size="11.00">sort_order</text>
<polygon fill="none" stroke="black" points="237,-60 237,-82 356.25,-82 356.25,-60 237,-60"/>
<text text-anchor="start" x="240" y="-67.3" font-family="Helvetica,sans-Serif" font-size="11.00">int[10]</text>
<polygon fill="#ffffff" stroke="none" points="10,-40.5 10,-60 129.5,-60 129.5,-40.5 10,-40.5"/>
<polygon fill="none" stroke="black" points="10,-40.5 10,-60 129.5,-60 129.5,-40.5 10,-40.5"/>
<text text-anchor="start" x="13" y="-46.55" font-family="Helvetica,sans-Serif" font-size="11.00">&lt; 0</text>
<polygon fill="#ffffff" stroke="none" points="129.5,-40.5 129.5,-60 237,-60 237,-40.5 129.5,-40.5"/>
<polygon fill="none" stroke="black" points="129.5,-40.5 129.5,-60 237,-60 237,-40.5 129.5,-40.5"/>
<text text-anchor="start" x="226.5" y="-46.55" font-family="Helvetica,sans-Serif" font-size="11.00"> &#160;</text>
<polygon fill="#ffffff" stroke="none" points="237,-40.5 237,-60 356.25,-60 356.25,-40.5 237,-40.5"/>
<polygon fill="none" stroke="black" points="237,-40.5 237,-60 356.25,-60 356.25,-40.5 237,-40.5"/>
<text text-anchor="start" x="333.75" y="-46.55" font-family="Helvetica,sans-Serif" font-size="11.00">3 &gt;</text>
<polygon fill="none" stroke="black" stroke-width="2" points="9,-39.5 9,-326.5 388.75,-326.5 388.75,-39.5 9,-39.5"/>
</a>
</g>
</g>
<!-- doc_condreport_desc&#45;&gt;doc_condreport_desc_property -->
<g id="edge1" class="edge">
<title>doc_condreport_desc:w&#45;&gt;doc_condreport_desc_property:e</title>
<path fill="none" stroke="black" d="M734.95,-354.05C727.65,-355.35 721.82,-357.26 710.5,-358 586.43,-366.11 546.69,-402.91 430.75,-358 389.53,-342.03 401.45,-291 357.25,-291"/>
<polygon fill="black" stroke="black" points="742.19,-353.45 750.47,-356.37 746.51,-353.08 749.83,-352.81 749.83,-352.81 749.83,-352.81 746.51,-353.08 749.87,-349.19 742.19,-353.45"/>
<ellipse fill="none" stroke="black" cx="737.29" cy="-353.86" rx="3.2" ry="3.2"/>
</g>
<!-- doc_condreport_desc_value -->
<g id="node3" class="node">
<title>doc_condreport_desc_value</title>
<g id="a_node3"><a xlink:href="../../tables/doc_condreport_desc_value.html" xlink:title="doc_condreport_desc_value" target="_top">
<polygon fill="#ffffff" stroke="none" points="455.25,-240.75 455.25,-347.25 686,-347.25 686,-240.75 455.25,-240.75"/>
<polygon fill="#f5f5f5" stroke="none" points="455.25,-323.75 455.25,-347.25 686,-347.25 686,-323.75 455.25,-323.75"/>
<polygon fill="none" stroke="black" points="455.25,-323.75 455.25,-347.25 686,-347.25 686,-323.75 455.25,-323.75"/>
<text text-anchor="start" x="460.25" y="-332.8" font-family="Helvetica,sans-Serif" font-weight="bold" font-size="11.00">doc_condreport_desc_value</text>
<text text-anchor="start" x="644.25" y="-331.8" font-family="Helvetica,sans-Serif" font-size="11.00">[table]</text>
<polygon fill="none" stroke="black" points="455.25,-301.75 455.25,-323.75 686,-323.75 686,-301.75 455.25,-301.75"/>
<image xlink:href="../../images/primaryKeys.png" width="11px" height="12px" preserveAspectRatio="xMinYMin meet" x="460.25" y="-318.75"/>
<text text-anchor="start" x="488.12" y="-308.3" font-family="Helvetica,sans-Serif" font-size="11.00">identifier</text>
<polygon fill="#ffffff" stroke="none" points="455.25,-279.75 455.25,-301.75 686,-301.75 686,-279.75 455.25,-279.75"/>
<polygon fill="none" stroke="black" points="455.25,-279.75 455.25,-301.75 686,-301.75 686,-279.75 455.25,-279.75"/>
<image xlink:href="../../images/foreignKeys.png" width="11px" height="12px" preserveAspectRatio="xMinYMin meet" x="460.25" y="-296.75"/>
<text text-anchor="start" x="488.12" y="-286.3" font-family="Helvetica,sans-Serif" font-size="11.00">property</text>
<polygon fill="none" stroke="black" points="455.25,-260.25 455.25,-279.75 686,-279.75 686,-260.25 455.25,-260.25"/>
<text text-anchor="start" x="458.25" y="-266.3" font-family="Helvetica,sans-Serif" font-size="11.00">...</text>
<polygon fill="#ffffff" stroke="none" points="455.25,-240.75 455.25,-260.25 536.17,-260.25 536.17,-240.75 455.25,-240.75"/>
<polygon fill="none" stroke="black" points="455.25,-240.75 455.25,-260.25 536.17,-260.25 536.17,-240.75 455.25,-240.75"/>
<text text-anchor="start" x="458.25" y="-246.8" font-family="Helvetica,sans-Serif" font-size="11.00">&lt; 1</text>
<polygon fill="#ffffff" stroke="none" points="536.17,-240.75 536.17,-260.25 605.08,-260.25 605.08,-240.75 536.17,-240.75"/>
<polygon fill="none" stroke="black" points="536.17,-240.75 536.17,-260.25 605.08,-260.25 605.08,-240.75 536.17,-240.75"/>
<text text-anchor="start" x="594.58" y="-246.8" font-family="Helvetica,sans-Serif" font-size="11.00"> &#160;</text>
<polygon fill="#ffffff" stroke="none" points="605.08,-240.75 605.08,-260.25 686,-260.25 686,-240.75 605.08,-240.75"/>
<polygon fill="none" stroke="black" points="605.08,-240.75 605.08,-260.25 686,-260.25 686,-240.75 605.08,-240.75"/>
<text text-anchor="start" x="663.5" y="-246.8" font-family="Helvetica,sans-Serif" font-size="11.00">1 &gt;</text>
</a>
</g>
</g>
<!-- doc_condreport_desc&#45;&gt;doc_condreport_desc_value -->
<g id="edge2" class="edge">
<title>doc_condreport_desc:w&#45;&gt;doc_condreport_desc_value:e</title>
<path fill="none" stroke="black" d="M735.25,-328.82C718.19,-324.18 710.38,-312.75 687,-312.75"/>
<polygon fill="black" stroke="black" points="742.23,-329.71 749.72,-334.28 746.53,-330.25 749.84,-330.67 749.84,-330.67 749.84,-330.67 746.53,-330.25 750.62,-327.14 742.23,-329.71"/>
<ellipse fill="none" stroke="black" cx="737.35" cy="-329.09" rx="3.2" ry="3.2"/>
</g>
<!-- doc_condreport_desc_value&#45;&gt;doc_condreport_desc_property -->
<g id="edge3" class="edge">
<title>doc_condreport_desc_value:w&#45;&gt;doc_condreport_desc_property:e</title>
<path fill="none" stroke="black" d="M438.63,-290.76C407.71,-290.81 394.64,-291 357.25,-291"/>
<polygon fill="black" stroke="black" points="445.92,-290.76 453.92,-294.35 450.25,-290.75 453.58,-290.75 453.58,-290.75 453.58,-290.75 450.25,-290.75 453.91,-287.15 445.92,-290.76"/>
<ellipse fill="none" stroke="black" cx="441" cy="-290.76" rx="3.2" ry="3.2"/>
</g>
<!-- doc_condreport_property_config -->
<g id="node4" class="node">
<title>doc_condreport_property_config</title>
<g id="a_node4"><a xlink:href="../../tables/doc_condreport_property_config.html" xlink:title="doc_condreport_property_config" target="_top">
<polygon fill="#ffffff" stroke="none" points="438.75,-90.75 438.75,-219.25 702.5,-219.25 702.5,-90.75 438.75,-90.75"/>
<polygon fill="#f5f5f5" stroke="none" points="438.75,-195.75 438.75,-219.25 702.5,-219.25 702.5,-195.75 438.75,-195.75"/>
<polygon fill="none" stroke="black" points="438.75,-195.75 438.75,-219.25 702.5,-219.25 702.5,-195.75 438.75,-195.75"/>
<text text-anchor="start" x="443.75" y="-204.8" font-family="Helvetica,sans-Serif" font-weight="bold" font-size="11.00">doc_condreport_property_config</text>
<text text-anchor="start" x="660.75" y="-203.8" font-family="Helvetica,sans-Serif" font-size="11.00">[table]</text>
<polygon fill="none" stroke="black" points="438.75,-173.75 438.75,-195.75 702.5,-195.75 702.5,-173.75 438.75,-173.75"/>
<image xlink:href="../../images/primaryKeys.png" width="11px" height="12px" preserveAspectRatio="xMinYMin meet" x="443.75" y="-190.75"/>
<text text-anchor="start" x="471.62" y="-180.3" font-family="Helvetica,sans-Serif" font-size="11.00">identifier</text>
<polygon fill="#ffffff" stroke="none" points="438.75,-151.75 438.75,-173.75 702.5,-173.75 702.5,-151.75 438.75,-151.75"/>
<polygon fill="none" stroke="black" points="438.75,-151.75 438.75,-173.75 702.5,-173.75 702.5,-151.75 438.75,-151.75"/>
<image xlink:href="../../images/foreignKeys.png" width="11px" height="12px" preserveAspectRatio="xMinYMin meet" x="443.75" y="-168.75"/>
<text text-anchor="start" x="471.62" y="-158.3" font-family="Helvetica,sans-Serif" font-size="11.00">library</text>
<polygon fill="#ffffff" stroke="none" points="438.75,-129.75 438.75,-151.75 702.5,-151.75 702.5,-129.75 438.75,-129.75"/>
<polygon fill="none" stroke="black" points="438.75,-129.75 438.75,-151.75 702.5,-151.75 702.5,-129.75 438.75,-129.75"/>
<image xlink:href="../../images/foreignKeys.png" width="11px" height="12px" preserveAspectRatio="xMinYMin meet" x="443.75" y="-146.75"/>
<text text-anchor="start" x="471.62" y="-136.3" font-family="Helvetica,sans-Serif" font-size="11.00">desc_property</text>
<polygon fill="none" stroke="black" points="438.75,-110.25 438.75,-129.75 702.5,-129.75 702.5,-110.25 438.75,-110.25"/>
<text text-anchor="start" x="441.75" y="-116.3" font-family="Helvetica,sans-Serif" font-size="11.00">...</text>
<polygon fill="#ffffff" stroke="none" points="438.75,-90.75 438.75,-110.25 530.67,-110.25 530.67,-90.75 438.75,-90.75"/>
<polygon fill="none" stroke="black" points="438.75,-90.75 438.75,-110.25 530.67,-110.25 530.67,-90.75 438.75,-90.75"/>
<text text-anchor="start" x="441.75" y="-96.8" font-family="Helvetica,sans-Serif" font-size="11.00">&lt; 2</text>
<polygon fill="#ffffff" stroke="none" points="530.67,-90.75 530.67,-110.25 610.58,-110.25 610.58,-90.75 530.67,-90.75"/>
<polygon fill="none" stroke="black" points="530.67,-90.75 530.67,-110.25 610.58,-110.25 610.58,-90.75 530.67,-90.75"/>
<text text-anchor="start" x="600.08" y="-96.8" font-family="Helvetica,sans-Serif" font-size="11.00"> &#160;</text>
<polygon fill="#ffffff" stroke="none" points="610.58,-90.75 610.58,-110.25 702.5,-110.25 702.5,-90.75 610.58,-90.75"/>
<polygon fill="none" stroke="black" points="610.58,-90.75 610.58,-110.25 702.5,-110.25 702.5,-90.75 610.58,-90.75"/>
<text text-anchor="start" x="680" y="-96.8" font-family="Helvetica,sans-Serif" font-size="11.00">1 &gt;</text>
</a>
</g>
</g>
<!-- doc_condreport_property_config&#45;&gt;doc_condreport_desc_property -->
<g id="edge4" class="edge">
<title>doc_condreport_property_config:w&#45;&gt;doc_condreport_desc_property:e</title>
<path fill="none" stroke="black" d="M422.22,-143.49C372.42,-163.85 426.94,-291 357.25,-291"/>
<polygon fill="black" stroke="black" points="429.54,-142.2 438.05,-144.35 433.81,-141.44 437.09,-140.87 437.09,-140.87 437.09,-140.87 433.81,-141.44 436.8,-137.26 429.54,-142.2"/>
<ellipse fill="none" stroke="black" cx="424.7" cy="-143.05" rx="3.2" ry="3.2"/>
</g>
</g>
</svg>
