<?xml version="1.0" encoding="UTF-8" standalone="no"?>
<!DOCTYPE svg PUBLIC "-//W3C//DTD SVG 1.1//EN"
 "http://www.w3.org/Graphics/SVG/1.1/DTD/svg11.dtd">
<!-- Generated by graphviz version 12.2.0 (0)
 -->
<!-- Title: twoDegreesRelationshipsDiagram Pages: 1 -->
<svg width="531pt" height="861pt"
 viewBox="0.00 0.00 530.50 861.00" xmlns="http://www.w3.org/2000/svg" xmlns:xlink="http://www.w3.org/1999/xlink">
<g id="graph0" class="graph" transform="scale(1 1) rotate(0) translate(4 857)">
<title>twoDegreesRelationshipsDiagram</title>
<polygon fill="#ffffff" stroke="none" points="-4,4 -4,-857 526.5,-857 526.5,4 -4,4"/>
<text text-anchor="middle" x="79.25" y="-7.05" font-family="Helvetica,sans-Serif" font-size="11.00">Generated by SchemaSpy</text>
<!-- doc_archive_collection -->
<g id="node1" class="node">
<title>doc_archive_collection</title>
<g id="a_node1"><a xlink:href="../../tables/doc_archive_collection.html" xlink:title="doc_archive_collection" target="_top">
<polygon fill="#ffffff" stroke="none" points="268.25,-786.5 268.25,-849 466,-849 466,-786.5 268.25,-786.5"/>
<polygon fill="#f5f5f5" stroke="none" points="268.25,-825.5 268.25,-849 466,-849 466,-825.5 268.25,-825.5"/>
<polygon fill="none" stroke="black" points="268.25,-825.5 268.25,-849 466,-849 466,-825.5 268.25,-825.5"/>
<text text-anchor="start" x="273.25" y="-834.55" font-family="Helvetica,sans-Serif" font-weight="bold" font-size="11.00">doc_archive_collection</text>
<text text-anchor="start" x="424.25" y="-833.55" font-family="Helvetica,sans-Serif" font-size="11.00">[table]</text>
<polygon fill="none" stroke="black" points="268.25,-806 268.25,-825.5 466,-825.5 466,-806 268.25,-806"/>
<text text-anchor="start" x="271.25" y="-812.05" font-family="Helvetica,sans-Serif" font-size="11.00">...</text>
<polygon fill="#ffffff" stroke="none" points="268.25,-786.5 268.25,-806 342.17,-806 342.17,-786.5 268.25,-786.5"/>
<polygon fill="none" stroke="black" points="268.25,-786.5 268.25,-806 342.17,-806 342.17,-786.5 268.25,-786.5"/>
<text text-anchor="start" x="271.25" y="-792.55" font-family="Helvetica,sans-Serif" font-size="11.00">&lt; 1</text>
<polygon fill="#ffffff" stroke="none" points="342.17,-786.5 342.17,-806 404.08,-806 404.08,-786.5 342.17,-786.5"/>
<polygon fill="none" stroke="black" points="342.17,-786.5 342.17,-806 404.08,-806 404.08,-786.5 342.17,-786.5"/>
<text text-anchor="start" x="393.58" y="-792.55" font-family="Helvetica,sans-Serif" font-size="11.00"> &#160;</text>
<polygon fill="#ffffff" stroke="none" points="404.08,-786.5 404.08,-806 466,-806 466,-786.5 404.08,-786.5"/>
<polygon fill="none" stroke="black" points="404.08,-786.5 404.08,-806 466,-806 466,-786.5 404.08,-786.5"/>
<text text-anchor="start" x="455.5" y="-792.55" font-family="Helvetica,sans-Serif" font-size="11.00"> &#160;</text>
</a>
</g>
</g>
<!-- doc_archive_item -->
<g id="node2" class="node">
<title>doc_archive_item</title>
<g id="a_node2"><a xlink:href="../../tables/doc_archive_item.html" xlink:title="doc_archive_item" target="_top">
<polygon fill="#ffffff" stroke="none" points="8,-472.5 8,-557 170.75,-557 170.75,-472.5 8,-472.5"/>
<polygon fill="#f5f5f5" stroke="none" points="8,-533.5 8,-557 170.75,-557 170.75,-533.5 8,-533.5"/>
<polygon fill="none" stroke="black" points="8,-533.5 8,-557 170.75,-557 170.75,-533.5 8,-533.5"/>
<text text-anchor="start" x="13" y="-542.55" font-family="Helvetica,sans-Serif" font-weight="bold" font-size="11.00">doc_archive_item</text>
<text text-anchor="start" x="129" y="-541.55" font-family="Helvetica,sans-Serif" font-size="11.00">[table]</text>
<polygon fill="none" stroke="black" points="8,-511.5 8,-533.5 170.75,-533.5 170.75,-511.5 8,-511.5"/>
<image xlink:href="../../images/primaryKeys.png" width="11px" height="12px" preserveAspectRatio="xMinYMin meet" x="13" y="-528.5"/>
<text text-anchor="start" x="35.38" y="-518.05" font-family="Helvetica,sans-Serif" font-size="11.00">identifier</text>
<polygon fill="none" stroke="black" points="8,-492 8,-511.5 170.75,-511.5 170.75,-492 8,-492"/>
<text text-anchor="start" x="11" y="-498.05" font-family="Helvetica,sans-Serif" font-size="11.00">...</text>
<polygon fill="#ffffff" stroke="none" points="8,-472.5 8,-492 58.25,-492 58.25,-472.5 8,-472.5"/>
<polygon fill="none" stroke="black" points="8,-472.5 8,-492 58.25,-492 58.25,-472.5 8,-472.5"/>
<text text-anchor="start" x="11" y="-478.55" font-family="Helvetica,sans-Serif" font-size="11.00"> &#160;</text>
<polygon fill="#ffffff" stroke="none" points="58.25,-472.5 58.25,-492 108.5,-492 108.5,-472.5 58.25,-472.5"/>
<polygon fill="none" stroke="black" points="58.25,-472.5 58.25,-492 108.5,-492 108.5,-472.5 58.25,-472.5"/>
<text text-anchor="start" x="98" y="-478.55" font-family="Helvetica,sans-Serif" font-size="11.00"> &#160;</text>
<polygon fill="#ffffff" stroke="none" points="108.5,-472.5 108.5,-492 170.75,-492 170.75,-472.5 108.5,-472.5"/>
<polygon fill="none" stroke="black" points="108.5,-472.5 108.5,-492 170.75,-492 170.75,-472.5 108.5,-472.5"/>
<text text-anchor="start" x="148.25" y="-478.55" font-family="Helvetica,sans-Serif" font-size="11.00">8 &gt;</text>
</a>
</g>
</g>
<!-- doc_archive_collection&#45;&gt;doc_archive_item -->
<g id="edge1" class="edge">
<title>doc_archive_collection:w&#45;&gt;doc_archive_item:e</title>
<path fill="none" stroke="black" d="M251.66,-814.15C233.01,-809.79 224.57,-796.59 211.75,-775.75 181.9,-727.22 228.73,-522.5 171.75,-522.5"/>
<polygon fill="black" stroke="black" points="258.96,-814.9 266.55,-819.3 263.27,-815.34 266.58,-815.68 266.58,-815.68 266.58,-815.68 263.27,-815.34 267.28,-812.13 258.96,-814.9"/>
<ellipse fill="none" stroke="black" cx="254.07" cy="-814.4" rx="3.2" ry="3.2"/>
</g>
<!-- doc_archive_contributor -->
<g id="node3" class="node">
<title>doc_archive_contributor</title>
<g id="a_node3"><a xlink:href="../../tables/doc_archive_contributor.html" xlink:title="doc_archive_contributor" target="_top">
<polygon fill="#ffffff" stroke="none" points="262.75,-702.5 262.75,-765 471.5,-765 471.5,-702.5 262.75,-702.5"/>
<polygon fill="#f5f5f5" stroke="none" points="262.75,-741.5 262.75,-765 471.5,-765 471.5,-741.5 262.75,-741.5"/>
<polygon fill="none" stroke="black" points="262.75,-741.5 262.75,-765 471.5,-765 471.5,-741.5 262.75,-741.5"/>
<text text-anchor="start" x="267.75" y="-750.55" font-family="Helvetica,sans-Serif" font-weight="bold" font-size="11.00">doc_archive_contributor</text>
<text text-anchor="start" x="429.75" y="-749.55" font-family="Helvetica,sans-Serif" font-size="11.00">[table]</text>
<polygon fill="none" stroke="black" points="262.75,-722 262.75,-741.5 471.5,-741.5 471.5,-722 262.75,-722"/>
<text text-anchor="start" x="265.75" y="-728.05" font-family="Helvetica,sans-Serif" font-size="11.00">...</text>
<polygon fill="#ffffff" stroke="none" points="262.75,-702.5 262.75,-722 340.33,-722 340.33,-702.5 262.75,-702.5"/>
<polygon fill="none" stroke="black" points="262.75,-702.5 262.75,-722 340.33,-722 340.33,-702.5 262.75,-702.5"/>
<text text-anchor="start" x="265.75" y="-708.55" font-family="Helvetica,sans-Serif" font-size="11.00">&lt; 1</text>
<polygon fill="#ffffff" stroke="none" points="340.33,-702.5 340.33,-722 405.92,-722 405.92,-702.5 340.33,-702.5"/>
<polygon fill="none" stroke="black" points="340.33,-702.5 340.33,-722 405.92,-722 405.92,-702.5 340.33,-702.5"/>
<text text-anchor="start" x="395.42" y="-708.55" font-family="Helvetica,sans-Serif" font-size="11.00"> &#160;</text>
<polygon fill="#ffffff" stroke="none" points="405.92,-702.5 405.92,-722 471.5,-722 471.5,-702.5 405.92,-702.5"/>
<polygon fill="none" stroke="black" points="405.92,-702.5 405.92,-722 471.5,-722 471.5,-702.5 405.92,-702.5"/>
<text text-anchor="start" x="461" y="-708.55" font-family="Helvetica,sans-Serif" font-size="11.00"> &#160;</text>
</a>
</g>
</g>
<!-- doc_archive_contributor&#45;&gt;doc_archive_item -->
<g id="edge2" class="edge">
<title>doc_archive_contributor:w&#45;&gt;doc_archive_item:e</title>
<path fill="none" stroke="black" d="M246.4,-729.69C230.23,-724.66 223.76,-710.73 211.75,-691.75 170.43,-626.43 249.04,-522.5 171.75,-522.5"/>
<polygon fill="black" stroke="black" points="253.49,-730.64 260.94,-735.27 257.79,-731.22 261.09,-731.66 261.09,-731.66 261.09,-731.66 257.79,-731.22 261.9,-728.14 253.49,-730.64"/>
<ellipse fill="none" stroke="black" cx="248.61" cy="-729.99" rx="3.2" ry="3.2"/>
</g>
<!-- doc_archive_coverage -->
<g id="node4" class="node">
<title>doc_archive_coverage</title>
<g id="a_node4"><a xlink:href="../../tables/doc_archive_coverage.html" xlink:title="doc_archive_coverage" target="_top">
<polygon fill="#ffffff" stroke="none" points="270.25,-618.5 270.25,-681 464,-681 464,-618.5 270.25,-618.5"/>
<polygon fill="#f5f5f5" stroke="none" points="270.25,-657.5 270.25,-681 464,-681 464,-657.5 270.25,-657.5"/>
<polygon fill="none" stroke="black" points="270.25,-657.5 270.25,-681 464,-681 464,-657.5 270.25,-657.5"/>
<text text-anchor="start" x="275.25" y="-666.55" font-family="Helvetica,sans-Serif" font-weight="bold" font-size="11.00">doc_archive_coverage</text>
<text text-anchor="start" x="422.25" y="-665.55" font-family="Helvetica,sans-Serif" font-size="11.00">[table]</text>
<polygon fill="none" stroke="black" points="270.25,-638 270.25,-657.5 464,-657.5 464,-638 270.25,-638"/>
<text text-anchor="start" x="273.25" y="-644.05" font-family="Helvetica,sans-Serif" font-size="11.00">...</text>
<polygon fill="#ffffff" stroke="none" points="270.25,-618.5 270.25,-638 342.83,-638 342.83,-618.5 270.25,-618.5"/>
<polygon fill="none" stroke="black" points="270.25,-618.5 270.25,-638 342.83,-638 342.83,-618.5 270.25,-618.5"/>
<text text-anchor="start" x="273.25" y="-624.55" font-family="Helvetica,sans-Serif" font-size="11.00">&lt; 1</text>
<polygon fill="#ffffff" stroke="none" points="342.83,-618.5 342.83,-638 403.42,-638 403.42,-618.5 342.83,-618.5"/>
<polygon fill="none" stroke="black" points="342.83,-618.5 342.83,-638 403.42,-638 403.42,-618.5 342.83,-618.5"/>
<text text-anchor="start" x="392.92" y="-624.55" font-family="Helvetica,sans-Serif" font-size="11.00"> &#160;</text>
<polygon fill="#ffffff" stroke="none" points="403.42,-618.5 403.42,-638 464,-638 464,-618.5 403.42,-618.5"/>
<polygon fill="none" stroke="black" points="403.42,-618.5 403.42,-638 464,-638 464,-618.5 403.42,-618.5"/>
<text text-anchor="start" x="453.5" y="-624.55" font-family="Helvetica,sans-Serif" font-size="11.00"> &#160;</text>
</a>
</g>
</g>
<!-- doc_archive_coverage&#45;&gt;doc_archive_item -->
<g id="edge3" class="edge">
<title>doc_archive_coverage:w&#45;&gt;doc_archive_item:e</title>
<path fill="none" stroke="black" d="M253.56,-645.96C235.13,-641.13 227.9,-626.9 211.75,-607.75 184.76,-575.76 213.6,-522.5 171.75,-522.5"/>
<polygon fill="black" stroke="black" points="260.97,-646.8 268.51,-651.29 265.28,-647.3 268.59,-647.67 268.59,-647.67 268.59,-647.67 265.28,-647.3 269.33,-644.14 260.97,-646.8"/>
<ellipse fill="none" stroke="black" cx="256.08" cy="-646.25" rx="3.2" ry="3.2"/>
</g>
<!-- doc_archive_creator -->
<g id="node5" class="node">
<title>doc_archive_creator</title>
<g id="a_node5"><a xlink:href="../../tables/doc_archive_creator.html" xlink:title="doc_archive_creator" target="_top">
<polygon fill="#ffffff" stroke="none" points="276.75,-534.5 276.75,-597 457.5,-597 457.5,-534.5 276.75,-534.5"/>
<polygon fill="#f5f5f5" stroke="none" points="276.75,-573.5 276.75,-597 457.5,-597 457.5,-573.5 276.75,-573.5"/>
<polygon fill="none" stroke="black" points="276.75,-573.5 276.75,-597 457.5,-597 457.5,-573.5 276.75,-573.5"/>
<text text-anchor="start" x="281.75" y="-582.55" font-family="Helvetica,sans-Serif" font-weight="bold" font-size="11.00">doc_archive_creator</text>
<text text-anchor="start" x="415.75" y="-581.55" font-family="Helvetica,sans-Serif" font-size="11.00">[table]</text>
<polygon fill="none" stroke="black" points="276.75,-554 276.75,-573.5 457.5,-573.5 457.5,-554 276.75,-554"/>
<text text-anchor="start" x="279.75" y="-560.05" font-family="Helvetica,sans-Serif" font-size="11.00">...</text>
<polygon fill="#ffffff" stroke="none" points="276.75,-534.5 276.75,-554 345,-554 345,-534.5 276.75,-534.5"/>
<polygon fill="none" stroke="black" points="276.75,-534.5 276.75,-554 345,-554 345,-534.5 276.75,-534.5"/>
<text text-anchor="start" x="279.75" y="-540.55" font-family="Helvetica,sans-Serif" font-size="11.00">&lt; 1</text>
<polygon fill="#ffffff" stroke="none" points="345,-534.5 345,-554 401.25,-554 401.25,-534.5 345,-534.5"/>
<polygon fill="none" stroke="black" points="345,-534.5 345,-554 401.25,-554 401.25,-534.5 345,-534.5"/>
<text text-anchor="start" x="390.75" y="-540.55" font-family="Helvetica,sans-Serif" font-size="11.00"> &#160;</text>
<polygon fill="#ffffff" stroke="none" points="401.25,-534.5 401.25,-554 457.5,-554 457.5,-534.5 401.25,-534.5"/>
<polygon fill="none" stroke="black" points="401.25,-534.5 401.25,-554 457.5,-554 457.5,-534.5 401.25,-534.5"/>
<text text-anchor="start" x="447" y="-540.55" font-family="Helvetica,sans-Serif" font-size="11.00"> &#160;</text>
</a>
</g>
</g>
<!-- doc_archive_creator&#45;&gt;doc_archive_item -->
<g id="edge4" class="edge">
<title>doc_archive_creator:w&#45;&gt;doc_archive_item:e</title>
<path fill="none" stroke="black" d="M260.46,-562.28C224.41,-554.93 215.84,-522.5 171.75,-522.5"/>
<polygon fill="black" stroke="black" points="267.45,-562.95 275.07,-567.3 271.77,-563.37 275.08,-563.69 275.08,-563.69 275.08,-563.69 271.77,-563.37 275.76,-560.13 267.45,-562.95"/>
<ellipse fill="none" stroke="black" cx="262.56" cy="-562.48" rx="3.2" ry="3.2"/>
</g>
<!-- doc_archive_header -->
<g id="node6" class="node">
<title>doc_archive_header</title>
<g id="a_node6"><a xlink:href="../../tables/doc_archive_header.html" xlink:title="doc_archive_header" target="_top">
<polygon fill="#ffffff" stroke="none" points="277.25,-450.5 277.25,-513 457,-513 457,-450.5 277.25,-450.5"/>
<polygon fill="#f5f5f5" stroke="none" points="277.25,-489.5 277.25,-513 457,-513 457,-489.5 277.25,-489.5"/>
<polygon fill="none" stroke="black" points="277.25,-489.5 277.25,-513 457,-513 457,-489.5 277.25,-489.5"/>
<text text-anchor="start" x="282.25" y="-498.55" font-family="Helvetica,sans-Serif" font-weight="bold" font-size="11.00">doc_archive_header</text>
<text text-anchor="start" x="415.25" y="-497.55" font-family="Helvetica,sans-Serif" font-size="11.00">[table]</text>
<polygon fill="none" stroke="black" points="277.25,-470 277.25,-489.5 457,-489.5 457,-470 277.25,-470"/>
<text text-anchor="start" x="280.25" y="-476.05" font-family="Helvetica,sans-Serif" font-size="11.00">...</text>
<polygon fill="#ffffff" stroke="none" points="277.25,-450.5 277.25,-470 345.17,-470 345.17,-450.5 277.25,-450.5"/>
<polygon fill="none" stroke="black" points="277.25,-450.5 277.25,-470 345.17,-470 345.17,-450.5 277.25,-450.5"/>
<text text-anchor="start" x="280.25" y="-456.55" font-family="Helvetica,sans-Serif" font-size="11.00">&lt; 1</text>
<polygon fill="#ffffff" stroke="none" points="345.17,-450.5 345.17,-470 401.08,-470 401.08,-450.5 345.17,-450.5"/>
<polygon fill="none" stroke="black" points="345.17,-450.5 345.17,-470 401.08,-470 401.08,-450.5 345.17,-450.5"/>
<text text-anchor="start" x="390.58" y="-456.55" font-family="Helvetica,sans-Serif" font-size="11.00"> &#160;</text>
<polygon fill="#ffffff" stroke="none" points="401.08,-450.5 401.08,-470 457,-470 457,-450.5 401.08,-450.5"/>
<polygon fill="none" stroke="black" points="401.08,-450.5 401.08,-470 457,-470 457,-450.5 401.08,-450.5"/>
<text text-anchor="start" x="446.5" y="-456.55" font-family="Helvetica,sans-Serif" font-size="11.00"> &#160;</text>
</a>
</g>
</g>
<!-- doc_archive_header&#45;&gt;doc_archive_item -->
<g id="edge5" class="edge">
<title>doc_archive_header:w&#45;&gt;doc_archive_item:e</title>
<path fill="none" stroke="black" d="M260.84,-481.27C224.54,-488.89 216.25,-522.5 171.75,-522.5"/>
<polygon fill="black" stroke="black" points="267.96,-480.57 276.27,-483.37 272.27,-480.14 275.58,-479.82 275.58,-479.82 275.58,-479.82 272.27,-480.14 275.56,-476.2 267.96,-480.57"/>
<ellipse fill="none" stroke="black" cx="263.06" cy="-481.05" rx="3.2" ry="3.2"/>
</g>
<!-- doc_archive_language -->
<g id="node7" class="node">
<title>doc_archive_language</title>
<g id="a_node7"><a xlink:href="../../tables/doc_archive_language.html" xlink:title="doc_archive_language" target="_top">
<polygon fill="#ffffff" stroke="none" points="219.75,-206.25 219.75,-429.25 514.5,-429.25 514.5,-206.25 219.75,-206.25"/>
<polygon fill="#f5f5f5" stroke="none" points="221.75,-403.75 221.75,-427.25 512.5,-427.25 512.5,-403.75 221.75,-403.75"/>
<polygon fill="none" stroke="black" points="221.75,-403.75 221.75,-427.25 512.5,-427.25 512.5,-403.75 221.75,-403.75"/>
<text text-anchor="start" x="226.75" y="-412.8" font-family="Helvetica,sans-Serif" font-weight="bold" font-size="11.00">doc_archive_language</text>
<text text-anchor="start" x="470.75" y="-411.8" font-family="Helvetica,sans-Serif" font-size="11.00">[table]</text>
<polygon fill="none" stroke="black" points="221.75,-381.75 221.75,-403.75 390.75,-403.75 390.75,-381.75 221.75,-381.75"/>
<image xlink:href="../../images/primaryKeys.png" width="11px" height="12px" preserveAspectRatio="xMinYMin meet" x="226.75" y="-398.75"/>
<text text-anchor="start" x="241.75" y="-388.3" font-family="Helvetica,sans-Serif" font-size="11.00">identifier</text>
<polygon fill="none" stroke="black" points="390.75,-381.75 390.75,-403.75 495.5,-403.75 495.5,-381.75 390.75,-381.75"/>
<text text-anchor="start" x="393.75" y="-389.05" font-family="Helvetica,sans-Serif" font-size="11.00">varchar[191]</text>
<polygon fill="none" stroke="black" points="221.75,-359.75 221.75,-381.75 390.75,-381.75 390.75,-359.75 221.75,-359.75"/>
<text text-anchor="start" x="241.75" y="-366.3" font-family="Helvetica,sans-Serif" font-size="11.00">value</text>
<polygon fill="none" stroke="black" points="390.75,-359.75 390.75,-381.75 495.5,-381.75 495.5,-359.75 390.75,-359.75"/>
<text text-anchor="start" x="393.75" y="-367.05" font-family="Helvetica,sans-Serif" font-size="11.00">text[65535]</text>
<polygon fill="#ffffff" stroke="none" points="221.75,-337.75 221.75,-359.75 390.75,-359.75 390.75,-337.75 221.75,-337.75"/>
<polygon fill="none" stroke="black" points="221.75,-337.75 221.75,-359.75 390.75,-359.75 390.75,-337.75 221.75,-337.75"/>
<image xlink:href="../../images/foreignKeys.png" width="11px" height="12px" preserveAspectRatio="xMinYMin meet" x="226.75" y="-354.75"/>
<text text-anchor="start" x="241.75" y="-344.3" font-family="Helvetica,sans-Serif" font-size="11.00">item</text>
<polygon fill="none" stroke="black" points="390.75,-337.75 390.75,-359.75 495.5,-359.75 495.5,-337.75 390.75,-337.75"/>
<text text-anchor="start" x="393.75" y="-345.05" font-family="Helvetica,sans-Serif" font-size="11.00">varchar[191]</text>
<polygon fill="none" stroke="black" points="221.75,-315.75 221.75,-337.75 390.75,-337.75 390.75,-315.75 221.75,-315.75"/>
<text text-anchor="start" x="241.75" y="-322.3" font-family="Helvetica,sans-Serif" font-size="11.00">version</text>
<polygon fill="none" stroke="black" points="390.75,-315.75 390.75,-337.75 495.5,-337.75 495.5,-315.75 390.75,-315.75"/>
<text text-anchor="start" x="393.75" y="-323.05" font-family="Helvetica,sans-Serif" font-size="11.00">bigint[19]</text>
<polygon fill="none" stroke="black" points="221.75,-293.75 221.75,-315.75 390.75,-315.75 390.75,-293.75 221.75,-293.75"/>
<text text-anchor="start" x="241.75" y="-300.3" font-family="Helvetica,sans-Serif" font-size="11.00">created_by</text>
<polygon fill="none" stroke="black" points="390.75,-293.75 390.75,-315.75 495.5,-315.75 495.5,-293.75 390.75,-293.75"/>
<text text-anchor="start" x="393.75" y="-301.05" font-family="Helvetica,sans-Serif" font-size="11.00">varchar[191]</text>
<polygon fill="none" stroke="black" points="221.75,-271.75 221.75,-293.75 390.75,-293.75 390.75,-271.75 221.75,-271.75"/>
<text text-anchor="start" x="241.75" y="-278.3" font-family="Helvetica,sans-Serif" font-size="11.00">last_modified_by</text>
<polygon fill="none" stroke="black" points="390.75,-271.75 390.75,-293.75 495.5,-293.75 495.5,-271.75 390.75,-271.75"/>
<text text-anchor="start" x="393.75" y="-279.05" font-family="Helvetica,sans-Serif" font-size="11.00">varchar[191]</text>
<polygon fill="none" stroke="black" points="221.75,-249.75 221.75,-271.75 390.75,-271.75 390.75,-249.75 221.75,-249.75"/>
<text text-anchor="start" x="241.75" y="-256.3" font-family="Helvetica,sans-Serif" font-size="11.00">created_date</text>
<polygon fill="none" stroke="black" points="390.75,-249.75 390.75,-271.75 495.5,-271.75 495.5,-249.75 390.75,-249.75"/>
<text text-anchor="start" x="393.75" y="-257.05" font-family="Helvetica,sans-Serif" font-size="11.00">timestamp[19]</text>
<polygon fill="none" stroke="black" points="221.75,-227.75 221.75,-249.75 390.75,-249.75 390.75,-227.75 221.75,-227.75"/>
<text text-anchor="start" x="241.75" y="-234.3" font-family="Helvetica,sans-Serif" font-size="11.00">last_modified_date</text>
<polygon fill="none" stroke="black" points="390.75,-227.75 390.75,-249.75 495.5,-249.75 495.5,-227.75 390.75,-227.75"/>
<text text-anchor="start" x="393.75" y="-235.05" font-family="Helvetica,sans-Serif" font-size="11.00">timestamp[19]</text>
<polygon fill="#ffffff" stroke="none" points="221.75,-208.25 221.75,-227.75 312.25,-227.75 312.25,-208.25 221.75,-208.25"/>
<polygon fill="none" stroke="black" points="221.75,-208.25 221.75,-227.75 312.25,-227.75 312.25,-208.25 221.75,-208.25"/>
<text text-anchor="start" x="224.75" y="-214.3" font-family="Helvetica,sans-Serif" font-size="11.00">&lt; 1</text>
<polygon fill="#ffffff" stroke="none" points="312.25,-208.25 312.25,-227.75 390.75,-227.75 390.75,-208.25 312.25,-208.25"/>
<polygon fill="none" stroke="black" points="312.25,-208.25 312.25,-227.75 390.75,-227.75 390.75,-208.25 312.25,-208.25"/>
<text text-anchor="start" x="380.25" y="-214.3" font-family="Helvetica,sans-Serif" font-size="11.00"> &#160;</text>
<polygon fill="#ffffff" stroke="none" points="390.75,-208.25 390.75,-227.75 495.5,-227.75 495.5,-208.25 390.75,-208.25"/>
<polygon fill="none" stroke="black" points="390.75,-208.25 390.75,-227.75 495.5,-227.75 495.5,-208.25 390.75,-208.25"/>
<text text-anchor="start" x="473" y="-214.3" font-family="Helvetica,sans-Serif" font-size="11.00">0 &gt;</text>
<polygon fill="none" stroke="black" stroke-width="2" points="220.75,-207.25 220.75,-428.25 513.5,-428.25 513.5,-207.25 220.75,-207.25"/>
</a>
</g>
</g>
<!-- doc_archive_language&#45;&gt;doc_archive_item -->
<g id="edge6" class="edge">
<title>doc_archive_language:w&#45;&gt;doc_archive_item:e</title>
<path fill="none" stroke="black" d="M205.27,-351.77C156.76,-374.84 245.72,-522.5 171.75,-522.5"/>
<polygon fill="black" stroke="black" points="212.57,-350.34 221.11,-352.35 216.82,-349.52 220.09,-348.88 220.09,-348.88 220.09,-348.88 216.82,-349.52 219.73,-345.28 212.57,-350.34"/>
<ellipse fill="none" stroke="black" cx="207.74" cy="-351.28" rx="3.2" ry="3.2"/>
</g>
<!-- doc_archive_subject -->
<g id="node8" class="node">
<title>doc_archive_subject</title>
<g id="a_node8"><a xlink:href="../../tables/doc_archive_subject.html" xlink:title="doc_archive_subject" target="_top">
<polygon fill="#ffffff" stroke="none" points="276.25,-122.5 276.25,-185 458,-185 458,-122.5 276.25,-122.5"/>
<polygon fill="#f5f5f5" stroke="none" points="276.25,-161.5 276.25,-185 458,-185 458,-161.5 276.25,-161.5"/>
<polygon fill="none" stroke="black" points="276.25,-161.5 276.25,-185 458,-185 458,-161.5 276.25,-161.5"/>
<text text-anchor="start" x="281.25" y="-170.55" font-family="Helvetica,sans-Serif" font-weight="bold" font-size="11.00">doc_archive_subject</text>
<text text-anchor="start" x="416.25" y="-169.55" font-family="Helvetica,sans-Serif" font-size="11.00">[table]</text>
<polygon fill="none" stroke="black" points="276.25,-142 276.25,-161.5 458,-161.5 458,-142 276.25,-142"/>
<text text-anchor="start" x="279.25" y="-148.05" font-family="Helvetica,sans-Serif" font-size="11.00">...</text>
<polygon fill="#ffffff" stroke="none" points="276.25,-122.5 276.25,-142 344.83,-142 344.83,-122.5 276.25,-122.5"/>
<polygon fill="none" stroke="black" points="276.25,-122.5 276.25,-142 344.83,-142 344.83,-122.5 276.25,-122.5"/>
<text text-anchor="start" x="279.25" y="-128.55" font-family="Helvetica,sans-Serif" font-size="11.00">&lt; 1</text>
<polygon fill="#ffffff" stroke="none" points="344.83,-122.5 344.83,-142 401.42,-142 401.42,-122.5 344.83,-122.5"/>
<polygon fill="none" stroke="black" points="344.83,-122.5 344.83,-142 401.42,-142 401.42,-122.5 344.83,-122.5"/>
<text text-anchor="start" x="390.92" y="-128.55" font-family="Helvetica,sans-Serif" font-size="11.00"> &#160;</text>
<polygon fill="#ffffff" stroke="none" points="401.42,-122.5 401.42,-142 458,-142 458,-122.5 401.42,-122.5"/>
<polygon fill="none" stroke="black" points="401.42,-122.5 401.42,-142 458,-142 458,-122.5 401.42,-122.5"/>
<text text-anchor="start" x="447.5" y="-128.55" font-family="Helvetica,sans-Serif" font-size="11.00"> &#160;</text>
</a>
</g>
</g>
<!-- doc_archive_subject&#45;&gt;doc_archive_item -->
<g id="edge7" class="edge">
<title>doc_archive_subject:w&#45;&gt;doc_archive_item:e</title>
<path fill="none" stroke="black" d="M259.75,-152.99C236.9,-157.07 226.52,-171.3 211.75,-195.75 173.93,-258.37 244.9,-522.5 171.75,-522.5"/>
<polygon fill="black" stroke="black" points="266.94,-152.41 275.2,-155.37 271.26,-152.07 274.58,-151.8 274.58,-151.8 274.58,-151.8 271.26,-152.07 274.63,-148.19 266.94,-152.41"/>
<ellipse fill="none" stroke="black" cx="262.04" cy="-152.8" rx="3.2" ry="3.2"/>
</g>
<!-- doc_unit -->
<g id="node9" class="node">
<title>doc_unit</title>
<g id="a_node9"><a xlink:href="../../tables/doc_unit.html" xlink:title="doc_unit" target="_top">
<polygon fill="#ffffff" stroke="none" points="315.75,-38.5 315.75,-101 418.5,-101 418.5,-38.5 315.75,-38.5"/>
<polygon fill="#f5f5f5" stroke="none" points="315.75,-77.5 315.75,-101 418.5,-101 418.5,-77.5 315.75,-77.5"/>
<polygon fill="none" stroke="black" points="315.75,-77.5 315.75,-101 418.5,-101 418.5,-77.5 315.75,-77.5"/>
<text text-anchor="start" x="320.75" y="-86.55" font-family="Helvetica,sans-Serif" font-weight="bold" font-size="11.00">doc_unit</text>
<text text-anchor="start" x="376.75" y="-85.55" font-family="Helvetica,sans-Serif" font-size="11.00">[table]</text>
<polygon fill="none" stroke="black" points="315.75,-58 315.75,-77.5 418.5,-77.5 418.5,-58 315.75,-58"/>
<text text-anchor="start" x="318.75" y="-64.05" font-family="Helvetica,sans-Serif" font-size="11.00">...</text>
<polygon fill="#ffffff" stroke="none" points="315.75,-38.5 315.75,-58 356.25,-58 356.25,-38.5 315.75,-38.5"/>
<polygon fill="none" stroke="black" points="315.75,-38.5 315.75,-58 356.25,-58 356.25,-38.5 315.75,-38.5"/>
<text text-anchor="start" x="318.75" y="-44.55" font-family="Helvetica,sans-Serif" font-size="11.00">&lt; 13</text>
<polygon fill="#ffffff" stroke="none" points="356.25,-38.5 356.25,-58 378,-58 378,-38.5 356.25,-38.5"/>
<polygon fill="none" stroke="black" points="356.25,-38.5 356.25,-58 378,-58 378,-38.5 356.25,-38.5"/>
<text text-anchor="start" x="367.5" y="-44.55" font-family="Helvetica,sans-Serif" font-size="11.00"> &#160;</text>
<polygon fill="#ffffff" stroke="none" points="378,-38.5 378,-58 418.5,-58 418.5,-38.5 378,-38.5"/>
<polygon fill="none" stroke="black" points="378,-38.5 378,-58 418.5,-58 418.5,-38.5 378,-38.5"/>
<text text-anchor="start" x="389.25" y="-44.55" font-family="Helvetica,sans-Serif" font-size="11.00">11 &gt;</text>
</a>
</g>
</g>
<!-- doc_unit&#45;&gt;doc_archive_item -->
<g id="edge8" class="edge">
<title>doc_unit:w&#45;&gt;doc_archive_item:e</title>
<path fill="none" stroke="black" d="M299.05,-67.94C259.6,-69.05 237.89,-76.06 211.75,-111.75 157.57,-185.74 263.46,-522.5 171.75,-522.5"/>
<polygon fill="black" stroke="black" points="306.42,-67.85 314.46,-71.35 310.75,-67.8 314.08,-67.76 314.08,-67.76 314.08,-67.76 310.75,-67.8 314.37,-64.15 306.42,-67.85"/>
<ellipse fill="none" stroke="black" cx="301.5" cy="-67.91" rx="3.2" ry="3.2"/>
</g>
</g>
</svg>
