<?xml version="1.0" encoding="UTF-8" standalone="no"?>
<!DOCTYPE svg PUBLIC "-//W3C//DTD SVG 1.1//EN"
 "http://www.w3.org/Graphics/SVG/1.1/DTD/svg11.dtd">
<!-- Generated by graphviz version 12.2.0 (0)
 -->
<!-- Title: oneDegreeRelationshipsDiagram Pages: 1 -->
<svg width="540pt" height="1361pt"
 viewBox="0.00 0.00 539.50 1361.00" xmlns="http://www.w3.org/2000/svg" xmlns:xlink="http://www.w3.org/1999/xlink">
<g id="graph0" class="graph" transform="scale(1 1) rotate(0) translate(4 1357)">
<title>oneDegreeRelationshipsDiagram</title>
<polygon fill="#ffffff" stroke="none" points="-4,4 -4,-1357 535.5,-1357 535.5,4 -4,4"/>
<text text-anchor="middle" x="79.25" y="-7.05" font-family="Helvetica,sans-Serif" font-size="11.00">Generated by SchemaSpy</text>
<!-- doc_archive_collection -->
<g id="node1" class="node">
<title>doc_archive_collection</title>
<g id="a_node1"><a xlink:href="../../tables/doc_archive_collection.html" xlink:title="doc_archive_collection" target="_top">
<polygon fill="#ffffff" stroke="none" points="320.25,-1242.5 320.25,-1349 518,-1349 518,-1242.5 320.25,-1242.5"/>
<polygon fill="#f5f5f5" stroke="none" points="320.25,-1325.5 320.25,-1349 518,-1349 518,-1325.5 320.25,-1325.5"/>
<polygon fill="none" stroke="black" points="320.25,-1325.5 320.25,-1349 518,-1349 518,-1325.5 320.25,-1325.5"/>
<text text-anchor="start" x="325.25" y="-1334.55" font-family="Helvetica,sans-Serif" font-weight="bold" font-size="11.00">doc_archive_collection</text>
<text text-anchor="start" x="476.25" y="-1333.55" font-family="Helvetica,sans-Serif" font-size="11.00">[table]</text>
<polygon fill="none" stroke="black" points="320.25,-1303.5 320.25,-1325.5 518,-1325.5 518,-1303.5 320.25,-1303.5"/>
<image xlink:href="../../images/primaryKeys.png" width="11px" height="12px" preserveAspectRatio="xMinYMin meet" x="325.25" y="-1320.5"/>
<text text-anchor="start" x="353.12" y="-1310.05" font-family="Helvetica,sans-Serif" font-size="11.00">identifier</text>
<polygon fill="#ffffff" stroke="none" points="320.25,-1281.5 320.25,-1303.5 518,-1303.5 518,-1281.5 320.25,-1281.5"/>
<polygon fill="none" stroke="black" points="320.25,-1281.5 320.25,-1303.5 518,-1303.5 518,-1281.5 320.25,-1281.5"/>
<image xlink:href="../../images/foreignKeys.png" width="11px" height="12px" preserveAspectRatio="xMinYMin meet" x="325.25" y="-1298.5"/>
<text text-anchor="start" x="353.12" y="-1288.05" font-family="Helvetica,sans-Serif" font-size="11.00">item</text>
<polygon fill="none" stroke="black" points="320.25,-1262 320.25,-1281.5 518,-1281.5 518,-1262 320.25,-1262"/>
<text text-anchor="start" x="323.25" y="-1268.05" font-family="Helvetica,sans-Serif" font-size="11.00">...</text>
<polygon fill="#ffffff" stroke="none" points="320.25,-1242.5 320.25,-1262 394.17,-1262 394.17,-1242.5 320.25,-1242.5"/>
<polygon fill="none" stroke="black" points="320.25,-1242.5 320.25,-1262 394.17,-1262 394.17,-1242.5 320.25,-1242.5"/>
<text text-anchor="start" x="323.25" y="-1248.55" font-family="Helvetica,sans-Serif" font-size="11.00">&lt; 1</text>
<polygon fill="#ffffff" stroke="none" points="394.17,-1242.5 394.17,-1262 456.08,-1262 456.08,-1242.5 394.17,-1242.5"/>
<polygon fill="none" stroke="black" points="394.17,-1242.5 394.17,-1262 456.08,-1262 456.08,-1242.5 394.17,-1242.5"/>
<text text-anchor="start" x="445.58" y="-1248.55" font-family="Helvetica,sans-Serif" font-size="11.00"> &#160;</text>
<polygon fill="#ffffff" stroke="none" points="456.08,-1242.5 456.08,-1262 518,-1262 518,-1242.5 456.08,-1242.5"/>
<polygon fill="none" stroke="black" points="456.08,-1242.5 456.08,-1262 518,-1262 518,-1242.5 456.08,-1242.5"/>
<text text-anchor="start" x="507.5" y="-1248.55" font-family="Helvetica,sans-Serif" font-size="11.00"> &#160;</text>
</a>
</g>
</g>
<!-- doc_archive_item -->
<g id="node2" class="node">
<title>doc_archive_item</title>
<g id="a_node2"><a xlink:href="../../tables/doc_archive_item.html" xlink:title="doc_archive_item" target="_top">
<polygon fill="#ffffff" stroke="none" points="8,-394.25 8,-881.25 265.75,-881.25 265.75,-394.25 8,-394.25"/>
<polygon fill="#f5f5f5" stroke="none" points="10,-855.75 10,-879.25 263.75,-879.25 263.75,-855.75 10,-855.75"/>
<polygon fill="none" stroke="black" points="10,-855.75 10,-879.25 263.75,-879.25 263.75,-855.75 10,-855.75"/>
<text text-anchor="start" x="15" y="-864.8" font-family="Helvetica,sans-Serif" font-weight="bold" font-size="11.00">doc_archive_item</text>
<text text-anchor="start" x="222" y="-863.8" font-family="Helvetica,sans-Serif" font-size="11.00">[table]</text>
<polygon fill="none" stroke="black" points="10,-833.75 10,-855.75 158,-855.75 158,-833.75 10,-833.75"/>
<image xlink:href="../../images/primaryKeys.png" width="11px" height="12px" preserveAspectRatio="xMinYMin meet" x="15" y="-850.75"/>
<text text-anchor="start" x="30" y="-840.3" font-family="Helvetica,sans-Serif" font-size="11.00">identifier</text>
<polygon fill="none" stroke="black" points="158,-833.75 158,-855.75 254.75,-855.75 254.75,-833.75 158,-833.75"/>
<text text-anchor="start" x="161" y="-841.05" font-family="Helvetica,sans-Serif" font-size="11.00">varchar[191]</text>
<polygon fill="none" stroke="black" points="10,-811.75 10,-833.75 158,-833.75 158,-811.75 10,-811.75"/>
<text text-anchor="start" x="30" y="-818.3" font-family="Helvetica,sans-Serif" font-size="11.00">doc_unit</text>
<polygon fill="none" stroke="black" points="158,-811.75 158,-833.75 254.75,-833.75 254.75,-811.75 158,-811.75"/>
<text text-anchor="start" x="161" y="-819.05" font-family="Helvetica,sans-Serif" font-size="11.00">varchar[191]</text>
<polygon fill="none" stroke="black" points="10,-789.75 10,-811.75 158,-811.75 158,-789.75 10,-789.75"/>
<text text-anchor="start" x="30" y="-796.3" font-family="Helvetica,sans-Serif" font-size="11.00">credits</text>
<polygon fill="none" stroke="black" points="158,-789.75 158,-811.75 254.75,-811.75 254.75,-789.75 158,-789.75"/>
<text text-anchor="start" x="161" y="-797.05" font-family="Helvetica,sans-Serif" font-size="11.00">varchar[255]</text>
<polygon fill="none" stroke="black" points="10,-767.75 10,-789.75 158,-789.75 158,-767.75 10,-767.75"/>
<text text-anchor="start" x="30" y="-774.3" font-family="Helvetica,sans-Serif" font-size="11.00">date</text>
<polygon fill="none" stroke="black" points="158,-767.75 158,-789.75 254.75,-789.75 254.75,-767.75 158,-767.75"/>
<text text-anchor="start" x="161" y="-775.05" font-family="Helvetica,sans-Serif" font-size="11.00">varchar[255]</text>
<polygon fill="none" stroke="black" points="10,-745.75 10,-767.75 158,-767.75 158,-745.75 10,-745.75"/>
<text text-anchor="start" x="30" y="-752.3" font-family="Helvetica,sans-Serif" font-size="11.00">description</text>
<polygon fill="none" stroke="black" points="158,-745.75 158,-767.75 254.75,-767.75 254.75,-745.75 158,-745.75"/>
<text text-anchor="start" x="161" y="-753.05" font-family="Helvetica,sans-Serif" font-size="11.00">varchar[2047]</text>
<polygon fill="none" stroke="black" points="10,-723.75 10,-745.75 158,-745.75 158,-723.75 10,-723.75"/>
<text text-anchor="start" x="30" y="-730.3" font-family="Helvetica,sans-Serif" font-size="11.00">license_url</text>
<polygon fill="none" stroke="black" points="158,-723.75 158,-745.75 254.75,-745.75 254.75,-723.75 158,-723.75"/>
<text text-anchor="start" x="161" y="-731.05" font-family="Helvetica,sans-Serif" font-size="11.00">varchar[255]</text>
<polygon fill="none" stroke="black" points="10,-701.75 10,-723.75 158,-723.75 158,-701.75 10,-701.75"/>
<text text-anchor="start" x="30" y="-708.3" font-family="Helvetica,sans-Serif" font-size="11.00">mediatype</text>
<polygon fill="none" stroke="black" points="158,-701.75 158,-723.75 254.75,-723.75 254.75,-701.75 158,-701.75"/>
<text text-anchor="start" x="161" y="-709.05" font-family="Helvetica,sans-Serif" font-size="11.00">varchar[255]</text>
<polygon fill="none" stroke="black" points="10,-679.75 10,-701.75 158,-701.75 158,-679.75 10,-679.75"/>
<text text-anchor="start" x="30" y="-686.3" font-family="Helvetica,sans-Serif" font-size="11.00">custom_mediatype</text>
<polygon fill="none" stroke="black" points="158,-679.75 158,-701.75 254.75,-701.75 254.75,-679.75 158,-679.75"/>
<text text-anchor="start" x="161" y="-687.05" font-family="Helvetica,sans-Serif" font-size="11.00">varchar[255]</text>
<polygon fill="none" stroke="black" points="10,-657.75 10,-679.75 158,-679.75 158,-657.75 10,-657.75"/>
<text text-anchor="start" x="30" y="-664.3" font-family="Helvetica,sans-Serif" font-size="11.00">notes</text>
<polygon fill="none" stroke="black" points="158,-657.75 158,-679.75 254.75,-679.75 254.75,-657.75 158,-657.75"/>
<text text-anchor="start" x="161" y="-665.05" font-family="Helvetica,sans-Serif" font-size="11.00">varchar[255]</text>
<polygon fill="none" stroke="black" points="10,-635.75 10,-657.75 158,-657.75 158,-635.75 10,-635.75"/>
<text text-anchor="start" x="30" y="-642.3" font-family="Helvetica,sans-Serif" font-size="11.00">publisher</text>
<polygon fill="none" stroke="black" points="158,-635.75 158,-657.75 254.75,-657.75 254.75,-635.75 158,-635.75"/>
<text text-anchor="start" x="161" y="-643.05" font-family="Helvetica,sans-Serif" font-size="11.00">varchar[255]</text>
<polygon fill="none" stroke="black" points="10,-613.75 10,-635.75 158,-635.75 158,-613.75 10,-613.75"/>
<text text-anchor="start" x="30" y="-620.3" font-family="Helvetica,sans-Serif" font-size="11.00">rights</text>
<polygon fill="none" stroke="black" points="158,-613.75 158,-635.75 254.75,-635.75 254.75,-613.75 158,-613.75"/>
<text text-anchor="start" x="161" y="-621.05" font-family="Helvetica,sans-Serif" font-size="11.00">varchar[255]</text>
<polygon fill="none" stroke="black" points="10,-591.75 10,-613.75 158,-613.75 158,-591.75 10,-591.75"/>
<text text-anchor="start" x="30" y="-598.3" font-family="Helvetica,sans-Serif" font-size="11.00">title</text>
<polygon fill="none" stroke="black" points="158,-591.75 158,-613.75 254.75,-613.75 254.75,-591.75 158,-591.75"/>
<text text-anchor="start" x="161" y="-599.05" font-family="Helvetica,sans-Serif" font-size="11.00">varchar[255]</text>
<polygon fill="none" stroke="black" points="10,-569.75 10,-591.75 158,-591.75 158,-569.75 10,-569.75"/>
<text text-anchor="start" x="30" y="-576.3" font-family="Helvetica,sans-Serif" font-size="11.00">version</text>
<polygon fill="none" stroke="black" points="158,-569.75 158,-591.75 254.75,-591.75 254.75,-569.75 158,-569.75"/>
<text text-anchor="start" x="161" y="-577.05" font-family="Helvetica,sans-Serif" font-size="11.00">bigint[19]</text>
<polygon fill="none" stroke="black" points="10,-547.75 10,-569.75 158,-569.75 158,-547.75 10,-547.75"/>
<text text-anchor="start" x="30" y="-554.3" font-family="Helvetica,sans-Serif" font-size="11.00">created_by</text>
<polygon fill="none" stroke="black" points="158,-547.75 158,-569.75 254.75,-569.75 254.75,-547.75 158,-547.75"/>
<text text-anchor="start" x="161" y="-555.05" font-family="Helvetica,sans-Serif" font-size="11.00">varchar[191]</text>
<polygon fill="none" stroke="black" points="10,-525.75 10,-547.75 158,-547.75 158,-525.75 10,-525.75"/>
<text text-anchor="start" x="30" y="-532.3" font-family="Helvetica,sans-Serif" font-size="11.00">last_modified_by</text>
<polygon fill="none" stroke="black" points="158,-525.75 158,-547.75 254.75,-547.75 254.75,-525.75 158,-525.75"/>
<text text-anchor="start" x="161" y="-533.05" font-family="Helvetica,sans-Serif" font-size="11.00">varchar[191]</text>
<polygon fill="none" stroke="black" points="10,-503.75 10,-525.75 158,-525.75 158,-503.75 10,-503.75"/>
<text text-anchor="start" x="30" y="-510.3" font-family="Helvetica,sans-Serif" font-size="11.00">created_date</text>
<polygon fill="none" stroke="black" points="158,-503.75 158,-525.75 254.75,-525.75 254.75,-503.75 158,-503.75"/>
<text text-anchor="start" x="161" y="-511.05" font-family="Helvetica,sans-Serif" font-size="11.00">timestamp[19]</text>
<polygon fill="none" stroke="black" points="10,-481.75 10,-503.75 158,-503.75 158,-481.75 10,-481.75"/>
<text text-anchor="start" x="30" y="-488.3" font-family="Helvetica,sans-Serif" font-size="11.00">last_modified_date</text>
<polygon fill="none" stroke="black" points="158,-481.75 158,-503.75 254.75,-503.75 254.75,-481.75 158,-481.75"/>
<text text-anchor="start" x="161" y="-489.05" font-family="Helvetica,sans-Serif" font-size="11.00">timestamp[19]</text>
<polygon fill="none" stroke="black" points="10,-459.75 10,-481.75 158,-481.75 158,-459.75 10,-459.75"/>
<text text-anchor="start" x="30" y="-466.3" font-family="Helvetica,sans-Serif" font-size="11.00">archive_identifier</text>
<polygon fill="none" stroke="black" points="158,-459.75 158,-481.75 254.75,-481.75 254.75,-459.75 158,-459.75"/>
<text text-anchor="start" x="161" y="-467.05" font-family="Helvetica,sans-Serif" font-size="11.00">varchar[255]</text>
<polygon fill="none" stroke="black" points="10,-437.75 10,-459.75 158,-459.75 158,-437.75 10,-437.75"/>
<text text-anchor="start" x="30" y="-444.3" font-family="Helvetica,sans-Serif" font-size="11.00">type</text>
<polygon fill="none" stroke="black" points="158,-437.75 158,-459.75 254.75,-459.75 254.75,-437.75 158,-437.75"/>
<text text-anchor="start" x="161" y="-445.05" font-family="Helvetica,sans-Serif" font-size="11.00">varchar[255]</text>
<polygon fill="none" stroke="black" points="10,-415.75 10,-437.75 158,-437.75 158,-415.75 10,-415.75"/>
<text text-anchor="start" x="30" y="-422.3" font-family="Helvetica,sans-Serif" font-size="11.00">source</text>
<polygon fill="none" stroke="black" points="158,-415.75 158,-437.75 254.75,-437.75 254.75,-415.75 158,-415.75"/>
<text text-anchor="start" x="161" y="-423.05" font-family="Helvetica,sans-Serif" font-size="11.00">varchar[255]</text>
<polygon fill="#ffffff" stroke="none" points="10,-396.25 10,-415.75 90,-415.75 90,-396.25 10,-396.25"/>
<polygon fill="none" stroke="black" points="10,-396.25 10,-415.75 90,-415.75 90,-396.25 10,-396.25"/>
<text text-anchor="start" x="13" y="-402.3" font-family="Helvetica,sans-Serif" font-size="11.00">&lt; 0</text>
<polygon fill="#ffffff" stroke="none" points="90,-396.25 90,-415.75 158,-415.75 158,-396.25 90,-396.25"/>
<polygon fill="none" stroke="black" points="90,-396.25 90,-415.75 158,-415.75 158,-396.25 90,-396.25"/>
<text text-anchor="start" x="147.5" y="-402.3" font-family="Helvetica,sans-Serif" font-size="11.00"> &#160;</text>
<polygon fill="#ffffff" stroke="none" points="158,-396.25 158,-415.75 254.75,-415.75 254.75,-396.25 158,-396.25"/>
<polygon fill="none" stroke="black" points="158,-396.25 158,-415.75 254.75,-415.75 254.75,-396.25 158,-396.25"/>
<text text-anchor="start" x="232.25" y="-402.3" font-family="Helvetica,sans-Serif" font-size="11.00">8 &gt;</text>
<polygon fill="none" stroke="black" stroke-width="2" points="9,-395.25 9,-880.25 264.75,-880.25 264.75,-395.25 9,-395.25"/>
</a>
</g>
</g>
<!-- doc_archive_collection&#45;&gt;doc_archive_item -->
<g id="edge1" class="edge">
<title>doc_archive_collection:w&#45;&gt;doc_archive_item:e</title>
<path fill="none" stroke="black" d="M304.38,-1288.35C233.57,-1243.21 350.55,-844.75 255.75,-844.75"/>
<polygon fill="black" stroke="black" points="311.22,-1290.26 317.96,-1295.88 315.4,-1291.43 318.61,-1292.32 318.61,-1292.32 318.61,-1292.32 315.4,-1291.43 319.89,-1288.94 311.22,-1290.26"/>
<ellipse fill="none" stroke="black" cx="306.48" cy="-1288.94" rx="3.2" ry="3.2"/>
</g>
<!-- doc_archive_contributor -->
<g id="node3" class="node">
<title>doc_archive_contributor</title>
<g id="a_node3"><a xlink:href="../../tables/doc_archive_contributor.html" xlink:title="doc_archive_contributor" target="_top">
<polygon fill="#ffffff" stroke="none" points="314.75,-1114.5 314.75,-1221 523.5,-1221 523.5,-1114.5 314.75,-1114.5"/>
<polygon fill="#f5f5f5" stroke="none" points="314.75,-1197.5 314.75,-1221 523.5,-1221 523.5,-1197.5 314.75,-1197.5"/>
<polygon fill="none" stroke="black" points="314.75,-1197.5 314.75,-1221 523.5,-1221 523.5,-1197.5 314.75,-1197.5"/>
<text text-anchor="start" x="319.75" y="-1206.55" font-family="Helvetica,sans-Serif" font-weight="bold" font-size="11.00">doc_archive_contributor</text>
<text text-anchor="start" x="481.75" y="-1205.55" font-family="Helvetica,sans-Serif" font-size="11.00">[table]</text>
<polygon fill="none" stroke="black" points="314.75,-1175.5 314.75,-1197.5 523.5,-1197.5 523.5,-1175.5 314.75,-1175.5"/>
<image xlink:href="../../images/primaryKeys.png" width="11px" height="12px" preserveAspectRatio="xMinYMin meet" x="319.75" y="-1192.5"/>
<text text-anchor="start" x="347.62" y="-1182.05" font-family="Helvetica,sans-Serif" font-size="11.00">identifier</text>
<polygon fill="#ffffff" stroke="none" points="314.75,-1153.5 314.75,-1175.5 523.5,-1175.5 523.5,-1153.5 314.75,-1153.5"/>
<polygon fill="none" stroke="black" points="314.75,-1153.5 314.75,-1175.5 523.5,-1175.5 523.5,-1153.5 314.75,-1153.5"/>
<image xlink:href="../../images/foreignKeys.png" width="11px" height="12px" preserveAspectRatio="xMinYMin meet" x="319.75" y="-1170.5"/>
<text text-anchor="start" x="347.62" y="-1160.05" font-family="Helvetica,sans-Serif" font-size="11.00">item</text>
<polygon fill="none" stroke="black" points="314.75,-1134 314.75,-1153.5 523.5,-1153.5 523.5,-1134 314.75,-1134"/>
<text text-anchor="start" x="317.75" y="-1140.05" font-family="Helvetica,sans-Serif" font-size="11.00">...</text>
<polygon fill="#ffffff" stroke="none" points="314.75,-1114.5 314.75,-1134 392.33,-1134 392.33,-1114.5 314.75,-1114.5"/>
<polygon fill="none" stroke="black" points="314.75,-1114.5 314.75,-1134 392.33,-1134 392.33,-1114.5 314.75,-1114.5"/>
<text text-anchor="start" x="317.75" y="-1120.55" font-family="Helvetica,sans-Serif" font-size="11.00">&lt; 1</text>
<polygon fill="#ffffff" stroke="none" points="392.33,-1114.5 392.33,-1134 457.92,-1134 457.92,-1114.5 392.33,-1114.5"/>
<polygon fill="none" stroke="black" points="392.33,-1114.5 392.33,-1134 457.92,-1134 457.92,-1114.5 392.33,-1114.5"/>
<text text-anchor="start" x="447.42" y="-1120.55" font-family="Helvetica,sans-Serif" font-size="11.00"> &#160;</text>
<polygon fill="#ffffff" stroke="none" points="457.92,-1114.5 457.92,-1134 523.5,-1134 523.5,-1114.5 457.92,-1114.5"/>
<polygon fill="none" stroke="black" points="457.92,-1114.5 457.92,-1134 523.5,-1134 523.5,-1114.5 457.92,-1114.5"/>
<text text-anchor="start" x="513" y="-1120.55" font-family="Helvetica,sans-Serif" font-size="11.00"> &#160;</text>
</a>
</g>
</g>
<!-- doc_archive_contributor&#45;&gt;doc_archive_item -->
<g id="edge2" class="edge">
<title>doc_archive_contributor:w&#45;&gt;doc_archive_item:e</title>
<path fill="none" stroke="black" d="M298.16,-1163C187.21,-1139.41 394.4,-844.75 255.75,-844.75"/>
<polygon fill="black" stroke="black" points="305.45,-1163.7 313.07,-1168.05 309.77,-1164.12 313.08,-1164.44 313.08,-1164.44 313.08,-1164.44 309.77,-1164.12 313.76,-1160.88 305.45,-1163.7"/>
<ellipse fill="none" stroke="black" cx="300.56" cy="-1163.23" rx="3.2" ry="3.2"/>
</g>
<!-- doc_archive_coverage -->
<g id="node4" class="node">
<title>doc_archive_coverage</title>
<g id="a_node4"><a xlink:href="../../tables/doc_archive_coverage.html" xlink:title="doc_archive_coverage" target="_top">
<polygon fill="#ffffff" stroke="none" points="322.25,-986.5 322.25,-1093 516,-1093 516,-986.5 322.25,-986.5"/>
<polygon fill="#f5f5f5" stroke="none" points="322.25,-1069.5 322.25,-1093 516,-1093 516,-1069.5 322.25,-1069.5"/>
<polygon fill="none" stroke="black" points="322.25,-1069.5 322.25,-1093 516,-1093 516,-1069.5 322.25,-1069.5"/>
<text text-anchor="start" x="327.25" y="-1078.55" font-family="Helvetica,sans-Serif" font-weight="bold" font-size="11.00">doc_archive_coverage</text>
<text text-anchor="start" x="474.25" y="-1077.55" font-family="Helvetica,sans-Serif" font-size="11.00">[table]</text>
<polygon fill="none" stroke="black" points="322.25,-1047.5 322.25,-1069.5 516,-1069.5 516,-1047.5 322.25,-1047.5"/>
<image xlink:href="../../images/primaryKeys.png" width="11px" height="12px" preserveAspectRatio="xMinYMin meet" x="327.25" y="-1064.5"/>
<text text-anchor="start" x="355.12" y="-1054.05" font-family="Helvetica,sans-Serif" font-size="11.00">identifier</text>
<polygon fill="#ffffff" stroke="none" points="322.25,-1025.5 322.25,-1047.5 516,-1047.5 516,-1025.5 322.25,-1025.5"/>
<polygon fill="none" stroke="black" points="322.25,-1025.5 322.25,-1047.5 516,-1047.5 516,-1025.5 322.25,-1025.5"/>
<image xlink:href="../../images/foreignKeys.png" width="11px" height="12px" preserveAspectRatio="xMinYMin meet" x="327.25" y="-1042.5"/>
<text text-anchor="start" x="355.12" y="-1032.05" font-family="Helvetica,sans-Serif" font-size="11.00">item</text>
<polygon fill="none" stroke="black" points="322.25,-1006 322.25,-1025.5 516,-1025.5 516,-1006 322.25,-1006"/>
<text text-anchor="start" x="325.25" y="-1012.05" font-family="Helvetica,sans-Serif" font-size="11.00">...</text>
<polygon fill="#ffffff" stroke="none" points="322.25,-986.5 322.25,-1006 394.83,-1006 394.83,-986.5 322.25,-986.5"/>
<polygon fill="none" stroke="black" points="322.25,-986.5 322.25,-1006 394.83,-1006 394.83,-986.5 322.25,-986.5"/>
<text text-anchor="start" x="325.25" y="-992.55" font-family="Helvetica,sans-Serif" font-size="11.00">&lt; 1</text>
<polygon fill="#ffffff" stroke="none" points="394.83,-986.5 394.83,-1006 455.42,-1006 455.42,-986.5 394.83,-986.5"/>
<polygon fill="none" stroke="black" points="394.83,-986.5 394.83,-1006 455.42,-1006 455.42,-986.5 394.83,-986.5"/>
<text text-anchor="start" x="444.92" y="-992.55" font-family="Helvetica,sans-Serif" font-size="11.00"> &#160;</text>
<polygon fill="#ffffff" stroke="none" points="455.42,-986.5 455.42,-1006 516,-1006 516,-986.5 455.42,-986.5"/>
<polygon fill="none" stroke="black" points="455.42,-986.5 455.42,-1006 516,-1006 516,-986.5 455.42,-986.5"/>
<text text-anchor="start" x="505.5" y="-992.55" font-family="Helvetica,sans-Serif" font-size="11.00"> &#160;</text>
</a>
</g>
</g>
<!-- doc_archive_coverage&#45;&gt;doc_archive_item -->
<g id="edge3" class="edge">
<title>doc_archive_coverage:w&#45;&gt;doc_archive_item:e</title>
<path fill="none" stroke="black" d="M305.9,-1034.08C245.51,-1011.88 339.83,-844.75 255.75,-844.75"/>
<polygon fill="black" stroke="black" points="313.02,-1035.2 320.36,-1040 317.3,-1035.88 320.59,-1036.4 320.59,-1036.4 320.59,-1036.4 317.3,-1035.88 321.48,-1032.89 313.02,-1035.2"/>
<ellipse fill="none" stroke="black" cx="308.16" cy="-1034.43" rx="3.2" ry="3.2"/>
</g>
<!-- doc_archive_creator -->
<g id="node5" class="node">
<title>doc_archive_creator</title>
<g id="a_node5"><a xlink:href="../../tables/doc_archive_creator.html" xlink:title="doc_archive_creator" target="_top">
<polygon fill="#ffffff" stroke="none" points="328.75,-858.5 328.75,-965 509.5,-965 509.5,-858.5 328.75,-858.5"/>
<polygon fill="#f5f5f5" stroke="none" points="328.75,-941.5 328.75,-965 509.5,-965 509.5,-941.5 328.75,-941.5"/>
<polygon fill="none" stroke="black" points="328.75,-941.5 328.75,-965 509.5,-965 509.5,-941.5 328.75,-941.5"/>
<text text-anchor="start" x="333.75" y="-950.55" font-family="Helvetica,sans-Serif" font-weight="bold" font-size="11.00">doc_archive_creator</text>
<text text-anchor="start" x="467.75" y="-949.55" font-family="Helvetica,sans-Serif" font-size="11.00">[table]</text>
<polygon fill="none" stroke="black" points="328.75,-919.5 328.75,-941.5 509.5,-941.5 509.5,-919.5 328.75,-919.5"/>
<image xlink:href="../../images/primaryKeys.png" width="11px" height="12px" preserveAspectRatio="xMinYMin meet" x="333.75" y="-936.5"/>
<text text-anchor="start" x="361.62" y="-926.05" font-family="Helvetica,sans-Serif" font-size="11.00">identifier</text>
<polygon fill="#ffffff" stroke="none" points="328.75,-897.5 328.75,-919.5 509.5,-919.5 509.5,-897.5 328.75,-897.5"/>
<polygon fill="none" stroke="black" points="328.75,-897.5 328.75,-919.5 509.5,-919.5 509.5,-897.5 328.75,-897.5"/>
<image xlink:href="../../images/foreignKeys.png" width="11px" height="12px" preserveAspectRatio="xMinYMin meet" x="333.75" y="-914.5"/>
<text text-anchor="start" x="361.62" y="-904.05" font-family="Helvetica,sans-Serif" font-size="11.00">item</text>
<polygon fill="none" stroke="black" points="328.75,-878 328.75,-897.5 509.5,-897.5 509.5,-878 328.75,-878"/>
<text text-anchor="start" x="331.75" y="-884.05" font-family="Helvetica,sans-Serif" font-size="11.00">...</text>
<polygon fill="#ffffff" stroke="none" points="328.75,-858.5 328.75,-878 397,-878 397,-858.5 328.75,-858.5"/>
<polygon fill="none" stroke="black" points="328.75,-858.5 328.75,-878 397,-878 397,-858.5 328.75,-858.5"/>
<text text-anchor="start" x="331.75" y="-864.55" font-family="Helvetica,sans-Serif" font-size="11.00">&lt; 1</text>
<polygon fill="#ffffff" stroke="none" points="397,-858.5 397,-878 453.25,-878 453.25,-858.5 397,-858.5"/>
<polygon fill="none" stroke="black" points="397,-858.5 397,-878 453.25,-878 453.25,-858.5 397,-858.5"/>
<text text-anchor="start" x="442.75" y="-864.55" font-family="Helvetica,sans-Serif" font-size="11.00"> &#160;</text>
<polygon fill="#ffffff" stroke="none" points="453.25,-858.5 453.25,-878 509.5,-878 509.5,-858.5 453.25,-858.5"/>
<polygon fill="none" stroke="black" points="453.25,-858.5 453.25,-878 509.5,-878 509.5,-858.5 453.25,-858.5"/>
<text text-anchor="start" x="499" y="-864.55" font-family="Helvetica,sans-Serif" font-size="11.00"> &#160;</text>
</a>
</g>
</g>
<!-- doc_archive_creator&#45;&gt;doc_archive_item -->
<g id="edge4" class="edge">
<title>doc_archive_creator:w&#45;&gt;doc_archive_item:e</title>
<path fill="none" stroke="black" d="M312.4,-904.89C287.73,-891.4 292.31,-844.75 255.75,-844.75"/>
<polygon fill="black" stroke="black" points="319.64,-906.59 326.6,-911.93 323.86,-907.58 327.1,-908.35 327.1,-908.35 327.1,-908.35 323.86,-907.58 328.25,-904.92 319.64,-906.59"/>
<ellipse fill="none" stroke="black" cx="314.85" cy="-905.47" rx="3.2" ry="3.2"/>
</g>
<!-- doc_archive_header -->
<g id="node6" class="node">
<title>doc_archive_header</title>
<g id="a_node6"><a xlink:href="../../tables/doc_archive_header.html" xlink:title="doc_archive_header" target="_top">
<polygon fill="#ffffff" stroke="none" points="329.25,-730.5 329.25,-837 509,-837 509,-730.5 329.25,-730.5"/>
<polygon fill="#f5f5f5" stroke="none" points="329.25,-813.5 329.25,-837 509,-837 509,-813.5 329.25,-813.5"/>
<polygon fill="none" stroke="black" points="329.25,-813.5 329.25,-837 509,-837 509,-813.5 329.25,-813.5"/>
<text text-anchor="start" x="334.25" y="-822.55" font-family="Helvetica,sans-Serif" font-weight="bold" font-size="11.00">doc_archive_header</text>
<text text-anchor="start" x="467.25" y="-821.55" font-family="Helvetica,sans-Serif" font-size="11.00">[table]</text>
<polygon fill="none" stroke="black" points="329.25,-791.5 329.25,-813.5 509,-813.5 509,-791.5 329.25,-791.5"/>
<image xlink:href="../../images/primaryKeys.png" width="11px" height="12px" preserveAspectRatio="xMinYMin meet" x="334.25" y="-808.5"/>
<text text-anchor="start" x="362.12" y="-798.05" font-family="Helvetica,sans-Serif" font-size="11.00">identifier</text>
<polygon fill="#ffffff" stroke="none" points="329.25,-769.5 329.25,-791.5 509,-791.5 509,-769.5 329.25,-769.5"/>
<polygon fill="none" stroke="black" points="329.25,-769.5 329.25,-791.5 509,-791.5 509,-769.5 329.25,-769.5"/>
<image xlink:href="../../images/foreignKeys.png" width="11px" height="12px" preserveAspectRatio="xMinYMin meet" x="334.25" y="-786.5"/>
<text text-anchor="start" x="362.12" y="-776.05" font-family="Helvetica,sans-Serif" font-size="11.00">item</text>
<polygon fill="none" stroke="black" points="329.25,-750 329.25,-769.5 509,-769.5 509,-750 329.25,-750"/>
<text text-anchor="start" x="332.25" y="-756.05" font-family="Helvetica,sans-Serif" font-size="11.00">...</text>
<polygon fill="#ffffff" stroke="none" points="329.25,-730.5 329.25,-750 397.17,-750 397.17,-730.5 329.25,-730.5"/>
<polygon fill="none" stroke="black" points="329.25,-730.5 329.25,-750 397.17,-750 397.17,-730.5 329.25,-730.5"/>
<text text-anchor="start" x="332.25" y="-736.55" font-family="Helvetica,sans-Serif" font-size="11.00">&lt; 1</text>
<polygon fill="#ffffff" stroke="none" points="397.17,-730.5 397.17,-750 453.08,-750 453.08,-730.5 397.17,-730.5"/>
<polygon fill="none" stroke="black" points="397.17,-730.5 397.17,-750 453.08,-750 453.08,-730.5 397.17,-730.5"/>
<text text-anchor="start" x="442.58" y="-736.55" font-family="Helvetica,sans-Serif" font-size="11.00"> &#160;</text>
<polygon fill="#ffffff" stroke="none" points="453.08,-730.5 453.08,-750 509,-750 509,-730.5 453.08,-730.5"/>
<polygon fill="none" stroke="black" points="453.08,-730.5 453.08,-750 509,-750 509,-730.5 453.08,-730.5"/>
<text text-anchor="start" x="498.5" y="-736.55" font-family="Helvetica,sans-Serif" font-size="11.00"> &#160;</text>
</a>
</g>
</g>
<!-- doc_archive_header&#45;&gt;doc_archive_item -->
<g id="edge5" class="edge">
<title>doc_archive_header:w&#45;&gt;doc_archive_item:e</title>
<path fill="none" stroke="black" d="M313.13,-783.95C287.9,-797.3 292.75,-844.75 255.75,-844.75"/>
<polygon fill="black" stroke="black" points="320.12,-782.36 328.73,-784.08 324.35,-781.39 327.6,-780.65 327.6,-780.65 327.6,-780.65 324.35,-781.39 327.12,-777.06 320.12,-782.36"/>
<ellipse fill="none" stroke="black" cx="315.33" cy="-783.45" rx="3.2" ry="3.2"/>
</g>
<!-- doc_archive_language -->
<g id="node7" class="node">
<title>doc_archive_language</title>
<g id="a_node7"><a xlink:href="../../tables/doc_archive_language.html" xlink:title="doc_archive_language" target="_top">
<polygon fill="#ffffff" stroke="none" points="321.75,-602.5 321.75,-709 516.5,-709 516.5,-602.5 321.75,-602.5"/>
<polygon fill="#f5f5f5" stroke="none" points="321.75,-685.5 321.75,-709 516.5,-709 516.5,-685.5 321.75,-685.5"/>
<polygon fill="none" stroke="black" points="321.75,-685.5 321.75,-709 516.5,-709 516.5,-685.5 321.75,-685.5"/>
<text text-anchor="start" x="326.75" y="-694.55" font-family="Helvetica,sans-Serif" font-weight="bold" font-size="11.00">doc_archive_language</text>
<text text-anchor="start" x="474.75" y="-693.55" font-family="Helvetica,sans-Serif" font-size="11.00">[table]</text>
<polygon fill="none" stroke="black" points="321.75,-663.5 321.75,-685.5 516.5,-685.5 516.5,-663.5 321.75,-663.5"/>
<image xlink:href="../../images/primaryKeys.png" width="11px" height="12px" preserveAspectRatio="xMinYMin meet" x="326.75" y="-680.5"/>
<text text-anchor="start" x="354.62" y="-670.05" font-family="Helvetica,sans-Serif" font-size="11.00">identifier</text>
<polygon fill="#ffffff" stroke="none" points="321.75,-641.5 321.75,-663.5 516.5,-663.5 516.5,-641.5 321.75,-641.5"/>
<polygon fill="none" stroke="black" points="321.75,-641.5 321.75,-663.5 516.5,-663.5 516.5,-641.5 321.75,-641.5"/>
<image xlink:href="../../images/foreignKeys.png" width="11px" height="12px" preserveAspectRatio="xMinYMin meet" x="326.75" y="-658.5"/>
<text text-anchor="start" x="354.62" y="-648.05" font-family="Helvetica,sans-Serif" font-size="11.00">item</text>
<polygon fill="none" stroke="black" points="321.75,-622 321.75,-641.5 516.5,-641.5 516.5,-622 321.75,-622"/>
<text text-anchor="start" x="324.75" y="-628.05" font-family="Helvetica,sans-Serif" font-size="11.00">...</text>
<polygon fill="#ffffff" stroke="none" points="321.75,-602.5 321.75,-622 394.67,-622 394.67,-602.5 321.75,-602.5"/>
<polygon fill="none" stroke="black" points="321.75,-602.5 321.75,-622 394.67,-622 394.67,-602.5 321.75,-602.5"/>
<text text-anchor="start" x="324.75" y="-608.55" font-family="Helvetica,sans-Serif" font-size="11.00">&lt; 1</text>
<polygon fill="#ffffff" stroke="none" points="394.67,-602.5 394.67,-622 455.58,-622 455.58,-602.5 394.67,-602.5"/>
<polygon fill="none" stroke="black" points="394.67,-602.5 394.67,-622 455.58,-622 455.58,-602.5 394.67,-602.5"/>
<text text-anchor="start" x="445.08" y="-608.55" font-family="Helvetica,sans-Serif" font-size="11.00"> &#160;</text>
<polygon fill="#ffffff" stroke="none" points="455.58,-602.5 455.58,-622 516.5,-622 516.5,-602.5 455.58,-602.5"/>
<polygon fill="none" stroke="black" points="455.58,-602.5 455.58,-622 516.5,-622 516.5,-602.5 455.58,-602.5"/>
<text text-anchor="start" x="506" y="-608.55" font-family="Helvetica,sans-Serif" font-size="11.00"> &#160;</text>
</a>
</g>
</g>
<!-- doc_archive_language&#45;&gt;doc_archive_item -->
<g id="edge6" class="edge">
<title>doc_archive_language:w&#45;&gt;doc_archive_item:e</title>
<path fill="none" stroke="black" d="M305.38,-654.93C244.97,-677.19 339.96,-844.75 255.75,-844.75"/>
<polygon fill="black" stroke="black" points="312.52,-653.8 320.98,-656.11 316.8,-653.12 320.09,-652.6 320.09,-652.6 320.09,-652.6 316.8,-653.12 319.86,-649 312.52,-653.8"/>
<ellipse fill="none" stroke="black" cx="307.66" cy="-654.57" rx="3.2" ry="3.2"/>
</g>
<!-- doc_archive_subject -->
<g id="node8" class="node">
<title>doc_archive_subject</title>
<g id="a_node8"><a xlink:href="../../tables/doc_archive_subject.html" xlink:title="doc_archive_subject" target="_top">
<polygon fill="#ffffff" stroke="none" points="328.25,-474.5 328.25,-581 510,-581 510,-474.5 328.25,-474.5"/>
<polygon fill="#f5f5f5" stroke="none" points="328.25,-557.5 328.25,-581 510,-581 510,-557.5 328.25,-557.5"/>
<polygon fill="none" stroke="black" points="328.25,-557.5 328.25,-581 510,-581 510,-557.5 328.25,-557.5"/>
<text text-anchor="start" x="333.25" y="-566.55" font-family="Helvetica,sans-Serif" font-weight="bold" font-size="11.00">doc_archive_subject</text>
<text text-anchor="start" x="468.25" y="-565.55" font-family="Helvetica,sans-Serif" font-size="11.00">[table]</text>
<polygon fill="none" stroke="black" points="328.25,-535.5 328.25,-557.5 510,-557.5 510,-535.5 328.25,-535.5"/>
<image xlink:href="../../images/primaryKeys.png" width="11px" height="12px" preserveAspectRatio="xMinYMin meet" x="333.25" y="-552.5"/>
<text text-anchor="start" x="361.12" y="-542.05" font-family="Helvetica,sans-Serif" font-size="11.00">identifier</text>
<polygon fill="#ffffff" stroke="none" points="328.25,-513.5 328.25,-535.5 510,-535.5 510,-513.5 328.25,-513.5"/>
<polygon fill="none" stroke="black" points="328.25,-513.5 328.25,-535.5 510,-535.5 510,-513.5 328.25,-513.5"/>
<image xlink:href="../../images/foreignKeys.png" width="11px" height="12px" preserveAspectRatio="xMinYMin meet" x="333.25" y="-530.5"/>
<text text-anchor="start" x="361.12" y="-520.05" font-family="Helvetica,sans-Serif" font-size="11.00">item</text>
<polygon fill="none" stroke="black" points="328.25,-494 328.25,-513.5 510,-513.5 510,-494 328.25,-494"/>
<text text-anchor="start" x="331.25" y="-500.05" font-family="Helvetica,sans-Serif" font-size="11.00">...</text>
<polygon fill="#ffffff" stroke="none" points="328.25,-474.5 328.25,-494 396.83,-494 396.83,-474.5 328.25,-474.5"/>
<polygon fill="none" stroke="black" points="328.25,-474.5 328.25,-494 396.83,-494 396.83,-474.5 328.25,-474.5"/>
<text text-anchor="start" x="331.25" y="-480.55" font-family="Helvetica,sans-Serif" font-size="11.00">&lt; 1</text>
<polygon fill="#ffffff" stroke="none" points="396.83,-474.5 396.83,-494 453.42,-494 453.42,-474.5 396.83,-474.5"/>
<polygon fill="none" stroke="black" points="396.83,-474.5 396.83,-494 453.42,-494 453.42,-474.5 396.83,-474.5"/>
<text text-anchor="start" x="442.92" y="-480.55" font-family="Helvetica,sans-Serif" font-size="11.00"> &#160;</text>
<polygon fill="#ffffff" stroke="none" points="453.42,-474.5 453.42,-494 510,-494 510,-474.5 453.42,-474.5"/>
<polygon fill="none" stroke="black" points="453.42,-474.5 453.42,-494 510,-494 510,-474.5 453.42,-474.5"/>
<text text-anchor="start" x="499.5" y="-480.55" font-family="Helvetica,sans-Serif" font-size="11.00"> &#160;</text>
</a>
</g>
</g>
<!-- doc_archive_subject&#45;&gt;doc_archive_item -->
<g id="edge7" class="edge">
<title>doc_archive_subject:w&#45;&gt;doc_archive_item:e</title>
<path fill="none" stroke="black" d="M312.72,-530.06C265.05,-572.58 322.97,-844.75 255.75,-844.75"/>
<polygon fill="black" stroke="black" points="319.47,-527.48 328.22,-527.98 323.51,-525.93 326.63,-524.74 326.63,-524.74 326.63,-524.74 323.51,-525.93 325.65,-521.26 319.47,-527.48"/>
<ellipse fill="none" stroke="black" cx="314.87" cy="-529.23" rx="3.2" ry="3.2"/>
</g>
<!-- doc_unit -->
<g id="node9" class="node">
<title>doc_unit</title>
<g id="a_node9"><a xlink:href="../../tables/doc_unit.html" xlink:title="doc_unit" target="_top">
<polygon fill="#ffffff" stroke="none" points="325.62,-38.5 325.62,-453 512.62,-453 512.62,-38.5 325.62,-38.5"/>
<polygon fill="#f5f5f5" stroke="none" points="325.62,-429.5 325.62,-453 512.62,-453 512.62,-429.5 325.62,-429.5"/>
<polygon fill="none" stroke="black" points="325.62,-429.5 325.62,-453 512.62,-453 512.62,-429.5 325.62,-429.5"/>
<text text-anchor="start" x="330.62" y="-438.55" font-family="Helvetica,sans-Serif" font-weight="bold" font-size="11.00">doc_unit</text>
<text text-anchor="start" x="470.88" y="-437.55" font-family="Helvetica,sans-Serif" font-size="11.00">[table]</text>
<polygon fill="none" stroke="black" points="325.62,-407.5 325.62,-429.5 512.62,-429.5 512.62,-407.5 325.62,-407.5"/>
<image xlink:href="../../images/primaryKeys.png" width="11px" height="12px" preserveAspectRatio="xMinYMin meet" x="330.625" y="-424.5"/>
<text text-anchor="start" x="345.62" y="-414.05" font-family="Helvetica,sans-Serif" font-size="11.00">identifier</text>
<polygon fill="#ffffff" stroke="none" points="325.62,-385.5 325.62,-407.5 512.62,-407.5 512.62,-385.5 325.62,-385.5"/>
<polygon fill="none" stroke="black" points="325.62,-385.5 325.62,-407.5 512.62,-407.5 512.62,-385.5 325.62,-385.5"/>
<text text-anchor="start" x="345.62" y="-392.05" font-family="Helvetica,sans-Serif" font-size="11.00">pgcn_id</text>
<polygon fill="#ffffff" stroke="none" points="325.62,-363.5 325.62,-385.5 512.62,-385.5 512.62,-363.5 325.62,-363.5"/>
<polygon fill="none" stroke="black" points="325.62,-363.5 325.62,-385.5 512.62,-385.5 512.62,-363.5 325.62,-363.5"/>
<image xlink:href="../../images/foreignKeys.png" width="11px" height="12px" preserveAspectRatio="xMinYMin meet" x="330.625" y="-380.5"/>
<text text-anchor="start" x="345.62" y="-370.05" font-family="Helvetica,sans-Serif" font-size="11.00">library</text>
<polygon fill="#ffffff" stroke="none" points="325.62,-341.5 325.62,-363.5 512.62,-363.5 512.62,-341.5 325.62,-341.5"/>
<polygon fill="none" stroke="black" points="325.62,-341.5 325.62,-363.5 512.62,-363.5 512.62,-341.5 325.62,-341.5"/>
<image xlink:href="../../images/foreignKeys.png" width="11px" height="12px" preserveAspectRatio="xMinYMin meet" x="330.625" y="-358.5"/>
<text text-anchor="start" x="345.62" y="-348.05" font-family="Helvetica,sans-Serif" font-size="11.00">project</text>
<polygon fill="#ffffff" stroke="none" points="325.62,-319.5 325.62,-341.5 512.62,-341.5 512.62,-319.5 325.62,-319.5"/>
<polygon fill="none" stroke="black" points="325.62,-319.5 325.62,-341.5 512.62,-341.5 512.62,-319.5 325.62,-319.5"/>
<text text-anchor="start" x="345.62" y="-326.05" font-family="Helvetica,sans-Serif" font-size="11.00">state</text>
<polygon fill="#ffffff" stroke="none" points="325.62,-297.5 325.62,-319.5 512.62,-319.5 512.62,-297.5 325.62,-297.5"/>
<polygon fill="none" stroke="black" points="325.62,-297.5 325.62,-319.5 512.62,-319.5 512.62,-297.5 325.62,-297.5"/>
<image xlink:href="../../images/foreignKeys.png" width="11px" height="12px" preserveAspectRatio="xMinYMin meet" x="330.625" y="-314.5"/>
<text text-anchor="start" x="345.62" y="-304.05" font-family="Helvetica,sans-Serif" font-size="11.00">lot</text>
<polygon fill="#ffffff" stroke="none" points="325.62,-275.5 325.62,-297.5 512.62,-297.5 512.62,-275.5 325.62,-275.5"/>
<polygon fill="none" stroke="black" points="325.62,-275.5 325.62,-297.5 512.62,-297.5 512.62,-275.5 325.62,-275.5"/>
<image xlink:href="../../images/foreignKeys.png" width="11px" height="12px" preserveAspectRatio="xMinYMin meet" x="330.625" y="-292.5"/>
<text text-anchor="start" x="345.62" y="-282.05" font-family="Helvetica,sans-Serif" font-size="11.00">collection_omeka</text>
<polygon fill="#ffffff" stroke="none" points="325.62,-253.5 325.62,-275.5 512.62,-275.5 512.62,-253.5 325.62,-253.5"/>
<polygon fill="none" stroke="black" points="325.62,-253.5 325.62,-275.5 512.62,-275.5 512.62,-253.5 325.62,-253.5"/>
<image xlink:href="../../images/foreignKeys.png" width="11px" height="12px" preserveAspectRatio="xMinYMin meet" x="330.625" y="-270.5"/>
<text text-anchor="start" x="345.62" y="-260.05" font-family="Helvetica,sans-Serif" font-size="11.00">items_omeka</text>
<polygon fill="#ffffff" stroke="none" points="325.62,-231.5 325.62,-253.5 512.62,-253.5 512.62,-231.5 325.62,-231.5"/>
<polygon fill="none" stroke="black" points="325.62,-231.5 325.62,-253.5 512.62,-253.5 512.62,-231.5 325.62,-231.5"/>
<image xlink:href="../../images/foreignKeys.png" width="11px" height="12px" preserveAspectRatio="xMinYMin meet" x="330.625" y="-248.5"/>
<text text-anchor="start" x="345.62" y="-238.05" font-family="Helvetica,sans-Serif" font-size="11.00">parent</text>
<polygon fill="#ffffff" stroke="none" points="325.62,-209.5 325.62,-231.5 512.62,-231.5 512.62,-209.5 325.62,-209.5"/>
<polygon fill="none" stroke="black" points="325.62,-209.5 325.62,-231.5 512.62,-231.5 512.62,-209.5 325.62,-209.5"/>
<image xlink:href="../../images/foreignKeys.png" width="11px" height="12px" preserveAspectRatio="xMinYMin meet" x="330.625" y="-226.5"/>
<text text-anchor="start" x="345.62" y="-216.05" font-family="Helvetica,sans-Serif" font-size="11.00">active_ocr_lang</text>
<polygon fill="#ffffff" stroke="none" points="325.62,-187.5 325.62,-209.5 512.62,-209.5 512.62,-187.5 325.62,-187.5"/>
<polygon fill="none" stroke="black" points="325.62,-187.5 325.62,-209.5 512.62,-209.5 512.62,-187.5 325.62,-187.5"/>
<image xlink:href="../../images/foreignKeys.png" width="11px" height="12px" preserveAspectRatio="xMinYMin meet" x="330.625" y="-204.5"/>
<text text-anchor="start" x="345.62" y="-194.05" font-family="Helvetica,sans-Serif" font-size="11.00">collection_ia</text>
<polygon fill="#ffffff" stroke="none" points="325.62,-165.5 325.62,-187.5 512.62,-187.5 512.62,-165.5 325.62,-165.5"/>
<polygon fill="none" stroke="black" points="325.62,-165.5 325.62,-187.5 512.62,-187.5 512.62,-165.5 325.62,-165.5"/>
<image xlink:href="../../images/foreignKeys.png" width="11px" height="12px" preserveAspectRatio="xMinYMin meet" x="330.625" y="-182.5"/>
<text text-anchor="start" x="345.62" y="-172.05" font-family="Helvetica,sans-Serif" font-size="11.00">classement_pac</text>
<polygon fill="#ffffff" stroke="none" points="325.62,-143.5 325.62,-165.5 512.62,-165.5 512.62,-143.5 325.62,-143.5"/>
<polygon fill="none" stroke="black" points="325.62,-143.5 325.62,-165.5 512.62,-165.5 512.62,-143.5 325.62,-143.5"/>
<image xlink:href="../../images/foreignKeys.png" width="11px" height="12px" preserveAspectRatio="xMinYMin meet" x="330.625" y="-160.5"/>
<text text-anchor="start" x="345.62" y="-150.05" font-family="Helvetica,sans-Serif" font-size="11.00">sibling</text>
<polygon fill="#ffffff" stroke="none" points="325.62,-121.5 325.62,-143.5 512.62,-143.5 512.62,-121.5 325.62,-121.5"/>
<polygon fill="none" stroke="black" points="325.62,-121.5 325.62,-143.5 512.62,-143.5 512.62,-121.5 325.62,-121.5"/>
<image xlink:href="../../images/foreignKeys.png" width="11px" height="12px" preserveAspectRatio="xMinYMin meet" x="330.625" y="-138.5"/>
<text text-anchor="start" x="345.62" y="-128.05" font-family="Helvetica,sans-Serif" font-size="11.00">export_data</text>
<polygon fill="#ffffff" stroke="none" points="325.62,-99.5 325.62,-121.5 512.62,-121.5 512.62,-99.5 325.62,-99.5"/>
<polygon fill="none" stroke="black" points="325.62,-99.5 325.62,-121.5 512.62,-121.5 512.62,-99.5 325.62,-99.5"/>
<image xlink:href="../../images/foreignKeys.png" width="11px" height="12px" preserveAspectRatio="xMinYMin meet" x="330.625" y="-116.5"/>
<text text-anchor="start" x="345.62" y="-106.05" font-family="Helvetica,sans-Serif" font-size="11.00">archive_item</text>
<polygon fill="#ffffff" stroke="none" points="325.62,-77.5 325.62,-99.5 512.62,-99.5 512.62,-77.5 325.62,-77.5"/>
<polygon fill="none" stroke="black" points="325.62,-77.5 325.62,-99.5 512.62,-99.5 512.62,-77.5 325.62,-77.5"/>
<image xlink:href="../../images/foreignKeys.png" width="11px" height="12px" preserveAspectRatio="xMinYMin meet" x="330.625" y="-94.5"/>
<text text-anchor="start" x="345.62" y="-84.05" font-family="Helvetica,sans-Serif" font-size="11.00">workflow</text>
<polygon fill="none" stroke="black" points="325.62,-58 325.62,-77.5 512.62,-77.5 512.62,-58 325.62,-58"/>
<text text-anchor="start" x="328.62" y="-64.05" font-family="Helvetica,sans-Serif" font-size="11.00">...</text>
<polygon fill="#ffffff" stroke="none" points="325.62,-38.5 325.62,-58 394.21,-58 394.21,-38.5 325.62,-38.5"/>
<polygon fill="none" stroke="black" points="325.62,-38.5 325.62,-58 394.21,-58 394.21,-38.5 325.62,-38.5"/>
<text text-anchor="start" x="328.62" y="-44.55" font-family="Helvetica,sans-Serif" font-size="11.00">&lt; 13</text>
<polygon fill="#ffffff" stroke="none" points="394.21,-38.5 394.21,-58 444.04,-58 444.04,-38.5 394.21,-38.5"/>
<polygon fill="none" stroke="black" points="394.21,-38.5 394.21,-58 444.04,-58 444.04,-38.5 394.21,-38.5"/>
<text text-anchor="start" x="433.54" y="-44.55" font-family="Helvetica,sans-Serif" font-size="11.00"> &#160;</text>
<polygon fill="#ffffff" stroke="none" points="444.04,-38.5 444.04,-58 512.62,-58 512.62,-38.5 444.04,-38.5"/>
<polygon fill="none" stroke="black" points="444.04,-38.5 444.04,-58 512.62,-58 512.62,-38.5 444.04,-38.5"/>
<text text-anchor="start" x="483.38" y="-44.55" font-family="Helvetica,sans-Serif" font-size="11.00">11 &gt;</text>
</a>
</g>
</g>
<!-- doc_unit&#45;&gt;doc_archive_item -->
<g id="edge8" class="edge">
<title>doc_unit:w&#45;&gt;doc_archive_item:e</title>
<path fill="none" stroke="black" d="M311.25,-118.75C253.87,-199.41 332.57,-844.75 255.75,-844.75"/>
<polygon fill="black" stroke="black" points="317.53,-114.87 326.23,-113.74 321.22,-112.6 324.06,-110.85 324.06,-110.85 324.06,-110.85 321.22,-112.6 322.45,-107.61 317.53,-114.87"/>
<ellipse fill="none" stroke="black" cx="313.34" cy="-117.45" rx="3.2" ry="3.2"/>
</g>
</g>
</svg>
