<?xml version="1.0" encoding="UTF-8" standalone="no"?>
<!DOCTYPE svg PUBLIC "-//W3C//DTD SVG 1.1//EN"
 "http://www.w3.org/Graphics/SVG/1.1/DTD/svg11.dtd">
<!-- Generated by graphviz version 12.2.0 (0)
 -->
<!-- Title: oneDegreeRelationshipsDiagram Pages: 1 -->
<svg width="890pt" height="331pt"
 viewBox="0.00 0.00 889.75 331.25" xmlns="http://www.w3.org/2000/svg" xmlns:xlink="http://www.w3.org/1999/xlink">
<g id="graph0" class="graph" transform="scale(1 1) rotate(0) translate(4 327.25)">
<title>oneDegreeRelationshipsDiagram</title>
<polygon fill="#ffffff" stroke="none" points="-4,4 -4,-327.25 885.75,-327.25 885.75,4 -4,4"/>
<text text-anchor="middle" x="79.25" y="-7.05" font-family="Helvetica,sans-Serif" font-size="11.00">Generated by SchemaSpy</text>
<!-- doc_condreport_desc -->
<g id="node1" class="node">
<title>doc_condreport_desc</title>
<g id="a_node1"><a xlink:href="../../tables/doc_condreport_desc.html" xlink:title="doc_condreport_desc" target="_top">
<polygon fill="#ffffff" stroke="none" points="589.5,-52.25 589.5,-319.25 873.75,-319.25 873.75,-52.25 589.5,-52.25"/>
<polygon fill="#f5f5f5" stroke="none" points="591.5,-293.75 591.5,-317.25 871.75,-317.25 871.75,-293.75 591.5,-293.75"/>
<polygon fill="none" stroke="black" points="591.5,-293.75 591.5,-317.25 871.75,-317.25 871.75,-293.75 591.5,-293.75"/>
<text text-anchor="start" x="596.5" y="-302.8" font-family="Helvetica,sans-Serif" font-weight="bold" font-size="11.00">doc_condreport_desc</text>
<text text-anchor="start" x="830" y="-301.8" font-family="Helvetica,sans-Serif" font-size="11.00">[table]</text>
<polygon fill="none" stroke="black" points="591.5,-271.75 591.5,-293.75 753.5,-293.75 753.5,-271.75 591.5,-271.75"/>
<image xlink:href="../../images/primaryKeys.png" width="11px" height="12px" preserveAspectRatio="xMinYMin meet" x="596.5" y="-288.75"/>
<text text-anchor="start" x="611.5" y="-278.3" font-family="Helvetica,sans-Serif" font-size="11.00">identifier</text>
<polygon fill="none" stroke="black" points="753.5,-271.75 753.5,-293.75 856.5,-293.75 856.5,-271.75 753.5,-271.75"/>
<text text-anchor="start" x="756.5" y="-279.05" font-family="Helvetica,sans-Serif" font-size="11.00">varchar[191]</text>
<polygon fill="#ffffff" stroke="none" points="591.5,-249.75 591.5,-271.75 753.5,-271.75 753.5,-249.75 591.5,-249.75"/>
<polygon fill="none" stroke="black" points="591.5,-249.75 591.5,-271.75 753.5,-271.75 753.5,-249.75 591.5,-249.75"/>
<image xlink:href="../../images/foreignKeys.png" width="11px" height="12px" preserveAspectRatio="xMinYMin meet" x="596.5" y="-266.75"/>
<text text-anchor="start" x="611.5" y="-256.3" font-family="Helvetica,sans-Serif" font-size="11.00">property</text>
<polygon fill="none" stroke="black" points="753.5,-249.75 753.5,-271.75 856.5,-271.75 856.5,-249.75 753.5,-249.75"/>
<text text-anchor="start" x="756.5" y="-257.05" font-family="Helvetica,sans-Serif" font-size="11.00">varchar[191]</text>
<polygon fill="#ffffff" stroke="none" points="591.5,-227.75 591.5,-249.75 753.5,-249.75 753.5,-227.75 591.5,-227.75"/>
<polygon fill="none" stroke="black" points="591.5,-227.75 591.5,-249.75 753.5,-249.75 753.5,-227.75 591.5,-227.75"/>
<image xlink:href="../../images/foreignKeys.png" width="11px" height="12px" preserveAspectRatio="xMinYMin meet" x="596.5" y="-244.75"/>
<text text-anchor="start" x="611.5" y="-234.3" font-family="Helvetica,sans-Serif" font-size="11.00">value</text>
<polygon fill="none" stroke="black" points="753.5,-227.75 753.5,-249.75 856.5,-249.75 856.5,-227.75 753.5,-227.75"/>
<text text-anchor="start" x="756.5" y="-235.05" font-family="Helvetica,sans-Serif" font-size="11.00">varchar[191]</text>
<polygon fill="none" stroke="black" points="591.5,-205.75 591.5,-227.75 753.5,-227.75 753.5,-205.75 591.5,-205.75"/>
<text text-anchor="start" x="611.5" y="-212.3" font-family="Helvetica,sans-Serif" font-size="11.00">comment</text>
<polygon fill="none" stroke="black" points="753.5,-205.75 753.5,-227.75 856.5,-227.75 856.5,-205.75 753.5,-205.75"/>
<text text-anchor="start" x="756.5" y="-213.05" font-family="Helvetica,sans-Serif" font-size="11.00">text[65535]</text>
<polygon fill="#ffffff" stroke="none" points="591.5,-183.75 591.5,-205.75 753.5,-205.75 753.5,-183.75 591.5,-183.75"/>
<polygon fill="none" stroke="black" points="591.5,-183.75 591.5,-205.75 753.5,-205.75 753.5,-183.75 591.5,-183.75"/>
<image xlink:href="../../images/foreignKeys.png" width="11px" height="12px" preserveAspectRatio="xMinYMin meet" x="596.5" y="-200.75"/>
<text text-anchor="start" x="611.5" y="-190.3" font-family="Helvetica,sans-Serif" font-size="11.00">detail</text>
<polygon fill="none" stroke="black" points="753.5,-183.75 753.5,-205.75 856.5,-205.75 856.5,-183.75 753.5,-183.75"/>
<text text-anchor="start" x="756.5" y="-191.05" font-family="Helvetica,sans-Serif" font-size="11.00">varchar[191]</text>
<polygon fill="none" stroke="black" points="591.5,-161.75 591.5,-183.75 753.5,-183.75 753.5,-161.75 591.5,-161.75"/>
<text text-anchor="start" x="611.5" y="-168.3" font-family="Helvetica,sans-Serif" font-size="11.00">version</text>
<polygon fill="none" stroke="black" points="753.5,-161.75 753.5,-183.75 856.5,-183.75 856.5,-161.75 753.5,-161.75"/>
<text text-anchor="start" x="756.5" y="-169.05" font-family="Helvetica,sans-Serif" font-size="11.00">bigint[19]</text>
<polygon fill="none" stroke="black" points="591.5,-139.75 591.5,-161.75 753.5,-161.75 753.5,-139.75 591.5,-139.75"/>
<text text-anchor="start" x="611.5" y="-146.3" font-family="Helvetica,sans-Serif" font-size="11.00">created_by</text>
<polygon fill="none" stroke="black" points="753.5,-139.75 753.5,-161.75 856.5,-161.75 856.5,-139.75 753.5,-139.75"/>
<text text-anchor="start" x="756.5" y="-147.05" font-family="Helvetica,sans-Serif" font-size="11.00">varchar[191]</text>
<polygon fill="none" stroke="black" points="591.5,-117.75 591.5,-139.75 753.5,-139.75 753.5,-117.75 591.5,-117.75"/>
<text text-anchor="start" x="611.5" y="-124.3" font-family="Helvetica,sans-Serif" font-size="11.00">last_modified_by</text>
<polygon fill="none" stroke="black" points="753.5,-117.75 753.5,-139.75 856.5,-139.75 856.5,-117.75 753.5,-117.75"/>
<text text-anchor="start" x="756.5" y="-125.05" font-family="Helvetica,sans-Serif" font-size="11.00">varchar[191]</text>
<polygon fill="none" stroke="black" points="591.5,-95.75 591.5,-117.75 753.5,-117.75 753.5,-95.75 591.5,-95.75"/>
<text text-anchor="start" x="611.5" y="-102.3" font-family="Helvetica,sans-Serif" font-size="11.00">created_date</text>
<polygon fill="none" stroke="black" points="753.5,-95.75 753.5,-117.75 856.5,-117.75 856.5,-95.75 753.5,-95.75"/>
<text text-anchor="start" x="756.5" y="-103.05" font-family="Helvetica,sans-Serif" font-size="11.00">timestamp[19]</text>
<polygon fill="none" stroke="black" points="591.5,-73.75 591.5,-95.75 753.5,-95.75 753.5,-73.75 591.5,-73.75"/>
<text text-anchor="start" x="611.5" y="-80.3" font-family="Helvetica,sans-Serif" font-size="11.00">last_modified_date</text>
<polygon fill="none" stroke="black" points="753.5,-73.75 753.5,-95.75 856.5,-95.75 856.5,-73.75 753.5,-73.75"/>
<text text-anchor="start" x="756.5" y="-81.05" font-family="Helvetica,sans-Serif" font-size="11.00">timestamp[19]</text>
<polygon fill="#ffffff" stroke="none" points="591.5,-54.25 591.5,-73.75 678.5,-73.75 678.5,-54.25 591.5,-54.25"/>
<polygon fill="none" stroke="black" points="591.5,-54.25 591.5,-73.75 678.5,-73.75 678.5,-54.25 591.5,-54.25"/>
<text text-anchor="start" x="594.5" y="-60.3" font-family="Helvetica,sans-Serif" font-size="11.00">&lt; 3</text>
<polygon fill="#ffffff" stroke="none" points="678.5,-54.25 678.5,-73.75 753.5,-73.75 753.5,-54.25 678.5,-54.25"/>
<polygon fill="none" stroke="black" points="678.5,-54.25 678.5,-73.75 753.5,-73.75 753.5,-54.25 678.5,-54.25"/>
<text text-anchor="start" x="743" y="-60.3" font-family="Helvetica,sans-Serif" font-size="11.00"> &#160;</text>
<polygon fill="#ffffff" stroke="none" points="753.5,-54.25 753.5,-73.75 856.5,-73.75 856.5,-54.25 753.5,-54.25"/>
<polygon fill="none" stroke="black" points="753.5,-54.25 753.5,-73.75 856.5,-73.75 856.5,-54.25 753.5,-54.25"/>
<text text-anchor="start" x="834" y="-60.3" font-family="Helvetica,sans-Serif" font-size="11.00">0 &gt;</text>
<polygon fill="none" stroke="black" stroke-width="2" points="590.5,-53.25 590.5,-318.25 872.75,-318.25 872.75,-53.25 590.5,-53.25"/>
</a>
</g>
</g>
<!-- doc_condreport_detail -->
<g id="node2" class="node">
<title>doc_condreport_detail</title>
<g id="a_node2"><a xlink:href="../../tables/doc_condreport_detail.html" xlink:title="doc_condreport_detail" target="_top">
<polygon fill="#ffffff" stroke="none" points="327.25,-38.5 327.25,-145 523,-145 523,-38.5 327.25,-38.5"/>
<polygon fill="#f5f5f5" stroke="none" points="327.25,-121.5 327.25,-145 523,-145 523,-121.5 327.25,-121.5"/>
<polygon fill="none" stroke="black" points="327.25,-121.5 327.25,-145 523,-145 523,-121.5 327.25,-121.5"/>
<text text-anchor="start" x="332.25" y="-130.55" font-family="Helvetica,sans-Serif" font-weight="bold" font-size="11.00">doc_condreport_detail</text>
<text text-anchor="start" x="481.25" y="-129.55" font-family="Helvetica,sans-Serif" font-size="11.00">[table]</text>
<polygon fill="none" stroke="black" points="327.25,-99.5 327.25,-121.5 523,-121.5 523,-99.5 327.25,-99.5"/>
<image xlink:href="../../images/primaryKeys.png" width="11px" height="12px" preserveAspectRatio="xMinYMin meet" x="332.25" y="-116.5"/>
<text text-anchor="start" x="360.12" y="-106.05" font-family="Helvetica,sans-Serif" font-size="11.00">identifier</text>
<polygon fill="#ffffff" stroke="none" points="327.25,-77.5 327.25,-99.5 523,-99.5 523,-77.5 327.25,-77.5"/>
<polygon fill="none" stroke="black" points="327.25,-77.5 327.25,-99.5 523,-99.5 523,-77.5 327.25,-77.5"/>
<image xlink:href="../../images/foreignKeys.png" width="11px" height="12px" preserveAspectRatio="xMinYMin meet" x="332.25" y="-94.5"/>
<text text-anchor="start" x="360.12" y="-84.05" font-family="Helvetica,sans-Serif" font-size="11.00">report</text>
<polygon fill="none" stroke="black" points="327.25,-58 327.25,-77.5 523,-77.5 523,-58 327.25,-58"/>
<text text-anchor="start" x="330.25" y="-64.05" font-family="Helvetica,sans-Serif" font-size="11.00">...</text>
<polygon fill="#ffffff" stroke="none" points="327.25,-38.5 327.25,-58 396.5,-58 396.5,-38.5 327.25,-38.5"/>
<polygon fill="none" stroke="black" points="327.25,-38.5 327.25,-58 396.5,-58 396.5,-38.5 327.25,-38.5"/>
<text text-anchor="start" x="330.25" y="-44.55" font-family="Helvetica,sans-Serif" font-size="11.00">&lt; 1</text>
<polygon fill="#ffffff" stroke="none" points="396.5,-38.5 396.5,-58 453.75,-58 453.75,-38.5 396.5,-38.5"/>
<polygon fill="none" stroke="black" points="396.5,-38.5 396.5,-58 453.75,-58 453.75,-38.5 396.5,-38.5"/>
<text text-anchor="start" x="443.25" y="-44.55" font-family="Helvetica,sans-Serif" font-size="11.00"> &#160;</text>
<polygon fill="#ffffff" stroke="none" points="453.75,-38.5 453.75,-58 523,-58 523,-38.5 453.75,-38.5"/>
<polygon fill="none" stroke="black" points="453.75,-38.5 453.75,-58 523,-58 523,-38.5 453.75,-38.5"/>
<text text-anchor="start" x="500.5" y="-44.55" font-family="Helvetica,sans-Serif" font-size="11.00">1 &gt;</text>
</a>
</g>
</g>
<!-- doc_condreport_desc&#45;&gt;doc_condreport_detail -->
<g id="edge1" class="edge">
<title>doc_condreport_desc:w&#45;&gt;doc_condreport_detail:e</title>
<path fill="none" stroke="black" d="M575.19,-190.69C549.12,-173.86 565.37,-110.5 524,-110.5"/>
<polygon fill="black" stroke="black" points="582.44,-192.61 589.25,-198.14 586.63,-193.72 589.85,-194.58 589.85,-194.58 589.85,-194.58 586.63,-193.72 591.1,-191.18 582.44,-192.61"/>
<ellipse fill="none" stroke="black" cx="577.69" cy="-191.35" rx="3.2" ry="3.2"/>
</g>
<!-- doc_condreport_desc_property -->
<g id="node3" class="node">
<title>doc_condreport_desc_property</title>
<g id="a_node3"><a xlink:href="../../tables/doc_condreport_desc_property.html" xlink:title="doc_condreport_desc_property" target="_top">
<polygon fill="#ffffff" stroke="none" points="8,-206.5 8,-291 260.75,-291 260.75,-206.5 8,-206.5"/>
<polygon fill="#f5f5f5" stroke="none" points="8,-267.5 8,-291 260.75,-291 260.75,-267.5 8,-267.5"/>
<polygon fill="none" stroke="black" points="8,-267.5 8,-291 260.75,-291 260.75,-267.5 8,-267.5"/>
<text text-anchor="start" x="13" y="-276.55" font-family="Helvetica,sans-Serif" font-weight="bold" font-size="11.00">doc_condreport_desc_property</text>
<text text-anchor="start" x="219" y="-275.55" font-family="Helvetica,sans-Serif" font-size="11.00">[table]</text>
<polygon fill="none" stroke="black" points="8,-245.5 8,-267.5 260.75,-267.5 260.75,-245.5 8,-245.5"/>
<image xlink:href="../../images/primaryKeys.png" width="11px" height="12px" preserveAspectRatio="xMinYMin meet" x="13" y="-262.5"/>
<text text-anchor="start" x="40.88" y="-252.05" font-family="Helvetica,sans-Serif" font-size="11.00">identifier</text>
<polygon fill="none" stroke="black" points="8,-226 8,-245.5 260.75,-245.5 260.75,-226 8,-226"/>
<text text-anchor="start" x="11" y="-232.05" font-family="Helvetica,sans-Serif" font-size="11.00">...</text>
<polygon fill="#ffffff" stroke="none" points="8,-206.5 8,-226 88.25,-226 88.25,-206.5 8,-206.5"/>
<polygon fill="none" stroke="black" points="8,-206.5 8,-226 88.25,-226 88.25,-206.5 8,-206.5"/>
<text text-anchor="start" x="11" y="-212.55" font-family="Helvetica,sans-Serif" font-size="11.00"> &#160;</text>
<polygon fill="#ffffff" stroke="none" points="88.25,-206.5 88.25,-226 168.5,-226 168.5,-206.5 88.25,-206.5"/>
<polygon fill="none" stroke="black" points="88.25,-206.5 88.25,-226 168.5,-226 168.5,-206.5 88.25,-206.5"/>
<text text-anchor="start" x="158" y="-212.55" font-family="Helvetica,sans-Serif" font-size="11.00"> &#160;</text>
<polygon fill="#ffffff" stroke="none" points="168.5,-206.5 168.5,-226 260.75,-226 260.75,-206.5 168.5,-206.5"/>
<polygon fill="none" stroke="black" points="168.5,-206.5 168.5,-226 260.75,-226 260.75,-206.5 168.5,-206.5"/>
<text text-anchor="start" x="238.25" y="-212.55" font-family="Helvetica,sans-Serif" font-size="11.00">3 &gt;</text>
</a>
</g>
</g>
<!-- doc_condreport_desc&#45;&gt;doc_condreport_desc_property -->
<g id="edge2" class="edge">
<title>doc_condreport_desc:w&#45;&gt;doc_condreport_desc_property:e</title>
<path fill="none" stroke="black" d="M575.48,-265.02C567.15,-270.61 562.67,-280.12 548.5,-283.75 442.26,-310.94 406.55,-316.06 301.75,-283.75 281.19,-277.41 283.26,-256.5 261.75,-256.5"/>
<polygon fill="black" stroke="black" points="582.48,-263.03 591.16,-264.3 586.65,-261.84 589.86,-260.93 589.86,-260.93 589.86,-260.93 586.65,-261.84 589.19,-257.38 582.48,-263.03"/>
<ellipse fill="none" stroke="black" cx="577.75" cy="-264.38" rx="3.2" ry="3.2"/>
</g>
<!-- doc_condreport_desc_value -->
<g id="node4" class="node">
<title>doc_condreport_desc_value</title>
<g id="a_node4"><a xlink:href="../../tables/doc_condreport_desc_value.html" xlink:title="doc_condreport_desc_value" target="_top">
<polygon fill="#ffffff" stroke="none" points="309.75,-166.5 309.75,-273 540.5,-273 540.5,-166.5 309.75,-166.5"/>
<polygon fill="#f5f5f5" stroke="none" points="309.75,-249.5 309.75,-273 540.5,-273 540.5,-249.5 309.75,-249.5"/>
<polygon fill="none" stroke="black" points="309.75,-249.5 309.75,-273 540.5,-273 540.5,-249.5 309.75,-249.5"/>
<text text-anchor="start" x="314.75" y="-258.55" font-family="Helvetica,sans-Serif" font-weight="bold" font-size="11.00">doc_condreport_desc_value</text>
<text text-anchor="start" x="498.75" y="-257.55" font-family="Helvetica,sans-Serif" font-size="11.00">[table]</text>
<polygon fill="none" stroke="black" points="309.75,-227.5 309.75,-249.5 540.5,-249.5 540.5,-227.5 309.75,-227.5"/>
<image xlink:href="../../images/primaryKeys.png" width="11px" height="12px" preserveAspectRatio="xMinYMin meet" x="314.75" y="-244.5"/>
<text text-anchor="start" x="342.62" y="-234.05" font-family="Helvetica,sans-Serif" font-size="11.00">identifier</text>
<polygon fill="#ffffff" stroke="none" points="309.75,-205.5 309.75,-227.5 540.5,-227.5 540.5,-205.5 309.75,-205.5"/>
<polygon fill="none" stroke="black" points="309.75,-205.5 309.75,-227.5 540.5,-227.5 540.5,-205.5 309.75,-205.5"/>
<image xlink:href="../../images/foreignKeys.png" width="11px" height="12px" preserveAspectRatio="xMinYMin meet" x="314.75" y="-222.5"/>
<text text-anchor="start" x="342.62" y="-212.05" font-family="Helvetica,sans-Serif" font-size="11.00">property</text>
<polygon fill="none" stroke="black" points="309.75,-186 309.75,-205.5 540.5,-205.5 540.5,-186 309.75,-186"/>
<text text-anchor="start" x="312.75" y="-192.05" font-family="Helvetica,sans-Serif" font-size="11.00">...</text>
<polygon fill="#ffffff" stroke="none" points="309.75,-166.5 309.75,-186 390.67,-186 390.67,-166.5 309.75,-166.5"/>
<polygon fill="none" stroke="black" points="309.75,-166.5 309.75,-186 390.67,-186 390.67,-166.5 309.75,-166.5"/>
<text text-anchor="start" x="312.75" y="-172.55" font-family="Helvetica,sans-Serif" font-size="11.00">&lt; 1</text>
<polygon fill="#ffffff" stroke="none" points="390.67,-166.5 390.67,-186 459.58,-186 459.58,-166.5 390.67,-166.5"/>
<polygon fill="none" stroke="black" points="390.67,-166.5 390.67,-186 459.58,-186 459.58,-166.5 390.67,-166.5"/>
<text text-anchor="start" x="449.08" y="-172.55" font-family="Helvetica,sans-Serif" font-size="11.00"> &#160;</text>
<polygon fill="#ffffff" stroke="none" points="459.58,-166.5 459.58,-186 540.5,-186 540.5,-166.5 459.58,-166.5"/>
<polygon fill="none" stroke="black" points="459.58,-166.5 459.58,-186 540.5,-186 540.5,-166.5 459.58,-166.5"/>
<text text-anchor="start" x="518" y="-172.55" font-family="Helvetica,sans-Serif" font-size="11.00">1 &gt;</text>
</a>
</g>
</g>
<!-- doc_condreport_desc&#45;&gt;doc_condreport_desc_value -->
<g id="edge3" class="edge">
<title>doc_condreport_desc:w&#45;&gt;doc_condreport_desc_value:e</title>
<path fill="none" stroke="black" d="M574.92,-238.7C564.21,-238.63 556.98,-238.5 541.5,-238.5"/>
<polygon fill="black" stroke="black" points="582.17,-238.72 590.15,-242.35 586.5,-238.74 589.83,-238.75 589.83,-238.75 589.83,-238.75 586.5,-238.74 590.18,-235.15 582.17,-238.72"/>
<ellipse fill="none" stroke="black" cx="577.25" cy="-238.71" rx="3.2" ry="3.2"/>
</g>
<!-- doc_condreport_desc_value&#45;&gt;doc_condreport_desc_property -->
<g id="edge4" class="edge">
<title>doc_condreport_desc_value:w&#45;&gt;doc_condreport_desc_property:e</title>
<path fill="none" stroke="black" d="M294.37,-222.06C283.07,-233.05 282.75,-256.5 261.75,-256.5"/>
<polygon fill="black" stroke="black" points="300.98,-219.51 309.74,-219.98 305.02,-217.94 308.13,-216.74 308.13,-216.74 308.13,-216.74 305.02,-217.94 307.14,-213.26 300.98,-219.51"/>
<ellipse fill="none" stroke="black" cx="296.39" cy="-221.28" rx="3.2" ry="3.2"/>
</g>
</g>
</svg>
