<?xml version="1.0" encoding="UTF-8" standalone="no"?>
<!DOCTYPE svg PUBLIC "-//W3C//DTD SVG 1.1//EN"
 "http://www.w3.org/Graphics/SVG/1.1/DTD/svg11.dtd">
<!-- Generated by graphviz version 12.2.0 (0)
 -->
<!-- Title: oneDegreeRelationshipsDiagram Pages: 1 -->
<svg width="653pt" height="384pt"
 viewBox="0.00 0.00 652.75 383.50" xmlns="http://www.w3.org/2000/svg" xmlns:xlink="http://www.w3.org/1999/xlink">
<g id="graph0" class="graph" transform="scale(1 1) rotate(0) translate(4 379.5)">
<title>oneDegreeRelationshipsDiagram</title>
<polygon fill="#ffffff" stroke="none" points="-4,4 -4,-379.5 648.75,-379.5 648.75,4 -4,4"/>
<text text-anchor="middle" x="79.25" y="-7.05" font-family="Helvetica,sans-Serif" font-size="11.00">Generated by SchemaSpy</text>
<!-- doc_condreport_slip_config -->
<g id="node1" class="node">
<title>doc_condreport_slip_config</title>
<g id="a_node1"><a xlink:href="../../tables/doc_condreport_slip_config.html" xlink:title="doc_condreport_slip_config" target="_top">
<polygon fill="#ffffff" stroke="none" points="291,-38.5 291,-371.5 636.75,-371.5 636.75,-38.5 291,-38.5"/>
<polygon fill="#f5f5f5" stroke="none" points="293,-346 293,-369.5 634.75,-369.5 634.75,-346 293,-346"/>
<polygon fill="none" stroke="black" points="293,-346 293,-369.5 634.75,-369.5 634.75,-346 293,-346"/>
<text text-anchor="start" x="298" y="-355.05" font-family="Helvetica,sans-Serif" font-weight="bold" font-size="11.00">doc_condreport_slip_config</text>
<text text-anchor="start" x="593" y="-354.05" font-family="Helvetica,sans-Serif" font-size="11.00">[table]</text>
<polygon fill="none" stroke="black" points="293,-324 293,-346 496,-346 496,-324 293,-324"/>
<image xlink:href="../../images/primaryKeys.png" width="11px" height="12px" preserveAspectRatio="xMinYMin meet" x="298" y="-341"/>
<text text-anchor="start" x="313" y="-330.55" font-family="Helvetica,sans-Serif" font-size="11.00">identifier</text>
<polygon fill="none" stroke="black" points="496,-324 496,-346 609.25,-346 609.25,-324 496,-324"/>
<text text-anchor="start" x="499" y="-331.3" font-family="Helvetica,sans-Serif" font-size="11.00">varchar[191]</text>
<polygon fill="#ffffff" stroke="none" points="293,-302 293,-324 496,-324 496,-302 293,-302"/>
<polygon fill="none" stroke="black" points="293,-302 293,-324 496,-324 496,-302 293,-302"/>
<image xlink:href="../../images/foreignKeys.png" width="11px" height="12px" preserveAspectRatio="xMinYMin meet" x="298" y="-319"/>
<text text-anchor="start" x="313" y="-308.55" font-family="Helvetica,sans-Serif" font-size="11.00">library</text>
<polygon fill="none" stroke="black" points="496,-302 496,-324 609.25,-324 609.25,-302 496,-302"/>
<text text-anchor="start" x="499" y="-309.3" font-family="Helvetica,sans-Serif" font-size="11.00">varchar[191]</text>
<polygon fill="none" stroke="black" points="293,-280 293,-302 496,-302 496,-280 293,-280"/>
<text text-anchor="start" x="313" y="-286.55" font-family="Helvetica,sans-Serif" font-size="11.00">pgcn_id</text>
<polygon fill="none" stroke="black" points="496,-280 496,-302 609.25,-302 609.25,-280 496,-280"/>
<text text-anchor="start" x="499" y="-287.3" font-family="Helvetica,sans-Serif" font-size="11.00">bit[1]</text>
<polygon fill="none" stroke="black" points="293,-258 293,-280 496,-280 496,-258 293,-258"/>
<text text-anchor="start" x="313" y="-264.55" font-family="Helvetica,sans-Serif" font-size="11.00">title</text>
<polygon fill="none" stroke="black" points="496,-258 496,-280 609.25,-280 609.25,-258 496,-258"/>
<text text-anchor="start" x="499" y="-265.3" font-family="Helvetica,sans-Serif" font-size="11.00">bit[1]</text>
<polygon fill="none" stroke="black" points="293,-236 293,-258 496,-258 496,-236 293,-236"/>
<text text-anchor="start" x="313" y="-242.55" font-family="Helvetica,sans-Serif" font-size="11.00">nb_pages</text>
<polygon fill="none" stroke="black" points="496,-236 496,-258 609.25,-258 609.25,-236 496,-236"/>
<text text-anchor="start" x="499" y="-243.3" font-family="Helvetica,sans-Serif" font-size="11.00">bit[1]</text>
<polygon fill="none" stroke="black" points="293,-214 293,-236 496,-236 496,-214 293,-214"/>
<text text-anchor="start" x="313" y="-220.55" font-family="Helvetica,sans-Serif" font-size="11.00">global_report</text>
<polygon fill="none" stroke="black" points="496,-214 496,-236 609.25,-236 609.25,-214 496,-214"/>
<text text-anchor="start" x="499" y="-221.3" font-family="Helvetica,sans-Serif" font-size="11.00">bit[1]</text>
<polygon fill="none" stroke="black" points="293,-192 293,-214 496,-214 496,-192 293,-192"/>
<text text-anchor="start" x="313" y="-198.55" font-family="Helvetica,sans-Serif" font-size="11.00">separator</text>
<polygon fill="none" stroke="black" points="496,-192 496,-214 609.25,-214 609.25,-192 496,-192"/>
<text text-anchor="start" x="499" y="-199.3" font-family="Helvetica,sans-Serif" font-size="11.00">varchar[255]</text>
<polygon fill="none" stroke="black" points="293,-170 293,-192 496,-192 496,-170 293,-170"/>
<text text-anchor="start" x="313" y="-176.55" font-family="Helvetica,sans-Serif" font-size="11.00">encoding</text>
<polygon fill="none" stroke="black" points="496,-170 496,-192 609.25,-192 609.25,-170 496,-170"/>
<text text-anchor="start" x="499" y="-177.3" font-family="Helvetica,sans-Serif" font-size="11.00">varchar[255]</text>
<polygon fill="none" stroke="black" points="293,-148 293,-170 496,-170 496,-148 293,-148"/>
<text text-anchor="start" x="313" y="-154.55" font-family="Helvetica,sans-Serif" font-size="11.00">version</text>
<polygon fill="none" stroke="black" points="496,-148 496,-170 609.25,-170 609.25,-148 496,-148"/>
<text text-anchor="start" x="499" y="-155.3" font-family="Helvetica,sans-Serif" font-size="11.00">bigint[19]</text>
<polygon fill="none" stroke="black" points="293,-126 293,-148 496,-148 496,-126 293,-126"/>
<text text-anchor="start" x="313" y="-132.55" font-family="Helvetica,sans-Serif" font-size="11.00">created_by</text>
<polygon fill="none" stroke="black" points="496,-126 496,-148 609.25,-148 609.25,-126 496,-126"/>
<text text-anchor="start" x="499" y="-133.3" font-family="Helvetica,sans-Serif" font-size="11.00">varchar[191]</text>
<polygon fill="none" stroke="black" points="293,-104 293,-126 496,-126 496,-104 293,-104"/>
<text text-anchor="start" x="313" y="-110.55" font-family="Helvetica,sans-Serif" font-size="11.00">last_modified_by</text>
<polygon fill="none" stroke="black" points="496,-104 496,-126 609.25,-126 609.25,-104 496,-104"/>
<text text-anchor="start" x="499" y="-111.3" font-family="Helvetica,sans-Serif" font-size="11.00">varchar[191]</text>
<polygon fill="none" stroke="black" points="293,-82 293,-104 496,-104 496,-82 293,-82"/>
<text text-anchor="start" x="313" y="-88.55" font-family="Helvetica,sans-Serif" font-size="11.00">created_date</text>
<polygon fill="none" stroke="black" points="496,-82 496,-104 609.25,-104 609.25,-82 496,-82"/>
<text text-anchor="start" x="499" y="-89.3" font-family="Helvetica,sans-Serif" font-size="11.00">timestamp[19]</text>
<polygon fill="none" stroke="black" points="293,-60 293,-82 496,-82 496,-60 293,-60"/>
<text text-anchor="start" x="313" y="-66.55" font-family="Helvetica,sans-Serif" font-size="11.00">last_modified_date</text>
<polygon fill="none" stroke="black" points="496,-60 496,-82 609.25,-82 609.25,-60 496,-60"/>
<text text-anchor="start" x="499" y="-67.3" font-family="Helvetica,sans-Serif" font-size="11.00">timestamp[19]</text>
<polygon fill="#ffffff" stroke="none" points="293,-40.5 293,-60 400.5,-60 400.5,-40.5 293,-40.5"/>
<polygon fill="none" stroke="black" points="293,-40.5 293,-60 400.5,-60 400.5,-40.5 293,-40.5"/>
<text text-anchor="start" x="296" y="-46.55" font-family="Helvetica,sans-Serif" font-size="11.00">&lt; 1</text>
<polygon fill="#ffffff" stroke="none" points="400.5,-40.5 400.5,-60 496,-60 496,-40.5 400.5,-40.5"/>
<polygon fill="none" stroke="black" points="400.5,-40.5 400.5,-60 496,-60 496,-40.5 400.5,-40.5"/>
<text text-anchor="start" x="485.5" y="-46.55" font-family="Helvetica,sans-Serif" font-size="11.00"> &#160;</text>
<polygon fill="#ffffff" stroke="none" points="496,-40.5 496,-60 609.25,-60 609.25,-40.5 496,-40.5"/>
<polygon fill="none" stroke="black" points="496,-40.5 496,-60 609.25,-60 609.25,-40.5 496,-40.5"/>
<text text-anchor="start" x="586.75" y="-46.55" font-family="Helvetica,sans-Serif" font-size="11.00">0 &gt;</text>
<polygon fill="none" stroke="black" stroke-width="2" points="292,-39.5 292,-370.5 635.75,-370.5 635.75,-39.5 292,-39.5"/>
</a>
</g>
</g>
<!-- lib_library -->
<g id="node2" class="node">
<title>lib_library</title>
<g id="a_node2"><a xlink:href="../../tables/lib_library.html" xlink:title="lib_library" target="_top">
<polygon fill="#ffffff" stroke="none" points="8,-130.75 8,-347.25 242,-347.25 242,-130.75 8,-130.75"/>
<polygon fill="#f5f5f5" stroke="none" points="8,-323.75 8,-347.25 242,-347.25 242,-323.75 8,-323.75"/>
<polygon fill="none" stroke="black" points="8,-323.75 8,-347.25 242,-347.25 242,-323.75 8,-323.75"/>
<text text-anchor="start" x="13" y="-332.8" font-family="Helvetica,sans-Serif" font-weight="bold" font-size="11.00">lib_library</text>
<text text-anchor="start" x="200.25" y="-331.8" font-family="Helvetica,sans-Serif" font-size="11.00">[table]</text>
<polygon fill="none" stroke="black" points="8,-301.75 8,-323.75 242,-323.75 242,-301.75 8,-301.75"/>
<image xlink:href="../../images/primaryKeys.png" width="11px" height="12px" preserveAspectRatio="xMinYMin meet" x="13" y="-318.75"/>
<text text-anchor="start" x="28" y="-308.3" font-family="Helvetica,sans-Serif" font-size="11.00">identifier</text>
<polygon fill="#ffffff" stroke="none" points="8,-279.75 8,-301.75 242,-301.75 242,-279.75 8,-279.75"/>
<polygon fill="none" stroke="black" points="8,-279.75 8,-301.75 242,-301.75 242,-279.75 8,-279.75"/>
<image xlink:href="../../images/foreignKeys.png" width="11px" height="12px" preserveAspectRatio="xMinYMin meet" x="13" y="-296.75"/>
<text text-anchor="start" x="28" y="-286.3" font-family="Helvetica,sans-Serif" font-size="11.00">address</text>
<polygon fill="#ffffff" stroke="none" points="8,-257.75 8,-279.75 242,-279.75 242,-257.75 8,-257.75"/>
<polygon fill="none" stroke="black" points="8,-257.75 8,-279.75 242,-279.75 242,-257.75 8,-257.75"/>
<image xlink:href="../../images/foreignKeys.png" width="11px" height="12px" preserveAspectRatio="xMinYMin meet" x="13" y="-274.75"/>
<text text-anchor="start" x="28" y="-264.3" font-family="Helvetica,sans-Serif" font-size="11.00">active_configuration_ftp</text>
<polygon fill="#ffffff" stroke="none" points="8,-235.75 8,-257.75 242,-257.75 242,-235.75 8,-235.75"/>
<polygon fill="none" stroke="black" points="8,-235.75 8,-257.75 242,-257.75 242,-235.75 8,-235.75"/>
<image xlink:href="../../images/foreignKeys.png" width="11px" height="12px" preserveAspectRatio="xMinYMin meet" x="13" y="-252.75"/>
<text text-anchor="start" x="28" y="-242.3" font-family="Helvetica,sans-Serif" font-size="11.00">active_configuration_check</text>
<polygon fill="#ffffff" stroke="none" points="8,-213.75 8,-235.75 242,-235.75 242,-213.75 8,-213.75"/>
<polygon fill="none" stroke="black" points="8,-213.75 8,-235.75 242,-235.75 242,-213.75 8,-213.75"/>
<image xlink:href="../../images/foreignKeys.png" width="11px" height="12px" preserveAspectRatio="xMinYMin meet" x="13" y="-230.75"/>
<text text-anchor="start" x="28" y="-220.3" font-family="Helvetica,sans-Serif" font-size="11.00">role</text>
<polygon fill="#ffffff" stroke="none" points="8,-191.75 8,-213.75 242,-213.75 242,-191.75 8,-191.75"/>
<polygon fill="none" stroke="black" points="8,-191.75 8,-213.75 242,-213.75 242,-191.75 8,-191.75"/>
<image xlink:href="../../images/foreignKeys.png" width="11px" height="12px" preserveAspectRatio="xMinYMin meet" x="13" y="-208.75"/>
<text text-anchor="start" x="28" y="-198.3" font-family="Helvetica,sans-Serif" font-size="11.00">active_configuration_export_ftp</text>
<polygon fill="#ffffff" stroke="none" points="8,-169.75 8,-191.75 242,-191.75 242,-169.75 8,-169.75"/>
<polygon fill="none" stroke="black" points="8,-169.75 8,-191.75 242,-191.75 242,-169.75 8,-169.75"/>
<image xlink:href="../../images/foreignKeys.png" width="11px" height="12px" preserveAspectRatio="xMinYMin meet" x="13" y="-186.75"/>
<text text-anchor="start" x="28" y="-176.3" font-family="Helvetica,sans-Serif" font-size="11.00">active_configuration_ocr_lang</text>
<polygon fill="none" stroke="black" points="8,-150.25 8,-169.75 242,-169.75 242,-150.25 8,-150.25"/>
<text text-anchor="start" x="11" y="-156.3" font-family="Helvetica,sans-Serif" font-size="11.00">...</text>
<polygon fill="#ffffff" stroke="none" points="8,-130.75 8,-150.25 87.75,-150.25 87.75,-130.75 8,-130.75"/>
<polygon fill="none" stroke="black" points="8,-130.75 8,-150.25 87.75,-150.25 87.75,-130.75 8,-130.75"/>
<text text-anchor="start" x="11" y="-136.8" font-family="Helvetica,sans-Serif" font-size="11.00">&lt; 6</text>
<polygon fill="#ffffff" stroke="none" points="87.75,-130.75 87.75,-150.25 155.5,-150.25 155.5,-130.75 87.75,-130.75"/>
<polygon fill="none" stroke="black" points="87.75,-130.75 87.75,-150.25 155.5,-150.25 155.5,-130.75 87.75,-130.75"/>
<text text-anchor="start" x="145" y="-136.8" font-family="Helvetica,sans-Serif" font-size="11.00"> &#160;</text>
<polygon fill="#ffffff" stroke="none" points="155.5,-130.75 155.5,-150.25 242,-150.25 242,-130.75 155.5,-130.75"/>
<polygon fill="none" stroke="black" points="155.5,-130.75 155.5,-150.25 242,-150.25 242,-130.75 155.5,-130.75"/>
<text text-anchor="start" x="212.75" y="-136.8" font-family="Helvetica,sans-Serif" font-size="11.00">27 &gt;</text>
</a>
</g>
</g>
<!-- doc_condreport_slip_config&#45;&gt;lib_library -->
<g id="edge1" class="edge">
<title>doc_condreport_slip_config:w&#45;&gt;lib_library:e</title>
<path fill="none" stroke="black" d="M276.42,-312.95C265.71,-312.88 258.48,-312.75 243,-312.75"/>
<polygon fill="black" stroke="black" points="283.67,-312.97 291.65,-316.6 288,-312.99 291.33,-313 291.33,-313 291.33,-313 288,-312.99 291.68,-309.4 283.67,-312.97"/>
<ellipse fill="none" stroke="black" cx="278.75" cy="-312.96" rx="3.2" ry="3.2"/>
</g>
</g>
</svg>
