<?xml version="1.0" encoding="UTF-8" standalone="no"?>
<!DOCTYPE svg PUBLIC "-//W3C//DTD SVG 1.1//EN"
 "http://www.w3.org/Graphics/SVG/1.1/DTD/svg11.dtd">
<!-- Generated by graphviz version 12.2.0 (0)
 -->
<!-- Title: twoDegreesRelationshipsDiagram Pages: 1 -->
<svg width="526pt" height="675pt"
 viewBox="0.00 0.00 526.00 675.00" xmlns="http://www.w3.org/2000/svg" xmlns:xlink="http://www.w3.org/1999/xlink">
<g id="graph0" class="graph" transform="scale(1 1) rotate(0) translate(4 671)">
<title>twoDegreesRelationshipsDiagram</title>
<polygon fill="#ffffff" stroke="none" points="-4,4 -4,-671 522,-671 522,4 -4,4"/>
<text text-anchor="middle" x="79.25" y="-7.05" font-family="Helvetica,sans-Serif" font-size="11.00">Generated by SchemaSpy</text>
<!-- doc_export_property -->
<g id="node1" class="node">
<title>doc_export_property</title>
<g id="a_node1"><a xlink:href="../../tables/doc_export_property.html" xlink:title="doc_export_property" target="_top">
<polygon fill="#ffffff" stroke="none" points="228.75,-290.25 228.75,-579.25 510,-579.25 510,-290.25 228.75,-290.25"/>
<polygon fill="#f5f5f5" stroke="none" points="230.75,-553.75 230.75,-577.25 508,-577.25 508,-553.75 230.75,-553.75"/>
<polygon fill="none" stroke="black" points="230.75,-553.75 230.75,-577.25 508,-577.25 508,-553.75 230.75,-553.75"/>
<text text-anchor="start" x="235.75" y="-562.8" font-family="Helvetica,sans-Serif" font-weight="bold" font-size="11.00">doc_export_property</text>
<text text-anchor="start" x="466.25" y="-561.8" font-family="Helvetica,sans-Serif" font-size="11.00">[table]</text>
<polygon fill="none" stroke="black" points="230.75,-531.75 230.75,-553.75 390.75,-553.75 390.75,-531.75 230.75,-531.75"/>
<image xlink:href="../../images/primaryKeys.png" width="11px" height="12px" preserveAspectRatio="xMinYMin meet" x="235.75" y="-548.75"/>
<text text-anchor="start" x="250.75" y="-538.3" font-family="Helvetica,sans-Serif" font-size="11.00">identifier</text>
<polygon fill="none" stroke="black" points="390.75,-531.75 390.75,-553.75 493.25,-553.75 493.25,-531.75 390.75,-531.75"/>
<text text-anchor="start" x="393.75" y="-539.05" font-family="Helvetica,sans-Serif" font-size="11.00">varchar[191]</text>
<polygon fill="none" stroke="black" points="230.75,-509.75 230.75,-531.75 390.75,-531.75 390.75,-509.75 230.75,-509.75"/>
<text text-anchor="start" x="250.75" y="-516.3" font-family="Helvetica,sans-Serif" font-size="11.00">value</text>
<polygon fill="none" stroke="black" points="390.75,-509.75 390.75,-531.75 493.25,-531.75 493.25,-509.75 390.75,-509.75"/>
<text text-anchor="start" x="393.75" y="-517.05" font-family="Helvetica,sans-Serif" font-size="11.00">text[65535]</text>
<polygon fill="none" stroke="black" points="230.75,-487.75 230.75,-509.75 390.75,-509.75 390.75,-487.75 230.75,-487.75"/>
<text text-anchor="start" x="250.75" y="-494.3" font-family="Helvetica,sans-Serif" font-size="11.00">language</text>
<polygon fill="none" stroke="black" points="390.75,-487.75 390.75,-509.75 493.25,-509.75 493.25,-487.75 390.75,-487.75"/>
<text text-anchor="start" x="393.75" y="-495.05" font-family="Helvetica,sans-Serif" font-size="11.00">varchar[255]</text>
<polygon fill="none" stroke="black" points="230.75,-465.75 230.75,-487.75 390.75,-487.75 390.75,-465.75 230.75,-465.75"/>
<text text-anchor="start" x="250.75" y="-472.3" font-family="Helvetica,sans-Serif" font-size="11.00">rank</text>
<polygon fill="none" stroke="black" points="390.75,-465.75 390.75,-487.75 493.25,-487.75 493.25,-465.75 390.75,-465.75"/>
<text text-anchor="start" x="393.75" y="-473.05" font-family="Helvetica,sans-Serif" font-size="11.00">int[10]</text>
<polygon fill="#ffffff" stroke="none" points="230.75,-443.75 230.75,-465.75 390.75,-465.75 390.75,-443.75 230.75,-443.75"/>
<polygon fill="none" stroke="black" points="230.75,-443.75 230.75,-465.75 390.75,-465.75 390.75,-443.75 230.75,-443.75"/>
<image xlink:href="../../images/foreignKeys.png" width="11px" height="12px" preserveAspectRatio="xMinYMin meet" x="235.75" y="-460.75"/>
<text text-anchor="start" x="250.75" y="-450.3" font-family="Helvetica,sans-Serif" font-size="11.00">type</text>
<polygon fill="none" stroke="black" points="390.75,-443.75 390.75,-465.75 493.25,-465.75 493.25,-443.75 390.75,-443.75"/>
<text text-anchor="start" x="393.75" y="-451.05" font-family="Helvetica,sans-Serif" font-size="11.00">varchar[191]</text>
<polygon fill="#ffffff" stroke="none" points="230.75,-421.75 230.75,-443.75 390.75,-443.75 390.75,-421.75 230.75,-421.75"/>
<polygon fill="none" stroke="black" points="230.75,-421.75 230.75,-443.75 390.75,-443.75 390.75,-421.75 230.75,-421.75"/>
<image xlink:href="../../images/foreignKeys.png" width="11px" height="12px" preserveAspectRatio="xMinYMin meet" x="235.75" y="-438.75"/>
<text text-anchor="start" x="250.75" y="-428.3" font-family="Helvetica,sans-Serif" font-size="11.00">record</text>
<polygon fill="none" stroke="black" points="390.75,-421.75 390.75,-443.75 493.25,-443.75 493.25,-421.75 390.75,-421.75"/>
<text text-anchor="start" x="393.75" y="-429.05" font-family="Helvetica,sans-Serif" font-size="11.00">varchar[191]</text>
<polygon fill="none" stroke="black" points="230.75,-399.75 230.75,-421.75 390.75,-421.75 390.75,-399.75 230.75,-399.75"/>
<text text-anchor="start" x="250.75" y="-406.3" font-family="Helvetica,sans-Serif" font-size="11.00">version</text>
<polygon fill="none" stroke="black" points="390.75,-399.75 390.75,-421.75 493.25,-421.75 493.25,-399.75 390.75,-399.75"/>
<text text-anchor="start" x="393.75" y="-407.05" font-family="Helvetica,sans-Serif" font-size="11.00">bigint[19]</text>
<polygon fill="none" stroke="black" points="230.75,-377.75 230.75,-399.75 390.75,-399.75 390.75,-377.75 230.75,-377.75"/>
<text text-anchor="start" x="250.75" y="-384.3" font-family="Helvetica,sans-Serif" font-size="11.00">created_by</text>
<polygon fill="none" stroke="black" points="390.75,-377.75 390.75,-399.75 493.25,-399.75 493.25,-377.75 390.75,-377.75"/>
<text text-anchor="start" x="393.75" y="-385.05" font-family="Helvetica,sans-Serif" font-size="11.00">varchar[191]</text>
<polygon fill="none" stroke="black" points="230.75,-355.75 230.75,-377.75 390.75,-377.75 390.75,-355.75 230.75,-355.75"/>
<text text-anchor="start" x="250.75" y="-362.3" font-family="Helvetica,sans-Serif" font-size="11.00">last_modified_by</text>
<polygon fill="none" stroke="black" points="390.75,-355.75 390.75,-377.75 493.25,-377.75 493.25,-355.75 390.75,-355.75"/>
<text text-anchor="start" x="393.75" y="-363.05" font-family="Helvetica,sans-Serif" font-size="11.00">varchar[191]</text>
<polygon fill="none" stroke="black" points="230.75,-333.75 230.75,-355.75 390.75,-355.75 390.75,-333.75 230.75,-333.75"/>
<text text-anchor="start" x="250.75" y="-340.3" font-family="Helvetica,sans-Serif" font-size="11.00">created_date</text>
<polygon fill="none" stroke="black" points="390.75,-333.75 390.75,-355.75 493.25,-355.75 493.25,-333.75 390.75,-333.75"/>
<text text-anchor="start" x="393.75" y="-341.05" font-family="Helvetica,sans-Serif" font-size="11.00">timestamp[19]</text>
<polygon fill="none" stroke="black" points="230.75,-311.75 230.75,-333.75 390.75,-333.75 390.75,-311.75 230.75,-311.75"/>
<text text-anchor="start" x="250.75" y="-318.3" font-family="Helvetica,sans-Serif" font-size="11.00">last_modified_date</text>
<polygon fill="none" stroke="black" points="390.75,-311.75 390.75,-333.75 493.25,-333.75 493.25,-311.75 390.75,-311.75"/>
<text text-anchor="start" x="393.75" y="-319.05" font-family="Helvetica,sans-Serif" font-size="11.00">timestamp[19]</text>
<polygon fill="#ffffff" stroke="none" points="230.75,-292.25 230.75,-311.75 316.75,-311.75 316.75,-292.25 230.75,-292.25"/>
<polygon fill="none" stroke="black" points="230.75,-292.25 230.75,-311.75 316.75,-311.75 316.75,-292.25 230.75,-292.25"/>
<text text-anchor="start" x="233.75" y="-298.3" font-family="Helvetica,sans-Serif" font-size="11.00">&lt; 2</text>
<polygon fill="#ffffff" stroke="none" points="316.75,-292.25 316.75,-311.75 390.75,-311.75 390.75,-292.25 316.75,-292.25"/>
<polygon fill="none" stroke="black" points="316.75,-292.25 316.75,-311.75 390.75,-311.75 390.75,-292.25 316.75,-292.25"/>
<text text-anchor="start" x="380.25" y="-298.3" font-family="Helvetica,sans-Serif" font-size="11.00"> &#160;</text>
<polygon fill="#ffffff" stroke="none" points="390.75,-292.25 390.75,-311.75 493.25,-311.75 493.25,-292.25 390.75,-292.25"/>
<polygon fill="none" stroke="black" points="390.75,-292.25 390.75,-311.75 493.25,-311.75 493.25,-292.25 390.75,-292.25"/>
<text text-anchor="start" x="470.75" y="-298.3" font-family="Helvetica,sans-Serif" font-size="11.00">0 &gt;</text>
<polygon fill="none" stroke="black" stroke-width="2" points="229.75,-291.25 229.75,-578.25 509,-578.25 509,-291.25 229.75,-291.25"/>
</a>
</g>
</g>
<!-- doc_export_data -->
<g id="node2" class="node">
<title>doc_export_data</title>
<g id="a_node2"><a xlink:href="../../tables/doc_export_data.html" xlink:title="doc_export_data" target="_top">
<polygon fill="#ffffff" stroke="none" points="15.5,-481.5 15.5,-566 172.25,-566 172.25,-481.5 15.5,-481.5"/>
<polygon fill="#f5f5f5" stroke="none" points="15.5,-542.5 15.5,-566 172.25,-566 172.25,-542.5 15.5,-542.5"/>
<polygon fill="none" stroke="black" points="15.5,-542.5 15.5,-566 172.25,-566 172.25,-542.5 15.5,-542.5"/>
<text text-anchor="start" x="20.5" y="-551.55" font-family="Helvetica,sans-Serif" font-weight="bold" font-size="11.00">doc_export_data</text>
<text text-anchor="start" x="130.5" y="-550.55" font-family="Helvetica,sans-Serif" font-size="11.00">[table]</text>
<polygon fill="none" stroke="black" points="15.5,-520.5 15.5,-542.5 172.25,-542.5 172.25,-520.5 15.5,-520.5"/>
<image xlink:href="../../images/primaryKeys.png" width="11px" height="12px" preserveAspectRatio="xMinYMin meet" x="20.5" y="-537.5"/>
<text text-anchor="start" x="39.88" y="-527.05" font-family="Helvetica,sans-Serif" font-size="11.00">identifier</text>
<polygon fill="none" stroke="black" points="15.5,-501 15.5,-520.5 172.25,-520.5 172.25,-501 15.5,-501"/>
<text text-anchor="start" x="18.5" y="-507.05" font-family="Helvetica,sans-Serif" font-size="11.00">...</text>
<polygon fill="#ffffff" stroke="none" points="15.5,-481.5 15.5,-501 63.75,-501 63.75,-481.5 15.5,-481.5"/>
<polygon fill="none" stroke="black" points="15.5,-481.5 15.5,-501 63.75,-501 63.75,-481.5 15.5,-481.5"/>
<text text-anchor="start" x="18.5" y="-487.55" font-family="Helvetica,sans-Serif" font-size="11.00"> &#160;</text>
<polygon fill="#ffffff" stroke="none" points="63.75,-481.5 63.75,-501 112,-501 112,-481.5 63.75,-481.5"/>
<polygon fill="none" stroke="black" points="63.75,-481.5 63.75,-501 112,-501 112,-481.5 63.75,-481.5"/>
<text text-anchor="start" x="101.5" y="-487.55" font-family="Helvetica,sans-Serif" font-size="11.00"> &#160;</text>
<polygon fill="#ffffff" stroke="none" points="112,-481.5 112,-501 172.25,-501 172.25,-481.5 112,-481.5"/>
<polygon fill="none" stroke="black" points="112,-481.5 112,-501 172.25,-501 172.25,-481.5 112,-481.5"/>
<text text-anchor="start" x="149.75" y="-487.55" font-family="Helvetica,sans-Serif" font-size="11.00">2 &gt;</text>
</a>
</g>
</g>
<!-- doc_export_property&#45;&gt;doc_export_data -->
<g id="edge1" class="edge">
<title>doc_export_property:w&#45;&gt;doc_export_data:e</title>
<path fill="none" stroke="black" d="M214.88,-436.99C188.86,-455.89 217.49,-531.5 173.25,-531.5"/>
<polygon fill="black" stroke="black" points="221.74,-435.04 230.42,-436.3 225.9,-433.85 229.11,-432.93 229.11,-432.93 229.11,-432.93 225.9,-433.85 228.44,-429.38 221.74,-435.04"/>
<ellipse fill="none" stroke="black" cx="217.01" cy="-436.39" rx="3.2" ry="3.2"/>
</g>
<!-- doc_property_type -->
<g id="node3" class="node">
<title>doc_property_type</title>
<g id="a_node3"><a xlink:href="../../tables/doc_property_type.html" xlink:title="doc_property_type" target="_top">
<polygon fill="#ffffff" stroke="none" points="8,-144.5 8,-229 179.75,-229 179.75,-144.5 8,-144.5"/>
<polygon fill="#f5f5f5" stroke="none" points="8,-205.5 8,-229 179.75,-229 179.75,-205.5 8,-205.5"/>
<polygon fill="none" stroke="black" points="8,-205.5 8,-229 179.75,-229 179.75,-205.5 8,-205.5"/>
<text text-anchor="start" x="13" y="-214.55" font-family="Helvetica,sans-Serif" font-weight="bold" font-size="11.00">doc_property_type</text>
<text text-anchor="start" x="138" y="-213.55" font-family="Helvetica,sans-Serif" font-size="11.00">[table]</text>
<polygon fill="none" stroke="black" points="8,-183.5 8,-205.5 179.75,-205.5 179.75,-183.5 8,-183.5"/>
<image xlink:href="../../images/primaryKeys.png" width="11px" height="12px" preserveAspectRatio="xMinYMin meet" x="13" y="-200.5"/>
<text text-anchor="start" x="39.88" y="-190.05" font-family="Helvetica,sans-Serif" font-size="11.00">identifier</text>
<polygon fill="none" stroke="black" points="8,-164 8,-183.5 179.75,-183.5 179.75,-164 8,-164"/>
<text text-anchor="start" x="11" y="-170.05" font-family="Helvetica,sans-Serif" font-size="11.00">...</text>
<polygon fill="#ffffff" stroke="none" points="8,-144.5 8,-164 61.25,-164 61.25,-144.5 8,-144.5"/>
<polygon fill="none" stroke="black" points="8,-144.5 8,-164 61.25,-164 61.25,-144.5 8,-144.5"/>
<text text-anchor="start" x="11" y="-150.55" font-family="Helvetica,sans-Serif" font-size="11.00"> &#160;</text>
<polygon fill="#ffffff" stroke="none" points="61.25,-144.5 61.25,-164 114.5,-164 114.5,-144.5 61.25,-144.5"/>
<polygon fill="none" stroke="black" points="61.25,-144.5 61.25,-164 114.5,-164 114.5,-144.5 61.25,-144.5"/>
<text text-anchor="start" x="104" y="-150.55" font-family="Helvetica,sans-Serif" font-size="11.00"> &#160;</text>
<polygon fill="#ffffff" stroke="none" points="114.5,-144.5 114.5,-164 179.75,-164 179.75,-144.5 114.5,-144.5"/>
<polygon fill="none" stroke="black" points="114.5,-144.5 114.5,-164 179.75,-164 179.75,-144.5 114.5,-144.5"/>
<text text-anchor="start" x="157.25" y="-150.55" font-family="Helvetica,sans-Serif" font-size="11.00">4 &gt;</text>
</a>
</g>
</g>
<!-- doc_export_property&#45;&gt;doc_property_type -->
<g id="edge2" class="edge">
<title>doc_export_property:w&#45;&gt;doc_property_type:e</title>
<path fill="none" stroke="black" d="M215.71,-447.52C183.32,-405.49 233.74,-194.5 180.75,-194.5"/>
<polygon fill="black" stroke="black" points="222.34,-450.93 227.8,-457.8 226.19,-452.92 229.16,-454.44 229.16,-454.44 229.16,-454.44 226.19,-452.92 231.1,-451.4 222.34,-450.93"/>
<ellipse fill="none" stroke="black" cx="217.97" cy="-448.68" rx="3.2" ry="3.2"/>
</g>
<!-- doc_property -->
<g id="node4" class="node">
<title>doc_property</title>
<g id="a_node4"><a xlink:href="../../tables/doc_property.html" xlink:title="doc_property" target="_top">
<polygon fill="#ffffff" stroke="none" points="302,-206.5 302,-269 436.75,-269 436.75,-206.5 302,-206.5"/>
<polygon fill="#f5f5f5" stroke="none" points="302,-245.5 302,-269 436.75,-269 436.75,-245.5 302,-245.5"/>
<polygon fill="none" stroke="black" points="302,-245.5 302,-269 436.75,-269 436.75,-245.5 302,-245.5"/>
<text text-anchor="start" x="307" y="-254.55" font-family="Helvetica,sans-Serif" font-weight="bold" font-size="11.00">doc_property</text>
<text text-anchor="start" x="395" y="-253.55" font-family="Helvetica,sans-Serif" font-size="11.00">[table]</text>
<polygon fill="none" stroke="black" points="302,-226 302,-245.5 436.75,-245.5 436.75,-226 302,-226"/>
<text text-anchor="start" x="305" y="-232.05" font-family="Helvetica,sans-Serif" font-size="11.00">...</text>
<polygon fill="#ffffff" stroke="none" points="302,-206.5 302,-226 354.92,-226 354.92,-206.5 302,-206.5"/>
<polygon fill="none" stroke="black" points="302,-206.5 302,-226 354.92,-226 354.92,-206.5 302,-206.5"/>
<text text-anchor="start" x="305" y="-212.55" font-family="Helvetica,sans-Serif" font-size="11.00">&lt; 2</text>
<polygon fill="#ffffff" stroke="none" points="354.92,-206.5 354.92,-226 395.83,-226 395.83,-206.5 354.92,-206.5"/>
<polygon fill="none" stroke="black" points="354.92,-206.5 354.92,-226 395.83,-226 395.83,-206.5 354.92,-206.5"/>
<text text-anchor="start" x="385.33" y="-212.55" font-family="Helvetica,sans-Serif" font-size="11.00"> &#160;</text>
<polygon fill="#ffffff" stroke="none" points="395.83,-206.5 395.83,-226 436.75,-226 436.75,-206.5 395.83,-206.5"/>
<polygon fill="none" stroke="black" points="395.83,-206.5 395.83,-226 436.75,-226 436.75,-206.5 395.83,-206.5"/>
<text text-anchor="start" x="426.25" y="-212.55" font-family="Helvetica,sans-Serif" font-size="11.00"> &#160;</text>
</a>
</g>
</g>
<!-- doc_property&#45;&gt;doc_property_type -->
<g id="edge3" class="edge">
<title>doc_property:w&#45;&gt;doc_property_type:e</title>
<path fill="none" stroke="black" d="M285.21,-234.56C242.52,-227.8 231.51,-194.5 180.75,-194.5"/>
<polygon fill="black" stroke="black" points="292.69,-235.12 300.4,-239.31 297.01,-235.45 300.33,-235.7 300.33,-235.7 300.33,-235.7 297.01,-235.45 300.94,-232.14 292.69,-235.12"/>
<ellipse fill="none" stroke="black" cx="287.78" cy="-234.75" rx="3.2" ry="3.2"/>
</g>
<!-- doc_unit -->
<g id="node5" class="node">
<title>doc_unit</title>
<g id="a_node5"><a xlink:href="../../tables/doc_unit.html" xlink:title="doc_unit" target="_top">
<polygon fill="#ffffff" stroke="none" points="318,-600.5 318,-663 420.75,-663 420.75,-600.5 318,-600.5"/>
<polygon fill="#f5f5f5" stroke="none" points="318,-639.5 318,-663 420.75,-663 420.75,-639.5 318,-639.5"/>
<polygon fill="none" stroke="black" points="318,-639.5 318,-663 420.75,-663 420.75,-639.5 318,-639.5"/>
<text text-anchor="start" x="323" y="-648.55" font-family="Helvetica,sans-Serif" font-weight="bold" font-size="11.00">doc_unit</text>
<text text-anchor="start" x="379" y="-647.55" font-family="Helvetica,sans-Serif" font-size="11.00">[table]</text>
<polygon fill="none" stroke="black" points="318,-620 318,-639.5 420.75,-639.5 420.75,-620 318,-620"/>
<text text-anchor="start" x="321" y="-626.05" font-family="Helvetica,sans-Serif" font-size="11.00">...</text>
<polygon fill="#ffffff" stroke="none" points="318,-600.5 318,-620 358.5,-620 358.5,-600.5 318,-600.5"/>
<polygon fill="none" stroke="black" points="318,-600.5 318,-620 358.5,-620 358.5,-600.5 318,-600.5"/>
<text text-anchor="start" x="321" y="-606.55" font-family="Helvetica,sans-Serif" font-size="11.00">&lt; 13</text>
<polygon fill="#ffffff" stroke="none" points="358.5,-600.5 358.5,-620 380.25,-620 380.25,-600.5 358.5,-600.5"/>
<polygon fill="none" stroke="black" points="358.5,-600.5 358.5,-620 380.25,-620 380.25,-600.5 358.5,-600.5"/>
<text text-anchor="start" x="369.75" y="-606.55" font-family="Helvetica,sans-Serif" font-size="11.00"> &#160;</text>
<polygon fill="#ffffff" stroke="none" points="380.25,-600.5 380.25,-620 420.75,-620 420.75,-600.5 380.25,-600.5"/>
<polygon fill="none" stroke="black" points="380.25,-600.5 380.25,-620 420.75,-620 420.75,-600.5 380.25,-600.5"/>
<text text-anchor="start" x="391.5" y="-606.55" font-family="Helvetica,sans-Serif" font-size="11.00">11 &gt;</text>
</a>
</g>
</g>
<!-- doc_unit&#45;&gt;doc_export_data -->
<g id="edge4" class="edge">
<title>doc_unit:w&#45;&gt;doc_export_data:e</title>
<path fill="none" stroke="black" d="M301.54,-629.2C267.22,-626.54 253.4,-614.07 220.75,-589.75 193.96,-569.79 206.66,-531.5 173.25,-531.5"/>
<polygon fill="black" stroke="black" points="308.67,-629.45 316.54,-633.34 313,-629.61 316.33,-629.73 316.33,-629.73 316.33,-629.73 313,-629.61 316.79,-626.14 308.67,-629.45"/>
<ellipse fill="none" stroke="black" cx="303.76" cy="-629.28" rx="3.2" ry="3.2"/>
</g>
<!-- exc_csv_mapping_rule -->
<g id="node6" class="node">
<title>exc_csv_mapping_rule</title>
<g id="a_node6"><a xlink:href="../../tables/exc_csv_mapping_rule.html" xlink:title="exc_csv_mapping_rule" target="_top">
<polygon fill="#ffffff" stroke="none" points="272,-122.5 272,-185 466.75,-185 466.75,-122.5 272,-122.5"/>
<polygon fill="#f5f5f5" stroke="none" points="272,-161.5 272,-185 466.75,-185 466.75,-161.5 272,-161.5"/>
<polygon fill="none" stroke="black" points="272,-161.5 272,-185 466.75,-185 466.75,-161.5 272,-161.5"/>
<text text-anchor="start" x="277" y="-170.55" font-family="Helvetica,sans-Serif" font-weight="bold" font-size="11.00">exc_csv_mapping_rule</text>
<text text-anchor="start" x="425" y="-169.55" font-family="Helvetica,sans-Serif" font-size="11.00">[table]</text>
<polygon fill="none" stroke="black" points="272,-142 272,-161.5 466.75,-161.5 466.75,-142 272,-142"/>
<text text-anchor="start" x="275" y="-148.05" font-family="Helvetica,sans-Serif" font-size="11.00">...</text>
<polygon fill="#ffffff" stroke="none" points="272,-122.5 272,-142 344.92,-142 344.92,-122.5 272,-122.5"/>
<polygon fill="none" stroke="black" points="272,-122.5 272,-142 344.92,-142 344.92,-122.5 272,-122.5"/>
<text text-anchor="start" x="275" y="-128.55" font-family="Helvetica,sans-Serif" font-size="11.00">&lt; 2</text>
<polygon fill="#ffffff" stroke="none" points="344.92,-122.5 344.92,-142 405.83,-142 405.83,-122.5 344.92,-122.5"/>
<polygon fill="none" stroke="black" points="344.92,-122.5 344.92,-142 405.83,-142 405.83,-122.5 344.92,-122.5"/>
<text text-anchor="start" x="395.33" y="-128.55" font-family="Helvetica,sans-Serif" font-size="11.00"> &#160;</text>
<polygon fill="#ffffff" stroke="none" points="405.83,-122.5 405.83,-142 466.75,-142 466.75,-122.5 405.83,-122.5"/>
<polygon fill="none" stroke="black" points="405.83,-122.5 405.83,-142 466.75,-142 466.75,-122.5 405.83,-122.5"/>
<text text-anchor="start" x="456.25" y="-128.55" font-family="Helvetica,sans-Serif" font-size="11.00"> &#160;</text>
</a>
</g>
</g>
<!-- exc_csv_mapping_rule&#45;&gt;doc_property_type -->
<g id="edge5" class="edge">
<title>exc_csv_mapping_rule:w&#45;&gt;doc_property_type:e</title>
<path fill="none" stroke="black" d="M255.39,-153.81C225.47,-162.35 219.24,-194.5 180.75,-194.5"/>
<polygon fill="black" stroke="black" points="262.74,-152.84 271.14,-155.36 267.03,-152.27 270.34,-151.84 270.34,-151.84 270.34,-151.84 267.03,-152.27 270.2,-148.22 262.74,-152.84"/>
<ellipse fill="none" stroke="black" cx="257.86" cy="-153.49" rx="3.2" ry="3.2"/>
</g>
<!-- exc_mapping_rule -->
<g id="node7" class="node">
<title>exc_mapping_rule</title>
<g id="a_node7"><a xlink:href="../../tables/exc_mapping_rule.html" xlink:title="exc_mapping_rule" target="_top">
<polygon fill="#ffffff" stroke="none" points="286,-38.5 286,-101 452.75,-101 452.75,-38.5 286,-38.5"/>
<polygon fill="#f5f5f5" stroke="none" points="286,-77.5 286,-101 452.75,-101 452.75,-77.5 286,-77.5"/>
<polygon fill="none" stroke="black" points="286,-77.5 286,-101 452.75,-101 452.75,-77.5 286,-77.5"/>
<text text-anchor="start" x="291" y="-86.55" font-family="Helvetica,sans-Serif" font-weight="bold" font-size="11.00">exc_mapping_rule</text>
<text text-anchor="start" x="411" y="-85.55" font-family="Helvetica,sans-Serif" font-size="11.00">[table]</text>
<polygon fill="none" stroke="black" points="286,-58 286,-77.5 452.75,-77.5 452.75,-58 286,-58"/>
<text text-anchor="start" x="289" y="-64.05" font-family="Helvetica,sans-Serif" font-size="11.00">...</text>
<polygon fill="#ffffff" stroke="none" points="286,-38.5 286,-58 349.58,-58 349.58,-38.5 286,-38.5"/>
<polygon fill="none" stroke="black" points="286,-38.5 286,-58 349.58,-58 349.58,-38.5 286,-38.5"/>
<text text-anchor="start" x="289" y="-44.55" font-family="Helvetica,sans-Serif" font-size="11.00">&lt; 2</text>
<polygon fill="#ffffff" stroke="none" points="349.58,-38.5 349.58,-58 401.17,-58 401.17,-38.5 349.58,-38.5"/>
<polygon fill="none" stroke="black" points="349.58,-38.5 349.58,-58 401.17,-58 401.17,-38.5 349.58,-38.5"/>
<text text-anchor="start" x="390.67" y="-44.55" font-family="Helvetica,sans-Serif" font-size="11.00"> &#160;</text>
<polygon fill="#ffffff" stroke="none" points="401.17,-38.5 401.17,-58 452.75,-58 452.75,-38.5 401.17,-38.5"/>
<polygon fill="none" stroke="black" points="401.17,-38.5 401.17,-58 452.75,-58 452.75,-38.5 401.17,-38.5"/>
<text text-anchor="start" x="442.25" y="-44.55" font-family="Helvetica,sans-Serif" font-size="11.00"> &#160;</text>
</a>
</g>
</g>
<!-- exc_mapping_rule&#45;&gt;doc_property_type -->
<g id="edge6" class="edge">
<title>exc_mapping_rule:w&#45;&gt;doc_property_type:e</title>
<path fill="none" stroke="black" d="M269.38,-69.28C247.5,-74.11 239.44,-90.02 220.75,-111.75 194.11,-142.72 221.6,-194.5 180.75,-194.5"/>
<polygon fill="black" stroke="black" points="276.71,-68.56 285.02,-71.37 281.02,-68.14 284.33,-67.82 284.33,-67.82 284.33,-67.82 281.02,-68.14 284.32,-64.2 276.71,-68.56"/>
<ellipse fill="none" stroke="black" cx="271.81" cy="-69.04" rx="3.2" ry="3.2"/>
</g>
</g>
</svg>
