<?xml version="1.0" encoding="UTF-8" standalone="no"?>
<!DOCTYPE svg PUBLIC "-//W3C//DTD SVG 1.1//EN"
 "http://www.w3.org/Graphics/SVG/1.1/DTD/svg11.dtd">
<!-- Generated by graphviz version 12.2.0 (0)
 -->
<!-- Title: twoDegreesRelationshipsDiagram Pages: 1 -->
<svg width="737pt" height="379pt"
 viewBox="0.00 0.00 737.00 379.25" xmlns="http://www.w3.org/2000/svg" xmlns:xlink="http://www.w3.org/1999/xlink">
<g id="graph0" class="graph" transform="scale(1 1) rotate(0) translate(4 375.25)">
<title>twoDegreesRelationshipsDiagram</title>
<polygon fill="#ffffff" stroke="none" points="-4,4 -4,-375.25 733,-375.25 733,4 -4,4"/>
<text text-anchor="middle" x="79.25" y="-7.05" font-family="Helvetica,sans-Serif" font-size="11.00">Generated by SchemaSpy</text>
<!-- doc_condreport -->
<g id="node1" class="node">
<title>doc_condreport</title>
<g id="a_node1"><a xlink:href="../../tables/doc_condreport.html" xlink:title="doc_condreport" target="_top">
<polygon fill="#ffffff" stroke="none" points="159.75,-94.5 159.75,-201 315.75,-201 315.75,-94.5 159.75,-94.5"/>
<polygon fill="#f5f5f5" stroke="none" points="159.75,-177.5 159.75,-201 315.75,-201 315.75,-177.5 159.75,-177.5"/>
<polygon fill="none" stroke="black" points="159.75,-177.5 159.75,-201 315.75,-201 315.75,-177.5 159.75,-177.5"/>
<text text-anchor="start" x="164.75" y="-186.55" font-family="Helvetica,sans-Serif" font-weight="bold" font-size="11.00">doc_condreport</text>
<text text-anchor="start" x="274" y="-185.55" font-family="Helvetica,sans-Serif" font-size="11.00">[table]</text>
<polygon fill="none" stroke="black" points="159.75,-155.5 159.75,-177.5 315.75,-177.5 315.75,-155.5 159.75,-155.5"/>
<image xlink:href="../../images/primaryKeys.png" width="11px" height="12px" preserveAspectRatio="xMinYMin meet" x="164.75" y="-172.5"/>
<text text-anchor="start" x="179.75" y="-162.05" font-family="Helvetica,sans-Serif" font-size="11.00">identifier</text>
<polygon fill="#ffffff" stroke="none" points="159.75,-133.5 159.75,-155.5 315.75,-155.5 315.75,-133.5 159.75,-133.5"/>
<polygon fill="none" stroke="black" points="159.75,-133.5 159.75,-155.5 315.75,-155.5 315.75,-133.5 159.75,-133.5"/>
<image xlink:href="../../images/foreignKeys.png" width="11px" height="12px" preserveAspectRatio="xMinYMin meet" x="164.75" y="-150.5"/>
<text text-anchor="start" x="179.75" y="-140.05" font-family="Helvetica,sans-Serif" font-size="11.00">doc_unit</text>
<polygon fill="none" stroke="black" points="159.75,-114 159.75,-133.5 315.75,-133.5 315.75,-114 159.75,-114"/>
<text text-anchor="start" x="162.75" y="-120.05" font-family="Helvetica,sans-Serif" font-size="11.00">...</text>
<polygon fill="#ffffff" stroke="none" points="159.75,-94.5 159.75,-114 215.75,-114 215.75,-94.5 159.75,-94.5"/>
<polygon fill="none" stroke="black" points="159.75,-94.5 159.75,-114 215.75,-114 215.75,-94.5 159.75,-94.5"/>
<text text-anchor="start" x="162.75" y="-100.55" font-family="Helvetica,sans-Serif" font-size="11.00">&lt; 1</text>
<polygon fill="#ffffff" stroke="none" points="215.75,-94.5 215.75,-114 259.75,-114 259.75,-94.5 215.75,-94.5"/>
<polygon fill="none" stroke="black" points="215.75,-94.5 215.75,-114 259.75,-114 259.75,-94.5 215.75,-94.5"/>
<text text-anchor="start" x="249.25" y="-100.55" font-family="Helvetica,sans-Serif" font-size="11.00"> &#160;</text>
<polygon fill="#ffffff" stroke="none" points="259.75,-94.5 259.75,-114 315.75,-114 315.75,-94.5 259.75,-94.5"/>
<polygon fill="none" stroke="black" points="259.75,-94.5 259.75,-114 315.75,-114 315.75,-94.5 259.75,-94.5"/>
<text text-anchor="start" x="293.25" y="-100.55" font-family="Helvetica,sans-Serif" font-size="11.00">2 &gt;</text>
</a>
</g>
</g>
<!-- doc_unit -->
<g id="node2" class="node">
<title>doc_unit</title>
<g id="a_node2"><a xlink:href="../../tables/doc_unit.html" xlink:title="doc_unit" target="_top">
<polygon fill="#ffffff" stroke="none" points="8,-115.5 8,-178 110.75,-178 110.75,-115.5 8,-115.5"/>
<polygon fill="#f5f5f5" stroke="none" points="8,-154.5 8,-178 110.75,-178 110.75,-154.5 8,-154.5"/>
<polygon fill="none" stroke="black" points="8,-154.5 8,-178 110.75,-178 110.75,-154.5 8,-154.5"/>
<text text-anchor="start" x="13" y="-163.55" font-family="Helvetica,sans-Serif" font-weight="bold" font-size="11.00">doc_unit</text>
<text text-anchor="start" x="69" y="-162.55" font-family="Helvetica,sans-Serif" font-size="11.00">[table]</text>
<polygon fill="none" stroke="black" points="8,-135 8,-154.5 110.75,-154.5 110.75,-135 8,-135"/>
<text text-anchor="start" x="11" y="-141.05" font-family="Helvetica,sans-Serif" font-size="11.00">...</text>
<polygon fill="#ffffff" stroke="none" points="8,-115.5 8,-135 48.5,-135 48.5,-115.5 8,-115.5"/>
<polygon fill="none" stroke="black" points="8,-115.5 8,-135 48.5,-135 48.5,-115.5 8,-115.5"/>
<text text-anchor="start" x="11" y="-121.55" font-family="Helvetica,sans-Serif" font-size="11.00">&lt; 13</text>
<polygon fill="#ffffff" stroke="none" points="48.5,-115.5 48.5,-135 70.25,-135 70.25,-115.5 48.5,-115.5"/>
<polygon fill="none" stroke="black" points="48.5,-115.5 48.5,-135 70.25,-135 70.25,-115.5 48.5,-115.5"/>
<text text-anchor="start" x="59.75" y="-121.55" font-family="Helvetica,sans-Serif" font-size="11.00"> &#160;</text>
<polygon fill="#ffffff" stroke="none" points="70.25,-115.5 70.25,-135 110.75,-135 110.75,-115.5 70.25,-115.5"/>
<polygon fill="none" stroke="black" points="70.25,-115.5 70.25,-135 110.75,-135 110.75,-115.5 70.25,-115.5"/>
<text text-anchor="start" x="81.5" y="-121.55" font-family="Helvetica,sans-Serif" font-size="11.00">11 &gt;</text>
</a>
</g>
</g>
<!-- doc_condreport&#45;&gt;doc_unit -->
<g id="edge1" class="edge">
<title>doc_condreport:w&#45;&gt;doc_unit:e</title>
<path fill="none" stroke="black" d="M143.13,-144.56C133.22,-144.63 126.27,-144.75 111.75,-144.75"/>
<polygon fill="black" stroke="black" points="150.42,-144.53 158.43,-148.1 154.75,-144.51 158.08,-144.5 158.08,-144.5 158.08,-144.5 154.75,-144.51 158.4,-140.9 150.42,-144.53"/>
<ellipse fill="none" stroke="black" cx="145.5" cy="-144.55" rx="3.2" ry="3.2"/>
</g>
<!-- doc_condreport_attachment -->
<g id="node3" class="node">
<title>doc_condreport_attachment</title>
<g id="a_node3"><a xlink:href="../../tables/doc_condreport_attachment.html" xlink:title="doc_condreport_attachment" target="_top">
<polygon fill="#ffffff" stroke="none" points="364.75,-122.25 364.75,-367.25 721,-367.25 721,-122.25 364.75,-122.25"/>
<polygon fill="#f5f5f5" stroke="none" points="366.75,-341.75 366.75,-365.25 719,-365.25 719,-341.75 366.75,-341.75"/>
<polygon fill="none" stroke="black" points="366.75,-341.75 366.75,-365.25 719,-365.25 719,-341.75 366.75,-341.75"/>
<text text-anchor="start" x="371.75" y="-350.8" font-family="Helvetica,sans-Serif" font-weight="bold" font-size="11.00">doc_condreport_attachment</text>
<text text-anchor="start" x="677.25" y="-349.8" font-family="Helvetica,sans-Serif" font-size="11.00">[table]</text>
<polygon fill="none" stroke="black" points="366.75,-319.75 366.75,-341.75 576.75,-341.75 576.75,-319.75 366.75,-319.75"/>
<image xlink:href="../../images/primaryKeys.png" width="11px" height="12px" preserveAspectRatio="xMinYMin meet" x="371.75" y="-336.75"/>
<text text-anchor="start" x="386.75" y="-326.3" font-family="Helvetica,sans-Serif" font-size="11.00">identifier</text>
<polygon fill="none" stroke="black" points="576.75,-319.75 576.75,-341.75 691.75,-341.75 691.75,-319.75 576.75,-319.75"/>
<text text-anchor="start" x="579.75" y="-327.05" font-family="Helvetica,sans-Serif" font-size="11.00">varchar[191]</text>
<polygon fill="none" stroke="black" points="366.75,-297.75 366.75,-319.75 576.75,-319.75 576.75,-297.75 366.75,-297.75"/>
<text text-anchor="start" x="386.75" y="-304.3" font-family="Helvetica,sans-Serif" font-size="11.00">original_filename</text>
<polygon fill="none" stroke="black" points="576.75,-297.75 576.75,-319.75 691.75,-319.75 691.75,-297.75 576.75,-297.75"/>
<text text-anchor="start" x="579.75" y="-305.05" font-family="Helvetica,sans-Serif" font-size="11.00">varchar[1024]</text>
<polygon fill="none" stroke="black" points="366.75,-275.75 366.75,-297.75 576.75,-297.75 576.75,-275.75 366.75,-275.75"/>
<text text-anchor="start" x="386.75" y="-282.3" font-family="Helvetica,sans-Serif" font-size="11.00">file_size</text>
<polygon fill="none" stroke="black" points="576.75,-275.75 576.75,-297.75 691.75,-297.75 691.75,-275.75 576.75,-275.75"/>
<text text-anchor="start" x="579.75" y="-283.05" font-family="Helvetica,sans-Serif" font-size="11.00">bigint[19]</text>
<polygon fill="#ffffff" stroke="none" points="366.75,-253.75 366.75,-275.75 576.75,-275.75 576.75,-253.75 366.75,-253.75"/>
<polygon fill="none" stroke="black" points="366.75,-253.75 366.75,-275.75 576.75,-275.75 576.75,-253.75 366.75,-253.75"/>
<image xlink:href="../../images/foreignKeys.png" width="11px" height="12px" preserveAspectRatio="xMinYMin meet" x="371.75" y="-270.75"/>
<text text-anchor="start" x="386.75" y="-260.3" font-family="Helvetica,sans-Serif" font-size="11.00">report</text>
<polygon fill="none" stroke="black" points="576.75,-253.75 576.75,-275.75 691.75,-275.75 691.75,-253.75 576.75,-253.75"/>
<text text-anchor="start" x="579.75" y="-261.05" font-family="Helvetica,sans-Serif" font-size="11.00">varchar[191]</text>
<polygon fill="none" stroke="black" points="366.75,-231.75 366.75,-253.75 576.75,-253.75 576.75,-231.75 366.75,-231.75"/>
<text text-anchor="start" x="386.75" y="-238.3" font-family="Helvetica,sans-Serif" font-size="11.00">version</text>
<polygon fill="none" stroke="black" points="576.75,-231.75 576.75,-253.75 691.75,-253.75 691.75,-231.75 576.75,-231.75"/>
<text text-anchor="start" x="579.75" y="-239.05" font-family="Helvetica,sans-Serif" font-size="11.00">bigint[19]</text>
<polygon fill="none" stroke="black" points="366.75,-209.75 366.75,-231.75 576.75,-231.75 576.75,-209.75 366.75,-209.75"/>
<text text-anchor="start" x="386.75" y="-216.3" font-family="Helvetica,sans-Serif" font-size="11.00">created_by</text>
<polygon fill="none" stroke="black" points="576.75,-209.75 576.75,-231.75 691.75,-231.75 691.75,-209.75 576.75,-209.75"/>
<text text-anchor="start" x="579.75" y="-217.05" font-family="Helvetica,sans-Serif" font-size="11.00">varchar[191]</text>
<polygon fill="none" stroke="black" points="366.75,-187.75 366.75,-209.75 576.75,-209.75 576.75,-187.75 366.75,-187.75"/>
<text text-anchor="start" x="386.75" y="-194.3" font-family="Helvetica,sans-Serif" font-size="11.00">last_modified_by</text>
<polygon fill="none" stroke="black" points="576.75,-187.75 576.75,-209.75 691.75,-209.75 691.75,-187.75 576.75,-187.75"/>
<text text-anchor="start" x="579.75" y="-195.05" font-family="Helvetica,sans-Serif" font-size="11.00">varchar[191]</text>
<polygon fill="none" stroke="black" points="366.75,-165.75 366.75,-187.75 576.75,-187.75 576.75,-165.75 366.75,-165.75"/>
<text text-anchor="start" x="386.75" y="-172.3" font-family="Helvetica,sans-Serif" font-size="11.00">created_date</text>
<polygon fill="none" stroke="black" points="576.75,-165.75 576.75,-187.75 691.75,-187.75 691.75,-165.75 576.75,-165.75"/>
<text text-anchor="start" x="579.75" y="-173.05" font-family="Helvetica,sans-Serif" font-size="11.00">timestamp[19]</text>
<polygon fill="none" stroke="black" points="366.75,-143.75 366.75,-165.75 576.75,-165.75 576.75,-143.75 366.75,-143.75"/>
<text text-anchor="start" x="386.75" y="-150.3" font-family="Helvetica,sans-Serif" font-size="11.00">last_modified_date</text>
<polygon fill="none" stroke="black" points="576.75,-143.75 576.75,-165.75 691.75,-165.75 691.75,-143.75 576.75,-143.75"/>
<text text-anchor="start" x="579.75" y="-151.05" font-family="Helvetica,sans-Serif" font-size="11.00">timestamp[19]</text>
<polygon fill="#ffffff" stroke="none" points="366.75,-124.25 366.75,-143.75 477.75,-143.75 477.75,-124.25 366.75,-124.25"/>
<polygon fill="none" stroke="black" points="366.75,-124.25 366.75,-143.75 477.75,-143.75 477.75,-124.25 366.75,-124.25"/>
<text text-anchor="start" x="369.75" y="-130.3" font-family="Helvetica,sans-Serif" font-size="11.00">&lt; 1</text>
<polygon fill="#ffffff" stroke="none" points="477.75,-124.25 477.75,-143.75 576.75,-143.75 576.75,-124.25 477.75,-124.25"/>
<polygon fill="none" stroke="black" points="477.75,-124.25 477.75,-143.75 576.75,-143.75 576.75,-124.25 477.75,-124.25"/>
<text text-anchor="start" x="566.25" y="-130.3" font-family="Helvetica,sans-Serif" font-size="11.00"> &#160;</text>
<polygon fill="#ffffff" stroke="none" points="576.75,-124.25 576.75,-143.75 691.75,-143.75 691.75,-124.25 576.75,-124.25"/>
<polygon fill="none" stroke="black" points="576.75,-124.25 576.75,-143.75 691.75,-143.75 691.75,-124.25 576.75,-124.25"/>
<text text-anchor="start" x="669.25" y="-130.3" font-family="Helvetica,sans-Serif" font-size="11.00">0 &gt;</text>
<polygon fill="none" stroke="black" stroke-width="2" points="365.75,-123.25 365.75,-366.25 720,-366.25 720,-123.25 365.75,-123.25"/>
</a>
</g>
</g>
<!-- doc_condreport_attachment&#45;&gt;doc_condreport -->
<g id="edge2" class="edge">
<title>doc_condreport_attachment:w&#45;&gt;doc_condreport:e</title>
<path fill="none" stroke="black" d="M351.01,-260.01C328.14,-240.39 359.07,-166.5 316.75,-166.5"/>
<polygon fill="black" stroke="black" points="357.82,-262.2 364.33,-268.08 361.94,-263.53 365.11,-264.55 365.11,-264.55 365.11,-264.55 361.94,-263.53 366.53,-261.22 357.82,-262.2"/>
<ellipse fill="none" stroke="black" cx="353.13" cy="-260.69" rx="3.2" ry="3.2"/>
</g>
<!-- doc_condreport_detail -->
<g id="node4" class="node">
<title>doc_condreport_detail</title>
<g id="a_node4"><a xlink:href="../../tables/doc_condreport_detail.html" xlink:title="doc_condreport_detail" target="_top">
<polygon fill="#ffffff" stroke="none" points="445,-38.5 445,-101 640.75,-101 640.75,-38.5 445,-38.5"/>
<polygon fill="#f5f5f5" stroke="none" points="445,-77.5 445,-101 640.75,-101 640.75,-77.5 445,-77.5"/>
<polygon fill="none" stroke="black" points="445,-77.5 445,-101 640.75,-101 640.75,-77.5 445,-77.5"/>
<text text-anchor="start" x="450" y="-86.55" font-family="Helvetica,sans-Serif" font-weight="bold" font-size="11.00">doc_condreport_detail</text>
<text text-anchor="start" x="599" y="-85.55" font-family="Helvetica,sans-Serif" font-size="11.00">[table]</text>
<polygon fill="none" stroke="black" points="445,-58 445,-77.5 640.75,-77.5 640.75,-58 445,-58"/>
<text text-anchor="start" x="448" y="-64.05" font-family="Helvetica,sans-Serif" font-size="11.00">...</text>
<polygon fill="#ffffff" stroke="none" points="445,-38.5 445,-58 514.25,-58 514.25,-38.5 445,-38.5"/>
<polygon fill="none" stroke="black" points="445,-38.5 445,-58 514.25,-58 514.25,-38.5 445,-38.5"/>
<text text-anchor="start" x="448" y="-44.55" font-family="Helvetica,sans-Serif" font-size="11.00">&lt; 1</text>
<polygon fill="#ffffff" stroke="none" points="514.25,-38.5 514.25,-58 571.5,-58 571.5,-38.5 514.25,-38.5"/>
<polygon fill="none" stroke="black" points="514.25,-38.5 514.25,-58 571.5,-58 571.5,-38.5 514.25,-38.5"/>
<text text-anchor="start" x="561" y="-44.55" font-family="Helvetica,sans-Serif" font-size="11.00"> &#160;</text>
<polygon fill="#ffffff" stroke="none" points="571.5,-38.5 571.5,-58 640.75,-58 640.75,-38.5 571.5,-38.5"/>
<polygon fill="none" stroke="black" points="571.5,-38.5 571.5,-58 640.75,-58 640.75,-38.5 571.5,-38.5"/>
<text text-anchor="start" x="618.25" y="-44.55" font-family="Helvetica,sans-Serif" font-size="11.00">1 &gt;</text>
</a>
</g>
</g>
<!-- doc_condreport_detail&#45;&gt;doc_condreport -->
<g id="edge3" class="edge">
<title>doc_condreport_detail:w&#45;&gt;doc_condreport:e</title>
<path fill="none" stroke="black" d="M428.3,-68.58C397.33,-72.19 385.47,-87.39 356.75,-111.75 333.77,-131.24 346.89,-166.5 316.75,-166.5"/>
<polygon fill="black" stroke="black" points="435.68,-68.19 443.86,-71.36 440.01,-67.96 443.33,-67.79 443.33,-67.79 443.33,-67.79 440.01,-67.96 443.48,-64.17 435.68,-68.19"/>
<ellipse fill="none" stroke="black" cx="430.77" cy="-68.45" rx="3.2" ry="3.2"/>
</g>
</g>
</svg>
