<?xml version="1.0" encoding="UTF-8" standalone="no"?>
<!DOCTYPE svg PUBLIC "-//W3C//DTD SVG 1.1//EN"
 "http://www.w3.org/Graphics/SVG/1.1/DTD/svg11.dtd">
<!-- Generated by graphviz version 12.2.0 (0)
 -->
<!-- Title: twoDegreesRelationshipsDiagram Pages: 1 -->
<svg width="745pt" height="489pt"
 viewBox="0.00 0.00 745.25 489.25" xmlns="http://www.w3.org/2000/svg" xmlns:xlink="http://www.w3.org/1999/xlink">
<g id="graph0" class="graph" transform="scale(1 1) rotate(0) translate(4 485.25)">
<title>twoDegreesRelationshipsDiagram</title>
<polygon fill="#ffffff" stroke="none" points="-4,4 -4,-485.25 741.25,-485.25 741.25,4 -4,4"/>
<text text-anchor="middle" x="79.25" y="-7.05" font-family="Helvetica,sans-Serif" font-size="11.00">Generated by SchemaSpy</text>
<!-- doc_unit -->
<g id="node1" class="node">
<title>doc_unit</title>
<g id="a_node1"><a xlink:href="../../tables/doc_unit.html" xlink:title="doc_unit" target="_top">
<polygon fill="#ffffff" stroke="none" points="542.5,-38.5 542.5,-101 645.25,-101 645.25,-38.5 542.5,-38.5"/>
<polygon fill="#f5f5f5" stroke="none" points="542.5,-77.5 542.5,-101 645.25,-101 645.25,-77.5 542.5,-77.5"/>
<polygon fill="none" stroke="black" points="542.5,-77.5 542.5,-101 645.25,-101 645.25,-77.5 542.5,-77.5"/>
<text text-anchor="start" x="547.5" y="-86.55" font-family="Helvetica,sans-Serif" font-weight="bold" font-size="11.00">doc_unit</text>
<text text-anchor="start" x="603.5" y="-85.55" font-family="Helvetica,sans-Serif" font-size="11.00">[table]</text>
<polygon fill="none" stroke="black" points="542.5,-58 542.5,-77.5 645.25,-77.5 645.25,-58 542.5,-58"/>
<text text-anchor="start" x="545.5" y="-64.05" font-family="Helvetica,sans-Serif" font-size="11.00">...</text>
<polygon fill="#ffffff" stroke="none" points="542.5,-38.5 542.5,-58 583,-58 583,-38.5 542.5,-38.5"/>
<polygon fill="none" stroke="black" points="542.5,-38.5 542.5,-58 583,-58 583,-38.5 542.5,-38.5"/>
<text text-anchor="start" x="545.5" y="-44.55" font-family="Helvetica,sans-Serif" font-size="11.00">&lt; 13</text>
<polygon fill="#ffffff" stroke="none" points="583,-38.5 583,-58 604.75,-58 604.75,-38.5 583,-38.5"/>
<polygon fill="none" stroke="black" points="583,-38.5 583,-58 604.75,-58 604.75,-38.5 583,-38.5"/>
<text text-anchor="start" x="594.25" y="-44.55" font-family="Helvetica,sans-Serif" font-size="11.00"> &#160;</text>
<polygon fill="#ffffff" stroke="none" points="604.75,-38.5 604.75,-58 645.25,-58 645.25,-38.5 604.75,-38.5"/>
<polygon fill="none" stroke="black" points="604.75,-38.5 604.75,-58 645.25,-58 645.25,-38.5 604.75,-38.5"/>
<text text-anchor="start" x="616" y="-44.55" font-family="Helvetica,sans-Serif" font-size="11.00">11 &gt;</text>
</a>
</g>
</g>
<!-- doc_workflow -->
<g id="node2" class="node">
<title>doc_workflow</title>
<g id="a_node2"><a xlink:href="../../tables/doc_workflow.html" xlink:title="doc_workflow" target="_top">
<polygon fill="#ffffff" stroke="none" points="237.12,-152.5 237.12,-259 385.12,-259 385.12,-152.5 237.12,-152.5"/>
<polygon fill="#f5f5f5" stroke="none" points="237.12,-235.5 237.12,-259 385.12,-259 385.12,-235.5 237.12,-235.5"/>
<polygon fill="none" stroke="black" points="237.12,-235.5 237.12,-259 385.12,-259 385.12,-235.5 237.12,-235.5"/>
<text text-anchor="start" x="242.12" y="-244.55" font-family="Helvetica,sans-Serif" font-weight="bold" font-size="11.00">doc_workflow</text>
<text text-anchor="start" x="343.38" y="-243.55" font-family="Helvetica,sans-Serif" font-size="11.00">[table]</text>
<polygon fill="none" stroke="black" points="237.12,-213.5 237.12,-235.5 385.12,-235.5 385.12,-213.5 237.12,-213.5"/>
<image xlink:href="../../images/primaryKeys.png" width="11px" height="12px" preserveAspectRatio="xMinYMin meet" x="242.125" y="-230.5"/>
<text text-anchor="start" x="257.12" y="-220.05" font-family="Helvetica,sans-Serif" font-size="11.00">identifier</text>
<polygon fill="#ffffff" stroke="none" points="237.12,-191.5 237.12,-213.5 385.12,-213.5 385.12,-191.5 237.12,-191.5"/>
<polygon fill="none" stroke="black" points="237.12,-191.5 237.12,-213.5 385.12,-213.5 385.12,-191.5 237.12,-191.5"/>
<image xlink:href="../../images/foreignKeys.png" width="11px" height="12px" preserveAspectRatio="xMinYMin meet" x="242.125" y="-208.5"/>
<text text-anchor="start" x="257.12" y="-198.05" font-family="Helvetica,sans-Serif" font-size="11.00">model</text>
<polygon fill="none" stroke="black" points="237.12,-172 237.12,-191.5 385.12,-191.5 385.12,-172 237.12,-172"/>
<text text-anchor="start" x="240.12" y="-178.05" font-family="Helvetica,sans-Serif" font-size="11.00">...</text>
<polygon fill="#ffffff" stroke="none" points="237.12,-152.5 237.12,-172 290.46,-172 290.46,-152.5 237.12,-152.5"/>
<polygon fill="none" stroke="black" points="237.12,-152.5 237.12,-172 290.46,-172 290.46,-152.5 237.12,-152.5"/>
<text text-anchor="start" x="240.12" y="-158.55" font-family="Helvetica,sans-Serif" font-size="11.00">&lt; 1</text>
<polygon fill="#ffffff" stroke="none" points="290.46,-152.5 290.46,-172 331.79,-172 331.79,-152.5 290.46,-152.5"/>
<polygon fill="none" stroke="black" points="290.46,-152.5 290.46,-172 331.79,-172 331.79,-152.5 290.46,-152.5"/>
<text text-anchor="start" x="321.29" y="-158.55" font-family="Helvetica,sans-Serif" font-size="11.00"> &#160;</text>
<polygon fill="#ffffff" stroke="none" points="331.79,-152.5 331.79,-172 385.12,-172 385.12,-152.5 331.79,-152.5"/>
<polygon fill="none" stroke="black" points="331.79,-152.5 331.79,-172 385.12,-172 385.12,-152.5 331.79,-152.5"/>
<text text-anchor="start" x="362.62" y="-158.55" font-family="Helvetica,sans-Serif" font-size="11.00">2 &gt;</text>
</a>
</g>
</g>
<!-- doc_unit&#45;&gt;doc_workflow -->
<g id="edge1" class="edge">
<title>doc_unit:w&#45;&gt;doc_workflow:e</title>
<path fill="none" stroke="black" d="M526.04,-68.38C492.96,-71.36 479.23,-84.92 450.5,-111.75 408.33,-151.13 443.83,-224.5 386.12,-224.5"/>
<polygon fill="black" stroke="black" points="533.17,-68.09 541.31,-71.36 537.5,-67.91 540.83,-67.78 540.83,-67.78 540.83,-67.78 537.5,-67.91 541.02,-64.17 533.17,-68.09"/>
<ellipse fill="none" stroke="black" cx="528.26" cy="-68.29" rx="3.2" ry="3.2"/>
</g>
<!-- workflow_model -->
<g id="node3" class="node">
<title>workflow_model</title>
<g id="a_node3"><a xlink:href="../../tables/workflow_model.html" xlink:title="workflow_model" target="_top">
<polygon fill="#ffffff" stroke="none" points="8,-206.5 8,-269 163.75,-269 163.75,-206.5 8,-206.5"/>
<polygon fill="#f5f5f5" stroke="none" points="8,-245.5 8,-269 163.75,-269 163.75,-245.5 8,-245.5"/>
<polygon fill="none" stroke="black" points="8,-245.5 8,-269 163.75,-269 163.75,-245.5 8,-245.5"/>
<text text-anchor="start" x="13" y="-254.55" font-family="Helvetica,sans-Serif" font-weight="bold" font-size="11.00">workflow_model</text>
<text text-anchor="start" x="122" y="-253.55" font-family="Helvetica,sans-Serif" font-size="11.00">[table]</text>
<polygon fill="none" stroke="black" points="8,-226 8,-245.5 163.75,-245.5 163.75,-226 8,-226"/>
<text text-anchor="start" x="11" y="-232.05" font-family="Helvetica,sans-Serif" font-size="11.00">...</text>
<polygon fill="#ffffff" stroke="none" points="8,-206.5 8,-226 63.92,-226 63.92,-206.5 8,-206.5"/>
<polygon fill="none" stroke="black" points="8,-206.5 8,-226 63.92,-226 63.92,-206.5 8,-206.5"/>
<text text-anchor="start" x="11" y="-212.55" font-family="Helvetica,sans-Serif" font-size="11.00">&lt; 1</text>
<polygon fill="#ffffff" stroke="none" points="63.92,-206.5 63.92,-226 107.83,-226 107.83,-206.5 63.92,-206.5"/>
<polygon fill="none" stroke="black" points="63.92,-206.5 63.92,-226 107.83,-226 107.83,-206.5 63.92,-206.5"/>
<text text-anchor="start" x="97.33" y="-212.55" font-family="Helvetica,sans-Serif" font-size="11.00"> &#160;</text>
<polygon fill="#ffffff" stroke="none" points="107.83,-206.5 107.83,-226 163.75,-226 163.75,-206.5 107.83,-206.5"/>
<polygon fill="none" stroke="black" points="107.83,-206.5 107.83,-226 163.75,-226 163.75,-206.5 107.83,-206.5"/>
<text text-anchor="start" x="141.25" y="-212.55" font-family="Helvetica,sans-Serif" font-size="11.00">4 &gt;</text>
</a>
</g>
</g>
<!-- doc_workflow&#45;&gt;workflow_model -->
<g id="edge2" class="edge">
<title>doc_workflow:w&#45;&gt;workflow_model:e</title>
<path fill="none" stroke="black" d="M220.72,-205.11C199.66,-212.95 193.73,-235.75 164.75,-235.75"/>
<polygon fill="black" stroke="black" points="227.91,-203.89 236.4,-206.11 232.18,-203.17 235.47,-202.61 235.47,-202.61 235.47,-202.61 232.18,-203.17 235.19,-199.01 227.91,-203.89"/>
<ellipse fill="none" stroke="black" cx="223.06" cy="-204.71" rx="3.2" ry="3.2"/>
</g>
<!-- doc_workflow_state -->
<g id="node4" class="node">
<title>doc_workflow_state</title>
<g id="a_node4"><a xlink:href="../../tables/doc_workflow_state.html" xlink:title="doc_workflow_state" target="_top">
<polygon fill="#ffffff" stroke="none" points="458.5,-122.25 458.5,-477.25 729.25,-477.25 729.25,-122.25 458.5,-122.25"/>
<polygon fill="#f5f5f5" stroke="none" points="460.5,-451.75 460.5,-475.25 727.25,-475.25 727.25,-451.75 460.5,-451.75"/>
<polygon fill="none" stroke="black" points="460.5,-451.75 460.5,-475.25 727.25,-475.25 727.25,-451.75 460.5,-451.75"/>
<text text-anchor="start" x="465.5" y="-460.8" font-family="Helvetica,sans-Serif" font-weight="bold" font-size="11.00">doc_workflow_state</text>
<text text-anchor="start" x="685.5" y="-459.8" font-family="Helvetica,sans-Serif" font-size="11.00">[table]</text>
<polygon fill="none" stroke="black" points="460.5,-429.75 460.5,-451.75 613.5,-451.75 613.5,-429.75 460.5,-429.75"/>
<image xlink:href="../../images/primaryKeys.png" width="11px" height="12px" preserveAspectRatio="xMinYMin meet" x="465.5" y="-446.75"/>
<text text-anchor="start" x="480.5" y="-436.3" font-family="Helvetica,sans-Serif" font-size="11.00">identifier</text>
<polygon fill="none" stroke="black" points="613.5,-429.75 613.5,-451.75 714.25,-451.75 714.25,-429.75 613.5,-429.75"/>
<text text-anchor="start" x="616.5" y="-437.05" font-family="Helvetica,sans-Serif" font-size="11.00">varchar[191]</text>
<polygon fill="none" stroke="black" points="460.5,-407.75 460.5,-429.75 613.5,-429.75 613.5,-407.75 460.5,-407.75"/>
<text text-anchor="start" x="480.5" y="-414.3" font-family="Helvetica,sans-Serif" font-size="11.00">key</text>
<polygon fill="none" stroke="black" points="613.5,-407.75 613.5,-429.75 714.25,-429.75 714.25,-407.75 613.5,-407.75"/>
<text text-anchor="start" x="616.5" y="-415.05" font-family="Helvetica,sans-Serif" font-size="11.00">varchar[255]</text>
<polygon fill="none" stroke="black" points="460.5,-385.75 460.5,-407.75 613.5,-407.75 613.5,-385.75 460.5,-385.75"/>
<text text-anchor="start" x="480.5" y="-392.3" font-family="Helvetica,sans-Serif" font-size="11.00">status</text>
<polygon fill="none" stroke="black" points="613.5,-385.75 613.5,-407.75 714.25,-407.75 714.25,-385.75 613.5,-385.75"/>
<text text-anchor="start" x="616.5" y="-393.05" font-family="Helvetica,sans-Serif" font-size="11.00">varchar[255]</text>
<polygon fill="#ffffff" stroke="none" points="460.5,-363.75 460.5,-385.75 613.5,-385.75 613.5,-363.75 460.5,-363.75"/>
<polygon fill="none" stroke="black" points="460.5,-363.75 460.5,-385.75 613.5,-385.75 613.5,-363.75 460.5,-363.75"/>
<image xlink:href="../../images/foreignKeys.png" width="11px" height="12px" preserveAspectRatio="xMinYMin meet" x="465.5" y="-380.75"/>
<text text-anchor="start" x="480.5" y="-370.3" font-family="Helvetica,sans-Serif" font-size="11.00">model_state</text>
<polygon fill="none" stroke="black" points="613.5,-363.75 613.5,-385.75 714.25,-385.75 714.25,-363.75 613.5,-363.75"/>
<text text-anchor="start" x="616.5" y="-371.05" font-family="Helvetica,sans-Serif" font-size="11.00">varchar[191]</text>
<polygon fill="#ffffff" stroke="none" points="460.5,-341.75 460.5,-363.75 613.5,-363.75 613.5,-341.75 460.5,-341.75"/>
<polygon fill="none" stroke="black" points="460.5,-341.75 460.5,-363.75 613.5,-363.75 613.5,-341.75 460.5,-341.75"/>
<image xlink:href="../../images/foreignKeys.png" width="11px" height="12px" preserveAspectRatio="xMinYMin meet" x="465.5" y="-358.75"/>
<text text-anchor="start" x="480.5" y="-348.3" font-family="Helvetica,sans-Serif" font-size="11.00">workflow</text>
<polygon fill="none" stroke="black" points="613.5,-341.75 613.5,-363.75 714.25,-363.75 714.25,-341.75 613.5,-341.75"/>
<text text-anchor="start" x="616.5" y="-349.05" font-family="Helvetica,sans-Serif" font-size="11.00">varchar[191]</text>
<polygon fill="none" stroke="black" points="460.5,-319.75 460.5,-341.75 613.5,-341.75 613.5,-319.75 460.5,-319.75"/>
<text text-anchor="start" x="480.5" y="-326.3" font-family="Helvetica,sans-Serif" font-size="11.00">start_date</text>
<polygon fill="none" stroke="black" points="613.5,-319.75 613.5,-341.75 714.25,-341.75 714.25,-319.75 613.5,-319.75"/>
<text text-anchor="start" x="616.5" y="-327.05" font-family="Helvetica,sans-Serif" font-size="11.00">datetime[19]</text>
<polygon fill="none" stroke="black" points="460.5,-297.75 460.5,-319.75 613.5,-319.75 613.5,-297.75 460.5,-297.75"/>
<text text-anchor="start" x="480.5" y="-304.3" font-family="Helvetica,sans-Serif" font-size="11.00">end_date</text>
<polygon fill="none" stroke="black" points="613.5,-297.75 613.5,-319.75 714.25,-319.75 714.25,-297.75 613.5,-297.75"/>
<text text-anchor="start" x="616.5" y="-305.05" font-family="Helvetica,sans-Serif" font-size="11.00">datetime[19]</text>
<polygon fill="none" stroke="black" points="460.5,-275.75 460.5,-297.75 613.5,-297.75 613.5,-275.75 460.5,-275.75"/>
<text text-anchor="start" x="480.5" y="-282.3" font-family="Helvetica,sans-Serif" font-size="11.00">due_date</text>
<polygon fill="none" stroke="black" points="613.5,-275.75 613.5,-297.75 714.25,-297.75 714.25,-275.75 613.5,-275.75"/>
<text text-anchor="start" x="616.5" y="-283.05" font-family="Helvetica,sans-Serif" font-size="11.00">datetime[19]</text>
<polygon fill="none" stroke="black" points="460.5,-253.75 460.5,-275.75 613.5,-275.75 613.5,-253.75 460.5,-253.75"/>
<text text-anchor="start" x="480.5" y="-260.3" font-family="Helvetica,sans-Serif" font-size="11.00">user</text>
<polygon fill="none" stroke="black" points="613.5,-253.75 613.5,-275.75 714.25,-275.75 714.25,-253.75 613.5,-253.75"/>
<text text-anchor="start" x="616.5" y="-261.05" font-family="Helvetica,sans-Serif" font-size="11.00">varchar[255]</text>
<polygon fill="none" stroke="black" points="460.5,-231.75 460.5,-253.75 613.5,-253.75 613.5,-231.75 460.5,-231.75"/>
<text text-anchor="start" x="480.5" y="-238.3" font-family="Helvetica,sans-Serif" font-size="11.00">version</text>
<polygon fill="none" stroke="black" points="613.5,-231.75 613.5,-253.75 714.25,-253.75 714.25,-231.75 613.5,-231.75"/>
<text text-anchor="start" x="616.5" y="-239.05" font-family="Helvetica,sans-Serif" font-size="11.00">bigint[19]</text>
<polygon fill="none" stroke="black" points="460.5,-209.75 460.5,-231.75 613.5,-231.75 613.5,-209.75 460.5,-209.75"/>
<text text-anchor="start" x="480.5" y="-216.3" font-family="Helvetica,sans-Serif" font-size="11.00">created_by</text>
<polygon fill="none" stroke="black" points="613.5,-209.75 613.5,-231.75 714.25,-231.75 714.25,-209.75 613.5,-209.75"/>
<text text-anchor="start" x="616.5" y="-217.05" font-family="Helvetica,sans-Serif" font-size="11.00">varchar[255]</text>
<polygon fill="none" stroke="black" points="460.5,-187.75 460.5,-209.75 613.5,-209.75 613.5,-187.75 460.5,-187.75"/>
<text text-anchor="start" x="480.5" y="-194.3" font-family="Helvetica,sans-Serif" font-size="11.00">last_modified_by</text>
<polygon fill="none" stroke="black" points="613.5,-187.75 613.5,-209.75 714.25,-209.75 714.25,-187.75 613.5,-187.75"/>
<text text-anchor="start" x="616.5" y="-195.05" font-family="Helvetica,sans-Serif" font-size="11.00">varchar[255]</text>
<polygon fill="none" stroke="black" points="460.5,-165.75 460.5,-187.75 613.5,-187.75 613.5,-165.75 460.5,-165.75"/>
<text text-anchor="start" x="480.5" y="-172.3" font-family="Helvetica,sans-Serif" font-size="11.00">created_date</text>
<polygon fill="none" stroke="black" points="613.5,-165.75 613.5,-187.75 714.25,-187.75 714.25,-165.75 613.5,-165.75"/>
<text text-anchor="start" x="616.5" y="-173.05" font-family="Helvetica,sans-Serif" font-size="11.00">timestamp[19]</text>
<polygon fill="none" stroke="black" points="460.5,-143.75 460.5,-165.75 613.5,-165.75 613.5,-143.75 460.5,-143.75"/>
<text text-anchor="start" x="480.5" y="-150.3" font-family="Helvetica,sans-Serif" font-size="11.00">last_modified_date</text>
<polygon fill="none" stroke="black" points="613.5,-143.75 613.5,-165.75 714.25,-165.75 714.25,-143.75 613.5,-143.75"/>
<text text-anchor="start" x="616.5" y="-151.05" font-family="Helvetica,sans-Serif" font-size="11.00">timestamp[19]</text>
<polygon fill="#ffffff" stroke="none" points="460.5,-124.25 460.5,-143.75 543,-143.75 543,-124.25 460.5,-124.25"/>
<polygon fill="none" stroke="black" points="460.5,-124.25 460.5,-143.75 543,-143.75 543,-124.25 460.5,-124.25"/>
<text text-anchor="start" x="463.5" y="-130.3" font-family="Helvetica,sans-Serif" font-size="11.00">&lt; 2</text>
<polygon fill="#ffffff" stroke="none" points="543,-124.25 543,-143.75 613.5,-143.75 613.5,-124.25 543,-124.25"/>
<polygon fill="none" stroke="black" points="543,-124.25 543,-143.75 613.5,-143.75 613.5,-124.25 543,-124.25"/>
<text text-anchor="start" x="603" y="-130.3" font-family="Helvetica,sans-Serif" font-size="11.00"> &#160;</text>
<polygon fill="#ffffff" stroke="none" points="613.5,-124.25 613.5,-143.75 714.25,-143.75 714.25,-124.25 613.5,-124.25"/>
<polygon fill="none" stroke="black" points="613.5,-124.25 613.5,-143.75 714.25,-143.75 714.25,-124.25 613.5,-124.25"/>
<text text-anchor="start" x="691.75" y="-130.3" font-family="Helvetica,sans-Serif" font-size="11.00">0 &gt;</text>
<polygon fill="none" stroke="black" stroke-width="2" points="459.5,-123.25 459.5,-476.25 728.25,-476.25 728.25,-123.25 459.5,-123.25"/>
</a>
</g>
</g>
<!-- doc_workflow_state&#45;&gt;doc_workflow -->
<g id="edge4" class="edge">
<title>doc_workflow_state:w&#45;&gt;doc_workflow:e</title>
<path fill="none" stroke="black" d="M444.09,-349.58C403.61,-329.83 445.64,-224.5 386.12,-224.5"/>
<polygon fill="black" stroke="black" points="451.34,-351.07 458.45,-356.21 455.58,-351.94 458.84,-352.62 458.84,-352.62 458.84,-352.62 455.58,-351.94 459.9,-349.16 451.34,-351.07"/>
<ellipse fill="none" stroke="black" cx="446.52" cy="-350.08" rx="3.2" ry="3.2"/>
</g>
<!-- workflow_model_state -->
<g id="node5" class="node">
<title>workflow_model_state</title>
<g id="a_node5"><a xlink:href="../../tables/workflow_model_state.html" xlink:title="workflow_model_state" target="_top">
<polygon fill="#ffffff" stroke="none" points="212.75,-280.5 212.75,-409 409.5,-409 409.5,-280.5 212.75,-280.5"/>
<polygon fill="#f5f5f5" stroke="none" points="212.75,-385.5 212.75,-409 409.5,-409 409.5,-385.5 212.75,-385.5"/>
<polygon fill="none" stroke="black" points="212.75,-385.5 212.75,-409 409.5,-409 409.5,-385.5 212.75,-385.5"/>
<text text-anchor="start" x="217.75" y="-394.55" font-family="Helvetica,sans-Serif" font-weight="bold" font-size="11.00">workflow_model_state</text>
<text text-anchor="start" x="367.75" y="-393.55" font-family="Helvetica,sans-Serif" font-size="11.00">[table]</text>
<polygon fill="none" stroke="black" points="212.75,-363.5 212.75,-385.5 409.5,-385.5 409.5,-363.5 212.75,-363.5"/>
<image xlink:href="../../images/primaryKeys.png" width="11px" height="12px" preserveAspectRatio="xMinYMin meet" x="217.75" y="-380.5"/>
<text text-anchor="start" x="245.62" y="-370.05" font-family="Helvetica,sans-Serif" font-size="11.00">identifier</text>
<polygon fill="#ffffff" stroke="none" points="212.75,-341.5 212.75,-363.5 409.5,-363.5 409.5,-341.5 212.75,-341.5"/>
<polygon fill="none" stroke="black" points="212.75,-341.5 212.75,-363.5 409.5,-363.5 409.5,-341.5 212.75,-341.5"/>
<image xlink:href="../../images/foreignKeys.png" width="11px" height="12px" preserveAspectRatio="xMinYMin meet" x="217.75" y="-358.5"/>
<text text-anchor="start" x="245.62" y="-348.05" font-family="Helvetica,sans-Serif" font-size="11.00">group</text>
<polygon fill="#ffffff" stroke="none" points="212.75,-319.5 212.75,-341.5 409.5,-341.5 409.5,-319.5 212.75,-319.5"/>
<polygon fill="none" stroke="black" points="212.75,-319.5 212.75,-341.5 409.5,-341.5 409.5,-319.5 212.75,-319.5"/>
<image xlink:href="../../images/foreignKeys.png" width="11px" height="12px" preserveAspectRatio="xMinYMin meet" x="217.75" y="-336.5"/>
<text text-anchor="start" x="245.62" y="-326.05" font-family="Helvetica,sans-Serif" font-size="11.00">model</text>
<polygon fill="none" stroke="black" points="212.75,-300 212.75,-319.5 409.5,-319.5 409.5,-300 212.75,-300"/>
<text text-anchor="start" x="215.75" y="-306.05" font-family="Helvetica,sans-Serif" font-size="11.00">...</text>
<polygon fill="#ffffff" stroke="none" points="212.75,-280.5 212.75,-300 282.33,-300 282.33,-280.5 212.75,-280.5"/>
<polygon fill="none" stroke="black" points="212.75,-280.5 212.75,-300 282.33,-300 282.33,-280.5 212.75,-280.5"/>
<text text-anchor="start" x="215.75" y="-286.55" font-family="Helvetica,sans-Serif" font-size="11.00">&lt; 2</text>
<polygon fill="#ffffff" stroke="none" points="282.33,-280.5 282.33,-300 339.92,-300 339.92,-280.5 282.33,-280.5"/>
<polygon fill="none" stroke="black" points="282.33,-280.5 282.33,-300 339.92,-300 339.92,-280.5 282.33,-280.5"/>
<text text-anchor="start" x="329.42" y="-286.55" font-family="Helvetica,sans-Serif" font-size="11.00"> &#160;</text>
<polygon fill="#ffffff" stroke="none" points="339.92,-280.5 339.92,-300 409.5,-300 409.5,-280.5 339.92,-280.5"/>
<polygon fill="none" stroke="black" points="339.92,-280.5 339.92,-300 409.5,-300 409.5,-280.5 339.92,-280.5"/>
<text text-anchor="start" x="387" y="-286.55" font-family="Helvetica,sans-Serif" font-size="11.00">1 &gt;</text>
</a>
</g>
</g>
<!-- doc_workflow_state&#45;&gt;workflow_model_state -->
<g id="edge3" class="edge">
<title>doc_workflow_state:w&#45;&gt;workflow_model_state:e</title>
<path fill="none" stroke="black" d="M443.92,-374.7C433.21,-374.63 425.98,-374.5 410.5,-374.5"/>
<polygon fill="black" stroke="black" points="451.17,-374.72 459.15,-378.35 455.5,-374.74 458.83,-374.75 458.83,-374.75 458.83,-374.75 455.5,-374.74 459.18,-371.15 451.17,-374.72"/>
<ellipse fill="none" stroke="black" cx="446.25" cy="-374.71" rx="3.2" ry="3.2"/>
</g>
<!-- workflow_model_state&#45;&gt;workflow_model -->
<g id="edge6" class="edge">
<title>workflow_model_state:w&#45;&gt;workflow_model:e</title>
<path fill="none" stroke="black" d="M196.97,-325.41C176.11,-305.73 205.15,-235.75 164.75,-235.75"/>
<polygon fill="black" stroke="black" points="203.87,-327.78 210.26,-333.79 207.97,-329.2 211.12,-330.28 211.12,-330.28 211.12,-330.28 207.97,-329.2 212.61,-326.99 203.87,-327.78"/>
<ellipse fill="none" stroke="black" cx="199.22" cy="-326.18" rx="3.2" ry="3.2"/>
</g>
<!-- workflow_group -->
<g id="node6" class="node">
<title>workflow_group</title>
<g id="a_node6"><a xlink:href="../../tables/workflow_group.html" xlink:title="workflow_group" target="_top">
<polygon fill="#ffffff" stroke="none" points="9,-322.5 9,-385 162.75,-385 162.75,-322.5 9,-322.5"/>
<polygon fill="#f5f5f5" stroke="none" points="9,-361.5 9,-385 162.75,-385 162.75,-361.5 9,-361.5"/>
<polygon fill="none" stroke="black" points="9,-361.5 9,-385 162.75,-385 162.75,-361.5 9,-361.5"/>
<text text-anchor="start" x="14" y="-370.55" font-family="Helvetica,sans-Serif" font-weight="bold" font-size="11.00">workflow_group</text>
<text text-anchor="start" x="121" y="-369.55" font-family="Helvetica,sans-Serif" font-size="11.00">[table]</text>
<polygon fill="none" stroke="black" points="9,-342 9,-361.5 162.75,-361.5 162.75,-342 9,-342"/>
<text text-anchor="start" x="12" y="-348.05" font-family="Helvetica,sans-Serif" font-size="11.00">...</text>
<polygon fill="#ffffff" stroke="none" points="9,-322.5 9,-342 64.25,-342 64.25,-322.5 9,-322.5"/>
<polygon fill="none" stroke="black" points="9,-322.5 9,-342 64.25,-342 64.25,-322.5 9,-322.5"/>
<text text-anchor="start" x="12" y="-328.55" font-family="Helvetica,sans-Serif" font-size="11.00">&lt; 1</text>
<polygon fill="#ffffff" stroke="none" points="64.25,-322.5 64.25,-342 107.5,-342 107.5,-322.5 64.25,-322.5"/>
<polygon fill="none" stroke="black" points="64.25,-322.5 64.25,-342 107.5,-342 107.5,-322.5 64.25,-322.5"/>
<text text-anchor="start" x="97" y="-328.55" font-family="Helvetica,sans-Serif" font-size="11.00"> &#160;</text>
<polygon fill="#ffffff" stroke="none" points="107.5,-322.5 107.5,-342 162.75,-342 162.75,-322.5 107.5,-322.5"/>
<polygon fill="none" stroke="black" points="107.5,-322.5 107.5,-342 162.75,-342 162.75,-322.5 107.5,-322.5"/>
<text text-anchor="start" x="140.25" y="-328.55" font-family="Helvetica,sans-Serif" font-size="11.00">2 &gt;</text>
</a>
</g>
</g>
<!-- workflow_model_state&#45;&gt;workflow_group -->
<g id="edge5" class="edge">
<title>workflow_model_state:w&#45;&gt;workflow_group:e</title>
<path fill="none" stroke="black" d="M196.14,-352.34C185.84,-352.12 178.75,-351.75 163.75,-351.75"/>
<polygon fill="black" stroke="black" points="203.42,-352.42 211.38,-356.1 207.75,-352.46 211.08,-352.49 211.08,-352.49 211.08,-352.49 207.75,-352.46 211.45,-348.9 203.42,-352.42"/>
<ellipse fill="none" stroke="black" cx="198.5" cy="-352.36" rx="3.2" ry="3.2"/>
</g>
</g>
</svg>
