<?xml version="1.0" encoding="UTF-8" standalone="no"?>
<!DOCTYPE svg PUBLIC "-//W3C//DTD SVG 1.1//EN"
 "http://www.w3.org/Graphics/SVG/1.1/DTD/svg11.dtd">
<!-- Generated by graphviz version 12.2.0 (0)
 -->
<!-- Title: twoDegreesRelationshipsDiagram Pages: 1 -->
<svg width="552pt" height="861pt"
 viewBox="0.00 0.00 551.50 861.00" xmlns="http://www.w3.org/2000/svg" xmlns:xlink="http://www.w3.org/1999/xlink">
<g id="graph0" class="graph" transform="scale(1 1) rotate(0) translate(4 857)">
<title>twoDegreesRelationshipsDiagram</title>
<polygon fill="#ffffff" stroke="none" points="-4,4 -4,-857 547.5,-857 547.5,4 -4,4"/>
<text text-anchor="middle" x="79.25" y="-7.05" font-family="Helvetica,sans-Serif" font-size="11.00">Generated by SchemaSpy</text>
<!-- doc_archive_collection -->
<g id="node1" class="node">
<title>doc_archive_collection</title>
<g id="a_node1"><a xlink:href="../../tables/doc_archive_collection.html" xlink:title="doc_archive_collection" target="_top">
<polygon fill="#ffffff" stroke="none" points="278.75,-786.5 278.75,-849 476.5,-849 476.5,-786.5 278.75,-786.5"/>
<polygon fill="#f5f5f5" stroke="none" points="278.75,-825.5 278.75,-849 476.5,-849 476.5,-825.5 278.75,-825.5"/>
<polygon fill="none" stroke="black" points="278.75,-825.5 278.75,-849 476.5,-849 476.5,-825.5 278.75,-825.5"/>
<text text-anchor="start" x="283.75" y="-834.55" font-family="Helvetica,sans-Serif" font-weight="bold" font-size="11.00">doc_archive_collection</text>
<text text-anchor="start" x="434.75" y="-833.55" font-family="Helvetica,sans-Serif" font-size="11.00">[table]</text>
<polygon fill="none" stroke="black" points="278.75,-806 278.75,-825.5 476.5,-825.5 476.5,-806 278.75,-806"/>
<text text-anchor="start" x="281.75" y="-812.05" font-family="Helvetica,sans-Serif" font-size="11.00">...</text>
<polygon fill="#ffffff" stroke="none" points="278.75,-786.5 278.75,-806 352.67,-806 352.67,-786.5 278.75,-786.5"/>
<polygon fill="none" stroke="black" points="278.75,-786.5 278.75,-806 352.67,-806 352.67,-786.5 278.75,-786.5"/>
<text text-anchor="start" x="281.75" y="-792.55" font-family="Helvetica,sans-Serif" font-size="11.00">&lt; 1</text>
<polygon fill="#ffffff" stroke="none" points="352.67,-786.5 352.67,-806 414.58,-806 414.58,-786.5 352.67,-786.5"/>
<polygon fill="none" stroke="black" points="352.67,-786.5 352.67,-806 414.58,-806 414.58,-786.5 352.67,-786.5"/>
<text text-anchor="start" x="404.08" y="-792.55" font-family="Helvetica,sans-Serif" font-size="11.00"> &#160;</text>
<polygon fill="#ffffff" stroke="none" points="414.58,-786.5 414.58,-806 476.5,-806 476.5,-786.5 414.58,-786.5"/>
<polygon fill="none" stroke="black" points="414.58,-786.5 414.58,-806 476.5,-806 476.5,-786.5 414.58,-786.5"/>
<text text-anchor="start" x="466" y="-792.55" font-family="Helvetica,sans-Serif" font-size="11.00"> &#160;</text>
</a>
</g>
</g>
<!-- doc_archive_item -->
<g id="node2" class="node">
<title>doc_archive_item</title>
<g id="a_node2"><a xlink:href="../../tables/doc_archive_item.html" xlink:title="doc_archive_item" target="_top">
<polygon fill="#ffffff" stroke="none" points="8,-312.5 8,-397 170.75,-397 170.75,-312.5 8,-312.5"/>
<polygon fill="#f5f5f5" stroke="none" points="8,-373.5 8,-397 170.75,-397 170.75,-373.5 8,-373.5"/>
<polygon fill="none" stroke="black" points="8,-373.5 8,-397 170.75,-397 170.75,-373.5 8,-373.5"/>
<text text-anchor="start" x="13" y="-382.55" font-family="Helvetica,sans-Serif" font-weight="bold" font-size="11.00">doc_archive_item</text>
<text text-anchor="start" x="129" y="-381.55" font-family="Helvetica,sans-Serif" font-size="11.00">[table]</text>
<polygon fill="none" stroke="black" points="8,-351.5 8,-373.5 170.75,-373.5 170.75,-351.5 8,-351.5"/>
<image xlink:href="../../images/primaryKeys.png" width="11px" height="12px" preserveAspectRatio="xMinYMin meet" x="13" y="-368.5"/>
<text text-anchor="start" x="35.38" y="-358.05" font-family="Helvetica,sans-Serif" font-size="11.00">identifier</text>
<polygon fill="none" stroke="black" points="8,-332 8,-351.5 170.75,-351.5 170.75,-332 8,-332"/>
<text text-anchor="start" x="11" y="-338.05" font-family="Helvetica,sans-Serif" font-size="11.00">...</text>
<polygon fill="#ffffff" stroke="none" points="8,-312.5 8,-332 58.25,-332 58.25,-312.5 8,-312.5"/>
<polygon fill="none" stroke="black" points="8,-312.5 8,-332 58.25,-332 58.25,-312.5 8,-312.5"/>
<text text-anchor="start" x="11" y="-318.55" font-family="Helvetica,sans-Serif" font-size="11.00"> &#160;</text>
<polygon fill="#ffffff" stroke="none" points="58.25,-312.5 58.25,-332 108.5,-332 108.5,-312.5 58.25,-312.5"/>
<polygon fill="none" stroke="black" points="58.25,-312.5 58.25,-332 108.5,-332 108.5,-312.5 58.25,-312.5"/>
<text text-anchor="start" x="98" y="-318.55" font-family="Helvetica,sans-Serif" font-size="11.00"> &#160;</text>
<polygon fill="#ffffff" stroke="none" points="108.5,-312.5 108.5,-332 170.75,-332 170.75,-312.5 108.5,-312.5"/>
<polygon fill="none" stroke="black" points="108.5,-312.5 108.5,-332 170.75,-332 170.75,-312.5 108.5,-312.5"/>
<text text-anchor="start" x="148.25" y="-318.55" font-family="Helvetica,sans-Serif" font-size="11.00">8 &gt;</text>
</a>
</g>
</g>
<!-- doc_archive_collection&#45;&gt;doc_archive_item -->
<g id="edge1" class="edge">
<title>doc_archive_collection:w&#45;&gt;doc_archive_item:e</title>
<path fill="none" stroke="black" d="M262.11,-814.79C238.8,-811.56 226.94,-799.91 211.75,-775.75 187.2,-736.69 217.88,-362.5 171.75,-362.5"/>
<polygon fill="black" stroke="black" points="269.43,-815.24 277.2,-819.32 273.76,-815.5 277.08,-815.71 277.08,-815.71 277.08,-815.71 273.76,-815.5 277.64,-812.14 269.43,-815.24"/>
<ellipse fill="none" stroke="black" cx="264.52" cy="-814.94" rx="3.2" ry="3.2"/>
</g>
<!-- doc_archive_contributor -->
<g id="node3" class="node">
<title>doc_archive_contributor</title>
<g id="a_node3"><a xlink:href="../../tables/doc_archive_contributor.html" xlink:title="doc_archive_contributor" target="_top">
<polygon fill="#ffffff" stroke="none" points="219.75,-542.25 219.75,-765.25 535.5,-765.25 535.5,-542.25 219.75,-542.25"/>
<polygon fill="#f5f5f5" stroke="none" points="221.75,-739.75 221.75,-763.25 533.5,-763.25 533.5,-739.75 221.75,-739.75"/>
<polygon fill="none" stroke="black" points="221.75,-739.75 221.75,-763.25 533.5,-763.25 533.5,-739.75 221.75,-739.75"/>
<text text-anchor="start" x="226.75" y="-748.8" font-family="Helvetica,sans-Serif" font-weight="bold" font-size="11.00">doc_archive_contributor</text>
<text text-anchor="start" x="491.75" y="-747.8" font-family="Helvetica,sans-Serif" font-size="11.00">[table]</text>
<polygon fill="none" stroke="black" points="221.75,-717.75 221.75,-739.75 404.75,-739.75 404.75,-717.75 221.75,-717.75"/>
<image xlink:href="../../images/primaryKeys.png" width="11px" height="12px" preserveAspectRatio="xMinYMin meet" x="226.75" y="-734.75"/>
<text text-anchor="start" x="241.75" y="-724.3" font-family="Helvetica,sans-Serif" font-size="11.00">identifier</text>
<polygon fill="none" stroke="black" points="404.75,-717.75 404.75,-739.75 513,-739.75 513,-717.75 404.75,-717.75"/>
<text text-anchor="start" x="407.75" y="-725.05" font-family="Helvetica,sans-Serif" font-size="11.00">varchar[191]</text>
<polygon fill="none" stroke="black" points="221.75,-695.75 221.75,-717.75 404.75,-717.75 404.75,-695.75 221.75,-695.75"/>
<text text-anchor="start" x="241.75" y="-702.3" font-family="Helvetica,sans-Serif" font-size="11.00">value</text>
<polygon fill="none" stroke="black" points="404.75,-695.75 404.75,-717.75 513,-717.75 513,-695.75 404.75,-695.75"/>
<text text-anchor="start" x="407.75" y="-703.05" font-family="Helvetica,sans-Serif" font-size="11.00">text[65535]</text>
<polygon fill="#ffffff" stroke="none" points="221.75,-673.75 221.75,-695.75 404.75,-695.75 404.75,-673.75 221.75,-673.75"/>
<polygon fill="none" stroke="black" points="221.75,-673.75 221.75,-695.75 404.75,-695.75 404.75,-673.75 221.75,-673.75"/>
<image xlink:href="../../images/foreignKeys.png" width="11px" height="12px" preserveAspectRatio="xMinYMin meet" x="226.75" y="-690.75"/>
<text text-anchor="start" x="241.75" y="-680.3" font-family="Helvetica,sans-Serif" font-size="11.00">item</text>
<polygon fill="none" stroke="black" points="404.75,-673.75 404.75,-695.75 513,-695.75 513,-673.75 404.75,-673.75"/>
<text text-anchor="start" x="407.75" y="-681.05" font-family="Helvetica,sans-Serif" font-size="11.00">varchar[191]</text>
<polygon fill="none" stroke="black" points="221.75,-651.75 221.75,-673.75 404.75,-673.75 404.75,-651.75 221.75,-651.75"/>
<text text-anchor="start" x="241.75" y="-658.3" font-family="Helvetica,sans-Serif" font-size="11.00">version</text>
<polygon fill="none" stroke="black" points="404.75,-651.75 404.75,-673.75 513,-673.75 513,-651.75 404.75,-651.75"/>
<text text-anchor="start" x="407.75" y="-659.05" font-family="Helvetica,sans-Serif" font-size="11.00">bigint[19]</text>
<polygon fill="none" stroke="black" points="221.75,-629.75 221.75,-651.75 404.75,-651.75 404.75,-629.75 221.75,-629.75"/>
<text text-anchor="start" x="241.75" y="-636.3" font-family="Helvetica,sans-Serif" font-size="11.00">created_by</text>
<polygon fill="none" stroke="black" points="404.75,-629.75 404.75,-651.75 513,-651.75 513,-629.75 404.75,-629.75"/>
<text text-anchor="start" x="407.75" y="-637.05" font-family="Helvetica,sans-Serif" font-size="11.00">varchar[191]</text>
<polygon fill="none" stroke="black" points="221.75,-607.75 221.75,-629.75 404.75,-629.75 404.75,-607.75 221.75,-607.75"/>
<text text-anchor="start" x="241.75" y="-614.3" font-family="Helvetica,sans-Serif" font-size="11.00">last_modified_by</text>
<polygon fill="none" stroke="black" points="404.75,-607.75 404.75,-629.75 513,-629.75 513,-607.75 404.75,-607.75"/>
<text text-anchor="start" x="407.75" y="-615.05" font-family="Helvetica,sans-Serif" font-size="11.00">varchar[191]</text>
<polygon fill="none" stroke="black" points="221.75,-585.75 221.75,-607.75 404.75,-607.75 404.75,-585.75 221.75,-585.75"/>
<text text-anchor="start" x="241.75" y="-592.3" font-family="Helvetica,sans-Serif" font-size="11.00">created_date</text>
<polygon fill="none" stroke="black" points="404.75,-585.75 404.75,-607.75 513,-607.75 513,-585.75 404.75,-585.75"/>
<text text-anchor="start" x="407.75" y="-593.05" font-family="Helvetica,sans-Serif" font-size="11.00">timestamp[19]</text>
<polygon fill="none" stroke="black" points="221.75,-563.75 221.75,-585.75 404.75,-585.75 404.75,-563.75 221.75,-563.75"/>
<text text-anchor="start" x="241.75" y="-570.3" font-family="Helvetica,sans-Serif" font-size="11.00">last_modified_date</text>
<polygon fill="none" stroke="black" points="404.75,-563.75 404.75,-585.75 513,-585.75 513,-563.75 404.75,-563.75"/>
<text text-anchor="start" x="407.75" y="-571.05" font-family="Helvetica,sans-Serif" font-size="11.00">timestamp[19]</text>
<polygon fill="#ffffff" stroke="none" points="221.75,-544.25 221.75,-563.75 319.25,-563.75 319.25,-544.25 221.75,-544.25"/>
<polygon fill="none" stroke="black" points="221.75,-544.25 221.75,-563.75 319.25,-563.75 319.25,-544.25 221.75,-544.25"/>
<text text-anchor="start" x="224.75" y="-550.3" font-family="Helvetica,sans-Serif" font-size="11.00">&lt; 1</text>
<polygon fill="#ffffff" stroke="none" points="319.25,-544.25 319.25,-563.75 404.75,-563.75 404.75,-544.25 319.25,-544.25"/>
<polygon fill="none" stroke="black" points="319.25,-544.25 319.25,-563.75 404.75,-563.75 404.75,-544.25 319.25,-544.25"/>
<text text-anchor="start" x="394.25" y="-550.3" font-family="Helvetica,sans-Serif" font-size="11.00"> &#160;</text>
<polygon fill="#ffffff" stroke="none" points="404.75,-544.25 404.75,-563.75 513,-563.75 513,-544.25 404.75,-544.25"/>
<polygon fill="none" stroke="black" points="404.75,-544.25 404.75,-563.75 513,-563.75 513,-544.25 404.75,-544.25"/>
<text text-anchor="start" x="490.5" y="-550.3" font-family="Helvetica,sans-Serif" font-size="11.00">0 &gt;</text>
<polygon fill="none" stroke="black" stroke-width="2" points="220.75,-543.25 220.75,-764.25 534.5,-764.25 534.5,-543.25 220.75,-543.25"/>
</a>
</g>
</g>
<!-- doc_archive_contributor&#45;&gt;doc_archive_item -->
<g id="edge2" class="edge">
<title>doc_archive_contributor:w&#45;&gt;doc_archive_item:e</title>
<path fill="none" stroke="black" d="M206.41,-678.88C162.59,-635.21 238.38,-362.5 171.75,-362.5"/>
<polygon fill="black" stroke="black" points="213.04,-681.59 219.08,-687.95 217.05,-683.23 220.13,-684.5 220.13,-684.5 220.13,-684.5 217.05,-683.23 221.8,-681.29 213.04,-681.59"/>
<ellipse fill="none" stroke="black" cx="208.48" cy="-679.73" rx="3.2" ry="3.2"/>
</g>
<!-- doc_archive_coverage -->
<g id="node4" class="node">
<title>doc_archive_coverage</title>
<g id="a_node4"><a xlink:href="../../tables/doc_archive_coverage.html" xlink:title="doc_archive_coverage" target="_top">
<polygon fill="#ffffff" stroke="none" points="280.75,-458.5 280.75,-521 474.5,-521 474.5,-458.5 280.75,-458.5"/>
<polygon fill="#f5f5f5" stroke="none" points="280.75,-497.5 280.75,-521 474.5,-521 474.5,-497.5 280.75,-497.5"/>
<polygon fill="none" stroke="black" points="280.75,-497.5 280.75,-521 474.5,-521 474.5,-497.5 280.75,-497.5"/>
<text text-anchor="start" x="285.75" y="-506.55" font-family="Helvetica,sans-Serif" font-weight="bold" font-size="11.00">doc_archive_coverage</text>
<text text-anchor="start" x="432.75" y="-505.55" font-family="Helvetica,sans-Serif" font-size="11.00">[table]</text>
<polygon fill="none" stroke="black" points="280.75,-478 280.75,-497.5 474.5,-497.5 474.5,-478 280.75,-478"/>
<text text-anchor="start" x="283.75" y="-484.05" font-family="Helvetica,sans-Serif" font-size="11.00">...</text>
<polygon fill="#ffffff" stroke="none" points="280.75,-458.5 280.75,-478 353.33,-478 353.33,-458.5 280.75,-458.5"/>
<polygon fill="none" stroke="black" points="280.75,-458.5 280.75,-478 353.33,-478 353.33,-458.5 280.75,-458.5"/>
<text text-anchor="start" x="283.75" y="-464.55" font-family="Helvetica,sans-Serif" font-size="11.00">&lt; 1</text>
<polygon fill="#ffffff" stroke="none" points="353.33,-458.5 353.33,-478 413.92,-478 413.92,-458.5 353.33,-458.5"/>
<polygon fill="none" stroke="black" points="353.33,-458.5 353.33,-478 413.92,-478 413.92,-458.5 353.33,-458.5"/>
<text text-anchor="start" x="403.42" y="-464.55" font-family="Helvetica,sans-Serif" font-size="11.00"> &#160;</text>
<polygon fill="#ffffff" stroke="none" points="413.92,-458.5 413.92,-478 474.5,-478 474.5,-458.5 413.92,-458.5"/>
<polygon fill="none" stroke="black" points="413.92,-458.5 413.92,-478 474.5,-478 474.5,-458.5 413.92,-458.5"/>
<text text-anchor="start" x="464" y="-464.55" font-family="Helvetica,sans-Serif" font-size="11.00"> &#160;</text>
</a>
</g>
</g>
<!-- doc_archive_coverage&#45;&gt;doc_archive_item -->
<g id="edge3" class="edge">
<title>doc_archive_coverage:w&#45;&gt;doc_archive_item:e</title>
<path fill="none" stroke="black" d="M264.07,-486.57C241.15,-482.69 231.4,-469.32 211.75,-447.75 183.56,-416.81 213.6,-362.5 171.75,-362.5"/>
<polygon fill="black" stroke="black" points="271.44,-487.12 279.15,-491.31 275.76,-487.45 279.08,-487.7 279.08,-487.7 279.08,-487.7 275.76,-487.45 279.69,-484.14 271.44,-487.12"/>
<ellipse fill="none" stroke="black" cx="266.53" cy="-486.75" rx="3.2" ry="3.2"/>
</g>
<!-- doc_archive_creator -->
<g id="node5" class="node">
<title>doc_archive_creator</title>
<g id="a_node5"><a xlink:href="../../tables/doc_archive_creator.html" xlink:title="doc_archive_creator" target="_top">
<polygon fill="#ffffff" stroke="none" points="287.25,-374.5 287.25,-437 468,-437 468,-374.5 287.25,-374.5"/>
<polygon fill="#f5f5f5" stroke="none" points="287.25,-413.5 287.25,-437 468,-437 468,-413.5 287.25,-413.5"/>
<polygon fill="none" stroke="black" points="287.25,-413.5 287.25,-437 468,-437 468,-413.5 287.25,-413.5"/>
<text text-anchor="start" x="292.25" y="-422.55" font-family="Helvetica,sans-Serif" font-weight="bold" font-size="11.00">doc_archive_creator</text>
<text text-anchor="start" x="426.25" y="-421.55" font-family="Helvetica,sans-Serif" font-size="11.00">[table]</text>
<polygon fill="none" stroke="black" points="287.25,-394 287.25,-413.5 468,-413.5 468,-394 287.25,-394"/>
<text text-anchor="start" x="290.25" y="-400.05" font-family="Helvetica,sans-Serif" font-size="11.00">...</text>
<polygon fill="#ffffff" stroke="none" points="287.25,-374.5 287.25,-394 355.5,-394 355.5,-374.5 287.25,-374.5"/>
<polygon fill="none" stroke="black" points="287.25,-374.5 287.25,-394 355.5,-394 355.5,-374.5 287.25,-374.5"/>
<text text-anchor="start" x="290.25" y="-380.55" font-family="Helvetica,sans-Serif" font-size="11.00">&lt; 1</text>
<polygon fill="#ffffff" stroke="none" points="355.5,-374.5 355.5,-394 411.75,-394 411.75,-374.5 355.5,-374.5"/>
<polygon fill="none" stroke="black" points="355.5,-374.5 355.5,-394 411.75,-394 411.75,-374.5 355.5,-374.5"/>
<text text-anchor="start" x="401.25" y="-380.55" font-family="Helvetica,sans-Serif" font-size="11.00"> &#160;</text>
<polygon fill="#ffffff" stroke="none" points="411.75,-374.5 411.75,-394 468,-394 468,-374.5 411.75,-374.5"/>
<polygon fill="none" stroke="black" points="411.75,-374.5 411.75,-394 468,-394 468,-374.5 411.75,-374.5"/>
<text text-anchor="start" x="457.5" y="-380.55" font-family="Helvetica,sans-Serif" font-size="11.00"> &#160;</text>
</a>
</g>
</g>
<!-- doc_archive_creator&#45;&gt;doc_archive_item -->
<g id="edge4" class="edge">
<title>doc_archive_creator:w&#45;&gt;doc_archive_item:e</title>
<path fill="none" stroke="black" d="M270.62,-402.47C230.3,-395.51 220.14,-362.5 171.75,-362.5"/>
<polygon fill="black" stroke="black" points="277.94,-403.07 285.62,-407.31 282.26,-403.42 285.58,-403.7 285.58,-403.7 285.58,-403.7 282.26,-403.42 286.21,-400.13 277.94,-403.07"/>
<ellipse fill="none" stroke="black" cx="273.04" cy="-402.67" rx="3.2" ry="3.2"/>
</g>
<!-- doc_archive_header -->
<g id="node6" class="node">
<title>doc_archive_header</title>
<g id="a_node6"><a xlink:href="../../tables/doc_archive_header.html" xlink:title="doc_archive_header" target="_top">
<polygon fill="#ffffff" stroke="none" points="287.75,-290.5 287.75,-353 467.5,-353 467.5,-290.5 287.75,-290.5"/>
<polygon fill="#f5f5f5" stroke="none" points="287.75,-329.5 287.75,-353 467.5,-353 467.5,-329.5 287.75,-329.5"/>
<polygon fill="none" stroke="black" points="287.75,-329.5 287.75,-353 467.5,-353 467.5,-329.5 287.75,-329.5"/>
<text text-anchor="start" x="292.75" y="-338.55" font-family="Helvetica,sans-Serif" font-weight="bold" font-size="11.00">doc_archive_header</text>
<text text-anchor="start" x="425.75" y="-337.55" font-family="Helvetica,sans-Serif" font-size="11.00">[table]</text>
<polygon fill="none" stroke="black" points="287.75,-310 287.75,-329.5 467.5,-329.5 467.5,-310 287.75,-310"/>
<text text-anchor="start" x="290.75" y="-316.05" font-family="Helvetica,sans-Serif" font-size="11.00">...</text>
<polygon fill="#ffffff" stroke="none" points="287.75,-290.5 287.75,-310 355.67,-310 355.67,-290.5 287.75,-290.5"/>
<polygon fill="none" stroke="black" points="287.75,-290.5 287.75,-310 355.67,-310 355.67,-290.5 287.75,-290.5"/>
<text text-anchor="start" x="290.75" y="-296.55" font-family="Helvetica,sans-Serif" font-size="11.00">&lt; 1</text>
<polygon fill="#ffffff" stroke="none" points="355.67,-290.5 355.67,-310 411.58,-310 411.58,-290.5 355.67,-290.5"/>
<polygon fill="none" stroke="black" points="355.67,-290.5 355.67,-310 411.58,-310 411.58,-290.5 355.67,-290.5"/>
<text text-anchor="start" x="401.08" y="-296.55" font-family="Helvetica,sans-Serif" font-size="11.00"> &#160;</text>
<polygon fill="#ffffff" stroke="none" points="411.58,-290.5 411.58,-310 467.5,-310 467.5,-290.5 411.58,-290.5"/>
<polygon fill="none" stroke="black" points="411.58,-290.5 411.58,-310 467.5,-310 467.5,-290.5 411.58,-290.5"/>
<text text-anchor="start" x="457" y="-296.55" font-family="Helvetica,sans-Serif" font-size="11.00"> &#160;</text>
</a>
</g>
</g>
<!-- doc_archive_header&#45;&gt;doc_archive_item -->
<g id="edge5" class="edge">
<title>doc_archive_header:w&#45;&gt;doc_archive_item:e</title>
<path fill="none" stroke="black" d="M271,-321.08C230.43,-328.29 220.53,-362.5 171.75,-362.5"/>
<polygon fill="black" stroke="black" points="278.44,-320.45 286.72,-323.37 282.76,-320.09 286.08,-319.81 286.08,-319.81 286.08,-319.81 282.76,-320.09 286.11,-316.19 278.44,-320.45"/>
<ellipse fill="none" stroke="black" cx="273.54" cy="-320.86" rx="3.2" ry="3.2"/>
</g>
<!-- doc_archive_language -->
<g id="node7" class="node">
<title>doc_archive_language</title>
<g id="a_node7"><a xlink:href="../../tables/doc_archive_language.html" xlink:title="doc_archive_language" target="_top">
<polygon fill="#ffffff" stroke="none" points="280.25,-206.5 280.25,-269 475,-269 475,-206.5 280.25,-206.5"/>
<polygon fill="#f5f5f5" stroke="none" points="280.25,-245.5 280.25,-269 475,-269 475,-245.5 280.25,-245.5"/>
<polygon fill="none" stroke="black" points="280.25,-245.5 280.25,-269 475,-269 475,-245.5 280.25,-245.5"/>
<text text-anchor="start" x="285.25" y="-254.55" font-family="Helvetica,sans-Serif" font-weight="bold" font-size="11.00">doc_archive_language</text>
<text text-anchor="start" x="433.25" y="-253.55" font-family="Helvetica,sans-Serif" font-size="11.00">[table]</text>
<polygon fill="none" stroke="black" points="280.25,-226 280.25,-245.5 475,-245.5 475,-226 280.25,-226"/>
<text text-anchor="start" x="283.25" y="-232.05" font-family="Helvetica,sans-Serif" font-size="11.00">...</text>
<polygon fill="#ffffff" stroke="none" points="280.25,-206.5 280.25,-226 353.17,-226 353.17,-206.5 280.25,-206.5"/>
<polygon fill="none" stroke="black" points="280.25,-206.5 280.25,-226 353.17,-226 353.17,-206.5 280.25,-206.5"/>
<text text-anchor="start" x="283.25" y="-212.55" font-family="Helvetica,sans-Serif" font-size="11.00">&lt; 1</text>
<polygon fill="#ffffff" stroke="none" points="353.17,-206.5 353.17,-226 414.08,-226 414.08,-206.5 353.17,-206.5"/>
<polygon fill="none" stroke="black" points="353.17,-206.5 353.17,-226 414.08,-226 414.08,-206.5 353.17,-206.5"/>
<text text-anchor="start" x="403.58" y="-212.55" font-family="Helvetica,sans-Serif" font-size="11.00"> &#160;</text>
<polygon fill="#ffffff" stroke="none" points="414.08,-206.5 414.08,-226 475,-226 475,-206.5 414.08,-206.5"/>
<polygon fill="none" stroke="black" points="414.08,-206.5 414.08,-226 475,-226 475,-206.5 414.08,-206.5"/>
<text text-anchor="start" x="464.5" y="-212.55" font-family="Helvetica,sans-Serif" font-size="11.00"> &#160;</text>
</a>
</g>
</g>
<!-- doc_archive_language&#45;&gt;doc_archive_item -->
<g id="edge6" class="edge">
<title>doc_archive_language:w&#45;&gt;doc_archive_item:e</title>
<path fill="none" stroke="black" d="M263.68,-237.1C240.38,-241.63 231.53,-257.28 211.75,-279.75 184.76,-310.41 212.6,-362.5 171.75,-362.5"/>
<polygon fill="black" stroke="black" points="270.95,-236.47 279.23,-239.37 275.26,-236.1 278.58,-235.81 278.58,-235.81 278.58,-235.81 275.26,-236.1 278.61,-232.19 270.95,-236.47"/>
<ellipse fill="none" stroke="black" cx="266.05" cy="-236.89" rx="3.2" ry="3.2"/>
</g>
<!-- doc_archive_subject -->
<g id="node8" class="node">
<title>doc_archive_subject</title>
<g id="a_node8"><a xlink:href="../../tables/doc_archive_subject.html" xlink:title="doc_archive_subject" target="_top">
<polygon fill="#ffffff" stroke="none" points="286.75,-122.5 286.75,-185 468.5,-185 468.5,-122.5 286.75,-122.5"/>
<polygon fill="#f5f5f5" stroke="none" points="286.75,-161.5 286.75,-185 468.5,-185 468.5,-161.5 286.75,-161.5"/>
<polygon fill="none" stroke="black" points="286.75,-161.5 286.75,-185 468.5,-185 468.5,-161.5 286.75,-161.5"/>
<text text-anchor="start" x="291.75" y="-170.55" font-family="Helvetica,sans-Serif" font-weight="bold" font-size="11.00">doc_archive_subject</text>
<text text-anchor="start" x="426.75" y="-169.55" font-family="Helvetica,sans-Serif" font-size="11.00">[table]</text>
<polygon fill="none" stroke="black" points="286.75,-142 286.75,-161.5 468.5,-161.5 468.5,-142 286.75,-142"/>
<text text-anchor="start" x="289.75" y="-148.05" font-family="Helvetica,sans-Serif" font-size="11.00">...</text>
<polygon fill="#ffffff" stroke="none" points="286.75,-122.5 286.75,-142 355.33,-142 355.33,-122.5 286.75,-122.5"/>
<polygon fill="none" stroke="black" points="286.75,-122.5 286.75,-142 355.33,-142 355.33,-122.5 286.75,-122.5"/>
<text text-anchor="start" x="289.75" y="-128.55" font-family="Helvetica,sans-Serif" font-size="11.00">&lt; 1</text>
<polygon fill="#ffffff" stroke="none" points="355.33,-122.5 355.33,-142 411.92,-142 411.92,-122.5 355.33,-122.5"/>
<polygon fill="none" stroke="black" points="355.33,-122.5 355.33,-142 411.92,-142 411.92,-122.5 355.33,-122.5"/>
<text text-anchor="start" x="401.42" y="-128.55" font-family="Helvetica,sans-Serif" font-size="11.00"> &#160;</text>
<polygon fill="#ffffff" stroke="none" points="411.92,-122.5 411.92,-142 468.5,-142 468.5,-122.5 411.92,-122.5"/>
<polygon fill="none" stroke="black" points="411.92,-122.5 411.92,-142 468.5,-142 468.5,-122.5 411.92,-122.5"/>
<text text-anchor="start" x="458" y="-128.55" font-family="Helvetica,sans-Serif" font-size="11.00"> &#160;</text>
</a>
</g>
</g>
<!-- doc_archive_subject&#45;&gt;doc_archive_item -->
<g id="edge7" class="edge">
<title>doc_archive_subject:w&#45;&gt;doc_archive_item:e</title>
<path fill="none" stroke="black" d="M270.26,-152.64C243.4,-156.05 231.08,-169.52 211.75,-195.75 166.55,-257.11 247.96,-362.5 171.75,-362.5"/>
<polygon fill="black" stroke="black" points="277.43,-152.23 285.62,-155.36 281.76,-151.98 285.08,-151.79 285.08,-151.79 285.08,-151.79 281.76,-151.98 285.21,-148.18 277.43,-152.23"/>
<ellipse fill="none" stroke="black" cx="272.52" cy="-152.51" rx="3.2" ry="3.2"/>
</g>
<!-- doc_unit -->
<g id="node9" class="node">
<title>doc_unit</title>
<g id="a_node9"><a xlink:href="../../tables/doc_unit.html" xlink:title="doc_unit" target="_top">
<polygon fill="#ffffff" stroke="none" points="326.25,-38.5 326.25,-101 429,-101 429,-38.5 326.25,-38.5"/>
<polygon fill="#f5f5f5" stroke="none" points="326.25,-77.5 326.25,-101 429,-101 429,-77.5 326.25,-77.5"/>
<polygon fill="none" stroke="black" points="326.25,-77.5 326.25,-101 429,-101 429,-77.5 326.25,-77.5"/>
<text text-anchor="start" x="331.25" y="-86.55" font-family="Helvetica,sans-Serif" font-weight="bold" font-size="11.00">doc_unit</text>
<text text-anchor="start" x="387.25" y="-85.55" font-family="Helvetica,sans-Serif" font-size="11.00">[table]</text>
<polygon fill="none" stroke="black" points="326.25,-58 326.25,-77.5 429,-77.5 429,-58 326.25,-58"/>
<text text-anchor="start" x="329.25" y="-64.05" font-family="Helvetica,sans-Serif" font-size="11.00">...</text>
<polygon fill="#ffffff" stroke="none" points="326.25,-38.5 326.25,-58 366.75,-58 366.75,-38.5 326.25,-38.5"/>
<polygon fill="none" stroke="black" points="326.25,-38.5 326.25,-58 366.75,-58 366.75,-38.5 326.25,-38.5"/>
<text text-anchor="start" x="329.25" y="-44.55" font-family="Helvetica,sans-Serif" font-size="11.00">&lt; 13</text>
<polygon fill="#ffffff" stroke="none" points="366.75,-38.5 366.75,-58 388.5,-58 388.5,-38.5 366.75,-38.5"/>
<polygon fill="none" stroke="black" points="366.75,-38.5 366.75,-58 388.5,-58 388.5,-38.5 366.75,-38.5"/>
<text text-anchor="start" x="378" y="-44.55" font-family="Helvetica,sans-Serif" font-size="11.00"> &#160;</text>
<polygon fill="#ffffff" stroke="none" points="388.5,-38.5 388.5,-58 429,-58 429,-38.5 388.5,-38.5"/>
<polygon fill="none" stroke="black" points="388.5,-38.5 388.5,-58 429,-58 429,-38.5 388.5,-38.5"/>
<text text-anchor="start" x="399.75" y="-44.55" font-family="Helvetica,sans-Serif" font-size="11.00">11 &gt;</text>
</a>
</g>
</g>
<!-- doc_unit&#45;&gt;doc_archive_item -->
<g id="edge8" class="edge">
<title>doc_unit:w&#45;&gt;doc_archive_item:e</title>
<path fill="none" stroke="black" d="M309.61,-67.85C265.9,-68.55 242.3,-73.94 211.75,-111.75 176.29,-155.64 228.18,-362.5 171.75,-362.5"/>
<polygon fill="black" stroke="black" points="316.92,-67.8 324.94,-71.35 321.25,-67.78 324.58,-67.75 324.58,-67.75 324.58,-67.75 321.25,-67.78 324.89,-64.15 316.92,-67.8"/>
<ellipse fill="none" stroke="black" cx="312" cy="-67.83" rx="3.2" ry="3.2"/>
</g>
</g>
</svg>
