<?xml version="1.0" encoding="UTF-8" standalone="no"?>
<!DOCTYPE svg PUBLIC "-//W3C//DTD SVG 1.1//EN"
 "http://www.w3.org/Graphics/SVG/1.1/DTD/svg11.dtd">
<!-- Generated by graphviz version 12.2.0 (0)
 -->
<!-- Title: oneDegreeRelationshipsDiagram Pages: 1 -->
<svg width="541pt" height="406pt"
 viewBox="0.00 0.00 540.50 405.50" xmlns="http://www.w3.org/2000/svg" xmlns:xlink="http://www.w3.org/1999/xlink">
<g id="graph0" class="graph" transform="scale(1 1) rotate(0) translate(4 401.5)">
<title>oneDegreeRelationshipsDiagram</title>
<polygon fill="#ffffff" stroke="none" points="-4,4 -4,-401.5 536.5,-401.5 536.5,4 -4,4"/>
<text text-anchor="middle" x="79.25" y="-7.05" font-family="Helvetica,sans-Serif" font-size="11.00">Generated by SchemaSpy</text>
<!-- doc_workflow_state -->
<g id="node1" class="node">
<title>doc_workflow_state</title>
<g id="a_node1"><a xlink:href="../../tables/doc_workflow_state.html" xlink:title="doc_workflow_state" target="_top">
<polygon fill="#ffffff" stroke="none" points="253.75,-38.5 253.75,-393.5 524.5,-393.5 524.5,-38.5 253.75,-38.5"/>
<polygon fill="#f5f5f5" stroke="none" points="255.75,-368 255.75,-391.5 522.5,-391.5 522.5,-368 255.75,-368"/>
<polygon fill="none" stroke="black" points="255.75,-368 255.75,-391.5 522.5,-391.5 522.5,-368 255.75,-368"/>
<text text-anchor="start" x="260.75" y="-377.05" font-family="Helvetica,sans-Serif" font-weight="bold" font-size="11.00">doc_workflow_state</text>
<text text-anchor="start" x="480.75" y="-376.05" font-family="Helvetica,sans-Serif" font-size="11.00">[table]</text>
<polygon fill="none" stroke="black" points="255.75,-346 255.75,-368 408.75,-368 408.75,-346 255.75,-346"/>
<image xlink:href="../../images/primaryKeys.png" width="11px" height="12px" preserveAspectRatio="xMinYMin meet" x="260.75" y="-363"/>
<text text-anchor="start" x="275.75" y="-352.55" font-family="Helvetica,sans-Serif" font-size="11.00">identifier</text>
<polygon fill="none" stroke="black" points="408.75,-346 408.75,-368 509.5,-368 509.5,-346 408.75,-346"/>
<text text-anchor="start" x="411.75" y="-353.3" font-family="Helvetica,sans-Serif" font-size="11.00">varchar[191]</text>
<polygon fill="none" stroke="black" points="255.75,-324 255.75,-346 408.75,-346 408.75,-324 255.75,-324"/>
<text text-anchor="start" x="275.75" y="-330.55" font-family="Helvetica,sans-Serif" font-size="11.00">key</text>
<polygon fill="none" stroke="black" points="408.75,-324 408.75,-346 509.5,-346 509.5,-324 408.75,-324"/>
<text text-anchor="start" x="411.75" y="-331.3" font-family="Helvetica,sans-Serif" font-size="11.00">varchar[255]</text>
<polygon fill="none" stroke="black" points="255.75,-302 255.75,-324 408.75,-324 408.75,-302 255.75,-302"/>
<text text-anchor="start" x="275.75" y="-308.55" font-family="Helvetica,sans-Serif" font-size="11.00">status</text>
<polygon fill="none" stroke="black" points="408.75,-302 408.75,-324 509.5,-324 509.5,-302 408.75,-302"/>
<text text-anchor="start" x="411.75" y="-309.3" font-family="Helvetica,sans-Serif" font-size="11.00">varchar[255]</text>
<polygon fill="#ffffff" stroke="none" points="255.75,-280 255.75,-302 408.75,-302 408.75,-280 255.75,-280"/>
<polygon fill="none" stroke="black" points="255.75,-280 255.75,-302 408.75,-302 408.75,-280 255.75,-280"/>
<image xlink:href="../../images/foreignKeys.png" width="11px" height="12px" preserveAspectRatio="xMinYMin meet" x="260.75" y="-297"/>
<text text-anchor="start" x="275.75" y="-286.55" font-family="Helvetica,sans-Serif" font-size="11.00">model_state</text>
<polygon fill="none" stroke="black" points="408.75,-280 408.75,-302 509.5,-302 509.5,-280 408.75,-280"/>
<text text-anchor="start" x="411.75" y="-287.3" font-family="Helvetica,sans-Serif" font-size="11.00">varchar[191]</text>
<polygon fill="#ffffff" stroke="none" points="255.75,-258 255.75,-280 408.75,-280 408.75,-258 255.75,-258"/>
<polygon fill="none" stroke="black" points="255.75,-258 255.75,-280 408.75,-280 408.75,-258 255.75,-258"/>
<image xlink:href="../../images/foreignKeys.png" width="11px" height="12px" preserveAspectRatio="xMinYMin meet" x="260.75" y="-275"/>
<text text-anchor="start" x="275.75" y="-264.55" font-family="Helvetica,sans-Serif" font-size="11.00">workflow</text>
<polygon fill="none" stroke="black" points="408.75,-258 408.75,-280 509.5,-280 509.5,-258 408.75,-258"/>
<text text-anchor="start" x="411.75" y="-265.3" font-family="Helvetica,sans-Serif" font-size="11.00">varchar[191]</text>
<polygon fill="none" stroke="black" points="255.75,-236 255.75,-258 408.75,-258 408.75,-236 255.75,-236"/>
<text text-anchor="start" x="275.75" y="-242.55" font-family="Helvetica,sans-Serif" font-size="11.00">start_date</text>
<polygon fill="none" stroke="black" points="408.75,-236 408.75,-258 509.5,-258 509.5,-236 408.75,-236"/>
<text text-anchor="start" x="411.75" y="-243.3" font-family="Helvetica,sans-Serif" font-size="11.00">datetime[19]</text>
<polygon fill="none" stroke="black" points="255.75,-214 255.75,-236 408.75,-236 408.75,-214 255.75,-214"/>
<text text-anchor="start" x="275.75" y="-220.55" font-family="Helvetica,sans-Serif" font-size="11.00">end_date</text>
<polygon fill="none" stroke="black" points="408.75,-214 408.75,-236 509.5,-236 509.5,-214 408.75,-214"/>
<text text-anchor="start" x="411.75" y="-221.3" font-family="Helvetica,sans-Serif" font-size="11.00">datetime[19]</text>
<polygon fill="none" stroke="black" points="255.75,-192 255.75,-214 408.75,-214 408.75,-192 255.75,-192"/>
<text text-anchor="start" x="275.75" y="-198.55" font-family="Helvetica,sans-Serif" font-size="11.00">due_date</text>
<polygon fill="none" stroke="black" points="408.75,-192 408.75,-214 509.5,-214 509.5,-192 408.75,-192"/>
<text text-anchor="start" x="411.75" y="-199.3" font-family="Helvetica,sans-Serif" font-size="11.00">datetime[19]</text>
<polygon fill="none" stroke="black" points="255.75,-170 255.75,-192 408.75,-192 408.75,-170 255.75,-170"/>
<text text-anchor="start" x="275.75" y="-176.55" font-family="Helvetica,sans-Serif" font-size="11.00">user</text>
<polygon fill="none" stroke="black" points="408.75,-170 408.75,-192 509.5,-192 509.5,-170 408.75,-170"/>
<text text-anchor="start" x="411.75" y="-177.3" font-family="Helvetica,sans-Serif" font-size="11.00">varchar[255]</text>
<polygon fill="none" stroke="black" points="255.75,-148 255.75,-170 408.75,-170 408.75,-148 255.75,-148"/>
<text text-anchor="start" x="275.75" y="-154.55" font-family="Helvetica,sans-Serif" font-size="11.00">version</text>
<polygon fill="none" stroke="black" points="408.75,-148 408.75,-170 509.5,-170 509.5,-148 408.75,-148"/>
<text text-anchor="start" x="411.75" y="-155.3" font-family="Helvetica,sans-Serif" font-size="11.00">bigint[19]</text>
<polygon fill="none" stroke="black" points="255.75,-126 255.75,-148 408.75,-148 408.75,-126 255.75,-126"/>
<text text-anchor="start" x="275.75" y="-132.55" font-family="Helvetica,sans-Serif" font-size="11.00">created_by</text>
<polygon fill="none" stroke="black" points="408.75,-126 408.75,-148 509.5,-148 509.5,-126 408.75,-126"/>
<text text-anchor="start" x="411.75" y="-133.3" font-family="Helvetica,sans-Serif" font-size="11.00">varchar[255]</text>
<polygon fill="none" stroke="black" points="255.75,-104 255.75,-126 408.75,-126 408.75,-104 255.75,-104"/>
<text text-anchor="start" x="275.75" y="-110.55" font-family="Helvetica,sans-Serif" font-size="11.00">last_modified_by</text>
<polygon fill="none" stroke="black" points="408.75,-104 408.75,-126 509.5,-126 509.5,-104 408.75,-104"/>
<text text-anchor="start" x="411.75" y="-111.3" font-family="Helvetica,sans-Serif" font-size="11.00">varchar[255]</text>
<polygon fill="none" stroke="black" points="255.75,-82 255.75,-104 408.75,-104 408.75,-82 255.75,-82"/>
<text text-anchor="start" x="275.75" y="-88.55" font-family="Helvetica,sans-Serif" font-size="11.00">created_date</text>
<polygon fill="none" stroke="black" points="408.75,-82 408.75,-104 509.5,-104 509.5,-82 408.75,-82"/>
<text text-anchor="start" x="411.75" y="-89.3" font-family="Helvetica,sans-Serif" font-size="11.00">timestamp[19]</text>
<polygon fill="none" stroke="black" points="255.75,-60 255.75,-82 408.75,-82 408.75,-60 255.75,-60"/>
<text text-anchor="start" x="275.75" y="-66.55" font-family="Helvetica,sans-Serif" font-size="11.00">last_modified_date</text>
<polygon fill="none" stroke="black" points="408.75,-60 408.75,-82 509.5,-82 509.5,-60 408.75,-60"/>
<text text-anchor="start" x="411.75" y="-67.3" font-family="Helvetica,sans-Serif" font-size="11.00">timestamp[19]</text>
<polygon fill="#ffffff" stroke="none" points="255.75,-40.5 255.75,-60 338.25,-60 338.25,-40.5 255.75,-40.5"/>
<polygon fill="none" stroke="black" points="255.75,-40.5 255.75,-60 338.25,-60 338.25,-40.5 255.75,-40.5"/>
<text text-anchor="start" x="258.75" y="-46.55" font-family="Helvetica,sans-Serif" font-size="11.00">&lt; 2</text>
<polygon fill="#ffffff" stroke="none" points="338.25,-40.5 338.25,-60 408.75,-60 408.75,-40.5 338.25,-40.5"/>
<polygon fill="none" stroke="black" points="338.25,-40.5 338.25,-60 408.75,-60 408.75,-40.5 338.25,-40.5"/>
<text text-anchor="start" x="398.25" y="-46.55" font-family="Helvetica,sans-Serif" font-size="11.00"> &#160;</text>
<polygon fill="#ffffff" stroke="none" points="408.75,-40.5 408.75,-60 509.5,-60 509.5,-40.5 408.75,-40.5"/>
<polygon fill="none" stroke="black" points="408.75,-40.5 408.75,-60 509.5,-60 509.5,-40.5 408.75,-40.5"/>
<text text-anchor="start" x="487" y="-46.55" font-family="Helvetica,sans-Serif" font-size="11.00">0 &gt;</text>
<polygon fill="none" stroke="black" stroke-width="2" points="254.75,-39.5 254.75,-392.5 523.5,-392.5 523.5,-39.5 254.75,-39.5"/>
</a>
</g>
</g>
<!-- workflow_model_state -->
<g id="node2" class="node">
<title>workflow_model_state</title>
<g id="a_node2"><a xlink:href="../../tables/workflow_model_state.html" xlink:title="workflow_model_state" target="_top">
<polygon fill="#ffffff" stroke="none" points="8,-260.75 8,-389.25 204.75,-389.25 204.75,-260.75 8,-260.75"/>
<polygon fill="#f5f5f5" stroke="none" points="8,-365.75 8,-389.25 204.75,-389.25 204.75,-365.75 8,-365.75"/>
<polygon fill="none" stroke="black" points="8,-365.75 8,-389.25 204.75,-389.25 204.75,-365.75 8,-365.75"/>
<text text-anchor="start" x="13" y="-374.8" font-family="Helvetica,sans-Serif" font-weight="bold" font-size="11.00">workflow_model_state</text>
<text text-anchor="start" x="163" y="-373.8" font-family="Helvetica,sans-Serif" font-size="11.00">[table]</text>
<polygon fill="none" stroke="black" points="8,-343.75 8,-365.75 204.75,-365.75 204.75,-343.75 8,-343.75"/>
<image xlink:href="../../images/primaryKeys.png" width="11px" height="12px" preserveAspectRatio="xMinYMin meet" x="13" y="-360.75"/>
<text text-anchor="start" x="40.88" y="-350.3" font-family="Helvetica,sans-Serif" font-size="11.00">identifier</text>
<polygon fill="#ffffff" stroke="none" points="8,-321.75 8,-343.75 204.75,-343.75 204.75,-321.75 8,-321.75"/>
<polygon fill="none" stroke="black" points="8,-321.75 8,-343.75 204.75,-343.75 204.75,-321.75 8,-321.75"/>
<image xlink:href="../../images/foreignKeys.png" width="11px" height="12px" preserveAspectRatio="xMinYMin meet" x="13" y="-338.75"/>
<text text-anchor="start" x="40.88" y="-328.3" font-family="Helvetica,sans-Serif" font-size="11.00">group</text>
<polygon fill="#ffffff" stroke="none" points="8,-299.75 8,-321.75 204.75,-321.75 204.75,-299.75 8,-299.75"/>
<polygon fill="none" stroke="black" points="8,-299.75 8,-321.75 204.75,-321.75 204.75,-299.75 8,-299.75"/>
<image xlink:href="../../images/foreignKeys.png" width="11px" height="12px" preserveAspectRatio="xMinYMin meet" x="13" y="-316.75"/>
<text text-anchor="start" x="40.88" y="-306.3" font-family="Helvetica,sans-Serif" font-size="11.00">model</text>
<polygon fill="none" stroke="black" points="8,-280.25 8,-299.75 204.75,-299.75 204.75,-280.25 8,-280.25"/>
<text text-anchor="start" x="11" y="-286.3" font-family="Helvetica,sans-Serif" font-size="11.00">...</text>
<polygon fill="#ffffff" stroke="none" points="8,-260.75 8,-280.25 77.58,-280.25 77.58,-260.75 8,-260.75"/>
<polygon fill="none" stroke="black" points="8,-260.75 8,-280.25 77.58,-280.25 77.58,-260.75 8,-260.75"/>
<text text-anchor="start" x="11" y="-266.8" font-family="Helvetica,sans-Serif" font-size="11.00">&lt; 2</text>
<polygon fill="#ffffff" stroke="none" points="77.58,-260.75 77.58,-280.25 135.17,-280.25 135.17,-260.75 77.58,-260.75"/>
<polygon fill="none" stroke="black" points="77.58,-260.75 77.58,-280.25 135.17,-280.25 135.17,-260.75 77.58,-260.75"/>
<text text-anchor="start" x="124.67" y="-266.8" font-family="Helvetica,sans-Serif" font-size="11.00"> &#160;</text>
<polygon fill="#ffffff" stroke="none" points="135.17,-260.75 135.17,-280.25 204.75,-280.25 204.75,-260.75 135.17,-260.75"/>
<polygon fill="none" stroke="black" points="135.17,-260.75 135.17,-280.25 204.75,-280.25 204.75,-260.75 135.17,-260.75"/>
<text text-anchor="start" x="182.25" y="-266.8" font-family="Helvetica,sans-Serif" font-size="11.00">1 &gt;</text>
</a>
</g>
</g>
<!-- doc_workflow_state&#45;&gt;workflow_model_state -->
<g id="edge1" class="edge">
<title>doc_workflow_state:w&#45;&gt;workflow_model_state:e</title>
<path fill="none" stroke="black" d="M240.45,-296.44C225.21,-311.85 235.06,-354.75 205.75,-354.75"/>
<polygon fill="black" stroke="black" points="246.96,-293.96 255.72,-294.48 251.01,-292.42 254.12,-291.24 254.12,-291.24 254.12,-291.24 251.01,-292.42 253.16,-287.75 246.96,-293.96"/>
<ellipse fill="none" stroke="black" cx="242.36" cy="-295.71" rx="3.2" ry="3.2"/>
</g>
<!-- doc_workflow -->
<g id="node3" class="node">
<title>doc_workflow</title>
<g id="a_node3"><a xlink:href="../../tables/doc_workflow.html" xlink:title="doc_workflow" target="_top">
<polygon fill="#ffffff" stroke="none" points="32.38,-132.75 32.38,-239.25 180.38,-239.25 180.38,-132.75 32.38,-132.75"/>
<polygon fill="#f5f5f5" stroke="none" points="32.38,-215.75 32.38,-239.25 180.38,-239.25 180.38,-215.75 32.38,-215.75"/>
<polygon fill="none" stroke="black" points="32.38,-215.75 32.38,-239.25 180.38,-239.25 180.38,-215.75 32.38,-215.75"/>
<text text-anchor="start" x="37.38" y="-224.8" font-family="Helvetica,sans-Serif" font-weight="bold" font-size="11.00">doc_workflow</text>
<text text-anchor="start" x="138.62" y="-223.8" font-family="Helvetica,sans-Serif" font-size="11.00">[table]</text>
<polygon fill="none" stroke="black" points="32.38,-193.75 32.38,-215.75 180.38,-215.75 180.38,-193.75 32.38,-193.75"/>
<image xlink:href="../../images/primaryKeys.png" width="11px" height="12px" preserveAspectRatio="xMinYMin meet" x="37.375" y="-210.75"/>
<text text-anchor="start" x="52.38" y="-200.3" font-family="Helvetica,sans-Serif" font-size="11.00">identifier</text>
<polygon fill="#ffffff" stroke="none" points="32.38,-171.75 32.38,-193.75 180.38,-193.75 180.38,-171.75 32.38,-171.75"/>
<polygon fill="none" stroke="black" points="32.38,-171.75 32.38,-193.75 180.38,-193.75 180.38,-171.75 32.38,-171.75"/>
<image xlink:href="../../images/foreignKeys.png" width="11px" height="12px" preserveAspectRatio="xMinYMin meet" x="37.375" y="-188.75"/>
<text text-anchor="start" x="52.38" y="-178.3" font-family="Helvetica,sans-Serif" font-size="11.00">model</text>
<polygon fill="none" stroke="black" points="32.38,-152.25 32.38,-171.75 180.38,-171.75 180.38,-152.25 32.38,-152.25"/>
<text text-anchor="start" x="35.38" y="-158.3" font-family="Helvetica,sans-Serif" font-size="11.00">...</text>
<polygon fill="#ffffff" stroke="none" points="32.38,-132.75 32.38,-152.25 85.71,-152.25 85.71,-132.75 32.38,-132.75"/>
<polygon fill="none" stroke="black" points="32.38,-132.75 32.38,-152.25 85.71,-152.25 85.71,-132.75 32.38,-132.75"/>
<text text-anchor="start" x="35.38" y="-138.8" font-family="Helvetica,sans-Serif" font-size="11.00">&lt; 1</text>
<polygon fill="#ffffff" stroke="none" points="85.71,-132.75 85.71,-152.25 127.04,-152.25 127.04,-132.75 85.71,-132.75"/>
<polygon fill="none" stroke="black" points="85.71,-132.75 85.71,-152.25 127.04,-152.25 127.04,-132.75 85.71,-132.75"/>
<text text-anchor="start" x="116.54" y="-138.8" font-family="Helvetica,sans-Serif" font-size="11.00"> &#160;</text>
<polygon fill="#ffffff" stroke="none" points="127.04,-132.75 127.04,-152.25 180.38,-152.25 180.38,-132.75 127.04,-132.75"/>
<polygon fill="none" stroke="black" points="127.04,-132.75 127.04,-152.25 180.38,-152.25 180.38,-132.75 127.04,-132.75"/>
<text text-anchor="start" x="157.88" y="-138.8" font-family="Helvetica,sans-Serif" font-size="11.00">2 &gt;</text>
</a>
</g>
</g>
<!-- doc_workflow_state&#45;&gt;doc_workflow -->
<g id="edge2" class="edge">
<title>doc_workflow_state:w&#45;&gt;doc_workflow:e</title>
<path fill="none" stroke="black" d="M239.51,-265.55C214.03,-252.2 218.63,-204.75 181.38,-204.75"/>
<polygon fill="black" stroke="black" points="246.62,-267.16 253.63,-272.44 250.85,-268.12 254.1,-268.85 254.1,-268.85 254.1,-268.85 250.85,-268.12 255.22,-265.42 246.62,-267.16"/>
<ellipse fill="none" stroke="black" cx="241.82" cy="-266.07" rx="3.2" ry="3.2"/>
</g>
</g>
</svg>
