<?xml version="1.0" encoding="UTF-8" standalone="no"?>
<!DOCTYPE svg PUBLIC "-//W3C//DTD SVG 1.1//EN"
 "http://www.w3.org/Graphics/SVG/1.1/DTD/svg11.dtd">
<!-- Generated by graphviz version 12.2.0 (0)
 -->
<!-- Title: twoDegreesRelationshipsDiagram Pages: 1 -->
<svg width="1236pt" height="539pt"
 viewBox="0.00 0.00 1235.50 538.84" xmlns="http://www.w3.org/2000/svg" xmlns:xlink="http://www.w3.org/1999/xlink">
<g id="graph0" class="graph" transform="scale(1 1) rotate(0) translate(4 534.84)">
<title>twoDegreesRelationshipsDiagram</title>
<polygon fill="#ffffff" stroke="none" points="-4,4 -4,-534.84 1231.5,-534.84 1231.5,4 -4,4"/>
<text text-anchor="middle" x="79.25" y="-7.05" font-family="Helvetica,sans-Serif" font-size="11.00">Generated by SchemaSpy</text>
<!-- check_automatic_result -->
<g id="node1" class="node">
<title>check_automatic_result</title>
<g id="a_node1"><a xlink:href="../../tables/check_automatic_result.html" xlink:title="check_automatic_result" target="_top">
<polygon fill="#ffffff" stroke="none" points="1014.75,-285.29 1014.75,-347.79 1219.5,-347.79 1219.5,-285.29 1014.75,-285.29"/>
<polygon fill="#f5f5f5" stroke="none" points="1014.75,-324.29 1014.75,-347.79 1219.5,-347.79 1219.5,-324.29 1014.75,-324.29"/>
<polygon fill="none" stroke="black" points="1014.75,-324.29 1014.75,-347.79 1219.5,-347.79 1219.5,-324.29 1014.75,-324.29"/>
<text text-anchor="start" x="1019.75" y="-333.34" font-family="Helvetica,sans-Serif" font-weight="bold" font-size="11.00">check_automatic_result</text>
<text text-anchor="start" x="1177.75" y="-332.34" font-family="Helvetica,sans-Serif" font-size="11.00">[table]</text>
<polygon fill="none" stroke="black" points="1014.75,-304.79 1014.75,-324.29 1219.5,-324.29 1219.5,-304.79 1014.75,-304.79"/>
<text text-anchor="start" x="1017.75" y="-310.84" font-family="Helvetica,sans-Serif" font-size="11.00">...</text>
<polygon fill="#ffffff" stroke="none" points="1014.75,-285.29 1014.75,-304.79 1091,-304.79 1091,-285.29 1014.75,-285.29"/>
<polygon fill="none" stroke="black" points="1014.75,-285.29 1014.75,-304.79 1091,-304.79 1091,-285.29 1014.75,-285.29"/>
<text text-anchor="start" x="1017.75" y="-291.34" font-family="Helvetica,sans-Serif" font-size="11.00">&lt; 6</text>
<polygon fill="#ffffff" stroke="none" points="1091,-285.29 1091,-304.79 1155.25,-304.79 1155.25,-285.29 1091,-285.29"/>
<polygon fill="none" stroke="black" points="1091,-285.29 1091,-304.79 1155.25,-304.79 1155.25,-285.29 1091,-285.29"/>
<text text-anchor="start" x="1144.75" y="-291.34" font-family="Helvetica,sans-Serif" font-size="11.00"> &#160;</text>
<polygon fill="#ffffff" stroke="none" points="1155.25,-285.29 1155.25,-304.79 1219.5,-304.79 1219.5,-285.29 1155.25,-285.29"/>
<polygon fill="none" stroke="black" points="1155.25,-285.29 1155.25,-304.79 1219.5,-304.79 1219.5,-285.29 1155.25,-285.29"/>
<text text-anchor="start" x="1209" y="-291.34" font-family="Helvetica,sans-Serif" font-size="11.00"> &#160;</text>
</a>
</g>
</g>
<!-- doc_digital_document -->
<g id="node2" class="node">
<title>doc_digital_document</title>
<g id="a_node2"><a xlink:href="../../tables/doc_digital_document.html" xlink:title="doc_digital_document" target="_top">
<polygon fill="#ffffff" stroke="none" points="179.75,-248.29 179.75,-354.79 372.5,-354.79 372.5,-248.29 179.75,-248.29"/>
<polygon fill="#f5f5f5" stroke="none" points="179.75,-331.29 179.75,-354.79 372.5,-354.79 372.5,-331.29 179.75,-331.29"/>
<polygon fill="none" stroke="black" points="179.75,-331.29 179.75,-354.79 372.5,-354.79 372.5,-331.29 179.75,-331.29"/>
<text text-anchor="start" x="184.75" y="-340.34" font-family="Helvetica,sans-Serif" font-weight="bold" font-size="11.00">doc_digital_document</text>
<text text-anchor="start" x="330.75" y="-339.34" font-family="Helvetica,sans-Serif" font-size="11.00">[table]</text>
<polygon fill="none" stroke="black" points="179.75,-309.29 179.75,-331.29 372.5,-331.29 372.5,-309.29 179.75,-309.29"/>
<image xlink:href="../../images/primaryKeys.png" width="11px" height="12px" preserveAspectRatio="xMinYMin meet" x="184.75" y="-326.29"/>
<text text-anchor="start" x="212.62" y="-315.84" font-family="Helvetica,sans-Serif" font-size="11.00">identifier</text>
<polygon fill="#ffffff" stroke="none" points="179.75,-287.29 179.75,-309.29 372.5,-309.29 372.5,-287.29 179.75,-287.29"/>
<polygon fill="none" stroke="black" points="179.75,-287.29 179.75,-309.29 372.5,-309.29 372.5,-287.29 179.75,-287.29"/>
<image xlink:href="../../images/foreignKeys.png" width="11px" height="12px" preserveAspectRatio="xMinYMin meet" x="184.75" y="-304.29"/>
<text text-anchor="start" x="212.62" y="-293.84" font-family="Helvetica,sans-Serif" font-size="11.00">doc_unit</text>
<polygon fill="none" stroke="black" points="179.75,-267.79 179.75,-287.29 372.5,-287.29 372.5,-267.79 179.75,-267.79"/>
<text text-anchor="start" x="182.75" y="-273.84" font-family="Helvetica,sans-Serif" font-size="11.00">...</text>
<polygon fill="#ffffff" stroke="none" points="179.75,-248.29 179.75,-267.79 248,-267.79 248,-248.29 179.75,-248.29"/>
<polygon fill="none" stroke="black" points="179.75,-248.29 179.75,-267.79 248,-267.79 248,-248.29 179.75,-248.29"/>
<text text-anchor="start" x="182.75" y="-254.34" font-family="Helvetica,sans-Serif" font-size="11.00">&lt; 1</text>
<polygon fill="#ffffff" stroke="none" points="248,-248.29 248,-267.79 304.25,-267.79 304.25,-248.29 248,-248.29"/>
<polygon fill="none" stroke="black" points="248,-248.29 248,-267.79 304.25,-267.79 304.25,-248.29 248,-248.29"/>
<text text-anchor="start" x="293.75" y="-254.34" font-family="Helvetica,sans-Serif" font-size="11.00"> &#160;</text>
<polygon fill="#ffffff" stroke="none" points="304.25,-248.29 304.25,-267.79 372.5,-267.79 372.5,-248.29 304.25,-248.29"/>
<polygon fill="none" stroke="black" points="304.25,-248.29 304.25,-267.79 372.5,-267.79 372.5,-248.29 304.25,-248.29"/>
<text text-anchor="start" x="350" y="-254.34" font-family="Helvetica,sans-Serif" font-size="11.00">6 &gt;</text>
</a>
</g>
</g>
<!-- check_automatic_result&#45;&gt;doc_digital_document -->
<g id="edge1" class="edge">
<title>check_automatic_result:w&#45;&gt;doc_digital_document:e</title>
<path fill="none" stroke="black" d="M998.01,-313.91C916.55,-307.21 903.57,-248.49 815,-230.54 728.86,-213.08 494.49,-184.71 419.5,-230.54 381.25,-253.91 418.32,-320.29 373.5,-320.29"/>
<polygon fill="black" stroke="black" points="1005.42,-314.21 1013.27,-318.12 1009.75,-314.38 1013.08,-314.51 1013.08,-314.51 1013.08,-314.51 1009.75,-314.38 1013.56,-310.93 1005.42,-314.21"/>
<ellipse fill="none" stroke="black" cx="1000.51" cy="-314.01" rx="3.2" ry="3.2"/>
</g>
<!-- doc_unit -->
<g id="node3" class="node">
<title>doc_unit</title>
<g id="a_node3"><a xlink:href="../../tables/doc_unit.html" xlink:title="doc_unit" target="_top">
<polygon fill="#ffffff" stroke="none" points="15,-269.29 15,-331.79 117.75,-331.79 117.75,-269.29 15,-269.29"/>
<polygon fill="#f5f5f5" stroke="none" points="15,-308.29 15,-331.79 117.75,-331.79 117.75,-308.29 15,-308.29"/>
<polygon fill="none" stroke="black" points="15,-308.29 15,-331.79 117.75,-331.79 117.75,-308.29 15,-308.29"/>
<text text-anchor="start" x="20" y="-317.34" font-family="Helvetica,sans-Serif" font-weight="bold" font-size="11.00">doc_unit</text>
<text text-anchor="start" x="76" y="-316.34" font-family="Helvetica,sans-Serif" font-size="11.00">[table]</text>
<polygon fill="none" stroke="black" points="15,-288.79 15,-308.29 117.75,-308.29 117.75,-288.79 15,-288.79"/>
<text text-anchor="start" x="18" y="-294.84" font-family="Helvetica,sans-Serif" font-size="11.00">...</text>
<polygon fill="#ffffff" stroke="none" points="15,-269.29 15,-288.79 55.5,-288.79 55.5,-269.29 15,-269.29"/>
<polygon fill="none" stroke="black" points="15,-269.29 15,-288.79 55.5,-288.79 55.5,-269.29 15,-269.29"/>
<text text-anchor="start" x="18" y="-275.34" font-family="Helvetica,sans-Serif" font-size="11.00">&lt; 13</text>
<polygon fill="#ffffff" stroke="none" points="55.5,-269.29 55.5,-288.79 77.25,-288.79 77.25,-269.29 55.5,-269.29"/>
<polygon fill="none" stroke="black" points="55.5,-269.29 55.5,-288.79 77.25,-288.79 77.25,-269.29 55.5,-269.29"/>
<text text-anchor="start" x="66.75" y="-275.34" font-family="Helvetica,sans-Serif" font-size="11.00"> &#160;</text>
<polygon fill="#ffffff" stroke="none" points="77.25,-269.29 77.25,-288.79 117.75,-288.79 117.75,-269.29 77.25,-269.29"/>
<polygon fill="none" stroke="black" points="77.25,-269.29 77.25,-288.79 117.75,-288.79 117.75,-269.29 77.25,-269.29"/>
<text text-anchor="start" x="88.5" y="-275.34" font-family="Helvetica,sans-Serif" font-size="11.00">11 &gt;</text>
</a>
</g>
</g>
<!-- check_automatic_result&#45;&gt;doc_unit -->
<g id="edge2" class="edge">
<title>check_automatic_result:w&#45;&gt;doc_unit:e</title>
<path fill="none" stroke="black" d="M998.3,-317.1C961.21,-332.43 1014.35,-413.04 973.75,-455.54 852.46,-582.52 425.35,-510.07 419.5,-508.54 294.29,-475.69 261.68,-452.46 165.75,-365.54 138.79,-341.12 155.12,-298.54 118.75,-298.54"/>
<polygon fill="black" stroke="black" points="1005.53,-315.9 1014.01,-318.15 1009.8,-315.19 1013.09,-314.65 1013.09,-314.65 1013.09,-314.65 1009.8,-315.19 1012.83,-311.04 1005.53,-315.9"/>
<ellipse fill="none" stroke="black" cx="1000.67" cy="-316.7" rx="3.2" ry="3.2"/>
</g>
<!-- doc_page -->
<g id="node4" class="node">
<title>doc_page</title>
<g id="a_node4"><a xlink:href="../../tables/doc_page.html" xlink:title="doc_page" target="_top">
<polygon fill="#ffffff" stroke="none" points="856,-382.29 856,-444.79 965.75,-444.79 965.75,-382.29 856,-382.29"/>
<polygon fill="#f5f5f5" stroke="none" points="856,-421.29 856,-444.79 965.75,-444.79 965.75,-421.29 856,-421.29"/>
<polygon fill="none" stroke="black" points="856,-421.29 856,-444.79 965.75,-444.79 965.75,-421.29 856,-421.29"/>
<text text-anchor="start" x="861" y="-430.34" font-family="Helvetica,sans-Serif" font-weight="bold" font-size="11.00">doc_page</text>
<text text-anchor="start" x="924" y="-429.34" font-family="Helvetica,sans-Serif" font-size="11.00">[table]</text>
<polygon fill="none" stroke="black" points="856,-401.79 856,-421.29 965.75,-421.29 965.75,-401.79 856,-401.79"/>
<text text-anchor="start" x="859" y="-407.84" font-family="Helvetica,sans-Serif" font-size="11.00">...</text>
<polygon fill="#ffffff" stroke="none" points="856,-382.29 856,-401.79 896.58,-401.79 896.58,-382.29 856,-382.29"/>
<polygon fill="none" stroke="black" points="856,-382.29 856,-401.79 896.58,-401.79 896.58,-382.29 856,-382.29"/>
<text text-anchor="start" x="859" y="-388.34" font-family="Helvetica,sans-Serif" font-size="11.00">&lt; 2</text>
<polygon fill="#ffffff" stroke="none" points="896.58,-382.29 896.58,-401.79 925.17,-401.79 925.17,-382.29 896.58,-382.29"/>
<polygon fill="none" stroke="black" points="896.58,-382.29 896.58,-401.79 925.17,-401.79 925.17,-382.29 896.58,-382.29"/>
<text text-anchor="start" x="914.67" y="-388.34" font-family="Helvetica,sans-Serif" font-size="11.00"> &#160;</text>
<polygon fill="#ffffff" stroke="none" points="925.17,-382.29 925.17,-401.79 965.75,-401.79 965.75,-382.29 925.17,-382.29"/>
<polygon fill="none" stroke="black" points="925.17,-382.29 925.17,-401.79 965.75,-401.79 965.75,-382.29 925.17,-382.29"/>
<text text-anchor="start" x="943.25" y="-388.34" font-family="Helvetica,sans-Serif" font-size="11.00">3 &gt;</text>
</a>
</g>
</g>
<!-- check_automatic_result&#45;&gt;doc_page -->
<g id="edge3" class="edge">
<title>check_automatic_result:w&#45;&gt;doc_page:e</title>
<path fill="none" stroke="black" d="M999.03,-319.48C977.38,-339.25 1008.11,-411.54 966.75,-411.54"/>
<polygon fill="black" stroke="black" points="1005.85,-317.19 1014.58,-318.06 1009.96,-315.81 1013.12,-314.75 1013.12,-314.75 1013.12,-314.75 1009.96,-315.81 1012.29,-311.23 1005.85,-317.19"/>
<ellipse fill="none" stroke="black" cx="1001.19" cy="-318.76" rx="3.2" ry="3.2"/>
</g>
<!-- doc_physical_document -->
<g id="node5" class="node">
<title>doc_physical_document</title>
<g id="a_node5"><a xlink:href="../../tables/doc_physical_document.html" xlink:title="doc_physical_document" target="_top">
<polygon fill="#ffffff" stroke="none" points="173.75,-63.29 173.75,-191.79 378.5,-191.79 378.5,-63.29 173.75,-63.29"/>
<polygon fill="#f5f5f5" stroke="none" points="173.75,-168.29 173.75,-191.79 378.5,-191.79 378.5,-168.29 173.75,-168.29"/>
<polygon fill="none" stroke="black" points="173.75,-168.29 173.75,-191.79 378.5,-191.79 378.5,-168.29 173.75,-168.29"/>
<text text-anchor="start" x="178.75" y="-177.34" font-family="Helvetica,sans-Serif" font-weight="bold" font-size="11.00">doc_physical_document</text>
<text text-anchor="start" x="336.75" y="-176.34" font-family="Helvetica,sans-Serif" font-size="11.00">[table]</text>
<polygon fill="none" stroke="black" points="173.75,-146.29 173.75,-168.29 378.5,-168.29 378.5,-146.29 173.75,-146.29"/>
<image xlink:href="../../images/primaryKeys.png" width="11px" height="12px" preserveAspectRatio="xMinYMin meet" x="178.75" y="-163.29"/>
<text text-anchor="start" x="206.62" y="-152.84" font-family="Helvetica,sans-Serif" font-size="11.00">identifier</text>
<polygon fill="#ffffff" stroke="none" points="173.75,-124.29 173.75,-146.29 378.5,-146.29 378.5,-124.29 173.75,-124.29"/>
<polygon fill="none" stroke="black" points="173.75,-124.29 173.75,-146.29 378.5,-146.29 378.5,-124.29 173.75,-124.29"/>
<image xlink:href="../../images/foreignKeys.png" width="11px" height="12px" preserveAspectRatio="xMinYMin meet" x="178.75" y="-141.29"/>
<text text-anchor="start" x="206.62" y="-130.84" font-family="Helvetica,sans-Serif" font-size="11.00">doc_unit</text>
<polygon fill="#ffffff" stroke="none" points="173.75,-102.29 173.75,-124.29 378.5,-124.29 378.5,-102.29 173.75,-102.29"/>
<polygon fill="none" stroke="black" points="173.75,-102.29 173.75,-124.29 378.5,-124.29 378.5,-102.29 173.75,-102.29"/>
<image xlink:href="../../images/foreignKeys.png" width="11px" height="12px" preserveAspectRatio="xMinYMin meet" x="178.75" y="-119.29"/>
<text text-anchor="start" x="206.62" y="-108.84" font-family="Helvetica,sans-Serif" font-size="11.00">train</text>
<polygon fill="none" stroke="black" points="173.75,-82.79 173.75,-102.29 378.5,-102.29 378.5,-82.79 173.75,-82.79"/>
<text text-anchor="start" x="176.75" y="-88.84" font-family="Helvetica,sans-Serif" font-size="11.00">...</text>
<polygon fill="#ffffff" stroke="none" points="173.75,-63.29 173.75,-82.79 246,-82.79 246,-63.29 173.75,-63.29"/>
<polygon fill="none" stroke="black" points="173.75,-63.29 173.75,-82.79 246,-82.79 246,-63.29 173.75,-63.29"/>
<text text-anchor="start" x="176.75" y="-69.34" font-family="Helvetica,sans-Serif" font-size="11.00">&lt; 2</text>
<polygon fill="#ffffff" stroke="none" points="246,-63.29 246,-82.79 306.25,-82.79 306.25,-63.29 246,-63.29"/>
<polygon fill="none" stroke="black" points="246,-63.29 246,-82.79 306.25,-82.79 306.25,-63.29 246,-63.29"/>
<text text-anchor="start" x="295.75" y="-69.34" font-family="Helvetica,sans-Serif" font-size="11.00"> &#160;</text>
<polygon fill="#ffffff" stroke="none" points="306.25,-63.29 306.25,-82.79 378.5,-82.79 378.5,-63.29 306.25,-63.29"/>
<polygon fill="none" stroke="black" points="306.25,-63.29 306.25,-82.79 378.5,-82.79 378.5,-63.29 306.25,-63.29"/>
<text text-anchor="start" x="356" y="-69.34" font-family="Helvetica,sans-Serif" font-size="11.00">2 &gt;</text>
</a>
</g>
</g>
<!-- check_automatic_result&#45;&gt;doc_physical_document -->
<g id="edge4" class="edge">
<title>check_automatic_result:w&#45;&gt;doc_physical_document:e</title>
<path fill="none" stroke="black" d="M998.82,-310.8C981.62,-299.28 992.98,-263.62 973.75,-238.54 915.24,-162.23 904.53,-126.63 815,-91.54 651.34,-27.4 572.73,-5.4 419.5,-91.54 389.68,-108.3 413.71,-157.29 379.5,-157.29"/>
<polygon fill="black" stroke="black" points="1005.67,-312.51 1012.55,-317.95 1009.87,-313.57 1013.1,-314.38 1013.1,-314.38 1013.1,-314.38 1009.87,-313.57 1014.3,-310.97 1005.67,-312.51"/>
<ellipse fill="none" stroke="black" cx="1000.89" cy="-311.32" rx="3.2" ry="3.2"/>
</g>
<!-- doc_digital_document&#45;&gt;doc_unit -->
<g id="edge6" class="edge">
<title>doc_digital_document:w&#45;&gt;doc_unit:e</title>
<path fill="none" stroke="black" d="M163.24,-298.32C148.04,-298.39 139.38,-298.54 118.75,-298.54"/>
<polygon fill="black" stroke="black" points="170.42,-298.31 178.42,-301.89 174.75,-298.3 178.08,-298.29 178.08,-298.29 178.08,-298.29 174.75,-298.3 178.41,-294.69 170.42,-298.31"/>
<ellipse fill="none" stroke="black" cx="165.5" cy="-298.32" rx="3.2" ry="3.2"/>
</g>
<!-- doc_page&#45;&gt;doc_digital_document -->
<g id="edge8" class="edge">
<title>doc_page:w&#45;&gt;doc_digital_document:e</title>
<path fill="none" stroke="black" d="M839.39,-411.79C733.17,-414.95 498.66,-445.41 419.5,-398.54 384.79,-377.99 413.84,-320.29 373.5,-320.29"/>
<polygon fill="black" stroke="black" points="846.67,-411.68 854.72,-415.14 851,-411.61 854.33,-411.55 854.33,-411.55 854.33,-411.55 851,-411.61 854.61,-407.95 846.67,-411.68"/>
<ellipse fill="none" stroke="black" cx="841.75" cy="-411.76" rx="3.2" ry="3.2"/>
</g>
<!-- doc_sample -->
<g id="node8" class="node">
<title>doc_sample</title>
<g id="a_node8"><a xlink:href="../../tables/doc_sample.html" xlink:title="doc_sample" target="_top">
<polygon fill="#ffffff" stroke="none" points="554.88,-435.29 554.88,-497.79 679.62,-497.79 679.62,-435.29 554.88,-435.29"/>
<polygon fill="#f5f5f5" stroke="none" points="554.88,-474.29 554.88,-497.79 679.62,-497.79 679.62,-474.29 554.88,-474.29"/>
<polygon fill="none" stroke="black" points="554.88,-474.29 554.88,-497.79 679.62,-497.79 679.62,-474.29 554.88,-474.29"/>
<text text-anchor="start" x="559.88" y="-483.34" font-family="Helvetica,sans-Serif" font-weight="bold" font-size="11.00">doc_sample</text>
<text text-anchor="start" x="637.88" y="-482.34" font-family="Helvetica,sans-Serif" font-size="11.00">[table]</text>
<polygon fill="none" stroke="black" points="554.88,-454.79 554.88,-474.29 679.62,-474.29 679.62,-454.79 554.88,-454.79"/>
<text text-anchor="start" x="557.88" y="-460.84" font-family="Helvetica,sans-Serif" font-size="11.00">...</text>
<polygon fill="#ffffff" stroke="none" points="554.88,-435.29 554.88,-454.79 600.46,-454.79 600.46,-435.29 554.88,-435.29"/>
<polygon fill="none" stroke="black" points="554.88,-435.29 554.88,-454.79 600.46,-454.79 600.46,-435.29 554.88,-435.29"/>
<text text-anchor="start" x="557.88" y="-441.34" font-family="Helvetica,sans-Serif" font-size="11.00">&lt; 2</text>
<polygon fill="#ffffff" stroke="none" points="600.46,-435.29 600.46,-454.79 634.04,-454.79 634.04,-435.29 600.46,-435.29"/>
<polygon fill="none" stroke="black" points="600.46,-435.29 600.46,-454.79 634.04,-454.79 634.04,-435.29 600.46,-435.29"/>
<text text-anchor="start" x="623.54" y="-441.34" font-family="Helvetica,sans-Serif" font-size="11.00"> &#160;</text>
<polygon fill="#ffffff" stroke="none" points="634.04,-435.29 634.04,-454.79 679.62,-454.79 679.62,-435.29 634.04,-435.29"/>
<polygon fill="none" stroke="black" points="634.04,-435.29 634.04,-454.79 679.62,-454.79 679.62,-435.29 634.04,-435.29"/>
<text text-anchor="start" x="657.12" y="-441.34" font-family="Helvetica,sans-Serif" font-size="11.00">1 &gt;</text>
</a>
</g>
</g>
<!-- doc_page&#45;&gt;doc_sample -->
<g id="edge9" class="edge">
<title>doc_page:w&#45;&gt;doc_sample:e</title>
<path fill="none" stroke="black" d="M839.5,-414.62C797.97,-425.93 697.91,-464.54 680.62,-464.54"/>
<polygon fill="black" stroke="black" points="846.83,-413.16 855.37,-415.14 851.08,-412.32 854.34,-411.67 854.34,-411.67 854.34,-411.67 851.08,-412.32 853.97,-408.07 846.83,-413.16"/>
<ellipse fill="none" stroke="black" cx="842" cy="-414.12" rx="3.2" ry="3.2"/>
</g>
<!-- doc_physical_document&#45;&gt;doc_unit -->
<g id="edge10" class="edge">
<title>doc_physical_document:w&#45;&gt;doc_unit:e</title>
<path fill="none" stroke="black" d="M157.29,-138.41C111.37,-160.97 188.9,-298.54 118.75,-298.54"/>
<polygon fill="black" stroke="black" points="164.58,-136.94 173.13,-138.88 168.83,-136.08 172.09,-135.42 172.09,-135.42 172.09,-135.42 168.83,-136.08 171.71,-131.83 164.58,-136.94"/>
<ellipse fill="none" stroke="black" cx="159.76" cy="-137.91" rx="3.2" ry="3.2"/>
</g>
<!-- train_train -->
<g id="node9" class="node">
<title>train_train</title>
<g id="a_node9"><a xlink:href="../../tables/train_train.html" xlink:title="train_train" target="_top">
<polygon fill="#ffffff" stroke="none" points="8,-84.29 8,-146.79 124.75,-146.79 124.75,-84.29 8,-84.29"/>
<polygon fill="#f5f5f5" stroke="none" points="8,-123.29 8,-146.79 124.75,-146.79 124.75,-123.29 8,-123.29"/>
<polygon fill="none" stroke="black" points="8,-123.29 8,-146.79 124.75,-146.79 124.75,-123.29 8,-123.29"/>
<text text-anchor="start" x="13" y="-132.34" font-family="Helvetica,sans-Serif" font-weight="bold" font-size="11.00">train_train</text>
<text text-anchor="start" x="83" y="-131.34" font-family="Helvetica,sans-Serif" font-size="11.00">[table]</text>
<polygon fill="none" stroke="black" points="8,-103.79 8,-123.29 124.75,-123.29 124.75,-103.79 8,-103.79"/>
<text text-anchor="start" x="11" y="-109.84" font-family="Helvetica,sans-Serif" font-size="11.00">...</text>
<polygon fill="#ffffff" stroke="none" points="8,-84.29 8,-103.79 50.92,-103.79 50.92,-84.29 8,-84.29"/>
<polygon fill="none" stroke="black" points="8,-84.29 8,-103.79 50.92,-103.79 50.92,-84.29 8,-84.29"/>
<text text-anchor="start" x="11" y="-90.34" font-family="Helvetica,sans-Serif" font-size="11.00">&lt; 1</text>
<polygon fill="#ffffff" stroke="none" points="50.92,-84.29 50.92,-103.79 81.83,-103.79 81.83,-84.29 50.92,-84.29"/>
<polygon fill="none" stroke="black" points="50.92,-84.29 50.92,-103.79 81.83,-103.79 81.83,-84.29 50.92,-84.29"/>
<text text-anchor="start" x="71.33" y="-90.34" font-family="Helvetica,sans-Serif" font-size="11.00"> &#160;</text>
<polygon fill="#ffffff" stroke="none" points="81.83,-84.29 81.83,-103.79 124.75,-103.79 124.75,-84.29 81.83,-84.29"/>
<polygon fill="none" stroke="black" points="81.83,-84.29 81.83,-103.79 124.75,-103.79 124.75,-84.29 81.83,-84.29"/>
<text text-anchor="start" x="102.25" y="-90.34" font-family="Helvetica,sans-Serif" font-size="11.00">1 &gt;</text>
</a>
</g>
</g>
<!-- doc_physical_document&#45;&gt;train_train -->
<g id="edge11" class="edge">
<title>doc_physical_document:w&#45;&gt;train_train:e</title>
<path fill="none" stroke="black" d="M157.13,-113.35C147.22,-113.42 140.27,-113.54 125.75,-113.54"/>
<polygon fill="black" stroke="black" points="164.42,-113.32 172.43,-116.89 168.75,-113.3 172.08,-113.29 172.08,-113.29 172.08,-113.29 168.75,-113.3 172.4,-109.69 164.42,-113.32"/>
<ellipse fill="none" stroke="black" cx="159.5" cy="-113.34" rx="3.2" ry="3.2"/>
</g>
<!-- del_delivered_document -->
<g id="node6" class="node">
<title>del_delivered_document</title>
<g id="a_node6"><a xlink:href="../../tables/del_delivered_document.html" xlink:title="del_delivered_document" target="_top">
<polygon fill="#ffffff" stroke="none" points="512.38,-325.29 512.38,-387.79 722.12,-387.79 722.12,-325.29 512.38,-325.29"/>
<polygon fill="#f5f5f5" stroke="none" points="512.38,-364.29 512.38,-387.79 722.12,-387.79 722.12,-364.29 512.38,-364.29"/>
<polygon fill="none" stroke="black" points="512.38,-364.29 512.38,-387.79 722.12,-387.79 722.12,-364.29 512.38,-364.29"/>
<text text-anchor="start" x="517.38" y="-373.34" font-family="Helvetica,sans-Serif" font-weight="bold" font-size="11.00">del_delivered_document</text>
<text text-anchor="start" x="680.38" y="-372.34" font-family="Helvetica,sans-Serif" font-size="11.00">[table]</text>
<polygon fill="none" stroke="black" points="512.38,-344.79 512.38,-364.29 722.12,-364.29 722.12,-344.79 512.38,-344.79"/>
<text text-anchor="start" x="515.38" y="-350.84" font-family="Helvetica,sans-Serif" font-size="11.00">...</text>
<polygon fill="#ffffff" stroke="none" points="512.38,-325.29 512.38,-344.79 590.29,-344.79 590.29,-325.29 512.38,-325.29"/>
<polygon fill="none" stroke="black" points="512.38,-325.29 512.38,-344.79 590.29,-344.79 590.29,-325.29 512.38,-325.29"/>
<text text-anchor="start" x="515.38" y="-331.34" font-family="Helvetica,sans-Serif" font-size="11.00">&lt; 3</text>
<polygon fill="#ffffff" stroke="none" points="590.29,-325.29 590.29,-344.79 656.21,-344.79 656.21,-325.29 590.29,-325.29"/>
<polygon fill="none" stroke="black" points="590.29,-325.29 590.29,-344.79 656.21,-344.79 656.21,-325.29 590.29,-325.29"/>
<text text-anchor="start" x="645.71" y="-331.34" font-family="Helvetica,sans-Serif" font-size="11.00"> &#160;</text>
<polygon fill="#ffffff" stroke="none" points="656.21,-325.29 656.21,-344.79 722.12,-344.79 722.12,-325.29 656.21,-325.29"/>
<polygon fill="none" stroke="black" points="656.21,-325.29 656.21,-344.79 722.12,-344.79 722.12,-325.29 656.21,-325.29"/>
<text text-anchor="start" x="711.62" y="-331.34" font-family="Helvetica,sans-Serif" font-size="11.00"> &#160;</text>
</a>
</g>
</g>
<!-- del_delivered_document&#45;&gt;doc_digital_document -->
<g id="edge5" class="edge">
<title>del_delivered_document:w&#45;&gt;doc_digital_document:e</title>
<path fill="none" stroke="black" d="M495.85,-353.79C445.8,-348.78 431.09,-320.29 373.5,-320.29"/>
<polygon fill="black" stroke="black" points="503.05,-354.14 510.87,-358.12 507.38,-354.35 510.71,-354.51 510.71,-354.51 510.71,-354.51 507.38,-354.35 511.21,-350.93 503.05,-354.14"/>
<ellipse fill="none" stroke="black" cx="498.14" cy="-353.9" rx="3.2" ry="3.2"/>
</g>
<!-- doc_global_check -->
<g id="node7" class="node">
<title>doc_global_check</title>
<g id="a_node7"><a xlink:href="../../tables/doc_global_check.html" xlink:title="doc_global_check" target="_top">
<polygon fill="#ffffff" stroke="none" points="535.88,-241.29 535.88,-303.79 698.62,-303.79 698.62,-241.29 535.88,-241.29"/>
<polygon fill="#f5f5f5" stroke="none" points="535.88,-280.29 535.88,-303.79 698.62,-303.79 698.62,-280.29 535.88,-280.29"/>
<polygon fill="none" stroke="black" points="535.88,-280.29 535.88,-303.79 698.62,-303.79 698.62,-280.29 535.88,-280.29"/>
<text text-anchor="start" x="540.88" y="-289.34" font-family="Helvetica,sans-Serif" font-weight="bold" font-size="11.00">doc_global_check</text>
<text text-anchor="start" x="656.88" y="-288.34" font-family="Helvetica,sans-Serif" font-size="11.00">[table]</text>
<polygon fill="none" stroke="black" points="535.88,-260.79 535.88,-280.29 698.62,-280.29 698.62,-260.79 535.88,-260.79"/>
<text text-anchor="start" x="538.88" y="-266.84" font-family="Helvetica,sans-Serif" font-size="11.00">...</text>
<polygon fill="#ffffff" stroke="none" points="535.88,-241.29 535.88,-260.79 598.12,-260.79 598.12,-241.29 535.88,-241.29"/>
<polygon fill="none" stroke="black" points="535.88,-241.29 535.88,-260.79 598.12,-260.79 598.12,-241.29 535.88,-241.29"/>
<text text-anchor="start" x="538.88" y="-247.34" font-family="Helvetica,sans-Serif" font-size="11.00">&lt; 1</text>
<polygon fill="#ffffff" stroke="none" points="598.12,-241.29 598.12,-260.79 648.38,-260.79 648.38,-241.29 598.12,-241.29"/>
<polygon fill="none" stroke="black" points="598.12,-241.29 598.12,-260.79 648.38,-260.79 648.38,-241.29 598.12,-241.29"/>
<text text-anchor="start" x="637.88" y="-247.34" font-family="Helvetica,sans-Serif" font-size="11.00"> &#160;</text>
<polygon fill="#ffffff" stroke="none" points="648.38,-241.29 648.38,-260.79 698.62,-260.79 698.62,-241.29 648.38,-241.29"/>
<polygon fill="none" stroke="black" points="648.38,-241.29 648.38,-260.79 698.62,-260.79 698.62,-241.29 648.38,-241.29"/>
<text text-anchor="start" x="688.12" y="-247.34" font-family="Helvetica,sans-Serif" font-size="11.00"> &#160;</text>
</a>
</g>
</g>
<!-- doc_global_check&#45;&gt;doc_digital_document -->
<g id="edge7" class="edge">
<title>doc_global_check:w&#45;&gt;doc_digital_document:e</title>
<path fill="none" stroke="black" d="M519.17,-271.32C457.8,-277.65 442.98,-320.29 373.5,-320.29"/>
<polygon fill="black" stroke="black" points="526.55,-270.95 534.72,-274.15 530.88,-270.74 534.21,-270.57 534.21,-270.57 534.21,-270.57 530.88,-270.74 534.36,-266.96 526.55,-270.95"/>
<ellipse fill="none" stroke="black" cx="521.64" cy="-271.2" rx="3.2" ry="3.2"/>
</g>
<!-- doc_sample&#45;&gt;doc_digital_document -->
<g id="edge14" class="edge">
<title>doc_sample:w&#45;&gt;doc_digital_document:e</title>
<path fill="none" stroke="black" d="M538.18,-464.48C486.64,-464 462.23,-459.55 419.5,-421.54 382.57,-388.69 422.93,-320.29 373.5,-320.29"/>
<polygon fill="black" stroke="black" points="545.54,-464.51 553.53,-468.14 549.88,-464.53 553.21,-464.54 553.21,-464.54 553.21,-464.54 549.88,-464.53 553.55,-460.94 545.54,-464.51"/>
<ellipse fill="none" stroke="black" cx="540.62" cy="-464.49" rx="3.2" ry="3.2"/>
</g>
<!-- doc_physical_document_digital -->
<g id="node10" class="node">
<title>doc_physical_document_digital</title>
<g id="a_node10"><a xlink:href="../../tables/doc_physical_document_digital.html" xlink:title="doc_physical_document_digital" target="_top">
<polygon fill="#ffffff" stroke="none" points="427.5,-102.04 427.5,-193.04 807,-193.04 807,-102.04 427.5,-102.04"/>
<polygon fill="#f5f5f5" stroke="none" points="429.5,-167.54 429.5,-191.04 805,-191.04 805,-167.54 429.5,-167.54"/>
<polygon fill="none" stroke="black" points="429.5,-167.54 429.5,-191.04 805,-191.04 805,-167.54 429.5,-167.54"/>
<text text-anchor="start" x="434.5" y="-176.59" font-family="Helvetica,sans-Serif" font-weight="bold" font-size="11.00">doc_physical_document_digital</text>
<text text-anchor="start" x="763.25" y="-175.59" font-family="Helvetica,sans-Serif" font-size="11.00">[table]</text>
<polygon fill="none" stroke="black" points="429.5,-145.54 429.5,-167.54 658.5,-167.54 658.5,-145.54 429.5,-145.54"/>
<image xlink:href="../../images/primaryKeys.png" width="11px" height="12px" preserveAspectRatio="xMinYMin meet" x="434.5" y="-162.54"/>
<text text-anchor="start" x="449.5" y="-152.09" font-family="Helvetica,sans-Serif" font-size="11.00">physical_document</text>
<polygon fill="none" stroke="black" points="658.5,-145.54 658.5,-167.54 770.38,-167.54 770.38,-145.54 658.5,-145.54"/>
<text text-anchor="start" x="661.5" y="-152.84" font-family="Helvetica,sans-Serif" font-size="11.00">varchar[191]</text>
<polygon fill="none" stroke="black" points="429.5,-123.54 429.5,-145.54 658.5,-145.54 658.5,-123.54 429.5,-123.54"/>
<image xlink:href="../../images/primaryKeys.png" width="11px" height="12px" preserveAspectRatio="xMinYMin meet" x="434.5" y="-140.54"/>
<text text-anchor="start" x="449.5" y="-130.09" font-family="Helvetica,sans-Serif" font-size="11.00">digital_document</text>
<polygon fill="none" stroke="black" points="658.5,-123.54 658.5,-145.54 770.38,-145.54 770.38,-123.54 658.5,-123.54"/>
<text text-anchor="start" x="661.5" y="-130.84" font-family="Helvetica,sans-Serif" font-size="11.00">varchar[191]</text>
<polygon fill="#ffffff" stroke="none" points="429.5,-104.04 429.5,-123.54 550,-123.54 550,-104.04 429.5,-104.04"/>
<polygon fill="none" stroke="black" points="429.5,-104.04 429.5,-123.54 550,-123.54 550,-104.04 429.5,-104.04"/>
<text text-anchor="start" x="432.5" y="-110.09" font-family="Helvetica,sans-Serif" font-size="11.00">&lt; 2</text>
<polygon fill="#ffffff" stroke="none" points="550,-104.04 550,-123.54 658.5,-123.54 658.5,-104.04 550,-104.04"/>
<polygon fill="none" stroke="black" points="550,-104.04 550,-123.54 658.5,-123.54 658.5,-104.04 550,-104.04"/>
<text text-anchor="start" x="648" y="-110.09" font-family="Helvetica,sans-Serif" font-size="11.00"> &#160;</text>
<polygon fill="#ffffff" stroke="none" points="658.5,-104.04 658.5,-123.54 770.38,-123.54 770.38,-104.04 658.5,-104.04"/>
<polygon fill="none" stroke="black" points="658.5,-104.04 658.5,-123.54 770.38,-123.54 770.38,-104.04 658.5,-104.04"/>
<text text-anchor="start" x="747.88" y="-110.09" font-family="Helvetica,sans-Serif" font-size="11.00">0 &gt;</text>
<polygon fill="none" stroke="black" stroke-width="2" points="428.5,-103.04 428.5,-192.04 806,-192.04 806,-103.04 428.5,-103.04"/>
</a>
</g>
</g>
<!-- doc_physical_document_digital&#45;&gt;doc_digital_document -->
<g id="edge12" class="edge">
<title>doc_physical_document_digital:w&#45;&gt;doc_digital_document:e</title>
<path fill="none" stroke="black" d="M413.21,-137.17C357.88,-159.74 453.54,-320.29 373.5,-320.29"/>
<polygon fill="black" stroke="black" points="420.29,-135.95 428.78,-138.14 424.56,-135.22 427.84,-134.65 427.84,-134.65 427.84,-134.65 424.56,-135.22 427.56,-131.05 420.29,-135.95"/>
<ellipse fill="none" stroke="black" cx="415.44" cy="-136.78" rx="3.2" ry="3.2"/>
</g>
<!-- doc_physical_document_digital&#45;&gt;doc_physical_document -->
<g id="edge13" class="edge">
<title>doc_physical_document_digital:w&#45;&gt;doc_physical_document:e</title>
<path fill="none" stroke="black" d="M412.92,-156.69C402.21,-156.91 394.98,-157.29 379.5,-157.29"/>
<polygon fill="black" stroke="black" points="420.17,-156.62 428.2,-160.14 424.5,-156.58 427.83,-156.55 427.83,-156.55 427.83,-156.55 424.5,-156.58 428.13,-152.94 420.17,-156.62"/>
<ellipse fill="none" stroke="black" cx="415.25" cy="-156.67" rx="3.2" ry="3.2"/>
</g>
</g>
</svg>
