<?xml version="1.0" encoding="UTF-8" standalone="no"?>
<!DOCTYPE svg PUBLIC "-//W3C//DTD SVG 1.1//EN"
 "http://www.w3.org/Graphics/SVG/1.1/DTD/svg11.dtd">
<!-- Generated by graphviz version 12.2.0 (0)
 -->
<!-- Title: oneDegreeRelationshipsDiagram Pages: 1 -->
<svg width="515pt" height="615pt"
 viewBox="0.00 0.00 514.75 615.00" xmlns="http://www.w3.org/2000/svg" xmlns:xlink="http://www.w3.org/1999/xlink">
<g id="graph0" class="graph" transform="scale(1 1) rotate(0) translate(4 611)">
<title>oneDegreeRelationshipsDiagram</title>
<polygon fill="#ffffff" stroke="none" points="-4,4 -4,-611 510.75,-611 510.75,4 -4,4"/>
<text text-anchor="middle" x="79.25" y="-7.05" font-family="Helvetica,sans-Serif" font-size="11.00">Generated by SchemaSpy</text>
<!-- doc_export_property -->
<g id="node1" class="node">
<title>doc_export_property</title>
<g id="a_node1"><a xlink:href="../../tables/doc_export_property.html" xlink:title="doc_export_property" target="_top">
<polygon fill="#ffffff" stroke="none" points="312.38,-474.5 312.38,-603 498.12,-603 498.12,-474.5 312.38,-474.5"/>
<polygon fill="#f5f5f5" stroke="none" points="312.38,-579.5 312.38,-603 498.12,-603 498.12,-579.5 312.38,-579.5"/>
<polygon fill="none" stroke="black" points="312.38,-579.5 312.38,-603 498.12,-603 498.12,-579.5 312.38,-579.5"/>
<text text-anchor="start" x="317.38" y="-588.55" font-family="Helvetica,sans-Serif" font-weight="bold" font-size="11.00">doc_export_property</text>
<text text-anchor="start" x="456.38" y="-587.55" font-family="Helvetica,sans-Serif" font-size="11.00">[table]</text>
<polygon fill="none" stroke="black" points="312.38,-557.5 312.38,-579.5 498.12,-579.5 498.12,-557.5 312.38,-557.5"/>
<image xlink:href="../../images/primaryKeys.png" width="11px" height="12px" preserveAspectRatio="xMinYMin meet" x="317.375" y="-574.5"/>
<text text-anchor="start" x="345.25" y="-564.05" font-family="Helvetica,sans-Serif" font-size="11.00">identifier</text>
<polygon fill="#ffffff" stroke="none" points="312.38,-535.5 312.38,-557.5 498.12,-557.5 498.12,-535.5 312.38,-535.5"/>
<polygon fill="none" stroke="black" points="312.38,-535.5 312.38,-557.5 498.12,-557.5 498.12,-535.5 312.38,-535.5"/>
<image xlink:href="../../images/foreignKeys.png" width="11px" height="12px" preserveAspectRatio="xMinYMin meet" x="317.375" y="-552.5"/>
<text text-anchor="start" x="345.25" y="-542.05" font-family="Helvetica,sans-Serif" font-size="11.00">type</text>
<polygon fill="#ffffff" stroke="none" points="312.38,-513.5 312.38,-535.5 498.12,-535.5 498.12,-513.5 312.38,-513.5"/>
<polygon fill="none" stroke="black" points="312.38,-513.5 312.38,-535.5 498.12,-535.5 498.12,-513.5 312.38,-513.5"/>
<image xlink:href="../../images/foreignKeys.png" width="11px" height="12px" preserveAspectRatio="xMinYMin meet" x="317.375" y="-530.5"/>
<text text-anchor="start" x="345.25" y="-520.05" font-family="Helvetica,sans-Serif" font-size="11.00">record</text>
<polygon fill="none" stroke="black" points="312.38,-494 312.38,-513.5 498.12,-513.5 498.12,-494 312.38,-494"/>
<text text-anchor="start" x="315.38" y="-500.05" font-family="Helvetica,sans-Serif" font-size="11.00">...</text>
<polygon fill="#ffffff" stroke="none" points="312.38,-474.5 312.38,-494 382.29,-494 382.29,-474.5 312.38,-474.5"/>
<polygon fill="none" stroke="black" points="312.38,-474.5 312.38,-494 382.29,-494 382.29,-474.5 312.38,-474.5"/>
<text text-anchor="start" x="315.38" y="-480.55" font-family="Helvetica,sans-Serif" font-size="11.00">&lt; 2</text>
<polygon fill="#ffffff" stroke="none" points="382.29,-474.5 382.29,-494 440.21,-494 440.21,-474.5 382.29,-474.5"/>
<polygon fill="none" stroke="black" points="382.29,-474.5 382.29,-494 440.21,-494 440.21,-474.5 382.29,-474.5"/>
<text text-anchor="start" x="429.71" y="-480.55" font-family="Helvetica,sans-Serif" font-size="11.00"> &#160;</text>
<polygon fill="#ffffff" stroke="none" points="440.21,-474.5 440.21,-494 498.12,-494 498.12,-474.5 440.21,-474.5"/>
<polygon fill="none" stroke="black" points="440.21,-474.5 440.21,-494 498.12,-494 498.12,-474.5 440.21,-474.5"/>
<text text-anchor="start" x="487.62" y="-480.55" font-family="Helvetica,sans-Serif" font-size="11.00"> &#160;</text>
</a>
</g>
</g>
<!-- doc_export_data -->
<g id="node2" class="node">
<title>doc_export_data</title>
<g id="a_node2"><a xlink:href="../../tables/doc_export_data.html" xlink:title="doc_export_data" target="_top">
<polygon fill="#ffffff" stroke="none" points="8,-164.25 8,-365.25 262.75,-365.25 262.75,-164.25 8,-164.25"/>
<polygon fill="#f5f5f5" stroke="none" points="10,-339.75 10,-363.25 260.75,-363.25 260.75,-339.75 10,-339.75"/>
<polygon fill="none" stroke="black" points="10,-339.75 10,-363.25 260.75,-363.25 260.75,-339.75 10,-339.75"/>
<text text-anchor="start" x="15" y="-348.8" font-family="Helvetica,sans-Serif" font-weight="bold" font-size="11.00">doc_export_data</text>
<text text-anchor="start" x="219" y="-347.8" font-family="Helvetica,sans-Serif" font-size="11.00">[table]</text>
<polygon fill="none" stroke="black" points="10,-317.75 10,-339.75 158,-339.75 158,-317.75 10,-317.75"/>
<image xlink:href="../../images/primaryKeys.png" width="11px" height="12px" preserveAspectRatio="xMinYMin meet" x="15" y="-334.75"/>
<text text-anchor="start" x="30" y="-324.3" font-family="Helvetica,sans-Serif" font-size="11.00">identifier</text>
<polygon fill="none" stroke="black" points="158,-317.75 158,-339.75 253.25,-339.75 253.25,-317.75 158,-317.75"/>
<text text-anchor="start" x="161" y="-325.05" font-family="Helvetica,sans-Serif" font-size="11.00">varchar[191]</text>
<polygon fill="none" stroke="black" points="10,-295.75 10,-317.75 158,-317.75 158,-295.75 10,-295.75"/>
<text text-anchor="start" x="30" y="-302.3" font-family="Helvetica,sans-Serif" font-size="11.00">doc_unit</text>
<polygon fill="none" stroke="black" points="158,-295.75 158,-317.75 253.25,-317.75 253.25,-295.75 158,-295.75"/>
<text text-anchor="start" x="161" y="-303.05" font-family="Helvetica,sans-Serif" font-size="11.00">varchar[191]</text>
<polygon fill="none" stroke="black" points="10,-273.75 10,-295.75 158,-295.75 158,-273.75 10,-273.75"/>
<text text-anchor="start" x="30" y="-280.3" font-family="Helvetica,sans-Serif" font-size="11.00">version</text>
<polygon fill="none" stroke="black" points="158,-273.75 158,-295.75 253.25,-295.75 253.25,-273.75 158,-273.75"/>
<text text-anchor="start" x="161" y="-281.05" font-family="Helvetica,sans-Serif" font-size="11.00">bigint[19]</text>
<polygon fill="none" stroke="black" points="10,-251.75 10,-273.75 158,-273.75 158,-251.75 10,-251.75"/>
<text text-anchor="start" x="30" y="-258.3" font-family="Helvetica,sans-Serif" font-size="11.00">created_by</text>
<polygon fill="none" stroke="black" points="158,-251.75 158,-273.75 253.25,-273.75 253.25,-251.75 158,-251.75"/>
<text text-anchor="start" x="161" y="-259.05" font-family="Helvetica,sans-Serif" font-size="11.00">varchar[191]</text>
<polygon fill="none" stroke="black" points="10,-229.75 10,-251.75 158,-251.75 158,-229.75 10,-229.75"/>
<text text-anchor="start" x="30" y="-236.3" font-family="Helvetica,sans-Serif" font-size="11.00">last_modified_by</text>
<polygon fill="none" stroke="black" points="158,-229.75 158,-251.75 253.25,-251.75 253.25,-229.75 158,-229.75"/>
<text text-anchor="start" x="161" y="-237.05" font-family="Helvetica,sans-Serif" font-size="11.00">varchar[191]</text>
<polygon fill="none" stroke="black" points="10,-207.75 10,-229.75 158,-229.75 158,-207.75 10,-207.75"/>
<text text-anchor="start" x="30" y="-214.3" font-family="Helvetica,sans-Serif" font-size="11.00">created_date</text>
<polygon fill="none" stroke="black" points="158,-207.75 158,-229.75 253.25,-229.75 253.25,-207.75 158,-207.75"/>
<text text-anchor="start" x="161" y="-215.05" font-family="Helvetica,sans-Serif" font-size="11.00">timestamp[19]</text>
<polygon fill="none" stroke="black" points="10,-185.75 10,-207.75 158,-207.75 158,-185.75 10,-185.75"/>
<text text-anchor="start" x="30" y="-192.3" font-family="Helvetica,sans-Serif" font-size="11.00">last_modified_date</text>
<polygon fill="none" stroke="black" points="158,-185.75 158,-207.75 253.25,-207.75 253.25,-185.75 158,-185.75"/>
<text text-anchor="start" x="161" y="-193.05" font-family="Helvetica,sans-Serif" font-size="11.00">timestamp[19]</text>
<polygon fill="#ffffff" stroke="none" points="10,-166.25 10,-185.75 90,-185.75 90,-166.25 10,-166.25"/>
<polygon fill="none" stroke="black" points="10,-166.25 10,-185.75 90,-185.75 90,-166.25 10,-166.25"/>
<text text-anchor="start" x="13" y="-172.3" font-family="Helvetica,sans-Serif" font-size="11.00">&lt; 0</text>
<polygon fill="#ffffff" stroke="none" points="90,-166.25 90,-185.75 158,-185.75 158,-166.25 90,-166.25"/>
<polygon fill="none" stroke="black" points="90,-166.25 90,-185.75 158,-185.75 158,-166.25 90,-166.25"/>
<text text-anchor="start" x="147.5" y="-172.3" font-family="Helvetica,sans-Serif" font-size="11.00"> &#160;</text>
<polygon fill="#ffffff" stroke="none" points="158,-166.25 158,-185.75 253.25,-185.75 253.25,-166.25 158,-166.25"/>
<polygon fill="none" stroke="black" points="158,-166.25 158,-185.75 253.25,-185.75 253.25,-166.25 158,-166.25"/>
<text text-anchor="start" x="230.75" y="-172.3" font-family="Helvetica,sans-Serif" font-size="11.00">2 &gt;</text>
<polygon fill="none" stroke="black" stroke-width="2" points="9,-165.25 9,-364.25 261.75,-364.25 261.75,-165.25 9,-165.25"/>
</a>
</g>
</g>
<!-- doc_export_property&#45;&gt;doc_export_data -->
<g id="edge1" class="edge">
<title>doc_export_property:w&#45;&gt;doc_export_data:e</title>
<path fill="none" stroke="black" d="M296.04,-522.02C236.29,-499.37 338.86,-328.75 254.25,-328.75"/>
<polygon fill="black" stroke="black" points="303.15,-523.17 310.47,-528 307.43,-523.86 310.71,-524.39 310.71,-524.39 310.71,-524.39 307.43,-523.86 311.62,-520.89 303.15,-523.17"/>
<ellipse fill="none" stroke="black" cx="298.29" cy="-522.39" rx="3.2" ry="3.2"/>
</g>
<!-- doc_unit -->
<g id="node3" class="node">
<title>doc_unit</title>
<g id="a_node3"><a xlink:href="../../tables/doc_unit.html" xlink:title="doc_unit" target="_top">
<polygon fill="#ffffff" stroke="none" points="311.75,-38.5 311.75,-453 498.75,-453 498.75,-38.5 311.75,-38.5"/>
<polygon fill="#f5f5f5" stroke="none" points="311.75,-429.5 311.75,-453 498.75,-453 498.75,-429.5 311.75,-429.5"/>
<polygon fill="none" stroke="black" points="311.75,-429.5 311.75,-453 498.75,-453 498.75,-429.5 311.75,-429.5"/>
<text text-anchor="start" x="316.75" y="-438.55" font-family="Helvetica,sans-Serif" font-weight="bold" font-size="11.00">doc_unit</text>
<text text-anchor="start" x="457" y="-437.55" font-family="Helvetica,sans-Serif" font-size="11.00">[table]</text>
<polygon fill="none" stroke="black" points="311.75,-407.5 311.75,-429.5 498.75,-429.5 498.75,-407.5 311.75,-407.5"/>
<image xlink:href="../../images/primaryKeys.png" width="11px" height="12px" preserveAspectRatio="xMinYMin meet" x="316.75" y="-424.5"/>
<text text-anchor="start" x="331.75" y="-414.05" font-family="Helvetica,sans-Serif" font-size="11.00">identifier</text>
<polygon fill="#ffffff" stroke="none" points="311.75,-385.5 311.75,-407.5 498.75,-407.5 498.75,-385.5 311.75,-385.5"/>
<polygon fill="none" stroke="black" points="311.75,-385.5 311.75,-407.5 498.75,-407.5 498.75,-385.5 311.75,-385.5"/>
<text text-anchor="start" x="331.75" y="-392.05" font-family="Helvetica,sans-Serif" font-size="11.00">pgcn_id</text>
<polygon fill="#ffffff" stroke="none" points="311.75,-363.5 311.75,-385.5 498.75,-385.5 498.75,-363.5 311.75,-363.5"/>
<polygon fill="none" stroke="black" points="311.75,-363.5 311.75,-385.5 498.75,-385.5 498.75,-363.5 311.75,-363.5"/>
<image xlink:href="../../images/foreignKeys.png" width="11px" height="12px" preserveAspectRatio="xMinYMin meet" x="316.75" y="-380.5"/>
<text text-anchor="start" x="331.75" y="-370.05" font-family="Helvetica,sans-Serif" font-size="11.00">library</text>
<polygon fill="#ffffff" stroke="none" points="311.75,-341.5 311.75,-363.5 498.75,-363.5 498.75,-341.5 311.75,-341.5"/>
<polygon fill="none" stroke="black" points="311.75,-341.5 311.75,-363.5 498.75,-363.5 498.75,-341.5 311.75,-341.5"/>
<image xlink:href="../../images/foreignKeys.png" width="11px" height="12px" preserveAspectRatio="xMinYMin meet" x="316.75" y="-358.5"/>
<text text-anchor="start" x="331.75" y="-348.05" font-family="Helvetica,sans-Serif" font-size="11.00">project</text>
<polygon fill="#ffffff" stroke="none" points="311.75,-319.5 311.75,-341.5 498.75,-341.5 498.75,-319.5 311.75,-319.5"/>
<polygon fill="none" stroke="black" points="311.75,-319.5 311.75,-341.5 498.75,-341.5 498.75,-319.5 311.75,-319.5"/>
<text text-anchor="start" x="331.75" y="-326.05" font-family="Helvetica,sans-Serif" font-size="11.00">state</text>
<polygon fill="#ffffff" stroke="none" points="311.75,-297.5 311.75,-319.5 498.75,-319.5 498.75,-297.5 311.75,-297.5"/>
<polygon fill="none" stroke="black" points="311.75,-297.5 311.75,-319.5 498.75,-319.5 498.75,-297.5 311.75,-297.5"/>
<image xlink:href="../../images/foreignKeys.png" width="11px" height="12px" preserveAspectRatio="xMinYMin meet" x="316.75" y="-314.5"/>
<text text-anchor="start" x="331.75" y="-304.05" font-family="Helvetica,sans-Serif" font-size="11.00">lot</text>
<polygon fill="#ffffff" stroke="none" points="311.75,-275.5 311.75,-297.5 498.75,-297.5 498.75,-275.5 311.75,-275.5"/>
<polygon fill="none" stroke="black" points="311.75,-275.5 311.75,-297.5 498.75,-297.5 498.75,-275.5 311.75,-275.5"/>
<image xlink:href="../../images/foreignKeys.png" width="11px" height="12px" preserveAspectRatio="xMinYMin meet" x="316.75" y="-292.5"/>
<text text-anchor="start" x="331.75" y="-282.05" font-family="Helvetica,sans-Serif" font-size="11.00">collection_omeka</text>
<polygon fill="#ffffff" stroke="none" points="311.75,-253.5 311.75,-275.5 498.75,-275.5 498.75,-253.5 311.75,-253.5"/>
<polygon fill="none" stroke="black" points="311.75,-253.5 311.75,-275.5 498.75,-275.5 498.75,-253.5 311.75,-253.5"/>
<image xlink:href="../../images/foreignKeys.png" width="11px" height="12px" preserveAspectRatio="xMinYMin meet" x="316.75" y="-270.5"/>
<text text-anchor="start" x="331.75" y="-260.05" font-family="Helvetica,sans-Serif" font-size="11.00">items_omeka</text>
<polygon fill="#ffffff" stroke="none" points="311.75,-231.5 311.75,-253.5 498.75,-253.5 498.75,-231.5 311.75,-231.5"/>
<polygon fill="none" stroke="black" points="311.75,-231.5 311.75,-253.5 498.75,-253.5 498.75,-231.5 311.75,-231.5"/>
<image xlink:href="../../images/foreignKeys.png" width="11px" height="12px" preserveAspectRatio="xMinYMin meet" x="316.75" y="-248.5"/>
<text text-anchor="start" x="331.75" y="-238.05" font-family="Helvetica,sans-Serif" font-size="11.00">parent</text>
<polygon fill="#ffffff" stroke="none" points="311.75,-209.5 311.75,-231.5 498.75,-231.5 498.75,-209.5 311.75,-209.5"/>
<polygon fill="none" stroke="black" points="311.75,-209.5 311.75,-231.5 498.75,-231.5 498.75,-209.5 311.75,-209.5"/>
<image xlink:href="../../images/foreignKeys.png" width="11px" height="12px" preserveAspectRatio="xMinYMin meet" x="316.75" y="-226.5"/>
<text text-anchor="start" x="331.75" y="-216.05" font-family="Helvetica,sans-Serif" font-size="11.00">active_ocr_lang</text>
<polygon fill="#ffffff" stroke="none" points="311.75,-187.5 311.75,-209.5 498.75,-209.5 498.75,-187.5 311.75,-187.5"/>
<polygon fill="none" stroke="black" points="311.75,-187.5 311.75,-209.5 498.75,-209.5 498.75,-187.5 311.75,-187.5"/>
<image xlink:href="../../images/foreignKeys.png" width="11px" height="12px" preserveAspectRatio="xMinYMin meet" x="316.75" y="-204.5"/>
<text text-anchor="start" x="331.75" y="-194.05" font-family="Helvetica,sans-Serif" font-size="11.00">collection_ia</text>
<polygon fill="#ffffff" stroke="none" points="311.75,-165.5 311.75,-187.5 498.75,-187.5 498.75,-165.5 311.75,-165.5"/>
<polygon fill="none" stroke="black" points="311.75,-165.5 311.75,-187.5 498.75,-187.5 498.75,-165.5 311.75,-165.5"/>
<image xlink:href="../../images/foreignKeys.png" width="11px" height="12px" preserveAspectRatio="xMinYMin meet" x="316.75" y="-182.5"/>
<text text-anchor="start" x="331.75" y="-172.05" font-family="Helvetica,sans-Serif" font-size="11.00">classement_pac</text>
<polygon fill="#ffffff" stroke="none" points="311.75,-143.5 311.75,-165.5 498.75,-165.5 498.75,-143.5 311.75,-143.5"/>
<polygon fill="none" stroke="black" points="311.75,-143.5 311.75,-165.5 498.75,-165.5 498.75,-143.5 311.75,-143.5"/>
<image xlink:href="../../images/foreignKeys.png" width="11px" height="12px" preserveAspectRatio="xMinYMin meet" x="316.75" y="-160.5"/>
<text text-anchor="start" x="331.75" y="-150.05" font-family="Helvetica,sans-Serif" font-size="11.00">sibling</text>
<polygon fill="#ffffff" stroke="none" points="311.75,-121.5 311.75,-143.5 498.75,-143.5 498.75,-121.5 311.75,-121.5"/>
<polygon fill="none" stroke="black" points="311.75,-121.5 311.75,-143.5 498.75,-143.5 498.75,-121.5 311.75,-121.5"/>
<image xlink:href="../../images/foreignKeys.png" width="11px" height="12px" preserveAspectRatio="xMinYMin meet" x="316.75" y="-138.5"/>
<text text-anchor="start" x="331.75" y="-128.05" font-family="Helvetica,sans-Serif" font-size="11.00">export_data</text>
<polygon fill="#ffffff" stroke="none" points="311.75,-99.5 311.75,-121.5 498.75,-121.5 498.75,-99.5 311.75,-99.5"/>
<polygon fill="none" stroke="black" points="311.75,-99.5 311.75,-121.5 498.75,-121.5 498.75,-99.5 311.75,-99.5"/>
<image xlink:href="../../images/foreignKeys.png" width="11px" height="12px" preserveAspectRatio="xMinYMin meet" x="316.75" y="-116.5"/>
<text text-anchor="start" x="331.75" y="-106.05" font-family="Helvetica,sans-Serif" font-size="11.00">archive_item</text>
<polygon fill="#ffffff" stroke="none" points="311.75,-77.5 311.75,-99.5 498.75,-99.5 498.75,-77.5 311.75,-77.5"/>
<polygon fill="none" stroke="black" points="311.75,-77.5 311.75,-99.5 498.75,-99.5 498.75,-77.5 311.75,-77.5"/>
<image xlink:href="../../images/foreignKeys.png" width="11px" height="12px" preserveAspectRatio="xMinYMin meet" x="316.75" y="-94.5"/>
<text text-anchor="start" x="331.75" y="-84.05" font-family="Helvetica,sans-Serif" font-size="11.00">workflow</text>
<polygon fill="none" stroke="black" points="311.75,-58 311.75,-77.5 498.75,-77.5 498.75,-58 311.75,-58"/>
<text text-anchor="start" x="314.75" y="-64.05" font-family="Helvetica,sans-Serif" font-size="11.00">...</text>
<polygon fill="#ffffff" stroke="none" points="311.75,-38.5 311.75,-58 380.33,-58 380.33,-38.5 311.75,-38.5"/>
<polygon fill="none" stroke="black" points="311.75,-38.5 311.75,-58 380.33,-58 380.33,-38.5 311.75,-38.5"/>
<text text-anchor="start" x="314.75" y="-44.55" font-family="Helvetica,sans-Serif" font-size="11.00">&lt; 13</text>
<polygon fill="#ffffff" stroke="none" points="380.33,-38.5 380.33,-58 430.17,-58 430.17,-38.5 380.33,-38.5"/>
<polygon fill="none" stroke="black" points="380.33,-38.5 380.33,-58 430.17,-58 430.17,-38.5 380.33,-38.5"/>
<text text-anchor="start" x="419.67" y="-44.55" font-family="Helvetica,sans-Serif" font-size="11.00"> &#160;</text>
<polygon fill="#ffffff" stroke="none" points="430.17,-38.5 430.17,-58 498.75,-58 498.75,-38.5 430.17,-38.5"/>
<polygon fill="none" stroke="black" points="430.17,-38.5 430.17,-58 498.75,-58 498.75,-38.5 430.17,-38.5"/>
<text text-anchor="start" x="469.5" y="-44.55" font-family="Helvetica,sans-Serif" font-size="11.00">11 &gt;</text>
</a>
</g>
</g>
<!-- doc_unit&#45;&gt;doc_export_data -->
<g id="edge2" class="edge">
<title>doc_unit:w&#45;&gt;doc_export_data:e</title>
<path fill="none" stroke="black" d="M295.4,-134.98C235.64,-157.7 338.99,-328.75 254.25,-328.75"/>
<polygon fill="black" stroke="black" points="302.52,-133.83 310.99,-136.11 306.8,-133.14 310.09,-132.61 310.09,-132.61 310.09,-132.61 306.8,-133.14 309.85,-129 302.52,-133.83"/>
<ellipse fill="none" stroke="black" cx="297.67" cy="-134.61" rx="3.2" ry="3.2"/>
</g>
</g>
</svg>
