<?xml version="1.0" encoding="UTF-8" standalone="no"?>
<!DOCTYPE svg PUBLIC "-//W3C//DTD SVG 1.1//EN"
 "http://www.w3.org/Graphics/SVG/1.1/DTD/svg11.dtd">
<!-- Generated by graphviz version 12.2.0 (0)
 -->
<!-- Title: twoDegreesRelationshipsDiagram Pages: 1 -->
<svg width="1325pt" height="753pt"
 viewBox="0.00 0.00 1324.75 752.89" xmlns="http://www.w3.org/2000/svg" xmlns:xlink="http://www.w3.org/1999/xlink">
<g id="graph0" class="graph" transform="scale(1 1) rotate(0) translate(4 748.89)">
<title>twoDegreesRelationshipsDiagram</title>
<polygon fill="#ffffff" stroke="none" points="-4,4 -4,-748.89 1320.75,-748.89 1320.75,4 -4,4"/>
<text text-anchor="middle" x="79.25" y="-7.05" font-family="Helvetica,sans-Serif" font-size="11.00">Generated by SchemaSpy</text>
<!-- check_automatic_result -->
<g id="node1" class="node">
<title>check_automatic_result</title>
<g id="a_node1"><a xlink:href="../../tables/check_automatic_result.html" xlink:title="check_automatic_result" target="_top">
<polygon fill="#ffffff" stroke="none" points="1104,-333.5 1104,-396 1308.75,-396 1308.75,-333.5 1104,-333.5"/>
<polygon fill="#f5f5f5" stroke="none" points="1104,-372.5 1104,-396 1308.75,-396 1308.75,-372.5 1104,-372.5"/>
<polygon fill="none" stroke="black" points="1104,-372.5 1104,-396 1308.75,-396 1308.75,-372.5 1104,-372.5"/>
<text text-anchor="start" x="1109" y="-381.55" font-family="Helvetica,sans-Serif" font-weight="bold" font-size="11.00">check_automatic_result</text>
<text text-anchor="start" x="1267" y="-380.55" font-family="Helvetica,sans-Serif" font-size="11.00">[table]</text>
<polygon fill="none" stroke="black" points="1104,-353 1104,-372.5 1308.75,-372.5 1308.75,-353 1104,-353"/>
<text text-anchor="start" x="1107" y="-359.05" font-family="Helvetica,sans-Serif" font-size="11.00">...</text>
<polygon fill="#ffffff" stroke="none" points="1104,-333.5 1104,-353 1180.25,-353 1180.25,-333.5 1104,-333.5"/>
<polygon fill="none" stroke="black" points="1104,-333.5 1104,-353 1180.25,-353 1180.25,-333.5 1104,-333.5"/>
<text text-anchor="start" x="1107" y="-339.55" font-family="Helvetica,sans-Serif" font-size="11.00">&lt; 6</text>
<polygon fill="#ffffff" stroke="none" points="1180.25,-333.5 1180.25,-353 1244.5,-353 1244.5,-333.5 1180.25,-333.5"/>
<polygon fill="none" stroke="black" points="1180.25,-333.5 1180.25,-353 1244.5,-353 1244.5,-333.5 1180.25,-333.5"/>
<text text-anchor="start" x="1234" y="-339.55" font-family="Helvetica,sans-Serif" font-size="11.00"> &#160;</text>
<polygon fill="#ffffff" stroke="none" points="1244.5,-333.5 1244.5,-353 1308.75,-353 1308.75,-333.5 1244.5,-333.5"/>
<polygon fill="none" stroke="black" points="1244.5,-333.5 1244.5,-353 1308.75,-353 1308.75,-333.5 1244.5,-333.5"/>
<text text-anchor="start" x="1298.25" y="-339.55" font-family="Helvetica,sans-Serif" font-size="11.00"> &#160;</text>
</a>
</g>
</g>
<!-- del_delivery -->
<g id="node2" class="node">
<title>del_delivery</title>
<g id="a_node2"><a xlink:href="../../tables/del_delivery.html" xlink:title="del_delivery" target="_top">
<polygon fill="#ffffff" stroke="none" points="394.5,-219.5 394.5,-348 592.5,-348 592.5,-219.5 394.5,-219.5"/>
<polygon fill="#f5f5f5" stroke="none" points="394.5,-324.5 394.5,-348 592.5,-348 592.5,-324.5 394.5,-324.5"/>
<polygon fill="none" stroke="black" points="394.5,-324.5 394.5,-348 592.5,-348 592.5,-324.5 394.5,-324.5"/>
<text text-anchor="start" x="399.5" y="-333.55" font-family="Helvetica,sans-Serif" font-weight="bold" font-size="11.00">del_delivery</text>
<text text-anchor="start" x="550.75" y="-332.55" font-family="Helvetica,sans-Serif" font-size="11.00">[table]</text>
<polygon fill="none" stroke="black" points="394.5,-302.5 394.5,-324.5 592.5,-324.5 592.5,-302.5 394.5,-302.5"/>
<image xlink:href="../../images/primaryKeys.png" width="11px" height="12px" preserveAspectRatio="xMinYMin meet" x="399.5" y="-319.5"/>
<text text-anchor="start" x="414.5" y="-309.05" font-family="Helvetica,sans-Serif" font-size="11.00">identifier</text>
<polygon fill="#ffffff" stroke="none" points="394.5,-280.5 394.5,-302.5 592.5,-302.5 592.5,-280.5 394.5,-280.5"/>
<polygon fill="none" stroke="black" points="394.5,-280.5 394.5,-302.5 592.5,-302.5 592.5,-280.5 394.5,-280.5"/>
<image xlink:href="../../images/foreignKeys.png" width="11px" height="12px" preserveAspectRatio="xMinYMin meet" x="399.5" y="-297.5"/>
<text text-anchor="start" x="414.5" y="-287.05" font-family="Helvetica,sans-Serif" font-size="11.00">lot_identifier</text>
<polygon fill="#ffffff" stroke="none" points="394.5,-258.5 394.5,-280.5 592.5,-280.5 592.5,-258.5 394.5,-258.5"/>
<polygon fill="none" stroke="black" points="394.5,-258.5 394.5,-280.5 592.5,-280.5 592.5,-258.5 394.5,-258.5"/>
<image xlink:href="../../images/foreignKeys.png" width="11px" height="12px" preserveAspectRatio="xMinYMin meet" x="399.5" y="-275.5"/>
<text text-anchor="start" x="414.5" y="-265.05" font-family="Helvetica,sans-Serif" font-size="11.00">multi_lots_delivery</text>
<polygon fill="none" stroke="black" points="394.5,-239 394.5,-258.5 592.5,-258.5 592.5,-239 394.5,-239"/>
<text text-anchor="start" x="397.5" y="-245.05" font-family="Helvetica,sans-Serif" font-size="11.00">...</text>
<polygon fill="#ffffff" stroke="none" points="394.5,-219.5 394.5,-239 464.5,-239 464.5,-219.5 394.5,-219.5"/>
<polygon fill="none" stroke="black" points="394.5,-219.5 394.5,-239 464.5,-239 464.5,-219.5 394.5,-219.5"/>
<text text-anchor="start" x="397.5" y="-225.55" font-family="Helvetica,sans-Serif" font-size="11.00">&lt; 2</text>
<polygon fill="#ffffff" stroke="none" points="464.5,-219.5 464.5,-239 522.5,-239 522.5,-219.5 464.5,-219.5"/>
<polygon fill="none" stroke="black" points="464.5,-219.5 464.5,-239 522.5,-239 522.5,-219.5 464.5,-219.5"/>
<text text-anchor="start" x="512" y="-225.55" font-family="Helvetica,sans-Serif" font-size="11.00"> &#160;</text>
<polygon fill="#ffffff" stroke="none" points="522.5,-219.5 522.5,-239 592.5,-239 592.5,-219.5 522.5,-219.5"/>
<polygon fill="none" stroke="black" points="522.5,-219.5 522.5,-239 592.5,-239 592.5,-219.5 522.5,-219.5"/>
<text text-anchor="start" x="570" y="-225.55" font-family="Helvetica,sans-Serif" font-size="11.00">4 &gt;</text>
</a>
</g>
</g>
<!-- check_automatic_result&#45;&gt;del_delivery -->
<g id="edge1" class="edge">
<title>check_automatic_result:w&#45;&gt;del_delivery:e</title>
<path fill="none" stroke="black" d="M1087.28,-362.05C998.25,-353.81 997.82,-273.51 937.25,-194.75 919.64,-171.85 929.33,-153.08 904.25,-138.75 852.01,-108.9 680.55,-101.25 633.5,-138.75 571.19,-188.41 673.18,-313.5 593.5,-313.5"/>
<polygon fill="black" stroke="black" points="1094.67,-362.38 1102.51,-366.33 1099,-362.57 1102.33,-362.72 1102.33,-362.72 1102.33,-362.72 1099,-362.57 1102.82,-359.14 1094.67,-362.38"/>
<ellipse fill="none" stroke="black" cx="1089.76" cy="-362.16" rx="3.2" ry="3.2"/>
</g>
<!-- doc_digital_document -->
<g id="node3" class="node">
<title>doc_digital_document</title>
<g id="a_node3"><a xlink:href="../../tables/doc_digital_document.html" xlink:title="doc_digital_document" target="_top">
<polygon fill="#ffffff" stroke="none" points="397.12,-483.5 397.12,-546 589.88,-546 589.88,-483.5 397.12,-483.5"/>
<polygon fill="#f5f5f5" stroke="none" points="397.12,-522.5 397.12,-546 589.88,-546 589.88,-522.5 397.12,-522.5"/>
<polygon fill="none" stroke="black" points="397.12,-522.5 397.12,-546 589.88,-546 589.88,-522.5 397.12,-522.5"/>
<text text-anchor="start" x="402.12" y="-531.55" font-family="Helvetica,sans-Serif" font-weight="bold" font-size="11.00">doc_digital_document</text>
<text text-anchor="start" x="548.12" y="-530.55" font-family="Helvetica,sans-Serif" font-size="11.00">[table]</text>
<polygon fill="none" stroke="black" points="397.12,-503 397.12,-522.5 589.88,-522.5 589.88,-503 397.12,-503"/>
<text text-anchor="start" x="400.12" y="-509.05" font-family="Helvetica,sans-Serif" font-size="11.00">...</text>
<polygon fill="#ffffff" stroke="none" points="397.12,-483.5 397.12,-503 465.38,-503 465.38,-483.5 397.12,-483.5"/>
<polygon fill="none" stroke="black" points="397.12,-483.5 397.12,-503 465.38,-503 465.38,-483.5 397.12,-483.5"/>
<text text-anchor="start" x="400.12" y="-489.55" font-family="Helvetica,sans-Serif" font-size="11.00">&lt; 1</text>
<polygon fill="#ffffff" stroke="none" points="465.38,-483.5 465.38,-503 521.62,-503 521.62,-483.5 465.38,-483.5"/>
<polygon fill="none" stroke="black" points="465.38,-483.5 465.38,-503 521.62,-503 521.62,-483.5 465.38,-483.5"/>
<text text-anchor="start" x="511.12" y="-489.55" font-family="Helvetica,sans-Serif" font-size="11.00"> &#160;</text>
<polygon fill="#ffffff" stroke="none" points="521.62,-483.5 521.62,-503 589.88,-503 589.88,-483.5 521.62,-483.5"/>
<polygon fill="none" stroke="black" points="521.62,-483.5 521.62,-503 589.88,-503 589.88,-483.5 521.62,-483.5"/>
<text text-anchor="start" x="567.38" y="-489.55" font-family="Helvetica,sans-Serif" font-size="11.00">6 &gt;</text>
</a>
</g>
</g>
<!-- check_automatic_result&#45;&gt;doc_digital_document -->
<g id="edge2" class="edge">
<title>check_automatic_result:w&#45;&gt;doc_digital_document:e</title>
<path fill="none" stroke="black" d="M1087.45,-363.57C994.14,-373.8 1003.42,-477.34 904.25,-510.75 804.13,-544.47 682.29,-540.42 597.62,-531.07"/>
<polygon fill="black" stroke="black" points="1094.68,-363.19 1102.85,-366.36 1099.01,-362.96 1102.33,-362.79 1102.33,-362.79 1102.33,-362.79 1099.01,-362.96 1102.48,-359.17 1094.68,-363.19"/>
<ellipse fill="none" stroke="black" cx="1089.77" cy="-363.44" rx="3.2" ry="3.2"/>
</g>
<!-- doc_unit -->
<g id="node4" class="node">
<title>doc_unit</title>
<g id="a_node4"><a xlink:href="../../tables/doc_unit.html" xlink:title="doc_unit" target="_top">
<polygon fill="#ffffff" stroke="none" points="194.25,-485.5 194.25,-548 297,-548 297,-485.5 194.25,-485.5"/>
<polygon fill="#f5f5f5" stroke="none" points="194.25,-524.5 194.25,-548 297,-548 297,-524.5 194.25,-524.5"/>
<polygon fill="none" stroke="black" points="194.25,-524.5 194.25,-548 297,-548 297,-524.5 194.25,-524.5"/>
<text text-anchor="start" x="199.25" y="-533.55" font-family="Helvetica,sans-Serif" font-weight="bold" font-size="11.00">doc_unit</text>
<text text-anchor="start" x="255.25" y="-532.55" font-family="Helvetica,sans-Serif" font-size="11.00">[table]</text>
<polygon fill="none" stroke="black" points="194.25,-505 194.25,-524.5 297,-524.5 297,-505 194.25,-505"/>
<text text-anchor="start" x="197.25" y="-511.05" font-family="Helvetica,sans-Serif" font-size="11.00">...</text>
<polygon fill="#ffffff" stroke="none" points="194.25,-485.5 194.25,-505 234.75,-505 234.75,-485.5 194.25,-485.5"/>
<polygon fill="none" stroke="black" points="194.25,-485.5 194.25,-505 234.75,-505 234.75,-485.5 194.25,-485.5"/>
<text text-anchor="start" x="197.25" y="-491.55" font-family="Helvetica,sans-Serif" font-size="11.00">&lt; 13</text>
<polygon fill="#ffffff" stroke="none" points="234.75,-485.5 234.75,-505 256.5,-505 256.5,-485.5 234.75,-485.5"/>
<polygon fill="none" stroke="black" points="234.75,-485.5 234.75,-505 256.5,-505 256.5,-485.5 234.75,-485.5"/>
<text text-anchor="start" x="246" y="-491.55" font-family="Helvetica,sans-Serif" font-size="11.00"> &#160;</text>
<polygon fill="#ffffff" stroke="none" points="256.5,-485.5 256.5,-505 297,-505 297,-485.5 256.5,-485.5"/>
<polygon fill="none" stroke="black" points="256.5,-485.5 256.5,-505 297,-505 297,-485.5 256.5,-485.5"/>
<text text-anchor="start" x="267.75" y="-491.55" font-family="Helvetica,sans-Serif" font-size="11.00">11 &gt;</text>
</a>
</g>
</g>
<!-- check_automatic_result&#45;&gt;doc_unit -->
<g id="edge3" class="edge">
<title>check_automatic_result:w&#45;&gt;doc_unit:e</title>
<path fill="none" stroke="black" d="M1087.6,-366.26C1068.74,-377.42 1078.75,-413.04 1063,-441.75 996.42,-563.13 1024.53,-641.2 904.25,-709.75 799.7,-769.33 749.69,-741.06 633.5,-709.75 591.87,-698.53 341.12,-514.75 298,-514.75"/>
<polygon fill="black" stroke="black" points="1094.87,-364.6 1103.47,-366.33 1099.1,-363.64 1102.35,-362.9 1102.35,-362.9 1102.35,-362.9 1099.1,-363.64 1101.87,-359.31 1094.87,-364.6"/>
<ellipse fill="none" stroke="black" cx="1090.08" cy="-365.69" rx="3.2" ry="3.2"/>
</g>
<!-- doc_page -->
<g id="node5" class="node">
<title>doc_page</title>
<g id="a_node5"><a xlink:href="../../tables/doc_page.html" xlink:title="doc_page" target="_top">
<polygon fill="#ffffff" stroke="none" points="945.25,-121.5 945.25,-184 1055,-184 1055,-121.5 945.25,-121.5"/>
<polygon fill="#f5f5f5" stroke="none" points="945.25,-160.5 945.25,-184 1055,-184 1055,-160.5 945.25,-160.5"/>
<polygon fill="none" stroke="black" points="945.25,-160.5 945.25,-184 1055,-184 1055,-160.5 945.25,-160.5"/>
<text text-anchor="start" x="950.25" y="-169.55" font-family="Helvetica,sans-Serif" font-weight="bold" font-size="11.00">doc_page</text>
<text text-anchor="start" x="1013.25" y="-168.55" font-family="Helvetica,sans-Serif" font-size="11.00">[table]</text>
<polygon fill="none" stroke="black" points="945.25,-141 945.25,-160.5 1055,-160.5 1055,-141 945.25,-141"/>
<text text-anchor="start" x="948.25" y="-147.05" font-family="Helvetica,sans-Serif" font-size="11.00">...</text>
<polygon fill="#ffffff" stroke="none" points="945.25,-121.5 945.25,-141 985.83,-141 985.83,-121.5 945.25,-121.5"/>
<polygon fill="none" stroke="black" points="945.25,-121.5 945.25,-141 985.83,-141 985.83,-121.5 945.25,-121.5"/>
<text text-anchor="start" x="948.25" y="-127.55" font-family="Helvetica,sans-Serif" font-size="11.00">&lt; 2</text>
<polygon fill="#ffffff" stroke="none" points="985.83,-121.5 985.83,-141 1014.42,-141 1014.42,-121.5 985.83,-121.5"/>
<polygon fill="none" stroke="black" points="985.83,-121.5 985.83,-141 1014.42,-141 1014.42,-121.5 985.83,-121.5"/>
<text text-anchor="start" x="1003.92" y="-127.55" font-family="Helvetica,sans-Serif" font-size="11.00"> &#160;</text>
<polygon fill="#ffffff" stroke="none" points="1014.42,-121.5 1014.42,-141 1055,-141 1055,-121.5 1014.42,-121.5"/>
<polygon fill="none" stroke="black" points="1014.42,-121.5 1014.42,-141 1055,-141 1055,-121.5 1014.42,-121.5"/>
<text text-anchor="start" x="1032.5" y="-127.55" font-family="Helvetica,sans-Serif" font-size="11.00">3 &gt;</text>
</a>
</g>
</g>
<!-- check_automatic_result&#45;&gt;doc_page -->
<g id="edge4" class="edge">
<title>check_automatic_result:w&#45;&gt;doc_page:e</title>
<path fill="none" stroke="black" d="M1087.37,-360.76C1039.44,-346.23 1101.53,-255.31 1063,-197.75 1060.64,-194.22 1057.9,-190.87 1054.91,-187.7"/>
<polygon fill="black" stroke="black" points="1094.73,-361.7 1102.21,-366.28 1099.03,-362.25 1102.34,-362.67 1102.34,-362.67 1102.34,-362.67 1099.03,-362.25 1103.12,-359.14 1094.73,-361.7"/>
<ellipse fill="none" stroke="black" cx="1089.85" cy="-361.08" rx="3.2" ry="3.2"/>
</g>
<!-- lot_lot -->
<g id="node7" class="node">
<title>lot_lot</title>
<g id="a_node7"><a xlink:href="../../tables/lot_lot.html" xlink:title="lot_lot" target="_top">
<polygon fill="#ffffff" stroke="none" points="8,-428.5 8,-491 96.75,-491 96.75,-428.5 8,-428.5"/>
<polygon fill="#f5f5f5" stroke="none" points="8,-467.5 8,-491 96.75,-491 96.75,-467.5 8,-467.5"/>
<polygon fill="none" stroke="black" points="8,-467.5 8,-491 96.75,-491 96.75,-467.5 8,-467.5"/>
<text text-anchor="start" x="12.88" y="-476.55" font-family="Helvetica,sans-Serif" font-weight="bold" font-size="11.00">lot_lot</text>
<text text-anchor="start" x="55" y="-475.55" font-family="Helvetica,sans-Serif" font-size="11.00">[table]</text>
<polygon fill="none" stroke="black" points="8,-448 8,-467.5 96.75,-467.5 96.75,-448 8,-448"/>
<text text-anchor="start" x="11" y="-454.05" font-family="Helvetica,sans-Serif" font-size="11.00">...</text>
<polygon fill="#ffffff" stroke="none" points="8,-428.5 8,-448 46.08,-448 46.08,-428.5 8,-428.5"/>
<polygon fill="none" stroke="black" points="8,-428.5 8,-448 46.08,-448 46.08,-428.5 8,-428.5"/>
<text text-anchor="start" x="11" y="-434.55" font-family="Helvetica,sans-Serif" font-size="11.00">&lt; 14</text>
<polygon fill="#ffffff" stroke="none" points="46.08,-428.5 46.08,-448 65.42,-448 65.42,-428.5 46.08,-428.5"/>
<polygon fill="none" stroke="black" points="46.08,-428.5 46.08,-448 65.42,-448 65.42,-428.5 46.08,-428.5"/>
<text text-anchor="start" x="54.92" y="-434.55" font-family="Helvetica,sans-Serif" font-size="11.00"> &#160;</text>
<polygon fill="#ffffff" stroke="none" points="65.42,-428.5 65.42,-448 96.75,-448 96.75,-428.5 65.42,-428.5"/>
<polygon fill="none" stroke="black" points="65.42,-428.5 65.42,-448 96.75,-448 96.75,-428.5 65.42,-428.5"/>
<text text-anchor="start" x="74.25" y="-434.55" font-family="Helvetica,sans-Serif" font-size="11.00">4 &gt;</text>
</a>
</g>
</g>
<!-- del_delivery&#45;&gt;lot_lot -->
<g id="edge7" class="edge">
<title>del_delivery:w&#45;&gt;lot_lot:e</title>
<path fill="none" stroke="black" d="M379.73,-299.08C321.54,-331.6 98.78,-457.75 97.75,-457.75"/>
<polygon fill="black" stroke="black" points="386.2,-295.52 394.94,-294.82 390,-293.43 392.91,-291.82 392.91,-291.82 392.91,-291.82 390,-293.43 391.47,-288.51 386.2,-295.52"/>
<ellipse fill="none" stroke="black" cx="381.89" cy="-297.89" rx="3.2" ry="3.2"/>
</g>
<!-- del_multi_lots_delivery -->
<g id="node8" class="node">
<title>del_multi_lots_delivery</title>
<g id="a_node8"><a xlink:href="../../tables/del_multi_lots_delivery.html" xlink:title="del_multi_lots_delivery" target="_top">
<polygon fill="#ffffff" stroke="none" points="145.75,-240.5 145.75,-303 345.5,-303 345.5,-240.5 145.75,-240.5"/>
<polygon fill="#f5f5f5" stroke="none" points="145.75,-279.5 145.75,-303 345.5,-303 345.5,-279.5 145.75,-279.5"/>
<polygon fill="none" stroke="black" points="145.75,-279.5 145.75,-303 345.5,-303 345.5,-279.5 145.75,-279.5"/>
<text text-anchor="start" x="150.75" y="-288.55" font-family="Helvetica,sans-Serif" font-weight="bold" font-size="11.00">del_multi_lots_delivery</text>
<text text-anchor="start" x="303.75" y="-287.55" font-family="Helvetica,sans-Serif" font-size="11.00">[table]</text>
<polygon fill="none" stroke="black" points="145.75,-260 145.75,-279.5 345.5,-279.5 345.5,-260 145.75,-260"/>
<text text-anchor="start" x="148.75" y="-266.05" font-family="Helvetica,sans-Serif" font-size="11.00">...</text>
<polygon fill="#ffffff" stroke="none" points="145.75,-240.5 145.75,-260 208.33,-260 208.33,-240.5 145.75,-240.5"/>
<polygon fill="none" stroke="black" points="145.75,-240.5 145.75,-260 208.33,-260 208.33,-240.5 145.75,-240.5"/>
<text text-anchor="start" x="148.75" y="-246.55" font-family="Helvetica,sans-Serif" font-size="11.00"> &#160;</text>
<polygon fill="#ffffff" stroke="none" points="208.33,-240.5 208.33,-260 270.92,-260 270.92,-240.5 208.33,-240.5"/>
<polygon fill="none" stroke="black" points="208.33,-240.5 208.33,-260 270.92,-260 270.92,-240.5 208.33,-240.5"/>
<text text-anchor="start" x="260.42" y="-246.55" font-family="Helvetica,sans-Serif" font-size="11.00"> &#160;</text>
<polygon fill="#ffffff" stroke="none" points="270.92,-240.5 270.92,-260 345.5,-260 345.5,-240.5 270.92,-240.5"/>
<polygon fill="none" stroke="black" points="270.92,-240.5 270.92,-260 345.5,-260 345.5,-240.5 270.92,-240.5"/>
<text text-anchor="start" x="323" y="-246.55" font-family="Helvetica,sans-Serif" font-size="11.00">1 &gt;</text>
</a>
</g>
</g>
<!-- del_delivery&#45;&gt;del_multi_lots_delivery -->
<g id="edge8" class="edge">
<title>del_delivery:w&#45;&gt;del_multi_lots_delivery:e</title>
<path fill="none" stroke="black" d="M377.88,-269.56C367.97,-269.63 361.02,-269.75 346.5,-269.75"/>
<polygon fill="black" stroke="black" points="385.17,-269.53 393.18,-273.1 389.5,-269.51 392.83,-269.5 392.83,-269.5 392.83,-269.5 389.5,-269.51 393.15,-265.9 385.17,-269.53"/>
<ellipse fill="none" stroke="black" cx="380.25" cy="-269.55" rx="3.2" ry="3.2"/>
</g>
<!-- doc_digital_document&#45;&gt;doc_unit -->
<g id="edge11" class="edge">
<title>doc_digital_document:w&#45;&gt;doc_unit:e</title>
<path fill="none" stroke="black" d="M373.52,-514.75C348.57,-514.75 322.42,-514.75 298,-514.75"/>
<polygon fill="black" stroke="black" points="380.95,-514.75 388.95,-518.35 385.29,-514.75 388.62,-514.75 388.62,-514.75 388.62,-514.75 385.29,-514.75 388.95,-511.15 380.95,-514.75"/>
<ellipse fill="none" stroke="black" cx="376.04" cy="-514.75" rx="3.2" ry="3.2"/>
</g>
<!-- doc_unit&#45;&gt;lot_lot -->
<g id="edge18" class="edge">
<title>doc_unit:w&#45;&gt;lot_lot:e</title>
<path fill="none" stroke="black" d="M177.88,-512.59C143.88,-502.17 141.39,-457.75 97.75,-457.75"/>
<polygon fill="black" stroke="black" points="185,-513.59 192.42,-518.27 189.29,-514.19 192.59,-514.66 192.59,-514.66 192.59,-514.66 189.29,-514.19 193.42,-511.14 185,-513.59"/>
<ellipse fill="none" stroke="black" cx="180.13" cy="-512.9" rx="3.2" ry="3.2"/>
</g>
<!-- doc_page&#45;&gt;doc_digital_document -->
<g id="edge13" class="edge">
<title>doc_page:w&#45;&gt;doc_digital_document:e</title>
<path fill="none" stroke="black" d="M992.01,-203.48C979.02,-288.23 948.61,-452.91 904.25,-488.75 880.93,-507.59 711.27,-512.9 597.7,-514.32"/>
<polygon fill="black" stroke="black" points="993.11,-196.14 997.86,-188.76 993.75,-191.85 994.25,-188.56 994.25,-188.56 994.25,-188.56 993.75,-191.85 990.74,-187.69 993.11,-196.14"/>
<ellipse fill="none" stroke="black" cx="992.38" cy="-201" rx="3.2" ry="3.2"/>
</g>
<!-- doc_sample -->
<g id="node12" class="node">
<title>doc_sample</title>
<g id="a_node12"><a xlink:href="../../tables/doc_sample.html" xlink:title="doc_sample" target="_top">
<polygon fill="#ffffff" stroke="none" points="649,-149.25 649,-394.25 888.75,-394.25 888.75,-149.25 649,-149.25"/>
<polygon fill="#f5f5f5" stroke="none" points="651,-368.75 651,-392.25 886.75,-392.25 886.75,-368.75 651,-368.75"/>
<polygon fill="none" stroke="black" points="651,-368.75 651,-392.25 886.75,-392.25 886.75,-368.75 651,-368.75"/>
<text text-anchor="start" x="656" y="-377.8" font-family="Helvetica,sans-Serif" font-weight="bold" font-size="11.00">doc_sample</text>
<text text-anchor="start" x="845" y="-376.8" font-family="Helvetica,sans-Serif" font-size="11.00">[table]</text>
<polygon fill="none" stroke="black" points="651,-346.75 651,-368.75 799,-368.75 799,-346.75 651,-346.75"/>
<image xlink:href="../../images/primaryKeys.png" width="11px" height="12px" preserveAspectRatio="xMinYMin meet" x="656" y="-363.75"/>
<text text-anchor="start" x="671" y="-353.3" font-family="Helvetica,sans-Serif" font-size="11.00">identifier</text>
<polygon fill="none" stroke="black" points="799,-346.75 799,-368.75 886.75,-368.75 886.75,-346.75 799,-346.75"/>
<text text-anchor="start" x="802" y="-354.05" font-family="Helvetica,sans-Serif" font-size="11.00">varchar[191]</text>
<polygon fill="none" stroke="black" points="651,-324.75 651,-346.75 799,-346.75 799,-324.75 651,-324.75"/>
<text text-anchor="start" x="671" y="-331.3" font-family="Helvetica,sans-Serif" font-size="11.00">sampling_mode</text>
<polygon fill="none" stroke="black" points="799,-324.75 799,-346.75 886.75,-346.75 886.75,-324.75 799,-324.75"/>
<text text-anchor="start" x="802" y="-332.05" font-family="Helvetica,sans-Serif" font-size="11.00">varchar[255]</text>
<polygon fill="#ffffff" stroke="none" points="651,-302.75 651,-324.75 799,-324.75 799,-302.75 651,-302.75"/>
<polygon fill="none" stroke="black" points="651,-302.75 651,-324.75 799,-324.75 799,-302.75 651,-302.75"/>
<image xlink:href="../../images/foreignKeys.png" width="11px" height="12px" preserveAspectRatio="xMinYMin meet" x="656" y="-319.75"/>
<text text-anchor="start" x="671" y="-309.3" font-family="Helvetica,sans-Serif" font-size="11.00">delivery</text>
<polygon fill="none" stroke="black" points="799,-302.75 799,-324.75 886.75,-324.75 886.75,-302.75 799,-302.75"/>
<text text-anchor="start" x="802" y="-310.05" font-family="Helvetica,sans-Serif" font-size="11.00">varchar[191]</text>
<polygon fill="#ffffff" stroke="none" points="651,-280.75 651,-302.75 799,-302.75 799,-280.75 651,-280.75"/>
<polygon fill="none" stroke="black" points="651,-280.75 651,-302.75 799,-302.75 799,-280.75 651,-280.75"/>
<image xlink:href="../../images/foreignKeys.png" width="11px" height="12px" preserveAspectRatio="xMinYMin meet" x="656" y="-297.75"/>
<text text-anchor="start" x="671" y="-287.3" font-family="Helvetica,sans-Serif" font-size="11.00">digital_document</text>
<polygon fill="none" stroke="black" points="799,-280.75 799,-302.75 886.75,-302.75 886.75,-280.75 799,-280.75"/>
<text text-anchor="start" x="802" y="-288.05" font-family="Helvetica,sans-Serif" font-size="11.00">varchar[191]</text>
<polygon fill="none" stroke="black" points="651,-258.75 651,-280.75 799,-280.75 799,-258.75 651,-258.75"/>
<text text-anchor="start" x="671" y="-265.3" font-family="Helvetica,sans-Serif" font-size="11.00">version</text>
<polygon fill="none" stroke="black" points="799,-258.75 799,-280.75 886.75,-280.75 886.75,-258.75 799,-258.75"/>
<text text-anchor="start" x="802" y="-266.05" font-family="Helvetica,sans-Serif" font-size="11.00">bigint[19]</text>
<polygon fill="none" stroke="black" points="651,-236.75 651,-258.75 799,-258.75 799,-236.75 651,-236.75"/>
<text text-anchor="start" x="671" y="-243.3" font-family="Helvetica,sans-Serif" font-size="11.00">created_by</text>
<polygon fill="none" stroke="black" points="799,-236.75 799,-258.75 886.75,-258.75 886.75,-236.75 799,-236.75"/>
<text text-anchor="start" x="802" y="-244.05" font-family="Helvetica,sans-Serif" font-size="11.00">varchar[191]</text>
<polygon fill="none" stroke="black" points="651,-214.75 651,-236.75 799,-236.75 799,-214.75 651,-214.75"/>
<text text-anchor="start" x="671" y="-221.3" font-family="Helvetica,sans-Serif" font-size="11.00">last_modified_by</text>
<polygon fill="none" stroke="black" points="799,-214.75 799,-236.75 886.75,-236.75 886.75,-214.75 799,-214.75"/>
<text text-anchor="start" x="802" y="-222.05" font-family="Helvetica,sans-Serif" font-size="11.00">varchar[191]</text>
<polygon fill="none" stroke="black" points="651,-192.75 651,-214.75 799,-214.75 799,-192.75 651,-192.75"/>
<text text-anchor="start" x="671" y="-199.3" font-family="Helvetica,sans-Serif" font-size="11.00">created_date</text>
<polygon fill="none" stroke="black" points="799,-192.75 799,-214.75 886.75,-214.75 886.75,-192.75 799,-192.75"/>
<text text-anchor="start" x="802" y="-200.05" font-family="Helvetica,sans-Serif" font-size="11.00">timestamp[19]</text>
<polygon fill="none" stroke="black" points="651,-170.75 651,-192.75 799,-192.75 799,-170.75 651,-170.75"/>
<text text-anchor="start" x="671" y="-177.3" font-family="Helvetica,sans-Serif" font-size="11.00">last_modified_date</text>
<polygon fill="none" stroke="black" points="799,-170.75 799,-192.75 886.75,-192.75 886.75,-170.75 799,-170.75"/>
<text text-anchor="start" x="802" y="-178.05" font-family="Helvetica,sans-Serif" font-size="11.00">timestamp[19]</text>
<polygon fill="#ffffff" stroke="none" points="651,-151.25 651,-170.75 731,-170.75 731,-151.25 651,-151.25"/>
<polygon fill="none" stroke="black" points="651,-151.25 651,-170.75 731,-170.75 731,-151.25 651,-151.25"/>
<text text-anchor="start" x="654" y="-157.3" font-family="Helvetica,sans-Serif" font-size="11.00">&lt; 2</text>
<polygon fill="#ffffff" stroke="none" points="731,-151.25 731,-170.75 799,-170.75 799,-151.25 731,-151.25"/>
<polygon fill="none" stroke="black" points="731,-151.25 731,-170.75 799,-170.75 799,-151.25 731,-151.25"/>
<text text-anchor="start" x="788.5" y="-157.3" font-family="Helvetica,sans-Serif" font-size="11.00"> &#160;</text>
<polygon fill="#ffffff" stroke="none" points="799,-151.25 799,-170.75 886.75,-170.75 886.75,-151.25 799,-151.25"/>
<polygon fill="none" stroke="black" points="799,-151.25 799,-170.75 886.75,-170.75 886.75,-151.25 799,-151.25"/>
<text text-anchor="start" x="864.25" y="-157.3" font-family="Helvetica,sans-Serif" font-size="11.00">1 &gt;</text>
<polygon fill="none" stroke="black" stroke-width="2" points="650,-150.25 650,-393.25 887.75,-393.25 887.75,-150.25 650,-150.25"/>
</a>
</g>
</g>
<!-- doc_page&#45;&gt;doc_sample -->
<g id="edge14" class="edge">
<title>doc_page:w&#45;&gt;doc_sample:e</title>
<path fill="none" stroke="black" d="M993.7,-203.39C984.06,-264.09 957.84,-357.75 887.75,-357.75"/>
<polygon fill="black" stroke="black" points="994.72,-196.24 999.42,-188.83 995.34,-191.95 995.81,-188.65 995.81,-188.65 995.81,-188.65 995.34,-191.95 992.29,-187.81 994.72,-196.24"/>
<ellipse fill="none" stroke="black" cx="994.02" cy="-201.11" rx="3.2" ry="3.2"/>
</g>
<!-- del_delivered_document -->
<g id="node6" class="node">
<title>del_delivered_document</title>
<g id="a_node6"><a xlink:href="../../tables/del_delivered_document.html" xlink:title="del_delivered_document" target="_top">
<polygon fill="#ffffff" stroke="none" points="664,-415.5 664,-478 873.75,-478 873.75,-415.5 664,-415.5"/>
<polygon fill="#f5f5f5" stroke="none" points="664,-454.5 664,-478 873.75,-478 873.75,-454.5 664,-454.5"/>
<polygon fill="none" stroke="black" points="664,-454.5 664,-478 873.75,-478 873.75,-454.5 664,-454.5"/>
<text text-anchor="start" x="669" y="-463.55" font-family="Helvetica,sans-Serif" font-weight="bold" font-size="11.00">del_delivered_document</text>
<text text-anchor="start" x="832" y="-462.55" font-family="Helvetica,sans-Serif" font-size="11.00">[table]</text>
<polygon fill="none" stroke="black" points="664,-435 664,-454.5 873.75,-454.5 873.75,-435 664,-435"/>
<text text-anchor="start" x="667" y="-441.05" font-family="Helvetica,sans-Serif" font-size="11.00">...</text>
<polygon fill="#ffffff" stroke="none" points="664,-415.5 664,-435 741.92,-435 741.92,-415.5 664,-415.5"/>
<polygon fill="none" stroke="black" points="664,-415.5 664,-435 741.92,-435 741.92,-415.5 664,-415.5"/>
<text text-anchor="start" x="667" y="-421.55" font-family="Helvetica,sans-Serif" font-size="11.00">&lt; 3</text>
<polygon fill="#ffffff" stroke="none" points="741.92,-415.5 741.92,-435 807.83,-435 807.83,-415.5 741.92,-415.5"/>
<polygon fill="none" stroke="black" points="741.92,-415.5 741.92,-435 807.83,-435 807.83,-415.5 741.92,-415.5"/>
<text text-anchor="start" x="797.33" y="-421.55" font-family="Helvetica,sans-Serif" font-size="11.00"> &#160;</text>
<polygon fill="#ffffff" stroke="none" points="807.83,-415.5 807.83,-435 873.75,-435 873.75,-415.5 807.83,-415.5"/>
<polygon fill="none" stroke="black" points="807.83,-415.5 807.83,-435 873.75,-435 873.75,-415.5 807.83,-415.5"/>
<text text-anchor="start" x="863.25" y="-421.55" font-family="Helvetica,sans-Serif" font-size="11.00"> &#160;</text>
</a>
</g>
</g>
<!-- del_delivered_document&#45;&gt;del_delivery -->
<g id="edge5" class="edge">
<title>del_delivered_document:w&#45;&gt;del_delivery:e</title>
<path fill="none" stroke="black" d="M647.61,-441.51C607.58,-421.29 653.32,-313.5 593.5,-313.5"/>
<polygon fill="black" stroke="black" points="654.84,-443.03 661.93,-448.2 659.09,-443.92 662.35,-444.61 662.35,-444.61 662.35,-444.61 659.09,-443.92 663.42,-441.16 654.84,-443.03"/>
<ellipse fill="none" stroke="black" cx="650.03" cy="-442.02" rx="3.2" ry="3.2"/>
</g>
<!-- del_delivered_document&#45;&gt;doc_digital_document -->
<g id="edge6" class="edge">
<title>del_delivered_document:w&#45;&gt;doc_digital_document:e</title>
<path fill="none" stroke="black" d="M647.33,-445.58C611.96,-449.23 576.54,-464.36 548.72,-479.54"/>
<polygon fill="black" stroke="black" points="654.68,-445.19 662.86,-448.36 659.01,-444.96 662.33,-444.79 662.33,-444.79 662.33,-444.79 659.01,-444.96 662.48,-441.17 654.68,-445.19"/>
<ellipse fill="none" stroke="black" cx="649.77" cy="-445.45" rx="3.2" ry="3.2"/>
</g>
<!-- del_slip -->
<g id="node9" class="node">
<title>del_slip</title>
<g id="a_node9"><a xlink:href="../../tables/del_slip.html" xlink:title="del_slip" target="_top">
<polygon fill="#ffffff" stroke="none" points="720.5,-38.5 720.5,-101 817.25,-101 817.25,-38.5 720.5,-38.5"/>
<polygon fill="#f5f5f5" stroke="none" points="720.5,-77.5 720.5,-101 817.25,-101 817.25,-77.5 720.5,-77.5"/>
<polygon fill="none" stroke="black" points="720.5,-77.5 720.5,-101 817.25,-101 817.25,-77.5 720.5,-77.5"/>
<text text-anchor="start" x="725.5" y="-86.55" font-family="Helvetica,sans-Serif" font-weight="bold" font-size="11.00">del_slip</text>
<text text-anchor="start" x="775.5" y="-85.55" font-family="Helvetica,sans-Serif" font-size="11.00">[table]</text>
<polygon fill="none" stroke="black" points="720.5,-58 720.5,-77.5 817.25,-77.5 817.25,-58 720.5,-58"/>
<text text-anchor="start" x="723.5" y="-64.05" font-family="Helvetica,sans-Serif" font-size="11.00">...</text>
<polygon fill="#ffffff" stroke="none" points="720.5,-38.5 720.5,-58 756.75,-58 756.75,-38.5 720.5,-38.5"/>
<polygon fill="none" stroke="black" points="720.5,-38.5 720.5,-58 756.75,-58 756.75,-38.5 720.5,-38.5"/>
<text text-anchor="start" x="723.5" y="-44.55" font-family="Helvetica,sans-Serif" font-size="11.00">&lt; 1</text>
<polygon fill="#ffffff" stroke="none" points="756.75,-38.5 756.75,-58 781,-58 781,-38.5 756.75,-38.5"/>
<polygon fill="none" stroke="black" points="756.75,-38.5 756.75,-58 781,-58 781,-38.5 756.75,-38.5"/>
<text text-anchor="start" x="770.5" y="-44.55" font-family="Helvetica,sans-Serif" font-size="11.00"> &#160;</text>
<polygon fill="#ffffff" stroke="none" points="781,-38.5 781,-58 817.25,-58 817.25,-38.5 781,-38.5"/>
<polygon fill="none" stroke="black" points="781,-38.5 781,-58 817.25,-58 817.25,-38.5 781,-38.5"/>
<text text-anchor="start" x="794.75" y="-44.55" font-family="Helvetica,sans-Serif" font-size="11.00">1 &gt;</text>
</a>
</g>
</g>
<!-- del_slip&#45;&gt;del_delivery -->
<g id="edge9" class="edge">
<title>del_slip:w&#45;&gt;del_delivery:e</title>
<path fill="none" stroke="black" d="M703.92,-68.37C671.5,-71.21 656,-84.19 633.5,-114.75 580.08,-187.31 683.6,-313.5 593.5,-313.5"/>
<polygon fill="black" stroke="black" points="711.17,-68.08 719.31,-71.36 715.5,-67.91 718.83,-67.78 718.83,-67.78 718.83,-67.78 715.5,-67.91 719.02,-64.17 711.17,-68.08"/>
<ellipse fill="none" stroke="black" cx="706.26" cy="-68.28" rx="3.2" ry="3.2"/>
</g>
<!-- doc_check -->
<g id="node10" class="node">
<title>doc_check</title>
<g id="a_node10"><a xlink:href="../../tables/doc_check.html" xlink:title="doc_check" target="_top">
<polygon fill="#ffffff" stroke="none" points="1149,-81.5 1149,-144 1263.75,-144 1263.75,-81.5 1149,-81.5"/>
<polygon fill="#f5f5f5" stroke="none" points="1149,-120.5 1149,-144 1263.75,-144 1263.75,-120.5 1149,-120.5"/>
<polygon fill="none" stroke="black" points="1149,-120.5 1149,-144 1263.75,-144 1263.75,-120.5 1149,-120.5"/>
<text text-anchor="start" x="1154" y="-129.55" font-family="Helvetica,sans-Serif" font-weight="bold" font-size="11.00">doc_check</text>
<text text-anchor="start" x="1222" y="-128.55" font-family="Helvetica,sans-Serif" font-size="11.00">[table]</text>
<polygon fill="none" stroke="black" points="1149,-101 1149,-120.5 1263.75,-120.5 1263.75,-101 1149,-101"/>
<text text-anchor="start" x="1152" y="-107.05" font-family="Helvetica,sans-Serif" font-size="11.00">...</text>
<polygon fill="#ffffff" stroke="none" points="1149,-81.5 1149,-101 1195.25,-101 1195.25,-81.5 1149,-81.5"/>
<polygon fill="none" stroke="black" points="1149,-81.5 1149,-101 1195.25,-101 1195.25,-81.5 1149,-81.5"/>
<text text-anchor="start" x="1152" y="-87.55" font-family="Helvetica,sans-Serif" font-size="11.00">&lt; 1</text>
<polygon fill="#ffffff" stroke="none" points="1195.25,-81.5 1195.25,-101 1229.5,-101 1229.5,-81.5 1195.25,-81.5"/>
<polygon fill="none" stroke="black" points="1195.25,-81.5 1195.25,-101 1229.5,-101 1229.5,-81.5 1195.25,-81.5"/>
<text text-anchor="start" x="1219" y="-87.55" font-family="Helvetica,sans-Serif" font-size="11.00"> &#160;</text>
<polygon fill="#ffffff" stroke="none" points="1229.5,-81.5 1229.5,-101 1263.75,-101 1263.75,-81.5 1229.5,-81.5"/>
<polygon fill="none" stroke="black" points="1229.5,-81.5 1229.5,-101 1263.75,-101 1263.75,-81.5 1229.5,-81.5"/>
<text text-anchor="start" x="1253.25" y="-87.55" font-family="Helvetica,sans-Serif" font-size="11.00"> &#160;</text>
</a>
</g>
</g>
<!-- doc_check&#45;&gt;doc_page -->
<g id="edge10" class="edge">
<title>doc_check:w&#45;&gt;doc_page:e</title>
<path fill="none" stroke="black" d="M1132.41,-111.44C1108.51,-113.47 1084.1,-119.78 1062.91,-126.87"/>
<polygon fill="black" stroke="black" points="1139.67,-111.12 1147.82,-114.36 1144,-110.93 1147.33,-110.78 1147.33,-110.78 1147.33,-110.78 1144,-110.93 1147.51,-107.17 1139.67,-111.12"/>
<ellipse fill="none" stroke="black" cx="1134.76" cy="-111.33" rx="3.2" ry="3.2"/>
</g>
<!-- doc_global_check -->
<g id="node11" class="node">
<title>doc_global_check</title>
<g id="a_node11"><a xlink:href="../../tables/doc_global_check.html" xlink:title="doc_global_check" target="_top">
<polygon fill="#ffffff" stroke="none" points="687.5,-636.5 687.5,-699 850.25,-699 850.25,-636.5 687.5,-636.5"/>
<polygon fill="#f5f5f5" stroke="none" points="687.5,-675.5 687.5,-699 850.25,-699 850.25,-675.5 687.5,-675.5"/>
<polygon fill="none" stroke="black" points="687.5,-675.5 687.5,-699 850.25,-699 850.25,-675.5 687.5,-675.5"/>
<text text-anchor="start" x="692.5" y="-684.55" font-family="Helvetica,sans-Serif" font-weight="bold" font-size="11.00">doc_global_check</text>
<text text-anchor="start" x="808.5" y="-683.55" font-family="Helvetica,sans-Serif" font-size="11.00">[table]</text>
<polygon fill="none" stroke="black" points="687.5,-656 687.5,-675.5 850.25,-675.5 850.25,-656 687.5,-656"/>
<text text-anchor="start" x="690.5" y="-662.05" font-family="Helvetica,sans-Serif" font-size="11.00">...</text>
<polygon fill="#ffffff" stroke="none" points="687.5,-636.5 687.5,-656 749.75,-656 749.75,-636.5 687.5,-636.5"/>
<polygon fill="none" stroke="black" points="687.5,-636.5 687.5,-656 749.75,-656 749.75,-636.5 687.5,-636.5"/>
<text text-anchor="start" x="690.5" y="-642.55" font-family="Helvetica,sans-Serif" font-size="11.00">&lt; 1</text>
<polygon fill="#ffffff" stroke="none" points="749.75,-636.5 749.75,-656 800,-656 800,-636.5 749.75,-636.5"/>
<polygon fill="none" stroke="black" points="749.75,-636.5 749.75,-656 800,-656 800,-636.5 749.75,-636.5"/>
<text text-anchor="start" x="789.5" y="-642.55" font-family="Helvetica,sans-Serif" font-size="11.00"> &#160;</text>
<polygon fill="#ffffff" stroke="none" points="800,-636.5 800,-656 850.25,-656 850.25,-636.5 800,-636.5"/>
<polygon fill="none" stroke="black" points="800,-636.5 800,-656 850.25,-656 850.25,-636.5 800,-636.5"/>
<text text-anchor="start" x="839.75" y="-642.55" font-family="Helvetica,sans-Serif" font-size="11.00"> &#160;</text>
</a>
</g>
</g>
<!-- doc_global_check&#45;&gt;doc_digital_document -->
<g id="edge12" class="edge">
<title>doc_global_check:w&#45;&gt;doc_digital_document:e</title>
<path fill="none" stroke="black" d="M670.94,-664.73C603.19,-655.85 546.86,-591.24 517.17,-549.77"/>
<polygon fill="black" stroke="black" points="678.18,-665.2 685.93,-669.32 682.51,-665.49 685.83,-665.71 685.83,-665.71 685.83,-665.71 682.51,-665.49 686.4,-662.14 678.18,-665.2"/>
<ellipse fill="none" stroke="black" cx="673.28" cy="-664.88" rx="3.2" ry="3.2"/>
</g>
<!-- doc_sample&#45;&gt;del_delivery -->
<g id="edge16" class="edge">
<title>doc_sample:w&#45;&gt;del_delivery:e</title>
<path fill="none" stroke="black" d="M634.53,-313.71C620.74,-313.64 612.53,-313.5 593.5,-313.5"/>
<polygon fill="black" stroke="black" points="641.67,-313.73 649.66,-317.35 646,-313.74 649.33,-313.75 649.33,-313.75 649.33,-313.75 646,-313.74 649.67,-310.15 641.67,-313.73"/>
<ellipse fill="none" stroke="black" cx="636.75" cy="-313.72" rx="3.2" ry="3.2"/>
</g>
<!-- doc_sample&#45;&gt;doc_digital_document -->
<g id="edge17" class="edge">
<title>doc_sample:w&#45;&gt;doc_digital_document:e</title>
<path fill="none" stroke="black" d="M640.46,-303.74C616.42,-336.58 553.08,-428.95 518.27,-479.91"/>
<polygon fill="black" stroke="black" points="644.81,-298.27 652.61,-294.25 647.51,-294.88 649.58,-292.27 649.58,-292.27 649.58,-292.27 647.51,-294.88 646.97,-289.77 644.81,-298.27"/>
<ellipse fill="none" stroke="black" cx="641.75" cy="-302.12" rx="3.2" ry="3.2"/>
</g>
<!-- doc_physical_document_digital -->
<g id="node13" class="node">
<title>doc_physical_document_digital</title>
<g id="a_node13"><a xlink:href="../../tables/doc_physical_document_digital.html" xlink:title="doc_physical_document_digital" target="_top">
<polygon fill="#ffffff" stroke="none" points="641.5,-552.5 641.5,-615 896.25,-615 896.25,-552.5 641.5,-552.5"/>
<polygon fill="#f5f5f5" stroke="none" points="641.5,-591.5 641.5,-615 896.25,-615 896.25,-591.5 641.5,-591.5"/>
<polygon fill="none" stroke="black" points="641.5,-591.5 641.5,-615 896.25,-615 896.25,-591.5 641.5,-591.5"/>
<text text-anchor="start" x="646.5" y="-600.55" font-family="Helvetica,sans-Serif" font-weight="bold" font-size="11.00">doc_physical_document_digital</text>
<text text-anchor="start" x="854.5" y="-599.55" font-family="Helvetica,sans-Serif" font-size="11.00">[table]</text>
<polygon fill="none" stroke="black" points="641.5,-572 641.5,-591.5 896.25,-591.5 896.25,-572 641.5,-572"/>
<text text-anchor="start" x="644.5" y="-578.05" font-family="Helvetica,sans-Serif" font-size="11.00">...</text>
<polygon fill="#ffffff" stroke="none" points="641.5,-552.5 641.5,-572 734.42,-572 734.42,-552.5 641.5,-552.5"/>
<polygon fill="none" stroke="black" points="641.5,-552.5 641.5,-572 734.42,-572 734.42,-552.5 641.5,-552.5"/>
<text text-anchor="start" x="644.5" y="-558.55" font-family="Helvetica,sans-Serif" font-size="11.00">&lt; 2</text>
<polygon fill="#ffffff" stroke="none" points="734.42,-552.5 734.42,-572 815.33,-572 815.33,-552.5 734.42,-552.5"/>
<polygon fill="none" stroke="black" points="734.42,-552.5 734.42,-572 815.33,-572 815.33,-552.5 734.42,-552.5"/>
<text text-anchor="start" x="804.83" y="-558.55" font-family="Helvetica,sans-Serif" font-size="11.00"> &#160;</text>
<polygon fill="#ffffff" stroke="none" points="815.33,-552.5 815.33,-572 896.25,-572 896.25,-552.5 815.33,-552.5"/>
<polygon fill="none" stroke="black" points="815.33,-552.5 815.33,-572 896.25,-572 896.25,-552.5 815.33,-552.5"/>
<text text-anchor="start" x="885.75" y="-558.55" font-family="Helvetica,sans-Serif" font-size="11.00"> &#160;</text>
</a>
</g>
</g>
<!-- doc_physical_document_digital&#45;&gt;doc_digital_document -->
<g id="edge15" class="edge">
<title>doc_physical_document_digital:w&#45;&gt;doc_digital_document:e</title>
<path fill="none" stroke="black" d="M625.08,-580.76C595.61,-577.07 566.54,-563.62 543.34,-549.82"/>
<polygon fill="black" stroke="black" points="632.18,-581.22 639.94,-585.32 636.51,-581.49 639.83,-581.71 639.83,-581.71 639.83,-581.71 636.51,-581.49 640.4,-578.14 632.18,-581.22"/>
<ellipse fill="none" stroke="black" cx="627.27" cy="-580.9" rx="3.2" ry="3.2"/>
</g>
<!-- sto_stored_file -->
<g id="node14" class="node">
<title>sto_stored_file</title>
<g id="a_node14"><a xlink:href="../../tables/sto_stored_file.html" xlink:title="sto_stored_file" target="_top">
<polygon fill="#ffffff" stroke="none" points="1134,-165.5 1134,-228 1278.75,-228 1278.75,-165.5 1134,-165.5"/>
<polygon fill="#f5f5f5" stroke="none" points="1134,-204.5 1134,-228 1278.75,-228 1278.75,-204.5 1134,-204.5"/>
<polygon fill="none" stroke="black" points="1134,-204.5 1134,-228 1278.75,-228 1278.75,-204.5 1134,-204.5"/>
<text text-anchor="start" x="1139" y="-213.55" font-family="Helvetica,sans-Serif" font-weight="bold" font-size="11.00">sto_stored_file</text>
<text text-anchor="start" x="1237" y="-212.55" font-family="Helvetica,sans-Serif" font-size="11.00">[table]</text>
<polygon fill="none" stroke="black" points="1134,-185 1134,-204.5 1278.75,-204.5 1278.75,-185 1134,-185"/>
<text text-anchor="start" x="1137" y="-191.05" font-family="Helvetica,sans-Serif" font-size="11.00">...</text>
<polygon fill="#ffffff" stroke="none" points="1134,-165.5 1134,-185 1190.25,-185 1190.25,-165.5 1134,-165.5"/>
<polygon fill="none" stroke="black" points="1134,-165.5 1134,-185 1190.25,-185 1190.25,-165.5 1134,-165.5"/>
<text text-anchor="start" x="1137" y="-171.55" font-family="Helvetica,sans-Serif" font-size="11.00">&lt; 2</text>
<polygon fill="#ffffff" stroke="none" points="1190.25,-165.5 1190.25,-185 1234.5,-185 1234.5,-165.5 1190.25,-165.5"/>
<polygon fill="none" stroke="black" points="1190.25,-165.5 1190.25,-185 1234.5,-185 1234.5,-165.5 1190.25,-165.5"/>
<text text-anchor="start" x="1224" y="-171.55" font-family="Helvetica,sans-Serif" font-size="11.00"> &#160;</text>
<polygon fill="#ffffff" stroke="none" points="1234.5,-165.5 1234.5,-185 1278.75,-185 1278.75,-165.5 1234.5,-165.5"/>
<polygon fill="none" stroke="black" points="1234.5,-165.5 1234.5,-185 1278.75,-185 1278.75,-165.5 1234.5,-165.5"/>
<text text-anchor="start" x="1268.25" y="-171.55" font-family="Helvetica,sans-Serif" font-size="11.00"> &#160;</text>
</a>
</g>
</g>
<!-- sto_stored_file&#45;&gt;doc_page -->
<g id="edge19" class="edge">
<title>sto_stored_file:w&#45;&gt;doc_page:e</title>
<path fill="none" stroke="black" d="M1117.41,-193.92C1098.73,-191.99 1079.86,-186.93 1062.91,-181"/>
<polygon fill="black" stroke="black" points="1124.68,-194.3 1132.47,-198.33 1129.01,-194.54 1132.33,-194.71 1132.33,-194.71 1132.33,-194.71 1129.01,-194.54 1132.86,-191.14 1124.68,-194.3"/>
<ellipse fill="none" stroke="black" cx="1119.77" cy="-194.04" rx="3.2" ry="3.2"/>
</g>
</g>
</svg>
