<?xml version="1.0" encoding="UTF-8" standalone="no"?>
<!DOCTYPE svg PUBLIC "-//W3C//DTD SVG 1.1//EN"
 "http://www.w3.org/Graphics/SVG/1.1/DTD/svg11.dtd">
<!-- Generated by graphviz version 12.2.0 (0)
 -->
<!-- Title: twoDegreesRelationshipsDiagram Pages: 1 -->
<svg width="530pt" height="688pt"
 viewBox="0.00 0.00 530.00 688.00" xmlns="http://www.w3.org/2000/svg" xmlns:xlink="http://www.w3.org/1999/xlink">
<g id="graph0" class="graph" transform="scale(1 1) rotate(0) translate(4 684)">
<title>twoDegreesRelationshipsDiagram</title>
<polygon fill="#ffffff" stroke="none" points="-4,4 -4,-684 526,-684 526,4 -4,4"/>
<text text-anchor="middle" x="79.25" y="-7.05" font-family="Helvetica,sans-Serif" font-size="11.00">Generated by SchemaSpy</text>
<!-- doc_export_property -->
<g id="node1" class="node">
<title>doc_export_property</title>
<g id="a_node1"><a xlink:href="../../tables/doc_export_property.html" xlink:title="doc_export_property" target="_top">
<polygon fill="#ffffff" stroke="none" points="323.75,-547.5 323.75,-676 509.5,-676 509.5,-547.5 323.75,-547.5"/>
<polygon fill="#f5f5f5" stroke="none" points="323.75,-652.5 323.75,-676 509.5,-676 509.5,-652.5 323.75,-652.5"/>
<polygon fill="none" stroke="black" points="323.75,-652.5 323.75,-676 509.5,-676 509.5,-652.5 323.75,-652.5"/>
<text text-anchor="start" x="328.75" y="-661.55" font-family="Helvetica,sans-Serif" font-weight="bold" font-size="11.00">doc_export_property</text>
<text text-anchor="start" x="467.75" y="-660.55" font-family="Helvetica,sans-Serif" font-size="11.00">[table]</text>
<polygon fill="none" stroke="black" points="323.75,-630.5 323.75,-652.5 509.5,-652.5 509.5,-630.5 323.75,-630.5"/>
<image xlink:href="../../images/primaryKeys.png" width="11px" height="12px" preserveAspectRatio="xMinYMin meet" x="328.75" y="-647.5"/>
<text text-anchor="start" x="356.62" y="-637.05" font-family="Helvetica,sans-Serif" font-size="11.00">identifier</text>
<polygon fill="#ffffff" stroke="none" points="323.75,-608.5 323.75,-630.5 509.5,-630.5 509.5,-608.5 323.75,-608.5"/>
<polygon fill="none" stroke="black" points="323.75,-608.5 323.75,-630.5 509.5,-630.5 509.5,-608.5 323.75,-608.5"/>
<image xlink:href="../../images/foreignKeys.png" width="11px" height="12px" preserveAspectRatio="xMinYMin meet" x="328.75" y="-625.5"/>
<text text-anchor="start" x="356.62" y="-615.05" font-family="Helvetica,sans-Serif" font-size="11.00">type</text>
<polygon fill="#ffffff" stroke="none" points="323.75,-586.5 323.75,-608.5 509.5,-608.5 509.5,-586.5 323.75,-586.5"/>
<polygon fill="none" stroke="black" points="323.75,-586.5 323.75,-608.5 509.5,-608.5 509.5,-586.5 323.75,-586.5"/>
<image xlink:href="../../images/foreignKeys.png" width="11px" height="12px" preserveAspectRatio="xMinYMin meet" x="328.75" y="-603.5"/>
<text text-anchor="start" x="356.62" y="-593.05" font-family="Helvetica,sans-Serif" font-size="11.00">record</text>
<polygon fill="none" stroke="black" points="323.75,-567 323.75,-586.5 509.5,-586.5 509.5,-567 323.75,-567"/>
<text text-anchor="start" x="326.75" y="-573.05" font-family="Helvetica,sans-Serif" font-size="11.00">...</text>
<polygon fill="#ffffff" stroke="none" points="323.75,-547.5 323.75,-567 393.67,-567 393.67,-547.5 323.75,-547.5"/>
<polygon fill="none" stroke="black" points="323.75,-547.5 323.75,-567 393.67,-567 393.67,-547.5 323.75,-547.5"/>
<text text-anchor="start" x="326.75" y="-553.55" font-family="Helvetica,sans-Serif" font-size="11.00">&lt; 2</text>
<polygon fill="#ffffff" stroke="none" points="393.67,-547.5 393.67,-567 451.58,-567 451.58,-547.5 393.67,-547.5"/>
<polygon fill="none" stroke="black" points="393.67,-547.5 393.67,-567 451.58,-567 451.58,-547.5 393.67,-547.5"/>
<text text-anchor="start" x="441.08" y="-553.55" font-family="Helvetica,sans-Serif" font-size="11.00"> &#160;</text>
<polygon fill="#ffffff" stroke="none" points="451.58,-547.5 451.58,-567 509.5,-567 509.5,-547.5 451.58,-547.5"/>
<polygon fill="none" stroke="black" points="451.58,-547.5 451.58,-567 509.5,-567 509.5,-547.5 451.58,-547.5"/>
<text text-anchor="start" x="499" y="-553.55" font-family="Helvetica,sans-Serif" font-size="11.00"> &#160;</text>
</a>
</g>
</g>
<!-- doc_export_data -->
<g id="node2" class="node">
<title>doc_export_data</title>
<g id="a_node2"><a xlink:href="../../tables/doc_export_data.html" xlink:title="doc_export_data" target="_top">
<polygon fill="#ffffff" stroke="none" points="60.75,-572.5 60.75,-635 217.5,-635 217.5,-572.5 60.75,-572.5"/>
<polygon fill="#f5f5f5" stroke="none" points="60.75,-611.5 60.75,-635 217.5,-635 217.5,-611.5 60.75,-611.5"/>
<polygon fill="none" stroke="black" points="60.75,-611.5 60.75,-635 217.5,-635 217.5,-611.5 60.75,-611.5"/>
<text text-anchor="start" x="65.75" y="-620.55" font-family="Helvetica,sans-Serif" font-weight="bold" font-size="11.00">doc_export_data</text>
<text text-anchor="start" x="175.75" y="-619.55" font-family="Helvetica,sans-Serif" font-size="11.00">[table]</text>
<polygon fill="none" stroke="black" points="60.75,-592 60.75,-611.5 217.5,-611.5 217.5,-592 60.75,-592"/>
<text text-anchor="start" x="63.75" y="-598.05" font-family="Helvetica,sans-Serif" font-size="11.00">...</text>
<polygon fill="#ffffff" stroke="none" points="60.75,-572.5 60.75,-592 109,-592 109,-572.5 60.75,-572.5"/>
<polygon fill="none" stroke="black" points="60.75,-572.5 60.75,-592 109,-592 109,-572.5 60.75,-572.5"/>
<text text-anchor="start" x="63.75" y="-578.55" font-family="Helvetica,sans-Serif" font-size="11.00"> &#160;</text>
<polygon fill="#ffffff" stroke="none" points="109,-572.5 109,-592 157.25,-592 157.25,-572.5 109,-572.5"/>
<polygon fill="none" stroke="black" points="109,-572.5 109,-592 157.25,-592 157.25,-572.5 109,-572.5"/>
<text text-anchor="start" x="146.75" y="-578.55" font-family="Helvetica,sans-Serif" font-size="11.00"> &#160;</text>
<polygon fill="#ffffff" stroke="none" points="157.25,-572.5 157.25,-592 217.5,-592 217.5,-572.5 157.25,-572.5"/>
<polygon fill="none" stroke="black" points="157.25,-572.5 157.25,-592 217.5,-592 217.5,-572.5 157.25,-572.5"/>
<text text-anchor="start" x="195" y="-578.55" font-family="Helvetica,sans-Serif" font-size="11.00">2 &gt;</text>
</a>
</g>
</g>
<!-- doc_export_property&#45;&gt;doc_export_data -->
<g id="edge1" class="edge">
<title>doc_export_property:w&#45;&gt;doc_export_data:e</title>
<path fill="none" stroke="black" d="M307.31,-597.67C273.08,-598.47 259.26,-601.75 218.5,-601.75"/>
<polygon fill="black" stroke="black" points="314.42,-597.59 322.46,-601.1 318.75,-597.54 322.08,-597.51 322.08,-597.51 322.08,-597.51 318.75,-597.54 322.38,-593.9 314.42,-597.59"/>
<ellipse fill="none" stroke="black" cx="309.5" cy="-597.65" rx="3.2" ry="3.2"/>
</g>
<!-- doc_property_type -->
<g id="node3" class="node">
<title>doc_property_type</title>
<g id="a_node3"><a xlink:href="../../tables/doc_property_type.html" xlink:title="doc_property_type" target="_top">
<polygon fill="#ffffff" stroke="none" points="8,-306.25 8,-551.25 270.25,-551.25 270.25,-306.25 8,-306.25"/>
<polygon fill="#f5f5f5" stroke="none" points="10,-525.75 10,-549.25 268.25,-549.25 268.25,-525.75 10,-525.75"/>
<polygon fill="none" stroke="black" points="10,-525.75 10,-549.25 268.25,-549.25 268.25,-525.75 10,-525.75"/>
<text text-anchor="start" x="15" y="-534.8" font-family="Helvetica,sans-Serif" font-weight="bold" font-size="11.00">doc_property_type</text>
<text text-anchor="start" x="226.5" y="-533.8" font-family="Helvetica,sans-Serif" font-size="11.00">[table]</text>
<polygon fill="none" stroke="black" points="10,-503.75 10,-525.75 158,-525.75 158,-503.75 10,-503.75"/>
<image xlink:href="../../images/primaryKeys.png" width="11px" height="12px" preserveAspectRatio="xMinYMin meet" x="15" y="-520.75"/>
<text text-anchor="start" x="30" y="-510.3" font-family="Helvetica,sans-Serif" font-size="11.00">identifier</text>
<polygon fill="none" stroke="black" points="158,-503.75 158,-525.75 257,-525.75 257,-503.75 158,-503.75"/>
<text text-anchor="start" x="161" y="-511.05" font-family="Helvetica,sans-Serif" font-size="11.00">varchar[191]</text>
<polygon fill="none" stroke="black" points="10,-481.75 10,-503.75 158,-503.75 158,-481.75 10,-481.75"/>
<text text-anchor="start" x="30" y="-488.3" font-family="Helvetica,sans-Serif" font-size="11.00">label</text>
<polygon fill="none" stroke="black" points="158,-481.75 158,-503.75 257,-503.75 257,-481.75 158,-481.75"/>
<text text-anchor="start" x="161" y="-489.05" font-family="Helvetica,sans-Serif" font-size="11.00">varchar[255]</text>
<polygon fill="none" stroke="black" points="10,-459.75 10,-481.75 158,-481.75 158,-459.75 10,-459.75"/>
<text text-anchor="start" x="30" y="-466.3" font-family="Helvetica,sans-Serif" font-size="11.00">supertype</text>
<polygon fill="none" stroke="black" points="158,-459.75 158,-481.75 257,-481.75 257,-459.75 158,-459.75"/>
<text text-anchor="start" x="161" y="-467.05" font-family="Helvetica,sans-Serif" font-size="11.00">varchar[255]</text>
<polygon fill="none" stroke="black" points="10,-437.75 10,-459.75 158,-459.75 158,-437.75 10,-437.75"/>
<text text-anchor="start" x="30" y="-444.3" font-family="Helvetica,sans-Serif" font-size="11.00">rank</text>
<polygon fill="none" stroke="black" points="158,-437.75 158,-459.75 257,-459.75 257,-437.75 158,-437.75"/>
<text text-anchor="start" x="161" y="-445.05" font-family="Helvetica,sans-Serif" font-size="11.00">int[10]</text>
<polygon fill="none" stroke="black" points="10,-415.75 10,-437.75 158,-437.75 158,-415.75 10,-415.75"/>
<text text-anchor="start" x="30" y="-422.3" font-family="Helvetica,sans-Serif" font-size="11.00">version</text>
<polygon fill="none" stroke="black" points="158,-415.75 158,-437.75 257,-437.75 257,-415.75 158,-415.75"/>
<text text-anchor="start" x="161" y="-423.05" font-family="Helvetica,sans-Serif" font-size="11.00">bigint[19]</text>
<polygon fill="none" stroke="black" points="10,-393.75 10,-415.75 158,-415.75 158,-393.75 10,-393.75"/>
<text text-anchor="start" x="30" y="-400.3" font-family="Helvetica,sans-Serif" font-size="11.00">created_by</text>
<polygon fill="none" stroke="black" points="158,-393.75 158,-415.75 257,-415.75 257,-393.75 158,-393.75"/>
<text text-anchor="start" x="161" y="-401.05" font-family="Helvetica,sans-Serif" font-size="11.00">varchar[191]</text>
<polygon fill="none" stroke="black" points="10,-371.75 10,-393.75 158,-393.75 158,-371.75 10,-371.75"/>
<text text-anchor="start" x="30" y="-378.3" font-family="Helvetica,sans-Serif" font-size="11.00">last_modified_by</text>
<polygon fill="none" stroke="black" points="158,-371.75 158,-393.75 257,-393.75 257,-371.75 158,-371.75"/>
<text text-anchor="start" x="161" y="-379.05" font-family="Helvetica,sans-Serif" font-size="11.00">varchar[191]</text>
<polygon fill="none" stroke="black" points="10,-349.75 10,-371.75 158,-371.75 158,-349.75 10,-349.75"/>
<text text-anchor="start" x="30" y="-356.3" font-family="Helvetica,sans-Serif" font-size="11.00">created_date</text>
<polygon fill="none" stroke="black" points="158,-349.75 158,-371.75 257,-371.75 257,-349.75 158,-349.75"/>
<text text-anchor="start" x="161" y="-357.05" font-family="Helvetica,sans-Serif" font-size="11.00">timestamp[19]</text>
<polygon fill="none" stroke="black" points="10,-327.75 10,-349.75 158,-349.75 158,-327.75 10,-327.75"/>
<text text-anchor="start" x="30" y="-334.3" font-family="Helvetica,sans-Serif" font-size="11.00">last_modified_date</text>
<polygon fill="none" stroke="black" points="158,-327.75 158,-349.75 257,-349.75 257,-327.75 158,-327.75"/>
<text text-anchor="start" x="161" y="-335.05" font-family="Helvetica,sans-Serif" font-size="11.00">timestamp[19]</text>
<polygon fill="#ffffff" stroke="none" points="10,-308.25 10,-327.75 90,-327.75 90,-308.25 10,-308.25"/>
<polygon fill="none" stroke="black" points="10,-308.25 10,-327.75 90,-327.75 90,-308.25 10,-308.25"/>
<text text-anchor="start" x="13" y="-314.3" font-family="Helvetica,sans-Serif" font-size="11.00">&lt; 0</text>
<polygon fill="#ffffff" stroke="none" points="90,-308.25 90,-327.75 158,-327.75 158,-308.25 90,-308.25"/>
<polygon fill="none" stroke="black" points="90,-308.25 90,-327.75 158,-327.75 158,-308.25 90,-308.25"/>
<text text-anchor="start" x="147.5" y="-314.3" font-family="Helvetica,sans-Serif" font-size="11.00"> &#160;</text>
<polygon fill="#ffffff" stroke="none" points="158,-308.25 158,-327.75 257,-327.75 257,-308.25 158,-308.25"/>
<polygon fill="none" stroke="black" points="158,-308.25 158,-327.75 257,-327.75 257,-308.25 158,-308.25"/>
<text text-anchor="start" x="234.5" y="-314.3" font-family="Helvetica,sans-Serif" font-size="11.00">4 &gt;</text>
<polygon fill="none" stroke="black" stroke-width="2" points="9,-307.25 9,-550.25 269.25,-550.25 269.25,-307.25 9,-307.25"/>
</a>
</g>
</g>
<!-- doc_export_property&#45;&gt;doc_property_type -->
<g id="edge2" class="edge">
<title>doc_export_property:w&#45;&gt;doc_property_type:e</title>
<path fill="none" stroke="black" d="M307.69,-615.77C276.87,-597.11 306.53,-514.75 258,-514.75"/>
<polygon fill="black" stroke="black" points="314.66,-617.5 321.56,-622.91 318.87,-618.54 322.1,-619.34 322.1,-619.34 322.1,-619.34 318.87,-618.54 323.29,-615.93 314.66,-617.5"/>
<ellipse fill="none" stroke="black" cx="309.89" cy="-616.32" rx="3.2" ry="3.2"/>
</g>
<!-- doc_property -->
<g id="node4" class="node">
<title>doc_property</title>
<g id="a_node4"><a xlink:href="../../tables/doc_property.html" xlink:title="doc_property" target="_top">
<polygon fill="#ffffff" stroke="none" points="342.62,-389.5 342.62,-518 490.62,-518 490.62,-389.5 342.62,-389.5"/>
<polygon fill="#f5f5f5" stroke="none" points="342.62,-494.5 342.62,-518 490.62,-518 490.62,-494.5 342.62,-494.5"/>
<polygon fill="none" stroke="black" points="342.62,-494.5 342.62,-518 490.62,-518 490.62,-494.5 342.62,-494.5"/>
<text text-anchor="start" x="347.62" y="-503.55" font-family="Helvetica,sans-Serif" font-weight="bold" font-size="11.00">doc_property</text>
<text text-anchor="start" x="448.88" y="-502.55" font-family="Helvetica,sans-Serif" font-size="11.00">[table]</text>
<polygon fill="none" stroke="black" points="342.62,-472.5 342.62,-494.5 490.62,-494.5 490.62,-472.5 342.62,-472.5"/>
<image xlink:href="../../images/primaryKeys.png" width="11px" height="12px" preserveAspectRatio="xMinYMin meet" x="347.625" y="-489.5"/>
<text text-anchor="start" x="362.62" y="-479.05" font-family="Helvetica,sans-Serif" font-size="11.00">identifier</text>
<polygon fill="#ffffff" stroke="none" points="342.62,-450.5 342.62,-472.5 490.62,-472.5 490.62,-450.5 342.62,-450.5"/>
<polygon fill="none" stroke="black" points="342.62,-450.5 342.62,-472.5 490.62,-472.5 490.62,-450.5 342.62,-450.5"/>
<image xlink:href="../../images/foreignKeys.png" width="11px" height="12px" preserveAspectRatio="xMinYMin meet" x="347.625" y="-467.5"/>
<text text-anchor="start" x="362.62" y="-457.05" font-family="Helvetica,sans-Serif" font-size="11.00">type</text>
<polygon fill="#ffffff" stroke="none" points="342.62,-428.5 342.62,-450.5 490.62,-450.5 490.62,-428.5 342.62,-428.5"/>
<polygon fill="none" stroke="black" points="342.62,-428.5 342.62,-450.5 490.62,-450.5 490.62,-428.5 342.62,-428.5"/>
<image xlink:href="../../images/foreignKeys.png" width="11px" height="12px" preserveAspectRatio="xMinYMin meet" x="347.625" y="-445.5"/>
<text text-anchor="start" x="362.62" y="-435.05" font-family="Helvetica,sans-Serif" font-size="11.00">record</text>
<polygon fill="none" stroke="black" points="342.62,-409 342.62,-428.5 490.62,-428.5 490.62,-409 342.62,-409"/>
<text text-anchor="start" x="345.62" y="-415.05" font-family="Helvetica,sans-Serif" font-size="11.00">...</text>
<polygon fill="#ffffff" stroke="none" points="342.62,-389.5 342.62,-409 399.96,-409 399.96,-389.5 342.62,-389.5"/>
<polygon fill="none" stroke="black" points="342.62,-389.5 342.62,-409 399.96,-409 399.96,-389.5 342.62,-389.5"/>
<text text-anchor="start" x="345.62" y="-395.55" font-family="Helvetica,sans-Serif" font-size="11.00">&lt; 2</text>
<polygon fill="#ffffff" stroke="none" points="399.96,-389.5 399.96,-409 445.29,-409 445.29,-389.5 399.96,-389.5"/>
<polygon fill="none" stroke="black" points="399.96,-389.5 399.96,-409 445.29,-409 445.29,-389.5 399.96,-389.5"/>
<text text-anchor="start" x="434.79" y="-395.55" font-family="Helvetica,sans-Serif" font-size="11.00"> &#160;</text>
<polygon fill="#ffffff" stroke="none" points="445.29,-389.5 445.29,-409 490.62,-409 490.62,-389.5 445.29,-389.5"/>
<polygon fill="none" stroke="black" points="445.29,-389.5 445.29,-409 490.62,-409 490.62,-389.5 445.29,-389.5"/>
<text text-anchor="start" x="480.12" y="-395.55" font-family="Helvetica,sans-Serif" font-size="11.00"> &#160;</text>
</a>
</g>
</g>
<!-- doc_property&#45;&gt;doc_property_type -->
<g id="edge4" class="edge">
<title>doc_property:w&#45;&gt;doc_property_type:e</title>
<path fill="none" stroke="black" d="M326.03,-464.21C297.89,-475.07 296.04,-514.75 258,-514.75"/>
<polygon fill="black" stroke="black" points="333.41,-462.93 341.91,-465.1 337.68,-462.19 340.97,-461.61 340.97,-461.61 340.97,-461.61 337.68,-462.19 340.68,-458.01 333.41,-462.93"/>
<ellipse fill="none" stroke="black" cx="328.57" cy="-463.77" rx="3.2" ry="3.2"/>
</g>
<!-- doc_bibliographic_record -->
<g id="node5" class="node">
<title>doc_bibliographic_record</title>
<g id="a_node5"><a xlink:href="../../tables/doc_bibliographic_record.html" xlink:title="doc_bibliographic_record" target="_top">
<polygon fill="#ffffff" stroke="none" points="31.75,-222.5 31.75,-285 246.5,-285 246.5,-222.5 31.75,-222.5"/>
<polygon fill="#f5f5f5" stroke="none" points="31.75,-261.5 31.75,-285 246.5,-285 246.5,-261.5 31.75,-261.5"/>
<polygon fill="none" stroke="black" points="31.75,-261.5 31.75,-285 246.5,-285 246.5,-261.5 31.75,-261.5"/>
<text text-anchor="start" x="36.75" y="-270.55" font-family="Helvetica,sans-Serif" font-weight="bold" font-size="11.00">doc_bibliographic_record</text>
<text text-anchor="start" x="204.75" y="-269.55" font-family="Helvetica,sans-Serif" font-size="11.00">[table]</text>
<polygon fill="none" stroke="black" points="31.75,-242 31.75,-261.5 246.5,-261.5 246.5,-242 31.75,-242"/>
<text text-anchor="start" x="34.75" y="-248.05" font-family="Helvetica,sans-Serif" font-size="11.00">...</text>
<polygon fill="#ffffff" stroke="none" points="31.75,-222.5 31.75,-242 107.33,-242 107.33,-222.5 31.75,-222.5"/>
<polygon fill="none" stroke="black" points="31.75,-222.5 31.75,-242 107.33,-242 107.33,-222.5 31.75,-222.5"/>
<text text-anchor="start" x="34.75" y="-228.55" font-family="Helvetica,sans-Serif" font-size="11.00">&lt; 2</text>
<polygon fill="#ffffff" stroke="none" points="107.33,-222.5 107.33,-242 170.92,-242 170.92,-222.5 107.33,-222.5"/>
<polygon fill="none" stroke="black" points="107.33,-222.5 107.33,-242 170.92,-242 170.92,-222.5 107.33,-222.5"/>
<text text-anchor="start" x="160.42" y="-228.55" font-family="Helvetica,sans-Serif" font-size="11.00"> &#160;</text>
<polygon fill="#ffffff" stroke="none" points="170.92,-222.5 170.92,-242 246.5,-242 246.5,-222.5 170.92,-222.5"/>
<polygon fill="none" stroke="black" points="170.92,-222.5 170.92,-242 246.5,-242 246.5,-222.5 170.92,-222.5"/>
<text text-anchor="start" x="224" y="-228.55" font-family="Helvetica,sans-Serif" font-size="11.00">1 &gt;</text>
</a>
</g>
</g>
<!-- doc_property&#45;&gt;doc_bibliographic_record -->
<g id="edge3" class="edge">
<title>doc_property:w&#45;&gt;doc_bibliographic_record:e</title>
<path fill="none" stroke="black" d="M326.21,-437.39C259.13,-416.76 335.01,-251.75 247.5,-251.75"/>
<polygon fill="black" stroke="black" points="333.37,-438.37 340.81,-443.02 337.66,-438.96 340.96,-439.41 340.96,-439.41 340.96,-439.41 337.66,-438.96 341.78,-435.89 333.37,-438.37"/>
<ellipse fill="none" stroke="black" cx="328.49" cy="-437.7" rx="3.2" ry="3.2"/>
</g>
<!-- exc_csv_mapping_rule -->
<g id="node6" class="node">
<title>exc_csv_mapping_rule</title>
<g id="a_node6"><a xlink:href="../../tables/exc_csv_mapping_rule.html" xlink:title="exc_csv_mapping_rule" target="_top">
<polygon fill="#ffffff" stroke="none" points="319.25,-222.5 319.25,-351 514,-351 514,-222.5 319.25,-222.5"/>
<polygon fill="#f5f5f5" stroke="none" points="319.25,-327.5 319.25,-351 514,-351 514,-327.5 319.25,-327.5"/>
<polygon fill="none" stroke="black" points="319.25,-327.5 319.25,-351 514,-351 514,-327.5 319.25,-327.5"/>
<text text-anchor="start" x="324.25" y="-336.55" font-family="Helvetica,sans-Serif" font-weight="bold" font-size="11.00">exc_csv_mapping_rule</text>
<text text-anchor="start" x="472.25" y="-335.55" font-family="Helvetica,sans-Serif" font-size="11.00">[table]</text>
<polygon fill="none" stroke="black" points="319.25,-305.5 319.25,-327.5 514,-327.5 514,-305.5 319.25,-305.5"/>
<image xlink:href="../../images/primaryKeys.png" width="11px" height="12px" preserveAspectRatio="xMinYMin meet" x="324.25" y="-322.5"/>
<text text-anchor="start" x="352.12" y="-312.05" font-family="Helvetica,sans-Serif" font-size="11.00">identifier</text>
<polygon fill="#ffffff" stroke="none" points="319.25,-283.5 319.25,-305.5 514,-305.5 514,-283.5 319.25,-283.5"/>
<polygon fill="none" stroke="black" points="319.25,-283.5 319.25,-305.5 514,-305.5 514,-283.5 319.25,-283.5"/>
<image xlink:href="../../images/foreignKeys.png" width="11px" height="12px" preserveAspectRatio="xMinYMin meet" x="324.25" y="-300.5"/>
<text text-anchor="start" x="352.12" y="-290.05" font-family="Helvetica,sans-Serif" font-size="11.00">mapping</text>
<polygon fill="#ffffff" stroke="none" points="319.25,-261.5 319.25,-283.5 514,-283.5 514,-261.5 319.25,-261.5"/>
<polygon fill="none" stroke="black" points="319.25,-261.5 319.25,-283.5 514,-283.5 514,-261.5 319.25,-261.5"/>
<image xlink:href="../../images/foreignKeys.png" width="11px" height="12px" preserveAspectRatio="xMinYMin meet" x="324.25" y="-278.5"/>
<text text-anchor="start" x="352.12" y="-268.05" font-family="Helvetica,sans-Serif" font-size="11.00">property</text>
<polygon fill="none" stroke="black" points="319.25,-242 319.25,-261.5 514,-261.5 514,-242 319.25,-242"/>
<text text-anchor="start" x="322.25" y="-248.05" font-family="Helvetica,sans-Serif" font-size="11.00">...</text>
<polygon fill="#ffffff" stroke="none" points="319.25,-222.5 319.25,-242 392.17,-242 392.17,-222.5 319.25,-222.5"/>
<polygon fill="none" stroke="black" points="319.25,-222.5 319.25,-242 392.17,-242 392.17,-222.5 319.25,-222.5"/>
<text text-anchor="start" x="322.25" y="-228.55" font-family="Helvetica,sans-Serif" font-size="11.00">&lt; 2</text>
<polygon fill="#ffffff" stroke="none" points="392.17,-222.5 392.17,-242 453.08,-242 453.08,-222.5 392.17,-222.5"/>
<polygon fill="none" stroke="black" points="392.17,-222.5 392.17,-242 453.08,-242 453.08,-222.5 392.17,-222.5"/>
<text text-anchor="start" x="442.58" y="-228.55" font-family="Helvetica,sans-Serif" font-size="11.00"> &#160;</text>
<polygon fill="#ffffff" stroke="none" points="453.08,-222.5 453.08,-242 514,-242 514,-222.5 453.08,-222.5"/>
<polygon fill="none" stroke="black" points="453.08,-222.5 453.08,-242 514,-242 514,-222.5 453.08,-222.5"/>
<text text-anchor="start" x="503.5" y="-228.55" font-family="Helvetica,sans-Serif" font-size="11.00"> &#160;</text>
</a>
</g>
</g>
<!-- exc_csv_mapping_rule&#45;&gt;doc_property_type -->
<g id="edge6" class="edge">
<title>exc_csv_mapping_rule:w&#45;&gt;doc_property_type:e</title>
<path fill="none" stroke="black" d="M302.89,-274.45C223.59,-297.38 363.1,-514.75 258,-514.75"/>
<polygon fill="black" stroke="black" points="309.98,-273.55 318.37,-276.11 314.28,-273 317.59,-272.58 317.59,-272.58 317.59,-272.58 314.28,-273 317.46,-268.97 309.98,-273.55"/>
<ellipse fill="none" stroke="black" cx="305.1" cy="-274.17" rx="3.2" ry="3.2"/>
</g>
<!-- exc_csv_mapping -->
<g id="node7" class="node">
<title>exc_csv_mapping</title>
<g id="a_node7"><a xlink:href="../../tables/exc_csv_mapping.html" xlink:title="exc_csv_mapping" target="_top">
<polygon fill="#ffffff" stroke="none" points="57.75,-138.5 57.75,-201 220.5,-201 220.5,-138.5 57.75,-138.5"/>
<polygon fill="#f5f5f5" stroke="none" points="57.75,-177.5 57.75,-201 220.5,-201 220.5,-177.5 57.75,-177.5"/>
<polygon fill="none" stroke="black" points="57.75,-177.5 57.75,-201 220.5,-201 220.5,-177.5 57.75,-177.5"/>
<text text-anchor="start" x="62.75" y="-186.55" font-family="Helvetica,sans-Serif" font-weight="bold" font-size="11.00">exc_csv_mapping</text>
<text text-anchor="start" x="178.75" y="-185.55" font-family="Helvetica,sans-Serif" font-size="11.00">[table]</text>
<polygon fill="none" stroke="black" points="57.75,-158 57.75,-177.5 220.5,-177.5 220.5,-158 57.75,-158"/>
<text text-anchor="start" x="60.75" y="-164.05" font-family="Helvetica,sans-Serif" font-size="11.00">...</text>
<polygon fill="#ffffff" stroke="none" points="57.75,-138.5 57.75,-158 116,-158 116,-138.5 57.75,-138.5"/>
<polygon fill="none" stroke="black" points="57.75,-138.5 57.75,-158 116,-158 116,-138.5 57.75,-138.5"/>
<text text-anchor="start" x="60.75" y="-144.55" font-family="Helvetica,sans-Serif" font-size="11.00">&lt; 1</text>
<polygon fill="#ffffff" stroke="none" points="116,-138.5 116,-158 162.25,-158 162.25,-138.5 116,-138.5"/>
<polygon fill="none" stroke="black" points="116,-138.5 116,-158 162.25,-158 162.25,-138.5 116,-138.5"/>
<text text-anchor="start" x="151.75" y="-144.55" font-family="Helvetica,sans-Serif" font-size="11.00"> &#160;</text>
<polygon fill="#ffffff" stroke="none" points="162.25,-138.5 162.25,-158 220.5,-158 220.5,-138.5 162.25,-138.5"/>
<polygon fill="none" stroke="black" points="162.25,-138.5 162.25,-158 220.5,-158 220.5,-138.5 162.25,-138.5"/>
<text text-anchor="start" x="198" y="-144.55" font-family="Helvetica,sans-Serif" font-size="11.00">2 &gt;</text>
</a>
</g>
</g>
<!-- exc_csv_mapping_rule&#45;&gt;exc_csv_mapping -->
<g id="edge5" class="edge">
<title>exc_csv_mapping_rule:w&#45;&gt;exc_csv_mapping:e</title>
<path fill="none" stroke="black" d="M303.06,-290.69C284.71,-278.28 299.74,-238.29 278.25,-211.75 258.16,-186.95 253.42,-167.75 221.5,-167.75"/>
<polygon fill="black" stroke="black" points="310.17,-292.47 317.05,-297.91 314.37,-293.53 317.6,-294.34 317.6,-294.34 317.6,-294.34 314.37,-293.53 318.8,-290.93 310.17,-292.47"/>
<ellipse fill="none" stroke="black" cx="305.39" cy="-291.28" rx="3.2" ry="3.2"/>
</g>
<!-- exc_mapping_rule -->
<g id="node8" class="node">
<title>exc_mapping_rule</title>
<g id="a_node8"><a xlink:href="../../tables/exc_mapping_rule.html" xlink:title="exc_mapping_rule" target="_top">
<polygon fill="#ffffff" stroke="none" points="333.25,-38.5 333.25,-167 500,-167 500,-38.5 333.25,-38.5"/>
<polygon fill="#f5f5f5" stroke="none" points="333.25,-143.5 333.25,-167 500,-167 500,-143.5 333.25,-143.5"/>
<polygon fill="none" stroke="black" points="333.25,-143.5 333.25,-167 500,-167 500,-143.5 333.25,-143.5"/>
<text text-anchor="start" x="338.25" y="-152.55" font-family="Helvetica,sans-Serif" font-weight="bold" font-size="11.00">exc_mapping_rule</text>
<text text-anchor="start" x="458.25" y="-151.55" font-family="Helvetica,sans-Serif" font-size="11.00">[table]</text>
<polygon fill="none" stroke="black" points="333.25,-121.5 333.25,-143.5 500,-143.5 500,-121.5 333.25,-121.5"/>
<image xlink:href="../../images/primaryKeys.png" width="11px" height="12px" preserveAspectRatio="xMinYMin meet" x="338.25" y="-138.5"/>
<text text-anchor="start" x="362.62" y="-128.05" font-family="Helvetica,sans-Serif" font-size="11.00">identifier</text>
<polygon fill="#ffffff" stroke="none" points="333.25,-99.5 333.25,-121.5 500,-121.5 500,-99.5 333.25,-99.5"/>
<polygon fill="none" stroke="black" points="333.25,-99.5 333.25,-121.5 500,-121.5 500,-99.5 333.25,-99.5"/>
<image xlink:href="../../images/foreignKeys.png" width="11px" height="12px" preserveAspectRatio="xMinYMin meet" x="338.25" y="-116.5"/>
<text text-anchor="start" x="362.62" y="-106.05" font-family="Helvetica,sans-Serif" font-size="11.00">property</text>
<polygon fill="#ffffff" stroke="none" points="333.25,-77.5 333.25,-99.5 500,-99.5 500,-77.5 333.25,-77.5"/>
<polygon fill="none" stroke="black" points="333.25,-77.5 333.25,-99.5 500,-99.5 500,-77.5 333.25,-77.5"/>
<image xlink:href="../../images/foreignKeys.png" width="11px" height="12px" preserveAspectRatio="xMinYMin meet" x="338.25" y="-94.5"/>
<text text-anchor="start" x="362.62" y="-84.05" font-family="Helvetica,sans-Serif" font-size="11.00">mapping</text>
<polygon fill="none" stroke="black" points="333.25,-58 333.25,-77.5 500,-77.5 500,-58 333.25,-58"/>
<text text-anchor="start" x="336.25" y="-64.05" font-family="Helvetica,sans-Serif" font-size="11.00">...</text>
<polygon fill="#ffffff" stroke="none" points="333.25,-38.5 333.25,-58 396.83,-58 396.83,-38.5 333.25,-38.5"/>
<polygon fill="none" stroke="black" points="333.25,-38.5 333.25,-58 396.83,-58 396.83,-38.5 333.25,-38.5"/>
<text text-anchor="start" x="336.25" y="-44.55" font-family="Helvetica,sans-Serif" font-size="11.00">&lt; 2</text>
<polygon fill="#ffffff" stroke="none" points="396.83,-38.5 396.83,-58 448.42,-58 448.42,-38.5 396.83,-38.5"/>
<polygon fill="none" stroke="black" points="396.83,-38.5 396.83,-58 448.42,-58 448.42,-38.5 396.83,-38.5"/>
<text text-anchor="start" x="437.92" y="-44.55" font-family="Helvetica,sans-Serif" font-size="11.00"> &#160;</text>
<polygon fill="#ffffff" stroke="none" points="448.42,-38.5 448.42,-58 500,-58 500,-38.5 448.42,-38.5"/>
<polygon fill="none" stroke="black" points="448.42,-38.5 448.42,-58 500,-58 500,-38.5 448.42,-38.5"/>
<text text-anchor="start" x="489.5" y="-44.55" font-family="Helvetica,sans-Serif" font-size="11.00"> &#160;</text>
</a>
</g>
</g>
<!-- exc_mapping_rule&#45;&gt;doc_property_type -->
<g id="edge8" class="edge">
<title>exc_mapping_rule:w&#45;&gt;doc_property_type:e</title>
<path fill="none" stroke="black" d="M317.37,-115.04C253.69,-159.45 343.63,-514.75 258,-514.75"/>
<polygon fill="black" stroke="black" points="324.28,-112.93 332.98,-114.04 328.42,-111.67 331.61,-110.7 331.61,-110.7 331.61,-110.7 328.42,-111.67 330.88,-107.15 324.28,-112.93"/>
<ellipse fill="none" stroke="black" cx="319.57" cy="-114.37" rx="3.2" ry="3.2"/>
</g>
<!-- exc_mapping -->
<g id="node9" class="node">
<title>exc_mapping</title>
<g id="a_node9"><a xlink:href="../../tables/exc_mapping.html" xlink:title="exc_mapping" target="_top">
<polygon fill="#ffffff" stroke="none" points="71.75,-54.5 71.75,-117 206.5,-117 206.5,-54.5 71.75,-54.5"/>
<polygon fill="#f5f5f5" stroke="none" points="71.75,-93.5 71.75,-117 206.5,-117 206.5,-93.5 71.75,-93.5"/>
<polygon fill="none" stroke="black" points="71.75,-93.5 71.75,-117 206.5,-117 206.5,-93.5 71.75,-93.5"/>
<text text-anchor="start" x="76.75" y="-102.55" font-family="Helvetica,sans-Serif" font-weight="bold" font-size="11.00">exc_mapping</text>
<text text-anchor="start" x="164.75" y="-101.55" font-family="Helvetica,sans-Serif" font-size="11.00">[table]</text>
<polygon fill="none" stroke="black" points="71.75,-74 71.75,-93.5 206.5,-93.5 206.5,-74 71.75,-74"/>
<text text-anchor="start" x="74.75" y="-80.05" font-family="Helvetica,sans-Serif" font-size="11.00">...</text>
<polygon fill="#ffffff" stroke="none" points="71.75,-54.5 71.75,-74 120.67,-74 120.67,-54.5 71.75,-54.5"/>
<polygon fill="none" stroke="black" points="71.75,-54.5 71.75,-74 120.67,-74 120.67,-54.5 71.75,-54.5"/>
<text text-anchor="start" x="74.75" y="-60.55" font-family="Helvetica,sans-Serif" font-size="11.00">&lt; 1</text>
<polygon fill="#ffffff" stroke="none" points="120.67,-54.5 120.67,-74 157.58,-74 157.58,-54.5 120.67,-54.5"/>
<polygon fill="none" stroke="black" points="120.67,-54.5 120.67,-74 157.58,-74 157.58,-54.5 120.67,-54.5"/>
<text text-anchor="start" x="147.08" y="-60.55" font-family="Helvetica,sans-Serif" font-size="11.00"> &#160;</text>
<polygon fill="#ffffff" stroke="none" points="157.58,-54.5 157.58,-74 206.5,-74 206.5,-54.5 157.58,-54.5"/>
<polygon fill="none" stroke="black" points="157.58,-54.5 157.58,-74 206.5,-74 206.5,-54.5 157.58,-54.5"/>
<text text-anchor="start" x="184" y="-60.55" font-family="Helvetica,sans-Serif" font-size="11.00">3 &gt;</text>
</a>
</g>
</g>
<!-- exc_mapping_rule&#45;&gt;exc_mapping -->
<g id="edge7" class="edge">
<title>exc_mapping_rule:w&#45;&gt;exc_mapping:e</title>
<path fill="none" stroke="black" d="M316.55,-88.36C273.54,-87.58 257.35,-83.75 207.5,-83.75"/>
<polygon fill="black" stroke="black" points="323.92,-88.43 331.88,-92.1 328.25,-88.47 331.58,-88.49 331.58,-88.49 331.58,-88.49 328.25,-88.47 331.95,-84.9 323.92,-88.43"/>
<ellipse fill="none" stroke="black" cx="319" cy="-88.38" rx="3.2" ry="3.2"/>
</g>
</g>
</svg>
