<?xml version="1.0" encoding="UTF-8" standalone="no"?>
<!DOCTYPE svg PUBLIC "-//W3C//DTD SVG 1.1//EN"
 "http://www.w3.org/Graphics/SVG/1.1/DTD/svg11.dtd">
<!-- Generated by graphviz version 12.2.0 (0)
 -->
<!-- Title: oneDegreeRelationshipsDiagram Pages: 1 -->
<svg width="508pt" height="296pt"
 viewBox="0.00 0.00 508.00 295.50" xmlns="http://www.w3.org/2000/svg" xmlns:xlink="http://www.w3.org/1999/xlink">
<g id="graph0" class="graph" transform="scale(1 1) rotate(0) translate(4 291.5)">
<title>oneDegreeRelationshipsDiagram</title>
<polygon fill="#ffffff" stroke="none" points="-4,4 -4,-291.5 504,-291.5 504,4 -4,4"/>
<text text-anchor="middle" x="79.25" y="-7.05" font-family="Helvetica,sans-Serif" font-size="11.00">Generated by SchemaSpy</text>
<!-- doc_archive_header -->
<g id="node1" class="node">
<title>doc_archive_header</title>
<g id="a_node1"><a xlink:href="../../tables/doc_archive_header.html" xlink:title="doc_archive_header" target="_top">
<polygon fill="#ffffff" stroke="none" points="219.75,-38.5 219.75,-283.5 492,-283.5 492,-38.5 219.75,-38.5"/>
<polygon fill="#f5f5f5" stroke="none" points="221.75,-258 221.75,-281.5 490,-281.5 490,-258 221.75,-258"/>
<polygon fill="none" stroke="black" points="221.75,-258 221.75,-281.5 490,-281.5 490,-258 221.75,-258"/>
<text text-anchor="start" x="226.75" y="-267.05" font-family="Helvetica,sans-Serif" font-weight="bold" font-size="11.00">doc_archive_header</text>
<text text-anchor="start" x="448.25" y="-266.05" font-family="Helvetica,sans-Serif" font-size="11.00">[table]</text>
<polygon fill="none" stroke="black" points="221.75,-236 221.75,-258 375.75,-258 375.75,-236 221.75,-236"/>
<image xlink:href="../../images/primaryKeys.png" width="11px" height="12px" preserveAspectRatio="xMinYMin meet" x="226.75" y="-253"/>
<text text-anchor="start" x="241.75" y="-242.55" font-family="Helvetica,sans-Serif" font-size="11.00">identifier</text>
<polygon fill="none" stroke="black" points="375.75,-236 375.75,-258 476.75,-258 476.75,-236 375.75,-236"/>
<text text-anchor="start" x="378.75" y="-243.3" font-family="Helvetica,sans-Serif" font-size="11.00">varchar[191]</text>
<polygon fill="none" stroke="black" points="221.75,-214 221.75,-236 375.75,-236 375.75,-214 221.75,-214"/>
<text text-anchor="start" x="241.75" y="-220.55" font-family="Helvetica,sans-Serif" font-size="11.00">value</text>
<polygon fill="none" stroke="black" points="375.75,-214 375.75,-236 476.75,-236 476.75,-214 375.75,-214"/>
<text text-anchor="start" x="378.75" y="-221.3" font-family="Helvetica,sans-Serif" font-size="11.00">text[65535]</text>
<polygon fill="none" stroke="black" points="221.75,-192 221.75,-214 375.75,-214 375.75,-192 221.75,-192"/>
<text text-anchor="start" x="241.75" y="-198.55" font-family="Helvetica,sans-Serif" font-size="11.00">type</text>
<polygon fill="none" stroke="black" points="375.75,-192 375.75,-214 476.75,-214 476.75,-192 375.75,-192"/>
<text text-anchor="start" x="378.75" y="-199.3" font-family="Helvetica,sans-Serif" font-size="11.00">varchar[191]</text>
<polygon fill="#ffffff" stroke="none" points="221.75,-170 221.75,-192 375.75,-192 375.75,-170 221.75,-170"/>
<polygon fill="none" stroke="black" points="221.75,-170 221.75,-192 375.75,-192 375.75,-170 221.75,-170"/>
<image xlink:href="../../images/foreignKeys.png" width="11px" height="12px" preserveAspectRatio="xMinYMin meet" x="226.75" y="-187"/>
<text text-anchor="start" x="241.75" y="-176.55" font-family="Helvetica,sans-Serif" font-size="11.00">item</text>
<polygon fill="none" stroke="black" points="375.75,-170 375.75,-192 476.75,-192 476.75,-170 375.75,-170"/>
<text text-anchor="start" x="378.75" y="-177.3" font-family="Helvetica,sans-Serif" font-size="11.00">varchar[191]</text>
<polygon fill="none" stroke="black" points="221.75,-148 221.75,-170 375.75,-170 375.75,-148 221.75,-148"/>
<text text-anchor="start" x="241.75" y="-154.55" font-family="Helvetica,sans-Serif" font-size="11.00">version</text>
<polygon fill="none" stroke="black" points="375.75,-148 375.75,-170 476.75,-170 476.75,-148 375.75,-148"/>
<text text-anchor="start" x="378.75" y="-155.3" font-family="Helvetica,sans-Serif" font-size="11.00">bigint[19]</text>
<polygon fill="none" stroke="black" points="221.75,-126 221.75,-148 375.75,-148 375.75,-126 221.75,-126"/>
<text text-anchor="start" x="241.75" y="-132.55" font-family="Helvetica,sans-Serif" font-size="11.00">created_by</text>
<polygon fill="none" stroke="black" points="375.75,-126 375.75,-148 476.75,-148 476.75,-126 375.75,-126"/>
<text text-anchor="start" x="378.75" y="-133.3" font-family="Helvetica,sans-Serif" font-size="11.00">varchar[191]</text>
<polygon fill="none" stroke="black" points="221.75,-104 221.75,-126 375.75,-126 375.75,-104 221.75,-104"/>
<text text-anchor="start" x="241.75" y="-110.55" font-family="Helvetica,sans-Serif" font-size="11.00">last_modified_by</text>
<polygon fill="none" stroke="black" points="375.75,-104 375.75,-126 476.75,-126 476.75,-104 375.75,-104"/>
<text text-anchor="start" x="378.75" y="-111.3" font-family="Helvetica,sans-Serif" font-size="11.00">varchar[191]</text>
<polygon fill="none" stroke="black" points="221.75,-82 221.75,-104 375.75,-104 375.75,-82 221.75,-82"/>
<text text-anchor="start" x="241.75" y="-88.55" font-family="Helvetica,sans-Serif" font-size="11.00">created_date</text>
<polygon fill="none" stroke="black" points="375.75,-82 375.75,-104 476.75,-104 476.75,-82 375.75,-82"/>
<text text-anchor="start" x="378.75" y="-89.3" font-family="Helvetica,sans-Serif" font-size="11.00">timestamp[19]</text>
<polygon fill="none" stroke="black" points="221.75,-60 221.75,-82 375.75,-82 375.75,-60 221.75,-60"/>
<text text-anchor="start" x="241.75" y="-66.55" font-family="Helvetica,sans-Serif" font-size="11.00">last_modified_date</text>
<polygon fill="none" stroke="black" points="375.75,-60 375.75,-82 476.75,-82 476.75,-60 375.75,-60"/>
<text text-anchor="start" x="378.75" y="-67.3" font-family="Helvetica,sans-Serif" font-size="11.00">timestamp[19]</text>
<polygon fill="#ffffff" stroke="none" points="221.75,-40.5 221.75,-60 304.75,-60 304.75,-40.5 221.75,-40.5"/>
<polygon fill="none" stroke="black" points="221.75,-40.5 221.75,-60 304.75,-60 304.75,-40.5 221.75,-40.5"/>
<text text-anchor="start" x="224.75" y="-46.55" font-family="Helvetica,sans-Serif" font-size="11.00">&lt; 1</text>
<polygon fill="#ffffff" stroke="none" points="304.75,-40.5 304.75,-60 375.75,-60 375.75,-40.5 304.75,-40.5"/>
<polygon fill="none" stroke="black" points="304.75,-40.5 304.75,-60 375.75,-60 375.75,-40.5 304.75,-40.5"/>
<text text-anchor="start" x="365.25" y="-46.55" font-family="Helvetica,sans-Serif" font-size="11.00"> &#160;</text>
<polygon fill="#ffffff" stroke="none" points="375.75,-40.5 375.75,-60 476.75,-60 476.75,-40.5 375.75,-40.5"/>
<polygon fill="none" stroke="black" points="375.75,-40.5 375.75,-60 476.75,-60 476.75,-40.5 375.75,-40.5"/>
<text text-anchor="start" x="454.25" y="-46.55" font-family="Helvetica,sans-Serif" font-size="11.00">0 &gt;</text>
<polygon fill="none" stroke="black" stroke-width="2" points="220.75,-39.5 220.75,-282.5 491,-282.5 491,-39.5 220.75,-39.5"/>
</a>
</g>
</g>
<!-- doc_archive_item -->
<g id="node2" class="node">
<title>doc_archive_item</title>
<g id="a_node2"><a xlink:href="../../tables/doc_archive_item.html" xlink:title="doc_archive_item" target="_top">
<polygon fill="#ffffff" stroke="none" points="8,-130.75 8,-215.25 170.75,-215.25 170.75,-130.75 8,-130.75"/>
<polygon fill="#f5f5f5" stroke="none" points="8,-191.75 8,-215.25 170.75,-215.25 170.75,-191.75 8,-191.75"/>
<polygon fill="none" stroke="black" points="8,-191.75 8,-215.25 170.75,-215.25 170.75,-191.75 8,-191.75"/>
<text text-anchor="start" x="13" y="-200.8" font-family="Helvetica,sans-Serif" font-weight="bold" font-size="11.00">doc_archive_item</text>
<text text-anchor="start" x="129" y="-199.8" font-family="Helvetica,sans-Serif" font-size="11.00">[table]</text>
<polygon fill="none" stroke="black" points="8,-169.75 8,-191.75 170.75,-191.75 170.75,-169.75 8,-169.75"/>
<image xlink:href="../../images/primaryKeys.png" width="11px" height="12px" preserveAspectRatio="xMinYMin meet" x="13" y="-186.75"/>
<text text-anchor="start" x="35.38" y="-176.3" font-family="Helvetica,sans-Serif" font-size="11.00">identifier</text>
<polygon fill="none" stroke="black" points="8,-150.25 8,-169.75 170.75,-169.75 170.75,-150.25 8,-150.25"/>
<text text-anchor="start" x="11" y="-156.3" font-family="Helvetica,sans-Serif" font-size="11.00">...</text>
<polygon fill="#ffffff" stroke="none" points="8,-130.75 8,-150.25 58.25,-150.25 58.25,-130.75 8,-130.75"/>
<polygon fill="none" stroke="black" points="8,-130.75 8,-150.25 58.25,-150.25 58.25,-130.75 8,-130.75"/>
<text text-anchor="start" x="11" y="-136.8" font-family="Helvetica,sans-Serif" font-size="11.00"> &#160;</text>
<polygon fill="#ffffff" stroke="none" points="58.25,-130.75 58.25,-150.25 108.5,-150.25 108.5,-130.75 58.25,-130.75"/>
<polygon fill="none" stroke="black" points="58.25,-130.75 58.25,-150.25 108.5,-150.25 108.5,-130.75 58.25,-130.75"/>
<text text-anchor="start" x="98" y="-136.8" font-family="Helvetica,sans-Serif" font-size="11.00"> &#160;</text>
<polygon fill="#ffffff" stroke="none" points="108.5,-130.75 108.5,-150.25 170.75,-150.25 170.75,-130.75 108.5,-130.75"/>
<polygon fill="none" stroke="black" points="108.5,-130.75 108.5,-150.25 170.75,-150.25 170.75,-130.75 108.5,-130.75"/>
<text text-anchor="start" x="148.25" y="-136.8" font-family="Helvetica,sans-Serif" font-size="11.00">8 &gt;</text>
</a>
</g>
</g>
<!-- doc_archive_header&#45;&gt;doc_archive_item -->
<g id="edge1" class="edge">
<title>doc_archive_header:w&#45;&gt;doc_archive_item:e</title>
<path fill="none" stroke="black" d="M205.17,-180.95C194.46,-180.88 187.23,-180.75 171.75,-180.75"/>
<polygon fill="black" stroke="black" points="212.42,-180.97 220.4,-184.6 216.75,-180.99 220.08,-181 220.08,-181 220.08,-181 216.75,-180.99 220.43,-177.4 212.42,-180.97"/>
<ellipse fill="none" stroke="black" cx="207.5" cy="-180.96" rx="3.2" ry="3.2"/>
</g>
</g>
</svg>
