<?xml version="1.0" encoding="UTF-8" standalone="no"?>
<!DOCTYPE svg PUBLIC "-//W3C//DTD SVG 1.1//EN"
 "http://www.w3.org/Graphics/SVG/1.1/DTD/svg11.dtd">
<!-- Generated by graphviz version 12.2.0 (0)
 -->
<!-- Title: twoDegreesRelationshipsDiagram Pages: 1 -->
<svg width="1088pt" height="630pt"
 viewBox="0.00 0.00 1087.75 630.25" xmlns="http://www.w3.org/2000/svg" xmlns:xlink="http://www.w3.org/1999/xlink">
<g id="graph0" class="graph" transform="scale(1 1) rotate(0) translate(4 626.25)">
<title>twoDegreesRelationshipsDiagram</title>
<polygon fill="#ffffff" stroke="none" points="-4,4 -4,-626.25 1083.75,-626.25 1083.75,4 -4,4"/>
<text text-anchor="middle" x="79.25" y="-7.05" font-family="Helvetica,sans-Serif" font-size="11.00">Generated by SchemaSpy</text>
<!-- check_automatic_result -->
<g id="node1" class="node">
<title>check_automatic_result</title>
<g id="a_node1"><a xlink:href="../../tables/check_automatic_result.html" xlink:title="check_automatic_result" target="_top">
<polygon fill="#ffffff" stroke="none" points="867,-555.75 867,-618.25 1071.75,-618.25 1071.75,-555.75 867,-555.75"/>
<polygon fill="#f5f5f5" stroke="none" points="867,-594.75 867,-618.25 1071.75,-618.25 1071.75,-594.75 867,-594.75"/>
<polygon fill="none" stroke="black" points="867,-594.75 867,-618.25 1071.75,-618.25 1071.75,-594.75 867,-594.75"/>
<text text-anchor="start" x="872" y="-603.8" font-family="Helvetica,sans-Serif" font-weight="bold" font-size="11.00">check_automatic_result</text>
<text text-anchor="start" x="1030" y="-602.8" font-family="Helvetica,sans-Serif" font-size="11.00">[table]</text>
<polygon fill="none" stroke="black" points="867,-575.25 867,-594.75 1071.75,-594.75 1071.75,-575.25 867,-575.25"/>
<text text-anchor="start" x="870" y="-581.3" font-family="Helvetica,sans-Serif" font-size="11.00">...</text>
<polygon fill="#ffffff" stroke="none" points="867,-555.75 867,-575.25 943.25,-575.25 943.25,-555.75 867,-555.75"/>
<polygon fill="none" stroke="black" points="867,-555.75 867,-575.25 943.25,-575.25 943.25,-555.75 867,-555.75"/>
<text text-anchor="start" x="870" y="-561.8" font-family="Helvetica,sans-Serif" font-size="11.00">&lt; 6</text>
<polygon fill="#ffffff" stroke="none" points="943.25,-555.75 943.25,-575.25 1007.5,-575.25 1007.5,-555.75 943.25,-555.75"/>
<polygon fill="none" stroke="black" points="943.25,-555.75 943.25,-575.25 1007.5,-575.25 1007.5,-555.75 943.25,-555.75"/>
<text text-anchor="start" x="997" y="-561.8" font-family="Helvetica,sans-Serif" font-size="11.00"> &#160;</text>
<polygon fill="#ffffff" stroke="none" points="1007.5,-555.75 1007.5,-575.25 1071.75,-575.25 1071.75,-555.75 1007.5,-555.75"/>
<polygon fill="none" stroke="black" points="1007.5,-555.75 1007.5,-575.25 1071.75,-575.25 1071.75,-555.75 1007.5,-555.75"/>
<text text-anchor="start" x="1061.25" y="-561.8" font-family="Helvetica,sans-Serif" font-size="11.00"> &#160;</text>
</a>
</g>
</g>
<!-- doc_digital_document -->
<g id="node2" class="node">
<title>doc_digital_document</title>
<g id="a_node2"><a xlink:href="../../tables/doc_digital_document.html" xlink:title="doc_digital_document" target="_top">
<polygon fill="#ffffff" stroke="none" points="159.75,-372.75 159.75,-479.25 352.5,-479.25 352.5,-372.75 159.75,-372.75"/>
<polygon fill="#f5f5f5" stroke="none" points="159.75,-455.75 159.75,-479.25 352.5,-479.25 352.5,-455.75 159.75,-455.75"/>
<polygon fill="none" stroke="black" points="159.75,-455.75 159.75,-479.25 352.5,-479.25 352.5,-455.75 159.75,-455.75"/>
<text text-anchor="start" x="164.75" y="-464.8" font-family="Helvetica,sans-Serif" font-weight="bold" font-size="11.00">doc_digital_document</text>
<text text-anchor="start" x="310.75" y="-463.8" font-family="Helvetica,sans-Serif" font-size="11.00">[table]</text>
<polygon fill="none" stroke="black" points="159.75,-433.75 159.75,-455.75 352.5,-455.75 352.5,-433.75 159.75,-433.75"/>
<image xlink:href="../../images/primaryKeys.png" width="11px" height="12px" preserveAspectRatio="xMinYMin meet" x="164.75" y="-450.75"/>
<text text-anchor="start" x="192.62" y="-440.3" font-family="Helvetica,sans-Serif" font-size="11.00">identifier</text>
<polygon fill="#ffffff" stroke="none" points="159.75,-411.75 159.75,-433.75 352.5,-433.75 352.5,-411.75 159.75,-411.75"/>
<polygon fill="none" stroke="black" points="159.75,-411.75 159.75,-433.75 352.5,-433.75 352.5,-411.75 159.75,-411.75"/>
<image xlink:href="../../images/foreignKeys.png" width="11px" height="12px" preserveAspectRatio="xMinYMin meet" x="164.75" y="-428.75"/>
<text text-anchor="start" x="192.62" y="-418.3" font-family="Helvetica,sans-Serif" font-size="11.00">doc_unit</text>
<polygon fill="none" stroke="black" points="159.75,-392.25 159.75,-411.75 352.5,-411.75 352.5,-392.25 159.75,-392.25"/>
<text text-anchor="start" x="162.75" y="-398.3" font-family="Helvetica,sans-Serif" font-size="11.00">...</text>
<polygon fill="#ffffff" stroke="none" points="159.75,-372.75 159.75,-392.25 228,-392.25 228,-372.75 159.75,-372.75"/>
<polygon fill="none" stroke="black" points="159.75,-372.75 159.75,-392.25 228,-392.25 228,-372.75 159.75,-372.75"/>
<text text-anchor="start" x="162.75" y="-378.8" font-family="Helvetica,sans-Serif" font-size="11.00">&lt; 1</text>
<polygon fill="#ffffff" stroke="none" points="228,-372.75 228,-392.25 284.25,-392.25 284.25,-372.75 228,-372.75"/>
<polygon fill="none" stroke="black" points="228,-372.75 228,-392.25 284.25,-392.25 284.25,-372.75 228,-372.75"/>
<text text-anchor="start" x="273.75" y="-378.8" font-family="Helvetica,sans-Serif" font-size="11.00"> &#160;</text>
<polygon fill="#ffffff" stroke="none" points="284.25,-372.75 284.25,-392.25 352.5,-392.25 352.5,-372.75 284.25,-372.75"/>
<polygon fill="none" stroke="black" points="284.25,-372.75 284.25,-392.25 352.5,-392.25 352.5,-372.75 284.25,-372.75"/>
<text text-anchor="start" x="330" y="-378.8" font-family="Helvetica,sans-Serif" font-size="11.00">6 &gt;</text>
</a>
</g>
</g>
<!-- check_automatic_result&#45;&gt;doc_digital_document -->
<g id="edge1" class="edge">
<title>check_automatic_result:w&#45;&gt;doc_digital_document:e</title>
<path fill="none" stroke="black" d="M850.32,-585.25C761.98,-587.37 432.46,-601.43 393.5,-572 346.19,-536.27 412.78,-444.75 353.5,-444.75"/>
<polygon fill="black" stroke="black" points="857.67,-585.13 865.72,-588.6 862,-585.06 865.33,-585.01 865.33,-585.01 865.33,-585.01 862,-585.06 865.61,-581.41 857.67,-585.13"/>
<ellipse fill="none" stroke="black" cx="852.75" cy="-585.21" rx="3.2" ry="3.2"/>
</g>
<!-- doc_unit -->
<g id="node3" class="node">
<title>doc_unit</title>
<g id="a_node3"><a xlink:href="../../tables/doc_unit.html" xlink:title="doc_unit" target="_top">
<polygon fill="#ffffff" stroke="none" points="8,-487.75 8,-550.25 110.75,-550.25 110.75,-487.75 8,-487.75"/>
<polygon fill="#f5f5f5" stroke="none" points="8,-526.75 8,-550.25 110.75,-550.25 110.75,-526.75 8,-526.75"/>
<polygon fill="none" stroke="black" points="8,-526.75 8,-550.25 110.75,-550.25 110.75,-526.75 8,-526.75"/>
<text text-anchor="start" x="13" y="-535.8" font-family="Helvetica,sans-Serif" font-weight="bold" font-size="11.00">doc_unit</text>
<text text-anchor="start" x="69" y="-534.8" font-family="Helvetica,sans-Serif" font-size="11.00">[table]</text>
<polygon fill="none" stroke="black" points="8,-507.25 8,-526.75 110.75,-526.75 110.75,-507.25 8,-507.25"/>
<text text-anchor="start" x="11" y="-513.3" font-family="Helvetica,sans-Serif" font-size="11.00">...</text>
<polygon fill="#ffffff" stroke="none" points="8,-487.75 8,-507.25 48.5,-507.25 48.5,-487.75 8,-487.75"/>
<polygon fill="none" stroke="black" points="8,-487.75 8,-507.25 48.5,-507.25 48.5,-487.75 8,-487.75"/>
<text text-anchor="start" x="11" y="-493.8" font-family="Helvetica,sans-Serif" font-size="11.00">&lt; 13</text>
<polygon fill="#ffffff" stroke="none" points="48.5,-487.75 48.5,-507.25 70.25,-507.25 70.25,-487.75 48.5,-487.75"/>
<polygon fill="none" stroke="black" points="48.5,-487.75 48.5,-507.25 70.25,-507.25 70.25,-487.75 48.5,-487.75"/>
<text text-anchor="start" x="59.75" y="-493.8" font-family="Helvetica,sans-Serif" font-size="11.00"> &#160;</text>
<polygon fill="#ffffff" stroke="none" points="70.25,-487.75 70.25,-507.25 110.75,-507.25 110.75,-487.75 70.25,-487.75"/>
<polygon fill="none" stroke="black" points="70.25,-487.75 70.25,-507.25 110.75,-507.25 110.75,-487.75 70.25,-487.75"/>
<text text-anchor="start" x="81.5" y="-493.8" font-family="Helvetica,sans-Serif" font-size="11.00">11 &gt;</text>
</a>
</g>
</g>
<!-- check_automatic_result&#45;&gt;doc_unit -->
<g id="edge2" class="edge">
<title>check_automatic_result:w&#45;&gt;doc_unit:e</title>
<path fill="none" stroke="black" d="M850.53,-588.1C843.25,-591.32 837.83,-596.13 826,-598 758.06,-608.76 504.71,-606.65 393.5,-591 265.29,-572.96 241.22,-517 111.75,-517"/>
<polygon fill="black" stroke="black" points="857.83,-586.64 866.38,-588.6 862.08,-585.79 865.34,-585.13 865.34,-585.13 865.34,-585.13 862.08,-585.79 864.96,-581.54 857.83,-586.64"/>
<ellipse fill="none" stroke="black" cx="853.01" cy="-587.61" rx="3.2" ry="3.2"/>
</g>
<!-- doc_page -->
<g id="node4" class="node">
<title>doc_page</title>
<g id="a_node4"><a xlink:href="../../tables/doc_page.html" xlink:title="doc_page" target="_top">
<polygon fill="#ffffff" stroke="none" points="708.25,-414.75 708.25,-477.25 818,-477.25 818,-414.75 708.25,-414.75"/>
<polygon fill="#f5f5f5" stroke="none" points="708.25,-453.75 708.25,-477.25 818,-477.25 818,-453.75 708.25,-453.75"/>
<polygon fill="none" stroke="black" points="708.25,-453.75 708.25,-477.25 818,-477.25 818,-453.75 708.25,-453.75"/>
<text text-anchor="start" x="713.25" y="-462.8" font-family="Helvetica,sans-Serif" font-weight="bold" font-size="11.00">doc_page</text>
<text text-anchor="start" x="776.25" y="-461.8" font-family="Helvetica,sans-Serif" font-size="11.00">[table]</text>
<polygon fill="none" stroke="black" points="708.25,-434.25 708.25,-453.75 818,-453.75 818,-434.25 708.25,-434.25"/>
<text text-anchor="start" x="711.25" y="-440.3" font-family="Helvetica,sans-Serif" font-size="11.00">...</text>
<polygon fill="#ffffff" stroke="none" points="708.25,-414.75 708.25,-434.25 748.83,-434.25 748.83,-414.75 708.25,-414.75"/>
<polygon fill="none" stroke="black" points="708.25,-414.75 708.25,-434.25 748.83,-434.25 748.83,-414.75 708.25,-414.75"/>
<text text-anchor="start" x="711.25" y="-420.8" font-family="Helvetica,sans-Serif" font-size="11.00">&lt; 2</text>
<polygon fill="#ffffff" stroke="none" points="748.83,-414.75 748.83,-434.25 777.42,-434.25 777.42,-414.75 748.83,-414.75"/>
<polygon fill="none" stroke="black" points="748.83,-414.75 748.83,-434.25 777.42,-434.25 777.42,-414.75 748.83,-414.75"/>
<text text-anchor="start" x="766.92" y="-420.8" font-family="Helvetica,sans-Serif" font-size="11.00"> &#160;</text>
<polygon fill="#ffffff" stroke="none" points="777.42,-414.75 777.42,-434.25 818,-434.25 818,-414.75 777.42,-414.75"/>
<polygon fill="none" stroke="black" points="777.42,-414.75 777.42,-434.25 818,-434.25 818,-414.75 777.42,-414.75"/>
<text text-anchor="start" x="795.5" y="-420.8" font-family="Helvetica,sans-Serif" font-size="11.00">3 &gt;</text>
</a>
</g>
</g>
<!-- check_automatic_result&#45;&gt;doc_page -->
<g id="edge3" class="edge">
<title>check_automatic_result:w&#45;&gt;doc_page:e</title>
<path fill="none" stroke="black" d="M850.69,-581.23C815.13,-558.81 878.61,-444 819,-444"/>
<polygon fill="black" stroke="black" points="857.91,-583.01 864.81,-588.42 862.12,-584.04 865.35,-584.84 865.35,-584.84 865.35,-584.84 862.12,-584.04 866.54,-581.42 857.91,-583.01"/>
<ellipse fill="none" stroke="black" cx="853.13" cy="-581.83" rx="3.2" ry="3.2"/>
</g>
<!-- doc_digital_document&#45;&gt;doc_unit -->
<g id="edge5" class="edge">
<title>doc_digital_document:w&#45;&gt;doc_unit:e</title>
<path fill="none" stroke="black" d="M144.03,-427.82C123.21,-447.39 151.98,-517 111.75,-517"/>
<polygon fill="black" stroke="black" points="150.87,-425.46 159.61,-426.26 154.97,-424.05 158.12,-422.97 158.12,-422.97 158.12,-422.97 154.97,-424.05 157.26,-419.45 150.87,-425.46"/>
<ellipse fill="none" stroke="black" cx="146.22" cy="-427.06" rx="3.2" ry="3.2"/>
</g>
<!-- doc_page&#45;&gt;doc_digital_document -->
<g id="edge7" class="edge">
<title>doc_page:w&#45;&gt;doc_digital_document:e</title>
<path fill="none" stroke="black" d="M692.81,-438.23C684.32,-428.94 684.13,-410.99 667.25,-404 611.05,-380.72 449.59,-380.46 393.5,-404 370.1,-413.82 378.88,-444.75 353.5,-444.75"/>
<polygon fill="black" stroke="black" points="699.51,-440.91 705.6,-447.22 703.54,-442.52 706.63,-443.75 706.63,-443.75 706.63,-443.75 703.54,-442.52 708.28,-440.53 699.51,-440.91"/>
<ellipse fill="none" stroke="black" cx="694.94" cy="-439.08" rx="3.2" ry="3.2"/>
</g>
<!-- doc_sample -->
<g id="node7" class="node">
<title>doc_sample</title>
<g id="a_node7"><a xlink:href="../../tables/doc_sample.html" xlink:title="doc_sample" target="_top">
<polygon fill="#ffffff" stroke="none" points="468,-414.75 468,-477.25 592.75,-477.25 592.75,-414.75 468,-414.75"/>
<polygon fill="#f5f5f5" stroke="none" points="468,-453.75 468,-477.25 592.75,-477.25 592.75,-453.75 468,-453.75"/>
<polygon fill="none" stroke="black" points="468,-453.75 468,-477.25 592.75,-477.25 592.75,-453.75 468,-453.75"/>
<text text-anchor="start" x="473" y="-462.8" font-family="Helvetica,sans-Serif" font-weight="bold" font-size="11.00">doc_sample</text>
<text text-anchor="start" x="551" y="-461.8" font-family="Helvetica,sans-Serif" font-size="11.00">[table]</text>
<polygon fill="none" stroke="black" points="468,-434.25 468,-453.75 592.75,-453.75 592.75,-434.25 468,-434.25"/>
<text text-anchor="start" x="471" y="-440.3" font-family="Helvetica,sans-Serif" font-size="11.00">...</text>
<polygon fill="#ffffff" stroke="none" points="468,-414.75 468,-434.25 513.58,-434.25 513.58,-414.75 468,-414.75"/>
<polygon fill="none" stroke="black" points="468,-414.75 468,-434.25 513.58,-434.25 513.58,-414.75 468,-414.75"/>
<text text-anchor="start" x="471" y="-420.8" font-family="Helvetica,sans-Serif" font-size="11.00">&lt; 2</text>
<polygon fill="#ffffff" stroke="none" points="513.58,-414.75 513.58,-434.25 547.17,-434.25 547.17,-414.75 513.58,-414.75"/>
<polygon fill="none" stroke="black" points="513.58,-414.75 513.58,-434.25 547.17,-434.25 547.17,-414.75 513.58,-414.75"/>
<text text-anchor="start" x="536.67" y="-420.8" font-family="Helvetica,sans-Serif" font-size="11.00"> &#160;</text>
<polygon fill="#ffffff" stroke="none" points="547.17,-414.75 547.17,-434.25 592.75,-434.25 592.75,-414.75 547.17,-414.75"/>
<polygon fill="none" stroke="black" points="547.17,-414.75 547.17,-434.25 592.75,-434.25 592.75,-414.75 547.17,-414.75"/>
<text text-anchor="start" x="570.25" y="-420.8" font-family="Helvetica,sans-Serif" font-size="11.00">1 &gt;</text>
</a>
</g>
</g>
<!-- doc_page&#45;&gt;doc_sample -->
<g id="edge8" class="edge">
<title>doc_page:w&#45;&gt;doc_sample:e</title>
<path fill="none" stroke="black" d="M691.45,-444C653.46,-444 638.48,-444 593.75,-444"/>
<polygon fill="black" stroke="black" points="698.92,-444 706.92,-447.6 703.25,-444 706.58,-444 706.58,-444 706.58,-444 703.25,-444 706.92,-440.4 698.92,-444"/>
<ellipse fill="none" stroke="black" cx="694" cy="-444" rx="3.2" ry="3.2"/>
</g>
<!-- del_delivered_document -->
<g id="node5" class="node">
<title>del_delivered_document</title>
<g id="a_node5"><a xlink:href="../../tables/del_delivered_document.html" xlink:title="del_delivered_document" target="_top">
<polygon fill="#ffffff" stroke="none" points="425.5,-304.75 425.5,-367.25 635.25,-367.25 635.25,-304.75 425.5,-304.75"/>
<polygon fill="#f5f5f5" stroke="none" points="425.5,-343.75 425.5,-367.25 635.25,-367.25 635.25,-343.75 425.5,-343.75"/>
<polygon fill="none" stroke="black" points="425.5,-343.75 425.5,-367.25 635.25,-367.25 635.25,-343.75 425.5,-343.75"/>
<text text-anchor="start" x="430.5" y="-352.8" font-family="Helvetica,sans-Serif" font-weight="bold" font-size="11.00">del_delivered_document</text>
<text text-anchor="start" x="593.5" y="-351.8" font-family="Helvetica,sans-Serif" font-size="11.00">[table]</text>
<polygon fill="none" stroke="black" points="425.5,-324.25 425.5,-343.75 635.25,-343.75 635.25,-324.25 425.5,-324.25"/>
<text text-anchor="start" x="428.5" y="-330.3" font-family="Helvetica,sans-Serif" font-size="11.00">...</text>
<polygon fill="#ffffff" stroke="none" points="425.5,-304.75 425.5,-324.25 503.42,-324.25 503.42,-304.75 425.5,-304.75"/>
<polygon fill="none" stroke="black" points="425.5,-304.75 425.5,-324.25 503.42,-324.25 503.42,-304.75 425.5,-304.75"/>
<text text-anchor="start" x="428.5" y="-310.8" font-family="Helvetica,sans-Serif" font-size="11.00">&lt; 3</text>
<polygon fill="#ffffff" stroke="none" points="503.42,-304.75 503.42,-324.25 569.33,-324.25 569.33,-304.75 503.42,-304.75"/>
<polygon fill="none" stroke="black" points="503.42,-304.75 503.42,-324.25 569.33,-324.25 569.33,-304.75 503.42,-304.75"/>
<text text-anchor="start" x="558.83" y="-310.8" font-family="Helvetica,sans-Serif" font-size="11.00"> &#160;</text>
<polygon fill="#ffffff" stroke="none" points="569.33,-304.75 569.33,-324.25 635.25,-324.25 635.25,-304.75 569.33,-304.75"/>
<polygon fill="none" stroke="black" points="569.33,-304.75 569.33,-324.25 635.25,-324.25 635.25,-304.75 569.33,-304.75"/>
<text text-anchor="start" x="624.75" y="-310.8" font-family="Helvetica,sans-Serif" font-size="11.00"> &#160;</text>
</a>
</g>
</g>
<!-- del_delivered_document&#45;&gt;doc_digital_document -->
<g id="edge4" class="edge">
<title>del_delivered_document:w&#45;&gt;doc_digital_document:e</title>
<path fill="none" stroke="black" d="M409.24,-337.44C374.56,-356.13 405.8,-444.75 353.5,-444.75"/>
<polygon fill="black" stroke="black" points="416.37,-335.83 424.96,-337.59 420.6,-334.88 423.85,-334.15 423.85,-334.15 423.85,-334.15 420.6,-334.88 423.38,-330.56 416.37,-335.83"/>
<ellipse fill="none" stroke="black" cx="411.57" cy="-336.91" rx="3.2" ry="3.2"/>
</g>
<!-- doc_global_check -->
<g id="node6" class="node">
<title>doc_global_check</title>
<g id="a_node6"><a xlink:href="../../tables/doc_global_check.html" xlink:title="doc_global_check" target="_top">
<polygon fill="#ffffff" stroke="none" points="401.5,-38.5 401.5,-283.5 659.25,-283.5 659.25,-38.5 401.5,-38.5"/>
<polygon fill="#f5f5f5" stroke="none" points="403.5,-258 403.5,-281.5 657.25,-281.5 657.25,-258 403.5,-258"/>
<polygon fill="none" stroke="black" points="403.5,-258 403.5,-281.5 657.25,-281.5 657.25,-258 403.5,-258"/>
<text text-anchor="start" x="408.5" y="-267.05" font-family="Helvetica,sans-Serif" font-weight="bold" font-size="11.00">doc_global_check</text>
<text text-anchor="start" x="615.5" y="-266.05" font-family="Helvetica,sans-Serif" font-size="11.00">[table]</text>
<polygon fill="none" stroke="black" points="403.5,-236 403.5,-258 551.5,-258 551.5,-236 403.5,-236"/>
<image xlink:href="../../images/primaryKeys.png" width="11px" height="12px" preserveAspectRatio="xMinYMin meet" x="408.5" y="-253"/>
<text text-anchor="start" x="423.5" y="-242.55" font-family="Helvetica,sans-Serif" font-size="11.00">identifier</text>
<polygon fill="none" stroke="black" points="551.5,-236 551.5,-258 648.25,-258 648.25,-236 551.5,-236"/>
<text text-anchor="start" x="554.5" y="-243.3" font-family="Helvetica,sans-Serif" font-size="11.00">varchar[191]</text>
<polygon fill="none" stroke="black" points="403.5,-214 403.5,-236 551.5,-236 551.5,-214 403.5,-214"/>
<text text-anchor="start" x="423.5" y="-220.55" font-family="Helvetica,sans-Serif" font-size="11.00">err_label</text>
<polygon fill="none" stroke="black" points="551.5,-214 551.5,-236 648.25,-236 648.25,-214 551.5,-214"/>
<text text-anchor="start" x="554.5" y="-221.3" font-family="Helvetica,sans-Serif" font-size="11.00">varchar[255]</text>
<polygon fill="none" stroke="black" points="403.5,-192 403.5,-214 551.5,-214 551.5,-192 403.5,-192"/>
<text text-anchor="start" x="423.5" y="-198.55" font-family="Helvetica,sans-Serif" font-size="11.00">err_type</text>
<polygon fill="none" stroke="black" points="551.5,-192 551.5,-214 648.25,-214 648.25,-192 551.5,-192"/>
<text text-anchor="start" x="554.5" y="-199.3" font-family="Helvetica,sans-Serif" font-size="11.00">varchar[255]</text>
<polygon fill="#ffffff" stroke="none" points="403.5,-170 403.5,-192 551.5,-192 551.5,-170 403.5,-170"/>
<polygon fill="none" stroke="black" points="403.5,-170 403.5,-192 551.5,-192 551.5,-170 403.5,-170"/>
<image xlink:href="../../images/foreignKeys.png" width="11px" height="12px" preserveAspectRatio="xMinYMin meet" x="408.5" y="-187"/>
<text text-anchor="start" x="423.5" y="-176.55" font-family="Helvetica,sans-Serif" font-size="11.00">digital_document</text>
<polygon fill="none" stroke="black" points="551.5,-170 551.5,-192 648.25,-192 648.25,-170 551.5,-170"/>
<text text-anchor="start" x="554.5" y="-177.3" font-family="Helvetica,sans-Serif" font-size="11.00">varchar[191]</text>
<polygon fill="none" stroke="black" points="403.5,-148 403.5,-170 551.5,-170 551.5,-148 403.5,-148"/>
<text text-anchor="start" x="423.5" y="-154.55" font-family="Helvetica,sans-Serif" font-size="11.00">version</text>
<polygon fill="none" stroke="black" points="551.5,-148 551.5,-170 648.25,-170 648.25,-148 551.5,-148"/>
<text text-anchor="start" x="554.5" y="-155.3" font-family="Helvetica,sans-Serif" font-size="11.00">bigint[19]</text>
<polygon fill="none" stroke="black" points="403.5,-126 403.5,-148 551.5,-148 551.5,-126 403.5,-126"/>
<text text-anchor="start" x="423.5" y="-132.55" font-family="Helvetica,sans-Serif" font-size="11.00">created_by</text>
<polygon fill="none" stroke="black" points="551.5,-126 551.5,-148 648.25,-148 648.25,-126 551.5,-126"/>
<text text-anchor="start" x="554.5" y="-133.3" font-family="Helvetica,sans-Serif" font-size="11.00">varchar[191]</text>
<polygon fill="none" stroke="black" points="403.5,-104 403.5,-126 551.5,-126 551.5,-104 403.5,-104"/>
<text text-anchor="start" x="423.5" y="-110.55" font-family="Helvetica,sans-Serif" font-size="11.00">last_modified_by</text>
<polygon fill="none" stroke="black" points="551.5,-104 551.5,-126 648.25,-126 648.25,-104 551.5,-104"/>
<text text-anchor="start" x="554.5" y="-111.3" font-family="Helvetica,sans-Serif" font-size="11.00">varchar[191]</text>
<polygon fill="none" stroke="black" points="403.5,-82 403.5,-104 551.5,-104 551.5,-82 403.5,-82"/>
<text text-anchor="start" x="423.5" y="-88.55" font-family="Helvetica,sans-Serif" font-size="11.00">created_date</text>
<polygon fill="none" stroke="black" points="551.5,-82 551.5,-104 648.25,-104 648.25,-82 551.5,-82"/>
<text text-anchor="start" x="554.5" y="-89.3" font-family="Helvetica,sans-Serif" font-size="11.00">timestamp[19]</text>
<polygon fill="none" stroke="black" points="403.5,-60 403.5,-82 551.5,-82 551.5,-60 403.5,-60"/>
<text text-anchor="start" x="423.5" y="-66.55" font-family="Helvetica,sans-Serif" font-size="11.00">last_modified_date</text>
<polygon fill="none" stroke="black" points="551.5,-60 551.5,-82 648.25,-82 648.25,-60 551.5,-60"/>
<text text-anchor="start" x="554.5" y="-67.3" font-family="Helvetica,sans-Serif" font-size="11.00">timestamp[19]</text>
<polygon fill="#ffffff" stroke="none" points="403.5,-40.5 403.5,-60 483.5,-60 483.5,-40.5 403.5,-40.5"/>
<polygon fill="none" stroke="black" points="403.5,-40.5 403.5,-60 483.5,-60 483.5,-40.5 403.5,-40.5"/>
<text text-anchor="start" x="406.5" y="-46.55" font-family="Helvetica,sans-Serif" font-size="11.00">&lt; 1</text>
<polygon fill="#ffffff" stroke="none" points="483.5,-40.5 483.5,-60 551.5,-60 551.5,-40.5 483.5,-40.5"/>
<polygon fill="none" stroke="black" points="483.5,-40.5 483.5,-60 551.5,-60 551.5,-40.5 483.5,-40.5"/>
<text text-anchor="start" x="541" y="-46.55" font-family="Helvetica,sans-Serif" font-size="11.00"> &#160;</text>
<polygon fill="#ffffff" stroke="none" points="551.5,-40.5 551.5,-60 648.25,-60 648.25,-40.5 551.5,-40.5"/>
<polygon fill="none" stroke="black" points="551.5,-40.5 551.5,-60 648.25,-60 648.25,-40.5 551.5,-40.5"/>
<text text-anchor="start" x="625.75" y="-46.55" font-family="Helvetica,sans-Serif" font-size="11.00">0 &gt;</text>
<polygon fill="none" stroke="black" stroke-width="2" points="402.5,-39.5 402.5,-282.5 658.25,-282.5 658.25,-39.5 402.5,-39.5"/>
</a>
</g>
</g>
<!-- doc_global_check&#45;&gt;doc_digital_document -->
<g id="edge6" class="edge">
<title>doc_global_check:w&#45;&gt;doc_digital_document:e</title>
<path fill="none" stroke="black" d="M388.51,-188.05C355.36,-230 407.29,-444.75 353.5,-444.75"/>
<polygon fill="black" stroke="black" points="395.06,-184.75 403.82,-184.37 398.93,-182.8 401.9,-181.3 401.9,-181.3 401.9,-181.3 398.93,-182.8 400.58,-177.94 395.06,-184.75"/>
<ellipse fill="none" stroke="black" cx="390.67" cy="-186.97" rx="3.2" ry="3.2"/>
</g>
<!-- doc_sample&#45;&gt;doc_digital_document -->
<g id="edge10" class="edge">
<title>doc_sample:w&#45;&gt;doc_digital_document:e</title>
<path fill="none" stroke="black" d="M451.2,-444.03C413.21,-444.16 398.23,-444.75 353.5,-444.75"/>
<polygon fill="black" stroke="black" points="458.67,-444.01 466.67,-447.6 463,-444.01 466.33,-444 466.33,-444 466.33,-444 463,-444.01 466.66,-440.4 458.67,-444.01"/>
<ellipse fill="none" stroke="black" cx="453.75" cy="-444.02" rx="3.2" ry="3.2"/>
</g>
<!-- doc_physical_document_digital -->
<g id="node8" class="node">
<title>doc_physical_document_digital</title>
<g id="a_node8"><a xlink:href="../../tables/doc_physical_document_digital.html" xlink:title="doc_physical_document_digital" target="_top">
<polygon fill="#ffffff" stroke="none" points="403,-498.75 403,-561.25 657.75,-561.25 657.75,-498.75 403,-498.75"/>
<polygon fill="#f5f5f5" stroke="none" points="403,-537.75 403,-561.25 657.75,-561.25 657.75,-537.75 403,-537.75"/>
<polygon fill="none" stroke="black" points="403,-537.75 403,-561.25 657.75,-561.25 657.75,-537.75 403,-537.75"/>
<text text-anchor="start" x="408" y="-546.8" font-family="Helvetica,sans-Serif" font-weight="bold" font-size="11.00">doc_physical_document_digital</text>
<text text-anchor="start" x="616" y="-545.8" font-family="Helvetica,sans-Serif" font-size="11.00">[table]</text>
<polygon fill="none" stroke="black" points="403,-518.25 403,-537.75 657.75,-537.75 657.75,-518.25 403,-518.25"/>
<text text-anchor="start" x="406" y="-524.3" font-family="Helvetica,sans-Serif" font-size="11.00">...</text>
<polygon fill="#ffffff" stroke="none" points="403,-498.75 403,-518.25 495.92,-518.25 495.92,-498.75 403,-498.75"/>
<polygon fill="none" stroke="black" points="403,-498.75 403,-518.25 495.92,-518.25 495.92,-498.75 403,-498.75"/>
<text text-anchor="start" x="406" y="-504.8" font-family="Helvetica,sans-Serif" font-size="11.00">&lt; 2</text>
<polygon fill="#ffffff" stroke="none" points="495.92,-498.75 495.92,-518.25 576.83,-518.25 576.83,-498.75 495.92,-498.75"/>
<polygon fill="none" stroke="black" points="495.92,-498.75 495.92,-518.25 576.83,-518.25 576.83,-498.75 495.92,-498.75"/>
<text text-anchor="start" x="566.33" y="-504.8" font-family="Helvetica,sans-Serif" font-size="11.00"> &#160;</text>
<polygon fill="#ffffff" stroke="none" points="576.83,-498.75 576.83,-518.25 657.75,-518.25 657.75,-498.75 576.83,-498.75"/>
<polygon fill="none" stroke="black" points="576.83,-498.75 576.83,-518.25 657.75,-518.25 657.75,-498.75 576.83,-498.75"/>
<text text-anchor="start" x="647.25" y="-504.8" font-family="Helvetica,sans-Serif" font-size="11.00"> &#160;</text>
</a>
</g>
</g>
<!-- doc_physical_document_digital&#45;&gt;doc_digital_document -->
<g id="edge9" class="edge">
<title>doc_physical_document_digital:w&#45;&gt;doc_digital_document:e</title>
<path fill="none" stroke="black" d="M387.17,-522.54C368.83,-504.02 389.63,-444.75 353.5,-444.75"/>
<polygon fill="black" stroke="black" points="394.18,-525.12 400.44,-531.26 398.25,-526.62 401.37,-527.77 401.37,-527.77 401.37,-527.77 398.25,-526.62 402.93,-524.51 394.18,-525.12"/>
<ellipse fill="none" stroke="black" cx="389.56" cy="-523.42" rx="3.2" ry="3.2"/>
</g>
</g>
</svg>
