<?xml version="1.0" encoding="UTF-8" standalone="no"?>
<!DOCTYPE svg PUBLIC "-//W3C//DTD SVG 1.1//EN"
 "http://www.w3.org/Graphics/SVG/1.1/DTD/svg11.dtd">
<!-- Generated by graphviz version 12.2.0 (0)
 -->
<!-- Title: twoDegreesRelationshipsDiagram Pages: 1 -->
<svg width="510pt" height="861pt"
 viewBox="0.00 0.00 509.50 861.00" xmlns="http://www.w3.org/2000/svg" xmlns:xlink="http://www.w3.org/1999/xlink">
<g id="graph0" class="graph" transform="scale(1 1) rotate(0) translate(4 857)">
<title>twoDegreesRelationshipsDiagram</title>
<polygon fill="#ffffff" stroke="none" points="-4,4 -4,-857 505.5,-857 505.5,4 -4,4"/>
<text text-anchor="middle" x="79.25" y="-7.05" font-family="Helvetica,sans-Serif" font-size="11.00">Generated by SchemaSpy</text>
<!-- doc_archive_collection -->
<g id="node1" class="node">
<title>doc_archive_collection</title>
<g id="a_node1"><a xlink:href="../../tables/doc_archive_collection.html" xlink:title="doc_archive_collection" target="_top">
<polygon fill="#ffffff" stroke="none" points="257.75,-786.5 257.75,-849 455.5,-849 455.5,-786.5 257.75,-786.5"/>
<polygon fill="#f5f5f5" stroke="none" points="257.75,-825.5 257.75,-849 455.5,-849 455.5,-825.5 257.75,-825.5"/>
<polygon fill="none" stroke="black" points="257.75,-825.5 257.75,-849 455.5,-849 455.5,-825.5 257.75,-825.5"/>
<text text-anchor="start" x="262.75" y="-834.55" font-family="Helvetica,sans-Serif" font-weight="bold" font-size="11.00">doc_archive_collection</text>
<text text-anchor="start" x="413.75" y="-833.55" font-family="Helvetica,sans-Serif" font-size="11.00">[table]</text>
<polygon fill="none" stroke="black" points="257.75,-806 257.75,-825.5 455.5,-825.5 455.5,-806 257.75,-806"/>
<text text-anchor="start" x="260.75" y="-812.05" font-family="Helvetica,sans-Serif" font-size="11.00">...</text>
<polygon fill="#ffffff" stroke="none" points="257.75,-786.5 257.75,-806 331.67,-806 331.67,-786.5 257.75,-786.5"/>
<polygon fill="none" stroke="black" points="257.75,-786.5 257.75,-806 331.67,-806 331.67,-786.5 257.75,-786.5"/>
<text text-anchor="start" x="260.75" y="-792.55" font-family="Helvetica,sans-Serif" font-size="11.00">&lt; 1</text>
<polygon fill="#ffffff" stroke="none" points="331.67,-786.5 331.67,-806 393.58,-806 393.58,-786.5 331.67,-786.5"/>
<polygon fill="none" stroke="black" points="331.67,-786.5 331.67,-806 393.58,-806 393.58,-786.5 331.67,-786.5"/>
<text text-anchor="start" x="383.08" y="-792.55" font-family="Helvetica,sans-Serif" font-size="11.00"> &#160;</text>
<polygon fill="#ffffff" stroke="none" points="393.58,-786.5 393.58,-806 455.5,-806 455.5,-786.5 393.58,-786.5"/>
<polygon fill="none" stroke="black" points="393.58,-786.5 393.58,-806 455.5,-806 455.5,-786.5 393.58,-786.5"/>
<text text-anchor="start" x="445" y="-792.55" font-family="Helvetica,sans-Serif" font-size="11.00"> &#160;</text>
</a>
</g>
</g>
<!-- doc_archive_item -->
<g id="node2" class="node">
<title>doc_archive_item</title>
<g id="a_node2"><a xlink:href="../../tables/doc_archive_item.html" xlink:title="doc_archive_item" target="_top">
<polygon fill="#ffffff" stroke="none" points="8,-368.5 8,-453 170.75,-453 170.75,-368.5 8,-368.5"/>
<polygon fill="#f5f5f5" stroke="none" points="8,-429.5 8,-453 170.75,-453 170.75,-429.5 8,-429.5"/>
<polygon fill="none" stroke="black" points="8,-429.5 8,-453 170.75,-453 170.75,-429.5 8,-429.5"/>
<text text-anchor="start" x="13" y="-438.55" font-family="Helvetica,sans-Serif" font-weight="bold" font-size="11.00">doc_archive_item</text>
<text text-anchor="start" x="129" y="-437.55" font-family="Helvetica,sans-Serif" font-size="11.00">[table]</text>
<polygon fill="none" stroke="black" points="8,-407.5 8,-429.5 170.75,-429.5 170.75,-407.5 8,-407.5"/>
<image xlink:href="../../images/primaryKeys.png" width="11px" height="12px" preserveAspectRatio="xMinYMin meet" x="13" y="-424.5"/>
<text text-anchor="start" x="35.38" y="-414.05" font-family="Helvetica,sans-Serif" font-size="11.00">identifier</text>
<polygon fill="none" stroke="black" points="8,-388 8,-407.5 170.75,-407.5 170.75,-388 8,-388"/>
<text text-anchor="start" x="11" y="-394.05" font-family="Helvetica,sans-Serif" font-size="11.00">...</text>
<polygon fill="#ffffff" stroke="none" points="8,-368.5 8,-388 58.25,-388 58.25,-368.5 8,-368.5"/>
<polygon fill="none" stroke="black" points="8,-368.5 8,-388 58.25,-388 58.25,-368.5 8,-368.5"/>
<text text-anchor="start" x="11" y="-374.55" font-family="Helvetica,sans-Serif" font-size="11.00"> &#160;</text>
<polygon fill="#ffffff" stroke="none" points="58.25,-368.5 58.25,-388 108.5,-388 108.5,-368.5 58.25,-368.5"/>
<polygon fill="none" stroke="black" points="58.25,-368.5 58.25,-388 108.5,-388 108.5,-368.5 58.25,-368.5"/>
<text text-anchor="start" x="98" y="-374.55" font-family="Helvetica,sans-Serif" font-size="11.00"> &#160;</text>
<polygon fill="#ffffff" stroke="none" points="108.5,-368.5 108.5,-388 170.75,-388 170.75,-368.5 108.5,-368.5"/>
<polygon fill="none" stroke="black" points="108.5,-368.5 108.5,-388 170.75,-388 170.75,-368.5 108.5,-368.5"/>
<text text-anchor="start" x="148.25" y="-374.55" font-family="Helvetica,sans-Serif" font-size="11.00">8 &gt;</text>
</a>
</g>
</g>
<!-- doc_archive_collection&#45;&gt;doc_archive_item -->
<g id="edge1" class="edge">
<title>doc_archive_collection:w&#45;&gt;doc_archive_item:e</title>
<path fill="none" stroke="black" d="M241.45,-813.35C226.97,-808.01 221.27,-794.13 211.75,-775.75 175.01,-704.81 251.63,-418.5 171.75,-418.5"/>
<polygon fill="black" stroke="black" points="248.52,-814.46 255.86,-819.25 252.8,-815.13 256.09,-815.65 256.09,-815.65 256.09,-815.65 252.8,-815.13 256.98,-812.14 248.52,-814.46"/>
<ellipse fill="none" stroke="black" cx="243.66" cy="-813.7" rx="3.2" ry="3.2"/>
</g>
<!-- doc_archive_contributor -->
<g id="node3" class="node">
<title>doc_archive_contributor</title>
<g id="a_node3"><a xlink:href="../../tables/doc_archive_contributor.html" xlink:title="doc_archive_contributor" target="_top">
<polygon fill="#ffffff" stroke="none" points="252.25,-702.5 252.25,-765 461,-765 461,-702.5 252.25,-702.5"/>
<polygon fill="#f5f5f5" stroke="none" points="252.25,-741.5 252.25,-765 461,-765 461,-741.5 252.25,-741.5"/>
<polygon fill="none" stroke="black" points="252.25,-741.5 252.25,-765 461,-765 461,-741.5 252.25,-741.5"/>
<text text-anchor="start" x="257.25" y="-750.55" font-family="Helvetica,sans-Serif" font-weight="bold" font-size="11.00">doc_archive_contributor</text>
<text text-anchor="start" x="419.25" y="-749.55" font-family="Helvetica,sans-Serif" font-size="11.00">[table]</text>
<polygon fill="none" stroke="black" points="252.25,-722 252.25,-741.5 461,-741.5 461,-722 252.25,-722"/>
<text text-anchor="start" x="255.25" y="-728.05" font-family="Helvetica,sans-Serif" font-size="11.00">...</text>
<polygon fill="#ffffff" stroke="none" points="252.25,-702.5 252.25,-722 329.83,-722 329.83,-702.5 252.25,-702.5"/>
<polygon fill="none" stroke="black" points="252.25,-702.5 252.25,-722 329.83,-722 329.83,-702.5 252.25,-702.5"/>
<text text-anchor="start" x="255.25" y="-708.55" font-family="Helvetica,sans-Serif" font-size="11.00">&lt; 1</text>
<polygon fill="#ffffff" stroke="none" points="329.83,-702.5 329.83,-722 395.42,-722 395.42,-702.5 329.83,-702.5"/>
<polygon fill="none" stroke="black" points="329.83,-702.5 329.83,-722 395.42,-722 395.42,-702.5 329.83,-702.5"/>
<text text-anchor="start" x="384.92" y="-708.55" font-family="Helvetica,sans-Serif" font-size="11.00"> &#160;</text>
<polygon fill="#ffffff" stroke="none" points="395.42,-702.5 395.42,-722 461,-722 461,-702.5 395.42,-702.5"/>
<polygon fill="none" stroke="black" points="395.42,-702.5 395.42,-722 461,-722 461,-702.5 395.42,-702.5"/>
<text text-anchor="start" x="450.5" y="-708.55" font-family="Helvetica,sans-Serif" font-size="11.00"> &#160;</text>
</a>
</g>
</g>
<!-- doc_archive_contributor&#45;&gt;doc_archive_item -->
<g id="edge2" class="edge">
<title>doc_archive_contributor:w&#45;&gt;doc_archive_item:e</title>
<path fill="none" stroke="black" d="M236.1,-728.64C224.09,-722.64 220.11,-708.52 211.75,-691.75 184.38,-636.82 233.12,-418.5 171.75,-418.5"/>
<polygon fill="black" stroke="black" points="243.09,-730.08 250.2,-735.21 247.33,-730.95 250.59,-731.62 250.59,-731.62 250.59,-731.62 247.33,-730.95 251.65,-728.16 243.09,-730.08"/>
<ellipse fill="none" stroke="black" cx="238.27" cy="-729.09" rx="3.2" ry="3.2"/>
</g>
<!-- doc_archive_coverage -->
<g id="node4" class="node">
<title>doc_archive_coverage</title>
<g id="a_node4"><a xlink:href="../../tables/doc_archive_coverage.html" xlink:title="doc_archive_coverage" target="_top">
<polygon fill="#ffffff" stroke="none" points="259.75,-618.5 259.75,-681 453.5,-681 453.5,-618.5 259.75,-618.5"/>
<polygon fill="#f5f5f5" stroke="none" points="259.75,-657.5 259.75,-681 453.5,-681 453.5,-657.5 259.75,-657.5"/>
<polygon fill="none" stroke="black" points="259.75,-657.5 259.75,-681 453.5,-681 453.5,-657.5 259.75,-657.5"/>
<text text-anchor="start" x="264.75" y="-666.55" font-family="Helvetica,sans-Serif" font-weight="bold" font-size="11.00">doc_archive_coverage</text>
<text text-anchor="start" x="411.75" y="-665.55" font-family="Helvetica,sans-Serif" font-size="11.00">[table]</text>
<polygon fill="none" stroke="black" points="259.75,-638 259.75,-657.5 453.5,-657.5 453.5,-638 259.75,-638"/>
<text text-anchor="start" x="262.75" y="-644.05" font-family="Helvetica,sans-Serif" font-size="11.00">...</text>
<polygon fill="#ffffff" stroke="none" points="259.75,-618.5 259.75,-638 332.33,-638 332.33,-618.5 259.75,-618.5"/>
<polygon fill="none" stroke="black" points="259.75,-618.5 259.75,-638 332.33,-638 332.33,-618.5 259.75,-618.5"/>
<text text-anchor="start" x="262.75" y="-624.55" font-family="Helvetica,sans-Serif" font-size="11.00">&lt; 1</text>
<polygon fill="#ffffff" stroke="none" points="332.33,-618.5 332.33,-638 392.92,-638 392.92,-618.5 332.33,-618.5"/>
<polygon fill="none" stroke="black" points="332.33,-618.5 332.33,-638 392.92,-638 392.92,-618.5 332.33,-618.5"/>
<text text-anchor="start" x="382.42" y="-624.55" font-family="Helvetica,sans-Serif" font-size="11.00"> &#160;</text>
<polygon fill="#ffffff" stroke="none" points="392.92,-618.5 392.92,-638 453.5,-638 453.5,-618.5 392.92,-618.5"/>
<polygon fill="none" stroke="black" points="392.92,-618.5 392.92,-638 453.5,-638 453.5,-618.5 392.92,-618.5"/>
<text text-anchor="start" x="443" y="-624.55" font-family="Helvetica,sans-Serif" font-size="11.00"> &#160;</text>
</a>
</g>
</g>
<!-- doc_archive_coverage&#45;&gt;doc_archive_item -->
<g id="edge3" class="edge">
<title>doc_archive_coverage:w&#45;&gt;doc_archive_item:e</title>
<path fill="none" stroke="black" d="M243.12,-645.33C228.37,-639.94 222.6,-625.98 211.75,-607.75 167.77,-533.88 257.72,-418.5 171.75,-418.5"/>
<polygon fill="black" stroke="black" points="250.51,-646.47 257.87,-651.26 254.8,-647.14 258.09,-647.65 258.09,-647.65 258.09,-647.65 254.8,-647.14 258.97,-644.14 250.51,-646.47"/>
<ellipse fill="none" stroke="black" cx="245.65" cy="-645.72" rx="3.2" ry="3.2"/>
</g>
<!-- doc_archive_creator -->
<g id="node5" class="node">
<title>doc_archive_creator</title>
<g id="a_node5"><a xlink:href="../../tables/doc_archive_creator.html" xlink:title="doc_archive_creator" target="_top">
<polygon fill="#ffffff" stroke="none" points="219.75,-374.25 219.75,-597.25 493.5,-597.25 493.5,-374.25 219.75,-374.25"/>
<polygon fill="#f5f5f5" stroke="none" points="221.75,-571.75 221.75,-595.25 491.5,-595.25 491.5,-571.75 221.75,-571.75"/>
<polygon fill="none" stroke="black" points="221.75,-571.75 221.75,-595.25 491.5,-595.25 491.5,-571.75 221.75,-571.75"/>
<text text-anchor="start" x="226.75" y="-580.8" font-family="Helvetica,sans-Serif" font-weight="bold" font-size="11.00">doc_archive_creator</text>
<text text-anchor="start" x="449.75" y="-579.8" font-family="Helvetica,sans-Serif" font-size="11.00">[table]</text>
<polygon fill="none" stroke="black" points="221.75,-549.75 221.75,-571.75 376.75,-571.75 376.75,-549.75 221.75,-549.75"/>
<image xlink:href="../../images/primaryKeys.png" width="11px" height="12px" preserveAspectRatio="xMinYMin meet" x="226.75" y="-566.75"/>
<text text-anchor="start" x="241.75" y="-556.3" font-family="Helvetica,sans-Serif" font-size="11.00">identifier</text>
<polygon fill="none" stroke="black" points="376.75,-549.75 376.75,-571.75 478,-571.75 478,-549.75 376.75,-549.75"/>
<text text-anchor="start" x="379.75" y="-557.05" font-family="Helvetica,sans-Serif" font-size="11.00">varchar[191]</text>
<polygon fill="none" stroke="black" points="221.75,-527.75 221.75,-549.75 376.75,-549.75 376.75,-527.75 221.75,-527.75"/>
<text text-anchor="start" x="241.75" y="-534.3" font-family="Helvetica,sans-Serif" font-size="11.00">value</text>
<polygon fill="none" stroke="black" points="376.75,-527.75 376.75,-549.75 478,-549.75 478,-527.75 376.75,-527.75"/>
<text text-anchor="start" x="379.75" y="-535.05" font-family="Helvetica,sans-Serif" font-size="11.00">text[65535]</text>
<polygon fill="#ffffff" stroke="none" points="221.75,-505.75 221.75,-527.75 376.75,-527.75 376.75,-505.75 221.75,-505.75"/>
<polygon fill="none" stroke="black" points="221.75,-505.75 221.75,-527.75 376.75,-527.75 376.75,-505.75 221.75,-505.75"/>
<image xlink:href="../../images/foreignKeys.png" width="11px" height="12px" preserveAspectRatio="xMinYMin meet" x="226.75" y="-522.75"/>
<text text-anchor="start" x="241.75" y="-512.3" font-family="Helvetica,sans-Serif" font-size="11.00">item</text>
<polygon fill="none" stroke="black" points="376.75,-505.75 376.75,-527.75 478,-527.75 478,-505.75 376.75,-505.75"/>
<text text-anchor="start" x="379.75" y="-513.05" font-family="Helvetica,sans-Serif" font-size="11.00">varchar[191]</text>
<polygon fill="none" stroke="black" points="221.75,-483.75 221.75,-505.75 376.75,-505.75 376.75,-483.75 221.75,-483.75"/>
<text text-anchor="start" x="241.75" y="-490.3" font-family="Helvetica,sans-Serif" font-size="11.00">version</text>
<polygon fill="none" stroke="black" points="376.75,-483.75 376.75,-505.75 478,-505.75 478,-483.75 376.75,-483.75"/>
<text text-anchor="start" x="379.75" y="-491.05" font-family="Helvetica,sans-Serif" font-size="11.00">bigint[19]</text>
<polygon fill="none" stroke="black" points="221.75,-461.75 221.75,-483.75 376.75,-483.75 376.75,-461.75 221.75,-461.75"/>
<text text-anchor="start" x="241.75" y="-468.3" font-family="Helvetica,sans-Serif" font-size="11.00">created_by</text>
<polygon fill="none" stroke="black" points="376.75,-461.75 376.75,-483.75 478,-483.75 478,-461.75 376.75,-461.75"/>
<text text-anchor="start" x="379.75" y="-469.05" font-family="Helvetica,sans-Serif" font-size="11.00">varchar[191]</text>
<polygon fill="none" stroke="black" points="221.75,-439.75 221.75,-461.75 376.75,-461.75 376.75,-439.75 221.75,-439.75"/>
<text text-anchor="start" x="241.75" y="-446.3" font-family="Helvetica,sans-Serif" font-size="11.00">last_modified_by</text>
<polygon fill="none" stroke="black" points="376.75,-439.75 376.75,-461.75 478,-461.75 478,-439.75 376.75,-439.75"/>
<text text-anchor="start" x="379.75" y="-447.05" font-family="Helvetica,sans-Serif" font-size="11.00">varchar[191]</text>
<polygon fill="none" stroke="black" points="221.75,-417.75 221.75,-439.75 376.75,-439.75 376.75,-417.75 221.75,-417.75"/>
<text text-anchor="start" x="241.75" y="-424.3" font-family="Helvetica,sans-Serif" font-size="11.00">created_date</text>
<polygon fill="none" stroke="black" points="376.75,-417.75 376.75,-439.75 478,-439.75 478,-417.75 376.75,-417.75"/>
<text text-anchor="start" x="379.75" y="-425.05" font-family="Helvetica,sans-Serif" font-size="11.00">timestamp[19]</text>
<polygon fill="none" stroke="black" points="221.75,-395.75 221.75,-417.75 376.75,-417.75 376.75,-395.75 221.75,-395.75"/>
<text text-anchor="start" x="241.75" y="-402.3" font-family="Helvetica,sans-Serif" font-size="11.00">last_modified_date</text>
<polygon fill="none" stroke="black" points="376.75,-395.75 376.75,-417.75 478,-417.75 478,-395.75 376.75,-395.75"/>
<text text-anchor="start" x="379.75" y="-403.05" font-family="Helvetica,sans-Serif" font-size="11.00">timestamp[19]</text>
<polygon fill="#ffffff" stroke="none" points="221.75,-376.25 221.75,-395.75 305.25,-395.75 305.25,-376.25 221.75,-376.25"/>
<polygon fill="none" stroke="black" points="221.75,-376.25 221.75,-395.75 305.25,-395.75 305.25,-376.25 221.75,-376.25"/>
<text text-anchor="start" x="224.75" y="-382.3" font-family="Helvetica,sans-Serif" font-size="11.00">&lt; 1</text>
<polygon fill="#ffffff" stroke="none" points="305.25,-376.25 305.25,-395.75 376.75,-395.75 376.75,-376.25 305.25,-376.25"/>
<polygon fill="none" stroke="black" points="305.25,-376.25 305.25,-395.75 376.75,-395.75 376.75,-376.25 305.25,-376.25"/>
<text text-anchor="start" x="366.25" y="-382.3" font-family="Helvetica,sans-Serif" font-size="11.00"> &#160;</text>
<polygon fill="#ffffff" stroke="none" points="376.75,-376.25 376.75,-395.75 478,-395.75 478,-376.25 376.75,-376.25"/>
<polygon fill="none" stroke="black" points="376.75,-376.25 376.75,-395.75 478,-395.75 478,-376.25 376.75,-376.25"/>
<text text-anchor="start" x="455.5" y="-382.3" font-family="Helvetica,sans-Serif" font-size="11.00">0 &gt;</text>
<polygon fill="none" stroke="black" stroke-width="2" points="220.75,-375.25 220.75,-596.25 492.5,-596.25 492.5,-375.25 220.75,-375.25"/>
</a>
</g>
</g>
<!-- doc_archive_creator&#45;&gt;doc_archive_item -->
<g id="edge4" class="edge">
<title>doc_archive_creator:w&#45;&gt;doc_archive_item:e</title>
<path fill="none" stroke="black" d="M206.01,-512.01C183.14,-492.39 214.07,-418.5 171.75,-418.5"/>
<polygon fill="black" stroke="black" points="212.82,-514.2 219.33,-520.08 216.94,-515.53 220.11,-516.55 220.11,-516.55 220.11,-516.55 216.94,-515.53 221.53,-513.22 212.82,-514.2"/>
<ellipse fill="none" stroke="black" cx="208.13" cy="-512.69" rx="3.2" ry="3.2"/>
</g>
<!-- doc_archive_header -->
<g id="node6" class="node">
<title>doc_archive_header</title>
<g id="a_node6"><a xlink:href="../../tables/doc_archive_header.html" xlink:title="doc_archive_header" target="_top">
<polygon fill="#ffffff" stroke="none" points="266.75,-290.5 266.75,-353 446.5,-353 446.5,-290.5 266.75,-290.5"/>
<polygon fill="#f5f5f5" stroke="none" points="266.75,-329.5 266.75,-353 446.5,-353 446.5,-329.5 266.75,-329.5"/>
<polygon fill="none" stroke="black" points="266.75,-329.5 266.75,-353 446.5,-353 446.5,-329.5 266.75,-329.5"/>
<text text-anchor="start" x="271.75" y="-338.55" font-family="Helvetica,sans-Serif" font-weight="bold" font-size="11.00">doc_archive_header</text>
<text text-anchor="start" x="404.75" y="-337.55" font-family="Helvetica,sans-Serif" font-size="11.00">[table]</text>
<polygon fill="none" stroke="black" points="266.75,-310 266.75,-329.5 446.5,-329.5 446.5,-310 266.75,-310"/>
<text text-anchor="start" x="269.75" y="-316.05" font-family="Helvetica,sans-Serif" font-size="11.00">...</text>
<polygon fill="#ffffff" stroke="none" points="266.75,-290.5 266.75,-310 334.67,-310 334.67,-290.5 266.75,-290.5"/>
<polygon fill="none" stroke="black" points="266.75,-290.5 266.75,-310 334.67,-310 334.67,-290.5 266.75,-290.5"/>
<text text-anchor="start" x="269.75" y="-296.55" font-family="Helvetica,sans-Serif" font-size="11.00">&lt; 1</text>
<polygon fill="#ffffff" stroke="none" points="334.67,-290.5 334.67,-310 390.58,-310 390.58,-290.5 334.67,-290.5"/>
<polygon fill="none" stroke="black" points="334.67,-290.5 334.67,-310 390.58,-310 390.58,-290.5 334.67,-290.5"/>
<text text-anchor="start" x="380.08" y="-296.55" font-family="Helvetica,sans-Serif" font-size="11.00"> &#160;</text>
<polygon fill="#ffffff" stroke="none" points="390.58,-290.5 390.58,-310 446.5,-310 446.5,-290.5 390.58,-290.5"/>
<polygon fill="none" stroke="black" points="390.58,-290.5 390.58,-310 446.5,-310 446.5,-290.5 390.58,-290.5"/>
<text text-anchor="start" x="436" y="-296.55" font-family="Helvetica,sans-Serif" font-size="11.00"> &#160;</text>
</a>
</g>
</g>
<!-- doc_archive_header&#45;&gt;doc_archive_item -->
<g id="edge5" class="edge">
<title>doc_archive_header:w&#45;&gt;doc_archive_item:e</title>
<path fill="none" stroke="black" d="M250.59,-322.06C233.37,-328.2 228.89,-345.68 211.75,-363.75 191.01,-385.61 201.89,-418.5 171.75,-418.5"/>
<polygon fill="black" stroke="black" points="257.51,-321.01 265.96,-323.36 261.8,-320.35 265.09,-319.85 265.09,-319.85 265.09,-319.85 261.8,-320.35 264.88,-316.24 257.51,-321.01"/>
<ellipse fill="none" stroke="black" cx="252.65" cy="-321.75" rx="3.2" ry="3.2"/>
</g>
<!-- doc_archive_language -->
<g id="node7" class="node">
<title>doc_archive_language</title>
<g id="a_node7"><a xlink:href="../../tables/doc_archive_language.html" xlink:title="doc_archive_language" target="_top">
<polygon fill="#ffffff" stroke="none" points="259.25,-206.5 259.25,-269 454,-269 454,-206.5 259.25,-206.5"/>
<polygon fill="#f5f5f5" stroke="none" points="259.25,-245.5 259.25,-269 454,-269 454,-245.5 259.25,-245.5"/>
<polygon fill="none" stroke="black" points="259.25,-245.5 259.25,-269 454,-269 454,-245.5 259.25,-245.5"/>
<text text-anchor="start" x="264.25" y="-254.55" font-family="Helvetica,sans-Serif" font-weight="bold" font-size="11.00">doc_archive_language</text>
<text text-anchor="start" x="412.25" y="-253.55" font-family="Helvetica,sans-Serif" font-size="11.00">[table]</text>
<polygon fill="none" stroke="black" points="259.25,-226 259.25,-245.5 454,-245.5 454,-226 259.25,-226"/>
<text text-anchor="start" x="262.25" y="-232.05" font-family="Helvetica,sans-Serif" font-size="11.00">...</text>
<polygon fill="#ffffff" stroke="none" points="259.25,-206.5 259.25,-226 332.17,-226 332.17,-206.5 259.25,-206.5"/>
<polygon fill="none" stroke="black" points="259.25,-206.5 259.25,-226 332.17,-226 332.17,-206.5 259.25,-206.5"/>
<text text-anchor="start" x="262.25" y="-212.55" font-family="Helvetica,sans-Serif" font-size="11.00">&lt; 1</text>
<polygon fill="#ffffff" stroke="none" points="332.17,-206.5 332.17,-226 393.08,-226 393.08,-206.5 332.17,-206.5"/>
<polygon fill="none" stroke="black" points="332.17,-206.5 332.17,-226 393.08,-226 393.08,-206.5 332.17,-206.5"/>
<text text-anchor="start" x="382.58" y="-212.55" font-family="Helvetica,sans-Serif" font-size="11.00"> &#160;</text>
<polygon fill="#ffffff" stroke="none" points="393.08,-206.5 393.08,-226 454,-226 454,-206.5 393.08,-206.5"/>
<polygon fill="none" stroke="black" points="393.08,-206.5 393.08,-226 454,-226 454,-206.5 393.08,-206.5"/>
<text text-anchor="start" x="443.5" y="-212.55" font-family="Helvetica,sans-Serif" font-size="11.00"> &#160;</text>
</a>
</g>
</g>
<!-- doc_archive_language&#45;&gt;doc_archive_item -->
<g id="edge6" class="edge">
<title>doc_archive_language:w&#45;&gt;doc_archive_item:e</title>
<path fill="none" stroke="black" d="M242.81,-238.42C227.82,-244.59 223.31,-260.76 211.75,-279.75 178.38,-334.57 235.93,-418.5 171.75,-418.5"/>
<polygon fill="black" stroke="black" points="250.04,-237.17 258.53,-239.35 254.31,-236.43 257.59,-235.86 257.59,-235.86 257.59,-235.86 254.31,-236.43 257.31,-232.26 250.04,-237.17"/>
<ellipse fill="none" stroke="black" cx="245.19" cy="-238.01" rx="3.2" ry="3.2"/>
</g>
<!-- doc_archive_subject -->
<g id="node8" class="node">
<title>doc_archive_subject</title>
<g id="a_node8"><a xlink:href="../../tables/doc_archive_subject.html" xlink:title="doc_archive_subject" target="_top">
<polygon fill="#ffffff" stroke="none" points="265.75,-122.5 265.75,-185 447.5,-185 447.5,-122.5 265.75,-122.5"/>
<polygon fill="#f5f5f5" stroke="none" points="265.75,-161.5 265.75,-185 447.5,-185 447.5,-161.5 265.75,-161.5"/>
<polygon fill="none" stroke="black" points="265.75,-161.5 265.75,-185 447.5,-185 447.5,-161.5 265.75,-161.5"/>
<text text-anchor="start" x="270.75" y="-170.55" font-family="Helvetica,sans-Serif" font-weight="bold" font-size="11.00">doc_archive_subject</text>
<text text-anchor="start" x="405.75" y="-169.55" font-family="Helvetica,sans-Serif" font-size="11.00">[table]</text>
<polygon fill="none" stroke="black" points="265.75,-142 265.75,-161.5 447.5,-161.5 447.5,-142 265.75,-142"/>
<text text-anchor="start" x="268.75" y="-148.05" font-family="Helvetica,sans-Serif" font-size="11.00">...</text>
<polygon fill="#ffffff" stroke="none" points="265.75,-122.5 265.75,-142 334.33,-142 334.33,-122.5 265.75,-122.5"/>
<polygon fill="none" stroke="black" points="265.75,-122.5 265.75,-142 334.33,-142 334.33,-122.5 265.75,-122.5"/>
<text text-anchor="start" x="268.75" y="-128.55" font-family="Helvetica,sans-Serif" font-size="11.00">&lt; 1</text>
<polygon fill="#ffffff" stroke="none" points="334.33,-122.5 334.33,-142 390.92,-142 390.92,-122.5 334.33,-122.5"/>
<polygon fill="none" stroke="black" points="334.33,-122.5 334.33,-142 390.92,-142 390.92,-122.5 334.33,-122.5"/>
<text text-anchor="start" x="380.42" y="-128.55" font-family="Helvetica,sans-Serif" font-size="11.00"> &#160;</text>
<polygon fill="#ffffff" stroke="none" points="390.92,-122.5 390.92,-142 447.5,-142 447.5,-122.5 390.92,-122.5"/>
<polygon fill="none" stroke="black" points="390.92,-122.5 390.92,-142 447.5,-142 447.5,-122.5 390.92,-122.5"/>
<text text-anchor="start" x="437" y="-128.55" font-family="Helvetica,sans-Serif" font-size="11.00"> &#160;</text>
</a>
</g>
</g>
<!-- doc_archive_subject&#45;&gt;doc_archive_item -->
<g id="edge7" class="edge">
<title>doc_archive_subject:w&#45;&gt;doc_archive_item:e</title>
<path fill="none" stroke="black" d="M249.28,-153.69C231.09,-158.95 224.16,-174.47 211.75,-195.75 186.42,-239.2 222.04,-418.5 171.75,-418.5"/>
<polygon fill="black" stroke="black" points="256.48,-152.79 264.87,-155.36 260.78,-152.25 264.09,-151.83 264.09,-151.83 264.09,-151.83 260.78,-152.25 263.97,-148.22 256.48,-152.79"/>
<ellipse fill="none" stroke="black" cx="251.6" cy="-153.4" rx="3.2" ry="3.2"/>
</g>
<!-- doc_unit -->
<g id="node9" class="node">
<title>doc_unit</title>
<g id="a_node9"><a xlink:href="../../tables/doc_unit.html" xlink:title="doc_unit" target="_top">
<polygon fill="#ffffff" stroke="none" points="305.25,-38.5 305.25,-101 408,-101 408,-38.5 305.25,-38.5"/>
<polygon fill="#f5f5f5" stroke="none" points="305.25,-77.5 305.25,-101 408,-101 408,-77.5 305.25,-77.5"/>
<polygon fill="none" stroke="black" points="305.25,-77.5 305.25,-101 408,-101 408,-77.5 305.25,-77.5"/>
<text text-anchor="start" x="310.25" y="-86.55" font-family="Helvetica,sans-Serif" font-weight="bold" font-size="11.00">doc_unit</text>
<text text-anchor="start" x="366.25" y="-85.55" font-family="Helvetica,sans-Serif" font-size="11.00">[table]</text>
<polygon fill="none" stroke="black" points="305.25,-58 305.25,-77.5 408,-77.5 408,-58 305.25,-58"/>
<text text-anchor="start" x="308.25" y="-64.05" font-family="Helvetica,sans-Serif" font-size="11.00">...</text>
<polygon fill="#ffffff" stroke="none" points="305.25,-38.5 305.25,-58 345.75,-58 345.75,-38.5 305.25,-38.5"/>
<polygon fill="none" stroke="black" points="305.25,-38.5 305.25,-58 345.75,-58 345.75,-38.5 305.25,-38.5"/>
<text text-anchor="start" x="308.25" y="-44.55" font-family="Helvetica,sans-Serif" font-size="11.00">&lt; 13</text>
<polygon fill="#ffffff" stroke="none" points="345.75,-38.5 345.75,-58 367.5,-58 367.5,-38.5 345.75,-38.5"/>
<polygon fill="none" stroke="black" points="345.75,-38.5 345.75,-58 367.5,-58 367.5,-38.5 345.75,-38.5"/>
<text text-anchor="start" x="357" y="-44.55" font-family="Helvetica,sans-Serif" font-size="11.00"> &#160;</text>
<polygon fill="#ffffff" stroke="none" points="367.5,-38.5 367.5,-58 408,-58 408,-38.5 367.5,-38.5"/>
<polygon fill="none" stroke="black" points="367.5,-38.5 367.5,-58 408,-58 408,-38.5 367.5,-38.5"/>
<text text-anchor="start" x="378.75" y="-44.55" font-family="Helvetica,sans-Serif" font-size="11.00">11 &gt;</text>
</a>
</g>
</g>
<!-- doc_unit&#45;&gt;doc_archive_item -->
<g id="edge8" class="edge">
<title>doc_unit:w&#45;&gt;doc_archive_item:e</title>
<path fill="none" stroke="black" d="M288.77,-68.11C253.73,-69.92 235.27,-79.38 211.75,-111.75 171.35,-167.37 240.49,-418.5 171.75,-418.5"/>
<polygon fill="black" stroke="black" points="295.92,-67.94 304,-71.36 300.25,-67.84 303.58,-67.77 303.58,-67.77 303.58,-67.77 300.25,-67.84 303.83,-64.16 295.92,-67.94"/>
<ellipse fill="none" stroke="black" cx="291" cy="-68.05" rx="3.2" ry="3.2"/>
</g>
</g>
</svg>
