<?xml version="1.0" encoding="UTF-8" standalone="no"?>
<!DOCTYPE svg PUBLIC "-//W3C//DTD SVG 1.1//EN"
 "http://www.w3.org/Graphics/SVG/1.1/DTD/svg11.dtd">
<!-- Generated by graphviz version 12.2.0 (0)
 -->
<!-- Title: oneDegreeRelationshipsDiagram Pages: 1 -->
<svg width="479pt" height="290pt"
 viewBox="0.00 0.00 479.12 290.25" xmlns="http://www.w3.org/2000/svg" xmlns:xlink="http://www.w3.org/1999/xlink">
<g id="graph0" class="graph" transform="scale(1 1) rotate(0) translate(4 286.25)">
<title>oneDegreeRelationshipsDiagram</title>
<polygon fill="#ffffff" stroke="none" points="-4,4 -4,-286.25 475.12,-286.25 475.12,4 -4,4"/>
<text text-anchor="middle" x="79.25" y="-7.05" font-family="Helvetica,sans-Serif" font-size="11.00">Generated by SchemaSpy</text>
<!-- exc_import_file -->
<g id="node1" class="node">
<title>exc_import_file</title>
<g id="a_node1"><a xlink:href="../../tables/exc_import_file.html" xlink:title="exc_import_file" target="_top">
<polygon fill="#ffffff" stroke="none" points="225.75,-165.25 225.75,-278.25 463.12,-278.25 463.12,-165.25 225.75,-165.25"/>
<polygon fill="#f5f5f5" stroke="none" points="227.75,-252.75 227.75,-276.25 461.12,-276.25 461.12,-252.75 227.75,-252.75"/>
<polygon fill="none" stroke="black" points="227.75,-252.75 227.75,-276.25 461.12,-276.25 461.12,-252.75 227.75,-252.75"/>
<text text-anchor="start" x="232.75" y="-261.8" font-family="Helvetica,sans-Serif" font-weight="bold" font-size="11.00">exc_import_file</text>
<text text-anchor="start" x="419.38" y="-260.8" font-family="Helvetica,sans-Serif" font-size="11.00">[table]</text>
<polygon fill="#ffffff" stroke="none" points="227.75,-230.75 227.75,-252.75 364.75,-252.75 364.75,-230.75 227.75,-230.75"/>
<polygon fill="none" stroke="black" points="227.75,-230.75 227.75,-252.75 364.75,-252.75 364.75,-230.75 227.75,-230.75"/>
<image xlink:href="../../images/foreignKeys.png" width="11px" height="12px" preserveAspectRatio="xMinYMin meet" x="232.75" y="-247.75"/>
<text text-anchor="start" x="247.75" y="-237.3" font-family="Helvetica,sans-Serif" font-size="11.00">report</text>
<polygon fill="none" stroke="black" points="364.75,-230.75 364.75,-252.75 454.94,-252.75 454.94,-230.75 364.75,-230.75"/>
<text text-anchor="start" x="367.75" y="-238.05" font-family="Helvetica,sans-Serif" font-size="11.00">varchar[191]</text>
<polygon fill="none" stroke="black" points="227.75,-208.75 227.75,-230.75 364.75,-230.75 364.75,-208.75 227.75,-208.75"/>
<text text-anchor="start" x="247.75" y="-215.3" font-family="Helvetica,sans-Serif" font-size="11.00">original_filename</text>
<polygon fill="none" stroke="black" points="364.75,-208.75 364.75,-230.75 454.94,-230.75 454.94,-208.75 364.75,-208.75"/>
<text text-anchor="start" x="367.75" y="-216.05" font-family="Helvetica,sans-Serif" font-size="11.00">varchar[1024]</text>
<polygon fill="none" stroke="black" points="227.75,-186.75 227.75,-208.75 364.75,-208.75 364.75,-186.75 227.75,-186.75"/>
<text text-anchor="start" x="247.75" y="-193.3" font-family="Helvetica,sans-Serif" font-size="11.00">file_size</text>
<polygon fill="none" stroke="black" points="364.75,-186.75 364.75,-208.75 454.94,-208.75 454.94,-186.75 364.75,-186.75"/>
<text text-anchor="start" x="367.75" y="-194.05" font-family="Helvetica,sans-Serif" font-size="11.00">bigint[19]</text>
<polygon fill="#ffffff" stroke="none" points="227.75,-167.25 227.75,-186.75 302.25,-186.75 302.25,-167.25 227.75,-167.25"/>
<polygon fill="none" stroke="black" points="227.75,-167.25 227.75,-186.75 302.25,-186.75 302.25,-167.25 227.75,-167.25"/>
<text text-anchor="start" x="230.75" y="-173.3" font-family="Helvetica,sans-Serif" font-size="11.00">&lt; 1</text>
<polygon fill="#ffffff" stroke="none" points="302.25,-167.25 302.25,-186.75 364.75,-186.75 364.75,-167.25 302.25,-167.25"/>
<polygon fill="none" stroke="black" points="302.25,-167.25 302.25,-186.75 364.75,-186.75 364.75,-167.25 302.25,-167.25"/>
<text text-anchor="start" x="354.25" y="-173.3" font-family="Helvetica,sans-Serif" font-size="11.00"> &#160;</text>
<polygon fill="#ffffff" stroke="none" points="364.75,-167.25 364.75,-186.75 454.94,-186.75 454.94,-167.25 364.75,-167.25"/>
<polygon fill="none" stroke="black" points="364.75,-167.25 364.75,-186.75 454.94,-186.75 454.94,-167.25 364.75,-167.25"/>
<text text-anchor="start" x="432.44" y="-173.3" font-family="Helvetica,sans-Serif" font-size="11.00">0 &gt;</text>
<polygon fill="none" stroke="black" stroke-width="2" points="226.75,-166.25 226.75,-277.25 462.12,-277.25 462.12,-166.25 226.75,-166.25"/>
</a>
</g>
</g>
<!-- exc_import_report -->
<g id="node2" class="node">
<title>exc_import_report</title>
<g id="a_node2"><a xlink:href="../../tables/exc_import_report.html" xlink:title="exc_import_report" target="_top">
<polygon fill="#ffffff" stroke="none" points="8,-38.5 8,-277 176.75,-277 176.75,-38.5 8,-38.5"/>
<polygon fill="#f5f5f5" stroke="none" points="8,-253.5 8,-277 176.75,-277 176.75,-253.5 8,-253.5"/>
<polygon fill="none" stroke="black" points="8,-253.5 8,-277 176.75,-277 176.75,-253.5 8,-253.5"/>
<text text-anchor="start" x="13" y="-262.55" font-family="Helvetica,sans-Serif" font-weight="bold" font-size="11.00">exc_import_report</text>
<text text-anchor="start" x="135" y="-261.55" font-family="Helvetica,sans-Serif" font-size="11.00">[table]</text>
<polygon fill="none" stroke="black" points="8,-231.5 8,-253.5 176.75,-253.5 176.75,-231.5 8,-231.5"/>
<image xlink:href="../../images/primaryKeys.png" width="11px" height="12px" preserveAspectRatio="xMinYMin meet" x="13" y="-248.5"/>
<text text-anchor="start" x="38.38" y="-238.05" font-family="Helvetica,sans-Serif" font-size="11.00">identifier</text>
<polygon fill="#ffffff" stroke="none" points="8,-209.5 8,-231.5 176.75,-231.5 176.75,-209.5 8,-209.5"/>
<polygon fill="none" stroke="black" points="8,-209.5 8,-231.5 176.75,-231.5 176.75,-209.5 8,-209.5"/>
<image xlink:href="../../images/foreignKeys.png" width="11px" height="12px" preserveAspectRatio="xMinYMin meet" x="13" y="-226.5"/>
<text text-anchor="start" x="38.38" y="-216.05" font-family="Helvetica,sans-Serif" font-size="11.00">library</text>
<polygon fill="#ffffff" stroke="none" points="8,-187.5 8,-209.5 176.75,-209.5 176.75,-187.5 8,-187.5"/>
<polygon fill="none" stroke="black" points="8,-187.5 8,-209.5 176.75,-209.5 176.75,-187.5 8,-187.5"/>
<image xlink:href="../../images/foreignKeys.png" width="11px" height="12px" preserveAspectRatio="xMinYMin meet" x="13" y="-204.5"/>
<text text-anchor="start" x="38.38" y="-194.05" font-family="Helvetica,sans-Serif" font-size="11.00">mapping</text>
<polygon fill="#ffffff" stroke="none" points="8,-165.5 8,-187.5 176.75,-187.5 176.75,-165.5 8,-165.5"/>
<polygon fill="none" stroke="black" points="8,-165.5 8,-187.5 176.75,-187.5 176.75,-165.5 8,-165.5"/>
<image xlink:href="../../images/foreignKeys.png" width="11px" height="12px" preserveAspectRatio="xMinYMin meet" x="13" y="-182.5"/>
<text text-anchor="start" x="38.38" y="-172.05" font-family="Helvetica,sans-Serif" font-size="11.00">mapping_children</text>
<polygon fill="#ffffff" stroke="none" points="8,-143.5 8,-165.5 176.75,-165.5 176.75,-143.5 8,-143.5"/>
<polygon fill="none" stroke="black" points="8,-143.5 8,-165.5 176.75,-165.5 176.75,-143.5 8,-143.5"/>
<image xlink:href="../../images/foreignKeys.png" width="11px" height="12px" preserveAspectRatio="xMinYMin meet" x="13" y="-160.5"/>
<text text-anchor="start" x="38.38" y="-150.05" font-family="Helvetica,sans-Serif" font-size="11.00">csv_mapping</text>
<polygon fill="#ffffff" stroke="none" points="8,-121.5 8,-143.5 176.75,-143.5 176.75,-121.5 8,-121.5"/>
<polygon fill="none" stroke="black" points="8,-121.5 8,-143.5 176.75,-143.5 176.75,-121.5 8,-121.5"/>
<image xlink:href="../../images/foreignKeys.png" width="11px" height="12px" preserveAspectRatio="xMinYMin meet" x="13" y="-138.5"/>
<text text-anchor="start" x="38.38" y="-128.05" font-family="Helvetica,sans-Serif" font-size="11.00">project</text>
<polygon fill="#ffffff" stroke="none" points="8,-99.5 8,-121.5 176.75,-121.5 176.75,-99.5 8,-99.5"/>
<polygon fill="none" stroke="black" points="8,-99.5 8,-121.5 176.75,-121.5 176.75,-99.5 8,-99.5"/>
<image xlink:href="../../images/foreignKeys.png" width="11px" height="12px" preserveAspectRatio="xMinYMin meet" x="13" y="-116.5"/>
<text text-anchor="start" x="38.38" y="-106.05" font-family="Helvetica,sans-Serif" font-size="11.00">lot</text>
<polygon fill="#ffffff" stroke="none" points="8,-77.5 8,-99.5 176.75,-99.5 176.75,-77.5 8,-77.5"/>
<polygon fill="none" stroke="black" points="8,-77.5 8,-99.5 176.75,-99.5 176.75,-77.5 8,-77.5"/>
<image xlink:href="../../images/foreignKeys.png" width="11px" height="12px" preserveAspectRatio="xMinYMin meet" x="13" y="-94.5"/>
<text text-anchor="start" x="38.38" y="-84.05" font-family="Helvetica,sans-Serif" font-size="11.00">parent</text>
<polygon fill="none" stroke="black" points="8,-58 8,-77.5 176.75,-77.5 176.75,-58 8,-58"/>
<text text-anchor="start" x="11" y="-64.05" font-family="Helvetica,sans-Serif" font-size="11.00">...</text>
<polygon fill="#ffffff" stroke="none" points="8,-38.5 8,-58 68.25,-58 68.25,-38.5 8,-38.5"/>
<polygon fill="none" stroke="black" points="8,-38.5 8,-58 68.25,-58 68.25,-38.5 8,-38.5"/>
<text text-anchor="start" x="11" y="-44.55" font-family="Helvetica,sans-Serif" font-size="11.00">&lt; 7</text>
<polygon fill="#ffffff" stroke="none" points="68.25,-38.5 68.25,-58 116.5,-58 116.5,-38.5 68.25,-38.5"/>
<polygon fill="none" stroke="black" points="68.25,-38.5 68.25,-58 116.5,-58 116.5,-38.5 68.25,-38.5"/>
<text text-anchor="start" x="106" y="-44.55" font-family="Helvetica,sans-Serif" font-size="11.00"> &#160;</text>
<polygon fill="#ffffff" stroke="none" points="116.5,-38.5 116.5,-58 176.75,-58 176.75,-38.5 116.5,-38.5"/>
<polygon fill="none" stroke="black" points="116.5,-38.5 116.5,-58 176.75,-58 176.75,-38.5 116.5,-38.5"/>
<text text-anchor="start" x="154.25" y="-44.55" font-family="Helvetica,sans-Serif" font-size="11.00">3 &gt;</text>
</a>
</g>
</g>
<!-- exc_import_file&#45;&gt;exc_import_report -->
<g id="edge1" class="edge">
<title>exc_import_file:w&#45;&gt;exc_import_report:e</title>
<path fill="none" stroke="black" d="M211.17,-241.9C200.46,-242.12 193.23,-242.5 177.75,-242.5"/>
<polygon fill="black" stroke="black" points="218.42,-241.83 226.45,-245.35 222.75,-241.79 226.08,-241.76 226.08,-241.76 226.08,-241.76 222.75,-241.79 226.38,-238.15 218.42,-241.83"/>
<ellipse fill="none" stroke="black" cx="213.5" cy="-241.88" rx="3.2" ry="3.2"/>
</g>
</g>
</svg>
