<?xml version="1.0" encoding="UTF-8" standalone="no"?>
<!DOCTYPE svg PUBLIC "-//W3C//DTD SVG 1.1//EN"
 "http://www.w3.org/Graphics/SVG/1.1/DTD/svg11.dtd">
<!-- Generated by graphviz version 12.2.0 (0)
 -->
<!-- Title: twoDegreesRelationshipsDiagram Pages: 1 -->
<svg width="686pt" height="251pt"
 viewBox="0.00 0.00 686.25 251.25" xmlns="http://www.w3.org/2000/svg" xmlns:xlink="http://www.w3.org/1999/xlink">
<g id="graph0" class="graph" transform="scale(1 1) rotate(0) translate(4 247.25)">
<title>twoDegreesRelationshipsDiagram</title>
<polygon fill="#ffffff" stroke="none" points="-4,4 -4,-247.25 682.25,-247.25 682.25,4 -4,4"/>
<text text-anchor="middle" x="79.25" y="-7.05" font-family="Helvetica,sans-Serif" font-size="11.00">Generated by SchemaSpy</text>
<!-- exc_doc_unit -->
<g id="node1" class="node">
<title>exc_doc_unit</title>
<g id="a_node1"><a xlink:href="../../tables/exc_doc_unit.html" xlink:title="exc_doc_unit" target="_top">
<polygon fill="#ffffff" stroke="none" points="225.75,-87.5 225.75,-238 373.75,-238 373.75,-87.5 225.75,-87.5"/>
<polygon fill="#f5f5f5" stroke="none" points="225.75,-214.5 225.75,-238 373.75,-238 373.75,-214.5 225.75,-214.5"/>
<polygon fill="none" stroke="black" points="225.75,-214.5 225.75,-238 373.75,-238 373.75,-214.5 225.75,-214.5"/>
<text text-anchor="start" x="230.75" y="-223.55" font-family="Helvetica,sans-Serif" font-weight="bold" font-size="11.00">exc_doc_unit</text>
<text text-anchor="start" x="332" y="-222.55" font-family="Helvetica,sans-Serif" font-size="11.00">[table]</text>
<polygon fill="none" stroke="black" points="225.75,-192.5 225.75,-214.5 373.75,-214.5 373.75,-192.5 225.75,-192.5"/>
<image xlink:href="../../images/primaryKeys.png" width="11px" height="12px" preserveAspectRatio="xMinYMin meet" x="230.75" y="-209.5"/>
<text text-anchor="start" x="245.75" y="-199.05" font-family="Helvetica,sans-Serif" font-size="11.00">identifier</text>
<polygon fill="#ffffff" stroke="none" points="225.75,-170.5 225.75,-192.5 373.75,-192.5 373.75,-170.5 225.75,-170.5"/>
<polygon fill="none" stroke="black" points="225.75,-170.5 225.75,-192.5 373.75,-192.5 373.75,-170.5 225.75,-170.5"/>
<image xlink:href="../../images/foreignKeys.png" width="11px" height="12px" preserveAspectRatio="xMinYMin meet" x="230.75" y="-187.5"/>
<text text-anchor="start" x="245.75" y="-177.05" font-family="Helvetica,sans-Serif" font-size="11.00">report</text>
<polygon fill="#ffffff" stroke="none" points="225.75,-148.5 225.75,-170.5 373.75,-170.5 373.75,-148.5 225.75,-148.5"/>
<polygon fill="none" stroke="black" points="225.75,-148.5 225.75,-170.5 373.75,-170.5 373.75,-148.5 225.75,-148.5"/>
<image xlink:href="../../images/foreignKeys.png" width="11px" height="12px" preserveAspectRatio="xMinYMin meet" x="230.75" y="-165.5"/>
<text text-anchor="start" x="245.75" y="-155.05" font-family="Helvetica,sans-Serif" font-size="11.00">doc_unit</text>
<polygon fill="#ffffff" stroke="none" points="225.75,-126.5 225.75,-148.5 373.75,-148.5 373.75,-126.5 225.75,-126.5"/>
<polygon fill="none" stroke="black" points="225.75,-126.5 225.75,-148.5 373.75,-148.5 373.75,-126.5 225.75,-126.5"/>
<text text-anchor="start" x="245.75" y="-133.05" font-family="Helvetica,sans-Serif" font-size="11.00">parent_key</text>
<polygon fill="none" stroke="black" points="225.75,-107 225.75,-126.5 373.75,-126.5 373.75,-107 225.75,-107"/>
<text text-anchor="start" x="228.75" y="-113.05" font-family="Helvetica,sans-Serif" font-size="11.00">...</text>
<polygon fill="#ffffff" stroke="none" points="225.75,-87.5 225.75,-107 279.08,-107 279.08,-87.5 225.75,-87.5"/>
<polygon fill="none" stroke="black" points="225.75,-87.5 225.75,-107 279.08,-107 279.08,-87.5 225.75,-87.5"/>
<text text-anchor="start" x="228.75" y="-93.55" font-family="Helvetica,sans-Serif" font-size="11.00">&lt; 2</text>
<polygon fill="#ffffff" stroke="none" points="279.08,-87.5 279.08,-107 320.42,-107 320.42,-87.5 279.08,-87.5"/>
<polygon fill="none" stroke="black" points="279.08,-87.5 279.08,-107 320.42,-107 320.42,-87.5 279.08,-87.5"/>
<text text-anchor="start" x="309.92" y="-93.55" font-family="Helvetica,sans-Serif" font-size="11.00"> &#160;</text>
<polygon fill="#ffffff" stroke="none" points="320.42,-87.5 320.42,-107 373.75,-107 373.75,-87.5 320.42,-87.5"/>
<polygon fill="none" stroke="black" points="320.42,-87.5 320.42,-107 373.75,-107 373.75,-87.5 320.42,-87.5"/>
<text text-anchor="start" x="351.25" y="-93.55" font-family="Helvetica,sans-Serif" font-size="11.00">2 &gt;</text>
</a>
</g>
</g>
<!-- doc_unit -->
<g id="node2" class="node">
<title>doc_unit</title>
<g id="a_node2"><a xlink:href="../../tables/doc_unit.html" xlink:title="doc_unit" target="_top">
<polygon fill="#ffffff" stroke="none" points="41,-51.5 41,-114 143.75,-114 143.75,-51.5 41,-51.5"/>
<polygon fill="#f5f5f5" stroke="none" points="41,-90.5 41,-114 143.75,-114 143.75,-90.5 41,-90.5"/>
<polygon fill="none" stroke="black" points="41,-90.5 41,-114 143.75,-114 143.75,-90.5 41,-90.5"/>
<text text-anchor="start" x="46" y="-99.55" font-family="Helvetica,sans-Serif" font-weight="bold" font-size="11.00">doc_unit</text>
<text text-anchor="start" x="102" y="-98.55" font-family="Helvetica,sans-Serif" font-size="11.00">[table]</text>
<polygon fill="none" stroke="black" points="41,-71 41,-90.5 143.75,-90.5 143.75,-71 41,-71"/>
<text text-anchor="start" x="44" y="-77.05" font-family="Helvetica,sans-Serif" font-size="11.00">...</text>
<polygon fill="#ffffff" stroke="none" points="41,-51.5 41,-71 81.5,-71 81.5,-51.5 41,-51.5"/>
<polygon fill="none" stroke="black" points="41,-51.5 41,-71 81.5,-71 81.5,-51.5 41,-51.5"/>
<text text-anchor="start" x="44" y="-57.55" font-family="Helvetica,sans-Serif" font-size="11.00">&lt; 13</text>
<polygon fill="#ffffff" stroke="none" points="81.5,-51.5 81.5,-71 103.25,-71 103.25,-51.5 81.5,-51.5"/>
<polygon fill="none" stroke="black" points="81.5,-51.5 81.5,-71 103.25,-71 103.25,-51.5 81.5,-51.5"/>
<text text-anchor="start" x="92.75" y="-57.55" font-family="Helvetica,sans-Serif" font-size="11.00"> &#160;</text>
<polygon fill="#ffffff" stroke="none" points="103.25,-51.5 103.25,-71 143.75,-71 143.75,-51.5 103.25,-51.5"/>
<polygon fill="none" stroke="black" points="103.25,-51.5 103.25,-71 143.75,-71 143.75,-51.5 103.25,-51.5"/>
<text text-anchor="start" x="114.5" y="-57.55" font-family="Helvetica,sans-Serif" font-size="11.00">11 &gt;</text>
</a>
</g>
</g>
<!-- exc_doc_unit&#45;&gt;doc_unit -->
<g id="edge1" class="edge">
<title>exc_doc_unit:w&#45;&gt;doc_unit:e</title>
<path fill="none" stroke="black" d="M209.44,-156.32C178.63,-141.58 188.6,-80.75 144.75,-80.75"/>
<polygon fill="black" stroke="black" points="216.59,-157.8 223.69,-162.96 220.83,-158.69 224.1,-159.36 224.1,-159.36 224.1,-159.36 220.83,-158.69 225.16,-155.91 216.59,-157.8"/>
<ellipse fill="none" stroke="black" cx="211.77" cy="-156.8" rx="3.2" ry="3.2"/>
</g>
<!-- exc_import_report -->
<g id="node3" class="node">
<title>exc_import_report</title>
<g id="a_node3"><a xlink:href="../../tables/exc_import_report.html" xlink:title="exc_import_report" target="_top">
<polygon fill="#ffffff" stroke="none" points="8,-151.5 8,-214 176.75,-214 176.75,-151.5 8,-151.5"/>
<polygon fill="#f5f5f5" stroke="none" points="8,-190.5 8,-214 176.75,-214 176.75,-190.5 8,-190.5"/>
<polygon fill="none" stroke="black" points="8,-190.5 8,-214 176.75,-214 176.75,-190.5 8,-190.5"/>
<text text-anchor="start" x="13" y="-199.55" font-family="Helvetica,sans-Serif" font-weight="bold" font-size="11.00">exc_import_report</text>
<text text-anchor="start" x="135" y="-198.55" font-family="Helvetica,sans-Serif" font-size="11.00">[table]</text>
<polygon fill="none" stroke="black" points="8,-171 8,-190.5 176.75,-190.5 176.75,-171 8,-171"/>
<text text-anchor="start" x="11" y="-177.05" font-family="Helvetica,sans-Serif" font-size="11.00">...</text>
<polygon fill="#ffffff" stroke="none" points="8,-151.5 8,-171 68.25,-171 68.25,-151.5 8,-151.5"/>
<polygon fill="none" stroke="black" points="8,-151.5 8,-171 68.25,-171 68.25,-151.5 8,-151.5"/>
<text text-anchor="start" x="11" y="-157.55" font-family="Helvetica,sans-Serif" font-size="11.00">&lt; 7</text>
<polygon fill="#ffffff" stroke="none" points="68.25,-151.5 68.25,-171 116.5,-171 116.5,-151.5 68.25,-151.5"/>
<polygon fill="none" stroke="black" points="68.25,-151.5 68.25,-171 116.5,-171 116.5,-151.5 68.25,-151.5"/>
<text text-anchor="start" x="106" y="-157.55" font-family="Helvetica,sans-Serif" font-size="11.00"> &#160;</text>
<polygon fill="#ffffff" stroke="none" points="116.5,-151.5 116.5,-171 176.75,-171 176.75,-151.5 116.5,-151.5"/>
<polygon fill="none" stroke="black" points="116.5,-151.5 116.5,-171 176.75,-171 176.75,-151.5 116.5,-151.5"/>
<text text-anchor="start" x="154.25" y="-157.55" font-family="Helvetica,sans-Serif" font-size="11.00">3 &gt;</text>
</a>
</g>
</g>
<!-- exc_doc_unit&#45;&gt;exc_import_report -->
<g id="edge2" class="edge">
<title>exc_doc_unit:w&#45;&gt;exc_import_report:e</title>
<path fill="none" stroke="black" d="M209.13,-181.33C199.22,-181.11 192.28,-180.75 177.75,-180.75"/>
<polygon fill="black" stroke="black" points="216.42,-181.41 224.38,-185.1 220.75,-181.46 224.08,-181.49 224.08,-181.49 224.08,-181.49 220.75,-181.46 224.45,-177.9 216.42,-181.41"/>
<ellipse fill="none" stroke="black" cx="211.5" cy="-181.36" rx="3.2" ry="3.2"/>
</g>
<!-- exc_doc_unit_dupl -->
<g id="node4" class="node">
<title>exc_doc_unit_dupl</title>
<g id="a_node4"><a xlink:href="../../tables/exc_doc_unit_dupl.html" xlink:title="exc_doc_unit_dupl" target="_top">
<polygon fill="#ffffff" stroke="none" points="462.62,-38.5 462.62,-101 630.38,-101 630.38,-38.5 462.62,-38.5"/>
<polygon fill="#f5f5f5" stroke="none" points="462.62,-77.5 462.62,-101 630.38,-101 630.38,-77.5 462.62,-77.5"/>
<polygon fill="none" stroke="black" points="462.62,-77.5 462.62,-101 630.38,-101 630.38,-77.5 462.62,-77.5"/>
<text text-anchor="start" x="467.62" y="-86.55" font-family="Helvetica,sans-Serif" font-weight="bold" font-size="11.00">exc_doc_unit_dupl</text>
<text text-anchor="start" x="588.62" y="-85.55" font-family="Helvetica,sans-Serif" font-size="11.00">[table]</text>
<polygon fill="none" stroke="black" points="462.62,-58 462.62,-77.5 630.38,-77.5 630.38,-58 462.62,-58"/>
<text text-anchor="start" x="465.62" y="-64.05" font-family="Helvetica,sans-Serif" font-size="11.00">...</text>
<polygon fill="#ffffff" stroke="none" points="462.62,-38.5 462.62,-58 526.54,-58 526.54,-38.5 462.62,-38.5"/>
<polygon fill="none" stroke="black" points="462.62,-38.5 462.62,-58 526.54,-58 526.54,-38.5 462.62,-38.5"/>
<text text-anchor="start" x="465.62" y="-44.55" font-family="Helvetica,sans-Serif" font-size="11.00">&lt; 2</text>
<polygon fill="#ffffff" stroke="none" points="526.54,-38.5 526.54,-58 578.46,-58 578.46,-38.5 526.54,-38.5"/>
<polygon fill="none" stroke="black" points="526.54,-38.5 526.54,-58 578.46,-58 578.46,-38.5 526.54,-38.5"/>
<text text-anchor="start" x="567.96" y="-44.55" font-family="Helvetica,sans-Serif" font-size="11.00"> &#160;</text>
<polygon fill="#ffffff" stroke="none" points="578.46,-38.5 578.46,-58 630.38,-58 630.38,-38.5 578.46,-38.5"/>
<polygon fill="none" stroke="black" points="578.46,-38.5 578.46,-58 630.38,-58 630.38,-38.5 578.46,-38.5"/>
<text text-anchor="start" x="619.88" y="-44.55" font-family="Helvetica,sans-Serif" font-size="11.00"> &#160;</text>
</a>
</g>
</g>
<!-- exc_doc_unit_dupl&#45;&gt;exc_doc_unit -->
<g id="edge4" class="edge">
<title>exc_doc_unit_dupl:w&#45;&gt;exc_doc_unit:e</title>
<path fill="none" stroke="black" d="M446.27,-70.67C430.98,-77.68 428.05,-96.34 414.75,-115.75 390.53,-151.11 417.61,-203.5 374.75,-203.5"/>
<polygon fill="black" stroke="black" points="453.44,-69.31 461.97,-71.35 457.7,-68.5 460.97,-67.87 460.97,-67.87 460.97,-67.87 457.7,-68.5 460.62,-64.28 453.44,-69.31"/>
<ellipse fill="none" stroke="black" cx="448.6" cy="-70.22" rx="3.2" ry="3.2"/>
</g>
<!-- exc_doc_unit_dupl&#45;&gt;doc_unit -->
<g id="edge3" class="edge">
<title>exc_doc_unit_dupl:w&#45;&gt;doc_unit:e</title>
<path fill="none" stroke="black" d="M446,-67.78C350.26,-68.15 320.7,-72.03 217.75,-76.75 185.29,-78.24 177.24,-80.75 144.75,-80.75"/>
<polygon fill="black" stroke="black" points="453.29,-67.77 461.3,-71.35 457.63,-67.76 460.96,-67.75 460.96,-67.75 460.96,-67.75 457.63,-67.76 461.28,-64.15 453.29,-67.77"/>
<ellipse fill="none" stroke="black" cx="448.37" cy="-67.78" rx="3.2" ry="3.2"/>
</g>
<!-- exc_doc_unit_msg -->
<g id="node5" class="node">
<title>exc_doc_unit_msg</title>
<g id="a_node5"><a xlink:href="../../tables/exc_doc_unit_msg.html" xlink:title="exc_doc_unit_msg" target="_top">
<polygon fill="#ffffff" stroke="none" points="422.75,-126.25 422.75,-239.25 670.25,-239.25 670.25,-126.25 422.75,-126.25"/>
<polygon fill="#f5f5f5" stroke="none" points="424.75,-213.75 424.75,-237.25 668.25,-237.25 668.25,-213.75 424.75,-213.75"/>
<polygon fill="none" stroke="black" points="424.75,-213.75 424.75,-237.25 668.25,-237.25 668.25,-213.75 424.75,-213.75"/>
<text text-anchor="start" x="429.75" y="-222.8" font-family="Helvetica,sans-Serif" font-weight="bold" font-size="11.00">exc_doc_unit_msg</text>
<text text-anchor="start" x="626.5" y="-221.8" font-family="Helvetica,sans-Serif" font-size="11.00">[table]</text>
<polygon fill="#ffffff" stroke="none" points="424.75,-191.75 424.75,-213.75 565.75,-213.75 565.75,-191.75 424.75,-191.75"/>
<polygon fill="none" stroke="black" points="424.75,-191.75 424.75,-213.75 565.75,-213.75 565.75,-191.75 424.75,-191.75"/>
<image xlink:href="../../images/foreignKeys.png" width="11px" height="12px" preserveAspectRatio="xMinYMin meet" x="429.75" y="-208.75"/>
<text text-anchor="start" x="444.75" y="-198.3" font-family="Helvetica,sans-Serif" font-size="11.00">imp_unit</text>
<polygon fill="none" stroke="black" points="565.75,-191.75 565.75,-213.75 655.62,-213.75 655.62,-191.75 565.75,-191.75"/>
<text text-anchor="start" x="568.75" y="-199.05" font-family="Helvetica,sans-Serif" font-size="11.00">varchar[191]</text>
<polygon fill="none" stroke="black" points="424.75,-169.75 424.75,-191.75 565.75,-191.75 565.75,-169.75 424.75,-169.75"/>
<text text-anchor="start" x="444.75" y="-176.3" font-family="Helvetica,sans-Serif" font-size="11.00">code</text>
<polygon fill="none" stroke="black" points="565.75,-169.75 565.75,-191.75 655.62,-191.75 655.62,-169.75 565.75,-169.75"/>
<text text-anchor="start" x="568.75" y="-177.05" font-family="Helvetica,sans-Serif" font-size="11.00">varchar[255]</text>
<polygon fill="none" stroke="black" points="424.75,-147.75 424.75,-169.75 565.75,-169.75 565.75,-147.75 424.75,-147.75"/>
<text text-anchor="start" x="444.75" y="-154.3" font-family="Helvetica,sans-Serif" font-size="11.00">complement</text>
<polygon fill="none" stroke="black" points="565.75,-147.75 565.75,-169.75 655.62,-169.75 655.62,-147.75 565.75,-147.75"/>
<text text-anchor="start" x="568.75" y="-155.05" font-family="Helvetica,sans-Serif" font-size="11.00">text[65535]</text>
<polygon fill="#ffffff" stroke="none" points="424.75,-128.25 424.75,-147.75 501.25,-147.75 501.25,-128.25 424.75,-128.25"/>
<polygon fill="none" stroke="black" points="424.75,-128.25 424.75,-147.75 501.25,-147.75 501.25,-128.25 424.75,-128.25"/>
<text text-anchor="start" x="427.75" y="-134.3" font-family="Helvetica,sans-Serif" font-size="11.00">&lt; 1</text>
<polygon fill="#ffffff" stroke="none" points="501.25,-128.25 501.25,-147.75 565.75,-147.75 565.75,-128.25 501.25,-128.25"/>
<polygon fill="none" stroke="black" points="501.25,-128.25 501.25,-147.75 565.75,-147.75 565.75,-128.25 501.25,-128.25"/>
<text text-anchor="start" x="555.25" y="-134.3" font-family="Helvetica,sans-Serif" font-size="11.00"> &#160;</text>
<polygon fill="#ffffff" stroke="none" points="565.75,-128.25 565.75,-147.75 655.62,-147.75 655.62,-128.25 565.75,-128.25"/>
<polygon fill="none" stroke="black" points="565.75,-128.25 565.75,-147.75 655.62,-147.75 655.62,-128.25 565.75,-128.25"/>
<text text-anchor="start" x="633.12" y="-134.3" font-family="Helvetica,sans-Serif" font-size="11.00">0 &gt;</text>
<polygon fill="none" stroke="black" stroke-width="2" points="423.75,-127.25 423.75,-238.25 669.25,-238.25 669.25,-127.25 423.75,-127.25"/>
</a>
</g>
</g>
<!-- exc_doc_unit_msg&#45;&gt;exc_doc_unit -->
<g id="edge5" class="edge">
<title>exc_doc_unit_msg:w&#45;&gt;exc_doc_unit:e</title>
<path fill="none" stroke="black" d="M408.17,-202.9C397.46,-203.12 390.23,-203.5 374.75,-203.5"/>
<polygon fill="black" stroke="black" points="415.42,-202.83 423.45,-206.35 419.75,-202.79 423.08,-202.76 423.08,-202.76 423.08,-202.76 419.75,-202.79 423.38,-199.15 415.42,-202.83"/>
<ellipse fill="none" stroke="black" cx="410.5" cy="-202.88" rx="3.2" ry="3.2"/>
</g>
</g>
</svg>
