<?xml version="1.0" encoding="UTF-8" standalone="no"?>
<!DOCTYPE svg PUBLIC "-//W3C//DTD SVG 1.1//EN"
 "http://www.w3.org/Graphics/SVG/1.1/DTD/svg11.dtd">
<!-- Generated by graphviz version 12.2.0 (0)
 -->
<!-- Title: oneDegreeRelationshipsDiagram Pages: 1 -->
<svg width="469pt" height="202pt"
 viewBox="0.00 0.00 468.50 202.25" xmlns="http://www.w3.org/2000/svg" xmlns:xlink="http://www.w3.org/1999/xlink">
<g id="graph0" class="graph" transform="scale(1 1) rotate(0) translate(4 198.25)">
<title>oneDegreeRelationshipsDiagram</title>
<polygon fill="#ffffff" stroke="none" points="-4,4 -4,-198.25 464.5,-198.25 464.5,4 -4,4"/>
<text text-anchor="middle" x="79.25" y="-7.05" font-family="Helvetica,sans-Serif" font-size="11.00">Generated by SchemaSpy</text>
<!-- exc_doc_unit_msg -->
<g id="node1" class="node">
<title>exc_doc_unit_msg</title>
<g id="a_node1"><a xlink:href="../../tables/exc_doc_unit_msg.html" xlink:title="exc_doc_unit_msg" target="_top">
<polygon fill="#ffffff" stroke="none" points="205,-77.25 205,-190.25 452.5,-190.25 452.5,-77.25 205,-77.25"/>
<polygon fill="#f5f5f5" stroke="none" points="207,-164.75 207,-188.25 450.5,-188.25 450.5,-164.75 207,-164.75"/>
<polygon fill="none" stroke="black" points="207,-164.75 207,-188.25 450.5,-188.25 450.5,-164.75 207,-164.75"/>
<text text-anchor="start" x="212" y="-173.8" font-family="Helvetica,sans-Serif" font-weight="bold" font-size="11.00">exc_doc_unit_msg</text>
<text text-anchor="start" x="408.75" y="-172.8" font-family="Helvetica,sans-Serif" font-size="11.00">[table]</text>
<polygon fill="#ffffff" stroke="none" points="207,-142.75 207,-164.75 348,-164.75 348,-142.75 207,-142.75"/>
<polygon fill="none" stroke="black" points="207,-142.75 207,-164.75 348,-164.75 348,-142.75 207,-142.75"/>
<image xlink:href="../../images/foreignKeys.png" width="11px" height="12px" preserveAspectRatio="xMinYMin meet" x="212" y="-159.75"/>
<text text-anchor="start" x="227" y="-149.3" font-family="Helvetica,sans-Serif" font-size="11.00">imp_unit</text>
<polygon fill="none" stroke="black" points="348,-142.75 348,-164.75 437.88,-164.75 437.88,-142.75 348,-142.75"/>
<text text-anchor="start" x="351" y="-150.05" font-family="Helvetica,sans-Serif" font-size="11.00">varchar[191]</text>
<polygon fill="none" stroke="black" points="207,-120.75 207,-142.75 348,-142.75 348,-120.75 207,-120.75"/>
<text text-anchor="start" x="227" y="-127.3" font-family="Helvetica,sans-Serif" font-size="11.00">code</text>
<polygon fill="none" stroke="black" points="348,-120.75 348,-142.75 437.88,-142.75 437.88,-120.75 348,-120.75"/>
<text text-anchor="start" x="351" y="-128.05" font-family="Helvetica,sans-Serif" font-size="11.00">varchar[255]</text>
<polygon fill="none" stroke="black" points="207,-98.75 207,-120.75 348,-120.75 348,-98.75 207,-98.75"/>
<text text-anchor="start" x="227" y="-105.3" font-family="Helvetica,sans-Serif" font-size="11.00">complement</text>
<polygon fill="none" stroke="black" points="348,-98.75 348,-120.75 437.88,-120.75 437.88,-98.75 348,-98.75"/>
<text text-anchor="start" x="351" y="-106.05" font-family="Helvetica,sans-Serif" font-size="11.00">text[65535]</text>
<polygon fill="#ffffff" stroke="none" points="207,-79.25 207,-98.75 283.5,-98.75 283.5,-79.25 207,-79.25"/>
<polygon fill="none" stroke="black" points="207,-79.25 207,-98.75 283.5,-98.75 283.5,-79.25 207,-79.25"/>
<text text-anchor="start" x="210" y="-85.3" font-family="Helvetica,sans-Serif" font-size="11.00">&lt; 1</text>
<polygon fill="#ffffff" stroke="none" points="283.5,-79.25 283.5,-98.75 348,-98.75 348,-79.25 283.5,-79.25"/>
<polygon fill="none" stroke="black" points="283.5,-79.25 283.5,-98.75 348,-98.75 348,-79.25 283.5,-79.25"/>
<text text-anchor="start" x="337.5" y="-85.3" font-family="Helvetica,sans-Serif" font-size="11.00"> &#160;</text>
<polygon fill="#ffffff" stroke="none" points="348,-79.25 348,-98.75 437.88,-98.75 437.88,-79.25 348,-79.25"/>
<polygon fill="none" stroke="black" points="348,-79.25 348,-98.75 437.88,-98.75 437.88,-79.25 348,-79.25"/>
<text text-anchor="start" x="415.38" y="-85.3" font-family="Helvetica,sans-Serif" font-size="11.00">0 &gt;</text>
<polygon fill="none" stroke="black" stroke-width="2" points="206,-78.25 206,-189.25 451.5,-189.25 451.5,-78.25 206,-78.25"/>
</a>
</g>
</g>
<!-- exc_doc_unit -->
<g id="node2" class="node">
<title>exc_doc_unit</title>
<g id="a_node2"><a xlink:href="../../tables/exc_doc_unit.html" xlink:title="exc_doc_unit" target="_top">
<polygon fill="#ffffff" stroke="none" points="8,-38.5 8,-189 156,-189 156,-38.5 8,-38.5"/>
<polygon fill="#f5f5f5" stroke="none" points="8,-165.5 8,-189 156,-189 156,-165.5 8,-165.5"/>
<polygon fill="none" stroke="black" points="8,-165.5 8,-189 156,-189 156,-165.5 8,-165.5"/>
<text text-anchor="start" x="13" y="-174.55" font-family="Helvetica,sans-Serif" font-weight="bold" font-size="11.00">exc_doc_unit</text>
<text text-anchor="start" x="114.25" y="-173.55" font-family="Helvetica,sans-Serif" font-size="11.00">[table]</text>
<polygon fill="none" stroke="black" points="8,-143.5 8,-165.5 156,-165.5 156,-143.5 8,-143.5"/>
<image xlink:href="../../images/primaryKeys.png" width="11px" height="12px" preserveAspectRatio="xMinYMin meet" x="13" y="-160.5"/>
<text text-anchor="start" x="28" y="-150.05" font-family="Helvetica,sans-Serif" font-size="11.00">identifier</text>
<polygon fill="#ffffff" stroke="none" points="8,-121.5 8,-143.5 156,-143.5 156,-121.5 8,-121.5"/>
<polygon fill="none" stroke="black" points="8,-121.5 8,-143.5 156,-143.5 156,-121.5 8,-121.5"/>
<image xlink:href="../../images/foreignKeys.png" width="11px" height="12px" preserveAspectRatio="xMinYMin meet" x="13" y="-138.5"/>
<text text-anchor="start" x="28" y="-128.05" font-family="Helvetica,sans-Serif" font-size="11.00">report</text>
<polygon fill="#ffffff" stroke="none" points="8,-99.5 8,-121.5 156,-121.5 156,-99.5 8,-99.5"/>
<polygon fill="none" stroke="black" points="8,-99.5 8,-121.5 156,-121.5 156,-99.5 8,-99.5"/>
<image xlink:href="../../images/foreignKeys.png" width="11px" height="12px" preserveAspectRatio="xMinYMin meet" x="13" y="-116.5"/>
<text text-anchor="start" x="28" y="-106.05" font-family="Helvetica,sans-Serif" font-size="11.00">doc_unit</text>
<polygon fill="#ffffff" stroke="none" points="8,-77.5 8,-99.5 156,-99.5 156,-77.5 8,-77.5"/>
<polygon fill="none" stroke="black" points="8,-77.5 8,-99.5 156,-99.5 156,-77.5 8,-77.5"/>
<text text-anchor="start" x="28" y="-84.05" font-family="Helvetica,sans-Serif" font-size="11.00">parent_key</text>
<polygon fill="none" stroke="black" points="8,-58 8,-77.5 156,-77.5 156,-58 8,-58"/>
<text text-anchor="start" x="11" y="-64.05" font-family="Helvetica,sans-Serif" font-size="11.00">...</text>
<polygon fill="#ffffff" stroke="none" points="8,-38.5 8,-58 61.33,-58 61.33,-38.5 8,-38.5"/>
<polygon fill="none" stroke="black" points="8,-38.5 8,-58 61.33,-58 61.33,-38.5 8,-38.5"/>
<text text-anchor="start" x="11" y="-44.55" font-family="Helvetica,sans-Serif" font-size="11.00">&lt; 2</text>
<polygon fill="#ffffff" stroke="none" points="61.33,-38.5 61.33,-58 102.67,-58 102.67,-38.5 61.33,-38.5"/>
<polygon fill="none" stroke="black" points="61.33,-38.5 61.33,-58 102.67,-58 102.67,-38.5 61.33,-38.5"/>
<text text-anchor="start" x="92.17" y="-44.55" font-family="Helvetica,sans-Serif" font-size="11.00"> &#160;</text>
<polygon fill="#ffffff" stroke="none" points="102.67,-38.5 102.67,-58 156,-58 156,-38.5 102.67,-38.5"/>
<polygon fill="none" stroke="black" points="102.67,-38.5 102.67,-58 156,-58 156,-38.5 102.67,-38.5"/>
<text text-anchor="start" x="133.5" y="-44.55" font-family="Helvetica,sans-Serif" font-size="11.00">2 &gt;</text>
</a>
</g>
</g>
<!-- exc_doc_unit_msg&#45;&gt;exc_doc_unit -->
<g id="edge1" class="edge">
<title>exc_doc_unit_msg:w&#45;&gt;exc_doc_unit:e</title>
<path fill="none" stroke="black" d="M190.42,-153.9C179.71,-154.12 172.48,-154.5 157,-154.5"/>
<polygon fill="black" stroke="black" points="197.67,-153.83 205.7,-157.35 202,-153.79 205.33,-153.76 205.33,-153.76 205.33,-153.76 202,-153.79 205.63,-150.15 197.67,-153.83"/>
<ellipse fill="none" stroke="black" cx="192.75" cy="-153.88" rx="3.2" ry="3.2"/>
</g>
</g>
</svg>
