<?xml version="1.0" encoding="UTF-8" standalone="no"?>
<!DOCTYPE svg PUBLIC "-//W3C//DTD SVG 1.1//EN"
 "http://www.w3.org/Graphics/SVG/1.1/DTD/svg11.dtd">
<!-- Generated by graphviz version 12.2.0 (0)
 -->
<!-- Title: twoDegreesRelationshipsDiagram Pages: 1 -->
<svg width="1037pt" height="332pt"
 viewBox="0.00 0.00 1037.38 332.00" xmlns="http://www.w3.org/2000/svg" xmlns:xlink="http://www.w3.org/1999/xlink">
<g id="graph0" class="graph" transform="scale(1 1) rotate(0) translate(4 328)">
<title>twoDegreesRelationshipsDiagram</title>
<polygon fill="#ffffff" stroke="none" points="-4,4 -4,-328 1033.38,-328 1033.38,4 -4,4"/>
<text text-anchor="middle" x="79.25" y="-7.05" font-family="Helvetica,sans-Serif" font-size="11.00">Generated by SchemaSpy</text>
<!-- exc_csv_mapping -->
<g id="node1" class="node">
<title>exc_csv_mapping</title>
<g id="a_node1"><a xlink:href="../../tables/exc_csv_mapping.html" xlink:title="exc_csv_mapping" target="_top">
<polygon fill="#ffffff" stroke="none" points="170.75,-122.5 170.75,-185 333.5,-185 333.5,-122.5 170.75,-122.5"/>
<polygon fill="#f5f5f5" stroke="none" points="170.75,-161.5 170.75,-185 333.5,-185 333.5,-161.5 170.75,-161.5"/>
<polygon fill="none" stroke="black" points="170.75,-161.5 170.75,-185 333.5,-185 333.5,-161.5 170.75,-161.5"/>
<text text-anchor="start" x="175.75" y="-170.55" font-family="Helvetica,sans-Serif" font-weight="bold" font-size="11.00">exc_csv_mapping</text>
<text text-anchor="start" x="291.75" y="-169.55" font-family="Helvetica,sans-Serif" font-size="11.00">[table]</text>
<polygon fill="none" stroke="black" points="170.75,-142 170.75,-161.5 333.5,-161.5 333.5,-142 170.75,-142"/>
<text text-anchor="start" x="173.75" y="-148.05" font-family="Helvetica,sans-Serif" font-size="11.00">...</text>
<polygon fill="#ffffff" stroke="none" points="170.75,-122.5 170.75,-142 229,-142 229,-122.5 170.75,-122.5"/>
<polygon fill="none" stroke="black" points="170.75,-122.5 170.75,-142 229,-142 229,-122.5 170.75,-122.5"/>
<text text-anchor="start" x="173.75" y="-128.55" font-family="Helvetica,sans-Serif" font-size="11.00">&lt; 1</text>
<polygon fill="#ffffff" stroke="none" points="229,-122.5 229,-142 275.25,-142 275.25,-122.5 229,-122.5"/>
<polygon fill="none" stroke="black" points="229,-122.5 229,-142 275.25,-142 275.25,-122.5 229,-122.5"/>
<text text-anchor="start" x="264.75" y="-128.55" font-family="Helvetica,sans-Serif" font-size="11.00"> &#160;</text>
<polygon fill="#ffffff" stroke="none" points="275.25,-122.5 275.25,-142 333.5,-142 333.5,-122.5 275.25,-122.5"/>
<polygon fill="none" stroke="black" points="275.25,-122.5 275.25,-142 333.5,-142 333.5,-122.5 275.25,-122.5"/>
<text text-anchor="start" x="311" y="-128.55" font-family="Helvetica,sans-Serif" font-size="11.00">2 &gt;</text>
</a>
</g>
</g>
<!-- lib_library -->
<g id="node2" class="node">
<title>lib_library</title>
<g id="a_node2"><a xlink:href="../../tables/lib_library.html" xlink:title="lib_library" target="_top">
<polygon fill="#ffffff" stroke="none" points="8,-150.5 8,-213 121.75,-213 121.75,-150.5 8,-150.5"/>
<polygon fill="#f5f5f5" stroke="none" points="8,-189.5 8,-213 121.75,-213 121.75,-189.5 8,-189.5"/>
<polygon fill="none" stroke="black" points="8,-189.5 8,-213 121.75,-213 121.75,-189.5 8,-189.5"/>
<text text-anchor="start" x="13" y="-198.55" font-family="Helvetica,sans-Serif" font-weight="bold" font-size="11.00">lib_library</text>
<text text-anchor="start" x="80" y="-197.55" font-family="Helvetica,sans-Serif" font-size="11.00">[table]</text>
<polygon fill="none" stroke="black" points="8,-170 8,-189.5 121.75,-189.5 121.75,-170 8,-170"/>
<text text-anchor="start" x="11" y="-176.05" font-family="Helvetica,sans-Serif" font-size="11.00">...</text>
<polygon fill="#ffffff" stroke="none" points="8,-150.5 8,-170 47.67,-170 47.67,-150.5 8,-150.5"/>
<polygon fill="none" stroke="black" points="8,-150.5 8,-170 47.67,-170 47.67,-150.5 8,-150.5"/>
<text text-anchor="start" x="11" y="-156.55" font-family="Helvetica,sans-Serif" font-size="11.00">&lt; 6</text>
<polygon fill="#ffffff" stroke="none" points="47.67,-150.5 47.67,-170 75.33,-170 75.33,-150.5 47.67,-150.5"/>
<polygon fill="none" stroke="black" points="47.67,-150.5 47.67,-170 75.33,-170 75.33,-150.5 47.67,-150.5"/>
<text text-anchor="start" x="64.83" y="-156.55" font-family="Helvetica,sans-Serif" font-size="11.00"> &#160;</text>
<polygon fill="#ffffff" stroke="none" points="75.33,-150.5 75.33,-170 121.75,-170 121.75,-150.5 75.33,-150.5"/>
<polygon fill="none" stroke="black" points="75.33,-150.5 75.33,-170 121.75,-170 121.75,-150.5 75.33,-150.5"/>
<text text-anchor="start" x="92.5" y="-156.55" font-family="Helvetica,sans-Serif" font-size="11.00">27 &gt;</text>
</a>
</g>
</g>
<!-- exc_csv_mapping&#45;&gt;lib_library -->
<g id="edge1" class="edge">
<title>exc_csv_mapping:w&#45;&gt;lib_library:e</title>
<path fill="none" stroke="black" d="M154.89,-156.63C144.47,-164.65 140.61,-179.75 122.75,-179.75"/>
<polygon fill="black" stroke="black" points="161.83,-154.35 170.56,-155.27 165.95,-153 169.11,-151.96 169.11,-151.96 169.11,-151.96 165.95,-153 168.31,-148.43 161.83,-154.35"/>
<ellipse fill="none" stroke="black" cx="157.16" cy="-155.88" rx="3.2" ry="3.2"/>
</g>
<!-- exc_doc_unit -->
<g id="node3" class="node">
<title>exc_doc_unit</title>
<g id="a_node3"><a xlink:href="../../tables/exc_doc_unit.html" xlink:title="exc_doc_unit" target="_top">
<polygon fill="#ffffff" stroke="none" points="836.81,-257.5 836.81,-320 968.56,-320 968.56,-257.5 836.81,-257.5"/>
<polygon fill="#f5f5f5" stroke="none" points="836.81,-296.5 836.81,-320 968.56,-320 968.56,-296.5 836.81,-296.5"/>
<polygon fill="none" stroke="black" points="836.81,-296.5 836.81,-320 968.56,-320 968.56,-296.5 836.81,-296.5"/>
<text text-anchor="start" x="841.81" y="-305.55" font-family="Helvetica,sans-Serif" font-weight="bold" font-size="11.00">exc_doc_unit</text>
<text text-anchor="start" x="926.81" y="-304.55" font-family="Helvetica,sans-Serif" font-size="11.00">[table]</text>
<polygon fill="none" stroke="black" points="836.81,-277 836.81,-296.5 968.56,-296.5 968.56,-277 836.81,-277"/>
<text text-anchor="start" x="839.81" y="-283.05" font-family="Helvetica,sans-Serif" font-size="11.00">...</text>
<polygon fill="#ffffff" stroke="none" points="836.81,-257.5 836.81,-277 884.73,-277 884.73,-257.5 836.81,-257.5"/>
<polygon fill="none" stroke="black" points="836.81,-257.5 836.81,-277 884.73,-277 884.73,-257.5 836.81,-257.5"/>
<text text-anchor="start" x="839.81" y="-263.55" font-family="Helvetica,sans-Serif" font-size="11.00">&lt; 2</text>
<polygon fill="#ffffff" stroke="none" points="884.73,-257.5 884.73,-277 920.65,-277 920.65,-257.5 884.73,-257.5"/>
<polygon fill="none" stroke="black" points="884.73,-257.5 884.73,-277 920.65,-277 920.65,-257.5 884.73,-257.5"/>
<text text-anchor="start" x="910.15" y="-263.55" font-family="Helvetica,sans-Serif" font-size="11.00"> &#160;</text>
<polygon fill="#ffffff" stroke="none" points="920.65,-257.5 920.65,-277 968.56,-277 968.56,-257.5 920.65,-257.5"/>
<polygon fill="none" stroke="black" points="920.65,-257.5 920.65,-277 968.56,-277 968.56,-257.5 920.65,-257.5"/>
<text text-anchor="start" x="946.06" y="-263.55" font-family="Helvetica,sans-Serif" font-size="11.00">2 &gt;</text>
</a>
</g>
</g>
<!-- exc_import_report -->
<g id="node4" class="node">
<title>exc_import_report</title>
<g id="a_node4"><a xlink:href="../../tables/exc_import_report.html" xlink:title="exc_import_report" target="_top">
<polygon fill="#ffffff" stroke="none" points="566.25,-40.5 566.25,-279 735,-279 735,-40.5 566.25,-40.5"/>
<polygon fill="#f5f5f5" stroke="none" points="566.25,-255.5 566.25,-279 735,-279 735,-255.5 566.25,-255.5"/>
<polygon fill="none" stroke="black" points="566.25,-255.5 566.25,-279 735,-279 735,-255.5 566.25,-255.5"/>
<text text-anchor="start" x="571.25" y="-264.55" font-family="Helvetica,sans-Serif" font-weight="bold" font-size="11.00">exc_import_report</text>
<text text-anchor="start" x="693.25" y="-263.55" font-family="Helvetica,sans-Serif" font-size="11.00">[table]</text>
<polygon fill="none" stroke="black" points="566.25,-233.5 566.25,-255.5 735,-255.5 735,-233.5 566.25,-233.5"/>
<image xlink:href="../../images/primaryKeys.png" width="11px" height="12px" preserveAspectRatio="xMinYMin meet" x="571.25" y="-250.5"/>
<text text-anchor="start" x="596.62" y="-240.05" font-family="Helvetica,sans-Serif" font-size="11.00">identifier</text>
<polygon fill="#ffffff" stroke="none" points="566.25,-211.5 566.25,-233.5 735,-233.5 735,-211.5 566.25,-211.5"/>
<polygon fill="none" stroke="black" points="566.25,-211.5 566.25,-233.5 735,-233.5 735,-211.5 566.25,-211.5"/>
<image xlink:href="../../images/foreignKeys.png" width="11px" height="12px" preserveAspectRatio="xMinYMin meet" x="571.25" y="-228.5"/>
<text text-anchor="start" x="596.62" y="-218.05" font-family="Helvetica,sans-Serif" font-size="11.00">library</text>
<polygon fill="#ffffff" stroke="none" points="566.25,-189.5 566.25,-211.5 735,-211.5 735,-189.5 566.25,-189.5"/>
<polygon fill="none" stroke="black" points="566.25,-189.5 566.25,-211.5 735,-211.5 735,-189.5 566.25,-189.5"/>
<image xlink:href="../../images/foreignKeys.png" width="11px" height="12px" preserveAspectRatio="xMinYMin meet" x="571.25" y="-206.5"/>
<text text-anchor="start" x="596.62" y="-196.05" font-family="Helvetica,sans-Serif" font-size="11.00">mapping</text>
<polygon fill="#ffffff" stroke="none" points="566.25,-167.5 566.25,-189.5 735,-189.5 735,-167.5 566.25,-167.5"/>
<polygon fill="none" stroke="black" points="566.25,-167.5 566.25,-189.5 735,-189.5 735,-167.5 566.25,-167.5"/>
<image xlink:href="../../images/foreignKeys.png" width="11px" height="12px" preserveAspectRatio="xMinYMin meet" x="571.25" y="-184.5"/>
<text text-anchor="start" x="596.62" y="-174.05" font-family="Helvetica,sans-Serif" font-size="11.00">mapping_children</text>
<polygon fill="#ffffff" stroke="none" points="566.25,-145.5 566.25,-167.5 735,-167.5 735,-145.5 566.25,-145.5"/>
<polygon fill="none" stroke="black" points="566.25,-145.5 566.25,-167.5 735,-167.5 735,-145.5 566.25,-145.5"/>
<image xlink:href="../../images/foreignKeys.png" width="11px" height="12px" preserveAspectRatio="xMinYMin meet" x="571.25" y="-162.5"/>
<text text-anchor="start" x="596.62" y="-152.05" font-family="Helvetica,sans-Serif" font-size="11.00">csv_mapping</text>
<polygon fill="#ffffff" stroke="none" points="566.25,-123.5 566.25,-145.5 735,-145.5 735,-123.5 566.25,-123.5"/>
<polygon fill="none" stroke="black" points="566.25,-123.5 566.25,-145.5 735,-145.5 735,-123.5 566.25,-123.5"/>
<image xlink:href="../../images/foreignKeys.png" width="11px" height="12px" preserveAspectRatio="xMinYMin meet" x="571.25" y="-140.5"/>
<text text-anchor="start" x="596.62" y="-130.05" font-family="Helvetica,sans-Serif" font-size="11.00">project</text>
<polygon fill="#ffffff" stroke="none" points="566.25,-101.5 566.25,-123.5 735,-123.5 735,-101.5 566.25,-101.5"/>
<polygon fill="none" stroke="black" points="566.25,-101.5 566.25,-123.5 735,-123.5 735,-101.5 566.25,-101.5"/>
<image xlink:href="../../images/foreignKeys.png" width="11px" height="12px" preserveAspectRatio="xMinYMin meet" x="571.25" y="-118.5"/>
<text text-anchor="start" x="596.62" y="-108.05" font-family="Helvetica,sans-Serif" font-size="11.00">lot</text>
<polygon fill="#ffffff" stroke="none" points="566.25,-79.5 566.25,-101.5 735,-101.5 735,-79.5 566.25,-79.5"/>
<polygon fill="none" stroke="black" points="566.25,-79.5 566.25,-101.5 735,-101.5 735,-79.5 566.25,-79.5"/>
<image xlink:href="../../images/foreignKeys.png" width="11px" height="12px" preserveAspectRatio="xMinYMin meet" x="571.25" y="-96.5"/>
<text text-anchor="start" x="596.62" y="-86.05" font-family="Helvetica,sans-Serif" font-size="11.00">parent</text>
<polygon fill="none" stroke="black" points="566.25,-60 566.25,-79.5 735,-79.5 735,-60 566.25,-60"/>
<text text-anchor="start" x="569.25" y="-66.05" font-family="Helvetica,sans-Serif" font-size="11.00">...</text>
<polygon fill="#ffffff" stroke="none" points="566.25,-40.5 566.25,-60 626.5,-60 626.5,-40.5 566.25,-40.5"/>
<polygon fill="none" stroke="black" points="566.25,-40.5 566.25,-60 626.5,-60 626.5,-40.5 566.25,-40.5"/>
<text text-anchor="start" x="569.25" y="-46.55" font-family="Helvetica,sans-Serif" font-size="11.00">&lt; 7</text>
<polygon fill="#ffffff" stroke="none" points="626.5,-40.5 626.5,-60 674.75,-60 674.75,-40.5 626.5,-40.5"/>
<polygon fill="none" stroke="black" points="626.5,-40.5 626.5,-60 674.75,-60 674.75,-40.5 626.5,-40.5"/>
<text text-anchor="start" x="664.25" y="-46.55" font-family="Helvetica,sans-Serif" font-size="11.00"> &#160;</text>
<polygon fill="#ffffff" stroke="none" points="674.75,-40.5 674.75,-60 735,-60 735,-40.5 674.75,-40.5"/>
<polygon fill="none" stroke="black" points="674.75,-40.5 674.75,-60 735,-60 735,-40.5 674.75,-40.5"/>
<text text-anchor="start" x="712.5" y="-46.55" font-family="Helvetica,sans-Serif" font-size="11.00">3 &gt;</text>
</a>
</g>
</g>
<!-- exc_doc_unit&#45;&gt;exc_import_report -->
<g id="edge2" class="edge">
<title>exc_doc_unit:w&#45;&gt;exc_import_report:e</title>
<path fill="none" stroke="black" d="M820.12,-285.04C786.15,-277.14 778.34,-244.5 736,-244.5"/>
<polygon fill="black" stroke="black" points="827.53,-285.85 835.09,-290.29 831.84,-286.32 835.15,-286.68 835.15,-286.68 835.15,-286.68 831.84,-286.32 835.87,-283.13 827.53,-285.85"/>
<ellipse fill="none" stroke="black" cx="822.64" cy="-285.32" rx="3.2" ry="3.2"/>
</g>
<!-- exc_import_report&#45;&gt;exc_csv_mapping -->
<g id="edge4" class="edge">
<title>exc_import_report:w&#45;&gt;exc_csv_mapping:e</title>
<path fill="none" stroke="black" d="M549.64,-156.46C459.76,-156.01 431.67,-151.75 334.5,-151.75"/>
<polygon fill="black" stroke="black" points="556.92,-156.48 564.91,-160.1 561.25,-156.49 564.58,-156.5 564.58,-156.5 564.58,-156.5 561.25,-156.49 564.92,-152.9 556.92,-156.48"/>
<ellipse fill="none" stroke="black" cx="552" cy="-156.47" rx="3.2" ry="3.2"/>
</g>
<!-- exc_import_report&#45;&gt;lib_library -->
<g id="edge5" class="edge">
<title>exc_import_report:w&#45;&gt;lib_library:e</title>
<path fill="none" stroke="black" d="M550.39,-227.58C542.78,-233.97 539.1,-244.61 525.25,-248.75 461.05,-267.93 441.25,-254.54 374.5,-248.75 279.32,-240.5 249.83,-251.04 162.75,-211.75 142,-202.39 145.52,-179.75 122.75,-179.75"/>
<polygon fill="black" stroke="black" points="557.36,-225.2 566.1,-226.01 561.47,-223.79 564.62,-222.72 564.62,-222.72 564.62,-222.72 561.47,-223.79 563.77,-219.2 557.36,-225.2"/>
<ellipse fill="none" stroke="black" cx="552.71" cy="-226.79" rx="3.2" ry="3.2"/>
</g>
<!-- lot_lot -->
<g id="node6" class="node">
<title>lot_lot</title>
<g id="a_node6"><a xlink:href="../../tables/lot_lot.html" xlink:title="lot_lot" target="_top">
<polygon fill="#ffffff" stroke="none" points="405.5,-38.5 405.5,-101 494.25,-101 494.25,-38.5 405.5,-38.5"/>
<polygon fill="#f5f5f5" stroke="none" points="405.5,-77.5 405.5,-101 494.25,-101 494.25,-77.5 405.5,-77.5"/>
<polygon fill="none" stroke="black" points="405.5,-77.5 405.5,-101 494.25,-101 494.25,-77.5 405.5,-77.5"/>
<text text-anchor="start" x="410.38" y="-86.55" font-family="Helvetica,sans-Serif" font-weight="bold" font-size="11.00">lot_lot</text>
<text text-anchor="start" x="452.5" y="-85.55" font-family="Helvetica,sans-Serif" font-size="11.00">[table]</text>
<polygon fill="none" stroke="black" points="405.5,-58 405.5,-77.5 494.25,-77.5 494.25,-58 405.5,-58"/>
<text text-anchor="start" x="408.5" y="-64.05" font-family="Helvetica,sans-Serif" font-size="11.00">...</text>
<polygon fill="#ffffff" stroke="none" points="405.5,-38.5 405.5,-58 443.58,-58 443.58,-38.5 405.5,-38.5"/>
<polygon fill="none" stroke="black" points="405.5,-38.5 405.5,-58 443.58,-58 443.58,-38.5 405.5,-38.5"/>
<text text-anchor="start" x="408.5" y="-44.55" font-family="Helvetica,sans-Serif" font-size="11.00">&lt; 14</text>
<polygon fill="#ffffff" stroke="none" points="443.58,-38.5 443.58,-58 462.92,-58 462.92,-38.5 443.58,-38.5"/>
<polygon fill="none" stroke="black" points="443.58,-38.5 443.58,-58 462.92,-58 462.92,-38.5 443.58,-38.5"/>
<text text-anchor="start" x="452.42" y="-44.55" font-family="Helvetica,sans-Serif" font-size="11.00"> &#160;</text>
<polygon fill="#ffffff" stroke="none" points="462.92,-38.5 462.92,-58 494.25,-58 494.25,-38.5 462.92,-38.5"/>
<polygon fill="none" stroke="black" points="462.92,-38.5 462.92,-58 494.25,-58 494.25,-38.5 462.92,-38.5"/>
<text text-anchor="start" x="471.75" y="-44.55" font-family="Helvetica,sans-Serif" font-size="11.00">4 &gt;</text>
</a>
</g>
</g>
<!-- exc_import_report&#45;&gt;lot_lot -->
<g id="edge6" class="edge">
<title>exc_import_report:w&#45;&gt;lot_lot:e</title>
<path fill="none" stroke="black" d="M550.01,-109.28C528.49,-99.02 526.12,-67.75 495.25,-67.75"/>
<polygon fill="black" stroke="black" points="557.1,-110.78 564.18,-115.95 561.34,-111.67 564.6,-112.36 564.6,-112.36 564.6,-112.36 561.34,-111.67 565.67,-108.91 557.1,-110.78"/>
<ellipse fill="none" stroke="black" cx="552.28" cy="-109.76" rx="3.2" ry="3.2"/>
</g>
<!-- exc_mapping -->
<g id="node7" class="node">
<title>exc_mapping</title>
<g id="a_node7"><a xlink:href="../../tables/exc_mapping.html" xlink:title="exc_mapping" target="_top">
<polygon fill="#ffffff" stroke="none" points="382.5,-175.5 382.5,-238 517.25,-238 517.25,-175.5 382.5,-175.5"/>
<polygon fill="#f5f5f5" stroke="none" points="382.5,-214.5 382.5,-238 517.25,-238 517.25,-214.5 382.5,-214.5"/>
<polygon fill="none" stroke="black" points="382.5,-214.5 382.5,-238 517.25,-238 517.25,-214.5 382.5,-214.5"/>
<text text-anchor="start" x="387.5" y="-223.55" font-family="Helvetica,sans-Serif" font-weight="bold" font-size="11.00">exc_mapping</text>
<text text-anchor="start" x="475.5" y="-222.55" font-family="Helvetica,sans-Serif" font-size="11.00">[table]</text>
<polygon fill="none" stroke="black" points="382.5,-195 382.5,-214.5 517.25,-214.5 517.25,-195 382.5,-195"/>
<text text-anchor="start" x="385.5" y="-201.05" font-family="Helvetica,sans-Serif" font-size="11.00">...</text>
<polygon fill="#ffffff" stroke="none" points="382.5,-175.5 382.5,-195 431.42,-195 431.42,-175.5 382.5,-175.5"/>
<polygon fill="none" stroke="black" points="382.5,-175.5 382.5,-195 431.42,-195 431.42,-175.5 382.5,-175.5"/>
<text text-anchor="start" x="385.5" y="-181.55" font-family="Helvetica,sans-Serif" font-size="11.00">&lt; 1</text>
<polygon fill="#ffffff" stroke="none" points="431.42,-175.5 431.42,-195 468.33,-195 468.33,-175.5 431.42,-175.5"/>
<polygon fill="none" stroke="black" points="431.42,-175.5 431.42,-195 468.33,-195 468.33,-175.5 431.42,-175.5"/>
<text text-anchor="start" x="457.83" y="-181.55" font-family="Helvetica,sans-Serif" font-size="11.00"> &#160;</text>
<polygon fill="#ffffff" stroke="none" points="468.33,-175.5 468.33,-195 517.25,-195 517.25,-175.5 468.33,-175.5"/>
<polygon fill="none" stroke="black" points="468.33,-175.5 468.33,-195 517.25,-195 517.25,-175.5 468.33,-175.5"/>
<text text-anchor="start" x="494.75" y="-181.55" font-family="Helvetica,sans-Serif" font-size="11.00">3 &gt;</text>
</a>
</g>
</g>
<!-- exc_import_report&#45;&gt;exc_mapping -->
<g id="edge7" class="edge">
<title>exc_import_report:w&#45;&gt;exc_mapping:e</title>
<path fill="none" stroke="black" d="M549.61,-201.44C539.72,-202.7 532.83,-204.75 518.25,-204.75"/>
<polygon fill="black" stroke="black" points="556.93,-201 565.13,-204.11 561.26,-200.74 564.58,-200.54 564.58,-200.54 564.58,-200.54 561.26,-200.74 564.7,-196.93 556.93,-201"/>
<ellipse fill="none" stroke="black" cx="552.02" cy="-201.3" rx="3.2" ry="3.2"/>
</g>
<!-- exc_import_report&#45;&gt;exc_mapping -->
<g id="edge8" class="edge">
<title>exc_import_report:w&#45;&gt;exc_mapping:e</title>
<path fill="none" stroke="black" d="M550.17,-183.31C539.94,-190.89 535.63,-204.75 518.25,-204.75"/>
<polygon fill="black" stroke="black" points="557.31,-181.03 566.03,-182.03 561.44,-179.72 564.61,-178.7 564.61,-178.7 564.61,-178.7 561.44,-179.72 563.84,-175.17 557.31,-181.03"/>
<ellipse fill="none" stroke="black" cx="552.62" cy="-182.53" rx="3.2" ry="3.2"/>
</g>
<!-- proj_project -->
<g id="node8" class="node">
<title>proj_project</title>
<g id="a_node8"><a xlink:href="../../tables/proj_project.html" xlink:title="proj_project" target="_top">
<polygon fill="#ffffff" stroke="none" points="188.75,-38.5 188.75,-101 315.5,-101 315.5,-38.5 188.75,-38.5"/>
<polygon fill="#f5f5f5" stroke="none" points="188.75,-77.5 188.75,-101 315.5,-101 315.5,-77.5 188.75,-77.5"/>
<polygon fill="none" stroke="black" points="188.75,-77.5 188.75,-101 315.5,-101 315.5,-77.5 188.75,-77.5"/>
<text text-anchor="start" x="193.75" y="-86.55" font-family="Helvetica,sans-Serif" font-weight="bold" font-size="11.00">proj_project</text>
<text text-anchor="start" x="273.75" y="-85.55" font-family="Helvetica,sans-Serif" font-size="11.00">[table]</text>
<polygon fill="none" stroke="black" points="188.75,-58 188.75,-77.5 315.5,-77.5 315.5,-58 188.75,-58"/>
<text text-anchor="start" x="191.75" y="-64.05" font-family="Helvetica,sans-Serif" font-size="11.00">...</text>
<polygon fill="#ffffff" stroke="none" points="188.75,-38.5 188.75,-58 239.5,-58 239.5,-38.5 188.75,-38.5"/>
<polygon fill="none" stroke="black" points="188.75,-38.5 188.75,-58 239.5,-58 239.5,-38.5 188.75,-38.5"/>
<text text-anchor="start" x="191.75" y="-44.55" font-family="Helvetica,sans-Serif" font-size="11.00">&lt; 13</text>
<polygon fill="#ffffff" stroke="none" points="239.5,-38.5 239.5,-58 271.5,-58 271.5,-38.5 239.5,-38.5"/>
<polygon fill="none" stroke="black" points="239.5,-38.5 239.5,-58 271.5,-58 271.5,-38.5 239.5,-38.5"/>
<text text-anchor="start" x="261" y="-44.55" font-family="Helvetica,sans-Serif" font-size="11.00"> &#160;</text>
<polygon fill="#ffffff" stroke="none" points="271.5,-38.5 271.5,-58 315.5,-58 315.5,-38.5 271.5,-38.5"/>
<polygon fill="none" stroke="black" points="271.5,-38.5 271.5,-58 315.5,-58 315.5,-38.5 271.5,-38.5"/>
<text text-anchor="start" x="293" y="-44.55" font-family="Helvetica,sans-Serif" font-size="11.00">7 &gt;</text>
</a>
</g>
</g>
<!-- exc_import_report&#45;&gt;proj_project -->
<g id="edge9" class="edge">
<title>exc_import_report:w&#45;&gt;proj_project:e</title>
<path fill="none" stroke="black" d="M549.45,-134.6C476.27,-135.52 448.56,-141.66 374.5,-111.75 344.5,-99.63 348.86,-67.75 316.5,-67.75"/>
<polygon fill="black" stroke="black" points="556.92,-134.55 564.94,-138.1 561.25,-134.53 564.58,-134.5 564.58,-134.5 564.58,-134.5 561.25,-134.53 564.89,-130.9 556.92,-134.55"/>
<ellipse fill="none" stroke="black" cx="552" cy="-134.59" rx="3.2" ry="3.2"/>
</g>
<!-- exc_import_file -->
<g id="node5" class="node">
<title>exc_import_file</title>
<g id="a_node5"><a xlink:href="../../tables/exc_import_file.html" xlink:title="exc_import_file" target="_top">
<polygon fill="#ffffff" stroke="none" points="784,-123.25 784,-236.25 1021.38,-236.25 1021.38,-123.25 784,-123.25"/>
<polygon fill="#f5f5f5" stroke="none" points="786,-210.75 786,-234.25 1019.38,-234.25 1019.38,-210.75 786,-210.75"/>
<polygon fill="none" stroke="black" points="786,-210.75 786,-234.25 1019.38,-234.25 1019.38,-210.75 786,-210.75"/>
<text text-anchor="start" x="791" y="-219.8" font-family="Helvetica,sans-Serif" font-weight="bold" font-size="11.00">exc_import_file</text>
<text text-anchor="start" x="977.62" y="-218.8" font-family="Helvetica,sans-Serif" font-size="11.00">[table]</text>
<polygon fill="#ffffff" stroke="none" points="786,-188.75 786,-210.75 923,-210.75 923,-188.75 786,-188.75"/>
<polygon fill="none" stroke="black" points="786,-188.75 786,-210.75 923,-210.75 923,-188.75 786,-188.75"/>
<image xlink:href="../../images/foreignKeys.png" width="11px" height="12px" preserveAspectRatio="xMinYMin meet" x="791" y="-205.75"/>
<text text-anchor="start" x="806" y="-195.3" font-family="Helvetica,sans-Serif" font-size="11.00">report</text>
<polygon fill="none" stroke="black" points="923,-188.75 923,-210.75 1013.19,-210.75 1013.19,-188.75 923,-188.75"/>
<text text-anchor="start" x="926" y="-196.05" font-family="Helvetica,sans-Serif" font-size="11.00">varchar[191]</text>
<polygon fill="none" stroke="black" points="786,-166.75 786,-188.75 923,-188.75 923,-166.75 786,-166.75"/>
<text text-anchor="start" x="806" y="-173.3" font-family="Helvetica,sans-Serif" font-size="11.00">original_filename</text>
<polygon fill="none" stroke="black" points="923,-166.75 923,-188.75 1013.19,-188.75 1013.19,-166.75 923,-166.75"/>
<text text-anchor="start" x="926" y="-174.05" font-family="Helvetica,sans-Serif" font-size="11.00">varchar[1024]</text>
<polygon fill="none" stroke="black" points="786,-144.75 786,-166.75 923,-166.75 923,-144.75 786,-144.75"/>
<text text-anchor="start" x="806" y="-151.3" font-family="Helvetica,sans-Serif" font-size="11.00">file_size</text>
<polygon fill="none" stroke="black" points="923,-144.75 923,-166.75 1013.19,-166.75 1013.19,-144.75 923,-144.75"/>
<text text-anchor="start" x="926" y="-152.05" font-family="Helvetica,sans-Serif" font-size="11.00">bigint[19]</text>
<polygon fill="#ffffff" stroke="none" points="786,-125.25 786,-144.75 860.5,-144.75 860.5,-125.25 786,-125.25"/>
<polygon fill="none" stroke="black" points="786,-125.25 786,-144.75 860.5,-144.75 860.5,-125.25 786,-125.25"/>
<text text-anchor="start" x="789" y="-131.3" font-family="Helvetica,sans-Serif" font-size="11.00">&lt; 1</text>
<polygon fill="#ffffff" stroke="none" points="860.5,-125.25 860.5,-144.75 923,-144.75 923,-125.25 860.5,-125.25"/>
<polygon fill="none" stroke="black" points="860.5,-125.25 860.5,-144.75 923,-144.75 923,-125.25 860.5,-125.25"/>
<text text-anchor="start" x="912.5" y="-131.3" font-family="Helvetica,sans-Serif" font-size="11.00"> &#160;</text>
<polygon fill="#ffffff" stroke="none" points="923,-125.25 923,-144.75 1013.19,-144.75 1013.19,-125.25 923,-125.25"/>
<polygon fill="none" stroke="black" points="923,-125.25 923,-144.75 1013.19,-144.75 1013.19,-125.25 923,-125.25"/>
<text text-anchor="start" x="990.69" y="-131.3" font-family="Helvetica,sans-Serif" font-size="11.00">0 &gt;</text>
<polygon fill="none" stroke="black" stroke-width="2" points="785,-124.25 785,-235.25 1020.38,-235.25 1020.38,-124.25 785,-124.25"/>
</a>
</g>
</g>
<!-- exc_import_file&#45;&gt;exc_import_report -->
<g id="edge3" class="edge">
<title>exc_import_file:w&#45;&gt;exc_import_report:e</title>
<path fill="none" stroke="black" d="M770.49,-205.24C757.99,-217.19 759.04,-244.5 736,-244.5"/>
<polygon fill="black" stroke="black" points="777.2,-202.7 785.96,-203.24 781.26,-201.16 784.37,-199.99 784.37,-199.99 784.37,-199.99 781.26,-201.16 783.41,-196.5 777.2,-202.7"/>
<ellipse fill="none" stroke="black" cx="772.6" cy="-204.44" rx="3.2" ry="3.2"/>
</g>
<!-- lot_lot&#45;&gt;proj_project -->
<g id="edge11" class="edge">
<title>lot_lot:w&#45;&gt;proj_project:e</title>
<path fill="none" stroke="black" d="M388.83,-67.75C361.84,-67.75 349.81,-67.75 316.5,-67.75"/>
<polygon fill="black" stroke="black" points="396.17,-67.75 404.17,-71.35 400.5,-67.75 403.83,-67.75 403.83,-67.75 403.83,-67.75 400.5,-67.75 404.17,-64.15 396.17,-67.75"/>
<ellipse fill="none" stroke="black" cx="391.25" cy="-67.75" rx="3.2" ry="3.2"/>
</g>
<!-- exc_mapping&#45;&gt;lib_library -->
<g id="edge10" class="edge">
<title>exc_mapping:w&#45;&gt;lib_library:e</title>
<path fill="none" stroke="black" d="M365.89,-204.85C281.05,-205.92 252.6,-214.98 162.75,-195.75 144.03,-191.74 141.9,-179.75 122.75,-179.75"/>
<polygon fill="black" stroke="black" points="373.17,-204.8 381.19,-208.35 377.5,-204.78 380.83,-204.75 380.83,-204.75 380.83,-204.75 377.5,-204.78 381.14,-201.15 373.17,-204.8"/>
<ellipse fill="none" stroke="black" cx="368.25" cy="-204.83" rx="3.2" ry="3.2"/>
</g>
<!-- proj_project&#45;&gt;lib_library -->
<g id="edge12" class="edge">
<title>proj_project:w&#45;&gt;lib_library:e</title>
<path fill="none" stroke="black" d="M172.45,-71.48C139.87,-90.91 174.01,-179.75 122.75,-179.75"/>
<polygon fill="black" stroke="black" points="179.65,-69.72 188.28,-71.33 183.86,-68.7 187.1,-67.91 187.1,-67.91 187.1,-67.91 183.86,-68.7 186.57,-64.33 179.65,-69.72"/>
<ellipse fill="none" stroke="black" cx="174.87" cy="-70.89" rx="3.2" ry="3.2"/>
</g>
</g>
</svg>
