<?xml version="1.0" encoding="UTF-8" standalone="no"?>
<!DOCTYPE svg PUBLIC "-//W3C//DTD SVG 1.1//EN"
 "http://www.w3.org/Graphics/SVG/1.1/DTD/svg11.dtd">
<!-- Generated by graphviz version 12.2.0 (0)
 -->
<!-- Title: oneDegreeRelationshipsDiagram Pages: 1 -->
<svg width="706pt" height="556pt"
 viewBox="0.00 0.00 706.00 556.00" xmlns="http://www.w3.org/2000/svg" xmlns:xlink="http://www.w3.org/1999/xlink">
<g id="graph0" class="graph" transform="scale(1 1) rotate(0) translate(4 552)">
<title>oneDegreeRelationshipsDiagram</title>
<polygon fill="#ffffff" stroke="none" points="-4,4 -4,-552 702,-552 702,4 -4,4"/>
<text text-anchor="middle" x="79.25" y="-7.05" font-family="Helvetica,sans-Serif" font-size="11.00">Generated by SchemaSpy</text>
<!-- exc_doc_unit -->
<g id="node1" class="node">
<title>exc_doc_unit</title>
<g id="a_node1"><a xlink:href="../../tables/exc_doc_unit.html" xlink:title="exc_doc_unit" target="_top">
<polygon fill="#ffffff" stroke="none" points="244,-393.5 244,-544 392,-544 392,-393.5 244,-393.5"/>
<polygon fill="#f5f5f5" stroke="none" points="244,-520.5 244,-544 392,-544 392,-520.5 244,-520.5"/>
<polygon fill="none" stroke="black" points="244,-520.5 244,-544 392,-544 392,-520.5 244,-520.5"/>
<text text-anchor="start" x="249" y="-529.55" font-family="Helvetica,sans-Serif" font-weight="bold" font-size="11.00">exc_doc_unit</text>
<text text-anchor="start" x="350.25" y="-528.55" font-family="Helvetica,sans-Serif" font-size="11.00">[table]</text>
<polygon fill="none" stroke="black" points="244,-498.5 244,-520.5 392,-520.5 392,-498.5 244,-498.5"/>
<image xlink:href="../../images/primaryKeys.png" width="11px" height="12px" preserveAspectRatio="xMinYMin meet" x="249" y="-515.5"/>
<text text-anchor="start" x="264" y="-505.05" font-family="Helvetica,sans-Serif" font-size="11.00">identifier</text>
<polygon fill="#ffffff" stroke="none" points="244,-476.5 244,-498.5 392,-498.5 392,-476.5 244,-476.5"/>
<polygon fill="none" stroke="black" points="244,-476.5 244,-498.5 392,-498.5 392,-476.5 244,-476.5"/>
<image xlink:href="../../images/foreignKeys.png" width="11px" height="12px" preserveAspectRatio="xMinYMin meet" x="249" y="-493.5"/>
<text text-anchor="start" x="264" y="-483.05" font-family="Helvetica,sans-Serif" font-size="11.00">report</text>
<polygon fill="#ffffff" stroke="none" points="244,-454.5 244,-476.5 392,-476.5 392,-454.5 244,-454.5"/>
<polygon fill="none" stroke="black" points="244,-454.5 244,-476.5 392,-476.5 392,-454.5 244,-454.5"/>
<image xlink:href="../../images/foreignKeys.png" width="11px" height="12px" preserveAspectRatio="xMinYMin meet" x="249" y="-471.5"/>
<text text-anchor="start" x="264" y="-461.05" font-family="Helvetica,sans-Serif" font-size="11.00">doc_unit</text>
<polygon fill="#ffffff" stroke="none" points="244,-432.5 244,-454.5 392,-454.5 392,-432.5 244,-432.5"/>
<polygon fill="none" stroke="black" points="244,-432.5 244,-454.5 392,-454.5 392,-432.5 244,-432.5"/>
<text text-anchor="start" x="264" y="-439.05" font-family="Helvetica,sans-Serif" font-size="11.00">parent_key</text>
<polygon fill="none" stroke="black" points="244,-413 244,-432.5 392,-432.5 392,-413 244,-413"/>
<text text-anchor="start" x="247" y="-419.05" font-family="Helvetica,sans-Serif" font-size="11.00">...</text>
<polygon fill="#ffffff" stroke="none" points="244,-393.5 244,-413 297.33,-413 297.33,-393.5 244,-393.5"/>
<polygon fill="none" stroke="black" points="244,-393.5 244,-413 297.33,-413 297.33,-393.5 244,-393.5"/>
<text text-anchor="start" x="247" y="-399.55" font-family="Helvetica,sans-Serif" font-size="11.00">&lt; 2</text>
<polygon fill="#ffffff" stroke="none" points="297.33,-393.5 297.33,-413 338.67,-413 338.67,-393.5 297.33,-393.5"/>
<polygon fill="none" stroke="black" points="297.33,-393.5 297.33,-413 338.67,-413 338.67,-393.5 297.33,-393.5"/>
<text text-anchor="start" x="328.17" y="-399.55" font-family="Helvetica,sans-Serif" font-size="11.00"> &#160;</text>
<polygon fill="#ffffff" stroke="none" points="338.67,-393.5 338.67,-413 392,-413 392,-393.5 338.67,-393.5"/>
<polygon fill="none" stroke="black" points="338.67,-393.5 338.67,-413 392,-413 392,-393.5 338.67,-393.5"/>
<text text-anchor="start" x="369.5" y="-399.55" font-family="Helvetica,sans-Serif" font-size="11.00">2 &gt;</text>
</a>
</g>
</g>
<!-- doc_unit -->
<g id="node2" class="node">
<title>doc_unit</title>
<g id="a_node2"><a xlink:href="../../tables/doc_unit.html" xlink:title="doc_unit" target="_top">
<polygon fill="#ffffff" stroke="none" points="8,-38.5 8,-453 195,-453 195,-38.5 8,-38.5"/>
<polygon fill="#f5f5f5" stroke="none" points="8,-429.5 8,-453 195,-453 195,-429.5 8,-429.5"/>
<polygon fill="none" stroke="black" points="8,-429.5 8,-453 195,-453 195,-429.5 8,-429.5"/>
<text text-anchor="start" x="13" y="-438.55" font-family="Helvetica,sans-Serif" font-weight="bold" font-size="11.00">doc_unit</text>
<text text-anchor="start" x="153.25" y="-437.55" font-family="Helvetica,sans-Serif" font-size="11.00">[table]</text>
<polygon fill="none" stroke="black" points="8,-407.5 8,-429.5 195,-429.5 195,-407.5 8,-407.5"/>
<image xlink:href="../../images/primaryKeys.png" width="11px" height="12px" preserveAspectRatio="xMinYMin meet" x="13" y="-424.5"/>
<text text-anchor="start" x="28" y="-414.05" font-family="Helvetica,sans-Serif" font-size="11.00">identifier</text>
<polygon fill="#ffffff" stroke="none" points="8,-385.5 8,-407.5 195,-407.5 195,-385.5 8,-385.5"/>
<polygon fill="none" stroke="black" points="8,-385.5 8,-407.5 195,-407.5 195,-385.5 8,-385.5"/>
<text text-anchor="start" x="28" y="-392.05" font-family="Helvetica,sans-Serif" font-size="11.00">pgcn_id</text>
<polygon fill="#ffffff" stroke="none" points="8,-363.5 8,-385.5 195,-385.5 195,-363.5 8,-363.5"/>
<polygon fill="none" stroke="black" points="8,-363.5 8,-385.5 195,-385.5 195,-363.5 8,-363.5"/>
<image xlink:href="../../images/foreignKeys.png" width="11px" height="12px" preserveAspectRatio="xMinYMin meet" x="13" y="-380.5"/>
<text text-anchor="start" x="28" y="-370.05" font-family="Helvetica,sans-Serif" font-size="11.00">library</text>
<polygon fill="#ffffff" stroke="none" points="8,-341.5 8,-363.5 195,-363.5 195,-341.5 8,-341.5"/>
<polygon fill="none" stroke="black" points="8,-341.5 8,-363.5 195,-363.5 195,-341.5 8,-341.5"/>
<image xlink:href="../../images/foreignKeys.png" width="11px" height="12px" preserveAspectRatio="xMinYMin meet" x="13" y="-358.5"/>
<text text-anchor="start" x="28" y="-348.05" font-family="Helvetica,sans-Serif" font-size="11.00">project</text>
<polygon fill="#ffffff" stroke="none" points="8,-319.5 8,-341.5 195,-341.5 195,-319.5 8,-319.5"/>
<polygon fill="none" stroke="black" points="8,-319.5 8,-341.5 195,-341.5 195,-319.5 8,-319.5"/>
<text text-anchor="start" x="28" y="-326.05" font-family="Helvetica,sans-Serif" font-size="11.00">state</text>
<polygon fill="#ffffff" stroke="none" points="8,-297.5 8,-319.5 195,-319.5 195,-297.5 8,-297.5"/>
<polygon fill="none" stroke="black" points="8,-297.5 8,-319.5 195,-319.5 195,-297.5 8,-297.5"/>
<image xlink:href="../../images/foreignKeys.png" width="11px" height="12px" preserveAspectRatio="xMinYMin meet" x="13" y="-314.5"/>
<text text-anchor="start" x="28" y="-304.05" font-family="Helvetica,sans-Serif" font-size="11.00">lot</text>
<polygon fill="#ffffff" stroke="none" points="8,-275.5 8,-297.5 195,-297.5 195,-275.5 8,-275.5"/>
<polygon fill="none" stroke="black" points="8,-275.5 8,-297.5 195,-297.5 195,-275.5 8,-275.5"/>
<image xlink:href="../../images/foreignKeys.png" width="11px" height="12px" preserveAspectRatio="xMinYMin meet" x="13" y="-292.5"/>
<text text-anchor="start" x="28" y="-282.05" font-family="Helvetica,sans-Serif" font-size="11.00">collection_omeka</text>
<polygon fill="#ffffff" stroke="none" points="8,-253.5 8,-275.5 195,-275.5 195,-253.5 8,-253.5"/>
<polygon fill="none" stroke="black" points="8,-253.5 8,-275.5 195,-275.5 195,-253.5 8,-253.5"/>
<image xlink:href="../../images/foreignKeys.png" width="11px" height="12px" preserveAspectRatio="xMinYMin meet" x="13" y="-270.5"/>
<text text-anchor="start" x="28" y="-260.05" font-family="Helvetica,sans-Serif" font-size="11.00">items_omeka</text>
<polygon fill="#ffffff" stroke="none" points="8,-231.5 8,-253.5 195,-253.5 195,-231.5 8,-231.5"/>
<polygon fill="none" stroke="black" points="8,-231.5 8,-253.5 195,-253.5 195,-231.5 8,-231.5"/>
<image xlink:href="../../images/foreignKeys.png" width="11px" height="12px" preserveAspectRatio="xMinYMin meet" x="13" y="-248.5"/>
<text text-anchor="start" x="28" y="-238.05" font-family="Helvetica,sans-Serif" font-size="11.00">parent</text>
<polygon fill="#ffffff" stroke="none" points="8,-209.5 8,-231.5 195,-231.5 195,-209.5 8,-209.5"/>
<polygon fill="none" stroke="black" points="8,-209.5 8,-231.5 195,-231.5 195,-209.5 8,-209.5"/>
<image xlink:href="../../images/foreignKeys.png" width="11px" height="12px" preserveAspectRatio="xMinYMin meet" x="13" y="-226.5"/>
<text text-anchor="start" x="28" y="-216.05" font-family="Helvetica,sans-Serif" font-size="11.00">active_ocr_lang</text>
<polygon fill="#ffffff" stroke="none" points="8,-187.5 8,-209.5 195,-209.5 195,-187.5 8,-187.5"/>
<polygon fill="none" stroke="black" points="8,-187.5 8,-209.5 195,-209.5 195,-187.5 8,-187.5"/>
<image xlink:href="../../images/foreignKeys.png" width="11px" height="12px" preserveAspectRatio="xMinYMin meet" x="13" y="-204.5"/>
<text text-anchor="start" x="28" y="-194.05" font-family="Helvetica,sans-Serif" font-size="11.00">collection_ia</text>
<polygon fill="#ffffff" stroke="none" points="8,-165.5 8,-187.5 195,-187.5 195,-165.5 8,-165.5"/>
<polygon fill="none" stroke="black" points="8,-165.5 8,-187.5 195,-187.5 195,-165.5 8,-165.5"/>
<image xlink:href="../../images/foreignKeys.png" width="11px" height="12px" preserveAspectRatio="xMinYMin meet" x="13" y="-182.5"/>
<text text-anchor="start" x="28" y="-172.05" font-family="Helvetica,sans-Serif" font-size="11.00">classement_pac</text>
<polygon fill="#ffffff" stroke="none" points="8,-143.5 8,-165.5 195,-165.5 195,-143.5 8,-143.5"/>
<polygon fill="none" stroke="black" points="8,-143.5 8,-165.5 195,-165.5 195,-143.5 8,-143.5"/>
<image xlink:href="../../images/foreignKeys.png" width="11px" height="12px" preserveAspectRatio="xMinYMin meet" x="13" y="-160.5"/>
<text text-anchor="start" x="28" y="-150.05" font-family="Helvetica,sans-Serif" font-size="11.00">sibling</text>
<polygon fill="#ffffff" stroke="none" points="8,-121.5 8,-143.5 195,-143.5 195,-121.5 8,-121.5"/>
<polygon fill="none" stroke="black" points="8,-121.5 8,-143.5 195,-143.5 195,-121.5 8,-121.5"/>
<image xlink:href="../../images/foreignKeys.png" width="11px" height="12px" preserveAspectRatio="xMinYMin meet" x="13" y="-138.5"/>
<text text-anchor="start" x="28" y="-128.05" font-family="Helvetica,sans-Serif" font-size="11.00">export_data</text>
<polygon fill="#ffffff" stroke="none" points="8,-99.5 8,-121.5 195,-121.5 195,-99.5 8,-99.5"/>
<polygon fill="none" stroke="black" points="8,-99.5 8,-121.5 195,-121.5 195,-99.5 8,-99.5"/>
<image xlink:href="../../images/foreignKeys.png" width="11px" height="12px" preserveAspectRatio="xMinYMin meet" x="13" y="-116.5"/>
<text text-anchor="start" x="28" y="-106.05" font-family="Helvetica,sans-Serif" font-size="11.00">archive_item</text>
<polygon fill="#ffffff" stroke="none" points="8,-77.5 8,-99.5 195,-99.5 195,-77.5 8,-77.5"/>
<polygon fill="none" stroke="black" points="8,-77.5 8,-99.5 195,-99.5 195,-77.5 8,-77.5"/>
<image xlink:href="../../images/foreignKeys.png" width="11px" height="12px" preserveAspectRatio="xMinYMin meet" x="13" y="-94.5"/>
<text text-anchor="start" x="28" y="-84.05" font-family="Helvetica,sans-Serif" font-size="11.00">workflow</text>
<polygon fill="none" stroke="black" points="8,-58 8,-77.5 195,-77.5 195,-58 8,-58"/>
<text text-anchor="start" x="11" y="-64.05" font-family="Helvetica,sans-Serif" font-size="11.00">...</text>
<polygon fill="#ffffff" stroke="none" points="8,-38.5 8,-58 76.58,-58 76.58,-38.5 8,-38.5"/>
<polygon fill="none" stroke="black" points="8,-38.5 8,-58 76.58,-58 76.58,-38.5 8,-38.5"/>
<text text-anchor="start" x="11" y="-44.55" font-family="Helvetica,sans-Serif" font-size="11.00">&lt; 13</text>
<polygon fill="#ffffff" stroke="none" points="76.58,-38.5 76.58,-58 126.42,-58 126.42,-38.5 76.58,-38.5"/>
<polygon fill="none" stroke="black" points="76.58,-38.5 76.58,-58 126.42,-58 126.42,-38.5 76.58,-38.5"/>
<text text-anchor="start" x="115.92" y="-44.55" font-family="Helvetica,sans-Serif" font-size="11.00"> &#160;</text>
<polygon fill="#ffffff" stroke="none" points="126.42,-38.5 126.42,-58 195,-58 195,-38.5 126.42,-38.5"/>
<polygon fill="none" stroke="black" points="126.42,-38.5 126.42,-58 195,-58 195,-38.5 126.42,-38.5"/>
<text text-anchor="start" x="165.75" y="-44.55" font-family="Helvetica,sans-Serif" font-size="11.00">11 &gt;</text>
</a>
</g>
</g>
<!-- exc_doc_unit&#45;&gt;doc_unit -->
<g id="edge1" class="edge">
<title>exc_doc_unit:w&#45;&gt;doc_unit:e</title>
<path fill="none" stroke="black" d="M228.72,-459.74C216.75,-447.19 219.08,-418.5 196,-418.5"/>
<polygon fill="black" stroke="black" points="235.27,-462.38 241.34,-468.71 239.29,-464 242.38,-465.25 242.38,-465.25 242.38,-465.25 239.29,-464 244.04,-462.04 235.27,-462.38"/>
<ellipse fill="none" stroke="black" cx="230.71" cy="-460.54" rx="3.2" ry="3.2"/>
</g>
<!-- exc_doc_unit_dupl -->
<g id="node3" class="node">
<title>exc_doc_unit_dupl</title>
<g id="a_node3"><a xlink:href="../../tables/exc_doc_unit_dupl.html" xlink:title="exc_doc_unit_dupl" target="_top">
<polygon fill="#ffffff" stroke="none" points="441,-395.25 441,-486.25 690,-486.25 690,-395.25 441,-395.25"/>
<polygon fill="#f5f5f5" stroke="none" points="443,-460.75 443,-484.25 688,-484.25 688,-460.75 443,-460.75"/>
<polygon fill="none" stroke="black" points="443,-460.75 443,-484.25 688,-484.25 688,-460.75 443,-460.75"/>
<text text-anchor="start" x="448" y="-469.8" font-family="Helvetica,sans-Serif" font-weight="bold" font-size="11.00">exc_doc_unit_dupl</text>
<text text-anchor="start" x="646.25" y="-468.8" font-family="Helvetica,sans-Serif" font-size="11.00">[table]</text>
<polygon fill="none" stroke="black" points="443,-438.75 443,-460.75 585,-460.75 585,-438.75 443,-438.75"/>
<image xlink:href="../../images/primaryKeys.png" width="11px" height="12px" preserveAspectRatio="xMinYMin meet" x="448" y="-455.75"/>
<text text-anchor="start" x="463" y="-445.3" font-family="Helvetica,sans-Serif" font-size="11.00">imp_unit</text>
<polygon fill="none" stroke="black" points="585,-438.75 585,-460.75 675.12,-460.75 675.12,-438.75 585,-438.75"/>
<text text-anchor="start" x="588" y="-446.05" font-family="Helvetica,sans-Serif" font-size="11.00">varchar[191]</text>
<polygon fill="none" stroke="black" points="443,-416.75 443,-438.75 585,-438.75 585,-416.75 443,-416.75"/>
<image xlink:href="../../images/primaryKeys.png" width="11px" height="12px" preserveAspectRatio="xMinYMin meet" x="448" y="-433.75"/>
<text text-anchor="start" x="463" y="-423.3" font-family="Helvetica,sans-Serif" font-size="11.00">doc_unit</text>
<polygon fill="none" stroke="black" points="585,-416.75 585,-438.75 675.12,-438.75 675.12,-416.75 585,-416.75"/>
<text text-anchor="start" x="588" y="-424.05" font-family="Helvetica,sans-Serif" font-size="11.00">varchar[191]</text>
<polygon fill="#ffffff" stroke="none" points="443,-397.25 443,-416.75 520,-416.75 520,-397.25 443,-397.25"/>
<polygon fill="none" stroke="black" points="443,-397.25 443,-416.75 520,-416.75 520,-397.25 443,-397.25"/>
<text text-anchor="start" x="446" y="-403.3" font-family="Helvetica,sans-Serif" font-size="11.00">&lt; 2</text>
<polygon fill="#ffffff" stroke="none" points="520,-397.25 520,-416.75 585,-416.75 585,-397.25 520,-397.25"/>
<polygon fill="none" stroke="black" points="520,-397.25 520,-416.75 585,-416.75 585,-397.25 520,-397.25"/>
<text text-anchor="start" x="574.5" y="-403.3" font-family="Helvetica,sans-Serif" font-size="11.00"> &#160;</text>
<polygon fill="#ffffff" stroke="none" points="585,-397.25 585,-416.75 675.12,-416.75 675.12,-397.25 585,-397.25"/>
<polygon fill="none" stroke="black" points="585,-397.25 585,-416.75 675.12,-416.75 675.12,-397.25 585,-397.25"/>
<text text-anchor="start" x="652.62" y="-403.3" font-family="Helvetica,sans-Serif" font-size="11.00">0 &gt;</text>
<polygon fill="none" stroke="black" stroke-width="2" points="442,-396.25 442,-485.25 689,-485.25 689,-396.25 442,-396.25"/>
</a>
</g>
</g>
<!-- exc_doc_unit_dupl&#45;&gt;exc_doc_unit -->
<g id="edge3" class="edge">
<title>exc_doc_unit_dupl:w&#45;&gt;exc_doc_unit:e</title>
<path fill="none" stroke="black" d="M427.67,-455.26C413.14,-470.06 420.9,-509.5 393,-509.5"/>
<polygon fill="black" stroke="black" points="434.22,-452.74 442.98,-453.23 438.27,-451.19 441.38,-449.99 441.38,-449.99 441.38,-449.99 438.27,-451.19 440.4,-446.51 434.22,-452.74"/>
<ellipse fill="none" stroke="black" cx="429.63" cy="-454.51" rx="3.2" ry="3.2"/>
</g>
<!-- exc_doc_unit_dupl&#45;&gt;doc_unit -->
<g id="edge2" class="edge">
<title>exc_doc_unit_dupl:w&#45;&gt;doc_unit:e</title>
<path fill="none" stroke="black" d="M427.42,-422.25C417.65,-412.15 418.82,-390.93 400,-382.75 333.15,-353.7 304.1,-356.75 236,-382.75 213.72,-391.25 219.84,-418.5 196,-418.5"/>
<polygon fill="black" stroke="black" points="434.2,-424.81 440.42,-431 438.26,-426.34 441.37,-427.51 441.37,-427.51 441.37,-427.51 438.26,-426.34 442.96,-424.26 434.2,-424.81"/>
<ellipse fill="none" stroke="black" cx="429.6" cy="-423.07" rx="3.2" ry="3.2"/>
</g>
</g>
</svg>
