<?xml version="1.0" encoding="UTF-8" standalone="no"?>
<!DOCTYPE svg PUBLIC "-//W3C//DTD SVG 1.1//EN"
 "http://www.w3.org/Graphics/SVG/1.1/DTD/svg11.dtd">
<!-- Generated by graphviz version 12.2.0 (0)
 -->
<!-- Title: oneDegreeRelationshipsDiagram Pages: 1 -->
<svg width="540pt" height="406pt"
 viewBox="0.00 0.00 539.50 405.50" xmlns="http://www.w3.org/2000/svg" xmlns:xlink="http://www.w3.org/1999/xlink">
<g id="graph0" class="graph" transform="scale(1 1) rotate(0) translate(4 401.5)">
<title>oneDegreeRelationshipsDiagram</title>
<polygon fill="#ffffff" stroke="none" points="-4,4 -4,-401.5 535.5,-401.5 535.5,4 -4,4"/>
<text text-anchor="middle" x="79.25" y="-7.05" font-family="Helvetica,sans-Serif" font-size="11.00">Generated by SchemaSpy</text>
<!-- exc_csv_mapping_rule -->
<g id="node1" class="node">
<title>exc_csv_mapping_rule</title>
<g id="a_node1"><a xlink:href="../../tables/exc_csv_mapping_rule.html" xlink:title="exc_csv_mapping_rule" target="_top">
<polygon fill="#ffffff" stroke="none" points="228.75,-38.5 228.75,-393.5 523.5,-393.5 523.5,-38.5 228.75,-38.5"/>
<polygon fill="#f5f5f5" stroke="none" points="230.75,-368 230.75,-391.5 521.5,-391.5 521.5,-368 230.75,-368"/>
<polygon fill="none" stroke="black" points="230.75,-368 230.75,-391.5 521.5,-391.5 521.5,-368 230.75,-368"/>
<text text-anchor="start" x="235.75" y="-377.05" font-family="Helvetica,sans-Serif" font-weight="bold" font-size="11.00">exc_csv_mapping_rule</text>
<text text-anchor="start" x="479.75" y="-376.05" font-family="Helvetica,sans-Serif" font-size="11.00">[table]</text>
<polygon fill="none" stroke="black" points="230.75,-346 230.75,-368 399.75,-368 399.75,-346 230.75,-346"/>
<image xlink:href="../../images/primaryKeys.png" width="11px" height="12px" preserveAspectRatio="xMinYMin meet" x="235.75" y="-363"/>
<text text-anchor="start" x="250.75" y="-352.55" font-family="Helvetica,sans-Serif" font-size="11.00">identifier</text>
<polygon fill="none" stroke="black" points="399.75,-346 399.75,-368 504.5,-368 504.5,-346 399.75,-346"/>
<text text-anchor="start" x="402.75" y="-353.3" font-family="Helvetica,sans-Serif" font-size="11.00">varchar[191]</text>
<polygon fill="none" stroke="black" points="230.75,-324 230.75,-346 399.75,-346 399.75,-324 230.75,-324"/>
<text text-anchor="start" x="250.75" y="-330.55" font-family="Helvetica,sans-Serif" font-size="11.00">doc_unit_field</text>
<polygon fill="none" stroke="black" points="399.75,-324 399.75,-346 504.5,-346 504.5,-324 399.75,-324"/>
<text text-anchor="start" x="402.75" y="-331.3" font-family="Helvetica,sans-Serif" font-size="11.00">varchar[255]</text>
<polygon fill="none" stroke="black" points="230.75,-302 230.75,-324 399.75,-324 399.75,-302 230.75,-302"/>
<text text-anchor="start" x="250.75" y="-308.55" font-family="Helvetica,sans-Serif" font-size="11.00">csv_field</text>
<polygon fill="none" stroke="black" points="399.75,-302 399.75,-324 504.5,-324 504.5,-302 399.75,-302"/>
<text text-anchor="start" x="402.75" y="-309.3" font-family="Helvetica,sans-Serif" font-size="11.00">varchar[255]</text>
<polygon fill="#ffffff" stroke="none" points="230.75,-280 230.75,-302 399.75,-302 399.75,-280 230.75,-280"/>
<polygon fill="none" stroke="black" points="230.75,-280 230.75,-302 399.75,-302 399.75,-280 230.75,-280"/>
<image xlink:href="../../images/foreignKeys.png" width="11px" height="12px" preserveAspectRatio="xMinYMin meet" x="235.75" y="-297"/>
<text text-anchor="start" x="250.75" y="-286.55" font-family="Helvetica,sans-Serif" font-size="11.00">mapping</text>
<polygon fill="none" stroke="black" points="399.75,-280 399.75,-302 504.5,-302 504.5,-280 399.75,-280"/>
<text text-anchor="start" x="402.75" y="-287.3" font-family="Helvetica,sans-Serif" font-size="11.00">varchar[191]</text>
<polygon fill="none" stroke="black" points="230.75,-258 230.75,-280 399.75,-280 399.75,-258 230.75,-258"/>
<text text-anchor="start" x="250.75" y="-264.55" font-family="Helvetica,sans-Serif" font-size="11.00">version</text>
<polygon fill="none" stroke="black" points="399.75,-258 399.75,-280 504.5,-280 504.5,-258 399.75,-258"/>
<text text-anchor="start" x="402.75" y="-265.3" font-family="Helvetica,sans-Serif" font-size="11.00">bigint[19]</text>
<polygon fill="none" stroke="black" points="230.75,-236 230.75,-258 399.75,-258 399.75,-236 230.75,-236"/>
<text text-anchor="start" x="250.75" y="-242.55" font-family="Helvetica,sans-Serif" font-size="11.00">created_by</text>
<polygon fill="none" stroke="black" points="399.75,-236 399.75,-258 504.5,-258 504.5,-236 399.75,-236"/>
<text text-anchor="start" x="402.75" y="-243.3" font-family="Helvetica,sans-Serif" font-size="11.00">varchar[255]</text>
<polygon fill="none" stroke="black" points="230.75,-214 230.75,-236 399.75,-236 399.75,-214 230.75,-214"/>
<text text-anchor="start" x="250.75" y="-220.55" font-family="Helvetica,sans-Serif" font-size="11.00">last_modified_by</text>
<polygon fill="none" stroke="black" points="399.75,-214 399.75,-236 504.5,-236 504.5,-214 399.75,-214"/>
<text text-anchor="start" x="402.75" y="-221.3" font-family="Helvetica,sans-Serif" font-size="11.00">varchar[255]</text>
<polygon fill="none" stroke="black" points="230.75,-192 230.75,-214 399.75,-214 399.75,-192 230.75,-192"/>
<text text-anchor="start" x="250.75" y="-198.55" font-family="Helvetica,sans-Serif" font-size="11.00">created_date</text>
<polygon fill="none" stroke="black" points="399.75,-192 399.75,-214 504.5,-214 504.5,-192 399.75,-192"/>
<text text-anchor="start" x="402.75" y="-199.3" font-family="Helvetica,sans-Serif" font-size="11.00">timestamp[19]</text>
<polygon fill="none" stroke="black" points="230.75,-170 230.75,-192 399.75,-192 399.75,-170 230.75,-170"/>
<text text-anchor="start" x="250.75" y="-176.55" font-family="Helvetica,sans-Serif" font-size="11.00">last_modified_date</text>
<polygon fill="none" stroke="black" points="399.75,-170 399.75,-192 504.5,-192 504.5,-170 399.75,-170"/>
<text text-anchor="start" x="402.75" y="-177.3" font-family="Helvetica,sans-Serif" font-size="11.00">timestamp[19]</text>
<polygon fill="none" stroke="black" points="230.75,-148 230.75,-170 399.75,-170 399.75,-148 230.75,-148"/>
<text text-anchor="start" x="250.75" y="-154.55" font-family="Helvetica,sans-Serif" font-size="11.00">cond_report</text>
<polygon fill="none" stroke="black" points="399.75,-148 399.75,-170 504.5,-170 504.5,-148 399.75,-148"/>
<text text-anchor="start" x="402.75" y="-155.3" font-family="Helvetica,sans-Serif" font-size="11.00">varchar[255]</text>
<polygon fill="none" stroke="black" points="230.75,-126 230.75,-148 399.75,-148 399.75,-126 230.75,-126"/>
<text text-anchor="start" x="250.75" y="-132.55" font-family="Helvetica,sans-Serif" font-size="11.00">metadata</text>
<polygon fill="none" stroke="black" points="399.75,-126 399.75,-148 504.5,-148 504.5,-126 399.75,-126"/>
<text text-anchor="start" x="402.75" y="-133.3" font-family="Helvetica,sans-Serif" font-size="11.00">varchar[255]</text>
<polygon fill="none" stroke="black" points="230.75,-104 230.75,-126 399.75,-126 399.75,-104 230.75,-104"/>
<text text-anchor="start" x="250.75" y="-110.55" font-family="Helvetica,sans-Serif" font-size="11.00">bib_record_field</text>
<polygon fill="none" stroke="black" points="399.75,-104 399.75,-126 504.5,-126 504.5,-104 399.75,-104"/>
<text text-anchor="start" x="402.75" y="-111.3" font-family="Helvetica,sans-Serif" font-size="11.00">varchar[255]</text>
<polygon fill="#ffffff" stroke="none" points="230.75,-82 230.75,-104 399.75,-104 399.75,-82 230.75,-82"/>
<polygon fill="none" stroke="black" points="230.75,-82 230.75,-104 399.75,-104 399.75,-82 230.75,-82"/>
<image xlink:href="../../images/foreignKeys.png" width="11px" height="12px" preserveAspectRatio="xMinYMin meet" x="235.75" y="-99"/>
<text text-anchor="start" x="250.75" y="-88.55" font-family="Helvetica,sans-Serif" font-size="11.00">property</text>
<polygon fill="none" stroke="black" points="399.75,-82 399.75,-104 504.5,-104 504.5,-82 399.75,-82"/>
<text text-anchor="start" x="402.75" y="-89.3" font-family="Helvetica,sans-Serif" font-size="11.00">varchar[191]</text>
<polygon fill="none" stroke="black" points="230.75,-60 230.75,-82 399.75,-82 399.75,-60 230.75,-60"/>
<text text-anchor="start" x="250.75" y="-66.55" font-family="Helvetica,sans-Serif" font-size="11.00">rank</text>
<polygon fill="none" stroke="black" points="399.75,-60 399.75,-82 504.5,-82 504.5,-60 399.75,-60"/>
<text text-anchor="start" x="402.75" y="-67.3" font-family="Helvetica,sans-Serif" font-size="11.00">int[10]</text>
<polygon fill="#ffffff" stroke="none" points="230.75,-40.5 230.75,-60 321.25,-60 321.25,-40.5 230.75,-40.5"/>
<polygon fill="none" stroke="black" points="230.75,-40.5 230.75,-60 321.25,-60 321.25,-40.5 230.75,-40.5"/>
<text text-anchor="start" x="233.75" y="-46.55" font-family="Helvetica,sans-Serif" font-size="11.00">&lt; 2</text>
<polygon fill="#ffffff" stroke="none" points="321.25,-40.5 321.25,-60 399.75,-60 399.75,-40.5 321.25,-40.5"/>
<polygon fill="none" stroke="black" points="321.25,-40.5 321.25,-60 399.75,-60 399.75,-40.5 321.25,-40.5"/>
<text text-anchor="start" x="389.25" y="-46.55" font-family="Helvetica,sans-Serif" font-size="11.00"> &#160;</text>
<polygon fill="#ffffff" stroke="none" points="399.75,-40.5 399.75,-60 504.5,-60 504.5,-40.5 399.75,-40.5"/>
<polygon fill="none" stroke="black" points="399.75,-40.5 399.75,-60 504.5,-60 504.5,-40.5 399.75,-40.5"/>
<text text-anchor="start" x="482" y="-46.55" font-family="Helvetica,sans-Serif" font-size="11.00">0 &gt;</text>
<polygon fill="none" stroke="black" stroke-width="2" points="229.75,-39.5 229.75,-392.5 522.5,-392.5 522.5,-39.5 229.75,-39.5"/>
</a>
</g>
</g>
<!-- exc_csv_mapping -->
<g id="node2" class="node">
<title>exc_csv_mapping</title>
<g id="a_node2"><a xlink:href="../../tables/exc_csv_mapping.html" xlink:title="exc_csv_mapping" target="_top">
<polygon fill="#ffffff" stroke="none" points="12.5,-218.75 12.5,-325.25 175.25,-325.25 175.25,-218.75 12.5,-218.75"/>
<polygon fill="#f5f5f5" stroke="none" points="12.5,-301.75 12.5,-325.25 175.25,-325.25 175.25,-301.75 12.5,-301.75"/>
<polygon fill="none" stroke="black" points="12.5,-301.75 12.5,-325.25 175.25,-325.25 175.25,-301.75 12.5,-301.75"/>
<text text-anchor="start" x="17.5" y="-310.8" font-family="Helvetica,sans-Serif" font-weight="bold" font-size="11.00">exc_csv_mapping</text>
<text text-anchor="start" x="133.5" y="-309.8" font-family="Helvetica,sans-Serif" font-size="11.00">[table]</text>
<polygon fill="none" stroke="black" points="12.5,-279.75 12.5,-301.75 175.25,-301.75 175.25,-279.75 12.5,-279.75"/>
<image xlink:href="../../images/primaryKeys.png" width="11px" height="12px" preserveAspectRatio="xMinYMin meet" x="17.5" y="-296.75"/>
<text text-anchor="start" x="39.88" y="-286.3" font-family="Helvetica,sans-Serif" font-size="11.00">identifier</text>
<polygon fill="#ffffff" stroke="none" points="12.5,-257.75 12.5,-279.75 175.25,-279.75 175.25,-257.75 12.5,-257.75"/>
<polygon fill="none" stroke="black" points="12.5,-257.75 12.5,-279.75 175.25,-279.75 175.25,-257.75 12.5,-257.75"/>
<image xlink:href="../../images/foreignKeys.png" width="11px" height="12px" preserveAspectRatio="xMinYMin meet" x="17.5" y="-274.75"/>
<text text-anchor="start" x="39.88" y="-264.3" font-family="Helvetica,sans-Serif" font-size="11.00">library</text>
<polygon fill="none" stroke="black" points="12.5,-238.25 12.5,-257.75 175.25,-257.75 175.25,-238.25 12.5,-238.25"/>
<text text-anchor="start" x="15.5" y="-244.3" font-family="Helvetica,sans-Serif" font-size="11.00">...</text>
<polygon fill="#ffffff" stroke="none" points="12.5,-218.75 12.5,-238.25 70.75,-238.25 70.75,-218.75 12.5,-218.75"/>
<polygon fill="none" stroke="black" points="12.5,-218.75 12.5,-238.25 70.75,-238.25 70.75,-218.75 12.5,-218.75"/>
<text text-anchor="start" x="15.5" y="-224.8" font-family="Helvetica,sans-Serif" font-size="11.00">&lt; 1</text>
<polygon fill="#ffffff" stroke="none" points="70.75,-218.75 70.75,-238.25 117,-238.25 117,-218.75 70.75,-218.75"/>
<polygon fill="none" stroke="black" points="70.75,-218.75 70.75,-238.25 117,-238.25 117,-218.75 70.75,-218.75"/>
<text text-anchor="start" x="106.5" y="-224.8" font-family="Helvetica,sans-Serif" font-size="11.00"> &#160;</text>
<polygon fill="#ffffff" stroke="none" points="117,-218.75 117,-238.25 175.25,-238.25 175.25,-218.75 117,-218.75"/>
<polygon fill="none" stroke="black" points="117,-218.75 117,-238.25 175.25,-238.25 175.25,-218.75 117,-218.75"/>
<text text-anchor="start" x="152.75" y="-224.8" font-family="Helvetica,sans-Serif" font-size="11.00">2 &gt;</text>
</a>
</g>
</g>
<!-- exc_csv_mapping_rule&#45;&gt;exc_csv_mapping -->
<g id="edge1" class="edge">
<title>exc_csv_mapping_rule:w&#45;&gt;exc_csv_mapping:e</title>
<path fill="none" stroke="black" d="M213.91,-290.96C201.56,-290.88 193.71,-290.75 176.25,-290.75"/>
<polygon fill="black" stroke="black" points="221.42,-290.98 229.41,-294.6 225.75,-290.99 229.08,-291 229.08,-291 229.08,-291 225.75,-290.99 229.43,-287.4 221.42,-290.98"/>
<ellipse fill="none" stroke="black" cx="216.5" cy="-290.96" rx="3.2" ry="3.2"/>
</g>
<!-- doc_property_type -->
<g id="node3" class="node">
<title>doc_property_type</title>
<g id="a_node3"><a xlink:href="../../tables/doc_property_type.html" xlink:title="doc_property_type" target="_top">
<polygon fill="#ffffff" stroke="none" points="8,-43.75 8,-128.25 179.75,-128.25 179.75,-43.75 8,-43.75"/>
<polygon fill="#f5f5f5" stroke="none" points="8,-104.75 8,-128.25 179.75,-128.25 179.75,-104.75 8,-104.75"/>
<polygon fill="none" stroke="black" points="8,-104.75 8,-128.25 179.75,-128.25 179.75,-104.75 8,-104.75"/>
<text text-anchor="start" x="13" y="-113.8" font-family="Helvetica,sans-Serif" font-weight="bold" font-size="11.00">doc_property_type</text>
<text text-anchor="start" x="138" y="-112.8" font-family="Helvetica,sans-Serif" font-size="11.00">[table]</text>
<polygon fill="none" stroke="black" points="8,-82.75 8,-104.75 179.75,-104.75 179.75,-82.75 8,-82.75"/>
<image xlink:href="../../images/primaryKeys.png" width="11px" height="12px" preserveAspectRatio="xMinYMin meet" x="13" y="-99.75"/>
<text text-anchor="start" x="39.88" y="-89.3" font-family="Helvetica,sans-Serif" font-size="11.00">identifier</text>
<polygon fill="none" stroke="black" points="8,-63.25 8,-82.75 179.75,-82.75 179.75,-63.25 8,-63.25"/>
<text text-anchor="start" x="11" y="-69.3" font-family="Helvetica,sans-Serif" font-size="11.00">...</text>
<polygon fill="#ffffff" stroke="none" points="8,-43.75 8,-63.25 61.25,-63.25 61.25,-43.75 8,-43.75"/>
<polygon fill="none" stroke="black" points="8,-43.75 8,-63.25 61.25,-63.25 61.25,-43.75 8,-43.75"/>
<text text-anchor="start" x="11" y="-49.8" font-family="Helvetica,sans-Serif" font-size="11.00"> &#160;</text>
<polygon fill="#ffffff" stroke="none" points="61.25,-43.75 61.25,-63.25 114.5,-63.25 114.5,-43.75 61.25,-43.75"/>
<polygon fill="none" stroke="black" points="61.25,-43.75 61.25,-63.25 114.5,-63.25 114.5,-43.75 61.25,-43.75"/>
<text text-anchor="start" x="104" y="-49.8" font-family="Helvetica,sans-Serif" font-size="11.00"> &#160;</text>
<polygon fill="#ffffff" stroke="none" points="114.5,-43.75 114.5,-63.25 179.75,-63.25 179.75,-43.75 114.5,-43.75"/>
<polygon fill="none" stroke="black" points="114.5,-43.75 114.5,-63.25 179.75,-63.25 179.75,-43.75 114.5,-43.75"/>
<text text-anchor="start" x="157.25" y="-49.8" font-family="Helvetica,sans-Serif" font-size="11.00">4 &gt;</text>
</a>
</g>
</g>
<!-- exc_csv_mapping_rule&#45;&gt;doc_property_type -->
<g id="edge2" class="edge">
<title>exc_csv_mapping_rule:w&#45;&gt;doc_property_type:e</title>
<path fill="none" stroke="black" d="M214.17,-93.15C203.46,-93.37 196.23,-93.75 180.75,-93.75"/>
<polygon fill="black" stroke="black" points="221.42,-93.08 229.45,-96.6 225.75,-93.04 229.08,-93.01 229.08,-93.01 229.08,-93.01 225.75,-93.04 229.38,-89.4 221.42,-93.08"/>
<ellipse fill="none" stroke="black" cx="216.5" cy="-93.13" rx="3.2" ry="3.2"/>
</g>
</g>
</svg>
