<?xml version="1.0" encoding="UTF-8" standalone="no"?>
<!DOCTYPE svg PUBLIC "-//W3C//DTD SVG 1.1//EN"
 "http://www.w3.org/Graphics/SVG/1.1/DTD/svg11.dtd">
<!-- Generated by graphviz version 12.2.0 (0)
 -->
<!-- Title: oneDegreeRelationshipsDiagram Pages: 1 -->
<svg width="769pt" height="439pt"
 viewBox="0.00 0.00 768.50 439.00" xmlns="http://www.w3.org/2000/svg" xmlns:xlink="http://www.w3.org/1999/xlink">
<g id="graph0" class="graph" transform="scale(1 1) rotate(0) translate(4 435)">
<title>oneDegreeRelationshipsDiagram</title>
<polygon fill="#ffffff" stroke="none" points="-4,4 -4,-435 764.5,-435 764.5,4 -4,4"/>
<text text-anchor="middle" x="79.25" y="-7.05" font-family="Helvetica,sans-Serif" font-size="11.00">Generated by SchemaSpy</text>
<!-- exc_import_report -->
<g id="node1" class="node">
<title>exc_import_report</title>
<g id="a_node1"><a xlink:href="../../tables/exc_import_report.html" xlink:title="exc_import_report" target="_top">
<polygon fill="#ffffff" stroke="none" points="583.75,-188.5 583.75,-427 752.5,-427 752.5,-188.5 583.75,-188.5"/>
<polygon fill="#f5f5f5" stroke="none" points="583.75,-403.5 583.75,-427 752.5,-427 752.5,-403.5 583.75,-403.5"/>
<polygon fill="none" stroke="black" points="583.75,-403.5 583.75,-427 752.5,-427 752.5,-403.5 583.75,-403.5"/>
<text text-anchor="start" x="588.75" y="-412.55" font-family="Helvetica,sans-Serif" font-weight="bold" font-size="11.00">exc_import_report</text>
<text text-anchor="start" x="710.75" y="-411.55" font-family="Helvetica,sans-Serif" font-size="11.00">[table]</text>
<polygon fill="none" stroke="black" points="583.75,-381.5 583.75,-403.5 752.5,-403.5 752.5,-381.5 583.75,-381.5"/>
<image xlink:href="../../images/primaryKeys.png" width="11px" height="12px" preserveAspectRatio="xMinYMin meet" x="588.75" y="-398.5"/>
<text text-anchor="start" x="614.12" y="-388.05" font-family="Helvetica,sans-Serif" font-size="11.00">identifier</text>
<polygon fill="#ffffff" stroke="none" points="583.75,-359.5 583.75,-381.5 752.5,-381.5 752.5,-359.5 583.75,-359.5"/>
<polygon fill="none" stroke="black" points="583.75,-359.5 583.75,-381.5 752.5,-381.5 752.5,-359.5 583.75,-359.5"/>
<image xlink:href="../../images/foreignKeys.png" width="11px" height="12px" preserveAspectRatio="xMinYMin meet" x="588.75" y="-376.5"/>
<text text-anchor="start" x="614.12" y="-366.05" font-family="Helvetica,sans-Serif" font-size="11.00">library</text>
<polygon fill="#ffffff" stroke="none" points="583.75,-337.5 583.75,-359.5 752.5,-359.5 752.5,-337.5 583.75,-337.5"/>
<polygon fill="none" stroke="black" points="583.75,-337.5 583.75,-359.5 752.5,-359.5 752.5,-337.5 583.75,-337.5"/>
<image xlink:href="../../images/foreignKeys.png" width="11px" height="12px" preserveAspectRatio="xMinYMin meet" x="588.75" y="-354.5"/>
<text text-anchor="start" x="614.12" y="-344.05" font-family="Helvetica,sans-Serif" font-size="11.00">mapping</text>
<polygon fill="#ffffff" stroke="none" points="583.75,-315.5 583.75,-337.5 752.5,-337.5 752.5,-315.5 583.75,-315.5"/>
<polygon fill="none" stroke="black" points="583.75,-315.5 583.75,-337.5 752.5,-337.5 752.5,-315.5 583.75,-315.5"/>
<image xlink:href="../../images/foreignKeys.png" width="11px" height="12px" preserveAspectRatio="xMinYMin meet" x="588.75" y="-332.5"/>
<text text-anchor="start" x="614.12" y="-322.05" font-family="Helvetica,sans-Serif" font-size="11.00">mapping_children</text>
<polygon fill="#ffffff" stroke="none" points="583.75,-293.5 583.75,-315.5 752.5,-315.5 752.5,-293.5 583.75,-293.5"/>
<polygon fill="none" stroke="black" points="583.75,-293.5 583.75,-315.5 752.5,-315.5 752.5,-293.5 583.75,-293.5"/>
<image xlink:href="../../images/foreignKeys.png" width="11px" height="12px" preserveAspectRatio="xMinYMin meet" x="588.75" y="-310.5"/>
<text text-anchor="start" x="614.12" y="-300.05" font-family="Helvetica,sans-Serif" font-size="11.00">csv_mapping</text>
<polygon fill="#ffffff" stroke="none" points="583.75,-271.5 583.75,-293.5 752.5,-293.5 752.5,-271.5 583.75,-271.5"/>
<polygon fill="none" stroke="black" points="583.75,-271.5 583.75,-293.5 752.5,-293.5 752.5,-271.5 583.75,-271.5"/>
<image xlink:href="../../images/foreignKeys.png" width="11px" height="12px" preserveAspectRatio="xMinYMin meet" x="588.75" y="-288.5"/>
<text text-anchor="start" x="614.12" y="-278.05" font-family="Helvetica,sans-Serif" font-size="11.00">project</text>
<polygon fill="#ffffff" stroke="none" points="583.75,-249.5 583.75,-271.5 752.5,-271.5 752.5,-249.5 583.75,-249.5"/>
<polygon fill="none" stroke="black" points="583.75,-249.5 583.75,-271.5 752.5,-271.5 752.5,-249.5 583.75,-249.5"/>
<image xlink:href="../../images/foreignKeys.png" width="11px" height="12px" preserveAspectRatio="xMinYMin meet" x="588.75" y="-266.5"/>
<text text-anchor="start" x="614.12" y="-256.05" font-family="Helvetica,sans-Serif" font-size="11.00">lot</text>
<polygon fill="#ffffff" stroke="none" points="583.75,-227.5 583.75,-249.5 752.5,-249.5 752.5,-227.5 583.75,-227.5"/>
<polygon fill="none" stroke="black" points="583.75,-227.5 583.75,-249.5 752.5,-249.5 752.5,-227.5 583.75,-227.5"/>
<image xlink:href="../../images/foreignKeys.png" width="11px" height="12px" preserveAspectRatio="xMinYMin meet" x="588.75" y="-244.5"/>
<text text-anchor="start" x="614.12" y="-234.05" font-family="Helvetica,sans-Serif" font-size="11.00">parent</text>
<polygon fill="none" stroke="black" points="583.75,-208 583.75,-227.5 752.5,-227.5 752.5,-208 583.75,-208"/>
<text text-anchor="start" x="586.75" y="-214.05" font-family="Helvetica,sans-Serif" font-size="11.00">...</text>
<polygon fill="#ffffff" stroke="none" points="583.75,-188.5 583.75,-208 644,-208 644,-188.5 583.75,-188.5"/>
<polygon fill="none" stroke="black" points="583.75,-188.5 583.75,-208 644,-208 644,-188.5 583.75,-188.5"/>
<text text-anchor="start" x="586.75" y="-194.55" font-family="Helvetica,sans-Serif" font-size="11.00">&lt; 7</text>
<polygon fill="#ffffff" stroke="none" points="644,-188.5 644,-208 692.25,-208 692.25,-188.5 644,-188.5"/>
<polygon fill="none" stroke="black" points="644,-188.5 644,-208 692.25,-208 692.25,-188.5 644,-188.5"/>
<text text-anchor="start" x="681.75" y="-194.55" font-family="Helvetica,sans-Serif" font-size="11.00"> &#160;</text>
<polygon fill="#ffffff" stroke="none" points="692.25,-188.5 692.25,-208 752.5,-208 752.5,-188.5 692.25,-188.5"/>
<polygon fill="none" stroke="black" points="692.25,-188.5 692.25,-208 752.5,-208 752.5,-188.5 692.25,-188.5"/>
<text text-anchor="start" x="730" y="-194.55" font-family="Helvetica,sans-Serif" font-size="11.00">3 &gt;</text>
</a>
</g>
</g>
<!-- lib_library -->
<g id="node2" class="node">
<title>lib_library</title>
<g id="a_node2"><a xlink:href="../../tables/lib_library.html" xlink:title="lib_library" target="_top">
<polygon fill="#ffffff" stroke="none" points="8,-144.5 8,-361 242,-361 242,-144.5 8,-144.5"/>
<polygon fill="#f5f5f5" stroke="none" points="8,-337.5 8,-361 242,-361 242,-337.5 8,-337.5"/>
<polygon fill="none" stroke="black" points="8,-337.5 8,-361 242,-361 242,-337.5 8,-337.5"/>
<text text-anchor="start" x="13" y="-346.55" font-family="Helvetica,sans-Serif" font-weight="bold" font-size="11.00">lib_library</text>
<text text-anchor="start" x="200.25" y="-345.55" font-family="Helvetica,sans-Serif" font-size="11.00">[table]</text>
<polygon fill="none" stroke="black" points="8,-315.5 8,-337.5 242,-337.5 242,-315.5 8,-315.5"/>
<image xlink:href="../../images/primaryKeys.png" width="11px" height="12px" preserveAspectRatio="xMinYMin meet" x="13" y="-332.5"/>
<text text-anchor="start" x="28" y="-322.05" font-family="Helvetica,sans-Serif" font-size="11.00">identifier</text>
<polygon fill="#ffffff" stroke="none" points="8,-293.5 8,-315.5 242,-315.5 242,-293.5 8,-293.5"/>
<polygon fill="none" stroke="black" points="8,-293.5 8,-315.5 242,-315.5 242,-293.5 8,-293.5"/>
<image xlink:href="../../images/foreignKeys.png" width="11px" height="12px" preserveAspectRatio="xMinYMin meet" x="13" y="-310.5"/>
<text text-anchor="start" x="28" y="-300.05" font-family="Helvetica,sans-Serif" font-size="11.00">address</text>
<polygon fill="#ffffff" stroke="none" points="8,-271.5 8,-293.5 242,-293.5 242,-271.5 8,-271.5"/>
<polygon fill="none" stroke="black" points="8,-271.5 8,-293.5 242,-293.5 242,-271.5 8,-271.5"/>
<image xlink:href="../../images/foreignKeys.png" width="11px" height="12px" preserveAspectRatio="xMinYMin meet" x="13" y="-288.5"/>
<text text-anchor="start" x="28" y="-278.05" font-family="Helvetica,sans-Serif" font-size="11.00">active_configuration_ftp</text>
<polygon fill="#ffffff" stroke="none" points="8,-249.5 8,-271.5 242,-271.5 242,-249.5 8,-249.5"/>
<polygon fill="none" stroke="black" points="8,-249.5 8,-271.5 242,-271.5 242,-249.5 8,-249.5"/>
<image xlink:href="../../images/foreignKeys.png" width="11px" height="12px" preserveAspectRatio="xMinYMin meet" x="13" y="-266.5"/>
<text text-anchor="start" x="28" y="-256.05" font-family="Helvetica,sans-Serif" font-size="11.00">active_configuration_check</text>
<polygon fill="#ffffff" stroke="none" points="8,-227.5 8,-249.5 242,-249.5 242,-227.5 8,-227.5"/>
<polygon fill="none" stroke="black" points="8,-227.5 8,-249.5 242,-249.5 242,-227.5 8,-227.5"/>
<image xlink:href="../../images/foreignKeys.png" width="11px" height="12px" preserveAspectRatio="xMinYMin meet" x="13" y="-244.5"/>
<text text-anchor="start" x="28" y="-234.05" font-family="Helvetica,sans-Serif" font-size="11.00">role</text>
<polygon fill="#ffffff" stroke="none" points="8,-205.5 8,-227.5 242,-227.5 242,-205.5 8,-205.5"/>
<polygon fill="none" stroke="black" points="8,-205.5 8,-227.5 242,-227.5 242,-205.5 8,-205.5"/>
<image xlink:href="../../images/foreignKeys.png" width="11px" height="12px" preserveAspectRatio="xMinYMin meet" x="13" y="-222.5"/>
<text text-anchor="start" x="28" y="-212.05" font-family="Helvetica,sans-Serif" font-size="11.00">active_configuration_export_ftp</text>
<polygon fill="#ffffff" stroke="none" points="8,-183.5 8,-205.5 242,-205.5 242,-183.5 8,-183.5"/>
<polygon fill="none" stroke="black" points="8,-183.5 8,-205.5 242,-205.5 242,-183.5 8,-183.5"/>
<image xlink:href="../../images/foreignKeys.png" width="11px" height="12px" preserveAspectRatio="xMinYMin meet" x="13" y="-200.5"/>
<text text-anchor="start" x="28" y="-190.05" font-family="Helvetica,sans-Serif" font-size="11.00">active_configuration_ocr_lang</text>
<polygon fill="none" stroke="black" points="8,-164 8,-183.5 242,-183.5 242,-164 8,-164"/>
<text text-anchor="start" x="11" y="-170.05" font-family="Helvetica,sans-Serif" font-size="11.00">...</text>
<polygon fill="#ffffff" stroke="none" points="8,-144.5 8,-164 87.75,-164 87.75,-144.5 8,-144.5"/>
<polygon fill="none" stroke="black" points="8,-144.5 8,-164 87.75,-164 87.75,-144.5 8,-144.5"/>
<text text-anchor="start" x="11" y="-150.55" font-family="Helvetica,sans-Serif" font-size="11.00">&lt; 6</text>
<polygon fill="#ffffff" stroke="none" points="87.75,-144.5 87.75,-164 155.5,-164 155.5,-144.5 87.75,-144.5"/>
<polygon fill="none" stroke="black" points="87.75,-144.5 87.75,-164 155.5,-164 155.5,-144.5 87.75,-144.5"/>
<text text-anchor="start" x="145" y="-150.55" font-family="Helvetica,sans-Serif" font-size="11.00"> &#160;</text>
<polygon fill="#ffffff" stroke="none" points="155.5,-144.5 155.5,-164 242,-164 242,-144.5 155.5,-144.5"/>
<polygon fill="none" stroke="black" points="155.5,-144.5 155.5,-164 242,-164 242,-144.5 155.5,-144.5"/>
<text text-anchor="start" x="212.75" y="-150.55" font-family="Helvetica,sans-Serif" font-size="11.00">27 &gt;</text>
</a>
</g>
</g>
<!-- exc_import_report&#45;&gt;lib_library -->
<g id="edge1" class="edge">
<title>exc_import_report:w&#45;&gt;lib_library:e</title>
<path fill="none" stroke="black" d="M567.17,-370.71C445.91,-373.95 401.25,-413.51 283,-364.75 260.26,-355.37 267.6,-326.5 243,-326.5"/>
<polygon fill="black" stroke="black" points="574.42,-370.61 582.46,-374.1 578.75,-370.55 582.08,-370.51 582.08,-370.51 582.08,-370.51 578.75,-370.55 582.37,-366.9 574.42,-370.61"/>
<ellipse fill="none" stroke="black" cx="569.5" cy="-370.68" rx="3.2" ry="3.2"/>
</g>
<!-- exc_mapping -->
<g id="node3" class="node">
<title>exc_mapping</title>
<g id="a_node3"><a xlink:href="../../tables/exc_mapping.html" xlink:title="exc_mapping" target="_top">
<polygon fill="#ffffff" stroke="none" points="291,-87.25 291,-354.25 534.75,-354.25 534.75,-87.25 291,-87.25"/>
<polygon fill="#f5f5f5" stroke="none" points="293,-328.75 293,-352.25 532.75,-352.25 532.75,-328.75 293,-328.75"/>
<polygon fill="none" stroke="black" points="293,-328.75 293,-352.25 532.75,-352.25 532.75,-328.75 293,-328.75"/>
<text text-anchor="start" x="298" y="-337.8" font-family="Helvetica,sans-Serif" font-weight="bold" font-size="11.00">exc_mapping</text>
<text text-anchor="start" x="491" y="-336.8" font-family="Helvetica,sans-Serif" font-size="11.00">[table]</text>
<polygon fill="none" stroke="black" points="293,-306.75 293,-328.75 441,-328.75 441,-306.75 293,-306.75"/>
<image xlink:href="../../images/primaryKeys.png" width="11px" height="12px" preserveAspectRatio="xMinYMin meet" x="298" y="-323.75"/>
<text text-anchor="start" x="313" y="-313.3" font-family="Helvetica,sans-Serif" font-size="11.00">identifier</text>
<polygon fill="none" stroke="black" points="441,-306.75 441,-328.75 530.75,-328.75 530.75,-306.75 441,-306.75"/>
<text text-anchor="start" x="444" y="-314.05" font-family="Helvetica,sans-Serif" font-size="11.00">varchar[191]</text>
<polygon fill="none" stroke="black" points="293,-284.75 293,-306.75 441,-306.75 441,-284.75 293,-284.75"/>
<text text-anchor="start" x="313" y="-291.3" font-family="Helvetica,sans-Serif" font-size="11.00">label</text>
<polygon fill="none" stroke="black" points="441,-284.75 441,-306.75 530.75,-306.75 530.75,-284.75 441,-284.75"/>
<text text-anchor="start" x="444" y="-292.05" font-family="Helvetica,sans-Serif" font-size="11.00">varchar[255]</text>
<polygon fill="#ffffff" stroke="none" points="293,-262.75 293,-284.75 441,-284.75 441,-262.75 293,-262.75"/>
<polygon fill="none" stroke="black" points="293,-262.75 293,-284.75 441,-284.75 441,-262.75 293,-262.75"/>
<image xlink:href="../../images/foreignKeys.png" width="11px" height="12px" preserveAspectRatio="xMinYMin meet" x="298" y="-279.75"/>
<text text-anchor="start" x="313" y="-269.3" font-family="Helvetica,sans-Serif" font-size="11.00">library</text>
<polygon fill="none" stroke="black" points="441,-262.75 441,-284.75 530.75,-284.75 530.75,-262.75 441,-262.75"/>
<text text-anchor="start" x="444" y="-270.05" font-family="Helvetica,sans-Serif" font-size="11.00">varchar[191]</text>
<polygon fill="none" stroke="black" points="293,-240.75 293,-262.75 441,-262.75 441,-240.75 293,-240.75"/>
<text text-anchor="start" x="313" y="-247.3" font-family="Helvetica,sans-Serif" font-size="11.00">type</text>
<polygon fill="none" stroke="black" points="441,-240.75 441,-262.75 530.75,-262.75 530.75,-240.75 441,-240.75"/>
<text text-anchor="start" x="444" y="-248.05" font-family="Helvetica,sans-Serif" font-size="11.00">varchar[255]</text>
<polygon fill="none" stroke="black" points="293,-218.75 293,-240.75 441,-240.75 441,-218.75 293,-218.75"/>
<text text-anchor="start" x="313" y="-225.3" font-family="Helvetica,sans-Serif" font-size="11.00">version</text>
<polygon fill="none" stroke="black" points="441,-218.75 441,-240.75 530.75,-240.75 530.75,-218.75 441,-218.75"/>
<text text-anchor="start" x="444" y="-226.05" font-family="Helvetica,sans-Serif" font-size="11.00">bigint[19]</text>
<polygon fill="none" stroke="black" points="293,-196.75 293,-218.75 441,-218.75 441,-196.75 293,-196.75"/>
<text text-anchor="start" x="313" y="-203.3" font-family="Helvetica,sans-Serif" font-size="11.00">created_by</text>
<polygon fill="none" stroke="black" points="441,-196.75 441,-218.75 530.75,-218.75 530.75,-196.75 441,-196.75"/>
<text text-anchor="start" x="444" y="-204.05" font-family="Helvetica,sans-Serif" font-size="11.00">varchar[255]</text>
<polygon fill="none" stroke="black" points="293,-174.75 293,-196.75 441,-196.75 441,-174.75 293,-174.75"/>
<text text-anchor="start" x="313" y="-181.3" font-family="Helvetica,sans-Serif" font-size="11.00">last_modified_by</text>
<polygon fill="none" stroke="black" points="441,-174.75 441,-196.75 530.75,-196.75 530.75,-174.75 441,-174.75"/>
<text text-anchor="start" x="444" y="-182.05" font-family="Helvetica,sans-Serif" font-size="11.00">varchar[255]</text>
<polygon fill="none" stroke="black" points="293,-152.75 293,-174.75 441,-174.75 441,-152.75 293,-152.75"/>
<text text-anchor="start" x="313" y="-159.3" font-family="Helvetica,sans-Serif" font-size="11.00">created_date</text>
<polygon fill="none" stroke="black" points="441,-152.75 441,-174.75 530.75,-174.75 530.75,-152.75 441,-152.75"/>
<text text-anchor="start" x="444" y="-160.05" font-family="Helvetica,sans-Serif" font-size="11.00">timestamp[19]</text>
<polygon fill="none" stroke="black" points="293,-130.75 293,-152.75 441,-152.75 441,-130.75 293,-130.75"/>
<text text-anchor="start" x="313" y="-137.3" font-family="Helvetica,sans-Serif" font-size="11.00">last_modified_date</text>
<polygon fill="none" stroke="black" points="441,-130.75 441,-152.75 530.75,-152.75 530.75,-130.75 441,-130.75"/>
<text text-anchor="start" x="444" y="-138.05" font-family="Helvetica,sans-Serif" font-size="11.00">timestamp[19]</text>
<polygon fill="none" stroke="black" points="293,-108.75 293,-130.75 441,-130.75 441,-108.75 293,-108.75"/>
<text text-anchor="start" x="313" y="-115.3" font-family="Helvetica,sans-Serif" font-size="11.00">join_expression</text>
<polygon fill="none" stroke="black" points="441,-108.75 441,-130.75 530.75,-130.75 530.75,-108.75 441,-108.75"/>
<text text-anchor="start" x="444" y="-116.05" font-family="Helvetica,sans-Serif" font-size="11.00">text[65535]</text>
<polygon fill="#ffffff" stroke="none" points="293,-89.25 293,-108.75 373,-108.75 373,-89.25 293,-89.25"/>
<polygon fill="none" stroke="black" points="293,-89.25 293,-108.75 373,-108.75 373,-89.25 293,-89.25"/>
<text text-anchor="start" x="296" y="-95.3" font-family="Helvetica,sans-Serif" font-size="11.00">&lt; 1</text>
<polygon fill="#ffffff" stroke="none" points="373,-89.25 373,-108.75 441,-108.75 441,-89.25 373,-89.25"/>
<polygon fill="none" stroke="black" points="373,-89.25 373,-108.75 441,-108.75 441,-89.25 373,-89.25"/>
<text text-anchor="start" x="430.5" y="-95.3" font-family="Helvetica,sans-Serif" font-size="11.00"> &#160;</text>
<polygon fill="#ffffff" stroke="none" points="441,-89.25 441,-108.75 530.75,-108.75 530.75,-89.25 441,-89.25"/>
<polygon fill="none" stroke="black" points="441,-89.25 441,-108.75 530.75,-108.75 530.75,-89.25 441,-89.25"/>
<text text-anchor="start" x="508.25" y="-95.3" font-family="Helvetica,sans-Serif" font-size="11.00">3 &gt;</text>
<polygon fill="none" stroke="black" stroke-width="2" points="292,-88.25 292,-353.25 533.75,-353.25 533.75,-88.25 292,-88.25"/>
</a>
</g>
</g>
<!-- exc_import_report&#45;&gt;exc_mapping -->
<g id="edge2" class="edge">
<title>exc_import_report:w&#45;&gt;exc_mapping:e</title>
<path fill="none" stroke="black" d="M567.71,-343.96C555.55,-335.41 551.81,-317.75 531.75,-317.75"/>
<polygon fill="black" stroke="black" points="574.77,-346.09 581.39,-351.85 578.92,-347.34 582.11,-348.31 582.11,-348.31 582.11,-348.31 578.92,-347.34 583.47,-344.96 574.77,-346.09"/>
<ellipse fill="none" stroke="black" cx="570.06" cy="-344.67" rx="3.2" ry="3.2"/>
</g>
<!-- exc_import_report&#45;&gt;exc_mapping -->
<g id="edge3" class="edge">
<title>exc_import_report:w&#45;&gt;exc_mapping:e</title>
<path fill="none" stroke="black" d="M567.18,-324.9C555.67,-322.37 548.46,-317.75 531.75,-317.75"/>
<polygon fill="black" stroke="black" points="574.46,-325.65 582.05,-330.05 578.77,-326.09 582.08,-326.43 582.08,-326.43 582.08,-326.43 578.77,-326.09 582.79,-322.88 574.46,-325.65"/>
<ellipse fill="none" stroke="black" cx="569.57" cy="-325.14" rx="3.2" ry="3.2"/>
</g>
<!-- exc_mapping&#45;&gt;lib_library -->
<g id="edge4" class="edge">
<title>exc_mapping:w&#45;&gt;lib_library:e</title>
<path fill="none" stroke="black" d="M277.53,-279.4C264.15,-293 268.5,-326.5 243,-326.5"/>
<polygon fill="black" stroke="black" points="284.24,-276.78 293,-277.23 288.27,-275.2 291.38,-273.99 291.38,-273.99 291.38,-273.99 288.27,-275.2 290.38,-270.52 284.24,-276.78"/>
<ellipse fill="none" stroke="black" cx="279.65" cy="-278.57" rx="3.2" ry="3.2"/>
</g>
<!-- exc_mapping_rule -->
<g id="node4" class="node">
<title>exc_mapping_rule</title>
<g id="a_node4"><a xlink:href="../../tables/exc_mapping_rule.html" xlink:title="exc_mapping_rule" target="_top">
<polygon fill="#ffffff" stroke="none" points="584.75,-38.5 584.75,-167 751.5,-167 751.5,-38.5 584.75,-38.5"/>
<polygon fill="#f5f5f5" stroke="none" points="584.75,-143.5 584.75,-167 751.5,-167 751.5,-143.5 584.75,-143.5"/>
<polygon fill="none" stroke="black" points="584.75,-143.5 584.75,-167 751.5,-167 751.5,-143.5 584.75,-143.5"/>
<text text-anchor="start" x="589.75" y="-152.55" font-family="Helvetica,sans-Serif" font-weight="bold" font-size="11.00">exc_mapping_rule</text>
<text text-anchor="start" x="709.75" y="-151.55" font-family="Helvetica,sans-Serif" font-size="11.00">[table]</text>
<polygon fill="none" stroke="black" points="584.75,-121.5 584.75,-143.5 751.5,-143.5 751.5,-121.5 584.75,-121.5"/>
<image xlink:href="../../images/primaryKeys.png" width="11px" height="12px" preserveAspectRatio="xMinYMin meet" x="589.75" y="-138.5"/>
<text text-anchor="start" x="614.12" y="-128.05" font-family="Helvetica,sans-Serif" font-size="11.00">identifier</text>
<polygon fill="#ffffff" stroke="none" points="584.75,-99.5 584.75,-121.5 751.5,-121.5 751.5,-99.5 584.75,-99.5"/>
<polygon fill="none" stroke="black" points="584.75,-99.5 584.75,-121.5 751.5,-121.5 751.5,-99.5 584.75,-99.5"/>
<image xlink:href="../../images/foreignKeys.png" width="11px" height="12px" preserveAspectRatio="xMinYMin meet" x="589.75" y="-116.5"/>
<text text-anchor="start" x="614.12" y="-106.05" font-family="Helvetica,sans-Serif" font-size="11.00">property</text>
<polygon fill="#ffffff" stroke="none" points="584.75,-77.5 584.75,-99.5 751.5,-99.5 751.5,-77.5 584.75,-77.5"/>
<polygon fill="none" stroke="black" points="584.75,-77.5 584.75,-99.5 751.5,-99.5 751.5,-77.5 584.75,-77.5"/>
<image xlink:href="../../images/foreignKeys.png" width="11px" height="12px" preserveAspectRatio="xMinYMin meet" x="589.75" y="-94.5"/>
<text text-anchor="start" x="614.12" y="-84.05" font-family="Helvetica,sans-Serif" font-size="11.00">mapping</text>
<polygon fill="none" stroke="black" points="584.75,-58 584.75,-77.5 751.5,-77.5 751.5,-58 584.75,-58"/>
<text text-anchor="start" x="587.75" y="-64.05" font-family="Helvetica,sans-Serif" font-size="11.00">...</text>
<polygon fill="#ffffff" stroke="none" points="584.75,-38.5 584.75,-58 648.33,-58 648.33,-38.5 584.75,-38.5"/>
<polygon fill="none" stroke="black" points="584.75,-38.5 584.75,-58 648.33,-58 648.33,-38.5 584.75,-38.5"/>
<text text-anchor="start" x="587.75" y="-44.55" font-family="Helvetica,sans-Serif" font-size="11.00">&lt; 2</text>
<polygon fill="#ffffff" stroke="none" points="648.33,-38.5 648.33,-58 699.92,-58 699.92,-38.5 648.33,-38.5"/>
<polygon fill="none" stroke="black" points="648.33,-38.5 648.33,-58 699.92,-58 699.92,-38.5 648.33,-38.5"/>
<text text-anchor="start" x="689.42" y="-44.55" font-family="Helvetica,sans-Serif" font-size="11.00"> &#160;</text>
<polygon fill="#ffffff" stroke="none" points="699.92,-38.5 699.92,-58 751.5,-58 751.5,-38.5 699.92,-38.5"/>
<polygon fill="none" stroke="black" points="699.92,-38.5 699.92,-58 751.5,-58 751.5,-38.5 699.92,-38.5"/>
<text text-anchor="start" x="741" y="-44.55" font-family="Helvetica,sans-Serif" font-size="11.00"> &#160;</text>
</a>
</g>
</g>
<!-- exc_mapping_rule&#45;&gt;exc_mapping -->
<g id="edge5" class="edge">
<title>exc_mapping_rule:w&#45;&gt;exc_mapping:e</title>
<path fill="none" stroke="black" d="M568.42,-90.62C496.21,-113.73 630.31,-317.75 531.75,-317.75"/>
<polygon fill="black" stroke="black" points="575.49,-89.64 583.91,-92.11 579.79,-89.05 583.09,-88.59 583.09,-88.59 583.09,-88.59 579.79,-89.05 582.92,-84.98 575.49,-89.64"/>
<ellipse fill="none" stroke="black" cx="570.62" cy="-90.32" rx="3.2" ry="3.2"/>
</g>
</g>
</svg>
