<?xml version="1.0" encoding="UTF-8" standalone="no"?>
<!DOCTYPE svg PUBLIC "-//W3C//DTD SVG 1.1//EN"
 "http://www.w3.org/Graphics/SVG/1.1/DTD/svg11.dtd">
<!-- Generated by graphviz version 12.2.0 (0)
 -->
<!-- Title: oneDegreeRelationshipsDiagram Pages: 1 -->
<svg width="615pt" height="488pt"
 viewBox="0.00 0.00 614.75 488.25" xmlns="http://www.w3.org/2000/svg" xmlns:xlink="http://www.w3.org/1999/xlink">
<g id="graph0" class="graph" transform="scale(1 1) rotate(0) translate(4 484.25)">
<title>oneDegreeRelationshipsDiagram</title>
<polygon fill="#ffffff" stroke="none" points="-4,4 -4,-484.25 610.75,-484.25 610.75,4 -4,4"/>
<text text-anchor="middle" x="79.25" y="-7.05" font-family="Helvetica,sans-Serif" font-size="11.00">Generated by SchemaSpy</text>
<!-- exc_internet_archive_report -->
<g id="node1" class="node">
<title>exc_internet_archive_report</title>
<g id="a_node1"><a xlink:href="../../tables/exc_internet_archive_report.html" xlink:title="exc_internet_archive_report" target="_top">
<polygon fill="#ffffff" stroke="none" points="244,-121.25 244,-476.25 598.75,-476.25 598.75,-121.25 244,-121.25"/>
<polygon fill="#f5f5f5" stroke="none" points="246,-450.75 246,-474.25 596.75,-474.25 596.75,-450.75 246,-450.75"/>
<polygon fill="none" stroke="black" points="246,-450.75 246,-474.25 596.75,-474.25 596.75,-450.75 246,-450.75"/>
<text text-anchor="start" x="251" y="-459.8" font-family="Helvetica,sans-Serif" font-weight="bold" font-size="11.00">exc_internet_archive_report</text>
<text text-anchor="start" x="555" y="-458.8" font-family="Helvetica,sans-Serif" font-size="11.00">[table]</text>
<polygon fill="none" stroke="black" points="246,-428.75 246,-450.75 455,-450.75 455,-428.75 246,-428.75"/>
<image xlink:href="../../images/primaryKeys.png" width="11px" height="12px" preserveAspectRatio="xMinYMin meet" x="251" y="-445.75"/>
<text text-anchor="start" x="266" y="-435.3" font-family="Helvetica,sans-Serif" font-size="11.00">identifier</text>
<polygon fill="none" stroke="black" points="455,-428.75 455,-450.75 569.75,-450.75 569.75,-428.75 455,-428.75"/>
<text text-anchor="start" x="458" y="-436.05" font-family="Helvetica,sans-Serif" font-size="11.00">varchar[191]</text>
<polygon fill="#ffffff" stroke="none" points="246,-406.75 246,-428.75 455,-428.75 455,-406.75 246,-406.75"/>
<polygon fill="none" stroke="black" points="246,-406.75 246,-428.75 455,-428.75 455,-406.75 246,-406.75"/>
<image xlink:href="../../images/foreignKeys.png" width="11px" height="12px" preserveAspectRatio="xMinYMin meet" x="251" y="-423.75"/>
<text text-anchor="start" x="266" y="-413.3" font-family="Helvetica,sans-Serif" font-size="11.00">doc_unit</text>
<polygon fill="none" stroke="black" points="455,-406.75 455,-428.75 569.75,-428.75 569.75,-406.75 455,-406.75"/>
<text text-anchor="start" x="458" y="-414.05" font-family="Helvetica,sans-Serif" font-size="11.00">varchar[191]</text>
<polygon fill="none" stroke="black" points="246,-384.75 246,-406.75 455,-406.75 455,-384.75 246,-384.75"/>
<text text-anchor="start" x="266" y="-391.3" font-family="Helvetica,sans-Serif" font-size="11.00">status</text>
<polygon fill="none" stroke="black" points="455,-384.75 455,-406.75 569.75,-406.75 569.75,-384.75 455,-384.75"/>
<text text-anchor="start" x="458" y="-392.05" font-family="Helvetica,sans-Serif" font-size="11.00">varchar[255]</text>
<polygon fill="none" stroke="black" points="246,-362.75 246,-384.75 455,-384.75 455,-362.75 246,-362.75"/>
<text text-anchor="start" x="266" y="-369.3" font-family="Helvetica,sans-Serif" font-size="11.00">internet_archive_identifier</text>
<polygon fill="none" stroke="black" points="455,-362.75 455,-384.75 569.75,-384.75 569.75,-362.75 455,-362.75"/>
<text text-anchor="start" x="458" y="-370.05" font-family="Helvetica,sans-Serif" font-size="11.00">varchar[255]</text>
<polygon fill="none" stroke="black" points="246,-340.75 246,-362.75 455,-362.75 455,-340.75 246,-340.75"/>
<text text-anchor="start" x="266" y="-347.3" font-family="Helvetica,sans-Serif" font-size="11.00">number</text>
<polygon fill="none" stroke="black" points="455,-340.75 455,-362.75 569.75,-362.75 569.75,-340.75 455,-340.75"/>
<text text-anchor="start" x="458" y="-348.05" font-family="Helvetica,sans-Serif" font-size="11.00">int[10]</text>
<polygon fill="none" stroke="black" points="246,-318.75 246,-340.75 455,-340.75 455,-318.75 246,-318.75"/>
<text text-anchor="start" x="266" y="-325.3" font-family="Helvetica,sans-Serif" font-size="11.00">total</text>
<polygon fill="none" stroke="black" points="455,-318.75 455,-340.75 569.75,-340.75 569.75,-318.75 455,-318.75"/>
<text text-anchor="start" x="458" y="-326.05" font-family="Helvetica,sans-Serif" font-size="11.00">int[10]</text>
<polygon fill="none" stroke="black" points="246,-296.75 246,-318.75 455,-318.75 455,-296.75 246,-296.75"/>
<text text-anchor="start" x="266" y="-303.3" font-family="Helvetica,sans-Serif" font-size="11.00">date_sent</text>
<polygon fill="none" stroke="black" points="455,-296.75 455,-318.75 569.75,-318.75 569.75,-296.75 455,-296.75"/>
<text text-anchor="start" x="458" y="-304.05" font-family="Helvetica,sans-Serif" font-size="11.00">timestamp[19]</text>
<polygon fill="none" stroke="black" points="246,-274.75 246,-296.75 455,-296.75 455,-274.75 246,-274.75"/>
<text text-anchor="start" x="266" y="-281.3" font-family="Helvetica,sans-Serif" font-size="11.00">date_archived</text>
<polygon fill="none" stroke="black" points="455,-274.75 455,-296.75 569.75,-296.75 569.75,-274.75 455,-274.75"/>
<text text-anchor="start" x="458" y="-282.05" font-family="Helvetica,sans-Serif" font-size="11.00">timestamp[19]</text>
<polygon fill="none" stroke="black" points="246,-252.75 246,-274.75 455,-274.75 455,-252.75 246,-252.75"/>
<text text-anchor="start" x="266" y="-259.3" font-family="Helvetica,sans-Serif" font-size="11.00">message</text>
<polygon fill="none" stroke="black" points="455,-252.75 455,-274.75 569.75,-274.75 569.75,-252.75 455,-252.75"/>
<text text-anchor="start" x="458" y="-260.05" font-family="Helvetica,sans-Serif" font-size="11.00">text[65535]</text>
<polygon fill="none" stroke="black" points="246,-230.75 246,-252.75 455,-252.75 455,-230.75 246,-230.75"/>
<text text-anchor="start" x="266" y="-237.3" font-family="Helvetica,sans-Serif" font-size="11.00">version</text>
<polygon fill="none" stroke="black" points="455,-230.75 455,-252.75 569.75,-252.75 569.75,-230.75 455,-230.75"/>
<text text-anchor="start" x="458" y="-238.05" font-family="Helvetica,sans-Serif" font-size="11.00">bigint[19]</text>
<polygon fill="none" stroke="black" points="246,-208.75 246,-230.75 455,-230.75 455,-208.75 246,-208.75"/>
<text text-anchor="start" x="266" y="-215.3" font-family="Helvetica,sans-Serif" font-size="11.00">created_by</text>
<polygon fill="none" stroke="black" points="455,-208.75 455,-230.75 569.75,-230.75 569.75,-208.75 455,-208.75"/>
<text text-anchor="start" x="458" y="-216.05" font-family="Helvetica,sans-Serif" font-size="11.00">varchar[255]</text>
<polygon fill="none" stroke="black" points="246,-186.75 246,-208.75 455,-208.75 455,-186.75 246,-186.75"/>
<text text-anchor="start" x="266" y="-193.3" font-family="Helvetica,sans-Serif" font-size="11.00">last_modified_by</text>
<polygon fill="none" stroke="black" points="455,-186.75 455,-208.75 569.75,-208.75 569.75,-186.75 455,-186.75"/>
<text text-anchor="start" x="458" y="-194.05" font-family="Helvetica,sans-Serif" font-size="11.00">varchar[255]</text>
<polygon fill="none" stroke="black" points="246,-164.75 246,-186.75 455,-186.75 455,-164.75 246,-164.75"/>
<text text-anchor="start" x="266" y="-171.3" font-family="Helvetica,sans-Serif" font-size="11.00">created_date</text>
<polygon fill="none" stroke="black" points="455,-164.75 455,-186.75 569.75,-186.75 569.75,-164.75 455,-164.75"/>
<text text-anchor="start" x="458" y="-172.05" font-family="Helvetica,sans-Serif" font-size="11.00">timestamp[19]</text>
<polygon fill="none" stroke="black" points="246,-142.75 246,-164.75 455,-164.75 455,-142.75 246,-142.75"/>
<text text-anchor="start" x="266" y="-149.3" font-family="Helvetica,sans-Serif" font-size="11.00">last_modified_date</text>
<polygon fill="none" stroke="black" points="455,-142.75 455,-164.75 569.75,-164.75 569.75,-142.75 455,-142.75"/>
<text text-anchor="start" x="458" y="-150.05" font-family="Helvetica,sans-Serif" font-size="11.00">timestamp[19]</text>
<polygon fill="#ffffff" stroke="none" points="246,-123.25 246,-142.75 356.5,-142.75 356.5,-123.25 246,-123.25"/>
<polygon fill="none" stroke="black" points="246,-123.25 246,-142.75 356.5,-142.75 356.5,-123.25 246,-123.25"/>
<text text-anchor="start" x="249" y="-129.3" font-family="Helvetica,sans-Serif" font-size="11.00">&lt; 1</text>
<polygon fill="#ffffff" stroke="none" points="356.5,-123.25 356.5,-142.75 455,-142.75 455,-123.25 356.5,-123.25"/>
<polygon fill="none" stroke="black" points="356.5,-123.25 356.5,-142.75 455,-142.75 455,-123.25 356.5,-123.25"/>
<text text-anchor="start" x="444.5" y="-129.3" font-family="Helvetica,sans-Serif" font-size="11.00"> &#160;</text>
<polygon fill="#ffffff" stroke="none" points="455,-123.25 455,-142.75 569.75,-142.75 569.75,-123.25 455,-123.25"/>
<polygon fill="none" stroke="black" points="455,-123.25 455,-142.75 569.75,-142.75 569.75,-123.25 455,-123.25"/>
<text text-anchor="start" x="547.25" y="-129.3" font-family="Helvetica,sans-Serif" font-size="11.00">0 &gt;</text>
<polygon fill="none" stroke="black" stroke-width="2" points="245,-122.25 245,-475.25 597.75,-475.25 597.75,-122.25 245,-122.25"/>
</a>
</g>
</g>
<!-- doc_unit -->
<g id="node2" class="node">
<title>doc_unit</title>
<g id="a_node2"><a xlink:href="../../tables/doc_unit.html" xlink:title="doc_unit" target="_top">
<polygon fill="#ffffff" stroke="none" points="8,-38.5 8,-453 195,-453 195,-38.5 8,-38.5"/>
<polygon fill="#f5f5f5" stroke="none" points="8,-429.5 8,-453 195,-453 195,-429.5 8,-429.5"/>
<polygon fill="none" stroke="black" points="8,-429.5 8,-453 195,-453 195,-429.5 8,-429.5"/>
<text text-anchor="start" x="13" y="-438.55" font-family="Helvetica,sans-Serif" font-weight="bold" font-size="11.00">doc_unit</text>
<text text-anchor="start" x="153.25" y="-437.55" font-family="Helvetica,sans-Serif" font-size="11.00">[table]</text>
<polygon fill="none" stroke="black" points="8,-407.5 8,-429.5 195,-429.5 195,-407.5 8,-407.5"/>
<image xlink:href="../../images/primaryKeys.png" width="11px" height="12px" preserveAspectRatio="xMinYMin meet" x="13" y="-424.5"/>
<text text-anchor="start" x="28" y="-414.05" font-family="Helvetica,sans-Serif" font-size="11.00">identifier</text>
<polygon fill="#ffffff" stroke="none" points="8,-385.5 8,-407.5 195,-407.5 195,-385.5 8,-385.5"/>
<polygon fill="none" stroke="black" points="8,-385.5 8,-407.5 195,-407.5 195,-385.5 8,-385.5"/>
<text text-anchor="start" x="28" y="-392.05" font-family="Helvetica,sans-Serif" font-size="11.00">pgcn_id</text>
<polygon fill="#ffffff" stroke="none" points="8,-363.5 8,-385.5 195,-385.5 195,-363.5 8,-363.5"/>
<polygon fill="none" stroke="black" points="8,-363.5 8,-385.5 195,-385.5 195,-363.5 8,-363.5"/>
<image xlink:href="../../images/foreignKeys.png" width="11px" height="12px" preserveAspectRatio="xMinYMin meet" x="13" y="-380.5"/>
<text text-anchor="start" x="28" y="-370.05" font-family="Helvetica,sans-Serif" font-size="11.00">library</text>
<polygon fill="#ffffff" stroke="none" points="8,-341.5 8,-363.5 195,-363.5 195,-341.5 8,-341.5"/>
<polygon fill="none" stroke="black" points="8,-341.5 8,-363.5 195,-363.5 195,-341.5 8,-341.5"/>
<image xlink:href="../../images/foreignKeys.png" width="11px" height="12px" preserveAspectRatio="xMinYMin meet" x="13" y="-358.5"/>
<text text-anchor="start" x="28" y="-348.05" font-family="Helvetica,sans-Serif" font-size="11.00">project</text>
<polygon fill="#ffffff" stroke="none" points="8,-319.5 8,-341.5 195,-341.5 195,-319.5 8,-319.5"/>
<polygon fill="none" stroke="black" points="8,-319.5 8,-341.5 195,-341.5 195,-319.5 8,-319.5"/>
<text text-anchor="start" x="28" y="-326.05" font-family="Helvetica,sans-Serif" font-size="11.00">state</text>
<polygon fill="#ffffff" stroke="none" points="8,-297.5 8,-319.5 195,-319.5 195,-297.5 8,-297.5"/>
<polygon fill="none" stroke="black" points="8,-297.5 8,-319.5 195,-319.5 195,-297.5 8,-297.5"/>
<image xlink:href="../../images/foreignKeys.png" width="11px" height="12px" preserveAspectRatio="xMinYMin meet" x="13" y="-314.5"/>
<text text-anchor="start" x="28" y="-304.05" font-family="Helvetica,sans-Serif" font-size="11.00">lot</text>
<polygon fill="#ffffff" stroke="none" points="8,-275.5 8,-297.5 195,-297.5 195,-275.5 8,-275.5"/>
<polygon fill="none" stroke="black" points="8,-275.5 8,-297.5 195,-297.5 195,-275.5 8,-275.5"/>
<image xlink:href="../../images/foreignKeys.png" width="11px" height="12px" preserveAspectRatio="xMinYMin meet" x="13" y="-292.5"/>
<text text-anchor="start" x="28" y="-282.05" font-family="Helvetica,sans-Serif" font-size="11.00">collection_omeka</text>
<polygon fill="#ffffff" stroke="none" points="8,-253.5 8,-275.5 195,-275.5 195,-253.5 8,-253.5"/>
<polygon fill="none" stroke="black" points="8,-253.5 8,-275.5 195,-275.5 195,-253.5 8,-253.5"/>
<image xlink:href="../../images/foreignKeys.png" width="11px" height="12px" preserveAspectRatio="xMinYMin meet" x="13" y="-270.5"/>
<text text-anchor="start" x="28" y="-260.05" font-family="Helvetica,sans-Serif" font-size="11.00">items_omeka</text>
<polygon fill="#ffffff" stroke="none" points="8,-231.5 8,-253.5 195,-253.5 195,-231.5 8,-231.5"/>
<polygon fill="none" stroke="black" points="8,-231.5 8,-253.5 195,-253.5 195,-231.5 8,-231.5"/>
<image xlink:href="../../images/foreignKeys.png" width="11px" height="12px" preserveAspectRatio="xMinYMin meet" x="13" y="-248.5"/>
<text text-anchor="start" x="28" y="-238.05" font-family="Helvetica,sans-Serif" font-size="11.00">parent</text>
<polygon fill="#ffffff" stroke="none" points="8,-209.5 8,-231.5 195,-231.5 195,-209.5 8,-209.5"/>
<polygon fill="none" stroke="black" points="8,-209.5 8,-231.5 195,-231.5 195,-209.5 8,-209.5"/>
<image xlink:href="../../images/foreignKeys.png" width="11px" height="12px" preserveAspectRatio="xMinYMin meet" x="13" y="-226.5"/>
<text text-anchor="start" x="28" y="-216.05" font-family="Helvetica,sans-Serif" font-size="11.00">active_ocr_lang</text>
<polygon fill="#ffffff" stroke="none" points="8,-187.5 8,-209.5 195,-209.5 195,-187.5 8,-187.5"/>
<polygon fill="none" stroke="black" points="8,-187.5 8,-209.5 195,-209.5 195,-187.5 8,-187.5"/>
<image xlink:href="../../images/foreignKeys.png" width="11px" height="12px" preserveAspectRatio="xMinYMin meet" x="13" y="-204.5"/>
<text text-anchor="start" x="28" y="-194.05" font-family="Helvetica,sans-Serif" font-size="11.00">collection_ia</text>
<polygon fill="#ffffff" stroke="none" points="8,-165.5 8,-187.5 195,-187.5 195,-165.5 8,-165.5"/>
<polygon fill="none" stroke="black" points="8,-165.5 8,-187.5 195,-187.5 195,-165.5 8,-165.5"/>
<image xlink:href="../../images/foreignKeys.png" width="11px" height="12px" preserveAspectRatio="xMinYMin meet" x="13" y="-182.5"/>
<text text-anchor="start" x="28" y="-172.05" font-family="Helvetica,sans-Serif" font-size="11.00">classement_pac</text>
<polygon fill="#ffffff" stroke="none" points="8,-143.5 8,-165.5 195,-165.5 195,-143.5 8,-143.5"/>
<polygon fill="none" stroke="black" points="8,-143.5 8,-165.5 195,-165.5 195,-143.5 8,-143.5"/>
<image xlink:href="../../images/foreignKeys.png" width="11px" height="12px" preserveAspectRatio="xMinYMin meet" x="13" y="-160.5"/>
<text text-anchor="start" x="28" y="-150.05" font-family="Helvetica,sans-Serif" font-size="11.00">sibling</text>
<polygon fill="#ffffff" stroke="none" points="8,-121.5 8,-143.5 195,-143.5 195,-121.5 8,-121.5"/>
<polygon fill="none" stroke="black" points="8,-121.5 8,-143.5 195,-143.5 195,-121.5 8,-121.5"/>
<image xlink:href="../../images/foreignKeys.png" width="11px" height="12px" preserveAspectRatio="xMinYMin meet" x="13" y="-138.5"/>
<text text-anchor="start" x="28" y="-128.05" font-family="Helvetica,sans-Serif" font-size="11.00">export_data</text>
<polygon fill="#ffffff" stroke="none" points="8,-99.5 8,-121.5 195,-121.5 195,-99.5 8,-99.5"/>
<polygon fill="none" stroke="black" points="8,-99.5 8,-121.5 195,-121.5 195,-99.5 8,-99.5"/>
<image xlink:href="../../images/foreignKeys.png" width="11px" height="12px" preserveAspectRatio="xMinYMin meet" x="13" y="-116.5"/>
<text text-anchor="start" x="28" y="-106.05" font-family="Helvetica,sans-Serif" font-size="11.00">archive_item</text>
<polygon fill="#ffffff" stroke="none" points="8,-77.5 8,-99.5 195,-99.5 195,-77.5 8,-77.5"/>
<polygon fill="none" stroke="black" points="8,-77.5 8,-99.5 195,-99.5 195,-77.5 8,-77.5"/>
<image xlink:href="../../images/foreignKeys.png" width="11px" height="12px" preserveAspectRatio="xMinYMin meet" x="13" y="-94.5"/>
<text text-anchor="start" x="28" y="-84.05" font-family="Helvetica,sans-Serif" font-size="11.00">workflow</text>
<polygon fill="none" stroke="black" points="8,-58 8,-77.5 195,-77.5 195,-58 8,-58"/>
<text text-anchor="start" x="11" y="-64.05" font-family="Helvetica,sans-Serif" font-size="11.00">...</text>
<polygon fill="#ffffff" stroke="none" points="8,-38.5 8,-58 76.58,-58 76.58,-38.5 8,-38.5"/>
<polygon fill="none" stroke="black" points="8,-38.5 8,-58 76.58,-58 76.58,-38.5 8,-38.5"/>
<text text-anchor="start" x="11" y="-44.55" font-family="Helvetica,sans-Serif" font-size="11.00">&lt; 13</text>
<polygon fill="#ffffff" stroke="none" points="76.58,-38.5 76.58,-58 126.42,-58 126.42,-38.5 76.58,-38.5"/>
<polygon fill="none" stroke="black" points="76.58,-38.5 76.58,-58 126.42,-58 126.42,-38.5 76.58,-38.5"/>
<text text-anchor="start" x="115.92" y="-44.55" font-family="Helvetica,sans-Serif" font-size="11.00"> &#160;</text>
<polygon fill="#ffffff" stroke="none" points="126.42,-38.5 126.42,-58 195,-58 195,-38.5 126.42,-38.5"/>
<polygon fill="none" stroke="black" points="126.42,-38.5 126.42,-58 195,-58 195,-38.5 126.42,-38.5"/>
<text text-anchor="start" x="165.75" y="-44.55" font-family="Helvetica,sans-Serif" font-size="11.00">11 &gt;</text>
</a>
</g>
</g>
<!-- exc_internet_archive_report&#45;&gt;doc_unit -->
<g id="edge1" class="edge">
<title>exc_internet_archive_report:w&#45;&gt;doc_unit:e</title>
<path fill="none" stroke="black" d="M229.42,-417.9C218.71,-418.12 211.48,-418.5 196,-418.5"/>
<polygon fill="black" stroke="black" points="236.67,-417.83 244.7,-421.35 241,-417.79 244.33,-417.76 244.33,-417.76 244.33,-417.76 241,-417.79 244.63,-414.15 236.67,-417.83"/>
<ellipse fill="none" stroke="black" cx="231.75" cy="-417.88" rx="3.2" ry="3.2"/>
</g>
</g>
</svg>
