<?xml version="1.0" encoding="UTF-8" standalone="no"?>
<!DOCTYPE svg PUBLIC "-//W3C//DTD SVG 1.1//EN"
 "http://www.w3.org/Graphics/SVG/1.1/DTD/svg11.dtd">
<!-- Generated by graphviz version 12.2.0 (0)
 -->
<!-- Title: twoDegreesRelationshipsDiagram Pages: 1 -->
<svg width="637pt" height="423pt"
 viewBox="0.00 0.00 636.50 423.25" xmlns="http://www.w3.org/2000/svg" xmlns:xlink="http://www.w3.org/1999/xlink">
<g id="graph0" class="graph" transform="scale(1 1) rotate(0) translate(4 419.25)">
<title>twoDegreesRelationshipsDiagram</title>
<polygon fill="#ffffff" stroke="none" points="-4,4 -4,-419.25 632.5,-419.25 632.5,4 -4,4"/>
<text text-anchor="middle" x="79.25" y="-7.05" font-family="Helvetica,sans-Serif" font-size="11.00">Generated by SchemaSpy</text>
<!-- image_metadata_values -->
<g id="node1" class="node">
<title>image_metadata_values</title>
<g id="a_node1"><a xlink:href="../../tables/image_metadata_values.html" xlink:title="image_metadata_values" target="_top">
<polygon fill="#ffffff" stroke="none" points="411.75,-273.75 411.75,-402.25 620.5,-402.25 620.5,-273.75 411.75,-273.75"/>
<polygon fill="#f5f5f5" stroke="none" points="411.75,-378.75 411.75,-402.25 620.5,-402.25 620.5,-378.75 411.75,-378.75"/>
<polygon fill="none" stroke="black" points="411.75,-378.75 411.75,-402.25 620.5,-402.25 620.5,-378.75 411.75,-378.75"/>
<text text-anchor="start" x="416.75" y="-387.8" font-family="Helvetica,sans-Serif" font-weight="bold" font-size="11.00">image_metadata_values</text>
<text text-anchor="start" x="578.75" y="-386.8" font-family="Helvetica,sans-Serif" font-size="11.00">[table]</text>
<polygon fill="none" stroke="black" points="411.75,-356.75 411.75,-378.75 620.5,-378.75 620.5,-356.75 411.75,-356.75"/>
<image xlink:href="../../images/primaryKeys.png" width="11px" height="12px" preserveAspectRatio="xMinYMin meet" x="416.75" y="-373.75"/>
<text text-anchor="start" x="444.62" y="-363.3" font-family="Helvetica,sans-Serif" font-size="11.00">identifier</text>
<polygon fill="#ffffff" stroke="none" points="411.75,-334.75 411.75,-356.75 620.5,-356.75 620.5,-334.75 411.75,-334.75"/>
<polygon fill="none" stroke="black" points="411.75,-334.75 411.75,-356.75 620.5,-356.75 620.5,-334.75 411.75,-334.75"/>
<image xlink:href="../../images/foreignKeys.png" width="11px" height="12px" preserveAspectRatio="xMinYMin meet" x="416.75" y="-351.75"/>
<text text-anchor="start" x="444.62" y="-341.3" font-family="Helvetica,sans-Serif" font-size="11.00">doc_unit</text>
<polygon fill="#ffffff" stroke="none" points="411.75,-312.75 411.75,-334.75 620.5,-334.75 620.5,-312.75 411.75,-312.75"/>
<polygon fill="none" stroke="black" points="411.75,-312.75 411.75,-334.75 620.5,-334.75 620.5,-312.75 411.75,-312.75"/>
<image xlink:href="../../images/foreignKeys.png" width="11px" height="12px" preserveAspectRatio="xMinYMin meet" x="416.75" y="-329.75"/>
<text text-anchor="start" x="444.62" y="-319.3" font-family="Helvetica,sans-Serif" font-size="11.00">metadata</text>
<polygon fill="none" stroke="black" points="411.75,-293.25 411.75,-312.75 620.5,-312.75 620.5,-293.25 411.75,-293.25"/>
<text text-anchor="start" x="414.75" y="-299.3" font-family="Helvetica,sans-Serif" font-size="11.00">...</text>
<polygon fill="#ffffff" stroke="none" points="411.75,-273.75 411.75,-293.25 489.33,-293.25 489.33,-273.75 411.75,-273.75"/>
<polygon fill="none" stroke="black" points="411.75,-273.75 411.75,-293.25 489.33,-293.25 489.33,-273.75 411.75,-273.75"/>
<text text-anchor="start" x="414.75" y="-279.8" font-family="Helvetica,sans-Serif" font-size="11.00">&lt; 2</text>
<polygon fill="#ffffff" stroke="none" points="489.33,-273.75 489.33,-293.25 554.92,-293.25 554.92,-273.75 489.33,-273.75"/>
<polygon fill="none" stroke="black" points="489.33,-273.75 489.33,-293.25 554.92,-293.25 554.92,-273.75 489.33,-273.75"/>
<text text-anchor="start" x="544.42" y="-279.8" font-family="Helvetica,sans-Serif" font-size="11.00"> &#160;</text>
<polygon fill="#ffffff" stroke="none" points="554.92,-273.75 554.92,-293.25 620.5,-293.25 620.5,-273.75 554.92,-273.75"/>
<polygon fill="none" stroke="black" points="554.92,-273.75 554.92,-293.25 620.5,-293.25 620.5,-273.75 554.92,-273.75"/>
<text text-anchor="start" x="610" y="-279.8" font-family="Helvetica,sans-Serif" font-size="11.00"> &#160;</text>
</a>
</g>
</g>
<!-- doc_unit -->
<g id="node2" class="node">
<title>doc_unit</title>
<g id="a_node2"><a xlink:href="../../tables/doc_unit.html" xlink:title="doc_unit" target="_top">
<polygon fill="#ffffff" stroke="none" points="134,-348.75 134,-411.25 236.75,-411.25 236.75,-348.75 134,-348.75"/>
<polygon fill="#f5f5f5" stroke="none" points="134,-387.75 134,-411.25 236.75,-411.25 236.75,-387.75 134,-387.75"/>
<polygon fill="none" stroke="black" points="134,-387.75 134,-411.25 236.75,-411.25 236.75,-387.75 134,-387.75"/>
<text text-anchor="start" x="139" y="-396.8" font-family="Helvetica,sans-Serif" font-weight="bold" font-size="11.00">doc_unit</text>
<text text-anchor="start" x="195" y="-395.8" font-family="Helvetica,sans-Serif" font-size="11.00">[table]</text>
<polygon fill="none" stroke="black" points="134,-368.25 134,-387.75 236.75,-387.75 236.75,-368.25 134,-368.25"/>
<text text-anchor="start" x="137" y="-374.3" font-family="Helvetica,sans-Serif" font-size="11.00">...</text>
<polygon fill="#ffffff" stroke="none" points="134,-348.75 134,-368.25 174.5,-368.25 174.5,-348.75 134,-348.75"/>
<polygon fill="none" stroke="black" points="134,-348.75 134,-368.25 174.5,-368.25 174.5,-348.75 134,-348.75"/>
<text text-anchor="start" x="137" y="-354.8" font-family="Helvetica,sans-Serif" font-size="11.00">&lt; 13</text>
<polygon fill="#ffffff" stroke="none" points="174.5,-348.75 174.5,-368.25 196.25,-368.25 196.25,-348.75 174.5,-348.75"/>
<polygon fill="none" stroke="black" points="174.5,-348.75 174.5,-368.25 196.25,-368.25 196.25,-348.75 174.5,-348.75"/>
<text text-anchor="start" x="185.75" y="-354.8" font-family="Helvetica,sans-Serif" font-size="11.00"> &#160;</text>
<polygon fill="#ffffff" stroke="none" points="196.25,-348.75 196.25,-368.25 236.75,-368.25 236.75,-348.75 196.25,-348.75"/>
<polygon fill="none" stroke="black" points="196.25,-348.75 196.25,-368.25 236.75,-368.25 236.75,-348.75 196.25,-348.75"/>
<text text-anchor="start" x="207.5" y="-354.8" font-family="Helvetica,sans-Serif" font-size="11.00">11 &gt;</text>
</a>
</g>
</g>
<!-- image_metadata_values&#45;&gt;doc_unit -->
<g id="edge1" class="edge">
<title>image_metadata_values:w&#45;&gt;doc_unit:e</title>
<path fill="none" stroke="black" d="M395.12,-346.21C329.9,-350.13 310.46,-378 237.75,-378"/>
<polygon fill="black" stroke="black" points="402.42,-345.99 410.52,-349.36 406.75,-345.87 410.08,-345.77 410.08,-345.77 410.08,-345.77 406.75,-345.87 410.31,-342.16 402.42,-345.99"/>
<ellipse fill="none" stroke="black" cx="397.5" cy="-346.14" rx="3.2" ry="3.2"/>
</g>
<!-- image_metadata_properties -->
<g id="node3" class="node">
<title>image_metadata_properties</title>
<g id="a_node3"><a xlink:href="../../tables/image_metadata_properties.html" xlink:title="image_metadata_properties" target="_top">
<polygon fill="#ffffff" stroke="none" points="8,-38.5 8,-327.5 362.75,-327.5 362.75,-38.5 8,-38.5"/>
<polygon fill="#f5f5f5" stroke="none" points="10,-302 10,-325.5 360.75,-325.5 360.75,-302 10,-302"/>
<polygon fill="none" stroke="black" points="10,-302 10,-325.5 360.75,-325.5 360.75,-302 10,-302"/>
<text text-anchor="start" x="15" y="-311.05" font-family="Helvetica,sans-Serif" font-weight="bold" font-size="11.00">image_metadata_properties</text>
<text text-anchor="start" x="319" y="-310.05" font-family="Helvetica,sans-Serif" font-size="11.00">[table]</text>
<polygon fill="none" stroke="black" points="10,-280 10,-302 219,-302 219,-280 10,-280"/>
<image xlink:href="../../images/primaryKeys.png" width="11px" height="12px" preserveAspectRatio="xMinYMin meet" x="15" y="-297"/>
<text text-anchor="start" x="30" y="-286.55" font-family="Helvetica,sans-Serif" font-size="11.00">identifier</text>
<polygon fill="none" stroke="black" points="219,-280 219,-302 333.75,-302 333.75,-280 219,-280"/>
<text text-anchor="start" x="222" y="-287.3" font-family="Helvetica,sans-Serif" font-size="11.00">varchar[191]</text>
<polygon fill="none" stroke="black" points="10,-258 10,-280 219,-280 219,-258 10,-258"/>
<text text-anchor="start" x="30" y="-264.55" font-family="Helvetica,sans-Serif" font-size="11.00">label</text>
<polygon fill="none" stroke="black" points="219,-258 219,-280 333.75,-280 333.75,-258 219,-258"/>
<text text-anchor="start" x="222" y="-265.3" font-family="Helvetica,sans-Serif" font-size="11.00">varchar[255]</text>
<polygon fill="none" stroke="black" points="10,-236 10,-258 219,-258 219,-236 10,-236"/>
<text text-anchor="start" x="30" y="-242.55" font-family="Helvetica,sans-Serif" font-size="11.00">meta_repeat</text>
<polygon fill="none" stroke="black" points="219,-236 219,-258 333.75,-258 333.75,-236 219,-236"/>
<text text-anchor="start" x="222" y="-243.3" font-family="Helvetica,sans-Serif" font-size="11.00">bit[1]</text>
<polygon fill="none" stroke="black" points="10,-214 10,-236 219,-236 219,-214 10,-214"/>
<text text-anchor="start" x="30" y="-220.55" font-family="Helvetica,sans-Serif" font-size="11.00">meta_type</text>
<polygon fill="none" stroke="black" points="219,-214 219,-236 333.75,-236 333.75,-214 219,-214"/>
<text text-anchor="start" x="222" y="-221.3" font-family="Helvetica,sans-Serif" font-size="11.00">varchar[255]</text>
<polygon fill="none" stroke="black" points="10,-192 10,-214 219,-214 219,-192 10,-192"/>
<text text-anchor="start" x="30" y="-198.55" font-family="Helvetica,sans-Serif" font-size="11.00">iptc_tag</text>
<polygon fill="none" stroke="black" points="219,-192 219,-214 333.75,-214 333.75,-192 219,-192"/>
<text text-anchor="start" x="222" y="-199.3" font-family="Helvetica,sans-Serif" font-size="11.00">varchar[255]</text>
<polygon fill="none" stroke="black" points="10,-170 10,-192 219,-192 219,-170 10,-170"/>
<text text-anchor="start" x="30" y="-176.55" font-family="Helvetica,sans-Serif" font-size="11.00">xmp_tag</text>
<polygon fill="none" stroke="black" points="219,-170 219,-192 333.75,-192 333.75,-170 219,-170"/>
<text text-anchor="start" x="222" y="-177.3" font-family="Helvetica,sans-Serif" font-size="11.00">varchar[255]</text>
<polygon fill="none" stroke="black" points="10,-148 10,-170 219,-170 219,-148 10,-148"/>
<text text-anchor="start" x="30" y="-154.55" font-family="Helvetica,sans-Serif" font-size="11.00">version</text>
<polygon fill="none" stroke="black" points="219,-148 219,-170 333.75,-170 333.75,-148 219,-148"/>
<text text-anchor="start" x="222" y="-155.3" font-family="Helvetica,sans-Serif" font-size="11.00">bigint[19]</text>
<polygon fill="none" stroke="black" points="10,-126 10,-148 219,-148 219,-126 10,-126"/>
<text text-anchor="start" x="30" y="-132.55" font-family="Helvetica,sans-Serif" font-size="11.00">created_by</text>
<polygon fill="none" stroke="black" points="219,-126 219,-148 333.75,-148 333.75,-126 219,-126"/>
<text text-anchor="start" x="222" y="-133.3" font-family="Helvetica,sans-Serif" font-size="11.00">varchar[191]</text>
<polygon fill="none" stroke="black" points="10,-104 10,-126 219,-126 219,-104 10,-104"/>
<text text-anchor="start" x="30" y="-110.55" font-family="Helvetica,sans-Serif" font-size="11.00">last_modified_by</text>
<polygon fill="none" stroke="black" points="219,-104 219,-126 333.75,-126 333.75,-104 219,-104"/>
<text text-anchor="start" x="222" y="-111.3" font-family="Helvetica,sans-Serif" font-size="11.00">varchar[191]</text>
<polygon fill="none" stroke="black" points="10,-82 10,-104 219,-104 219,-82 10,-82"/>
<text text-anchor="start" x="30" y="-88.55" font-family="Helvetica,sans-Serif" font-size="11.00">created_date</text>
<polygon fill="none" stroke="black" points="219,-82 219,-104 333.75,-104 333.75,-82 219,-82"/>
<text text-anchor="start" x="222" y="-89.3" font-family="Helvetica,sans-Serif" font-size="11.00">timestamp[19]</text>
<polygon fill="none" stroke="black" points="10,-60 10,-82 219,-82 219,-60 10,-60"/>
<text text-anchor="start" x="30" y="-66.55" font-family="Helvetica,sans-Serif" font-size="11.00">last_modified_date</text>
<polygon fill="none" stroke="black" points="219,-60 219,-82 333.75,-82 333.75,-60 219,-60"/>
<text text-anchor="start" x="222" y="-67.3" font-family="Helvetica,sans-Serif" font-size="11.00">timestamp[19]</text>
<polygon fill="#ffffff" stroke="none" points="10,-40.5 10,-60 120.5,-60 120.5,-40.5 10,-40.5"/>
<polygon fill="none" stroke="black" points="10,-40.5 10,-60 120.5,-60 120.5,-40.5 10,-40.5"/>
<text text-anchor="start" x="13" y="-46.55" font-family="Helvetica,sans-Serif" font-size="11.00">&lt; 0</text>
<polygon fill="#ffffff" stroke="none" points="120.5,-40.5 120.5,-60 219,-60 219,-40.5 120.5,-40.5"/>
<polygon fill="none" stroke="black" points="120.5,-40.5 120.5,-60 219,-60 219,-40.5 120.5,-40.5"/>
<text text-anchor="start" x="208.5" y="-46.55" font-family="Helvetica,sans-Serif" font-size="11.00"> &#160;</text>
<polygon fill="#ffffff" stroke="none" points="219,-40.5 219,-60 333.75,-60 333.75,-40.5 219,-40.5"/>
<polygon fill="none" stroke="black" points="219,-40.5 219,-60 333.75,-60 333.75,-40.5 219,-40.5"/>
<text text-anchor="start" x="311.25" y="-46.55" font-family="Helvetica,sans-Serif" font-size="11.00">1 &gt;</text>
<polygon fill="none" stroke="black" stroke-width="2" points="9,-39.5 9,-326.5 361.75,-326.5 361.75,-39.5 9,-39.5"/>
</a>
</g>
</g>
<!-- image_metadata_values&#45;&gt;image_metadata_properties -->
<g id="edge2" class="edge">
<title>image_metadata_values:w&#45;&gt;image_metadata_properties:e</title>
<path fill="none" stroke="black" d="M395.12,-321.39C372.24,-313.89 365.5,-291 334.75,-291"/>
<polygon fill="black" stroke="black" points="402.51,-322.51 409.88,-327.26 406.79,-323.15 410.09,-323.65 410.09,-323.65 410.09,-323.65 406.79,-323.15 410.96,-320.14 402.51,-322.51"/>
<ellipse fill="none" stroke="black" cx="397.64" cy="-321.78" rx="3.2" ry="3.2"/>
</g>
</g>
</svg>
