<?xml version="1.0" encoding="UTF-8" standalone="no"?>
<!DOCTYPE svg PUBLIC "-//W3C//DTD SVG 1.1//EN"
 "http://www.w3.org/Graphics/SVG/1.1/DTD/svg11.dtd">
<!-- Generated by graphviz version 12.2.0 (0)
 -->
<!-- Title: oneDegreeRelationshipsDiagram Pages: 1 -->
<svg width="826pt" height="332pt"
 viewBox="0.00 0.00 826.00 332.00" xmlns="http://www.w3.org/2000/svg" xmlns:xlink="http://www.w3.org/1999/xlink">
<g id="graph0" class="graph" transform="scale(1 1) rotate(0) translate(4 328)">
<title>oneDegreeRelationshipsDiagram</title>
<polygon fill="#ffffff" stroke="none" points="-4,4 -4,-328 822,-328 822,4 -4,4"/>
<text text-anchor="middle" x="79.25" y="-7.05" font-family="Helvetica,sans-Serif" font-size="11.00">Generated by SchemaSpy</text>
<!-- lib_parameter -->
<g id="node1" class="node">
<title>lib_parameter</title>
<g id="a_node1"><a xlink:href="../../tables/lib_parameter.html" xlink:title="lib_parameter" target="_top">
<polygon fill="#ffffff" stroke="none" points="291,-77.25 291,-300.25 537.25,-300.25 537.25,-77.25 291,-77.25"/>
<polygon fill="#f5f5f5" stroke="none" points="293,-274.75 293,-298.25 535.25,-298.25 535.25,-274.75 293,-274.75"/>
<polygon fill="none" stroke="black" points="293,-274.75 293,-298.25 535.25,-298.25 535.25,-274.75 293,-274.75"/>
<text text-anchor="start" x="298" y="-283.8" font-family="Helvetica,sans-Serif" font-weight="bold" font-size="11.00">lib_parameter</text>
<text text-anchor="start" x="493.5" y="-282.8" font-family="Helvetica,sans-Serif" font-size="11.00">[table]</text>
<polygon fill="none" stroke="black" points="293,-252.75 293,-274.75 441,-274.75 441,-252.75 293,-252.75"/>
<image xlink:href="../../images/primaryKeys.png" width="11px" height="12px" preserveAspectRatio="xMinYMin meet" x="298" y="-269.75"/>
<text text-anchor="start" x="313" y="-259.3" font-family="Helvetica,sans-Serif" font-size="11.00">identifier</text>
<polygon fill="none" stroke="black" points="441,-252.75 441,-274.75 532,-274.75 532,-252.75 441,-252.75"/>
<text text-anchor="start" x="444" y="-260.05" font-family="Helvetica,sans-Serif" font-size="11.00">varchar[191]</text>
<polygon fill="none" stroke="black" points="293,-230.75 293,-252.75 441,-252.75 441,-230.75 293,-230.75"/>
<text text-anchor="start" x="313" y="-237.3" font-family="Helvetica,sans-Serif" font-size="11.00">type</text>
<polygon fill="none" stroke="black" points="441,-230.75 441,-252.75 532,-252.75 532,-230.75 441,-230.75"/>
<text text-anchor="start" x="444" y="-238.05" font-family="Helvetica,sans-Serif" font-size="11.00">varchar[255]</text>
<polygon fill="#ffffff" stroke="none" points="293,-208.75 293,-230.75 441,-230.75 441,-208.75 293,-208.75"/>
<polygon fill="none" stroke="black" points="293,-208.75 293,-230.75 441,-230.75 441,-208.75 293,-208.75"/>
<image xlink:href="../../images/foreignKeys.png" width="11px" height="12px" preserveAspectRatio="xMinYMin meet" x="298" y="-225.75"/>
<text text-anchor="start" x="313" y="-215.3" font-family="Helvetica,sans-Serif" font-size="11.00">library</text>
<polygon fill="none" stroke="black" points="441,-208.75 441,-230.75 532,-230.75 532,-208.75 441,-208.75"/>
<text text-anchor="start" x="444" y="-216.05" font-family="Helvetica,sans-Serif" font-size="11.00">varchar[191]</text>
<polygon fill="none" stroke="black" points="293,-186.75 293,-208.75 441,-208.75 441,-186.75 293,-186.75"/>
<text text-anchor="start" x="313" y="-193.3" font-family="Helvetica,sans-Serif" font-size="11.00">version</text>
<polygon fill="none" stroke="black" points="441,-186.75 441,-208.75 532,-208.75 532,-186.75 441,-186.75"/>
<text text-anchor="start" x="444" y="-194.05" font-family="Helvetica,sans-Serif" font-size="11.00">bigint[19]</text>
<polygon fill="none" stroke="black" points="293,-164.75 293,-186.75 441,-186.75 441,-164.75 293,-164.75"/>
<text text-anchor="start" x="313" y="-171.3" font-family="Helvetica,sans-Serif" font-size="11.00">created_by</text>
<polygon fill="none" stroke="black" points="441,-164.75 441,-186.75 532,-186.75 532,-164.75 441,-164.75"/>
<text text-anchor="start" x="444" y="-172.05" font-family="Helvetica,sans-Serif" font-size="11.00">varchar[191]</text>
<polygon fill="none" stroke="black" points="293,-142.75 293,-164.75 441,-164.75 441,-142.75 293,-142.75"/>
<text text-anchor="start" x="313" y="-149.3" font-family="Helvetica,sans-Serif" font-size="11.00">last_modified_by</text>
<polygon fill="none" stroke="black" points="441,-142.75 441,-164.75 532,-164.75 532,-142.75 441,-142.75"/>
<text text-anchor="start" x="444" y="-150.05" font-family="Helvetica,sans-Serif" font-size="11.00">varchar[191]</text>
<polygon fill="none" stroke="black" points="293,-120.75 293,-142.75 441,-142.75 441,-120.75 293,-120.75"/>
<text text-anchor="start" x="313" y="-127.3" font-family="Helvetica,sans-Serif" font-size="11.00">created_date</text>
<polygon fill="none" stroke="black" points="441,-120.75 441,-142.75 532,-142.75 532,-120.75 441,-120.75"/>
<text text-anchor="start" x="444" y="-128.05" font-family="Helvetica,sans-Serif" font-size="11.00">timestamp[19]</text>
<polygon fill="none" stroke="black" points="293,-98.75 293,-120.75 441,-120.75 441,-98.75 293,-98.75"/>
<text text-anchor="start" x="313" y="-105.3" font-family="Helvetica,sans-Serif" font-size="11.00">last_modified_date</text>
<polygon fill="none" stroke="black" points="441,-98.75 441,-120.75 532,-120.75 532,-98.75 441,-98.75"/>
<text text-anchor="start" x="444" y="-106.05" font-family="Helvetica,sans-Serif" font-size="11.00">timestamp[19]</text>
<polygon fill="#ffffff" stroke="none" points="293,-79.25 293,-98.75 373,-98.75 373,-79.25 293,-79.25"/>
<polygon fill="none" stroke="black" points="293,-79.25 293,-98.75 373,-98.75 373,-79.25 293,-79.25"/>
<text text-anchor="start" x="296" y="-85.3" font-family="Helvetica,sans-Serif" font-size="11.00">&lt; 1</text>
<polygon fill="#ffffff" stroke="none" points="373,-79.25 373,-98.75 441,-98.75 441,-79.25 373,-79.25"/>
<polygon fill="none" stroke="black" points="373,-79.25 373,-98.75 441,-98.75 441,-79.25 373,-79.25"/>
<text text-anchor="start" x="430.5" y="-85.3" font-family="Helvetica,sans-Serif" font-size="11.00"> &#160;</text>
<polygon fill="#ffffff" stroke="none" points="441,-79.25 441,-98.75 532,-98.75 532,-79.25 441,-79.25"/>
<polygon fill="none" stroke="black" points="441,-79.25 441,-98.75 532,-98.75 532,-79.25 441,-79.25"/>
<text text-anchor="start" x="509.5" y="-85.3" font-family="Helvetica,sans-Serif" font-size="11.00">1 &gt;</text>
<polygon fill="none" stroke="black" stroke-width="2" points="292,-78.25 292,-299.25 536.25,-299.25 536.25,-78.25 292,-78.25"/>
</a>
</g>
</g>
<!-- lib_library -->
<g id="node2" class="node">
<title>lib_library</title>
<g id="a_node2"><a xlink:href="../../tables/lib_library.html" xlink:title="lib_library" target="_top">
<polygon fill="#ffffff" stroke="none" points="8,-38.5 8,-255 242,-255 242,-38.5 8,-38.5"/>
<polygon fill="#f5f5f5" stroke="none" points="8,-231.5 8,-255 242,-255 242,-231.5 8,-231.5"/>
<polygon fill="none" stroke="black" points="8,-231.5 8,-255 242,-255 242,-231.5 8,-231.5"/>
<text text-anchor="start" x="13" y="-240.55" font-family="Helvetica,sans-Serif" font-weight="bold" font-size="11.00">lib_library</text>
<text text-anchor="start" x="200.25" y="-239.55" font-family="Helvetica,sans-Serif" font-size="11.00">[table]</text>
<polygon fill="none" stroke="black" points="8,-209.5 8,-231.5 242,-231.5 242,-209.5 8,-209.5"/>
<image xlink:href="../../images/primaryKeys.png" width="11px" height="12px" preserveAspectRatio="xMinYMin meet" x="13" y="-226.5"/>
<text text-anchor="start" x="28" y="-216.05" font-family="Helvetica,sans-Serif" font-size="11.00">identifier</text>
<polygon fill="#ffffff" stroke="none" points="8,-187.5 8,-209.5 242,-209.5 242,-187.5 8,-187.5"/>
<polygon fill="none" stroke="black" points="8,-187.5 8,-209.5 242,-209.5 242,-187.5 8,-187.5"/>
<image xlink:href="../../images/foreignKeys.png" width="11px" height="12px" preserveAspectRatio="xMinYMin meet" x="13" y="-204.5"/>
<text text-anchor="start" x="28" y="-194.05" font-family="Helvetica,sans-Serif" font-size="11.00">address</text>
<polygon fill="#ffffff" stroke="none" points="8,-165.5 8,-187.5 242,-187.5 242,-165.5 8,-165.5"/>
<polygon fill="none" stroke="black" points="8,-165.5 8,-187.5 242,-187.5 242,-165.5 8,-165.5"/>
<image xlink:href="../../images/foreignKeys.png" width="11px" height="12px" preserveAspectRatio="xMinYMin meet" x="13" y="-182.5"/>
<text text-anchor="start" x="28" y="-172.05" font-family="Helvetica,sans-Serif" font-size="11.00">active_configuration_ftp</text>
<polygon fill="#ffffff" stroke="none" points="8,-143.5 8,-165.5 242,-165.5 242,-143.5 8,-143.5"/>
<polygon fill="none" stroke="black" points="8,-143.5 8,-165.5 242,-165.5 242,-143.5 8,-143.5"/>
<image xlink:href="../../images/foreignKeys.png" width="11px" height="12px" preserveAspectRatio="xMinYMin meet" x="13" y="-160.5"/>
<text text-anchor="start" x="28" y="-150.05" font-family="Helvetica,sans-Serif" font-size="11.00">active_configuration_check</text>
<polygon fill="#ffffff" stroke="none" points="8,-121.5 8,-143.5 242,-143.5 242,-121.5 8,-121.5"/>
<polygon fill="none" stroke="black" points="8,-121.5 8,-143.5 242,-143.5 242,-121.5 8,-121.5"/>
<image xlink:href="../../images/foreignKeys.png" width="11px" height="12px" preserveAspectRatio="xMinYMin meet" x="13" y="-138.5"/>
<text text-anchor="start" x="28" y="-128.05" font-family="Helvetica,sans-Serif" font-size="11.00">role</text>
<polygon fill="#ffffff" stroke="none" points="8,-99.5 8,-121.5 242,-121.5 242,-99.5 8,-99.5"/>
<polygon fill="none" stroke="black" points="8,-99.5 8,-121.5 242,-121.5 242,-99.5 8,-99.5"/>
<image xlink:href="../../images/foreignKeys.png" width="11px" height="12px" preserveAspectRatio="xMinYMin meet" x="13" y="-116.5"/>
<text text-anchor="start" x="28" y="-106.05" font-family="Helvetica,sans-Serif" font-size="11.00">active_configuration_export_ftp</text>
<polygon fill="#ffffff" stroke="none" points="8,-77.5 8,-99.5 242,-99.5 242,-77.5 8,-77.5"/>
<polygon fill="none" stroke="black" points="8,-77.5 8,-99.5 242,-99.5 242,-77.5 8,-77.5"/>
<image xlink:href="../../images/foreignKeys.png" width="11px" height="12px" preserveAspectRatio="xMinYMin meet" x="13" y="-94.5"/>
<text text-anchor="start" x="28" y="-84.05" font-family="Helvetica,sans-Serif" font-size="11.00">active_configuration_ocr_lang</text>
<polygon fill="none" stroke="black" points="8,-58 8,-77.5 242,-77.5 242,-58 8,-58"/>
<text text-anchor="start" x="11" y="-64.05" font-family="Helvetica,sans-Serif" font-size="11.00">...</text>
<polygon fill="#ffffff" stroke="none" points="8,-38.5 8,-58 87.75,-58 87.75,-38.5 8,-38.5"/>
<polygon fill="none" stroke="black" points="8,-38.5 8,-58 87.75,-58 87.75,-38.5 8,-38.5"/>
<text text-anchor="start" x="11" y="-44.55" font-family="Helvetica,sans-Serif" font-size="11.00">&lt; 6</text>
<polygon fill="#ffffff" stroke="none" points="87.75,-38.5 87.75,-58 155.5,-58 155.5,-38.5 87.75,-38.5"/>
<polygon fill="none" stroke="black" points="87.75,-38.5 87.75,-58 155.5,-58 155.5,-38.5 87.75,-38.5"/>
<text text-anchor="start" x="145" y="-44.55" font-family="Helvetica,sans-Serif" font-size="11.00"> &#160;</text>
<polygon fill="#ffffff" stroke="none" points="155.5,-38.5 155.5,-58 242,-58 242,-38.5 155.5,-38.5"/>
<polygon fill="none" stroke="black" points="155.5,-38.5 155.5,-58 242,-58 242,-38.5 155.5,-38.5"/>
<text text-anchor="start" x="212.75" y="-44.55" font-family="Helvetica,sans-Serif" font-size="11.00">27 &gt;</text>
</a>
</g>
</g>
<!-- lib_parameter&#45;&gt;lib_library -->
<g id="edge1" class="edge">
<title>lib_parameter:w&#45;&gt;lib_library:e</title>
<path fill="none" stroke="black" d="M276.42,-219.9C265.71,-220.12 258.48,-220.5 243,-220.5"/>
<polygon fill="black" stroke="black" points="283.67,-219.83 291.7,-223.35 288,-219.79 291.33,-219.76 291.33,-219.76 291.33,-219.76 288,-219.79 291.63,-216.15 283.67,-219.83"/>
<ellipse fill="none" stroke="black" cx="278.75" cy="-219.88" rx="3.2" ry="3.2"/>
</g>
<!-- lib_parameter_value_cines -->
<g id="node3" class="node">
<title>lib_parameter_value_cines</title>
<g id="a_node3"><a xlink:href="../../tables/lib_parameter_value_cines.html" xlink:title="lib_parameter_value_cines" target="_top">
<polygon fill="#ffffff" stroke="none" points="586.25,-213.5 586.25,-320 810,-320 810,-213.5 586.25,-213.5"/>
<polygon fill="#f5f5f5" stroke="none" points="586.25,-296.5 586.25,-320 810,-320 810,-296.5 586.25,-296.5"/>
<polygon fill="none" stroke="black" points="586.25,-296.5 586.25,-320 810,-320 810,-296.5 586.25,-296.5"/>
<text text-anchor="start" x="591.25" y="-305.55" font-family="Helvetica,sans-Serif" font-weight="bold" font-size="11.00">lib_parameter_value_cines</text>
<text text-anchor="start" x="768.25" y="-304.55" font-family="Helvetica,sans-Serif" font-size="11.00">[table]</text>
<polygon fill="none" stroke="black" points="586.25,-274.5 586.25,-296.5 810,-296.5 810,-274.5 586.25,-274.5"/>
<image xlink:href="../../images/primaryKeys.png" width="11px" height="12px" preserveAspectRatio="xMinYMin meet" x="591.25" y="-291.5"/>
<text text-anchor="start" x="619.12" y="-281.05" font-family="Helvetica,sans-Serif" font-size="11.00">identifier</text>
<polygon fill="#ffffff" stroke="none" points="586.25,-252.5 586.25,-274.5 810,-274.5 810,-252.5 586.25,-252.5"/>
<polygon fill="none" stroke="black" points="586.25,-252.5 586.25,-274.5 810,-274.5 810,-252.5 586.25,-252.5"/>
<image xlink:href="../../images/foreignKeys.png" width="11px" height="12px" preserveAspectRatio="xMinYMin meet" x="591.25" y="-269.5"/>
<text text-anchor="start" x="619.12" y="-259.05" font-family="Helvetica,sans-Serif" font-size="11.00">parameter</text>
<polygon fill="none" stroke="black" points="586.25,-233 586.25,-252.5 810,-252.5 810,-233 586.25,-233"/>
<text text-anchor="start" x="589.25" y="-239.05" font-family="Helvetica,sans-Serif" font-size="11.00">...</text>
<polygon fill="#ffffff" stroke="none" points="586.25,-213.5 586.25,-233 668.83,-233 668.83,-213.5 586.25,-213.5"/>
<polygon fill="none" stroke="black" points="586.25,-213.5 586.25,-233 668.83,-233 668.83,-213.5 586.25,-213.5"/>
<text text-anchor="start" x="589.25" y="-219.55" font-family="Helvetica,sans-Serif" font-size="11.00">&lt; 1</text>
<polygon fill="#ffffff" stroke="none" points="668.83,-213.5 668.83,-233 739.42,-233 739.42,-213.5 668.83,-213.5"/>
<polygon fill="none" stroke="black" points="668.83,-213.5 668.83,-233 739.42,-233 739.42,-213.5 668.83,-213.5"/>
<text text-anchor="start" x="728.92" y="-219.55" font-family="Helvetica,sans-Serif" font-size="11.00"> &#160;</text>
<polygon fill="#ffffff" stroke="none" points="739.42,-213.5 739.42,-233 810,-233 810,-213.5 739.42,-213.5"/>
<polygon fill="none" stroke="black" points="739.42,-213.5 739.42,-233 810,-233 810,-213.5 739.42,-213.5"/>
<text text-anchor="start" x="799.5" y="-219.55" font-family="Helvetica,sans-Serif" font-size="11.00"> &#160;</text>
</a>
</g>
</g>
<!-- lib_parameter_value_cines&#45;&gt;lib_parameter -->
<g id="edge2" class="edge">
<title>lib_parameter_value_cines:w&#45;&gt;lib_parameter:e</title>
<path fill="none" stroke="black" d="M569.78,-263.54C557.71,-263.62 550.05,-263.75 533,-263.75"/>
<polygon fill="black" stroke="black" points="576.92,-263.52 584.93,-267.1 581.25,-263.51 584.58,-263.5 584.58,-263.5 584.58,-263.5 581.25,-263.51 584.91,-259.9 576.92,-263.52"/>
<ellipse fill="none" stroke="black" cx="572" cy="-263.54" rx="3.2" ry="3.2"/>
</g>
</g>
</svg>
