<?xml version="1.0" encoding="UTF-8" standalone="no"?>
<!DOCTYPE svg PUBLIC "-//W3C//DTD SVG 1.1//EN"
 "http://www.w3.org/Graphics/SVG/1.1/DTD/svg11.dtd">
<!-- Generated by graphviz version 12.2.0 (0)
 -->
<!-- Title: twoDegreesRelationshipsDiagram Pages: 1 -->
<svg width="722pt" height="296pt"
 viewBox="0.00 0.00 722.00 295.50" xmlns="http://www.w3.org/2000/svg" xmlns:xlink="http://www.w3.org/1999/xlink">
<g id="graph0" class="graph" transform="scale(1 1) rotate(0) translate(4 291.5)">
<title>twoDegreesRelationshipsDiagram</title>
<polygon fill="#ffffff" stroke="none" points="-4,4 -4,-291.5 718,-291.5 718,4 -4,4"/>
<text text-anchor="middle" x="79.25" y="-7.05" font-family="Helvetica,sans-Serif" font-size="11.00">Generated by SchemaSpy</text>
<!-- lib_parameter -->
<g id="node1" class="node">
<title>lib_parameter</title>
<g id="a_node1"><a xlink:href="../../tables/lib_parameter.html" xlink:title="lib_parameter" target="_top">
<polygon fill="#ffffff" stroke="none" points="170.75,-108.75 170.75,-215.25 318.75,-215.25 318.75,-108.75 170.75,-108.75"/>
<polygon fill="#f5f5f5" stroke="none" points="170.75,-191.75 170.75,-215.25 318.75,-215.25 318.75,-191.75 170.75,-191.75"/>
<polygon fill="none" stroke="black" points="170.75,-191.75 170.75,-215.25 318.75,-215.25 318.75,-191.75 170.75,-191.75"/>
<text text-anchor="start" x="175.75" y="-200.8" font-family="Helvetica,sans-Serif" font-weight="bold" font-size="11.00">lib_parameter</text>
<text text-anchor="start" x="277" y="-199.8" font-family="Helvetica,sans-Serif" font-size="11.00">[table]</text>
<polygon fill="none" stroke="black" points="170.75,-169.75 170.75,-191.75 318.75,-191.75 318.75,-169.75 170.75,-169.75"/>
<image xlink:href="../../images/primaryKeys.png" width="11px" height="12px" preserveAspectRatio="xMinYMin meet" x="175.75" y="-186.75"/>
<text text-anchor="start" x="190.75" y="-176.3" font-family="Helvetica,sans-Serif" font-size="11.00">identifier</text>
<polygon fill="#ffffff" stroke="none" points="170.75,-147.75 170.75,-169.75 318.75,-169.75 318.75,-147.75 170.75,-147.75"/>
<polygon fill="none" stroke="black" points="170.75,-147.75 170.75,-169.75 318.75,-169.75 318.75,-147.75 170.75,-147.75"/>
<image xlink:href="../../images/foreignKeys.png" width="11px" height="12px" preserveAspectRatio="xMinYMin meet" x="175.75" y="-164.75"/>
<text text-anchor="start" x="190.75" y="-154.3" font-family="Helvetica,sans-Serif" font-size="11.00">library</text>
<polygon fill="none" stroke="black" points="170.75,-128.25 170.75,-147.75 318.75,-147.75 318.75,-128.25 170.75,-128.25"/>
<text text-anchor="start" x="173.75" y="-134.3" font-family="Helvetica,sans-Serif" font-size="11.00">...</text>
<polygon fill="#ffffff" stroke="none" points="170.75,-108.75 170.75,-128.25 224.08,-128.25 224.08,-108.75 170.75,-108.75"/>
<polygon fill="none" stroke="black" points="170.75,-108.75 170.75,-128.25 224.08,-128.25 224.08,-108.75 170.75,-108.75"/>
<text text-anchor="start" x="173.75" y="-114.8" font-family="Helvetica,sans-Serif" font-size="11.00">&lt; 1</text>
<polygon fill="#ffffff" stroke="none" points="224.08,-108.75 224.08,-128.25 265.42,-128.25 265.42,-108.75 224.08,-108.75"/>
<polygon fill="none" stroke="black" points="224.08,-108.75 224.08,-128.25 265.42,-128.25 265.42,-108.75 224.08,-108.75"/>
<text text-anchor="start" x="254.92" y="-114.8" font-family="Helvetica,sans-Serif" font-size="11.00"> &#160;</text>
<polygon fill="#ffffff" stroke="none" points="265.42,-108.75 265.42,-128.25 318.75,-128.25 318.75,-108.75 265.42,-108.75"/>
<polygon fill="none" stroke="black" points="265.42,-108.75 265.42,-128.25 318.75,-128.25 318.75,-108.75 265.42,-108.75"/>
<text text-anchor="start" x="296.25" y="-114.8" font-family="Helvetica,sans-Serif" font-size="11.00">1 &gt;</text>
</a>
</g>
</g>
<!-- lib_library -->
<g id="node2" class="node">
<title>lib_library</title>
<g id="a_node2"><a xlink:href="../../tables/lib_library.html" xlink:title="lib_library" target="_top">
<polygon fill="#ffffff" stroke="none" points="8,-129.75 8,-192.25 121.75,-192.25 121.75,-129.75 8,-129.75"/>
<polygon fill="#f5f5f5" stroke="none" points="8,-168.75 8,-192.25 121.75,-192.25 121.75,-168.75 8,-168.75"/>
<polygon fill="none" stroke="black" points="8,-168.75 8,-192.25 121.75,-192.25 121.75,-168.75 8,-168.75"/>
<text text-anchor="start" x="13" y="-177.8" font-family="Helvetica,sans-Serif" font-weight="bold" font-size="11.00">lib_library</text>
<text text-anchor="start" x="80" y="-176.8" font-family="Helvetica,sans-Serif" font-size="11.00">[table]</text>
<polygon fill="none" stroke="black" points="8,-149.25 8,-168.75 121.75,-168.75 121.75,-149.25 8,-149.25"/>
<text text-anchor="start" x="11" y="-155.3" font-family="Helvetica,sans-Serif" font-size="11.00">...</text>
<polygon fill="#ffffff" stroke="none" points="8,-129.75 8,-149.25 47.67,-149.25 47.67,-129.75 8,-129.75"/>
<polygon fill="none" stroke="black" points="8,-129.75 8,-149.25 47.67,-149.25 47.67,-129.75 8,-129.75"/>
<text text-anchor="start" x="11" y="-135.8" font-family="Helvetica,sans-Serif" font-size="11.00">&lt; 6</text>
<polygon fill="#ffffff" stroke="none" points="47.67,-129.75 47.67,-149.25 75.33,-149.25 75.33,-129.75 47.67,-129.75"/>
<polygon fill="none" stroke="black" points="47.67,-129.75 47.67,-149.25 75.33,-149.25 75.33,-129.75 47.67,-129.75"/>
<text text-anchor="start" x="64.83" y="-135.8" font-family="Helvetica,sans-Serif" font-size="11.00"> &#160;</text>
<polygon fill="#ffffff" stroke="none" points="75.33,-129.75 75.33,-149.25 121.75,-149.25 121.75,-129.75 75.33,-129.75"/>
<polygon fill="none" stroke="black" points="75.33,-129.75 75.33,-149.25 121.75,-149.25 121.75,-129.75 75.33,-129.75"/>
<text text-anchor="start" x="92.5" y="-135.8" font-family="Helvetica,sans-Serif" font-size="11.00">27 &gt;</text>
</a>
</g>
</g>
<!-- lib_parameter&#45;&gt;lib_library -->
<g id="edge1" class="edge">
<title>lib_parameter:w&#45;&gt;lib_library:e</title>
<path fill="none" stroke="black" d="M154.13,-158.81C144.22,-158.88 137.27,-159 122.75,-159"/>
<polygon fill="black" stroke="black" points="161.42,-158.78 169.43,-162.35 165.75,-158.76 169.08,-158.75 169.08,-158.75 169.08,-158.75 165.75,-158.76 169.4,-155.15 161.42,-158.78"/>
<ellipse fill="none" stroke="black" cx="156.5" cy="-158.8" rx="3.2" ry="3.2"/>
</g>
<!-- lib_parameter_value_cines -->
<g id="node3" class="node">
<title>lib_parameter_value_cines</title>
<g id="a_node3"><a xlink:href="../../tables/lib_parameter_value_cines.html" xlink:title="lib_parameter_value_cines" target="_top">
<polygon fill="#ffffff" stroke="none" points="367.75,-38.5 367.75,-283.5 706,-283.5 706,-38.5 367.75,-38.5"/>
<polygon fill="#f5f5f5" stroke="none" points="369.75,-258 369.75,-281.5 704,-281.5 704,-258 369.75,-258"/>
<polygon fill="none" stroke="black" points="369.75,-258 369.75,-281.5 704,-281.5 704,-258 369.75,-258"/>
<text text-anchor="start" x="374.75" y="-267.05" font-family="Helvetica,sans-Serif" font-weight="bold" font-size="11.00">lib_parameter_value_cines</text>
<text text-anchor="start" x="662.25" y="-266.05" font-family="Helvetica,sans-Serif" font-size="11.00">[table]</text>
<polygon fill="none" stroke="black" points="369.75,-236 369.75,-258 567.75,-258 567.75,-236 369.75,-236"/>
<image xlink:href="../../images/primaryKeys.png" width="11px" height="12px" preserveAspectRatio="xMinYMin meet" x="374.75" y="-253"/>
<text text-anchor="start" x="389.75" y="-242.55" font-family="Helvetica,sans-Serif" font-size="11.00">identifier</text>
<polygon fill="none" stroke="black" points="567.75,-236 567.75,-258 679.75,-258 679.75,-236 567.75,-236"/>
<text text-anchor="start" x="570.75" y="-243.3" font-family="Helvetica,sans-Serif" font-size="11.00">varchar[191]</text>
<polygon fill="none" stroke="black" points="369.75,-214 369.75,-236 567.75,-236 567.75,-214 369.75,-214"/>
<text text-anchor="start" x="389.75" y="-220.55" font-family="Helvetica,sans-Serif" font-size="11.00">value</text>
<polygon fill="none" stroke="black" points="567.75,-214 567.75,-236 679.75,-236 679.75,-214 567.75,-214"/>
<text text-anchor="start" x="570.75" y="-221.3" font-family="Helvetica,sans-Serif" font-size="11.00">text[65535]</text>
<polygon fill="none" stroke="black" points="369.75,-192 369.75,-214 567.75,-214 567.75,-192 369.75,-192"/>
<text text-anchor="start" x="389.75" y="-198.55" font-family="Helvetica,sans-Serif" font-size="11.00">type</text>
<polygon fill="none" stroke="black" points="567.75,-192 567.75,-214 679.75,-214 679.75,-192 567.75,-192"/>
<text text-anchor="start" x="570.75" y="-199.3" font-family="Helvetica,sans-Serif" font-size="11.00">varchar[255]</text>
<polygon fill="#ffffff" stroke="none" points="369.75,-170 369.75,-192 567.75,-192 567.75,-170 369.75,-170"/>
<polygon fill="none" stroke="black" points="369.75,-170 369.75,-192 567.75,-192 567.75,-170 369.75,-170"/>
<image xlink:href="../../images/foreignKeys.png" width="11px" height="12px" preserveAspectRatio="xMinYMin meet" x="374.75" y="-187"/>
<text text-anchor="start" x="389.75" y="-176.55" font-family="Helvetica,sans-Serif" font-size="11.00">parameter</text>
<polygon fill="none" stroke="black" points="567.75,-170 567.75,-192 679.75,-192 679.75,-170 567.75,-170"/>
<text text-anchor="start" x="570.75" y="-177.3" font-family="Helvetica,sans-Serif" font-size="11.00">varchar[191]</text>
<polygon fill="none" stroke="black" points="369.75,-148 369.75,-170 567.75,-170 567.75,-148 369.75,-148"/>
<text text-anchor="start" x="389.75" y="-154.55" font-family="Helvetica,sans-Serif" font-size="11.00">version</text>
<polygon fill="none" stroke="black" points="567.75,-148 567.75,-170 679.75,-170 679.75,-148 567.75,-148"/>
<text text-anchor="start" x="570.75" y="-155.3" font-family="Helvetica,sans-Serif" font-size="11.00">bigint[19]</text>
<polygon fill="none" stroke="black" points="369.75,-126 369.75,-148 567.75,-148 567.75,-126 369.75,-126"/>
<text text-anchor="start" x="389.75" y="-132.55" font-family="Helvetica,sans-Serif" font-size="11.00">created_by</text>
<polygon fill="none" stroke="black" points="567.75,-126 567.75,-148 679.75,-148 679.75,-126 567.75,-126"/>
<text text-anchor="start" x="570.75" y="-133.3" font-family="Helvetica,sans-Serif" font-size="11.00">varchar[191]</text>
<polygon fill="none" stroke="black" points="369.75,-104 369.75,-126 567.75,-126 567.75,-104 369.75,-104"/>
<text text-anchor="start" x="389.75" y="-110.55" font-family="Helvetica,sans-Serif" font-size="11.00">last_modified_by</text>
<polygon fill="none" stroke="black" points="567.75,-104 567.75,-126 679.75,-126 679.75,-104 567.75,-104"/>
<text text-anchor="start" x="570.75" y="-111.3" font-family="Helvetica,sans-Serif" font-size="11.00">varchar[191]</text>
<polygon fill="none" stroke="black" points="369.75,-82 369.75,-104 567.75,-104 567.75,-82 369.75,-82"/>
<text text-anchor="start" x="389.75" y="-88.55" font-family="Helvetica,sans-Serif" font-size="11.00">created_date</text>
<polygon fill="none" stroke="black" points="567.75,-82 567.75,-104 679.75,-104 679.75,-82 567.75,-82"/>
<text text-anchor="start" x="570.75" y="-89.3" font-family="Helvetica,sans-Serif" font-size="11.00">timestamp[19]</text>
<polygon fill="none" stroke="black" points="369.75,-60 369.75,-82 567.75,-82 567.75,-60 369.75,-60"/>
<text text-anchor="start" x="389.75" y="-66.55" font-family="Helvetica,sans-Serif" font-size="11.00">last_modified_date</text>
<polygon fill="none" stroke="black" points="567.75,-60 567.75,-82 679.75,-82 679.75,-60 567.75,-60"/>
<text text-anchor="start" x="570.75" y="-67.3" font-family="Helvetica,sans-Serif" font-size="11.00">timestamp[19]</text>
<polygon fill="#ffffff" stroke="none" points="369.75,-40.5 369.75,-60 474.75,-60 474.75,-40.5 369.75,-40.5"/>
<polygon fill="none" stroke="black" points="369.75,-40.5 369.75,-60 474.75,-60 474.75,-40.5 369.75,-40.5"/>
<text text-anchor="start" x="372.75" y="-46.55" font-family="Helvetica,sans-Serif" font-size="11.00">&lt; 1</text>
<polygon fill="#ffffff" stroke="none" points="474.75,-40.5 474.75,-60 567.75,-60 567.75,-40.5 474.75,-40.5"/>
<polygon fill="none" stroke="black" points="474.75,-40.5 474.75,-60 567.75,-60 567.75,-40.5 474.75,-40.5"/>
<text text-anchor="start" x="557.25" y="-46.55" font-family="Helvetica,sans-Serif" font-size="11.00"> &#160;</text>
<polygon fill="#ffffff" stroke="none" points="567.75,-40.5 567.75,-60 679.75,-60 679.75,-40.5 567.75,-40.5"/>
<polygon fill="none" stroke="black" points="567.75,-40.5 567.75,-60 679.75,-60 679.75,-40.5 567.75,-40.5"/>
<text text-anchor="start" x="657.25" y="-46.55" font-family="Helvetica,sans-Serif" font-size="11.00">0 &gt;</text>
<polygon fill="none" stroke="black" stroke-width="2" points="368.75,-39.5 368.75,-282.5 705,-282.5 705,-39.5 368.75,-39.5"/>
</a>
</g>
</g>
<!-- lib_parameter_value_cines&#45;&gt;lib_parameter -->
<g id="edge2" class="edge">
<title>lib_parameter_value_cines:w&#45;&gt;lib_parameter:e</title>
<path fill="none" stroke="black" d="M353.17,-180.95C342.46,-180.88 335.23,-180.75 319.75,-180.75"/>
<polygon fill="black" stroke="black" points="360.42,-180.97 368.4,-184.6 364.75,-180.99 368.08,-181 368.08,-181 368.08,-181 364.75,-180.99 368.43,-177.4 360.42,-180.97"/>
<ellipse fill="none" stroke="black" cx="355.5" cy="-180.96" rx="3.2" ry="3.2"/>
</g>
</g>
</svg>
