<?xml version="1.0" encoding="UTF-8" standalone="no"?>
<!DOCTYPE svg PUBLIC "-//W3C//DTD SVG 1.1//EN"
 "http://www.w3.org/Graphics/SVG/1.1/DTD/svg11.dtd">
<!-- Generated by graphviz version 12.2.0 (0)
 -->
<!-- Title: oneDegreeRelationshipsDiagram Pages: 1 -->
<svg width="559pt" height="296pt"
 viewBox="0.00 0.00 559.25 295.50" xmlns="http://www.w3.org/2000/svg" xmlns:xlink="http://www.w3.org/1999/xlink">
<g id="graph0" class="graph" transform="scale(1 1) rotate(0) translate(4 291.5)">
<title>oneDegreeRelationshipsDiagram</title>
<polygon fill="#ffffff" stroke="none" points="-4,4 -4,-291.5 555.25,-291.5 555.25,4 -4,4"/>
<text text-anchor="middle" x="79.25" y="-7.05" font-family="Helvetica,sans-Serif" font-size="11.00">Generated by SchemaSpy</text>
<!-- lib_parameter_value_cines -->
<g id="node1" class="node">
<title>lib_parameter_value_cines</title>
<g id="a_node1"><a xlink:href="../../tables/lib_parameter_value_cines.html" xlink:title="lib_parameter_value_cines" target="_top">
<polygon fill="#ffffff" stroke="none" points="205,-38.5 205,-283.5 543.25,-283.5 543.25,-38.5 205,-38.5"/>
<polygon fill="#f5f5f5" stroke="none" points="207,-258 207,-281.5 541.25,-281.5 541.25,-258 207,-258"/>
<polygon fill="none" stroke="black" points="207,-258 207,-281.5 541.25,-281.5 541.25,-258 207,-258"/>
<text text-anchor="start" x="212" y="-267.05" font-family="Helvetica,sans-Serif" font-weight="bold" font-size="11.00">lib_parameter_value_cines</text>
<text text-anchor="start" x="499.5" y="-266.05" font-family="Helvetica,sans-Serif" font-size="11.00">[table]</text>
<polygon fill="none" stroke="black" points="207,-236 207,-258 405,-258 405,-236 207,-236"/>
<image xlink:href="../../images/primaryKeys.png" width="11px" height="12px" preserveAspectRatio="xMinYMin meet" x="212" y="-253"/>
<text text-anchor="start" x="227" y="-242.55" font-family="Helvetica,sans-Serif" font-size="11.00">identifier</text>
<polygon fill="none" stroke="black" points="405,-236 405,-258 517,-258 517,-236 405,-236"/>
<text text-anchor="start" x="408" y="-243.3" font-family="Helvetica,sans-Serif" font-size="11.00">varchar[191]</text>
<polygon fill="none" stroke="black" points="207,-214 207,-236 405,-236 405,-214 207,-214"/>
<text text-anchor="start" x="227" y="-220.55" font-family="Helvetica,sans-Serif" font-size="11.00">value</text>
<polygon fill="none" stroke="black" points="405,-214 405,-236 517,-236 517,-214 405,-214"/>
<text text-anchor="start" x="408" y="-221.3" font-family="Helvetica,sans-Serif" font-size="11.00">text[65535]</text>
<polygon fill="none" stroke="black" points="207,-192 207,-214 405,-214 405,-192 207,-192"/>
<text text-anchor="start" x="227" y="-198.55" font-family="Helvetica,sans-Serif" font-size="11.00">type</text>
<polygon fill="none" stroke="black" points="405,-192 405,-214 517,-214 517,-192 405,-192"/>
<text text-anchor="start" x="408" y="-199.3" font-family="Helvetica,sans-Serif" font-size="11.00">varchar[255]</text>
<polygon fill="#ffffff" stroke="none" points="207,-170 207,-192 405,-192 405,-170 207,-170"/>
<polygon fill="none" stroke="black" points="207,-170 207,-192 405,-192 405,-170 207,-170"/>
<image xlink:href="../../images/foreignKeys.png" width="11px" height="12px" preserveAspectRatio="xMinYMin meet" x="212" y="-187"/>
<text text-anchor="start" x="227" y="-176.55" font-family="Helvetica,sans-Serif" font-size="11.00">parameter</text>
<polygon fill="none" stroke="black" points="405,-170 405,-192 517,-192 517,-170 405,-170"/>
<text text-anchor="start" x="408" y="-177.3" font-family="Helvetica,sans-Serif" font-size="11.00">varchar[191]</text>
<polygon fill="none" stroke="black" points="207,-148 207,-170 405,-170 405,-148 207,-148"/>
<text text-anchor="start" x="227" y="-154.55" font-family="Helvetica,sans-Serif" font-size="11.00">version</text>
<polygon fill="none" stroke="black" points="405,-148 405,-170 517,-170 517,-148 405,-148"/>
<text text-anchor="start" x="408" y="-155.3" font-family="Helvetica,sans-Serif" font-size="11.00">bigint[19]</text>
<polygon fill="none" stroke="black" points="207,-126 207,-148 405,-148 405,-126 207,-126"/>
<text text-anchor="start" x="227" y="-132.55" font-family="Helvetica,sans-Serif" font-size="11.00">created_by</text>
<polygon fill="none" stroke="black" points="405,-126 405,-148 517,-148 517,-126 405,-126"/>
<text text-anchor="start" x="408" y="-133.3" font-family="Helvetica,sans-Serif" font-size="11.00">varchar[191]</text>
<polygon fill="none" stroke="black" points="207,-104 207,-126 405,-126 405,-104 207,-104"/>
<text text-anchor="start" x="227" y="-110.55" font-family="Helvetica,sans-Serif" font-size="11.00">last_modified_by</text>
<polygon fill="none" stroke="black" points="405,-104 405,-126 517,-126 517,-104 405,-104"/>
<text text-anchor="start" x="408" y="-111.3" font-family="Helvetica,sans-Serif" font-size="11.00">varchar[191]</text>
<polygon fill="none" stroke="black" points="207,-82 207,-104 405,-104 405,-82 207,-82"/>
<text text-anchor="start" x="227" y="-88.55" font-family="Helvetica,sans-Serif" font-size="11.00">created_date</text>
<polygon fill="none" stroke="black" points="405,-82 405,-104 517,-104 517,-82 405,-82"/>
<text text-anchor="start" x="408" y="-89.3" font-family="Helvetica,sans-Serif" font-size="11.00">timestamp[19]</text>
<polygon fill="none" stroke="black" points="207,-60 207,-82 405,-82 405,-60 207,-60"/>
<text text-anchor="start" x="227" y="-66.55" font-family="Helvetica,sans-Serif" font-size="11.00">last_modified_date</text>
<polygon fill="none" stroke="black" points="405,-60 405,-82 517,-82 517,-60 405,-60"/>
<text text-anchor="start" x="408" y="-67.3" font-family="Helvetica,sans-Serif" font-size="11.00">timestamp[19]</text>
<polygon fill="#ffffff" stroke="none" points="207,-40.5 207,-60 312,-60 312,-40.5 207,-40.5"/>
<polygon fill="none" stroke="black" points="207,-40.5 207,-60 312,-60 312,-40.5 207,-40.5"/>
<text text-anchor="start" x="210" y="-46.55" font-family="Helvetica,sans-Serif" font-size="11.00">&lt; 1</text>
<polygon fill="#ffffff" stroke="none" points="312,-40.5 312,-60 405,-60 405,-40.5 312,-40.5"/>
<polygon fill="none" stroke="black" points="312,-40.5 312,-60 405,-60 405,-40.5 312,-40.5"/>
<text text-anchor="start" x="394.5" y="-46.55" font-family="Helvetica,sans-Serif" font-size="11.00"> &#160;</text>
<polygon fill="#ffffff" stroke="none" points="405,-40.5 405,-60 517,-60 517,-40.5 405,-40.5"/>
<polygon fill="none" stroke="black" points="405,-40.5 405,-60 517,-60 517,-40.5 405,-40.5"/>
<text text-anchor="start" x="494.5" y="-46.55" font-family="Helvetica,sans-Serif" font-size="11.00">0 &gt;</text>
<polygon fill="none" stroke="black" stroke-width="2" points="206,-39.5 206,-282.5 542.25,-282.5 542.25,-39.5 206,-39.5"/>
</a>
</g>
</g>
<!-- lib_parameter -->
<g id="node2" class="node">
<title>lib_parameter</title>
<g id="a_node2"><a xlink:href="../../tables/lib_parameter.html" xlink:title="lib_parameter" target="_top">
<polygon fill="#ffffff" stroke="none" points="8,-108.75 8,-215.25 156,-215.25 156,-108.75 8,-108.75"/>
<polygon fill="#f5f5f5" stroke="none" points="8,-191.75 8,-215.25 156,-215.25 156,-191.75 8,-191.75"/>
<polygon fill="none" stroke="black" points="8,-191.75 8,-215.25 156,-215.25 156,-191.75 8,-191.75"/>
<text text-anchor="start" x="13" y="-200.8" font-family="Helvetica,sans-Serif" font-weight="bold" font-size="11.00">lib_parameter</text>
<text text-anchor="start" x="114.25" y="-199.8" font-family="Helvetica,sans-Serif" font-size="11.00">[table]</text>
<polygon fill="none" stroke="black" points="8,-169.75 8,-191.75 156,-191.75 156,-169.75 8,-169.75"/>
<image xlink:href="../../images/primaryKeys.png" width="11px" height="12px" preserveAspectRatio="xMinYMin meet" x="13" y="-186.75"/>
<text text-anchor="start" x="28" y="-176.3" font-family="Helvetica,sans-Serif" font-size="11.00">identifier</text>
<polygon fill="#ffffff" stroke="none" points="8,-147.75 8,-169.75 156,-169.75 156,-147.75 8,-147.75"/>
<polygon fill="none" stroke="black" points="8,-147.75 8,-169.75 156,-169.75 156,-147.75 8,-147.75"/>
<image xlink:href="../../images/foreignKeys.png" width="11px" height="12px" preserveAspectRatio="xMinYMin meet" x="13" y="-164.75"/>
<text text-anchor="start" x="28" y="-154.3" font-family="Helvetica,sans-Serif" font-size="11.00">library</text>
<polygon fill="none" stroke="black" points="8,-128.25 8,-147.75 156,-147.75 156,-128.25 8,-128.25"/>
<text text-anchor="start" x="11" y="-134.3" font-family="Helvetica,sans-Serif" font-size="11.00">...</text>
<polygon fill="#ffffff" stroke="none" points="8,-108.75 8,-128.25 61.33,-128.25 61.33,-108.75 8,-108.75"/>
<polygon fill="none" stroke="black" points="8,-108.75 8,-128.25 61.33,-128.25 61.33,-108.75 8,-108.75"/>
<text text-anchor="start" x="11" y="-114.8" font-family="Helvetica,sans-Serif" font-size="11.00">&lt; 1</text>
<polygon fill="#ffffff" stroke="none" points="61.33,-108.75 61.33,-128.25 102.67,-128.25 102.67,-108.75 61.33,-108.75"/>
<polygon fill="none" stroke="black" points="61.33,-108.75 61.33,-128.25 102.67,-128.25 102.67,-108.75 61.33,-108.75"/>
<text text-anchor="start" x="92.17" y="-114.8" font-family="Helvetica,sans-Serif" font-size="11.00"> &#160;</text>
<polygon fill="#ffffff" stroke="none" points="102.67,-108.75 102.67,-128.25 156,-128.25 156,-108.75 102.67,-108.75"/>
<polygon fill="none" stroke="black" points="102.67,-108.75 102.67,-128.25 156,-128.25 156,-108.75 102.67,-108.75"/>
<text text-anchor="start" x="133.5" y="-114.8" font-family="Helvetica,sans-Serif" font-size="11.00">1 &gt;</text>
</a>
</g>
</g>
<!-- lib_parameter_value_cines&#45;&gt;lib_parameter -->
<g id="edge1" class="edge">
<title>lib_parameter_value_cines:w&#45;&gt;lib_parameter:e</title>
<path fill="none" stroke="black" d="M190.42,-180.95C179.71,-180.88 172.48,-180.75 157,-180.75"/>
<polygon fill="black" stroke="black" points="197.67,-180.97 205.65,-184.6 202,-180.99 205.33,-181 205.33,-181 205.33,-181 202,-180.99 205.68,-177.4 197.67,-180.97"/>
<ellipse fill="none" stroke="black" cx="192.75" cy="-180.96" rx="3.2" ry="3.2"/>
</g>
</g>
</svg>
