<?xml version="1.0" encoding="UTF-8" standalone="no"?>
<!DOCTYPE svg PUBLIC "-//W3C//DTD SVG 1.1//EN"
 "http://www.w3.org/Graphics/SVG/1.1/DTD/svg11.dtd">
<!-- Generated by graphviz version 12.2.0 (0)
 -->
<!-- Title: oneDegreeRelationshipsDiagram Pages: 1 -->
<svg width="803pt" height="772pt"
 viewBox="0.00 0.00 802.50 772.25" xmlns="http://www.w3.org/2000/svg" xmlns:xlink="http://www.w3.org/1999/xlink">
<g id="graph0" class="graph" transform="scale(1 1) rotate(0) translate(4 768.25)">
<title>oneDegreeRelationshipsDiagram</title>
<polygon fill="#ffffff" stroke="none" points="-4,4 -4,-768.25 798.5,-768.25 798.5,4 -4,4"/>
<text text-anchor="middle" x="79.25" y="-7.05" font-family="Helvetica,sans-Serif" font-size="11.00">Generated by SchemaSpy</text>
<!-- plat_platform -->
<g id="node1" class="node">
<title>plat_platform</title>
<g id="a_node1"><a xlink:href="../../tables/plat_platform.html" xlink:title="plat_platform" target="_top">
<polygon fill="#ffffff" stroke="none" points="301,-383.25 301,-760.25 545.75,-760.25 545.75,-383.25 301,-383.25"/>
<polygon fill="#f5f5f5" stroke="none" points="303,-734.75 303,-758.25 543.75,-758.25 543.75,-734.75 303,-734.75"/>
<polygon fill="none" stroke="black" points="303,-734.75 303,-758.25 543.75,-758.25 543.75,-734.75 303,-734.75"/>
<text text-anchor="start" x="308" y="-743.8" font-family="Helvetica,sans-Serif" font-weight="bold" font-size="11.00">plat_platform</text>
<text text-anchor="start" x="502" y="-742.8" font-family="Helvetica,sans-Serif" font-size="11.00">[table]</text>
<polygon fill="none" stroke="black" points="303,-712.75 303,-734.75 451,-734.75 451,-712.75 303,-712.75"/>
<image xlink:href="../../images/primaryKeys.png" width="11px" height="12px" preserveAspectRatio="xMinYMin meet" x="308" y="-729.75"/>
<text text-anchor="start" x="323" y="-719.3" font-family="Helvetica,sans-Serif" font-size="11.00">identifier</text>
<polygon fill="none" stroke="black" points="451,-712.75 451,-734.75 541.25,-734.75 541.25,-712.75 451,-712.75"/>
<text text-anchor="start" x="454" y="-720.05" font-family="Helvetica,sans-Serif" font-size="11.00">varchar[191]</text>
<polygon fill="none" stroke="black" points="303,-690.75 303,-712.75 451,-712.75 451,-690.75 303,-690.75"/>
<text text-anchor="start" x="323" y="-697.3" font-family="Helvetica,sans-Serif" font-size="11.00">label</text>
<polygon fill="none" stroke="black" points="451,-690.75 451,-712.75 541.25,-712.75 541.25,-690.75 451,-690.75"/>
<text text-anchor="start" x="454" y="-698.05" font-family="Helvetica,sans-Serif" font-size="11.00">varchar[255]</text>
<polygon fill="none" stroke="black" points="303,-668.75 303,-690.75 451,-690.75 451,-668.75 303,-668.75"/>
<text text-anchor="start" x="323" y="-675.3" font-family="Helvetica,sans-Serif" font-size="11.00">url</text>
<polygon fill="none" stroke="black" points="451,-668.75 451,-690.75 541.25,-690.75 541.25,-668.75 451,-668.75"/>
<text text-anchor="start" x="454" y="-676.05" font-family="Helvetica,sans-Serif" font-size="11.00">varchar[255]</text>
<polygon fill="none" stroke="black" points="303,-646.75 303,-668.75 451,-668.75 451,-646.75 303,-646.75"/>
<text text-anchor="start" x="323" y="-653.3" font-family="Helvetica,sans-Serif" font-size="11.00">rcr</text>
<polygon fill="none" stroke="black" points="451,-646.75 451,-668.75 541.25,-668.75 541.25,-646.75 451,-646.75"/>
<text text-anchor="start" x="454" y="-654.05" font-family="Helvetica,sans-Serif" font-size="11.00">varchar[255]</text>
<polygon fill="none" stroke="black" points="303,-624.75 303,-646.75 451,-646.75 451,-624.75 303,-624.75"/>
<text text-anchor="start" x="323" y="-631.3" font-family="Helvetica,sans-Serif" font-size="11.00">login</text>
<polygon fill="none" stroke="black" points="451,-624.75 451,-646.75 541.25,-646.75 541.25,-624.75 451,-624.75"/>
<text text-anchor="start" x="454" y="-632.05" font-family="Helvetica,sans-Serif" font-size="11.00">varchar[255]</text>
<polygon fill="none" stroke="black" points="303,-602.75 303,-624.75 451,-624.75 451,-602.75 303,-602.75"/>
<text text-anchor="start" x="323" y="-609.3" font-family="Helvetica,sans-Serif" font-size="11.00">password</text>
<polygon fill="none" stroke="black" points="451,-602.75 451,-624.75 541.25,-624.75 541.25,-602.75 451,-602.75"/>
<text text-anchor="start" x="454" y="-610.05" font-family="Helvetica,sans-Serif" font-size="11.00">varchar[255]</text>
<polygon fill="none" stroke="black" points="303,-580.75 303,-602.75 451,-602.75 451,-580.75 303,-580.75"/>
<text text-anchor="start" x="323" y="-587.3" font-family="Helvetica,sans-Serif" font-size="11.00">format</text>
<polygon fill="none" stroke="black" points="451,-580.75 451,-602.75 541.25,-602.75 541.25,-580.75 451,-580.75"/>
<text text-anchor="start" x="454" y="-588.05" font-family="Helvetica,sans-Serif" font-size="11.00">varchar[255]</text>
<polygon fill="none" stroke="black" points="303,-558.75 303,-580.75 451,-580.75 451,-558.75 303,-558.75"/>
<text text-anchor="start" x="323" y="-565.3" font-family="Helvetica,sans-Serif" font-size="11.00">type</text>
<polygon fill="none" stroke="black" points="451,-558.75 451,-580.75 541.25,-580.75 541.25,-558.75 451,-558.75"/>
<text text-anchor="start" x="454" y="-566.05" font-family="Helvetica,sans-Serif" font-size="11.00">varchar[255]</text>
<polygon fill="#ffffff" stroke="none" points="303,-536.75 303,-558.75 451,-558.75 451,-536.75 303,-536.75"/>
<polygon fill="none" stroke="black" points="303,-536.75 303,-558.75 451,-558.75 451,-536.75 303,-536.75"/>
<image xlink:href="../../images/foreignKeys.png" width="11px" height="12px" preserveAspectRatio="xMinYMin meet" x="308" y="-553.75"/>
<text text-anchor="start" x="323" y="-543.3" font-family="Helvetica,sans-Serif" font-size="11.00">library</text>
<polygon fill="none" stroke="black" points="451,-536.75 451,-558.75 541.25,-558.75 541.25,-536.75 451,-536.75"/>
<text text-anchor="start" x="454" y="-544.05" font-family="Helvetica,sans-Serif" font-size="11.00">varchar[191]</text>
<polygon fill="#ffffff" stroke="none" points="303,-514.75 303,-536.75 451,-536.75 451,-514.75 303,-514.75"/>
<polygon fill="none" stroke="black" points="303,-514.75 303,-536.75 451,-536.75 451,-514.75 303,-514.75"/>
<image xlink:href="../../images/foreignKeys.png" width="11px" height="12px" preserveAspectRatio="xMinYMin meet" x="308" y="-531.75"/>
<text text-anchor="start" x="323" y="-521.3" font-family="Helvetica,sans-Serif" font-size="11.00">lot</text>
<polygon fill="none" stroke="black" points="451,-514.75 451,-536.75 541.25,-536.75 541.25,-514.75 451,-514.75"/>
<text text-anchor="start" x="454" y="-522.05" font-family="Helvetica,sans-Serif" font-size="11.00">varchar[191]</text>
<polygon fill="none" stroke="black" points="303,-492.75 303,-514.75 451,-514.75 451,-492.75 303,-492.75"/>
<text text-anchor="start" x="323" y="-499.3" font-family="Helvetica,sans-Serif" font-size="11.00">version</text>
<polygon fill="none" stroke="black" points="451,-492.75 451,-514.75 541.25,-514.75 541.25,-492.75 451,-492.75"/>
<text text-anchor="start" x="454" y="-500.05" font-family="Helvetica,sans-Serif" font-size="11.00">bigint[19]</text>
<polygon fill="none" stroke="black" points="303,-470.75 303,-492.75 451,-492.75 451,-470.75 303,-470.75"/>
<text text-anchor="start" x="323" y="-477.3" font-family="Helvetica,sans-Serif" font-size="11.00">created_by</text>
<polygon fill="none" stroke="black" points="451,-470.75 451,-492.75 541.25,-492.75 541.25,-470.75 451,-470.75"/>
<text text-anchor="start" x="454" y="-478.05" font-family="Helvetica,sans-Serif" font-size="11.00">varchar[191]</text>
<polygon fill="none" stroke="black" points="303,-448.75 303,-470.75 451,-470.75 451,-448.75 303,-448.75"/>
<text text-anchor="start" x="323" y="-455.3" font-family="Helvetica,sans-Serif" font-size="11.00">last_modified_by</text>
<polygon fill="none" stroke="black" points="451,-448.75 451,-470.75 541.25,-470.75 541.25,-448.75 451,-448.75"/>
<text text-anchor="start" x="454" y="-456.05" font-family="Helvetica,sans-Serif" font-size="11.00">varchar[191]</text>
<polygon fill="none" stroke="black" points="303,-426.75 303,-448.75 451,-448.75 451,-426.75 303,-426.75"/>
<text text-anchor="start" x="323" y="-433.3" font-family="Helvetica,sans-Serif" font-size="11.00">created_date</text>
<polygon fill="none" stroke="black" points="451,-426.75 451,-448.75 541.25,-448.75 541.25,-426.75 451,-426.75"/>
<text text-anchor="start" x="454" y="-434.05" font-family="Helvetica,sans-Serif" font-size="11.00">timestamp[19]</text>
<polygon fill="none" stroke="black" points="303,-404.75 303,-426.75 451,-426.75 451,-404.75 303,-404.75"/>
<text text-anchor="start" x="323" y="-411.3" font-family="Helvetica,sans-Serif" font-size="11.00">last_modified_date</text>
<polygon fill="none" stroke="black" points="451,-404.75 451,-426.75 541.25,-426.75 541.25,-404.75 451,-404.75"/>
<text text-anchor="start" x="454" y="-412.05" font-family="Helvetica,sans-Serif" font-size="11.00">timestamp[19]</text>
<polygon fill="#ffffff" stroke="none" points="303,-385.25 303,-404.75 383,-404.75 383,-385.25 303,-385.25"/>
<polygon fill="none" stroke="black" points="303,-385.25 303,-404.75 383,-404.75 383,-385.25 303,-385.25"/>
<text text-anchor="start" x="306" y="-391.3" font-family="Helvetica,sans-Serif" font-size="11.00">&lt; 2</text>
<polygon fill="#ffffff" stroke="none" points="383,-385.25 383,-404.75 451,-404.75 451,-385.25 383,-385.25"/>
<polygon fill="none" stroke="black" points="383,-385.25 383,-404.75 451,-404.75 451,-385.25 383,-385.25"/>
<text text-anchor="start" x="440.5" y="-391.3" font-family="Helvetica,sans-Serif" font-size="11.00"> &#160;</text>
<polygon fill="#ffffff" stroke="none" points="451,-385.25 451,-404.75 541.25,-404.75 541.25,-385.25 451,-385.25"/>
<polygon fill="none" stroke="black" points="451,-385.25 451,-404.75 541.25,-404.75 541.25,-385.25 451,-385.25"/>
<text text-anchor="start" x="518.75" y="-391.3" font-family="Helvetica,sans-Serif" font-size="11.00">1 &gt;</text>
<polygon fill="none" stroke="black" stroke-width="2" points="302,-384.25 302,-759.25 544.75,-759.25 544.75,-384.25 302,-384.25"/>
</a>
</g>
</g>
<!-- lib_library -->
<g id="node2" class="node">
<title>lib_library</title>
<g id="a_node2"><a xlink:href="../../tables/lib_library.html" xlink:title="lib_library" target="_top">
<polygon fill="#ffffff" stroke="none" points="13,-474.5 13,-691 247,-691 247,-474.5 13,-474.5"/>
<polygon fill="#f5f5f5" stroke="none" points="13,-667.5 13,-691 247,-691 247,-667.5 13,-667.5"/>
<polygon fill="none" stroke="black" points="13,-667.5 13,-691 247,-691 247,-667.5 13,-667.5"/>
<text text-anchor="start" x="18" y="-676.55" font-family="Helvetica,sans-Serif" font-weight="bold" font-size="11.00">lib_library</text>
<text text-anchor="start" x="205.25" y="-675.55" font-family="Helvetica,sans-Serif" font-size="11.00">[table]</text>
<polygon fill="none" stroke="black" points="13,-645.5 13,-667.5 247,-667.5 247,-645.5 13,-645.5"/>
<image xlink:href="../../images/primaryKeys.png" width="11px" height="12px" preserveAspectRatio="xMinYMin meet" x="18" y="-662.5"/>
<text text-anchor="start" x="33" y="-652.05" font-family="Helvetica,sans-Serif" font-size="11.00">identifier</text>
<polygon fill="#ffffff" stroke="none" points="13,-623.5 13,-645.5 247,-645.5 247,-623.5 13,-623.5"/>
<polygon fill="none" stroke="black" points="13,-623.5 13,-645.5 247,-645.5 247,-623.5 13,-623.5"/>
<image xlink:href="../../images/foreignKeys.png" width="11px" height="12px" preserveAspectRatio="xMinYMin meet" x="18" y="-640.5"/>
<text text-anchor="start" x="33" y="-630.05" font-family="Helvetica,sans-Serif" font-size="11.00">address</text>
<polygon fill="#ffffff" stroke="none" points="13,-601.5 13,-623.5 247,-623.5 247,-601.5 13,-601.5"/>
<polygon fill="none" stroke="black" points="13,-601.5 13,-623.5 247,-623.5 247,-601.5 13,-601.5"/>
<image xlink:href="../../images/foreignKeys.png" width="11px" height="12px" preserveAspectRatio="xMinYMin meet" x="18" y="-618.5"/>
<text text-anchor="start" x="33" y="-608.05" font-family="Helvetica,sans-Serif" font-size="11.00">active_configuration_ftp</text>
<polygon fill="#ffffff" stroke="none" points="13,-579.5 13,-601.5 247,-601.5 247,-579.5 13,-579.5"/>
<polygon fill="none" stroke="black" points="13,-579.5 13,-601.5 247,-601.5 247,-579.5 13,-579.5"/>
<image xlink:href="../../images/foreignKeys.png" width="11px" height="12px" preserveAspectRatio="xMinYMin meet" x="18" y="-596.5"/>
<text text-anchor="start" x="33" y="-586.05" font-family="Helvetica,sans-Serif" font-size="11.00">active_configuration_check</text>
<polygon fill="#ffffff" stroke="none" points="13,-557.5 13,-579.5 247,-579.5 247,-557.5 13,-557.5"/>
<polygon fill="none" stroke="black" points="13,-557.5 13,-579.5 247,-579.5 247,-557.5 13,-557.5"/>
<image xlink:href="../../images/foreignKeys.png" width="11px" height="12px" preserveAspectRatio="xMinYMin meet" x="18" y="-574.5"/>
<text text-anchor="start" x="33" y="-564.05" font-family="Helvetica,sans-Serif" font-size="11.00">role</text>
<polygon fill="#ffffff" stroke="none" points="13,-535.5 13,-557.5 247,-557.5 247,-535.5 13,-535.5"/>
<polygon fill="none" stroke="black" points="13,-535.5 13,-557.5 247,-557.5 247,-535.5 13,-535.5"/>
<image xlink:href="../../images/foreignKeys.png" width="11px" height="12px" preserveAspectRatio="xMinYMin meet" x="18" y="-552.5"/>
<text text-anchor="start" x="33" y="-542.05" font-family="Helvetica,sans-Serif" font-size="11.00">active_configuration_export_ftp</text>
<polygon fill="#ffffff" stroke="none" points="13,-513.5 13,-535.5 247,-535.5 247,-513.5 13,-513.5"/>
<polygon fill="none" stroke="black" points="13,-513.5 13,-535.5 247,-535.5 247,-513.5 13,-513.5"/>
<image xlink:href="../../images/foreignKeys.png" width="11px" height="12px" preserveAspectRatio="xMinYMin meet" x="18" y="-530.5"/>
<text text-anchor="start" x="33" y="-520.05" font-family="Helvetica,sans-Serif" font-size="11.00">active_configuration_ocr_lang</text>
<polygon fill="none" stroke="black" points="13,-494 13,-513.5 247,-513.5 247,-494 13,-494"/>
<text text-anchor="start" x="16" y="-500.05" font-family="Helvetica,sans-Serif" font-size="11.00">...</text>
<polygon fill="#ffffff" stroke="none" points="13,-474.5 13,-494 92.75,-494 92.75,-474.5 13,-474.5"/>
<polygon fill="none" stroke="black" points="13,-474.5 13,-494 92.75,-494 92.75,-474.5 13,-474.5"/>
<text text-anchor="start" x="16" y="-480.55" font-family="Helvetica,sans-Serif" font-size="11.00">&lt; 6</text>
<polygon fill="#ffffff" stroke="none" points="92.75,-474.5 92.75,-494 160.5,-494 160.5,-474.5 92.75,-474.5"/>
<polygon fill="none" stroke="black" points="92.75,-474.5 92.75,-494 160.5,-494 160.5,-474.5 92.75,-474.5"/>
<text text-anchor="start" x="150" y="-480.55" font-family="Helvetica,sans-Serif" font-size="11.00"> &#160;</text>
<polygon fill="#ffffff" stroke="none" points="160.5,-474.5 160.5,-494 247,-494 247,-474.5 160.5,-474.5"/>
<polygon fill="none" stroke="black" points="160.5,-474.5 160.5,-494 247,-494 247,-474.5 160.5,-474.5"/>
<text text-anchor="start" x="217.75" y="-480.55" font-family="Helvetica,sans-Serif" font-size="11.00">27 &gt;</text>
</a>
</g>
</g>
<!-- plat_platform&#45;&gt;lib_library -->
<g id="edge1" class="edge">
<title>plat_platform:w&#45;&gt;lib_library:e</title>
<path fill="none" stroke="black" d="M287.13,-551.88C259.19,-571.74 295.64,-656.5 248,-656.5"/>
<polygon fill="black" stroke="black" points="293.97,-549.98 302.64,-551.31 298.15,-548.82 301.36,-547.93 301.36,-547.93 301.36,-547.93 298.15,-548.82 300.71,-544.37 293.97,-549.98"/>
<ellipse fill="none" stroke="black" cx="289.23" cy="-551.3" rx="3.2" ry="3.2"/>
</g>
<!-- lot_lot -->
<g id="node3" class="node">
<title>lot_lot</title>
<g id="a_node3"><a xlink:href="../../tables/lot_lot.html" xlink:title="lot_lot" target="_top">
<polygon fill="#ffffff" stroke="none" points="8,-38.5 8,-453 252,-453 252,-38.5 8,-38.5"/>
<polygon fill="#f5f5f5" stroke="none" points="8,-429.5 8,-453 252,-453 252,-429.5 8,-429.5"/>
<polygon fill="none" stroke="black" points="8,-429.5 8,-453 252,-453 252,-429.5 8,-429.5"/>
<text text-anchor="start" x="12.88" y="-438.55" font-family="Helvetica,sans-Serif" font-weight="bold" font-size="11.00">lot_lot</text>
<text text-anchor="start" x="210.25" y="-437.55" font-family="Helvetica,sans-Serif" font-size="11.00">[table]</text>
<polygon fill="none" stroke="black" points="8,-407.5 8,-429.5 252,-429.5 252,-407.5 8,-407.5"/>
<image xlink:href="../../images/primaryKeys.png" width="11px" height="12px" preserveAspectRatio="xMinYMin meet" x="13" y="-424.5"/>
<text text-anchor="start" x="28" y="-414.05" font-family="Helvetica,sans-Serif" font-size="11.00">identifier</text>
<polygon fill="#ffffff" stroke="none" points="8,-385.5 8,-407.5 252,-407.5 252,-385.5 8,-385.5"/>
<polygon fill="none" stroke="black" points="8,-385.5 8,-407.5 252,-407.5 252,-385.5 8,-385.5"/>
<text text-anchor="start" x="28" y="-392.05" font-family="Helvetica,sans-Serif" font-size="11.00">code</text>
<polygon fill="#ffffff" stroke="none" points="8,-363.5 8,-385.5 252,-385.5 252,-363.5 8,-363.5"/>
<polygon fill="none" stroke="black" points="8,-363.5 8,-385.5 252,-385.5 252,-363.5 8,-363.5"/>
<image xlink:href="../../images/foreignKeys.png" width="11px" height="12px" preserveAspectRatio="xMinYMin meet" x="13" y="-380.5"/>
<text text-anchor="start" x="28" y="-370.05" font-family="Helvetica,sans-Serif" font-size="11.00">project</text>
<polygon fill="#ffffff" stroke="none" points="8,-341.5 8,-363.5 252,-363.5 252,-341.5 8,-341.5"/>
<polygon fill="none" stroke="black" points="8,-341.5 8,-363.5 252,-363.5 252,-341.5 8,-341.5"/>
<image xlink:href="../../images/foreignKeys.png" width="11px" height="12px" preserveAspectRatio="xMinYMin meet" x="13" y="-358.5"/>
<text text-anchor="start" x="28" y="-348.05" font-family="Helvetica,sans-Serif" font-size="11.00">active_configuration_ftp</text>
<polygon fill="#ffffff" stroke="none" points="8,-319.5 8,-341.5 252,-341.5 252,-319.5 8,-319.5"/>
<polygon fill="none" stroke="black" points="8,-319.5 8,-341.5 252,-341.5 252,-319.5 8,-319.5"/>
<image xlink:href="../../images/foreignKeys.png" width="11px" height="12px" preserveAspectRatio="xMinYMin meet" x="13" y="-336.5"/>
<text text-anchor="start" x="28" y="-326.05" font-family="Helvetica,sans-Serif" font-size="11.00">active_configuration_check</text>
<polygon fill="#ffffff" stroke="none" points="8,-297.5 8,-319.5 252,-319.5 252,-297.5 8,-297.5"/>
<polygon fill="none" stroke="black" points="8,-297.5 8,-319.5 252,-319.5 252,-297.5 8,-297.5"/>
<image xlink:href="../../images/foreignKeys.png" width="11px" height="12px" preserveAspectRatio="xMinYMin meet" x="13" y="-314.5"/>
<text text-anchor="start" x="28" y="-304.05" font-family="Helvetica,sans-Serif" font-size="11.00">provider</text>
<polygon fill="#ffffff" stroke="none" points="8,-275.5 8,-297.5 252,-297.5 252,-275.5 8,-275.5"/>
<polygon fill="none" stroke="black" points="8,-275.5 8,-297.5 252,-297.5 252,-275.5 8,-275.5"/>
<image xlink:href="../../images/foreignKeys.png" width="11px" height="12px" preserveAspectRatio="xMinYMin meet" x="13" y="-292.5"/>
<text text-anchor="start" x="28" y="-282.05" font-family="Helvetica,sans-Serif" font-size="11.00">collection_omeka</text>
<polygon fill="#ffffff" stroke="none" points="8,-253.5 8,-275.5 252,-275.5 252,-253.5 8,-253.5"/>
<polygon fill="none" stroke="black" points="8,-253.5 8,-275.5 252,-275.5 252,-253.5 8,-253.5"/>
<image xlink:href="../../images/foreignKeys.png" width="11px" height="12px" preserveAspectRatio="xMinYMin meet" x="13" y="-270.5"/>
<text text-anchor="start" x="28" y="-260.05" font-family="Helvetica,sans-Serif" font-size="11.00">items_omeka</text>
<polygon fill="#ffffff" stroke="none" points="8,-231.5 8,-253.5 252,-253.5 252,-231.5 8,-231.5"/>
<polygon fill="none" stroke="black" points="8,-231.5 8,-253.5 252,-253.5 252,-231.5 8,-231.5"/>
<image xlink:href="../../images/foreignKeys.png" width="11px" height="12px" preserveAspectRatio="xMinYMin meet" x="13" y="-248.5"/>
<text text-anchor="start" x="28" y="-238.05" font-family="Helvetica,sans-Serif" font-size="11.00">active_configuration_export_ftp</text>
<polygon fill="#ffffff" stroke="none" points="8,-209.5 8,-231.5 252,-231.5 252,-209.5 8,-209.5"/>
<polygon fill="none" stroke="black" points="8,-209.5 8,-231.5 252,-231.5 252,-209.5 8,-209.5"/>
<image xlink:href="../../images/foreignKeys.png" width="11px" height="12px" preserveAspectRatio="xMinYMin meet" x="13" y="-226.5"/>
<text text-anchor="start" x="28" y="-216.05" font-family="Helvetica,sans-Serif" font-size="11.00">active_ocr_lang</text>
<polygon fill="#ffffff" stroke="none" points="8,-187.5 8,-209.5 252,-209.5 252,-187.5 8,-187.5"/>
<polygon fill="none" stroke="black" points="8,-187.5 8,-209.5 252,-209.5 252,-187.5 8,-187.5"/>
<image xlink:href="../../images/foreignKeys.png" width="11px" height="12px" preserveAspectRatio="xMinYMin meet" x="13" y="-204.5"/>
<text text-anchor="start" x="28" y="-194.05" font-family="Helvetica,sans-Serif" font-size="11.00">collection_ia</text>
<polygon fill="#ffffff" stroke="none" points="8,-165.5 8,-187.5 252,-187.5 252,-165.5 8,-165.5"/>
<polygon fill="none" stroke="black" points="8,-165.5 8,-187.5 252,-187.5 252,-165.5 8,-165.5"/>
<image xlink:href="../../images/foreignKeys.png" width="11px" height="12px" preserveAspectRatio="xMinYMin meet" x="13" y="-182.5"/>
<text text-anchor="start" x="28" y="-172.05" font-family="Helvetica,sans-Serif" font-size="11.00">classement_pac</text>
<polygon fill="#ffffff" stroke="none" points="8,-143.5 8,-165.5 252,-165.5 252,-143.5 8,-143.5"/>
<polygon fill="none" stroke="black" points="8,-143.5 8,-165.5 252,-165.5 252,-143.5 8,-143.5"/>
<image xlink:href="../../images/foreignKeys.png" width="11px" height="12px" preserveAspectRatio="xMinYMin meet" x="13" y="-160.5"/>
<text text-anchor="start" x="28" y="-150.05" font-family="Helvetica,sans-Serif" font-size="11.00">workflow_model</text>
<polygon fill="#ffffff" stroke="none" points="8,-121.5 8,-143.5 252,-143.5 252,-121.5 8,-121.5"/>
<polygon fill="none" stroke="black" points="8,-121.5 8,-143.5 252,-143.5 252,-121.5 8,-121.5"/>
<image xlink:href="../../images/foreignKeys.png" width="11px" height="12px" preserveAspectRatio="xMinYMin meet" x="13" y="-138.5"/>
<text text-anchor="start" x="28" y="-128.05" font-family="Helvetica,sans-Serif" font-size="11.00">active_format_configuration</text>
<polygon fill="#ffffff" stroke="none" points="8,-99.5 8,-121.5 252,-121.5 252,-99.5 8,-99.5"/>
<polygon fill="none" stroke="black" points="8,-99.5 8,-121.5 252,-121.5 252,-99.5 8,-99.5"/>
<image xlink:href="../../images/foreignKeys.png" width="11px" height="12px" preserveAspectRatio="xMinYMin meet" x="13" y="-116.5"/>
<text text-anchor="start" x="28" y="-106.05" font-family="Helvetica,sans-Serif" font-size="11.00">omeka_configuration</text>
<polygon fill="#ffffff" stroke="none" points="8,-77.5 8,-99.5 252,-99.5 252,-77.5 8,-77.5"/>
<polygon fill="none" stroke="black" points="8,-77.5 8,-99.5 252,-99.5 252,-77.5 8,-77.5"/>
<image xlink:href="../../images/foreignKeys.png" width="11px" height="12px" preserveAspectRatio="xMinYMin meet" x="13" y="-94.5"/>
<text text-anchor="start" x="28" y="-84.05" font-family="Helvetica,sans-Serif" font-size="11.00">active_export_ftp_delivery_folder</text>
<polygon fill="none" stroke="black" points="8,-58 8,-77.5 252,-77.5 252,-58 8,-58"/>
<text text-anchor="start" x="11" y="-64.05" font-family="Helvetica,sans-Serif" font-size="11.00">...</text>
<polygon fill="#ffffff" stroke="none" points="8,-38.5 8,-58 97.83,-58 97.83,-38.5 8,-38.5"/>
<polygon fill="none" stroke="black" points="8,-38.5 8,-58 97.83,-58 97.83,-38.5 8,-38.5"/>
<text text-anchor="start" x="11" y="-44.55" font-family="Helvetica,sans-Serif" font-size="11.00">&lt; 14</text>
<polygon fill="#ffffff" stroke="none" points="97.83,-38.5 97.83,-58 168.92,-58 168.92,-38.5 97.83,-38.5"/>
<polygon fill="none" stroke="black" points="97.83,-38.5 97.83,-58 168.92,-58 168.92,-38.5 97.83,-38.5"/>
<text text-anchor="start" x="158.42" y="-44.55" font-family="Helvetica,sans-Serif" font-size="11.00"> &#160;</text>
<polygon fill="#ffffff" stroke="none" points="168.92,-38.5 168.92,-58 252,-58 252,-38.5 168.92,-38.5"/>
<polygon fill="none" stroke="black" points="168.92,-38.5 168.92,-58 252,-58 252,-38.5 168.92,-38.5"/>
<text text-anchor="start" x="229.5" y="-44.55" font-family="Helvetica,sans-Serif" font-size="11.00">4 &gt;</text>
</a>
</g>
</g>
<!-- plat_platform&#45;&gt;lot_lot -->
<g id="edge2" class="edge">
<title>plat_platform:w&#45;&gt;lot_lot:e</title>
<path fill="none" stroke="black" d="M287,-521.14C261.86,-500.61 298.86,-418.5 253,-418.5"/>
<polygon fill="black" stroke="black" points="294.03,-523.3 300.62,-529.09 298.18,-524.58 301.36,-525.55 301.36,-525.55 301.36,-525.55 298.18,-524.58 302.74,-522.21 294.03,-523.3"/>
<ellipse fill="none" stroke="black" cx="289.33" cy="-521.86" rx="3.2" ry="3.2"/>
</g>
<!-- proj_project_platform -->
<g id="node4" class="node">
<title>proj_project_platform</title>
<g id="a_node4"><a xlink:href="../../tables/proj_project_platform.html" xlink:title="proj_project_platform" target="_top">
<polygon fill="#ffffff" stroke="none" points="594.75,-671.25 594.75,-758.25 786.5,-758.25 786.5,-671.25 594.75,-671.25"/>
<polygon fill="#f5f5f5" stroke="none" points="594.75,-734.75 594.75,-758.25 786.5,-758.25 786.5,-734.75 594.75,-734.75"/>
<polygon fill="none" stroke="black" points="594.75,-734.75 594.75,-758.25 786.5,-758.25 786.5,-734.75 594.75,-734.75"/>
<text text-anchor="start" x="599.75" y="-743.8" font-family="Helvetica,sans-Serif" font-weight="bold" font-size="11.00">proj_project_platform</text>
<text text-anchor="start" x="744.75" y="-742.8" font-family="Helvetica,sans-Serif" font-size="11.00">[table]</text>
<polygon fill="none" stroke="black" points="594.75,-712.75 594.75,-734.75 786.5,-734.75 786.5,-712.75 594.75,-712.75"/>
<image xlink:href="../../images/primaryKeys.png" width="11px" height="12px" preserveAspectRatio="xMinYMin meet" x="599.75" y="-729.75"/>
<text text-anchor="start" x="627.62" y="-719.3" font-family="Helvetica,sans-Serif" font-size="11.00">proj_platform</text>
<polygon fill="none" stroke="black" points="594.75,-690.75 594.75,-712.75 786.5,-712.75 786.5,-690.75 594.75,-690.75"/>
<image xlink:href="../../images/primaryKeys.png" width="11px" height="12px" preserveAspectRatio="xMinYMin meet" x="599.75" y="-707.75"/>
<text text-anchor="start" x="627.62" y="-697.3" font-family="Helvetica,sans-Serif" font-size="11.00">project</text>
<polygon fill="#ffffff" stroke="none" points="594.75,-671.25 594.75,-690.75 666.67,-690.75 666.67,-671.25 594.75,-671.25"/>
<polygon fill="none" stroke="black" points="594.75,-671.25 594.75,-690.75 666.67,-690.75 666.67,-671.25 594.75,-671.25"/>
<text text-anchor="start" x="597.75" y="-677.3" font-family="Helvetica,sans-Serif" font-size="11.00">&lt; 2</text>
<polygon fill="#ffffff" stroke="none" points="666.67,-671.25 666.67,-690.75 726.58,-690.75 726.58,-671.25 666.67,-671.25"/>
<polygon fill="none" stroke="black" points="666.67,-671.25 666.67,-690.75 726.58,-690.75 726.58,-671.25 666.67,-671.25"/>
<text text-anchor="start" x="716.08" y="-677.3" font-family="Helvetica,sans-Serif" font-size="11.00"> &#160;</text>
<polygon fill="#ffffff" stroke="none" points="726.58,-671.25 726.58,-690.75 786.5,-690.75 786.5,-671.25 726.58,-671.25"/>
<polygon fill="none" stroke="black" points="726.58,-671.25 726.58,-690.75 786.5,-690.75 786.5,-671.25 726.58,-671.25"/>
<text text-anchor="start" x="776" y="-677.3" font-family="Helvetica,sans-Serif" font-size="11.00"> &#160;</text>
</a>
</g>
</g>
<!-- proj_project_platform&#45;&gt;plat_platform -->
<g id="edge3" class="edge">
<title>proj_project_platform:w&#45;&gt;plat_platform:e</title>
<path fill="none" stroke="black" d="M578.12,-723.75C566.45,-723.75 558.88,-723.75 542.25,-723.75"/>
<polygon fill="black" stroke="black" points="585.42,-723.75 593.42,-727.35 589.75,-723.75 593.08,-723.75 593.08,-723.75 593.08,-723.75 589.75,-723.75 593.42,-720.15 585.42,-723.75"/>
<ellipse fill="none" stroke="black" cx="580.5" cy="-723.75" rx="3.2" ry="3.2"/>
</g>
</g>
</svg>
