<?xml version="1.0" encoding="UTF-8" standalone="no"?>
<!DOCTYPE svg PUBLIC "-//W3C//DTD SVG 1.1//EN"
 "http://www.w3.org/Graphics/SVG/1.1/DTD/svg11.dtd">
<!-- Generated by graphviz version 12.2.0 (0)
 -->
<!-- Title: oneDegreeRelationshipsDiagram Pages: 1 -->
<svg width="864pt" height="462pt"
 viewBox="0.00 0.00 864.00 462.25" xmlns="http://www.w3.org/2000/svg" xmlns:xlink="http://www.w3.org/1999/xlink">
<g id="graph0" class="graph" transform="scale(1 1) rotate(0) translate(4 458.25)">
<title>oneDegreeRelationshipsDiagram</title>
<polygon fill="#ffffff" stroke="none" points="-4,4 -4,-458.25 860,-458.25 860,4 -4,4"/>
<text text-anchor="middle" x="79.25" y="-7.05" font-family="Helvetica,sans-Serif" font-size="11.00">Generated by SchemaSpy</text>
<!-- proj_project -->
<g id="node1" class="node">
<title>proj_project</title>
<g id="a_node1"><a xlink:href="../../tables/proj_project.html" xlink:title="proj_project" target="_top">
<polygon fill="#ffffff" stroke="none" points="291,-38.5 291,-409 535,-409 535,-38.5 291,-38.5"/>
<polygon fill="#f5f5f5" stroke="none" points="291,-385.5 291,-409 535,-409 535,-385.5 291,-385.5"/>
<polygon fill="none" stroke="black" points="291,-385.5 291,-409 535,-409 535,-385.5 291,-385.5"/>
<text text-anchor="start" x="296" y="-394.55" font-family="Helvetica,sans-Serif" font-weight="bold" font-size="11.00">proj_project</text>
<text text-anchor="start" x="493.25" y="-393.55" font-family="Helvetica,sans-Serif" font-size="11.00">[table]</text>
<polygon fill="none" stroke="black" points="291,-363.5 291,-385.5 535,-385.5 535,-363.5 291,-363.5"/>
<image xlink:href="../../images/primaryKeys.png" width="11px" height="12px" preserveAspectRatio="xMinYMin meet" x="296" y="-380.5"/>
<text text-anchor="start" x="311" y="-370.05" font-family="Helvetica,sans-Serif" font-size="11.00">identifier</text>
<polygon fill="#ffffff" stroke="none" points="291,-341.5 291,-363.5 535,-363.5 535,-341.5 291,-341.5"/>
<polygon fill="none" stroke="black" points="291,-341.5 291,-363.5 535,-363.5 535,-341.5 291,-341.5"/>
<image xlink:href="../../images/foreignKeys.png" width="11px" height="12px" preserveAspectRatio="xMinYMin meet" x="296" y="-358.5"/>
<text text-anchor="start" x="311" y="-348.05" font-family="Helvetica,sans-Serif" font-size="11.00">library</text>
<polygon fill="#ffffff" stroke="none" points="291,-319.5 291,-341.5 535,-341.5 535,-319.5 291,-319.5"/>
<polygon fill="none" stroke="black" points="291,-319.5 291,-341.5 535,-341.5 535,-319.5 291,-319.5"/>
<image xlink:href="../../images/foreignKeys.png" width="11px" height="12px" preserveAspectRatio="xMinYMin meet" x="296" y="-336.5"/>
<text text-anchor="start" x="311" y="-326.05" font-family="Helvetica,sans-Serif" font-size="11.00">active_configuration_ftp</text>
<polygon fill="#ffffff" stroke="none" points="291,-297.5 291,-319.5 535,-319.5 535,-297.5 291,-297.5"/>
<polygon fill="none" stroke="black" points="291,-297.5 291,-319.5 535,-319.5 535,-297.5 291,-297.5"/>
<image xlink:href="../../images/foreignKeys.png" width="11px" height="12px" preserveAspectRatio="xMinYMin meet" x="296" y="-314.5"/>
<text text-anchor="start" x="311" y="-304.05" font-family="Helvetica,sans-Serif" font-size="11.00">active_configuration_check</text>
<polygon fill="#ffffff" stroke="none" points="291,-275.5 291,-297.5 535,-297.5 535,-275.5 291,-275.5"/>
<polygon fill="none" stroke="black" points="291,-275.5 291,-297.5 535,-297.5 535,-275.5 291,-275.5"/>
<image xlink:href="../../images/foreignKeys.png" width="11px" height="12px" preserveAspectRatio="xMinYMin meet" x="296" y="-292.5"/>
<text text-anchor="start" x="311" y="-282.05" font-family="Helvetica,sans-Serif" font-size="11.00">provider</text>
<polygon fill="#ffffff" stroke="none" points="291,-253.5 291,-275.5 535,-275.5 535,-253.5 291,-253.5"/>
<polygon fill="none" stroke="black" points="291,-253.5 291,-275.5 535,-275.5 535,-253.5 291,-253.5"/>
<image xlink:href="../../images/foreignKeys.png" width="11px" height="12px" preserveAspectRatio="xMinYMin meet" x="296" y="-270.5"/>
<text text-anchor="start" x="311" y="-260.05" font-family="Helvetica,sans-Serif" font-size="11.00">collection_omeka</text>
<polygon fill="#ffffff" stroke="none" points="291,-231.5 291,-253.5 535,-253.5 535,-231.5 291,-231.5"/>
<polygon fill="none" stroke="black" points="291,-231.5 291,-253.5 535,-253.5 535,-231.5 291,-231.5"/>
<image xlink:href="../../images/foreignKeys.png" width="11px" height="12px" preserveAspectRatio="xMinYMin meet" x="296" y="-248.5"/>
<text text-anchor="start" x="311" y="-238.05" font-family="Helvetica,sans-Serif" font-size="11.00">items_omeka</text>
<polygon fill="#ffffff" stroke="none" points="291,-209.5 291,-231.5 535,-231.5 535,-209.5 291,-209.5"/>
<polygon fill="none" stroke="black" points="291,-209.5 291,-231.5 535,-231.5 535,-209.5 291,-209.5"/>
<image xlink:href="../../images/foreignKeys.png" width="11px" height="12px" preserveAspectRatio="xMinYMin meet" x="296" y="-226.5"/>
<text text-anchor="start" x="311" y="-216.05" font-family="Helvetica,sans-Serif" font-size="11.00">active_configuration_export_ftp</text>
<polygon fill="#ffffff" stroke="none" points="291,-187.5 291,-209.5 535,-209.5 535,-187.5 291,-187.5"/>
<polygon fill="none" stroke="black" points="291,-187.5 291,-209.5 535,-209.5 535,-187.5 291,-187.5"/>
<image xlink:href="../../images/foreignKeys.png" width="11px" height="12px" preserveAspectRatio="xMinYMin meet" x="296" y="-204.5"/>
<text text-anchor="start" x="311" y="-194.05" font-family="Helvetica,sans-Serif" font-size="11.00">collection_ia</text>
<polygon fill="#ffffff" stroke="none" points="291,-165.5 291,-187.5 535,-187.5 535,-165.5 291,-165.5"/>
<polygon fill="none" stroke="black" points="291,-165.5 291,-187.5 535,-187.5 535,-165.5 291,-165.5"/>
<image xlink:href="../../images/foreignKeys.png" width="11px" height="12px" preserveAspectRatio="xMinYMin meet" x="296" y="-182.5"/>
<text text-anchor="start" x="311" y="-172.05" font-family="Helvetica,sans-Serif" font-size="11.00">classement_pac</text>
<polygon fill="#ffffff" stroke="none" points="291,-143.5 291,-165.5 535,-165.5 535,-143.5 291,-143.5"/>
<polygon fill="none" stroke="black" points="291,-143.5 291,-165.5 535,-165.5 535,-143.5 291,-143.5"/>
<image xlink:href="../../images/foreignKeys.png" width="11px" height="12px" preserveAspectRatio="xMinYMin meet" x="296" y="-160.5"/>
<text text-anchor="start" x="311" y="-150.05" font-family="Helvetica,sans-Serif" font-size="11.00">workflow_model</text>
<polygon fill="#ffffff" stroke="none" points="291,-121.5 291,-143.5 535,-143.5 535,-121.5 291,-121.5"/>
<polygon fill="none" stroke="black" points="291,-121.5 291,-143.5 535,-143.5 535,-121.5 291,-121.5"/>
<image xlink:href="../../images/foreignKeys.png" width="11px" height="12px" preserveAspectRatio="xMinYMin meet" x="296" y="-138.5"/>
<text text-anchor="start" x="311" y="-128.05" font-family="Helvetica,sans-Serif" font-size="11.00">active_format_configuration</text>
<polygon fill="#ffffff" stroke="none" points="291,-99.5 291,-121.5 535,-121.5 535,-99.5 291,-99.5"/>
<polygon fill="none" stroke="black" points="291,-99.5 291,-121.5 535,-121.5 535,-99.5 291,-99.5"/>
<image xlink:href="../../images/foreignKeys.png" width="11px" height="12px" preserveAspectRatio="xMinYMin meet" x="296" y="-116.5"/>
<text text-anchor="start" x="311" y="-106.05" font-family="Helvetica,sans-Serif" font-size="11.00">omeka_configuration</text>
<polygon fill="#ffffff" stroke="none" points="291,-77.5 291,-99.5 535,-99.5 535,-77.5 291,-77.5"/>
<polygon fill="none" stroke="black" points="291,-77.5 291,-99.5 535,-99.5 535,-77.5 291,-77.5"/>
<image xlink:href="../../images/foreignKeys.png" width="11px" height="12px" preserveAspectRatio="xMinYMin meet" x="296" y="-94.5"/>
<text text-anchor="start" x="311" y="-84.05" font-family="Helvetica,sans-Serif" font-size="11.00">active_export_ftp_delivery_folder</text>
<polygon fill="none" stroke="black" points="291,-58 291,-77.5 535,-77.5 535,-58 291,-58"/>
<text text-anchor="start" x="294" y="-64.05" font-family="Helvetica,sans-Serif" font-size="11.00">...</text>
<polygon fill="#ffffff" stroke="none" points="291,-38.5 291,-58 380.83,-58 380.83,-38.5 291,-38.5"/>
<polygon fill="none" stroke="black" points="291,-38.5 291,-58 380.83,-58 380.83,-38.5 291,-38.5"/>
<text text-anchor="start" x="294" y="-44.55" font-family="Helvetica,sans-Serif" font-size="11.00">&lt; 13</text>
<polygon fill="#ffffff" stroke="none" points="380.83,-38.5 380.83,-58 451.92,-58 451.92,-38.5 380.83,-38.5"/>
<polygon fill="none" stroke="black" points="380.83,-38.5 380.83,-58 451.92,-58 451.92,-38.5 380.83,-38.5"/>
<text text-anchor="start" x="441.42" y="-44.55" font-family="Helvetica,sans-Serif" font-size="11.00"> &#160;</text>
<polygon fill="#ffffff" stroke="none" points="451.92,-38.5 451.92,-58 535,-58 535,-38.5 451.92,-38.5"/>
<polygon fill="none" stroke="black" points="451.92,-38.5 451.92,-58 535,-58 535,-38.5 451.92,-38.5"/>
<text text-anchor="start" x="512.5" y="-44.55" font-family="Helvetica,sans-Serif" font-size="11.00">7 &gt;</text>
</a>
</g>
</g>
<!-- lib_library -->
<g id="node2" class="node">
<title>lib_library</title>
<g id="a_node2"><a xlink:href="../../tables/lib_library.html" xlink:title="lib_library" target="_top">
<polygon fill="#ffffff" stroke="none" points="8,-210.5 8,-427 242,-427 242,-210.5 8,-210.5"/>
<polygon fill="#f5f5f5" stroke="none" points="8,-403.5 8,-427 242,-427 242,-403.5 8,-403.5"/>
<polygon fill="none" stroke="black" points="8,-403.5 8,-427 242,-427 242,-403.5 8,-403.5"/>
<text text-anchor="start" x="13" y="-412.55" font-family="Helvetica,sans-Serif" font-weight="bold" font-size="11.00">lib_library</text>
<text text-anchor="start" x="200.25" y="-411.55" font-family="Helvetica,sans-Serif" font-size="11.00">[table]</text>
<polygon fill="none" stroke="black" points="8,-381.5 8,-403.5 242,-403.5 242,-381.5 8,-381.5"/>
<image xlink:href="../../images/primaryKeys.png" width="11px" height="12px" preserveAspectRatio="xMinYMin meet" x="13" y="-398.5"/>
<text text-anchor="start" x="28" y="-388.05" font-family="Helvetica,sans-Serif" font-size="11.00">identifier</text>
<polygon fill="#ffffff" stroke="none" points="8,-359.5 8,-381.5 242,-381.5 242,-359.5 8,-359.5"/>
<polygon fill="none" stroke="black" points="8,-359.5 8,-381.5 242,-381.5 242,-359.5 8,-359.5"/>
<image xlink:href="../../images/foreignKeys.png" width="11px" height="12px" preserveAspectRatio="xMinYMin meet" x="13" y="-376.5"/>
<text text-anchor="start" x="28" y="-366.05" font-family="Helvetica,sans-Serif" font-size="11.00">address</text>
<polygon fill="#ffffff" stroke="none" points="8,-337.5 8,-359.5 242,-359.5 242,-337.5 8,-337.5"/>
<polygon fill="none" stroke="black" points="8,-337.5 8,-359.5 242,-359.5 242,-337.5 8,-337.5"/>
<image xlink:href="../../images/foreignKeys.png" width="11px" height="12px" preserveAspectRatio="xMinYMin meet" x="13" y="-354.5"/>
<text text-anchor="start" x="28" y="-344.05" font-family="Helvetica,sans-Serif" font-size="11.00">active_configuration_ftp</text>
<polygon fill="#ffffff" stroke="none" points="8,-315.5 8,-337.5 242,-337.5 242,-315.5 8,-315.5"/>
<polygon fill="none" stroke="black" points="8,-315.5 8,-337.5 242,-337.5 242,-315.5 8,-315.5"/>
<image xlink:href="../../images/foreignKeys.png" width="11px" height="12px" preserveAspectRatio="xMinYMin meet" x="13" y="-332.5"/>
<text text-anchor="start" x="28" y="-322.05" font-family="Helvetica,sans-Serif" font-size="11.00">active_configuration_check</text>
<polygon fill="#ffffff" stroke="none" points="8,-293.5 8,-315.5 242,-315.5 242,-293.5 8,-293.5"/>
<polygon fill="none" stroke="black" points="8,-293.5 8,-315.5 242,-315.5 242,-293.5 8,-293.5"/>
<image xlink:href="../../images/foreignKeys.png" width="11px" height="12px" preserveAspectRatio="xMinYMin meet" x="13" y="-310.5"/>
<text text-anchor="start" x="28" y="-300.05" font-family="Helvetica,sans-Serif" font-size="11.00">role</text>
<polygon fill="#ffffff" stroke="none" points="8,-271.5 8,-293.5 242,-293.5 242,-271.5 8,-271.5"/>
<polygon fill="none" stroke="black" points="8,-271.5 8,-293.5 242,-293.5 242,-271.5 8,-271.5"/>
<image xlink:href="../../images/foreignKeys.png" width="11px" height="12px" preserveAspectRatio="xMinYMin meet" x="13" y="-288.5"/>
<text text-anchor="start" x="28" y="-278.05" font-family="Helvetica,sans-Serif" font-size="11.00">active_configuration_export_ftp</text>
<polygon fill="#ffffff" stroke="none" points="8,-249.5 8,-271.5 242,-271.5 242,-249.5 8,-249.5"/>
<polygon fill="none" stroke="black" points="8,-249.5 8,-271.5 242,-271.5 242,-249.5 8,-249.5"/>
<image xlink:href="../../images/foreignKeys.png" width="11px" height="12px" preserveAspectRatio="xMinYMin meet" x="13" y="-266.5"/>
<text text-anchor="start" x="28" y="-256.05" font-family="Helvetica,sans-Serif" font-size="11.00">active_configuration_ocr_lang</text>
<polygon fill="none" stroke="black" points="8,-230 8,-249.5 242,-249.5 242,-230 8,-230"/>
<text text-anchor="start" x="11" y="-236.05" font-family="Helvetica,sans-Serif" font-size="11.00">...</text>
<polygon fill="#ffffff" stroke="none" points="8,-210.5 8,-230 87.75,-230 87.75,-210.5 8,-210.5"/>
<polygon fill="none" stroke="black" points="8,-210.5 8,-230 87.75,-230 87.75,-210.5 8,-210.5"/>
<text text-anchor="start" x="11" y="-216.55" font-family="Helvetica,sans-Serif" font-size="11.00">&lt; 6</text>
<polygon fill="#ffffff" stroke="none" points="87.75,-210.5 87.75,-230 155.5,-230 155.5,-210.5 87.75,-210.5"/>
<polygon fill="none" stroke="black" points="87.75,-210.5 87.75,-230 155.5,-230 155.5,-210.5 87.75,-210.5"/>
<text text-anchor="start" x="145" y="-216.55" font-family="Helvetica,sans-Serif" font-size="11.00"> &#160;</text>
<polygon fill="#ffffff" stroke="none" points="155.5,-210.5 155.5,-230 242,-230 242,-210.5 155.5,-210.5"/>
<polygon fill="none" stroke="black" points="155.5,-210.5 155.5,-230 242,-230 242,-210.5 155.5,-210.5"/>
<text text-anchor="start" x="212.75" y="-216.55" font-family="Helvetica,sans-Serif" font-size="11.00">27 &gt;</text>
</a>
</g>
</g>
<!-- proj_project&#45;&gt;lib_library -->
<g id="edge1" class="edge">
<title>proj_project:w&#45;&gt;lib_library:e</title>
<path fill="none" stroke="black" d="M275.62,-358.06C264.32,-369.05 264,-392.5 243,-392.5"/>
<polygon fill="black" stroke="black" points="282.23,-355.51 290.99,-355.98 286.27,-353.94 289.38,-352.74 289.38,-352.74 289.38,-352.74 286.27,-353.94 288.39,-349.26 282.23,-355.51"/>
<ellipse fill="none" stroke="black" cx="277.64" cy="-357.28" rx="3.2" ry="3.2"/>
</g>
<!-- proj_project_library -->
<g id="node3" class="node">
<title>proj_project_library</title>
<g id="a_node3"><a xlink:href="../../tables/proj_project_library.html" xlink:title="proj_project_library" target="_top">
<polygon fill="#ffffff" stroke="none" points="584,-359.25 584,-450.25 848,-450.25 848,-359.25 584,-359.25"/>
<polygon fill="#f5f5f5" stroke="none" points="586,-424.75 586,-448.25 846,-448.25 846,-424.75 586,-424.75"/>
<polygon fill="none" stroke="black" points="586,-424.75 586,-448.25 846,-448.25 846,-424.75 586,-424.75"/>
<text text-anchor="start" x="591" y="-433.8" font-family="Helvetica,sans-Serif" font-weight="bold" font-size="11.00">proj_project_library</text>
<text text-anchor="start" x="804.25" y="-432.8" font-family="Helvetica,sans-Serif" font-size="11.00">[table]</text>
<polygon fill="none" stroke="black" points="586,-402.75 586,-424.75 738,-424.75 738,-402.75 586,-402.75"/>
<image xlink:href="../../images/primaryKeys.png" width="11px" height="12px" preserveAspectRatio="xMinYMin meet" x="591" y="-419.75"/>
<text text-anchor="start" x="606" y="-409.3" font-family="Helvetica,sans-Serif" font-size="11.00">proj_library</text>
<polygon fill="none" stroke="black" points="738,-402.75 738,-424.75 830.62,-424.75 830.62,-402.75 738,-402.75"/>
<text text-anchor="start" x="741" y="-410.05" font-family="Helvetica,sans-Serif" font-size="11.00">varchar[191]</text>
<polygon fill="none" stroke="black" points="586,-380.75 586,-402.75 738,-402.75 738,-380.75 586,-380.75"/>
<image xlink:href="../../images/primaryKeys.png" width="11px" height="12px" preserveAspectRatio="xMinYMin meet" x="591" y="-397.75"/>
<text text-anchor="start" x="606" y="-387.3" font-family="Helvetica,sans-Serif" font-size="11.00">project</text>
<polygon fill="none" stroke="black" points="738,-380.75 738,-402.75 830.62,-402.75 830.62,-380.75 738,-380.75"/>
<text text-anchor="start" x="741" y="-388.05" font-family="Helvetica,sans-Serif" font-size="11.00">varchar[191]</text>
<polygon fill="#ffffff" stroke="none" points="586,-361.25 586,-380.75 668,-380.75 668,-361.25 586,-361.25"/>
<polygon fill="none" stroke="black" points="586,-361.25 586,-380.75 668,-380.75 668,-361.25 586,-361.25"/>
<text text-anchor="start" x="589" y="-367.3" font-family="Helvetica,sans-Serif" font-size="11.00">&lt; 2</text>
<polygon fill="#ffffff" stroke="none" points="668,-361.25 668,-380.75 738,-380.75 738,-361.25 668,-361.25"/>
<polygon fill="none" stroke="black" points="668,-361.25 668,-380.75 738,-380.75 738,-361.25 668,-361.25"/>
<text text-anchor="start" x="727.5" y="-367.3" font-family="Helvetica,sans-Serif" font-size="11.00"> &#160;</text>
<polygon fill="#ffffff" stroke="none" points="738,-361.25 738,-380.75 830.62,-380.75 830.62,-361.25 738,-361.25"/>
<polygon fill="none" stroke="black" points="738,-361.25 738,-380.75 830.62,-380.75 830.62,-361.25 738,-361.25"/>
<text text-anchor="start" x="808.12" y="-367.3" font-family="Helvetica,sans-Serif" font-size="11.00">0 &gt;</text>
<polygon fill="none" stroke="black" stroke-width="2" points="585,-360.25 585,-449.25 847,-449.25 847,-360.25 585,-360.25"/>
</a>
</g>
</g>
<!-- proj_project_library&#45;&gt;proj_project -->
<g id="edge3" class="edge">
<title>proj_project_library:w&#45;&gt;proj_project:e</title>
<path fill="none" stroke="black" d="M569.78,-388.59C558.85,-383.61 552.77,-374.5 536,-374.5"/>
<polygon fill="black" stroke="black" points="576.84,-390.05 583.94,-395.21 581.08,-390.94 584.35,-391.61 584.35,-391.61 584.35,-391.61 581.08,-390.94 585.41,-388.16 576.84,-390.05"/>
<ellipse fill="none" stroke="black" cx="572.02" cy="-389.05" rx="3.2" ry="3.2"/>
</g>
<!-- proj_project_library&#45;&gt;lib_library -->
<g id="edge2" class="edge">
<title>proj_project_library:w&#45;&gt;lib_library:e</title>
<path fill="none" stroke="black" d="M569.24,-415.13C561.31,-416.62 555.2,-418.88 543,-419.75 427.74,-427.94 393.43,-453.79 283,-419.75 262.44,-413.41 264.51,-392.5 243,-392.5"/>
<polygon fill="black" stroke="black" points="576.7,-414.48 584.98,-417.37 581.02,-414.1 584.33,-413.81 584.33,-413.81 584.33,-413.81 581.02,-414.1 584.35,-410.19 576.7,-414.48"/>
<ellipse fill="none" stroke="black" cx="571.8" cy="-414.91" rx="3.2" ry="3.2"/>
</g>
</g>
</svg>
