<?xml version="1.0" encoding="UTF-8" standalone="no"?>
<!DOCTYPE svg PUBLIC "-//W3C//DTD SVG 1.1//EN"
 "http://www.w3.org/Graphics/SVG/1.1/DTD/svg11.dtd">
<!-- Generated by graphviz version 12.2.0 (0)
 -->
<!-- Title: oneDegreeRelationshipsDiagram Pages: 1 -->
<svg width="248pt" height="142pt"
 viewBox="0.00 0.00 247.50 141.50" xmlns="http://www.w3.org/2000/svg" xmlns:xlink="http://www.w3.org/1999/xlink">
<g id="graph0" class="graph" transform="scale(1 1) rotate(0) translate(4 137.5)">
<title>oneDegreeRelationshipsDiagram</title>
<polygon fill="#ffffff" stroke="none" points="-4,4 -4,-137.5 243.5,-137.5 243.5,4 -4,4"/>
<text text-anchor="middle" x="79.25" y="-7.05" font-family="Helvetica,sans-Serif" font-size="11.00">Generated by SchemaSpy</text>
<!-- proj_project_lot -->
<g id="node1" class="node">
<title>proj_project_lot</title>
<g id="a_node1"><a xlink:href="../../tables/proj_project_lot.html" xlink:title="proj_project_lot" target="_top">
<polygon fill="#ffffff" stroke="none" points="8,-38.5 8,-129.5 231.5,-129.5 231.5,-38.5 8,-38.5"/>
<polygon fill="#f5f5f5" stroke="none" points="10,-104 10,-127.5 229.5,-127.5 229.5,-104 10,-104"/>
<polygon fill="none" stroke="black" points="10,-104 10,-127.5 229.5,-127.5 229.5,-104 10,-104"/>
<text text-anchor="start" x="15" y="-113.05" font-family="Helvetica,sans-Serif" font-weight="bold" font-size="11.00">proj_project_lot</text>
<text text-anchor="start" x="187.75" y="-112.05" font-family="Helvetica,sans-Serif" font-size="11.00">[table]</text>
<polygon fill="none" stroke="black" points="10,-82 10,-104 135,-104 135,-82 10,-82"/>
<image xlink:href="../../images/primaryKeys.png" width="11px" height="12px" preserveAspectRatio="xMinYMin meet" x="15" y="-99"/>
<text text-anchor="start" x="30" y="-88.55" font-family="Helvetica,sans-Serif" font-size="11.00">proj_lot</text>
<polygon fill="none" stroke="black" points="135,-82 135,-104 220.88,-104 220.88,-82 135,-82"/>
<text text-anchor="start" x="138" y="-89.3" font-family="Helvetica,sans-Serif" font-size="11.00">varchar[191]</text>
<polygon fill="none" stroke="black" points="10,-60 10,-82 135,-82 135,-60 10,-60"/>
<image xlink:href="../../images/primaryKeys.png" width="11px" height="12px" preserveAspectRatio="xMinYMin meet" x="15" y="-77"/>
<text text-anchor="start" x="30" y="-66.55" font-family="Helvetica,sans-Serif" font-size="11.00">project</text>
<polygon fill="none" stroke="black" points="135,-60 135,-82 220.88,-82 220.88,-60 135,-60"/>
<text text-anchor="start" x="138" y="-67.3" font-family="Helvetica,sans-Serif" font-size="11.00">varchar[191]</text>
<polygon fill="#ffffff" stroke="none" points="10,-40.5 10,-60 78.5,-60 78.5,-40.5 10,-40.5"/>
<polygon fill="none" stroke="black" points="10,-40.5 10,-60 78.5,-60 78.5,-40.5 10,-40.5"/>
<text text-anchor="start" x="13" y="-46.55" font-family="Helvetica,sans-Serif" font-size="11.00">&lt; 0</text>
<polygon fill="#ffffff" stroke="none" points="78.5,-40.5 78.5,-60 135,-60 135,-40.5 78.5,-40.5"/>
<polygon fill="none" stroke="black" points="78.5,-40.5 78.5,-60 135,-60 135,-40.5 78.5,-40.5"/>
<text text-anchor="start" x="124.5" y="-46.55" font-family="Helvetica,sans-Serif" font-size="11.00"> &#160;</text>
<polygon fill="#ffffff" stroke="none" points="135,-40.5 135,-60 220.88,-60 220.88,-40.5 135,-40.5"/>
<polygon fill="none" stroke="black" points="135,-40.5 135,-60 220.88,-60 220.88,-40.5 135,-40.5"/>
<text text-anchor="start" x="198.38" y="-46.55" font-family="Helvetica,sans-Serif" font-size="11.00">0 &gt;</text>
<polygon fill="none" stroke="black" stroke-width="2" points="9,-39.5 9,-128.5 230.5,-128.5 230.5,-39.5 9,-39.5"/>
</a>
</g>
</g>
</g>
</svg>
