<?xml version="1.0" encoding="UTF-8" standalone="no"?>
<!DOCTYPE svg PUBLIC "-//W3C//DTD SVG 1.1//EN"
 "http://www.w3.org/Graphics/SVG/1.1/DTD/svg11.dtd">
<!-- Generated by graphviz version 12.2.0 (0)
 -->
<!-- Title: oneDegreeRelationshipsDiagram Pages: 1 -->
<svg width="756pt" height="462pt"
 viewBox="0.00 0.00 755.50 462.25" xmlns="http://www.w3.org/2000/svg" xmlns:xlink="http://www.w3.org/1999/xlink">
<g id="graph0" class="graph" transform="scale(1 1) rotate(0) translate(4 458.25)">
<title>oneDegreeRelationshipsDiagram</title>
<polygon fill="#ffffff" stroke="none" points="-4,4 -4,-458.25 751.5,-458.25 751.5,4 -4,4"/>
<text text-anchor="middle" x="79.25" y="-7.05" font-family="Helvetica,sans-Serif" font-size="11.00">Generated by SchemaSpy</text>
<!-- proj_project -->
<g id="node1" class="node">
<title>proj_project</title>
<g id="a_node1"><a xlink:href="../../tables/proj_project.html" xlink:title="proj_project" target="_top">
<polygon fill="#ffffff" stroke="none" points="205,-38.5 205,-409 449,-409 449,-38.5 205,-38.5"/>
<polygon fill="#f5f5f5" stroke="none" points="205,-385.5 205,-409 449,-409 449,-385.5 205,-385.5"/>
<polygon fill="none" stroke="black" points="205,-385.5 205,-409 449,-409 449,-385.5 205,-385.5"/>
<text text-anchor="start" x="210" y="-394.55" font-family="Helvetica,sans-Serif" font-weight="bold" font-size="11.00">proj_project</text>
<text text-anchor="start" x="407.25" y="-393.55" font-family="Helvetica,sans-Serif" font-size="11.00">[table]</text>
<polygon fill="none" stroke="black" points="205,-363.5 205,-385.5 449,-385.5 449,-363.5 205,-363.5"/>
<image xlink:href="../../images/primaryKeys.png" width="11px" height="12px" preserveAspectRatio="xMinYMin meet" x="210" y="-380.5"/>
<text text-anchor="start" x="225" y="-370.05" font-family="Helvetica,sans-Serif" font-size="11.00">identifier</text>
<polygon fill="#ffffff" stroke="none" points="205,-341.5 205,-363.5 449,-363.5 449,-341.5 205,-341.5"/>
<polygon fill="none" stroke="black" points="205,-341.5 205,-363.5 449,-363.5 449,-341.5 205,-341.5"/>
<image xlink:href="../../images/foreignKeys.png" width="11px" height="12px" preserveAspectRatio="xMinYMin meet" x="210" y="-358.5"/>
<text text-anchor="start" x="225" y="-348.05" font-family="Helvetica,sans-Serif" font-size="11.00">library</text>
<polygon fill="#ffffff" stroke="none" points="205,-319.5 205,-341.5 449,-341.5 449,-319.5 205,-319.5"/>
<polygon fill="none" stroke="black" points="205,-319.5 205,-341.5 449,-341.5 449,-319.5 205,-319.5"/>
<image xlink:href="../../images/foreignKeys.png" width="11px" height="12px" preserveAspectRatio="xMinYMin meet" x="210" y="-336.5"/>
<text text-anchor="start" x="225" y="-326.05" font-family="Helvetica,sans-Serif" font-size="11.00">active_configuration_ftp</text>
<polygon fill="#ffffff" stroke="none" points="205,-297.5 205,-319.5 449,-319.5 449,-297.5 205,-297.5"/>
<polygon fill="none" stroke="black" points="205,-297.5 205,-319.5 449,-319.5 449,-297.5 205,-297.5"/>
<image xlink:href="../../images/foreignKeys.png" width="11px" height="12px" preserveAspectRatio="xMinYMin meet" x="210" y="-314.5"/>
<text text-anchor="start" x="225" y="-304.05" font-family="Helvetica,sans-Serif" font-size="11.00">active_configuration_check</text>
<polygon fill="#ffffff" stroke="none" points="205,-275.5 205,-297.5 449,-297.5 449,-275.5 205,-275.5"/>
<polygon fill="none" stroke="black" points="205,-275.5 205,-297.5 449,-297.5 449,-275.5 205,-275.5"/>
<image xlink:href="../../images/foreignKeys.png" width="11px" height="12px" preserveAspectRatio="xMinYMin meet" x="210" y="-292.5"/>
<text text-anchor="start" x="225" y="-282.05" font-family="Helvetica,sans-Serif" font-size="11.00">provider</text>
<polygon fill="#ffffff" stroke="none" points="205,-253.5 205,-275.5 449,-275.5 449,-253.5 205,-253.5"/>
<polygon fill="none" stroke="black" points="205,-253.5 205,-275.5 449,-275.5 449,-253.5 205,-253.5"/>
<image xlink:href="../../images/foreignKeys.png" width="11px" height="12px" preserveAspectRatio="xMinYMin meet" x="210" y="-270.5"/>
<text text-anchor="start" x="225" y="-260.05" font-family="Helvetica,sans-Serif" font-size="11.00">collection_omeka</text>
<polygon fill="#ffffff" stroke="none" points="205,-231.5 205,-253.5 449,-253.5 449,-231.5 205,-231.5"/>
<polygon fill="none" stroke="black" points="205,-231.5 205,-253.5 449,-253.5 449,-231.5 205,-231.5"/>
<image xlink:href="../../images/foreignKeys.png" width="11px" height="12px" preserveAspectRatio="xMinYMin meet" x="210" y="-248.5"/>
<text text-anchor="start" x="225" y="-238.05" font-family="Helvetica,sans-Serif" font-size="11.00">items_omeka</text>
<polygon fill="#ffffff" stroke="none" points="205,-209.5 205,-231.5 449,-231.5 449,-209.5 205,-209.5"/>
<polygon fill="none" stroke="black" points="205,-209.5 205,-231.5 449,-231.5 449,-209.5 205,-209.5"/>
<image xlink:href="../../images/foreignKeys.png" width="11px" height="12px" preserveAspectRatio="xMinYMin meet" x="210" y="-226.5"/>
<text text-anchor="start" x="225" y="-216.05" font-family="Helvetica,sans-Serif" font-size="11.00">active_configuration_export_ftp</text>
<polygon fill="#ffffff" stroke="none" points="205,-187.5 205,-209.5 449,-209.5 449,-187.5 205,-187.5"/>
<polygon fill="none" stroke="black" points="205,-187.5 205,-209.5 449,-209.5 449,-187.5 205,-187.5"/>
<image xlink:href="../../images/foreignKeys.png" width="11px" height="12px" preserveAspectRatio="xMinYMin meet" x="210" y="-204.5"/>
<text text-anchor="start" x="225" y="-194.05" font-family="Helvetica,sans-Serif" font-size="11.00">collection_ia</text>
<polygon fill="#ffffff" stroke="none" points="205,-165.5 205,-187.5 449,-187.5 449,-165.5 205,-165.5"/>
<polygon fill="none" stroke="black" points="205,-165.5 205,-187.5 449,-187.5 449,-165.5 205,-165.5"/>
<image xlink:href="../../images/foreignKeys.png" width="11px" height="12px" preserveAspectRatio="xMinYMin meet" x="210" y="-182.5"/>
<text text-anchor="start" x="225" y="-172.05" font-family="Helvetica,sans-Serif" font-size="11.00">classement_pac</text>
<polygon fill="#ffffff" stroke="none" points="205,-143.5 205,-165.5 449,-165.5 449,-143.5 205,-143.5"/>
<polygon fill="none" stroke="black" points="205,-143.5 205,-165.5 449,-165.5 449,-143.5 205,-143.5"/>
<image xlink:href="../../images/foreignKeys.png" width="11px" height="12px" preserveAspectRatio="xMinYMin meet" x="210" y="-160.5"/>
<text text-anchor="start" x="225" y="-150.05" font-family="Helvetica,sans-Serif" font-size="11.00">workflow_model</text>
<polygon fill="#ffffff" stroke="none" points="205,-121.5 205,-143.5 449,-143.5 449,-121.5 205,-121.5"/>
<polygon fill="none" stroke="black" points="205,-121.5 205,-143.5 449,-143.5 449,-121.5 205,-121.5"/>
<image xlink:href="../../images/foreignKeys.png" width="11px" height="12px" preserveAspectRatio="xMinYMin meet" x="210" y="-138.5"/>
<text text-anchor="start" x="225" y="-128.05" font-family="Helvetica,sans-Serif" font-size="11.00">active_format_configuration</text>
<polygon fill="#ffffff" stroke="none" points="205,-99.5 205,-121.5 449,-121.5 449,-99.5 205,-99.5"/>
<polygon fill="none" stroke="black" points="205,-99.5 205,-121.5 449,-121.5 449,-99.5 205,-99.5"/>
<image xlink:href="../../images/foreignKeys.png" width="11px" height="12px" preserveAspectRatio="xMinYMin meet" x="210" y="-116.5"/>
<text text-anchor="start" x="225" y="-106.05" font-family="Helvetica,sans-Serif" font-size="11.00">omeka_configuration</text>
<polygon fill="#ffffff" stroke="none" points="205,-77.5 205,-99.5 449,-99.5 449,-77.5 205,-77.5"/>
<polygon fill="none" stroke="black" points="205,-77.5 205,-99.5 449,-99.5 449,-77.5 205,-77.5"/>
<image xlink:href="../../images/foreignKeys.png" width="11px" height="12px" preserveAspectRatio="xMinYMin meet" x="210" y="-94.5"/>
<text text-anchor="start" x="225" y="-84.05" font-family="Helvetica,sans-Serif" font-size="11.00">active_export_ftp_delivery_folder</text>
<polygon fill="none" stroke="black" points="205,-58 205,-77.5 449,-77.5 449,-58 205,-58"/>
<text text-anchor="start" x="208" y="-64.05" font-family="Helvetica,sans-Serif" font-size="11.00">...</text>
<polygon fill="#ffffff" stroke="none" points="205,-38.5 205,-58 294.83,-58 294.83,-38.5 205,-38.5"/>
<polygon fill="none" stroke="black" points="205,-38.5 205,-58 294.83,-58 294.83,-38.5 205,-38.5"/>
<text text-anchor="start" x="208" y="-44.55" font-family="Helvetica,sans-Serif" font-size="11.00">&lt; 13</text>
<polygon fill="#ffffff" stroke="none" points="294.83,-38.5 294.83,-58 365.92,-58 365.92,-38.5 294.83,-38.5"/>
<polygon fill="none" stroke="black" points="294.83,-38.5 294.83,-58 365.92,-58 365.92,-38.5 294.83,-38.5"/>
<text text-anchor="start" x="355.42" y="-44.55" font-family="Helvetica,sans-Serif" font-size="11.00"> &#160;</text>
<polygon fill="#ffffff" stroke="none" points="365.92,-38.5 365.92,-58 449,-58 449,-38.5 365.92,-38.5"/>
<polygon fill="none" stroke="black" points="365.92,-38.5 365.92,-58 449,-58 449,-38.5 365.92,-38.5"/>
<text text-anchor="start" x="426.5" y="-44.55" font-family="Helvetica,sans-Serif" font-size="11.00">7 &gt;</text>
</a>
</g>
</g>
<!-- user_user -->
<g id="node2" class="node">
<title>user_user</title>
<g id="a_node2"><a xlink:href="../../tables/user_user.html" xlink:title="user_user" target="_top">
<polygon fill="#ffffff" stroke="none" points="8,-199.5 8,-394 156,-394 156,-199.5 8,-199.5"/>
<polygon fill="#f5f5f5" stroke="none" points="8,-370.5 8,-394 156,-394 156,-370.5 8,-370.5"/>
<polygon fill="none" stroke="black" points="8,-370.5 8,-394 156,-394 156,-370.5 8,-370.5"/>
<text text-anchor="start" x="13" y="-379.55" font-family="Helvetica,sans-Serif" font-weight="bold" font-size="11.00">user_user</text>
<text text-anchor="start" x="114.25" y="-378.55" font-family="Helvetica,sans-Serif" font-size="11.00">[table]</text>
<polygon fill="none" stroke="black" points="8,-348.5 8,-370.5 156,-370.5 156,-348.5 8,-348.5"/>
<image xlink:href="../../images/primaryKeys.png" width="11px" height="12px" preserveAspectRatio="xMinYMin meet" x="13" y="-365.5"/>
<text text-anchor="start" x="28" y="-355.05" font-family="Helvetica,sans-Serif" font-size="11.00">identifier</text>
<polygon fill="#ffffff" stroke="none" points="8,-326.5 8,-348.5 156,-348.5 156,-326.5 8,-326.5"/>
<polygon fill="none" stroke="black" points="8,-326.5 8,-348.5 156,-348.5 156,-326.5 8,-326.5"/>
<text text-anchor="start" x="28" y="-333.05" font-family="Helvetica,sans-Serif" font-size="11.00">login</text>
<polygon fill="#ffffff" stroke="none" points="8,-304.5 8,-326.5 156,-326.5 156,-304.5 8,-304.5"/>
<polygon fill="none" stroke="black" points="8,-304.5 8,-326.5 156,-326.5 156,-304.5 8,-304.5"/>
<image xlink:href="../../images/foreignKeys.png" width="11px" height="12px" preserveAspectRatio="xMinYMin meet" x="13" y="-321.5"/>
<text text-anchor="start" x="28" y="-311.05" font-family="Helvetica,sans-Serif" font-size="11.00">role</text>
<polygon fill="#ffffff" stroke="none" points="8,-282.5 8,-304.5 156,-304.5 156,-282.5 8,-282.5"/>
<polygon fill="none" stroke="black" points="8,-282.5 8,-304.5 156,-304.5 156,-282.5 8,-282.5"/>
<image xlink:href="../../images/foreignKeys.png" width="11px" height="12px" preserveAspectRatio="xMinYMin meet" x="13" y="-299.5"/>
<text text-anchor="start" x="28" y="-289.05" font-family="Helvetica,sans-Serif" font-size="11.00">library</text>
<polygon fill="#ffffff" stroke="none" points="8,-260.5 8,-282.5 156,-282.5 156,-260.5 8,-260.5"/>
<polygon fill="none" stroke="black" points="8,-260.5 8,-282.5 156,-282.5 156,-260.5 8,-260.5"/>
<image xlink:href="../../images/foreignKeys.png" width="11px" height="12px" preserveAspectRatio="xMinYMin meet" x="13" y="-277.5"/>
<text text-anchor="start" x="28" y="-267.05" font-family="Helvetica,sans-Serif" font-size="11.00">dashboard</text>
<polygon fill="#ffffff" stroke="none" points="8,-238.5 8,-260.5 156,-260.5 156,-238.5 8,-238.5"/>
<polygon fill="none" stroke="black" points="8,-238.5 8,-260.5 156,-260.5 156,-238.5 8,-238.5"/>
<image xlink:href="../../images/foreignKeys.png" width="11px" height="12px" preserveAspectRatio="xMinYMin meet" x="13" y="-255.5"/>
<text text-anchor="start" x="28" y="-245.05" font-family="Helvetica,sans-Serif" font-size="11.00">address</text>
<polygon fill="none" stroke="black" points="8,-219 8,-238.5 156,-238.5 156,-219 8,-219"/>
<text text-anchor="start" x="11" y="-225.05" font-family="Helvetica,sans-Serif" font-size="11.00">...</text>
<polygon fill="#ffffff" stroke="none" points="8,-199.5 8,-219 61.33,-219 61.33,-199.5 8,-199.5"/>
<polygon fill="none" stroke="black" points="8,-199.5 8,-219 61.33,-219 61.33,-199.5 8,-199.5"/>
<text text-anchor="start" x="11" y="-205.55" font-family="Helvetica,sans-Serif" font-size="11.00">&lt; 4</text>
<polygon fill="#ffffff" stroke="none" points="61.33,-199.5 61.33,-219 102.67,-219 102.67,-199.5 61.33,-199.5"/>
<polygon fill="none" stroke="black" points="61.33,-199.5 61.33,-219 102.67,-219 102.67,-199.5 61.33,-199.5"/>
<text text-anchor="start" x="92.17" y="-205.55" font-family="Helvetica,sans-Serif" font-size="11.00"> &#160;</text>
<polygon fill="#ffffff" stroke="none" points="102.67,-199.5 102.67,-219 156,-219 156,-199.5 102.67,-199.5"/>
<polygon fill="none" stroke="black" points="102.67,-199.5 102.67,-219 156,-219 156,-199.5 102.67,-199.5"/>
<text text-anchor="start" x="133.5" y="-205.55" font-family="Helvetica,sans-Serif" font-size="11.00">4 &gt;</text>
</a>
</g>
</g>
<!-- proj_project&#45;&gt;user_user -->
<g id="edge1" class="edge">
<title>proj_project:w&#45;&gt;user_user:e</title>
<path fill="none" stroke="black" d="M189.5,-292.23C173.75,-309.44 188.96,-359.5 157,-359.5"/>
<polygon fill="black" stroke="black" points="196.25,-289.56 205.01,-289.97 200.28,-287.97 203.38,-286.75 203.38,-286.75 203.38,-286.75 200.28,-287.97 202.37,-283.27 196.25,-289.56"/>
<ellipse fill="none" stroke="black" cx="191.67" cy="-291.37" rx="3.2" ry="3.2"/>
</g>
<!-- proj_project_user -->
<g id="node3" class="node">
<title>proj_project_user</title>
<g id="a_node3"><a xlink:href="../../tables/proj_project_user.html" xlink:title="proj_project_user" target="_top">
<polygon fill="#ffffff" stroke="none" points="498,-359.25 498,-450.25 739.5,-450.25 739.5,-359.25 498,-359.25"/>
<polygon fill="#f5f5f5" stroke="none" points="500,-424.75 500,-448.25 737.5,-448.25 737.5,-424.75 500,-424.75"/>
<polygon fill="none" stroke="black" points="500,-424.75 500,-448.25 737.5,-448.25 737.5,-424.75 500,-424.75"/>
<text text-anchor="start" x="505" y="-433.8" font-family="Helvetica,sans-Serif" font-weight="bold" font-size="11.00">proj_project_user</text>
<text text-anchor="start" x="695.75" y="-432.8" font-family="Helvetica,sans-Serif" font-size="11.00">[table]</text>
<polygon fill="none" stroke="black" points="500,-402.75 500,-424.75 637,-424.75 637,-402.75 500,-402.75"/>
<image xlink:href="../../images/primaryKeys.png" width="11px" height="12px" preserveAspectRatio="xMinYMin meet" x="505" y="-419.75"/>
<text text-anchor="start" x="520" y="-409.3" font-family="Helvetica,sans-Serif" font-size="11.00">proj_user</text>
<polygon fill="none" stroke="black" points="637,-402.75 637,-424.75 725.88,-424.75 725.88,-402.75 637,-402.75"/>
<text text-anchor="start" x="640" y="-410.05" font-family="Helvetica,sans-Serif" font-size="11.00">varchar[191]</text>
<polygon fill="none" stroke="black" points="500,-380.75 500,-402.75 637,-402.75 637,-380.75 500,-380.75"/>
<image xlink:href="../../images/primaryKeys.png" width="11px" height="12px" preserveAspectRatio="xMinYMin meet" x="505" y="-397.75"/>
<text text-anchor="start" x="520" y="-387.3" font-family="Helvetica,sans-Serif" font-size="11.00">project</text>
<polygon fill="none" stroke="black" points="637,-380.75 637,-402.75 725.88,-402.75 725.88,-380.75 637,-380.75"/>
<text text-anchor="start" x="640" y="-388.05" font-family="Helvetica,sans-Serif" font-size="11.00">varchar[191]</text>
<polygon fill="#ffffff" stroke="none" points="500,-361.25 500,-380.75 574.5,-380.75 574.5,-361.25 500,-361.25"/>
<polygon fill="none" stroke="black" points="500,-361.25 500,-380.75 574.5,-380.75 574.5,-361.25 500,-361.25"/>
<text text-anchor="start" x="503" y="-367.3" font-family="Helvetica,sans-Serif" font-size="11.00">&lt; 2</text>
<polygon fill="#ffffff" stroke="none" points="574.5,-361.25 574.5,-380.75 637,-380.75 637,-361.25 574.5,-361.25"/>
<polygon fill="none" stroke="black" points="574.5,-361.25 574.5,-380.75 637,-380.75 637,-361.25 574.5,-361.25"/>
<text text-anchor="start" x="626.5" y="-367.3" font-family="Helvetica,sans-Serif" font-size="11.00"> &#160;</text>
<polygon fill="#ffffff" stroke="none" points="637,-361.25 637,-380.75 725.88,-380.75 725.88,-361.25 637,-361.25"/>
<polygon fill="none" stroke="black" points="637,-361.25 637,-380.75 725.88,-380.75 725.88,-361.25 637,-361.25"/>
<text text-anchor="start" x="703.38" y="-367.3" font-family="Helvetica,sans-Serif" font-size="11.00">0 &gt;</text>
<polygon fill="none" stroke="black" stroke-width="2" points="499,-360.25 499,-449.25 738.5,-449.25 738.5,-360.25 499,-360.25"/>
</a>
</g>
</g>
<!-- proj_project_user&#45;&gt;proj_project -->
<g id="edge3" class="edge">
<title>proj_project_user:w&#45;&gt;proj_project:e</title>
<path fill="none" stroke="black" d="M483.78,-388.59C472.85,-383.61 466.77,-374.5 450,-374.5"/>
<polygon fill="black" stroke="black" points="490.84,-390.05 497.94,-395.21 495.08,-390.94 498.35,-391.61 498.35,-391.61 498.35,-391.61 495.08,-390.94 499.41,-388.16 490.84,-390.05"/>
<ellipse fill="none" stroke="black" cx="486.02" cy="-389.05" rx="3.2" ry="3.2"/>
</g>
<!-- proj_project_user&#45;&gt;user_user -->
<g id="edge2" class="edge">
<title>proj_project_user:w&#45;&gt;user_user:e</title>
<path fill="none" stroke="black" d="M483.24,-415.13C475.31,-416.62 469.2,-418.88 457,-419.75 341.74,-427.94 298.83,-474.37 197,-419.75 168.68,-404.56 189.14,-359.5 157,-359.5"/>
<polygon fill="black" stroke="black" points="490.7,-414.48 498.98,-417.37 495.02,-414.1 498.33,-413.81 498.33,-413.81 498.33,-413.81 495.02,-414.1 498.35,-410.19 490.7,-414.48"/>
<ellipse fill="none" stroke="black" cx="485.8" cy="-414.91" rx="3.2" ry="3.2"/>
</g>
</g>
</svg>
