<?xml version="1.0" encoding="UTF-8" standalone="no"?>
<!DOCTYPE svg PUBLIC "-//W3C//DTD SVG 1.1//EN"
 "http://www.w3.org/Graphics/SVG/1.1/DTD/svg11.dtd">
<!-- Generated by graphviz version 12.2.0 (0)
 -->
<!-- Title: oneDegreeRelationshipsDiagram Pages: 1 -->
<svg width="602pt" height="571pt"
 viewBox="0.00 0.00 602.00 571.00" xmlns="http://www.w3.org/2000/svg" xmlns:xlink="http://www.w3.org/1999/xlink">
<g id="graph0" class="graph" transform="scale(1 1) rotate(0) translate(4 567)">
<title>oneDegreeRelationshipsDiagram</title>
<polygon fill="#ffffff" stroke="none" points="-4,4 -4,-567 598,-567 598,4 -4,4"/>
<text text-anchor="middle" x="79.25" y="-7.05" font-family="Helvetica,sans-Serif" font-size="11.00">Generated by SchemaSpy</text>
<!-- proj_project_platform -->
<g id="node1" class="node">
<title>proj_project_platform</title>
<g id="a_node1"><a xlink:href="../../tables/proj_project_platform.html" xlink:title="proj_project_platform" target="_top">
<polygon fill="#ffffff" stroke="none" points="301,-405.25 301,-496.25 586,-496.25 586,-405.25 301,-405.25"/>
<polygon fill="#f5f5f5" stroke="none" points="303,-470.75 303,-494.25 584,-494.25 584,-470.75 303,-470.75"/>
<polygon fill="none" stroke="black" points="303,-470.75 303,-494.25 584,-494.25 584,-470.75 303,-470.75"/>
<text text-anchor="start" x="308" y="-479.8" font-family="Helvetica,sans-Serif" font-weight="bold" font-size="11.00">proj_project_platform</text>
<text text-anchor="start" x="542.25" y="-478.8" font-family="Helvetica,sans-Serif" font-size="11.00">[table]</text>
<polygon fill="none" stroke="black" points="303,-448.75 303,-470.75 469,-470.75 469,-448.75 303,-448.75"/>
<image xlink:href="../../images/primaryKeys.png" width="11px" height="12px" preserveAspectRatio="xMinYMin meet" x="308" y="-465.75"/>
<text text-anchor="start" x="323" y="-455.3" font-family="Helvetica,sans-Serif" font-size="11.00">proj_platform</text>
<polygon fill="none" stroke="black" points="469,-448.75 469,-470.75 565.12,-470.75 565.12,-448.75 469,-448.75"/>
<text text-anchor="start" x="472" y="-456.05" font-family="Helvetica,sans-Serif" font-size="11.00">varchar[191]</text>
<polygon fill="none" stroke="black" points="303,-426.75 303,-448.75 469,-448.75 469,-426.75 303,-426.75"/>
<image xlink:href="../../images/primaryKeys.png" width="11px" height="12px" preserveAspectRatio="xMinYMin meet" x="308" y="-443.75"/>
<text text-anchor="start" x="323" y="-433.3" font-family="Helvetica,sans-Serif" font-size="11.00">project</text>
<polygon fill="none" stroke="black" points="469,-426.75 469,-448.75 565.12,-448.75 565.12,-426.75 469,-426.75"/>
<text text-anchor="start" x="472" y="-434.05" font-family="Helvetica,sans-Serif" font-size="11.00">varchar[191]</text>
<polygon fill="#ffffff" stroke="none" points="303,-407.25 303,-426.75 392,-426.75 392,-407.25 303,-407.25"/>
<polygon fill="none" stroke="black" points="303,-407.25 303,-426.75 392,-426.75 392,-407.25 303,-407.25"/>
<text text-anchor="start" x="306" y="-413.3" font-family="Helvetica,sans-Serif" font-size="11.00">&lt; 2</text>
<polygon fill="#ffffff" stroke="none" points="392,-407.25 392,-426.75 469,-426.75 469,-407.25 392,-407.25"/>
<polygon fill="none" stroke="black" points="392,-407.25 392,-426.75 469,-426.75 469,-407.25 392,-407.25"/>
<text text-anchor="start" x="458.5" y="-413.3" font-family="Helvetica,sans-Serif" font-size="11.00"> &#160;</text>
<polygon fill="#ffffff" stroke="none" points="469,-407.25 469,-426.75 565.12,-426.75 565.12,-407.25 469,-407.25"/>
<polygon fill="none" stroke="black" points="469,-407.25 469,-426.75 565.12,-426.75 565.12,-407.25 469,-407.25"/>
<text text-anchor="start" x="542.62" y="-413.3" font-family="Helvetica,sans-Serif" font-size="11.00">0 &gt;</text>
<polygon fill="none" stroke="black" stroke-width="2" points="302,-406.25 302,-495.25 585,-495.25 585,-406.25 302,-406.25"/>
</a>
</g>
</g>
<!-- plat_platform -->
<g id="node2" class="node">
<title>plat_platform</title>
<g id="a_node2"><a xlink:href="../../tables/plat_platform.html" xlink:title="plat_platform" target="_top">
<polygon fill="#ffffff" stroke="none" points="56,-430.5 56,-559 204,-559 204,-430.5 56,-430.5"/>
<polygon fill="#f5f5f5" stroke="none" points="56,-535.5 56,-559 204,-559 204,-535.5 56,-535.5"/>
<polygon fill="none" stroke="black" points="56,-535.5 56,-559 204,-559 204,-535.5 56,-535.5"/>
<text text-anchor="start" x="61" y="-544.55" font-family="Helvetica,sans-Serif" font-weight="bold" font-size="11.00">plat_platform</text>
<text text-anchor="start" x="162.25" y="-543.55" font-family="Helvetica,sans-Serif" font-size="11.00">[table]</text>
<polygon fill="none" stroke="black" points="56,-513.5 56,-535.5 204,-535.5 204,-513.5 56,-513.5"/>
<image xlink:href="../../images/primaryKeys.png" width="11px" height="12px" preserveAspectRatio="xMinYMin meet" x="61" y="-530.5"/>
<text text-anchor="start" x="76" y="-520.05" font-family="Helvetica,sans-Serif" font-size="11.00">identifier</text>
<polygon fill="#ffffff" stroke="none" points="56,-491.5 56,-513.5 204,-513.5 204,-491.5 56,-491.5"/>
<polygon fill="none" stroke="black" points="56,-491.5 56,-513.5 204,-513.5 204,-491.5 56,-491.5"/>
<image xlink:href="../../images/foreignKeys.png" width="11px" height="12px" preserveAspectRatio="xMinYMin meet" x="61" y="-508.5"/>
<text text-anchor="start" x="76" y="-498.05" font-family="Helvetica,sans-Serif" font-size="11.00">library</text>
<polygon fill="#ffffff" stroke="none" points="56,-469.5 56,-491.5 204,-491.5 204,-469.5 56,-469.5"/>
<polygon fill="none" stroke="black" points="56,-469.5 56,-491.5 204,-491.5 204,-469.5 56,-469.5"/>
<image xlink:href="../../images/foreignKeys.png" width="11px" height="12px" preserveAspectRatio="xMinYMin meet" x="61" y="-486.5"/>
<text text-anchor="start" x="76" y="-476.05" font-family="Helvetica,sans-Serif" font-size="11.00">lot</text>
<polygon fill="none" stroke="black" points="56,-450 56,-469.5 204,-469.5 204,-450 56,-450"/>
<text text-anchor="start" x="59" y="-456.05" font-family="Helvetica,sans-Serif" font-size="11.00">...</text>
<polygon fill="#ffffff" stroke="none" points="56,-430.5 56,-450 109.33,-450 109.33,-430.5 56,-430.5"/>
<polygon fill="none" stroke="black" points="56,-430.5 56,-450 109.33,-450 109.33,-430.5 56,-430.5"/>
<text text-anchor="start" x="59" y="-436.55" font-family="Helvetica,sans-Serif" font-size="11.00">&lt; 2</text>
<polygon fill="#ffffff" stroke="none" points="109.33,-430.5 109.33,-450 150.67,-450 150.67,-430.5 109.33,-430.5"/>
<polygon fill="none" stroke="black" points="109.33,-430.5 109.33,-450 150.67,-450 150.67,-430.5 109.33,-430.5"/>
<text text-anchor="start" x="140.17" y="-436.55" font-family="Helvetica,sans-Serif" font-size="11.00"> &#160;</text>
<polygon fill="#ffffff" stroke="none" points="150.67,-430.5 150.67,-450 204,-450 204,-430.5 150.67,-430.5"/>
<polygon fill="none" stroke="black" points="150.67,-430.5 150.67,-450 204,-450 204,-430.5 150.67,-430.5"/>
<text text-anchor="start" x="181.5" y="-436.55" font-family="Helvetica,sans-Serif" font-size="11.00">1 &gt;</text>
</a>
</g>
</g>
<!-- proj_project_platform&#45;&gt;plat_platform -->
<g id="edge1" class="edge">
<title>proj_project_platform:w&#45;&gt;plat_platform:e</title>
<path fill="none" stroke="black" d="M286.47,-462.05C250.93,-473.59 250.96,-524.5 205,-524.5"/>
<polygon fill="black" stroke="black" points="293.76,-460.97 302.2,-463.36 298.04,-460.34 301.34,-459.85 301.34,-459.85 301.34,-459.85 298.04,-460.34 301.14,-456.24 293.76,-460.97"/>
<ellipse fill="none" stroke="black" cx="288.89" cy="-461.69" rx="3.2" ry="3.2"/>
</g>
<!-- proj_project -->
<g id="node3" class="node">
<title>proj_project</title>
<g id="a_node3"><a xlink:href="../../tables/proj_project.html" xlink:title="proj_project" target="_top">
<polygon fill="#ffffff" stroke="none" points="8,-38.5 8,-409 252,-409 252,-38.5 8,-38.5"/>
<polygon fill="#f5f5f5" stroke="none" points="8,-385.5 8,-409 252,-409 252,-385.5 8,-385.5"/>
<polygon fill="none" stroke="black" points="8,-385.5 8,-409 252,-409 252,-385.5 8,-385.5"/>
<text text-anchor="start" x="13" y="-394.55" font-family="Helvetica,sans-Serif" font-weight="bold" font-size="11.00">proj_project</text>
<text text-anchor="start" x="210.25" y="-393.55" font-family="Helvetica,sans-Serif" font-size="11.00">[table]</text>
<polygon fill="none" stroke="black" points="8,-363.5 8,-385.5 252,-385.5 252,-363.5 8,-363.5"/>
<image xlink:href="../../images/primaryKeys.png" width="11px" height="12px" preserveAspectRatio="xMinYMin meet" x="13" y="-380.5"/>
<text text-anchor="start" x="28" y="-370.05" font-family="Helvetica,sans-Serif" font-size="11.00">identifier</text>
<polygon fill="#ffffff" stroke="none" points="8,-341.5 8,-363.5 252,-363.5 252,-341.5 8,-341.5"/>
<polygon fill="none" stroke="black" points="8,-341.5 8,-363.5 252,-363.5 252,-341.5 8,-341.5"/>
<image xlink:href="../../images/foreignKeys.png" width="11px" height="12px" preserveAspectRatio="xMinYMin meet" x="13" y="-358.5"/>
<text text-anchor="start" x="28" y="-348.05" font-family="Helvetica,sans-Serif" font-size="11.00">library</text>
<polygon fill="#ffffff" stroke="none" points="8,-319.5 8,-341.5 252,-341.5 252,-319.5 8,-319.5"/>
<polygon fill="none" stroke="black" points="8,-319.5 8,-341.5 252,-341.5 252,-319.5 8,-319.5"/>
<image xlink:href="../../images/foreignKeys.png" width="11px" height="12px" preserveAspectRatio="xMinYMin meet" x="13" y="-336.5"/>
<text text-anchor="start" x="28" y="-326.05" font-family="Helvetica,sans-Serif" font-size="11.00">active_configuration_ftp</text>
<polygon fill="#ffffff" stroke="none" points="8,-297.5 8,-319.5 252,-319.5 252,-297.5 8,-297.5"/>
<polygon fill="none" stroke="black" points="8,-297.5 8,-319.5 252,-319.5 252,-297.5 8,-297.5"/>
<image xlink:href="../../images/foreignKeys.png" width="11px" height="12px" preserveAspectRatio="xMinYMin meet" x="13" y="-314.5"/>
<text text-anchor="start" x="28" y="-304.05" font-family="Helvetica,sans-Serif" font-size="11.00">active_configuration_check</text>
<polygon fill="#ffffff" stroke="none" points="8,-275.5 8,-297.5 252,-297.5 252,-275.5 8,-275.5"/>
<polygon fill="none" stroke="black" points="8,-275.5 8,-297.5 252,-297.5 252,-275.5 8,-275.5"/>
<image xlink:href="../../images/foreignKeys.png" width="11px" height="12px" preserveAspectRatio="xMinYMin meet" x="13" y="-292.5"/>
<text text-anchor="start" x="28" y="-282.05" font-family="Helvetica,sans-Serif" font-size="11.00">provider</text>
<polygon fill="#ffffff" stroke="none" points="8,-253.5 8,-275.5 252,-275.5 252,-253.5 8,-253.5"/>
<polygon fill="none" stroke="black" points="8,-253.5 8,-275.5 252,-275.5 252,-253.5 8,-253.5"/>
<image xlink:href="../../images/foreignKeys.png" width="11px" height="12px" preserveAspectRatio="xMinYMin meet" x="13" y="-270.5"/>
<text text-anchor="start" x="28" y="-260.05" font-family="Helvetica,sans-Serif" font-size="11.00">collection_omeka</text>
<polygon fill="#ffffff" stroke="none" points="8,-231.5 8,-253.5 252,-253.5 252,-231.5 8,-231.5"/>
<polygon fill="none" stroke="black" points="8,-231.5 8,-253.5 252,-253.5 252,-231.5 8,-231.5"/>
<image xlink:href="../../images/foreignKeys.png" width="11px" height="12px" preserveAspectRatio="xMinYMin meet" x="13" y="-248.5"/>
<text text-anchor="start" x="28" y="-238.05" font-family="Helvetica,sans-Serif" font-size="11.00">items_omeka</text>
<polygon fill="#ffffff" stroke="none" points="8,-209.5 8,-231.5 252,-231.5 252,-209.5 8,-209.5"/>
<polygon fill="none" stroke="black" points="8,-209.5 8,-231.5 252,-231.5 252,-209.5 8,-209.5"/>
<image xlink:href="../../images/foreignKeys.png" width="11px" height="12px" preserveAspectRatio="xMinYMin meet" x="13" y="-226.5"/>
<text text-anchor="start" x="28" y="-216.05" font-family="Helvetica,sans-Serif" font-size="11.00">active_configuration_export_ftp</text>
<polygon fill="#ffffff" stroke="none" points="8,-187.5 8,-209.5 252,-209.5 252,-187.5 8,-187.5"/>
<polygon fill="none" stroke="black" points="8,-187.5 8,-209.5 252,-209.5 252,-187.5 8,-187.5"/>
<image xlink:href="../../images/foreignKeys.png" width="11px" height="12px" preserveAspectRatio="xMinYMin meet" x="13" y="-204.5"/>
<text text-anchor="start" x="28" y="-194.05" font-family="Helvetica,sans-Serif" font-size="11.00">collection_ia</text>
<polygon fill="#ffffff" stroke="none" points="8,-165.5 8,-187.5 252,-187.5 252,-165.5 8,-165.5"/>
<polygon fill="none" stroke="black" points="8,-165.5 8,-187.5 252,-187.5 252,-165.5 8,-165.5"/>
<image xlink:href="../../images/foreignKeys.png" width="11px" height="12px" preserveAspectRatio="xMinYMin meet" x="13" y="-182.5"/>
<text text-anchor="start" x="28" y="-172.05" font-family="Helvetica,sans-Serif" font-size="11.00">classement_pac</text>
<polygon fill="#ffffff" stroke="none" points="8,-143.5 8,-165.5 252,-165.5 252,-143.5 8,-143.5"/>
<polygon fill="none" stroke="black" points="8,-143.5 8,-165.5 252,-165.5 252,-143.5 8,-143.5"/>
<image xlink:href="../../images/foreignKeys.png" width="11px" height="12px" preserveAspectRatio="xMinYMin meet" x="13" y="-160.5"/>
<text text-anchor="start" x="28" y="-150.05" font-family="Helvetica,sans-Serif" font-size="11.00">workflow_model</text>
<polygon fill="#ffffff" stroke="none" points="8,-121.5 8,-143.5 252,-143.5 252,-121.5 8,-121.5"/>
<polygon fill="none" stroke="black" points="8,-121.5 8,-143.5 252,-143.5 252,-121.5 8,-121.5"/>
<image xlink:href="../../images/foreignKeys.png" width="11px" height="12px" preserveAspectRatio="xMinYMin meet" x="13" y="-138.5"/>
<text text-anchor="start" x="28" y="-128.05" font-family="Helvetica,sans-Serif" font-size="11.00">active_format_configuration</text>
<polygon fill="#ffffff" stroke="none" points="8,-99.5 8,-121.5 252,-121.5 252,-99.5 8,-99.5"/>
<polygon fill="none" stroke="black" points="8,-99.5 8,-121.5 252,-121.5 252,-99.5 8,-99.5"/>
<image xlink:href="../../images/foreignKeys.png" width="11px" height="12px" preserveAspectRatio="xMinYMin meet" x="13" y="-116.5"/>
<text text-anchor="start" x="28" y="-106.05" font-family="Helvetica,sans-Serif" font-size="11.00">omeka_configuration</text>
<polygon fill="#ffffff" stroke="none" points="8,-77.5 8,-99.5 252,-99.5 252,-77.5 8,-77.5"/>
<polygon fill="none" stroke="black" points="8,-77.5 8,-99.5 252,-99.5 252,-77.5 8,-77.5"/>
<image xlink:href="../../images/foreignKeys.png" width="11px" height="12px" preserveAspectRatio="xMinYMin meet" x="13" y="-94.5"/>
<text text-anchor="start" x="28" y="-84.05" font-family="Helvetica,sans-Serif" font-size="11.00">active_export_ftp_delivery_folder</text>
<polygon fill="none" stroke="black" points="8,-58 8,-77.5 252,-77.5 252,-58 8,-58"/>
<text text-anchor="start" x="11" y="-64.05" font-family="Helvetica,sans-Serif" font-size="11.00">...</text>
<polygon fill="#ffffff" stroke="none" points="8,-38.5 8,-58 97.83,-58 97.83,-38.5 8,-38.5"/>
<polygon fill="none" stroke="black" points="8,-38.5 8,-58 97.83,-58 97.83,-38.5 8,-38.5"/>
<text text-anchor="start" x="11" y="-44.55" font-family="Helvetica,sans-Serif" font-size="11.00">&lt; 13</text>
<polygon fill="#ffffff" stroke="none" points="97.83,-38.5 97.83,-58 168.92,-58 168.92,-38.5 97.83,-38.5"/>
<polygon fill="none" stroke="black" points="97.83,-38.5 97.83,-58 168.92,-58 168.92,-38.5 97.83,-38.5"/>
<text text-anchor="start" x="158.42" y="-44.55" font-family="Helvetica,sans-Serif" font-size="11.00"> &#160;</text>
<polygon fill="#ffffff" stroke="none" points="168.92,-38.5 168.92,-58 252,-58 252,-38.5 168.92,-38.5"/>
<polygon fill="none" stroke="black" points="168.92,-38.5 168.92,-58 252,-58 252,-38.5 168.92,-38.5"/>
<text text-anchor="start" x="229.5" y="-44.55" font-family="Helvetica,sans-Serif" font-size="11.00">7 &gt;</text>
</a>
</g>
</g>
<!-- proj_project_platform&#45;&gt;proj_project -->
<g id="edge2" class="edge">
<title>proj_project_platform:w&#45;&gt;proj_project:e</title>
<path fill="none" stroke="black" d="M287.32,-431.91C272.71,-416.25 281.89,-374.5 253,-374.5"/>
<polygon fill="black" stroke="black" points="294.26,-434.67 300.36,-440.97 298.28,-436.27 301.38,-437.5 301.38,-437.5 301.38,-437.5 298.28,-436.27 303.02,-434.28 294.26,-434.67"/>
<ellipse fill="none" stroke="black" cx="289.68" cy="-432.85" rx="3.2" ry="3.2"/>
</g>
</g>
</svg>
