<?xml version="1.0" encoding="UTF-8" standalone="no"?>
<!DOCTYPE svg PUBLIC "-//W3C//DTD SVG 1.1//EN"
 "http://www.w3.org/Graphics/SVG/1.1/DTD/svg11.dtd">
<!-- Generated by graphviz version 12.2.0 (0)
 -->
<!-- Title: oneDegreeRelationshipsDiagram Pages: 1 -->
<svg width="837pt" height="728pt"
 viewBox="0.00 0.00 836.50 728.00" xmlns="http://www.w3.org/2000/svg" xmlns:xlink="http://www.w3.org/1999/xlink">
<g id="graph0" class="graph" transform="scale(1 1) rotate(0) translate(4 724)">
<title>oneDegreeRelationshipsDiagram</title>
<polygon fill="#ffffff" stroke="none" points="-4,4 -4,-724 832.5,-724 832.5,4 -4,4"/>
<text text-anchor="middle" x="79.25" y="-7.05" font-family="Helvetica,sans-Serif" font-size="11.00">Generated by SchemaSpy</text>
<!-- doc_physical_document -->
<g id="node1" class="node">
<title>doc_physical_document</title>
<g id="a_node1"><a xlink:href="../../tables/doc_physical_document.html" xlink:title="doc_physical_document" target="_top">
<polygon fill="#ffffff" stroke="none" points="615.75,-587.5 615.75,-716 820.5,-716 820.5,-587.5 615.75,-587.5"/>
<polygon fill="#f5f5f5" stroke="none" points="615.75,-692.5 615.75,-716 820.5,-716 820.5,-692.5 615.75,-692.5"/>
<polygon fill="none" stroke="black" points="615.75,-692.5 615.75,-716 820.5,-716 820.5,-692.5 615.75,-692.5"/>
<text text-anchor="start" x="620.75" y="-701.55" font-family="Helvetica,sans-Serif" font-weight="bold" font-size="11.00">doc_physical_document</text>
<text text-anchor="start" x="778.75" y="-700.55" font-family="Helvetica,sans-Serif" font-size="11.00">[table]</text>
<polygon fill="none" stroke="black" points="615.75,-670.5 615.75,-692.5 820.5,-692.5 820.5,-670.5 615.75,-670.5"/>
<image xlink:href="../../images/primaryKeys.png" width="11px" height="12px" preserveAspectRatio="xMinYMin meet" x="620.75" y="-687.5"/>
<text text-anchor="start" x="648.62" y="-677.05" font-family="Helvetica,sans-Serif" font-size="11.00">identifier</text>
<polygon fill="#ffffff" stroke="none" points="615.75,-648.5 615.75,-670.5 820.5,-670.5 820.5,-648.5 615.75,-648.5"/>
<polygon fill="none" stroke="black" points="615.75,-648.5 615.75,-670.5 820.5,-670.5 820.5,-648.5 615.75,-648.5"/>
<image xlink:href="../../images/foreignKeys.png" width="11px" height="12px" preserveAspectRatio="xMinYMin meet" x="620.75" y="-665.5"/>
<text text-anchor="start" x="648.62" y="-655.05" font-family="Helvetica,sans-Serif" font-size="11.00">doc_unit</text>
<polygon fill="#ffffff" stroke="none" points="615.75,-626.5 615.75,-648.5 820.5,-648.5 820.5,-626.5 615.75,-626.5"/>
<polygon fill="none" stroke="black" points="615.75,-626.5 615.75,-648.5 820.5,-648.5 820.5,-626.5 615.75,-626.5"/>
<image xlink:href="../../images/foreignKeys.png" width="11px" height="12px" preserveAspectRatio="xMinYMin meet" x="620.75" y="-643.5"/>
<text text-anchor="start" x="648.62" y="-633.05" font-family="Helvetica,sans-Serif" font-size="11.00">train</text>
<polygon fill="none" stroke="black" points="615.75,-607 615.75,-626.5 820.5,-626.5 820.5,-607 615.75,-607"/>
<text text-anchor="start" x="618.75" y="-613.05" font-family="Helvetica,sans-Serif" font-size="11.00">...</text>
<polygon fill="#ffffff" stroke="none" points="615.75,-587.5 615.75,-607 688,-607 688,-587.5 615.75,-587.5"/>
<polygon fill="none" stroke="black" points="615.75,-587.5 615.75,-607 688,-607 688,-587.5 615.75,-587.5"/>
<text text-anchor="start" x="618.75" y="-593.55" font-family="Helvetica,sans-Serif" font-size="11.00">&lt; 2</text>
<polygon fill="#ffffff" stroke="none" points="688,-587.5 688,-607 748.25,-607 748.25,-587.5 688,-587.5"/>
<polygon fill="none" stroke="black" points="688,-587.5 688,-607 748.25,-607 748.25,-587.5 688,-587.5"/>
<text text-anchor="start" x="737.75" y="-593.55" font-family="Helvetica,sans-Serif" font-size="11.00"> &#160;</text>
<polygon fill="#ffffff" stroke="none" points="748.25,-587.5 748.25,-607 820.5,-607 820.5,-587.5 748.25,-587.5"/>
<polygon fill="none" stroke="black" points="748.25,-587.5 748.25,-607 820.5,-607 820.5,-587.5 748.25,-587.5"/>
<text text-anchor="start" x="798" y="-593.55" font-family="Helvetica,sans-Serif" font-size="11.00">2 &gt;</text>
</a>
</g>
</g>
<!-- train_train -->
<g id="node2" class="node">
<title>train_train</title>
<g id="a_node2"><a xlink:href="../../tables/train_train.html" xlink:title="train_train" target="_top">
<polygon fill="#ffffff" stroke="none" points="301,-341.25 301,-674.25 566.75,-674.25 566.75,-341.25 301,-341.25"/>
<polygon fill="#f5f5f5" stroke="none" points="303,-648.75 303,-672.25 564.75,-672.25 564.75,-648.75 303,-648.75"/>
<polygon fill="none" stroke="black" points="303,-648.75 303,-672.25 564.75,-672.25 564.75,-648.75 303,-648.75"/>
<text text-anchor="start" x="308" y="-657.8" font-family="Helvetica,sans-Serif" font-weight="bold" font-size="11.00">train_train</text>
<text text-anchor="start" x="523" y="-656.8" font-family="Helvetica,sans-Serif" font-size="11.00">[table]</text>
<polygon fill="none" stroke="black" points="303,-626.75 303,-648.75 477,-648.75 477,-626.75 303,-626.75"/>
<image xlink:href="../../images/primaryKeys.png" width="11px" height="12px" preserveAspectRatio="xMinYMin meet" x="308" y="-643.75"/>
<text text-anchor="start" x="323" y="-633.3" font-family="Helvetica,sans-Serif" font-size="11.00">identifier</text>
<polygon fill="none" stroke="black" points="477,-626.75 477,-648.75 564.75,-648.75 564.75,-626.75 477,-626.75"/>
<text text-anchor="start" x="480" y="-634.05" font-family="Helvetica,sans-Serif" font-size="11.00">varchar[191]</text>
<polygon fill="none" stroke="black" points="303,-604.75 303,-626.75 477,-626.75 477,-604.75 303,-604.75"/>
<text text-anchor="start" x="323" y="-611.3" font-family="Helvetica,sans-Serif" font-size="11.00">label</text>
<polygon fill="none" stroke="black" points="477,-604.75 477,-626.75 564.75,-626.75 564.75,-604.75 477,-604.75"/>
<text text-anchor="start" x="480" y="-612.05" font-family="Helvetica,sans-Serif" font-size="11.00">varchar[255]</text>
<polygon fill="none" stroke="black" points="303,-582.75 303,-604.75 477,-604.75 477,-582.75 303,-582.75"/>
<text text-anchor="start" x="323" y="-589.3" font-family="Helvetica,sans-Serif" font-size="11.00">description</text>
<polygon fill="none" stroke="black" points="477,-582.75 477,-604.75 564.75,-604.75 564.75,-582.75 477,-582.75"/>
<text text-anchor="start" x="480" y="-590.05" font-family="Helvetica,sans-Serif" font-size="11.00">varchar[2000]</text>
<polygon fill="none" stroke="black" points="303,-560.75 303,-582.75 477,-582.75 477,-560.75 303,-560.75"/>
<text text-anchor="start" x="323" y="-567.3" font-family="Helvetica,sans-Serif" font-size="11.00">active</text>
<polygon fill="none" stroke="black" points="477,-560.75 477,-582.75 564.75,-582.75 564.75,-560.75 477,-560.75"/>
<text text-anchor="start" x="480" y="-568.05" font-family="Helvetica,sans-Serif" font-size="11.00">bit[1]</text>
<polygon fill="none" stroke="black" points="303,-538.75 303,-560.75 477,-560.75 477,-538.75 303,-538.75"/>
<text text-anchor="start" x="323" y="-545.3" font-family="Helvetica,sans-Serif" font-size="11.00">status</text>
<polygon fill="none" stroke="black" points="477,-538.75 477,-560.75 564.75,-560.75 564.75,-538.75 477,-538.75"/>
<text text-anchor="start" x="480" y="-546.05" font-family="Helvetica,sans-Serif" font-size="11.00">varchar[255]</text>
<polygon fill="none" stroke="black" points="303,-516.75 303,-538.75 477,-538.75 477,-516.75 303,-516.75"/>
<text text-anchor="start" x="323" y="-523.3" font-family="Helvetica,sans-Serif" font-size="11.00">provider_sending_date</text>
<polygon fill="none" stroke="black" points="477,-516.75 477,-538.75 564.75,-538.75 564.75,-516.75 477,-516.75"/>
<text text-anchor="start" x="480" y="-524.05" font-family="Helvetica,sans-Serif" font-size="11.00">date[10]</text>
<polygon fill="none" stroke="black" points="303,-494.75 303,-516.75 477,-516.75 477,-494.75 303,-494.75"/>
<text text-anchor="start" x="323" y="-501.3" font-family="Helvetica,sans-Serif" font-size="11.00">return_date</text>
<polygon fill="none" stroke="black" points="477,-494.75 477,-516.75 564.75,-516.75 564.75,-494.75 477,-494.75"/>
<text text-anchor="start" x="480" y="-502.05" font-family="Helvetica,sans-Serif" font-size="11.00">date[10]</text>
<polygon fill="none" stroke="black" points="303,-472.75 303,-494.75 477,-494.75 477,-472.75 303,-472.75"/>
<text text-anchor="start" x="323" y="-479.3" font-family="Helvetica,sans-Serif" font-size="11.00">version</text>
<polygon fill="none" stroke="black" points="477,-472.75 477,-494.75 564.75,-494.75 564.75,-472.75 477,-472.75"/>
<text text-anchor="start" x="480" y="-480.05" font-family="Helvetica,sans-Serif" font-size="11.00">bigint[19]</text>
<polygon fill="none" stroke="black" points="303,-450.75 303,-472.75 477,-472.75 477,-450.75 303,-450.75"/>
<text text-anchor="start" x="323" y="-457.3" font-family="Helvetica,sans-Serif" font-size="11.00">created_by</text>
<polygon fill="none" stroke="black" points="477,-450.75 477,-472.75 564.75,-472.75 564.75,-450.75 477,-450.75"/>
<text text-anchor="start" x="480" y="-458.05" font-family="Helvetica,sans-Serif" font-size="11.00">varchar[191]</text>
<polygon fill="none" stroke="black" points="303,-428.75 303,-450.75 477,-450.75 477,-428.75 303,-428.75"/>
<text text-anchor="start" x="323" y="-435.3" font-family="Helvetica,sans-Serif" font-size="11.00">last_modified_by</text>
<polygon fill="none" stroke="black" points="477,-428.75 477,-450.75 564.75,-450.75 564.75,-428.75 477,-428.75"/>
<text text-anchor="start" x="480" y="-436.05" font-family="Helvetica,sans-Serif" font-size="11.00">varchar[191]</text>
<polygon fill="none" stroke="black" points="303,-406.75 303,-428.75 477,-428.75 477,-406.75 303,-406.75"/>
<text text-anchor="start" x="323" y="-413.3" font-family="Helvetica,sans-Serif" font-size="11.00">created_date</text>
<polygon fill="none" stroke="black" points="477,-406.75 477,-428.75 564.75,-428.75 564.75,-406.75 477,-406.75"/>
<text text-anchor="start" x="480" y="-414.05" font-family="Helvetica,sans-Serif" font-size="11.00">timestamp[19]</text>
<polygon fill="none" stroke="black" points="303,-384.75 303,-406.75 477,-406.75 477,-384.75 303,-384.75"/>
<text text-anchor="start" x="323" y="-391.3" font-family="Helvetica,sans-Serif" font-size="11.00">last_modified_date</text>
<polygon fill="none" stroke="black" points="477,-384.75 477,-406.75 564.75,-406.75 564.75,-384.75 477,-384.75"/>
<text text-anchor="start" x="480" y="-392.05" font-family="Helvetica,sans-Serif" font-size="11.00">timestamp[19]</text>
<polygon fill="#ffffff" stroke="none" points="303,-362.75 303,-384.75 477,-384.75 477,-362.75 303,-362.75"/>
<polygon fill="none" stroke="black" points="303,-362.75 303,-384.75 477,-384.75 477,-362.75 303,-362.75"/>
<image xlink:href="../../images/foreignKeys.png" width="11px" height="12px" preserveAspectRatio="xMinYMin meet" x="308" y="-379.75"/>
<text text-anchor="start" x="323" y="-369.3" font-family="Helvetica,sans-Serif" font-size="11.00">project</text>
<polygon fill="none" stroke="black" points="477,-362.75 477,-384.75 564.75,-384.75 564.75,-362.75 477,-362.75"/>
<text text-anchor="start" x="480" y="-370.05" font-family="Helvetica,sans-Serif" font-size="11.00">varchar[191]</text>
<polygon fill="#ffffff" stroke="none" points="303,-343.25 303,-362.75 396,-362.75 396,-343.25 303,-343.25"/>
<polygon fill="none" stroke="black" points="303,-343.25 303,-362.75 396,-362.75 396,-343.25 303,-343.25"/>
<text text-anchor="start" x="306" y="-349.3" font-family="Helvetica,sans-Serif" font-size="11.00">&lt; 1</text>
<polygon fill="#ffffff" stroke="none" points="396,-343.25 396,-362.75 477,-362.75 477,-343.25 396,-343.25"/>
<polygon fill="none" stroke="black" points="396,-343.25 396,-362.75 477,-362.75 477,-343.25 396,-343.25"/>
<text text-anchor="start" x="466.5" y="-349.3" font-family="Helvetica,sans-Serif" font-size="11.00"> &#160;</text>
<polygon fill="#ffffff" stroke="none" points="477,-343.25 477,-362.75 564.75,-362.75 564.75,-343.25 477,-343.25"/>
<polygon fill="none" stroke="black" points="477,-343.25 477,-362.75 564.75,-362.75 564.75,-343.25 477,-343.25"/>
<text text-anchor="start" x="542.25" y="-349.3" font-family="Helvetica,sans-Serif" font-size="11.00">1 &gt;</text>
<polygon fill="none" stroke="black" stroke-width="2" points="302,-342.25 302,-673.25 565.75,-673.25 565.75,-342.25 302,-342.25"/>
</a>
</g>
</g>
<!-- doc_physical_document&#45;&gt;train_train -->
<g id="edge1" class="edge">
<title>doc_physical_document:w&#45;&gt;train_train:e</title>
<path fill="none" stroke="black" d="M599.17,-637.55C588.46,-637.62 581.23,-637.75 565.75,-637.75"/>
<polygon fill="black" stroke="black" points="606.42,-637.53 614.43,-641.1 610.75,-637.51 614.08,-637.5 614.08,-637.5 614.08,-637.5 610.75,-637.51 614.4,-633.9 606.42,-637.53"/>
<ellipse fill="none" stroke="black" cx="601.5" cy="-637.54" rx="3.2" ry="3.2"/>
</g>
<!-- proj_project -->
<g id="node3" class="node">
<title>proj_project</title>
<g id="a_node3"><a xlink:href="../../tables/proj_project.html" xlink:title="proj_project" target="_top">
<polygon fill="#ffffff" stroke="none" points="8,-38.5 8,-409 252,-409 252,-38.5 8,-38.5"/>
<polygon fill="#f5f5f5" stroke="none" points="8,-385.5 8,-409 252,-409 252,-385.5 8,-385.5"/>
<polygon fill="none" stroke="black" points="8,-385.5 8,-409 252,-409 252,-385.5 8,-385.5"/>
<text text-anchor="start" x="13" y="-394.55" font-family="Helvetica,sans-Serif" font-weight="bold" font-size="11.00">proj_project</text>
<text text-anchor="start" x="210.25" y="-393.55" font-family="Helvetica,sans-Serif" font-size="11.00">[table]</text>
<polygon fill="none" stroke="black" points="8,-363.5 8,-385.5 252,-385.5 252,-363.5 8,-363.5"/>
<image xlink:href="../../images/primaryKeys.png" width="11px" height="12px" preserveAspectRatio="xMinYMin meet" x="13" y="-380.5"/>
<text text-anchor="start" x="28" y="-370.05" font-family="Helvetica,sans-Serif" font-size="11.00">identifier</text>
<polygon fill="#ffffff" stroke="none" points="8,-341.5 8,-363.5 252,-363.5 252,-341.5 8,-341.5"/>
<polygon fill="none" stroke="black" points="8,-341.5 8,-363.5 252,-363.5 252,-341.5 8,-341.5"/>
<image xlink:href="../../images/foreignKeys.png" width="11px" height="12px" preserveAspectRatio="xMinYMin meet" x="13" y="-358.5"/>
<text text-anchor="start" x="28" y="-348.05" font-family="Helvetica,sans-Serif" font-size="11.00">library</text>
<polygon fill="#ffffff" stroke="none" points="8,-319.5 8,-341.5 252,-341.5 252,-319.5 8,-319.5"/>
<polygon fill="none" stroke="black" points="8,-319.5 8,-341.5 252,-341.5 252,-319.5 8,-319.5"/>
<image xlink:href="../../images/foreignKeys.png" width="11px" height="12px" preserveAspectRatio="xMinYMin meet" x="13" y="-336.5"/>
<text text-anchor="start" x="28" y="-326.05" font-family="Helvetica,sans-Serif" font-size="11.00">active_configuration_ftp</text>
<polygon fill="#ffffff" stroke="none" points="8,-297.5 8,-319.5 252,-319.5 252,-297.5 8,-297.5"/>
<polygon fill="none" stroke="black" points="8,-297.5 8,-319.5 252,-319.5 252,-297.5 8,-297.5"/>
<image xlink:href="../../images/foreignKeys.png" width="11px" height="12px" preserveAspectRatio="xMinYMin meet" x="13" y="-314.5"/>
<text text-anchor="start" x="28" y="-304.05" font-family="Helvetica,sans-Serif" font-size="11.00">active_configuration_check</text>
<polygon fill="#ffffff" stroke="none" points="8,-275.5 8,-297.5 252,-297.5 252,-275.5 8,-275.5"/>
<polygon fill="none" stroke="black" points="8,-275.5 8,-297.5 252,-297.5 252,-275.5 8,-275.5"/>
<image xlink:href="../../images/foreignKeys.png" width="11px" height="12px" preserveAspectRatio="xMinYMin meet" x="13" y="-292.5"/>
<text text-anchor="start" x="28" y="-282.05" font-family="Helvetica,sans-Serif" font-size="11.00">provider</text>
<polygon fill="#ffffff" stroke="none" points="8,-253.5 8,-275.5 252,-275.5 252,-253.5 8,-253.5"/>
<polygon fill="none" stroke="black" points="8,-253.5 8,-275.5 252,-275.5 252,-253.5 8,-253.5"/>
<image xlink:href="../../images/foreignKeys.png" width="11px" height="12px" preserveAspectRatio="xMinYMin meet" x="13" y="-270.5"/>
<text text-anchor="start" x="28" y="-260.05" font-family="Helvetica,sans-Serif" font-size="11.00">collection_omeka</text>
<polygon fill="#ffffff" stroke="none" points="8,-231.5 8,-253.5 252,-253.5 252,-231.5 8,-231.5"/>
<polygon fill="none" stroke="black" points="8,-231.5 8,-253.5 252,-253.5 252,-231.5 8,-231.5"/>
<image xlink:href="../../images/foreignKeys.png" width="11px" height="12px" preserveAspectRatio="xMinYMin meet" x="13" y="-248.5"/>
<text text-anchor="start" x="28" y="-238.05" font-family="Helvetica,sans-Serif" font-size="11.00">items_omeka</text>
<polygon fill="#ffffff" stroke="none" points="8,-209.5 8,-231.5 252,-231.5 252,-209.5 8,-209.5"/>
<polygon fill="none" stroke="black" points="8,-209.5 8,-231.5 252,-231.5 252,-209.5 8,-209.5"/>
<image xlink:href="../../images/foreignKeys.png" width="11px" height="12px" preserveAspectRatio="xMinYMin meet" x="13" y="-226.5"/>
<text text-anchor="start" x="28" y="-216.05" font-family="Helvetica,sans-Serif" font-size="11.00">active_configuration_export_ftp</text>
<polygon fill="#ffffff" stroke="none" points="8,-187.5 8,-209.5 252,-209.5 252,-187.5 8,-187.5"/>
<polygon fill="none" stroke="black" points="8,-187.5 8,-209.5 252,-209.5 252,-187.5 8,-187.5"/>
<image xlink:href="../../images/foreignKeys.png" width="11px" height="12px" preserveAspectRatio="xMinYMin meet" x="13" y="-204.5"/>
<text text-anchor="start" x="28" y="-194.05" font-family="Helvetica,sans-Serif" font-size="11.00">collection_ia</text>
<polygon fill="#ffffff" stroke="none" points="8,-165.5 8,-187.5 252,-187.5 252,-165.5 8,-165.5"/>
<polygon fill="none" stroke="black" points="8,-165.5 8,-187.5 252,-187.5 252,-165.5 8,-165.5"/>
<image xlink:href="../../images/foreignKeys.png" width="11px" height="12px" preserveAspectRatio="xMinYMin meet" x="13" y="-182.5"/>
<text text-anchor="start" x="28" y="-172.05" font-family="Helvetica,sans-Serif" font-size="11.00">classement_pac</text>
<polygon fill="#ffffff" stroke="none" points="8,-143.5 8,-165.5 252,-165.5 252,-143.5 8,-143.5"/>
<polygon fill="none" stroke="black" points="8,-143.5 8,-165.5 252,-165.5 252,-143.5 8,-143.5"/>
<image xlink:href="../../images/foreignKeys.png" width="11px" height="12px" preserveAspectRatio="xMinYMin meet" x="13" y="-160.5"/>
<text text-anchor="start" x="28" y="-150.05" font-family="Helvetica,sans-Serif" font-size="11.00">workflow_model</text>
<polygon fill="#ffffff" stroke="none" points="8,-121.5 8,-143.5 252,-143.5 252,-121.5 8,-121.5"/>
<polygon fill="none" stroke="black" points="8,-121.5 8,-143.5 252,-143.5 252,-121.5 8,-121.5"/>
<image xlink:href="../../images/foreignKeys.png" width="11px" height="12px" preserveAspectRatio="xMinYMin meet" x="13" y="-138.5"/>
<text text-anchor="start" x="28" y="-128.05" font-family="Helvetica,sans-Serif" font-size="11.00">active_format_configuration</text>
<polygon fill="#ffffff" stroke="none" points="8,-99.5 8,-121.5 252,-121.5 252,-99.5 8,-99.5"/>
<polygon fill="none" stroke="black" points="8,-99.5 8,-121.5 252,-121.5 252,-99.5 8,-99.5"/>
<image xlink:href="../../images/foreignKeys.png" width="11px" height="12px" preserveAspectRatio="xMinYMin meet" x="13" y="-116.5"/>
<text text-anchor="start" x="28" y="-106.05" font-family="Helvetica,sans-Serif" font-size="11.00">omeka_configuration</text>
<polygon fill="#ffffff" stroke="none" points="8,-77.5 8,-99.5 252,-99.5 252,-77.5 8,-77.5"/>
<polygon fill="none" stroke="black" points="8,-77.5 8,-99.5 252,-99.5 252,-77.5 8,-77.5"/>
<image xlink:href="../../images/foreignKeys.png" width="11px" height="12px" preserveAspectRatio="xMinYMin meet" x="13" y="-94.5"/>
<text text-anchor="start" x="28" y="-84.05" font-family="Helvetica,sans-Serif" font-size="11.00">active_export_ftp_delivery_folder</text>
<polygon fill="none" stroke="black" points="8,-58 8,-77.5 252,-77.5 252,-58 8,-58"/>
<text text-anchor="start" x="11" y="-64.05" font-family="Helvetica,sans-Serif" font-size="11.00">...</text>
<polygon fill="#ffffff" stroke="none" points="8,-38.5 8,-58 97.83,-58 97.83,-38.5 8,-38.5"/>
<polygon fill="none" stroke="black" points="8,-38.5 8,-58 97.83,-58 97.83,-38.5 8,-38.5"/>
<text text-anchor="start" x="11" y="-44.55" font-family="Helvetica,sans-Serif" font-size="11.00">&lt; 13</text>
<polygon fill="#ffffff" stroke="none" points="97.83,-38.5 97.83,-58 168.92,-58 168.92,-38.5 97.83,-38.5"/>
<polygon fill="none" stroke="black" points="97.83,-38.5 97.83,-58 168.92,-58 168.92,-38.5 97.83,-38.5"/>
<text text-anchor="start" x="158.42" y="-44.55" font-family="Helvetica,sans-Serif" font-size="11.00"> &#160;</text>
<polygon fill="#ffffff" stroke="none" points="168.92,-38.5 168.92,-58 252,-58 252,-38.5 168.92,-38.5"/>
<polygon fill="none" stroke="black" points="168.92,-38.5 168.92,-58 252,-58 252,-38.5 168.92,-38.5"/>
<text text-anchor="start" x="229.5" y="-44.55" font-family="Helvetica,sans-Serif" font-size="11.00">7 &gt;</text>
</a>
</g>
</g>
<!-- train_train&#45;&gt;proj_project -->
<g id="edge2" class="edge">
<title>train_train:w&#45;&gt;proj_project:e</title>
<path fill="none" stroke="black" d="M286.42,-373.9C275.71,-374.12 268.48,-374.5 253,-374.5"/>
<polygon fill="black" stroke="black" points="293.67,-373.83 301.7,-377.35 298,-373.79 301.33,-373.76 301.33,-373.76 301.33,-373.76 298,-373.79 301.63,-370.15 293.67,-373.83"/>
<ellipse fill="none" stroke="black" cx="288.75" cy="-373.88" rx="3.2" ry="3.2"/>
</g>
</g>
</svg>
