<?xml version="1.0" encoding="UTF-8" standalone="no"?>
<!DOCTYPE svg PUBLIC "-//W3C//DTD SVG 1.1//EN"
 "http://www.w3.org/Graphics/SVG/1.1/DTD/svg11.dtd">
<!-- Generated by graphviz version 12.2.0 (0)
 -->
<!-- Title: oneDegreeRelationshipsDiagram Pages: 1 -->
<svg width="748pt" height="517pt"
 viewBox="0.00 0.00 748.25 517.25" xmlns="http://www.w3.org/2000/svg" xmlns:xlink="http://www.w3.org/1999/xlink">
<g id="graph0" class="graph" transform="scale(1 1) rotate(0) translate(4 513.25)">
<title>oneDegreeRelationshipsDiagram</title>
<polygon fill="#ffffff" stroke="none" points="-4,4 -4,-513.25 744.25,-513.25 744.25,4 -4,4"/>
<text text-anchor="middle" x="79.25" y="-7.05" font-family="Helvetica,sans-Serif" font-size="11.00">Generated by SchemaSpy</text>
<!-- lib_library -->
<g id="node1" class="node">
<title>lib_library</title>
<g id="a_node1"><a xlink:href="../../tables/lib_library.html" xlink:title="lib_library" target="_top">
<polygon fill="#ffffff" stroke="none" points="301.25,-288.75 301.25,-505.25 535.25,-505.25 535.25,-288.75 301.25,-288.75"/>
<polygon fill="#f5f5f5" stroke="none" points="301.25,-481.75 301.25,-505.25 535.25,-505.25 535.25,-481.75 301.25,-481.75"/>
<polygon fill="none" stroke="black" points="301.25,-481.75 301.25,-505.25 535.25,-505.25 535.25,-481.75 301.25,-481.75"/>
<text text-anchor="start" x="306.25" y="-490.8" font-family="Helvetica,sans-Serif" font-weight="bold" font-size="11.00">lib_library</text>
<text text-anchor="start" x="493.5" y="-489.8" font-family="Helvetica,sans-Serif" font-size="11.00">[table]</text>
<polygon fill="none" stroke="black" points="301.25,-459.75 301.25,-481.75 535.25,-481.75 535.25,-459.75 301.25,-459.75"/>
<image xlink:href="../../images/primaryKeys.png" width="11px" height="12px" preserveAspectRatio="xMinYMin meet" x="306.25" y="-476.75"/>
<text text-anchor="start" x="321.25" y="-466.3" font-family="Helvetica,sans-Serif" font-size="11.00">identifier</text>
<polygon fill="#ffffff" stroke="none" points="301.25,-437.75 301.25,-459.75 535.25,-459.75 535.25,-437.75 301.25,-437.75"/>
<polygon fill="none" stroke="black" points="301.25,-437.75 301.25,-459.75 535.25,-459.75 535.25,-437.75 301.25,-437.75"/>
<image xlink:href="../../images/foreignKeys.png" width="11px" height="12px" preserveAspectRatio="xMinYMin meet" x="306.25" y="-454.75"/>
<text text-anchor="start" x="321.25" y="-444.3" font-family="Helvetica,sans-Serif" font-size="11.00">address</text>
<polygon fill="#ffffff" stroke="none" points="301.25,-415.75 301.25,-437.75 535.25,-437.75 535.25,-415.75 301.25,-415.75"/>
<polygon fill="none" stroke="black" points="301.25,-415.75 301.25,-437.75 535.25,-437.75 535.25,-415.75 301.25,-415.75"/>
<image xlink:href="../../images/foreignKeys.png" width="11px" height="12px" preserveAspectRatio="xMinYMin meet" x="306.25" y="-432.75"/>
<text text-anchor="start" x="321.25" y="-422.3" font-family="Helvetica,sans-Serif" font-size="11.00">active_configuration_ftp</text>
<polygon fill="#ffffff" stroke="none" points="301.25,-393.75 301.25,-415.75 535.25,-415.75 535.25,-393.75 301.25,-393.75"/>
<polygon fill="none" stroke="black" points="301.25,-393.75 301.25,-415.75 535.25,-415.75 535.25,-393.75 301.25,-393.75"/>
<image xlink:href="../../images/foreignKeys.png" width="11px" height="12px" preserveAspectRatio="xMinYMin meet" x="306.25" y="-410.75"/>
<text text-anchor="start" x="321.25" y="-400.3" font-family="Helvetica,sans-Serif" font-size="11.00">active_configuration_check</text>
<polygon fill="#ffffff" stroke="none" points="301.25,-371.75 301.25,-393.75 535.25,-393.75 535.25,-371.75 301.25,-371.75"/>
<polygon fill="none" stroke="black" points="301.25,-371.75 301.25,-393.75 535.25,-393.75 535.25,-371.75 301.25,-371.75"/>
<image xlink:href="../../images/foreignKeys.png" width="11px" height="12px" preserveAspectRatio="xMinYMin meet" x="306.25" y="-388.75"/>
<text text-anchor="start" x="321.25" y="-378.3" font-family="Helvetica,sans-Serif" font-size="11.00">role</text>
<polygon fill="#ffffff" stroke="none" points="301.25,-349.75 301.25,-371.75 535.25,-371.75 535.25,-349.75 301.25,-349.75"/>
<polygon fill="none" stroke="black" points="301.25,-349.75 301.25,-371.75 535.25,-371.75 535.25,-349.75 301.25,-349.75"/>
<image xlink:href="../../images/foreignKeys.png" width="11px" height="12px" preserveAspectRatio="xMinYMin meet" x="306.25" y="-366.75"/>
<text text-anchor="start" x="321.25" y="-356.3" font-family="Helvetica,sans-Serif" font-size="11.00">active_configuration_export_ftp</text>
<polygon fill="#ffffff" stroke="none" points="301.25,-327.75 301.25,-349.75 535.25,-349.75 535.25,-327.75 301.25,-327.75"/>
<polygon fill="none" stroke="black" points="301.25,-327.75 301.25,-349.75 535.25,-349.75 535.25,-327.75 301.25,-327.75"/>
<image xlink:href="../../images/foreignKeys.png" width="11px" height="12px" preserveAspectRatio="xMinYMin meet" x="306.25" y="-344.75"/>
<text text-anchor="start" x="321.25" y="-334.3" font-family="Helvetica,sans-Serif" font-size="11.00">active_configuration_ocr_lang</text>
<polygon fill="none" stroke="black" points="301.25,-308.25 301.25,-327.75 535.25,-327.75 535.25,-308.25 301.25,-308.25"/>
<text text-anchor="start" x="304.25" y="-314.3" font-family="Helvetica,sans-Serif" font-size="11.00">...</text>
<polygon fill="#ffffff" stroke="none" points="301.25,-288.75 301.25,-308.25 381,-308.25 381,-288.75 301.25,-288.75"/>
<polygon fill="none" stroke="black" points="301.25,-288.75 301.25,-308.25 381,-308.25 381,-288.75 301.25,-288.75"/>
<text text-anchor="start" x="304.25" y="-294.8" font-family="Helvetica,sans-Serif" font-size="11.00">&lt; 6</text>
<polygon fill="#ffffff" stroke="none" points="381,-288.75 381,-308.25 448.75,-308.25 448.75,-288.75 381,-288.75"/>
<polygon fill="none" stroke="black" points="381,-288.75 381,-308.25 448.75,-308.25 448.75,-288.75 381,-288.75"/>
<text text-anchor="start" x="438.25" y="-294.8" font-family="Helvetica,sans-Serif" font-size="11.00"> &#160;</text>
<polygon fill="#ffffff" stroke="none" points="448.75,-288.75 448.75,-308.25 535.25,-308.25 535.25,-288.75 448.75,-288.75"/>
<polygon fill="none" stroke="black" points="448.75,-288.75 448.75,-308.25 535.25,-308.25 535.25,-288.75 448.75,-288.75"/>
<text text-anchor="start" x="506" y="-294.8" font-family="Helvetica,sans-Serif" font-size="11.00">27 &gt;</text>
</a>
</g>
</g>
<!-- user_address -->
<g id="node2" class="node">
<title>user_address</title>
<g id="a_node2"><a xlink:href="../../tables/user_address.html" xlink:title="user_address" target="_top">
<polygon fill="#ffffff" stroke="none" points="8,-38.5 8,-393.5 252.25,-393.5 252.25,-38.5 8,-38.5"/>
<polygon fill="#f5f5f5" stroke="none" points="10,-368 10,-391.5 250.25,-391.5 250.25,-368 10,-368"/>
<polygon fill="none" stroke="black" points="10,-368 10,-391.5 250.25,-391.5 250.25,-368 10,-368"/>
<text text-anchor="start" x="15" y="-377.05" font-family="Helvetica,sans-Serif" font-weight="bold" font-size="11.00">user_address</text>
<text text-anchor="start" x="208.5" y="-376.05" font-family="Helvetica,sans-Serif" font-size="11.00">[table]</text>
<polygon fill="none" stroke="black" points="10,-346 10,-368 158,-368 158,-346 10,-346"/>
<image xlink:href="../../images/primaryKeys.png" width="11px" height="12px" preserveAspectRatio="xMinYMin meet" x="15" y="-363"/>
<text text-anchor="start" x="30" y="-352.55" font-family="Helvetica,sans-Serif" font-size="11.00">identifier</text>
<polygon fill="none" stroke="black" points="158,-346 158,-368 248,-368 248,-346 158,-346"/>
<text text-anchor="start" x="161" y="-353.3" font-family="Helvetica,sans-Serif" font-size="11.00">varchar[191]</text>
<polygon fill="none" stroke="black" points="10,-324 10,-346 158,-346 158,-324 10,-324"/>
<text text-anchor="start" x="30" y="-330.55" font-family="Helvetica,sans-Serif" font-size="11.00">address1</text>
<polygon fill="none" stroke="black" points="158,-324 158,-346 248,-346 248,-324 158,-324"/>
<text text-anchor="start" x="161" y="-331.3" font-family="Helvetica,sans-Serif" font-size="11.00">varchar[255]</text>
<polygon fill="none" stroke="black" points="10,-302 10,-324 158,-324 158,-302 10,-302"/>
<text text-anchor="start" x="30" y="-308.55" font-family="Helvetica,sans-Serif" font-size="11.00">address2</text>
<polygon fill="none" stroke="black" points="158,-302 158,-324 248,-324 248,-302 158,-302"/>
<text text-anchor="start" x="161" y="-309.3" font-family="Helvetica,sans-Serif" font-size="11.00">varchar[255]</text>
<polygon fill="none" stroke="black" points="10,-280 10,-302 158,-302 158,-280 10,-280"/>
<text text-anchor="start" x="30" y="-286.55" font-family="Helvetica,sans-Serif" font-size="11.00">address3</text>
<polygon fill="none" stroke="black" points="158,-280 158,-302 248,-302 248,-280 158,-280"/>
<text text-anchor="start" x="161" y="-287.3" font-family="Helvetica,sans-Serif" font-size="11.00">varchar[255]</text>
<polygon fill="none" stroke="black" points="10,-258 10,-280 158,-280 158,-258 10,-258"/>
<text text-anchor="start" x="30" y="-264.55" font-family="Helvetica,sans-Serif" font-size="11.00">complement</text>
<polygon fill="none" stroke="black" points="158,-258 158,-280 248,-280 248,-258 158,-258"/>
<text text-anchor="start" x="161" y="-265.3" font-family="Helvetica,sans-Serif" font-size="11.00">varchar[255]</text>
<polygon fill="none" stroke="black" points="10,-236 10,-258 158,-258 158,-236 10,-236"/>
<text text-anchor="start" x="30" y="-242.55" font-family="Helvetica,sans-Serif" font-size="11.00">postcode</text>
<polygon fill="none" stroke="black" points="158,-236 158,-258 248,-258 248,-236 158,-236"/>
<text text-anchor="start" x="161" y="-243.3" font-family="Helvetica,sans-Serif" font-size="11.00">varchar[255]</text>
<polygon fill="none" stroke="black" points="10,-214 10,-236 158,-236 158,-214 10,-214"/>
<text text-anchor="start" x="30" y="-220.55" font-family="Helvetica,sans-Serif" font-size="11.00">city</text>
<polygon fill="none" stroke="black" points="158,-214 158,-236 248,-236 248,-214 158,-214"/>
<text text-anchor="start" x="161" y="-221.3" font-family="Helvetica,sans-Serif" font-size="11.00">varchar[255]</text>
<polygon fill="none" stroke="black" points="10,-192 10,-214 158,-214 158,-192 10,-192"/>
<text text-anchor="start" x="30" y="-198.55" font-family="Helvetica,sans-Serif" font-size="11.00">country</text>
<polygon fill="none" stroke="black" points="158,-192 158,-214 248,-214 248,-192 158,-192"/>
<text text-anchor="start" x="161" y="-199.3" font-family="Helvetica,sans-Serif" font-size="11.00">varchar[255]</text>
<polygon fill="none" stroke="black" points="10,-170 10,-192 158,-192 158,-170 10,-170"/>
<text text-anchor="start" x="30" y="-176.55" font-family="Helvetica,sans-Serif" font-size="11.00">label</text>
<polygon fill="none" stroke="black" points="158,-170 158,-192 248,-192 248,-170 158,-170"/>
<text text-anchor="start" x="161" y="-177.3" font-family="Helvetica,sans-Serif" font-size="11.00">varchar[255]</text>
<polygon fill="none" stroke="black" points="10,-148 10,-170 158,-170 158,-148 10,-148"/>
<text text-anchor="start" x="30" y="-154.55" font-family="Helvetica,sans-Serif" font-size="11.00">version</text>
<polygon fill="none" stroke="black" points="158,-148 158,-170 248,-170 248,-148 158,-148"/>
<text text-anchor="start" x="161" y="-155.3" font-family="Helvetica,sans-Serif" font-size="11.00">bigint[19]</text>
<polygon fill="none" stroke="black" points="10,-126 10,-148 158,-148 158,-126 10,-126"/>
<text text-anchor="start" x="30" y="-132.55" font-family="Helvetica,sans-Serif" font-size="11.00">created_by</text>
<polygon fill="none" stroke="black" points="158,-126 158,-148 248,-148 248,-126 158,-126"/>
<text text-anchor="start" x="161" y="-133.3" font-family="Helvetica,sans-Serif" font-size="11.00">varchar[191]</text>
<polygon fill="none" stroke="black" points="10,-104 10,-126 158,-126 158,-104 10,-104"/>
<text text-anchor="start" x="30" y="-110.55" font-family="Helvetica,sans-Serif" font-size="11.00">last_modified_by</text>
<polygon fill="none" stroke="black" points="158,-104 158,-126 248,-126 248,-104 158,-104"/>
<text text-anchor="start" x="161" y="-111.3" font-family="Helvetica,sans-Serif" font-size="11.00">varchar[191]</text>
<polygon fill="none" stroke="black" points="10,-82 10,-104 158,-104 158,-82 10,-82"/>
<text text-anchor="start" x="30" y="-88.55" font-family="Helvetica,sans-Serif" font-size="11.00">created_date</text>
<polygon fill="none" stroke="black" points="158,-82 158,-104 248,-104 248,-82 158,-82"/>
<text text-anchor="start" x="161" y="-89.3" font-family="Helvetica,sans-Serif" font-size="11.00">timestamp[19]</text>
<polygon fill="none" stroke="black" points="10,-60 10,-82 158,-82 158,-60 10,-60"/>
<text text-anchor="start" x="30" y="-66.55" font-family="Helvetica,sans-Serif" font-size="11.00">last_modified_date</text>
<polygon fill="none" stroke="black" points="158,-60 158,-82 248,-82 248,-60 158,-60"/>
<text text-anchor="start" x="161" y="-67.3" font-family="Helvetica,sans-Serif" font-size="11.00">timestamp[19]</text>
<polygon fill="#ffffff" stroke="none" points="10,-40.5 10,-60 90,-60 90,-40.5 10,-40.5"/>
<polygon fill="none" stroke="black" points="10,-40.5 10,-60 90,-60 90,-40.5 10,-40.5"/>
<text text-anchor="start" x="13" y="-46.55" font-family="Helvetica,sans-Serif" font-size="11.00">&lt; 0</text>
<polygon fill="#ffffff" stroke="none" points="90,-40.5 90,-60 158,-60 158,-40.5 90,-40.5"/>
<polygon fill="none" stroke="black" points="90,-40.5 90,-60 158,-60 158,-40.5 90,-40.5"/>
<text text-anchor="start" x="147.5" y="-46.55" font-family="Helvetica,sans-Serif" font-size="11.00"> &#160;</text>
<polygon fill="#ffffff" stroke="none" points="158,-40.5 158,-60 248,-60 248,-40.5 158,-40.5"/>
<polygon fill="none" stroke="black" points="158,-40.5 158,-60 248,-60 248,-40.5 158,-40.5"/>
<text text-anchor="start" x="225.5" y="-46.55" font-family="Helvetica,sans-Serif" font-size="11.00">2 &gt;</text>
<polygon fill="none" stroke="black" stroke-width="2" points="9,-39.5 9,-392.5 251.25,-392.5 251.25,-39.5 9,-39.5"/>
</a>
</g>
</g>
<!-- lib_library&#45;&gt;user_address -->
<g id="edge1" class="edge">
<title>lib_library:w&#45;&gt;user_address:e</title>
<path fill="none" stroke="black" d="M285.32,-443.82C263.64,-424.76 289.14,-357 249,-357"/>
<polygon fill="black" stroke="black" points="292.34,-446.13 298.8,-452.06 296.45,-447.49 299.61,-448.54 299.61,-448.54 299.61,-448.54 296.45,-447.49 301.06,-445.23 292.34,-446.13"/>
<ellipse fill="none" stroke="black" cx="287.67" cy="-444.59" rx="3.2" ry="3.2"/>
</g>
<!-- user_user -->
<g id="node3" class="node">
<title>user_user</title>
<g id="a_node3"><a xlink:href="../../tables/user_user.html" xlink:title="user_user" target="_top">
<polygon fill="#ffffff" stroke="none" points="584.25,-295.75 584.25,-490.25 732.25,-490.25 732.25,-295.75 584.25,-295.75"/>
<polygon fill="#f5f5f5" stroke="none" points="584.25,-466.75 584.25,-490.25 732.25,-490.25 732.25,-466.75 584.25,-466.75"/>
<polygon fill="none" stroke="black" points="584.25,-466.75 584.25,-490.25 732.25,-490.25 732.25,-466.75 584.25,-466.75"/>
<text text-anchor="start" x="589.25" y="-475.8" font-family="Helvetica,sans-Serif" font-weight="bold" font-size="11.00">user_user</text>
<text text-anchor="start" x="690.5" y="-474.8" font-family="Helvetica,sans-Serif" font-size="11.00">[table]</text>
<polygon fill="none" stroke="black" points="584.25,-444.75 584.25,-466.75 732.25,-466.75 732.25,-444.75 584.25,-444.75"/>
<image xlink:href="../../images/primaryKeys.png" width="11px" height="12px" preserveAspectRatio="xMinYMin meet" x="589.25" y="-461.75"/>
<text text-anchor="start" x="604.25" y="-451.3" font-family="Helvetica,sans-Serif" font-size="11.00">identifier</text>
<polygon fill="#ffffff" stroke="none" points="584.25,-422.75 584.25,-444.75 732.25,-444.75 732.25,-422.75 584.25,-422.75"/>
<polygon fill="none" stroke="black" points="584.25,-422.75 584.25,-444.75 732.25,-444.75 732.25,-422.75 584.25,-422.75"/>
<text text-anchor="start" x="604.25" y="-429.3" font-family="Helvetica,sans-Serif" font-size="11.00">login</text>
<polygon fill="#ffffff" stroke="none" points="584.25,-400.75 584.25,-422.75 732.25,-422.75 732.25,-400.75 584.25,-400.75"/>
<polygon fill="none" stroke="black" points="584.25,-400.75 584.25,-422.75 732.25,-422.75 732.25,-400.75 584.25,-400.75"/>
<image xlink:href="../../images/foreignKeys.png" width="11px" height="12px" preserveAspectRatio="xMinYMin meet" x="589.25" y="-417.75"/>
<text text-anchor="start" x="604.25" y="-407.3" font-family="Helvetica,sans-Serif" font-size="11.00">role</text>
<polygon fill="#ffffff" stroke="none" points="584.25,-378.75 584.25,-400.75 732.25,-400.75 732.25,-378.75 584.25,-378.75"/>
<polygon fill="none" stroke="black" points="584.25,-378.75 584.25,-400.75 732.25,-400.75 732.25,-378.75 584.25,-378.75"/>
<image xlink:href="../../images/foreignKeys.png" width="11px" height="12px" preserveAspectRatio="xMinYMin meet" x="589.25" y="-395.75"/>
<text text-anchor="start" x="604.25" y="-385.3" font-family="Helvetica,sans-Serif" font-size="11.00">library</text>
<polygon fill="#ffffff" stroke="none" points="584.25,-356.75 584.25,-378.75 732.25,-378.75 732.25,-356.75 584.25,-356.75"/>
<polygon fill="none" stroke="black" points="584.25,-356.75 584.25,-378.75 732.25,-378.75 732.25,-356.75 584.25,-356.75"/>
<image xlink:href="../../images/foreignKeys.png" width="11px" height="12px" preserveAspectRatio="xMinYMin meet" x="589.25" y="-373.75"/>
<text text-anchor="start" x="604.25" y="-363.3" font-family="Helvetica,sans-Serif" font-size="11.00">dashboard</text>
<polygon fill="#ffffff" stroke="none" points="584.25,-334.75 584.25,-356.75 732.25,-356.75 732.25,-334.75 584.25,-334.75"/>
<polygon fill="none" stroke="black" points="584.25,-334.75 584.25,-356.75 732.25,-356.75 732.25,-334.75 584.25,-334.75"/>
<image xlink:href="../../images/foreignKeys.png" width="11px" height="12px" preserveAspectRatio="xMinYMin meet" x="589.25" y="-351.75"/>
<text text-anchor="start" x="604.25" y="-341.3" font-family="Helvetica,sans-Serif" font-size="11.00">address</text>
<polygon fill="none" stroke="black" points="584.25,-315.25 584.25,-334.75 732.25,-334.75 732.25,-315.25 584.25,-315.25"/>
<text text-anchor="start" x="587.25" y="-321.3" font-family="Helvetica,sans-Serif" font-size="11.00">...</text>
<polygon fill="#ffffff" stroke="none" points="584.25,-295.75 584.25,-315.25 637.58,-315.25 637.58,-295.75 584.25,-295.75"/>
<polygon fill="none" stroke="black" points="584.25,-295.75 584.25,-315.25 637.58,-315.25 637.58,-295.75 584.25,-295.75"/>
<text text-anchor="start" x="587.25" y="-301.8" font-family="Helvetica,sans-Serif" font-size="11.00">&lt; 4</text>
<polygon fill="#ffffff" stroke="none" points="637.58,-295.75 637.58,-315.25 678.92,-315.25 678.92,-295.75 637.58,-295.75"/>
<polygon fill="none" stroke="black" points="637.58,-295.75 637.58,-315.25 678.92,-315.25 678.92,-295.75 637.58,-295.75"/>
<text text-anchor="start" x="668.42" y="-301.8" font-family="Helvetica,sans-Serif" font-size="11.00"> &#160;</text>
<polygon fill="#ffffff" stroke="none" points="678.92,-295.75 678.92,-315.25 732.25,-315.25 732.25,-295.75 678.92,-295.75"/>
<polygon fill="none" stroke="black" points="678.92,-295.75 678.92,-315.25 732.25,-315.25 732.25,-295.75 678.92,-295.75"/>
<text text-anchor="start" x="709.75" y="-301.8" font-family="Helvetica,sans-Serif" font-size="11.00">4 &gt;</text>
</a>
</g>
</g>
<!-- user_user&#45;&gt;lib_library -->
<g id="edge3" class="edge">
<title>user_user:w&#45;&gt;lib_library:e</title>
<path fill="none" stroke="black" d="M568.6,-395.32C551.24,-413.62 571.21,-470.75 536.25,-470.75"/>
<polygon fill="black" stroke="black" points="575.46,-392.71 584.22,-393.23 579.51,-391.17 582.62,-389.99 582.62,-389.99 582.62,-389.99 579.51,-391.17 581.66,-386.5 575.46,-392.71"/>
<ellipse fill="none" stroke="black" cx="570.86" cy="-394.46" rx="3.2" ry="3.2"/>
</g>
<!-- user_user&#45;&gt;user_address -->
<g id="edge2" class="edge">
<title>user_user:w&#45;&gt;user_address:e</title>
<path fill="none" stroke="black" d="M568.43,-340.21C556.28,-326.63 567.45,-291.81 543.25,-278 446.76,-222.91 389.11,-221.82 293.25,-278 258.53,-298.35 289.24,-357 249,-357"/>
<polygon fill="black" stroke="black" points="575.44,-342.83 581.68,-349 579.5,-344.35 582.62,-345.52 582.62,-345.52 582.62,-345.52 579.5,-344.35 584.2,-342.26 575.44,-342.83"/>
<ellipse fill="none" stroke="black" cx="570.84" cy="-341.11" rx="3.2" ry="3.2"/>
</g>
</g>
</svg>
