<?xml version="1.0" encoding="UTF-8" standalone="no"?>
<!DOCTYPE svg PUBLIC "-//W3C//DTD SVG 1.1//EN"
 "http://www.w3.org/Graphics/SVG/1.1/DTD/svg11.dtd">
<!-- Generated by graphviz version 12.2.0 (0)
 -->
<!-- Title: oneDegreeRelationshipsDiagram Pages: 1 -->
<svg width="552pt" height="329pt"
 viewBox="0.00 0.00 551.75 329.00" xmlns="http://www.w3.org/2000/svg" xmlns:xlink="http://www.w3.org/1999/xlink">
<g id="graph0" class="graph" transform="scale(1 1) rotate(0) translate(4 325)">
<title>oneDegreeRelationshipsDiagram</title>
<polygon fill="#ffffff" stroke="none" points="-4,4 -4,-325 547.75,-325 547.75,4 -4,4"/>
<text text-anchor="middle" x="79.25" y="-7.05" font-family="Helvetica,sans-Serif" font-size="11.00">Generated by SchemaSpy</text>
<!-- user_role_authorization -->
<g id="node1" class="node">
<title>user_role_authorization</title>
<g id="a_node1"><a xlink:href="../../tables/user_role_authorization.html" xlink:title="user_role_authorization" target="_top">
<polygon fill="#ffffff" stroke="none" points="229.75,-163.25 229.75,-254.25 535.75,-254.25 535.75,-163.25 229.75,-163.25"/>
<polygon fill="#f5f5f5" stroke="none" points="231.75,-228.75 231.75,-252.25 533.75,-252.25 533.75,-228.75 231.75,-228.75"/>
<polygon fill="none" stroke="black" points="231.75,-228.75 231.75,-252.25 533.75,-252.25 533.75,-228.75 231.75,-228.75"/>
<text text-anchor="start" x="236.75" y="-237.8" font-family="Helvetica,sans-Serif" font-weight="bold" font-size="11.00">user_role_authorization</text>
<text text-anchor="start" x="492" y="-236.8" font-family="Helvetica,sans-Serif" font-size="11.00">[table]</text>
<polygon fill="none" stroke="black" points="231.75,-206.75 231.75,-228.75 411.75,-228.75 411.75,-206.75 231.75,-206.75"/>
<image xlink:href="../../images/primaryKeys.png" width="11px" height="12px" preserveAspectRatio="xMinYMin meet" x="236.75" y="-223.75"/>
<text text-anchor="start" x="251.75" y="-213.3" font-family="Helvetica,sans-Serif" font-size="11.00">user_authorization</text>
<polygon fill="none" stroke="black" points="411.75,-206.75 411.75,-228.75 511.38,-228.75 511.38,-206.75 411.75,-206.75"/>
<text text-anchor="start" x="414.75" y="-214.05" font-family="Helvetica,sans-Serif" font-size="11.00">varchar[191]</text>
<polygon fill="none" stroke="black" points="231.75,-184.75 231.75,-206.75 411.75,-206.75 411.75,-184.75 231.75,-184.75"/>
<image xlink:href="../../images/primaryKeys.png" width="11px" height="12px" preserveAspectRatio="xMinYMin meet" x="236.75" y="-201.75"/>
<text text-anchor="start" x="251.75" y="-191.3" font-family="Helvetica,sans-Serif" font-size="11.00">role</text>
<polygon fill="none" stroke="black" points="411.75,-184.75 411.75,-206.75 511.38,-206.75 511.38,-184.75 411.75,-184.75"/>
<text text-anchor="start" x="414.75" y="-192.05" font-family="Helvetica,sans-Serif" font-size="11.00">varchar[191]</text>
<polygon fill="#ffffff" stroke="none" points="231.75,-165.25 231.75,-184.75 327.75,-184.75 327.75,-165.25 231.75,-165.25"/>
<polygon fill="none" stroke="black" points="231.75,-165.25 231.75,-184.75 327.75,-184.75 327.75,-165.25 231.75,-165.25"/>
<text text-anchor="start" x="234.75" y="-171.3" font-family="Helvetica,sans-Serif" font-size="11.00">&lt; 2</text>
<polygon fill="#ffffff" stroke="none" points="327.75,-165.25 327.75,-184.75 411.75,-184.75 411.75,-165.25 327.75,-165.25"/>
<polygon fill="none" stroke="black" points="327.75,-165.25 327.75,-184.75 411.75,-184.75 411.75,-165.25 327.75,-165.25"/>
<text text-anchor="start" x="401.25" y="-171.3" font-family="Helvetica,sans-Serif" font-size="11.00"> &#160;</text>
<polygon fill="#ffffff" stroke="none" points="411.75,-165.25 411.75,-184.75 511.38,-184.75 511.38,-165.25 411.75,-165.25"/>
<polygon fill="none" stroke="black" points="411.75,-165.25 411.75,-184.75 511.38,-184.75 511.38,-165.25 411.75,-165.25"/>
<text text-anchor="start" x="488.88" y="-171.3" font-family="Helvetica,sans-Serif" font-size="11.00">0 &gt;</text>
<polygon fill="none" stroke="black" stroke-width="2" points="230.75,-164.25 230.75,-253.25 534.75,-253.25 534.75,-164.25 230.75,-164.25"/>
</a>
</g>
</g>
<!-- user_role -->
<g id="node2" class="node">
<title>user_role</title>
<g id="a_node2"><a xlink:href="../../tables/user_role.html" xlink:title="user_role" target="_top">
<polygon fill="#ffffff" stroke="none" points="20.38,-38.5 20.38,-167 168.38,-167 168.38,-38.5 20.38,-38.5"/>
<polygon fill="#f5f5f5" stroke="none" points="20.38,-143.5 20.38,-167 168.38,-167 168.38,-143.5 20.38,-143.5"/>
<polygon fill="none" stroke="black" points="20.38,-143.5 20.38,-167 168.38,-167 168.38,-143.5 20.38,-143.5"/>
<text text-anchor="start" x="25.38" y="-152.55" font-family="Helvetica,sans-Serif" font-weight="bold" font-size="11.00">user_role</text>
<text text-anchor="start" x="126.62" y="-151.55" font-family="Helvetica,sans-Serif" font-size="11.00">[table]</text>
<polygon fill="none" stroke="black" points="20.38,-121.5 20.38,-143.5 168.38,-143.5 168.38,-121.5 20.38,-121.5"/>
<image xlink:href="../../images/primaryKeys.png" width="11px" height="12px" preserveAspectRatio="xMinYMin meet" x="25.375" y="-138.5"/>
<text text-anchor="start" x="40.38" y="-128.05" font-family="Helvetica,sans-Serif" font-size="11.00">identifier</text>
<polygon fill="#ffffff" stroke="none" points="20.38,-99.5 20.38,-121.5 168.38,-121.5 168.38,-99.5 20.38,-99.5"/>
<polygon fill="none" stroke="black" points="20.38,-99.5 20.38,-121.5 168.38,-121.5 168.38,-99.5 20.38,-99.5"/>
<text text-anchor="start" x="40.38" y="-106.05" font-family="Helvetica,sans-Serif" font-size="11.00">code</text>
<polygon fill="#ffffff" stroke="none" points="20.38,-77.5 20.38,-99.5 168.38,-99.5 168.38,-77.5 20.38,-77.5"/>
<polygon fill="none" stroke="black" points="20.38,-77.5 20.38,-99.5 168.38,-99.5 168.38,-77.5 20.38,-77.5"/>
<text text-anchor="start" x="40.38" y="-84.05" font-family="Helvetica,sans-Serif" font-size="11.00">label</text>
<polygon fill="none" stroke="black" points="20.38,-58 20.38,-77.5 168.38,-77.5 168.38,-58 20.38,-58"/>
<text text-anchor="start" x="23.38" y="-64.05" font-family="Helvetica,sans-Serif" font-size="11.00">...</text>
<polygon fill="#ffffff" stroke="none" points="20.38,-38.5 20.38,-58 65.71,-58 65.71,-38.5 20.38,-38.5"/>
<polygon fill="none" stroke="black" points="20.38,-38.5 20.38,-58 65.71,-58 65.71,-38.5 20.38,-38.5"/>
<text text-anchor="start" x="23.38" y="-44.55" font-family="Helvetica,sans-Serif" font-size="11.00"> &#160;</text>
<polygon fill="#ffffff" stroke="none" points="65.71,-38.5 65.71,-58 111.04,-58 111.04,-38.5 65.71,-38.5"/>
<polygon fill="none" stroke="black" points="65.71,-38.5 65.71,-58 111.04,-58 111.04,-38.5 65.71,-38.5"/>
<text text-anchor="start" x="100.54" y="-44.55" font-family="Helvetica,sans-Serif" font-size="11.00"> &#160;</text>
<polygon fill="#ffffff" stroke="none" points="111.04,-38.5 111.04,-58 168.38,-58 168.38,-38.5 111.04,-38.5"/>
<polygon fill="none" stroke="black" points="111.04,-38.5 111.04,-58 168.38,-58 168.38,-38.5 111.04,-38.5"/>
<text text-anchor="start" x="145.88" y="-44.55" font-family="Helvetica,sans-Serif" font-size="11.00">3 &gt;</text>
</a>
</g>
</g>
<!-- user_role_authorization&#45;&gt;user_role -->
<g id="edge1" class="edge">
<title>user_role_authorization:w&#45;&gt;user_role:e</title>
<path fill="none" stroke="black" d="M215.79,-191.4C195.57,-177.11 202.27,-132.5 169.38,-132.5"/>
<polygon fill="black" stroke="black" points="222.75,-193.42 229.42,-199.11 226.91,-194.63 230.11,-195.56 230.11,-195.56 230.11,-195.56 226.91,-194.63 231.43,-192.2 222.75,-193.42"/>
<ellipse fill="none" stroke="black" cx="218.02" cy="-192.05" rx="3.2" ry="3.2"/>
</g>
<!-- user_authorization -->
<g id="node3" class="node">
<title>user_authorization</title>
<g id="a_node3"><a xlink:href="../../tables/user_authorization.html" xlink:title="user_authorization" target="_top">
<polygon fill="#ffffff" stroke="none" points="8,-188.5 8,-317 180.75,-317 180.75,-188.5 8,-188.5"/>
<polygon fill="#f5f5f5" stroke="none" points="8,-293.5 8,-317 180.75,-317 180.75,-293.5 8,-293.5"/>
<polygon fill="none" stroke="black" points="8,-293.5 8,-317 180.75,-317 180.75,-293.5 8,-293.5"/>
<text text-anchor="start" x="13" y="-302.55" font-family="Helvetica,sans-Serif" font-weight="bold" font-size="11.00">user_authorization</text>
<text text-anchor="start" x="139" y="-301.55" font-family="Helvetica,sans-Serif" font-size="11.00">[table]</text>
<polygon fill="none" stroke="black" points="8,-271.5 8,-293.5 180.75,-293.5 180.75,-271.5 8,-271.5"/>
<image xlink:href="../../images/primaryKeys.png" width="11px" height="12px" preserveAspectRatio="xMinYMin meet" x="13" y="-288.5"/>
<text text-anchor="start" x="40.38" y="-278.05" font-family="Helvetica,sans-Serif" font-size="11.00">identifier</text>
<polygon fill="#ffffff" stroke="none" points="8,-249.5 8,-271.5 180.75,-271.5 180.75,-249.5 8,-249.5"/>
<polygon fill="none" stroke="black" points="8,-249.5 8,-271.5 180.75,-271.5 180.75,-249.5 8,-249.5"/>
<text text-anchor="start" x="40.38" y="-256.05" font-family="Helvetica,sans-Serif" font-size="11.00">code</text>
<polygon fill="#ffffff" stroke="none" points="8,-227.5 8,-249.5 180.75,-249.5 180.75,-227.5 8,-227.5"/>
<polygon fill="none" stroke="black" points="8,-227.5 8,-249.5 180.75,-249.5 180.75,-227.5 8,-227.5"/>
<text text-anchor="start" x="40.38" y="-234.05" font-family="Helvetica,sans-Serif" font-size="11.00">label</text>
<polygon fill="none" stroke="black" points="8,-208 8,-227.5 180.75,-227.5 180.75,-208 8,-208"/>
<text text-anchor="start" x="11" y="-214.05" font-family="Helvetica,sans-Serif" font-size="11.00">...</text>
<polygon fill="#ffffff" stroke="none" points="8,-188.5 8,-208 61.58,-208 61.58,-188.5 8,-188.5"/>
<polygon fill="none" stroke="black" points="8,-188.5 8,-208 61.58,-208 61.58,-188.5 8,-188.5"/>
<text text-anchor="start" x="11" y="-194.55" font-family="Helvetica,sans-Serif" font-size="11.00"> &#160;</text>
<polygon fill="#ffffff" stroke="none" points="61.58,-188.5 61.58,-208 115.17,-208 115.17,-188.5 61.58,-188.5"/>
<polygon fill="none" stroke="black" points="61.58,-188.5 61.58,-208 115.17,-208 115.17,-188.5 61.58,-188.5"/>
<text text-anchor="start" x="104.67" y="-194.55" font-family="Helvetica,sans-Serif" font-size="11.00"> &#160;</text>
<polygon fill="#ffffff" stroke="none" points="115.17,-188.5 115.17,-208 180.75,-208 180.75,-188.5 115.17,-188.5"/>
<polygon fill="none" stroke="black" points="115.17,-188.5 115.17,-208 180.75,-208 180.75,-188.5 115.17,-188.5"/>
<text text-anchor="start" x="158.25" y="-194.55" font-family="Helvetica,sans-Serif" font-size="11.00">1 &gt;</text>
</a>
</g>
</g>
<!-- user_role_authorization&#45;&gt;user_authorization -->
<g id="edge2" class="edge">
<title>user_role_authorization:w&#45;&gt;user_authorization:e</title>
<path fill="none" stroke="black" d="M216.35,-223.27C201.08,-238.93 211.35,-282.5 181.75,-282.5"/>
<polygon fill="black" stroke="black" points="222.97,-220.73 231.73,-221.23 227.02,-219.18 230.13,-217.99 230.13,-217.99 230.13,-217.99 227.02,-219.18 229.15,-214.51 222.97,-220.73"/>
<ellipse fill="none" stroke="black" cx="218.38" cy="-222.49" rx="3.2" ry="3.2"/>
</g>
</g>
</svg>
