<?xml version="1.0" encoding="UTF-8" standalone="no"?>
<!DOCTYPE svg PUBLIC "-//W3C//DTD SVG 1.1//EN"
 "http://www.w3.org/Graphics/SVG/1.1/DTD/svg11.dtd">
<!-- Generated by graphviz version 12.2.0 (0)
 -->
<!-- Title: oneDegreeRelationshipsDiagram Pages: 1 -->
<svg width="542pt" height="318pt"
 viewBox="0.00 0.00 541.50 317.50" xmlns="http://www.w3.org/2000/svg" xmlns:xlink="http://www.w3.org/1999/xlink">
<g id="graph0" class="graph" transform="scale(1 1) rotate(0) translate(4 313.5)">
<title>oneDegreeRelationshipsDiagram</title>
<polygon fill="#ffffff" stroke="none" points="-4,4 -4,-313.5 537.5,-313.5 537.5,4 -4,4"/>
<text text-anchor="middle" x="79.25" y="-7.05" font-family="Helvetica,sans-Serif" font-size="11.00">Generated by SchemaSpy</text>
<!-- user_role_authorization -->
<g id="node1" class="node">
<title>user_role_authorization</title>
<g id="a_node1"><a xlink:href="../../tables/user_role_authorization.html" xlink:title="user_role_authorization" target="_top">
<polygon fill="#ffffff" stroke="none" points="319.75,-216.5 319.75,-303.5 525.5,-303.5 525.5,-216.5 319.75,-216.5"/>
<polygon fill="#f5f5f5" stroke="none" points="319.75,-280 319.75,-303.5 525.5,-303.5 525.5,-280 319.75,-280"/>
<polygon fill="none" stroke="black" points="319.75,-280 319.75,-303.5 525.5,-303.5 525.5,-280 319.75,-280"/>
<text text-anchor="start" x="324.75" y="-289.05" font-family="Helvetica,sans-Serif" font-weight="bold" font-size="11.00">user_role_authorization</text>
<text text-anchor="start" x="483.75" y="-288.05" font-family="Helvetica,sans-Serif" font-size="11.00">[table]</text>
<polygon fill="none" stroke="black" points="319.75,-258 319.75,-280 525.5,-280 525.5,-258 319.75,-258"/>
<image xlink:href="../../images/primaryKeys.png" width="11px" height="12px" preserveAspectRatio="xMinYMin meet" x="324.75" y="-275"/>
<text text-anchor="start" x="352.62" y="-264.55" font-family="Helvetica,sans-Serif" font-size="11.00">user_authorization</text>
<polygon fill="none" stroke="black" points="319.75,-236 319.75,-258 525.5,-258 525.5,-236 319.75,-236"/>
<image xlink:href="../../images/primaryKeys.png" width="11px" height="12px" preserveAspectRatio="xMinYMin meet" x="324.75" y="-253"/>
<text text-anchor="start" x="352.62" y="-242.55" font-family="Helvetica,sans-Serif" font-size="11.00">role</text>
<polygon fill="#ffffff" stroke="none" points="319.75,-216.5 319.75,-236 396.33,-236 396.33,-216.5 319.75,-216.5"/>
<polygon fill="none" stroke="black" points="319.75,-216.5 319.75,-236 396.33,-236 396.33,-216.5 319.75,-216.5"/>
<text text-anchor="start" x="322.75" y="-222.55" font-family="Helvetica,sans-Serif" font-size="11.00">&lt; 2</text>
<polygon fill="#ffffff" stroke="none" points="396.33,-216.5 396.33,-236 460.92,-236 460.92,-216.5 396.33,-216.5"/>
<polygon fill="none" stroke="black" points="396.33,-216.5 396.33,-236 460.92,-236 460.92,-216.5 396.33,-216.5"/>
<text text-anchor="start" x="450.42" y="-222.55" font-family="Helvetica,sans-Serif" font-size="11.00"> &#160;</text>
<polygon fill="#ffffff" stroke="none" points="460.92,-216.5 460.92,-236 525.5,-236 525.5,-216.5 460.92,-216.5"/>
<polygon fill="none" stroke="black" points="460.92,-216.5 460.92,-236 525.5,-236 525.5,-216.5 460.92,-216.5"/>
<text text-anchor="start" x="515" y="-222.55" font-family="Helvetica,sans-Serif" font-size="11.00"> &#160;</text>
</a>
</g>
</g>
<!-- user_authorization -->
<g id="node2" class="node">
<title>user_authorization</title>
<g id="a_node2"><a xlink:href="../../tables/user_authorization.html" xlink:title="user_authorization" target="_top">
<polygon fill="#ffffff" stroke="none" points="8,-38.5 8,-305.5 270.75,-305.5 270.75,-38.5 8,-38.5"/>
<polygon fill="#f5f5f5" stroke="none" points="10,-280 10,-303.5 268.75,-303.5 268.75,-280 10,-280"/>
<polygon fill="none" stroke="black" points="10,-280 10,-303.5 268.75,-303.5 268.75,-280 10,-280"/>
<text text-anchor="start" x="15" y="-289.05" font-family="Helvetica,sans-Serif" font-weight="bold" font-size="11.00">user_authorization</text>
<text text-anchor="start" x="227" y="-288.05" font-family="Helvetica,sans-Serif" font-size="11.00">[table]</text>
<polygon fill="none" stroke="black" points="10,-258 10,-280 158,-280 158,-258 10,-258"/>
<image xlink:href="../../images/primaryKeys.png" width="11px" height="12px" preserveAspectRatio="xMinYMin meet" x="15" y="-275"/>
<text text-anchor="start" x="30" y="-264.55" font-family="Helvetica,sans-Serif" font-size="11.00">identifier</text>
<polygon fill="none" stroke="black" points="158,-258 158,-280 257.25,-280 257.25,-258 158,-258"/>
<text text-anchor="start" x="161" y="-265.3" font-family="Helvetica,sans-Serif" font-size="11.00">varchar[191]</text>
<polygon fill="#ffffff" stroke="none" points="10,-236 10,-258 158,-258 158,-236 10,-236"/>
<polygon fill="none" stroke="black" points="10,-236 10,-258 158,-258 158,-236 10,-236"/>
<text text-anchor="start" x="30" y="-242.55" font-family="Helvetica,sans-Serif" font-size="11.00">code</text>
<polygon fill="none" stroke="black" points="158,-236 158,-258 257.25,-258 257.25,-236 158,-236"/>
<text text-anchor="start" x="161" y="-243.3" font-family="Helvetica,sans-Serif" font-size="11.00">varchar[191]</text>
<polygon fill="#ffffff" stroke="none" points="10,-214 10,-236 158,-236 158,-214 10,-214"/>
<polygon fill="none" stroke="black" points="10,-214 10,-236 158,-236 158,-214 10,-214"/>
<text text-anchor="start" x="30" y="-220.55" font-family="Helvetica,sans-Serif" font-size="11.00">label</text>
<polygon fill="none" stroke="black" points="158,-214 158,-236 257.25,-236 257.25,-214 158,-214"/>
<text text-anchor="start" x="161" y="-221.3" font-family="Helvetica,sans-Serif" font-size="11.00">varchar[191]</text>
<polygon fill="none" stroke="black" points="10,-192 10,-214 158,-214 158,-192 10,-192"/>
<text text-anchor="start" x="30" y="-198.55" font-family="Helvetica,sans-Serif" font-size="11.00">description</text>
<polygon fill="none" stroke="black" points="158,-192 158,-214 257.25,-214 257.25,-192 158,-192"/>
<text text-anchor="start" x="161" y="-199.3" font-family="Helvetica,sans-Serif" font-size="11.00">varchar[2000]</text>
<polygon fill="none" stroke="black" points="10,-170 10,-192 158,-192 158,-170 10,-170"/>
<text text-anchor="start" x="30" y="-176.55" font-family="Helvetica,sans-Serif" font-size="11.00">module</text>
<polygon fill="none" stroke="black" points="158,-170 158,-192 257.25,-192 257.25,-170 158,-170"/>
<text text-anchor="start" x="161" y="-177.3" font-family="Helvetica,sans-Serif" font-size="11.00">varchar[255]</text>
<polygon fill="none" stroke="black" points="10,-148 10,-170 158,-170 158,-148 10,-148"/>
<text text-anchor="start" x="30" y="-154.55" font-family="Helvetica,sans-Serif" font-size="11.00">version</text>
<polygon fill="none" stroke="black" points="158,-148 158,-170 257.25,-170 257.25,-148 158,-148"/>
<text text-anchor="start" x="161" y="-155.3" font-family="Helvetica,sans-Serif" font-size="11.00">bigint[19]</text>
<polygon fill="none" stroke="black" points="10,-126 10,-148 158,-148 158,-126 10,-126"/>
<text text-anchor="start" x="30" y="-132.55" font-family="Helvetica,sans-Serif" font-size="11.00">created_by</text>
<polygon fill="none" stroke="black" points="158,-126 158,-148 257.25,-148 257.25,-126 158,-126"/>
<text text-anchor="start" x="161" y="-133.3" font-family="Helvetica,sans-Serif" font-size="11.00">varchar[191]</text>
<polygon fill="none" stroke="black" points="10,-104 10,-126 158,-126 158,-104 10,-104"/>
<text text-anchor="start" x="30" y="-110.55" font-family="Helvetica,sans-Serif" font-size="11.00">last_modified_by</text>
<polygon fill="none" stroke="black" points="158,-104 158,-126 257.25,-126 257.25,-104 158,-104"/>
<text text-anchor="start" x="161" y="-111.3" font-family="Helvetica,sans-Serif" font-size="11.00">varchar[191]</text>
<polygon fill="none" stroke="black" points="10,-82 10,-104 158,-104 158,-82 10,-82"/>
<text text-anchor="start" x="30" y="-88.55" font-family="Helvetica,sans-Serif" font-size="11.00">created_date</text>
<polygon fill="none" stroke="black" points="158,-82 158,-104 257.25,-104 257.25,-82 158,-82"/>
<text text-anchor="start" x="161" y="-89.3" font-family="Helvetica,sans-Serif" font-size="11.00">timestamp[19]</text>
<polygon fill="none" stroke="black" points="10,-60 10,-82 158,-82 158,-60 10,-60"/>
<text text-anchor="start" x="30" y="-66.55" font-family="Helvetica,sans-Serif" font-size="11.00">last_modified_date</text>
<polygon fill="none" stroke="black" points="158,-60 158,-82 257.25,-82 257.25,-60 158,-60"/>
<text text-anchor="start" x="161" y="-67.3" font-family="Helvetica,sans-Serif" font-size="11.00">timestamp[19]</text>
<polygon fill="#ffffff" stroke="none" points="10,-40.5 10,-60 90,-60 90,-40.5 10,-40.5"/>
<polygon fill="none" stroke="black" points="10,-40.5 10,-60 90,-60 90,-40.5 10,-40.5"/>
<text text-anchor="start" x="13" y="-46.55" font-family="Helvetica,sans-Serif" font-size="11.00">&lt; 0</text>
<polygon fill="#ffffff" stroke="none" points="90,-40.5 90,-60 158,-60 158,-40.5 90,-40.5"/>
<polygon fill="none" stroke="black" points="90,-40.5 90,-60 158,-60 158,-40.5 90,-40.5"/>
<text text-anchor="start" x="147.5" y="-46.55" font-family="Helvetica,sans-Serif" font-size="11.00"> &#160;</text>
<polygon fill="#ffffff" stroke="none" points="158,-40.5 158,-60 257.25,-60 257.25,-40.5 158,-40.5"/>
<polygon fill="none" stroke="black" points="158,-40.5 158,-60 257.25,-60 257.25,-40.5 158,-40.5"/>
<text text-anchor="start" x="234.75" y="-46.55" font-family="Helvetica,sans-Serif" font-size="11.00">1 &gt;</text>
<polygon fill="none" stroke="black" stroke-width="2" points="9,-39.5 9,-304.5 269.75,-304.5 269.75,-39.5 9,-39.5"/>
</a>
</g>
</g>
<!-- user_role_authorization&#45;&gt;user_authorization -->
<g id="edge1" class="edge">
<title>user_role_authorization:w&#45;&gt;user_authorization:e</title>
<path fill="none" stroke="black" d="M303.11,-269C287.78,-269 279.05,-269 258.25,-269"/>
<polygon fill="black" stroke="black" points="310.42,-269 318.42,-272.6 314.75,-269 318.08,-269 318.08,-269 318.08,-269 314.75,-269 318.42,-265.4 310.42,-269"/>
<ellipse fill="none" stroke="black" cx="305.5" cy="-269" rx="3.2" ry="3.2"/>
</g>
</g>
</svg>
