<?xml version="1.0" encoding="UTF-8" standalone="no"?>
<!DOCTYPE svg PUBLIC "-//W3C//DTD SVG 1.1//EN"
 "http://www.w3.org/Graphics/SVG/1.1/DTD/svg11.dtd">
<!-- Generated by graphviz version 12.2.0 (0)
 -->
<!-- Title: twoDegreesRelationshipsDiagram Pages: 1 -->
<svg width="713pt" height="329pt"
 viewBox="0.00 0.00 712.50 329.00" xmlns="http://www.w3.org/2000/svg" xmlns:xlink="http://www.w3.org/1999/xlink">
<g id="graph0" class="graph" transform="scale(1 1) rotate(0) translate(4 325)">
<title>twoDegreesRelationshipsDiagram</title>
<polygon fill="#ffffff" stroke="none" points="-4,4 -4,-325 708.5,-325 708.5,4 -4,4"/>
<text text-anchor="middle" x="79.25" y="-7.05" font-family="Helvetica,sans-Serif" font-size="11.00">Generated by SchemaSpy</text>
<!-- lib_library -->
<g id="node1" class="node">
<title>lib_library</title>
<g id="a_node1"><a xlink:href="../../tables/lib_library.html" xlink:title="lib_library" target="_top">
<polygon fill="#ffffff" stroke="none" points="325.88,-113.5 325.88,-176 439.62,-176 439.62,-113.5 325.88,-113.5"/>
<polygon fill="#f5f5f5" stroke="none" points="325.88,-152.5 325.88,-176 439.62,-176 439.62,-152.5 325.88,-152.5"/>
<polygon fill="none" stroke="black" points="325.88,-152.5 325.88,-176 439.62,-176 439.62,-152.5 325.88,-152.5"/>
<text text-anchor="start" x="330.88" y="-161.55" font-family="Helvetica,sans-Serif" font-weight="bold" font-size="11.00">lib_library</text>
<text text-anchor="start" x="397.88" y="-160.55" font-family="Helvetica,sans-Serif" font-size="11.00">[table]</text>
<polygon fill="none" stroke="black" points="325.88,-133 325.88,-152.5 439.62,-152.5 439.62,-133 325.88,-133"/>
<text text-anchor="start" x="328.88" y="-139.05" font-family="Helvetica,sans-Serif" font-size="11.00">...</text>
<polygon fill="#ffffff" stroke="none" points="325.88,-113.5 325.88,-133 365.54,-133 365.54,-113.5 325.88,-113.5"/>
<polygon fill="none" stroke="black" points="325.88,-113.5 325.88,-133 365.54,-133 365.54,-113.5 325.88,-113.5"/>
<text text-anchor="start" x="328.88" y="-119.55" font-family="Helvetica,sans-Serif" font-size="11.00">&lt; 6</text>
<polygon fill="#ffffff" stroke="none" points="365.54,-113.5 365.54,-133 393.21,-133 393.21,-113.5 365.54,-113.5"/>
<polygon fill="none" stroke="black" points="365.54,-113.5 365.54,-133 393.21,-133 393.21,-113.5 365.54,-113.5"/>
<text text-anchor="start" x="382.71" y="-119.55" font-family="Helvetica,sans-Serif" font-size="11.00"> &#160;</text>
<polygon fill="#ffffff" stroke="none" points="393.21,-113.5 393.21,-133 439.62,-133 439.62,-113.5 393.21,-113.5"/>
<polygon fill="none" stroke="black" points="393.21,-113.5 393.21,-133 439.62,-133 439.62,-113.5 393.21,-113.5"/>
<text text-anchor="start" x="410.38" y="-119.55" font-family="Helvetica,sans-Serif" font-size="11.00">27 &gt;</text>
</a>
</g>
</g>
<!-- user_role -->
<g id="node2" class="node">
<title>user_role</title>
<g id="a_node2"><a xlink:href="../../tables/user_role.html" xlink:title="user_role" target="_top">
<polygon fill="#ffffff" stroke="none" points="20.38,-38.5 20.38,-167 168.38,-167 168.38,-38.5 20.38,-38.5"/>
<polygon fill="#f5f5f5" stroke="none" points="20.38,-143.5 20.38,-167 168.38,-167 168.38,-143.5 20.38,-143.5"/>
<polygon fill="none" stroke="black" points="20.38,-143.5 20.38,-167 168.38,-167 168.38,-143.5 20.38,-143.5"/>
<text text-anchor="start" x="25.38" y="-152.55" font-family="Helvetica,sans-Serif" font-weight="bold" font-size="11.00">user_role</text>
<text text-anchor="start" x="126.62" y="-151.55" font-family="Helvetica,sans-Serif" font-size="11.00">[table]</text>
<polygon fill="none" stroke="black" points="20.38,-121.5 20.38,-143.5 168.38,-143.5 168.38,-121.5 20.38,-121.5"/>
<image xlink:href="../../images/primaryKeys.png" width="11px" height="12px" preserveAspectRatio="xMinYMin meet" x="25.375" y="-138.5"/>
<text text-anchor="start" x="40.38" y="-128.05" font-family="Helvetica,sans-Serif" font-size="11.00">identifier</text>
<polygon fill="#ffffff" stroke="none" points="20.38,-99.5 20.38,-121.5 168.38,-121.5 168.38,-99.5 20.38,-99.5"/>
<polygon fill="none" stroke="black" points="20.38,-99.5 20.38,-121.5 168.38,-121.5 168.38,-99.5 20.38,-99.5"/>
<text text-anchor="start" x="40.38" y="-106.05" font-family="Helvetica,sans-Serif" font-size="11.00">code</text>
<polygon fill="#ffffff" stroke="none" points="20.38,-77.5 20.38,-99.5 168.38,-99.5 168.38,-77.5 20.38,-77.5"/>
<polygon fill="none" stroke="black" points="20.38,-77.5 20.38,-99.5 168.38,-99.5 168.38,-77.5 20.38,-77.5"/>
<text text-anchor="start" x="40.38" y="-84.05" font-family="Helvetica,sans-Serif" font-size="11.00">label</text>
<polygon fill="none" stroke="black" points="20.38,-58 20.38,-77.5 168.38,-77.5 168.38,-58 20.38,-58"/>
<text text-anchor="start" x="23.38" y="-64.05" font-family="Helvetica,sans-Serif" font-size="11.00">...</text>
<polygon fill="#ffffff" stroke="none" points="20.38,-38.5 20.38,-58 65.71,-58 65.71,-38.5 20.38,-38.5"/>
<polygon fill="none" stroke="black" points="20.38,-38.5 20.38,-58 65.71,-58 65.71,-38.5 20.38,-38.5"/>
<text text-anchor="start" x="23.38" y="-44.55" font-family="Helvetica,sans-Serif" font-size="11.00"> &#160;</text>
<polygon fill="#ffffff" stroke="none" points="65.71,-38.5 65.71,-58 111.04,-58 111.04,-38.5 65.71,-38.5"/>
<polygon fill="none" stroke="black" points="65.71,-38.5 65.71,-58 111.04,-58 111.04,-38.5 65.71,-38.5"/>
<text text-anchor="start" x="100.54" y="-44.55" font-family="Helvetica,sans-Serif" font-size="11.00"> &#160;</text>
<polygon fill="#ffffff" stroke="none" points="111.04,-38.5 111.04,-58 168.38,-58 168.38,-38.5 111.04,-38.5"/>
<polygon fill="none" stroke="black" points="111.04,-38.5 111.04,-58 168.38,-58 168.38,-38.5 111.04,-38.5"/>
<text text-anchor="start" x="145.88" y="-44.55" font-family="Helvetica,sans-Serif" font-size="11.00">3 &gt;</text>
</a>
</g>
</g>
<!-- lib_library&#45;&gt;user_role -->
<g id="edge1" class="edge">
<title>lib_library:w&#45;&gt;user_role:e</title>
<path fill="none" stroke="black" d="M309.19,-142.56C252.56,-141.17 233.09,-132.5 169.38,-132.5"/>
<polygon fill="black" stroke="black" points="316.54,-142.65 324.5,-146.35 320.88,-142.7 324.21,-142.74 324.21,-142.74 324.21,-142.74 320.88,-142.7 324.58,-139.15 316.54,-142.65"/>
<ellipse fill="none" stroke="black" cx="311.62" cy="-142.59" rx="3.2" ry="3.2"/>
</g>
<!-- user_role_authorization -->
<g id="node3" class="node">
<title>user_role_authorization</title>
<g id="a_node3"><a xlink:href="../../tables/user_role_authorization.html" xlink:title="user_role_authorization" target="_top">
<polygon fill="#ffffff" stroke="none" points="229.75,-217.25 229.75,-308.25 535.75,-308.25 535.75,-217.25 229.75,-217.25"/>
<polygon fill="#f5f5f5" stroke="none" points="231.75,-282.75 231.75,-306.25 533.75,-306.25 533.75,-282.75 231.75,-282.75"/>
<polygon fill="none" stroke="black" points="231.75,-282.75 231.75,-306.25 533.75,-306.25 533.75,-282.75 231.75,-282.75"/>
<text text-anchor="start" x="236.75" y="-291.8" font-family="Helvetica,sans-Serif" font-weight="bold" font-size="11.00">user_role_authorization</text>
<text text-anchor="start" x="492" y="-290.8" font-family="Helvetica,sans-Serif" font-size="11.00">[table]</text>
<polygon fill="none" stroke="black" points="231.75,-260.75 231.75,-282.75 411.75,-282.75 411.75,-260.75 231.75,-260.75"/>
<image xlink:href="../../images/primaryKeys.png" width="11px" height="12px" preserveAspectRatio="xMinYMin meet" x="236.75" y="-277.75"/>
<text text-anchor="start" x="251.75" y="-267.3" font-family="Helvetica,sans-Serif" font-size="11.00">user_authorization</text>
<polygon fill="none" stroke="black" points="411.75,-260.75 411.75,-282.75 511.38,-282.75 511.38,-260.75 411.75,-260.75"/>
<text text-anchor="start" x="414.75" y="-268.05" font-family="Helvetica,sans-Serif" font-size="11.00">varchar[191]</text>
<polygon fill="none" stroke="black" points="231.75,-238.75 231.75,-260.75 411.75,-260.75 411.75,-238.75 231.75,-238.75"/>
<image xlink:href="../../images/primaryKeys.png" width="11px" height="12px" preserveAspectRatio="xMinYMin meet" x="236.75" y="-255.75"/>
<text text-anchor="start" x="251.75" y="-245.3" font-family="Helvetica,sans-Serif" font-size="11.00">role</text>
<polygon fill="none" stroke="black" points="411.75,-238.75 411.75,-260.75 511.38,-260.75 511.38,-238.75 411.75,-238.75"/>
<text text-anchor="start" x="414.75" y="-246.05" font-family="Helvetica,sans-Serif" font-size="11.00">varchar[191]</text>
<polygon fill="#ffffff" stroke="none" points="231.75,-219.25 231.75,-238.75 327.75,-238.75 327.75,-219.25 231.75,-219.25"/>
<polygon fill="none" stroke="black" points="231.75,-219.25 231.75,-238.75 327.75,-238.75 327.75,-219.25 231.75,-219.25"/>
<text text-anchor="start" x="234.75" y="-225.3" font-family="Helvetica,sans-Serif" font-size="11.00">&lt; 2</text>
<polygon fill="#ffffff" stroke="none" points="327.75,-219.25 327.75,-238.75 411.75,-238.75 411.75,-219.25 327.75,-219.25"/>
<polygon fill="none" stroke="black" points="327.75,-219.25 327.75,-238.75 411.75,-238.75 411.75,-219.25 327.75,-219.25"/>
<text text-anchor="start" x="401.25" y="-225.3" font-family="Helvetica,sans-Serif" font-size="11.00"> &#160;</text>
<polygon fill="#ffffff" stroke="none" points="411.75,-219.25 411.75,-238.75 511.38,-238.75 511.38,-219.25 411.75,-219.25"/>
<polygon fill="none" stroke="black" points="411.75,-219.25 411.75,-238.75 511.38,-238.75 511.38,-219.25 411.75,-219.25"/>
<text text-anchor="start" x="488.88" y="-225.3" font-family="Helvetica,sans-Serif" font-size="11.00">0 &gt;</text>
<polygon fill="none" stroke="black" stroke-width="2" points="230.75,-218.25 230.75,-307.25 534.75,-307.25 534.75,-218.25 230.75,-218.25"/>
</a>
</g>
</g>
<!-- user_role_authorization&#45;&gt;user_role -->
<g id="edge2" class="edge">
<title>user_role_authorization:w&#45;&gt;user_role:e</title>
<path fill="none" stroke="black" d="M215.71,-246.11C182.52,-226.32 221.99,-132.5 169.38,-132.5"/>
<polygon fill="black" stroke="black" points="222.65,-247.79 229.58,-253.17 226.86,-248.81 230.1,-249.59 230.1,-249.59 230.1,-249.59 226.86,-248.81 231.27,-246.17 222.65,-247.79"/>
<ellipse fill="none" stroke="black" cx="217.87" cy="-246.63" rx="3.2" ry="3.2"/>
</g>
<!-- user_authorization -->
<g id="node4" class="node">
<title>user_authorization</title>
<g id="a_node4"><a xlink:href="../../tables/user_authorization.html" xlink:title="user_authorization" target="_top">
<polygon fill="#ffffff" stroke="none" points="8,-188.5 8,-317 180.75,-317 180.75,-188.5 8,-188.5"/>
<polygon fill="#f5f5f5" stroke="none" points="8,-293.5 8,-317 180.75,-317 180.75,-293.5 8,-293.5"/>
<polygon fill="none" stroke="black" points="8,-293.5 8,-317 180.75,-317 180.75,-293.5 8,-293.5"/>
<text text-anchor="start" x="13" y="-302.55" font-family="Helvetica,sans-Serif" font-weight="bold" font-size="11.00">user_authorization</text>
<text text-anchor="start" x="139" y="-301.55" font-family="Helvetica,sans-Serif" font-size="11.00">[table]</text>
<polygon fill="none" stroke="black" points="8,-271.5 8,-293.5 180.75,-293.5 180.75,-271.5 8,-271.5"/>
<image xlink:href="../../images/primaryKeys.png" width="11px" height="12px" preserveAspectRatio="xMinYMin meet" x="13" y="-288.5"/>
<text text-anchor="start" x="40.38" y="-278.05" font-family="Helvetica,sans-Serif" font-size="11.00">identifier</text>
<polygon fill="#ffffff" stroke="none" points="8,-249.5 8,-271.5 180.75,-271.5 180.75,-249.5 8,-249.5"/>
<polygon fill="none" stroke="black" points="8,-249.5 8,-271.5 180.75,-271.5 180.75,-249.5 8,-249.5"/>
<text text-anchor="start" x="40.38" y="-256.05" font-family="Helvetica,sans-Serif" font-size="11.00">code</text>
<polygon fill="#ffffff" stroke="none" points="8,-227.5 8,-249.5 180.75,-249.5 180.75,-227.5 8,-227.5"/>
<polygon fill="none" stroke="black" points="8,-227.5 8,-249.5 180.75,-249.5 180.75,-227.5 8,-227.5"/>
<text text-anchor="start" x="40.38" y="-234.05" font-family="Helvetica,sans-Serif" font-size="11.00">label</text>
<polygon fill="none" stroke="black" points="8,-208 8,-227.5 180.75,-227.5 180.75,-208 8,-208"/>
<text text-anchor="start" x="11" y="-214.05" font-family="Helvetica,sans-Serif" font-size="11.00">...</text>
<polygon fill="#ffffff" stroke="none" points="8,-188.5 8,-208 61.58,-208 61.58,-188.5 8,-188.5"/>
<polygon fill="none" stroke="black" points="8,-188.5 8,-208 61.58,-208 61.58,-188.5 8,-188.5"/>
<text text-anchor="start" x="11" y="-194.55" font-family="Helvetica,sans-Serif" font-size="11.00"> &#160;</text>
<polygon fill="#ffffff" stroke="none" points="61.58,-188.5 61.58,-208 115.17,-208 115.17,-188.5 61.58,-188.5"/>
<polygon fill="none" stroke="black" points="61.58,-188.5 61.58,-208 115.17,-208 115.17,-188.5 61.58,-188.5"/>
<text text-anchor="start" x="104.67" y="-194.55" font-family="Helvetica,sans-Serif" font-size="11.00"> &#160;</text>
<polygon fill="#ffffff" stroke="none" points="115.17,-188.5 115.17,-208 180.75,-208 180.75,-188.5 115.17,-188.5"/>
<polygon fill="none" stroke="black" points="115.17,-188.5 115.17,-208 180.75,-208 180.75,-188.5 115.17,-188.5"/>
<text text-anchor="start" x="158.25" y="-194.55" font-family="Helvetica,sans-Serif" font-size="11.00">1 &gt;</text>
</a>
</g>
</g>
<!-- user_role_authorization&#45;&gt;user_authorization -->
<g id="edge3" class="edge">
<title>user_role_authorization:w&#45;&gt;user_authorization:e</title>
<path fill="none" stroke="black" d="M215.39,-273.82C204.56,-276.95 197.78,-282.5 181.75,-282.5"/>
<polygon fill="black" stroke="black" points="222.49,-272.86 230.9,-275.36 226.79,-272.28 230.09,-271.84 230.09,-271.84 230.09,-271.84 226.79,-272.28 229.94,-268.23 222.49,-272.86"/>
<ellipse fill="none" stroke="black" cx="217.62" cy="-273.52" rx="3.2" ry="3.2"/>
</g>
<!-- user_user -->
<g id="node5" class="node">
<title>user_user</title>
<g id="a_node5"><a xlink:href="../../tables/user_user.html" xlink:title="user_user" target="_top">
<polygon fill="#ffffff" stroke="none" points="584.75,-86.5 584.75,-149 696.5,-149 696.5,-86.5 584.75,-86.5"/>
<polygon fill="#f5f5f5" stroke="none" points="584.75,-125.5 584.75,-149 696.5,-149 696.5,-125.5 584.75,-125.5"/>
<polygon fill="none" stroke="black" points="584.75,-125.5 584.75,-149 696.5,-149 696.5,-125.5 584.75,-125.5"/>
<text text-anchor="start" x="589.75" y="-134.55" font-family="Helvetica,sans-Serif" font-weight="bold" font-size="11.00">user_user</text>
<text text-anchor="start" x="654.75" y="-133.55" font-family="Helvetica,sans-Serif" font-size="11.00">[table]</text>
<polygon fill="none" stroke="black" points="584.75,-106 584.75,-125.5 696.5,-125.5 696.5,-106 584.75,-106"/>
<text text-anchor="start" x="587.75" y="-112.05" font-family="Helvetica,sans-Serif" font-size="11.00">...</text>
<polygon fill="#ffffff" stroke="none" points="584.75,-86.5 584.75,-106 626,-106 626,-86.5 584.75,-86.5"/>
<polygon fill="none" stroke="black" points="584.75,-86.5 584.75,-106 626,-106 626,-86.5 584.75,-86.5"/>
<text text-anchor="start" x="587.75" y="-92.55" font-family="Helvetica,sans-Serif" font-size="11.00">&lt; 4</text>
<polygon fill="#ffffff" stroke="none" points="626,-86.5 626,-106 655.25,-106 655.25,-86.5 626,-86.5"/>
<polygon fill="none" stroke="black" points="626,-86.5 626,-106 655.25,-106 655.25,-86.5 626,-86.5"/>
<text text-anchor="start" x="644.75" y="-92.55" font-family="Helvetica,sans-Serif" font-size="11.00"> &#160;</text>
<polygon fill="#ffffff" stroke="none" points="655.25,-86.5 655.25,-106 696.5,-106 696.5,-86.5 655.25,-86.5"/>
<polygon fill="none" stroke="black" points="655.25,-86.5 655.25,-106 696.5,-106 696.5,-86.5 655.25,-86.5"/>
<text text-anchor="start" x="674" y="-92.55" font-family="Helvetica,sans-Serif" font-size="11.00">4 &gt;</text>
</a>
</g>
</g>
<!-- user_user&#45;&gt;lib_library -->
<g id="edge4" class="edge">
<title>user_user:w&#45;&gt;lib_library:e</title>
<path fill="none" stroke="black" d="M568.13,-116.31C516.29,-120.19 499.8,-142.75 440.62,-142.75"/>
<polygon fill="black" stroke="black" points="575.42,-116.05 583.55,-119.36 579.75,-115.89 583.08,-115.77 583.08,-115.77 583.08,-115.77 579.75,-115.89 583.29,-112.16 575.42,-116.05"/>
<ellipse fill="none" stroke="black" cx="570.51" cy="-116.23" rx="3.2" ry="3.2"/>
</g>
<!-- user_user&#45;&gt;user_role -->
<g id="edge5" class="edge">
<title>user_user:w&#45;&gt;user_role:e</title>
<path fill="none" stroke="black" d="M568.28,-112.65C561,-109.43 555.58,-104.62 543.75,-102.75 402.4,-80.36 360.11,-66.2 221.75,-102.75 195.87,-109.59 196.15,-132.5 169.38,-132.5"/>
<polygon fill="black" stroke="black" points="575.58,-114.11 582.71,-119.21 579.83,-114.96 583.09,-115.62 583.09,-115.62 583.09,-115.62 579.83,-114.96 584.13,-112.15 575.58,-114.11"/>
<ellipse fill="none" stroke="black" cx="570.76" cy="-113.14" rx="3.2" ry="3.2"/>
</g>
</g>
</svg>
