<?xml version="1.0" encoding="UTF-8" standalone="no"?>
<!DOCTYPE svg PUBLIC "-//W3C//DTD SVG 1.1//EN"
 "http://www.w3.org/Graphics/SVG/1.1/DTD/svg11.dtd">
<!-- Generated by graphviz version 12.2.0 (0)
 -->
<!-- Title: oneDegreeRelationshipsDiagram Pages: 1 -->
<svg width="806pt" height="375pt"
 viewBox="0.00 0.00 806.00 375.25" xmlns="http://www.w3.org/2000/svg" xmlns:xlink="http://www.w3.org/1999/xlink">
<g id="graph0" class="graph" transform="scale(1 1) rotate(0) translate(4 371.25)">
<title>oneDegreeRelationshipsDiagram</title>
<polygon fill="#ffffff" stroke="none" points="-4,4 -4,-371.25 802,-371.25 802,4 -4,4"/>
<text text-anchor="middle" x="79.25" y="-7.05" font-family="Helvetica,sans-Serif" font-size="11.00">Generated by SchemaSpy</text>
<!-- workflow_group -->
<g id="node1" class="node">
<title>workflow_group</title>
<g id="a_node1"><a xlink:href="../../tables/workflow_group.html" xlink:title="workflow_group" target="_top">
<polygon fill="#ffffff" stroke="none" points="291,-55.25 291,-300.25 544.25,-300.25 544.25,-55.25 291,-55.25"/>
<polygon fill="#f5f5f5" stroke="none" points="293,-274.75 293,-298.25 542.25,-298.25 542.25,-274.75 293,-274.75"/>
<polygon fill="none" stroke="black" points="293,-274.75 293,-298.25 542.25,-298.25 542.25,-274.75 293,-274.75"/>
<text text-anchor="start" x="298" y="-283.8" font-family="Helvetica,sans-Serif" font-weight="bold" font-size="11.00">workflow_group</text>
<text text-anchor="start" x="500.5" y="-282.8" font-family="Helvetica,sans-Serif" font-size="11.00">[table]</text>
<polygon fill="none" stroke="black" points="293,-252.75 293,-274.75 441,-274.75 441,-252.75 293,-252.75"/>
<image xlink:href="../../images/primaryKeys.png" width="11px" height="12px" preserveAspectRatio="xMinYMin meet" x="298" y="-269.75"/>
<text text-anchor="start" x="313" y="-259.3" font-family="Helvetica,sans-Serif" font-size="11.00">identifier</text>
<polygon fill="none" stroke="black" points="441,-252.75 441,-274.75 535.5,-274.75 535.5,-252.75 441,-252.75"/>
<text text-anchor="start" x="444" y="-260.05" font-family="Helvetica,sans-Serif" font-size="11.00">varchar[191]</text>
<polygon fill="#ffffff" stroke="none" points="293,-230.75 293,-252.75 441,-252.75 441,-230.75 293,-230.75"/>
<polygon fill="none" stroke="black" points="293,-230.75 293,-252.75 441,-252.75 441,-230.75 293,-230.75"/>
<text text-anchor="start" x="313" y="-237.3" font-family="Helvetica,sans-Serif" font-size="11.00">name</text>
<polygon fill="none" stroke="black" points="441,-230.75 441,-252.75 535.5,-252.75 535.5,-230.75 441,-230.75"/>
<text text-anchor="start" x="444" y="-238.05" font-family="Helvetica,sans-Serif" font-size="11.00">varchar[191]</text>
<polygon fill="#ffffff" stroke="none" points="293,-208.75 293,-230.75 441,-230.75 441,-208.75 293,-208.75"/>
<polygon fill="none" stroke="black" points="293,-208.75 293,-230.75 441,-230.75 441,-208.75 293,-208.75"/>
<image xlink:href="../../images/foreignKeys.png" width="11px" height="12px" preserveAspectRatio="xMinYMin meet" x="298" y="-225.75"/>
<text text-anchor="start" x="313" y="-215.3" font-family="Helvetica,sans-Serif" font-size="11.00">library</text>
<polygon fill="none" stroke="black" points="441,-208.75 441,-230.75 535.5,-230.75 535.5,-208.75 441,-208.75"/>
<text text-anchor="start" x="444" y="-216.05" font-family="Helvetica,sans-Serif" font-size="11.00">varchar[191]</text>
<polygon fill="none" stroke="black" points="293,-186.75 293,-208.75 441,-208.75 441,-186.75 293,-186.75"/>
<text text-anchor="start" x="313" y="-193.3" font-family="Helvetica,sans-Serif" font-size="11.00">description</text>
<polygon fill="none" stroke="black" points="441,-186.75 441,-208.75 535.5,-208.75 535.5,-186.75 441,-186.75"/>
<text text-anchor="start" x="444" y="-194.05" font-family="Helvetica,sans-Serif" font-size="11.00">text[65535]</text>
<polygon fill="none" stroke="black" points="293,-164.75 293,-186.75 441,-186.75 441,-164.75 293,-164.75"/>
<text text-anchor="start" x="313" y="-171.3" font-family="Helvetica,sans-Serif" font-size="11.00">version</text>
<polygon fill="none" stroke="black" points="441,-164.75 441,-186.75 535.5,-186.75 535.5,-164.75 441,-164.75"/>
<text text-anchor="start" x="444" y="-172.05" font-family="Helvetica,sans-Serif" font-size="11.00">bigint[19]</text>
<polygon fill="none" stroke="black" points="293,-142.75 293,-164.75 441,-164.75 441,-142.75 293,-142.75"/>
<text text-anchor="start" x="313" y="-149.3" font-family="Helvetica,sans-Serif" font-size="11.00">created_by</text>
<polygon fill="none" stroke="black" points="441,-142.75 441,-164.75 535.5,-164.75 535.5,-142.75 441,-142.75"/>
<text text-anchor="start" x="444" y="-150.05" font-family="Helvetica,sans-Serif" font-size="11.00">varchar[255]</text>
<polygon fill="none" stroke="black" points="293,-120.75 293,-142.75 441,-142.75 441,-120.75 293,-120.75"/>
<text text-anchor="start" x="313" y="-127.3" font-family="Helvetica,sans-Serif" font-size="11.00">last_modified_by</text>
<polygon fill="none" stroke="black" points="441,-120.75 441,-142.75 535.5,-142.75 535.5,-120.75 441,-120.75"/>
<text text-anchor="start" x="444" y="-128.05" font-family="Helvetica,sans-Serif" font-size="11.00">varchar[255]</text>
<polygon fill="none" stroke="black" points="293,-98.75 293,-120.75 441,-120.75 441,-98.75 293,-98.75"/>
<text text-anchor="start" x="313" y="-105.3" font-family="Helvetica,sans-Serif" font-size="11.00">created_date</text>
<polygon fill="none" stroke="black" points="441,-98.75 441,-120.75 535.5,-120.75 535.5,-98.75 441,-98.75"/>
<text text-anchor="start" x="444" y="-106.05" font-family="Helvetica,sans-Serif" font-size="11.00">timestamp[19]</text>
<polygon fill="none" stroke="black" points="293,-76.75 293,-98.75 441,-98.75 441,-76.75 293,-76.75"/>
<text text-anchor="start" x="313" y="-83.3" font-family="Helvetica,sans-Serif" font-size="11.00">last_modified_date</text>
<polygon fill="none" stroke="black" points="441,-76.75 441,-98.75 535.5,-98.75 535.5,-76.75 441,-76.75"/>
<text text-anchor="start" x="444" y="-84.05" font-family="Helvetica,sans-Serif" font-size="11.00">timestamp[19]</text>
<polygon fill="#ffffff" stroke="none" points="293,-57.25 293,-76.75 373,-76.75 373,-57.25 293,-57.25"/>
<polygon fill="none" stroke="black" points="293,-57.25 293,-76.75 373,-76.75 373,-57.25 293,-57.25"/>
<text text-anchor="start" x="296" y="-63.3" font-family="Helvetica,sans-Serif" font-size="11.00">&lt; 1</text>
<polygon fill="#ffffff" stroke="none" points="373,-57.25 373,-76.75 441,-76.75 441,-57.25 373,-57.25"/>
<polygon fill="none" stroke="black" points="373,-57.25 373,-76.75 441,-76.75 441,-57.25 373,-57.25"/>
<text text-anchor="start" x="430.5" y="-63.3" font-family="Helvetica,sans-Serif" font-size="11.00"> &#160;</text>
<polygon fill="#ffffff" stroke="none" points="441,-57.25 441,-76.75 535.5,-76.75 535.5,-57.25 441,-57.25"/>
<polygon fill="none" stroke="black" points="441,-57.25 441,-76.75 535.5,-76.75 535.5,-57.25 441,-57.25"/>
<text text-anchor="start" x="513" y="-63.3" font-family="Helvetica,sans-Serif" font-size="11.00">2 &gt;</text>
<polygon fill="none" stroke="black" stroke-width="2" points="292,-56.25 292,-299.25 543.25,-299.25 543.25,-56.25 292,-56.25"/>
</a>
</g>
</g>
<!-- lib_library -->
<g id="node2" class="node">
<title>lib_library</title>
<g id="a_node2"><a xlink:href="../../tables/lib_library.html" xlink:title="lib_library" target="_top">
<polygon fill="#ffffff" stroke="none" points="8,-38.5 8,-255 242,-255 242,-38.5 8,-38.5"/>
<polygon fill="#f5f5f5" stroke="none" points="8,-231.5 8,-255 242,-255 242,-231.5 8,-231.5"/>
<polygon fill="none" stroke="black" points="8,-231.5 8,-255 242,-255 242,-231.5 8,-231.5"/>
<text text-anchor="start" x="13" y="-240.55" font-family="Helvetica,sans-Serif" font-weight="bold" font-size="11.00">lib_library</text>
<text text-anchor="start" x="200.25" y="-239.55" font-family="Helvetica,sans-Serif" font-size="11.00">[table]</text>
<polygon fill="none" stroke="black" points="8,-209.5 8,-231.5 242,-231.5 242,-209.5 8,-209.5"/>
<image xlink:href="../../images/primaryKeys.png" width="11px" height="12px" preserveAspectRatio="xMinYMin meet" x="13" y="-226.5"/>
<text text-anchor="start" x="28" y="-216.05" font-family="Helvetica,sans-Serif" font-size="11.00">identifier</text>
<polygon fill="#ffffff" stroke="none" points="8,-187.5 8,-209.5 242,-209.5 242,-187.5 8,-187.5"/>
<polygon fill="none" stroke="black" points="8,-187.5 8,-209.5 242,-209.5 242,-187.5 8,-187.5"/>
<image xlink:href="../../images/foreignKeys.png" width="11px" height="12px" preserveAspectRatio="xMinYMin meet" x="13" y="-204.5"/>
<text text-anchor="start" x="28" y="-194.05" font-family="Helvetica,sans-Serif" font-size="11.00">address</text>
<polygon fill="#ffffff" stroke="none" points="8,-165.5 8,-187.5 242,-187.5 242,-165.5 8,-165.5"/>
<polygon fill="none" stroke="black" points="8,-165.5 8,-187.5 242,-187.5 242,-165.5 8,-165.5"/>
<image xlink:href="../../images/foreignKeys.png" width="11px" height="12px" preserveAspectRatio="xMinYMin meet" x="13" y="-182.5"/>
<text text-anchor="start" x="28" y="-172.05" font-family="Helvetica,sans-Serif" font-size="11.00">active_configuration_ftp</text>
<polygon fill="#ffffff" stroke="none" points="8,-143.5 8,-165.5 242,-165.5 242,-143.5 8,-143.5"/>
<polygon fill="none" stroke="black" points="8,-143.5 8,-165.5 242,-165.5 242,-143.5 8,-143.5"/>
<image xlink:href="../../images/foreignKeys.png" width="11px" height="12px" preserveAspectRatio="xMinYMin meet" x="13" y="-160.5"/>
<text text-anchor="start" x="28" y="-150.05" font-family="Helvetica,sans-Serif" font-size="11.00">active_configuration_check</text>
<polygon fill="#ffffff" stroke="none" points="8,-121.5 8,-143.5 242,-143.5 242,-121.5 8,-121.5"/>
<polygon fill="none" stroke="black" points="8,-121.5 8,-143.5 242,-143.5 242,-121.5 8,-121.5"/>
<image xlink:href="../../images/foreignKeys.png" width="11px" height="12px" preserveAspectRatio="xMinYMin meet" x="13" y="-138.5"/>
<text text-anchor="start" x="28" y="-128.05" font-family="Helvetica,sans-Serif" font-size="11.00">role</text>
<polygon fill="#ffffff" stroke="none" points="8,-99.5 8,-121.5 242,-121.5 242,-99.5 8,-99.5"/>
<polygon fill="none" stroke="black" points="8,-99.5 8,-121.5 242,-121.5 242,-99.5 8,-99.5"/>
<image xlink:href="../../images/foreignKeys.png" width="11px" height="12px" preserveAspectRatio="xMinYMin meet" x="13" y="-116.5"/>
<text text-anchor="start" x="28" y="-106.05" font-family="Helvetica,sans-Serif" font-size="11.00">active_configuration_export_ftp</text>
<polygon fill="#ffffff" stroke="none" points="8,-77.5 8,-99.5 242,-99.5 242,-77.5 8,-77.5"/>
<polygon fill="none" stroke="black" points="8,-77.5 8,-99.5 242,-99.5 242,-77.5 8,-77.5"/>
<image xlink:href="../../images/foreignKeys.png" width="11px" height="12px" preserveAspectRatio="xMinYMin meet" x="13" y="-94.5"/>
<text text-anchor="start" x="28" y="-84.05" font-family="Helvetica,sans-Serif" font-size="11.00">active_configuration_ocr_lang</text>
<polygon fill="none" stroke="black" points="8,-58 8,-77.5 242,-77.5 242,-58 8,-58"/>
<text text-anchor="start" x="11" y="-64.05" font-family="Helvetica,sans-Serif" font-size="11.00">...</text>
<polygon fill="#ffffff" stroke="none" points="8,-38.5 8,-58 87.75,-58 87.75,-38.5 8,-38.5"/>
<polygon fill="none" stroke="black" points="8,-38.5 8,-58 87.75,-58 87.75,-38.5 8,-38.5"/>
<text text-anchor="start" x="11" y="-44.55" font-family="Helvetica,sans-Serif" font-size="11.00">&lt; 6</text>
<polygon fill="#ffffff" stroke="none" points="87.75,-38.5 87.75,-58 155.5,-58 155.5,-38.5 87.75,-38.5"/>
<polygon fill="none" stroke="black" points="87.75,-38.5 87.75,-58 155.5,-58 155.5,-38.5 87.75,-38.5"/>
<text text-anchor="start" x="145" y="-44.55" font-family="Helvetica,sans-Serif" font-size="11.00"> &#160;</text>
<polygon fill="#ffffff" stroke="none" points="155.5,-38.5 155.5,-58 242,-58 242,-38.5 155.5,-38.5"/>
<polygon fill="none" stroke="black" points="155.5,-38.5 155.5,-58 242,-58 242,-38.5 155.5,-38.5"/>
<text text-anchor="start" x="212.75" y="-44.55" font-family="Helvetica,sans-Serif" font-size="11.00">27 &gt;</text>
</a>
</g>
</g>
<!-- workflow_group&#45;&gt;lib_library -->
<g id="edge1" class="edge">
<title>workflow_group:w&#45;&gt;lib_library:e</title>
<path fill="none" stroke="black" d="M276.42,-219.9C265.71,-220.12 258.48,-220.5 243,-220.5"/>
<polygon fill="black" stroke="black" points="283.67,-219.83 291.7,-223.35 288,-219.79 291.33,-219.76 291.33,-219.76 291.33,-219.76 288,-219.79 291.63,-216.15 283.67,-219.83"/>
<ellipse fill="none" stroke="black" cx="278.75" cy="-219.88" rx="3.2" ry="3.2"/>
</g>
<!-- workflow_group_user -->
<g id="node3" class="node">
<title>workflow_group_user</title>
<g id="a_node3"><a xlink:href="../../tables/workflow_group_user.html" xlink:title="workflow_group_user" target="_top">
<polygon fill="#ffffff" stroke="none" points="596.75,-276.25 596.75,-363.25 786.5,-363.25 786.5,-276.25 596.75,-276.25"/>
<polygon fill="#f5f5f5" stroke="none" points="596.75,-339.75 596.75,-363.25 786.5,-363.25 786.5,-339.75 596.75,-339.75"/>
<polygon fill="none" stroke="black" points="596.75,-339.75 596.75,-363.25 786.5,-363.25 786.5,-339.75 596.75,-339.75"/>
<text text-anchor="start" x="601.75" y="-348.8" font-family="Helvetica,sans-Serif" font-weight="bold" font-size="11.00">workflow_group_user</text>
<text text-anchor="start" x="744.75" y="-347.8" font-family="Helvetica,sans-Serif" font-size="11.00">[table]</text>
<polygon fill="none" stroke="black" points="596.75,-317.75 596.75,-339.75 786.5,-339.75 786.5,-317.75 596.75,-317.75"/>
<image xlink:href="../../images/primaryKeys.png" width="11px" height="12px" preserveAspectRatio="xMinYMin meet" x="601.75" y="-334.75"/>
<text text-anchor="start" x="629.62" y="-324.3" font-family="Helvetica,sans-Serif" font-size="11.00">workflow_group</text>
<polygon fill="none" stroke="black" points="596.75,-295.75 596.75,-317.75 786.5,-317.75 786.5,-295.75 596.75,-295.75"/>
<image xlink:href="../../images/primaryKeys.png" width="11px" height="12px" preserveAspectRatio="xMinYMin meet" x="601.75" y="-312.75"/>
<text text-anchor="start" x="629.62" y="-302.3" font-family="Helvetica,sans-Serif" font-size="11.00">workflow_user</text>
<polygon fill="#ffffff" stroke="none" points="596.75,-276.25 596.75,-295.75 668,-295.75 668,-276.25 596.75,-276.25"/>
<polygon fill="none" stroke="black" points="596.75,-276.25 596.75,-295.75 668,-295.75 668,-276.25 596.75,-276.25"/>
<text text-anchor="start" x="599.75" y="-282.3" font-family="Helvetica,sans-Serif" font-size="11.00">&lt; 2</text>
<polygon fill="#ffffff" stroke="none" points="668,-276.25 668,-295.75 727.25,-295.75 727.25,-276.25 668,-276.25"/>
<polygon fill="none" stroke="black" points="668,-276.25 668,-295.75 727.25,-295.75 727.25,-276.25 668,-276.25"/>
<text text-anchor="start" x="716.75" y="-282.3" font-family="Helvetica,sans-Serif" font-size="11.00"> &#160;</text>
<polygon fill="#ffffff" stroke="none" points="727.25,-276.25 727.25,-295.75 786.5,-295.75 786.5,-276.25 727.25,-276.25"/>
<polygon fill="none" stroke="black" points="727.25,-276.25 727.25,-295.75 786.5,-295.75 786.5,-276.25 727.25,-276.25"/>
<text text-anchor="start" x="776" y="-282.3" font-family="Helvetica,sans-Serif" font-size="11.00"> &#160;</text>
</a>
</g>
</g>
<!-- workflow_group_user&#45;&gt;workflow_group -->
<g id="edge2" class="edge">
<title>workflow_group_user:w&#45;&gt;workflow_group:e</title>
<path fill="none" stroke="black" d="M580.68,-324.08C561.31,-309.17 569.18,-263.75 536.5,-263.75"/>
<polygon fill="black" stroke="black" points="587.79,-326.28 594.36,-332.09 591.93,-327.56 595.11,-328.55 595.11,-328.55 595.11,-328.55 591.93,-327.56 596.5,-325.21 587.79,-326.28"/>
<ellipse fill="none" stroke="black" cx="583.09" cy="-324.82" rx="3.2" ry="3.2"/>
</g>
<!-- workflow_model_state -->
<g id="node4" class="node">
<title>workflow_model_state</title>
<g id="a_node4"><a xlink:href="../../tables/workflow_model_state.html" xlink:title="workflow_model_state" target="_top">
<polygon fill="#ffffff" stroke="none" points="593.25,-126.5 593.25,-255 790,-255 790,-126.5 593.25,-126.5"/>
<polygon fill="#f5f5f5" stroke="none" points="593.25,-231.5 593.25,-255 790,-255 790,-231.5 593.25,-231.5"/>
<polygon fill="none" stroke="black" points="593.25,-231.5 593.25,-255 790,-255 790,-231.5 593.25,-231.5"/>
<text text-anchor="start" x="598.25" y="-240.55" font-family="Helvetica,sans-Serif" font-weight="bold" font-size="11.00">workflow_model_state</text>
<text text-anchor="start" x="748.25" y="-239.55" font-family="Helvetica,sans-Serif" font-size="11.00">[table]</text>
<polygon fill="none" stroke="black" points="593.25,-209.5 593.25,-231.5 790,-231.5 790,-209.5 593.25,-209.5"/>
<image xlink:href="../../images/primaryKeys.png" width="11px" height="12px" preserveAspectRatio="xMinYMin meet" x="598.25" y="-226.5"/>
<text text-anchor="start" x="626.12" y="-216.05" font-family="Helvetica,sans-Serif" font-size="11.00">identifier</text>
<polygon fill="#ffffff" stroke="none" points="593.25,-187.5 593.25,-209.5 790,-209.5 790,-187.5 593.25,-187.5"/>
<polygon fill="none" stroke="black" points="593.25,-187.5 593.25,-209.5 790,-209.5 790,-187.5 593.25,-187.5"/>
<image xlink:href="../../images/foreignKeys.png" width="11px" height="12px" preserveAspectRatio="xMinYMin meet" x="598.25" y="-204.5"/>
<text text-anchor="start" x="626.12" y="-194.05" font-family="Helvetica,sans-Serif" font-size="11.00">group</text>
<polygon fill="#ffffff" stroke="none" points="593.25,-165.5 593.25,-187.5 790,-187.5 790,-165.5 593.25,-165.5"/>
<polygon fill="none" stroke="black" points="593.25,-165.5 593.25,-187.5 790,-187.5 790,-165.5 593.25,-165.5"/>
<image xlink:href="../../images/foreignKeys.png" width="11px" height="12px" preserveAspectRatio="xMinYMin meet" x="598.25" y="-182.5"/>
<text text-anchor="start" x="626.12" y="-172.05" font-family="Helvetica,sans-Serif" font-size="11.00">model</text>
<polygon fill="none" stroke="black" points="593.25,-146 593.25,-165.5 790,-165.5 790,-146 593.25,-146"/>
<text text-anchor="start" x="596.25" y="-152.05" font-family="Helvetica,sans-Serif" font-size="11.00">...</text>
<polygon fill="#ffffff" stroke="none" points="593.25,-126.5 593.25,-146 662.83,-146 662.83,-126.5 593.25,-126.5"/>
<polygon fill="none" stroke="black" points="593.25,-126.5 593.25,-146 662.83,-146 662.83,-126.5 593.25,-126.5"/>
<text text-anchor="start" x="596.25" y="-132.55" font-family="Helvetica,sans-Serif" font-size="11.00">&lt; 2</text>
<polygon fill="#ffffff" stroke="none" points="662.83,-126.5 662.83,-146 720.42,-146 720.42,-126.5 662.83,-126.5"/>
<polygon fill="none" stroke="black" points="662.83,-126.5 662.83,-146 720.42,-146 720.42,-126.5 662.83,-126.5"/>
<text text-anchor="start" x="709.92" y="-132.55" font-family="Helvetica,sans-Serif" font-size="11.00"> &#160;</text>
<polygon fill="#ffffff" stroke="none" points="720.42,-126.5 720.42,-146 790,-146 790,-126.5 720.42,-126.5"/>
<polygon fill="none" stroke="black" points="720.42,-126.5 720.42,-146 790,-146 790,-126.5 720.42,-126.5"/>
<text text-anchor="start" x="767.5" y="-132.55" font-family="Helvetica,sans-Serif" font-size="11.00">1 &gt;</text>
</a>
</g>
</g>
<!-- workflow_model_state&#45;&gt;workflow_group -->
<g id="edge3" class="edge">
<title>workflow_model_state:w&#45;&gt;workflow_group:e</title>
<path fill="none" stroke="black" d="M577.44,-203.4C559.35,-218.58 568.24,-263.75 536.5,-263.75"/>
<polygon fill="black" stroke="black" points="584.34,-201.12 593.06,-202.02 588.45,-199.76 591.61,-198.71 591.61,-198.71 591.61,-198.71 588.45,-199.76 590.8,-195.19 584.34,-201.12"/>
<ellipse fill="none" stroke="black" cx="579.67" cy="-202.67" rx="3.2" ry="3.2"/>
</g>
</g>
</svg>
