<?xml version="1.0" encoding="UTF-8" standalone="no"?>
<!DOCTYPE svg PUBLIC "-//W3C//DTD SVG 1.1//EN"
 "http://www.w3.org/Graphics/SVG/1.1/DTD/svg11.dtd">
<!-- Generated by graphviz version 12.2.0 (0)
 -->
<!-- Title: oneDegreeRelationshipsDiagram Pages: 1 -->
<svg width="509pt" height="395pt"
 viewBox="0.00 0.00 508.75 395.00" xmlns="http://www.w3.org/2000/svg" xmlns:xlink="http://www.w3.org/1999/xlink">
<g id="graph0" class="graph" transform="scale(1 1) rotate(0) translate(4 391)">
<title>oneDegreeRelationshipsDiagram</title>
<polygon fill="#ffffff" stroke="none" points="-4,4 -4,-391 504.75,-391 504.75,4 -4,4"/>
<text text-anchor="middle" x="79.25" y="-7.05" font-family="Helvetica,sans-Serif" font-size="11.00">Generated by SchemaSpy</text>
<!-- workflow_group_user -->
<g id="node1" class="node">
<title>workflow_group_user</title>
<g id="a_node1"><a xlink:href="../../tables/workflow_group_user.html" xlink:title="workflow_group_user" target="_top">
<polygon fill="#ffffff" stroke="none" points="210.75,-229.25 210.75,-320.25 492.75,-320.25 492.75,-229.25 210.75,-229.25"/>
<polygon fill="#f5f5f5" stroke="none" points="212.75,-294.75 212.75,-318.25 490.75,-318.25 490.75,-294.75 212.75,-294.75"/>
<polygon fill="none" stroke="black" points="212.75,-294.75 212.75,-318.25 490.75,-318.25 490.75,-294.75 212.75,-294.75"/>
<text text-anchor="start" x="217.75" y="-303.8" font-family="Helvetica,sans-Serif" font-weight="bold" font-size="11.00">workflow_group_user</text>
<text text-anchor="start" x="449" y="-302.8" font-family="Helvetica,sans-Serif" font-size="11.00">[table]</text>
<polygon fill="none" stroke="black" points="212.75,-272.75 212.75,-294.75 376.75,-294.75 376.75,-272.75 212.75,-272.75"/>
<image xlink:href="../../images/primaryKeys.png" width="11px" height="12px" preserveAspectRatio="xMinYMin meet" x="217.75" y="-289.75"/>
<text text-anchor="start" x="232.75" y="-279.3" font-family="Helvetica,sans-Serif" font-size="11.00">workflow_group</text>
<polygon fill="none" stroke="black" points="376.75,-272.75 376.75,-294.75 472.38,-294.75 472.38,-272.75 376.75,-272.75"/>
<text text-anchor="start" x="379.75" y="-280.05" font-family="Helvetica,sans-Serif" font-size="11.00">varchar[191]</text>
<polygon fill="none" stroke="black" points="212.75,-250.75 212.75,-272.75 376.75,-272.75 376.75,-250.75 212.75,-250.75"/>
<image xlink:href="../../images/primaryKeys.png" width="11px" height="12px" preserveAspectRatio="xMinYMin meet" x="217.75" y="-267.75"/>
<text text-anchor="start" x="232.75" y="-257.3" font-family="Helvetica,sans-Serif" font-size="11.00">workflow_user</text>
<polygon fill="none" stroke="black" points="376.75,-250.75 376.75,-272.75 472.38,-272.75 472.38,-250.75 376.75,-250.75"/>
<text text-anchor="start" x="379.75" y="-258.05" font-family="Helvetica,sans-Serif" font-size="11.00">varchar[191]</text>
<polygon fill="#ffffff" stroke="none" points="212.75,-231.25 212.75,-250.75 300.75,-250.75 300.75,-231.25 212.75,-231.25"/>
<polygon fill="none" stroke="black" points="212.75,-231.25 212.75,-250.75 300.75,-250.75 300.75,-231.25 212.75,-231.25"/>
<text text-anchor="start" x="215.75" y="-237.3" font-family="Helvetica,sans-Serif" font-size="11.00">&lt; 2</text>
<polygon fill="#ffffff" stroke="none" points="300.75,-231.25 300.75,-250.75 376.75,-250.75 376.75,-231.25 300.75,-231.25"/>
<polygon fill="none" stroke="black" points="300.75,-231.25 300.75,-250.75 376.75,-250.75 376.75,-231.25 300.75,-231.25"/>
<text text-anchor="start" x="366.25" y="-237.3" font-family="Helvetica,sans-Serif" font-size="11.00"> &#160;</text>
<polygon fill="#ffffff" stroke="none" points="376.75,-231.25 376.75,-250.75 472.38,-250.75 472.38,-231.25 376.75,-231.25"/>
<polygon fill="none" stroke="black" points="376.75,-231.25 376.75,-250.75 472.38,-250.75 472.38,-231.25 376.75,-231.25"/>
<text text-anchor="start" x="449.88" y="-237.3" font-family="Helvetica,sans-Serif" font-size="11.00">0 &gt;</text>
<polygon fill="none" stroke="black" stroke-width="2" points="211.75,-230.25 211.75,-319.25 491.75,-319.25 491.75,-230.25 211.75,-230.25"/>
</a>
</g>
</g>
<!-- workflow_group -->
<g id="node2" class="node">
<title>workflow_group</title>
<g id="a_node2"><a xlink:href="../../tables/workflow_group.html" xlink:title="workflow_group" target="_top">
<polygon fill="#ffffff" stroke="none" points="8,-254.5 8,-383 161.75,-383 161.75,-254.5 8,-254.5"/>
<polygon fill="#f5f5f5" stroke="none" points="8,-359.5 8,-383 161.75,-383 161.75,-359.5 8,-359.5"/>
<polygon fill="none" stroke="black" points="8,-359.5 8,-383 161.75,-383 161.75,-359.5 8,-359.5"/>
<text text-anchor="start" x="13" y="-368.55" font-family="Helvetica,sans-Serif" font-weight="bold" font-size="11.00">workflow_group</text>
<text text-anchor="start" x="120" y="-367.55" font-family="Helvetica,sans-Serif" font-size="11.00">[table]</text>
<polygon fill="none" stroke="black" points="8,-337.5 8,-359.5 161.75,-359.5 161.75,-337.5 8,-337.5"/>
<image xlink:href="../../images/primaryKeys.png" width="11px" height="12px" preserveAspectRatio="xMinYMin meet" x="13" y="-354.5"/>
<text text-anchor="start" x="30.88" y="-344.05" font-family="Helvetica,sans-Serif" font-size="11.00">identifier</text>
<polygon fill="#ffffff" stroke="none" points="8,-315.5 8,-337.5 161.75,-337.5 161.75,-315.5 8,-315.5"/>
<polygon fill="none" stroke="black" points="8,-315.5 8,-337.5 161.75,-337.5 161.75,-315.5 8,-315.5"/>
<text text-anchor="start" x="30.88" y="-322.05" font-family="Helvetica,sans-Serif" font-size="11.00">name</text>
<polygon fill="#ffffff" stroke="none" points="8,-293.5 8,-315.5 161.75,-315.5 161.75,-293.5 8,-293.5"/>
<polygon fill="none" stroke="black" points="8,-293.5 8,-315.5 161.75,-315.5 161.75,-293.5 8,-293.5"/>
<image xlink:href="../../images/foreignKeys.png" width="11px" height="12px" preserveAspectRatio="xMinYMin meet" x="13" y="-310.5"/>
<text text-anchor="start" x="30.88" y="-300.05" font-family="Helvetica,sans-Serif" font-size="11.00">library</text>
<polygon fill="none" stroke="black" points="8,-274 8,-293.5 161.75,-293.5 161.75,-274 8,-274"/>
<text text-anchor="start" x="11" y="-280.05" font-family="Helvetica,sans-Serif" font-size="11.00">...</text>
<polygon fill="#ffffff" stroke="none" points="8,-254.5 8,-274 63.25,-274 63.25,-254.5 8,-254.5"/>
<polygon fill="none" stroke="black" points="8,-254.5 8,-274 63.25,-274 63.25,-254.5 8,-254.5"/>
<text text-anchor="start" x="11" y="-260.55" font-family="Helvetica,sans-Serif" font-size="11.00">&lt; 1</text>
<polygon fill="#ffffff" stroke="none" points="63.25,-254.5 63.25,-274 106.5,-274 106.5,-254.5 63.25,-254.5"/>
<polygon fill="none" stroke="black" points="63.25,-254.5 63.25,-274 106.5,-274 106.5,-254.5 63.25,-254.5"/>
<text text-anchor="start" x="96" y="-260.55" font-family="Helvetica,sans-Serif" font-size="11.00"> &#160;</text>
<polygon fill="#ffffff" stroke="none" points="106.5,-254.5 106.5,-274 161.75,-274 161.75,-254.5 106.5,-254.5"/>
<polygon fill="none" stroke="black" points="106.5,-254.5 106.5,-274 161.75,-274 161.75,-254.5 106.5,-254.5"/>
<text text-anchor="start" x="139.25" y="-260.55" font-family="Helvetica,sans-Serif" font-size="11.00">2 &gt;</text>
</a>
</g>
</g>
<!-- workflow_group_user&#45;&gt;workflow_group -->
<g id="edge1" class="edge">
<title>workflow_group_user:w&#45;&gt;workflow_group:e</title>
<path fill="none" stroke="black" d="M197.35,-289.27C182.08,-304.93 192.35,-348.5 162.75,-348.5"/>
<polygon fill="black" stroke="black" points="203.97,-286.73 212.73,-287.23 208.02,-285.18 211.13,-283.99 211.13,-283.99 211.13,-283.99 208.02,-285.18 210.15,-280.51 203.97,-286.73"/>
<ellipse fill="none" stroke="black" cx="199.38" cy="-288.49" rx="3.2" ry="3.2"/>
</g>
<!-- user_user -->
<g id="node3" class="node">
<title>user_user</title>
<g id="a_node3"><a xlink:href="../../tables/user_user.html" xlink:title="user_user" target="_top">
<polygon fill="#ffffff" stroke="none" points="10.88,-38.5 10.88,-233 158.88,-233 158.88,-38.5 10.88,-38.5"/>
<polygon fill="#f5f5f5" stroke="none" points="10.88,-209.5 10.88,-233 158.88,-233 158.88,-209.5 10.88,-209.5"/>
<polygon fill="none" stroke="black" points="10.88,-209.5 10.88,-233 158.88,-233 158.88,-209.5 10.88,-209.5"/>
<text text-anchor="start" x="15.88" y="-218.55" font-family="Helvetica,sans-Serif" font-weight="bold" font-size="11.00">user_user</text>
<text text-anchor="start" x="117.12" y="-217.55" font-family="Helvetica,sans-Serif" font-size="11.00">[table]</text>
<polygon fill="none" stroke="black" points="10.88,-187.5 10.88,-209.5 158.88,-209.5 158.88,-187.5 10.88,-187.5"/>
<image xlink:href="../../images/primaryKeys.png" width="11px" height="12px" preserveAspectRatio="xMinYMin meet" x="15.875" y="-204.5"/>
<text text-anchor="start" x="30.88" y="-194.05" font-family="Helvetica,sans-Serif" font-size="11.00">identifier</text>
<polygon fill="#ffffff" stroke="none" points="10.88,-165.5 10.88,-187.5 158.88,-187.5 158.88,-165.5 10.88,-165.5"/>
<polygon fill="none" stroke="black" points="10.88,-165.5 10.88,-187.5 158.88,-187.5 158.88,-165.5 10.88,-165.5"/>
<text text-anchor="start" x="30.88" y="-172.05" font-family="Helvetica,sans-Serif" font-size="11.00">login</text>
<polygon fill="#ffffff" stroke="none" points="10.88,-143.5 10.88,-165.5 158.88,-165.5 158.88,-143.5 10.88,-143.5"/>
<polygon fill="none" stroke="black" points="10.88,-143.5 10.88,-165.5 158.88,-165.5 158.88,-143.5 10.88,-143.5"/>
<image xlink:href="../../images/foreignKeys.png" width="11px" height="12px" preserveAspectRatio="xMinYMin meet" x="15.875" y="-160.5"/>
<text text-anchor="start" x="30.88" y="-150.05" font-family="Helvetica,sans-Serif" font-size="11.00">role</text>
<polygon fill="#ffffff" stroke="none" points="10.88,-121.5 10.88,-143.5 158.88,-143.5 158.88,-121.5 10.88,-121.5"/>
<polygon fill="none" stroke="black" points="10.88,-121.5 10.88,-143.5 158.88,-143.5 158.88,-121.5 10.88,-121.5"/>
<image xlink:href="../../images/foreignKeys.png" width="11px" height="12px" preserveAspectRatio="xMinYMin meet" x="15.875" y="-138.5"/>
<text text-anchor="start" x="30.88" y="-128.05" font-family="Helvetica,sans-Serif" font-size="11.00">library</text>
<polygon fill="#ffffff" stroke="none" points="10.88,-99.5 10.88,-121.5 158.88,-121.5 158.88,-99.5 10.88,-99.5"/>
<polygon fill="none" stroke="black" points="10.88,-99.5 10.88,-121.5 158.88,-121.5 158.88,-99.5 10.88,-99.5"/>
<image xlink:href="../../images/foreignKeys.png" width="11px" height="12px" preserveAspectRatio="xMinYMin meet" x="15.875" y="-116.5"/>
<text text-anchor="start" x="30.88" y="-106.05" font-family="Helvetica,sans-Serif" font-size="11.00">dashboard</text>
<polygon fill="#ffffff" stroke="none" points="10.88,-77.5 10.88,-99.5 158.88,-99.5 158.88,-77.5 10.88,-77.5"/>
<polygon fill="none" stroke="black" points="10.88,-77.5 10.88,-99.5 158.88,-99.5 158.88,-77.5 10.88,-77.5"/>
<image xlink:href="../../images/foreignKeys.png" width="11px" height="12px" preserveAspectRatio="xMinYMin meet" x="15.875" y="-94.5"/>
<text text-anchor="start" x="30.88" y="-84.05" font-family="Helvetica,sans-Serif" font-size="11.00">address</text>
<polygon fill="none" stroke="black" points="10.88,-58 10.88,-77.5 158.88,-77.5 158.88,-58 10.88,-58"/>
<text text-anchor="start" x="13.88" y="-64.05" font-family="Helvetica,sans-Serif" font-size="11.00">...</text>
<polygon fill="#ffffff" stroke="none" points="10.88,-38.5 10.88,-58 64.21,-58 64.21,-38.5 10.88,-38.5"/>
<polygon fill="none" stroke="black" points="10.88,-38.5 10.88,-58 64.21,-58 64.21,-38.5 10.88,-38.5"/>
<text text-anchor="start" x="13.88" y="-44.55" font-family="Helvetica,sans-Serif" font-size="11.00">&lt; 4</text>
<polygon fill="#ffffff" stroke="none" points="64.21,-38.5 64.21,-58 105.54,-58 105.54,-38.5 64.21,-38.5"/>
<polygon fill="none" stroke="black" points="64.21,-38.5 64.21,-58 105.54,-58 105.54,-38.5 64.21,-38.5"/>
<text text-anchor="start" x="95.04" y="-44.55" font-family="Helvetica,sans-Serif" font-size="11.00"> &#160;</text>
<polygon fill="#ffffff" stroke="none" points="105.54,-38.5 105.54,-58 158.88,-58 158.88,-38.5 105.54,-38.5"/>
<polygon fill="none" stroke="black" points="105.54,-38.5 105.54,-58 158.88,-58 158.88,-38.5 105.54,-38.5"/>
<text text-anchor="start" x="136.38" y="-44.55" font-family="Helvetica,sans-Serif" font-size="11.00">4 &gt;</text>
</a>
</g>
</g>
<!-- workflow_group_user&#45;&gt;user_user -->
<g id="edge2" class="edge">
<title>workflow_group_user:w&#45;&gt;user_user:e</title>
<path fill="none" stroke="black" d="M197.03,-256.36C181.04,-241.06 189.7,-198.5 159.88,-198.5"/>
<polygon fill="black" stroke="black" points="203.92,-258.88 210.2,-265.02 207.99,-260.37 211.12,-261.52 211.12,-261.52 211.12,-261.52 207.99,-260.37 212.67,-258.25 203.92,-258.88"/>
<ellipse fill="none" stroke="black" cx="199.31" cy="-257.19" rx="3.2" ry="3.2"/>
</g>
</g>
</svg>
