<?xml version="1.0" encoding="UTF-8" standalone="no"?>
<!DOCTYPE svg PUBLIC "-//W3C//DTD SVG 1.1//EN"
 "http://www.w3.org/Graphics/SVG/1.1/DTD/svg11.dtd">
<!-- Generated by graphviz version 12.2.0 (0)
 -->
<!-- Title: twoDegreesRelationshipsDiagram Pages: 1 -->
<svg width="917pt" height="617pt"
 viewBox="0.00 0.00 917.00 617.00" xmlns="http://www.w3.org/2000/svg" xmlns:xlink="http://www.w3.org/1999/xlink">
<g id="graph0" class="graph" transform="scale(1 1) rotate(0) translate(4 613)">
<title>twoDegreesRelationshipsDiagram</title>
<polygon fill="#ffffff" stroke="none" points="-4,4 -4,-613 913,-613 913,4 -4,4"/>
<text text-anchor="middle" x="79.25" y="-7.05" font-family="Helvetica,sans-Serif" font-size="11.00">Generated by SchemaSpy</text>
<!-- doc_workflow -->
<g id="node1" class="node">
<title>doc_workflow</title>
<g id="a_node1"><a xlink:href="../../tables/doc_workflow.html" xlink:title="doc_workflow" target="_top">
<polygon fill="#ffffff" stroke="none" points="455.5,-148.5 455.5,-211 593.25,-211 593.25,-148.5 455.5,-148.5"/>
<polygon fill="#f5f5f5" stroke="none" points="455.5,-187.5 455.5,-211 593.25,-211 593.25,-187.5 455.5,-187.5"/>
<polygon fill="none" stroke="black" points="455.5,-187.5 455.5,-211 593.25,-211 593.25,-187.5 455.5,-187.5"/>
<text text-anchor="start" x="460.5" y="-196.55" font-family="Helvetica,sans-Serif" font-weight="bold" font-size="11.00">doc_workflow</text>
<text text-anchor="start" x="551.5" y="-195.55" font-family="Helvetica,sans-Serif" font-size="11.00">[table]</text>
<polygon fill="none" stroke="black" points="455.5,-168 455.5,-187.5 593.25,-187.5 593.25,-168 455.5,-168"/>
<text text-anchor="start" x="458.5" y="-174.05" font-family="Helvetica,sans-Serif" font-size="11.00">...</text>
<polygon fill="#ffffff" stroke="none" points="455.5,-148.5 455.5,-168 505.42,-168 505.42,-148.5 455.5,-148.5"/>
<polygon fill="none" stroke="black" points="455.5,-148.5 455.5,-168 505.42,-168 505.42,-148.5 455.5,-148.5"/>
<text text-anchor="start" x="458.5" y="-154.55" font-family="Helvetica,sans-Serif" font-size="11.00">&lt; 1</text>
<polygon fill="#ffffff" stroke="none" points="505.42,-148.5 505.42,-168 543.33,-168 543.33,-148.5 505.42,-148.5"/>
<polygon fill="none" stroke="black" points="505.42,-148.5 505.42,-168 543.33,-168 543.33,-148.5 505.42,-148.5"/>
<text text-anchor="start" x="532.83" y="-154.55" font-family="Helvetica,sans-Serif" font-size="11.00"> &#160;</text>
<polygon fill="#ffffff" stroke="none" points="543.33,-148.5 543.33,-168 593.25,-168 593.25,-148.5 543.33,-148.5"/>
<polygon fill="none" stroke="black" points="543.33,-148.5 543.33,-168 593.25,-168 593.25,-148.5 543.33,-148.5"/>
<text text-anchor="start" x="570.75" y="-154.55" font-family="Helvetica,sans-Serif" font-size="11.00">2 &gt;</text>
</a>
</g>
</g>
<!-- workflow_model -->
<g id="node2" class="node">
<title>workflow_model</title>
<g id="a_node2"><a xlink:href="../../tables/workflow_model.html" xlink:title="workflow_model" target="_top">
<polygon fill="#ffffff" stroke="none" points="170.75,-87.5 170.75,-216 326.5,-216 326.5,-87.5 170.75,-87.5"/>
<polygon fill="#f5f5f5" stroke="none" points="170.75,-192.5 170.75,-216 326.5,-216 326.5,-192.5 170.75,-192.5"/>
<polygon fill="none" stroke="black" points="170.75,-192.5 170.75,-216 326.5,-216 326.5,-192.5 170.75,-192.5"/>
<text text-anchor="start" x="175.75" y="-201.55" font-family="Helvetica,sans-Serif" font-weight="bold" font-size="11.00">workflow_model</text>
<text text-anchor="start" x="284.75" y="-200.55" font-family="Helvetica,sans-Serif" font-size="11.00">[table]</text>
<polygon fill="none" stroke="black" points="170.75,-170.5 170.75,-192.5 326.5,-192.5 326.5,-170.5 170.75,-170.5"/>
<image xlink:href="../../images/primaryKeys.png" width="11px" height="12px" preserveAspectRatio="xMinYMin meet" x="175.75" y="-187.5"/>
<text text-anchor="start" x="194.62" y="-177.05" font-family="Helvetica,sans-Serif" font-size="11.00">identifier</text>
<polygon fill="#ffffff" stroke="none" points="170.75,-148.5 170.75,-170.5 326.5,-170.5 326.5,-148.5 170.75,-148.5"/>
<polygon fill="none" stroke="black" points="170.75,-148.5 170.75,-170.5 326.5,-170.5 326.5,-148.5 170.75,-148.5"/>
<text text-anchor="start" x="194.62" y="-155.05" font-family="Helvetica,sans-Serif" font-size="11.00">name</text>
<polygon fill="#ffffff" stroke="none" points="170.75,-126.5 170.75,-148.5 326.5,-148.5 326.5,-126.5 170.75,-126.5"/>
<polygon fill="none" stroke="black" points="170.75,-126.5 170.75,-148.5 326.5,-148.5 326.5,-126.5 170.75,-126.5"/>
<image xlink:href="../../images/foreignKeys.png" width="11px" height="12px" preserveAspectRatio="xMinYMin meet" x="175.75" y="-143.5"/>
<text text-anchor="start" x="194.62" y="-133.05" font-family="Helvetica,sans-Serif" font-size="11.00">library</text>
<polygon fill="none" stroke="black" points="170.75,-107 170.75,-126.5 326.5,-126.5 326.5,-107 170.75,-107"/>
<text text-anchor="start" x="173.75" y="-113.05" font-family="Helvetica,sans-Serif" font-size="11.00">...</text>
<polygon fill="#ffffff" stroke="none" points="170.75,-87.5 170.75,-107 226.67,-107 226.67,-87.5 170.75,-87.5"/>
<polygon fill="none" stroke="black" points="170.75,-87.5 170.75,-107 226.67,-107 226.67,-87.5 170.75,-87.5"/>
<text text-anchor="start" x="173.75" y="-93.55" font-family="Helvetica,sans-Serif" font-size="11.00">&lt; 1</text>
<polygon fill="#ffffff" stroke="none" points="226.67,-87.5 226.67,-107 270.58,-107 270.58,-87.5 226.67,-87.5"/>
<polygon fill="none" stroke="black" points="226.67,-87.5 226.67,-107 270.58,-107 270.58,-87.5 226.67,-87.5"/>
<text text-anchor="start" x="260.08" y="-93.55" font-family="Helvetica,sans-Serif" font-size="11.00"> &#160;</text>
<polygon fill="#ffffff" stroke="none" points="270.58,-87.5 270.58,-107 326.5,-107 326.5,-87.5 270.58,-87.5"/>
<polygon fill="none" stroke="black" points="270.58,-87.5 270.58,-107 326.5,-107 326.5,-87.5 270.58,-87.5"/>
<text text-anchor="start" x="304" y="-93.55" font-family="Helvetica,sans-Serif" font-size="11.00">4 &gt;</text>
</a>
</g>
</g>
<!-- doc_workflow&#45;&gt;workflow_model -->
<g id="edge1" class="edge">
<title>doc_workflow:w&#45;&gt;workflow_model:e</title>
<path fill="none" stroke="black" d="M438.8,-177.85C394.81,-178.46 378.34,-181.5 327.5,-181.5"/>
<polygon fill="black" stroke="black" points="446.17,-177.81 454.19,-181.35 450.5,-177.78 453.83,-177.75 453.83,-177.75 453.83,-177.75 450.5,-177.78 454.14,-174.15 446.17,-177.81"/>
<ellipse fill="none" stroke="black" cx="441.25" cy="-177.84" rx="3.2" ry="3.2"/>
</g>
<!-- lib_library -->
<g id="node7" class="node">
<title>lib_library</title>
<g id="a_node7"><a xlink:href="../../tables/lib_library.html" xlink:title="lib_library" target="_top">
<polygon fill="#ffffff" stroke="none" points="8,-108.5 8,-171 121.75,-171 121.75,-108.5 8,-108.5"/>
<polygon fill="#f5f5f5" stroke="none" points="8,-147.5 8,-171 121.75,-171 121.75,-147.5 8,-147.5"/>
<polygon fill="none" stroke="black" points="8,-147.5 8,-171 121.75,-171 121.75,-147.5 8,-147.5"/>
<text text-anchor="start" x="13" y="-156.55" font-family="Helvetica,sans-Serif" font-weight="bold" font-size="11.00">lib_library</text>
<text text-anchor="start" x="80" y="-155.55" font-family="Helvetica,sans-Serif" font-size="11.00">[table]</text>
<polygon fill="none" stroke="black" points="8,-128 8,-147.5 121.75,-147.5 121.75,-128 8,-128"/>
<text text-anchor="start" x="11" y="-134.05" font-family="Helvetica,sans-Serif" font-size="11.00">...</text>
<polygon fill="#ffffff" stroke="none" points="8,-108.5 8,-128 47.67,-128 47.67,-108.5 8,-108.5"/>
<polygon fill="none" stroke="black" points="8,-108.5 8,-128 47.67,-128 47.67,-108.5 8,-108.5"/>
<text text-anchor="start" x="11" y="-114.55" font-family="Helvetica,sans-Serif" font-size="11.00">&lt; 6</text>
<polygon fill="#ffffff" stroke="none" points="47.67,-108.5 47.67,-128 75.33,-128 75.33,-108.5 47.67,-108.5"/>
<polygon fill="none" stroke="black" points="47.67,-108.5 47.67,-128 75.33,-128 75.33,-108.5 47.67,-108.5"/>
<text text-anchor="start" x="64.83" y="-114.55" font-family="Helvetica,sans-Serif" font-size="11.00"> &#160;</text>
<polygon fill="#ffffff" stroke="none" points="75.33,-108.5 75.33,-128 121.75,-128 121.75,-108.5 75.33,-108.5"/>
<polygon fill="none" stroke="black" points="75.33,-108.5 75.33,-128 121.75,-128 121.75,-108.5 75.33,-108.5"/>
<text text-anchor="start" x="92.5" y="-114.55" font-family="Helvetica,sans-Serif" font-size="11.00">27 &gt;</text>
</a>
</g>
</g>
<!-- workflow_model&#45;&gt;lib_library -->
<g id="edge10" class="edge">
<title>workflow_model:w&#45;&gt;lib_library:e</title>
<path fill="none" stroke="black" d="M154.13,-137.56C144.22,-137.63 137.27,-137.75 122.75,-137.75"/>
<polygon fill="black" stroke="black" points="161.42,-137.53 169.43,-141.1 165.75,-137.51 169.08,-137.5 169.08,-137.5 169.08,-137.5 165.75,-137.51 169.4,-133.9 161.42,-137.53"/>
<ellipse fill="none" stroke="black" cx="156.5" cy="-137.55" rx="3.2" ry="3.2"/>
</g>
<!-- doc_workflow_state -->
<g id="node3" class="node">
<title>doc_workflow_state</title>
<g id="a_node3"><a xlink:href="../../tables/doc_workflow_state.html" xlink:title="doc_workflow_state" target="_top">
<polygon fill="#ffffff" stroke="none" points="722.25,-269.5 722.25,-398 901,-398 901,-269.5 722.25,-269.5"/>
<polygon fill="#f5f5f5" stroke="none" points="722.25,-374.5 722.25,-398 901,-398 901,-374.5 722.25,-374.5"/>
<polygon fill="none" stroke="black" points="722.25,-374.5 722.25,-398 901,-398 901,-374.5 722.25,-374.5"/>
<text text-anchor="start" x="727.25" y="-383.55" font-family="Helvetica,sans-Serif" font-weight="bold" font-size="11.00">doc_workflow_state</text>
<text text-anchor="start" x="859.25" y="-382.55" font-family="Helvetica,sans-Serif" font-size="11.00">[table]</text>
<polygon fill="none" stroke="black" points="722.25,-352.5 722.25,-374.5 901,-374.5 901,-352.5 722.25,-352.5"/>
<image xlink:href="../../images/primaryKeys.png" width="11px" height="12px" preserveAspectRatio="xMinYMin meet" x="727.25" y="-369.5"/>
<text text-anchor="start" x="755.12" y="-359.05" font-family="Helvetica,sans-Serif" font-size="11.00">identifier</text>
<polygon fill="#ffffff" stroke="none" points="722.25,-330.5 722.25,-352.5 901,-352.5 901,-330.5 722.25,-330.5"/>
<polygon fill="none" stroke="black" points="722.25,-330.5 722.25,-352.5 901,-352.5 901,-330.5 722.25,-330.5"/>
<image xlink:href="../../images/foreignKeys.png" width="11px" height="12px" preserveAspectRatio="xMinYMin meet" x="727.25" y="-347.5"/>
<text text-anchor="start" x="755.12" y="-337.05" font-family="Helvetica,sans-Serif" font-size="11.00">model_state</text>
<polygon fill="#ffffff" stroke="none" points="722.25,-308.5 722.25,-330.5 901,-330.5 901,-308.5 722.25,-308.5"/>
<polygon fill="none" stroke="black" points="722.25,-308.5 722.25,-330.5 901,-330.5 901,-308.5 722.25,-308.5"/>
<image xlink:href="../../images/foreignKeys.png" width="11px" height="12px" preserveAspectRatio="xMinYMin meet" x="727.25" y="-325.5"/>
<text text-anchor="start" x="755.12" y="-315.05" font-family="Helvetica,sans-Serif" font-size="11.00">workflow</text>
<polygon fill="none" stroke="black" points="722.25,-289 722.25,-308.5 901,-308.5 901,-289 722.25,-289"/>
<text text-anchor="start" x="725.25" y="-295.05" font-family="Helvetica,sans-Serif" font-size="11.00">...</text>
<polygon fill="#ffffff" stroke="none" points="722.25,-269.5 722.25,-289 789.83,-289 789.83,-269.5 722.25,-269.5"/>
<polygon fill="none" stroke="black" points="722.25,-269.5 722.25,-289 789.83,-289 789.83,-269.5 722.25,-269.5"/>
<text text-anchor="start" x="725.25" y="-275.55" font-family="Helvetica,sans-Serif" font-size="11.00">&lt; 2</text>
<polygon fill="#ffffff" stroke="none" points="789.83,-269.5 789.83,-289 845.42,-289 845.42,-269.5 789.83,-269.5"/>
<polygon fill="none" stroke="black" points="789.83,-269.5 789.83,-289 845.42,-289 845.42,-269.5 789.83,-269.5"/>
<text text-anchor="start" x="834.92" y="-275.55" font-family="Helvetica,sans-Serif" font-size="11.00"> &#160;</text>
<polygon fill="#ffffff" stroke="none" points="845.42,-269.5 845.42,-289 901,-289 901,-269.5 845.42,-269.5"/>
<polygon fill="none" stroke="black" points="845.42,-269.5 845.42,-289 901,-289 901,-269.5 845.42,-269.5"/>
<text text-anchor="start" x="890.5" y="-275.55" font-family="Helvetica,sans-Serif" font-size="11.00"> &#160;</text>
</a>
</g>
</g>
<!-- doc_workflow_state&#45;&gt;doc_workflow -->
<g id="edge3" class="edge">
<title>doc_workflow_state:w&#45;&gt;doc_workflow:e</title>
<path fill="none" stroke="black" d="M706.1,-316C683.82,-302.28 708.61,-251.39 681.25,-221.75 651.86,-189.91 637.58,-177.75 594.25,-177.75"/>
<polygon fill="black" stroke="black" points="713.13,-317.63 720.11,-322.93 717.35,-318.6 720.6,-319.35 720.6,-319.35 720.6,-319.35 717.35,-318.6 721.73,-315.92 713.13,-317.63"/>
<ellipse fill="none" stroke="black" cx="708.34" cy="-316.52" rx="3.2" ry="3.2"/>
</g>
<!-- workflow_model_state -->
<g id="node4" class="node">
<title>workflow_model_state</title>
<g id="a_node4"><a xlink:href="../../tables/workflow_model_state.html" xlink:title="workflow_model_state" target="_top">
<polygon fill="#ffffff" stroke="none" points="375.5,-232.25 375.5,-521.25 673.25,-521.25 673.25,-232.25 375.5,-232.25"/>
<polygon fill="#f5f5f5" stroke="none" points="377.5,-495.75 377.5,-519.25 671.25,-519.25 671.25,-495.75 377.5,-495.75"/>
<polygon fill="none" stroke="black" points="377.5,-495.75 377.5,-519.25 671.25,-519.25 671.25,-495.75 377.5,-495.75"/>
<text text-anchor="start" x="382.5" y="-504.8" font-family="Helvetica,sans-Serif" font-weight="bold" font-size="11.00">workflow_model_state</text>
<text text-anchor="start" x="629.5" y="-503.8" font-family="Helvetica,sans-Serif" font-size="11.00">[table]</text>
<polygon fill="none" stroke="black" points="377.5,-473.75 377.5,-495.75 548.5,-495.75 548.5,-473.75 377.5,-473.75"/>
<image xlink:href="../../images/primaryKeys.png" width="11px" height="12px" preserveAspectRatio="xMinYMin meet" x="382.5" y="-490.75"/>
<text text-anchor="start" x="397.5" y="-480.3" font-family="Helvetica,sans-Serif" font-size="11.00">identifier</text>
<polygon fill="none" stroke="black" points="548.5,-473.75 548.5,-495.75 653.75,-495.75 653.75,-473.75 548.5,-473.75"/>
<text text-anchor="start" x="551.5" y="-481.05" font-family="Helvetica,sans-Serif" font-size="11.00">varchar[191]</text>
<polygon fill="none" stroke="black" points="377.5,-451.75 377.5,-473.75 548.5,-473.75 548.5,-451.75 377.5,-451.75"/>
<text text-anchor="start" x="397.5" y="-458.3" font-family="Helvetica,sans-Serif" font-size="11.00">key</text>
<polygon fill="none" stroke="black" points="548.5,-451.75 548.5,-473.75 653.75,-473.75 653.75,-451.75 548.5,-451.75"/>
<text text-anchor="start" x="551.5" y="-459.05" font-family="Helvetica,sans-Serif" font-size="11.00">varchar[255]</text>
<polygon fill="#ffffff" stroke="none" points="377.5,-429.75 377.5,-451.75 548.5,-451.75 548.5,-429.75 377.5,-429.75"/>
<polygon fill="none" stroke="black" points="377.5,-429.75 377.5,-451.75 548.5,-451.75 548.5,-429.75 377.5,-429.75"/>
<image xlink:href="../../images/foreignKeys.png" width="11px" height="12px" preserveAspectRatio="xMinYMin meet" x="382.5" y="-446.75"/>
<text text-anchor="start" x="397.5" y="-436.3" font-family="Helvetica,sans-Serif" font-size="11.00">group</text>
<polygon fill="none" stroke="black" points="548.5,-429.75 548.5,-451.75 653.75,-451.75 653.75,-429.75 548.5,-429.75"/>
<text text-anchor="start" x="551.5" y="-437.05" font-family="Helvetica,sans-Serif" font-size="11.00">varchar[191]</text>
<polygon fill="#ffffff" stroke="none" points="377.5,-407.75 377.5,-429.75 548.5,-429.75 548.5,-407.75 377.5,-407.75"/>
<polygon fill="none" stroke="black" points="377.5,-407.75 377.5,-429.75 548.5,-429.75 548.5,-407.75 377.5,-407.75"/>
<image xlink:href="../../images/foreignKeys.png" width="11px" height="12px" preserveAspectRatio="xMinYMin meet" x="382.5" y="-424.75"/>
<text text-anchor="start" x="397.5" y="-414.3" font-family="Helvetica,sans-Serif" font-size="11.00">model</text>
<polygon fill="none" stroke="black" points="548.5,-407.75 548.5,-429.75 653.75,-429.75 653.75,-407.75 548.5,-407.75"/>
<text text-anchor="start" x="551.5" y="-415.05" font-family="Helvetica,sans-Serif" font-size="11.00">varchar[191]</text>
<polygon fill="none" stroke="black" points="377.5,-385.75 377.5,-407.75 548.5,-407.75 548.5,-385.75 377.5,-385.75"/>
<text text-anchor="start" x="397.5" y="-392.3" font-family="Helvetica,sans-Serif" font-size="11.00">limit_duration</text>
<polygon fill="none" stroke="black" points="548.5,-385.75 548.5,-407.75 653.75,-407.75 653.75,-385.75 548.5,-385.75"/>
<text text-anchor="start" x="551.5" y="-393.05" font-family="Helvetica,sans-Serif" font-size="11.00">bigint[19]</text>
<polygon fill="none" stroke="black" points="377.5,-363.75 377.5,-385.75 548.5,-385.75 548.5,-363.75 377.5,-363.75"/>
<text text-anchor="start" x="397.5" y="-370.3" font-family="Helvetica,sans-Serif" font-size="11.00">version</text>
<polygon fill="none" stroke="black" points="548.5,-363.75 548.5,-385.75 653.75,-385.75 653.75,-363.75 548.5,-363.75"/>
<text text-anchor="start" x="551.5" y="-371.05" font-family="Helvetica,sans-Serif" font-size="11.00">bigint[19]</text>
<polygon fill="none" stroke="black" points="377.5,-341.75 377.5,-363.75 548.5,-363.75 548.5,-341.75 377.5,-341.75"/>
<text text-anchor="start" x="397.5" y="-348.3" font-family="Helvetica,sans-Serif" font-size="11.00">created_by</text>
<polygon fill="none" stroke="black" points="548.5,-341.75 548.5,-363.75 653.75,-363.75 653.75,-341.75 548.5,-341.75"/>
<text text-anchor="start" x="551.5" y="-349.05" font-family="Helvetica,sans-Serif" font-size="11.00">varchar[255]</text>
<polygon fill="none" stroke="black" points="377.5,-319.75 377.5,-341.75 548.5,-341.75 548.5,-319.75 377.5,-319.75"/>
<text text-anchor="start" x="397.5" y="-326.3" font-family="Helvetica,sans-Serif" font-size="11.00">last_modified_by</text>
<polygon fill="none" stroke="black" points="548.5,-319.75 548.5,-341.75 653.75,-341.75 653.75,-319.75 548.5,-319.75"/>
<text text-anchor="start" x="551.5" y="-327.05" font-family="Helvetica,sans-Serif" font-size="11.00">varchar[255]</text>
<polygon fill="none" stroke="black" points="377.5,-297.75 377.5,-319.75 548.5,-319.75 548.5,-297.75 377.5,-297.75"/>
<text text-anchor="start" x="397.5" y="-304.3" font-family="Helvetica,sans-Serif" font-size="11.00">created_date</text>
<polygon fill="none" stroke="black" points="548.5,-297.75 548.5,-319.75 653.75,-319.75 653.75,-297.75 548.5,-297.75"/>
<text text-anchor="start" x="551.5" y="-305.05" font-family="Helvetica,sans-Serif" font-size="11.00">timestamp[19]</text>
<polygon fill="none" stroke="black" points="377.5,-275.75 377.5,-297.75 548.5,-297.75 548.5,-275.75 377.5,-275.75"/>
<text text-anchor="start" x="397.5" y="-282.3" font-family="Helvetica,sans-Serif" font-size="11.00">last_modified_date</text>
<polygon fill="none" stroke="black" points="548.5,-275.75 548.5,-297.75 653.75,-297.75 653.75,-275.75 548.5,-275.75"/>
<text text-anchor="start" x="551.5" y="-283.05" font-family="Helvetica,sans-Serif" font-size="11.00">timestamp[19]</text>
<polygon fill="none" stroke="black" points="377.5,-253.75 377.5,-275.75 548.5,-275.75 548.5,-253.75 377.5,-253.75"/>
<text text-anchor="start" x="397.5" y="-260.3" font-family="Helvetica,sans-Serif" font-size="11.00">type</text>
<polygon fill="none" stroke="black" points="548.5,-253.75 548.5,-275.75 653.75,-275.75 653.75,-253.75 548.5,-253.75"/>
<text text-anchor="start" x="551.5" y="-261.05" font-family="Helvetica,sans-Serif" font-size="11.00">varchar[255]</text>
<polygon fill="#ffffff" stroke="none" points="377.5,-234.25 377.5,-253.75 469,-253.75 469,-234.25 377.5,-234.25"/>
<polygon fill="none" stroke="black" points="377.5,-234.25 377.5,-253.75 469,-253.75 469,-234.25 377.5,-234.25"/>
<text text-anchor="start" x="380.5" y="-240.3" font-family="Helvetica,sans-Serif" font-size="11.00">&lt; 2</text>
<polygon fill="#ffffff" stroke="none" points="469,-234.25 469,-253.75 548.5,-253.75 548.5,-234.25 469,-234.25"/>
<polygon fill="none" stroke="black" points="469,-234.25 469,-253.75 548.5,-253.75 548.5,-234.25 469,-234.25"/>
<text text-anchor="start" x="538" y="-240.3" font-family="Helvetica,sans-Serif" font-size="11.00"> &#160;</text>
<polygon fill="#ffffff" stroke="none" points="548.5,-234.25 548.5,-253.75 653.75,-253.75 653.75,-234.25 548.5,-234.25"/>
<polygon fill="none" stroke="black" points="548.5,-234.25 548.5,-253.75 653.75,-253.75 653.75,-234.25 548.5,-234.25"/>
<text text-anchor="start" x="631.25" y="-240.3" font-family="Helvetica,sans-Serif" font-size="11.00">1 &gt;</text>
<polygon fill="none" stroke="black" stroke-width="2" points="376.5,-233.25 376.5,-520.25 672.25,-520.25 672.25,-233.25 376.5,-233.25"/>
</a>
</g>
</g>
<!-- doc_workflow_state&#45;&gt;workflow_model_state -->
<g id="edge2" class="edge">
<title>doc_workflow_state:w&#45;&gt;workflow_model_state:e</title>
<path fill="none" stroke="black" d="M705.89,-344.63C662.93,-365.57 718.77,-484.75 654.75,-484.75"/>
<polygon fill="black" stroke="black" points="713.08,-343.16 721.64,-345.09 717.33,-342.3 720.59,-341.63 720.59,-341.63 720.59,-341.63 717.33,-342.3 720.2,-338.04 713.08,-343.16"/>
<ellipse fill="none" stroke="black" cx="708.26" cy="-344.14" rx="3.2" ry="3.2"/>
</g>
<!-- workflow_model_state&#45;&gt;workflow_model -->
<g id="edge12" class="edge">
<title>workflow_model_state:w&#45;&gt;workflow_model:e</title>
<path fill="none" stroke="black" d="M361.2,-416.7C286.2,-393.51 429.28,-181.5 327.5,-181.5"/>
<polygon fill="black" stroke="black" points="368.24,-417.64 375.69,-422.27 372.54,-418.22 375.84,-418.66 375.84,-418.66 375.84,-418.66 372.54,-418.22 376.65,-415.14 368.24,-417.64"/>
<ellipse fill="none" stroke="black" cx="363.36" cy="-416.99" rx="3.2" ry="3.2"/>
</g>
<!-- workflow_group -->
<g id="node8" class="node">
<title>workflow_group</title>
<g id="a_node8"><a xlink:href="../../tables/workflow_group.html" xlink:title="workflow_group" target="_top">
<polygon fill="#ffffff" stroke="none" points="171.75,-346.5 171.75,-475 325.5,-475 325.5,-346.5 171.75,-346.5"/>
<polygon fill="#f5f5f5" stroke="none" points="171.75,-451.5 171.75,-475 325.5,-475 325.5,-451.5 171.75,-451.5"/>
<polygon fill="none" stroke="black" points="171.75,-451.5 171.75,-475 325.5,-475 325.5,-451.5 171.75,-451.5"/>
<text text-anchor="start" x="176.75" y="-460.55" font-family="Helvetica,sans-Serif" font-weight="bold" font-size="11.00">workflow_group</text>
<text text-anchor="start" x="283.75" y="-459.55" font-family="Helvetica,sans-Serif" font-size="11.00">[table]</text>
<polygon fill="none" stroke="black" points="171.75,-429.5 171.75,-451.5 325.5,-451.5 325.5,-429.5 171.75,-429.5"/>
<image xlink:href="../../images/primaryKeys.png" width="11px" height="12px" preserveAspectRatio="xMinYMin meet" x="176.75" y="-446.5"/>
<text text-anchor="start" x="194.62" y="-436.05" font-family="Helvetica,sans-Serif" font-size="11.00">identifier</text>
<polygon fill="#ffffff" stroke="none" points="171.75,-407.5 171.75,-429.5 325.5,-429.5 325.5,-407.5 171.75,-407.5"/>
<polygon fill="none" stroke="black" points="171.75,-407.5 171.75,-429.5 325.5,-429.5 325.5,-407.5 171.75,-407.5"/>
<text text-anchor="start" x="194.62" y="-414.05" font-family="Helvetica,sans-Serif" font-size="11.00">name</text>
<polygon fill="#ffffff" stroke="none" points="171.75,-385.5 171.75,-407.5 325.5,-407.5 325.5,-385.5 171.75,-385.5"/>
<polygon fill="none" stroke="black" points="171.75,-385.5 171.75,-407.5 325.5,-407.5 325.5,-385.5 171.75,-385.5"/>
<image xlink:href="../../images/foreignKeys.png" width="11px" height="12px" preserveAspectRatio="xMinYMin meet" x="176.75" y="-402.5"/>
<text text-anchor="start" x="194.62" y="-392.05" font-family="Helvetica,sans-Serif" font-size="11.00">library</text>
<polygon fill="none" stroke="black" points="171.75,-366 171.75,-385.5 325.5,-385.5 325.5,-366 171.75,-366"/>
<text text-anchor="start" x="174.75" y="-372.05" font-family="Helvetica,sans-Serif" font-size="11.00">...</text>
<polygon fill="#ffffff" stroke="none" points="171.75,-346.5 171.75,-366 227,-366 227,-346.5 171.75,-346.5"/>
<polygon fill="none" stroke="black" points="171.75,-346.5 171.75,-366 227,-366 227,-346.5 171.75,-346.5"/>
<text text-anchor="start" x="174.75" y="-352.55" font-family="Helvetica,sans-Serif" font-size="11.00">&lt; 1</text>
<polygon fill="#ffffff" stroke="none" points="227,-346.5 227,-366 270.25,-366 270.25,-346.5 227,-346.5"/>
<polygon fill="none" stroke="black" points="227,-346.5 227,-366 270.25,-366 270.25,-346.5 227,-346.5"/>
<text text-anchor="start" x="259.75" y="-352.55" font-family="Helvetica,sans-Serif" font-size="11.00"> &#160;</text>
<polygon fill="#ffffff" stroke="none" points="270.25,-346.5 270.25,-366 325.5,-366 325.5,-346.5 270.25,-346.5"/>
<polygon fill="none" stroke="black" points="270.25,-346.5 270.25,-366 325.5,-366 325.5,-346.5 270.25,-346.5"/>
<text text-anchor="start" x="303" y="-352.55" font-family="Helvetica,sans-Serif" font-size="11.00">2 &gt;</text>
</a>
</g>
</g>
<!-- workflow_model_state&#45;&gt;workflow_group -->
<g id="edge11" class="edge">
<title>workflow_model_state:w&#45;&gt;workflow_group:e</title>
<path fill="none" stroke="black" d="M360.96,-440.7C349.83,-440.63 342.47,-440.5 326.5,-440.5"/>
<polygon fill="black" stroke="black" points="368.17,-440.72 376.15,-444.35 372.5,-440.74 375.83,-440.75 375.83,-440.75 375.83,-440.75 372.5,-440.74 376.18,-437.15 368.17,-440.72"/>
<ellipse fill="none" stroke="black" cx="363.25" cy="-440.71" rx="3.2" ry="3.2"/>
</g>
<!-- lot_lot -->
<g id="node5" class="node">
<title>lot_lot</title>
<g id="a_node5"><a xlink:href="../../tables/lot_lot.html" xlink:title="lot_lot" target="_top">
<polygon fill="#ffffff" stroke="none" points="767.25,-40.5 767.25,-103 856,-103 856,-40.5 767.25,-40.5"/>
<polygon fill="#f5f5f5" stroke="none" points="767.25,-79.5 767.25,-103 856,-103 856,-79.5 767.25,-79.5"/>
<polygon fill="none" stroke="black" points="767.25,-79.5 767.25,-103 856,-103 856,-79.5 767.25,-79.5"/>
<text text-anchor="start" x="772.12" y="-88.55" font-family="Helvetica,sans-Serif" font-weight="bold" font-size="11.00">lot_lot</text>
<text text-anchor="start" x="814.25" y="-87.55" font-family="Helvetica,sans-Serif" font-size="11.00">[table]</text>
<polygon fill="none" stroke="black" points="767.25,-60 767.25,-79.5 856,-79.5 856,-60 767.25,-60"/>
<text text-anchor="start" x="770.25" y="-66.05" font-family="Helvetica,sans-Serif" font-size="11.00">...</text>
<polygon fill="#ffffff" stroke="none" points="767.25,-40.5 767.25,-60 805.33,-60 805.33,-40.5 767.25,-40.5"/>
<polygon fill="none" stroke="black" points="767.25,-40.5 767.25,-60 805.33,-60 805.33,-40.5 767.25,-40.5"/>
<text text-anchor="start" x="770.25" y="-46.55" font-family="Helvetica,sans-Serif" font-size="11.00">&lt; 14</text>
<polygon fill="#ffffff" stroke="none" points="805.33,-40.5 805.33,-60 824.67,-60 824.67,-40.5 805.33,-40.5"/>
<polygon fill="none" stroke="black" points="805.33,-40.5 805.33,-60 824.67,-60 824.67,-40.5 805.33,-40.5"/>
<text text-anchor="start" x="814.17" y="-46.55" font-family="Helvetica,sans-Serif" font-size="11.00"> &#160;</text>
<polygon fill="#ffffff" stroke="none" points="824.67,-40.5 824.67,-60 856,-60 856,-40.5 824.67,-40.5"/>
<polygon fill="none" stroke="black" points="824.67,-40.5 824.67,-60 856,-60 856,-40.5 824.67,-40.5"/>
<text text-anchor="start" x="833.5" y="-46.55" font-family="Helvetica,sans-Serif" font-size="11.00">4 &gt;</text>
</a>
</g>
</g>
<!-- lot_lot&#45;&gt;workflow_model -->
<g id="edge5" class="edge">
<title>lot_lot:w&#45;&gt;workflow_model:e</title>
<path fill="none" stroke="black" d="M750.62,-71.43C722.72,-78.01 716.14,-102.06 681.25,-111.75 546.43,-149.18 493.1,-76.08 367.5,-137.75 343.85,-149.36 353.85,-181.5 327.5,-181.5"/>
<polygon fill="black" stroke="black" points="757.96,-70.64 766.3,-73.37 762.27,-70.18 765.58,-69.82 765.58,-69.82 765.58,-69.82 762.27,-70.18 765.53,-66.21 757.96,-70.64"/>
<ellipse fill="none" stroke="black" cx="753.07" cy="-71.17" rx="3.2" ry="3.2"/>
</g>
<!-- proj_project -->
<g id="node6" class="node">
<title>proj_project</title>
<g id="a_node6"><a xlink:href="../../tables/proj_project.html" xlink:title="proj_project" target="_top">
<polygon fill="#ffffff" stroke="none" points="461,-38.5 461,-101 587.75,-101 587.75,-38.5 461,-38.5"/>
<polygon fill="#f5f5f5" stroke="none" points="461,-77.5 461,-101 587.75,-101 587.75,-77.5 461,-77.5"/>
<polygon fill="none" stroke="black" points="461,-77.5 461,-101 587.75,-101 587.75,-77.5 461,-77.5"/>
<text text-anchor="start" x="466" y="-86.55" font-family="Helvetica,sans-Serif" font-weight="bold" font-size="11.00">proj_project</text>
<text text-anchor="start" x="546" y="-85.55" font-family="Helvetica,sans-Serif" font-size="11.00">[table]</text>
<polygon fill="none" stroke="black" points="461,-58 461,-77.5 587.75,-77.5 587.75,-58 461,-58"/>
<text text-anchor="start" x="464" y="-64.05" font-family="Helvetica,sans-Serif" font-size="11.00">...</text>
<polygon fill="#ffffff" stroke="none" points="461,-38.5 461,-58 511.75,-58 511.75,-38.5 461,-38.5"/>
<polygon fill="none" stroke="black" points="461,-38.5 461,-58 511.75,-58 511.75,-38.5 461,-38.5"/>
<text text-anchor="start" x="464" y="-44.55" font-family="Helvetica,sans-Serif" font-size="11.00">&lt; 13</text>
<polygon fill="#ffffff" stroke="none" points="511.75,-38.5 511.75,-58 543.75,-58 543.75,-38.5 511.75,-38.5"/>
<polygon fill="none" stroke="black" points="511.75,-38.5 511.75,-58 543.75,-58 543.75,-38.5 511.75,-38.5"/>
<text text-anchor="start" x="533.25" y="-44.55" font-family="Helvetica,sans-Serif" font-size="11.00"> &#160;</text>
<polygon fill="#ffffff" stroke="none" points="543.75,-38.5 543.75,-58 587.75,-58 587.75,-38.5 543.75,-38.5"/>
<polygon fill="none" stroke="black" points="543.75,-38.5 543.75,-58 587.75,-58 587.75,-38.5 543.75,-38.5"/>
<text text-anchor="start" x="565.25" y="-44.55" font-family="Helvetica,sans-Serif" font-size="11.00">7 &gt;</text>
</a>
</g>
</g>
<!-- lot_lot&#45;&gt;proj_project -->
<g id="edge4" class="edge">
<title>lot_lot:w&#45;&gt;proj_project:e</title>
<path fill="none" stroke="black" d="M750.44,-69.72C684.29,-69.48 662.1,-67.75 588.75,-67.75"/>
<polygon fill="black" stroke="black" points="757.92,-69.74 765.91,-73.35 762.25,-69.74 765.58,-69.75 765.58,-69.75 765.58,-69.75 762.25,-69.74 765.92,-66.15 757.92,-69.74"/>
<ellipse fill="none" stroke="black" cx="753" cy="-69.73" rx="3.2" ry="3.2"/>
</g>
<!-- proj_project&#45;&gt;workflow_model -->
<g id="edge7" class="edge">
<title>proj_project:w&#45;&gt;workflow_model:e</title>
<path fill="none" stroke="black" d="M444.62,-68.43C410.51,-71.75 397.14,-87.11 367.5,-114.75 342.21,-138.34 362.09,-181.5 327.5,-181.5"/>
<polygon fill="black" stroke="black" points="451.67,-68.12 459.83,-71.36 456,-67.93 459.33,-67.78 459.33,-67.78 459.33,-67.78 456,-67.93 459.51,-64.17 451.67,-68.12"/>
<ellipse fill="none" stroke="black" cx="446.76" cy="-68.34" rx="3.2" ry="3.2"/>
</g>
<!-- proj_project&#45;&gt;lib_library -->
<g id="edge6" class="edge">
<title>proj_project:w&#45;&gt;lib_library:e</title>
<path fill="none" stroke="black" d="M444.51,-67.49C323.74,-63.49 273.46,-14.77 162.75,-76.75 134.46,-92.59 155.17,-137.75 122.75,-137.75"/>
<polygon fill="black" stroke="black" points="451.67,-67.61 459.61,-71.34 456,-67.68 459.33,-67.74 459.33,-67.74 459.33,-67.74 456,-67.68 459.73,-64.14 451.67,-67.61"/>
<ellipse fill="none" stroke="black" cx="446.75" cy="-67.53" rx="3.2" ry="3.2"/>
</g>
<!-- workflow_group&#45;&gt;lib_library -->
<g id="edge8" class="edge">
<title>workflow_group:w&#45;&gt;lib_library:e</title>
<path fill="none" stroke="black" d="M156.82,-389.31C124.74,-347.52 175.41,-137.75 122.75,-137.75"/>
<polygon fill="black" stroke="black" points="163.34,-392.68 168.8,-399.55 167.2,-394.67 170.16,-396.19 170.16,-396.19 170.16,-396.19 167.2,-394.67 172.1,-393.15 163.34,-392.68"/>
<ellipse fill="none" stroke="black" cx="158.97" cy="-390.42" rx="3.2" ry="3.2"/>
</g>
<!-- workflow_group_user -->
<g id="node9" class="node">
<title>workflow_group_user</title>
<g id="a_node9"><a xlink:href="../../tables/workflow_group_user.html" xlink:title="workflow_group_user" target="_top">
<polygon fill="#ffffff" stroke="none" points="429.5,-542.5 429.5,-605 619.25,-605 619.25,-542.5 429.5,-542.5"/>
<polygon fill="#f5f5f5" stroke="none" points="429.5,-581.5 429.5,-605 619.25,-605 619.25,-581.5 429.5,-581.5"/>
<polygon fill="none" stroke="black" points="429.5,-581.5 429.5,-605 619.25,-605 619.25,-581.5 429.5,-581.5"/>
<text text-anchor="start" x="434.5" y="-590.55" font-family="Helvetica,sans-Serif" font-weight="bold" font-size="11.00">workflow_group_user</text>
<text text-anchor="start" x="577.5" y="-589.55" font-family="Helvetica,sans-Serif" font-size="11.00">[table]</text>
<polygon fill="none" stroke="black" points="429.5,-562 429.5,-581.5 619.25,-581.5 619.25,-562 429.5,-562"/>
<text text-anchor="start" x="432.5" y="-568.05" font-family="Helvetica,sans-Serif" font-size="11.00">...</text>
<polygon fill="#ffffff" stroke="none" points="429.5,-542.5 429.5,-562 500.75,-562 500.75,-542.5 429.5,-542.5"/>
<polygon fill="none" stroke="black" points="429.5,-542.5 429.5,-562 500.75,-562 500.75,-542.5 429.5,-542.5"/>
<text text-anchor="start" x="432.5" y="-548.55" font-family="Helvetica,sans-Serif" font-size="11.00">&lt; 2</text>
<polygon fill="#ffffff" stroke="none" points="500.75,-542.5 500.75,-562 560,-562 560,-542.5 500.75,-542.5"/>
<polygon fill="none" stroke="black" points="500.75,-542.5 500.75,-562 560,-562 560,-542.5 500.75,-542.5"/>
<text text-anchor="start" x="549.5" y="-548.55" font-family="Helvetica,sans-Serif" font-size="11.00"> &#160;</text>
<polygon fill="#ffffff" stroke="none" points="560,-542.5 560,-562 619.25,-562 619.25,-542.5 560,-542.5"/>
<polygon fill="none" stroke="black" points="560,-542.5 560,-562 619.25,-562 619.25,-542.5 560,-542.5"/>
<text text-anchor="start" x="608.75" y="-548.55" font-family="Helvetica,sans-Serif" font-size="11.00"> &#160;</text>
</a>
</g>
</g>
<!-- workflow_group_user&#45;&gt;workflow_group -->
<g id="edge9" class="edge">
<title>workflow_group_user:w&#45;&gt;workflow_group:e</title>
<path fill="none" stroke="black" d="M412.92,-570.24C392.86,-565.8 384.68,-551.89 367.5,-531.75 338.64,-497.93 370.96,-440.5 326.5,-440.5"/>
<polygon fill="black" stroke="black" points="420.2,-570.94 427.82,-575.3 424.52,-571.36 427.83,-571.69 427.83,-571.69 427.83,-571.69 424.52,-571.36 428.52,-568.13 420.2,-570.94"/>
<ellipse fill="none" stroke="black" cx="415.31" cy="-570.47" rx="3.2" ry="3.2"/>
</g>
</g>
</svg>
