<?xml version="1.0" encoding="UTF-8" standalone="no"?>
<!DOCTYPE svg PUBLIC "-//W3C//DTD SVG 1.1//EN"
 "http://www.w3.org/Graphics/SVG/1.1/DTD/svg11.dtd">
<!-- Generated by graphviz version 12.2.0 (0)
 -->
<!-- Title: oneDegreeRelationshipsDiagram Pages: 1 -->
<svg width="754pt" height="359pt"
 viewBox="0.00 0.00 754.25 359.25" xmlns="http://www.w3.org/2000/svg" xmlns:xlink="http://www.w3.org/1999/xlink">
<g id="graph0" class="graph" transform="scale(1 1) rotate(0) translate(4 355.25)">
<title>oneDegreeRelationshipsDiagram</title>
<polygon fill="#ffffff" stroke="none" points="-4,4 -4,-355.25 750.25,-355.25 750.25,4 -4,4"/>
<text text-anchor="middle" x="79.25" y="-7.05" font-family="Helvetica,sans-Serif" font-size="11.00">Generated by SchemaSpy</text>
<!-- doc_workflow_state -->
<g id="node1" class="node">
<title>doc_workflow_state</title>
<g id="a_node1"><a xlink:href="../../tables/doc_workflow_state.html" xlink:title="doc_workflow_state" target="_top">
<polygon fill="#ffffff" stroke="none" points="559.5,-218.75 559.5,-347.25 738.25,-347.25 738.25,-218.75 559.5,-218.75"/>
<polygon fill="#f5f5f5" stroke="none" points="559.5,-323.75 559.5,-347.25 738.25,-347.25 738.25,-323.75 559.5,-323.75"/>
<polygon fill="none" stroke="black" points="559.5,-323.75 559.5,-347.25 738.25,-347.25 738.25,-323.75 559.5,-323.75"/>
<text text-anchor="start" x="564.5" y="-332.8" font-family="Helvetica,sans-Serif" font-weight="bold" font-size="11.00">doc_workflow_state</text>
<text text-anchor="start" x="696.5" y="-331.8" font-family="Helvetica,sans-Serif" font-size="11.00">[table]</text>
<polygon fill="none" stroke="black" points="559.5,-301.75 559.5,-323.75 738.25,-323.75 738.25,-301.75 559.5,-301.75"/>
<image xlink:href="../../images/primaryKeys.png" width="11px" height="12px" preserveAspectRatio="xMinYMin meet" x="564.5" y="-318.75"/>
<text text-anchor="start" x="592.38" y="-308.3" font-family="Helvetica,sans-Serif" font-size="11.00">identifier</text>
<polygon fill="#ffffff" stroke="none" points="559.5,-279.75 559.5,-301.75 738.25,-301.75 738.25,-279.75 559.5,-279.75"/>
<polygon fill="none" stroke="black" points="559.5,-279.75 559.5,-301.75 738.25,-301.75 738.25,-279.75 559.5,-279.75"/>
<image xlink:href="../../images/foreignKeys.png" width="11px" height="12px" preserveAspectRatio="xMinYMin meet" x="564.5" y="-296.75"/>
<text text-anchor="start" x="592.38" y="-286.3" font-family="Helvetica,sans-Serif" font-size="11.00">model_state</text>
<polygon fill="#ffffff" stroke="none" points="559.5,-257.75 559.5,-279.75 738.25,-279.75 738.25,-257.75 559.5,-257.75"/>
<polygon fill="none" stroke="black" points="559.5,-257.75 559.5,-279.75 738.25,-279.75 738.25,-257.75 559.5,-257.75"/>
<image xlink:href="../../images/foreignKeys.png" width="11px" height="12px" preserveAspectRatio="xMinYMin meet" x="564.5" y="-274.75"/>
<text text-anchor="start" x="592.38" y="-264.3" font-family="Helvetica,sans-Serif" font-size="11.00">workflow</text>
<polygon fill="none" stroke="black" points="559.5,-238.25 559.5,-257.75 738.25,-257.75 738.25,-238.25 559.5,-238.25"/>
<text text-anchor="start" x="562.5" y="-244.3" font-family="Helvetica,sans-Serif" font-size="11.00">...</text>
<polygon fill="#ffffff" stroke="none" points="559.5,-218.75 559.5,-238.25 627.08,-238.25 627.08,-218.75 559.5,-218.75"/>
<polygon fill="none" stroke="black" points="559.5,-218.75 559.5,-238.25 627.08,-238.25 627.08,-218.75 559.5,-218.75"/>
<text text-anchor="start" x="562.5" y="-224.8" font-family="Helvetica,sans-Serif" font-size="11.00">&lt; 2</text>
<polygon fill="#ffffff" stroke="none" points="627.08,-218.75 627.08,-238.25 682.67,-238.25 682.67,-218.75 627.08,-218.75"/>
<polygon fill="none" stroke="black" points="627.08,-218.75 627.08,-238.25 682.67,-238.25 682.67,-218.75 627.08,-218.75"/>
<text text-anchor="start" x="672.17" y="-224.8" font-family="Helvetica,sans-Serif" font-size="11.00"> &#160;</text>
<polygon fill="#ffffff" stroke="none" points="682.67,-218.75 682.67,-238.25 738.25,-238.25 738.25,-218.75 682.67,-218.75"/>
<polygon fill="none" stroke="black" points="682.67,-218.75 682.67,-238.25 738.25,-238.25 738.25,-218.75 682.67,-218.75"/>
<text text-anchor="start" x="727.75" y="-224.8" font-family="Helvetica,sans-Serif" font-size="11.00"> &#160;</text>
</a>
</g>
</g>
<!-- workflow_model_state -->
<g id="node2" class="node">
<title>workflow_model_state</title>
<g id="a_node2"><a xlink:href="../../tables/workflow_model_state.html" xlink:title="workflow_model_state" target="_top">
<polygon fill="#ffffff" stroke="none" points="212.75,-38.5 212.75,-327.5 510.5,-327.5 510.5,-38.5 212.75,-38.5"/>
<polygon fill="#f5f5f5" stroke="none" points="214.75,-302 214.75,-325.5 508.5,-325.5 508.5,-302 214.75,-302"/>
<polygon fill="none" stroke="black" points="214.75,-302 214.75,-325.5 508.5,-325.5 508.5,-302 214.75,-302"/>
<text text-anchor="start" x="219.75" y="-311.05" font-family="Helvetica,sans-Serif" font-weight="bold" font-size="11.00">workflow_model_state</text>
<text text-anchor="start" x="466.75" y="-310.05" font-family="Helvetica,sans-Serif" font-size="11.00">[table]</text>
<polygon fill="none" stroke="black" points="214.75,-280 214.75,-302 385.75,-302 385.75,-280 214.75,-280"/>
<image xlink:href="../../images/primaryKeys.png" width="11px" height="12px" preserveAspectRatio="xMinYMin meet" x="219.75" y="-297"/>
<text text-anchor="start" x="234.75" y="-286.55" font-family="Helvetica,sans-Serif" font-size="11.00">identifier</text>
<polygon fill="none" stroke="black" points="385.75,-280 385.75,-302 491,-302 491,-280 385.75,-280"/>
<text text-anchor="start" x="388.75" y="-287.3" font-family="Helvetica,sans-Serif" font-size="11.00">varchar[191]</text>
<polygon fill="none" stroke="black" points="214.75,-258 214.75,-280 385.75,-280 385.75,-258 214.75,-258"/>
<text text-anchor="start" x="234.75" y="-264.55" font-family="Helvetica,sans-Serif" font-size="11.00">key</text>
<polygon fill="none" stroke="black" points="385.75,-258 385.75,-280 491,-280 491,-258 385.75,-258"/>
<text text-anchor="start" x="388.75" y="-265.3" font-family="Helvetica,sans-Serif" font-size="11.00">varchar[255]</text>
<polygon fill="#ffffff" stroke="none" points="214.75,-236 214.75,-258 385.75,-258 385.75,-236 214.75,-236"/>
<polygon fill="none" stroke="black" points="214.75,-236 214.75,-258 385.75,-258 385.75,-236 214.75,-236"/>
<image xlink:href="../../images/foreignKeys.png" width="11px" height="12px" preserveAspectRatio="xMinYMin meet" x="219.75" y="-253"/>
<text text-anchor="start" x="234.75" y="-242.55" font-family="Helvetica,sans-Serif" font-size="11.00">group</text>
<polygon fill="none" stroke="black" points="385.75,-236 385.75,-258 491,-258 491,-236 385.75,-236"/>
<text text-anchor="start" x="388.75" y="-243.3" font-family="Helvetica,sans-Serif" font-size="11.00">varchar[191]</text>
<polygon fill="#ffffff" stroke="none" points="214.75,-214 214.75,-236 385.75,-236 385.75,-214 214.75,-214"/>
<polygon fill="none" stroke="black" points="214.75,-214 214.75,-236 385.75,-236 385.75,-214 214.75,-214"/>
<image xlink:href="../../images/foreignKeys.png" width="11px" height="12px" preserveAspectRatio="xMinYMin meet" x="219.75" y="-231"/>
<text text-anchor="start" x="234.75" y="-220.55" font-family="Helvetica,sans-Serif" font-size="11.00">model</text>
<polygon fill="none" stroke="black" points="385.75,-214 385.75,-236 491,-236 491,-214 385.75,-214"/>
<text text-anchor="start" x="388.75" y="-221.3" font-family="Helvetica,sans-Serif" font-size="11.00">varchar[191]</text>
<polygon fill="none" stroke="black" points="214.75,-192 214.75,-214 385.75,-214 385.75,-192 214.75,-192"/>
<text text-anchor="start" x="234.75" y="-198.55" font-family="Helvetica,sans-Serif" font-size="11.00">limit_duration</text>
<polygon fill="none" stroke="black" points="385.75,-192 385.75,-214 491,-214 491,-192 385.75,-192"/>
<text text-anchor="start" x="388.75" y="-199.3" font-family="Helvetica,sans-Serif" font-size="11.00">bigint[19]</text>
<polygon fill="none" stroke="black" points="214.75,-170 214.75,-192 385.75,-192 385.75,-170 214.75,-170"/>
<text text-anchor="start" x="234.75" y="-176.55" font-family="Helvetica,sans-Serif" font-size="11.00">version</text>
<polygon fill="none" stroke="black" points="385.75,-170 385.75,-192 491,-192 491,-170 385.75,-170"/>
<text text-anchor="start" x="388.75" y="-177.3" font-family="Helvetica,sans-Serif" font-size="11.00">bigint[19]</text>
<polygon fill="none" stroke="black" points="214.75,-148 214.75,-170 385.75,-170 385.75,-148 214.75,-148"/>
<text text-anchor="start" x="234.75" y="-154.55" font-family="Helvetica,sans-Serif" font-size="11.00">created_by</text>
<polygon fill="none" stroke="black" points="385.75,-148 385.75,-170 491,-170 491,-148 385.75,-148"/>
<text text-anchor="start" x="388.75" y="-155.3" font-family="Helvetica,sans-Serif" font-size="11.00">varchar[255]</text>
<polygon fill="none" stroke="black" points="214.75,-126 214.75,-148 385.75,-148 385.75,-126 214.75,-126"/>
<text text-anchor="start" x="234.75" y="-132.55" font-family="Helvetica,sans-Serif" font-size="11.00">last_modified_by</text>
<polygon fill="none" stroke="black" points="385.75,-126 385.75,-148 491,-148 491,-126 385.75,-126"/>
<text text-anchor="start" x="388.75" y="-133.3" font-family="Helvetica,sans-Serif" font-size="11.00">varchar[255]</text>
<polygon fill="none" stroke="black" points="214.75,-104 214.75,-126 385.75,-126 385.75,-104 214.75,-104"/>
<text text-anchor="start" x="234.75" y="-110.55" font-family="Helvetica,sans-Serif" font-size="11.00">created_date</text>
<polygon fill="none" stroke="black" points="385.75,-104 385.75,-126 491,-126 491,-104 385.75,-104"/>
<text text-anchor="start" x="388.75" y="-111.3" font-family="Helvetica,sans-Serif" font-size="11.00">timestamp[19]</text>
<polygon fill="none" stroke="black" points="214.75,-82 214.75,-104 385.75,-104 385.75,-82 214.75,-82"/>
<text text-anchor="start" x="234.75" y="-88.55" font-family="Helvetica,sans-Serif" font-size="11.00">last_modified_date</text>
<polygon fill="none" stroke="black" points="385.75,-82 385.75,-104 491,-104 491,-82 385.75,-82"/>
<text text-anchor="start" x="388.75" y="-89.3" font-family="Helvetica,sans-Serif" font-size="11.00">timestamp[19]</text>
<polygon fill="none" stroke="black" points="214.75,-60 214.75,-82 385.75,-82 385.75,-60 214.75,-60"/>
<text text-anchor="start" x="234.75" y="-66.55" font-family="Helvetica,sans-Serif" font-size="11.00">type</text>
<polygon fill="none" stroke="black" points="385.75,-60 385.75,-82 491,-82 491,-60 385.75,-60"/>
<text text-anchor="start" x="388.75" y="-67.3" font-family="Helvetica,sans-Serif" font-size="11.00">varchar[255]</text>
<polygon fill="#ffffff" stroke="none" points="214.75,-40.5 214.75,-60 306.25,-60 306.25,-40.5 214.75,-40.5"/>
<polygon fill="none" stroke="black" points="214.75,-40.5 214.75,-60 306.25,-60 306.25,-40.5 214.75,-40.5"/>
<text text-anchor="start" x="217.75" y="-46.55" font-family="Helvetica,sans-Serif" font-size="11.00">&lt; 2</text>
<polygon fill="#ffffff" stroke="none" points="306.25,-40.5 306.25,-60 385.75,-60 385.75,-40.5 306.25,-40.5"/>
<polygon fill="none" stroke="black" points="306.25,-40.5 306.25,-60 385.75,-60 385.75,-40.5 306.25,-40.5"/>
<text text-anchor="start" x="375.25" y="-46.55" font-family="Helvetica,sans-Serif" font-size="11.00"> &#160;</text>
<polygon fill="#ffffff" stroke="none" points="385.75,-40.5 385.75,-60 491,-60 491,-40.5 385.75,-40.5"/>
<polygon fill="none" stroke="black" points="385.75,-40.5 385.75,-60 491,-60 491,-40.5 385.75,-40.5"/>
<text text-anchor="start" x="468.5" y="-46.55" font-family="Helvetica,sans-Serif" font-size="11.00">1 &gt;</text>
<polygon fill="none" stroke="black" stroke-width="2" points="213.75,-39.5 213.75,-326.5 509.5,-326.5 509.5,-39.5 213.75,-39.5"/>
</a>
</g>
</g>
<!-- doc_workflow_state&#45;&gt;workflow_model_state -->
<g id="edge1" class="edge">
<title>doc_workflow_state:w&#45;&gt;workflow_model_state:e</title>
<path fill="none" stroke="black" d="M542.86,-290.78C525.03,-290.84 515.55,-291 492,-291"/>
<polygon fill="black" stroke="black" points="550.17,-290.76 558.17,-294.35 554.5,-290.76 557.83,-290.75 557.83,-290.75 557.83,-290.75 554.5,-290.76 558.16,-287.15 550.17,-290.76"/>
<ellipse fill="none" stroke="black" cx="545.25" cy="-290.77" rx="3.2" ry="3.2"/>
</g>
<!-- workflow_group -->
<g id="node3" class="node">
<title>workflow_group</title>
<g id="a_node3"><a xlink:href="../../tables/workflow_group.html" xlink:title="workflow_group" target="_top">
<polygon fill="#ffffff" stroke="none" points="9,-216.75 9,-345.25 162.75,-345.25 162.75,-216.75 9,-216.75"/>
<polygon fill="#f5f5f5" stroke="none" points="9,-321.75 9,-345.25 162.75,-345.25 162.75,-321.75 9,-321.75"/>
<polygon fill="none" stroke="black" points="9,-321.75 9,-345.25 162.75,-345.25 162.75,-321.75 9,-321.75"/>
<text text-anchor="start" x="14" y="-330.8" font-family="Helvetica,sans-Serif" font-weight="bold" font-size="11.00">workflow_group</text>
<text text-anchor="start" x="121" y="-329.8" font-family="Helvetica,sans-Serif" font-size="11.00">[table]</text>
<polygon fill="none" stroke="black" points="9,-299.75 9,-321.75 162.75,-321.75 162.75,-299.75 9,-299.75"/>
<image xlink:href="../../images/primaryKeys.png" width="11px" height="12px" preserveAspectRatio="xMinYMin meet" x="14" y="-316.75"/>
<text text-anchor="start" x="31.88" y="-306.3" font-family="Helvetica,sans-Serif" font-size="11.00">identifier</text>
<polygon fill="#ffffff" stroke="none" points="9,-277.75 9,-299.75 162.75,-299.75 162.75,-277.75 9,-277.75"/>
<polygon fill="none" stroke="black" points="9,-277.75 9,-299.75 162.75,-299.75 162.75,-277.75 9,-277.75"/>
<text text-anchor="start" x="31.88" y="-284.3" font-family="Helvetica,sans-Serif" font-size="11.00">name</text>
<polygon fill="#ffffff" stroke="none" points="9,-255.75 9,-277.75 162.75,-277.75 162.75,-255.75 9,-255.75"/>
<polygon fill="none" stroke="black" points="9,-255.75 9,-277.75 162.75,-277.75 162.75,-255.75 9,-255.75"/>
<image xlink:href="../../images/foreignKeys.png" width="11px" height="12px" preserveAspectRatio="xMinYMin meet" x="14" y="-272.75"/>
<text text-anchor="start" x="31.88" y="-262.3" font-family="Helvetica,sans-Serif" font-size="11.00">library</text>
<polygon fill="none" stroke="black" points="9,-236.25 9,-255.75 162.75,-255.75 162.75,-236.25 9,-236.25"/>
<text text-anchor="start" x="12" y="-242.3" font-family="Helvetica,sans-Serif" font-size="11.00">...</text>
<polygon fill="#ffffff" stroke="none" points="9,-216.75 9,-236.25 64.25,-236.25 64.25,-216.75 9,-216.75"/>
<polygon fill="none" stroke="black" points="9,-216.75 9,-236.25 64.25,-236.25 64.25,-216.75 9,-216.75"/>
<text text-anchor="start" x="12" y="-222.8" font-family="Helvetica,sans-Serif" font-size="11.00">&lt; 1</text>
<polygon fill="#ffffff" stroke="none" points="64.25,-216.75 64.25,-236.25 107.5,-236.25 107.5,-216.75 64.25,-216.75"/>
<polygon fill="none" stroke="black" points="64.25,-216.75 64.25,-236.25 107.5,-236.25 107.5,-216.75 64.25,-216.75"/>
<text text-anchor="start" x="97" y="-222.8" font-family="Helvetica,sans-Serif" font-size="11.00"> &#160;</text>
<polygon fill="#ffffff" stroke="none" points="107.5,-216.75 107.5,-236.25 162.75,-236.25 162.75,-216.75 107.5,-216.75"/>
<polygon fill="none" stroke="black" points="107.5,-216.75 107.5,-236.25 162.75,-236.25 162.75,-216.75 107.5,-216.75"/>
<text text-anchor="start" x="140.25" y="-222.8" font-family="Helvetica,sans-Serif" font-size="11.00">2 &gt;</text>
</a>
</g>
</g>
<!-- workflow_model_state&#45;&gt;workflow_group -->
<g id="edge2" class="edge">
<title>workflow_model_state:w&#45;&gt;workflow_group:e</title>
<path fill="none" stroke="black" d="M199.29,-252.44C183.78,-267.85 193.29,-310.75 163.75,-310.75"/>
<polygon fill="black" stroke="black" points="205.95,-249.93 214.7,-250.49 210.01,-248.41 213.12,-247.24 213.12,-247.24 213.12,-247.24 210.01,-248.41 212.17,-243.75 205.95,-249.93"/>
<ellipse fill="none" stroke="black" cx="201.34" cy="-251.66" rx="3.2" ry="3.2"/>
</g>
<!-- workflow_model -->
<g id="node4" class="node">
<title>workflow_model</title>
<g id="a_node4"><a xlink:href="../../tables/workflow_model.html" xlink:title="workflow_model" target="_top">
<polygon fill="#ffffff" stroke="none" points="8,-66.75 8,-195.25 163.75,-195.25 163.75,-66.75 8,-66.75"/>
<polygon fill="#f5f5f5" stroke="none" points="8,-171.75 8,-195.25 163.75,-195.25 163.75,-171.75 8,-171.75"/>
<polygon fill="none" stroke="black" points="8,-171.75 8,-195.25 163.75,-195.25 163.75,-171.75 8,-171.75"/>
<text text-anchor="start" x="13" y="-180.8" font-family="Helvetica,sans-Serif" font-weight="bold" font-size="11.00">workflow_model</text>
<text text-anchor="start" x="122" y="-179.8" font-family="Helvetica,sans-Serif" font-size="11.00">[table]</text>
<polygon fill="none" stroke="black" points="8,-149.75 8,-171.75 163.75,-171.75 163.75,-149.75 8,-149.75"/>
<image xlink:href="../../images/primaryKeys.png" width="11px" height="12px" preserveAspectRatio="xMinYMin meet" x="13" y="-166.75"/>
<text text-anchor="start" x="31.88" y="-156.3" font-family="Helvetica,sans-Serif" font-size="11.00">identifier</text>
<polygon fill="#ffffff" stroke="none" points="8,-127.75 8,-149.75 163.75,-149.75 163.75,-127.75 8,-127.75"/>
<polygon fill="none" stroke="black" points="8,-127.75 8,-149.75 163.75,-149.75 163.75,-127.75 8,-127.75"/>
<text text-anchor="start" x="31.88" y="-134.3" font-family="Helvetica,sans-Serif" font-size="11.00">name</text>
<polygon fill="#ffffff" stroke="none" points="8,-105.75 8,-127.75 163.75,-127.75 163.75,-105.75 8,-105.75"/>
<polygon fill="none" stroke="black" points="8,-105.75 8,-127.75 163.75,-127.75 163.75,-105.75 8,-105.75"/>
<image xlink:href="../../images/foreignKeys.png" width="11px" height="12px" preserveAspectRatio="xMinYMin meet" x="13" y="-122.75"/>
<text text-anchor="start" x="31.88" y="-112.3" font-family="Helvetica,sans-Serif" font-size="11.00">library</text>
<polygon fill="none" stroke="black" points="8,-86.25 8,-105.75 163.75,-105.75 163.75,-86.25 8,-86.25"/>
<text text-anchor="start" x="11" y="-92.3" font-family="Helvetica,sans-Serif" font-size="11.00">...</text>
<polygon fill="#ffffff" stroke="none" points="8,-66.75 8,-86.25 63.92,-86.25 63.92,-66.75 8,-66.75"/>
<polygon fill="none" stroke="black" points="8,-66.75 8,-86.25 63.92,-86.25 63.92,-66.75 8,-66.75"/>
<text text-anchor="start" x="11" y="-72.8" font-family="Helvetica,sans-Serif" font-size="11.00">&lt; 1</text>
<polygon fill="#ffffff" stroke="none" points="63.92,-66.75 63.92,-86.25 107.83,-86.25 107.83,-66.75 63.92,-66.75"/>
<polygon fill="none" stroke="black" points="63.92,-66.75 63.92,-86.25 107.83,-86.25 107.83,-66.75 63.92,-66.75"/>
<text text-anchor="start" x="97.33" y="-72.8" font-family="Helvetica,sans-Serif" font-size="11.00"> &#160;</text>
<polygon fill="#ffffff" stroke="none" points="107.83,-66.75 107.83,-86.25 163.75,-86.25 163.75,-66.75 107.83,-66.75"/>
<polygon fill="none" stroke="black" points="107.83,-66.75 107.83,-86.25 163.75,-86.25 163.75,-66.75 107.83,-66.75"/>
<text text-anchor="start" x="141.25" y="-72.8" font-family="Helvetica,sans-Serif" font-size="11.00">4 &gt;</text>
</a>
</g>
</g>
<!-- workflow_model_state&#45;&gt;workflow_model -->
<g id="edge3" class="edge">
<title>workflow_model_state:w&#45;&gt;workflow_model:e</title>
<path fill="none" stroke="black" d="M199.4,-219.52C184.14,-203.98 194.21,-160.75 164.75,-160.75"/>
<polygon fill="black" stroke="black" points="205.96,-222.03 212.15,-228.24 210.01,-223.57 213.13,-224.76 213.13,-224.76 213.13,-224.76 210.01,-223.57 214.72,-221.52 205.96,-222.03"/>
<ellipse fill="none" stroke="black" cx="201.37" cy="-220.27" rx="3.2" ry="3.2"/>
</g>
</g>
</svg>
