<?xml version="1.0" encoding="UTF-8" standalone="no"?>
<!DOCTYPE svg PUBLIC "-//W3C//DTD SVG 1.1//EN"
 "http://www.w3.org/Graphics/SVG/1.1/DTD/svg11.dtd">
<!-- Generated by graphviz version 12.2.0 (0)
 -->
<!-- Title: oneDegreeRelationshipsDiagram Pages: 1 -->
<svg width="217pt" height="186pt"
 viewBox="0.00 0.00 216.75 185.50" xmlns="http://www.w3.org/2000/svg" xmlns:xlink="http://www.w3.org/1999/xlink">
<g id="graph0" class="graph" transform="scale(1 1) rotate(0) translate(4 181.5)">
<title>oneDegreeRelationshipsDiagram</title>
<polygon fill="#ffffff" stroke="none" points="-4,4 -4,-181.5 212.75,-181.5 212.75,4 -4,4"/>
<text text-anchor="middle" x="79.25" y="-7.05" font-family="Helvetica,sans-Serif" font-size="11.00">Generated by SchemaSpy</text>
<!-- app_lock -->
<g id="node1" class="node">
<title>app_lock</title>
<g id="a_node1"><a xlink:href="../../tables/app_lock.html" xlink:title="app_lock" target="_top">
<polygon fill="#ffffff" stroke="none" points="8,-38.5 8,-173.5 200.75,-173.5 200.75,-38.5 8,-38.5"/>
<polygon fill="#f5f5f5" stroke="none" points="10,-148 10,-171.5 198.75,-171.5 198.75,-148 10,-148"/>
<polygon fill="none" stroke="black" points="10,-148 10,-171.5 198.75,-171.5 198.75,-148 10,-148"/>
<text text-anchor="start" x="15" y="-157.05" font-family="Helvetica,sans-Serif" font-weight="bold" font-size="11.00">app_lock</text>
<text text-anchor="start" x="157" y="-156.05" font-family="Helvetica,sans-Serif" font-size="11.00">[table]</text>
<polygon fill="none" stroke="black" points="10,-126 10,-148 111,-148 111,-126 10,-126"/>
<image xlink:href="../../images/primaryKeys.png" width="11px" height="12px" preserveAspectRatio="xMinYMin meet" x="15" y="-143"/>
<text text-anchor="start" x="30" y="-132.55" font-family="Helvetica,sans-Serif" font-size="11.00">identifier</text>
<polygon fill="none" stroke="black" points="111,-126 111,-148 198.75,-148 198.75,-126 111,-126"/>
<text text-anchor="start" x="114" y="-133.3" font-family="Helvetica,sans-Serif" font-size="11.00">varchar[191]</text>
<polygon fill="none" stroke="black" points="10,-104 10,-126 111,-126 111,-104 10,-104"/>
<text text-anchor="start" x="30" y="-110.55" font-family="Helvetica,sans-Serif" font-size="11.00">class</text>
<polygon fill="none" stroke="black" points="111,-104 111,-126 198.75,-126 198.75,-104 111,-104"/>
<text text-anchor="start" x="114" y="-111.3" font-family="Helvetica,sans-Serif" font-size="11.00">varchar[191]</text>
<polygon fill="none" stroke="black" points="10,-82 10,-104 111,-104 111,-82 10,-82"/>
<text text-anchor="start" x="30" y="-88.55" font-family="Helvetica,sans-Serif" font-size="11.00">locked_by</text>
<polygon fill="none" stroke="black" points="111,-82 111,-104 198.75,-104 198.75,-82 111,-82"/>
<text text-anchor="start" x="114" y="-89.3" font-family="Helvetica,sans-Serif" font-size="11.00">varchar[255]</text>
<polygon fill="none" stroke="black" points="10,-60 10,-82 111,-82 111,-60 10,-60"/>
<text text-anchor="start" x="30" y="-66.55" font-family="Helvetica,sans-Serif" font-size="11.00">locked_date</text>
<polygon fill="none" stroke="black" points="111,-60 111,-82 198.75,-82 198.75,-60 111,-60"/>
<text text-anchor="start" x="114" y="-67.3" font-family="Helvetica,sans-Serif" font-size="11.00">timestamp[19]</text>
<polygon fill="#ffffff" stroke="none" points="10,-40.5 10,-60 66.5,-60 66.5,-40.5 10,-40.5"/>
<polygon fill="none" stroke="black" points="10,-40.5 10,-60 66.5,-60 66.5,-40.5 10,-40.5"/>
<text text-anchor="start" x="13" y="-46.55" font-family="Helvetica,sans-Serif" font-size="11.00">&lt; 0</text>
<polygon fill="#ffffff" stroke="none" points="66.5,-40.5 66.5,-60 111,-60 111,-40.5 66.5,-40.5"/>
<polygon fill="none" stroke="black" points="66.5,-40.5 66.5,-60 111,-60 111,-40.5 66.5,-40.5"/>
<text text-anchor="start" x="100.5" y="-46.55" font-family="Helvetica,sans-Serif" font-size="11.00"> &#160;</text>
<polygon fill="#ffffff" stroke="none" points="111,-40.5 111,-60 198.75,-60 198.75,-40.5 111,-40.5"/>
<polygon fill="none" stroke="black" points="111,-40.5 111,-60 198.75,-60 198.75,-40.5 111,-40.5"/>
<text text-anchor="start" x="176.25" y="-46.55" font-family="Helvetica,sans-Serif" font-size="11.00">0 &gt;</text>
<polygon fill="none" stroke="black" stroke-width="2" points="9,-39.5 9,-172.5 199.75,-172.5 199.75,-39.5 9,-39.5"/>
</a>
</g>
</g>
</g>
</svg>
