<?xml version="1.0" encoding="UTF-8" standalone="no"?>
<!DOCTYPE svg PUBLIC "-//W3C//DTD SVG 1.1//EN"
 "http://www.w3.org/Graphics/SVG/1.1/DTD/svg11.dtd">
<!-- Generated by graphviz version 12.2.0 (0)
 -->
<!-- Title: oneDegreeRelationshipsDiagram Pages: 1 -->
<svg width="258pt" height="186pt"
 viewBox="0.00 0.00 258.00 185.50" xmlns="http://www.w3.org/2000/svg" xmlns:xlink="http://www.w3.org/1999/xlink">
<g id="graph0" class="graph" transform="scale(1 1) rotate(0) translate(4 181.5)">
<title>oneDegreeRelationshipsDiagram</title>
<polygon fill="#ffffff" stroke="none" points="-4,4 -4,-181.5 254,-181.5 254,4 -4,4"/>
<text text-anchor="middle" x="79.25" y="-7.05" font-family="Helvetica,sans-Serif" font-size="11.00">Generated by SchemaSpy</text>
<!-- aud_proj_project -->
<g id="node1" class="node">
<title>aud_proj_project</title>
<g id="a_node1"><a xlink:href="../../tables/aud_proj_project.html" xlink:title="aud_proj_project" target="_top">
<polygon fill="#ffffff" stroke="none" points="8,-38.5 8,-173.5 242,-173.5 242,-38.5 8,-38.5"/>
<polygon fill="#f5f5f5" stroke="none" points="10,-148 10,-171.5 240,-171.5 240,-148 10,-148"/>
<polygon fill="none" stroke="black" points="10,-148 10,-171.5 240,-171.5 240,-148 10,-148"/>
<text text-anchor="start" x="15" y="-157.05" font-family="Helvetica,sans-Serif" font-weight="bold" font-size="11.00">aud_proj_project</text>
<text text-anchor="start" x="198.25" y="-156.05" font-family="Helvetica,sans-Serif" font-size="11.00">[table]</text>
<polygon fill="none" stroke="black" points="10,-126 10,-148 142,-148 142,-126 10,-126"/>
<image xlink:href="../../images/primaryKeys.png" width="11px" height="12px" preserveAspectRatio="xMinYMin meet" x="15" y="-143"/>
<text text-anchor="start" x="30" y="-132.55" font-family="Helvetica,sans-Serif" font-size="11.00">identifier</text>
<polygon fill="none" stroke="black" points="142,-126 142,-148 229.62,-148 229.62,-126 142,-126"/>
<text text-anchor="start" x="145" y="-133.3" font-family="Helvetica,sans-Serif" font-size="11.00">varchar[191]</text>
<polygon fill="none" stroke="black" points="10,-104 10,-126 142,-126 142,-104 10,-104"/>
<image xlink:href="../../images/primaryKeys.png" width="11px" height="12px" preserveAspectRatio="xMinYMin meet" x="15" y="-121"/>
<text text-anchor="start" x="30" y="-110.55" font-family="Helvetica,sans-Serif" font-size="11.00">rev</text>
<polygon fill="none" stroke="black" points="142,-104 142,-126 229.62,-126 229.62,-104 142,-104"/>
<text text-anchor="start" x="145" y="-111.3" font-family="Helvetica,sans-Serif" font-size="11.00">int[10]</text>
<polygon fill="none" stroke="black" points="10,-82 10,-104 142,-104 142,-82 10,-82"/>
<text text-anchor="start" x="30" y="-88.55" font-family="Helvetica,sans-Serif" font-size="11.00">revtype</text>
<polygon fill="none" stroke="black" points="142,-82 142,-104 229.62,-104 229.62,-82 142,-82"/>
<text text-anchor="start" x="145" y="-89.3" font-family="Helvetica,sans-Serif" font-size="11.00">tinyint[3]</text>
<polygon fill="none" stroke="black" points="10,-60 10,-82 142,-82 142,-60 10,-60"/>
<text text-anchor="start" x="30" y="-66.55" font-family="Helvetica,sans-Serif" font-size="11.00">status</text>
<polygon fill="none" stroke="black" points="142,-60 142,-82 229.62,-82 229.62,-60 142,-60"/>
<text text-anchor="start" x="145" y="-67.3" font-family="Helvetica,sans-Serif" font-size="11.00">varchar[255]</text>
<polygon fill="#ffffff" stroke="none" points="10,-40.5 10,-60 82,-60 82,-40.5 10,-40.5"/>
<polygon fill="none" stroke="black" points="10,-40.5 10,-60 82,-60 82,-40.5 10,-40.5"/>
<text text-anchor="start" x="13" y="-46.55" font-family="Helvetica,sans-Serif" font-size="11.00">&lt; 0</text>
<polygon fill="#ffffff" stroke="none" points="82,-40.5 82,-60 142,-60 142,-40.5 82,-40.5"/>
<polygon fill="none" stroke="black" points="82,-40.5 82,-60 142,-60 142,-40.5 82,-40.5"/>
<text text-anchor="start" x="131.5" y="-46.55" font-family="Helvetica,sans-Serif" font-size="11.00"> &#160;</text>
<polygon fill="#ffffff" stroke="none" points="142,-40.5 142,-60 229.62,-60 229.62,-40.5 142,-40.5"/>
<polygon fill="none" stroke="black" points="142,-40.5 142,-60 229.62,-60 229.62,-40.5 142,-40.5"/>
<text text-anchor="start" x="207.12" y="-46.55" font-family="Helvetica,sans-Serif" font-size="11.00">0 &gt;</text>
<polygon fill="none" stroke="black" stroke-width="2" points="9,-39.5 9,-172.5 241,-172.5 241,-39.5 9,-39.5"/>
</a>
</g>
</g>
</g>
</svg>
