<?xml version="1.0" encoding="UTF-8" standalone="no"?>
<!DOCTYPE svg PUBLIC "-//W3C//DTD SVG 1.1//EN"
 "http://www.w3.org/Graphics/SVG/1.1/DTD/svg11.dtd">
<!-- Generated by graphviz version 12.2.0 (0)
 -->
<!-- Title: oneDegreeRelationshipsDiagram Pages: 1 -->
<svg width="1071pt" height="657pt"
 viewBox="0.00 0.00 1070.50 657.00" xmlns="http://www.w3.org/2000/svg" xmlns:xlink="http://www.w3.org/1999/xlink">
<g id="graph0" class="graph" transform="scale(1 1) rotate(0) translate(4 653)">
<title>oneDegreeRelationshipsDiagram</title>
<polygon fill="#ffffff" stroke="none" points="-4,4 -4,-653 1066.5,-653 1066.5,4 -4,4"/>
<text text-anchor="middle" x="79.25" y="-7.05" font-family="Helvetica,sans-Serif" font-size="11.00">Generated by SchemaSpy</text>
<!-- check_automatic_result -->
<g id="node1" class="node">
<title>check_automatic_result</title>
<g id="a_node1"><a xlink:href="../../tables/check_automatic_result.html" xlink:title="check_automatic_result" target="_top">
<polygon fill="#ffffff" stroke="none" points="744.75,-282.25 744.75,-637.25 1054.5,-637.25 1054.5,-282.25 744.75,-282.25"/>
<polygon fill="#f5f5f5" stroke="none" points="746.75,-611.75 746.75,-635.25 1052.5,-635.25 1052.5,-611.75 746.75,-611.75"/>
<polygon fill="none" stroke="black" points="746.75,-611.75 746.75,-635.25 1052.5,-635.25 1052.5,-611.75 746.75,-611.75"/>
<text text-anchor="start" x="751.75" y="-620.8" font-family="Helvetica,sans-Serif" font-weight="bold" font-size="11.00">check_automatic_result</text>
<text text-anchor="start" x="1010.75" y="-619.8" font-family="Helvetica,sans-Serif" font-size="11.00">[table]</text>
<polygon fill="none" stroke="black" points="746.75,-589.75 746.75,-611.75 925.75,-611.75 925.75,-589.75 746.75,-589.75"/>
<image xlink:href="../../images/primaryKeys.png" width="11px" height="12px" preserveAspectRatio="xMinYMin meet" x="751.75" y="-606.75"/>
<text text-anchor="start" x="766.75" y="-596.3" font-family="Helvetica,sans-Serif" font-size="11.00">identifier</text>
<polygon fill="none" stroke="black" points="925.75,-589.75 925.75,-611.75 1033,-611.75 1033,-589.75 925.75,-589.75"/>
<text text-anchor="start" x="928.75" y="-597.05" font-family="Helvetica,sans-Serif" font-size="11.00">varchar[191]</text>
<polygon fill="none" stroke="black" points="746.75,-567.75 746.75,-589.75 925.75,-589.75 925.75,-567.75 746.75,-567.75"/>
<text text-anchor="start" x="766.75" y="-574.3" font-family="Helvetica,sans-Serif" font-size="11.00">message</text>
<polygon fill="none" stroke="black" points="925.75,-567.75 925.75,-589.75 1033,-589.75 1033,-567.75 925.75,-567.75"/>
<text text-anchor="start" x="928.75" y="-575.05" font-family="Helvetica,sans-Serif" font-size="11.00">text[65535]</text>
<polygon fill="none" stroke="black" points="746.75,-545.75 746.75,-567.75 925.75,-567.75 925.75,-545.75 746.75,-545.75"/>
<text text-anchor="start" x="766.75" y="-552.3" font-family="Helvetica,sans-Serif" font-size="11.00">result</text>
<polygon fill="none" stroke="black" points="925.75,-545.75 925.75,-567.75 1033,-567.75 1033,-545.75 925.75,-545.75"/>
<text text-anchor="start" x="928.75" y="-553.05" font-family="Helvetica,sans-Serif" font-size="11.00">varchar[255]</text>
<polygon fill="#ffffff" stroke="none" points="746.75,-523.75 746.75,-545.75 925.75,-545.75 925.75,-523.75 746.75,-523.75"/>
<polygon fill="none" stroke="black" points="746.75,-523.75 746.75,-545.75 925.75,-545.75 925.75,-523.75 746.75,-523.75"/>
<image xlink:href="../../images/foreignKeys.png" width="11px" height="12px" preserveAspectRatio="xMinYMin meet" x="751.75" y="-540.75"/>
<text text-anchor="start" x="766.75" y="-530.3" font-family="Helvetica,sans-Serif" font-size="11.00">check_type</text>
<polygon fill="none" stroke="black" points="925.75,-523.75 925.75,-545.75 1033,-545.75 1033,-523.75 925.75,-523.75"/>
<text text-anchor="start" x="928.75" y="-531.05" font-family="Helvetica,sans-Serif" font-size="11.00">varchar[191]</text>
<polygon fill="#ffffff" stroke="none" points="746.75,-501.75 746.75,-523.75 925.75,-523.75 925.75,-501.75 746.75,-501.75"/>
<polygon fill="none" stroke="black" points="746.75,-501.75 746.75,-523.75 925.75,-523.75 925.75,-501.75 746.75,-501.75"/>
<image xlink:href="../../images/foreignKeys.png" width="11px" height="12px" preserveAspectRatio="xMinYMin meet" x="751.75" y="-518.75"/>
<text text-anchor="start" x="766.75" y="-508.3" font-family="Helvetica,sans-Serif" font-size="11.00">digital_document</text>
<polygon fill="none" stroke="black" points="925.75,-501.75 925.75,-523.75 1033,-523.75 1033,-501.75 925.75,-501.75"/>
<text text-anchor="start" x="928.75" y="-509.05" font-family="Helvetica,sans-Serif" font-size="11.00">varchar[191]</text>
<polygon fill="#ffffff" stroke="none" points="746.75,-479.75 746.75,-501.75 925.75,-501.75 925.75,-479.75 746.75,-479.75"/>
<polygon fill="none" stroke="black" points="746.75,-479.75 746.75,-501.75 925.75,-501.75 925.75,-479.75 746.75,-479.75"/>
<image xlink:href="../../images/foreignKeys.png" width="11px" height="12px" preserveAspectRatio="xMinYMin meet" x="751.75" y="-496.75"/>
<text text-anchor="start" x="766.75" y="-486.3" font-family="Helvetica,sans-Serif" font-size="11.00">doc_unit</text>
<polygon fill="none" stroke="black" points="925.75,-479.75 925.75,-501.75 1033,-501.75 1033,-479.75 925.75,-479.75"/>
<text text-anchor="start" x="928.75" y="-487.05" font-family="Helvetica,sans-Serif" font-size="11.00">varchar[191]</text>
<polygon fill="#ffffff" stroke="none" points="746.75,-457.75 746.75,-479.75 925.75,-479.75 925.75,-457.75 746.75,-457.75"/>
<polygon fill="none" stroke="black" points="746.75,-457.75 746.75,-479.75 925.75,-479.75 925.75,-457.75 746.75,-457.75"/>
<image xlink:href="../../images/foreignKeys.png" width="11px" height="12px" preserveAspectRatio="xMinYMin meet" x="751.75" y="-474.75"/>
<text text-anchor="start" x="766.75" y="-464.3" font-family="Helvetica,sans-Serif" font-size="11.00">page</text>
<polygon fill="none" stroke="black" points="925.75,-457.75 925.75,-479.75 1033,-479.75 1033,-457.75 925.75,-457.75"/>
<text text-anchor="start" x="928.75" y="-465.05" font-family="Helvetica,sans-Serif" font-size="11.00">varchar[191]</text>
<polygon fill="none" stroke="black" points="746.75,-435.75 746.75,-457.75 925.75,-457.75 925.75,-435.75 746.75,-435.75"/>
<text text-anchor="start" x="766.75" y="-442.3" font-family="Helvetica,sans-Serif" font-size="11.00">version</text>
<polygon fill="none" stroke="black" points="925.75,-435.75 925.75,-457.75 1033,-457.75 1033,-435.75 925.75,-435.75"/>
<text text-anchor="start" x="928.75" y="-443.05" font-family="Helvetica,sans-Serif" font-size="11.00">bigint[19]</text>
<polygon fill="none" stroke="black" points="746.75,-413.75 746.75,-435.75 925.75,-435.75 925.75,-413.75 746.75,-413.75"/>
<text text-anchor="start" x="766.75" y="-420.3" font-family="Helvetica,sans-Serif" font-size="11.00">created_by</text>
<polygon fill="none" stroke="black" points="925.75,-413.75 925.75,-435.75 1033,-435.75 1033,-413.75 925.75,-413.75"/>
<text text-anchor="start" x="928.75" y="-421.05" font-family="Helvetica,sans-Serif" font-size="11.00">varchar[191]</text>
<polygon fill="none" stroke="black" points="746.75,-391.75 746.75,-413.75 925.75,-413.75 925.75,-391.75 746.75,-391.75"/>
<text text-anchor="start" x="766.75" y="-398.3" font-family="Helvetica,sans-Serif" font-size="11.00">last_modified_by</text>
<polygon fill="none" stroke="black" points="925.75,-391.75 925.75,-413.75 1033,-413.75 1033,-391.75 925.75,-391.75"/>
<text text-anchor="start" x="928.75" y="-399.05" font-family="Helvetica,sans-Serif" font-size="11.00">varchar[191]</text>
<polygon fill="none" stroke="black" points="746.75,-369.75 746.75,-391.75 925.75,-391.75 925.75,-369.75 746.75,-369.75"/>
<text text-anchor="start" x="766.75" y="-376.3" font-family="Helvetica,sans-Serif" font-size="11.00">created_date</text>
<polygon fill="none" stroke="black" points="925.75,-369.75 925.75,-391.75 1033,-391.75 1033,-369.75 925.75,-369.75"/>
<text text-anchor="start" x="928.75" y="-377.05" font-family="Helvetica,sans-Serif" font-size="11.00">timestamp[19]</text>
<polygon fill="none" stroke="black" points="746.75,-347.75 746.75,-369.75 925.75,-369.75 925.75,-347.75 746.75,-347.75"/>
<text text-anchor="start" x="766.75" y="-354.3" font-family="Helvetica,sans-Serif" font-size="11.00">last_modified_date</text>
<polygon fill="none" stroke="black" points="925.75,-347.75 925.75,-369.75 1033,-369.75 1033,-347.75 925.75,-347.75"/>
<text text-anchor="start" x="928.75" y="-355.05" font-family="Helvetica,sans-Serif" font-size="11.00">timestamp[19]</text>
<polygon fill="#ffffff" stroke="none" points="746.75,-325.75 746.75,-347.75 925.75,-347.75 925.75,-325.75 746.75,-325.75"/>
<polygon fill="none" stroke="black" points="746.75,-325.75 746.75,-347.75 925.75,-347.75 925.75,-325.75 746.75,-325.75"/>
<image xlink:href="../../images/foreignKeys.png" width="11px" height="12px" preserveAspectRatio="xMinYMin meet" x="751.75" y="-342.75"/>
<text text-anchor="start" x="766.75" y="-332.3" font-family="Helvetica,sans-Serif" font-size="11.00">delivery</text>
<polygon fill="none" stroke="black" points="925.75,-325.75 925.75,-347.75 1033,-347.75 1033,-325.75 925.75,-325.75"/>
<text text-anchor="start" x="928.75" y="-333.05" font-family="Helvetica,sans-Serif" font-size="11.00">varchar[191]</text>
<polygon fill="#ffffff" stroke="none" points="746.75,-303.75 746.75,-325.75 925.75,-325.75 925.75,-303.75 746.75,-303.75"/>
<polygon fill="none" stroke="black" points="746.75,-303.75 746.75,-325.75 925.75,-325.75 925.75,-303.75 746.75,-303.75"/>
<image xlink:href="../../images/foreignKeys.png" width="11px" height="12px" preserveAspectRatio="xMinYMin meet" x="751.75" y="-320.75"/>
<text text-anchor="start" x="766.75" y="-310.3" font-family="Helvetica,sans-Serif" font-size="11.00">physical_document</text>
<polygon fill="none" stroke="black" points="925.75,-303.75 925.75,-325.75 1033,-325.75 1033,-303.75 925.75,-303.75"/>
<text text-anchor="start" x="928.75" y="-311.05" font-family="Helvetica,sans-Serif" font-size="11.00">varchar[191]</text>
<polygon fill="#ffffff" stroke="none" points="746.75,-284.25 746.75,-303.75 842.25,-303.75 842.25,-284.25 746.75,-284.25"/>
<polygon fill="none" stroke="black" points="746.75,-284.25 746.75,-303.75 842.25,-303.75 842.25,-284.25 746.75,-284.25"/>
<text text-anchor="start" x="749.75" y="-290.3" font-family="Helvetica,sans-Serif" font-size="11.00">&lt; 6</text>
<polygon fill="#ffffff" stroke="none" points="842.25,-284.25 842.25,-303.75 925.75,-303.75 925.75,-284.25 842.25,-284.25"/>
<polygon fill="none" stroke="black" points="842.25,-284.25 842.25,-303.75 925.75,-303.75 925.75,-284.25 842.25,-284.25"/>
<text text-anchor="start" x="915.25" y="-290.3" font-family="Helvetica,sans-Serif" font-size="11.00"> &#160;</text>
<polygon fill="#ffffff" stroke="none" points="925.75,-284.25 925.75,-303.75 1033,-303.75 1033,-284.25 925.75,-284.25"/>
<polygon fill="none" stroke="black" points="925.75,-284.25 925.75,-303.75 1033,-303.75 1033,-284.25 925.75,-284.25"/>
<text text-anchor="start" x="1010.5" y="-290.3" font-family="Helvetica,sans-Serif" font-size="11.00">0 &gt;</text>
<polygon fill="none" stroke="black" stroke-width="2" points="745.75,-283.25 745.75,-636.25 1053.5,-636.25 1053.5,-283.25 745.75,-283.25"/>
</a>
</g>
</g>
<!-- check_automatic_type -->
<g id="node2" class="node">
<title>check_automatic_type</title>
<g id="a_node2"><a xlink:href="../../tables/check_automatic_type.html" xlink:title="check_automatic_type" target="_top">
<polygon fill="#ffffff" stroke="none" points="498.88,-560.5 498.88,-645 694.62,-645 694.62,-560.5 498.88,-560.5"/>
<polygon fill="#f5f5f5" stroke="none" points="498.88,-621.5 498.88,-645 694.62,-645 694.62,-621.5 498.88,-621.5"/>
<polygon fill="none" stroke="black" points="498.88,-621.5 498.88,-645 694.62,-645 694.62,-621.5 498.88,-621.5"/>
<text text-anchor="start" x="503.88" y="-630.55" font-family="Helvetica,sans-Serif" font-weight="bold" font-size="11.00">check_automatic_type</text>
<text text-anchor="start" x="652.88" y="-629.55" font-family="Helvetica,sans-Serif" font-size="11.00">[table]</text>
<polygon fill="none" stroke="black" points="498.88,-599.5 498.88,-621.5 694.62,-621.5 694.62,-599.5 498.88,-599.5"/>
<image xlink:href="../../images/primaryKeys.png" width="11px" height="12px" preserveAspectRatio="xMinYMin meet" x="503.875" y="-616.5"/>
<text text-anchor="start" x="531.75" y="-606.05" font-family="Helvetica,sans-Serif" font-size="11.00">identifier</text>
<polygon fill="none" stroke="black" points="498.88,-580 498.88,-599.5 694.62,-599.5 694.62,-580 498.88,-580"/>
<text text-anchor="start" x="501.88" y="-586.05" font-family="Helvetica,sans-Serif" font-size="11.00">...</text>
<polygon fill="#ffffff" stroke="none" points="498.88,-560.5 498.88,-580 560.12,-580 560.12,-560.5 498.88,-560.5"/>
<polygon fill="none" stroke="black" points="498.88,-560.5 498.88,-580 560.12,-580 560.12,-560.5 498.88,-560.5"/>
<text text-anchor="start" x="501.88" y="-566.55" font-family="Helvetica,sans-Serif" font-size="11.00"> &#160;</text>
<polygon fill="#ffffff" stroke="none" points="560.12,-560.5 560.12,-580 621.38,-580 621.38,-560.5 560.12,-560.5"/>
<polygon fill="none" stroke="black" points="560.12,-560.5 560.12,-580 621.38,-580 621.38,-560.5 560.12,-560.5"/>
<text text-anchor="start" x="610.88" y="-566.55" font-family="Helvetica,sans-Serif" font-size="11.00"> &#160;</text>
<polygon fill="#ffffff" stroke="none" points="621.38,-560.5 621.38,-580 694.62,-580 694.62,-560.5 621.38,-560.5"/>
<polygon fill="none" stroke="black" points="621.38,-560.5 621.38,-580 694.62,-580 694.62,-560.5 621.38,-560.5"/>
<text text-anchor="start" x="672.12" y="-566.55" font-family="Helvetica,sans-Serif" font-size="11.00">2 &gt;</text>
</a>
</g>
</g>
<!-- check_automatic_result&#45;&gt;check_automatic_type -->
<g id="edge1" class="edge">
<title>check_automatic_result:w&#45;&gt;check_automatic_type:e</title>
<path fill="none" stroke="black" d="M730.99,-540.2C713.51,-557.57 729.37,-610.5 695.62,-610.5"/>
<polygon fill="black" stroke="black" points="737.93,-537.64 746.68,-538.24 742,-536.13 745.12,-534.98 745.12,-534.98 745.12,-534.98 742,-536.13 744.19,-531.49 737.93,-537.64"/>
<ellipse fill="none" stroke="black" cx="733.32" cy="-539.34" rx="3.2" ry="3.2"/>
</g>
<!-- del_delivery -->
<g id="node3" class="node">
<title>del_delivery</title>
<g id="a_node3"><a xlink:href="../../tables/del_delivery.html" xlink:title="del_delivery" target="_top">
<polygon fill="#ffffff" stroke="none" points="497.75,-185.5 497.75,-314 695.75,-314 695.75,-185.5 497.75,-185.5"/>
<polygon fill="#f5f5f5" stroke="none" points="497.75,-290.5 497.75,-314 695.75,-314 695.75,-290.5 497.75,-290.5"/>
<polygon fill="none" stroke="black" points="497.75,-290.5 497.75,-314 695.75,-314 695.75,-290.5 497.75,-290.5"/>
<text text-anchor="start" x="502.75" y="-299.55" font-family="Helvetica,sans-Serif" font-weight="bold" font-size="11.00">del_delivery</text>
<text text-anchor="start" x="654" y="-298.55" font-family="Helvetica,sans-Serif" font-size="11.00">[table]</text>
<polygon fill="none" stroke="black" points="497.75,-268.5 497.75,-290.5 695.75,-290.5 695.75,-268.5 497.75,-268.5"/>
<image xlink:href="../../images/primaryKeys.png" width="11px" height="12px" preserveAspectRatio="xMinYMin meet" x="502.75" y="-285.5"/>
<text text-anchor="start" x="517.75" y="-275.05" font-family="Helvetica,sans-Serif" font-size="11.00">identifier</text>
<polygon fill="#ffffff" stroke="none" points="497.75,-246.5 497.75,-268.5 695.75,-268.5 695.75,-246.5 497.75,-246.5"/>
<polygon fill="none" stroke="black" points="497.75,-246.5 497.75,-268.5 695.75,-268.5 695.75,-246.5 497.75,-246.5"/>
<image xlink:href="../../images/foreignKeys.png" width="11px" height="12px" preserveAspectRatio="xMinYMin meet" x="502.75" y="-263.5"/>
<text text-anchor="start" x="517.75" y="-253.05" font-family="Helvetica,sans-Serif" font-size="11.00">lot_identifier</text>
<polygon fill="#ffffff" stroke="none" points="497.75,-224.5 497.75,-246.5 695.75,-246.5 695.75,-224.5 497.75,-224.5"/>
<polygon fill="none" stroke="black" points="497.75,-224.5 497.75,-246.5 695.75,-246.5 695.75,-224.5 497.75,-224.5"/>
<image xlink:href="../../images/foreignKeys.png" width="11px" height="12px" preserveAspectRatio="xMinYMin meet" x="502.75" y="-241.5"/>
<text text-anchor="start" x="517.75" y="-231.05" font-family="Helvetica,sans-Serif" font-size="11.00">multi_lots_delivery</text>
<polygon fill="none" stroke="black" points="497.75,-205 497.75,-224.5 695.75,-224.5 695.75,-205 497.75,-205"/>
<text text-anchor="start" x="500.75" y="-211.05" font-family="Helvetica,sans-Serif" font-size="11.00">...</text>
<polygon fill="#ffffff" stroke="none" points="497.75,-185.5 497.75,-205 567.75,-205 567.75,-185.5 497.75,-185.5"/>
<polygon fill="none" stroke="black" points="497.75,-185.5 497.75,-205 567.75,-205 567.75,-185.5 497.75,-185.5"/>
<text text-anchor="start" x="500.75" y="-191.55" font-family="Helvetica,sans-Serif" font-size="11.00">&lt; 2</text>
<polygon fill="#ffffff" stroke="none" points="567.75,-185.5 567.75,-205 625.75,-205 625.75,-185.5 567.75,-185.5"/>
<polygon fill="none" stroke="black" points="567.75,-185.5 567.75,-205 625.75,-205 625.75,-185.5 567.75,-185.5"/>
<text text-anchor="start" x="615.25" y="-191.55" font-family="Helvetica,sans-Serif" font-size="11.00"> &#160;</text>
<polygon fill="#ffffff" stroke="none" points="625.75,-185.5 625.75,-205 695.75,-205 695.75,-185.5 625.75,-185.5"/>
<polygon fill="none" stroke="black" points="625.75,-185.5 625.75,-205 695.75,-205 695.75,-185.5 625.75,-185.5"/>
<text text-anchor="start" x="673.25" y="-191.55" font-family="Helvetica,sans-Serif" font-size="11.00">4 &gt;</text>
</a>
</g>
</g>
<!-- check_automatic_result&#45;&gt;del_delivery -->
<g id="edge2" class="edge">
<title>check_automatic_result:w&#45;&gt;del_delivery:e</title>
<path fill="none" stroke="black" d="M731.25,-331.05C717.32,-316.57 723.7,-279.5 696.75,-279.5"/>
<polygon fill="black" stroke="black" points="737.99,-333.7 744.12,-339.98 742.03,-335.29 745.13,-336.51 745.13,-336.51 745.13,-336.51 742.03,-335.29 746.76,-333.28 737.99,-333.7"/>
<ellipse fill="none" stroke="black" cx="733.42" cy="-331.9" rx="3.2" ry="3.2"/>
</g>
<!-- doc_digital_document -->
<g id="node4" class="node">
<title>doc_digital_document</title>
<g id="a_node4"><a xlink:href="../../tables/doc_digital_document.html" xlink:title="doc_digital_document" target="_top">
<polygon fill="#ffffff" stroke="none" points="250,-368.5 250,-475 442.75,-475 442.75,-368.5 250,-368.5"/>
<polygon fill="#f5f5f5" stroke="none" points="250,-451.5 250,-475 442.75,-475 442.75,-451.5 250,-451.5"/>
<polygon fill="none" stroke="black" points="250,-451.5 250,-475 442.75,-475 442.75,-451.5 250,-451.5"/>
<text text-anchor="start" x="255" y="-460.55" font-family="Helvetica,sans-Serif" font-weight="bold" font-size="11.00">doc_digital_document</text>
<text text-anchor="start" x="401" y="-459.55" font-family="Helvetica,sans-Serif" font-size="11.00">[table]</text>
<polygon fill="none" stroke="black" points="250,-429.5 250,-451.5 442.75,-451.5 442.75,-429.5 250,-429.5"/>
<image xlink:href="../../images/primaryKeys.png" width="11px" height="12px" preserveAspectRatio="xMinYMin meet" x="255" y="-446.5"/>
<text text-anchor="start" x="282.88" y="-436.05" font-family="Helvetica,sans-Serif" font-size="11.00">identifier</text>
<polygon fill="#ffffff" stroke="none" points="250,-407.5 250,-429.5 442.75,-429.5 442.75,-407.5 250,-407.5"/>
<polygon fill="none" stroke="black" points="250,-407.5 250,-429.5 442.75,-429.5 442.75,-407.5 250,-407.5"/>
<image xlink:href="../../images/foreignKeys.png" width="11px" height="12px" preserveAspectRatio="xMinYMin meet" x="255" y="-424.5"/>
<text text-anchor="start" x="282.88" y="-414.05" font-family="Helvetica,sans-Serif" font-size="11.00">doc_unit</text>
<polygon fill="none" stroke="black" points="250,-388 250,-407.5 442.75,-407.5 442.75,-388 250,-388"/>
<text text-anchor="start" x="253" y="-394.05" font-family="Helvetica,sans-Serif" font-size="11.00">...</text>
<polygon fill="#ffffff" stroke="none" points="250,-368.5 250,-388 318.25,-388 318.25,-368.5 250,-368.5"/>
<polygon fill="none" stroke="black" points="250,-368.5 250,-388 318.25,-388 318.25,-368.5 250,-368.5"/>
<text text-anchor="start" x="253" y="-374.55" font-family="Helvetica,sans-Serif" font-size="11.00">&lt; 1</text>
<polygon fill="#ffffff" stroke="none" points="318.25,-368.5 318.25,-388 374.5,-388 374.5,-368.5 318.25,-368.5"/>
<polygon fill="none" stroke="black" points="318.25,-368.5 318.25,-388 374.5,-388 374.5,-368.5 318.25,-368.5"/>
<text text-anchor="start" x="364" y="-374.55" font-family="Helvetica,sans-Serif" font-size="11.00"> &#160;</text>
<polygon fill="#ffffff" stroke="none" points="374.5,-368.5 374.5,-388 442.75,-388 442.75,-368.5 374.5,-368.5"/>
<polygon fill="none" stroke="black" points="374.5,-368.5 374.5,-388 442.75,-388 442.75,-368.5 374.5,-368.5"/>
<text text-anchor="start" x="420.25" y="-374.55" font-family="Helvetica,sans-Serif" font-size="11.00">6 &gt;</text>
</a>
</g>
</g>
<!-- check_automatic_result&#45;&gt;doc_digital_document -->
<g id="edge3" class="edge">
<title>check_automatic_result:w&#45;&gt;doc_digital_document:e</title>
<path fill="none" stroke="black" d="M730.19,-512.97C627.81,-515.93 586.43,-546.33 489.75,-496.75 461.01,-482.01 476.05,-440.5 443.75,-440.5"/>
<polygon fill="black" stroke="black" points="737.42,-512.87 745.47,-516.35 741.75,-512.81 745.08,-512.76 745.08,-512.76 745.08,-512.76 741.75,-512.81 745.36,-509.16 737.42,-512.87"/>
<ellipse fill="none" stroke="black" cx="732.5" cy="-512.94" rx="3.2" ry="3.2"/>
</g>
<!-- doc_unit -->
<g id="node5" class="node">
<title>doc_unit</title>
<g id="a_node5"><a xlink:href="../../tables/doc_unit.html" xlink:title="doc_unit" target="_top">
<polygon fill="#ffffff" stroke="none" points="8,-38.5 8,-453 195,-453 195,-38.5 8,-38.5"/>
<polygon fill="#f5f5f5" stroke="none" points="8,-429.5 8,-453 195,-453 195,-429.5 8,-429.5"/>
<polygon fill="none" stroke="black" points="8,-429.5 8,-453 195,-453 195,-429.5 8,-429.5"/>
<text text-anchor="start" x="13" y="-438.55" font-family="Helvetica,sans-Serif" font-weight="bold" font-size="11.00">doc_unit</text>
<text text-anchor="start" x="153.25" y="-437.55" font-family="Helvetica,sans-Serif" font-size="11.00">[table]</text>
<polygon fill="none" stroke="black" points="8,-407.5 8,-429.5 195,-429.5 195,-407.5 8,-407.5"/>
<image xlink:href="../../images/primaryKeys.png" width="11px" height="12px" preserveAspectRatio="xMinYMin meet" x="13" y="-424.5"/>
<text text-anchor="start" x="28" y="-414.05" font-family="Helvetica,sans-Serif" font-size="11.00">identifier</text>
<polygon fill="#ffffff" stroke="none" points="8,-385.5 8,-407.5 195,-407.5 195,-385.5 8,-385.5"/>
<polygon fill="none" stroke="black" points="8,-385.5 8,-407.5 195,-407.5 195,-385.5 8,-385.5"/>
<text text-anchor="start" x="28" y="-392.05" font-family="Helvetica,sans-Serif" font-size="11.00">pgcn_id</text>
<polygon fill="#ffffff" stroke="none" points="8,-363.5 8,-385.5 195,-385.5 195,-363.5 8,-363.5"/>
<polygon fill="none" stroke="black" points="8,-363.5 8,-385.5 195,-385.5 195,-363.5 8,-363.5"/>
<image xlink:href="../../images/foreignKeys.png" width="11px" height="12px" preserveAspectRatio="xMinYMin meet" x="13" y="-380.5"/>
<text text-anchor="start" x="28" y="-370.05" font-family="Helvetica,sans-Serif" font-size="11.00">library</text>
<polygon fill="#ffffff" stroke="none" points="8,-341.5 8,-363.5 195,-363.5 195,-341.5 8,-341.5"/>
<polygon fill="none" stroke="black" points="8,-341.5 8,-363.5 195,-363.5 195,-341.5 8,-341.5"/>
<image xlink:href="../../images/foreignKeys.png" width="11px" height="12px" preserveAspectRatio="xMinYMin meet" x="13" y="-358.5"/>
<text text-anchor="start" x="28" y="-348.05" font-family="Helvetica,sans-Serif" font-size="11.00">project</text>
<polygon fill="#ffffff" stroke="none" points="8,-319.5 8,-341.5 195,-341.5 195,-319.5 8,-319.5"/>
<polygon fill="none" stroke="black" points="8,-319.5 8,-341.5 195,-341.5 195,-319.5 8,-319.5"/>
<text text-anchor="start" x="28" y="-326.05" font-family="Helvetica,sans-Serif" font-size="11.00">state</text>
<polygon fill="#ffffff" stroke="none" points="8,-297.5 8,-319.5 195,-319.5 195,-297.5 8,-297.5"/>
<polygon fill="none" stroke="black" points="8,-297.5 8,-319.5 195,-319.5 195,-297.5 8,-297.5"/>
<image xlink:href="../../images/foreignKeys.png" width="11px" height="12px" preserveAspectRatio="xMinYMin meet" x="13" y="-314.5"/>
<text text-anchor="start" x="28" y="-304.05" font-family="Helvetica,sans-Serif" font-size="11.00">lot</text>
<polygon fill="#ffffff" stroke="none" points="8,-275.5 8,-297.5 195,-297.5 195,-275.5 8,-275.5"/>
<polygon fill="none" stroke="black" points="8,-275.5 8,-297.5 195,-297.5 195,-275.5 8,-275.5"/>
<image xlink:href="../../images/foreignKeys.png" width="11px" height="12px" preserveAspectRatio="xMinYMin meet" x="13" y="-292.5"/>
<text text-anchor="start" x="28" y="-282.05" font-family="Helvetica,sans-Serif" font-size="11.00">collection_omeka</text>
<polygon fill="#ffffff" stroke="none" points="8,-253.5 8,-275.5 195,-275.5 195,-253.5 8,-253.5"/>
<polygon fill="none" stroke="black" points="8,-253.5 8,-275.5 195,-275.5 195,-253.5 8,-253.5"/>
<image xlink:href="../../images/foreignKeys.png" width="11px" height="12px" preserveAspectRatio="xMinYMin meet" x="13" y="-270.5"/>
<text text-anchor="start" x="28" y="-260.05" font-family="Helvetica,sans-Serif" font-size="11.00">items_omeka</text>
<polygon fill="#ffffff" stroke="none" points="8,-231.5 8,-253.5 195,-253.5 195,-231.5 8,-231.5"/>
<polygon fill="none" stroke="black" points="8,-231.5 8,-253.5 195,-253.5 195,-231.5 8,-231.5"/>
<image xlink:href="../../images/foreignKeys.png" width="11px" height="12px" preserveAspectRatio="xMinYMin meet" x="13" y="-248.5"/>
<text text-anchor="start" x="28" y="-238.05" font-family="Helvetica,sans-Serif" font-size="11.00">parent</text>
<polygon fill="#ffffff" stroke="none" points="8,-209.5 8,-231.5 195,-231.5 195,-209.5 8,-209.5"/>
<polygon fill="none" stroke="black" points="8,-209.5 8,-231.5 195,-231.5 195,-209.5 8,-209.5"/>
<image xlink:href="../../images/foreignKeys.png" width="11px" height="12px" preserveAspectRatio="xMinYMin meet" x="13" y="-226.5"/>
<text text-anchor="start" x="28" y="-216.05" font-family="Helvetica,sans-Serif" font-size="11.00">active_ocr_lang</text>
<polygon fill="#ffffff" stroke="none" points="8,-187.5 8,-209.5 195,-209.5 195,-187.5 8,-187.5"/>
<polygon fill="none" stroke="black" points="8,-187.5 8,-209.5 195,-209.5 195,-187.5 8,-187.5"/>
<image xlink:href="../../images/foreignKeys.png" width="11px" height="12px" preserveAspectRatio="xMinYMin meet" x="13" y="-204.5"/>
<text text-anchor="start" x="28" y="-194.05" font-family="Helvetica,sans-Serif" font-size="11.00">collection_ia</text>
<polygon fill="#ffffff" stroke="none" points="8,-165.5 8,-187.5 195,-187.5 195,-165.5 8,-165.5"/>
<polygon fill="none" stroke="black" points="8,-165.5 8,-187.5 195,-187.5 195,-165.5 8,-165.5"/>
<image xlink:href="../../images/foreignKeys.png" width="11px" height="12px" preserveAspectRatio="xMinYMin meet" x="13" y="-182.5"/>
<text text-anchor="start" x="28" y="-172.05" font-family="Helvetica,sans-Serif" font-size="11.00">classement_pac</text>
<polygon fill="#ffffff" stroke="none" points="8,-143.5 8,-165.5 195,-165.5 195,-143.5 8,-143.5"/>
<polygon fill="none" stroke="black" points="8,-143.5 8,-165.5 195,-165.5 195,-143.5 8,-143.5"/>
<image xlink:href="../../images/foreignKeys.png" width="11px" height="12px" preserveAspectRatio="xMinYMin meet" x="13" y="-160.5"/>
<text text-anchor="start" x="28" y="-150.05" font-family="Helvetica,sans-Serif" font-size="11.00">sibling</text>
<polygon fill="#ffffff" stroke="none" points="8,-121.5 8,-143.5 195,-143.5 195,-121.5 8,-121.5"/>
<polygon fill="none" stroke="black" points="8,-121.5 8,-143.5 195,-143.5 195,-121.5 8,-121.5"/>
<image xlink:href="../../images/foreignKeys.png" width="11px" height="12px" preserveAspectRatio="xMinYMin meet" x="13" y="-138.5"/>
<text text-anchor="start" x="28" y="-128.05" font-family="Helvetica,sans-Serif" font-size="11.00">export_data</text>
<polygon fill="#ffffff" stroke="none" points="8,-99.5 8,-121.5 195,-121.5 195,-99.5 8,-99.5"/>
<polygon fill="none" stroke="black" points="8,-99.5 8,-121.5 195,-121.5 195,-99.5 8,-99.5"/>
<image xlink:href="../../images/foreignKeys.png" width="11px" height="12px" preserveAspectRatio="xMinYMin meet" x="13" y="-116.5"/>
<text text-anchor="start" x="28" y="-106.05" font-family="Helvetica,sans-Serif" font-size="11.00">archive_item</text>
<polygon fill="#ffffff" stroke="none" points="8,-77.5 8,-99.5 195,-99.5 195,-77.5 8,-77.5"/>
<polygon fill="none" stroke="black" points="8,-77.5 8,-99.5 195,-99.5 195,-77.5 8,-77.5"/>
<image xlink:href="../../images/foreignKeys.png" width="11px" height="12px" preserveAspectRatio="xMinYMin meet" x="13" y="-94.5"/>
<text text-anchor="start" x="28" y="-84.05" font-family="Helvetica,sans-Serif" font-size="11.00">workflow</text>
<polygon fill="none" stroke="black" points="8,-58 8,-77.5 195,-77.5 195,-58 8,-58"/>
<text text-anchor="start" x="11" y="-64.05" font-family="Helvetica,sans-Serif" font-size="11.00">...</text>
<polygon fill="#ffffff" stroke="none" points="8,-38.5 8,-58 76.58,-58 76.58,-38.5 8,-38.5"/>
<polygon fill="none" stroke="black" points="8,-38.5 8,-58 76.58,-58 76.58,-38.5 8,-38.5"/>
<text text-anchor="start" x="11" y="-44.55" font-family="Helvetica,sans-Serif" font-size="11.00">&lt; 13</text>
<polygon fill="#ffffff" stroke="none" points="76.58,-38.5 76.58,-58 126.42,-58 126.42,-38.5 76.58,-38.5"/>
<polygon fill="none" stroke="black" points="76.58,-38.5 76.58,-58 126.42,-58 126.42,-38.5 76.58,-38.5"/>
<text text-anchor="start" x="115.92" y="-44.55" font-family="Helvetica,sans-Serif" font-size="11.00"> &#160;</text>
<polygon fill="#ffffff" stroke="none" points="126.42,-38.5 126.42,-58 195,-58 195,-38.5 126.42,-38.5"/>
<polygon fill="none" stroke="black" points="126.42,-38.5 126.42,-58 195,-58 195,-38.5 126.42,-38.5"/>
<text text-anchor="start" x="165.75" y="-44.55" font-family="Helvetica,sans-Serif" font-size="11.00">11 &gt;</text>
</a>
</g>
</g>
<!-- check_automatic_result&#45;&gt;doc_unit -->
<g id="edge4" class="edge">
<title>check_automatic_result:w&#45;&gt;doc_unit:e</title>
<path fill="none" stroke="black" d="M729.99,-492.13C722.06,-493.62 715.95,-495.88 703.75,-496.75 496.33,-511.49 414.49,-592.44 236,-485.75 206.15,-467.91 230.78,-418.5 196,-418.5"/>
<polygon fill="black" stroke="black" points="737.45,-491.48 745.73,-494.37 741.77,-491.1 745.08,-490.81 745.08,-490.81 745.08,-490.81 741.77,-491.1 745.1,-487.19 737.45,-491.48"/>
<ellipse fill="none" stroke="black" cx="732.55" cy="-491.91" rx="3.2" ry="3.2"/>
</g>
<!-- doc_page -->
<g id="node6" class="node">
<title>doc_page</title>
<g id="a_node6"><a xlink:href="../../tables/doc_page.html" xlink:title="doc_page" target="_top">
<polygon fill="#ffffff" stroke="none" points="522.75,-335.5 522.75,-486 670.75,-486 670.75,-335.5 522.75,-335.5"/>
<polygon fill="#f5f5f5" stroke="none" points="522.75,-462.5 522.75,-486 670.75,-486 670.75,-462.5 522.75,-462.5"/>
<polygon fill="none" stroke="black" points="522.75,-462.5 522.75,-486 670.75,-486 670.75,-462.5 522.75,-462.5"/>
<text text-anchor="start" x="527.75" y="-471.55" font-family="Helvetica,sans-Serif" font-weight="bold" font-size="11.00">doc_page</text>
<text text-anchor="start" x="629" y="-470.55" font-family="Helvetica,sans-Serif" font-size="11.00">[table]</text>
<polygon fill="none" stroke="black" points="522.75,-440.5 522.75,-462.5 670.75,-462.5 670.75,-440.5 522.75,-440.5"/>
<image xlink:href="../../images/primaryKeys.png" width="11px" height="12px" preserveAspectRatio="xMinYMin meet" x="527.75" y="-457.5"/>
<text text-anchor="start" x="542.75" y="-447.05" font-family="Helvetica,sans-Serif" font-size="11.00">identifier</text>
<polygon fill="#ffffff" stroke="none" points="522.75,-418.5 522.75,-440.5 670.75,-440.5 670.75,-418.5 522.75,-418.5"/>
<polygon fill="none" stroke="black" points="522.75,-418.5 522.75,-440.5 670.75,-440.5 670.75,-418.5 522.75,-418.5"/>
<image xlink:href="../../images/foreignKeys.png" width="11px" height="12px" preserveAspectRatio="xMinYMin meet" x="527.75" y="-435.5"/>
<text text-anchor="start" x="542.75" y="-425.05" font-family="Helvetica,sans-Serif" font-size="11.00">digital_document</text>
<polygon fill="#ffffff" stroke="none" points="522.75,-396.5 522.75,-418.5 670.75,-418.5 670.75,-396.5 522.75,-396.5"/>
<polygon fill="none" stroke="black" points="522.75,-396.5 522.75,-418.5 670.75,-418.5 670.75,-396.5 522.75,-396.5"/>
<image xlink:href="../../images/foreignKeys.png" width="11px" height="12px" preserveAspectRatio="xMinYMin meet" x="527.75" y="-413.5"/>
<text text-anchor="start" x="542.75" y="-403.05" font-family="Helvetica,sans-Serif" font-size="11.00">sample</text>
<polygon fill="#ffffff" stroke="none" points="522.75,-374.5 522.75,-396.5 670.75,-396.5 670.75,-374.5 522.75,-374.5"/>
<polygon fill="none" stroke="black" points="522.75,-374.5 522.75,-396.5 670.75,-396.5 670.75,-374.5 522.75,-374.5"/>
<text text-anchor="start" x="542.75" y="-381.05" font-family="Helvetica,sans-Serif" font-size="11.00">piece</text>
<polygon fill="none" stroke="black" points="522.75,-355 522.75,-374.5 670.75,-374.5 670.75,-355 522.75,-355"/>
<text text-anchor="start" x="525.75" y="-361.05" font-family="Helvetica,sans-Serif" font-size="11.00">...</text>
<polygon fill="#ffffff" stroke="none" points="522.75,-335.5 522.75,-355 576.08,-355 576.08,-335.5 522.75,-335.5"/>
<polygon fill="none" stroke="black" points="522.75,-335.5 522.75,-355 576.08,-355 576.08,-335.5 522.75,-335.5"/>
<text text-anchor="start" x="525.75" y="-341.55" font-family="Helvetica,sans-Serif" font-size="11.00">&lt; 2</text>
<polygon fill="#ffffff" stroke="none" points="576.08,-335.5 576.08,-355 617.42,-355 617.42,-335.5 576.08,-335.5"/>
<polygon fill="none" stroke="black" points="576.08,-335.5 576.08,-355 617.42,-355 617.42,-335.5 576.08,-335.5"/>
<text text-anchor="start" x="606.92" y="-341.55" font-family="Helvetica,sans-Serif" font-size="11.00"> &#160;</text>
<polygon fill="#ffffff" stroke="none" points="617.42,-335.5 617.42,-355 670.75,-355 670.75,-335.5 617.42,-335.5"/>
<polygon fill="none" stroke="black" points="617.42,-335.5 617.42,-355 670.75,-355 670.75,-335.5 617.42,-335.5"/>
<text text-anchor="start" x="648.25" y="-341.55" font-family="Helvetica,sans-Serif" font-size="11.00">3 &gt;</text>
</a>
</g>
</g>
<!-- check_automatic_result&#45;&gt;doc_page -->
<g id="edge5" class="edge">
<title>check_automatic_result:w&#45;&gt;doc_page:e</title>
<path fill="none" stroke="black" d="M730.18,-467.34C708.86,-463.22 699.58,-451.5 671.75,-451.5"/>
<polygon fill="black" stroke="black" points="737.45,-468 745.09,-472.31 741.77,-468.39 745.08,-468.69 745.08,-468.69 745.08,-468.69 741.77,-468.39 745.74,-465.13 737.45,-468"/>
<ellipse fill="none" stroke="black" cx="732.55" cy="-467.55" rx="3.2" ry="3.2"/>
</g>
<!-- doc_physical_document -->
<g id="node7" class="node">
<title>doc_physical_document</title>
<g id="a_node7"><a xlink:href="../../tables/doc_physical_document.html" xlink:title="doc_physical_document" target="_top">
<polygon fill="#ffffff" stroke="none" points="244,-138.5 244,-267 448.75,-267 448.75,-138.5 244,-138.5"/>
<polygon fill="#f5f5f5" stroke="none" points="244,-243.5 244,-267 448.75,-267 448.75,-243.5 244,-243.5"/>
<polygon fill="none" stroke="black" points="244,-243.5 244,-267 448.75,-267 448.75,-243.5 244,-243.5"/>
<text text-anchor="start" x="249" y="-252.55" font-family="Helvetica,sans-Serif" font-weight="bold" font-size="11.00">doc_physical_document</text>
<text text-anchor="start" x="407" y="-251.55" font-family="Helvetica,sans-Serif" font-size="11.00">[table]</text>
<polygon fill="none" stroke="black" points="244,-221.5 244,-243.5 448.75,-243.5 448.75,-221.5 244,-221.5"/>
<image xlink:href="../../images/primaryKeys.png" width="11px" height="12px" preserveAspectRatio="xMinYMin meet" x="249" y="-238.5"/>
<text text-anchor="start" x="276.88" y="-228.05" font-family="Helvetica,sans-Serif" font-size="11.00">identifier</text>
<polygon fill="#ffffff" stroke="none" points="244,-199.5 244,-221.5 448.75,-221.5 448.75,-199.5 244,-199.5"/>
<polygon fill="none" stroke="black" points="244,-199.5 244,-221.5 448.75,-221.5 448.75,-199.5 244,-199.5"/>
<image xlink:href="../../images/foreignKeys.png" width="11px" height="12px" preserveAspectRatio="xMinYMin meet" x="249" y="-216.5"/>
<text text-anchor="start" x="276.88" y="-206.05" font-family="Helvetica,sans-Serif" font-size="11.00">doc_unit</text>
<polygon fill="#ffffff" stroke="none" points="244,-177.5 244,-199.5 448.75,-199.5 448.75,-177.5 244,-177.5"/>
<polygon fill="none" stroke="black" points="244,-177.5 244,-199.5 448.75,-199.5 448.75,-177.5 244,-177.5"/>
<image xlink:href="../../images/foreignKeys.png" width="11px" height="12px" preserveAspectRatio="xMinYMin meet" x="249" y="-194.5"/>
<text text-anchor="start" x="276.88" y="-184.05" font-family="Helvetica,sans-Serif" font-size="11.00">train</text>
<polygon fill="none" stroke="black" points="244,-158 244,-177.5 448.75,-177.5 448.75,-158 244,-158"/>
<text text-anchor="start" x="247" y="-164.05" font-family="Helvetica,sans-Serif" font-size="11.00">...</text>
<polygon fill="#ffffff" stroke="none" points="244,-138.5 244,-158 316.25,-158 316.25,-138.5 244,-138.5"/>
<polygon fill="none" stroke="black" points="244,-138.5 244,-158 316.25,-158 316.25,-138.5 244,-138.5"/>
<text text-anchor="start" x="247" y="-144.55" font-family="Helvetica,sans-Serif" font-size="11.00">&lt; 2</text>
<polygon fill="#ffffff" stroke="none" points="316.25,-138.5 316.25,-158 376.5,-158 376.5,-138.5 316.25,-138.5"/>
<polygon fill="none" stroke="black" points="316.25,-138.5 316.25,-158 376.5,-158 376.5,-138.5 316.25,-138.5"/>
<text text-anchor="start" x="366" y="-144.55" font-family="Helvetica,sans-Serif" font-size="11.00"> &#160;</text>
<polygon fill="#ffffff" stroke="none" points="376.5,-138.5 376.5,-158 448.75,-158 448.75,-138.5 376.5,-138.5"/>
<polygon fill="none" stroke="black" points="376.5,-138.5 376.5,-158 448.75,-158 448.75,-138.5 376.5,-138.5"/>
<text text-anchor="start" x="426.25" y="-144.55" font-family="Helvetica,sans-Serif" font-size="11.00">2 &gt;</text>
</a>
</g>
</g>
<!-- check_automatic_result&#45;&gt;doc_physical_document -->
<g id="edge6" class="edge">
<title>check_automatic_result:w&#45;&gt;doc_physical_document:e</title>
<path fill="none" stroke="black" d="M730.48,-312.01C694.24,-295.58 750.78,-209.74 703.75,-174.75 627.44,-117.98 574,-130.62 489.75,-174.75 462.09,-189.24 480.97,-232.5 449.75,-232.5"/>
<polygon fill="black" stroke="black" points="737.55,-313.28 744.78,-318.23 741.81,-314.04 745.09,-314.63 745.09,-314.63 745.09,-314.63 741.81,-314.04 746.06,-311.15 737.55,-313.28"/>
<ellipse fill="none" stroke="black" cx="732.71" cy="-312.41" rx="3.2" ry="3.2"/>
</g>
<!-- doc_digital_document&#45;&gt;doc_unit -->
<g id="edge7" class="edge">
<title>doc_digital_document:w&#45;&gt;doc_unit:e</title>
<path fill="none" stroke="black" d="M233.31,-418.5C221.07,-418.5 213.3,-418.5 196,-418.5"/>
<polygon fill="black" stroke="black" points="240.67,-418.5 248.67,-422.1 245,-418.5 248.33,-418.5 248.33,-418.5 248.33,-418.5 245,-418.5 248.67,-414.9 240.67,-418.5"/>
<ellipse fill="none" stroke="black" cx="235.75" cy="-418.5" rx="3.2" ry="3.2"/>
</g>
<!-- doc_page&#45;&gt;doc_digital_document -->
<g id="edge8" class="edge">
<title>doc_page:w&#45;&gt;doc_digital_document:e</title>
<path fill="none" stroke="black" d="M506.14,-430.33C483.3,-432.88 472.88,-440.5 443.75,-440.5"/>
<polygon fill="black" stroke="black" points="513.43,-429.94 521.61,-433.11 517.76,-429.71 521.08,-429.54 521.08,-429.54 521.08,-429.54 517.76,-429.71 521.23,-425.92 513.43,-429.94"/>
<ellipse fill="none" stroke="black" cx="508.52" cy="-430.2" rx="3.2" ry="3.2"/>
</g>
<!-- doc_physical_document&#45;&gt;doc_unit -->
<g id="edge9" class="edge">
<title>doc_physical_document:w&#45;&gt;doc_unit:e</title>
<path fill="none" stroke="black" d="M227.5,-212.98C165.61,-236.45 284.67,-418.5 196,-418.5"/>
<polygon fill="black" stroke="black" points="234.77,-211.82 243.24,-214.11 239.05,-211.13 242.34,-210.61 242.34,-210.61 242.34,-210.61 239.05,-211.13 242.1,-207 234.77,-211.82"/>
<ellipse fill="none" stroke="black" cx="229.91" cy="-212.6" rx="3.2" ry="3.2"/>
</g>
</g>
</svg>
