<?xml version="1.0" encoding="UTF-8" standalone="no"?>
<!DOCTYPE svg PUBLIC "-//W3C//DTD SVG 1.1//EN"
 "http://www.w3.org/Graphics/SVG/1.1/DTD/svg11.dtd">
<!-- Generated by graphviz version 12.2.0 (0)
 -->
<!-- Title: twoDegreesRelationshipsDiagram Pages: 1 -->
<svg width="523pt" height="479pt"
 viewBox="0.00 0.00 522.50 479.25" xmlns="http://www.w3.org/2000/svg" xmlns:xlink="http://www.w3.org/1999/xlink">
<g id="graph0" class="graph" transform="scale(1 1) rotate(0) translate(4 475.25)">
<title>twoDegreesRelationshipsDiagram</title>
<polygon fill="#ffffff" stroke="none" points="-4,4 -4,-475.25 518.5,-475.25 518.5,4 -4,4"/>
<text text-anchor="middle" x="79.25" y="-7.05" font-family="Helvetica,sans-Serif" font-size="11.00">Generated by SchemaSpy</text>
<!-- check_slip_line -->
<g id="node1" class="node">
<title>check_slip_line</title>
<g id="a_node1"><a xlink:href="../../tables/check_slip_line.html" xlink:title="check_slip_line" target="_top">
<polygon fill="#ffffff" stroke="none" points="327.62,-165.75 327.62,-272.25 475.62,-272.25 475.62,-165.75 327.62,-165.75"/>
<polygon fill="#f5f5f5" stroke="none" points="327.62,-248.75 327.62,-272.25 475.62,-272.25 475.62,-248.75 327.62,-248.75"/>
<polygon fill="none" stroke="black" points="327.62,-248.75 327.62,-272.25 475.62,-272.25 475.62,-248.75 327.62,-248.75"/>
<text text-anchor="start" x="332.62" y="-257.8" font-family="Helvetica,sans-Serif" font-weight="bold" font-size="11.00">check_slip_line</text>
<text text-anchor="start" x="433.88" y="-256.8" font-family="Helvetica,sans-Serif" font-size="11.00">[table]</text>
<polygon fill="none" stroke="black" points="327.62,-226.75 327.62,-248.75 475.62,-248.75 475.62,-226.75 327.62,-226.75"/>
<image xlink:href="../../images/primaryKeys.png" width="11px" height="12px" preserveAspectRatio="xMinYMin meet" x="332.625" y="-243.75"/>
<text text-anchor="start" x="347.62" y="-233.3" font-family="Helvetica,sans-Serif" font-size="11.00">identifier</text>
<polygon fill="#ffffff" stroke="none" points="327.62,-204.75 327.62,-226.75 475.62,-226.75 475.62,-204.75 327.62,-204.75"/>
<polygon fill="none" stroke="black" points="327.62,-204.75 327.62,-226.75 475.62,-226.75 475.62,-204.75 327.62,-204.75"/>
<image xlink:href="../../images/foreignKeys.png" width="11px" height="12px" preserveAspectRatio="xMinYMin meet" x="332.625" y="-221.75"/>
<text text-anchor="start" x="347.62" y="-211.3" font-family="Helvetica,sans-Serif" font-size="11.00">check_slip</text>
<polygon fill="none" stroke="black" points="327.62,-185.25 327.62,-204.75 475.62,-204.75 475.62,-185.25 327.62,-185.25"/>
<text text-anchor="start" x="330.62" y="-191.3" font-family="Helvetica,sans-Serif" font-size="11.00">...</text>
<polygon fill="#ffffff" stroke="none" points="327.62,-165.75 327.62,-185.25 384.96,-185.25 384.96,-165.75 327.62,-165.75"/>
<polygon fill="none" stroke="black" points="327.62,-165.75 327.62,-185.25 384.96,-185.25 384.96,-165.75 327.62,-165.75"/>
<text text-anchor="start" x="330.62" y="-171.8" font-family="Helvetica,sans-Serif" font-size="11.00">&lt; 1</text>
<polygon fill="#ffffff" stroke="none" points="384.96,-165.75 384.96,-185.25 430.29,-185.25 430.29,-165.75 384.96,-165.75"/>
<polygon fill="none" stroke="black" points="384.96,-165.75 384.96,-185.25 430.29,-185.25 430.29,-165.75 384.96,-165.75"/>
<text text-anchor="start" x="419.79" y="-171.8" font-family="Helvetica,sans-Serif" font-size="11.00"> &#160;</text>
<polygon fill="#ffffff" stroke="none" points="430.29,-165.75 430.29,-185.25 475.62,-185.25 475.62,-165.75 430.29,-165.75"/>
<polygon fill="none" stroke="black" points="430.29,-165.75 430.29,-185.25 475.62,-185.25 475.62,-165.75 430.29,-165.75"/>
<text text-anchor="start" x="465.12" y="-171.8" font-family="Helvetica,sans-Serif" font-size="11.00"> &#160;</text>
</a>
</g>
</g>
<!-- check_slip -->
<g id="node2" class="node">
<title>check_slip</title>
<g id="a_node2"><a xlink:href="../../tables/check_slip.html" xlink:title="check_slip" target="_top">
<polygon fill="#ffffff" stroke="none" points="8,-38.5 8,-283.5 247.75,-283.5 247.75,-38.5 8,-38.5"/>
<polygon fill="#f5f5f5" stroke="none" points="10,-258 10,-281.5 245.75,-281.5 245.75,-258 10,-258"/>
<polygon fill="none" stroke="black" points="10,-258 10,-281.5 245.75,-281.5 245.75,-258 10,-258"/>
<text text-anchor="start" x="15" y="-267.05" font-family="Helvetica,sans-Serif" font-weight="bold" font-size="11.00">check_slip</text>
<text text-anchor="start" x="204" y="-266.05" font-family="Helvetica,sans-Serif" font-size="11.00">[table]</text>
<polygon fill="none" stroke="black" points="10,-236 10,-258 158,-258 158,-236 10,-236"/>
<image xlink:href="../../images/primaryKeys.png" width="11px" height="12px" preserveAspectRatio="xMinYMin meet" x="15" y="-253"/>
<text text-anchor="start" x="30" y="-242.55" font-family="Helvetica,sans-Serif" font-size="11.00">identifier</text>
<polygon fill="none" stroke="black" points="158,-236 158,-258 245.75,-258 245.75,-236 158,-236"/>
<text text-anchor="start" x="161" y="-243.3" font-family="Helvetica,sans-Serif" font-size="11.00">varchar[191]</text>
<polygon fill="none" stroke="black" points="10,-214 10,-236 158,-236 158,-214 10,-214"/>
<text text-anchor="start" x="30" y="-220.55" font-family="Helvetica,sans-Serif" font-size="11.00">lot_label</text>
<polygon fill="none" stroke="black" points="158,-214 158,-236 245.75,-236 245.75,-214 158,-214"/>
<text text-anchor="start" x="161" y="-221.3" font-family="Helvetica,sans-Serif" font-size="11.00">varchar[255]</text>
<polygon fill="none" stroke="black" points="10,-192 10,-214 158,-214 158,-192 10,-192"/>
<text text-anchor="start" x="30" y="-198.55" font-family="Helvetica,sans-Serif" font-size="11.00">deposit_date</text>
<polygon fill="none" stroke="black" points="158,-192 158,-214 245.75,-214 245.75,-192 158,-192"/>
<text text-anchor="start" x="161" y="-199.3" font-family="Helvetica,sans-Serif" font-size="11.00">date[10]</text>
<polygon fill="none" stroke="black" points="10,-170 10,-192 158,-192 158,-170 10,-170"/>
<text text-anchor="start" x="30" y="-176.55" font-family="Helvetica,sans-Serif" font-size="11.00">uncompleted</text>
<polygon fill="none" stroke="black" points="158,-170 158,-192 245.75,-192 245.75,-170 158,-170"/>
<text text-anchor="start" x="161" y="-177.3" font-family="Helvetica,sans-Serif" font-size="11.00">bit[1]</text>
<polygon fill="none" stroke="black" points="10,-148 10,-170 158,-170 158,-148 10,-148"/>
<text text-anchor="start" x="30" y="-154.55" font-family="Helvetica,sans-Serif" font-size="11.00">version</text>
<polygon fill="none" stroke="black" points="158,-148 158,-170 245.75,-170 245.75,-148 158,-148"/>
<text text-anchor="start" x="161" y="-155.3" font-family="Helvetica,sans-Serif" font-size="11.00">bigint[19]</text>
<polygon fill="none" stroke="black" points="10,-126 10,-148 158,-148 158,-126 10,-126"/>
<text text-anchor="start" x="30" y="-132.55" font-family="Helvetica,sans-Serif" font-size="11.00">created_by</text>
<polygon fill="none" stroke="black" points="158,-126 158,-148 245.75,-148 245.75,-126 158,-126"/>
<text text-anchor="start" x="161" y="-133.3" font-family="Helvetica,sans-Serif" font-size="11.00">varchar[191]</text>
<polygon fill="none" stroke="black" points="10,-104 10,-126 158,-126 158,-104 10,-104"/>
<text text-anchor="start" x="30" y="-110.55" font-family="Helvetica,sans-Serif" font-size="11.00">last_modified_by</text>
<polygon fill="none" stroke="black" points="158,-104 158,-126 245.75,-126 245.75,-104 158,-104"/>
<text text-anchor="start" x="161" y="-111.3" font-family="Helvetica,sans-Serif" font-size="11.00">varchar[191]</text>
<polygon fill="none" stroke="black" points="10,-82 10,-104 158,-104 158,-82 10,-82"/>
<text text-anchor="start" x="30" y="-88.55" font-family="Helvetica,sans-Serif" font-size="11.00">created_date</text>
<polygon fill="none" stroke="black" points="158,-82 158,-104 245.75,-104 245.75,-82 158,-82"/>
<text text-anchor="start" x="161" y="-89.3" font-family="Helvetica,sans-Serif" font-size="11.00">timestamp[19]</text>
<polygon fill="none" stroke="black" points="10,-60 10,-82 158,-82 158,-60 10,-60"/>
<text text-anchor="start" x="30" y="-66.55" font-family="Helvetica,sans-Serif" font-size="11.00">last_modified_date</text>
<polygon fill="none" stroke="black" points="158,-60 158,-82 245.75,-82 245.75,-60 158,-60"/>
<text text-anchor="start" x="161" y="-67.3" font-family="Helvetica,sans-Serif" font-size="11.00">timestamp[19]</text>
<polygon fill="#ffffff" stroke="none" points="10,-40.5 10,-60 90,-60 90,-40.5 10,-40.5"/>
<polygon fill="none" stroke="black" points="10,-40.5 10,-60 90,-60 90,-40.5 10,-40.5"/>
<text text-anchor="start" x="13" y="-46.55" font-family="Helvetica,sans-Serif" font-size="11.00">&lt; 0</text>
<polygon fill="#ffffff" stroke="none" points="90,-40.5 90,-60 158,-60 158,-40.5 90,-40.5"/>
<polygon fill="none" stroke="black" points="90,-40.5 90,-60 158,-60 158,-40.5 90,-40.5"/>
<text text-anchor="start" x="147.5" y="-46.55" font-family="Helvetica,sans-Serif" font-size="11.00"> &#160;</text>
<polygon fill="#ffffff" stroke="none" points="158,-40.5 158,-60 245.75,-60 245.75,-40.5 158,-40.5"/>
<polygon fill="none" stroke="black" points="158,-40.5 158,-60 245.75,-60 245.75,-40.5 158,-40.5"/>
<text text-anchor="start" x="223.25" y="-46.55" font-family="Helvetica,sans-Serif" font-size="11.00">2 &gt;</text>
<polygon fill="none" stroke="black" stroke-width="2" points="9,-39.5 9,-282.5 246.75,-282.5 246.75,-39.5 9,-39.5"/>
</a>
</g>
</g>
<!-- check_slip_line&#45;&gt;check_slip -->
<g id="edge1" class="edge">
<title>check_slip_line:w&#45;&gt;check_slip:e</title>
<path fill="none" stroke="black" d="M311.02,-217.8C286.53,-224.75 278.91,-247 246.75,-247"/>
<polygon fill="black" stroke="black" points="318.36,-216.84 326.76,-219.36 322.66,-216.27 325.96,-215.84 325.96,-215.84 325.96,-215.84 322.66,-216.27 325.82,-212.22 318.36,-216.84"/>
<ellipse fill="none" stroke="black" cx="313.49" cy="-217.48" rx="3.2" ry="3.2"/>
</g>
<!-- del_delivered_document -->
<g id="node3" class="node">
<title>del_delivered_document</title>
<g id="a_node3"><a xlink:href="../../tables/del_delivered_document.html" xlink:title="del_delivered_document" target="_top">
<polygon fill="#ffffff" stroke="none" points="296.75,-293.75 296.75,-444.25 506.5,-444.25 506.5,-293.75 296.75,-293.75"/>
<polygon fill="#f5f5f5" stroke="none" points="296.75,-420.75 296.75,-444.25 506.5,-444.25 506.5,-420.75 296.75,-420.75"/>
<polygon fill="none" stroke="black" points="296.75,-420.75 296.75,-444.25 506.5,-444.25 506.5,-420.75 296.75,-420.75"/>
<text text-anchor="start" x="301.75" y="-429.8" font-family="Helvetica,sans-Serif" font-weight="bold" font-size="11.00">del_delivered_document</text>
<text text-anchor="start" x="464.75" y="-428.8" font-family="Helvetica,sans-Serif" font-size="11.00">[table]</text>
<polygon fill="none" stroke="black" points="296.75,-398.75 296.75,-420.75 506.5,-420.75 506.5,-398.75 296.75,-398.75"/>
<image xlink:href="../../images/primaryKeys.png" width="11px" height="12px" preserveAspectRatio="xMinYMin meet" x="301.75" y="-415.75"/>
<text text-anchor="start" x="329.62" y="-405.3" font-family="Helvetica,sans-Serif" font-size="11.00">identifier</text>
<polygon fill="#ffffff" stroke="none" points="296.75,-376.75 296.75,-398.75 506.5,-398.75 506.5,-376.75 296.75,-376.75"/>
<polygon fill="none" stroke="black" points="296.75,-376.75 296.75,-398.75 506.5,-398.75 506.5,-376.75 296.75,-376.75"/>
<image xlink:href="../../images/foreignKeys.png" width="11px" height="12px" preserveAspectRatio="xMinYMin meet" x="301.75" y="-393.75"/>
<text text-anchor="start" x="329.62" y="-383.3" font-family="Helvetica,sans-Serif" font-size="11.00">delivery</text>
<polygon fill="#ffffff" stroke="none" points="296.75,-354.75 296.75,-376.75 506.5,-376.75 506.5,-354.75 296.75,-354.75"/>
<polygon fill="none" stroke="black" points="296.75,-354.75 296.75,-376.75 506.5,-376.75 506.5,-354.75 296.75,-354.75"/>
<image xlink:href="../../images/foreignKeys.png" width="11px" height="12px" preserveAspectRatio="xMinYMin meet" x="301.75" y="-371.75"/>
<text text-anchor="start" x="329.62" y="-361.3" font-family="Helvetica,sans-Serif" font-size="11.00">digital_document</text>
<polygon fill="#ffffff" stroke="none" points="296.75,-332.75 296.75,-354.75 506.5,-354.75 506.5,-332.75 296.75,-332.75"/>
<polygon fill="none" stroke="black" points="296.75,-332.75 296.75,-354.75 506.5,-354.75 506.5,-332.75 296.75,-332.75"/>
<image xlink:href="../../images/foreignKeys.png" width="11px" height="12px" preserveAspectRatio="xMinYMin meet" x="301.75" y="-349.75"/>
<text text-anchor="start" x="329.62" y="-339.3" font-family="Helvetica,sans-Serif" font-size="11.00">check_slip</text>
<polygon fill="none" stroke="black" points="296.75,-313.25 296.75,-332.75 506.5,-332.75 506.5,-313.25 296.75,-313.25"/>
<text text-anchor="start" x="299.75" y="-319.3" font-family="Helvetica,sans-Serif" font-size="11.00">...</text>
<polygon fill="#ffffff" stroke="none" points="296.75,-293.75 296.75,-313.25 374.67,-313.25 374.67,-293.75 296.75,-293.75"/>
<polygon fill="none" stroke="black" points="296.75,-293.75 296.75,-313.25 374.67,-313.25 374.67,-293.75 296.75,-293.75"/>
<text text-anchor="start" x="299.75" y="-299.8" font-family="Helvetica,sans-Serif" font-size="11.00">&lt; 3</text>
<polygon fill="#ffffff" stroke="none" points="374.67,-293.75 374.67,-313.25 440.58,-313.25 440.58,-293.75 374.67,-293.75"/>
<polygon fill="none" stroke="black" points="374.67,-293.75 374.67,-313.25 440.58,-313.25 440.58,-293.75 374.67,-293.75"/>
<text text-anchor="start" x="430.08" y="-299.8" font-family="Helvetica,sans-Serif" font-size="11.00"> &#160;</text>
<polygon fill="#ffffff" stroke="none" points="440.58,-293.75 440.58,-313.25 506.5,-313.25 506.5,-293.75 440.58,-293.75"/>
<polygon fill="none" stroke="black" points="440.58,-293.75 440.58,-313.25 506.5,-313.25 506.5,-293.75 440.58,-293.75"/>
<text text-anchor="start" x="496" y="-299.8" font-family="Helvetica,sans-Serif" font-size="11.00"> &#160;</text>
</a>
</g>
</g>
<!-- del_delivered_document&#45;&gt;check_slip -->
<g id="edge2" class="edge">
<title>del_delivered_document:w&#45;&gt;check_slip:e</title>
<path fill="none" stroke="black" d="M280.85,-338.82C258.72,-319.1 288.36,-247 246.75,-247"/>
<polygon fill="black" stroke="black" points="287.84,-341.13 294.3,-347.06 291.95,-342.49 295.11,-343.54 295.11,-343.54 295.11,-343.54 291.95,-342.49 296.56,-340.23 287.84,-341.13"/>
<ellipse fill="none" stroke="black" cx="283.17" cy="-339.59" rx="3.2" ry="3.2"/>
</g>
<!-- del_delivery -->
<g id="node4" class="node">
<title>del_delivery</title>
<g id="a_node4"><a xlink:href="../../tables/del_delivery.html" xlink:title="del_delivery" target="_top">
<polygon fill="#ffffff" stroke="none" points="64,-404.75 64,-467.25 191.75,-467.25 191.75,-404.75 64,-404.75"/>
<polygon fill="#f5f5f5" stroke="none" points="64,-443.75 64,-467.25 191.75,-467.25 191.75,-443.75 64,-443.75"/>
<polygon fill="none" stroke="black" points="64,-443.75 64,-467.25 191.75,-467.25 191.75,-443.75 64,-443.75"/>
<text text-anchor="start" x="69" y="-452.8" font-family="Helvetica,sans-Serif" font-weight="bold" font-size="11.00">del_delivery</text>
<text text-anchor="start" x="150" y="-451.8" font-family="Helvetica,sans-Serif" font-size="11.00">[table]</text>
<polygon fill="none" stroke="black" points="64,-424.25 64,-443.75 191.75,-443.75 191.75,-424.25 64,-424.25"/>
<text text-anchor="start" x="67" y="-430.3" font-family="Helvetica,sans-Serif" font-size="11.00">...</text>
<polygon fill="#ffffff" stroke="none" points="64,-404.75 64,-424.25 110.58,-424.25 110.58,-404.75 64,-404.75"/>
<polygon fill="none" stroke="black" points="64,-404.75 64,-424.25 110.58,-424.25 110.58,-404.75 64,-404.75"/>
<text text-anchor="start" x="67" y="-410.8" font-family="Helvetica,sans-Serif" font-size="11.00">&lt; 2</text>
<polygon fill="#ffffff" stroke="none" points="110.58,-404.75 110.58,-424.25 145.17,-424.25 145.17,-404.75 110.58,-404.75"/>
<polygon fill="none" stroke="black" points="110.58,-404.75 110.58,-424.25 145.17,-424.25 145.17,-404.75 110.58,-404.75"/>
<text text-anchor="start" x="134.67" y="-410.8" font-family="Helvetica,sans-Serif" font-size="11.00"> &#160;</text>
<polygon fill="#ffffff" stroke="none" points="145.17,-404.75 145.17,-424.25 191.75,-424.25 191.75,-404.75 145.17,-404.75"/>
<polygon fill="none" stroke="black" points="145.17,-404.75 145.17,-424.25 191.75,-424.25 191.75,-404.75 145.17,-404.75"/>
<text text-anchor="start" x="169.25" y="-410.8" font-family="Helvetica,sans-Serif" font-size="11.00">4 &gt;</text>
</a>
</g>
</g>
<!-- del_delivered_document&#45;&gt;del_delivery -->
<g id="edge3" class="edge">
<title>del_delivered_document:w&#45;&gt;del_delivery:e</title>
<path fill="none" stroke="black" d="M280.39,-389.4C244.36,-397.64 237.25,-434 192.75,-434"/>
<polygon fill="black" stroke="black" points="287.46,-388.64 295.8,-391.37 291.77,-388.18 295.08,-387.82 295.08,-387.82 295.08,-387.82 291.77,-388.18 295.03,-384.21 287.46,-388.64"/>
<ellipse fill="none" stroke="black" cx="282.57" cy="-389.16" rx="3.2" ry="3.2"/>
</g>
<!-- doc_digital_document -->
<g id="node5" class="node">
<title>doc_digital_document</title>
<g id="a_node5"><a xlink:href="../../tables/doc_digital_document.html" xlink:title="doc_digital_document" target="_top">
<polygon fill="#ffffff" stroke="none" points="31.5,-320.75 31.5,-383.25 224.25,-383.25 224.25,-320.75 31.5,-320.75"/>
<polygon fill="#f5f5f5" stroke="none" points="31.5,-359.75 31.5,-383.25 224.25,-383.25 224.25,-359.75 31.5,-359.75"/>
<polygon fill="none" stroke="black" points="31.5,-359.75 31.5,-383.25 224.25,-383.25 224.25,-359.75 31.5,-359.75"/>
<text text-anchor="start" x="36.5" y="-368.8" font-family="Helvetica,sans-Serif" font-weight="bold" font-size="11.00">doc_digital_document</text>
<text text-anchor="start" x="182.5" y="-367.8" font-family="Helvetica,sans-Serif" font-size="11.00">[table]</text>
<polygon fill="none" stroke="black" points="31.5,-340.25 31.5,-359.75 224.25,-359.75 224.25,-340.25 31.5,-340.25"/>
<text text-anchor="start" x="34.5" y="-346.3" font-family="Helvetica,sans-Serif" font-size="11.00">...</text>
<polygon fill="#ffffff" stroke="none" points="31.5,-320.75 31.5,-340.25 99.75,-340.25 99.75,-320.75 31.5,-320.75"/>
<polygon fill="none" stroke="black" points="31.5,-320.75 31.5,-340.25 99.75,-340.25 99.75,-320.75 31.5,-320.75"/>
<text text-anchor="start" x="34.5" y="-326.8" font-family="Helvetica,sans-Serif" font-size="11.00">&lt; 1</text>
<polygon fill="#ffffff" stroke="none" points="99.75,-320.75 99.75,-340.25 156,-340.25 156,-320.75 99.75,-320.75"/>
<polygon fill="none" stroke="black" points="99.75,-320.75 99.75,-340.25 156,-340.25 156,-320.75 99.75,-320.75"/>
<text text-anchor="start" x="145.5" y="-326.8" font-family="Helvetica,sans-Serif" font-size="11.00"> &#160;</text>
<polygon fill="#ffffff" stroke="none" points="156,-320.75 156,-340.25 224.25,-340.25 224.25,-320.75 156,-320.75"/>
<polygon fill="none" stroke="black" points="156,-320.75 156,-340.25 224.25,-340.25 224.25,-320.75 156,-320.75"/>
<text text-anchor="start" x="201.75" y="-326.8" font-family="Helvetica,sans-Serif" font-size="11.00">6 &gt;</text>
</a>
</g>
</g>
<!-- del_delivered_document&#45;&gt;doc_digital_document -->
<g id="edge4" class="edge">
<title>del_delivered_document:w&#45;&gt;doc_digital_document:e</title>
<path fill="none" stroke="black" d="M280.07,-364.3C260.38,-360.4 251.34,-350 225.25,-350"/>
<polygon fill="black" stroke="black" points="287.45,-364.98 295.08,-369.3 291.77,-365.38 295.08,-365.69 295.08,-365.69 295.08,-365.69 291.77,-365.38 295.75,-362.13 287.45,-364.98"/>
<ellipse fill="none" stroke="black" cx="282.55" cy="-364.53" rx="3.2" ry="3.2"/>
</g>
</g>
</svg>
