<?xml version="1.0" encoding="UTF-8" standalone="no"?>
<!DOCTYPE svg PUBLIC "-//W3C//DTD SVG 1.1//EN"
 "http://www.w3.org/Graphics/SVG/1.1/DTD/svg11.dtd">
<!-- Generated by graphviz version 12.2.0 (0)
 -->
<!-- Title: twoDegreesRelationshipsDiagram Pages: 1 -->
<svg width="470pt" height="467pt"
 viewBox="0.00 0.00 470.25 467.25" xmlns="http://www.w3.org/2000/svg" xmlns:xlink="http://www.w3.org/1999/xlink">
<g id="graph0" class="graph" transform="scale(1 1) rotate(0) translate(4 463.25)">
<title>twoDegreesRelationshipsDiagram</title>
<polygon fill="#ffffff" stroke="none" points="-4,4 -4,-463.25 466.25,-463.25 466.25,4 -4,4"/>
<text text-anchor="middle" x="79.25" y="-7.05" font-family="Helvetica,sans-Serif" font-size="11.00">Generated by SchemaSpy</text>
<!-- check_slip_line -->
<g id="node1" class="node">
<title>check_slip_line</title>
<g id="a_node1"><a xlink:href="../../tables/check_slip_line.html" xlink:title="check_slip_line" target="_top">
<polygon fill="#ffffff" stroke="none" points="205,-122.25 205,-455.25 454.25,-455.25 454.25,-122.25 205,-122.25"/>
<polygon fill="#f5f5f5" stroke="none" points="207,-429.75 207,-453.25 452.25,-453.25 452.25,-429.75 207,-429.75"/>
<polygon fill="none" stroke="black" points="207,-429.75 207,-453.25 452.25,-453.25 452.25,-429.75 207,-429.75"/>
<text text-anchor="start" x="212" y="-438.8" font-family="Helvetica,sans-Serif" font-weight="bold" font-size="11.00">check_slip_line</text>
<text text-anchor="start" x="410.5" y="-437.8" font-family="Helvetica,sans-Serif" font-size="11.00">[table]</text>
<polygon fill="none" stroke="black" points="207,-407.75 207,-429.75 355,-429.75 355,-407.75 207,-407.75"/>
<image xlink:href="../../images/primaryKeys.png" width="11px" height="12px" preserveAspectRatio="xMinYMin meet" x="212" y="-424.75"/>
<text text-anchor="start" x="227" y="-414.3" font-family="Helvetica,sans-Serif" font-size="11.00">identifier</text>
<polygon fill="none" stroke="black" points="355,-407.75 355,-429.75 447.5,-429.75 447.5,-407.75 355,-407.75"/>
<text text-anchor="start" x="358" y="-415.05" font-family="Helvetica,sans-Serif" font-size="11.00">varchar[191]</text>
<polygon fill="none" stroke="black" points="207,-385.75 207,-407.75 355,-407.75 355,-385.75 207,-385.75"/>
<text text-anchor="start" x="227" y="-392.3" font-family="Helvetica,sans-Serif" font-size="11.00">pgcn_id</text>
<polygon fill="none" stroke="black" points="355,-385.75 355,-407.75 447.5,-407.75 447.5,-385.75 355,-385.75"/>
<text text-anchor="start" x="358" y="-393.05" font-family="Helvetica,sans-Serif" font-size="11.00">varchar[255]</text>
<polygon fill="none" stroke="black" points="207,-363.75 207,-385.75 355,-385.75 355,-363.75 207,-363.75"/>
<text text-anchor="start" x="227" y="-370.3" font-family="Helvetica,sans-Serif" font-size="11.00">title</text>
<polygon fill="none" stroke="black" points="355,-363.75 355,-385.75 447.5,-385.75 447.5,-363.75 355,-363.75"/>
<text text-anchor="start" x="358" y="-371.05" font-family="Helvetica,sans-Serif" font-size="11.00">varchar[255]</text>
<polygon fill="none" stroke="black" points="207,-341.75 207,-363.75 355,-363.75 355,-341.75 207,-341.75"/>
<text text-anchor="start" x="227" y="-348.3" font-family="Helvetica,sans-Serif" font-size="11.00">status</text>
<polygon fill="none" stroke="black" points="355,-341.75 355,-363.75 447.5,-363.75 447.5,-341.75 355,-341.75"/>
<text text-anchor="start" x="358" y="-349.05" font-family="Helvetica,sans-Serif" font-size="11.00">varchar[255]</text>
<polygon fill="none" stroke="black" points="207,-319.75 207,-341.75 355,-341.75 355,-319.75 207,-319.75"/>
<text text-anchor="start" x="227" y="-326.3" font-family="Helvetica,sans-Serif" font-size="11.00">doc_errors</text>
<polygon fill="none" stroke="black" points="355,-319.75 355,-341.75 447.5,-341.75 447.5,-319.75 355,-319.75"/>
<text text-anchor="start" x="358" y="-327.05" font-family="Helvetica,sans-Serif" font-size="11.00">text[65535]</text>
<polygon fill="none" stroke="black" points="207,-297.75 207,-319.75 355,-319.75 355,-297.75 207,-297.75"/>
<text text-anchor="start" x="227" y="-304.3" font-family="Helvetica,sans-Serif" font-size="11.00">nb_pages</text>
<polygon fill="none" stroke="black" points="355,-297.75 355,-319.75 447.5,-319.75 447.5,-297.75 355,-297.75"/>
<text text-anchor="start" x="358" y="-305.05" font-family="Helvetica,sans-Serif" font-size="11.00">int[10]</text>
<polygon fill="none" stroke="black" points="207,-275.75 207,-297.75 355,-297.75 355,-275.75 207,-275.75"/>
<text text-anchor="start" x="227" y="-282.3" font-family="Helvetica,sans-Serif" font-size="11.00">nb_pages_to_bill</text>
<polygon fill="none" stroke="black" points="355,-275.75 355,-297.75 447.5,-297.75 447.5,-275.75 355,-275.75"/>
<text text-anchor="start" x="358" y="-283.05" font-family="Helvetica,sans-Serif" font-size="11.00">int[10]</text>
<polygon fill="#ffffff" stroke="none" points="207,-253.75 207,-275.75 355,-275.75 355,-253.75 207,-253.75"/>
<polygon fill="none" stroke="black" points="207,-253.75 207,-275.75 355,-275.75 355,-253.75 207,-253.75"/>
<image xlink:href="../../images/foreignKeys.png" width="11px" height="12px" preserveAspectRatio="xMinYMin meet" x="212" y="-270.75"/>
<text text-anchor="start" x="227" y="-260.3" font-family="Helvetica,sans-Serif" font-size="11.00">check_slip</text>
<polygon fill="none" stroke="black" points="355,-253.75 355,-275.75 447.5,-275.75 447.5,-253.75 355,-253.75"/>
<text text-anchor="start" x="358" y="-261.05" font-family="Helvetica,sans-Serif" font-size="11.00">varchar[191]</text>
<polygon fill="none" stroke="black" points="207,-231.75 207,-253.75 355,-253.75 355,-231.75 207,-231.75"/>
<text text-anchor="start" x="227" y="-238.3" font-family="Helvetica,sans-Serif" font-size="11.00">version</text>
<polygon fill="none" stroke="black" points="355,-231.75 355,-253.75 447.5,-253.75 447.5,-231.75 355,-231.75"/>
<text text-anchor="start" x="358" y="-239.05" font-family="Helvetica,sans-Serif" font-size="11.00">bigint[19]</text>
<polygon fill="none" stroke="black" points="207,-209.75 207,-231.75 355,-231.75 355,-209.75 207,-209.75"/>
<text text-anchor="start" x="227" y="-216.3" font-family="Helvetica,sans-Serif" font-size="11.00">created_by</text>
<polygon fill="none" stroke="black" points="355,-209.75 355,-231.75 447.5,-231.75 447.5,-209.75 355,-209.75"/>
<text text-anchor="start" x="358" y="-217.05" font-family="Helvetica,sans-Serif" font-size="11.00">varchar[191]</text>
<polygon fill="none" stroke="black" points="207,-187.75 207,-209.75 355,-209.75 355,-187.75 207,-187.75"/>
<text text-anchor="start" x="227" y="-194.3" font-family="Helvetica,sans-Serif" font-size="11.00">last_modified_by</text>
<polygon fill="none" stroke="black" points="355,-187.75 355,-209.75 447.5,-209.75 447.5,-187.75 355,-187.75"/>
<text text-anchor="start" x="358" y="-195.05" font-family="Helvetica,sans-Serif" font-size="11.00">varchar[191]</text>
<polygon fill="none" stroke="black" points="207,-165.75 207,-187.75 355,-187.75 355,-165.75 207,-165.75"/>
<text text-anchor="start" x="227" y="-172.3" font-family="Helvetica,sans-Serif" font-size="11.00">created_date</text>
<polygon fill="none" stroke="black" points="355,-165.75 355,-187.75 447.5,-187.75 447.5,-165.75 355,-165.75"/>
<text text-anchor="start" x="358" y="-173.05" font-family="Helvetica,sans-Serif" font-size="11.00">timestamp[19]</text>
<polygon fill="none" stroke="black" points="207,-143.75 207,-165.75 355,-165.75 355,-143.75 207,-143.75"/>
<text text-anchor="start" x="227" y="-150.3" font-family="Helvetica,sans-Serif" font-size="11.00">last_modified_date</text>
<polygon fill="none" stroke="black" points="355,-143.75 355,-165.75 447.5,-165.75 447.5,-143.75 355,-143.75"/>
<text text-anchor="start" x="358" y="-151.05" font-family="Helvetica,sans-Serif" font-size="11.00">timestamp[19]</text>
<polygon fill="#ffffff" stroke="none" points="207,-124.25 207,-143.75 287,-143.75 287,-124.25 207,-124.25"/>
<polygon fill="none" stroke="black" points="207,-124.25 207,-143.75 287,-143.75 287,-124.25 207,-124.25"/>
<text text-anchor="start" x="210" y="-130.3" font-family="Helvetica,sans-Serif" font-size="11.00">&lt; 1</text>
<polygon fill="#ffffff" stroke="none" points="287,-124.25 287,-143.75 355,-143.75 355,-124.25 287,-124.25"/>
<polygon fill="none" stroke="black" points="287,-124.25 287,-143.75 355,-143.75 355,-124.25 287,-124.25"/>
<text text-anchor="start" x="344.5" y="-130.3" font-family="Helvetica,sans-Serif" font-size="11.00"> &#160;</text>
<polygon fill="#ffffff" stroke="none" points="355,-124.25 355,-143.75 447.5,-143.75 447.5,-124.25 355,-124.25"/>
<polygon fill="none" stroke="black" points="355,-124.25 355,-143.75 447.5,-143.75 447.5,-124.25 355,-124.25"/>
<text text-anchor="start" x="425" y="-130.3" font-family="Helvetica,sans-Serif" font-size="11.00">0 &gt;</text>
<polygon fill="none" stroke="black" stroke-width="2" points="206,-123.25 206,-454.25 453.25,-454.25 453.25,-123.25 206,-123.25"/>
</a>
</g>
</g>
<!-- check_slip -->
<g id="node2" class="node">
<title>check_slip</title>
<g id="a_node2"><a xlink:href="../../tables/check_slip.html" xlink:title="check_slip" target="_top">
<polygon fill="#ffffff" stroke="none" points="8,-116.5 8,-201 156,-201 156,-116.5 8,-116.5"/>
<polygon fill="#f5f5f5" stroke="none" points="8,-177.5 8,-201 156,-201 156,-177.5 8,-177.5"/>
<polygon fill="none" stroke="black" points="8,-177.5 8,-201 156,-201 156,-177.5 8,-177.5"/>
<text text-anchor="start" x="13" y="-186.55" font-family="Helvetica,sans-Serif" font-weight="bold" font-size="11.00">check_slip</text>
<text text-anchor="start" x="114.25" y="-185.55" font-family="Helvetica,sans-Serif" font-size="11.00">[table]</text>
<polygon fill="none" stroke="black" points="8,-155.5 8,-177.5 156,-177.5 156,-155.5 8,-155.5"/>
<image xlink:href="../../images/primaryKeys.png" width="11px" height="12px" preserveAspectRatio="xMinYMin meet" x="13" y="-172.5"/>
<text text-anchor="start" x="28" y="-162.05" font-family="Helvetica,sans-Serif" font-size="11.00">identifier</text>
<polygon fill="none" stroke="black" points="8,-136 8,-155.5 156,-155.5 156,-136 8,-136"/>
<text text-anchor="start" x="11" y="-142.05" font-family="Helvetica,sans-Serif" font-size="11.00">...</text>
<polygon fill="#ffffff" stroke="none" points="8,-116.5 8,-136 53.33,-136 53.33,-116.5 8,-116.5"/>
<polygon fill="none" stroke="black" points="8,-116.5 8,-136 53.33,-136 53.33,-116.5 8,-116.5"/>
<text text-anchor="start" x="11" y="-122.55" font-family="Helvetica,sans-Serif" font-size="11.00"> &#160;</text>
<polygon fill="#ffffff" stroke="none" points="53.33,-116.5 53.33,-136 98.67,-136 98.67,-116.5 53.33,-116.5"/>
<polygon fill="none" stroke="black" points="53.33,-116.5 53.33,-136 98.67,-136 98.67,-116.5 53.33,-116.5"/>
<text text-anchor="start" x="88.17" y="-122.55" font-family="Helvetica,sans-Serif" font-size="11.00"> &#160;</text>
<polygon fill="#ffffff" stroke="none" points="98.67,-116.5 98.67,-136 156,-136 156,-116.5 98.67,-116.5"/>
<polygon fill="none" stroke="black" points="98.67,-116.5 98.67,-136 156,-136 156,-116.5 98.67,-116.5"/>
<text text-anchor="start" x="133.5" y="-122.55" font-family="Helvetica,sans-Serif" font-size="11.00">2 &gt;</text>
</a>
</g>
</g>
<!-- check_slip_line&#45;&gt;check_slip -->
<g id="edge1" class="edge">
<title>check_slip_line:w&#45;&gt;check_slip:e</title>
<path fill="none" stroke="black" d="M191.26,-260.01C168.39,-240.39 199.32,-166.5 157,-166.5"/>
<polygon fill="black" stroke="black" points="198.07,-262.2 204.58,-268.08 202.19,-263.53 205.36,-264.55 205.36,-264.55 205.36,-264.55 202.19,-263.53 206.78,-261.22 198.07,-262.2"/>
<ellipse fill="none" stroke="black" cx="193.38" cy="-260.69" rx="3.2" ry="3.2"/>
</g>
<!-- del_delivered_document -->
<g id="node3" class="node">
<title>del_delivered_document</title>
<g id="a_node3"><a xlink:href="../../tables/del_delivered_document.html" xlink:title="del_delivered_document" target="_top">
<polygon fill="#ffffff" stroke="none" points="224.75,-38.5 224.75,-101 434.5,-101 434.5,-38.5 224.75,-38.5"/>
<polygon fill="#f5f5f5" stroke="none" points="224.75,-77.5 224.75,-101 434.5,-101 434.5,-77.5 224.75,-77.5"/>
<polygon fill="none" stroke="black" points="224.75,-77.5 224.75,-101 434.5,-101 434.5,-77.5 224.75,-77.5"/>
<text text-anchor="start" x="229.75" y="-86.55" font-family="Helvetica,sans-Serif" font-weight="bold" font-size="11.00">del_delivered_document</text>
<text text-anchor="start" x="392.75" y="-85.55" font-family="Helvetica,sans-Serif" font-size="11.00">[table]</text>
<polygon fill="none" stroke="black" points="224.75,-58 224.75,-77.5 434.5,-77.5 434.5,-58 224.75,-58"/>
<text text-anchor="start" x="227.75" y="-64.05" font-family="Helvetica,sans-Serif" font-size="11.00">...</text>
<polygon fill="#ffffff" stroke="none" points="224.75,-38.5 224.75,-58 302.67,-58 302.67,-38.5 224.75,-38.5"/>
<polygon fill="none" stroke="black" points="224.75,-38.5 224.75,-58 302.67,-58 302.67,-38.5 224.75,-38.5"/>
<text text-anchor="start" x="227.75" y="-44.55" font-family="Helvetica,sans-Serif" font-size="11.00">&lt; 3</text>
<polygon fill="#ffffff" stroke="none" points="302.67,-38.5 302.67,-58 368.58,-58 368.58,-38.5 302.67,-38.5"/>
<polygon fill="none" stroke="black" points="302.67,-38.5 302.67,-58 368.58,-58 368.58,-38.5 302.67,-38.5"/>
<text text-anchor="start" x="358.08" y="-44.55" font-family="Helvetica,sans-Serif" font-size="11.00"> &#160;</text>
<polygon fill="#ffffff" stroke="none" points="368.58,-38.5 368.58,-58 434.5,-58 434.5,-38.5 368.58,-38.5"/>
<polygon fill="none" stroke="black" points="368.58,-38.5 368.58,-58 434.5,-58 434.5,-38.5 368.58,-38.5"/>
<text text-anchor="start" x="424" y="-44.55" font-family="Helvetica,sans-Serif" font-size="11.00"> &#160;</text>
</a>
</g>
</g>
<!-- del_delivered_document&#45;&gt;check_slip -->
<g id="edge2" class="edge">
<title>del_delivered_document:w&#45;&gt;check_slip:e</title>
<path fill="none" stroke="black" d="M208.63,-71.5C178.7,-89.54 203.77,-166.5 157,-166.5"/>
<polygon fill="black" stroke="black" points="215.66,-69.76 224.29,-71.32 219.87,-68.71 223.1,-67.91 223.1,-67.91 223.1,-67.91 219.87,-68.71 222.56,-64.34 215.66,-69.76"/>
<ellipse fill="none" stroke="black" cx="210.89" cy="-70.94" rx="3.2" ry="3.2"/>
</g>
</g>
</svg>
