<?xml version="1.0" encoding="UTF-8" standalone="no"?>
<!DOCTYPE svg PUBLIC "-//W3C//DTD SVG 1.1//EN"
 "http://www.w3.org/Graphics/SVG/1.1/DTD/svg11.dtd">
<!-- Generated by graphviz version 12.2.0 (0)
 -->
<!-- Title: twoDegreesRelationshipsDiagram Pages: 1 -->
<svg width="1002pt" height="690pt"
 viewBox="0.00 0.00 1001.50 689.75" xmlns="http://www.w3.org/2000/svg" xmlns:xlink="http://www.w3.org/1999/xlink">
<g id="graph0" class="graph" transform="scale(1 1) rotate(0) translate(4 685.75)">
<title>twoDegreesRelationshipsDiagram</title>
<polygon fill="#ffffff" stroke="none" points="-4,4 -4,-685.75 997.5,-685.75 997.5,4 -4,4"/>
<text text-anchor="middle" x="79.25" y="-7.05" font-family="Helvetica,sans-Serif" font-size="11.00">Generated by SchemaSpy</text>
<!-- check_automatic_result -->
<g id="node1" class="node">
<title>check_automatic_result</title>
<g id="a_node1"><a xlink:href="../../tables/check_automatic_result.html" xlink:title="check_automatic_result" target="_top">
<polygon fill="#ffffff" stroke="none" points="769.75,-120.25 769.75,-336.75 974.5,-336.75 974.5,-120.25 769.75,-120.25"/>
<polygon fill="#f5f5f5" stroke="none" points="769.75,-313.25 769.75,-336.75 974.5,-336.75 974.5,-313.25 769.75,-313.25"/>
<polygon fill="none" stroke="black" points="769.75,-313.25 769.75,-336.75 974.5,-336.75 974.5,-313.25 769.75,-313.25"/>
<text text-anchor="start" x="774.75" y="-322.3" font-family="Helvetica,sans-Serif" font-weight="bold" font-size="11.00">check_automatic_result</text>
<text text-anchor="start" x="932.75" y="-321.3" font-family="Helvetica,sans-Serif" font-size="11.00">[table]</text>
<polygon fill="none" stroke="black" points="769.75,-291.25 769.75,-313.25 974.5,-313.25 974.5,-291.25 769.75,-291.25"/>
<image xlink:href="../../images/primaryKeys.png" width="11px" height="12px" preserveAspectRatio="xMinYMin meet" x="774.75" y="-308.246"/>
<text text-anchor="start" x="802.62" y="-297.8" font-family="Helvetica,sans-Serif" font-size="11.00">identifier</text>
<polygon fill="#ffffff" stroke="none" points="769.75,-269.25 769.75,-291.25 974.5,-291.25 974.5,-269.25 769.75,-269.25"/>
<polygon fill="none" stroke="black" points="769.75,-269.25 769.75,-291.25 974.5,-291.25 974.5,-269.25 769.75,-269.25"/>
<image xlink:href="../../images/foreignKeys.png" width="11px" height="12px" preserveAspectRatio="xMinYMin meet" x="774.75" y="-286.246"/>
<text text-anchor="start" x="802.62" y="-275.8" font-family="Helvetica,sans-Serif" font-size="11.00">check_type</text>
<polygon fill="#ffffff" stroke="none" points="769.75,-247.25 769.75,-269.25 974.5,-269.25 974.5,-247.25 769.75,-247.25"/>
<polygon fill="none" stroke="black" points="769.75,-247.25 769.75,-269.25 974.5,-269.25 974.5,-247.25 769.75,-247.25"/>
<image xlink:href="../../images/foreignKeys.png" width="11px" height="12px" preserveAspectRatio="xMinYMin meet" x="774.75" y="-264.246"/>
<text text-anchor="start" x="802.62" y="-253.8" font-family="Helvetica,sans-Serif" font-size="11.00">digital_document</text>
<polygon fill="#ffffff" stroke="none" points="769.75,-225.25 769.75,-247.25 974.5,-247.25 974.5,-225.25 769.75,-225.25"/>
<polygon fill="none" stroke="black" points="769.75,-225.25 769.75,-247.25 974.5,-247.25 974.5,-225.25 769.75,-225.25"/>
<image xlink:href="../../images/foreignKeys.png" width="11px" height="12px" preserveAspectRatio="xMinYMin meet" x="774.75" y="-242.246"/>
<text text-anchor="start" x="802.62" y="-231.8" font-family="Helvetica,sans-Serif" font-size="11.00">doc_unit</text>
<polygon fill="#ffffff" stroke="none" points="769.75,-203.25 769.75,-225.25 974.5,-225.25 974.5,-203.25 769.75,-203.25"/>
<polygon fill="none" stroke="black" points="769.75,-203.25 769.75,-225.25 974.5,-225.25 974.5,-203.25 769.75,-203.25"/>
<image xlink:href="../../images/foreignKeys.png" width="11px" height="12px" preserveAspectRatio="xMinYMin meet" x="774.75" y="-220.246"/>
<text text-anchor="start" x="802.62" y="-209.8" font-family="Helvetica,sans-Serif" font-size="11.00">page</text>
<polygon fill="#ffffff" stroke="none" points="769.75,-181.25 769.75,-203.25 974.5,-203.25 974.5,-181.25 769.75,-181.25"/>
<polygon fill="none" stroke="black" points="769.75,-181.25 769.75,-203.25 974.5,-203.25 974.5,-181.25 769.75,-181.25"/>
<image xlink:href="../../images/foreignKeys.png" width="11px" height="12px" preserveAspectRatio="xMinYMin meet" x="774.75" y="-198.246"/>
<text text-anchor="start" x="802.62" y="-187.8" font-family="Helvetica,sans-Serif" font-size="11.00">delivery</text>
<polygon fill="#ffffff" stroke="none" points="769.75,-159.25 769.75,-181.25 974.5,-181.25 974.5,-159.25 769.75,-159.25"/>
<polygon fill="none" stroke="black" points="769.75,-159.25 769.75,-181.25 974.5,-181.25 974.5,-159.25 769.75,-159.25"/>
<image xlink:href="../../images/foreignKeys.png" width="11px" height="12px" preserveAspectRatio="xMinYMin meet" x="774.75" y="-176.246"/>
<text text-anchor="start" x="802.62" y="-165.8" font-family="Helvetica,sans-Serif" font-size="11.00">physical_document</text>
<polygon fill="none" stroke="black" points="769.75,-139.75 769.75,-159.25 974.5,-159.25 974.5,-139.75 769.75,-139.75"/>
<text text-anchor="start" x="772.75" y="-145.8" font-family="Helvetica,sans-Serif" font-size="11.00">...</text>
<polygon fill="#ffffff" stroke="none" points="769.75,-120.25 769.75,-139.75 846,-139.75 846,-120.25 769.75,-120.25"/>
<polygon fill="none" stroke="black" points="769.75,-120.25 769.75,-139.75 846,-139.75 846,-120.25 769.75,-120.25"/>
<text text-anchor="start" x="772.75" y="-126.3" font-family="Helvetica,sans-Serif" font-size="11.00">&lt; 6</text>
<polygon fill="#ffffff" stroke="none" points="846,-120.25 846,-139.75 910.25,-139.75 910.25,-120.25 846,-120.25"/>
<polygon fill="none" stroke="black" points="846,-120.25 846,-139.75 910.25,-139.75 910.25,-120.25 846,-120.25"/>
<text text-anchor="start" x="899.75" y="-126.3" font-family="Helvetica,sans-Serif" font-size="11.00"> &#160;</text>
<polygon fill="#ffffff" stroke="none" points="910.25,-120.25 910.25,-139.75 974.5,-139.75 974.5,-120.25 910.25,-120.25"/>
<polygon fill="none" stroke="black" points="910.25,-120.25 910.25,-139.75 974.5,-139.75 974.5,-120.25 910.25,-120.25"/>
<text text-anchor="start" x="964" y="-126.3" font-family="Helvetica,sans-Serif" font-size="11.00"> &#160;</text>
</a>
</g>
</g>
<!-- check_automatic_type -->
<g id="node2" class="node">
<title>check_automatic_type</title>
<g id="a_node2"><a xlink:href="../../tables/check_automatic_type.html" xlink:title="check_automatic_type" target="_top">
<polygon fill="#ffffff" stroke="none" points="413.5,-305 413.5,-594 709.75,-594 709.75,-305 413.5,-305"/>
<polygon fill="#f5f5f5" stroke="none" points="415.5,-568.5 415.5,-592 707.75,-592 707.75,-568.5 415.5,-568.5"/>
<polygon fill="none" stroke="black" points="415.5,-568.5 415.5,-592 707.75,-592 707.75,-568.5 415.5,-568.5"/>
<text text-anchor="start" x="420.5" y="-577.55" font-family="Helvetica,sans-Serif" font-weight="bold" font-size="11.00">check_automatic_type</text>
<text text-anchor="start" x="666" y="-576.55" font-family="Helvetica,sans-Serif" font-size="11.00">[table]</text>
<polygon fill="none" stroke="black" points="415.5,-546.5 415.5,-568.5 585.5,-568.5 585.5,-546.5 415.5,-546.5"/>
<image xlink:href="../../images/primaryKeys.png" width="11px" height="12px" preserveAspectRatio="xMinYMin meet" x="420.5" y="-563.496"/>
<text text-anchor="start" x="435.5" y="-553.05" font-family="Helvetica,sans-Serif" font-size="11.00">identifier</text>
<polygon fill="none" stroke="black" points="585.5,-546.5 585.5,-568.5 690.5,-568.5 690.5,-546.5 585.5,-546.5"/>
<text text-anchor="start" x="588.5" y="-553.8" font-family="Helvetica,sans-Serif" font-size="11.00">varchar[191]</text>
<polygon fill="none" stroke="black" points="415.5,-524.5 415.5,-546.5 585.5,-546.5 585.5,-524.5 415.5,-524.5"/>
<text text-anchor="start" x="435.5" y="-531.05" font-family="Helvetica,sans-Serif" font-size="11.00">label</text>
<polygon fill="none" stroke="black" points="585.5,-524.5 585.5,-546.5 690.5,-546.5 690.5,-524.5 585.5,-524.5"/>
<text text-anchor="start" x="588.5" y="-531.8" font-family="Helvetica,sans-Serif" font-size="11.00">varchar[255]</text>
<polygon fill="none" stroke="black" points="415.5,-502.5 415.5,-524.5 585.5,-524.5 585.5,-502.5 415.5,-502.5"/>
<text text-anchor="start" x="435.5" y="-509.05" font-family="Helvetica,sans-Serif" font-size="11.00">type</text>
<polygon fill="none" stroke="black" points="585.5,-502.5 585.5,-524.5 690.5,-524.5 690.5,-502.5 585.5,-502.5"/>
<text text-anchor="start" x="588.5" y="-509.8" font-family="Helvetica,sans-Serif" font-size="11.00">varchar[255]</text>
<polygon fill="none" stroke="black" points="415.5,-480.5 415.5,-502.5 585.5,-502.5 585.5,-480.5 415.5,-480.5"/>
<text text-anchor="start" x="435.5" y="-487.05" font-family="Helvetica,sans-Serif" font-size="11.00">active</text>
<polygon fill="none" stroke="black" points="585.5,-480.5 585.5,-502.5 690.5,-502.5 690.5,-480.5 585.5,-480.5"/>
<text text-anchor="start" x="588.5" y="-487.8" font-family="Helvetica,sans-Serif" font-size="11.00">bit[1]</text>
<polygon fill="none" stroke="black" points="415.5,-458.5 415.5,-480.5 585.5,-480.5 585.5,-458.5 415.5,-458.5"/>
<text text-anchor="start" x="435.5" y="-465.05" font-family="Helvetica,sans-Serif" font-size="11.00">version</text>
<polygon fill="none" stroke="black" points="585.5,-458.5 585.5,-480.5 690.5,-480.5 690.5,-458.5 585.5,-458.5"/>
<text text-anchor="start" x="588.5" y="-465.8" font-family="Helvetica,sans-Serif" font-size="11.00">bigint[19]</text>
<polygon fill="none" stroke="black" points="415.5,-436.5 415.5,-458.5 585.5,-458.5 585.5,-436.5 415.5,-436.5"/>
<text text-anchor="start" x="435.5" y="-443.05" font-family="Helvetica,sans-Serif" font-size="11.00">created_by</text>
<polygon fill="none" stroke="black" points="585.5,-436.5 585.5,-458.5 690.5,-458.5 690.5,-436.5 585.5,-436.5"/>
<text text-anchor="start" x="588.5" y="-443.8" font-family="Helvetica,sans-Serif" font-size="11.00">varchar[191]</text>
<polygon fill="none" stroke="black" points="415.5,-414.5 415.5,-436.5 585.5,-436.5 585.5,-414.5 415.5,-414.5"/>
<text text-anchor="start" x="435.5" y="-421.05" font-family="Helvetica,sans-Serif" font-size="11.00">last_modified_by</text>
<polygon fill="none" stroke="black" points="585.5,-414.5 585.5,-436.5 690.5,-436.5 690.5,-414.5 585.5,-414.5"/>
<text text-anchor="start" x="588.5" y="-421.8" font-family="Helvetica,sans-Serif" font-size="11.00">varchar[191]</text>
<polygon fill="none" stroke="black" points="415.5,-392.5 415.5,-414.5 585.5,-414.5 585.5,-392.5 415.5,-392.5"/>
<text text-anchor="start" x="435.5" y="-399.05" font-family="Helvetica,sans-Serif" font-size="11.00">created_date</text>
<polygon fill="none" stroke="black" points="585.5,-392.5 585.5,-414.5 690.5,-414.5 690.5,-392.5 585.5,-392.5"/>
<text text-anchor="start" x="588.5" y="-399.8" font-family="Helvetica,sans-Serif" font-size="11.00">timestamp[19]</text>
<polygon fill="none" stroke="black" points="415.5,-370.5 415.5,-392.5 585.5,-392.5 585.5,-370.5 415.5,-370.5"/>
<text text-anchor="start" x="435.5" y="-377.05" font-family="Helvetica,sans-Serif" font-size="11.00">last_modified_date</text>
<polygon fill="none" stroke="black" points="585.5,-370.5 585.5,-392.5 690.5,-392.5 690.5,-370.5 585.5,-370.5"/>
<text text-anchor="start" x="588.5" y="-377.8" font-family="Helvetica,sans-Serif" font-size="11.00">timestamp[19]</text>
<polygon fill="none" stroke="black" points="415.5,-348.5 415.5,-370.5 585.5,-370.5 585.5,-348.5 415.5,-348.5"/>
<text text-anchor="start" x="435.5" y="-355.05" font-family="Helvetica,sans-Serif" font-size="11.00">configurable</text>
<polygon fill="none" stroke="black" points="585.5,-348.5 585.5,-370.5 690.5,-370.5 690.5,-348.5 585.5,-348.5"/>
<text text-anchor="start" x="588.5" y="-355.8" font-family="Helvetica,sans-Serif" font-size="11.00">bit[1]</text>
<polygon fill="none" stroke="black" points="415.5,-326.5 415.5,-348.5 585.5,-348.5 585.5,-326.5 415.5,-326.5"/>
<text text-anchor="start" x="435.5" y="-333.05" font-family="Helvetica,sans-Serif" font-size="11.00">order</text>
<polygon fill="none" stroke="black" points="585.5,-326.5 585.5,-348.5 690.5,-348.5 690.5,-326.5 585.5,-326.5"/>
<text text-anchor="start" x="588.5" y="-333.8" font-family="Helvetica,sans-Serif" font-size="11.00">int[10]</text>
<polygon fill="#ffffff" stroke="none" points="415.5,-307 415.5,-326.5 506.5,-326.5 506.5,-307 415.5,-307"/>
<polygon fill="none" stroke="black" points="415.5,-307 415.5,-326.5 506.5,-326.5 506.5,-307 415.5,-307"/>
<text text-anchor="start" x="418.5" y="-313.05" font-family="Helvetica,sans-Serif" font-size="11.00">&lt; 0</text>
<polygon fill="#ffffff" stroke="none" points="506.5,-307 506.5,-326.5 585.5,-326.5 585.5,-307 506.5,-307"/>
<polygon fill="none" stroke="black" points="506.5,-307 506.5,-326.5 585.5,-326.5 585.5,-307 506.5,-307"/>
<text text-anchor="start" x="575" y="-313.05" font-family="Helvetica,sans-Serif" font-size="11.00"> &#160;</text>
<polygon fill="#ffffff" stroke="none" points="585.5,-307 585.5,-326.5 690.5,-326.5 690.5,-307 585.5,-307"/>
<polygon fill="none" stroke="black" points="585.5,-307 585.5,-326.5 690.5,-326.5 690.5,-307 585.5,-307"/>
<text text-anchor="start" x="668" y="-313.05" font-family="Helvetica,sans-Serif" font-size="11.00">2 &gt;</text>
<polygon fill="none" stroke="black" stroke-width="2" points="414.5,-306 414.5,-593 708.75,-593 708.75,-306 414.5,-306"/>
</a>
</g>
</g>
<!-- check_automatic_result&#45;&gt;check_automatic_type -->
<g id="edge1" class="edge">
<title>check_automatic_result:w&#45;&gt;check_automatic_type:e</title>
<path fill="none" stroke="black" d="M753.01,-281.94C656.58,-305.11 813.54,-557.5 691.5,-557.5"/>
<polygon fill="black" stroke="black" points="760.46,-281.14 768.8,-283.86 764.77,-280.68 768.08,-280.32 768.08,-280.32 768.08,-280.32 764.77,-280.68 768.03,-276.7 760.46,-281.14"/>
<ellipse fill="none" stroke="black" cx="755.57" cy="-281.67" rx="3.2" ry="3.2"/>
</g>
<!-- del_delivery -->
<g id="node3" class="node">
<title>del_delivery</title>
<g id="a_node3"><a xlink:href="../../tables/del_delivery.html" xlink:title="del_delivery" target="_top">
<polygon fill="#ffffff" stroke="none" points="497.75,-83.25 497.75,-145.75 625.5,-145.75 625.5,-83.25 497.75,-83.25"/>
<polygon fill="#f5f5f5" stroke="none" points="497.75,-122.25 497.75,-145.75 625.5,-145.75 625.5,-122.25 497.75,-122.25"/>
<polygon fill="none" stroke="black" points="497.75,-122.25 497.75,-145.75 625.5,-145.75 625.5,-122.25 497.75,-122.25"/>
<text text-anchor="start" x="502.75" y="-131.3" font-family="Helvetica,sans-Serif" font-weight="bold" font-size="11.00">del_delivery</text>
<text text-anchor="start" x="583.75" y="-130.3" font-family="Helvetica,sans-Serif" font-size="11.00">[table]</text>
<polygon fill="none" stroke="black" points="497.75,-102.75 497.75,-122.25 625.5,-122.25 625.5,-102.75 497.75,-102.75"/>
<text text-anchor="start" x="500.75" y="-108.8" font-family="Helvetica,sans-Serif" font-size="11.00">...</text>
<polygon fill="#ffffff" stroke="none" points="497.75,-83.25 497.75,-102.75 544.33,-102.75 544.33,-83.25 497.75,-83.25"/>
<polygon fill="none" stroke="black" points="497.75,-83.25 497.75,-102.75 544.33,-102.75 544.33,-83.25 497.75,-83.25"/>
<text text-anchor="start" x="500.75" y="-89.3" font-family="Helvetica,sans-Serif" font-size="11.00">&lt; 2</text>
<polygon fill="#ffffff" stroke="none" points="544.33,-83.25 544.33,-102.75 578.92,-102.75 578.92,-83.25 544.33,-83.25"/>
<polygon fill="none" stroke="black" points="544.33,-83.25 544.33,-102.75 578.92,-102.75 578.92,-83.25 544.33,-83.25"/>
<text text-anchor="start" x="568.42" y="-89.3" font-family="Helvetica,sans-Serif" font-size="11.00"> &#160;</text>
<polygon fill="#ffffff" stroke="none" points="578.92,-83.25 578.92,-102.75 625.5,-102.75 625.5,-83.25 578.92,-83.25"/>
<polygon fill="none" stroke="black" points="578.92,-83.25 578.92,-102.75 625.5,-102.75 625.5,-83.25 578.92,-83.25"/>
<text text-anchor="start" x="603" y="-89.3" font-family="Helvetica,sans-Serif" font-size="11.00">4 &gt;</text>
</a>
</g>
</g>
<!-- check_automatic_result&#45;&gt;del_delivery -->
<g id="edge2" class="edge">
<title>check_automatic_result:w&#45;&gt;del_delivery:e</title>
<path fill="none" stroke="black" d="M753.26,-189.04C739.99,-182.48 736.03,-167.22 717.75,-156.5 678.91,-133.72 671.52,-112.5 626.5,-112.5"/>
<polygon fill="black" stroke="black" points="760.59,-190.56 767.69,-195.7 764.83,-191.44 768.09,-192.11 768.09,-192.11 768.09,-192.11 764.83,-191.44 769.15,-188.65 760.59,-190.56"/>
<ellipse fill="none" stroke="black" cx="755.77" cy="-189.56" rx="3.2" ry="3.2"/>
</g>
<!-- doc_digital_document -->
<g id="node4" class="node">
<title>doc_digital_document</title>
<g id="a_node4"><a xlink:href="../../tables/doc_digital_document.html" xlink:title="doc_digital_document" target="_top">
<polygon fill="#ffffff" stroke="none" points="165.75,-167.25 165.75,-229.75 358.5,-229.75 358.5,-167.25 165.75,-167.25"/>
<polygon fill="#f5f5f5" stroke="none" points="165.75,-206.25 165.75,-229.75 358.5,-229.75 358.5,-206.25 165.75,-206.25"/>
<polygon fill="none" stroke="black" points="165.75,-206.25 165.75,-229.75 358.5,-229.75 358.5,-206.25 165.75,-206.25"/>
<text text-anchor="start" x="170.75" y="-215.3" font-family="Helvetica,sans-Serif" font-weight="bold" font-size="11.00">doc_digital_document</text>
<text text-anchor="start" x="316.75" y="-214.3" font-family="Helvetica,sans-Serif" font-size="11.00">[table]</text>
<polygon fill="none" stroke="black" points="165.75,-186.75 165.75,-206.25 358.5,-206.25 358.5,-186.75 165.75,-186.75"/>
<text text-anchor="start" x="168.75" y="-192.8" font-family="Helvetica,sans-Serif" font-size="11.00">...</text>
<polygon fill="#ffffff" stroke="none" points="165.75,-167.25 165.75,-186.75 234,-186.75 234,-167.25 165.75,-167.25"/>
<polygon fill="none" stroke="black" points="165.75,-167.25 165.75,-186.75 234,-186.75 234,-167.25 165.75,-167.25"/>
<text text-anchor="start" x="168.75" y="-173.3" font-family="Helvetica,sans-Serif" font-size="11.00">&lt; 1</text>
<polygon fill="#ffffff" stroke="none" points="234,-167.25 234,-186.75 290.25,-186.75 290.25,-167.25 234,-167.25"/>
<polygon fill="none" stroke="black" points="234,-167.25 234,-186.75 290.25,-186.75 290.25,-167.25 234,-167.25"/>
<text text-anchor="start" x="279.75" y="-173.3" font-family="Helvetica,sans-Serif" font-size="11.00"> &#160;</text>
<polygon fill="#ffffff" stroke="none" points="290.25,-167.25 290.25,-186.75 358.5,-186.75 358.5,-167.25 290.25,-167.25"/>
<polygon fill="none" stroke="black" points="290.25,-167.25 290.25,-186.75 358.5,-186.75 358.5,-167.25 290.25,-167.25"/>
<text text-anchor="start" x="336" y="-173.3" font-family="Helvetica,sans-Serif" font-size="11.00">6 &gt;</text>
</a>
</g>
</g>
<!-- check_automatic_result&#45;&gt;doc_digital_document -->
<g id="edge3" class="edge">
<title>check_automatic_result:w&#45;&gt;doc_digital_document:e</title>
<path fill="none" stroke="black" d="M753,-258.39C603.48,-261.19 549.07,-302.21 405.5,-240.5 379.51,-229.32 387.79,-196.5 359.5,-196.5"/>
<polygon fill="black" stroke="black" points="760.42,-258.32 768.45,-261.85 764.75,-258.28 768.08,-258.25 768.08,-258.25 768.08,-258.25 764.75,-258.28 768.38,-254.65 760.42,-258.32"/>
<ellipse fill="none" stroke="black" cx="755.5" cy="-258.37" rx="3.2" ry="3.2"/>
</g>
<!-- doc_unit -->
<g id="node5" class="node">
<title>doc_unit</title>
<g id="a_node5"><a xlink:href="../../tables/doc_unit.html" xlink:title="doc_unit" target="_top">
<polygon fill="#ffffff" stroke="none" points="8,-167.25 8,-229.75 110.75,-229.75 110.75,-167.25 8,-167.25"/>
<polygon fill="#f5f5f5" stroke="none" points="8,-206.25 8,-229.75 110.75,-229.75 110.75,-206.25 8,-206.25"/>
<polygon fill="none" stroke="black" points="8,-206.25 8,-229.75 110.75,-229.75 110.75,-206.25 8,-206.25"/>
<text text-anchor="start" x="13" y="-215.3" font-family="Helvetica,sans-Serif" font-weight="bold" font-size="11.00">doc_unit</text>
<text text-anchor="start" x="69" y="-214.3" font-family="Helvetica,sans-Serif" font-size="11.00">[table]</text>
<polygon fill="none" stroke="black" points="8,-186.75 8,-206.25 110.75,-206.25 110.75,-186.75 8,-186.75"/>
<text text-anchor="start" x="11" y="-192.8" font-family="Helvetica,sans-Serif" font-size="11.00">...</text>
<polygon fill="#ffffff" stroke="none" points="8,-167.25 8,-186.75 48.5,-186.75 48.5,-167.25 8,-167.25"/>
<polygon fill="none" stroke="black" points="8,-167.25 8,-186.75 48.5,-186.75 48.5,-167.25 8,-167.25"/>
<text text-anchor="start" x="11" y="-173.3" font-family="Helvetica,sans-Serif" font-size="11.00">&lt; 13</text>
<polygon fill="#ffffff" stroke="none" points="48.5,-167.25 48.5,-186.75 70.25,-186.75 70.25,-167.25 48.5,-167.25"/>
<polygon fill="none" stroke="black" points="48.5,-167.25 48.5,-186.75 70.25,-186.75 70.25,-167.25 48.5,-167.25"/>
<text text-anchor="start" x="59.75" y="-173.3" font-family="Helvetica,sans-Serif" font-size="11.00"> &#160;</text>
<polygon fill="#ffffff" stroke="none" points="70.25,-167.25 70.25,-186.75 110.75,-186.75 110.75,-167.25 70.25,-167.25"/>
<polygon fill="none" stroke="black" points="70.25,-167.25 70.25,-186.75 110.75,-186.75 110.75,-167.25 70.25,-167.25"/>
<text text-anchor="start" x="81.5" y="-173.3" font-family="Helvetica,sans-Serif" font-size="11.00">11 &gt;</text>
</a>
</g>
</g>
<!-- check_automatic_result&#45;&gt;doc_unit -->
<g id="edge4" class="edge">
<title>check_automatic_result:w&#45;&gt;doc_unit:e</title>
<path fill="none" stroke="black" d="M753.25,-236.87C741.7,-237.88 734.26,-239.81 717.75,-240.5 466.41,-250.95 381.8,-342.26 151.75,-240.5 127.58,-229.8 138.18,-196.5 111.75,-196.5"/>
<polygon fill="black" stroke="black" points="760.42,-236.58 768.56,-239.86 764.75,-236.41 768.08,-236.27 768.08,-236.27 768.08,-236.27 764.75,-236.41 768.27,-232.66 760.42,-236.58"/>
<ellipse fill="none" stroke="black" cx="755.51" cy="-236.78" rx="3.2" ry="3.2"/>
</g>
<!-- doc_page -->
<g id="node6" class="node">
<title>doc_page</title>
<g id="a_node6"><a xlink:href="../../tables/doc_page.html" xlink:title="doc_page" target="_top">
<polygon fill="#ffffff" stroke="none" points="506.75,-167.25 506.75,-229.75 616.5,-229.75 616.5,-167.25 506.75,-167.25"/>
<polygon fill="#f5f5f5" stroke="none" points="506.75,-206.25 506.75,-229.75 616.5,-229.75 616.5,-206.25 506.75,-206.25"/>
<polygon fill="none" stroke="black" points="506.75,-206.25 506.75,-229.75 616.5,-229.75 616.5,-206.25 506.75,-206.25"/>
<text text-anchor="start" x="511.75" y="-215.3" font-family="Helvetica,sans-Serif" font-weight="bold" font-size="11.00">doc_page</text>
<text text-anchor="start" x="574.75" y="-214.3" font-family="Helvetica,sans-Serif" font-size="11.00">[table]</text>
<polygon fill="none" stroke="black" points="506.75,-186.75 506.75,-206.25 616.5,-206.25 616.5,-186.75 506.75,-186.75"/>
<text text-anchor="start" x="509.75" y="-192.8" font-family="Helvetica,sans-Serif" font-size="11.00">...</text>
<polygon fill="#ffffff" stroke="none" points="506.75,-167.25 506.75,-186.75 547.33,-186.75 547.33,-167.25 506.75,-167.25"/>
<polygon fill="none" stroke="black" points="506.75,-167.25 506.75,-186.75 547.33,-186.75 547.33,-167.25 506.75,-167.25"/>
<text text-anchor="start" x="509.75" y="-173.3" font-family="Helvetica,sans-Serif" font-size="11.00">&lt; 2</text>
<polygon fill="#ffffff" stroke="none" points="547.33,-167.25 547.33,-186.75 575.92,-186.75 575.92,-167.25 547.33,-167.25"/>
<polygon fill="none" stroke="black" points="547.33,-167.25 547.33,-186.75 575.92,-186.75 575.92,-167.25 547.33,-167.25"/>
<text text-anchor="start" x="565.42" y="-173.3" font-family="Helvetica,sans-Serif" font-size="11.00"> &#160;</text>
<polygon fill="#ffffff" stroke="none" points="575.92,-167.25 575.92,-186.75 616.5,-186.75 616.5,-167.25 575.92,-167.25"/>
<polygon fill="none" stroke="black" points="575.92,-167.25 575.92,-186.75 616.5,-186.75 616.5,-167.25 575.92,-167.25"/>
<text text-anchor="start" x="594" y="-173.3" font-family="Helvetica,sans-Serif" font-size="11.00">3 &gt;</text>
</a>
</g>
</g>
<!-- check_automatic_result&#45;&gt;doc_page -->
<g id="edge5" class="edge">
<title>check_automatic_result:w&#45;&gt;doc_page:e</title>
<path fill="none" stroke="black" d="M753.08,-213.91C698.11,-211.45 679.63,-196.5 617.5,-196.5"/>
<polygon fill="black" stroke="black" points="760.42,-214.07 768.34,-217.84 764.75,-214.16 768.08,-214.23 768.08,-214.23 768.08,-214.23 764.75,-214.16 768.49,-210.64 760.42,-214.07"/>
<ellipse fill="none" stroke="black" cx="755.5" cy="-213.96" rx="3.2" ry="3.2"/>
</g>
<!-- doc_physical_document -->
<g id="node7" class="node">
<title>doc_physical_document</title>
<g id="a_node7"><a xlink:href="../../tables/doc_physical_document.html" xlink:title="doc_physical_document" target="_top">
<polygon fill="#ffffff" stroke="none" points="159.75,-57.25 159.75,-119.75 364.5,-119.75 364.5,-57.25 159.75,-57.25"/>
<polygon fill="#f5f5f5" stroke="none" points="159.75,-96.25 159.75,-119.75 364.5,-119.75 364.5,-96.25 159.75,-96.25"/>
<polygon fill="none" stroke="black" points="159.75,-96.25 159.75,-119.75 364.5,-119.75 364.5,-96.25 159.75,-96.25"/>
<text text-anchor="start" x="164.75" y="-105.3" font-family="Helvetica,sans-Serif" font-weight="bold" font-size="11.00">doc_physical_document</text>
<text text-anchor="start" x="322.75" y="-104.3" font-family="Helvetica,sans-Serif" font-size="11.00">[table]</text>
<polygon fill="none" stroke="black" points="159.75,-76.75 159.75,-96.25 364.5,-96.25 364.5,-76.75 159.75,-76.75"/>
<text text-anchor="start" x="162.75" y="-82.8" font-family="Helvetica,sans-Serif" font-size="11.00">...</text>
<polygon fill="#ffffff" stroke="none" points="159.75,-57.25 159.75,-76.75 232,-76.75 232,-57.25 159.75,-57.25"/>
<polygon fill="none" stroke="black" points="159.75,-57.25 159.75,-76.75 232,-76.75 232,-57.25 159.75,-57.25"/>
<text text-anchor="start" x="162.75" y="-63.3" font-family="Helvetica,sans-Serif" font-size="11.00">&lt; 2</text>
<polygon fill="#ffffff" stroke="none" points="232,-57.25 232,-76.75 292.25,-76.75 292.25,-57.25 232,-57.25"/>
<polygon fill="none" stroke="black" points="232,-57.25 232,-76.75 292.25,-76.75 292.25,-57.25 232,-57.25"/>
<text text-anchor="start" x="281.75" y="-63.3" font-family="Helvetica,sans-Serif" font-size="11.00"> &#160;</text>
<polygon fill="#ffffff" stroke="none" points="292.25,-57.25 292.25,-76.75 364.5,-76.75 364.5,-57.25 292.25,-57.25"/>
<polygon fill="none" stroke="black" points="292.25,-57.25 292.25,-76.75 364.5,-76.75 364.5,-57.25 292.25,-57.25"/>
<text text-anchor="start" x="342" y="-63.3" font-family="Helvetica,sans-Serif" font-size="11.00">2 &gt;</text>
</a>
</g>
</g>
<!-- check_automatic_result&#45;&gt;doc_physical_document -->
<g id="edge6" class="edge">
<title>check_automatic_result:w&#45;&gt;doc_physical_document:e</title>
<path fill="none" stroke="black" d="M753.53,-166.7C728.9,-151.86 754.09,-94.52 717.75,-72.5 599.07,-0.56 542.32,-49.24 405.5,-72.5 386.93,-75.65 384.34,-86.5 365.5,-86.5"/>
<polygon fill="black" stroke="black" points="760.63,-168.35 767.61,-173.68 764.85,-169.34 768.1,-170.09 768.1,-170.09 768.1,-170.09 764.85,-169.34 769.24,-166.66 760.63,-168.35"/>
<ellipse fill="none" stroke="black" cx="755.84" cy="-167.24" rx="3.2" ry="3.2"/>
</g>
<!-- doc_digital_document&#45;&gt;doc_unit -->
<g id="edge9" class="edge">
<title>doc_digital_document:w&#45;&gt;doc_unit:e</title>
<path fill="none" stroke="black" d="M149.06,-196.5C136.82,-196.5 129.05,-196.5 111.75,-196.5"/>
<polygon fill="black" stroke="black" points="156.42,-196.5 164.42,-200.1 160.75,-196.5 164.08,-196.5 164.08,-196.5 164.08,-196.5 160.75,-196.5 164.42,-192.9 156.42,-196.5"/>
<ellipse fill="none" stroke="black" cx="151.5" cy="-196.5" rx="3.2" ry="3.2"/>
</g>
<!-- doc_page&#45;&gt;doc_digital_document -->
<g id="edge10" class="edge">
<title>doc_page:w&#45;&gt;doc_digital_document:e</title>
<path fill="none" stroke="black" d="M490.01,-196.5C437.6,-196.5 418.91,-196.5 359.5,-196.5"/>
<polygon fill="black" stroke="black" points="497.42,-196.5 505.42,-200.1 501.75,-196.5 505.08,-196.5 505.08,-196.5 505.08,-196.5 501.75,-196.5 505.42,-192.9 497.42,-196.5"/>
<ellipse fill="none" stroke="black" cx="492.5" cy="-196.5" rx="3.2" ry="3.2"/>
</g>
<!-- doc_physical_document&#45;&gt;doc_unit -->
<g id="edge11" class="edge">
<title>doc_physical_document:w&#45;&gt;doc_unit:e</title>
<path fill="none" stroke="black" d="M143.65,-91.22C118.66,-112.28 158.27,-196.5 111.75,-196.5"/>
<polygon fill="black" stroke="black" points="150.8,-88.99 159.51,-90.03 154.93,-87.69 158.11,-86.7 158.11,-86.7 158.11,-86.7 154.93,-87.69 157.36,-83.16 150.8,-88.99"/>
<ellipse fill="none" stroke="black" cx="146.1" cy="-90.45" rx="3.2" ry="3.2"/>
</g>
<!-- conf_automatic_check_rule -->
<g id="node8" class="node">
<title>conf_automatic_check_rule</title>
<g id="a_node8"><a xlink:href="../../tables/conf_automatic_check_rule.html" xlink:title="conf_automatic_check_rule" target="_top">
<polygon fill="#ffffff" stroke="none" points="758.75,-540.25 758.75,-668.75 985.5,-668.75 985.5,-540.25 758.75,-540.25"/>
<polygon fill="#f5f5f5" stroke="none" points="758.75,-645.25 758.75,-668.75 985.5,-668.75 985.5,-645.25 758.75,-645.25"/>
<polygon fill="none" stroke="black" points="758.75,-645.25 758.75,-668.75 985.5,-668.75 985.5,-645.25 758.75,-645.25"/>
<text text-anchor="start" x="763.75" y="-654.3" font-family="Helvetica,sans-Serif" font-weight="bold" font-size="11.00">conf_automatic_check_rule</text>
<text text-anchor="start" x="943.75" y="-653.3" font-family="Helvetica,sans-Serif" font-size="11.00">[table]</text>
<polygon fill="none" stroke="black" points="758.75,-623.25 758.75,-645.25 985.5,-645.25 985.5,-623.25 758.75,-623.25"/>
<image xlink:href="../../images/primaryKeys.png" width="11px" height="12px" preserveAspectRatio="xMinYMin meet" x="763.75" y="-640.246"/>
<text text-anchor="start" x="791.62" y="-629.8" font-family="Helvetica,sans-Serif" font-size="11.00">identifier</text>
<polygon fill="#ffffff" stroke="none" points="758.75,-601.25 758.75,-623.25 985.5,-623.25 985.5,-601.25 758.75,-601.25"/>
<polygon fill="none" stroke="black" points="758.75,-601.25 758.75,-623.25 985.5,-623.25 985.5,-601.25 758.75,-601.25"/>
<image xlink:href="../../images/foreignKeys.png" width="11px" height="12px" preserveAspectRatio="xMinYMin meet" x="763.75" y="-618.246"/>
<text text-anchor="start" x="791.62" y="-607.8" font-family="Helvetica,sans-Serif" font-size="11.00">check_configuration</text>
<polygon fill="#ffffff" stroke="none" points="758.75,-579.25 758.75,-601.25 985.5,-601.25 985.5,-579.25 758.75,-579.25"/>
<polygon fill="none" stroke="black" points="758.75,-579.25 758.75,-601.25 985.5,-601.25 985.5,-579.25 758.75,-579.25"/>
<image xlink:href="../../images/foreignKeys.png" width="11px" height="12px" preserveAspectRatio="xMinYMin meet" x="763.75" y="-596.246"/>
<text text-anchor="start" x="791.62" y="-585.8" font-family="Helvetica,sans-Serif" font-size="11.00">check_type</text>
<polygon fill="none" stroke="black" points="758.75,-559.75 758.75,-579.25 985.5,-579.25 985.5,-559.75 758.75,-559.75"/>
<text text-anchor="start" x="761.75" y="-565.8" font-family="Helvetica,sans-Serif" font-size="11.00">...</text>
<polygon fill="#ffffff" stroke="none" points="758.75,-540.25 758.75,-559.75 842.33,-559.75 842.33,-540.25 758.75,-540.25"/>
<polygon fill="none" stroke="black" points="758.75,-540.25 758.75,-559.75 842.33,-559.75 842.33,-540.25 758.75,-540.25"/>
<text text-anchor="start" x="761.75" y="-546.3" font-family="Helvetica,sans-Serif" font-size="11.00">&lt; 2</text>
<polygon fill="#ffffff" stroke="none" points="842.33,-540.25 842.33,-559.75 913.92,-559.75 913.92,-540.25 842.33,-540.25"/>
<polygon fill="none" stroke="black" points="842.33,-540.25 842.33,-559.75 913.92,-559.75 913.92,-540.25 842.33,-540.25"/>
<text text-anchor="start" x="903.42" y="-546.3" font-family="Helvetica,sans-Serif" font-size="11.00"> &#160;</text>
<polygon fill="#ffffff" stroke="none" points="913.92,-540.25 913.92,-559.75 985.5,-559.75 985.5,-540.25 913.92,-540.25"/>
<polygon fill="none" stroke="black" points="913.92,-540.25 913.92,-559.75 985.5,-559.75 985.5,-540.25 913.92,-540.25"/>
<text text-anchor="start" x="975" y="-546.3" font-family="Helvetica,sans-Serif" font-size="11.00"> &#160;</text>
</a>
</g>
</g>
<!-- conf_automatic_check_rule&#45;&gt;check_automatic_type -->
<g id="edge8" class="edge">
<title>conf_automatic_check_rule:w&#45;&gt;check_automatic_type:e</title>
<path fill="none" stroke="black" d="M742.25,-587.22C723.56,-579.12 718.19,-557.5 691.5,-557.5"/>
<polygon fill="black" stroke="black" points="749.57,-588.65 756.73,-593.72 753.82,-589.48 757.09,-590.12 757.09,-590.12 757.09,-590.12 753.82,-589.48 758.11,-586.65 749.57,-588.65"/>
<ellipse fill="none" stroke="black" cx="744.74" cy="-587.71" rx="3.2" ry="3.2"/>
</g>
<!-- conf_configuration_check -->
<g id="node9" class="node">
<title>conf_configuration_check</title>
<g id="a_node9"><a xlink:href="../../tables/conf_configuration_check.html" xlink:title="conf_configuration_check" target="_top">
<polygon fill="#ffffff" stroke="none" points="452.75,-615.25 452.75,-677.75 670.5,-677.75 670.5,-615.25 452.75,-615.25"/>
<polygon fill="#f5f5f5" stroke="none" points="452.75,-654.25 452.75,-677.75 670.5,-677.75 670.5,-654.25 452.75,-654.25"/>
<polygon fill="none" stroke="black" points="452.75,-654.25 452.75,-677.75 670.5,-677.75 670.5,-654.25 452.75,-654.25"/>
<text text-anchor="start" x="457.75" y="-663.3" font-family="Helvetica,sans-Serif" font-weight="bold" font-size="11.00">conf_configuration_check</text>
<text text-anchor="start" x="628.75" y="-662.3" font-family="Helvetica,sans-Serif" font-size="11.00">[table]</text>
<polygon fill="none" stroke="black" points="452.75,-634.75 452.75,-654.25 670.5,-654.25 670.5,-634.75 452.75,-634.75"/>
<text text-anchor="start" x="455.75" y="-640.8" font-family="Helvetica,sans-Serif" font-size="11.00">...</text>
<polygon fill="#ffffff" stroke="none" points="452.75,-615.25 452.75,-634.75 529.33,-634.75 529.33,-615.25 452.75,-615.25"/>
<polygon fill="none" stroke="black" points="452.75,-615.25 452.75,-634.75 529.33,-634.75 529.33,-615.25 452.75,-615.25"/>
<text text-anchor="start" x="455.75" y="-621.3" font-family="Helvetica,sans-Serif" font-size="11.00">&lt; 1</text>
<polygon fill="#ffffff" stroke="none" points="529.33,-615.25 529.33,-634.75 593.92,-634.75 593.92,-615.25 529.33,-615.25"/>
<polygon fill="none" stroke="black" points="529.33,-615.25 529.33,-634.75 593.92,-634.75 593.92,-615.25 529.33,-615.25"/>
<text text-anchor="start" x="583.42" y="-621.3" font-family="Helvetica,sans-Serif" font-size="11.00"> &#160;</text>
<polygon fill="#ffffff" stroke="none" points="593.92,-615.25 593.92,-634.75 670.5,-634.75 670.5,-615.25 593.92,-615.25"/>
<polygon fill="none" stroke="black" points="593.92,-615.25 593.92,-634.75 670.5,-634.75 670.5,-615.25 593.92,-615.25"/>
<text text-anchor="start" x="648" y="-621.3" font-family="Helvetica,sans-Serif" font-size="11.00">4 &gt;</text>
</a>
</g>
</g>
<!-- conf_automatic_check_rule&#45;&gt;conf_configuration_check -->
<g id="edge7" class="edge">
<title>conf_automatic_check_rule:w&#45;&gt;conf_configuration_check:e</title>
<path fill="none" stroke="black" d="M742.07,-614.07C714.79,-620.89 706.51,-644.5 671.5,-644.5"/>
<polygon fill="black" stroke="black" points="749.47,-613.21 757.83,-615.86 753.78,-612.71 757.09,-612.32 757.09,-612.32 757.09,-612.32 753.78,-612.71 757,-608.71 749.47,-613.21"/>
<ellipse fill="none" stroke="black" cx="744.59" cy="-613.78" rx="3.2" ry="3.2"/>
</g>
</g>
</svg>
