<?xml version="1.0" encoding="UTF-8" standalone="no"?>
<!DOCTYPE svg PUBLIC "-//W3C//DTD SVG 1.1//EN"
 "http://www.w3.org/Graphics/SVG/1.1/DTD/svg11.dtd">
<!-- Generated by graphviz version 12.2.0 (0)
 -->
<!-- Title: oneDegreeRelationshipsDiagram Pages: 1 -->
<svg width="298pt" height="362pt"
 viewBox="0.00 0.00 297.75 361.50" xmlns="http://www.w3.org/2000/svg" xmlns:xlink="http://www.w3.org/1999/xlink">
<g id="graph0" class="graph" transform="scale(1 1) rotate(0) translate(4 357.5)">
<title>oneDegreeRelationshipsDiagram</title>
<polygon fill="#ffffff" stroke="none" points="-4,4 -4,-357.5 293.75,-357.5 293.75,4 -4,4"/>
<text text-anchor="middle" x="79.25" y="-7.05" font-family="Helvetica,sans-Serif" font-size="11.00">Generated by SchemaSpy</text>
<!-- com_language_code -->
<g id="node1" class="node">
<title>com_language_code</title>
<g id="a_node1"><a xlink:href="../../tables/com_language_code.html" xlink:title="com_language_code" target="_top">
<polygon fill="#ffffff" stroke="none" points="8,-38.5 8,-349.5 281.75,-349.5 281.75,-38.5 8,-38.5"/>
<polygon fill="#f5f5f5" stroke="none" points="10,-324 10,-347.5 279.75,-347.5 279.75,-324 10,-324"/>
<polygon fill="none" stroke="black" points="10,-324 10,-347.5 279.75,-347.5 279.75,-324 10,-324"/>
<text text-anchor="start" x="15" y="-333.05" font-family="Helvetica,sans-Serif" font-weight="bold" font-size="11.00">com_language_code</text>
<text text-anchor="start" x="238" y="-332.05" font-family="Helvetica,sans-Serif" font-size="11.00">[table]</text>
<polygon fill="none" stroke="black" points="10,-302 10,-324 165,-324 165,-302 10,-302"/>
<image xlink:href="../../images/primaryKeys.png" width="11px" height="12px" preserveAspectRatio="xMinYMin meet" x="15" y="-319"/>
<text text-anchor="start" x="30" y="-308.55" font-family="Helvetica,sans-Serif" font-size="11.00">identifier</text>
<polygon fill="none" stroke="black" points="165,-302 165,-324 266.25,-324 266.25,-302 165,-302"/>
<text text-anchor="start" x="168" y="-309.3" font-family="Helvetica,sans-Serif" font-size="11.00">varchar[191]</text>
<polygon fill="none" stroke="black" points="10,-280 10,-302 165,-302 165,-280 10,-280"/>
<text text-anchor="start" x="30" y="-286.55" font-family="Helvetica,sans-Serif" font-size="11.00">name</text>
<polygon fill="none" stroke="black" points="165,-280 165,-302 266.25,-302 266.25,-280 165,-280"/>
<text text-anchor="start" x="168" y="-287.3" font-family="Helvetica,sans-Serif" font-size="11.00">varchar[255]</text>
<polygon fill="none" stroke="black" points="10,-258 10,-280 165,-280 165,-258 10,-258"/>
<text text-anchor="start" x="30" y="-264.55" font-family="Helvetica,sans-Serif" font-size="11.00">all_names_french</text>
<polygon fill="none" stroke="black" points="165,-258 165,-280 266.25,-280 266.25,-258 165,-258"/>
<text text-anchor="start" x="168" y="-265.3" font-family="Helvetica,sans-Serif" font-size="11.00">varchar[500]</text>
<polygon fill="none" stroke="black" points="10,-236 10,-258 165,-258 165,-236 10,-236"/>
<text text-anchor="start" x="30" y="-242.55" font-family="Helvetica,sans-Serif" font-size="11.00">all_names_english</text>
<polygon fill="none" stroke="black" points="165,-236 165,-258 266.25,-258 266.25,-236 165,-236"/>
<text text-anchor="start" x="168" y="-243.3" font-family="Helvetica,sans-Serif" font-size="11.00">varchar[500]</text>
<polygon fill="none" stroke="black" points="10,-214 10,-236 165,-236 165,-214 10,-214"/>
<text text-anchor="start" x="30" y="-220.55" font-family="Helvetica,sans-Serif" font-size="11.00">iso_639_2_t</text>
<polygon fill="none" stroke="black" points="165,-214 165,-236 266.25,-236 266.25,-214 165,-214"/>
<text text-anchor="start" x="168" y="-221.3" font-family="Helvetica,sans-Serif" font-size="11.00">varchar[3]</text>
<polygon fill="none" stroke="black" points="10,-192 10,-214 165,-214 165,-192 10,-192"/>
<text text-anchor="start" x="30" y="-198.55" font-family="Helvetica,sans-Serif" font-size="11.00">iso_639_2_b</text>
<polygon fill="none" stroke="black" points="165,-192 165,-214 266.25,-214 266.25,-192 165,-192"/>
<text text-anchor="start" x="168" y="-199.3" font-family="Helvetica,sans-Serif" font-size="11.00">varchar[3]</text>
<polygon fill="none" stroke="black" points="10,-170 10,-192 165,-192 165,-170 10,-170"/>
<text text-anchor="start" x="30" y="-176.55" font-family="Helvetica,sans-Serif" font-size="11.00">iso_639_1</text>
<polygon fill="none" stroke="black" points="165,-170 165,-192 266.25,-192 266.25,-170 165,-170"/>
<text text-anchor="start" x="168" y="-177.3" font-family="Helvetica,sans-Serif" font-size="11.00">varchar[2]</text>
<polygon fill="none" stroke="black" points="10,-148 10,-170 165,-170 165,-148 10,-148"/>
<text text-anchor="start" x="30" y="-154.55" font-family="Helvetica,sans-Serif" font-size="11.00">version</text>
<polygon fill="none" stroke="black" points="165,-148 165,-170 266.25,-170 266.25,-148 165,-148"/>
<text text-anchor="start" x="168" y="-155.3" font-family="Helvetica,sans-Serif" font-size="11.00">bigint[19]</text>
<polygon fill="none" stroke="black" points="10,-126 10,-148 165,-148 165,-126 10,-126"/>
<text text-anchor="start" x="30" y="-132.55" font-family="Helvetica,sans-Serif" font-size="11.00">created_by</text>
<polygon fill="none" stroke="black" points="165,-126 165,-148 266.25,-148 266.25,-126 165,-126"/>
<text text-anchor="start" x="168" y="-133.3" font-family="Helvetica,sans-Serif" font-size="11.00">varchar[191]</text>
<polygon fill="none" stroke="black" points="10,-104 10,-126 165,-126 165,-104 10,-104"/>
<text text-anchor="start" x="30" y="-110.55" font-family="Helvetica,sans-Serif" font-size="11.00">last_modified_by</text>
<polygon fill="none" stroke="black" points="165,-104 165,-126 266.25,-126 266.25,-104 165,-104"/>
<text text-anchor="start" x="168" y="-111.3" font-family="Helvetica,sans-Serif" font-size="11.00">varchar[191]</text>
<polygon fill="none" stroke="black" points="10,-82 10,-104 165,-104 165,-82 10,-82"/>
<text text-anchor="start" x="30" y="-88.55" font-family="Helvetica,sans-Serif" font-size="11.00">created_date</text>
<polygon fill="none" stroke="black" points="165,-82 165,-104 266.25,-104 266.25,-82 165,-82"/>
<text text-anchor="start" x="168" y="-89.3" font-family="Helvetica,sans-Serif" font-size="11.00">timestamp[19]</text>
<polygon fill="none" stroke="black" points="10,-60 10,-82 165,-82 165,-60 10,-60"/>
<text text-anchor="start" x="30" y="-66.55" font-family="Helvetica,sans-Serif" font-size="11.00">last_modified_date</text>
<polygon fill="none" stroke="black" points="165,-60 165,-82 266.25,-82 266.25,-60 165,-60"/>
<text text-anchor="start" x="168" y="-67.3" font-family="Helvetica,sans-Serif" font-size="11.00">timestamp[19]</text>
<polygon fill="#ffffff" stroke="none" points="10,-40.5 10,-60 93.5,-60 93.5,-40.5 10,-40.5"/>
<polygon fill="none" stroke="black" points="10,-40.5 10,-60 93.5,-60 93.5,-40.5 10,-40.5"/>
<text text-anchor="start" x="13" y="-46.55" font-family="Helvetica,sans-Serif" font-size="11.00">&lt; 0</text>
<polygon fill="#ffffff" stroke="none" points="93.5,-40.5 93.5,-60 165,-60 165,-40.5 93.5,-40.5"/>
<polygon fill="none" stroke="black" points="93.5,-40.5 93.5,-60 165,-60 165,-40.5 93.5,-40.5"/>
<text text-anchor="start" x="154.5" y="-46.55" font-family="Helvetica,sans-Serif" font-size="11.00"> &#160;</text>
<polygon fill="#ffffff" stroke="none" points="165,-40.5 165,-60 266.25,-60 266.25,-40.5 165,-40.5"/>
<polygon fill="none" stroke="black" points="165,-40.5 165,-60 266.25,-60 266.25,-40.5 165,-40.5"/>
<text text-anchor="start" x="243.75" y="-46.55" font-family="Helvetica,sans-Serif" font-size="11.00">0 &gt;</text>
<polygon fill="none" stroke="black" stroke-width="2" points="9,-39.5 9,-348.5 280.75,-348.5 280.75,-39.5 9,-39.5"/>
</a>
</g>
</g>
</g>
</svg>
