<?xml version="1.0" encoding="UTF-8" standalone="no"?>
<!DOCTYPE svg PUBLIC "-//W3C//DTD SVG 1.1//EN"
 "http://www.w3.org/Graphics/SVG/1.1/DTD/svg11.dtd">
<!-- Generated by graphviz version 12.2.0 (0)
 -->
<!-- Title: twoDegreesRelationshipsDiagram Pages: 1 -->
<svg width="936pt" height="519pt"
 viewBox="0.00 0.00 935.81 519.47" xmlns="http://www.w3.org/2000/svg" xmlns:xlink="http://www.w3.org/1999/xlink">
<g id="graph0" class="graph" transform="scale(1 1) rotate(0) translate(4 515.47)">
<title>twoDegreesRelationshipsDiagram</title>
<polygon fill="#ffffff" stroke="none" points="-4,4 -4,-515.47 931.81,-515.47 931.81,4 -4,4"/>
<text text-anchor="middle" x="79.25" y="-7.05" font-family="Helvetica,sans-Serif" font-size="11.00">Generated by SchemaSpy</text>
<!-- check_automatic_result -->
<g id="node1" class="node">
<title>check_automatic_result</title>
<g id="a_node1"><a xlink:href="../../tables/check_automatic_result.html" xlink:title="check_automatic_result" target="_top">
<polygon fill="#ffffff" stroke="none" points="508.31,-444.97 508.31,-507.47 713.06,-507.47 713.06,-444.97 508.31,-444.97"/>
<polygon fill="#f5f5f5" stroke="none" points="508.31,-483.97 508.31,-507.47 713.06,-507.47 713.06,-483.97 508.31,-483.97"/>
<polygon fill="none" stroke="black" points="508.31,-483.97 508.31,-507.47 713.06,-507.47 713.06,-483.97 508.31,-483.97"/>
<text text-anchor="start" x="513.31" y="-493.02" font-family="Helvetica,sans-Serif" font-weight="bold" font-size="11.00">check_automatic_result</text>
<text text-anchor="start" x="671.31" y="-492.02" font-family="Helvetica,sans-Serif" font-size="11.00">[table]</text>
<polygon fill="none" stroke="black" points="508.31,-464.47 508.31,-483.97 713.06,-483.97 713.06,-464.47 508.31,-464.47"/>
<text text-anchor="start" x="511.31" y="-470.52" font-family="Helvetica,sans-Serif" font-size="11.00">...</text>
<polygon fill="#ffffff" stroke="none" points="508.31,-444.97 508.31,-464.47 584.56,-464.47 584.56,-444.97 508.31,-444.97"/>
<polygon fill="none" stroke="black" points="508.31,-444.97 508.31,-464.47 584.56,-464.47 584.56,-444.97 508.31,-444.97"/>
<text text-anchor="start" x="511.31" y="-451.02" font-family="Helvetica,sans-Serif" font-size="11.00">&lt; 6</text>
<polygon fill="#ffffff" stroke="none" points="584.56,-444.97 584.56,-464.47 648.81,-464.47 648.81,-444.97 584.56,-444.97"/>
<polygon fill="none" stroke="black" points="584.56,-444.97 584.56,-464.47 648.81,-464.47 648.81,-444.97 584.56,-444.97"/>
<text text-anchor="start" x="638.31" y="-451.02" font-family="Helvetica,sans-Serif" font-size="11.00"> &#160;</text>
<polygon fill="#ffffff" stroke="none" points="648.81,-444.97 648.81,-464.47 713.06,-464.47 713.06,-444.97 648.81,-444.97"/>
<polygon fill="none" stroke="black" points="648.81,-444.97 648.81,-464.47 713.06,-464.47 713.06,-444.97 648.81,-444.97"/>
<text text-anchor="start" x="702.56" y="-451.02" font-family="Helvetica,sans-Serif" font-size="11.00"> &#160;</text>
</a>
</g>
</g>
<!-- check_automatic_type -->
<g id="node2" class="node">
<title>check_automatic_type</title>
<g id="a_node2"><a xlink:href="../../tables/check_automatic_type.html" xlink:title="check_automatic_type" target="_top">
<polygon fill="#ffffff" stroke="none" points="183.56,-336.97 183.56,-421.47 379.31,-421.47 379.31,-336.97 183.56,-336.97"/>
<polygon fill="#f5f5f5" stroke="none" points="183.56,-397.97 183.56,-421.47 379.31,-421.47 379.31,-397.97 183.56,-397.97"/>
<polygon fill="none" stroke="black" points="183.56,-397.97 183.56,-421.47 379.31,-421.47 379.31,-397.97 183.56,-397.97"/>
<text text-anchor="start" x="188.56" y="-407.02" font-family="Helvetica,sans-Serif" font-weight="bold" font-size="11.00">check_automatic_type</text>
<text text-anchor="start" x="337.56" y="-406.02" font-family="Helvetica,sans-Serif" font-size="11.00">[table]</text>
<polygon fill="none" stroke="black" points="183.56,-375.97 183.56,-397.97 379.31,-397.97 379.31,-375.97 183.56,-375.97"/>
<image xlink:href="../../images/primaryKeys.png" width="11px" height="12px" preserveAspectRatio="xMinYMin meet" x="188.562" y="-392.973"/>
<text text-anchor="start" x="216.44" y="-382.52" font-family="Helvetica,sans-Serif" font-size="11.00">identifier</text>
<polygon fill="none" stroke="black" points="183.56,-356.47 183.56,-375.97 379.31,-375.97 379.31,-356.47 183.56,-356.47"/>
<text text-anchor="start" x="186.56" y="-362.52" font-family="Helvetica,sans-Serif" font-size="11.00">...</text>
<polygon fill="#ffffff" stroke="none" points="183.56,-336.97 183.56,-356.47 244.81,-356.47 244.81,-336.97 183.56,-336.97"/>
<polygon fill="none" stroke="black" points="183.56,-336.97 183.56,-356.47 244.81,-356.47 244.81,-336.97 183.56,-336.97"/>
<text text-anchor="start" x="186.56" y="-343.02" font-family="Helvetica,sans-Serif" font-size="11.00"> &#160;</text>
<polygon fill="#ffffff" stroke="none" points="244.81,-336.97 244.81,-356.47 306.06,-356.47 306.06,-336.97 244.81,-336.97"/>
<polygon fill="none" stroke="black" points="244.81,-336.97 244.81,-356.47 306.06,-356.47 306.06,-336.97 244.81,-336.97"/>
<text text-anchor="start" x="295.56" y="-343.02" font-family="Helvetica,sans-Serif" font-size="11.00"> &#160;</text>
<polygon fill="#ffffff" stroke="none" points="306.06,-336.97 306.06,-356.47 379.31,-356.47 379.31,-336.97 306.06,-336.97"/>
<polygon fill="none" stroke="black" points="306.06,-336.97 306.06,-356.47 379.31,-356.47 379.31,-336.97 306.06,-336.97"/>
<text text-anchor="start" x="356.81" y="-343.02" font-family="Helvetica,sans-Serif" font-size="11.00">2 &gt;</text>
</a>
</g>
</g>
<!-- check_automatic_result&#45;&gt;check_automatic_type -->
<g id="edge1" class="edge">
<title>check_automatic_result:w&#45;&gt;check_automatic_type:e</title>
<path fill="none" stroke="black" d="M491.86,-473.02C466.54,-468.66 457.72,-452.91 431.31,-434.22 406.09,-416.37 411.21,-386.97 380.31,-386.97"/>
<polygon fill="black" stroke="black" points="499,-473.58 506.7,-477.79 503.32,-473.91 506.64,-474.17 506.64,-474.17 506.64,-474.17 503.32,-473.91 507.26,-470.61 499,-473.58"/>
<ellipse fill="none" stroke="black" cx="494.1" cy="-473.2" rx="3.2" ry="3.2"/>
</g>
<!-- conf_automatic_check_rule -->
<g id="node3" class="node">
<title>conf_automatic_check_rule</title>
<g id="a_node3"><a xlink:href="../../tables/conf_automatic_check_rule.html" xlink:title="conf_automatic_check_rule" target="_top">
<polygon fill="#ffffff" stroke="none" points="439.31,-156.72 439.31,-423.72 782.06,-423.72 782.06,-156.72 439.31,-156.72"/>
<polygon fill="#f5f5f5" stroke="none" points="441.31,-398.22 441.31,-421.72 780.06,-421.72 780.06,-398.22 441.31,-398.22"/>
<polygon fill="none" stroke="black" points="441.31,-398.22 441.31,-421.72 780.06,-421.72 780.06,-398.22 441.31,-398.22"/>
<text text-anchor="start" x="446.31" y="-407.27" font-family="Helvetica,sans-Serif" font-weight="bold" font-size="11.00">conf_automatic_check_rule</text>
<text text-anchor="start" x="738.31" y="-406.27" font-family="Helvetica,sans-Serif" font-size="11.00">[table]</text>
<polygon fill="none" stroke="black" points="441.31,-376.22 441.31,-398.22 642.31,-398.22 642.31,-376.22 441.31,-376.22"/>
<image xlink:href="../../images/primaryKeys.png" width="11px" height="12px" preserveAspectRatio="xMinYMin meet" x="446.312" y="-393.223"/>
<text text-anchor="start" x="461.31" y="-382.77" font-family="Helvetica,sans-Serif" font-size="11.00">identifier</text>
<polygon fill="none" stroke="black" points="642.31,-376.22 642.31,-398.22 755.06,-398.22 755.06,-376.22 642.31,-376.22"/>
<text text-anchor="start" x="645.31" y="-383.52" font-family="Helvetica,sans-Serif" font-size="11.00">varchar[191]</text>
<polygon fill="none" stroke="black" points="441.31,-354.22 441.31,-376.22 642.31,-376.22 642.31,-354.22 441.31,-354.22"/>
<text text-anchor="start" x="461.31" y="-360.77" font-family="Helvetica,sans-Serif" font-size="11.00">active</text>
<polygon fill="none" stroke="black" points="642.31,-354.22 642.31,-376.22 755.06,-376.22 755.06,-354.22 642.31,-354.22"/>
<text text-anchor="start" x="645.31" y="-361.52" font-family="Helvetica,sans-Serif" font-size="11.00">bit[1]</text>
<polygon fill="none" stroke="black" points="441.31,-332.22 441.31,-354.22 642.31,-354.22 642.31,-332.22 441.31,-332.22"/>
<text text-anchor="start" x="461.31" y="-338.77" font-family="Helvetica,sans-Serif" font-size="11.00">blocking</text>
<polygon fill="none" stroke="black" points="642.31,-332.22 642.31,-354.22 755.06,-354.22 755.06,-332.22 642.31,-332.22"/>
<text text-anchor="start" x="645.31" y="-339.52" font-family="Helvetica,sans-Serif" font-size="11.00">bit[1]</text>
<polygon fill="#ffffff" stroke="none" points="441.31,-310.22 441.31,-332.22 642.31,-332.22 642.31,-310.22 441.31,-310.22"/>
<polygon fill="none" stroke="black" points="441.31,-310.22 441.31,-332.22 642.31,-332.22 642.31,-310.22 441.31,-310.22"/>
<image xlink:href="../../images/foreignKeys.png" width="11px" height="12px" preserveAspectRatio="xMinYMin meet" x="446.312" y="-327.223"/>
<text text-anchor="start" x="461.31" y="-316.77" font-family="Helvetica,sans-Serif" font-size="11.00">check_configuration</text>
<polygon fill="none" stroke="black" points="642.31,-310.22 642.31,-332.22 755.06,-332.22 755.06,-310.22 642.31,-310.22"/>
<text text-anchor="start" x="645.31" y="-317.52" font-family="Helvetica,sans-Serif" font-size="11.00">varchar[191]</text>
<polygon fill="#ffffff" stroke="none" points="441.31,-288.22 441.31,-310.22 642.31,-310.22 642.31,-288.22 441.31,-288.22"/>
<polygon fill="none" stroke="black" points="441.31,-288.22 441.31,-310.22 642.31,-310.22 642.31,-288.22 441.31,-288.22"/>
<image xlink:href="../../images/foreignKeys.png" width="11px" height="12px" preserveAspectRatio="xMinYMin meet" x="446.312" y="-305.223"/>
<text text-anchor="start" x="461.31" y="-294.77" font-family="Helvetica,sans-Serif" font-size="11.00">check_type</text>
<polygon fill="none" stroke="black" points="642.31,-288.22 642.31,-310.22 755.06,-310.22 755.06,-288.22 642.31,-288.22"/>
<text text-anchor="start" x="645.31" y="-295.52" font-family="Helvetica,sans-Serif" font-size="11.00">varchar[191]</text>
<polygon fill="none" stroke="black" points="441.31,-266.22 441.31,-288.22 642.31,-288.22 642.31,-266.22 441.31,-266.22"/>
<text text-anchor="start" x="461.31" y="-272.77" font-family="Helvetica,sans-Serif" font-size="11.00">version</text>
<polygon fill="none" stroke="black" points="642.31,-266.22 642.31,-288.22 755.06,-288.22 755.06,-266.22 642.31,-266.22"/>
<text text-anchor="start" x="645.31" y="-273.52" font-family="Helvetica,sans-Serif" font-size="11.00">bigint[19]</text>
<polygon fill="none" stroke="black" points="441.31,-244.22 441.31,-266.22 642.31,-266.22 642.31,-244.22 441.31,-244.22"/>
<text text-anchor="start" x="461.31" y="-250.77" font-family="Helvetica,sans-Serif" font-size="11.00">created_by</text>
<polygon fill="none" stroke="black" points="642.31,-244.22 642.31,-266.22 755.06,-266.22 755.06,-244.22 642.31,-244.22"/>
<text text-anchor="start" x="645.31" y="-251.52" font-family="Helvetica,sans-Serif" font-size="11.00">varchar[191]</text>
<polygon fill="none" stroke="black" points="441.31,-222.22 441.31,-244.22 642.31,-244.22 642.31,-222.22 441.31,-222.22"/>
<text text-anchor="start" x="461.31" y="-228.77" font-family="Helvetica,sans-Serif" font-size="11.00">last_modified_by</text>
<polygon fill="none" stroke="black" points="642.31,-222.22 642.31,-244.22 755.06,-244.22 755.06,-222.22 642.31,-222.22"/>
<text text-anchor="start" x="645.31" y="-229.52" font-family="Helvetica,sans-Serif" font-size="11.00">varchar[191]</text>
<polygon fill="none" stroke="black" points="441.31,-200.22 441.31,-222.22 642.31,-222.22 642.31,-200.22 441.31,-200.22"/>
<text text-anchor="start" x="461.31" y="-206.77" font-family="Helvetica,sans-Serif" font-size="11.00">created_date</text>
<polygon fill="none" stroke="black" points="642.31,-200.22 642.31,-222.22 755.06,-222.22 755.06,-200.22 642.31,-200.22"/>
<text text-anchor="start" x="645.31" y="-207.52" font-family="Helvetica,sans-Serif" font-size="11.00">timestamp[19]</text>
<polygon fill="none" stroke="black" points="441.31,-178.22 441.31,-200.22 642.31,-200.22 642.31,-178.22 441.31,-178.22"/>
<text text-anchor="start" x="461.31" y="-184.77" font-family="Helvetica,sans-Serif" font-size="11.00">last_modified_date</text>
<polygon fill="none" stroke="black" points="642.31,-178.22 642.31,-200.22 755.06,-200.22 755.06,-178.22 642.31,-178.22"/>
<text text-anchor="start" x="645.31" y="-185.52" font-family="Helvetica,sans-Serif" font-size="11.00">timestamp[19]</text>
<polygon fill="#ffffff" stroke="none" points="441.31,-158.72 441.31,-178.22 547.81,-178.22 547.81,-158.72 441.31,-158.72"/>
<polygon fill="none" stroke="black" points="441.31,-158.72 441.31,-178.22 547.81,-178.22 547.81,-158.72 441.31,-158.72"/>
<text text-anchor="start" x="444.31" y="-164.77" font-family="Helvetica,sans-Serif" font-size="11.00">&lt; 2</text>
<polygon fill="#ffffff" stroke="none" points="547.81,-158.72 547.81,-178.22 642.31,-178.22 642.31,-158.72 547.81,-158.72"/>
<polygon fill="none" stroke="black" points="547.81,-158.72 547.81,-178.22 642.31,-178.22 642.31,-158.72 547.81,-158.72"/>
<text text-anchor="start" x="631.81" y="-164.77" font-family="Helvetica,sans-Serif" font-size="11.00"> &#160;</text>
<polygon fill="#ffffff" stroke="none" points="642.31,-158.72 642.31,-178.22 755.06,-178.22 755.06,-158.72 642.31,-158.72"/>
<polygon fill="none" stroke="black" points="642.31,-158.72 642.31,-178.22 755.06,-178.22 755.06,-158.72 642.31,-158.72"/>
<text text-anchor="start" x="732.56" y="-164.77" font-family="Helvetica,sans-Serif" font-size="11.00">0 &gt;</text>
<polygon fill="none" stroke="black" stroke-width="2" points="440.31,-157.72 440.31,-422.72 781.06,-422.72 781.06,-157.72 440.31,-157.72"/>
</a>
</g>
</g>
<!-- conf_automatic_check_rule&#45;&gt;check_automatic_type -->
<g id="edge3" class="edge">
<title>conf_automatic_check_rule:w&#45;&gt;check_automatic_type:e</title>
<path fill="none" stroke="black" d="M425.43,-303.45C400.79,-320.98 421.28,-386.97 380.31,-386.97"/>
<polygon fill="black" stroke="black" points="432.3,-301.5 440.97,-302.78 436.46,-300.32 439.67,-299.41 439.67,-299.41 439.67,-299.41 436.46,-300.32 439.01,-295.85 432.3,-301.5"/>
<ellipse fill="none" stroke="black" cx="427.56" cy="-302.85" rx="3.2" ry="3.2"/>
</g>
<!-- conf_configuration_check -->
<g id="node4" class="node">
<title>conf_configuration_check</title>
<g id="a_node4"><a xlink:href="../../tables/conf_configuration_check.html" xlink:title="conf_configuration_check" target="_top">
<polygon fill="#ffffff" stroke="none" points="172.56,-79.97 172.56,-186.47 390.31,-186.47 390.31,-79.97 172.56,-79.97"/>
<polygon fill="#f5f5f5" stroke="none" points="172.56,-162.97 172.56,-186.47 390.31,-186.47 390.31,-162.97 172.56,-162.97"/>
<polygon fill="none" stroke="black" points="172.56,-162.97 172.56,-186.47 390.31,-186.47 390.31,-162.97 172.56,-162.97"/>
<text text-anchor="start" x="177.56" y="-172.02" font-family="Helvetica,sans-Serif" font-weight="bold" font-size="11.00">conf_configuration_check</text>
<text text-anchor="start" x="348.56" y="-171.02" font-family="Helvetica,sans-Serif" font-size="11.00">[table]</text>
<polygon fill="none" stroke="black" points="172.56,-140.97 172.56,-162.97 390.31,-162.97 390.31,-140.97 172.56,-140.97"/>
<image xlink:href="../../images/primaryKeys.png" width="11px" height="12px" preserveAspectRatio="xMinYMin meet" x="177.562" y="-157.973"/>
<text text-anchor="start" x="205.44" y="-147.52" font-family="Helvetica,sans-Serif" font-size="11.00">identifier</text>
<polygon fill="#ffffff" stroke="none" points="172.56,-118.97 172.56,-140.97 390.31,-140.97 390.31,-118.97 172.56,-118.97"/>
<polygon fill="none" stroke="black" points="172.56,-118.97 172.56,-140.97 390.31,-140.97 390.31,-118.97 172.56,-118.97"/>
<image xlink:href="../../images/foreignKeys.png" width="11px" height="12px" preserveAspectRatio="xMinYMin meet" x="177.562" y="-135.973"/>
<text text-anchor="start" x="205.44" y="-125.52" font-family="Helvetica,sans-Serif" font-size="11.00">library</text>
<polygon fill="none" stroke="black" points="172.56,-99.47 172.56,-118.97 390.31,-118.97 390.31,-99.47 172.56,-99.47"/>
<text text-anchor="start" x="175.56" y="-105.52" font-family="Helvetica,sans-Serif" font-size="11.00">...</text>
<polygon fill="#ffffff" stroke="none" points="172.56,-79.97 172.56,-99.47 249.14,-99.47 249.14,-79.97 172.56,-79.97"/>
<polygon fill="none" stroke="black" points="172.56,-79.97 172.56,-99.47 249.14,-99.47 249.14,-79.97 172.56,-79.97"/>
<text text-anchor="start" x="175.56" y="-86.02" font-family="Helvetica,sans-Serif" font-size="11.00">&lt; 1</text>
<polygon fill="#ffffff" stroke="none" points="249.14,-79.97 249.14,-99.47 313.73,-99.47 313.73,-79.97 249.14,-79.97"/>
<polygon fill="none" stroke="black" points="249.14,-79.97 249.14,-99.47 313.73,-99.47 313.73,-79.97 249.14,-79.97"/>
<text text-anchor="start" x="303.23" y="-86.02" font-family="Helvetica,sans-Serif" font-size="11.00"> &#160;</text>
<polygon fill="#ffffff" stroke="none" points="313.73,-79.97 313.73,-99.47 390.31,-99.47 390.31,-79.97 313.73,-79.97"/>
<polygon fill="none" stroke="black" points="313.73,-79.97 313.73,-99.47 390.31,-99.47 390.31,-79.97 313.73,-79.97"/>
<text text-anchor="start" x="367.81" y="-86.02" font-family="Helvetica,sans-Serif" font-size="11.00">4 &gt;</text>
</a>
</g>
</g>
<!-- conf_automatic_check_rule&#45;&gt;conf_configuration_check -->
<g id="edge2" class="edge">
<title>conf_automatic_check_rule:w&#45;&gt;conf_configuration_check:e</title>
<path fill="none" stroke="black" d="M424.88,-318.14C378.04,-295.2 463.35,-151.97 391.31,-151.97"/>
<polygon fill="black" stroke="black" points="432.14,-319.59 439.28,-324.69 436.39,-320.44 439.66,-321.09 439.66,-321.09 439.66,-321.09 436.39,-320.44 440.69,-317.63 432.14,-319.59"/>
<ellipse fill="none" stroke="black" cx="427.32" cy="-318.63" rx="3.2" ry="3.2"/>
</g>
<!-- lib_library -->
<g id="node5" class="node">
<title>lib_library</title>
<g id="a_node5"><a xlink:href="../../tables/lib_library.html" xlink:title="lib_library" target="_top">
<polygon fill="#ffffff" stroke="none" points="9.81,-100.97 9.81,-163.47 123.56,-163.47 123.56,-100.97 9.81,-100.97"/>
<polygon fill="#f5f5f5" stroke="none" points="9.81,-139.97 9.81,-163.47 123.56,-163.47 123.56,-139.97 9.81,-139.97"/>
<polygon fill="none" stroke="black" points="9.81,-139.97 9.81,-163.47 123.56,-163.47 123.56,-139.97 9.81,-139.97"/>
<text text-anchor="start" x="14.81" y="-149.02" font-family="Helvetica,sans-Serif" font-weight="bold" font-size="11.00">lib_library</text>
<text text-anchor="start" x="81.81" y="-148.02" font-family="Helvetica,sans-Serif" font-size="11.00">[table]</text>
<polygon fill="none" stroke="black" points="9.81,-120.47 9.81,-139.97 123.56,-139.97 123.56,-120.47 9.81,-120.47"/>
<text text-anchor="start" x="12.81" y="-126.52" font-family="Helvetica,sans-Serif" font-size="11.00">...</text>
<polygon fill="#ffffff" stroke="none" points="9.81,-100.97 9.81,-120.47 49.48,-120.47 49.48,-100.97 9.81,-100.97"/>
<polygon fill="none" stroke="black" points="9.81,-100.97 9.81,-120.47 49.48,-120.47 49.48,-100.97 9.81,-100.97"/>
<text text-anchor="start" x="12.81" y="-107.02" font-family="Helvetica,sans-Serif" font-size="11.00">&lt; 6</text>
<polygon fill="#ffffff" stroke="none" points="49.48,-100.97 49.48,-120.47 77.14,-120.47 77.14,-100.97 49.48,-100.97"/>
<polygon fill="none" stroke="black" points="49.48,-100.97 49.48,-120.47 77.14,-120.47 77.14,-100.97 49.48,-100.97"/>
<text text-anchor="start" x="66.64" y="-107.02" font-family="Helvetica,sans-Serif" font-size="11.00"> &#160;</text>
<polygon fill="#ffffff" stroke="none" points="77.14,-100.97 77.14,-120.47 123.56,-120.47 123.56,-100.97 77.14,-100.97"/>
<polygon fill="none" stroke="black" points="77.14,-100.97 77.14,-120.47 123.56,-120.47 123.56,-100.97 77.14,-100.97"/>
<text text-anchor="start" x="94.31" y="-107.02" font-family="Helvetica,sans-Serif" font-size="11.00">27 &gt;</text>
</a>
</g>
</g>
<!-- conf_configuration_check&#45;&gt;lib_library -->
<g id="edge4" class="edge">
<title>conf_configuration_check:w&#45;&gt;lib_library:e</title>
<path fill="none" stroke="black" d="M155.94,-130.03C146.04,-130.1 139.09,-130.22 124.56,-130.22"/>
<polygon fill="black" stroke="black" points="163.23,-130 171.24,-133.57 167.56,-129.99 170.89,-129.97 170.89,-129.97 170.89,-129.97 167.56,-129.99 171.21,-126.37 163.23,-130"/>
<ellipse fill="none" stroke="black" cx="158.31" cy="-130.02" rx="3.2" ry="3.2"/>
</g>
<!-- lib_library&#45;&gt;conf_configuration_check -->
<g id="edge5" class="edge">
<title>lib_library:w&#45;&gt;conf_configuration_check:e</title>
<path fill="none" stroke="black" d="M0.26,-116.92C-1.82,-87.7 31.13,-25.91 131.56,-96.97 167.54,-122.42 128.59,-165.02 164.56,-190.47 246.47,-248.42 318.45,-260.49 390.31,-190.47 402.57,-178.53 408.43,-151.97 391.31,-151.97"/>
<polygon fill="black" stroke="black" points="4.3,-123.21 5.6,-131.89 6.65,-126.86 8.45,-129.66 8.45,-129.66 8.45,-129.66 6.65,-126.86 11.66,-127.99 4.3,-123.21"/>
<ellipse fill="none" stroke="black" cx="1.64" cy="-119.08" rx="3.2" ry="3.2"/>
</g>
<!-- lot_lot -->
<g id="node6" class="node">
<title>lot_lot</title>
<g id="a_node6"><a xlink:href="../../tables/lot_lot.html" xlink:title="lot_lot" target="_top">
<polygon fill="#ffffff" stroke="none" points="831.06,-73.97 831.06,-136.47 919.81,-136.47 919.81,-73.97 831.06,-73.97"/>
<polygon fill="#f5f5f5" stroke="none" points="831.06,-112.97 831.06,-136.47 919.81,-136.47 919.81,-112.97 831.06,-112.97"/>
<polygon fill="none" stroke="black" points="831.06,-112.97 831.06,-136.47 919.81,-136.47 919.81,-112.97 831.06,-112.97"/>
<text text-anchor="start" x="835.94" y="-122.02" font-family="Helvetica,sans-Serif" font-weight="bold" font-size="11.00">lot_lot</text>
<text text-anchor="start" x="878.06" y="-121.02" font-family="Helvetica,sans-Serif" font-size="11.00">[table]</text>
<polygon fill="none" stroke="black" points="831.06,-93.47 831.06,-112.97 919.81,-112.97 919.81,-93.47 831.06,-93.47"/>
<text text-anchor="start" x="834.06" y="-99.52" font-family="Helvetica,sans-Serif" font-size="11.00">...</text>
<polygon fill="#ffffff" stroke="none" points="831.06,-73.97 831.06,-93.47 869.14,-93.47 869.14,-73.97 831.06,-73.97"/>
<polygon fill="none" stroke="black" points="831.06,-73.97 831.06,-93.47 869.14,-93.47 869.14,-73.97 831.06,-73.97"/>
<text text-anchor="start" x="834.06" y="-80.02" font-family="Helvetica,sans-Serif" font-size="11.00">&lt; 14</text>
<polygon fill="#ffffff" stroke="none" points="869.14,-73.97 869.14,-93.47 888.48,-93.47 888.48,-73.97 869.14,-73.97"/>
<polygon fill="none" stroke="black" points="869.14,-73.97 869.14,-93.47 888.48,-93.47 888.48,-73.97 869.14,-73.97"/>
<text text-anchor="start" x="877.98" y="-80.02" font-family="Helvetica,sans-Serif" font-size="11.00"> &#160;</text>
<polygon fill="#ffffff" stroke="none" points="888.48,-73.97 888.48,-93.47 919.81,-93.47 919.81,-73.97 888.48,-73.97"/>
<polygon fill="none" stroke="black" points="888.48,-73.97 888.48,-93.47 919.81,-93.47 919.81,-73.97 888.48,-73.97"/>
<text text-anchor="start" x="897.31" y="-80.02" font-family="Helvetica,sans-Serif" font-size="11.00">4 &gt;</text>
</a>
</g>
</g>
<!-- lot_lot&#45;&gt;conf_configuration_check -->
<g id="edge6" class="edge">
<title>lot_lot:w&#45;&gt;conf_configuration_check:e</title>
<path fill="none" stroke="black" d="M814.7,-106.73C807.33,-110.52 802.16,-116.42 790.06,-119.22 634.3,-155.33 590.26,-128.84 431.31,-146.22 413.46,-148.18 409.27,-151.97 391.31,-151.97"/>
<polygon fill="black" stroke="black" points="821.94,-105.08 830.54,-106.81 826.16,-104.11 829.41,-103.37 829.41,-103.37 829.41,-103.37 826.16,-104.11 828.94,-99.79 821.94,-105.08"/>
<ellipse fill="none" stroke="black" cx="817.14" cy="-106.17" rx="3.2" ry="3.2"/>
</g>
<!-- proj_project -->
<g id="node7" class="node">
<title>proj_project</title>
<g id="a_node7"><a xlink:href="../../tables/proj_project.html" xlink:title="proj_project" target="_top">
<polygon fill="#ffffff" stroke="none" points="547.31,-45.97 547.31,-108.47 674.06,-108.47 674.06,-45.97 547.31,-45.97"/>
<polygon fill="#f5f5f5" stroke="none" points="547.31,-84.97 547.31,-108.47 674.06,-108.47 674.06,-84.97 547.31,-84.97"/>
<polygon fill="none" stroke="black" points="547.31,-84.97 547.31,-108.47 674.06,-108.47 674.06,-84.97 547.31,-84.97"/>
<text text-anchor="start" x="552.31" y="-94.02" font-family="Helvetica,sans-Serif" font-weight="bold" font-size="11.00">proj_project</text>
<text text-anchor="start" x="632.31" y="-93.02" font-family="Helvetica,sans-Serif" font-size="11.00">[table]</text>
<polygon fill="none" stroke="black" points="547.31,-65.47 547.31,-84.97 674.06,-84.97 674.06,-65.47 547.31,-65.47"/>
<text text-anchor="start" x="550.31" y="-71.52" font-family="Helvetica,sans-Serif" font-size="11.00">...</text>
<polygon fill="#ffffff" stroke="none" points="547.31,-45.97 547.31,-65.47 598.06,-65.47 598.06,-45.97 547.31,-45.97"/>
<polygon fill="none" stroke="black" points="547.31,-45.97 547.31,-65.47 598.06,-65.47 598.06,-45.97 547.31,-45.97"/>
<text text-anchor="start" x="550.31" y="-52.02" font-family="Helvetica,sans-Serif" font-size="11.00">&lt; 13</text>
<polygon fill="#ffffff" stroke="none" points="598.06,-45.97 598.06,-65.47 630.06,-65.47 630.06,-45.97 598.06,-45.97"/>
<polygon fill="none" stroke="black" points="598.06,-45.97 598.06,-65.47 630.06,-65.47 630.06,-45.97 598.06,-45.97"/>
<text text-anchor="start" x="619.56" y="-52.02" font-family="Helvetica,sans-Serif" font-size="11.00"> &#160;</text>
<polygon fill="#ffffff" stroke="none" points="630.06,-45.97 630.06,-65.47 674.06,-65.47 674.06,-45.97 630.06,-45.97"/>
<polygon fill="none" stroke="black" points="630.06,-45.97 630.06,-65.47 674.06,-65.47 674.06,-45.97 630.06,-45.97"/>
<text text-anchor="start" x="651.56" y="-52.02" font-family="Helvetica,sans-Serif" font-size="11.00">7 &gt;</text>
</a>
</g>
</g>
<!-- lot_lot&#45;&gt;proj_project -->
<g id="edge7" class="edge">
<title>lot_lot:w&#45;&gt;proj_project:e</title>
<path fill="none" stroke="black" d="M814.25,-102.71C757.3,-98.92 739.46,-75.22 675.06,-75.22"/>
<polygon fill="black" stroke="black" points="821.73,-102.95 829.61,-106.81 826.06,-103.09 829.39,-103.2 829.39,-103.2 829.39,-103.2 826.06,-103.09 829.84,-99.61 821.73,-102.95"/>
<ellipse fill="none" stroke="black" cx="816.82" cy="-102.8" rx="3.2" ry="3.2"/>
</g>
<!-- proj_project&#45;&gt;conf_configuration_check -->
<g id="edge8" class="edge">
<title>proj_project:w&#45;&gt;conf_configuration_check:e</title>
<path fill="none" stroke="black" d="M530.75,-75.82C488.35,-79.33 474.52,-97.84 431.31,-122.22 412.02,-133.11 413.47,-151.97 391.31,-151.97"/>
<polygon fill="black" stroke="black" points="537.98,-75.54 546.12,-78.83 542.31,-75.38 545.64,-75.25 545.64,-75.25 545.64,-75.25 542.31,-75.38 545.84,-71.64 537.98,-75.54"/>
<ellipse fill="none" stroke="black" cx="533.07" cy="-75.73" rx="3.2" ry="3.2"/>
</g>
<!-- proj_project&#45;&gt;lib_library -->
<g id="edge9" class="edge">
<title>proj_project:w&#45;&gt;lib_library:e</title>
<path fill="none" stroke="black" d="M530.71,-74.98C372.62,-69.97 309.2,8.89 164.56,-69.22 136.04,-84.63 156.98,-130.22 124.56,-130.22"/>
<polygon fill="black" stroke="black" points="537.98,-75.09 545.92,-78.82 542.31,-75.16 545.64,-75.21 545.64,-75.21 545.64,-75.21 542.31,-75.16 546.03,-71.62 537.98,-75.09"/>
<ellipse fill="none" stroke="black" cx="533.06" cy="-75.01" rx="3.2" ry="3.2"/>
</g>
</g>
</svg>
