<?xml version="1.0" encoding="UTF-8" standalone="no"?>
<!DOCTYPE svg PUBLIC "-//W3C//DTD SVG 1.1//EN"
 "http://www.w3.org/Graphics/SVG/1.1/DTD/svg11.dtd">
<!-- Generated by graphviz version 12.2.0 (0)
 -->
<!-- Title: oneDegreeRelationshipsDiagram Pages: 1 -->
<svg width="311pt" height="296pt"
 viewBox="0.00 0.00 311.25 295.50" xmlns="http://www.w3.org/2000/svg" xmlns:xlink="http://www.w3.org/1999/xlink">
<g id="graph0" class="graph" transform="scale(1 1) rotate(0) translate(4 291.5)">
<title>oneDegreeRelationshipsDiagram</title>
<polygon fill="#ffffff" stroke="none" points="-4,4 -4,-291.5 307.25,-291.5 307.25,4 -4,4"/>
<text text-anchor="middle" x="79.25" y="-7.05" font-family="Helvetica,sans-Serif" font-size="11.00">Generated by SchemaSpy</text>
<!-- conf_cines_lang_code -->
<g id="node1" class="node">
<title>conf_cines_lang_code</title>
<g id="a_node1"><a xlink:href="../../tables/conf_cines_lang_code.html" xlink:title="conf_cines_lang_code" target="_top">
<polygon fill="#ffffff" stroke="none" points="8,-38.5 8,-283.5 295.25,-283.5 295.25,-38.5 8,-38.5"/>
<polygon fill="#f5f5f5" stroke="none" points="10,-258 10,-281.5 293.25,-281.5 293.25,-258 10,-258"/>
<polygon fill="none" stroke="black" points="10,-258 10,-281.5 293.25,-281.5 293.25,-258 10,-258"/>
<text text-anchor="start" x="15" y="-267.05" font-family="Helvetica,sans-Serif" font-weight="bold" font-size="11.00">conf_cines_lang_code</text>
<text text-anchor="start" x="251.5" y="-266.05" font-family="Helvetica,sans-Serif" font-size="11.00">[table]</text>
<polygon fill="none" stroke="black" points="10,-236 10,-258 174,-258 174,-236 10,-236"/>
<image xlink:href="../../images/primaryKeys.png" width="11px" height="12px" preserveAspectRatio="xMinYMin meet" x="15" y="-253"/>
<text text-anchor="start" x="30" y="-242.55" font-family="Helvetica,sans-Serif" font-size="11.00">identifier</text>
<polygon fill="none" stroke="black" points="174,-236 174,-258 277.5,-258 277.5,-236 174,-236"/>
<text text-anchor="start" x="177" y="-243.3" font-family="Helvetica,sans-Serif" font-size="11.00">varchar[191]</text>
<polygon fill="none" stroke="black" points="10,-214 10,-236 174,-236 174,-214 10,-214"/>
<text text-anchor="start" x="30" y="-220.55" font-family="Helvetica,sans-Serif" font-size="11.00">label</text>
<polygon fill="none" stroke="black" points="174,-214 174,-236 277.5,-236 277.5,-214 174,-214"/>
<text text-anchor="start" x="177" y="-221.3" font-family="Helvetica,sans-Serif" font-size="11.00">varchar[255]</text>
<polygon fill="none" stroke="black" points="10,-192 10,-214 174,-214 174,-192 10,-192"/>
<text text-anchor="start" x="30" y="-198.55" font-family="Helvetica,sans-Serif" font-size="11.00">active</text>
<polygon fill="none" stroke="black" points="174,-192 174,-214 277.5,-214 277.5,-192 174,-192"/>
<text text-anchor="start" x="177" y="-199.3" font-family="Helvetica,sans-Serif" font-size="11.00">bit[1]</text>
<polygon fill="none" stroke="black" points="10,-170 10,-192 174,-192 174,-170 10,-170"/>
<text text-anchor="start" x="30" y="-176.55" font-family="Helvetica,sans-Serif" font-size="11.00">version</text>
<polygon fill="none" stroke="black" points="174,-170 174,-192 277.5,-192 277.5,-170 174,-170"/>
<text text-anchor="start" x="177" y="-177.3" font-family="Helvetica,sans-Serif" font-size="11.00">bigint[19]</text>
<polygon fill="none" stroke="black" points="10,-148 10,-170 174,-170 174,-148 10,-148"/>
<text text-anchor="start" x="30" y="-154.55" font-family="Helvetica,sans-Serif" font-size="11.00">created_by</text>
<polygon fill="none" stroke="black" points="174,-148 174,-170 277.5,-170 277.5,-148 174,-148"/>
<text text-anchor="start" x="177" y="-155.3" font-family="Helvetica,sans-Serif" font-size="11.00">varchar[255]</text>
<polygon fill="none" stroke="black" points="10,-126 10,-148 174,-148 174,-126 10,-126"/>
<text text-anchor="start" x="30" y="-132.55" font-family="Helvetica,sans-Serif" font-size="11.00">last_modified_by</text>
<polygon fill="none" stroke="black" points="174,-126 174,-148 277.5,-148 277.5,-126 174,-126"/>
<text text-anchor="start" x="177" y="-133.3" font-family="Helvetica,sans-Serif" font-size="11.00">varchar[255]</text>
<polygon fill="none" stroke="black" points="10,-104 10,-126 174,-126 174,-104 10,-104"/>
<text text-anchor="start" x="30" y="-110.55" font-family="Helvetica,sans-Serif" font-size="11.00">created_date</text>
<polygon fill="none" stroke="black" points="174,-104 174,-126 277.5,-126 277.5,-104 174,-104"/>
<text text-anchor="start" x="177" y="-111.3" font-family="Helvetica,sans-Serif" font-size="11.00">timestamp[19]</text>
<polygon fill="none" stroke="black" points="10,-82 10,-104 174,-104 174,-82 10,-82"/>
<text text-anchor="start" x="30" y="-88.55" font-family="Helvetica,sans-Serif" font-size="11.00">last_modified_date</text>
<polygon fill="none" stroke="black" points="174,-82 174,-104 277.5,-104 277.5,-82 174,-82"/>
<text text-anchor="start" x="177" y="-89.3" font-family="Helvetica,sans-Serif" font-size="11.00">timestamp[19]</text>
<polygon fill="none" stroke="black" points="10,-60 10,-82 174,-82 174,-60 10,-60"/>
<text text-anchor="start" x="30" y="-66.55" font-family="Helvetica,sans-Serif" font-size="11.00">langDC</text>
<polygon fill="none" stroke="black" points="174,-60 174,-82 277.5,-82 277.5,-60 174,-60"/>
<text text-anchor="start" x="177" y="-67.3" font-family="Helvetica,sans-Serif" font-size="11.00">varchar[255]</text>
<polygon fill="#ffffff" stroke="none" points="10,-40.5 10,-60 98,-60 98,-40.5 10,-40.5"/>
<polygon fill="none" stroke="black" points="10,-40.5 10,-60 98,-60 98,-40.5 10,-40.5"/>
<text text-anchor="start" x="13" y="-46.55" font-family="Helvetica,sans-Serif" font-size="11.00">&lt; 0</text>
<polygon fill="#ffffff" stroke="none" points="98,-40.5 98,-60 174,-60 174,-40.5 98,-40.5"/>
<polygon fill="none" stroke="black" points="98,-40.5 98,-60 174,-60 174,-40.5 98,-40.5"/>
<text text-anchor="start" x="163.5" y="-46.55" font-family="Helvetica,sans-Serif" font-size="11.00"> &#160;</text>
<polygon fill="#ffffff" stroke="none" points="174,-40.5 174,-60 277.5,-60 277.5,-40.5 174,-40.5"/>
<polygon fill="none" stroke="black" points="174,-40.5 174,-60 277.5,-60 277.5,-40.5 174,-40.5"/>
<text text-anchor="start" x="255" y="-46.55" font-family="Helvetica,sans-Serif" font-size="11.00">0 &gt;</text>
<polygon fill="none" stroke="black" stroke-width="2" points="9,-39.5 9,-282.5 294.25,-282.5 294.25,-39.5 9,-39.5"/>
</a>
</g>
</g>
</g>
</svg>
