<?xml version="1.0" encoding="UTF-8" standalone="no"?>
<!DOCTYPE svg PUBLIC "-//W3C//DTD SVG 1.1//EN"
 "http://www.w3.org/Graphics/SVG/1.1/DTD/svg11.dtd">
<!-- Generated by graphviz version 12.2.0 (0)
 -->
<!-- Title: oneDegreeRelationshipsDiagram Pages: 1 -->
<svg width="573pt" height="648pt"
 viewBox="0.00 0.00 573.25 647.50" xmlns="http://www.w3.org/2000/svg" xmlns:xlink="http://www.w3.org/1999/xlink">
<g id="graph0" class="graph" transform="scale(1 1) rotate(0) translate(4 643.5)">
<title>oneDegreeRelationshipsDiagram</title>
<polygon fill="#ffffff" stroke="none" points="-4,4 -4,-643.5 569.25,-643.5 569.25,4 -4,4"/>
<text text-anchor="middle" x="79.25" y="-7.05" font-family="Helvetica,sans-Serif" font-size="11.00">Generated by SchemaSpy</text>
<!-- conf_digital_library -->
<g id="node1" class="node">
<title>conf_digital_library</title>
<g id="a_node1"><a xlink:href="../../tables/conf_digital_library.html" xlink:title="conf_digital_library" target="_top">
<polygon fill="#ffffff" stroke="none" points="291,-38.5 291,-635.5 557.25,-635.5 557.25,-38.5 291,-38.5"/>
<polygon fill="#f5f5f5" stroke="none" points="293,-610 293,-633.5 555.25,-633.5 555.25,-610 293,-610"/>
<polygon fill="none" stroke="black" points="293,-610 293,-633.5 555.25,-633.5 555.25,-610 293,-610"/>
<text text-anchor="start" x="298" y="-619.05" font-family="Helvetica,sans-Serif" font-weight="bold" font-size="11.00">conf_digital_library</text>
<text text-anchor="start" x="513.5" y="-618.05" font-family="Helvetica,sans-Serif" font-size="11.00">[table]</text>
<polygon fill="none" stroke="black" points="293,-588 293,-610 443,-610 443,-588 293,-588"/>
<image xlink:href="../../images/primaryKeys.png" width="11px" height="12px" preserveAspectRatio="xMinYMin meet" x="298" y="-605"/>
<text text-anchor="start" x="313" y="-594.55" font-family="Helvetica,sans-Serif" font-size="11.00">identifier</text>
<polygon fill="none" stroke="black" points="443,-588 443,-610 543,-610 543,-588 443,-588"/>
<text text-anchor="start" x="446" y="-595.3" font-family="Helvetica,sans-Serif" font-size="11.00">varchar[191]</text>
<polygon fill="none" stroke="black" points="293,-566 293,-588 443,-588 443,-566 293,-566"/>
<text text-anchor="start" x="313" y="-572.55" font-family="Helvetica,sans-Serif" font-size="11.00">label</text>
<polygon fill="none" stroke="black" points="443,-566 443,-588 543,-588 543,-566 443,-566"/>
<text text-anchor="start" x="446" y="-573.3" font-family="Helvetica,sans-Serif" font-size="11.00">varchar[255]</text>
<polygon fill="#ffffff" stroke="none" points="293,-544 293,-566 443,-566 443,-544 293,-544"/>
<polygon fill="none" stroke="black" points="293,-544 293,-566 443,-566 443,-544 293,-544"/>
<image xlink:href="../../images/foreignKeys.png" width="11px" height="12px" preserveAspectRatio="xMinYMin meet" x="298" y="-561"/>
<text text-anchor="start" x="313" y="-550.55" font-family="Helvetica,sans-Serif" font-size="11.00">library</text>
<polygon fill="none" stroke="black" points="443,-544 443,-566 543,-566 543,-544 443,-544"/>
<text text-anchor="start" x="446" y="-551.3" font-family="Helvetica,sans-Serif" font-size="11.00">varchar[191]</text>
<polygon fill="none" stroke="black" points="293,-522 293,-544 443,-544 443,-522 293,-522"/>
<text text-anchor="start" x="313" y="-528.55" font-family="Helvetica,sans-Serif" font-size="11.00">address</text>
<polygon fill="none" stroke="black" points="443,-522 443,-544 543,-544 543,-522 443,-522"/>
<text text-anchor="start" x="446" y="-529.3" font-family="Helvetica,sans-Serif" font-size="11.00">varchar[255]</text>
<polygon fill="none" stroke="black" points="293,-500 293,-522 443,-522 443,-500 293,-500"/>
<text text-anchor="start" x="313" y="-506.55" font-family="Helvetica,sans-Serif" font-size="11.00">port</text>
<polygon fill="none" stroke="black" points="443,-500 443,-522 543,-522 543,-500 443,-500"/>
<text text-anchor="start" x="446" y="-507.3" font-family="Helvetica,sans-Serif" font-size="11.00">varchar[255]</text>
<polygon fill="none" stroke="black" points="293,-478 293,-500 443,-500 443,-478 293,-478"/>
<text text-anchor="start" x="313" y="-484.55" font-family="Helvetica,sans-Serif" font-size="11.00">login</text>
<polygon fill="none" stroke="black" points="443,-478 443,-500 543,-500 543,-478 443,-478"/>
<text text-anchor="start" x="446" y="-485.3" font-family="Helvetica,sans-Serif" font-size="11.00">varchar[255]</text>
<polygon fill="none" stroke="black" points="293,-456 293,-478 443,-478 443,-456 293,-456"/>
<text text-anchor="start" x="313" y="-462.55" font-family="Helvetica,sans-Serif" font-size="11.00">password</text>
<polygon fill="none" stroke="black" points="443,-456 443,-478 543,-478 543,-456 443,-456"/>
<text text-anchor="start" x="446" y="-463.3" font-family="Helvetica,sans-Serif" font-size="11.00">varchar[255]</text>
<polygon fill="none" stroke="black" points="293,-434 293,-456 443,-456 443,-434 293,-434"/>
<text text-anchor="start" x="313" y="-440.55" font-family="Helvetica,sans-Serif" font-size="11.00">delivery_folder</text>
<polygon fill="none" stroke="black" points="443,-434 443,-456 543,-456 543,-434 443,-434"/>
<text text-anchor="start" x="446" y="-441.3" font-family="Helvetica,sans-Serif" font-size="11.00">varchar[255]</text>
<polygon fill="none" stroke="black" points="293,-412 293,-434 443,-434 443,-412 293,-412"/>
<text text-anchor="start" x="313" y="-418.55" font-family="Helvetica,sans-Serif" font-size="11.00">mail</text>
<polygon fill="none" stroke="black" points="443,-412 443,-434 543,-434 543,-412 443,-412"/>
<text text-anchor="start" x="446" y="-419.3" font-family="Helvetica,sans-Serif" font-size="11.00">varchar[255]</text>
<polygon fill="none" stroke="black" points="293,-390 293,-412 443,-412 443,-390 293,-390"/>
<text text-anchor="start" x="313" y="-396.55" font-family="Helvetica,sans-Serif" font-size="11.00">active</text>
<polygon fill="none" stroke="black" points="443,-390 443,-412 543,-412 543,-390 443,-390"/>
<text text-anchor="start" x="446" y="-397.3" font-family="Helvetica,sans-Serif" font-size="11.00">bit[1]</text>
<polygon fill="none" stroke="black" points="293,-368 293,-390 443,-390 443,-368 293,-368"/>
<text text-anchor="start" x="313" y="-374.55" font-family="Helvetica,sans-Serif" font-size="11.00">export_view</text>
<polygon fill="none" stroke="black" points="443,-368 443,-390 543,-390 543,-368 443,-368"/>
<text text-anchor="start" x="446" y="-375.3" font-family="Helvetica,sans-Serif" font-size="11.00">bit[1]</text>
<polygon fill="none" stroke="black" points="293,-346 293,-368 443,-368 443,-346 293,-346"/>
<text text-anchor="start" x="313" y="-352.55" font-family="Helvetica,sans-Serif" font-size="11.00">export_print</text>
<polygon fill="none" stroke="black" points="443,-346 443,-368 543,-368 543,-346 443,-346"/>
<text text-anchor="start" x="446" y="-353.3" font-family="Helvetica,sans-Serif" font-size="11.00">bit[1]</text>
<polygon fill="none" stroke="black" points="293,-324 293,-346 443,-346 443,-324 293,-324"/>
<text text-anchor="start" x="313" y="-330.55" font-family="Helvetica,sans-Serif" font-size="11.00">export_thumb</text>
<polygon fill="none" stroke="black" points="443,-324 443,-346 543,-346 543,-324 443,-324"/>
<text text-anchor="start" x="446" y="-331.3" font-family="Helvetica,sans-Serif" font-size="11.00">bit[1]</text>
<polygon fill="none" stroke="black" points="293,-302 293,-324 443,-324 443,-302 293,-302"/>
<text text-anchor="start" x="313" y="-308.55" font-family="Helvetica,sans-Serif" font-size="11.00">export_aip_sip</text>
<polygon fill="none" stroke="black" points="443,-302 443,-324 543,-324 543,-302 443,-302"/>
<text text-anchor="start" x="446" y="-309.3" font-family="Helvetica,sans-Serif" font-size="11.00">bit[1]</text>
<polygon fill="none" stroke="black" points="293,-280 293,-302 443,-302 443,-280 293,-280"/>
<text text-anchor="start" x="313" y="-286.55" font-family="Helvetica,sans-Serif" font-size="11.00">export_mets</text>
<polygon fill="none" stroke="black" points="443,-280 443,-302 543,-302 543,-280 443,-280"/>
<text text-anchor="start" x="446" y="-287.3" font-family="Helvetica,sans-Serif" font-size="11.00">bit[1]</text>
<polygon fill="none" stroke="black" points="293,-258 293,-280 443,-280 443,-258 293,-258"/>
<text text-anchor="start" x="313" y="-264.55" font-family="Helvetica,sans-Serif" font-size="11.00">export_pdf</text>
<polygon fill="none" stroke="black" points="443,-258 443,-280 543,-280 543,-258 443,-258"/>
<text text-anchor="start" x="446" y="-265.3" font-family="Helvetica,sans-Serif" font-size="11.00">bit[1]</text>
<polygon fill="none" stroke="black" points="293,-236 293,-258 443,-258 443,-236 293,-236"/>
<text text-anchor="start" x="313" y="-242.55" font-family="Helvetica,sans-Serif" font-size="11.00">export_alto</text>
<polygon fill="none" stroke="black" points="443,-236 443,-258 543,-258 543,-236 443,-236"/>
<text text-anchor="start" x="446" y="-243.3" font-family="Helvetica,sans-Serif" font-size="11.00">bit[1]</text>
<polygon fill="none" stroke="black" points="293,-214 293,-236 443,-236 443,-214 293,-214"/>
<text text-anchor="start" x="313" y="-220.55" font-family="Helvetica,sans-Serif" font-size="11.00">version</text>
<polygon fill="none" stroke="black" points="443,-214 443,-236 543,-236 543,-214 443,-214"/>
<text text-anchor="start" x="446" y="-221.3" font-family="Helvetica,sans-Serif" font-size="11.00">bigint[19]</text>
<polygon fill="none" stroke="black" points="293,-192 293,-214 443,-214 443,-192 293,-192"/>
<text text-anchor="start" x="313" y="-198.55" font-family="Helvetica,sans-Serif" font-size="11.00">created_by</text>
<polygon fill="none" stroke="black" points="443,-192 443,-214 543,-214 543,-192 443,-192"/>
<text text-anchor="start" x="446" y="-199.3" font-family="Helvetica,sans-Serif" font-size="11.00">varchar[255]</text>
<polygon fill="none" stroke="black" points="293,-170 293,-192 443,-192 443,-170 293,-170"/>
<text text-anchor="start" x="313" y="-176.55" font-family="Helvetica,sans-Serif" font-size="11.00">last_modified_by</text>
<polygon fill="none" stroke="black" points="443,-170 443,-192 543,-192 543,-170 443,-170"/>
<text text-anchor="start" x="446" y="-177.3" font-family="Helvetica,sans-Serif" font-size="11.00">varchar[255]</text>
<polygon fill="none" stroke="black" points="293,-148 293,-170 443,-170 443,-148 293,-148"/>
<text text-anchor="start" x="313" y="-154.55" font-family="Helvetica,sans-Serif" font-size="11.00">created_date</text>
<polygon fill="none" stroke="black" points="443,-148 443,-170 543,-170 543,-148 443,-148"/>
<text text-anchor="start" x="446" y="-155.3" font-family="Helvetica,sans-Serif" font-size="11.00">timestamp[19]</text>
<polygon fill="none" stroke="black" points="293,-126 293,-148 443,-148 443,-126 293,-126"/>
<text text-anchor="start" x="313" y="-132.55" font-family="Helvetica,sans-Serif" font-size="11.00">last_modified_date</text>
<polygon fill="none" stroke="black" points="443,-126 443,-148 543,-148 543,-126 443,-126"/>
<text text-anchor="start" x="446" y="-133.3" font-family="Helvetica,sans-Serif" font-size="11.00">timestamp[19]</text>
<polygon fill="none" stroke="black" points="293,-104 293,-126 443,-126 443,-104 293,-104"/>
<text text-anchor="start" x="313" y="-110.55" font-family="Helvetica,sans-Serif" font-size="11.00">default_value</text>
<polygon fill="none" stroke="black" points="443,-104 443,-126 543,-126 543,-104 443,-104"/>
<text text-anchor="start" x="446" y="-111.3" font-family="Helvetica,sans-Serif" font-size="11.00">varchar[255]</text>
<polygon fill="none" stroke="black" points="293,-82 293,-104 443,-104 443,-82 293,-82"/>
<text text-anchor="start" x="313" y="-88.55" font-family="Helvetica,sans-Serif" font-size="11.00">sftp</text>
<polygon fill="none" stroke="black" points="443,-82 443,-104 543,-104 543,-82 443,-82"/>
<text text-anchor="start" x="446" y="-89.3" font-family="Helvetica,sans-Serif" font-size="11.00">bit[1]</text>
<polygon fill="none" stroke="black" points="293,-60 293,-82 443,-82 443,-60 293,-60"/>
<text text-anchor="start" x="313" y="-66.55" font-family="Helvetica,sans-Serif" font-size="11.00">export_master</text>
<polygon fill="none" stroke="black" points="443,-60 443,-82 543,-82 543,-60 443,-60"/>
<text text-anchor="start" x="446" y="-67.3" font-family="Helvetica,sans-Serif" font-size="11.00">bit[1]</text>
<polygon fill="#ffffff" stroke="none" points="293,-40.5 293,-60 374,-60 374,-40.5 293,-40.5"/>
<polygon fill="none" stroke="black" points="293,-40.5 293,-60 374,-60 374,-40.5 293,-40.5"/>
<text text-anchor="start" x="296" y="-46.55" font-family="Helvetica,sans-Serif" font-size="11.00">&lt; 1</text>
<polygon fill="#ffffff" stroke="none" points="374,-40.5 374,-60 443,-60 443,-40.5 374,-40.5"/>
<polygon fill="none" stroke="black" points="374,-40.5 374,-60 443,-60 443,-40.5 374,-40.5"/>
<text text-anchor="start" x="432.5" y="-46.55" font-family="Helvetica,sans-Serif" font-size="11.00"> &#160;</text>
<polygon fill="#ffffff" stroke="none" points="443,-40.5 443,-60 543,-60 543,-40.5 443,-40.5"/>
<polygon fill="none" stroke="black" points="443,-40.5 443,-60 543,-60 543,-40.5 443,-40.5"/>
<text text-anchor="start" x="520.5" y="-46.55" font-family="Helvetica,sans-Serif" font-size="11.00">0 &gt;</text>
<polygon fill="none" stroke="black" stroke-width="2" points="292,-39.5 292,-634.5 556.25,-634.5 556.25,-39.5 292,-39.5"/>
</a>
</g>
</g>
<!-- lib_library -->
<g id="node2" class="node">
<title>lib_library</title>
<g id="a_node2"><a xlink:href="../../tables/lib_library.html" xlink:title="lib_library" target="_top">
<polygon fill="#ffffff" stroke="none" points="8,-372.75 8,-589.25 242,-589.25 242,-372.75 8,-372.75"/>
<polygon fill="#f5f5f5" stroke="none" points="8,-565.75 8,-589.25 242,-589.25 242,-565.75 8,-565.75"/>
<polygon fill="none" stroke="black" points="8,-565.75 8,-589.25 242,-589.25 242,-565.75 8,-565.75"/>
<text text-anchor="start" x="13" y="-574.8" font-family="Helvetica,sans-Serif" font-weight="bold" font-size="11.00">lib_library</text>
<text text-anchor="start" x="200.25" y="-573.8" font-family="Helvetica,sans-Serif" font-size="11.00">[table]</text>
<polygon fill="none" stroke="black" points="8,-543.75 8,-565.75 242,-565.75 242,-543.75 8,-543.75"/>
<image xlink:href="../../images/primaryKeys.png" width="11px" height="12px" preserveAspectRatio="xMinYMin meet" x="13" y="-560.75"/>
<text text-anchor="start" x="28" y="-550.3" font-family="Helvetica,sans-Serif" font-size="11.00">identifier</text>
<polygon fill="#ffffff" stroke="none" points="8,-521.75 8,-543.75 242,-543.75 242,-521.75 8,-521.75"/>
<polygon fill="none" stroke="black" points="8,-521.75 8,-543.75 242,-543.75 242,-521.75 8,-521.75"/>
<image xlink:href="../../images/foreignKeys.png" width="11px" height="12px" preserveAspectRatio="xMinYMin meet" x="13" y="-538.75"/>
<text text-anchor="start" x="28" y="-528.3" font-family="Helvetica,sans-Serif" font-size="11.00">address</text>
<polygon fill="#ffffff" stroke="none" points="8,-499.75 8,-521.75 242,-521.75 242,-499.75 8,-499.75"/>
<polygon fill="none" stroke="black" points="8,-499.75 8,-521.75 242,-521.75 242,-499.75 8,-499.75"/>
<image xlink:href="../../images/foreignKeys.png" width="11px" height="12px" preserveAspectRatio="xMinYMin meet" x="13" y="-516.75"/>
<text text-anchor="start" x="28" y="-506.3" font-family="Helvetica,sans-Serif" font-size="11.00">active_configuration_ftp</text>
<polygon fill="#ffffff" stroke="none" points="8,-477.75 8,-499.75 242,-499.75 242,-477.75 8,-477.75"/>
<polygon fill="none" stroke="black" points="8,-477.75 8,-499.75 242,-499.75 242,-477.75 8,-477.75"/>
<image xlink:href="../../images/foreignKeys.png" width="11px" height="12px" preserveAspectRatio="xMinYMin meet" x="13" y="-494.75"/>
<text text-anchor="start" x="28" y="-484.3" font-family="Helvetica,sans-Serif" font-size="11.00">active_configuration_check</text>
<polygon fill="#ffffff" stroke="none" points="8,-455.75 8,-477.75 242,-477.75 242,-455.75 8,-455.75"/>
<polygon fill="none" stroke="black" points="8,-455.75 8,-477.75 242,-477.75 242,-455.75 8,-455.75"/>
<image xlink:href="../../images/foreignKeys.png" width="11px" height="12px" preserveAspectRatio="xMinYMin meet" x="13" y="-472.75"/>
<text text-anchor="start" x="28" y="-462.3" font-family="Helvetica,sans-Serif" font-size="11.00">role</text>
<polygon fill="#ffffff" stroke="none" points="8,-433.75 8,-455.75 242,-455.75 242,-433.75 8,-433.75"/>
<polygon fill="none" stroke="black" points="8,-433.75 8,-455.75 242,-455.75 242,-433.75 8,-433.75"/>
<image xlink:href="../../images/foreignKeys.png" width="11px" height="12px" preserveAspectRatio="xMinYMin meet" x="13" y="-450.75"/>
<text text-anchor="start" x="28" y="-440.3" font-family="Helvetica,sans-Serif" font-size="11.00">active_configuration_export_ftp</text>
<polygon fill="#ffffff" stroke="none" points="8,-411.75 8,-433.75 242,-433.75 242,-411.75 8,-411.75"/>
<polygon fill="none" stroke="black" points="8,-411.75 8,-433.75 242,-433.75 242,-411.75 8,-411.75"/>
<image xlink:href="../../images/foreignKeys.png" width="11px" height="12px" preserveAspectRatio="xMinYMin meet" x="13" y="-428.75"/>
<text text-anchor="start" x="28" y="-418.3" font-family="Helvetica,sans-Serif" font-size="11.00">active_configuration_ocr_lang</text>
<polygon fill="none" stroke="black" points="8,-392.25 8,-411.75 242,-411.75 242,-392.25 8,-392.25"/>
<text text-anchor="start" x="11" y="-398.3" font-family="Helvetica,sans-Serif" font-size="11.00">...</text>
<polygon fill="#ffffff" stroke="none" points="8,-372.75 8,-392.25 87.75,-392.25 87.75,-372.75 8,-372.75"/>
<polygon fill="none" stroke="black" points="8,-372.75 8,-392.25 87.75,-392.25 87.75,-372.75 8,-372.75"/>
<text text-anchor="start" x="11" y="-378.8" font-family="Helvetica,sans-Serif" font-size="11.00">&lt; 6</text>
<polygon fill="#ffffff" stroke="none" points="87.75,-372.75 87.75,-392.25 155.5,-392.25 155.5,-372.75 87.75,-372.75"/>
<polygon fill="none" stroke="black" points="87.75,-372.75 87.75,-392.25 155.5,-392.25 155.5,-372.75 87.75,-372.75"/>
<text text-anchor="start" x="145" y="-378.8" font-family="Helvetica,sans-Serif" font-size="11.00"> &#160;</text>
<polygon fill="#ffffff" stroke="none" points="155.5,-372.75 155.5,-392.25 242,-392.25 242,-372.75 155.5,-372.75"/>
<polygon fill="none" stroke="black" points="155.5,-372.75 155.5,-392.25 242,-392.25 242,-372.75 155.5,-372.75"/>
<text text-anchor="start" x="212.75" y="-378.8" font-family="Helvetica,sans-Serif" font-size="11.00">27 &gt;</text>
</a>
</g>
</g>
<!-- conf_digital_library&#45;&gt;lib_library -->
<g id="edge1" class="edge">
<title>conf_digital_library:w&#45;&gt;lib_library:e</title>
<path fill="none" stroke="black" d="M276.42,-554.95C265.71,-554.88 258.48,-554.75 243,-554.75"/>
<polygon fill="black" stroke="black" points="283.67,-554.97 291.65,-558.6 288,-554.99 291.33,-555 291.33,-555 291.33,-555 288,-554.99 291.68,-551.4 283.67,-554.97"/>
<ellipse fill="none" stroke="black" cx="278.75" cy="-554.96" rx="3.2" ry="3.2"/>
</g>
</g>
</svg>
