<?xml version="1.0" encoding="UTF-8" standalone="no"?>
<!DOCTYPE svg PUBLIC "-//W3C//DTD SVG 1.1//EN"
 "http://www.w3.org/Graphics/SVG/1.1/DTD/svg11.dtd">
<!-- Generated by graphviz version 12.2.0 (0)
 -->
<!-- Title: oneDegreeRelationshipsDiagram Pages: 1 -->
<svg width="1088pt" height="746pt"
 viewBox="0.00 0.00 1087.50 746.46" xmlns="http://www.w3.org/2000/svg" xmlns:xlink="http://www.w3.org/1999/xlink">
<g id="graph0" class="graph" transform="scale(1 1) rotate(0) translate(4 742.46)">
<title>oneDegreeRelationshipsDiagram</title>
<polygon fill="#ffffff" stroke="none" points="-4,4 -4,-742.46 1083.5,-742.46 1083.5,4 -4,4"/>
<text text-anchor="middle" x="79.25" y="-7.05" font-family="Helvetica,sans-Serif" font-size="11.00">Generated by SchemaSpy</text>
<!-- conf_delivery_folder -->
<g id="node1" class="node">
<title>conf_delivery_folder</title>
<g id="a_node1"><a xlink:href="../../tables/conf_delivery_folder.html" xlink:title="conf_delivery_folder" target="_top">
<polygon fill="#ffffff" stroke="none" points="208.75,-92.71 208.75,-315.71 485.5,-315.71 485.5,-92.71 208.75,-92.71"/>
<polygon fill="#f5f5f5" stroke="none" points="210.75,-290.21 210.75,-313.71 483.5,-313.71 483.5,-290.21 210.75,-290.21"/>
<polygon fill="none" stroke="black" points="210.75,-290.21 210.75,-313.71 483.5,-313.71 483.5,-290.21 210.75,-290.21"/>
<text text-anchor="start" x="215.75" y="-299.26" font-family="Helvetica,sans-Serif" font-weight="bold" font-size="11.00">conf_delivery_folder</text>
<text text-anchor="start" x="441.75" y="-298.26" font-family="Helvetica,sans-Serif" font-size="11.00">[table]</text>
<polygon fill="none" stroke="black" points="210.75,-268.21 210.75,-290.21 367.75,-290.21 367.75,-268.21 210.75,-268.21"/>
<image xlink:href="../../images/primaryKeys.png" width="11px" height="12px" preserveAspectRatio="xMinYMin meet" x="215.75" y="-285.215"/>
<text text-anchor="start" x="230.75" y="-274.76" font-family="Helvetica,sans-Serif" font-size="11.00">identifier</text>
<polygon fill="none" stroke="black" points="367.75,-268.21 367.75,-290.21 469.5,-290.21 469.5,-268.21 367.75,-268.21"/>
<text text-anchor="start" x="370.75" y="-275.51" font-family="Helvetica,sans-Serif" font-size="11.00">varchar[191]</text>
<polygon fill="#ffffff" stroke="none" points="210.75,-246.21 210.75,-268.21 367.75,-268.21 367.75,-246.21 210.75,-246.21"/>
<polygon fill="none" stroke="black" points="210.75,-246.21 210.75,-268.21 367.75,-268.21 367.75,-246.21 210.75,-246.21"/>
<text text-anchor="start" x="230.75" y="-252.76" font-family="Helvetica,sans-Serif" font-size="11.00">name</text>
<polygon fill="none" stroke="black" points="367.75,-246.21 367.75,-268.21 469.5,-268.21 469.5,-246.21 367.75,-246.21"/>
<text text-anchor="start" x="370.75" y="-253.51" font-family="Helvetica,sans-Serif" font-size="11.00">varchar[191]</text>
<polygon fill="#ffffff" stroke="none" points="210.75,-224.21 210.75,-246.21 367.75,-246.21 367.75,-224.21 210.75,-224.21"/>
<polygon fill="none" stroke="black" points="210.75,-224.21 210.75,-246.21 367.75,-246.21 367.75,-224.21 210.75,-224.21"/>
<image xlink:href="../../images/foreignKeys.png" width="11px" height="12px" preserveAspectRatio="xMinYMin meet" x="215.75" y="-241.215"/>
<text text-anchor="start" x="230.75" y="-230.76" font-family="Helvetica,sans-Serif" font-size="11.00">conf_export_ftp</text>
<polygon fill="none" stroke="black" points="367.75,-224.21 367.75,-246.21 469.5,-246.21 469.5,-224.21 367.75,-224.21"/>
<text text-anchor="start" x="370.75" y="-231.51" font-family="Helvetica,sans-Serif" font-size="11.00">varchar[191]</text>
<polygon fill="none" stroke="black" points="210.75,-202.21 210.75,-224.21 367.75,-224.21 367.75,-202.21 210.75,-202.21"/>
<text text-anchor="start" x="230.75" y="-208.76" font-family="Helvetica,sans-Serif" font-size="11.00">version</text>
<polygon fill="none" stroke="black" points="367.75,-202.21 367.75,-224.21 469.5,-224.21 469.5,-202.21 367.75,-202.21"/>
<text text-anchor="start" x="370.75" y="-209.51" font-family="Helvetica,sans-Serif" font-size="11.00">bigint[19]</text>
<polygon fill="none" stroke="black" points="210.75,-180.21 210.75,-202.21 367.75,-202.21 367.75,-180.21 210.75,-180.21"/>
<text text-anchor="start" x="230.75" y="-186.76" font-family="Helvetica,sans-Serif" font-size="11.00">created_by</text>
<polygon fill="none" stroke="black" points="367.75,-180.21 367.75,-202.21 469.5,-202.21 469.5,-180.21 367.75,-180.21"/>
<text text-anchor="start" x="370.75" y="-187.51" font-family="Helvetica,sans-Serif" font-size="11.00">varchar[255]</text>
<polygon fill="none" stroke="black" points="210.75,-158.21 210.75,-180.21 367.75,-180.21 367.75,-158.21 210.75,-158.21"/>
<text text-anchor="start" x="230.75" y="-164.76" font-family="Helvetica,sans-Serif" font-size="11.00">last_modified_by</text>
<polygon fill="none" stroke="black" points="367.75,-158.21 367.75,-180.21 469.5,-180.21 469.5,-158.21 367.75,-158.21"/>
<text text-anchor="start" x="370.75" y="-165.51" font-family="Helvetica,sans-Serif" font-size="11.00">varchar[255]</text>
<polygon fill="none" stroke="black" points="210.75,-136.21 210.75,-158.21 367.75,-158.21 367.75,-136.21 210.75,-136.21"/>
<text text-anchor="start" x="230.75" y="-142.76" font-family="Helvetica,sans-Serif" font-size="11.00">created_date</text>
<polygon fill="none" stroke="black" points="367.75,-136.21 367.75,-158.21 469.5,-158.21 469.5,-136.21 367.75,-136.21"/>
<text text-anchor="start" x="370.75" y="-143.51" font-family="Helvetica,sans-Serif" font-size="11.00">timestamp[19]</text>
<polygon fill="none" stroke="black" points="210.75,-114.21 210.75,-136.21 367.75,-136.21 367.75,-114.21 210.75,-114.21"/>
<text text-anchor="start" x="230.75" y="-120.76" font-family="Helvetica,sans-Serif" font-size="11.00">last_modified_date</text>
<polygon fill="none" stroke="black" points="367.75,-114.21 367.75,-136.21 469.5,-136.21 469.5,-114.21 367.75,-114.21"/>
<text text-anchor="start" x="370.75" y="-121.51" font-family="Helvetica,sans-Serif" font-size="11.00">timestamp[19]</text>
<polygon fill="#ffffff" stroke="none" points="210.75,-94.71 210.75,-114.21 295.25,-114.21 295.25,-94.71 210.75,-94.71"/>
<polygon fill="none" stroke="black" points="210.75,-94.71 210.75,-114.21 295.25,-114.21 295.25,-94.71 210.75,-94.71"/>
<text text-anchor="start" x="213.75" y="-100.76" font-family="Helvetica,sans-Serif" font-size="11.00">&lt; 1</text>
<polygon fill="#ffffff" stroke="none" points="295.25,-94.71 295.25,-114.21 367.75,-114.21 367.75,-94.71 295.25,-94.71"/>
<polygon fill="none" stroke="black" points="295.25,-94.71 295.25,-114.21 367.75,-114.21 367.75,-94.71 295.25,-94.71"/>
<text text-anchor="start" x="357.25" y="-100.76" font-family="Helvetica,sans-Serif" font-size="11.00"> &#160;</text>
<polygon fill="#ffffff" stroke="none" points="367.75,-94.71 367.75,-114.21 469.5,-114.21 469.5,-94.71 367.75,-94.71"/>
<polygon fill="none" stroke="black" points="367.75,-94.71 367.75,-114.21 469.5,-114.21 469.5,-94.71 367.75,-94.71"/>
<text text-anchor="start" x="447" y="-100.76" font-family="Helvetica,sans-Serif" font-size="11.00">3 &gt;</text>
<polygon fill="none" stroke="black" stroke-width="2" points="209.75,-93.71 209.75,-314.71 484.5,-314.71 484.5,-93.71 209.75,-93.71"/>
</a>
</g>
</g>
<!-- conf_export_ftp -->
<g id="node2" class="node">
<title>conf_export_ftp</title>
<g id="a_node2"><a xlink:href="../../tables/conf_export_ftp.html" xlink:title="conf_export_ftp" target="_top">
<polygon fill="#ffffff" stroke="none" points="8,-215.96 8,-322.46 159.75,-322.46 159.75,-215.96 8,-215.96"/>
<polygon fill="#f5f5f5" stroke="none" points="8,-298.96 8,-322.46 159.75,-322.46 159.75,-298.96 8,-298.96"/>
<polygon fill="none" stroke="black" points="8,-298.96 8,-322.46 159.75,-322.46 159.75,-298.96 8,-298.96"/>
<text text-anchor="start" x="13" y="-308.01" font-family="Helvetica,sans-Serif" font-weight="bold" font-size="11.00">conf_export_ftp</text>
<text text-anchor="start" x="118" y="-307.01" font-family="Helvetica,sans-Serif" font-size="11.00">[table]</text>
<polygon fill="none" stroke="black" points="8,-276.96 8,-298.96 159.75,-298.96 159.75,-276.96 8,-276.96"/>
<image xlink:href="../../images/primaryKeys.png" width="11px" height="12px" preserveAspectRatio="xMinYMin meet" x="13" y="-293.965"/>
<text text-anchor="start" x="29.88" y="-283.51" font-family="Helvetica,sans-Serif" font-size="11.00">identifier</text>
<polygon fill="#ffffff" stroke="none" points="8,-254.96 8,-276.96 159.75,-276.96 159.75,-254.96 8,-254.96"/>
<polygon fill="none" stroke="black" points="8,-254.96 8,-276.96 159.75,-276.96 159.75,-254.96 8,-254.96"/>
<image xlink:href="../../images/foreignKeys.png" width="11px" height="12px" preserveAspectRatio="xMinYMin meet" x="13" y="-271.965"/>
<text text-anchor="start" x="29.88" y="-261.51" font-family="Helvetica,sans-Serif" font-size="11.00">library</text>
<polygon fill="none" stroke="black" points="8,-235.46 8,-254.96 159.75,-254.96 159.75,-235.46 8,-235.46"/>
<text text-anchor="start" x="11" y="-241.51" font-family="Helvetica,sans-Serif" font-size="11.00">...</text>
<polygon fill="#ffffff" stroke="none" points="8,-215.96 8,-235.46 62.58,-235.46 62.58,-215.96 8,-215.96"/>
<polygon fill="none" stroke="black" points="8,-215.96 8,-235.46 62.58,-235.46 62.58,-215.96 8,-215.96"/>
<text text-anchor="start" x="11" y="-222.01" font-family="Helvetica,sans-Serif" font-size="11.00">&lt; 1</text>
<polygon fill="#ffffff" stroke="none" points="62.58,-215.96 62.58,-235.46 105.17,-235.46 105.17,-215.96 62.58,-215.96"/>
<polygon fill="none" stroke="black" points="62.58,-215.96 62.58,-235.46 105.17,-235.46 105.17,-215.96 62.58,-215.96"/>
<text text-anchor="start" x="94.67" y="-222.01" font-family="Helvetica,sans-Serif" font-size="11.00"> &#160;</text>
<polygon fill="#ffffff" stroke="none" points="105.17,-215.96 105.17,-235.46 159.75,-235.46 159.75,-215.96 105.17,-215.96"/>
<polygon fill="none" stroke="black" points="105.17,-215.96 105.17,-235.46 159.75,-235.46 159.75,-215.96 105.17,-215.96"/>
<text text-anchor="start" x="137.25" y="-222.01" font-family="Helvetica,sans-Serif" font-size="11.00">5 &gt;</text>
</a>
</g>
</g>
<!-- conf_delivery_folder&#45;&gt;conf_export_ftp -->
<g id="edge1" class="edge">
<title>conf_delivery_folder:w&#45;&gt;conf_export_ftp:e</title>
<path fill="none" stroke="black" d="M195.28,-240.86C181.9,-254.47 186.25,-287.96 160.75,-287.96"/>
<polygon fill="black" stroke="black" points="201.99,-238.24 210.75,-238.69 206.02,-236.67 209.13,-235.46 209.13,-235.46 209.13,-235.46 206.02,-236.67 208.13,-231.98 201.99,-238.24"/>
<ellipse fill="none" stroke="black" cx="197.4" cy="-240.03" rx="3.2" ry="3.2"/>
</g>
<!-- conf_files_gestion -->
<g id="node3" class="node">
<title>conf_files_gestion</title>
<g id="a_node3"><a xlink:href="../../tables/conf_files_gestion.html" xlink:title="conf_files_gestion" target="_top">
<polygon fill="#ffffff" stroke="none" points="534.5,-60.96 534.5,-211.46 778.5,-211.46 778.5,-60.96 534.5,-60.96"/>
<polygon fill="#f5f5f5" stroke="none" points="534.5,-187.96 534.5,-211.46 778.5,-211.46 778.5,-187.96 534.5,-187.96"/>
<polygon fill="none" stroke="black" points="534.5,-187.96 534.5,-211.46 778.5,-211.46 778.5,-187.96 534.5,-187.96"/>
<text text-anchor="start" x="539.5" y="-197.01" font-family="Helvetica,sans-Serif" font-weight="bold" font-size="11.00">conf_files_gestion</text>
<text text-anchor="start" x="736.75" y="-196.01" font-family="Helvetica,sans-Serif" font-size="11.00">[table]</text>
<polygon fill="none" stroke="black" points="534.5,-165.96 534.5,-187.96 778.5,-187.96 778.5,-165.96 534.5,-165.96"/>
<image xlink:href="../../images/primaryKeys.png" width="11px" height="12px" preserveAspectRatio="xMinYMin meet" x="539.5" y="-182.965"/>
<text text-anchor="start" x="554.5" y="-172.51" font-family="Helvetica,sans-Serif" font-size="11.00">identifier</text>
<polygon fill="#ffffff" stroke="none" points="534.5,-143.96 534.5,-165.96 778.5,-165.96 778.5,-143.96 534.5,-143.96"/>
<polygon fill="none" stroke="black" points="534.5,-143.96 534.5,-165.96 778.5,-165.96 778.5,-143.96 534.5,-143.96"/>
<image xlink:href="../../images/foreignKeys.png" width="11px" height="12px" preserveAspectRatio="xMinYMin meet" x="539.5" y="-160.965"/>
<text text-anchor="start" x="554.5" y="-150.51" font-family="Helvetica,sans-Serif" font-size="11.00">library</text>
<polygon fill="#ffffff" stroke="none" points="534.5,-121.96 534.5,-143.96 778.5,-143.96 778.5,-121.96 534.5,-121.96"/>
<polygon fill="none" stroke="black" points="534.5,-121.96 534.5,-143.96 778.5,-143.96 778.5,-121.96 534.5,-121.96"/>
<image xlink:href="../../images/foreignKeys.png" width="11px" height="12px" preserveAspectRatio="xMinYMin meet" x="539.5" y="-138.965"/>
<text text-anchor="start" x="554.5" y="-128.51" font-family="Helvetica,sans-Serif" font-size="11.00">active_export_ftp_delivery_folder</text>
<polygon fill="#ffffff" stroke="none" points="534.5,-99.96 534.5,-121.96 778.5,-121.96 778.5,-99.96 534.5,-99.96"/>
<polygon fill="none" stroke="black" points="534.5,-99.96 534.5,-121.96 778.5,-121.96 778.5,-99.96 534.5,-99.96"/>
<image xlink:href="../../images/foreignKeys.png" width="11px" height="12px" preserveAspectRatio="xMinYMin meet" x="539.5" y="-116.965"/>
<text text-anchor="start" x="554.5" y="-106.51" font-family="Helvetica,sans-Serif" font-size="11.00">active_export_ftp_conf</text>
<polygon fill="none" stroke="black" points="534.5,-80.46 534.5,-99.96 778.5,-99.96 778.5,-80.46 534.5,-80.46"/>
<text text-anchor="start" x="537.5" y="-86.51" font-family="Helvetica,sans-Serif" font-size="11.00">...</text>
<polygon fill="#ffffff" stroke="none" points="534.5,-60.96 534.5,-80.46 623.83,-80.46 623.83,-60.96 534.5,-60.96"/>
<polygon fill="none" stroke="black" points="534.5,-60.96 534.5,-80.46 623.83,-80.46 623.83,-60.96 534.5,-60.96"/>
<text text-anchor="start" x="537.5" y="-67.01" font-family="Helvetica,sans-Serif" font-size="11.00">&lt; 3</text>
<polygon fill="#ffffff" stroke="none" points="623.83,-60.96 623.83,-80.46 701.17,-80.46 701.17,-60.96 623.83,-60.96"/>
<polygon fill="none" stroke="black" points="623.83,-60.96 623.83,-80.46 701.17,-80.46 701.17,-60.96 623.83,-60.96"/>
<text text-anchor="start" x="690.67" y="-67.01" font-family="Helvetica,sans-Serif" font-size="11.00"> &#160;</text>
<polygon fill="#ffffff" stroke="none" points="701.17,-60.96 701.17,-80.46 778.5,-80.46 778.5,-60.96 701.17,-60.96"/>
<polygon fill="none" stroke="black" points="701.17,-60.96 701.17,-80.46 778.5,-80.46 778.5,-60.96 701.17,-60.96"/>
<text text-anchor="start" x="768" y="-67.01" font-family="Helvetica,sans-Serif" font-size="11.00"> &#160;</text>
</a>
</g>
</g>
<!-- conf_files_gestion&#45;&gt;conf_delivery_folder -->
<g id="edge3" class="edge">
<title>conf_files_gestion:w&#45;&gt;conf_delivery_folder:e</title>
<path fill="none" stroke="black" d="M518.1,-136.16C475.38,-157.54 535.05,-279.21 470.5,-279.21"/>
<polygon fill="black" stroke="black" points="525.34,-134.66 533.9,-136.56 529.58,-133.78 532.84,-133.1 532.84,-133.1 532.84,-133.1 529.58,-133.78 532.44,-129.51 525.34,-134.66"/>
<ellipse fill="none" stroke="black" cx="520.52" cy="-135.65" rx="3.2" ry="3.2"/>
</g>
<!-- conf_files_gestion&#45;&gt;conf_export_ftp -->
<g id="edge2" class="edge">
<title>conf_files_gestion:w&#45;&gt;conf_export_ftp:e</title>
<path fill="none" stroke="black" d="M518.72,-105.65C511.01,-98.69 507.83,-86.83 493.5,-82.21 369.65,-42.32 301.15,0.54 200.75,-82.21 128.87,-141.47 253.91,-287.96 160.75,-287.96"/>
<polygon fill="black" stroke="black" points="525.66,-108.14 531.97,-114.24 529.74,-109.61 532.87,-110.74 532.87,-110.74 532.87,-110.74 529.74,-109.61 534.4,-107.46 525.66,-108.14"/>
<ellipse fill="none" stroke="black" cx="521.03" cy="-106.48" rx="3.2" ry="3.2"/>
</g>
<!-- lot_lot -->
<g id="node4" class="node">
<title>lot_lot</title>
<g id="a_node4"><a xlink:href="../../tables/lot_lot.html" xlink:title="lot_lot" target="_top">
<polygon fill="#ffffff" stroke="none" points="827.5,-228.96 827.5,-643.46 1071.5,-643.46 1071.5,-228.96 827.5,-228.96"/>
<polygon fill="#f5f5f5" stroke="none" points="827.5,-619.96 827.5,-643.46 1071.5,-643.46 1071.5,-619.96 827.5,-619.96"/>
<polygon fill="none" stroke="black" points="827.5,-619.96 827.5,-643.46 1071.5,-643.46 1071.5,-619.96 827.5,-619.96"/>
<text text-anchor="start" x="832.38" y="-629.01" font-family="Helvetica,sans-Serif" font-weight="bold" font-size="11.00">lot_lot</text>
<text text-anchor="start" x="1029.75" y="-628.01" font-family="Helvetica,sans-Serif" font-size="11.00">[table]</text>
<polygon fill="none" stroke="black" points="827.5,-597.96 827.5,-619.96 1071.5,-619.96 1071.5,-597.96 827.5,-597.96"/>
<image xlink:href="../../images/primaryKeys.png" width="11px" height="12px" preserveAspectRatio="xMinYMin meet" x="832.5" y="-614.965"/>
<text text-anchor="start" x="847.5" y="-604.51" font-family="Helvetica,sans-Serif" font-size="11.00">identifier</text>
<polygon fill="#ffffff" stroke="none" points="827.5,-575.96 827.5,-597.96 1071.5,-597.96 1071.5,-575.96 827.5,-575.96"/>
<polygon fill="none" stroke="black" points="827.5,-575.96 827.5,-597.96 1071.5,-597.96 1071.5,-575.96 827.5,-575.96"/>
<text text-anchor="start" x="847.5" y="-582.51" font-family="Helvetica,sans-Serif" font-size="11.00">code</text>
<polygon fill="#ffffff" stroke="none" points="827.5,-553.96 827.5,-575.96 1071.5,-575.96 1071.5,-553.96 827.5,-553.96"/>
<polygon fill="none" stroke="black" points="827.5,-553.96 827.5,-575.96 1071.5,-575.96 1071.5,-553.96 827.5,-553.96"/>
<image xlink:href="../../images/foreignKeys.png" width="11px" height="12px" preserveAspectRatio="xMinYMin meet" x="832.5" y="-570.965"/>
<text text-anchor="start" x="847.5" y="-560.51" font-family="Helvetica,sans-Serif" font-size="11.00">project</text>
<polygon fill="#ffffff" stroke="none" points="827.5,-531.96 827.5,-553.96 1071.5,-553.96 1071.5,-531.96 827.5,-531.96"/>
<polygon fill="none" stroke="black" points="827.5,-531.96 827.5,-553.96 1071.5,-553.96 1071.5,-531.96 827.5,-531.96"/>
<image xlink:href="../../images/foreignKeys.png" width="11px" height="12px" preserveAspectRatio="xMinYMin meet" x="832.5" y="-548.965"/>
<text text-anchor="start" x="847.5" y="-538.51" font-family="Helvetica,sans-Serif" font-size="11.00">active_configuration_ftp</text>
<polygon fill="#ffffff" stroke="none" points="827.5,-509.96 827.5,-531.96 1071.5,-531.96 1071.5,-509.96 827.5,-509.96"/>
<polygon fill="none" stroke="black" points="827.5,-509.96 827.5,-531.96 1071.5,-531.96 1071.5,-509.96 827.5,-509.96"/>
<image xlink:href="../../images/foreignKeys.png" width="11px" height="12px" preserveAspectRatio="xMinYMin meet" x="832.5" y="-526.965"/>
<text text-anchor="start" x="847.5" y="-516.51" font-family="Helvetica,sans-Serif" font-size="11.00">active_configuration_check</text>
<polygon fill="#ffffff" stroke="none" points="827.5,-487.96 827.5,-509.96 1071.5,-509.96 1071.5,-487.96 827.5,-487.96"/>
<polygon fill="none" stroke="black" points="827.5,-487.96 827.5,-509.96 1071.5,-509.96 1071.5,-487.96 827.5,-487.96"/>
<image xlink:href="../../images/foreignKeys.png" width="11px" height="12px" preserveAspectRatio="xMinYMin meet" x="832.5" y="-504.965"/>
<text text-anchor="start" x="847.5" y="-494.51" font-family="Helvetica,sans-Serif" font-size="11.00">provider</text>
<polygon fill="#ffffff" stroke="none" points="827.5,-465.96 827.5,-487.96 1071.5,-487.96 1071.5,-465.96 827.5,-465.96"/>
<polygon fill="none" stroke="black" points="827.5,-465.96 827.5,-487.96 1071.5,-487.96 1071.5,-465.96 827.5,-465.96"/>
<image xlink:href="../../images/foreignKeys.png" width="11px" height="12px" preserveAspectRatio="xMinYMin meet" x="832.5" y="-482.965"/>
<text text-anchor="start" x="847.5" y="-472.51" font-family="Helvetica,sans-Serif" font-size="11.00">collection_omeka</text>
<polygon fill="#ffffff" stroke="none" points="827.5,-443.96 827.5,-465.96 1071.5,-465.96 1071.5,-443.96 827.5,-443.96"/>
<polygon fill="none" stroke="black" points="827.5,-443.96 827.5,-465.96 1071.5,-465.96 1071.5,-443.96 827.5,-443.96"/>
<image xlink:href="../../images/foreignKeys.png" width="11px" height="12px" preserveAspectRatio="xMinYMin meet" x="832.5" y="-460.965"/>
<text text-anchor="start" x="847.5" y="-450.51" font-family="Helvetica,sans-Serif" font-size="11.00">items_omeka</text>
<polygon fill="#ffffff" stroke="none" points="827.5,-421.96 827.5,-443.96 1071.5,-443.96 1071.5,-421.96 827.5,-421.96"/>
<polygon fill="none" stroke="black" points="827.5,-421.96 827.5,-443.96 1071.5,-443.96 1071.5,-421.96 827.5,-421.96"/>
<image xlink:href="../../images/foreignKeys.png" width="11px" height="12px" preserveAspectRatio="xMinYMin meet" x="832.5" y="-438.965"/>
<text text-anchor="start" x="847.5" y="-428.51" font-family="Helvetica,sans-Serif" font-size="11.00">active_configuration_export_ftp</text>
<polygon fill="#ffffff" stroke="none" points="827.5,-399.96 827.5,-421.96 1071.5,-421.96 1071.5,-399.96 827.5,-399.96"/>
<polygon fill="none" stroke="black" points="827.5,-399.96 827.5,-421.96 1071.5,-421.96 1071.5,-399.96 827.5,-399.96"/>
<image xlink:href="../../images/foreignKeys.png" width="11px" height="12px" preserveAspectRatio="xMinYMin meet" x="832.5" y="-416.965"/>
<text text-anchor="start" x="847.5" y="-406.51" font-family="Helvetica,sans-Serif" font-size="11.00">active_ocr_lang</text>
<polygon fill="#ffffff" stroke="none" points="827.5,-377.96 827.5,-399.96 1071.5,-399.96 1071.5,-377.96 827.5,-377.96"/>
<polygon fill="none" stroke="black" points="827.5,-377.96 827.5,-399.96 1071.5,-399.96 1071.5,-377.96 827.5,-377.96"/>
<image xlink:href="../../images/foreignKeys.png" width="11px" height="12px" preserveAspectRatio="xMinYMin meet" x="832.5" y="-394.965"/>
<text text-anchor="start" x="847.5" y="-384.51" font-family="Helvetica,sans-Serif" font-size="11.00">collection_ia</text>
<polygon fill="#ffffff" stroke="none" points="827.5,-355.96 827.5,-377.96 1071.5,-377.96 1071.5,-355.96 827.5,-355.96"/>
<polygon fill="none" stroke="black" points="827.5,-355.96 827.5,-377.96 1071.5,-377.96 1071.5,-355.96 827.5,-355.96"/>
<image xlink:href="../../images/foreignKeys.png" width="11px" height="12px" preserveAspectRatio="xMinYMin meet" x="832.5" y="-372.965"/>
<text text-anchor="start" x="847.5" y="-362.51" font-family="Helvetica,sans-Serif" font-size="11.00">classement_pac</text>
<polygon fill="#ffffff" stroke="none" points="827.5,-333.96 827.5,-355.96 1071.5,-355.96 1071.5,-333.96 827.5,-333.96"/>
<polygon fill="none" stroke="black" points="827.5,-333.96 827.5,-355.96 1071.5,-355.96 1071.5,-333.96 827.5,-333.96"/>
<image xlink:href="../../images/foreignKeys.png" width="11px" height="12px" preserveAspectRatio="xMinYMin meet" x="832.5" y="-350.965"/>
<text text-anchor="start" x="847.5" y="-340.51" font-family="Helvetica,sans-Serif" font-size="11.00">workflow_model</text>
<polygon fill="#ffffff" stroke="none" points="827.5,-311.96 827.5,-333.96 1071.5,-333.96 1071.5,-311.96 827.5,-311.96"/>
<polygon fill="none" stroke="black" points="827.5,-311.96 827.5,-333.96 1071.5,-333.96 1071.5,-311.96 827.5,-311.96"/>
<image xlink:href="../../images/foreignKeys.png" width="11px" height="12px" preserveAspectRatio="xMinYMin meet" x="832.5" y="-328.965"/>
<text text-anchor="start" x="847.5" y="-318.51" font-family="Helvetica,sans-Serif" font-size="11.00">active_format_configuration</text>
<polygon fill="#ffffff" stroke="none" points="827.5,-289.96 827.5,-311.96 1071.5,-311.96 1071.5,-289.96 827.5,-289.96"/>
<polygon fill="none" stroke="black" points="827.5,-289.96 827.5,-311.96 1071.5,-311.96 1071.5,-289.96 827.5,-289.96"/>
<image xlink:href="../../images/foreignKeys.png" width="11px" height="12px" preserveAspectRatio="xMinYMin meet" x="832.5" y="-306.965"/>
<text text-anchor="start" x="847.5" y="-296.51" font-family="Helvetica,sans-Serif" font-size="11.00">omeka_configuration</text>
<polygon fill="#ffffff" stroke="none" points="827.5,-267.96 827.5,-289.96 1071.5,-289.96 1071.5,-267.96 827.5,-267.96"/>
<polygon fill="none" stroke="black" points="827.5,-267.96 827.5,-289.96 1071.5,-289.96 1071.5,-267.96 827.5,-267.96"/>
<image xlink:href="../../images/foreignKeys.png" width="11px" height="12px" preserveAspectRatio="xMinYMin meet" x="832.5" y="-284.965"/>
<text text-anchor="start" x="847.5" y="-274.51" font-family="Helvetica,sans-Serif" font-size="11.00">active_export_ftp_delivery_folder</text>
<polygon fill="none" stroke="black" points="827.5,-248.46 827.5,-267.96 1071.5,-267.96 1071.5,-248.46 827.5,-248.46"/>
<text text-anchor="start" x="830.5" y="-254.51" font-family="Helvetica,sans-Serif" font-size="11.00">...</text>
<polygon fill="#ffffff" stroke="none" points="827.5,-228.96 827.5,-248.46 917.33,-248.46 917.33,-228.96 827.5,-228.96"/>
<polygon fill="none" stroke="black" points="827.5,-228.96 827.5,-248.46 917.33,-248.46 917.33,-228.96 827.5,-228.96"/>
<text text-anchor="start" x="830.5" y="-235.01" font-family="Helvetica,sans-Serif" font-size="11.00">&lt; 14</text>
<polygon fill="#ffffff" stroke="none" points="917.33,-228.96 917.33,-248.46 988.42,-248.46 988.42,-228.96 917.33,-228.96"/>
<polygon fill="none" stroke="black" points="917.33,-228.96 917.33,-248.46 988.42,-248.46 988.42,-228.96 917.33,-228.96"/>
<text text-anchor="start" x="977.92" y="-235.01" font-family="Helvetica,sans-Serif" font-size="11.00"> &#160;</text>
<polygon fill="#ffffff" stroke="none" points="988.42,-228.96 988.42,-248.46 1071.5,-248.46 1071.5,-228.96 988.42,-228.96"/>
<polygon fill="none" stroke="black" points="988.42,-228.96 988.42,-248.46 1071.5,-248.46 1071.5,-228.96 988.42,-228.96"/>
<text text-anchor="start" x="1049" y="-235.01" font-family="Helvetica,sans-Serif" font-size="11.00">4 &gt;</text>
</a>
</g>
</g>
<!-- lot_lot&#45;&gt;conf_delivery_folder -->
<g id="edge5" class="edge">
<title>lot_lot:w&#45;&gt;conf_delivery_folder:e</title>
<path fill="none" stroke="black" d="M810.68,-278.97C665.44,-278.98 623.31,-279.21 470.5,-279.21"/>
<polygon fill="black" stroke="black" points="818.17,-278.97 826.17,-282.56 822.5,-278.96 825.83,-278.96 825.83,-278.96 825.83,-278.96 822.5,-278.96 826.17,-275.36 818.17,-278.97"/>
<ellipse fill="none" stroke="black" cx="813.25" cy="-278.97" rx="3.2" ry="3.2"/>
</g>
<!-- lot_lot&#45;&gt;conf_export_ftp -->
<g id="edge4" class="edge">
<title>lot_lot:w&#45;&gt;conf_export_ftp:e</title>
<path fill="none" stroke="black" d="M811.78,-428.29C796.2,-414.05 814.04,-371.1 786.5,-353.21 677.22,-282.24 320.54,-377.5 200.75,-326.21 178.14,-316.53 185.35,-287.96 160.75,-287.96"/>
<polygon fill="black" stroke="black" points="818.56,-430.44 825.09,-436.29 822.69,-431.75 825.86,-432.76 825.86,-432.76 825.86,-432.76 822.69,-431.75 827.27,-429.43 818.56,-430.44"/>
<ellipse fill="none" stroke="black" cx="813.87" cy="-428.95" rx="3.2" ry="3.2"/>
</g>
<!-- proj_project -->
<g id="node5" class="node">
<title>proj_project</title>
<g id="a_node5"><a xlink:href="../../tables/proj_project.html" xlink:title="proj_project" target="_top">
<polygon fill="#ffffff" stroke="none" points="534.5,-363.96 534.5,-734.46 778.5,-734.46 778.5,-363.96 534.5,-363.96"/>
<polygon fill="#f5f5f5" stroke="none" points="534.5,-710.96 534.5,-734.46 778.5,-734.46 778.5,-710.96 534.5,-710.96"/>
<polygon fill="none" stroke="black" points="534.5,-710.96 534.5,-734.46 778.5,-734.46 778.5,-710.96 534.5,-710.96"/>
<text text-anchor="start" x="539.5" y="-720.01" font-family="Helvetica,sans-Serif" font-weight="bold" font-size="11.00">proj_project</text>
<text text-anchor="start" x="736.75" y="-719.01" font-family="Helvetica,sans-Serif" font-size="11.00">[table]</text>
<polygon fill="none" stroke="black" points="534.5,-688.96 534.5,-710.96 778.5,-710.96 778.5,-688.96 534.5,-688.96"/>
<image xlink:href="../../images/primaryKeys.png" width="11px" height="12px" preserveAspectRatio="xMinYMin meet" x="539.5" y="-705.965"/>
<text text-anchor="start" x="554.5" y="-695.51" font-family="Helvetica,sans-Serif" font-size="11.00">identifier</text>
<polygon fill="#ffffff" stroke="none" points="534.5,-666.96 534.5,-688.96 778.5,-688.96 778.5,-666.96 534.5,-666.96"/>
<polygon fill="none" stroke="black" points="534.5,-666.96 534.5,-688.96 778.5,-688.96 778.5,-666.96 534.5,-666.96"/>
<image xlink:href="../../images/foreignKeys.png" width="11px" height="12px" preserveAspectRatio="xMinYMin meet" x="539.5" y="-683.965"/>
<text text-anchor="start" x="554.5" y="-673.51" font-family="Helvetica,sans-Serif" font-size="11.00">library</text>
<polygon fill="#ffffff" stroke="none" points="534.5,-644.96 534.5,-666.96 778.5,-666.96 778.5,-644.96 534.5,-644.96"/>
<polygon fill="none" stroke="black" points="534.5,-644.96 534.5,-666.96 778.5,-666.96 778.5,-644.96 534.5,-644.96"/>
<image xlink:href="../../images/foreignKeys.png" width="11px" height="12px" preserveAspectRatio="xMinYMin meet" x="539.5" y="-661.965"/>
<text text-anchor="start" x="554.5" y="-651.51" font-family="Helvetica,sans-Serif" font-size="11.00">active_configuration_ftp</text>
<polygon fill="#ffffff" stroke="none" points="534.5,-622.96 534.5,-644.96 778.5,-644.96 778.5,-622.96 534.5,-622.96"/>
<polygon fill="none" stroke="black" points="534.5,-622.96 534.5,-644.96 778.5,-644.96 778.5,-622.96 534.5,-622.96"/>
<image xlink:href="../../images/foreignKeys.png" width="11px" height="12px" preserveAspectRatio="xMinYMin meet" x="539.5" y="-639.965"/>
<text text-anchor="start" x="554.5" y="-629.51" font-family="Helvetica,sans-Serif" font-size="11.00">active_configuration_check</text>
<polygon fill="#ffffff" stroke="none" points="534.5,-600.96 534.5,-622.96 778.5,-622.96 778.5,-600.96 534.5,-600.96"/>
<polygon fill="none" stroke="black" points="534.5,-600.96 534.5,-622.96 778.5,-622.96 778.5,-600.96 534.5,-600.96"/>
<image xlink:href="../../images/foreignKeys.png" width="11px" height="12px" preserveAspectRatio="xMinYMin meet" x="539.5" y="-617.965"/>
<text text-anchor="start" x="554.5" y="-607.51" font-family="Helvetica,sans-Serif" font-size="11.00">provider</text>
<polygon fill="#ffffff" stroke="none" points="534.5,-578.96 534.5,-600.96 778.5,-600.96 778.5,-578.96 534.5,-578.96"/>
<polygon fill="none" stroke="black" points="534.5,-578.96 534.5,-600.96 778.5,-600.96 778.5,-578.96 534.5,-578.96"/>
<image xlink:href="../../images/foreignKeys.png" width="11px" height="12px" preserveAspectRatio="xMinYMin meet" x="539.5" y="-595.965"/>
<text text-anchor="start" x="554.5" y="-585.51" font-family="Helvetica,sans-Serif" font-size="11.00">collection_omeka</text>
<polygon fill="#ffffff" stroke="none" points="534.5,-556.96 534.5,-578.96 778.5,-578.96 778.5,-556.96 534.5,-556.96"/>
<polygon fill="none" stroke="black" points="534.5,-556.96 534.5,-578.96 778.5,-578.96 778.5,-556.96 534.5,-556.96"/>
<image xlink:href="../../images/foreignKeys.png" width="11px" height="12px" preserveAspectRatio="xMinYMin meet" x="539.5" y="-573.965"/>
<text text-anchor="start" x="554.5" y="-563.51" font-family="Helvetica,sans-Serif" font-size="11.00">items_omeka</text>
<polygon fill="#ffffff" stroke="none" points="534.5,-534.96 534.5,-556.96 778.5,-556.96 778.5,-534.96 534.5,-534.96"/>
<polygon fill="none" stroke="black" points="534.5,-534.96 534.5,-556.96 778.5,-556.96 778.5,-534.96 534.5,-534.96"/>
<image xlink:href="../../images/foreignKeys.png" width="11px" height="12px" preserveAspectRatio="xMinYMin meet" x="539.5" y="-551.965"/>
<text text-anchor="start" x="554.5" y="-541.51" font-family="Helvetica,sans-Serif" font-size="11.00">active_configuration_export_ftp</text>
<polygon fill="#ffffff" stroke="none" points="534.5,-512.96 534.5,-534.96 778.5,-534.96 778.5,-512.96 534.5,-512.96"/>
<polygon fill="none" stroke="black" points="534.5,-512.96 534.5,-534.96 778.5,-534.96 778.5,-512.96 534.5,-512.96"/>
<image xlink:href="../../images/foreignKeys.png" width="11px" height="12px" preserveAspectRatio="xMinYMin meet" x="539.5" y="-529.965"/>
<text text-anchor="start" x="554.5" y="-519.51" font-family="Helvetica,sans-Serif" font-size="11.00">collection_ia</text>
<polygon fill="#ffffff" stroke="none" points="534.5,-490.96 534.5,-512.96 778.5,-512.96 778.5,-490.96 534.5,-490.96"/>
<polygon fill="none" stroke="black" points="534.5,-490.96 534.5,-512.96 778.5,-512.96 778.5,-490.96 534.5,-490.96"/>
<image xlink:href="../../images/foreignKeys.png" width="11px" height="12px" preserveAspectRatio="xMinYMin meet" x="539.5" y="-507.965"/>
<text text-anchor="start" x="554.5" y="-497.51" font-family="Helvetica,sans-Serif" font-size="11.00">classement_pac</text>
<polygon fill="#ffffff" stroke="none" points="534.5,-468.96 534.5,-490.96 778.5,-490.96 778.5,-468.96 534.5,-468.96"/>
<polygon fill="none" stroke="black" points="534.5,-468.96 534.5,-490.96 778.5,-490.96 778.5,-468.96 534.5,-468.96"/>
<image xlink:href="../../images/foreignKeys.png" width="11px" height="12px" preserveAspectRatio="xMinYMin meet" x="539.5" y="-485.965"/>
<text text-anchor="start" x="554.5" y="-475.51" font-family="Helvetica,sans-Serif" font-size="11.00">workflow_model</text>
<polygon fill="#ffffff" stroke="none" points="534.5,-446.96 534.5,-468.96 778.5,-468.96 778.5,-446.96 534.5,-446.96"/>
<polygon fill="none" stroke="black" points="534.5,-446.96 534.5,-468.96 778.5,-468.96 778.5,-446.96 534.5,-446.96"/>
<image xlink:href="../../images/foreignKeys.png" width="11px" height="12px" preserveAspectRatio="xMinYMin meet" x="539.5" y="-463.965"/>
<text text-anchor="start" x="554.5" y="-453.51" font-family="Helvetica,sans-Serif" font-size="11.00">active_format_configuration</text>
<polygon fill="#ffffff" stroke="none" points="534.5,-424.96 534.5,-446.96 778.5,-446.96 778.5,-424.96 534.5,-424.96"/>
<polygon fill="none" stroke="black" points="534.5,-424.96 534.5,-446.96 778.5,-446.96 778.5,-424.96 534.5,-424.96"/>
<image xlink:href="../../images/foreignKeys.png" width="11px" height="12px" preserveAspectRatio="xMinYMin meet" x="539.5" y="-441.965"/>
<text text-anchor="start" x="554.5" y="-431.51" font-family="Helvetica,sans-Serif" font-size="11.00">omeka_configuration</text>
<polygon fill="#ffffff" stroke="none" points="534.5,-402.96 534.5,-424.96 778.5,-424.96 778.5,-402.96 534.5,-402.96"/>
<polygon fill="none" stroke="black" points="534.5,-402.96 534.5,-424.96 778.5,-424.96 778.5,-402.96 534.5,-402.96"/>
<image xlink:href="../../images/foreignKeys.png" width="11px" height="12px" preserveAspectRatio="xMinYMin meet" x="539.5" y="-419.965"/>
<text text-anchor="start" x="554.5" y="-409.51" font-family="Helvetica,sans-Serif" font-size="11.00">active_export_ftp_delivery_folder</text>
<polygon fill="none" stroke="black" points="534.5,-383.46 534.5,-402.96 778.5,-402.96 778.5,-383.46 534.5,-383.46"/>
<text text-anchor="start" x="537.5" y="-389.51" font-family="Helvetica,sans-Serif" font-size="11.00">...</text>
<polygon fill="#ffffff" stroke="none" points="534.5,-363.96 534.5,-383.46 624.33,-383.46 624.33,-363.96 534.5,-363.96"/>
<polygon fill="none" stroke="black" points="534.5,-363.96 534.5,-383.46 624.33,-383.46 624.33,-363.96 534.5,-363.96"/>
<text text-anchor="start" x="537.5" y="-370.01" font-family="Helvetica,sans-Serif" font-size="11.00">&lt; 13</text>
<polygon fill="#ffffff" stroke="none" points="624.33,-363.96 624.33,-383.46 695.42,-383.46 695.42,-363.96 624.33,-363.96"/>
<polygon fill="none" stroke="black" points="624.33,-363.96 624.33,-383.46 695.42,-383.46 695.42,-363.96 624.33,-363.96"/>
<text text-anchor="start" x="684.92" y="-370.01" font-family="Helvetica,sans-Serif" font-size="11.00"> &#160;</text>
<polygon fill="#ffffff" stroke="none" points="695.42,-363.96 695.42,-383.46 778.5,-383.46 778.5,-363.96 695.42,-363.96"/>
<polygon fill="none" stroke="black" points="695.42,-363.96 695.42,-383.46 778.5,-383.46 778.5,-363.96 695.42,-363.96"/>
<text text-anchor="start" x="756" y="-370.01" font-family="Helvetica,sans-Serif" font-size="11.00">7 &gt;</text>
</a>
</g>
</g>
<!-- lot_lot&#45;&gt;proj_project -->
<g id="edge6" class="edge">
<title>lot_lot:w&#45;&gt;proj_project:e</title>
<path fill="none" stroke="black" d="M811.29,-568.86C777.75,-590.99 836.58,-699.96 779.5,-699.96"/>
<polygon fill="black" stroke="black" points="818.43,-567.03 827.07,-568.54 822.62,-565.96 825.85,-565.13 825.85,-565.13 825.85,-565.13 822.62,-565.96 825.28,-561.56 818.43,-567.03"/>
<ellipse fill="none" stroke="black" cx="813.66" cy="-568.25" rx="3.2" ry="3.2"/>
</g>
<!-- proj_project&#45;&gt;conf_delivery_folder -->
<g id="edge8" class="edge">
<title>proj_project:w&#45;&gt;conf_delivery_folder:e</title>
<path fill="none" stroke="black" d="M518.25,-410.63C479.18,-389.88 530.41,-279.21 470.5,-279.21"/>
<polygon fill="black" stroke="black" points="525.36,-412.19 532.4,-417.41 529.59,-413.11 532.85,-413.82 532.85,-413.82 532.85,-413.82 529.59,-413.11 533.94,-410.38 525.36,-412.19"/>
<ellipse fill="none" stroke="black" cx="520.55" cy="-411.14" rx="3.2" ry="3.2"/>
</g>
<!-- proj_project&#45;&gt;conf_export_ftp -->
<g id="edge7" class="edge">
<title>proj_project:w&#45;&gt;conf_export_ftp:e</title>
<path fill="none" stroke="black" d="M517.8,-545.74C359.49,-541.12 320.58,-465.41 200.75,-350.21 177.04,-327.42 193.64,-287.96 160.75,-287.96"/>
<polygon fill="black" stroke="black" points="525.17,-545.85 533.11,-549.56 529.5,-545.91 532.83,-545.96 532.83,-545.96 532.83,-545.96 529.5,-545.91 533.22,-542.36 525.17,-545.85"/>
<ellipse fill="none" stroke="black" cx="520.25" cy="-545.78" rx="3.2" ry="3.2"/>
</g>
</g>
</svg>
