<?xml version="1.0" encoding="UTF-8" standalone="no"?>
<!DOCTYPE svg PUBLIC "-//W3C//DTD SVG 1.1//EN"
 "http://www.w3.org/Graphics/SVG/1.1/DTD/svg11.dtd">
<!-- Generated by graphviz version 12.2.0 (0)
 -->
<!-- Title: oneDegreeRelationshipsDiagram Pages: 1 -->
<svg width="634pt" height="318pt"
 viewBox="0.00 0.00 633.50 317.50" xmlns="http://www.w3.org/2000/svg" xmlns:xlink="http://www.w3.org/1999/xlink">
<g id="graph0" class="graph" transform="scale(1 1) rotate(0) translate(4 313.5)">
<title>oneDegreeRelationshipsDiagram</title>
<polygon fill="#ffffff" stroke="none" points="-4,4 -4,-313.5 629.5,-313.5 629.5,4 -4,4"/>
<text text-anchor="middle" x="79.25" y="-7.05" font-family="Helvetica,sans-Serif" font-size="11.00">Generated by SchemaSpy</text>
<!-- conf_automatic_check_rule -->
<g id="node1" class="node">
<title>conf_automatic_check_rule</title>
<g id="a_node1"><a xlink:href="../../tables/conf_automatic_check_rule.html" xlink:title="conf_automatic_check_rule" target="_top">
<polygon fill="#ffffff" stroke="none" points="274.75,-38.5 274.75,-305.5 617.5,-305.5 617.5,-38.5 274.75,-38.5"/>
<polygon fill="#f5f5f5" stroke="none" points="276.75,-280 276.75,-303.5 615.5,-303.5 615.5,-280 276.75,-280"/>
<polygon fill="none" stroke="black" points="276.75,-280 276.75,-303.5 615.5,-303.5 615.5,-280 276.75,-280"/>
<text text-anchor="start" x="281.75" y="-289.05" font-family="Helvetica,sans-Serif" font-weight="bold" font-size="11.00">conf_automatic_check_rule</text>
<text text-anchor="start" x="573.75" y="-288.05" font-family="Helvetica,sans-Serif" font-size="11.00">[table]</text>
<polygon fill="none" stroke="black" points="276.75,-258 276.75,-280 477.75,-280 477.75,-258 276.75,-258"/>
<image xlink:href="../../images/primaryKeys.png" width="11px" height="12px" preserveAspectRatio="xMinYMin meet" x="281.75" y="-275"/>
<text text-anchor="start" x="296.75" y="-264.55" font-family="Helvetica,sans-Serif" font-size="11.00">identifier</text>
<polygon fill="none" stroke="black" points="477.75,-258 477.75,-280 590.5,-280 590.5,-258 477.75,-258"/>
<text text-anchor="start" x="480.75" y="-265.3" font-family="Helvetica,sans-Serif" font-size="11.00">varchar[191]</text>
<polygon fill="none" stroke="black" points="276.75,-236 276.75,-258 477.75,-258 477.75,-236 276.75,-236"/>
<text text-anchor="start" x="296.75" y="-242.55" font-family="Helvetica,sans-Serif" font-size="11.00">active</text>
<polygon fill="none" stroke="black" points="477.75,-236 477.75,-258 590.5,-258 590.5,-236 477.75,-236"/>
<text text-anchor="start" x="480.75" y="-243.3" font-family="Helvetica,sans-Serif" font-size="11.00">bit[1]</text>
<polygon fill="none" stroke="black" points="276.75,-214 276.75,-236 477.75,-236 477.75,-214 276.75,-214"/>
<text text-anchor="start" x="296.75" y="-220.55" font-family="Helvetica,sans-Serif" font-size="11.00">blocking</text>
<polygon fill="none" stroke="black" points="477.75,-214 477.75,-236 590.5,-236 590.5,-214 477.75,-214"/>
<text text-anchor="start" x="480.75" y="-221.3" font-family="Helvetica,sans-Serif" font-size="11.00">bit[1]</text>
<polygon fill="#ffffff" stroke="none" points="276.75,-192 276.75,-214 477.75,-214 477.75,-192 276.75,-192"/>
<polygon fill="none" stroke="black" points="276.75,-192 276.75,-214 477.75,-214 477.75,-192 276.75,-192"/>
<image xlink:href="../../images/foreignKeys.png" width="11px" height="12px" preserveAspectRatio="xMinYMin meet" x="281.75" y="-209"/>
<text text-anchor="start" x="296.75" y="-198.55" font-family="Helvetica,sans-Serif" font-size="11.00">check_configuration</text>
<polygon fill="none" stroke="black" points="477.75,-192 477.75,-214 590.5,-214 590.5,-192 477.75,-192"/>
<text text-anchor="start" x="480.75" y="-199.3" font-family="Helvetica,sans-Serif" font-size="11.00">varchar[191]</text>
<polygon fill="#ffffff" stroke="none" points="276.75,-170 276.75,-192 477.75,-192 477.75,-170 276.75,-170"/>
<polygon fill="none" stroke="black" points="276.75,-170 276.75,-192 477.75,-192 477.75,-170 276.75,-170"/>
<image xlink:href="../../images/foreignKeys.png" width="11px" height="12px" preserveAspectRatio="xMinYMin meet" x="281.75" y="-187"/>
<text text-anchor="start" x="296.75" y="-176.55" font-family="Helvetica,sans-Serif" font-size="11.00">check_type</text>
<polygon fill="none" stroke="black" points="477.75,-170 477.75,-192 590.5,-192 590.5,-170 477.75,-170"/>
<text text-anchor="start" x="480.75" y="-177.3" font-family="Helvetica,sans-Serif" font-size="11.00">varchar[191]</text>
<polygon fill="none" stroke="black" points="276.75,-148 276.75,-170 477.75,-170 477.75,-148 276.75,-148"/>
<text text-anchor="start" x="296.75" y="-154.55" font-family="Helvetica,sans-Serif" font-size="11.00">version</text>
<polygon fill="none" stroke="black" points="477.75,-148 477.75,-170 590.5,-170 590.5,-148 477.75,-148"/>
<text text-anchor="start" x="480.75" y="-155.3" font-family="Helvetica,sans-Serif" font-size="11.00">bigint[19]</text>
<polygon fill="none" stroke="black" points="276.75,-126 276.75,-148 477.75,-148 477.75,-126 276.75,-126"/>
<text text-anchor="start" x="296.75" y="-132.55" font-family="Helvetica,sans-Serif" font-size="11.00">created_by</text>
<polygon fill="none" stroke="black" points="477.75,-126 477.75,-148 590.5,-148 590.5,-126 477.75,-126"/>
<text text-anchor="start" x="480.75" y="-133.3" font-family="Helvetica,sans-Serif" font-size="11.00">varchar[191]</text>
<polygon fill="none" stroke="black" points="276.75,-104 276.75,-126 477.75,-126 477.75,-104 276.75,-104"/>
<text text-anchor="start" x="296.75" y="-110.55" font-family="Helvetica,sans-Serif" font-size="11.00">last_modified_by</text>
<polygon fill="none" stroke="black" points="477.75,-104 477.75,-126 590.5,-126 590.5,-104 477.75,-104"/>
<text text-anchor="start" x="480.75" y="-111.3" font-family="Helvetica,sans-Serif" font-size="11.00">varchar[191]</text>
<polygon fill="none" stroke="black" points="276.75,-82 276.75,-104 477.75,-104 477.75,-82 276.75,-82"/>
<text text-anchor="start" x="296.75" y="-88.55" font-family="Helvetica,sans-Serif" font-size="11.00">created_date</text>
<polygon fill="none" stroke="black" points="477.75,-82 477.75,-104 590.5,-104 590.5,-82 477.75,-82"/>
<text text-anchor="start" x="480.75" y="-89.3" font-family="Helvetica,sans-Serif" font-size="11.00">timestamp[19]</text>
<polygon fill="none" stroke="black" points="276.75,-60 276.75,-82 477.75,-82 477.75,-60 276.75,-60"/>
<text text-anchor="start" x="296.75" y="-66.55" font-family="Helvetica,sans-Serif" font-size="11.00">last_modified_date</text>
<polygon fill="none" stroke="black" points="477.75,-60 477.75,-82 590.5,-82 590.5,-60 477.75,-60"/>
<text text-anchor="start" x="480.75" y="-67.3" font-family="Helvetica,sans-Serif" font-size="11.00">timestamp[19]</text>
<polygon fill="#ffffff" stroke="none" points="276.75,-40.5 276.75,-60 383.25,-60 383.25,-40.5 276.75,-40.5"/>
<polygon fill="none" stroke="black" points="276.75,-40.5 276.75,-60 383.25,-60 383.25,-40.5 276.75,-40.5"/>
<text text-anchor="start" x="279.75" y="-46.55" font-family="Helvetica,sans-Serif" font-size="11.00">&lt; 2</text>
<polygon fill="#ffffff" stroke="none" points="383.25,-40.5 383.25,-60 477.75,-60 477.75,-40.5 383.25,-40.5"/>
<polygon fill="none" stroke="black" points="383.25,-40.5 383.25,-60 477.75,-60 477.75,-40.5 383.25,-40.5"/>
<text text-anchor="start" x="467.25" y="-46.55" font-family="Helvetica,sans-Serif" font-size="11.00"> &#160;</text>
<polygon fill="#ffffff" stroke="none" points="477.75,-40.5 477.75,-60 590.5,-60 590.5,-40.5 477.75,-40.5"/>
<polygon fill="none" stroke="black" points="477.75,-40.5 477.75,-60 590.5,-60 590.5,-40.5 477.75,-40.5"/>
<text text-anchor="start" x="568" y="-46.55" font-family="Helvetica,sans-Serif" font-size="11.00">0 &gt;</text>
<polygon fill="none" stroke="black" stroke-width="2" points="275.75,-39.5 275.75,-304.5 616.5,-304.5 616.5,-39.5 275.75,-39.5"/>
</a>
</g>
</g>
<!-- conf_configuration_check -->
<g id="node2" class="node">
<title>conf_configuration_check</title>
<g id="a_node2"><a xlink:href="../../tables/conf_configuration_check.html" xlink:title="conf_configuration_check" target="_top">
<polygon fill="#ffffff" stroke="none" points="8,-183.75 8,-290.25 225.75,-290.25 225.75,-183.75 8,-183.75"/>
<polygon fill="#f5f5f5" stroke="none" points="8,-266.75 8,-290.25 225.75,-290.25 225.75,-266.75 8,-266.75"/>
<polygon fill="none" stroke="black" points="8,-266.75 8,-290.25 225.75,-290.25 225.75,-266.75 8,-266.75"/>
<text text-anchor="start" x="13" y="-275.8" font-family="Helvetica,sans-Serif" font-weight="bold" font-size="11.00">conf_configuration_check</text>
<text text-anchor="start" x="184" y="-274.8" font-family="Helvetica,sans-Serif" font-size="11.00">[table]</text>
<polygon fill="none" stroke="black" points="8,-244.75 8,-266.75 225.75,-266.75 225.75,-244.75 8,-244.75"/>
<image xlink:href="../../images/primaryKeys.png" width="11px" height="12px" preserveAspectRatio="xMinYMin meet" x="13" y="-261.75"/>
<text text-anchor="start" x="40.88" y="-251.3" font-family="Helvetica,sans-Serif" font-size="11.00">identifier</text>
<polygon fill="#ffffff" stroke="none" points="8,-222.75 8,-244.75 225.75,-244.75 225.75,-222.75 8,-222.75"/>
<polygon fill="none" stroke="black" points="8,-222.75 8,-244.75 225.75,-244.75 225.75,-222.75 8,-222.75"/>
<image xlink:href="../../images/foreignKeys.png" width="11px" height="12px" preserveAspectRatio="xMinYMin meet" x="13" y="-239.75"/>
<text text-anchor="start" x="40.88" y="-229.3" font-family="Helvetica,sans-Serif" font-size="11.00">library</text>
<polygon fill="none" stroke="black" points="8,-203.25 8,-222.75 225.75,-222.75 225.75,-203.25 8,-203.25"/>
<text text-anchor="start" x="11" y="-209.3" font-family="Helvetica,sans-Serif" font-size="11.00">...</text>
<polygon fill="#ffffff" stroke="none" points="8,-183.75 8,-203.25 84.58,-203.25 84.58,-183.75 8,-183.75"/>
<polygon fill="none" stroke="black" points="8,-183.75 8,-203.25 84.58,-203.25 84.58,-183.75 8,-183.75"/>
<text text-anchor="start" x="11" y="-189.8" font-family="Helvetica,sans-Serif" font-size="11.00">&lt; 1</text>
<polygon fill="#ffffff" stroke="none" points="84.58,-183.75 84.58,-203.25 149.17,-203.25 149.17,-183.75 84.58,-183.75"/>
<polygon fill="none" stroke="black" points="84.58,-183.75 84.58,-203.25 149.17,-203.25 149.17,-183.75 84.58,-183.75"/>
<text text-anchor="start" x="138.67" y="-189.8" font-family="Helvetica,sans-Serif" font-size="11.00"> &#160;</text>
<polygon fill="#ffffff" stroke="none" points="149.17,-183.75 149.17,-203.25 225.75,-203.25 225.75,-183.75 149.17,-183.75"/>
<polygon fill="none" stroke="black" points="149.17,-183.75 149.17,-203.25 225.75,-203.25 225.75,-183.75 149.17,-183.75"/>
<text text-anchor="start" x="203.25" y="-189.8" font-family="Helvetica,sans-Serif" font-size="11.00">4 &gt;</text>
</a>
</g>
</g>
<!-- conf_automatic_check_rule&#45;&gt;conf_configuration_check -->
<g id="edge1" class="edge">
<title>conf_automatic_check_rule:w&#45;&gt;conf_configuration_check:e</title>
<path fill="none" stroke="black" d="M261.28,-208.65C247.9,-222.25 252.25,-255.75 226.75,-255.75"/>
<polygon fill="black" stroke="black" points="267.99,-206.03 276.75,-206.48 272.02,-204.45 275.13,-203.24 275.13,-203.24 275.13,-203.24 272.02,-204.45 274.13,-199.77 267.99,-206.03"/>
<ellipse fill="none" stroke="black" cx="263.4" cy="-207.82" rx="3.2" ry="3.2"/>
</g>
<!-- check_automatic_type -->
<g id="node3" class="node">
<title>check_automatic_type</title>
<g id="a_node3"><a xlink:href="../../tables/check_automatic_type.html" xlink:title="check_automatic_type" target="_top">
<polygon fill="#ffffff" stroke="none" points="19,-77.75 19,-162.25 214.75,-162.25 214.75,-77.75 19,-77.75"/>
<polygon fill="#f5f5f5" stroke="none" points="19,-138.75 19,-162.25 214.75,-162.25 214.75,-138.75 19,-138.75"/>
<polygon fill="none" stroke="black" points="19,-138.75 19,-162.25 214.75,-162.25 214.75,-138.75 19,-138.75"/>
<text text-anchor="start" x="24" y="-147.8" font-family="Helvetica,sans-Serif" font-weight="bold" font-size="11.00">check_automatic_type</text>
<text text-anchor="start" x="173" y="-146.8" font-family="Helvetica,sans-Serif" font-size="11.00">[table]</text>
<polygon fill="none" stroke="black" points="19,-116.75 19,-138.75 214.75,-138.75 214.75,-116.75 19,-116.75"/>
<image xlink:href="../../images/primaryKeys.png" width="11px" height="12px" preserveAspectRatio="xMinYMin meet" x="24" y="-133.75"/>
<text text-anchor="start" x="51.88" y="-123.3" font-family="Helvetica,sans-Serif" font-size="11.00">identifier</text>
<polygon fill="none" stroke="black" points="19,-97.25 19,-116.75 214.75,-116.75 214.75,-97.25 19,-97.25"/>
<text text-anchor="start" x="22" y="-103.3" font-family="Helvetica,sans-Serif" font-size="11.00">...</text>
<polygon fill="#ffffff" stroke="none" points="19,-77.75 19,-97.25 80.25,-97.25 80.25,-77.75 19,-77.75"/>
<polygon fill="none" stroke="black" points="19,-77.75 19,-97.25 80.25,-97.25 80.25,-77.75 19,-77.75"/>
<text text-anchor="start" x="22" y="-83.8" font-family="Helvetica,sans-Serif" font-size="11.00"> &#160;</text>
<polygon fill="#ffffff" stroke="none" points="80.25,-77.75 80.25,-97.25 141.5,-97.25 141.5,-77.75 80.25,-77.75"/>
<polygon fill="none" stroke="black" points="80.25,-77.75 80.25,-97.25 141.5,-97.25 141.5,-77.75 80.25,-77.75"/>
<text text-anchor="start" x="131" y="-83.8" font-family="Helvetica,sans-Serif" font-size="11.00"> &#160;</text>
<polygon fill="#ffffff" stroke="none" points="141.5,-77.75 141.5,-97.25 214.75,-97.25 214.75,-77.75 141.5,-77.75"/>
<polygon fill="none" stroke="black" points="141.5,-77.75 141.5,-97.25 214.75,-97.25 214.75,-77.75 141.5,-77.75"/>
<text text-anchor="start" x="192.25" y="-83.8" font-family="Helvetica,sans-Serif" font-size="11.00">2 &gt;</text>
</a>
</g>
</g>
<!-- conf_automatic_check_rule&#45;&gt;check_automatic_type -->
<g id="edge2" class="edge">
<title>conf_automatic_check_rule:w&#45;&gt;check_automatic_type:e</title>
<path fill="none" stroke="black" d="M260.79,-176.64C242.62,-163.92 245.14,-127.75 215.75,-127.75"/>
<polygon fill="black" stroke="black" points="267.75,-178.67 274.42,-184.36 271.91,-179.88 275.11,-180.81 275.11,-180.81 275.11,-180.81 271.91,-179.88 276.44,-177.45 267.75,-178.67"/>
<ellipse fill="none" stroke="black" cx="263.03" cy="-177.29" rx="3.2" ry="3.2"/>
</g>
</g>
</svg>
