<?xml version="1.0" encoding="UTF-8" standalone="no"?>
<!DOCTYPE svg PUBLIC "-//W3C//DTD SVG 1.1//EN"
 "http://www.w3.org/Graphics/SVG/1.1/DTD/svg11.dtd">
<!-- Generated by graphviz version 12.2.0 (0)
 -->
<!-- Title: oneDegreeRelationshipsDiagram Pages: 1 -->
<svg width="1230pt" height="654pt"
 viewBox="0.00 0.00 1230.03 654.25" xmlns="http://www.w3.org/2000/svg" xmlns:xlink="http://www.w3.org/1999/xlink">
<g id="graph0" class="graph" transform="scale(1 1) rotate(0) translate(4 650.25)">
<title>oneDegreeRelationshipsDiagram</title>
<polygon fill="#ffffff" stroke="none" points="-4,4 -4,-650.25 1226.03,-650.25 1226.03,4 -4,4"/>
<text text-anchor="middle" x="79.25" y="-7.05" font-family="Helvetica,sans-Serif" font-size="11.00">Generated by SchemaSpy</text>
<!-- conf_automatic_check_rule -->
<g id="node1" class="node">
<title>conf_automatic_check_rule</title>
<g id="a_node1"><a xlink:href="../../tables/conf_automatic_check_rule.html" xlink:title="conf_automatic_check_rule" target="_top">
<polygon fill="#ffffff" stroke="none" points="685.65,-121.75 685.65,-250.25 912.4,-250.25 912.4,-121.75 685.65,-121.75"/>
<polygon fill="#f5f5f5" stroke="none" points="685.65,-226.75 685.65,-250.25 912.4,-250.25 912.4,-226.75 685.65,-226.75"/>
<polygon fill="none" stroke="black" points="685.65,-226.75 685.65,-250.25 912.4,-250.25 912.4,-226.75 685.65,-226.75"/>
<text text-anchor="start" x="690.65" y="-235.8" font-family="Helvetica,sans-Serif" font-weight="bold" font-size="11.00">conf_automatic_check_rule</text>
<text text-anchor="start" x="870.65" y="-234.8" font-family="Helvetica,sans-Serif" font-size="11.00">[table]</text>
<polygon fill="none" stroke="black" points="685.65,-204.75 685.65,-226.75 912.4,-226.75 912.4,-204.75 685.65,-204.75"/>
<image xlink:href="../../images/primaryKeys.png" width="11px" height="12px" preserveAspectRatio="xMinYMin meet" x="690.652" y="-221.75"/>
<text text-anchor="start" x="718.53" y="-211.3" font-family="Helvetica,sans-Serif" font-size="11.00">identifier</text>
<polygon fill="#ffffff" stroke="none" points="685.65,-182.75 685.65,-204.75 912.4,-204.75 912.4,-182.75 685.65,-182.75"/>
<polygon fill="none" stroke="black" points="685.65,-182.75 685.65,-204.75 912.4,-204.75 912.4,-182.75 685.65,-182.75"/>
<image xlink:href="../../images/foreignKeys.png" width="11px" height="12px" preserveAspectRatio="xMinYMin meet" x="690.652" y="-199.75"/>
<text text-anchor="start" x="718.53" y="-189.3" font-family="Helvetica,sans-Serif" font-size="11.00">check_configuration</text>
<polygon fill="#ffffff" stroke="none" points="685.65,-160.75 685.65,-182.75 912.4,-182.75 912.4,-160.75 685.65,-160.75"/>
<polygon fill="none" stroke="black" points="685.65,-160.75 685.65,-182.75 912.4,-182.75 912.4,-160.75 685.65,-160.75"/>
<image xlink:href="../../images/foreignKeys.png" width="11px" height="12px" preserveAspectRatio="xMinYMin meet" x="690.652" y="-177.75"/>
<text text-anchor="start" x="718.53" y="-167.3" font-family="Helvetica,sans-Serif" font-size="11.00">check_type</text>
<polygon fill="none" stroke="black" points="685.65,-141.25 685.65,-160.75 912.4,-160.75 912.4,-141.25 685.65,-141.25"/>
<text text-anchor="start" x="688.65" y="-147.3" font-family="Helvetica,sans-Serif" font-size="11.00">...</text>
<polygon fill="#ffffff" stroke="none" points="685.65,-121.75 685.65,-141.25 769.24,-141.25 769.24,-121.75 685.65,-121.75"/>
<polygon fill="none" stroke="black" points="685.65,-121.75 685.65,-141.25 769.24,-141.25 769.24,-121.75 685.65,-121.75"/>
<text text-anchor="start" x="688.65" y="-127.8" font-family="Helvetica,sans-Serif" font-size="11.00">&lt; 2</text>
<polygon fill="#ffffff" stroke="none" points="769.24,-121.75 769.24,-141.25 840.82,-141.25 840.82,-121.75 769.24,-121.75"/>
<polygon fill="none" stroke="black" points="769.24,-121.75 769.24,-141.25 840.82,-141.25 840.82,-121.75 769.24,-121.75"/>
<text text-anchor="start" x="830.32" y="-127.8" font-family="Helvetica,sans-Serif" font-size="11.00"> &#160;</text>
<polygon fill="#ffffff" stroke="none" points="840.82,-121.75 840.82,-141.25 912.4,-141.25 912.4,-121.75 840.82,-121.75"/>
<polygon fill="none" stroke="black" points="840.82,-121.75 840.82,-141.25 912.4,-141.25 912.4,-121.75 840.82,-121.75"/>
<text text-anchor="start" x="901.9" y="-127.8" font-family="Helvetica,sans-Serif" font-size="11.00"> &#160;</text>
</a>
</g>
</g>
<!-- conf_configuration_check -->
<g id="node2" class="node">
<title>conf_configuration_check</title>
<g id="a_node2"><a xlink:href="../../tables/conf_configuration_check.html" xlink:title="conf_configuration_check" target="_top">
<polygon fill="#ffffff" stroke="none" points="298.78,-38.5 298.78,-393.5 628.03,-393.5 628.03,-38.5 298.78,-38.5"/>
<polygon fill="#f5f5f5" stroke="none" points="300.78,-368 300.78,-391.5 626.03,-391.5 626.03,-368 300.78,-368"/>
<polygon fill="none" stroke="black" points="300.78,-368 300.78,-391.5 626.03,-391.5 626.03,-368 300.78,-368"/>
<text text-anchor="start" x="305.78" y="-377.05" font-family="Helvetica,sans-Serif" font-weight="bold" font-size="11.00">conf_configuration_check</text>
<text text-anchor="start" x="584.28" y="-376.05" font-family="Helvetica,sans-Serif" font-size="11.00">[table]</text>
<polygon fill="none" stroke="black" points="300.78,-346 300.78,-368 492.78,-368 492.78,-346 300.78,-346"/>
<image xlink:href="../../images/primaryKeys.png" width="11px" height="12px" preserveAspectRatio="xMinYMin meet" x="305.777" y="-363"/>
<text text-anchor="start" x="320.78" y="-352.55" font-family="Helvetica,sans-Serif" font-size="11.00">identifier</text>
<polygon fill="none" stroke="black" points="492.78,-346 492.78,-368 603.28,-368 603.28,-346 492.78,-346"/>
<text text-anchor="start" x="495.78" y="-353.3" font-family="Helvetica,sans-Serif" font-size="11.00">varchar[191]</text>
<polygon fill="none" stroke="black" points="300.78,-324 300.78,-346 492.78,-346 492.78,-324 300.78,-324"/>
<text text-anchor="start" x="320.78" y="-330.55" font-family="Helvetica,sans-Serif" font-size="11.00">label</text>
<polygon fill="none" stroke="black" points="492.78,-324 492.78,-346 603.28,-346 603.28,-324 492.78,-324"/>
<text text-anchor="start" x="495.78" y="-331.3" font-family="Helvetica,sans-Serif" font-size="11.00">varchar[191]</text>
<polygon fill="none" stroke="black" points="300.78,-302 300.78,-324 492.78,-324 492.78,-302 300.78,-302"/>
<text text-anchor="start" x="320.78" y="-308.55" font-family="Helvetica,sans-Serif" font-size="11.00">major_error_rate</text>
<polygon fill="none" stroke="black" points="492.78,-302 492.78,-324 603.28,-324 603.28,-302 492.78,-302"/>
<text text-anchor="start" x="495.78" y="-309.3" font-family="Helvetica,sans-Serif" font-size="11.00">double[22]</text>
<polygon fill="none" stroke="black" points="300.78,-280 300.78,-302 492.78,-302 492.78,-280 300.78,-280"/>
<text text-anchor="start" x="320.78" y="-286.55" font-family="Helvetica,sans-Serif" font-size="11.00">minor_error_rate</text>
<polygon fill="none" stroke="black" points="492.78,-280 492.78,-302 603.28,-302 603.28,-280 492.78,-280"/>
<text text-anchor="start" x="495.78" y="-287.3" font-family="Helvetica,sans-Serif" font-size="11.00">double[22]</text>
<polygon fill="none" stroke="black" points="300.78,-258 300.78,-280 492.78,-280 492.78,-258 300.78,-258"/>
<text text-anchor="start" x="320.78" y="-264.55" font-family="Helvetica,sans-Serif" font-size="11.00">sample_rate</text>
<polygon fill="none" stroke="black" points="492.78,-258 492.78,-280 603.28,-280 603.28,-258 492.78,-258"/>
<text text-anchor="start" x="495.78" y="-265.3" font-family="Helvetica,sans-Serif" font-size="11.00">double[22]</text>
<polygon fill="#ffffff" stroke="none" points="300.78,-236 300.78,-258 492.78,-258 492.78,-236 300.78,-236"/>
<polygon fill="none" stroke="black" points="300.78,-236 300.78,-258 492.78,-258 492.78,-236 300.78,-236"/>
<image xlink:href="../../images/foreignKeys.png" width="11px" height="12px" preserveAspectRatio="xMinYMin meet" x="305.777" y="-253"/>
<text text-anchor="start" x="320.78" y="-242.55" font-family="Helvetica,sans-Serif" font-size="11.00">library</text>
<polygon fill="none" stroke="black" points="492.78,-236 492.78,-258 603.28,-258 603.28,-236 492.78,-236"/>
<text text-anchor="start" x="495.78" y="-243.3" font-family="Helvetica,sans-Serif" font-size="11.00">varchar[191]</text>
<polygon fill="none" stroke="black" points="300.78,-214 300.78,-236 492.78,-236 492.78,-214 300.78,-214"/>
<text text-anchor="start" x="320.78" y="-220.55" font-family="Helvetica,sans-Serif" font-size="11.00">version</text>
<polygon fill="none" stroke="black" points="492.78,-214 492.78,-236 603.28,-236 603.28,-214 492.78,-214"/>
<text text-anchor="start" x="495.78" y="-221.3" font-family="Helvetica,sans-Serif" font-size="11.00">bigint[19]</text>
<polygon fill="none" stroke="black" points="300.78,-192 300.78,-214 492.78,-214 492.78,-192 300.78,-192"/>
<text text-anchor="start" x="320.78" y="-198.55" font-family="Helvetica,sans-Serif" font-size="11.00">created_by</text>
<polygon fill="none" stroke="black" points="492.78,-192 492.78,-214 603.28,-214 603.28,-192 492.78,-192"/>
<text text-anchor="start" x="495.78" y="-199.3" font-family="Helvetica,sans-Serif" font-size="11.00">varchar[191]</text>
<polygon fill="none" stroke="black" points="300.78,-170 300.78,-192 492.78,-192 492.78,-170 300.78,-170"/>
<text text-anchor="start" x="320.78" y="-176.55" font-family="Helvetica,sans-Serif" font-size="11.00">last_modified_by</text>
<polygon fill="none" stroke="black" points="492.78,-170 492.78,-192 603.28,-192 603.28,-170 492.78,-170"/>
<text text-anchor="start" x="495.78" y="-177.3" font-family="Helvetica,sans-Serif" font-size="11.00">varchar[191]</text>
<polygon fill="none" stroke="black" points="300.78,-148 300.78,-170 492.78,-170 492.78,-148 300.78,-148"/>
<text text-anchor="start" x="320.78" y="-154.55" font-family="Helvetica,sans-Serif" font-size="11.00">created_date</text>
<polygon fill="none" stroke="black" points="492.78,-148 492.78,-170 603.28,-170 603.28,-148 492.78,-148"/>
<text text-anchor="start" x="495.78" y="-155.3" font-family="Helvetica,sans-Serif" font-size="11.00">timestamp[19]</text>
<polygon fill="none" stroke="black" points="300.78,-126 300.78,-148 492.78,-148 492.78,-126 300.78,-126"/>
<text text-anchor="start" x="320.78" y="-132.55" font-family="Helvetica,sans-Serif" font-size="11.00">last_modified_date</text>
<polygon fill="none" stroke="black" points="492.78,-126 492.78,-148 603.28,-148 603.28,-126 492.78,-126"/>
<text text-anchor="start" x="495.78" y="-133.3" font-family="Helvetica,sans-Serif" font-size="11.00">timestamp[19]</text>
<polygon fill="none" stroke="black" points="300.78,-104 300.78,-126 492.78,-126 492.78,-104 300.78,-104"/>
<text text-anchor="start" x="320.78" y="-110.55" font-family="Helvetica,sans-Serif" font-size="11.00">definition_error_rate</text>
<polygon fill="none" stroke="black" points="492.78,-104 492.78,-126 603.28,-126 603.28,-104 492.78,-104"/>
<text text-anchor="start" x="495.78" y="-111.3" font-family="Helvetica,sans-Serif" font-size="11.00">double[22]</text>
<polygon fill="none" stroke="black" points="300.78,-82 300.78,-104 492.78,-104 492.78,-82 300.78,-82"/>
<text text-anchor="start" x="320.78" y="-88.55" font-family="Helvetica,sans-Serif" font-size="11.00">separators</text>
<polygon fill="none" stroke="black" points="492.78,-82 492.78,-104 603.28,-104 603.28,-82 492.78,-82"/>
<text text-anchor="start" x="495.78" y="-89.3" font-family="Helvetica,sans-Serif" font-size="11.00">varchar[255]</text>
<polygon fill="none" stroke="black" points="300.78,-60 300.78,-82 492.78,-82 492.78,-60 300.78,-60"/>
<text text-anchor="start" x="320.78" y="-66.55" font-family="Helvetica,sans-Serif" font-size="11.00">sample_mode</text>
<polygon fill="none" stroke="black" points="492.78,-60 492.78,-82 603.28,-82 603.28,-60 492.78,-60"/>
<text text-anchor="start" x="495.78" y="-67.3" font-family="Helvetica,sans-Serif" font-size="11.00">varchar[191]</text>
<polygon fill="#ffffff" stroke="none" points="300.78,-40.5 300.78,-60 402.78,-60 402.78,-40.5 300.78,-40.5"/>
<polygon fill="none" stroke="black" points="300.78,-40.5 300.78,-60 402.78,-60 402.78,-40.5 300.78,-40.5"/>
<text text-anchor="start" x="303.78" y="-46.55" font-family="Helvetica,sans-Serif" font-size="11.00">&lt; 1</text>
<polygon fill="#ffffff" stroke="none" points="402.78,-40.5 402.78,-60 492.78,-60 492.78,-40.5 402.78,-40.5"/>
<polygon fill="none" stroke="black" points="402.78,-40.5 402.78,-60 492.78,-60 492.78,-40.5 402.78,-40.5"/>
<text text-anchor="start" x="482.28" y="-46.55" font-family="Helvetica,sans-Serif" font-size="11.00"> &#160;</text>
<polygon fill="#ffffff" stroke="none" points="492.78,-40.5 492.78,-60 603.28,-60 603.28,-40.5 492.78,-40.5"/>
<polygon fill="none" stroke="black" points="492.78,-40.5 492.78,-60 603.28,-60 603.28,-40.5 492.78,-40.5"/>
<text text-anchor="start" x="580.78" y="-46.55" font-family="Helvetica,sans-Serif" font-size="11.00">4 &gt;</text>
<polygon fill="none" stroke="black" stroke-width="2" points="299.78,-39.5 299.78,-392.5 627.03,-392.5 627.03,-39.5 299.78,-39.5"/>
</a>
</g>
</g>
<!-- conf_automatic_check_rule&#45;&gt;conf_configuration_check -->
<g id="edge1" class="edge">
<title>conf_automatic_check_rule:w&#45;&gt;conf_configuration_check:e</title>
<path fill="none" stroke="black" d="M669.19,-196.31C614.96,-217.08 679.15,-357 604.28,-357"/>
<polygon fill="black" stroke="black" points="676.43,-195.11 684.91,-197.36 680.71,-194.4 683.99,-193.86 683.99,-193.86 683.99,-193.86 680.71,-194.4 683.73,-190.25 676.43,-195.11"/>
<ellipse fill="none" stroke="black" cx="671.58" cy="-195.92" rx="3.2" ry="3.2"/>
</g>
<!-- lib_library -->
<g id="node3" class="node">
<title>lib_library</title>
<g id="a_node3"><a xlink:href="../../tables/lib_library.html" xlink:title="lib_library" target="_top">
<polygon fill="#ffffff" stroke="none" points="15.78,-240.75 15.78,-457.25 249.78,-457.25 249.78,-240.75 15.78,-240.75"/>
<polygon fill="#f5f5f5" stroke="none" points="15.78,-433.75 15.78,-457.25 249.78,-457.25 249.78,-433.75 15.78,-433.75"/>
<polygon fill="none" stroke="black" points="15.78,-433.75 15.78,-457.25 249.78,-457.25 249.78,-433.75 15.78,-433.75"/>
<text text-anchor="start" x="20.78" y="-442.8" font-family="Helvetica,sans-Serif" font-weight="bold" font-size="11.00">lib_library</text>
<text text-anchor="start" x="208.03" y="-441.8" font-family="Helvetica,sans-Serif" font-size="11.00">[table]</text>
<polygon fill="none" stroke="black" points="15.78,-411.75 15.78,-433.75 249.78,-433.75 249.78,-411.75 15.78,-411.75"/>
<image xlink:href="../../images/primaryKeys.png" width="11px" height="12px" preserveAspectRatio="xMinYMin meet" x="20.777" y="-428.75"/>
<text text-anchor="start" x="35.78" y="-418.3" font-family="Helvetica,sans-Serif" font-size="11.00">identifier</text>
<polygon fill="#ffffff" stroke="none" points="15.78,-389.75 15.78,-411.75 249.78,-411.75 249.78,-389.75 15.78,-389.75"/>
<polygon fill="none" stroke="black" points="15.78,-389.75 15.78,-411.75 249.78,-411.75 249.78,-389.75 15.78,-389.75"/>
<image xlink:href="../../images/foreignKeys.png" width="11px" height="12px" preserveAspectRatio="xMinYMin meet" x="20.777" y="-406.75"/>
<text text-anchor="start" x="35.78" y="-396.3" font-family="Helvetica,sans-Serif" font-size="11.00">address</text>
<polygon fill="#ffffff" stroke="none" points="15.78,-367.75 15.78,-389.75 249.78,-389.75 249.78,-367.75 15.78,-367.75"/>
<polygon fill="none" stroke="black" points="15.78,-367.75 15.78,-389.75 249.78,-389.75 249.78,-367.75 15.78,-367.75"/>
<image xlink:href="../../images/foreignKeys.png" width="11px" height="12px" preserveAspectRatio="xMinYMin meet" x="20.777" y="-384.75"/>
<text text-anchor="start" x="35.78" y="-374.3" font-family="Helvetica,sans-Serif" font-size="11.00">active_configuration_ftp</text>
<polygon fill="#ffffff" stroke="none" points="15.78,-345.75 15.78,-367.75 249.78,-367.75 249.78,-345.75 15.78,-345.75"/>
<polygon fill="none" stroke="black" points="15.78,-345.75 15.78,-367.75 249.78,-367.75 249.78,-345.75 15.78,-345.75"/>
<image xlink:href="../../images/foreignKeys.png" width="11px" height="12px" preserveAspectRatio="xMinYMin meet" x="20.777" y="-362.75"/>
<text text-anchor="start" x="35.78" y="-352.3" font-family="Helvetica,sans-Serif" font-size="11.00">active_configuration_check</text>
<polygon fill="#ffffff" stroke="none" points="15.78,-323.75 15.78,-345.75 249.78,-345.75 249.78,-323.75 15.78,-323.75"/>
<polygon fill="none" stroke="black" points="15.78,-323.75 15.78,-345.75 249.78,-345.75 249.78,-323.75 15.78,-323.75"/>
<image xlink:href="../../images/foreignKeys.png" width="11px" height="12px" preserveAspectRatio="xMinYMin meet" x="20.777" y="-340.75"/>
<text text-anchor="start" x="35.78" y="-330.3" font-family="Helvetica,sans-Serif" font-size="11.00">role</text>
<polygon fill="#ffffff" stroke="none" points="15.78,-301.75 15.78,-323.75 249.78,-323.75 249.78,-301.75 15.78,-301.75"/>
<polygon fill="none" stroke="black" points="15.78,-301.75 15.78,-323.75 249.78,-323.75 249.78,-301.75 15.78,-301.75"/>
<image xlink:href="../../images/foreignKeys.png" width="11px" height="12px" preserveAspectRatio="xMinYMin meet" x="20.777" y="-318.75"/>
<text text-anchor="start" x="35.78" y="-308.3" font-family="Helvetica,sans-Serif" font-size="11.00">active_configuration_export_ftp</text>
<polygon fill="#ffffff" stroke="none" points="15.78,-279.75 15.78,-301.75 249.78,-301.75 249.78,-279.75 15.78,-279.75"/>
<polygon fill="none" stroke="black" points="15.78,-279.75 15.78,-301.75 249.78,-301.75 249.78,-279.75 15.78,-279.75"/>
<image xlink:href="../../images/foreignKeys.png" width="11px" height="12px" preserveAspectRatio="xMinYMin meet" x="20.777" y="-296.75"/>
<text text-anchor="start" x="35.78" y="-286.3" font-family="Helvetica,sans-Serif" font-size="11.00">active_configuration_ocr_lang</text>
<polygon fill="none" stroke="black" points="15.78,-260.25 15.78,-279.75 249.78,-279.75 249.78,-260.25 15.78,-260.25"/>
<text text-anchor="start" x="18.78" y="-266.3" font-family="Helvetica,sans-Serif" font-size="11.00">...</text>
<polygon fill="#ffffff" stroke="none" points="15.78,-240.75 15.78,-260.25 95.53,-260.25 95.53,-240.75 15.78,-240.75"/>
<polygon fill="none" stroke="black" points="15.78,-240.75 15.78,-260.25 95.53,-260.25 95.53,-240.75 15.78,-240.75"/>
<text text-anchor="start" x="18.78" y="-246.8" font-family="Helvetica,sans-Serif" font-size="11.00">&lt; 6</text>
<polygon fill="#ffffff" stroke="none" points="95.53,-240.75 95.53,-260.25 163.28,-260.25 163.28,-240.75 95.53,-240.75"/>
<polygon fill="none" stroke="black" points="95.53,-240.75 95.53,-260.25 163.28,-260.25 163.28,-240.75 95.53,-240.75"/>
<text text-anchor="start" x="152.78" y="-246.8" font-family="Helvetica,sans-Serif" font-size="11.00"> &#160;</text>
<polygon fill="#ffffff" stroke="none" points="163.28,-240.75 163.28,-260.25 249.78,-260.25 249.78,-240.75 163.28,-240.75"/>
<polygon fill="none" stroke="black" points="163.28,-240.75 163.28,-260.25 249.78,-260.25 249.78,-240.75 163.28,-240.75"/>
<text text-anchor="start" x="220.53" y="-246.8" font-family="Helvetica,sans-Serif" font-size="11.00">27 &gt;</text>
</a>
</g>
</g>
<!-- conf_configuration_check&#45;&gt;lib_library -->
<g id="edge2" class="edge">
<title>conf_configuration_check:w&#45;&gt;lib_library:e</title>
<path fill="none" stroke="black" d="M284.46,-249.9C234.8,-272.75 325.69,-422.75 250.78,-422.75"/>
<polygon fill="black" stroke="black" points="291.59,-248.55 300.12,-250.6 295.85,-247.74 299.12,-247.12 299.12,-247.12 299.12,-247.12 295.85,-247.74 298.78,-243.53 291.59,-248.55"/>
<ellipse fill="none" stroke="black" cx="286.76" cy="-249.47" rx="3.2" ry="3.2"/>
</g>
<!-- lib_library&#45;&gt;conf_configuration_check -->
<g id="edge3" class="edge">
<title>lib_library:w&#45;&gt;conf_configuration_check:e</title>
<path fill="none" stroke="black" d="M3.75,-367.73C-4.65,-391.88 2.89,-448.48 15.78,-461.25 92.19,-536.94 151.38,-477 257.78,-461.25 277.56,-458.32 622.27,-357 602.28,-357"/>
<polygon fill="black" stroke="black" points="8.87,-362.63 17.08,-359.54 11.94,-359.57 14.3,-357.22 14.3,-357.22 14.3,-357.22 11.94,-359.57 12,-354.43 8.87,-362.63"/>
<ellipse fill="none" stroke="black" cx="5.38" cy="-366.1" rx="3.2" ry="3.2"/>
</g>
<!-- lot_lot -->
<g id="node4" class="node">
<title>lot_lot</title>
<g id="a_node4"><a xlink:href="../../tables/lot_lot.html" xlink:title="lot_lot" target="_top">
<polygon fill="#ffffff" stroke="none" points="970.03,-38.75 970.03,-453.25 1214.03,-453.25 1214.03,-38.75 970.03,-38.75"/>
<polygon fill="#f5f5f5" stroke="none" points="970.03,-429.75 970.03,-453.25 1214.03,-453.25 1214.03,-429.75 970.03,-429.75"/>
<polygon fill="none" stroke="black" points="970.03,-429.75 970.03,-453.25 1214.03,-453.25 1214.03,-429.75 970.03,-429.75"/>
<text text-anchor="start" x="974.9" y="-438.8" font-family="Helvetica,sans-Serif" font-weight="bold" font-size="11.00">lot_lot</text>
<text text-anchor="start" x="1172.28" y="-437.8" font-family="Helvetica,sans-Serif" font-size="11.00">[table]</text>
<polygon fill="none" stroke="black" points="970.03,-407.75 970.03,-429.75 1214.03,-429.75 1214.03,-407.75 970.03,-407.75"/>
<image xlink:href="../../images/primaryKeys.png" width="11px" height="12px" preserveAspectRatio="xMinYMin meet" x="975.027" y="-424.75"/>
<text text-anchor="start" x="990.03" y="-414.3" font-family="Helvetica,sans-Serif" font-size="11.00">identifier</text>
<polygon fill="#ffffff" stroke="none" points="970.03,-385.75 970.03,-407.75 1214.03,-407.75 1214.03,-385.75 970.03,-385.75"/>
<polygon fill="none" stroke="black" points="970.03,-385.75 970.03,-407.75 1214.03,-407.75 1214.03,-385.75 970.03,-385.75"/>
<text text-anchor="start" x="990.03" y="-392.3" font-family="Helvetica,sans-Serif" font-size="11.00">code</text>
<polygon fill="#ffffff" stroke="none" points="970.03,-363.75 970.03,-385.75 1214.03,-385.75 1214.03,-363.75 970.03,-363.75"/>
<polygon fill="none" stroke="black" points="970.03,-363.75 970.03,-385.75 1214.03,-385.75 1214.03,-363.75 970.03,-363.75"/>
<image xlink:href="../../images/foreignKeys.png" width="11px" height="12px" preserveAspectRatio="xMinYMin meet" x="975.027" y="-380.75"/>
<text text-anchor="start" x="990.03" y="-370.3" font-family="Helvetica,sans-Serif" font-size="11.00">project</text>
<polygon fill="#ffffff" stroke="none" points="970.03,-341.75 970.03,-363.75 1214.03,-363.75 1214.03,-341.75 970.03,-341.75"/>
<polygon fill="none" stroke="black" points="970.03,-341.75 970.03,-363.75 1214.03,-363.75 1214.03,-341.75 970.03,-341.75"/>
<image xlink:href="../../images/foreignKeys.png" width="11px" height="12px" preserveAspectRatio="xMinYMin meet" x="975.027" y="-358.75"/>
<text text-anchor="start" x="990.03" y="-348.3" font-family="Helvetica,sans-Serif" font-size="11.00">active_configuration_ftp</text>
<polygon fill="#ffffff" stroke="none" points="970.03,-319.75 970.03,-341.75 1214.03,-341.75 1214.03,-319.75 970.03,-319.75"/>
<polygon fill="none" stroke="black" points="970.03,-319.75 970.03,-341.75 1214.03,-341.75 1214.03,-319.75 970.03,-319.75"/>
<image xlink:href="../../images/foreignKeys.png" width="11px" height="12px" preserveAspectRatio="xMinYMin meet" x="975.027" y="-336.75"/>
<text text-anchor="start" x="990.03" y="-326.3" font-family="Helvetica,sans-Serif" font-size="11.00">active_configuration_check</text>
<polygon fill="#ffffff" stroke="none" points="970.03,-297.75 970.03,-319.75 1214.03,-319.75 1214.03,-297.75 970.03,-297.75"/>
<polygon fill="none" stroke="black" points="970.03,-297.75 970.03,-319.75 1214.03,-319.75 1214.03,-297.75 970.03,-297.75"/>
<image xlink:href="../../images/foreignKeys.png" width="11px" height="12px" preserveAspectRatio="xMinYMin meet" x="975.027" y="-314.75"/>
<text text-anchor="start" x="990.03" y="-304.3" font-family="Helvetica,sans-Serif" font-size="11.00">provider</text>
<polygon fill="#ffffff" stroke="none" points="970.03,-275.75 970.03,-297.75 1214.03,-297.75 1214.03,-275.75 970.03,-275.75"/>
<polygon fill="none" stroke="black" points="970.03,-275.75 970.03,-297.75 1214.03,-297.75 1214.03,-275.75 970.03,-275.75"/>
<image xlink:href="../../images/foreignKeys.png" width="11px" height="12px" preserveAspectRatio="xMinYMin meet" x="975.027" y="-292.75"/>
<text text-anchor="start" x="990.03" y="-282.3" font-family="Helvetica,sans-Serif" font-size="11.00">collection_omeka</text>
<polygon fill="#ffffff" stroke="none" points="970.03,-253.75 970.03,-275.75 1214.03,-275.75 1214.03,-253.75 970.03,-253.75"/>
<polygon fill="none" stroke="black" points="970.03,-253.75 970.03,-275.75 1214.03,-275.75 1214.03,-253.75 970.03,-253.75"/>
<image xlink:href="../../images/foreignKeys.png" width="11px" height="12px" preserveAspectRatio="xMinYMin meet" x="975.027" y="-270.75"/>
<text text-anchor="start" x="990.03" y="-260.3" font-family="Helvetica,sans-Serif" font-size="11.00">items_omeka</text>
<polygon fill="#ffffff" stroke="none" points="970.03,-231.75 970.03,-253.75 1214.03,-253.75 1214.03,-231.75 970.03,-231.75"/>
<polygon fill="none" stroke="black" points="970.03,-231.75 970.03,-253.75 1214.03,-253.75 1214.03,-231.75 970.03,-231.75"/>
<image xlink:href="../../images/foreignKeys.png" width="11px" height="12px" preserveAspectRatio="xMinYMin meet" x="975.027" y="-248.75"/>
<text text-anchor="start" x="990.03" y="-238.3" font-family="Helvetica,sans-Serif" font-size="11.00">active_configuration_export_ftp</text>
<polygon fill="#ffffff" stroke="none" points="970.03,-209.75 970.03,-231.75 1214.03,-231.75 1214.03,-209.75 970.03,-209.75"/>
<polygon fill="none" stroke="black" points="970.03,-209.75 970.03,-231.75 1214.03,-231.75 1214.03,-209.75 970.03,-209.75"/>
<image xlink:href="../../images/foreignKeys.png" width="11px" height="12px" preserveAspectRatio="xMinYMin meet" x="975.027" y="-226.75"/>
<text text-anchor="start" x="990.03" y="-216.3" font-family="Helvetica,sans-Serif" font-size="11.00">active_ocr_lang</text>
<polygon fill="#ffffff" stroke="none" points="970.03,-187.75 970.03,-209.75 1214.03,-209.75 1214.03,-187.75 970.03,-187.75"/>
<polygon fill="none" stroke="black" points="970.03,-187.75 970.03,-209.75 1214.03,-209.75 1214.03,-187.75 970.03,-187.75"/>
<image xlink:href="../../images/foreignKeys.png" width="11px" height="12px" preserveAspectRatio="xMinYMin meet" x="975.027" y="-204.75"/>
<text text-anchor="start" x="990.03" y="-194.3" font-family="Helvetica,sans-Serif" font-size="11.00">collection_ia</text>
<polygon fill="#ffffff" stroke="none" points="970.03,-165.75 970.03,-187.75 1214.03,-187.75 1214.03,-165.75 970.03,-165.75"/>
<polygon fill="none" stroke="black" points="970.03,-165.75 970.03,-187.75 1214.03,-187.75 1214.03,-165.75 970.03,-165.75"/>
<image xlink:href="../../images/foreignKeys.png" width="11px" height="12px" preserveAspectRatio="xMinYMin meet" x="975.027" y="-182.75"/>
<text text-anchor="start" x="990.03" y="-172.3" font-family="Helvetica,sans-Serif" font-size="11.00">classement_pac</text>
<polygon fill="#ffffff" stroke="none" points="970.03,-143.75 970.03,-165.75 1214.03,-165.75 1214.03,-143.75 970.03,-143.75"/>
<polygon fill="none" stroke="black" points="970.03,-143.75 970.03,-165.75 1214.03,-165.75 1214.03,-143.75 970.03,-143.75"/>
<image xlink:href="../../images/foreignKeys.png" width="11px" height="12px" preserveAspectRatio="xMinYMin meet" x="975.027" y="-160.75"/>
<text text-anchor="start" x="990.03" y="-150.3" font-family="Helvetica,sans-Serif" font-size="11.00">workflow_model</text>
<polygon fill="#ffffff" stroke="none" points="970.03,-121.75 970.03,-143.75 1214.03,-143.75 1214.03,-121.75 970.03,-121.75"/>
<polygon fill="none" stroke="black" points="970.03,-121.75 970.03,-143.75 1214.03,-143.75 1214.03,-121.75 970.03,-121.75"/>
<image xlink:href="../../images/foreignKeys.png" width="11px" height="12px" preserveAspectRatio="xMinYMin meet" x="975.027" y="-138.75"/>
<text text-anchor="start" x="990.03" y="-128.3" font-family="Helvetica,sans-Serif" font-size="11.00">active_format_configuration</text>
<polygon fill="#ffffff" stroke="none" points="970.03,-99.75 970.03,-121.75 1214.03,-121.75 1214.03,-99.75 970.03,-99.75"/>
<polygon fill="none" stroke="black" points="970.03,-99.75 970.03,-121.75 1214.03,-121.75 1214.03,-99.75 970.03,-99.75"/>
<image xlink:href="../../images/foreignKeys.png" width="11px" height="12px" preserveAspectRatio="xMinYMin meet" x="975.027" y="-116.75"/>
<text text-anchor="start" x="990.03" y="-106.3" font-family="Helvetica,sans-Serif" font-size="11.00">omeka_configuration</text>
<polygon fill="#ffffff" stroke="none" points="970.03,-77.75 970.03,-99.75 1214.03,-99.75 1214.03,-77.75 970.03,-77.75"/>
<polygon fill="none" stroke="black" points="970.03,-77.75 970.03,-99.75 1214.03,-99.75 1214.03,-77.75 970.03,-77.75"/>
<image xlink:href="../../images/foreignKeys.png" width="11px" height="12px" preserveAspectRatio="xMinYMin meet" x="975.027" y="-94.75"/>
<text text-anchor="start" x="990.03" y="-84.3" font-family="Helvetica,sans-Serif" font-size="11.00">active_export_ftp_delivery_folder</text>
<polygon fill="none" stroke="black" points="970.03,-58.25 970.03,-77.75 1214.03,-77.75 1214.03,-58.25 970.03,-58.25"/>
<text text-anchor="start" x="973.03" y="-64.3" font-family="Helvetica,sans-Serif" font-size="11.00">...</text>
<polygon fill="#ffffff" stroke="none" points="970.03,-38.75 970.03,-58.25 1059.86,-58.25 1059.86,-38.75 970.03,-38.75"/>
<polygon fill="none" stroke="black" points="970.03,-38.75 970.03,-58.25 1059.86,-58.25 1059.86,-38.75 970.03,-38.75"/>
<text text-anchor="start" x="973.03" y="-44.8" font-family="Helvetica,sans-Serif" font-size="11.00">&lt; 14</text>
<polygon fill="#ffffff" stroke="none" points="1059.86,-38.75 1059.86,-58.25 1130.94,-58.25 1130.94,-38.75 1059.86,-38.75"/>
<polygon fill="none" stroke="black" points="1059.86,-38.75 1059.86,-58.25 1130.94,-58.25 1130.94,-38.75 1059.86,-38.75"/>
<text text-anchor="start" x="1120.44" y="-44.8" font-family="Helvetica,sans-Serif" font-size="11.00"> &#160;</text>
<polygon fill="#ffffff" stroke="none" points="1130.94,-38.75 1130.94,-58.25 1214.03,-58.25 1214.03,-38.75 1130.94,-38.75"/>
<polygon fill="none" stroke="black" points="1130.94,-38.75 1130.94,-58.25 1214.03,-58.25 1214.03,-38.75 1130.94,-38.75"/>
<text text-anchor="start" x="1191.53" y="-44.8" font-family="Helvetica,sans-Serif" font-size="11.00">4 &gt;</text>
</a>
</g>
</g>
<!-- lot_lot&#45;&gt;conf_configuration_check -->
<g id="edge4" class="edge">
<title>lot_lot:w&#45;&gt;conf_configuration_check:e</title>
<path fill="none" stroke="black" d="M953.48,-329.09C885.39,-312.18 1000.63,-170.75 929.03,-111 840.3,-36.97 760.55,-40.45 669.03,-111 579.49,-180.02 717.33,-357 604.28,-357"/>
<polygon fill="black" stroke="black" points="960.74,-329.86 968.31,-334.29 965.05,-330.32 968.36,-330.68 968.36,-330.68 968.36,-330.68 965.05,-330.32 969.08,-327.13 960.74,-329.86"/>
<ellipse fill="none" stroke="black" cx="955.85" cy="-329.34" rx="3.2" ry="3.2"/>
</g>
<!-- proj_project -->
<g id="node5" class="node">
<title>proj_project</title>
<g id="a_node5"><a xlink:href="../../tables/proj_project.html" xlink:title="proj_project" target="_top">
<polygon fill="#ffffff" stroke="none" points="677.03,-271.75 677.03,-642.25 921.03,-642.25 921.03,-271.75 677.03,-271.75"/>
<polygon fill="#f5f5f5" stroke="none" points="677.03,-618.75 677.03,-642.25 921.03,-642.25 921.03,-618.75 677.03,-618.75"/>
<polygon fill="none" stroke="black" points="677.03,-618.75 677.03,-642.25 921.03,-642.25 921.03,-618.75 677.03,-618.75"/>
<text text-anchor="start" x="682.03" y="-627.8" font-family="Helvetica,sans-Serif" font-weight="bold" font-size="11.00">proj_project</text>
<text text-anchor="start" x="879.28" y="-626.8" font-family="Helvetica,sans-Serif" font-size="11.00">[table]</text>
<polygon fill="none" stroke="black" points="677.03,-596.75 677.03,-618.75 921.03,-618.75 921.03,-596.75 677.03,-596.75"/>
<image xlink:href="../../images/primaryKeys.png" width="11px" height="12px" preserveAspectRatio="xMinYMin meet" x="682.027" y="-613.75"/>
<text text-anchor="start" x="697.03" y="-603.3" font-family="Helvetica,sans-Serif" font-size="11.00">identifier</text>
<polygon fill="#ffffff" stroke="none" points="677.03,-574.75 677.03,-596.75 921.03,-596.75 921.03,-574.75 677.03,-574.75"/>
<polygon fill="none" stroke="black" points="677.03,-574.75 677.03,-596.75 921.03,-596.75 921.03,-574.75 677.03,-574.75"/>
<image xlink:href="../../images/foreignKeys.png" width="11px" height="12px" preserveAspectRatio="xMinYMin meet" x="682.027" y="-591.75"/>
<text text-anchor="start" x="697.03" y="-581.3" font-family="Helvetica,sans-Serif" font-size="11.00">library</text>
<polygon fill="#ffffff" stroke="none" points="677.03,-552.75 677.03,-574.75 921.03,-574.75 921.03,-552.75 677.03,-552.75"/>
<polygon fill="none" stroke="black" points="677.03,-552.75 677.03,-574.75 921.03,-574.75 921.03,-552.75 677.03,-552.75"/>
<image xlink:href="../../images/foreignKeys.png" width="11px" height="12px" preserveAspectRatio="xMinYMin meet" x="682.027" y="-569.75"/>
<text text-anchor="start" x="697.03" y="-559.3" font-family="Helvetica,sans-Serif" font-size="11.00">active_configuration_ftp</text>
<polygon fill="#ffffff" stroke="none" points="677.03,-530.75 677.03,-552.75 921.03,-552.75 921.03,-530.75 677.03,-530.75"/>
<polygon fill="none" stroke="black" points="677.03,-530.75 677.03,-552.75 921.03,-552.75 921.03,-530.75 677.03,-530.75"/>
<image xlink:href="../../images/foreignKeys.png" width="11px" height="12px" preserveAspectRatio="xMinYMin meet" x="682.027" y="-547.75"/>
<text text-anchor="start" x="697.03" y="-537.3" font-family="Helvetica,sans-Serif" font-size="11.00">active_configuration_check</text>
<polygon fill="#ffffff" stroke="none" points="677.03,-508.75 677.03,-530.75 921.03,-530.75 921.03,-508.75 677.03,-508.75"/>
<polygon fill="none" stroke="black" points="677.03,-508.75 677.03,-530.75 921.03,-530.75 921.03,-508.75 677.03,-508.75"/>
<image xlink:href="../../images/foreignKeys.png" width="11px" height="12px" preserveAspectRatio="xMinYMin meet" x="682.027" y="-525.75"/>
<text text-anchor="start" x="697.03" y="-515.3" font-family="Helvetica,sans-Serif" font-size="11.00">provider</text>
<polygon fill="#ffffff" stroke="none" points="677.03,-486.75 677.03,-508.75 921.03,-508.75 921.03,-486.75 677.03,-486.75"/>
<polygon fill="none" stroke="black" points="677.03,-486.75 677.03,-508.75 921.03,-508.75 921.03,-486.75 677.03,-486.75"/>
<image xlink:href="../../images/foreignKeys.png" width="11px" height="12px" preserveAspectRatio="xMinYMin meet" x="682.027" y="-503.75"/>
<text text-anchor="start" x="697.03" y="-493.3" font-family="Helvetica,sans-Serif" font-size="11.00">collection_omeka</text>
<polygon fill="#ffffff" stroke="none" points="677.03,-464.75 677.03,-486.75 921.03,-486.75 921.03,-464.75 677.03,-464.75"/>
<polygon fill="none" stroke="black" points="677.03,-464.75 677.03,-486.75 921.03,-486.75 921.03,-464.75 677.03,-464.75"/>
<image xlink:href="../../images/foreignKeys.png" width="11px" height="12px" preserveAspectRatio="xMinYMin meet" x="682.027" y="-481.75"/>
<text text-anchor="start" x="697.03" y="-471.3" font-family="Helvetica,sans-Serif" font-size="11.00">items_omeka</text>
<polygon fill="#ffffff" stroke="none" points="677.03,-442.75 677.03,-464.75 921.03,-464.75 921.03,-442.75 677.03,-442.75"/>
<polygon fill="none" stroke="black" points="677.03,-442.75 677.03,-464.75 921.03,-464.75 921.03,-442.75 677.03,-442.75"/>
<image xlink:href="../../images/foreignKeys.png" width="11px" height="12px" preserveAspectRatio="xMinYMin meet" x="682.027" y="-459.75"/>
<text text-anchor="start" x="697.03" y="-449.3" font-family="Helvetica,sans-Serif" font-size="11.00">active_configuration_export_ftp</text>
<polygon fill="#ffffff" stroke="none" points="677.03,-420.75 677.03,-442.75 921.03,-442.75 921.03,-420.75 677.03,-420.75"/>
<polygon fill="none" stroke="black" points="677.03,-420.75 677.03,-442.75 921.03,-442.75 921.03,-420.75 677.03,-420.75"/>
<image xlink:href="../../images/foreignKeys.png" width="11px" height="12px" preserveAspectRatio="xMinYMin meet" x="682.027" y="-437.75"/>
<text text-anchor="start" x="697.03" y="-427.3" font-family="Helvetica,sans-Serif" font-size="11.00">collection_ia</text>
<polygon fill="#ffffff" stroke="none" points="677.03,-398.75 677.03,-420.75 921.03,-420.75 921.03,-398.75 677.03,-398.75"/>
<polygon fill="none" stroke="black" points="677.03,-398.75 677.03,-420.75 921.03,-420.75 921.03,-398.75 677.03,-398.75"/>
<image xlink:href="../../images/foreignKeys.png" width="11px" height="12px" preserveAspectRatio="xMinYMin meet" x="682.027" y="-415.75"/>
<text text-anchor="start" x="697.03" y="-405.3" font-family="Helvetica,sans-Serif" font-size="11.00">classement_pac</text>
<polygon fill="#ffffff" stroke="none" points="677.03,-376.75 677.03,-398.75 921.03,-398.75 921.03,-376.75 677.03,-376.75"/>
<polygon fill="none" stroke="black" points="677.03,-376.75 677.03,-398.75 921.03,-398.75 921.03,-376.75 677.03,-376.75"/>
<image xlink:href="../../images/foreignKeys.png" width="11px" height="12px" preserveAspectRatio="xMinYMin meet" x="682.027" y="-393.75"/>
<text text-anchor="start" x="697.03" y="-383.3" font-family="Helvetica,sans-Serif" font-size="11.00">workflow_model</text>
<polygon fill="#ffffff" stroke="none" points="677.03,-354.75 677.03,-376.75 921.03,-376.75 921.03,-354.75 677.03,-354.75"/>
<polygon fill="none" stroke="black" points="677.03,-354.75 677.03,-376.75 921.03,-376.75 921.03,-354.75 677.03,-354.75"/>
<image xlink:href="../../images/foreignKeys.png" width="11px" height="12px" preserveAspectRatio="xMinYMin meet" x="682.027" y="-371.75"/>
<text text-anchor="start" x="697.03" y="-361.3" font-family="Helvetica,sans-Serif" font-size="11.00">active_format_configuration</text>
<polygon fill="#ffffff" stroke="none" points="677.03,-332.75 677.03,-354.75 921.03,-354.75 921.03,-332.75 677.03,-332.75"/>
<polygon fill="none" stroke="black" points="677.03,-332.75 677.03,-354.75 921.03,-354.75 921.03,-332.75 677.03,-332.75"/>
<image xlink:href="../../images/foreignKeys.png" width="11px" height="12px" preserveAspectRatio="xMinYMin meet" x="682.027" y="-349.75"/>
<text text-anchor="start" x="697.03" y="-339.3" font-family="Helvetica,sans-Serif" font-size="11.00">omeka_configuration</text>
<polygon fill="#ffffff" stroke="none" points="677.03,-310.75 677.03,-332.75 921.03,-332.75 921.03,-310.75 677.03,-310.75"/>
<polygon fill="none" stroke="black" points="677.03,-310.75 677.03,-332.75 921.03,-332.75 921.03,-310.75 677.03,-310.75"/>
<image xlink:href="../../images/foreignKeys.png" width="11px" height="12px" preserveAspectRatio="xMinYMin meet" x="682.027" y="-327.75"/>
<text text-anchor="start" x="697.03" y="-317.3" font-family="Helvetica,sans-Serif" font-size="11.00">active_export_ftp_delivery_folder</text>
<polygon fill="none" stroke="black" points="677.03,-291.25 677.03,-310.75 921.03,-310.75 921.03,-291.25 677.03,-291.25"/>
<text text-anchor="start" x="680.03" y="-297.3" font-family="Helvetica,sans-Serif" font-size="11.00">...</text>
<polygon fill="#ffffff" stroke="none" points="677.03,-271.75 677.03,-291.25 766.86,-291.25 766.86,-271.75 677.03,-271.75"/>
<polygon fill="none" stroke="black" points="677.03,-271.75 677.03,-291.25 766.86,-291.25 766.86,-271.75 677.03,-271.75"/>
<text text-anchor="start" x="680.03" y="-277.8" font-family="Helvetica,sans-Serif" font-size="11.00">&lt; 13</text>
<polygon fill="#ffffff" stroke="none" points="766.86,-271.75 766.86,-291.25 837.94,-291.25 837.94,-271.75 766.86,-271.75"/>
<polygon fill="none" stroke="black" points="766.86,-271.75 766.86,-291.25 837.94,-291.25 837.94,-271.75 766.86,-271.75"/>
<text text-anchor="start" x="827.44" y="-277.8" font-family="Helvetica,sans-Serif" font-size="11.00"> &#160;</text>
<polygon fill="#ffffff" stroke="none" points="837.94,-271.75 837.94,-291.25 921.03,-291.25 921.03,-271.75 837.94,-271.75"/>
<polygon fill="none" stroke="black" points="837.94,-271.75 837.94,-291.25 921.03,-291.25 921.03,-271.75 837.94,-271.75"/>
<text text-anchor="start" x="898.53" y="-277.8" font-family="Helvetica,sans-Serif" font-size="11.00">7 &gt;</text>
</a>
</g>
</g>
<!-- lot_lot&#45;&gt;proj_project -->
<g id="edge5" class="edge">
<title>lot_lot:w&#45;&gt;proj_project:e</title>
<path fill="none" stroke="black" d="M953.58,-376.91C881.13,-400.4 1021.68,-607.75 922.03,-607.75"/>
<polygon fill="black" stroke="black" points="960.77,-375.9 969.19,-378.36 965.07,-375.3 968.36,-374.84 968.36,-374.84 968.36,-374.84 965.07,-375.3 968.2,-371.23 960.77,-375.9"/>
<ellipse fill="none" stroke="black" cx="955.9" cy="-376.58" rx="3.2" ry="3.2"/>
</g>
<!-- proj_project&#45;&gt;conf_configuration_check -->
<g id="edge6" class="edge">
<title>proj_project:w&#45;&gt;conf_configuration_check:e</title>
<path fill="none" stroke="black" d="M660.54,-539.28C601.32,-517.35 686.34,-357 604.28,-357"/>
<polygon fill="black" stroke="black" points="667.8,-540.44 675.13,-545.25 672.08,-541.12 675.37,-541.64 675.37,-541.64 675.37,-541.64 672.08,-541.12 676.26,-538.14 667.8,-540.44"/>
<ellipse fill="none" stroke="black" cx="662.94" cy="-539.66" rx="3.2" ry="3.2"/>
</g>
<!-- proj_project&#45;&gt;lib_library -->
<g id="edge7" class="edge">
<title>proj_project:w&#45;&gt;lib_library:e</title>
<path fill="none" stroke="black" d="M660.39,-585.42C472.41,-577.27 447.85,-422.75 250.78,-422.75"/>
<polygon fill="black" stroke="black" points="667.69,-585.57 675.62,-589.34 672.03,-585.66 675.36,-585.74 675.36,-585.74 675.36,-585.74 672.03,-585.66 675.77,-582.14 667.69,-585.57"/>
<ellipse fill="none" stroke="black" cx="662.78" cy="-585.47" rx="3.2" ry="3.2"/>
</g>
</g>
</svg>
