<?xml version="1.0" encoding="UTF-8" standalone="no"?>
<!DOCTYPE svg PUBLIC "-//W3C//DTD SVG 1.1//EN"
 "http://www.w3.org/Graphics/SVG/1.1/DTD/svg11.dtd">
<!-- Generated by graphviz version 12.2.0 (0)
 -->
<!-- Title: twoDegreesRelationshipsDiagram Pages: 1 -->
<svg width="832pt" height="670pt"
 viewBox="0.00 0.00 832.00 670.25" xmlns="http://www.w3.org/2000/svg" xmlns:xlink="http://www.w3.org/1999/xlink">
<g id="graph0" class="graph" transform="scale(1 1) rotate(0) translate(4 666.25)">
<title>twoDegreesRelationshipsDiagram</title>
<polygon fill="#ffffff" stroke="none" points="-4,4 -4,-666.25 828,-666.25 828,4 -4,4"/>
<text text-anchor="middle" x="79.25" y="-7.05" font-family="Helvetica,sans-Serif" font-size="11.00">Generated by SchemaSpy</text>
<!-- check_automatic_result -->
<g id="node1" class="node">
<title>check_automatic_result</title>
<g id="a_node1"><a xlink:href="../../tables/check_automatic_result.html" xlink:title="check_automatic_result" target="_top">
<polygon fill="#ffffff" stroke="none" points="608.75,-595.75 608.75,-658.25 813.5,-658.25 813.5,-595.75 608.75,-595.75"/>
<polygon fill="#f5f5f5" stroke="none" points="608.75,-634.75 608.75,-658.25 813.5,-658.25 813.5,-634.75 608.75,-634.75"/>
<polygon fill="none" stroke="black" points="608.75,-634.75 608.75,-658.25 813.5,-658.25 813.5,-634.75 608.75,-634.75"/>
<text text-anchor="start" x="613.75" y="-643.8" font-family="Helvetica,sans-Serif" font-weight="bold" font-size="11.00">check_automatic_result</text>
<text text-anchor="start" x="771.75" y="-642.8" font-family="Helvetica,sans-Serif" font-size="11.00">[table]</text>
<polygon fill="none" stroke="black" points="608.75,-615.25 608.75,-634.75 813.5,-634.75 813.5,-615.25 608.75,-615.25"/>
<text text-anchor="start" x="611.75" y="-621.3" font-family="Helvetica,sans-Serif" font-size="11.00">...</text>
<polygon fill="#ffffff" stroke="none" points="608.75,-595.75 608.75,-615.25 685,-615.25 685,-595.75 608.75,-595.75"/>
<polygon fill="none" stroke="black" points="608.75,-595.75 608.75,-615.25 685,-615.25 685,-595.75 608.75,-595.75"/>
<text text-anchor="start" x="611.75" y="-601.8" font-family="Helvetica,sans-Serif" font-size="11.00">&lt; 6</text>
<polygon fill="#ffffff" stroke="none" points="685,-595.75 685,-615.25 749.25,-615.25 749.25,-595.75 685,-595.75"/>
<polygon fill="none" stroke="black" points="685,-595.75 685,-615.25 749.25,-615.25 749.25,-595.75 685,-595.75"/>
<text text-anchor="start" x="738.75" y="-601.8" font-family="Helvetica,sans-Serif" font-size="11.00"> &#160;</text>
<polygon fill="#ffffff" stroke="none" points="749.25,-595.75 749.25,-615.25 813.5,-615.25 813.5,-595.75 749.25,-595.75"/>
<polygon fill="none" stroke="black" points="749.25,-595.75 749.25,-615.25 813.5,-615.25 813.5,-595.75 749.25,-595.75"/>
<text text-anchor="start" x="803" y="-601.8" font-family="Helvetica,sans-Serif" font-size="11.00"> &#160;</text>
</a>
</g>
</g>
<!-- del_delivery -->
<g id="node2" class="node">
<title>del_delivery</title>
<g id="a_node2"><a xlink:href="../../tables/del_delivery.html" xlink:title="del_delivery" target="_top">
<polygon fill="#ffffff" stroke="none" points="359.25,-405.75 359.25,-534.25 557.25,-534.25 557.25,-405.75 359.25,-405.75"/>
<polygon fill="#f5f5f5" stroke="none" points="359.25,-510.75 359.25,-534.25 557.25,-534.25 557.25,-510.75 359.25,-510.75"/>
<polygon fill="none" stroke="black" points="359.25,-510.75 359.25,-534.25 557.25,-534.25 557.25,-510.75 359.25,-510.75"/>
<text text-anchor="start" x="364.25" y="-519.8" font-family="Helvetica,sans-Serif" font-weight="bold" font-size="11.00">del_delivery</text>
<text text-anchor="start" x="515.5" y="-518.8" font-family="Helvetica,sans-Serif" font-size="11.00">[table]</text>
<polygon fill="none" stroke="black" points="359.25,-488.75 359.25,-510.75 557.25,-510.75 557.25,-488.75 359.25,-488.75"/>
<image xlink:href="../../images/primaryKeys.png" width="11px" height="12px" preserveAspectRatio="xMinYMin meet" x="364.25" y="-505.75"/>
<text text-anchor="start" x="379.25" y="-495.3" font-family="Helvetica,sans-Serif" font-size="11.00">identifier</text>
<polygon fill="#ffffff" stroke="none" points="359.25,-466.75 359.25,-488.75 557.25,-488.75 557.25,-466.75 359.25,-466.75"/>
<polygon fill="none" stroke="black" points="359.25,-466.75 359.25,-488.75 557.25,-488.75 557.25,-466.75 359.25,-466.75"/>
<image xlink:href="../../images/foreignKeys.png" width="11px" height="12px" preserveAspectRatio="xMinYMin meet" x="364.25" y="-483.75"/>
<text text-anchor="start" x="379.25" y="-473.3" font-family="Helvetica,sans-Serif" font-size="11.00">lot_identifier</text>
<polygon fill="#ffffff" stroke="none" points="359.25,-444.75 359.25,-466.75 557.25,-466.75 557.25,-444.75 359.25,-444.75"/>
<polygon fill="none" stroke="black" points="359.25,-444.75 359.25,-466.75 557.25,-466.75 557.25,-444.75 359.25,-444.75"/>
<image xlink:href="../../images/foreignKeys.png" width="11px" height="12px" preserveAspectRatio="xMinYMin meet" x="364.25" y="-461.75"/>
<text text-anchor="start" x="379.25" y="-451.3" font-family="Helvetica,sans-Serif" font-size="11.00">multi_lots_delivery</text>
<polygon fill="none" stroke="black" points="359.25,-425.25 359.25,-444.75 557.25,-444.75 557.25,-425.25 359.25,-425.25"/>
<text text-anchor="start" x="362.25" y="-431.3" font-family="Helvetica,sans-Serif" font-size="11.00">...</text>
<polygon fill="#ffffff" stroke="none" points="359.25,-405.75 359.25,-425.25 429.25,-425.25 429.25,-405.75 359.25,-405.75"/>
<polygon fill="none" stroke="black" points="359.25,-405.75 359.25,-425.25 429.25,-425.25 429.25,-405.75 359.25,-405.75"/>
<text text-anchor="start" x="362.25" y="-411.8" font-family="Helvetica,sans-Serif" font-size="11.00">&lt; 2</text>
<polygon fill="#ffffff" stroke="none" points="429.25,-405.75 429.25,-425.25 487.25,-425.25 487.25,-405.75 429.25,-405.75"/>
<polygon fill="none" stroke="black" points="429.25,-405.75 429.25,-425.25 487.25,-425.25 487.25,-405.75 429.25,-405.75"/>
<text text-anchor="start" x="476.75" y="-411.8" font-family="Helvetica,sans-Serif" font-size="11.00"> &#160;</text>
<polygon fill="#ffffff" stroke="none" points="487.25,-405.75 487.25,-425.25 557.25,-425.25 557.25,-405.75 487.25,-405.75"/>
<polygon fill="none" stroke="black" points="487.25,-405.75 487.25,-425.25 557.25,-425.25 557.25,-405.75 487.25,-405.75"/>
<text text-anchor="start" x="534.75" y="-411.8" font-family="Helvetica,sans-Serif" font-size="11.00">4 &gt;</text>
</a>
</g>
</g>
<!-- check_automatic_result&#45;&gt;del_delivery -->
<g id="edge1" class="edge">
<title>check_automatic_result:w&#45;&gt;del_delivery:e</title>
<path fill="none" stroke="black" d="M592.85,-621.11C561.26,-599.97 611.79,-499.75 558.25,-499.75"/>
<polygon fill="black" stroke="black" points="599.69,-622.9 606.52,-628.4 603.88,-623.99 607.1,-624.83 607.1,-624.83 607.1,-624.83 603.88,-623.99 608.33,-621.43 599.69,-622.9"/>
<ellipse fill="none" stroke="black" cx="594.93" cy="-621.66" rx="3.2" ry="3.2"/>
</g>
<!-- lot_lot -->
<g id="node4" class="node">
<title>lot_lot</title>
<g id="a_node4"><a xlink:href="../../tables/lot_lot.html" xlink:title="lot_lot" target="_top">
<polygon fill="#ffffff" stroke="none" points="114.75,-480.75 114.75,-543.25 203.5,-543.25 203.5,-480.75 114.75,-480.75"/>
<polygon fill="#f5f5f5" stroke="none" points="114.75,-519.75 114.75,-543.25 203.5,-543.25 203.5,-519.75 114.75,-519.75"/>
<polygon fill="none" stroke="black" points="114.75,-519.75 114.75,-543.25 203.5,-543.25 203.5,-519.75 114.75,-519.75"/>
<text text-anchor="start" x="119.62" y="-528.8" font-family="Helvetica,sans-Serif" font-weight="bold" font-size="11.00">lot_lot</text>
<text text-anchor="start" x="161.75" y="-527.8" font-family="Helvetica,sans-Serif" font-size="11.00">[table]</text>
<polygon fill="none" stroke="black" points="114.75,-500.25 114.75,-519.75 203.5,-519.75 203.5,-500.25 114.75,-500.25"/>
<text text-anchor="start" x="117.75" y="-506.3" font-family="Helvetica,sans-Serif" font-size="11.00">...</text>
<polygon fill="#ffffff" stroke="none" points="114.75,-480.75 114.75,-500.25 152.83,-500.25 152.83,-480.75 114.75,-480.75"/>
<polygon fill="none" stroke="black" points="114.75,-480.75 114.75,-500.25 152.83,-500.25 152.83,-480.75 114.75,-480.75"/>
<text text-anchor="start" x="117.75" y="-486.8" font-family="Helvetica,sans-Serif" font-size="11.00">&lt; 14</text>
<polygon fill="#ffffff" stroke="none" points="152.83,-480.75 152.83,-500.25 172.17,-500.25 172.17,-480.75 152.83,-480.75"/>
<polygon fill="none" stroke="black" points="152.83,-480.75 152.83,-500.25 172.17,-500.25 172.17,-480.75 152.83,-480.75"/>
<text text-anchor="start" x="161.67" y="-486.8" font-family="Helvetica,sans-Serif" font-size="11.00"> &#160;</text>
<polygon fill="#ffffff" stroke="none" points="172.17,-480.75 172.17,-500.25 203.5,-500.25 203.5,-480.75 172.17,-480.75"/>
<polygon fill="none" stroke="black" points="172.17,-480.75 172.17,-500.25 203.5,-500.25 203.5,-480.75 172.17,-480.75"/>
<text text-anchor="start" x="181" y="-486.8" font-family="Helvetica,sans-Serif" font-size="11.00">4 &gt;</text>
</a>
</g>
</g>
<!-- del_delivery&#45;&gt;lot_lot -->
<g id="edge3" class="edge">
<title>del_delivery:w&#45;&gt;lot_lot:e</title>
<path fill="none" stroke="black" d="M342.49,-478.34C285.81,-482.71 268.73,-510 204.5,-510"/>
<polygon fill="black" stroke="black" points="349.92,-478.06 358.05,-481.36 354.25,-477.9 357.58,-477.77 357.58,-477.77 357.58,-477.77 354.25,-477.9 357.78,-474.16 349.92,-478.06"/>
<ellipse fill="none" stroke="black" cx="345.01" cy="-478.24" rx="3.2" ry="3.2"/>
</g>
<!-- del_multi_lots_delivery -->
<g id="node5" class="node">
<title>del_multi_lots_delivery</title>
<g id="a_node5"><a xlink:href="../../tables/del_multi_lots_delivery.html" xlink:title="del_multi_lots_delivery" target="_top">
<polygon fill="#ffffff" stroke="none" points="8,-38.5 8,-459.5 310.25,-459.5 310.25,-38.5 8,-38.5"/>
<polygon fill="#f5f5f5" stroke="none" points="10,-434 10,-457.5 308.25,-457.5 308.25,-434 10,-434"/>
<polygon fill="none" stroke="black" points="10,-434 10,-457.5 308.25,-457.5 308.25,-434 10,-434"/>
<text text-anchor="start" x="15" y="-443.05" font-family="Helvetica,sans-Serif" font-weight="bold" font-size="11.00">del_multi_lots_delivery</text>
<text text-anchor="start" x="266.5" y="-442.05" font-family="Helvetica,sans-Serif" font-size="11.00">[table]</text>
<polygon fill="none" stroke="black" points="10,-412 10,-434 184,-434 184,-412 10,-412"/>
<image xlink:href="../../images/primaryKeys.png" width="11px" height="12px" preserveAspectRatio="xMinYMin meet" x="15" y="-429"/>
<text text-anchor="start" x="30" y="-418.55" font-family="Helvetica,sans-Serif" font-size="11.00">identifier</text>
<polygon fill="none" stroke="black" points="184,-412 184,-434 290,-434 290,-412 184,-412"/>
<text text-anchor="start" x="187" y="-419.3" font-family="Helvetica,sans-Serif" font-size="11.00">varchar[191]</text>
<polygon fill="none" stroke="black" points="10,-390 10,-412 184,-412 184,-390 10,-390"/>
<text text-anchor="start" x="30" y="-396.55" font-family="Helvetica,sans-Serif" font-size="11.00">label</text>
<polygon fill="none" stroke="black" points="184,-390 184,-412 290,-412 290,-390 184,-390"/>
<text text-anchor="start" x="187" y="-397.3" font-family="Helvetica,sans-Serif" font-size="11.00">varchar[255]</text>
<polygon fill="none" stroke="black" points="10,-368 10,-390 184,-390 184,-368 10,-368"/>
<text text-anchor="start" x="30" y="-374.55" font-family="Helvetica,sans-Serif" font-size="11.00">description</text>
<polygon fill="none" stroke="black" points="184,-368 184,-390 290,-390 290,-368 184,-368"/>
<text text-anchor="start" x="187" y="-375.3" font-family="Helvetica,sans-Serif" font-size="11.00">varchar[255]</text>
<polygon fill="none" stroke="black" points="10,-346 10,-368 184,-368 184,-346 10,-346"/>
<text text-anchor="start" x="30" y="-352.55" font-family="Helvetica,sans-Serif" font-size="11.00">delivery_payment</text>
<polygon fill="none" stroke="black" points="184,-346 184,-368 290,-368 290,-346 184,-346"/>
<text text-anchor="start" x="187" y="-353.3" font-family="Helvetica,sans-Serif" font-size="11.00">int[10]</text>
<polygon fill="none" stroke="black" points="10,-324 10,-346 184,-346 184,-324 10,-324"/>
<text text-anchor="start" x="30" y="-330.55" font-family="Helvetica,sans-Serif" font-size="11.00">delivery_status</text>
<polygon fill="none" stroke="black" points="184,-324 184,-346 290,-346 290,-324 184,-324"/>
<text text-anchor="start" x="187" y="-331.3" font-family="Helvetica,sans-Serif" font-size="11.00">int[10]</text>
<polygon fill="none" stroke="black" points="10,-302 10,-324 184,-324 184,-302 10,-302"/>
<text text-anchor="start" x="30" y="-308.55" font-family="Helvetica,sans-Serif" font-size="11.00">delivery_method</text>
<polygon fill="none" stroke="black" points="184,-302 184,-324 290,-324 290,-302 184,-302"/>
<text text-anchor="start" x="187" y="-309.3" font-family="Helvetica,sans-Serif" font-size="11.00">int[10]</text>
<polygon fill="none" stroke="black" points="10,-280 10,-302 184,-302 184,-280 10,-280"/>
<text text-anchor="start" x="30" y="-286.55" font-family="Helvetica,sans-Serif" font-size="11.00">reception_date</text>
<polygon fill="none" stroke="black" points="184,-280 184,-302 290,-302 290,-280 184,-280"/>
<text text-anchor="start" x="187" y="-287.3" font-family="Helvetica,sans-Serif" font-size="11.00">date[10]</text>
<polygon fill="none" stroke="black" points="10,-258 10,-280 184,-280 184,-258 10,-258"/>
<text text-anchor="start" x="30" y="-264.55" font-family="Helvetica,sans-Serif" font-size="11.00">folder_path</text>
<polygon fill="none" stroke="black" points="184,-258 184,-280 290,-280 290,-258 184,-258"/>
<text text-anchor="start" x="187" y="-265.3" font-family="Helvetica,sans-Serif" font-size="11.00">varchar[255]</text>
<polygon fill="none" stroke="black" points="10,-236 10,-258 184,-258 184,-236 10,-236"/>
<text text-anchor="start" x="30" y="-242.55" font-family="Helvetica,sans-Serif" font-size="11.00">digitizing_notes</text>
<polygon fill="none" stroke="black" points="184,-236 184,-258 290,-258 290,-236 184,-236"/>
<text text-anchor="start" x="187" y="-243.3" font-family="Helvetica,sans-Serif" font-size="11.00">varchar[255]</text>
<polygon fill="none" stroke="black" points="10,-214 10,-236 184,-236 184,-214 10,-214"/>
<text text-anchor="start" x="30" y="-220.55" font-family="Helvetica,sans-Serif" font-size="11.00">control_notes</text>
<polygon fill="none" stroke="black" points="184,-214 184,-236 290,-236 290,-214 184,-214"/>
<text text-anchor="start" x="187" y="-221.3" font-family="Helvetica,sans-Serif" font-size="11.00">varchar[255]</text>
<polygon fill="none" stroke="black" points="10,-192 10,-214 184,-214 184,-192 10,-192"/>
<text text-anchor="start" x="30" y="-198.55" font-family="Helvetica,sans-Serif" font-size="11.00">version</text>
<polygon fill="none" stroke="black" points="184,-192 184,-214 290,-214 290,-192 184,-192"/>
<text text-anchor="start" x="187" y="-199.3" font-family="Helvetica,sans-Serif" font-size="11.00">bigint[19]</text>
<polygon fill="none" stroke="black" points="10,-170 10,-192 184,-192 184,-170 10,-170"/>
<text text-anchor="start" x="30" y="-176.55" font-family="Helvetica,sans-Serif" font-size="11.00">created_by</text>
<polygon fill="none" stroke="black" points="184,-170 184,-192 290,-192 290,-170 184,-170"/>
<text text-anchor="start" x="187" y="-177.3" font-family="Helvetica,sans-Serif" font-size="11.00">varchar[191]</text>
<polygon fill="none" stroke="black" points="10,-148 10,-170 184,-170 184,-148 10,-148"/>
<text text-anchor="start" x="30" y="-154.55" font-family="Helvetica,sans-Serif" font-size="11.00">last_modified_by</text>
<polygon fill="none" stroke="black" points="184,-148 184,-170 290,-170 290,-148 184,-148"/>
<text text-anchor="start" x="187" y="-155.3" font-family="Helvetica,sans-Serif" font-size="11.00">varchar[191]</text>
<polygon fill="none" stroke="black" points="10,-126 10,-148 184,-148 184,-126 10,-126"/>
<text text-anchor="start" x="30" y="-132.55" font-family="Helvetica,sans-Serif" font-size="11.00">created_date</text>
<polygon fill="none" stroke="black" points="184,-126 184,-148 290,-148 290,-126 184,-126"/>
<text text-anchor="start" x="187" y="-133.3" font-family="Helvetica,sans-Serif" font-size="11.00">timestamp[19]</text>
<polygon fill="none" stroke="black" points="10,-104 10,-126 184,-126 184,-104 10,-104"/>
<text text-anchor="start" x="30" y="-110.55" font-family="Helvetica,sans-Serif" font-size="11.00">last_modified_date</text>
<polygon fill="none" stroke="black" points="184,-104 184,-126 290,-126 290,-104 184,-104"/>
<text text-anchor="start" x="187" y="-111.3" font-family="Helvetica,sans-Serif" font-size="11.00">timestamp[19]</text>
<polygon fill="none" stroke="black" points="10,-82 10,-104 184,-104 184,-82 10,-82"/>
<text text-anchor="start" x="30" y="-88.55" font-family="Helvetica,sans-Serif" font-size="11.00">train_id</text>
<polygon fill="none" stroke="black" points="184,-82 184,-104 290,-104 290,-82 184,-82"/>
<text text-anchor="start" x="187" y="-89.3" font-family="Helvetica,sans-Serif" font-size="11.00">varchar[191]</text>
<polygon fill="none" stroke="black" points="10,-60 10,-82 184,-82 184,-60 10,-60"/>
<text text-anchor="start" x="30" y="-66.55" font-family="Helvetica,sans-Serif" font-size="11.00">selected_by_train</text>
<polygon fill="none" stroke="black" points="184,-60 184,-82 290,-82 290,-60 184,-60"/>
<text text-anchor="start" x="187" y="-67.3" font-family="Helvetica,sans-Serif" font-size="11.00">bit[1]</text>
<polygon fill="#ffffff" stroke="none" points="10,-40.5 10,-60 103,-60 103,-40.5 10,-40.5"/>
<polygon fill="none" stroke="black" points="10,-40.5 10,-60 103,-60 103,-40.5 10,-40.5"/>
<text text-anchor="start" x="13" y="-46.55" font-family="Helvetica,sans-Serif" font-size="11.00">&lt; 0</text>
<polygon fill="#ffffff" stroke="none" points="103,-40.5 103,-60 184,-60 184,-40.5 103,-40.5"/>
<polygon fill="none" stroke="black" points="103,-40.5 103,-60 184,-60 184,-40.5 103,-40.5"/>
<text text-anchor="start" x="173.5" y="-46.55" font-family="Helvetica,sans-Serif" font-size="11.00"> &#160;</text>
<polygon fill="#ffffff" stroke="none" points="184,-40.5 184,-60 290,-60 290,-40.5 184,-40.5"/>
<polygon fill="none" stroke="black" points="184,-40.5 184,-60 290,-60 290,-40.5 184,-40.5"/>
<text text-anchor="start" x="267.5" y="-46.55" font-family="Helvetica,sans-Serif" font-size="11.00">1 &gt;</text>
<polygon fill="none" stroke="black" stroke-width="2" points="9,-39.5 9,-458.5 309.25,-458.5 309.25,-39.5 9,-39.5"/>
</a>
</g>
</g>
<!-- del_delivery&#45;&gt;del_multi_lots_delivery -->
<g id="edge4" class="edge">
<title>del_delivery:w&#45;&gt;del_multi_lots_delivery:e</title>
<path fill="none" stroke="black" d="M342.82,-452.84C323.63,-444.83 318.14,-423 291,-423"/>
<polygon fill="black" stroke="black" points="350.06,-454.21 357.25,-459.23 354.32,-455.01 357.59,-455.63 357.59,-455.63 357.59,-455.63 354.32,-455.01 358.59,-452.15 350.06,-454.21"/>
<ellipse fill="none" stroke="black" cx="345.23" cy="-453.3" rx="3.2" ry="3.2"/>
</g>
<!-- del_delivered_document -->
<g id="node3" class="node">
<title>del_delivered_document</title>
<g id="a_node3"><a xlink:href="../../tables/del_delivered_document.html" xlink:title="del_delivered_document" target="_top">
<polygon fill="#ffffff" stroke="none" points="606.25,-511.75 606.25,-574.25 816,-574.25 816,-511.75 606.25,-511.75"/>
<polygon fill="#f5f5f5" stroke="none" points="606.25,-550.75 606.25,-574.25 816,-574.25 816,-550.75 606.25,-550.75"/>
<polygon fill="none" stroke="black" points="606.25,-550.75 606.25,-574.25 816,-574.25 816,-550.75 606.25,-550.75"/>
<text text-anchor="start" x="611.25" y="-559.8" font-family="Helvetica,sans-Serif" font-weight="bold" font-size="11.00">del_delivered_document</text>
<text text-anchor="start" x="774.25" y="-558.8" font-family="Helvetica,sans-Serif" font-size="11.00">[table]</text>
<polygon fill="none" stroke="black" points="606.25,-531.25 606.25,-550.75 816,-550.75 816,-531.25 606.25,-531.25"/>
<text text-anchor="start" x="609.25" y="-537.3" font-family="Helvetica,sans-Serif" font-size="11.00">...</text>
<polygon fill="#ffffff" stroke="none" points="606.25,-511.75 606.25,-531.25 684.17,-531.25 684.17,-511.75 606.25,-511.75"/>
<polygon fill="none" stroke="black" points="606.25,-511.75 606.25,-531.25 684.17,-531.25 684.17,-511.75 606.25,-511.75"/>
<text text-anchor="start" x="609.25" y="-517.8" font-family="Helvetica,sans-Serif" font-size="11.00">&lt; 3</text>
<polygon fill="#ffffff" stroke="none" points="684.17,-511.75 684.17,-531.25 750.08,-531.25 750.08,-511.75 684.17,-511.75"/>
<polygon fill="none" stroke="black" points="684.17,-511.75 684.17,-531.25 750.08,-531.25 750.08,-511.75 684.17,-511.75"/>
<text text-anchor="start" x="739.58" y="-517.8" font-family="Helvetica,sans-Serif" font-size="11.00"> &#160;</text>
<polygon fill="#ffffff" stroke="none" points="750.08,-511.75 750.08,-531.25 816,-531.25 816,-511.75 750.08,-511.75"/>
<polygon fill="none" stroke="black" points="750.08,-511.75 750.08,-531.25 816,-531.25 816,-511.75 750.08,-511.75"/>
<text text-anchor="start" x="805.5" y="-517.8" font-family="Helvetica,sans-Serif" font-size="11.00"> &#160;</text>
</a>
</g>
</g>
<!-- del_delivered_document&#45;&gt;del_delivery -->
<g id="edge2" class="edge">
<title>del_delivered_document:w&#45;&gt;del_delivery:e</title>
<path fill="none" stroke="black" d="M590.77,-535.26C579.48,-523.93 579.53,-499.75 558.25,-499.75"/>
<polygon fill="black" stroke="black" points="597.5,-537.93 603.61,-544.22 601.53,-539.53 604.63,-540.75 604.63,-540.75 604.63,-540.75 601.53,-539.53 606.26,-537.53 597.5,-537.93"/>
<ellipse fill="none" stroke="black" cx="592.93" cy="-536.12" rx="3.2" ry="3.2"/>
</g>
<!-- del_slip -->
<g id="node6" class="node">
<title>del_slip</title>
<g id="a_node6"><a xlink:href="../../tables/del_slip.html" xlink:title="del_slip" target="_top">
<polygon fill="#ffffff" stroke="none" points="662.75,-427.75 662.75,-490.25 759.5,-490.25 759.5,-427.75 662.75,-427.75"/>
<polygon fill="#f5f5f5" stroke="none" points="662.75,-466.75 662.75,-490.25 759.5,-490.25 759.5,-466.75 662.75,-466.75"/>
<polygon fill="none" stroke="black" points="662.75,-466.75 662.75,-490.25 759.5,-490.25 759.5,-466.75 662.75,-466.75"/>
<text text-anchor="start" x="667.75" y="-475.8" font-family="Helvetica,sans-Serif" font-weight="bold" font-size="11.00">del_slip</text>
<text text-anchor="start" x="717.75" y="-474.8" font-family="Helvetica,sans-Serif" font-size="11.00">[table]</text>
<polygon fill="none" stroke="black" points="662.75,-447.25 662.75,-466.75 759.5,-466.75 759.5,-447.25 662.75,-447.25"/>
<text text-anchor="start" x="665.75" y="-453.3" font-family="Helvetica,sans-Serif" font-size="11.00">...</text>
<polygon fill="#ffffff" stroke="none" points="662.75,-427.75 662.75,-447.25 699,-447.25 699,-427.75 662.75,-427.75"/>
<polygon fill="none" stroke="black" points="662.75,-427.75 662.75,-447.25 699,-447.25 699,-427.75 662.75,-427.75"/>
<text text-anchor="start" x="665.75" y="-433.8" font-family="Helvetica,sans-Serif" font-size="11.00">&lt; 1</text>
<polygon fill="#ffffff" stroke="none" points="699,-427.75 699,-447.25 723.25,-447.25 723.25,-427.75 699,-427.75"/>
<polygon fill="none" stroke="black" points="699,-427.75 699,-447.25 723.25,-447.25 723.25,-427.75 699,-427.75"/>
<text text-anchor="start" x="712.75" y="-433.8" font-family="Helvetica,sans-Serif" font-size="11.00"> &#160;</text>
<polygon fill="#ffffff" stroke="none" points="723.25,-427.75 723.25,-447.25 759.5,-447.25 759.5,-427.75 723.25,-427.75"/>
<polygon fill="none" stroke="black" points="723.25,-427.75 723.25,-447.25 759.5,-447.25 759.5,-427.75 723.25,-427.75"/>
<text text-anchor="start" x="737" y="-433.8" font-family="Helvetica,sans-Serif" font-size="11.00">1 &gt;</text>
</a>
</g>
</g>
<!-- del_slip&#45;&gt;del_delivery -->
<g id="edge5" class="edge">
<title>del_slip:w&#45;&gt;del_delivery:e</title>
<path fill="none" stroke="black" d="M645.99,-458.62C610.42,-466.43 602.19,-499.75 558.25,-499.75"/>
<polygon fill="black" stroke="black" points="653.46,-457.85 661.79,-460.62 657.77,-457.41 661.08,-457.07 661.08,-457.07 661.08,-457.07 657.77,-457.41 661.05,-453.45 653.46,-457.85"/>
<ellipse fill="none" stroke="black" cx="648.57" cy="-458.36" rx="3.2" ry="3.2"/>
</g>
<!-- doc_sample -->
<g id="node7" class="node">
<title>doc_sample</title>
<g id="a_node7"><a xlink:href="../../tables/doc_sample.html" xlink:title="doc_sample" target="_top">
<polygon fill="#ffffff" stroke="none" points="648.75,-343.75 648.75,-406.25 773.5,-406.25 773.5,-343.75 648.75,-343.75"/>
<polygon fill="#f5f5f5" stroke="none" points="648.75,-382.75 648.75,-406.25 773.5,-406.25 773.5,-382.75 648.75,-382.75"/>
<polygon fill="none" stroke="black" points="648.75,-382.75 648.75,-406.25 773.5,-406.25 773.5,-382.75 648.75,-382.75"/>
<text text-anchor="start" x="653.75" y="-391.8" font-family="Helvetica,sans-Serif" font-weight="bold" font-size="11.00">doc_sample</text>
<text text-anchor="start" x="731.75" y="-390.8" font-family="Helvetica,sans-Serif" font-size="11.00">[table]</text>
<polygon fill="none" stroke="black" points="648.75,-363.25 648.75,-382.75 773.5,-382.75 773.5,-363.25 648.75,-363.25"/>
<text text-anchor="start" x="651.75" y="-369.3" font-family="Helvetica,sans-Serif" font-size="11.00">...</text>
<polygon fill="#ffffff" stroke="none" points="648.75,-343.75 648.75,-363.25 694.33,-363.25 694.33,-343.75 648.75,-343.75"/>
<polygon fill="none" stroke="black" points="648.75,-343.75 648.75,-363.25 694.33,-363.25 694.33,-343.75 648.75,-343.75"/>
<text text-anchor="start" x="651.75" y="-349.8" font-family="Helvetica,sans-Serif" font-size="11.00">&lt; 2</text>
<polygon fill="#ffffff" stroke="none" points="694.33,-343.75 694.33,-363.25 727.92,-363.25 727.92,-343.75 694.33,-343.75"/>
<polygon fill="none" stroke="black" points="694.33,-343.75 694.33,-363.25 727.92,-363.25 727.92,-343.75 694.33,-343.75"/>
<text text-anchor="start" x="717.42" y="-349.8" font-family="Helvetica,sans-Serif" font-size="11.00"> &#160;</text>
<polygon fill="#ffffff" stroke="none" points="727.92,-343.75 727.92,-363.25 773.5,-363.25 773.5,-343.75 727.92,-343.75"/>
<polygon fill="none" stroke="black" points="727.92,-343.75 727.92,-363.25 773.5,-363.25 773.5,-343.75 727.92,-343.75"/>
<text text-anchor="start" x="751" y="-349.8" font-family="Helvetica,sans-Serif" font-size="11.00">1 &gt;</text>
</a>
</g>
</g>
<!-- doc_sample&#45;&gt;del_delivery -->
<g id="edge6" class="edge">
<title>doc_sample:w&#45;&gt;del_delivery:e</title>
<path fill="none" stroke="black" d="M632.34,-375.57C616.65,-381.79 612.25,-398.47 598.25,-417 573.62,-449.59 599.1,-499.75 558.25,-499.75"/>
<polygon fill="black" stroke="black" points="639.53,-374.37 648.01,-376.61 643.8,-373.66 647.09,-373.11 647.09,-373.11 647.09,-373.11 643.8,-373.66 646.83,-369.5 639.53,-374.37"/>
<ellipse fill="none" stroke="black" cx="634.68" cy="-375.18" rx="3.2" ry="3.2"/>
</g>
</g>
</svg>
