<?xml version="1.0" encoding="UTF-8" standalone="no"?>
<!DOCTYPE svg PUBLIC "-//W3C//DTD SVG 1.1//EN"
 "http://www.w3.org/Graphics/SVG/1.1/DTD/svg11.dtd">
<!-- Generated by graphviz version 12.2.0 (0)
 -->
<!-- Title: oneDegreeRelationshipsDiagram Pages: 1 -->
<svg width="588pt" height="458pt"
 viewBox="0.00 0.00 588.25 458.00" xmlns="http://www.w3.org/2000/svg" xmlns:xlink="http://www.w3.org/1999/xlink">
<g id="graph0" class="graph" transform="scale(1 1) rotate(0) translate(4 454)">
<title>oneDegreeRelationshipsDiagram</title>
<polygon fill="#ffffff" stroke="none" points="-4,4 -4,-454 584.25,-454 584.25,4 -4,4"/>
<text text-anchor="middle" x="79.25" y="-7.05" font-family="Helvetica,sans-Serif" font-size="11.00">Generated by SchemaSpy</text>
<!-- del_delivered_document -->
<g id="node1" class="node">
<title>del_delivered_document</title>
<g id="a_node1"><a xlink:href="../../tables/del_delivered_document.html" xlink:title="del_delivered_document" target="_top">
<polygon fill="#ffffff" stroke="none" points="255,-55.25 255,-388.25 572.25,-388.25 572.25,-55.25 255,-55.25"/>
<polygon fill="#f5f5f5" stroke="none" points="257,-362.75 257,-386.25 570.25,-386.25 570.25,-362.75 257,-362.75"/>
<polygon fill="none" stroke="black" points="257,-362.75 257,-386.25 570.25,-386.25 570.25,-362.75 257,-362.75"/>
<text text-anchor="start" x="262" y="-371.8" font-family="Helvetica,sans-Serif" font-weight="bold" font-size="11.00">del_delivered_document</text>
<text text-anchor="start" x="528.5" y="-370.8" font-family="Helvetica,sans-Serif" font-size="11.00">[table]</text>
<polygon fill="none" stroke="black" points="257,-340.75 257,-362.75 441,-362.75 441,-340.75 257,-340.75"/>
<image xlink:href="../../images/primaryKeys.png" width="11px" height="12px" preserveAspectRatio="xMinYMin meet" x="262" y="-357.75"/>
<text text-anchor="start" x="277" y="-347.3" font-family="Helvetica,sans-Serif" font-size="11.00">identifier</text>
<polygon fill="none" stroke="black" points="441,-340.75 441,-362.75 549.5,-362.75 549.5,-340.75 441,-340.75"/>
<text text-anchor="start" x="444" y="-348.05" font-family="Helvetica,sans-Serif" font-size="11.00">varchar[191]</text>
<polygon fill="#ffffff" stroke="none" points="257,-318.75 257,-340.75 441,-340.75 441,-318.75 257,-318.75"/>
<polygon fill="none" stroke="black" points="257,-318.75 257,-340.75 441,-340.75 441,-318.75 257,-318.75"/>
<image xlink:href="../../images/foreignKeys.png" width="11px" height="12px" preserveAspectRatio="xMinYMin meet" x="262" y="-335.75"/>
<text text-anchor="start" x="277" y="-325.3" font-family="Helvetica,sans-Serif" font-size="11.00">delivery</text>
<polygon fill="none" stroke="black" points="441,-318.75 441,-340.75 549.5,-340.75 549.5,-318.75 441,-318.75"/>
<text text-anchor="start" x="444" y="-326.05" font-family="Helvetica,sans-Serif" font-size="11.00">varchar[191]</text>
<polygon fill="#ffffff" stroke="none" points="257,-296.75 257,-318.75 441,-318.75 441,-296.75 257,-296.75"/>
<polygon fill="none" stroke="black" points="257,-296.75 257,-318.75 441,-318.75 441,-296.75 257,-296.75"/>
<image xlink:href="../../images/foreignKeys.png" width="11px" height="12px" preserveAspectRatio="xMinYMin meet" x="262" y="-313.75"/>
<text text-anchor="start" x="277" y="-303.3" font-family="Helvetica,sans-Serif" font-size="11.00">digital_document</text>
<polygon fill="none" stroke="black" points="441,-296.75 441,-318.75 549.5,-318.75 549.5,-296.75 441,-296.75"/>
<text text-anchor="start" x="444" y="-304.05" font-family="Helvetica,sans-Serif" font-size="11.00">varchar[191]</text>
<polygon fill="none" stroke="black" points="257,-274.75 257,-296.75 441,-296.75 441,-274.75 257,-274.75"/>
<text text-anchor="start" x="277" y="-281.3" font-family="Helvetica,sans-Serif" font-size="11.00">status</text>
<polygon fill="none" stroke="black" points="441,-274.75 441,-296.75 549.5,-296.75 549.5,-274.75 441,-274.75"/>
<text text-anchor="start" x="444" y="-282.05" font-family="Helvetica,sans-Serif" font-size="11.00">varchar[255]</text>
<polygon fill="none" stroke="black" points="257,-252.75 257,-274.75 441,-274.75 441,-252.75 257,-252.75"/>
<text text-anchor="start" x="277" y="-259.3" font-family="Helvetica,sans-Serif" font-size="11.00">delivery_date</text>
<polygon fill="none" stroke="black" points="441,-252.75 441,-274.75 549.5,-274.75 549.5,-252.75 441,-252.75"/>
<text text-anchor="start" x="444" y="-260.05" font-family="Helvetica,sans-Serif" font-size="11.00">date[10]</text>
<polygon fill="none" stroke="black" points="257,-230.75 257,-252.75 441,-252.75 441,-230.75 257,-230.75"/>
<text text-anchor="start" x="277" y="-237.3" font-family="Helvetica,sans-Serif" font-size="11.00">nb_pages</text>
<polygon fill="none" stroke="black" points="441,-230.75 441,-252.75 549.5,-252.75 549.5,-230.75 441,-230.75"/>
<text text-anchor="start" x="444" y="-238.05" font-family="Helvetica,sans-Serif" font-size="11.00">int[10]</text>
<polygon fill="none" stroke="black" points="257,-208.75 257,-230.75 441,-230.75 441,-208.75 257,-208.75"/>
<text text-anchor="start" x="277" y="-215.3" font-family="Helvetica,sans-Serif" font-size="11.00">total_length</text>
<polygon fill="none" stroke="black" points="441,-208.75 441,-230.75 549.5,-230.75 549.5,-208.75 441,-208.75"/>
<text text-anchor="start" x="444" y="-216.05" font-family="Helvetica,sans-Serif" font-size="11.00">bigint[19]</text>
<polygon fill="none" stroke="black" points="257,-186.75 257,-208.75 441,-208.75 441,-186.75 257,-186.75"/>
<text text-anchor="start" x="277" y="-193.3" font-family="Helvetica,sans-Serif" font-size="11.00">version</text>
<polygon fill="none" stroke="black" points="441,-186.75 441,-208.75 549.5,-208.75 549.5,-186.75 441,-186.75"/>
<text text-anchor="start" x="444" y="-194.05" font-family="Helvetica,sans-Serif" font-size="11.00">bigint[19]</text>
<polygon fill="none" stroke="black" points="257,-164.75 257,-186.75 441,-186.75 441,-164.75 257,-164.75"/>
<text text-anchor="start" x="277" y="-171.3" font-family="Helvetica,sans-Serif" font-size="11.00">created_by</text>
<polygon fill="none" stroke="black" points="441,-164.75 441,-186.75 549.5,-186.75 549.5,-164.75 441,-164.75"/>
<text text-anchor="start" x="444" y="-172.05" font-family="Helvetica,sans-Serif" font-size="11.00">varchar[191]</text>
<polygon fill="none" stroke="black" points="257,-142.75 257,-164.75 441,-164.75 441,-142.75 257,-142.75"/>
<text text-anchor="start" x="277" y="-149.3" font-family="Helvetica,sans-Serif" font-size="11.00">last_modified_by</text>
<polygon fill="none" stroke="black" points="441,-142.75 441,-164.75 549.5,-164.75 549.5,-142.75 441,-142.75"/>
<text text-anchor="start" x="444" y="-150.05" font-family="Helvetica,sans-Serif" font-size="11.00">varchar[191]</text>
<polygon fill="none" stroke="black" points="257,-120.75 257,-142.75 441,-142.75 441,-120.75 257,-120.75"/>
<text text-anchor="start" x="277" y="-127.3" font-family="Helvetica,sans-Serif" font-size="11.00">created_date</text>
<polygon fill="none" stroke="black" points="441,-120.75 441,-142.75 549.5,-142.75 549.5,-120.75 441,-120.75"/>
<text text-anchor="start" x="444" y="-128.05" font-family="Helvetica,sans-Serif" font-size="11.00">timestamp[19]</text>
<polygon fill="none" stroke="black" points="257,-98.75 257,-120.75 441,-120.75 441,-98.75 257,-98.75"/>
<text text-anchor="start" x="277" y="-105.3" font-family="Helvetica,sans-Serif" font-size="11.00">last_modified_date</text>
<polygon fill="none" stroke="black" points="441,-98.75 441,-120.75 549.5,-120.75 549.5,-98.75 441,-98.75"/>
<text text-anchor="start" x="444" y="-106.05" font-family="Helvetica,sans-Serif" font-size="11.00">timestamp[19]</text>
<polygon fill="#ffffff" stroke="none" points="257,-76.75 257,-98.75 441,-98.75 441,-76.75 257,-76.75"/>
<polygon fill="none" stroke="black" points="257,-76.75 257,-98.75 441,-98.75 441,-76.75 257,-76.75"/>
<image xlink:href="../../images/foreignKeys.png" width="11px" height="12px" preserveAspectRatio="xMinYMin meet" x="262" y="-93.75"/>
<text text-anchor="start" x="277" y="-83.3" font-family="Helvetica,sans-Serif" font-size="11.00">check_slip</text>
<polygon fill="none" stroke="black" points="441,-76.75 441,-98.75 549.5,-98.75 549.5,-76.75 441,-76.75"/>
<text text-anchor="start" x="444" y="-84.05" font-family="Helvetica,sans-Serif" font-size="11.00">varchar[191]</text>
<polygon fill="#ffffff" stroke="none" points="257,-57.25 257,-76.75 355,-76.75 355,-57.25 257,-57.25"/>
<polygon fill="none" stroke="black" points="257,-57.25 257,-76.75 355,-76.75 355,-57.25 257,-57.25"/>
<text text-anchor="start" x="260" y="-63.3" font-family="Helvetica,sans-Serif" font-size="11.00">&lt; 3</text>
<polygon fill="#ffffff" stroke="none" points="355,-57.25 355,-76.75 441,-76.75 441,-57.25 355,-57.25"/>
<polygon fill="none" stroke="black" points="355,-57.25 355,-76.75 441,-76.75 441,-57.25 355,-57.25"/>
<text text-anchor="start" x="430.5" y="-63.3" font-family="Helvetica,sans-Serif" font-size="11.00"> &#160;</text>
<polygon fill="#ffffff" stroke="none" points="441,-57.25 441,-76.75 549.5,-76.75 549.5,-57.25 441,-57.25"/>
<polygon fill="none" stroke="black" points="441,-57.25 441,-76.75 549.5,-76.75 549.5,-57.25 441,-57.25"/>
<text text-anchor="start" x="527" y="-63.3" font-family="Helvetica,sans-Serif" font-size="11.00">0 &gt;</text>
<polygon fill="none" stroke="black" stroke-width="2" points="256,-56.25 256,-387.25 571.25,-387.25 571.25,-56.25 256,-56.25"/>
</a>
</g>
</g>
<!-- check_slip -->
<g id="node2" class="node">
<title>check_slip</title>
<g id="a_node2"><a xlink:href="../../tables/check_slip.html" xlink:title="check_slip" target="_top">
<polygon fill="#ffffff" stroke="none" points="33,-38.5 33,-123 181,-123 181,-38.5 33,-38.5"/>
<polygon fill="#f5f5f5" stroke="none" points="33,-99.5 33,-123 181,-123 181,-99.5 33,-99.5"/>
<polygon fill="none" stroke="black" points="33,-99.5 33,-123 181,-123 181,-99.5 33,-99.5"/>
<text text-anchor="start" x="38" y="-108.55" font-family="Helvetica,sans-Serif" font-weight="bold" font-size="11.00">check_slip</text>
<text text-anchor="start" x="139.25" y="-107.55" font-family="Helvetica,sans-Serif" font-size="11.00">[table]</text>
<polygon fill="none" stroke="black" points="33,-77.5 33,-99.5 181,-99.5 181,-77.5 33,-77.5"/>
<image xlink:href="../../images/primaryKeys.png" width="11px" height="12px" preserveAspectRatio="xMinYMin meet" x="38" y="-94.5"/>
<text text-anchor="start" x="53" y="-84.05" font-family="Helvetica,sans-Serif" font-size="11.00">identifier</text>
<polygon fill="none" stroke="black" points="33,-58 33,-77.5 181,-77.5 181,-58 33,-58"/>
<text text-anchor="start" x="36" y="-64.05" font-family="Helvetica,sans-Serif" font-size="11.00">...</text>
<polygon fill="#ffffff" stroke="none" points="33,-38.5 33,-58 78.33,-58 78.33,-38.5 33,-38.5"/>
<polygon fill="none" stroke="black" points="33,-38.5 33,-58 78.33,-58 78.33,-38.5 33,-38.5"/>
<text text-anchor="start" x="36" y="-44.55" font-family="Helvetica,sans-Serif" font-size="11.00"> &#160;</text>
<polygon fill="#ffffff" stroke="none" points="78.33,-38.5 78.33,-58 123.67,-58 123.67,-38.5 78.33,-38.5"/>
<polygon fill="none" stroke="black" points="78.33,-38.5 78.33,-58 123.67,-58 123.67,-38.5 78.33,-38.5"/>
<text text-anchor="start" x="113.17" y="-44.55" font-family="Helvetica,sans-Serif" font-size="11.00"> &#160;</text>
<polygon fill="#ffffff" stroke="none" points="123.67,-38.5 123.67,-58 181,-58 181,-38.5 123.67,-38.5"/>
<polygon fill="none" stroke="black" points="123.67,-38.5 123.67,-58 181,-58 181,-38.5 123.67,-38.5"/>
<text text-anchor="start" x="158.5" y="-44.55" font-family="Helvetica,sans-Serif" font-size="11.00">2 &gt;</text>
</a>
</g>
</g>
<!-- del_delivered_document&#45;&gt;check_slip -->
<g id="edge1" class="edge">
<title>del_delivered_document:w&#45;&gt;check_slip:e</title>
<path fill="none" stroke="black" d="M240.37,-87.81C219.36,-88 208.98,-88.5 182,-88.5"/>
<polygon fill="black" stroke="black" points="247.67,-87.78 255.68,-91.35 252,-87.77 255.33,-87.75 255.33,-87.75 255.33,-87.75 252,-87.77 255.65,-84.15 247.67,-87.78"/>
<ellipse fill="none" stroke="black" cx="242.75" cy="-87.8" rx="3.2" ry="3.2"/>
</g>
<!-- del_delivery -->
<g id="node3" class="node">
<title>del_delivery</title>
<g id="a_node3"><a xlink:href="../../tables/del_delivery.html" xlink:title="del_delivery" target="_top">
<polygon fill="#ffffff" stroke="none" points="8,-317.5 8,-446 206,-446 206,-317.5 8,-317.5"/>
<polygon fill="#f5f5f5" stroke="none" points="8,-422.5 8,-446 206,-446 206,-422.5 8,-422.5"/>
<polygon fill="none" stroke="black" points="8,-422.5 8,-446 206,-446 206,-422.5 8,-422.5"/>
<text text-anchor="start" x="13" y="-431.55" font-family="Helvetica,sans-Serif" font-weight="bold" font-size="11.00">del_delivery</text>
<text text-anchor="start" x="164.25" y="-430.55" font-family="Helvetica,sans-Serif" font-size="11.00">[table]</text>
<polygon fill="none" stroke="black" points="8,-400.5 8,-422.5 206,-422.5 206,-400.5 8,-400.5"/>
<image xlink:href="../../images/primaryKeys.png" width="11px" height="12px" preserveAspectRatio="xMinYMin meet" x="13" y="-417.5"/>
<text text-anchor="start" x="28" y="-407.05" font-family="Helvetica,sans-Serif" font-size="11.00">identifier</text>
<polygon fill="#ffffff" stroke="none" points="8,-378.5 8,-400.5 206,-400.5 206,-378.5 8,-378.5"/>
<polygon fill="none" stroke="black" points="8,-378.5 8,-400.5 206,-400.5 206,-378.5 8,-378.5"/>
<image xlink:href="../../images/foreignKeys.png" width="11px" height="12px" preserveAspectRatio="xMinYMin meet" x="13" y="-395.5"/>
<text text-anchor="start" x="28" y="-385.05" font-family="Helvetica,sans-Serif" font-size="11.00">lot_identifier</text>
<polygon fill="#ffffff" stroke="none" points="8,-356.5 8,-378.5 206,-378.5 206,-356.5 8,-356.5"/>
<polygon fill="none" stroke="black" points="8,-356.5 8,-378.5 206,-378.5 206,-356.5 8,-356.5"/>
<image xlink:href="../../images/foreignKeys.png" width="11px" height="12px" preserveAspectRatio="xMinYMin meet" x="13" y="-373.5"/>
<text text-anchor="start" x="28" y="-363.05" font-family="Helvetica,sans-Serif" font-size="11.00">multi_lots_delivery</text>
<polygon fill="none" stroke="black" points="8,-337 8,-356.5 206,-356.5 206,-337 8,-337"/>
<text text-anchor="start" x="11" y="-343.05" font-family="Helvetica,sans-Serif" font-size="11.00">...</text>
<polygon fill="#ffffff" stroke="none" points="8,-317.5 8,-337 78,-337 78,-317.5 8,-317.5"/>
<polygon fill="none" stroke="black" points="8,-317.5 8,-337 78,-337 78,-317.5 8,-317.5"/>
<text text-anchor="start" x="11" y="-323.55" font-family="Helvetica,sans-Serif" font-size="11.00">&lt; 2</text>
<polygon fill="#ffffff" stroke="none" points="78,-317.5 78,-337 136,-337 136,-317.5 78,-317.5"/>
<polygon fill="none" stroke="black" points="78,-317.5 78,-337 136,-337 136,-317.5 78,-317.5"/>
<text text-anchor="start" x="125.5" y="-323.55" font-family="Helvetica,sans-Serif" font-size="11.00"> &#160;</text>
<polygon fill="#ffffff" stroke="none" points="136,-317.5 136,-337 206,-337 206,-317.5 136,-317.5"/>
<polygon fill="none" stroke="black" points="136,-317.5 136,-337 206,-337 206,-317.5 136,-317.5"/>
<text text-anchor="start" x="183.5" y="-323.55" font-family="Helvetica,sans-Serif" font-size="11.00">4 &gt;</text>
</a>
</g>
</g>
<!-- del_delivered_document&#45;&gt;del_delivery -->
<g id="edge2" class="edge">
<title>del_delivered_document:w&#45;&gt;del_delivery:e</title>
<path fill="none" stroke="black" d="M241.27,-335.11C222.9,-353.3 242.74,-411.5 207,-411.5"/>
<polygon fill="black" stroke="black" points="248.17,-332.6 256.92,-333.25 252.24,-331.12 255.37,-329.98 255.37,-329.98 255.37,-329.98 252.24,-331.12 254.45,-326.48 248.17,-332.6"/>
<ellipse fill="none" stroke="black" cx="243.55" cy="-334.28" rx="3.2" ry="3.2"/>
</g>
<!-- doc_digital_document -->
<g id="node4" class="node">
<title>doc_digital_document</title>
<g id="a_node4"><a xlink:href="../../tables/doc_digital_document.html" xlink:title="doc_digital_document" target="_top">
<polygon fill="#ffffff" stroke="none" points="10.62,-189.5 10.62,-296 203.38,-296 203.38,-189.5 10.62,-189.5"/>
<polygon fill="#f5f5f5" stroke="none" points="10.62,-272.5 10.62,-296 203.38,-296 203.38,-272.5 10.62,-272.5"/>
<polygon fill="none" stroke="black" points="10.62,-272.5 10.62,-296 203.38,-296 203.38,-272.5 10.62,-272.5"/>
<text text-anchor="start" x="15.62" y="-281.55" font-family="Helvetica,sans-Serif" font-weight="bold" font-size="11.00">doc_digital_document</text>
<text text-anchor="start" x="161.62" y="-280.55" font-family="Helvetica,sans-Serif" font-size="11.00">[table]</text>
<polygon fill="none" stroke="black" points="10.62,-250.5 10.62,-272.5 203.38,-272.5 203.38,-250.5 10.62,-250.5"/>
<image xlink:href="../../images/primaryKeys.png" width="11px" height="12px" preserveAspectRatio="xMinYMin meet" x="15.625" y="-267.5"/>
<text text-anchor="start" x="43.5" y="-257.05" font-family="Helvetica,sans-Serif" font-size="11.00">identifier</text>
<polygon fill="#ffffff" stroke="none" points="10.62,-228.5 10.62,-250.5 203.38,-250.5 203.38,-228.5 10.62,-228.5"/>
<polygon fill="none" stroke="black" points="10.62,-228.5 10.62,-250.5 203.38,-250.5 203.38,-228.5 10.62,-228.5"/>
<image xlink:href="../../images/foreignKeys.png" width="11px" height="12px" preserveAspectRatio="xMinYMin meet" x="15.625" y="-245.5"/>
<text text-anchor="start" x="43.5" y="-235.05" font-family="Helvetica,sans-Serif" font-size="11.00">doc_unit</text>
<polygon fill="none" stroke="black" points="10.62,-209 10.62,-228.5 203.38,-228.5 203.38,-209 10.62,-209"/>
<text text-anchor="start" x="13.62" y="-215.05" font-family="Helvetica,sans-Serif" font-size="11.00">...</text>
<polygon fill="#ffffff" stroke="none" points="10.62,-189.5 10.62,-209 78.88,-209 78.88,-189.5 10.62,-189.5"/>
<polygon fill="none" stroke="black" points="10.62,-189.5 10.62,-209 78.88,-209 78.88,-189.5 10.62,-189.5"/>
<text text-anchor="start" x="13.62" y="-195.55" font-family="Helvetica,sans-Serif" font-size="11.00">&lt; 1</text>
<polygon fill="#ffffff" stroke="none" points="78.88,-189.5 78.88,-209 135.12,-209 135.12,-189.5 78.88,-189.5"/>
<polygon fill="none" stroke="black" points="78.88,-189.5 78.88,-209 135.12,-209 135.12,-189.5 78.88,-189.5"/>
<text text-anchor="start" x="124.62" y="-195.55" font-family="Helvetica,sans-Serif" font-size="11.00"> &#160;</text>
<polygon fill="#ffffff" stroke="none" points="135.12,-189.5 135.12,-209 203.38,-209 203.38,-189.5 135.12,-189.5"/>
<polygon fill="none" stroke="black" points="135.12,-189.5 135.12,-209 203.38,-209 203.38,-189.5 135.12,-189.5"/>
<text text-anchor="start" x="180.88" y="-195.55" font-family="Helvetica,sans-Serif" font-size="11.00">6 &gt;</text>
</a>
</g>
</g>
<!-- del_delivered_document&#45;&gt;doc_digital_document -->
<g id="edge3" class="edge">
<title>del_delivered_document:w&#45;&gt;doc_digital_document:e</title>
<path fill="none" stroke="black" d="M241.19,-302.44C227.59,-290.3 228.68,-261.5 204.38,-261.5"/>
<polygon fill="black" stroke="black" points="248.15,-304.94 254.47,-311.03 252.23,-306.4 255.37,-307.52 255.37,-307.52 255.37,-307.52 252.23,-306.4 256.9,-304.25 248.15,-304.94"/>
<ellipse fill="none" stroke="black" cx="243.52" cy="-303.28" rx="3.2" ry="3.2"/>
</g>
</g>
</svg>
