<?xml version="1.0" encoding="UTF-8" standalone="no"?>
<!DOCTYPE svg PUBLIC "-//W3C//DTD SVG 1.1//EN"
 "http://www.w3.org/Graphics/SVG/1.1/DTD/svg11.dtd">
<!-- Generated by graphviz version 12.2.0 (0)
 -->
<!-- Title: twoDegreesRelationshipsDiagram Pages: 1 -->
<svg width="1387pt" height="919pt"
 viewBox="0.00 0.00 1387.25 918.94" xmlns="http://www.w3.org/2000/svg" xmlns:xlink="http://www.w3.org/1999/xlink">
<g id="graph0" class="graph" transform="scale(1 1) rotate(0) translate(4 914.94)">
<title>twoDegreesRelationshipsDiagram</title>
<polygon fill="#ffffff" stroke="none" points="-4,4 -4,-914.94 1383.25,-914.94 1383.25,4 -4,4"/>
<text text-anchor="middle" x="79.25" y="-7.05" font-family="Helvetica,sans-Serif" font-size="11.00">Generated by SchemaSpy</text>
<!-- check_automatic_result -->
<g id="node1" class="node">
<title>check_automatic_result</title>
<g id="a_node1"><a xlink:href="../../tables/check_automatic_result.html" xlink:title="check_automatic_result" target="_top">
<polygon fill="#ffffff" stroke="none" points="1166.5,-698.5 1166.5,-761 1371.25,-761 1371.25,-698.5 1166.5,-698.5"/>
<polygon fill="#f5f5f5" stroke="none" points="1166.5,-737.5 1166.5,-761 1371.25,-761 1371.25,-737.5 1166.5,-737.5"/>
<polygon fill="none" stroke="black" points="1166.5,-737.5 1166.5,-761 1371.25,-761 1371.25,-737.5 1166.5,-737.5"/>
<text text-anchor="start" x="1171.5" y="-746.55" font-family="Helvetica,sans-Serif" font-weight="bold" font-size="11.00">check_automatic_result</text>
<text text-anchor="start" x="1329.5" y="-745.55" font-family="Helvetica,sans-Serif" font-size="11.00">[table]</text>
<polygon fill="none" stroke="black" points="1166.5,-718 1166.5,-737.5 1371.25,-737.5 1371.25,-718 1166.5,-718"/>
<text text-anchor="start" x="1169.5" y="-724.05" font-family="Helvetica,sans-Serif" font-size="11.00">...</text>
<polygon fill="#ffffff" stroke="none" points="1166.5,-698.5 1166.5,-718 1242.75,-718 1242.75,-698.5 1166.5,-698.5"/>
<polygon fill="none" stroke="black" points="1166.5,-698.5 1166.5,-718 1242.75,-718 1242.75,-698.5 1166.5,-698.5"/>
<text text-anchor="start" x="1169.5" y="-704.55" font-family="Helvetica,sans-Serif" font-size="11.00">&lt; 6</text>
<polygon fill="#ffffff" stroke="none" points="1242.75,-698.5 1242.75,-718 1307,-718 1307,-698.5 1242.75,-698.5"/>
<polygon fill="none" stroke="black" points="1242.75,-698.5 1242.75,-718 1307,-718 1307,-698.5 1242.75,-698.5"/>
<text text-anchor="start" x="1296.5" y="-704.55" font-family="Helvetica,sans-Serif" font-size="11.00"> &#160;</text>
<polygon fill="#ffffff" stroke="none" points="1307,-698.5 1307,-718 1371.25,-718 1371.25,-698.5 1307,-698.5"/>
<polygon fill="none" stroke="black" points="1307,-698.5 1307,-718 1371.25,-718 1371.25,-698.5 1307,-698.5"/>
<text text-anchor="start" x="1360.75" y="-704.55" font-family="Helvetica,sans-Serif" font-size="11.00"> &#160;</text>
</a>
</g>
</g>
<!-- del_delivery -->
<g id="node2" class="node">
<title>del_delivery</title>
<g id="a_node2"><a xlink:href="../../tables/del_delivery.html" xlink:title="del_delivery" target="_top">
<polygon fill="#ffffff" stroke="none" points="394.5,-469.5 394.5,-598 592.5,-598 592.5,-469.5 394.5,-469.5"/>
<polygon fill="#f5f5f5" stroke="none" points="394.5,-574.5 394.5,-598 592.5,-598 592.5,-574.5 394.5,-574.5"/>
<polygon fill="none" stroke="black" points="394.5,-574.5 394.5,-598 592.5,-598 592.5,-574.5 394.5,-574.5"/>
<text text-anchor="start" x="399.5" y="-583.55" font-family="Helvetica,sans-Serif" font-weight="bold" font-size="11.00">del_delivery</text>
<text text-anchor="start" x="550.75" y="-582.55" font-family="Helvetica,sans-Serif" font-size="11.00">[table]</text>
<polygon fill="none" stroke="black" points="394.5,-552.5 394.5,-574.5 592.5,-574.5 592.5,-552.5 394.5,-552.5"/>
<image xlink:href="../../images/primaryKeys.png" width="11px" height="12px" preserveAspectRatio="xMinYMin meet" x="399.5" y="-569.5"/>
<text text-anchor="start" x="414.5" y="-559.05" font-family="Helvetica,sans-Serif" font-size="11.00">identifier</text>
<polygon fill="#ffffff" stroke="none" points="394.5,-530.5 394.5,-552.5 592.5,-552.5 592.5,-530.5 394.5,-530.5"/>
<polygon fill="none" stroke="black" points="394.5,-530.5 394.5,-552.5 592.5,-552.5 592.5,-530.5 394.5,-530.5"/>
<image xlink:href="../../images/foreignKeys.png" width="11px" height="12px" preserveAspectRatio="xMinYMin meet" x="399.5" y="-547.5"/>
<text text-anchor="start" x="414.5" y="-537.05" font-family="Helvetica,sans-Serif" font-size="11.00">lot_identifier</text>
<polygon fill="#ffffff" stroke="none" points="394.5,-508.5 394.5,-530.5 592.5,-530.5 592.5,-508.5 394.5,-508.5"/>
<polygon fill="none" stroke="black" points="394.5,-508.5 394.5,-530.5 592.5,-530.5 592.5,-508.5 394.5,-508.5"/>
<image xlink:href="../../images/foreignKeys.png" width="11px" height="12px" preserveAspectRatio="xMinYMin meet" x="399.5" y="-525.5"/>
<text text-anchor="start" x="414.5" y="-515.05" font-family="Helvetica,sans-Serif" font-size="11.00">multi_lots_delivery</text>
<polygon fill="none" stroke="black" points="394.5,-489 394.5,-508.5 592.5,-508.5 592.5,-489 394.5,-489"/>
<text text-anchor="start" x="397.5" y="-495.05" font-family="Helvetica,sans-Serif" font-size="11.00">...</text>
<polygon fill="#ffffff" stroke="none" points="394.5,-469.5 394.5,-489 464.5,-489 464.5,-469.5 394.5,-469.5"/>
<polygon fill="none" stroke="black" points="394.5,-469.5 394.5,-489 464.5,-489 464.5,-469.5 394.5,-469.5"/>
<text text-anchor="start" x="397.5" y="-475.55" font-family="Helvetica,sans-Serif" font-size="11.00">&lt; 2</text>
<polygon fill="#ffffff" stroke="none" points="464.5,-469.5 464.5,-489 522.5,-489 522.5,-469.5 464.5,-469.5"/>
<polygon fill="none" stroke="black" points="464.5,-469.5 464.5,-489 522.5,-489 522.5,-469.5 464.5,-469.5"/>
<text text-anchor="start" x="512" y="-475.55" font-family="Helvetica,sans-Serif" font-size="11.00"> &#160;</text>
<polygon fill="#ffffff" stroke="none" points="522.5,-469.5 522.5,-489 592.5,-489 592.5,-469.5 522.5,-469.5"/>
<polygon fill="none" stroke="black" points="522.5,-469.5 522.5,-489 592.5,-489 592.5,-469.5 522.5,-469.5"/>
<text text-anchor="start" x="570" y="-475.55" font-family="Helvetica,sans-Serif" font-size="11.00">4 &gt;</text>
</a>
</g>
</g>
<!-- check_automatic_result&#45;&gt;del_delivery -->
<g id="edge1" class="edge">
<title>check_automatic_result:w&#45;&gt;del_delivery:e</title>
<path fill="none" stroke="black" d="M1150.2,-723.87C1129.69,-709.61 1153.82,-659.58 1125.5,-632.75 1071.08,-581.19 1040.38,-589.82 966.75,-575.75 803.72,-544.61 759.48,-563.5 593.5,-563.5"/>
<polygon fill="black" stroke="black" points="1157.42,-725.7 1164.29,-731.16 1161.62,-726.77 1164.85,-727.59 1164.85,-727.59 1164.85,-727.59 1161.62,-726.77 1166.06,-724.18 1157.42,-725.7"/>
<ellipse fill="none" stroke="black" cx="1152.65" cy="-724.49" rx="3.2" ry="3.2"/>
</g>
<!-- doc_digital_document -->
<g id="node3" class="node">
<title>doc_digital_document</title>
<g id="a_node3"><a xlink:href="../../tables/doc_digital_document.html" xlink:title="doc_digital_document" target="_top">
<polygon fill="#ffffff" stroke="none" points="397.12,-636.5 397.12,-743 589.88,-743 589.88,-636.5 397.12,-636.5"/>
<polygon fill="#f5f5f5" stroke="none" points="397.12,-719.5 397.12,-743 589.88,-743 589.88,-719.5 397.12,-719.5"/>
<polygon fill="none" stroke="black" points="397.12,-719.5 397.12,-743 589.88,-743 589.88,-719.5 397.12,-719.5"/>
<text text-anchor="start" x="402.12" y="-728.55" font-family="Helvetica,sans-Serif" font-weight="bold" font-size="11.00">doc_digital_document</text>
<text text-anchor="start" x="548.12" y="-727.55" font-family="Helvetica,sans-Serif" font-size="11.00">[table]</text>
<polygon fill="none" stroke="black" points="397.12,-697.5 397.12,-719.5 589.88,-719.5 589.88,-697.5 397.12,-697.5"/>
<image xlink:href="../../images/primaryKeys.png" width="11px" height="12px" preserveAspectRatio="xMinYMin meet" x="402.125" y="-714.5"/>
<text text-anchor="start" x="430" y="-704.05" font-family="Helvetica,sans-Serif" font-size="11.00">identifier</text>
<polygon fill="#ffffff" stroke="none" points="397.12,-675.5 397.12,-697.5 589.88,-697.5 589.88,-675.5 397.12,-675.5"/>
<polygon fill="none" stroke="black" points="397.12,-675.5 397.12,-697.5 589.88,-697.5 589.88,-675.5 397.12,-675.5"/>
<image xlink:href="../../images/foreignKeys.png" width="11px" height="12px" preserveAspectRatio="xMinYMin meet" x="402.125" y="-692.5"/>
<text text-anchor="start" x="430" y="-682.05" font-family="Helvetica,sans-Serif" font-size="11.00">doc_unit</text>
<polygon fill="none" stroke="black" points="397.12,-656 397.12,-675.5 589.88,-675.5 589.88,-656 397.12,-656"/>
<text text-anchor="start" x="400.12" y="-662.05" font-family="Helvetica,sans-Serif" font-size="11.00">...</text>
<polygon fill="#ffffff" stroke="none" points="397.12,-636.5 397.12,-656 465.38,-656 465.38,-636.5 397.12,-636.5"/>
<polygon fill="none" stroke="black" points="397.12,-636.5 397.12,-656 465.38,-656 465.38,-636.5 397.12,-636.5"/>
<text text-anchor="start" x="400.12" y="-642.55" font-family="Helvetica,sans-Serif" font-size="11.00">&lt; 1</text>
<polygon fill="#ffffff" stroke="none" points="465.38,-636.5 465.38,-656 521.62,-656 521.62,-636.5 465.38,-636.5"/>
<polygon fill="none" stroke="black" points="465.38,-636.5 465.38,-656 521.62,-656 521.62,-636.5 465.38,-636.5"/>
<text text-anchor="start" x="511.12" y="-642.55" font-family="Helvetica,sans-Serif" font-size="11.00"> &#160;</text>
<polygon fill="#ffffff" stroke="none" points="521.62,-636.5 521.62,-656 589.88,-656 589.88,-636.5 521.62,-636.5"/>
<polygon fill="none" stroke="black" points="521.62,-636.5 521.62,-656 589.88,-656 589.88,-636.5 521.62,-636.5"/>
<text text-anchor="start" x="567.38" y="-642.55" font-family="Helvetica,sans-Serif" font-size="11.00">6 &gt;</text>
</a>
</g>
</g>
<!-- check_automatic_result&#45;&gt;doc_digital_document -->
<g id="edge2" class="edge">
<title>check_automatic_result:w&#45;&gt;doc_digital_document:e</title>
<path fill="none" stroke="black" d="M1149.86,-728.1C1072.69,-731.61 1051.11,-760.93 966.75,-769.75 893.1,-777.45 699.14,-804.04 633.5,-769.75 604.1,-754.39 624.04,-708.5 590.88,-708.5"/>
<polygon fill="black" stroke="black" points="1157.17,-727.93 1165.25,-731.36 1161.5,-727.84 1164.83,-727.76 1164.83,-727.76 1164.83,-727.76 1161.5,-727.84 1165.09,-724.16 1157.17,-727.93"/>
<ellipse fill="none" stroke="black" cx="1152.25" cy="-728.04" rx="3.2" ry="3.2"/>
</g>
<!-- doc_unit -->
<g id="node4" class="node">
<title>doc_unit</title>
<g id="a_node4"><a xlink:href="../../tables/doc_unit.html" xlink:title="doc_unit" target="_top">
<polygon fill="#ffffff" stroke="none" points="194.25,-657.5 194.25,-720 297,-720 297,-657.5 194.25,-657.5"/>
<polygon fill="#f5f5f5" stroke="none" points="194.25,-696.5 194.25,-720 297,-720 297,-696.5 194.25,-696.5"/>
<polygon fill="none" stroke="black" points="194.25,-696.5 194.25,-720 297,-720 297,-696.5 194.25,-696.5"/>
<text text-anchor="start" x="199.25" y="-705.55" font-family="Helvetica,sans-Serif" font-weight="bold" font-size="11.00">doc_unit</text>
<text text-anchor="start" x="255.25" y="-704.55" font-family="Helvetica,sans-Serif" font-size="11.00">[table]</text>
<polygon fill="none" stroke="black" points="194.25,-677 194.25,-696.5 297,-696.5 297,-677 194.25,-677"/>
<text text-anchor="start" x="197.25" y="-683.05" font-family="Helvetica,sans-Serif" font-size="11.00">...</text>
<polygon fill="#ffffff" stroke="none" points="194.25,-657.5 194.25,-677 234.75,-677 234.75,-657.5 194.25,-657.5"/>
<polygon fill="none" stroke="black" points="194.25,-657.5 194.25,-677 234.75,-677 234.75,-657.5 194.25,-657.5"/>
<text text-anchor="start" x="197.25" y="-663.55" font-family="Helvetica,sans-Serif" font-size="11.00">&lt; 13</text>
<polygon fill="#ffffff" stroke="none" points="234.75,-657.5 234.75,-677 256.5,-677 256.5,-657.5 234.75,-657.5"/>
<polygon fill="none" stroke="black" points="234.75,-657.5 234.75,-677 256.5,-677 256.5,-657.5 234.75,-657.5"/>
<text text-anchor="start" x="246" y="-663.55" font-family="Helvetica,sans-Serif" font-size="11.00"> &#160;</text>
<polygon fill="#ffffff" stroke="none" points="256.5,-657.5 256.5,-677 297,-677 297,-657.5 256.5,-657.5"/>
<polygon fill="none" stroke="black" points="256.5,-657.5 256.5,-677 297,-677 297,-657.5 256.5,-657.5"/>
<text text-anchor="start" x="267.75" y="-663.55" font-family="Helvetica,sans-Serif" font-size="11.00">11 &gt;</text>
</a>
</g>
</g>
<!-- check_automatic_result&#45;&gt;doc_unit -->
<g id="edge3" class="edge">
<title>check_automatic_result:w&#45;&gt;doc_unit:e</title>
<path fill="none" stroke="black" d="M1152.9,-737C1109.38,-769.89 968.15,-879.28 966.75,-879.75 826.46,-927.25 777.51,-914.36 633.5,-879.75 513.68,-850.95 490.92,-819.2 386.5,-753.75 344.7,-727.55 347.33,-686.75 298,-686.75"/>
<polygon fill="black" stroke="black" points="1158.78,-732.68 1167.36,-730.85 1162.27,-730.12 1164.96,-728.15 1164.96,-728.15 1164.96,-728.15 1162.27,-730.12 1163.1,-725.05 1158.78,-732.68"/>
<ellipse fill="none" stroke="black" cx="1154.81" cy="-735.59" rx="3.2" ry="3.2"/>
</g>
<!-- doc_page -->
<g id="node5" class="node">
<title>doc_page</title>
<g id="a_node5"><a xlink:href="../../tables/doc_page.html" xlink:title="doc_page" target="_top">
<polygon fill="#ffffff" stroke="none" points="1007.75,-643.5 1007.75,-706 1117.5,-706 1117.5,-643.5 1007.75,-643.5"/>
<polygon fill="#f5f5f5" stroke="none" points="1007.75,-682.5 1007.75,-706 1117.5,-706 1117.5,-682.5 1007.75,-682.5"/>
<polygon fill="none" stroke="black" points="1007.75,-682.5 1007.75,-706 1117.5,-706 1117.5,-682.5 1007.75,-682.5"/>
<text text-anchor="start" x="1012.75" y="-691.55" font-family="Helvetica,sans-Serif" font-weight="bold" font-size="11.00">doc_page</text>
<text text-anchor="start" x="1075.75" y="-690.55" font-family="Helvetica,sans-Serif" font-size="11.00">[table]</text>
<polygon fill="none" stroke="black" points="1007.75,-663 1007.75,-682.5 1117.5,-682.5 1117.5,-663 1007.75,-663"/>
<text text-anchor="start" x="1010.75" y="-669.05" font-family="Helvetica,sans-Serif" font-size="11.00">...</text>
<polygon fill="#ffffff" stroke="none" points="1007.75,-643.5 1007.75,-663 1048.33,-663 1048.33,-643.5 1007.75,-643.5"/>
<polygon fill="none" stroke="black" points="1007.75,-643.5 1007.75,-663 1048.33,-663 1048.33,-643.5 1007.75,-643.5"/>
<text text-anchor="start" x="1010.75" y="-649.55" font-family="Helvetica,sans-Serif" font-size="11.00">&lt; 2</text>
<polygon fill="#ffffff" stroke="none" points="1048.33,-643.5 1048.33,-663 1076.92,-663 1076.92,-643.5 1048.33,-643.5"/>
<polygon fill="none" stroke="black" points="1048.33,-643.5 1048.33,-663 1076.92,-663 1076.92,-643.5 1048.33,-643.5"/>
<text text-anchor="start" x="1066.42" y="-649.55" font-family="Helvetica,sans-Serif" font-size="11.00"> &#160;</text>
<polygon fill="#ffffff" stroke="none" points="1076.92,-643.5 1076.92,-663 1117.5,-663 1117.5,-643.5 1076.92,-643.5"/>
<polygon fill="none" stroke="black" points="1076.92,-643.5 1076.92,-663 1117.5,-663 1117.5,-643.5 1076.92,-643.5"/>
<text text-anchor="start" x="1095" y="-649.55" font-family="Helvetica,sans-Serif" font-size="11.00">3 &gt;</text>
</a>
</g>
</g>
<!-- check_automatic_result&#45;&gt;doc_page -->
<g id="edge4" class="edge">
<title>check_automatic_result:w&#45;&gt;doc_page:e</title>
<path fill="none" stroke="black" d="M1151.2,-721.86C1138.34,-707.68 1144.12,-672.75 1118.5,-672.75"/>
<polygon fill="black" stroke="black" points="1157.79,-724.58 1163.82,-730.95 1161.8,-726.23 1164.88,-727.5 1164.88,-727.5 1164.88,-727.5 1161.8,-726.23 1166.56,-724.29 1157.79,-724.58"/>
<ellipse fill="none" stroke="black" cx="1153.24" cy="-722.71" rx="3.2" ry="3.2"/>
</g>
<!-- lot_lot -->
<g id="node9" class="node">
<title>lot_lot</title>
<g id="a_node9"><a xlink:href="../../tables/lot_lot.html" xlink:title="lot_lot" target="_top">
<polygon fill="#ffffff" stroke="none" points="8,-602.5 8,-665 96.75,-665 96.75,-602.5 8,-602.5"/>
<polygon fill="#f5f5f5" stroke="none" points="8,-641.5 8,-665 96.75,-665 96.75,-641.5 8,-641.5"/>
<polygon fill="none" stroke="black" points="8,-641.5 8,-665 96.75,-665 96.75,-641.5 8,-641.5"/>
<text text-anchor="start" x="12.88" y="-650.55" font-family="Helvetica,sans-Serif" font-weight="bold" font-size="11.00">lot_lot</text>
<text text-anchor="start" x="55" y="-649.55" font-family="Helvetica,sans-Serif" font-size="11.00">[table]</text>
<polygon fill="none" stroke="black" points="8,-622 8,-641.5 96.75,-641.5 96.75,-622 8,-622"/>
<text text-anchor="start" x="11" y="-628.05" font-family="Helvetica,sans-Serif" font-size="11.00">...</text>
<polygon fill="#ffffff" stroke="none" points="8,-602.5 8,-622 46.08,-622 46.08,-602.5 8,-602.5"/>
<polygon fill="none" stroke="black" points="8,-602.5 8,-622 46.08,-622 46.08,-602.5 8,-602.5"/>
<text text-anchor="start" x="11" y="-608.55" font-family="Helvetica,sans-Serif" font-size="11.00">&lt; 14</text>
<polygon fill="#ffffff" stroke="none" points="46.08,-602.5 46.08,-622 65.42,-622 65.42,-602.5 46.08,-602.5"/>
<polygon fill="none" stroke="black" points="46.08,-602.5 46.08,-622 65.42,-622 65.42,-602.5 46.08,-602.5"/>
<text text-anchor="start" x="54.92" y="-608.55" font-family="Helvetica,sans-Serif" font-size="11.00"> &#160;</text>
<polygon fill="#ffffff" stroke="none" points="65.42,-602.5 65.42,-622 96.75,-622 96.75,-602.5 65.42,-602.5"/>
<polygon fill="none" stroke="black" points="65.42,-602.5 65.42,-622 96.75,-622 96.75,-602.5 65.42,-602.5"/>
<text text-anchor="start" x="74.25" y="-608.55" font-family="Helvetica,sans-Serif" font-size="11.00">4 &gt;</text>
</a>
</g>
</g>
<!-- del_delivery&#45;&gt;lot_lot -->
<g id="edge9" class="edge">
<title>del_delivery:w&#45;&gt;lot_lot:e</title>
<path fill="none" stroke="black" d="M378.46,-545.46C370.69,-550.35 366.17,-558.63 353.5,-563.75 244.44,-607.79 215.37,-631.75 97.75,-631.75"/>
<polygon fill="black" stroke="black" points="385.44,-543.62 394.09,-545.07 389.63,-542.52 392.85,-541.67 392.85,-541.67 392.85,-541.67 389.63,-542.52 392.26,-538.1 385.44,-543.62"/>
<ellipse fill="none" stroke="black" cx="380.68" cy="-544.88" rx="3.2" ry="3.2"/>
</g>
<!-- del_multi_lots_delivery -->
<g id="node10" class="node">
<title>del_multi_lots_delivery</title>
<g id="a_node10"><a xlink:href="../../tables/del_multi_lots_delivery.html" xlink:title="del_multi_lots_delivery" target="_top">
<polygon fill="#ffffff" stroke="none" points="145.75,-490.5 145.75,-553 345.5,-553 345.5,-490.5 145.75,-490.5"/>
<polygon fill="#f5f5f5" stroke="none" points="145.75,-529.5 145.75,-553 345.5,-553 345.5,-529.5 145.75,-529.5"/>
<polygon fill="none" stroke="black" points="145.75,-529.5 145.75,-553 345.5,-553 345.5,-529.5 145.75,-529.5"/>
<text text-anchor="start" x="150.75" y="-538.55" font-family="Helvetica,sans-Serif" font-weight="bold" font-size="11.00">del_multi_lots_delivery</text>
<text text-anchor="start" x="303.75" y="-537.55" font-family="Helvetica,sans-Serif" font-size="11.00">[table]</text>
<polygon fill="none" stroke="black" points="145.75,-510 145.75,-529.5 345.5,-529.5 345.5,-510 145.75,-510"/>
<text text-anchor="start" x="148.75" y="-516.05" font-family="Helvetica,sans-Serif" font-size="11.00">...</text>
<polygon fill="#ffffff" stroke="none" points="145.75,-490.5 145.75,-510 208.33,-510 208.33,-490.5 145.75,-490.5"/>
<polygon fill="none" stroke="black" points="145.75,-490.5 145.75,-510 208.33,-510 208.33,-490.5 145.75,-490.5"/>
<text text-anchor="start" x="148.75" y="-496.55" font-family="Helvetica,sans-Serif" font-size="11.00"> &#160;</text>
<polygon fill="#ffffff" stroke="none" points="208.33,-490.5 208.33,-510 270.92,-510 270.92,-490.5 208.33,-490.5"/>
<polygon fill="none" stroke="black" points="208.33,-490.5 208.33,-510 270.92,-510 270.92,-490.5 208.33,-490.5"/>
<text text-anchor="start" x="260.42" y="-496.55" font-family="Helvetica,sans-Serif" font-size="11.00"> &#160;</text>
<polygon fill="#ffffff" stroke="none" points="270.92,-490.5 270.92,-510 345.5,-510 345.5,-490.5 270.92,-490.5"/>
<polygon fill="none" stroke="black" points="270.92,-490.5 270.92,-510 345.5,-510 345.5,-490.5 270.92,-490.5"/>
<text text-anchor="start" x="323" y="-496.55" font-family="Helvetica,sans-Serif" font-size="11.00">1 &gt;</text>
</a>
</g>
</g>
<!-- del_delivery&#45;&gt;del_multi_lots_delivery -->
<g id="edge10" class="edge">
<title>del_delivery:w&#45;&gt;del_multi_lots_delivery:e</title>
<path fill="none" stroke="black" d="M377.88,-519.56C367.97,-519.63 361.02,-519.75 346.5,-519.75"/>
<polygon fill="black" stroke="black" points="385.17,-519.53 393.18,-523.1 389.5,-519.51 392.83,-519.5 392.83,-519.5 392.83,-519.5 389.5,-519.51 393.15,-515.9 385.17,-519.53"/>
<ellipse fill="none" stroke="black" cx="380.25" cy="-519.55" rx="3.2" ry="3.2"/>
</g>
<!-- doc_digital_document&#45;&gt;doc_unit -->
<g id="edge12" class="edge">
<title>doc_digital_document:w&#45;&gt;doc_unit:e</title>
<path fill="none" stroke="black" d="M380.33,-686.51C349.04,-686.56 335.82,-686.75 298,-686.75"/>
<polygon fill="black" stroke="black" points="387.79,-686.51 395.79,-690.1 392.13,-686.5 395.46,-686.5 395.46,-686.5 395.46,-686.5 392.13,-686.5 395.79,-682.9 387.79,-686.51"/>
<ellipse fill="none" stroke="black" cx="382.87" cy="-686.51" rx="3.2" ry="3.2"/>
</g>
<!-- doc_unit&#45;&gt;lot_lot -->
<g id="edge19" class="edge">
<title>doc_unit:w&#45;&gt;lot_lot:e</title>
<path fill="none" stroke="black" d="M177.98,-684.66C144.14,-674.61 140.99,-631.75 97.75,-631.75"/>
<polygon fill="black" stroke="black" points="184.99,-685.62 192.43,-690.27 189.29,-686.21 192.59,-686.66 192.59,-686.66 192.59,-686.66 189.29,-686.21 193.41,-683.14 184.99,-685.62"/>
<ellipse fill="none" stroke="black" cx="180.12" cy="-684.95" rx="3.2" ry="3.2"/>
</g>
<!-- doc_page&#45;&gt;doc_digital_document -->
<g id="edge14" class="edge">
<title>doc_page:w&#45;&gt;doc_digital_document:e</title>
<path fill="none" stroke="black" d="M991.07,-672.66C837.62,-670.89 788.64,-644.06 633.5,-685.75 612.76,-691.32 612.35,-708.5 590.88,-708.5"/>
<polygon fill="black" stroke="black" points="998.42,-672.7 1006.39,-676.35 1002.75,-672.73 1006.08,-672.75 1006.08,-672.75 1006.08,-672.75 1002.75,-672.73 1006.44,-669.15 998.42,-672.7"/>
<ellipse fill="none" stroke="black" cx="993.5" cy="-672.67" rx="3.2" ry="3.2"/>
</g>
<!-- doc_sample -->
<g id="node13" class="node">
<title>doc_sample</title>
<g id="a_node13"><a xlink:href="../../tables/doc_sample.html" xlink:title="doc_sample" target="_top">
<polygon fill="#ffffff" stroke="none" points="737.75,-586.5 737.75,-649 862.5,-649 862.5,-586.5 737.75,-586.5"/>
<polygon fill="#f5f5f5" stroke="none" points="737.75,-625.5 737.75,-649 862.5,-649 862.5,-625.5 737.75,-625.5"/>
<polygon fill="none" stroke="black" points="737.75,-625.5 737.75,-649 862.5,-649 862.5,-625.5 737.75,-625.5"/>
<text text-anchor="start" x="742.75" y="-634.55" font-family="Helvetica,sans-Serif" font-weight="bold" font-size="11.00">doc_sample</text>
<text text-anchor="start" x="820.75" y="-633.55" font-family="Helvetica,sans-Serif" font-size="11.00">[table]</text>
<polygon fill="none" stroke="black" points="737.75,-606 737.75,-625.5 862.5,-625.5 862.5,-606 737.75,-606"/>
<text text-anchor="start" x="740.75" y="-612.05" font-family="Helvetica,sans-Serif" font-size="11.00">...</text>
<polygon fill="#ffffff" stroke="none" points="737.75,-586.5 737.75,-606 783.33,-606 783.33,-586.5 737.75,-586.5"/>
<polygon fill="none" stroke="black" points="737.75,-586.5 737.75,-606 783.33,-606 783.33,-586.5 737.75,-586.5"/>
<text text-anchor="start" x="740.75" y="-592.55" font-family="Helvetica,sans-Serif" font-size="11.00">&lt; 2</text>
<polygon fill="#ffffff" stroke="none" points="783.33,-586.5 783.33,-606 816.92,-606 816.92,-586.5 783.33,-586.5"/>
<polygon fill="none" stroke="black" points="783.33,-586.5 783.33,-606 816.92,-606 816.92,-586.5 783.33,-586.5"/>
<text text-anchor="start" x="806.42" y="-592.55" font-family="Helvetica,sans-Serif" font-size="11.00"> &#160;</text>
<polygon fill="#ffffff" stroke="none" points="816.92,-586.5 816.92,-606 862.5,-606 862.5,-586.5 816.92,-586.5"/>
<polygon fill="none" stroke="black" points="816.92,-586.5 816.92,-606 862.5,-606 862.5,-586.5 816.92,-586.5"/>
<text text-anchor="start" x="840" y="-592.55" font-family="Helvetica,sans-Serif" font-size="11.00">1 &gt;</text>
</a>
</g>
</g>
<!-- doc_page&#45;&gt;doc_sample -->
<g id="edge15" class="edge">
<title>doc_page:w&#45;&gt;doc_sample:e</title>
<path fill="none" stroke="black" d="M991.4,-670.08C953.62,-658.81 893.28,-615.75 863.5,-615.75"/>
<polygon fill="black" stroke="black" points="998.54,-671.32 1005.8,-676.24 1002.81,-672.06 1006.09,-672.64 1006.09,-672.64 1006.09,-672.64 1002.81,-672.06 1007.04,-669.15 998.54,-671.32"/>
<ellipse fill="none" stroke="black" cx="993.69" cy="-670.48" rx="3.2" ry="3.2"/>
</g>
<!-- check_slip_line -->
<g id="node6" class="node">
<title>check_slip_line</title>
<g id="a_node6"><a xlink:href="../../tables/check_slip_line.html" xlink:title="check_slip_line" target="_top">
<polygon fill="#ffffff" stroke="none" points="727.25,-38.5 727.25,-101 873,-101 873,-38.5 727.25,-38.5"/>
<polygon fill="#f5f5f5" stroke="none" points="727.25,-77.5 727.25,-101 873,-101 873,-77.5 727.25,-77.5"/>
<polygon fill="none" stroke="black" points="727.25,-77.5 727.25,-101 873,-101 873,-77.5 727.25,-77.5"/>
<text text-anchor="start" x="732.25" y="-86.55" font-family="Helvetica,sans-Serif" font-weight="bold" font-size="11.00">check_slip_line</text>
<text text-anchor="start" x="831.25" y="-85.55" font-family="Helvetica,sans-Serif" font-size="11.00">[table]</text>
<polygon fill="none" stroke="black" points="727.25,-58 727.25,-77.5 873,-77.5 873,-58 727.25,-58"/>
<text text-anchor="start" x="730.25" y="-64.05" font-family="Helvetica,sans-Serif" font-size="11.00">...</text>
<polygon fill="#ffffff" stroke="none" points="727.25,-38.5 727.25,-58 783.83,-58 783.83,-38.5 727.25,-38.5"/>
<polygon fill="none" stroke="black" points="727.25,-38.5 727.25,-58 783.83,-58 783.83,-38.5 727.25,-38.5"/>
<text text-anchor="start" x="730.25" y="-44.55" font-family="Helvetica,sans-Serif" font-size="11.00">&lt; 1</text>
<polygon fill="#ffffff" stroke="none" points="783.83,-38.5 783.83,-58 828.42,-58 828.42,-38.5 783.83,-38.5"/>
<polygon fill="none" stroke="black" points="783.83,-38.5 783.83,-58 828.42,-58 828.42,-38.5 783.83,-38.5"/>
<text text-anchor="start" x="817.92" y="-44.55" font-family="Helvetica,sans-Serif" font-size="11.00"> &#160;</text>
<polygon fill="#ffffff" stroke="none" points="828.42,-38.5 828.42,-58 873,-58 873,-38.5 828.42,-38.5"/>
<polygon fill="none" stroke="black" points="828.42,-38.5 828.42,-58 873,-58 873,-38.5 828.42,-38.5"/>
<text text-anchor="start" x="862.5" y="-44.55" font-family="Helvetica,sans-Serif" font-size="11.00"> &#160;</text>
</a>
</g>
</g>
<!-- check_slip -->
<g id="node7" class="node">
<title>check_slip</title>
<g id="a_node7"><a xlink:href="../../tables/check_slip.html" xlink:title="check_slip" target="_top">
<polygon fill="#ffffff" stroke="none" points="419.5,-62.5 419.5,-147 567.5,-147 567.5,-62.5 419.5,-62.5"/>
<polygon fill="#f5f5f5" stroke="none" points="419.5,-123.5 419.5,-147 567.5,-147 567.5,-123.5 419.5,-123.5"/>
<polygon fill="none" stroke="black" points="419.5,-123.5 419.5,-147 567.5,-147 567.5,-123.5 419.5,-123.5"/>
<text text-anchor="start" x="424.5" y="-132.55" font-family="Helvetica,sans-Serif" font-weight="bold" font-size="11.00">check_slip</text>
<text text-anchor="start" x="525.75" y="-131.55" font-family="Helvetica,sans-Serif" font-size="11.00">[table]</text>
<polygon fill="none" stroke="black" points="419.5,-101.5 419.5,-123.5 567.5,-123.5 567.5,-101.5 419.5,-101.5"/>
<image xlink:href="../../images/primaryKeys.png" width="11px" height="12px" preserveAspectRatio="xMinYMin meet" x="424.5" y="-118.5"/>
<text text-anchor="start" x="439.5" y="-108.05" font-family="Helvetica,sans-Serif" font-size="11.00">identifier</text>
<polygon fill="none" stroke="black" points="419.5,-82 419.5,-101.5 567.5,-101.5 567.5,-82 419.5,-82"/>
<text text-anchor="start" x="422.5" y="-88.05" font-family="Helvetica,sans-Serif" font-size="11.00">...</text>
<polygon fill="#ffffff" stroke="none" points="419.5,-62.5 419.5,-82 464.83,-82 464.83,-62.5 419.5,-62.5"/>
<polygon fill="none" stroke="black" points="419.5,-62.5 419.5,-82 464.83,-82 464.83,-62.5 419.5,-62.5"/>
<text text-anchor="start" x="422.5" y="-68.55" font-family="Helvetica,sans-Serif" font-size="11.00"> &#160;</text>
<polygon fill="#ffffff" stroke="none" points="464.83,-62.5 464.83,-82 510.17,-82 510.17,-62.5 464.83,-62.5"/>
<polygon fill="none" stroke="black" points="464.83,-62.5 464.83,-82 510.17,-82 510.17,-62.5 464.83,-62.5"/>
<text text-anchor="start" x="499.67" y="-68.55" font-family="Helvetica,sans-Serif" font-size="11.00"> &#160;</text>
<polygon fill="#ffffff" stroke="none" points="510.17,-62.5 510.17,-82 567.5,-82 567.5,-62.5 510.17,-62.5"/>
<polygon fill="none" stroke="black" points="510.17,-62.5 510.17,-82 567.5,-82 567.5,-62.5 510.17,-62.5"/>
<text text-anchor="start" x="545" y="-68.55" font-family="Helvetica,sans-Serif" font-size="11.00">2 &gt;</text>
</a>
</g>
</g>
<!-- check_slip_line&#45;&gt;check_slip -->
<g id="edge5" class="edge">
<title>check_slip_line:w&#45;&gt;check_slip:e</title>
<path fill="none" stroke="black" d="M710.6,-68.49C651.19,-74.31 635.83,-112.5 568.5,-112.5"/>
<polygon fill="black" stroke="black" points="717.92,-68.14 726.09,-71.36 722.25,-67.94 725.58,-67.78 725.58,-67.78 725.58,-67.78 722.25,-67.94 725.75,-64.17 717.92,-68.14"/>
<ellipse fill="none" stroke="black" cx="713.01" cy="-68.38" rx="3.2" ry="3.2"/>
</g>
<!-- del_delivered_document -->
<g id="node8" class="node">
<title>del_delivered_document</title>
<g id="a_node8"><a xlink:href="../../tables/del_delivered_document.html" xlink:title="del_delivered_document" target="_top">
<polygon fill="#ffffff" stroke="none" points="641.5,-122.25 641.5,-455.25 958.75,-455.25 958.75,-122.25 641.5,-122.25"/>
<polygon fill="#f5f5f5" stroke="none" points="643.5,-429.75 643.5,-453.25 956.75,-453.25 956.75,-429.75 643.5,-429.75"/>
<polygon fill="none" stroke="black" points="643.5,-429.75 643.5,-453.25 956.75,-453.25 956.75,-429.75 643.5,-429.75"/>
<text text-anchor="start" x="648.5" y="-438.8" font-family="Helvetica,sans-Serif" font-weight="bold" font-size="11.00">del_delivered_document</text>
<text text-anchor="start" x="915" y="-437.8" font-family="Helvetica,sans-Serif" font-size="11.00">[table]</text>
<polygon fill="none" stroke="black" points="643.5,-407.75 643.5,-429.75 827.5,-429.75 827.5,-407.75 643.5,-407.75"/>
<image xlink:href="../../images/primaryKeys.png" width="11px" height="12px" preserveAspectRatio="xMinYMin meet" x="648.5" y="-424.75"/>
<text text-anchor="start" x="663.5" y="-414.3" font-family="Helvetica,sans-Serif" font-size="11.00">identifier</text>
<polygon fill="none" stroke="black" points="827.5,-407.75 827.5,-429.75 936,-429.75 936,-407.75 827.5,-407.75"/>
<text text-anchor="start" x="830.5" y="-415.05" font-family="Helvetica,sans-Serif" font-size="11.00">varchar[191]</text>
<polygon fill="#ffffff" stroke="none" points="643.5,-385.75 643.5,-407.75 827.5,-407.75 827.5,-385.75 643.5,-385.75"/>
<polygon fill="none" stroke="black" points="643.5,-385.75 643.5,-407.75 827.5,-407.75 827.5,-385.75 643.5,-385.75"/>
<image xlink:href="../../images/foreignKeys.png" width="11px" height="12px" preserveAspectRatio="xMinYMin meet" x="648.5" y="-402.75"/>
<text text-anchor="start" x="663.5" y="-392.3" font-family="Helvetica,sans-Serif" font-size="11.00">delivery</text>
<polygon fill="none" stroke="black" points="827.5,-385.75 827.5,-407.75 936,-407.75 936,-385.75 827.5,-385.75"/>
<text text-anchor="start" x="830.5" y="-393.05" font-family="Helvetica,sans-Serif" font-size="11.00">varchar[191]</text>
<polygon fill="#ffffff" stroke="none" points="643.5,-363.75 643.5,-385.75 827.5,-385.75 827.5,-363.75 643.5,-363.75"/>
<polygon fill="none" stroke="black" points="643.5,-363.75 643.5,-385.75 827.5,-385.75 827.5,-363.75 643.5,-363.75"/>
<image xlink:href="../../images/foreignKeys.png" width="11px" height="12px" preserveAspectRatio="xMinYMin meet" x="648.5" y="-380.75"/>
<text text-anchor="start" x="663.5" y="-370.3" font-family="Helvetica,sans-Serif" font-size="11.00">digital_document</text>
<polygon fill="none" stroke="black" points="827.5,-363.75 827.5,-385.75 936,-385.75 936,-363.75 827.5,-363.75"/>
<text text-anchor="start" x="830.5" y="-371.05" font-family="Helvetica,sans-Serif" font-size="11.00">varchar[191]</text>
<polygon fill="none" stroke="black" points="643.5,-341.75 643.5,-363.75 827.5,-363.75 827.5,-341.75 643.5,-341.75"/>
<text text-anchor="start" x="663.5" y="-348.3" font-family="Helvetica,sans-Serif" font-size="11.00">status</text>
<polygon fill="none" stroke="black" points="827.5,-341.75 827.5,-363.75 936,-363.75 936,-341.75 827.5,-341.75"/>
<text text-anchor="start" x="830.5" y="-349.05" font-family="Helvetica,sans-Serif" font-size="11.00">varchar[255]</text>
<polygon fill="none" stroke="black" points="643.5,-319.75 643.5,-341.75 827.5,-341.75 827.5,-319.75 643.5,-319.75"/>
<text text-anchor="start" x="663.5" y="-326.3" font-family="Helvetica,sans-Serif" font-size="11.00">delivery_date</text>
<polygon fill="none" stroke="black" points="827.5,-319.75 827.5,-341.75 936,-341.75 936,-319.75 827.5,-319.75"/>
<text text-anchor="start" x="830.5" y="-327.05" font-family="Helvetica,sans-Serif" font-size="11.00">date[10]</text>
<polygon fill="none" stroke="black" points="643.5,-297.75 643.5,-319.75 827.5,-319.75 827.5,-297.75 643.5,-297.75"/>
<text text-anchor="start" x="663.5" y="-304.3" font-family="Helvetica,sans-Serif" font-size="11.00">nb_pages</text>
<polygon fill="none" stroke="black" points="827.5,-297.75 827.5,-319.75 936,-319.75 936,-297.75 827.5,-297.75"/>
<text text-anchor="start" x="830.5" y="-305.05" font-family="Helvetica,sans-Serif" font-size="11.00">int[10]</text>
<polygon fill="none" stroke="black" points="643.5,-275.75 643.5,-297.75 827.5,-297.75 827.5,-275.75 643.5,-275.75"/>
<text text-anchor="start" x="663.5" y="-282.3" font-family="Helvetica,sans-Serif" font-size="11.00">total_length</text>
<polygon fill="none" stroke="black" points="827.5,-275.75 827.5,-297.75 936,-297.75 936,-275.75 827.5,-275.75"/>
<text text-anchor="start" x="830.5" y="-283.05" font-family="Helvetica,sans-Serif" font-size="11.00">bigint[19]</text>
<polygon fill="none" stroke="black" points="643.5,-253.75 643.5,-275.75 827.5,-275.75 827.5,-253.75 643.5,-253.75"/>
<text text-anchor="start" x="663.5" y="-260.3" font-family="Helvetica,sans-Serif" font-size="11.00">version</text>
<polygon fill="none" stroke="black" points="827.5,-253.75 827.5,-275.75 936,-275.75 936,-253.75 827.5,-253.75"/>
<text text-anchor="start" x="830.5" y="-261.05" font-family="Helvetica,sans-Serif" font-size="11.00">bigint[19]</text>
<polygon fill="none" stroke="black" points="643.5,-231.75 643.5,-253.75 827.5,-253.75 827.5,-231.75 643.5,-231.75"/>
<text text-anchor="start" x="663.5" y="-238.3" font-family="Helvetica,sans-Serif" font-size="11.00">created_by</text>
<polygon fill="none" stroke="black" points="827.5,-231.75 827.5,-253.75 936,-253.75 936,-231.75 827.5,-231.75"/>
<text text-anchor="start" x="830.5" y="-239.05" font-family="Helvetica,sans-Serif" font-size="11.00">varchar[191]</text>
<polygon fill="none" stroke="black" points="643.5,-209.75 643.5,-231.75 827.5,-231.75 827.5,-209.75 643.5,-209.75"/>
<text text-anchor="start" x="663.5" y="-216.3" font-family="Helvetica,sans-Serif" font-size="11.00">last_modified_by</text>
<polygon fill="none" stroke="black" points="827.5,-209.75 827.5,-231.75 936,-231.75 936,-209.75 827.5,-209.75"/>
<text text-anchor="start" x="830.5" y="-217.05" font-family="Helvetica,sans-Serif" font-size="11.00">varchar[191]</text>
<polygon fill="none" stroke="black" points="643.5,-187.75 643.5,-209.75 827.5,-209.75 827.5,-187.75 643.5,-187.75"/>
<text text-anchor="start" x="663.5" y="-194.3" font-family="Helvetica,sans-Serif" font-size="11.00">created_date</text>
<polygon fill="none" stroke="black" points="827.5,-187.75 827.5,-209.75 936,-209.75 936,-187.75 827.5,-187.75"/>
<text text-anchor="start" x="830.5" y="-195.05" font-family="Helvetica,sans-Serif" font-size="11.00">timestamp[19]</text>
<polygon fill="none" stroke="black" points="643.5,-165.75 643.5,-187.75 827.5,-187.75 827.5,-165.75 643.5,-165.75"/>
<text text-anchor="start" x="663.5" y="-172.3" font-family="Helvetica,sans-Serif" font-size="11.00">last_modified_date</text>
<polygon fill="none" stroke="black" points="827.5,-165.75 827.5,-187.75 936,-187.75 936,-165.75 827.5,-165.75"/>
<text text-anchor="start" x="830.5" y="-173.05" font-family="Helvetica,sans-Serif" font-size="11.00">timestamp[19]</text>
<polygon fill="#ffffff" stroke="none" points="643.5,-143.75 643.5,-165.75 827.5,-165.75 827.5,-143.75 643.5,-143.75"/>
<polygon fill="none" stroke="black" points="643.5,-143.75 643.5,-165.75 827.5,-165.75 827.5,-143.75 643.5,-143.75"/>
<image xlink:href="../../images/foreignKeys.png" width="11px" height="12px" preserveAspectRatio="xMinYMin meet" x="648.5" y="-160.75"/>
<text text-anchor="start" x="663.5" y="-150.3" font-family="Helvetica,sans-Serif" font-size="11.00">check_slip</text>
<polygon fill="none" stroke="black" points="827.5,-143.75 827.5,-165.75 936,-165.75 936,-143.75 827.5,-143.75"/>
<text text-anchor="start" x="830.5" y="-151.05" font-family="Helvetica,sans-Serif" font-size="11.00">varchar[191]</text>
<polygon fill="#ffffff" stroke="none" points="643.5,-124.25 643.5,-143.75 741.5,-143.75 741.5,-124.25 643.5,-124.25"/>
<polygon fill="none" stroke="black" points="643.5,-124.25 643.5,-143.75 741.5,-143.75 741.5,-124.25 643.5,-124.25"/>
<text text-anchor="start" x="646.5" y="-130.3" font-family="Helvetica,sans-Serif" font-size="11.00">&lt; 3</text>
<polygon fill="#ffffff" stroke="none" points="741.5,-124.25 741.5,-143.75 827.5,-143.75 827.5,-124.25 741.5,-124.25"/>
<polygon fill="none" stroke="black" points="741.5,-124.25 741.5,-143.75 827.5,-143.75 827.5,-124.25 741.5,-124.25"/>
<text text-anchor="start" x="817" y="-130.3" font-family="Helvetica,sans-Serif" font-size="11.00"> &#160;</text>
<polygon fill="#ffffff" stroke="none" points="827.5,-124.25 827.5,-143.75 936,-143.75 936,-124.25 827.5,-124.25"/>
<polygon fill="none" stroke="black" points="827.5,-124.25 827.5,-143.75 936,-143.75 936,-124.25 827.5,-124.25"/>
<text text-anchor="start" x="913.5" y="-130.3" font-family="Helvetica,sans-Serif" font-size="11.00">0 &gt;</text>
<polygon fill="none" stroke="black" stroke-width="2" points="642.5,-123.25 642.5,-454.25 957.75,-454.25 957.75,-123.25 642.5,-123.25"/>
</a>
</g>
</g>
<!-- del_delivered_document&#45;&gt;del_delivery -->
<g id="edge7" class="edge">
<title>del_delivered_document:w&#45;&gt;del_delivery:e</title>
<path fill="none" stroke="black" d="M627.27,-399.79C580.98,-422.39 664.56,-563.5 593.5,-563.5"/>
<polygon fill="black" stroke="black" points="634.33,-398.38 642.88,-400.35 638.58,-397.53 641.84,-396.88 641.84,-396.88 641.84,-396.88 638.58,-397.53 641.47,-393.28 634.33,-398.38"/>
<ellipse fill="none" stroke="black" cx="629.5" cy="-399.34" rx="3.2" ry="3.2"/>
</g>
<!-- del_delivered_document&#45;&gt;doc_digital_document -->
<g id="edge8" class="edge">
<title>del_delivered_document:w&#45;&gt;doc_digital_document:e</title>
<path fill="none" stroke="black" d="M627.92,-380.54C581.78,-424.86 660.06,-708.5 590.88,-708.5"/>
<polygon fill="black" stroke="black" points="634.75,-377.83 643.52,-378.22 638.78,-376.23 641.88,-375 641.88,-375 641.88,-375 638.78,-376.23 640.86,-371.53 634.75,-377.83"/>
<ellipse fill="none" stroke="black" cx="630.18" cy="-379.64" rx="3.2" ry="3.2"/>
</g>
<!-- del_delivered_document&#45;&gt;check_slip -->
<g id="edge6" class="edge">
<title>del_delivered_document:w&#45;&gt;check_slip:e</title>
<path fill="none" stroke="black" d="M627.03,-151.85C604.17,-142.3 600.31,-112.5 568.5,-112.5"/>
<polygon fill="black" stroke="black" points="634.31,-153.21 641.51,-158.23 638.57,-154.01 641.84,-154.63 641.84,-154.63 641.84,-154.63 638.57,-154.01 642.84,-151.15 634.31,-153.21"/>
<ellipse fill="none" stroke="black" cx="629.47" cy="-152.31" rx="3.2" ry="3.2"/>
</g>
<!-- del_slip -->
<g id="node11" class="node">
<title>del_slip</title>
<g id="a_node11"><a xlink:href="../../tables/del_slip.html" xlink:title="del_slip" target="_top">
<polygon fill="#ffffff" stroke="none" points="751.75,-476.5 751.75,-539 848.5,-539 848.5,-476.5 751.75,-476.5"/>
<polygon fill="#f5f5f5" stroke="none" points="751.75,-515.5 751.75,-539 848.5,-539 848.5,-515.5 751.75,-515.5"/>
<polygon fill="none" stroke="black" points="751.75,-515.5 751.75,-539 848.5,-539 848.5,-515.5 751.75,-515.5"/>
<text text-anchor="start" x="756.75" y="-524.55" font-family="Helvetica,sans-Serif" font-weight="bold" font-size="11.00">del_slip</text>
<text text-anchor="start" x="806.75" y="-523.55" font-family="Helvetica,sans-Serif" font-size="11.00">[table]</text>
<polygon fill="none" stroke="black" points="751.75,-496 751.75,-515.5 848.5,-515.5 848.5,-496 751.75,-496"/>
<text text-anchor="start" x="754.75" y="-502.05" font-family="Helvetica,sans-Serif" font-size="11.00">...</text>
<polygon fill="#ffffff" stroke="none" points="751.75,-476.5 751.75,-496 788,-496 788,-476.5 751.75,-476.5"/>
<polygon fill="none" stroke="black" points="751.75,-476.5 751.75,-496 788,-496 788,-476.5 751.75,-476.5"/>
<text text-anchor="start" x="754.75" y="-482.55" font-family="Helvetica,sans-Serif" font-size="11.00">&lt; 1</text>
<polygon fill="#ffffff" stroke="none" points="788,-476.5 788,-496 812.25,-496 812.25,-476.5 788,-476.5"/>
<polygon fill="none" stroke="black" points="788,-476.5 788,-496 812.25,-496 812.25,-476.5 788,-476.5"/>
<text text-anchor="start" x="801.75" y="-482.55" font-family="Helvetica,sans-Serif" font-size="11.00"> &#160;</text>
<polygon fill="#ffffff" stroke="none" points="812.25,-476.5 812.25,-496 848.5,-496 848.5,-476.5 812.25,-476.5"/>
<polygon fill="none" stroke="black" points="812.25,-476.5 812.25,-496 848.5,-496 848.5,-476.5 812.25,-476.5"/>
<text text-anchor="start" x="826" y="-482.55" font-family="Helvetica,sans-Serif" font-size="11.00">1 &gt;</text>
</a>
</g>
</g>
<!-- del_slip&#45;&gt;del_delivery -->
<g id="edge11" class="edge">
<title>del_slip:w&#45;&gt;del_delivery:e</title>
<path fill="none" stroke="black" d="M735.11,-508.16C693.84,-519.09 626.15,-563.5 593.5,-563.5"/>
<polygon fill="black" stroke="black" points="742.51,-507.02 750.97,-509.36 746.8,-506.36 750.09,-505.85 750.09,-505.85 750.09,-505.85 746.8,-506.36 749.87,-502.24 742.51,-507.02"/>
<ellipse fill="none" stroke="black" cx="737.65" cy="-507.77" rx="3.2" ry="3.2"/>
</g>
<!-- doc_global_check -->
<g id="node12" class="node">
<title>doc_global_check</title>
<g id="a_node12"><a xlink:href="../../tables/doc_global_check.html" xlink:title="doc_global_check" target="_top">
<polygon fill="#ffffff" stroke="none" points="718.75,-696.5 718.75,-759 881.5,-759 881.5,-696.5 718.75,-696.5"/>
<polygon fill="#f5f5f5" stroke="none" points="718.75,-735.5 718.75,-759 881.5,-759 881.5,-735.5 718.75,-735.5"/>
<polygon fill="none" stroke="black" points="718.75,-735.5 718.75,-759 881.5,-759 881.5,-735.5 718.75,-735.5"/>
<text text-anchor="start" x="723.75" y="-744.55" font-family="Helvetica,sans-Serif" font-weight="bold" font-size="11.00">doc_global_check</text>
<text text-anchor="start" x="839.75" y="-743.55" font-family="Helvetica,sans-Serif" font-size="11.00">[table]</text>
<polygon fill="none" stroke="black" points="718.75,-716 718.75,-735.5 881.5,-735.5 881.5,-716 718.75,-716"/>
<text text-anchor="start" x="721.75" y="-722.05" font-family="Helvetica,sans-Serif" font-size="11.00">...</text>
<polygon fill="#ffffff" stroke="none" points="718.75,-696.5 718.75,-716 781,-716 781,-696.5 718.75,-696.5"/>
<polygon fill="none" stroke="black" points="718.75,-696.5 718.75,-716 781,-716 781,-696.5 718.75,-696.5"/>
<text text-anchor="start" x="721.75" y="-702.55" font-family="Helvetica,sans-Serif" font-size="11.00">&lt; 1</text>
<polygon fill="#ffffff" stroke="none" points="781,-696.5 781,-716 831.25,-716 831.25,-696.5 781,-696.5"/>
<polygon fill="none" stroke="black" points="781,-696.5 781,-716 831.25,-716 831.25,-696.5 781,-696.5"/>
<text text-anchor="start" x="820.75" y="-702.55" font-family="Helvetica,sans-Serif" font-size="11.00"> &#160;</text>
<polygon fill="#ffffff" stroke="none" points="831.25,-696.5 831.25,-716 881.5,-716 881.5,-696.5 831.25,-696.5"/>
<polygon fill="none" stroke="black" points="831.25,-696.5 831.25,-716 881.5,-716 881.5,-696.5 831.25,-696.5"/>
<text text-anchor="start" x="871" y="-702.55" font-family="Helvetica,sans-Serif" font-size="11.00"> &#160;</text>
</a>
</g>
</g>
<!-- doc_global_check&#45;&gt;doc_digital_document -->
<g id="edge13" class="edge">
<title>doc_global_check:w&#45;&gt;doc_digital_document:e</title>
<path fill="none" stroke="black" d="M701.96,-725.27C657.81,-722.48 642.11,-708.5 590.88,-708.5"/>
<polygon fill="black" stroke="black" points="709.42,-725.5 717.31,-729.34 713.75,-725.63 717.08,-725.73 717.08,-725.73 717.08,-725.73 713.75,-725.63 717.52,-722.14 709.42,-725.5"/>
<ellipse fill="none" stroke="black" cx="704.5" cy="-725.35" rx="3.2" ry="3.2"/>
</g>
<!-- doc_sample&#45;&gt;del_delivery -->
<g id="edge17" class="edge">
<title>doc_sample:w&#45;&gt;del_delivery:e</title>
<path fill="none" stroke="black" d="M721.24,-613.23C683.55,-602.79 622.88,-563.5 593.5,-563.5"/>
<polygon fill="black" stroke="black" points="728.52,-614.41 735.84,-619.25 732.8,-615.11 736.09,-615.64 736.09,-615.64 736.09,-615.64 732.8,-615.11 737,-612.14 728.52,-614.41"/>
<ellipse fill="none" stroke="black" cx="723.67" cy="-613.62" rx="3.2" ry="3.2"/>
</g>
<!-- doc_sample&#45;&gt;doc_digital_document -->
<g id="edge18" class="edge">
<title>doc_sample:w&#45;&gt;doc_digital_document:e</title>
<path fill="none" stroke="black" d="M721,-616.42C683.26,-619.88 669.78,-636.63 633.5,-662.75 610.95,-678.99 618.67,-708.5 590.88,-708.5"/>
<polygon fill="black" stroke="black" points="728.42,-616.1 736.57,-619.36 732.75,-615.92 736.08,-615.78 736.08,-615.78 736.08,-615.78 732.75,-615.92 736.26,-612.17 728.42,-616.1"/>
<ellipse fill="none" stroke="black" cx="723.51" cy="-616.31" rx="3.2" ry="3.2"/>
</g>
<!-- doc_physical_document_digital -->
<g id="node14" class="node">
<title>doc_physical_document_digital</title>
<g id="a_node14"><a xlink:href="../../tables/doc_physical_document_digital.html" xlink:title="doc_physical_document_digital" target="_top">
<polygon fill="#ffffff" stroke="none" points="672.75,-806.5 672.75,-869 927.5,-869 927.5,-806.5 672.75,-806.5"/>
<polygon fill="#f5f5f5" stroke="none" points="672.75,-845.5 672.75,-869 927.5,-869 927.5,-845.5 672.75,-845.5"/>
<polygon fill="none" stroke="black" points="672.75,-845.5 672.75,-869 927.5,-869 927.5,-845.5 672.75,-845.5"/>
<text text-anchor="start" x="677.75" y="-854.55" font-family="Helvetica,sans-Serif" font-weight="bold" font-size="11.00">doc_physical_document_digital</text>
<text text-anchor="start" x="885.75" y="-853.55" font-family="Helvetica,sans-Serif" font-size="11.00">[table]</text>
<polygon fill="none" stroke="black" points="672.75,-826 672.75,-845.5 927.5,-845.5 927.5,-826 672.75,-826"/>
<text text-anchor="start" x="675.75" y="-832.05" font-family="Helvetica,sans-Serif" font-size="11.00">...</text>
<polygon fill="#ffffff" stroke="none" points="672.75,-806.5 672.75,-826 765.67,-826 765.67,-806.5 672.75,-806.5"/>
<polygon fill="none" stroke="black" points="672.75,-806.5 672.75,-826 765.67,-826 765.67,-806.5 672.75,-806.5"/>
<text text-anchor="start" x="675.75" y="-812.55" font-family="Helvetica,sans-Serif" font-size="11.00">&lt; 2</text>
<polygon fill="#ffffff" stroke="none" points="765.67,-806.5 765.67,-826 846.58,-826 846.58,-806.5 765.67,-806.5"/>
<polygon fill="none" stroke="black" points="765.67,-806.5 765.67,-826 846.58,-826 846.58,-806.5 765.67,-806.5"/>
<text text-anchor="start" x="836.08" y="-812.55" font-family="Helvetica,sans-Serif" font-size="11.00"> &#160;</text>
<polygon fill="#ffffff" stroke="none" points="846.58,-806.5 846.58,-826 927.5,-826 927.5,-806.5 846.58,-806.5"/>
<polygon fill="none" stroke="black" points="846.58,-806.5 846.58,-826 927.5,-826 927.5,-806.5 846.58,-806.5"/>
<text text-anchor="start" x="917" y="-812.55" font-family="Helvetica,sans-Serif" font-size="11.00"> &#160;</text>
</a>
</g>
</g>
<!-- doc_physical_document_digital&#45;&gt;doc_digital_document -->
<g id="edge16" class="edge">
<title>doc_physical_document_digital:w&#45;&gt;doc_digital_document:e</title>
<path fill="none" stroke="black" d="M656.67,-831.78C645.99,-824.53 644.18,-808.44 633.5,-792.75 609.89,-758.06 632.84,-708.5 590.88,-708.5"/>
<polygon fill="black" stroke="black" points="663.69,-833.63 670.51,-839.15 667.88,-834.73 671.1,-835.58 671.1,-835.58 671.1,-835.58 667.88,-834.73 672.34,-832.18 663.69,-833.63"/>
<ellipse fill="none" stroke="black" cx="658.93" cy="-832.38" rx="3.2" ry="3.2"/>
</g>
</g>
</svg>
