<?xml version="1.0" encoding="UTF-8" standalone="no"?>
<!DOCTYPE svg PUBLIC "-//W3C//DTD SVG 1.1//EN"
 "http://www.w3.org/Graphics/SVG/1.1/DTD/svg11.dtd">
<!-- Generated by graphviz version 12.2.0 (0)
 -->
<!-- Title: oneDegreeRelationshipsDiagram Pages: 1 -->
<svg width="1306pt" height="739pt"
 viewBox="0.00 0.00 1306.25 739.00" xmlns="http://www.w3.org/2000/svg" xmlns:xlink="http://www.w3.org/1999/xlink">
<g id="graph0" class="graph" transform="scale(1 1) rotate(0) translate(4 735)">
<title>oneDegreeRelationshipsDiagram</title>
<polygon fill="#ffffff" stroke="none" points="-4,4 -4,-735 1302.25,-735 1302.25,4 -4,4"/>
<text text-anchor="middle" x="79.25" y="-7.05" font-family="Helvetica,sans-Serif" font-size="11.00">Generated by SchemaSpy</text>
<!-- check_automatic_result -->
<g id="node1" class="node">
<title>check_automatic_result</title>
<g id="a_node1"><a xlink:href="../../tables/check_automatic_result.html" xlink:title="check_automatic_result" target="_top">
<polygon fill="#ffffff" stroke="none" points="1085.5,-510.5 1085.5,-727 1290.25,-727 1290.25,-510.5 1085.5,-510.5"/>
<polygon fill="#f5f5f5" stroke="none" points="1085.5,-703.5 1085.5,-727 1290.25,-727 1290.25,-703.5 1085.5,-703.5"/>
<polygon fill="none" stroke="black" points="1085.5,-703.5 1085.5,-727 1290.25,-727 1290.25,-703.5 1085.5,-703.5"/>
<text text-anchor="start" x="1090.5" y="-712.55" font-family="Helvetica,sans-Serif" font-weight="bold" font-size="11.00">check_automatic_result</text>
<text text-anchor="start" x="1248.5" y="-711.55" font-family="Helvetica,sans-Serif" font-size="11.00">[table]</text>
<polygon fill="none" stroke="black" points="1085.5,-681.5 1085.5,-703.5 1290.25,-703.5 1290.25,-681.5 1085.5,-681.5"/>
<image xlink:href="../../images/primaryKeys.png" width="11px" height="12px" preserveAspectRatio="xMinYMin meet" x="1090.5" y="-698.5"/>
<text text-anchor="start" x="1118.38" y="-688.05" font-family="Helvetica,sans-Serif" font-size="11.00">identifier</text>
<polygon fill="#ffffff" stroke="none" points="1085.5,-659.5 1085.5,-681.5 1290.25,-681.5 1290.25,-659.5 1085.5,-659.5"/>
<polygon fill="none" stroke="black" points="1085.5,-659.5 1085.5,-681.5 1290.25,-681.5 1290.25,-659.5 1085.5,-659.5"/>
<image xlink:href="../../images/foreignKeys.png" width="11px" height="12px" preserveAspectRatio="xMinYMin meet" x="1090.5" y="-676.5"/>
<text text-anchor="start" x="1118.38" y="-666.05" font-family="Helvetica,sans-Serif" font-size="11.00">check_type</text>
<polygon fill="#ffffff" stroke="none" points="1085.5,-637.5 1085.5,-659.5 1290.25,-659.5 1290.25,-637.5 1085.5,-637.5"/>
<polygon fill="none" stroke="black" points="1085.5,-637.5 1085.5,-659.5 1290.25,-659.5 1290.25,-637.5 1085.5,-637.5"/>
<image xlink:href="../../images/foreignKeys.png" width="11px" height="12px" preserveAspectRatio="xMinYMin meet" x="1090.5" y="-654.5"/>
<text text-anchor="start" x="1118.38" y="-644.05" font-family="Helvetica,sans-Serif" font-size="11.00">digital_document</text>
<polygon fill="#ffffff" stroke="none" points="1085.5,-615.5 1085.5,-637.5 1290.25,-637.5 1290.25,-615.5 1085.5,-615.5"/>
<polygon fill="none" stroke="black" points="1085.5,-615.5 1085.5,-637.5 1290.25,-637.5 1290.25,-615.5 1085.5,-615.5"/>
<image xlink:href="../../images/foreignKeys.png" width="11px" height="12px" preserveAspectRatio="xMinYMin meet" x="1090.5" y="-632.5"/>
<text text-anchor="start" x="1118.38" y="-622.05" font-family="Helvetica,sans-Serif" font-size="11.00">doc_unit</text>
<polygon fill="#ffffff" stroke="none" points="1085.5,-593.5 1085.5,-615.5 1290.25,-615.5 1290.25,-593.5 1085.5,-593.5"/>
<polygon fill="none" stroke="black" points="1085.5,-593.5 1085.5,-615.5 1290.25,-615.5 1290.25,-593.5 1085.5,-593.5"/>
<image xlink:href="../../images/foreignKeys.png" width="11px" height="12px" preserveAspectRatio="xMinYMin meet" x="1090.5" y="-610.5"/>
<text text-anchor="start" x="1118.38" y="-600.05" font-family="Helvetica,sans-Serif" font-size="11.00">page</text>
<polygon fill="#ffffff" stroke="none" points="1085.5,-571.5 1085.5,-593.5 1290.25,-593.5 1290.25,-571.5 1085.5,-571.5"/>
<polygon fill="none" stroke="black" points="1085.5,-571.5 1085.5,-593.5 1290.25,-593.5 1290.25,-571.5 1085.5,-571.5"/>
<image xlink:href="../../images/foreignKeys.png" width="11px" height="12px" preserveAspectRatio="xMinYMin meet" x="1090.5" y="-588.5"/>
<text text-anchor="start" x="1118.38" y="-578.05" font-family="Helvetica,sans-Serif" font-size="11.00">delivery</text>
<polygon fill="#ffffff" stroke="none" points="1085.5,-549.5 1085.5,-571.5 1290.25,-571.5 1290.25,-549.5 1085.5,-549.5"/>
<polygon fill="none" stroke="black" points="1085.5,-549.5 1085.5,-571.5 1290.25,-571.5 1290.25,-549.5 1085.5,-549.5"/>
<image xlink:href="../../images/foreignKeys.png" width="11px" height="12px" preserveAspectRatio="xMinYMin meet" x="1090.5" y="-566.5"/>
<text text-anchor="start" x="1118.38" y="-556.05" font-family="Helvetica,sans-Serif" font-size="11.00">physical_document</text>
<polygon fill="none" stroke="black" points="1085.5,-530 1085.5,-549.5 1290.25,-549.5 1290.25,-530 1085.5,-530"/>
<text text-anchor="start" x="1088.5" y="-536.05" font-family="Helvetica,sans-Serif" font-size="11.00">...</text>
<polygon fill="#ffffff" stroke="none" points="1085.5,-510.5 1085.5,-530 1161.75,-530 1161.75,-510.5 1085.5,-510.5"/>
<polygon fill="none" stroke="black" points="1085.5,-510.5 1085.5,-530 1161.75,-530 1161.75,-510.5 1085.5,-510.5"/>
<text text-anchor="start" x="1088.5" y="-516.55" font-family="Helvetica,sans-Serif" font-size="11.00">&lt; 6</text>
<polygon fill="#ffffff" stroke="none" points="1161.75,-510.5 1161.75,-530 1226,-530 1226,-510.5 1161.75,-510.5"/>
<polygon fill="none" stroke="black" points="1161.75,-510.5 1161.75,-530 1226,-530 1226,-510.5 1161.75,-510.5"/>
<text text-anchor="start" x="1215.5" y="-516.55" font-family="Helvetica,sans-Serif" font-size="11.00"> &#160;</text>
<polygon fill="#ffffff" stroke="none" points="1226,-510.5 1226,-530 1290.25,-530 1290.25,-510.5 1226,-510.5"/>
<polygon fill="none" stroke="black" points="1226,-510.5 1226,-530 1290.25,-530 1290.25,-510.5 1226,-510.5"/>
<text text-anchor="start" x="1279.75" y="-516.55" font-family="Helvetica,sans-Serif" font-size="11.00"> &#160;</text>
</a>
</g>
</g>
<!-- doc_digital_document -->
<g id="node2" class="node">
<title>doc_digital_document</title>
<g id="a_node2"><a xlink:href="../../tables/doc_digital_document.html" xlink:title="doc_digital_document" target="_top">
<polygon fill="#ffffff" stroke="none" points="244,-131.25 244,-508.25 535.75,-508.25 535.75,-131.25 244,-131.25"/>
<polygon fill="#f5f5f5" stroke="none" points="246,-482.75 246,-506.25 533.75,-506.25 533.75,-482.75 246,-482.75"/>
<polygon fill="none" stroke="black" points="246,-482.75 246,-506.25 533.75,-506.25 533.75,-482.75 246,-482.75"/>
<text text-anchor="start" x="251" y="-491.8" font-family="Helvetica,sans-Serif" font-weight="bold" font-size="11.00">doc_digital_document</text>
<text text-anchor="start" x="492" y="-490.8" font-family="Helvetica,sans-Serif" font-size="11.00">[table]</text>
<polygon fill="none" stroke="black" points="246,-460.75 246,-482.75 413,-482.75 413,-460.75 246,-460.75"/>
<image xlink:href="../../images/primaryKeys.png" width="11px" height="12px" preserveAspectRatio="xMinYMin meet" x="251" y="-477.75"/>
<text text-anchor="start" x="266" y="-467.3" font-family="Helvetica,sans-Serif" font-size="11.00">identifier</text>
<polygon fill="none" stroke="black" points="413,-460.75 413,-482.75 517.25,-482.75 517.25,-460.75 413,-460.75"/>
<text text-anchor="start" x="416" y="-468.05" font-family="Helvetica,sans-Serif" font-size="11.00">varchar[191]</text>
<polygon fill="none" stroke="black" points="246,-438.75 246,-460.75 413,-460.75 413,-438.75 246,-438.75"/>
<text text-anchor="start" x="266" y="-445.3" font-family="Helvetica,sans-Serif" font-size="11.00">total_delivery</text>
<polygon fill="none" stroke="black" points="413,-438.75 413,-460.75 517.25,-460.75 517.25,-438.75 413,-438.75"/>
<text text-anchor="start" x="416" y="-446.05" font-family="Helvetica,sans-Serif" font-size="11.00">int[10]</text>
<polygon fill="none" stroke="black" points="246,-416.75 246,-438.75 413,-438.75 413,-416.75 246,-416.75"/>
<text text-anchor="start" x="266" y="-423.3" font-family="Helvetica,sans-Serif" font-size="11.00">status</text>
<polygon fill="none" stroke="black" points="413,-416.75 413,-438.75 517.25,-438.75 517.25,-416.75 413,-416.75"/>
<text text-anchor="start" x="416" y="-424.05" font-family="Helvetica,sans-Serif" font-size="11.00">varchar[255]</text>
<polygon fill="#ffffff" stroke="none" points="246,-394.75 246,-416.75 413,-416.75 413,-394.75 246,-394.75"/>
<polygon fill="none" stroke="black" points="246,-394.75 246,-416.75 413,-416.75 413,-394.75 246,-394.75"/>
<image xlink:href="../../images/foreignKeys.png" width="11px" height="12px" preserveAspectRatio="xMinYMin meet" x="251" y="-411.75"/>
<text text-anchor="start" x="266" y="-401.3" font-family="Helvetica,sans-Serif" font-size="11.00">doc_unit</text>
<polygon fill="none" stroke="black" points="413,-394.75 413,-416.75 517.25,-416.75 517.25,-394.75 413,-394.75"/>
<text text-anchor="start" x="416" y="-402.05" font-family="Helvetica,sans-Serif" font-size="11.00">varchar[191]</text>
<polygon fill="none" stroke="black" points="246,-372.75 246,-394.75 413,-394.75 413,-372.75 246,-372.75"/>
<text text-anchor="start" x="266" y="-379.3" font-family="Helvetica,sans-Serif" font-size="11.00">version</text>
<polygon fill="none" stroke="black" points="413,-372.75 413,-394.75 517.25,-394.75 517.25,-372.75 413,-372.75"/>
<text text-anchor="start" x="416" y="-380.05" font-family="Helvetica,sans-Serif" font-size="11.00">bigint[19]</text>
<polygon fill="none" stroke="black" points="246,-350.75 246,-372.75 413,-372.75 413,-350.75 246,-350.75"/>
<text text-anchor="start" x="266" y="-357.3" font-family="Helvetica,sans-Serif" font-size="11.00">created_by</text>
<polygon fill="none" stroke="black" points="413,-350.75 413,-372.75 517.25,-372.75 517.25,-350.75 413,-350.75"/>
<text text-anchor="start" x="416" y="-358.05" font-family="Helvetica,sans-Serif" font-size="11.00">varchar[191]</text>
<polygon fill="none" stroke="black" points="246,-328.75 246,-350.75 413,-350.75 413,-328.75 246,-328.75"/>
<text text-anchor="start" x="266" y="-335.3" font-family="Helvetica,sans-Serif" font-size="11.00">last_modified_by</text>
<polygon fill="none" stroke="black" points="413,-328.75 413,-350.75 517.25,-350.75 517.25,-328.75 413,-328.75"/>
<text text-anchor="start" x="416" y="-336.05" font-family="Helvetica,sans-Serif" font-size="11.00">varchar[191]</text>
<polygon fill="none" stroke="black" points="246,-306.75 246,-328.75 413,-328.75 413,-306.75 246,-306.75"/>
<text text-anchor="start" x="266" y="-313.3" font-family="Helvetica,sans-Serif" font-size="11.00">created_date</text>
<polygon fill="none" stroke="black" points="413,-306.75 413,-328.75 517.25,-328.75 517.25,-306.75 413,-306.75"/>
<text text-anchor="start" x="416" y="-314.05" font-family="Helvetica,sans-Serif" font-size="11.00">timestamp[19]</text>
<polygon fill="none" stroke="black" points="246,-284.75 246,-306.75 413,-306.75 413,-284.75 246,-284.75"/>
<text text-anchor="start" x="266" y="-291.3" font-family="Helvetica,sans-Serif" font-size="11.00">last_modified_date</text>
<polygon fill="none" stroke="black" points="413,-284.75 413,-306.75 517.25,-306.75 517.25,-284.75 413,-284.75"/>
<text text-anchor="start" x="416" y="-292.05" font-family="Helvetica,sans-Serif" font-size="11.00">timestamp[19]</text>
<polygon fill="none" stroke="black" points="246,-262.75 246,-284.75 413,-284.75 413,-262.75 246,-262.75"/>
<text text-anchor="start" x="266" y="-269.3" font-family="Helvetica,sans-Serif" font-size="11.00">digital_id</text>
<polygon fill="none" stroke="black" points="413,-262.75 413,-284.75 517.25,-284.75 517.25,-262.75 413,-262.75"/>
<text text-anchor="start" x="416" y="-270.05" font-family="Helvetica,sans-Serif" font-size="11.00">varchar[191]</text>
<polygon fill="none" stroke="black" points="246,-240.75 246,-262.75 413,-262.75 413,-240.75 246,-240.75"/>
<text text-anchor="start" x="266" y="-247.3" font-family="Helvetica,sans-Serif" font-size="11.00">major_error_rate</text>
<polygon fill="none" stroke="black" points="413,-240.75 413,-262.75 517.25,-262.75 517.25,-240.75 413,-240.75"/>
<text text-anchor="start" x="416" y="-248.05" font-family="Helvetica,sans-Serif" font-size="11.00">double[22]</text>
<polygon fill="none" stroke="black" points="246,-218.75 246,-240.75 413,-240.75 413,-218.75 246,-218.75"/>
<text text-anchor="start" x="266" y="-225.3" font-family="Helvetica,sans-Serif" font-size="11.00">minor_error_rate</text>
<polygon fill="none" stroke="black" points="413,-218.75 413,-240.75 517.25,-240.75 517.25,-218.75 413,-218.75"/>
<text text-anchor="start" x="416" y="-226.05" font-family="Helvetica,sans-Serif" font-size="11.00">double[22]</text>
<polygon fill="none" stroke="black" points="246,-196.75 246,-218.75 413,-218.75 413,-196.75 246,-196.75"/>
<text text-anchor="start" x="266" y="-203.3" font-family="Helvetica,sans-Serif" font-size="11.00">check_notes</text>
<polygon fill="none" stroke="black" points="413,-196.75 413,-218.75 517.25,-218.75 517.25,-196.75 413,-196.75"/>
<text text-anchor="start" x="416" y="-204.05" font-family="Helvetica,sans-Serif" font-size="11.00">varchar[2000]</text>
<polygon fill="none" stroke="black" points="246,-174.75 246,-196.75 413,-196.75 413,-174.75 246,-174.75"/>
<text text-anchor="start" x="266" y="-181.3" font-family="Helvetica,sans-Serif" font-size="11.00">delivery_date</text>
<polygon fill="none" stroke="black" points="413,-174.75 413,-196.75 517.25,-196.75 517.25,-174.75 413,-174.75"/>
<text text-anchor="start" x="416" y="-182.05" font-family="Helvetica,sans-Serif" font-size="11.00">date[10]</text>
<polygon fill="none" stroke="black" points="246,-152.75 246,-174.75 413,-174.75 413,-152.75 246,-152.75"/>
<text text-anchor="start" x="266" y="-159.3" font-family="Helvetica,sans-Serif" font-size="11.00">total_length</text>
<polygon fill="none" stroke="black" points="413,-152.75 413,-174.75 517.25,-174.75 517.25,-152.75 413,-152.75"/>
<text text-anchor="start" x="416" y="-160.05" font-family="Helvetica,sans-Serif" font-size="11.00">bigint[19]</text>
<polygon fill="#ffffff" stroke="none" points="246,-133.25 246,-152.75 335.5,-152.75 335.5,-133.25 246,-133.25"/>
<polygon fill="none" stroke="black" points="246,-133.25 246,-152.75 335.5,-152.75 335.5,-133.25 246,-133.25"/>
<text text-anchor="start" x="249" y="-139.3" font-family="Helvetica,sans-Serif" font-size="11.00">&lt; 1</text>
<polygon fill="#ffffff" stroke="none" points="335.5,-133.25 335.5,-152.75 413,-152.75 413,-133.25 335.5,-133.25"/>
<polygon fill="none" stroke="black" points="335.5,-133.25 335.5,-152.75 413,-152.75 413,-133.25 335.5,-133.25"/>
<text text-anchor="start" x="402.5" y="-139.3" font-family="Helvetica,sans-Serif" font-size="11.00"> &#160;</text>
<polygon fill="#ffffff" stroke="none" points="413,-133.25 413,-152.75 517.25,-152.75 517.25,-133.25 413,-133.25"/>
<polygon fill="none" stroke="black" points="413,-133.25 413,-152.75 517.25,-152.75 517.25,-133.25 413,-133.25"/>
<text text-anchor="start" x="494.75" y="-139.3" font-family="Helvetica,sans-Serif" font-size="11.00">6 &gt;</text>
<polygon fill="none" stroke="black" stroke-width="2" points="245,-132.25 245,-507.25 534.75,-507.25 534.75,-132.25 245,-132.25"/>
</a>
</g>
</g>
<!-- check_automatic_result&#45;&gt;doc_digital_document -->
<g id="edge1" class="edge">
<title>check_automatic_result:w&#45;&gt;doc_digital_document:e</title>
<path fill="none" stroke="black" d="M1068.8,-648.65C853.64,-652.89 756.05,-741.82 576.75,-612.75 521.69,-573.11 586.1,-471.75 518.25,-471.75"/>
<polygon fill="black" stroke="black" points="1076.17,-648.58 1084.2,-652.1 1080.5,-648.54 1083.83,-648.51 1083.83,-648.51 1083.83,-648.51 1080.5,-648.54 1084.13,-644.9 1076.17,-648.58"/>
<ellipse fill="none" stroke="black" cx="1071.25" cy="-648.63" rx="3.2" ry="3.2"/>
</g>
<!-- doc_unit -->
<g id="node3" class="node">
<title>doc_unit</title>
<g id="a_node3"><a xlink:href="../../tables/doc_unit.html" xlink:title="doc_unit" target="_top">
<polygon fill="#ffffff" stroke="none" points="8,-136.5 8,-551 195,-551 195,-136.5 8,-136.5"/>
<polygon fill="#f5f5f5" stroke="none" points="8,-527.5 8,-551 195,-551 195,-527.5 8,-527.5"/>
<polygon fill="none" stroke="black" points="8,-527.5 8,-551 195,-551 195,-527.5 8,-527.5"/>
<text text-anchor="start" x="13" y="-536.55" font-family="Helvetica,sans-Serif" font-weight="bold" font-size="11.00">doc_unit</text>
<text text-anchor="start" x="153.25" y="-535.55" font-family="Helvetica,sans-Serif" font-size="11.00">[table]</text>
<polygon fill="none" stroke="black" points="8,-505.5 8,-527.5 195,-527.5 195,-505.5 8,-505.5"/>
<image xlink:href="../../images/primaryKeys.png" width="11px" height="12px" preserveAspectRatio="xMinYMin meet" x="13" y="-522.5"/>
<text text-anchor="start" x="28" y="-512.05" font-family="Helvetica,sans-Serif" font-size="11.00">identifier</text>
<polygon fill="#ffffff" stroke="none" points="8,-483.5 8,-505.5 195,-505.5 195,-483.5 8,-483.5"/>
<polygon fill="none" stroke="black" points="8,-483.5 8,-505.5 195,-505.5 195,-483.5 8,-483.5"/>
<text text-anchor="start" x="28" y="-490.05" font-family="Helvetica,sans-Serif" font-size="11.00">pgcn_id</text>
<polygon fill="#ffffff" stroke="none" points="8,-461.5 8,-483.5 195,-483.5 195,-461.5 8,-461.5"/>
<polygon fill="none" stroke="black" points="8,-461.5 8,-483.5 195,-483.5 195,-461.5 8,-461.5"/>
<image xlink:href="../../images/foreignKeys.png" width="11px" height="12px" preserveAspectRatio="xMinYMin meet" x="13" y="-478.5"/>
<text text-anchor="start" x="28" y="-468.05" font-family="Helvetica,sans-Serif" font-size="11.00">library</text>
<polygon fill="#ffffff" stroke="none" points="8,-439.5 8,-461.5 195,-461.5 195,-439.5 8,-439.5"/>
<polygon fill="none" stroke="black" points="8,-439.5 8,-461.5 195,-461.5 195,-439.5 8,-439.5"/>
<image xlink:href="../../images/foreignKeys.png" width="11px" height="12px" preserveAspectRatio="xMinYMin meet" x="13" y="-456.5"/>
<text text-anchor="start" x="28" y="-446.05" font-family="Helvetica,sans-Serif" font-size="11.00">project</text>
<polygon fill="#ffffff" stroke="none" points="8,-417.5 8,-439.5 195,-439.5 195,-417.5 8,-417.5"/>
<polygon fill="none" stroke="black" points="8,-417.5 8,-439.5 195,-439.5 195,-417.5 8,-417.5"/>
<text text-anchor="start" x="28" y="-424.05" font-family="Helvetica,sans-Serif" font-size="11.00">state</text>
<polygon fill="#ffffff" stroke="none" points="8,-395.5 8,-417.5 195,-417.5 195,-395.5 8,-395.5"/>
<polygon fill="none" stroke="black" points="8,-395.5 8,-417.5 195,-417.5 195,-395.5 8,-395.5"/>
<image xlink:href="../../images/foreignKeys.png" width="11px" height="12px" preserveAspectRatio="xMinYMin meet" x="13" y="-412.5"/>
<text text-anchor="start" x="28" y="-402.05" font-family="Helvetica,sans-Serif" font-size="11.00">lot</text>
<polygon fill="#ffffff" stroke="none" points="8,-373.5 8,-395.5 195,-395.5 195,-373.5 8,-373.5"/>
<polygon fill="none" stroke="black" points="8,-373.5 8,-395.5 195,-395.5 195,-373.5 8,-373.5"/>
<image xlink:href="../../images/foreignKeys.png" width="11px" height="12px" preserveAspectRatio="xMinYMin meet" x="13" y="-390.5"/>
<text text-anchor="start" x="28" y="-380.05" font-family="Helvetica,sans-Serif" font-size="11.00">collection_omeka</text>
<polygon fill="#ffffff" stroke="none" points="8,-351.5 8,-373.5 195,-373.5 195,-351.5 8,-351.5"/>
<polygon fill="none" stroke="black" points="8,-351.5 8,-373.5 195,-373.5 195,-351.5 8,-351.5"/>
<image xlink:href="../../images/foreignKeys.png" width="11px" height="12px" preserveAspectRatio="xMinYMin meet" x="13" y="-368.5"/>
<text text-anchor="start" x="28" y="-358.05" font-family="Helvetica,sans-Serif" font-size="11.00">items_omeka</text>
<polygon fill="#ffffff" stroke="none" points="8,-329.5 8,-351.5 195,-351.5 195,-329.5 8,-329.5"/>
<polygon fill="none" stroke="black" points="8,-329.5 8,-351.5 195,-351.5 195,-329.5 8,-329.5"/>
<image xlink:href="../../images/foreignKeys.png" width="11px" height="12px" preserveAspectRatio="xMinYMin meet" x="13" y="-346.5"/>
<text text-anchor="start" x="28" y="-336.05" font-family="Helvetica,sans-Serif" font-size="11.00">parent</text>
<polygon fill="#ffffff" stroke="none" points="8,-307.5 8,-329.5 195,-329.5 195,-307.5 8,-307.5"/>
<polygon fill="none" stroke="black" points="8,-307.5 8,-329.5 195,-329.5 195,-307.5 8,-307.5"/>
<image xlink:href="../../images/foreignKeys.png" width="11px" height="12px" preserveAspectRatio="xMinYMin meet" x="13" y="-324.5"/>
<text text-anchor="start" x="28" y="-314.05" font-family="Helvetica,sans-Serif" font-size="11.00">active_ocr_lang</text>
<polygon fill="#ffffff" stroke="none" points="8,-285.5 8,-307.5 195,-307.5 195,-285.5 8,-285.5"/>
<polygon fill="none" stroke="black" points="8,-285.5 8,-307.5 195,-307.5 195,-285.5 8,-285.5"/>
<image xlink:href="../../images/foreignKeys.png" width="11px" height="12px" preserveAspectRatio="xMinYMin meet" x="13" y="-302.5"/>
<text text-anchor="start" x="28" y="-292.05" font-family="Helvetica,sans-Serif" font-size="11.00">collection_ia</text>
<polygon fill="#ffffff" stroke="none" points="8,-263.5 8,-285.5 195,-285.5 195,-263.5 8,-263.5"/>
<polygon fill="none" stroke="black" points="8,-263.5 8,-285.5 195,-285.5 195,-263.5 8,-263.5"/>
<image xlink:href="../../images/foreignKeys.png" width="11px" height="12px" preserveAspectRatio="xMinYMin meet" x="13" y="-280.5"/>
<text text-anchor="start" x="28" y="-270.05" font-family="Helvetica,sans-Serif" font-size="11.00">classement_pac</text>
<polygon fill="#ffffff" stroke="none" points="8,-241.5 8,-263.5 195,-263.5 195,-241.5 8,-241.5"/>
<polygon fill="none" stroke="black" points="8,-241.5 8,-263.5 195,-263.5 195,-241.5 8,-241.5"/>
<image xlink:href="../../images/foreignKeys.png" width="11px" height="12px" preserveAspectRatio="xMinYMin meet" x="13" y="-258.5"/>
<text text-anchor="start" x="28" y="-248.05" font-family="Helvetica,sans-Serif" font-size="11.00">sibling</text>
<polygon fill="#ffffff" stroke="none" points="8,-219.5 8,-241.5 195,-241.5 195,-219.5 8,-219.5"/>
<polygon fill="none" stroke="black" points="8,-219.5 8,-241.5 195,-241.5 195,-219.5 8,-219.5"/>
<image xlink:href="../../images/foreignKeys.png" width="11px" height="12px" preserveAspectRatio="xMinYMin meet" x="13" y="-236.5"/>
<text text-anchor="start" x="28" y="-226.05" font-family="Helvetica,sans-Serif" font-size="11.00">export_data</text>
<polygon fill="#ffffff" stroke="none" points="8,-197.5 8,-219.5 195,-219.5 195,-197.5 8,-197.5"/>
<polygon fill="none" stroke="black" points="8,-197.5 8,-219.5 195,-219.5 195,-197.5 8,-197.5"/>
<image xlink:href="../../images/foreignKeys.png" width="11px" height="12px" preserveAspectRatio="xMinYMin meet" x="13" y="-214.5"/>
<text text-anchor="start" x="28" y="-204.05" font-family="Helvetica,sans-Serif" font-size="11.00">archive_item</text>
<polygon fill="#ffffff" stroke="none" points="8,-175.5 8,-197.5 195,-197.5 195,-175.5 8,-175.5"/>
<polygon fill="none" stroke="black" points="8,-175.5 8,-197.5 195,-197.5 195,-175.5 8,-175.5"/>
<image xlink:href="../../images/foreignKeys.png" width="11px" height="12px" preserveAspectRatio="xMinYMin meet" x="13" y="-192.5"/>
<text text-anchor="start" x="28" y="-182.05" font-family="Helvetica,sans-Serif" font-size="11.00">workflow</text>
<polygon fill="none" stroke="black" points="8,-156 8,-175.5 195,-175.5 195,-156 8,-156"/>
<text text-anchor="start" x="11" y="-162.05" font-family="Helvetica,sans-Serif" font-size="11.00">...</text>
<polygon fill="#ffffff" stroke="none" points="8,-136.5 8,-156 76.58,-156 76.58,-136.5 8,-136.5"/>
<polygon fill="none" stroke="black" points="8,-136.5 8,-156 76.58,-156 76.58,-136.5 8,-136.5"/>
<text text-anchor="start" x="11" y="-142.55" font-family="Helvetica,sans-Serif" font-size="11.00">&lt; 13</text>
<polygon fill="#ffffff" stroke="none" points="76.58,-136.5 76.58,-156 126.42,-156 126.42,-136.5 76.58,-136.5"/>
<polygon fill="none" stroke="black" points="76.58,-136.5 76.58,-156 126.42,-156 126.42,-136.5 76.58,-136.5"/>
<text text-anchor="start" x="115.92" y="-142.55" font-family="Helvetica,sans-Serif" font-size="11.00"> &#160;</text>
<polygon fill="#ffffff" stroke="none" points="126.42,-136.5 126.42,-156 195,-156 195,-136.5 126.42,-136.5"/>
<polygon fill="none" stroke="black" points="126.42,-136.5 126.42,-156 195,-156 195,-136.5 126.42,-136.5"/>
<text text-anchor="start" x="165.75" y="-142.55" font-family="Helvetica,sans-Serif" font-size="11.00">11 &gt;</text>
</a>
</g>
</g>
<!-- check_automatic_result&#45;&gt;doc_unit -->
<g id="edge2" class="edge">
<title>check_automatic_result:w&#45;&gt;doc_unit:e</title>
<path fill="none" stroke="black" d="M1068.9,-626.53C855.92,-627.28 795.13,-642.93 576.75,-612.75 490.3,-600.8 283.27,-516.5 196,-516.5"/>
<polygon fill="black" stroke="black" points="1076.17,-626.51 1084.17,-630.1 1080.5,-626.51 1083.83,-626.5 1083.83,-626.5 1083.83,-626.5 1080.5,-626.51 1084.16,-622.9 1076.17,-626.51"/>
<ellipse fill="none" stroke="black" cx="1071.25" cy="-626.52" rx="3.2" ry="3.2"/>
</g>
<!-- doc_page -->
<g id="node4" class="node">
<title>doc_page</title>
<g id="a_node4"><a xlink:href="../../tables/doc_page.html" xlink:title="doc_page" target="_top">
<polygon fill="#ffffff" stroke="none" points="888.5,-378.5 888.5,-529 1036.5,-529 1036.5,-378.5 888.5,-378.5"/>
<polygon fill="#f5f5f5" stroke="none" points="888.5,-505.5 888.5,-529 1036.5,-529 1036.5,-505.5 888.5,-505.5"/>
<polygon fill="none" stroke="black" points="888.5,-505.5 888.5,-529 1036.5,-529 1036.5,-505.5 888.5,-505.5"/>
<text text-anchor="start" x="893.5" y="-514.55" font-family="Helvetica,sans-Serif" font-weight="bold" font-size="11.00">doc_page</text>
<text text-anchor="start" x="994.75" y="-513.55" font-family="Helvetica,sans-Serif" font-size="11.00">[table]</text>
<polygon fill="none" stroke="black" points="888.5,-483.5 888.5,-505.5 1036.5,-505.5 1036.5,-483.5 888.5,-483.5"/>
<image xlink:href="../../images/primaryKeys.png" width="11px" height="12px" preserveAspectRatio="xMinYMin meet" x="893.5" y="-500.5"/>
<text text-anchor="start" x="908.5" y="-490.05" font-family="Helvetica,sans-Serif" font-size="11.00">identifier</text>
<polygon fill="#ffffff" stroke="none" points="888.5,-461.5 888.5,-483.5 1036.5,-483.5 1036.5,-461.5 888.5,-461.5"/>
<polygon fill="none" stroke="black" points="888.5,-461.5 888.5,-483.5 1036.5,-483.5 1036.5,-461.5 888.5,-461.5"/>
<image xlink:href="../../images/foreignKeys.png" width="11px" height="12px" preserveAspectRatio="xMinYMin meet" x="893.5" y="-478.5"/>
<text text-anchor="start" x="908.5" y="-468.05" font-family="Helvetica,sans-Serif" font-size="11.00">digital_document</text>
<polygon fill="#ffffff" stroke="none" points="888.5,-439.5 888.5,-461.5 1036.5,-461.5 1036.5,-439.5 888.5,-439.5"/>
<polygon fill="none" stroke="black" points="888.5,-439.5 888.5,-461.5 1036.5,-461.5 1036.5,-439.5 888.5,-439.5"/>
<image xlink:href="../../images/foreignKeys.png" width="11px" height="12px" preserveAspectRatio="xMinYMin meet" x="893.5" y="-456.5"/>
<text text-anchor="start" x="908.5" y="-446.05" font-family="Helvetica,sans-Serif" font-size="11.00">sample</text>
<polygon fill="#ffffff" stroke="none" points="888.5,-417.5 888.5,-439.5 1036.5,-439.5 1036.5,-417.5 888.5,-417.5"/>
<polygon fill="none" stroke="black" points="888.5,-417.5 888.5,-439.5 1036.5,-439.5 1036.5,-417.5 888.5,-417.5"/>
<text text-anchor="start" x="908.5" y="-424.05" font-family="Helvetica,sans-Serif" font-size="11.00">piece</text>
<polygon fill="none" stroke="black" points="888.5,-398 888.5,-417.5 1036.5,-417.5 1036.5,-398 888.5,-398"/>
<text text-anchor="start" x="891.5" y="-404.05" font-family="Helvetica,sans-Serif" font-size="11.00">...</text>
<polygon fill="#ffffff" stroke="none" points="888.5,-378.5 888.5,-398 941.83,-398 941.83,-378.5 888.5,-378.5"/>
<polygon fill="none" stroke="black" points="888.5,-378.5 888.5,-398 941.83,-398 941.83,-378.5 888.5,-378.5"/>
<text text-anchor="start" x="891.5" y="-384.55" font-family="Helvetica,sans-Serif" font-size="11.00">&lt; 2</text>
<polygon fill="#ffffff" stroke="none" points="941.83,-378.5 941.83,-398 983.17,-398 983.17,-378.5 941.83,-378.5"/>
<polygon fill="none" stroke="black" points="941.83,-378.5 941.83,-398 983.17,-398 983.17,-378.5 941.83,-378.5"/>
<text text-anchor="start" x="972.67" y="-384.55" font-family="Helvetica,sans-Serif" font-size="11.00"> &#160;</text>
<polygon fill="#ffffff" stroke="none" points="983.17,-378.5 983.17,-398 1036.5,-398 1036.5,-378.5 983.17,-378.5"/>
<polygon fill="none" stroke="black" points="983.17,-378.5 983.17,-398 1036.5,-398 1036.5,-378.5 983.17,-378.5"/>
<text text-anchor="start" x="1014" y="-384.55" font-family="Helvetica,sans-Serif" font-size="11.00">3 &gt;</text>
</a>
</g>
</g>
<!-- check_automatic_result&#45;&gt;doc_page -->
<g id="edge3" class="edge">
<title>check_automatic_result:w&#45;&gt;doc_page:e</title>
<path fill="none" stroke="black" d="M1069.4,-599.77C1044.41,-578.72 1084.02,-494.5 1037.5,-494.5"/>
<polygon fill="black" stroke="black" points="1076.55,-602.01 1083.11,-607.84 1080.68,-603.31 1083.86,-604.3 1083.86,-604.3 1083.86,-604.3 1080.68,-603.31 1085.26,-600.96 1076.55,-602.01"/>
<ellipse fill="none" stroke="black" cx="1071.85" cy="-600.54" rx="3.2" ry="3.2"/>
</g>
<!-- doc_digital_document&#45;&gt;doc_unit -->
<g id="edge5" class="edge">
<title>doc_digital_document:w&#45;&gt;doc_unit:e</title>
<path fill="none" stroke="black" d="M229.99,-410.23C203.73,-430.95 243.31,-516.5 196,-516.5"/>
<polygon fill="black" stroke="black" points="237.01,-408.13 245.71,-409.3 241.17,-406.89 244.36,-405.94 244.36,-405.94 244.36,-405.94 241.17,-406.89 243.65,-402.4 237.01,-408.13"/>
<ellipse fill="none" stroke="black" cx="232.3" cy="-409.54" rx="3.2" ry="3.2"/>
</g>
<!-- doc_page&#45;&gt;doc_digital_document -->
<g id="edge7" class="edge">
<title>doc_page:w&#45;&gt;doc_digital_document:e</title>
<path fill="none" stroke="black" d="M872.01,-472.5C720.62,-472.45 677.07,-471.75 518.25,-471.75"/>
<polygon fill="black" stroke="black" points="879.17,-472.5 887.16,-476.1 883.5,-472.5 886.83,-472.5 886.83,-472.5 886.83,-472.5 883.5,-472.5 887.17,-468.9 879.17,-472.5"/>
<ellipse fill="none" stroke="black" cx="874.25" cy="-472.5" rx="3.2" ry="3.2"/>
</g>
<!-- doc_sample -->
<g id="node7" class="node">
<title>doc_sample</title>
<g id="a_node7"><a xlink:href="../../tables/doc_sample.html" xlink:title="doc_sample" target="_top">
<polygon fill="#ffffff" stroke="none" points="638.12,-210.5 638.12,-339 786.12,-339 786.12,-210.5 638.12,-210.5"/>
<polygon fill="#f5f5f5" stroke="none" points="638.12,-315.5 638.12,-339 786.12,-339 786.12,-315.5 638.12,-315.5"/>
<polygon fill="none" stroke="black" points="638.12,-315.5 638.12,-339 786.12,-339 786.12,-315.5 638.12,-315.5"/>
<text text-anchor="start" x="643.12" y="-324.55" font-family="Helvetica,sans-Serif" font-weight="bold" font-size="11.00">doc_sample</text>
<text text-anchor="start" x="744.38" y="-323.55" font-family="Helvetica,sans-Serif" font-size="11.00">[table]</text>
<polygon fill="none" stroke="black" points="638.12,-293.5 638.12,-315.5 786.12,-315.5 786.12,-293.5 638.12,-293.5"/>
<image xlink:href="../../images/primaryKeys.png" width="11px" height="12px" preserveAspectRatio="xMinYMin meet" x="643.125" y="-310.5"/>
<text text-anchor="start" x="658.12" y="-300.05" font-family="Helvetica,sans-Serif" font-size="11.00">identifier</text>
<polygon fill="#ffffff" stroke="none" points="638.12,-271.5 638.12,-293.5 786.12,-293.5 786.12,-271.5 638.12,-271.5"/>
<polygon fill="none" stroke="black" points="638.12,-271.5 638.12,-293.5 786.12,-293.5 786.12,-271.5 638.12,-271.5"/>
<image xlink:href="../../images/foreignKeys.png" width="11px" height="12px" preserveAspectRatio="xMinYMin meet" x="643.125" y="-288.5"/>
<text text-anchor="start" x="658.12" y="-278.05" font-family="Helvetica,sans-Serif" font-size="11.00">delivery</text>
<polygon fill="#ffffff" stroke="none" points="638.12,-249.5 638.12,-271.5 786.12,-271.5 786.12,-249.5 638.12,-249.5"/>
<polygon fill="none" stroke="black" points="638.12,-249.5 638.12,-271.5 786.12,-271.5 786.12,-249.5 638.12,-249.5"/>
<image xlink:href="../../images/foreignKeys.png" width="11px" height="12px" preserveAspectRatio="xMinYMin meet" x="643.125" y="-266.5"/>
<text text-anchor="start" x="658.12" y="-256.05" font-family="Helvetica,sans-Serif" font-size="11.00">digital_document</text>
<polygon fill="none" stroke="black" points="638.12,-230 638.12,-249.5 786.12,-249.5 786.12,-230 638.12,-230"/>
<text text-anchor="start" x="641.12" y="-236.05" font-family="Helvetica,sans-Serif" font-size="11.00">...</text>
<polygon fill="#ffffff" stroke="none" points="638.12,-210.5 638.12,-230 691.46,-230 691.46,-210.5 638.12,-210.5"/>
<polygon fill="none" stroke="black" points="638.12,-210.5 638.12,-230 691.46,-230 691.46,-210.5 638.12,-210.5"/>
<text text-anchor="start" x="641.12" y="-216.55" font-family="Helvetica,sans-Serif" font-size="11.00">&lt; 2</text>
<polygon fill="#ffffff" stroke="none" points="691.46,-210.5 691.46,-230 732.79,-230 732.79,-210.5 691.46,-210.5"/>
<polygon fill="none" stroke="black" points="691.46,-210.5 691.46,-230 732.79,-230 732.79,-210.5 691.46,-210.5"/>
<text text-anchor="start" x="722.29" y="-216.55" font-family="Helvetica,sans-Serif" font-size="11.00"> &#160;</text>
<polygon fill="#ffffff" stroke="none" points="732.79,-210.5 732.79,-230 786.12,-230 786.12,-210.5 732.79,-210.5"/>
<polygon fill="none" stroke="black" points="732.79,-210.5 732.79,-230 786.12,-230 786.12,-210.5 732.79,-210.5"/>
<text text-anchor="start" x="763.62" y="-216.55" font-family="Helvetica,sans-Serif" font-size="11.00">1 &gt;</text>
</a>
</g>
</g>
<!-- doc_page&#45;&gt;doc_sample -->
<g id="edge8" class="edge">
<title>doc_page:w&#45;&gt;doc_sample:e</title>
<path fill="none" stroke="black" d="M872.15,-447.22C848.31,-433.87 872.76,-382.79 847.5,-349.75 827.13,-323.11 820.66,-304.5 787.12,-304.5"/>
<polygon fill="black" stroke="black" points="879.35,-448.76 886.42,-453.95 883.59,-449.66 886.85,-450.36 886.85,-450.36 886.85,-450.36 883.59,-449.66 887.93,-446.91 879.35,-448.76"/>
<ellipse fill="none" stroke="black" cx="874.54" cy="-447.73" rx="3.2" ry="3.2"/>
</g>
<!-- del_delivered_document -->
<g id="node5" class="node">
<title>del_delivered_document</title>
<g id="a_node5"><a xlink:href="../../tables/del_delivered_document.html" xlink:title="del_delivered_document" target="_top">
<polygon fill="#ffffff" stroke="none" points="607.25,-38.5 607.25,-189 817,-189 817,-38.5 607.25,-38.5"/>
<polygon fill="#f5f5f5" stroke="none" points="607.25,-165.5 607.25,-189 817,-189 817,-165.5 607.25,-165.5"/>
<polygon fill="none" stroke="black" points="607.25,-165.5 607.25,-189 817,-189 817,-165.5 607.25,-165.5"/>
<text text-anchor="start" x="612.25" y="-174.55" font-family="Helvetica,sans-Serif" font-weight="bold" font-size="11.00">del_delivered_document</text>
<text text-anchor="start" x="775.25" y="-173.55" font-family="Helvetica,sans-Serif" font-size="11.00">[table]</text>
<polygon fill="none" stroke="black" points="607.25,-143.5 607.25,-165.5 817,-165.5 817,-143.5 607.25,-143.5"/>
<image xlink:href="../../images/primaryKeys.png" width="11px" height="12px" preserveAspectRatio="xMinYMin meet" x="612.25" y="-160.5"/>
<text text-anchor="start" x="640.12" y="-150.05" font-family="Helvetica,sans-Serif" font-size="11.00">identifier</text>
<polygon fill="#ffffff" stroke="none" points="607.25,-121.5 607.25,-143.5 817,-143.5 817,-121.5 607.25,-121.5"/>
<polygon fill="none" stroke="black" points="607.25,-121.5 607.25,-143.5 817,-143.5 817,-121.5 607.25,-121.5"/>
<image xlink:href="../../images/foreignKeys.png" width="11px" height="12px" preserveAspectRatio="xMinYMin meet" x="612.25" y="-138.5"/>
<text text-anchor="start" x="640.12" y="-128.05" font-family="Helvetica,sans-Serif" font-size="11.00">delivery</text>
<polygon fill="#ffffff" stroke="none" points="607.25,-99.5 607.25,-121.5 817,-121.5 817,-99.5 607.25,-99.5"/>
<polygon fill="none" stroke="black" points="607.25,-99.5 607.25,-121.5 817,-121.5 817,-99.5 607.25,-99.5"/>
<image xlink:href="../../images/foreignKeys.png" width="11px" height="12px" preserveAspectRatio="xMinYMin meet" x="612.25" y="-116.5"/>
<text text-anchor="start" x="640.12" y="-106.05" font-family="Helvetica,sans-Serif" font-size="11.00">digital_document</text>
<polygon fill="#ffffff" stroke="none" points="607.25,-77.5 607.25,-99.5 817,-99.5 817,-77.5 607.25,-77.5"/>
<polygon fill="none" stroke="black" points="607.25,-77.5 607.25,-99.5 817,-99.5 817,-77.5 607.25,-77.5"/>
<image xlink:href="../../images/foreignKeys.png" width="11px" height="12px" preserveAspectRatio="xMinYMin meet" x="612.25" y="-94.5"/>
<text text-anchor="start" x="640.12" y="-84.05" font-family="Helvetica,sans-Serif" font-size="11.00">check_slip</text>
<polygon fill="none" stroke="black" points="607.25,-58 607.25,-77.5 817,-77.5 817,-58 607.25,-58"/>
<text text-anchor="start" x="610.25" y="-64.05" font-family="Helvetica,sans-Serif" font-size="11.00">...</text>
<polygon fill="#ffffff" stroke="none" points="607.25,-38.5 607.25,-58 685.17,-58 685.17,-38.5 607.25,-38.5"/>
<polygon fill="none" stroke="black" points="607.25,-38.5 607.25,-58 685.17,-58 685.17,-38.5 607.25,-38.5"/>
<text text-anchor="start" x="610.25" y="-44.55" font-family="Helvetica,sans-Serif" font-size="11.00">&lt; 3</text>
<polygon fill="#ffffff" stroke="none" points="685.17,-38.5 685.17,-58 751.08,-58 751.08,-38.5 685.17,-38.5"/>
<polygon fill="none" stroke="black" points="685.17,-38.5 685.17,-58 751.08,-58 751.08,-38.5 685.17,-38.5"/>
<text text-anchor="start" x="740.58" y="-44.55" font-family="Helvetica,sans-Serif" font-size="11.00"> &#160;</text>
<polygon fill="#ffffff" stroke="none" points="751.08,-38.5 751.08,-58 817,-58 817,-38.5 751.08,-38.5"/>
<polygon fill="none" stroke="black" points="751.08,-38.5 751.08,-58 817,-58 817,-38.5 751.08,-38.5"/>
<text text-anchor="start" x="806.5" y="-44.55" font-family="Helvetica,sans-Serif" font-size="11.00"> &#160;</text>
</a>
</g>
</g>
<!-- del_delivered_document&#45;&gt;doc_digital_document -->
<g id="edge4" class="edge">
<title>del_delivered_document:w&#45;&gt;doc_digital_document:e</title>
<path fill="none" stroke="black" d="M591.44,-115.33C533.44,-158.2 595.23,-471.75 518.25,-471.75"/>
<polygon fill="black" stroke="black" points="598.33,-113.09 607.05,-114.03 602.45,-111.74 605.61,-110.71 605.61,-110.71 605.61,-110.71 602.45,-111.74 604.81,-107.18 598.33,-113.09"/>
<ellipse fill="none" stroke="black" cx="593.65" cy="-114.61" rx="3.2" ry="3.2"/>
</g>
<!-- doc_global_check -->
<g id="node6" class="node">
<title>doc_global_check</title>
<g id="a_node6"><a xlink:href="../../tables/doc_global_check.html" xlink:title="doc_global_check" target="_top">
<polygon fill="#ffffff" stroke="none" points="630.75,-495.5 630.75,-602 793.5,-602 793.5,-495.5 630.75,-495.5"/>
<polygon fill="#f5f5f5" stroke="none" points="630.75,-578.5 630.75,-602 793.5,-602 793.5,-578.5 630.75,-578.5"/>
<polygon fill="none" stroke="black" points="630.75,-578.5 630.75,-602 793.5,-602 793.5,-578.5 630.75,-578.5"/>
<text text-anchor="start" x="635.75" y="-587.55" font-family="Helvetica,sans-Serif" font-weight="bold" font-size="11.00">doc_global_check</text>
<text text-anchor="start" x="751.75" y="-586.55" font-family="Helvetica,sans-Serif" font-size="11.00">[table]</text>
<polygon fill="none" stroke="black" points="630.75,-556.5 630.75,-578.5 793.5,-578.5 793.5,-556.5 630.75,-556.5"/>
<image xlink:href="../../images/primaryKeys.png" width="11px" height="12px" preserveAspectRatio="xMinYMin meet" x="635.75" y="-573.5"/>
<text text-anchor="start" x="658.12" y="-563.05" font-family="Helvetica,sans-Serif" font-size="11.00">identifier</text>
<polygon fill="#ffffff" stroke="none" points="630.75,-534.5 630.75,-556.5 793.5,-556.5 793.5,-534.5 630.75,-534.5"/>
<polygon fill="none" stroke="black" points="630.75,-534.5 630.75,-556.5 793.5,-556.5 793.5,-534.5 630.75,-534.5"/>
<image xlink:href="../../images/foreignKeys.png" width="11px" height="12px" preserveAspectRatio="xMinYMin meet" x="635.75" y="-551.5"/>
<text text-anchor="start" x="658.12" y="-541.05" font-family="Helvetica,sans-Serif" font-size="11.00">digital_document</text>
<polygon fill="none" stroke="black" points="630.75,-515 630.75,-534.5 793.5,-534.5 793.5,-515 630.75,-515"/>
<text text-anchor="start" x="633.75" y="-521.05" font-family="Helvetica,sans-Serif" font-size="11.00">...</text>
<polygon fill="#ffffff" stroke="none" points="630.75,-495.5 630.75,-515 693,-515 693,-495.5 630.75,-495.5"/>
<polygon fill="none" stroke="black" points="630.75,-495.5 630.75,-515 693,-515 693,-495.5 630.75,-495.5"/>
<text text-anchor="start" x="633.75" y="-501.55" font-family="Helvetica,sans-Serif" font-size="11.00">&lt; 1</text>
<polygon fill="#ffffff" stroke="none" points="693,-495.5 693,-515 743.25,-515 743.25,-495.5 693,-495.5"/>
<polygon fill="none" stroke="black" points="693,-495.5 693,-515 743.25,-515 743.25,-495.5 693,-495.5"/>
<text text-anchor="start" x="732.75" y="-501.55" font-family="Helvetica,sans-Serif" font-size="11.00"> &#160;</text>
<polygon fill="#ffffff" stroke="none" points="743.25,-495.5 743.25,-515 793.5,-515 793.5,-495.5 743.25,-495.5"/>
<polygon fill="none" stroke="black" points="743.25,-495.5 743.25,-515 793.5,-515 793.5,-495.5 743.25,-495.5"/>
<text text-anchor="start" x="783" y="-501.55" font-family="Helvetica,sans-Serif" font-size="11.00"> &#160;</text>
</a>
</g>
</g>
<!-- doc_global_check&#45;&gt;doc_digital_document -->
<g id="edge6" class="edge">
<title>doc_global_check:w&#45;&gt;doc_digital_document:e</title>
<path fill="none" stroke="black" d="M614.13,-543.53C571.13,-531.8 571.86,-471.75 518.25,-471.75"/>
<polygon fill="black" stroke="black" points="621.48,-544.46 628.97,-549.03 625.78,-545 629.09,-545.42 629.09,-545.42 629.09,-545.42 625.78,-545 629.87,-541.89 621.48,-544.46"/>
<ellipse fill="none" stroke="black" cx="616.6" cy="-543.84" rx="3.2" ry="3.2"/>
</g>
<!-- doc_sample&#45;&gt;doc_digital_document -->
<g id="edge10" class="edge">
<title>doc_sample:w&#45;&gt;doc_digital_document:e</title>
<path fill="none" stroke="black" d="M621.76,-262.63C591.52,-272.33 597.61,-313.4 576.75,-349.75 546.82,-401.91 578.38,-471.75 518.25,-471.75"/>
<polygon fill="black" stroke="black" points="628.87,-261.65 637.29,-264.11 633.16,-261.05 636.46,-260.59 636.46,-260.59 636.46,-260.59 633.16,-261.05 636.3,-256.98 628.87,-261.65"/>
<ellipse fill="none" stroke="black" cx="624" cy="-262.32" rx="3.2" ry="3.2"/>
</g>
<!-- doc_physical_document_digital -->
<g id="node8" class="node">
<title>doc_physical_document_digital</title>
<g id="a_node8"><a xlink:href="../../tables/doc_physical_document_digital.html" xlink:title="doc_physical_document_digital" target="_top">
<polygon fill="#ffffff" stroke="none" points="584.75,-360.25 584.75,-447.25 839.5,-447.25 839.5,-360.25 584.75,-360.25"/>
<polygon fill="#f5f5f5" stroke="none" points="584.75,-423.75 584.75,-447.25 839.5,-447.25 839.5,-423.75 584.75,-423.75"/>
<polygon fill="none" stroke="black" points="584.75,-423.75 584.75,-447.25 839.5,-447.25 839.5,-423.75 584.75,-423.75"/>
<text text-anchor="start" x="589.75" y="-432.8" font-family="Helvetica,sans-Serif" font-weight="bold" font-size="11.00">doc_physical_document_digital</text>
<text text-anchor="start" x="797.75" y="-431.8" font-family="Helvetica,sans-Serif" font-size="11.00">[table]</text>
<polygon fill="none" stroke="black" points="584.75,-401.75 584.75,-423.75 839.5,-423.75 839.5,-401.75 584.75,-401.75"/>
<image xlink:href="../../images/primaryKeys.png" width="11px" height="12px" preserveAspectRatio="xMinYMin meet" x="589.75" y="-418.75"/>
<text text-anchor="start" x="617.62" y="-408.3" font-family="Helvetica,sans-Serif" font-size="11.00">physical_document</text>
<polygon fill="none" stroke="black" points="584.75,-379.75 584.75,-401.75 839.5,-401.75 839.5,-379.75 584.75,-379.75"/>
<image xlink:href="../../images/primaryKeys.png" width="11px" height="12px" preserveAspectRatio="xMinYMin meet" x="589.75" y="-396.75"/>
<text text-anchor="start" x="617.62" y="-386.3" font-family="Helvetica,sans-Serif" font-size="11.00">digital_document</text>
<polygon fill="#ffffff" stroke="none" points="584.75,-360.25 584.75,-379.75 677.67,-379.75 677.67,-360.25 584.75,-360.25"/>
<polygon fill="none" stroke="black" points="584.75,-360.25 584.75,-379.75 677.67,-379.75 677.67,-360.25 584.75,-360.25"/>
<text text-anchor="start" x="587.75" y="-366.3" font-family="Helvetica,sans-Serif" font-size="11.00">&lt; 2</text>
<polygon fill="#ffffff" stroke="none" points="677.67,-360.25 677.67,-379.75 758.58,-379.75 758.58,-360.25 677.67,-360.25"/>
<polygon fill="none" stroke="black" points="677.67,-360.25 677.67,-379.75 758.58,-379.75 758.58,-360.25 677.67,-360.25"/>
<text text-anchor="start" x="748.08" y="-366.3" font-family="Helvetica,sans-Serif" font-size="11.00"> &#160;</text>
<polygon fill="#ffffff" stroke="none" points="758.58,-360.25 758.58,-379.75 839.5,-379.75 839.5,-360.25 758.58,-360.25"/>
<polygon fill="none" stroke="black" points="758.58,-360.25 758.58,-379.75 839.5,-379.75 839.5,-360.25 758.58,-360.25"/>
<text text-anchor="start" x="829" y="-366.3" font-family="Helvetica,sans-Serif" font-size="11.00"> &#160;</text>
</a>
</g>
</g>
<!-- doc_physical_document_digital&#45;&gt;doc_digital_document -->
<g id="edge9" class="edge">
<title>doc_physical_document_digital:w&#45;&gt;doc_digital_document:e</title>
<path fill="none" stroke="black" d="M568.5,-394.88C543.49,-411.38 558.22,-471.75 518.25,-471.75"/>
<polygon fill="black" stroke="black" points="575.71,-392.93 584.37,-394.31 579.89,-391.8 583.1,-390.92 583.1,-390.92 583.1,-390.92 579.89,-391.8 582.49,-387.36 575.71,-392.93"/>
<ellipse fill="none" stroke="black" cx="570.96" cy="-394.21" rx="3.2" ry="3.2"/>
</g>
</g>
</svg>
