<?xml version="1.0" encoding="UTF-8" standalone="no"?>
<!DOCTYPE svg PUBLIC "-//W3C//DTD SVG 1.1//EN"
 "http://www.w3.org/Graphics/SVG/1.1/DTD/svg11.dtd">
<!-- Generated by graphviz version 12.2.0 (0)
 -->
<!-- Title: oneDegreeRelationshipsDiagram Pages: 1 -->
<svg width="535pt" height="274pt"
 viewBox="0.00 0.00 535.00 273.50" xmlns="http://www.w3.org/2000/svg" xmlns:xlink="http://www.w3.org/1999/xlink">
<g id="graph0" class="graph" transform="scale(1 1) rotate(0) translate(4 269.5)">
<title>oneDegreeRelationshipsDiagram</title>
<polygon fill="#ffffff" stroke="none" points="-4,4 -4,-269.5 531,-269.5 531,4 -4,4"/>
<text text-anchor="middle" x="79.25" y="-7.05" font-family="Helvetica,sans-Serif" font-size="11.00">Generated by SchemaSpy</text>
<!-- doc_archive_collection -->
<g id="node1" class="node">
<title>doc_archive_collection</title>
<g id="a_node1"><a xlink:href="../../tables/doc_archive_collection.html" xlink:title="doc_archive_collection" target="_top">
<polygon fill="#ffffff" stroke="none" points="219.75,-38.5 219.75,-261.5 519,-261.5 519,-38.5 219.75,-38.5"/>
<polygon fill="#f5f5f5" stroke="none" points="221.75,-236 221.75,-259.5 517,-259.5 517,-236 221.75,-236"/>
<polygon fill="none" stroke="black" points="221.75,-236 221.75,-259.5 517,-259.5 517,-236 221.75,-236"/>
<text text-anchor="start" x="226.75" y="-245.05" font-family="Helvetica,sans-Serif" font-weight="bold" font-size="11.00">doc_archive_collection</text>
<text text-anchor="start" x="475.25" y="-244.05" font-family="Helvetica,sans-Serif" font-size="11.00">[table]</text>
<polygon fill="none" stroke="black" points="221.75,-214 221.75,-236 393.75,-236 393.75,-214 221.75,-214"/>
<image xlink:href="../../images/primaryKeys.png" width="11px" height="12px" preserveAspectRatio="xMinYMin meet" x="226.75" y="-231"/>
<text text-anchor="start" x="241.75" y="-220.55" font-family="Helvetica,sans-Serif" font-size="11.00">identifier</text>
<polygon fill="none" stroke="black" points="393.75,-214 393.75,-236 499.25,-236 499.25,-214 393.75,-214"/>
<text text-anchor="start" x="396.75" y="-221.3" font-family="Helvetica,sans-Serif" font-size="11.00">varchar[191]</text>
<polygon fill="none" stroke="black" points="221.75,-192 221.75,-214 393.75,-214 393.75,-192 221.75,-192"/>
<text text-anchor="start" x="241.75" y="-198.55" font-family="Helvetica,sans-Serif" font-size="11.00">value</text>
<polygon fill="none" stroke="black" points="393.75,-192 393.75,-214 499.25,-214 499.25,-192 393.75,-192"/>
<text text-anchor="start" x="396.75" y="-199.3" font-family="Helvetica,sans-Serif" font-size="11.00">text[65535]</text>
<polygon fill="#ffffff" stroke="none" points="221.75,-170 221.75,-192 393.75,-192 393.75,-170 221.75,-170"/>
<polygon fill="none" stroke="black" points="221.75,-170 221.75,-192 393.75,-192 393.75,-170 221.75,-170"/>
<image xlink:href="../../images/foreignKeys.png" width="11px" height="12px" preserveAspectRatio="xMinYMin meet" x="226.75" y="-187"/>
<text text-anchor="start" x="241.75" y="-176.55" font-family="Helvetica,sans-Serif" font-size="11.00">item</text>
<polygon fill="none" stroke="black" points="393.75,-170 393.75,-192 499.25,-192 499.25,-170 393.75,-170"/>
<text text-anchor="start" x="396.75" y="-177.3" font-family="Helvetica,sans-Serif" font-size="11.00">varchar[191]</text>
<polygon fill="none" stroke="black" points="221.75,-148 221.75,-170 393.75,-170 393.75,-148 221.75,-148"/>
<text text-anchor="start" x="241.75" y="-154.55" font-family="Helvetica,sans-Serif" font-size="11.00">version</text>
<polygon fill="none" stroke="black" points="393.75,-148 393.75,-170 499.25,-170 499.25,-148 393.75,-148"/>
<text text-anchor="start" x="396.75" y="-155.3" font-family="Helvetica,sans-Serif" font-size="11.00">bigint[19]</text>
<polygon fill="none" stroke="black" points="221.75,-126 221.75,-148 393.75,-148 393.75,-126 221.75,-126"/>
<text text-anchor="start" x="241.75" y="-132.55" font-family="Helvetica,sans-Serif" font-size="11.00">created_by</text>
<polygon fill="none" stroke="black" points="393.75,-126 393.75,-148 499.25,-148 499.25,-126 393.75,-126"/>
<text text-anchor="start" x="396.75" y="-133.3" font-family="Helvetica,sans-Serif" font-size="11.00">varchar[191]</text>
<polygon fill="none" stroke="black" points="221.75,-104 221.75,-126 393.75,-126 393.75,-104 221.75,-104"/>
<text text-anchor="start" x="241.75" y="-110.55" font-family="Helvetica,sans-Serif" font-size="11.00">last_modified_by</text>
<polygon fill="none" stroke="black" points="393.75,-104 393.75,-126 499.25,-126 499.25,-104 393.75,-104"/>
<text text-anchor="start" x="396.75" y="-111.3" font-family="Helvetica,sans-Serif" font-size="11.00">varchar[191]</text>
<polygon fill="none" stroke="black" points="221.75,-82 221.75,-104 393.75,-104 393.75,-82 221.75,-82"/>
<text text-anchor="start" x="241.75" y="-88.55" font-family="Helvetica,sans-Serif" font-size="11.00">created_date</text>
<polygon fill="none" stroke="black" points="393.75,-82 393.75,-104 499.25,-104 499.25,-82 393.75,-82"/>
<text text-anchor="start" x="396.75" y="-89.3" font-family="Helvetica,sans-Serif" font-size="11.00">timestamp[19]</text>
<polygon fill="none" stroke="black" points="221.75,-60 221.75,-82 393.75,-82 393.75,-60 221.75,-60"/>
<text text-anchor="start" x="241.75" y="-66.55" font-family="Helvetica,sans-Serif" font-size="11.00">last_modified_date</text>
<polygon fill="none" stroke="black" points="393.75,-60 393.75,-82 499.25,-82 499.25,-60 393.75,-60"/>
<text text-anchor="start" x="396.75" y="-67.3" font-family="Helvetica,sans-Serif" font-size="11.00">timestamp[19]</text>
<polygon fill="#ffffff" stroke="none" points="221.75,-40.5 221.75,-60 313.75,-60 313.75,-40.5 221.75,-40.5"/>
<polygon fill="none" stroke="black" points="221.75,-40.5 221.75,-60 313.75,-60 313.75,-40.5 221.75,-40.5"/>
<text text-anchor="start" x="224.75" y="-46.55" font-family="Helvetica,sans-Serif" font-size="11.00">&lt; 1</text>
<polygon fill="#ffffff" stroke="none" points="313.75,-40.5 313.75,-60 393.75,-60 393.75,-40.5 313.75,-40.5"/>
<polygon fill="none" stroke="black" points="313.75,-40.5 313.75,-60 393.75,-60 393.75,-40.5 313.75,-40.5"/>
<text text-anchor="start" x="383.25" y="-46.55" font-family="Helvetica,sans-Serif" font-size="11.00"> &#160;</text>
<polygon fill="#ffffff" stroke="none" points="393.75,-40.5 393.75,-60 499.25,-60 499.25,-40.5 393.75,-40.5"/>
<polygon fill="none" stroke="black" points="393.75,-40.5 393.75,-60 499.25,-60 499.25,-40.5 393.75,-40.5"/>
<text text-anchor="start" x="476.75" y="-46.55" font-family="Helvetica,sans-Serif" font-size="11.00">0 &gt;</text>
<polygon fill="none" stroke="black" stroke-width="2" points="220.75,-39.5 220.75,-260.5 518,-260.5 518,-39.5 220.75,-39.5"/>
</a>
</g>
</g>
<!-- doc_archive_item -->
<g id="node2" class="node">
<title>doc_archive_item</title>
<g id="a_node2"><a xlink:href="../../tables/doc_archive_item.html" xlink:title="doc_archive_item" target="_top">
<polygon fill="#ffffff" stroke="none" points="8,-130.75 8,-215.25 170.75,-215.25 170.75,-130.75 8,-130.75"/>
<polygon fill="#f5f5f5" stroke="none" points="8,-191.75 8,-215.25 170.75,-215.25 170.75,-191.75 8,-191.75"/>
<polygon fill="none" stroke="black" points="8,-191.75 8,-215.25 170.75,-215.25 170.75,-191.75 8,-191.75"/>
<text text-anchor="start" x="13" y="-200.8" font-family="Helvetica,sans-Serif" font-weight="bold" font-size="11.00">doc_archive_item</text>
<text text-anchor="start" x="129" y="-199.8" font-family="Helvetica,sans-Serif" font-size="11.00">[table]</text>
<polygon fill="none" stroke="black" points="8,-169.75 8,-191.75 170.75,-191.75 170.75,-169.75 8,-169.75"/>
<image xlink:href="../../images/primaryKeys.png" width="11px" height="12px" preserveAspectRatio="xMinYMin meet" x="13" y="-186.75"/>
<text text-anchor="start" x="35.38" y="-176.3" font-family="Helvetica,sans-Serif" font-size="11.00">identifier</text>
<polygon fill="none" stroke="black" points="8,-150.25 8,-169.75 170.75,-169.75 170.75,-150.25 8,-150.25"/>
<text text-anchor="start" x="11" y="-156.3" font-family="Helvetica,sans-Serif" font-size="11.00">...</text>
<polygon fill="#ffffff" stroke="none" points="8,-130.75 8,-150.25 58.25,-150.25 58.25,-130.75 8,-130.75"/>
<polygon fill="none" stroke="black" points="8,-130.75 8,-150.25 58.25,-150.25 58.25,-130.75 8,-130.75"/>
<text text-anchor="start" x="11" y="-136.8" font-family="Helvetica,sans-Serif" font-size="11.00"> &#160;</text>
<polygon fill="#ffffff" stroke="none" points="58.25,-130.75 58.25,-150.25 108.5,-150.25 108.5,-130.75 58.25,-130.75"/>
<polygon fill="none" stroke="black" points="58.25,-130.75 58.25,-150.25 108.5,-150.25 108.5,-130.75 58.25,-130.75"/>
<text text-anchor="start" x="98" y="-136.8" font-family="Helvetica,sans-Serif" font-size="11.00"> &#160;</text>
<polygon fill="#ffffff" stroke="none" points="108.5,-130.75 108.5,-150.25 170.75,-150.25 170.75,-130.75 108.5,-130.75"/>
<polygon fill="none" stroke="black" points="108.5,-130.75 108.5,-150.25 170.75,-150.25 170.75,-130.75 108.5,-130.75"/>
<text text-anchor="start" x="148.25" y="-136.8" font-family="Helvetica,sans-Serif" font-size="11.00">8 &gt;</text>
</a>
</g>
</g>
<!-- doc_archive_collection&#45;&gt;doc_archive_item -->
<g id="edge1" class="edge">
<title>doc_archive_collection:w&#45;&gt;doc_archive_item:e</title>
<path fill="none" stroke="black" d="M205.17,-180.95C194.46,-180.88 187.23,-180.75 171.75,-180.75"/>
<polygon fill="black" stroke="black" points="212.42,-180.97 220.4,-184.6 216.75,-180.99 220.08,-181 220.08,-181 220.08,-181 216.75,-180.99 220.43,-177.4 212.42,-180.97"/>
<ellipse fill="none" stroke="black" cx="207.5" cy="-180.96" rx="3.2" ry="3.2"/>
</g>
</g>
</svg>
