<?xml version="1.0" encoding="UTF-8" standalone="no"?>
<!DOCTYPE svg PUBLIC "-//W3C//DTD SVG 1.1//EN"
 "http://www.w3.org/Graphics/SVG/1.1/DTD/svg11.dtd">
<!-- Generated by graphviz version 12.2.0 (0)
 -->
<!-- Title: oneDegreeRelationshipsDiagram Pages: 1 -->
<svg width="805pt" height="836pt"
 viewBox="0.00 0.00 804.50 836.00" xmlns="http://www.w3.org/2000/svg" xmlns:xlink="http://www.w3.org/1999/xlink">
<g id="graph0" class="graph" transform="scale(1 1) rotate(0) translate(4 832)">
<title>oneDegreeRelationshipsDiagram</title>
<polygon fill="#ffffff" stroke="none" points="-4,4 -4,-832 800.5,-832 800.5,4 -4,4"/>
<text text-anchor="middle" x="79.25" y="-7.05" font-family="Helvetica,sans-Serif" font-size="11.00">Generated by SchemaSpy</text>
<!-- doc_condreport -->
<g id="node1" class="node">
<title>doc_condreport</title>
<g id="a_node1"><a xlink:href="../../tables/doc_condreport.html" xlink:title="doc_condreport" target="_top">
<polygon fill="#ffffff" stroke="none" points="244,-275.25 244,-740.25 503.75,-740.25 503.75,-275.25 244,-275.25"/>
<polygon fill="#f5f5f5" stroke="none" points="246,-714.75 246,-738.25 501.75,-738.25 501.75,-714.75 246,-714.75"/>
<polygon fill="none" stroke="black" points="246,-714.75 246,-738.25 501.75,-738.25 501.75,-714.75 246,-714.75"/>
<text text-anchor="start" x="251" y="-723.8" font-family="Helvetica,sans-Serif" font-weight="bold" font-size="11.00">doc_condreport</text>
<text text-anchor="start" x="460" y="-722.8" font-family="Helvetica,sans-Serif" font-size="11.00">[table]</text>
<polygon fill="none" stroke="black" points="246,-692.75 246,-714.75 402,-714.75 402,-692.75 246,-692.75"/>
<image xlink:href="../../images/primaryKeys.png" width="11px" height="12px" preserveAspectRatio="xMinYMin meet" x="251" y="-709.75"/>
<text text-anchor="start" x="266" y="-699.3" font-family="Helvetica,sans-Serif" font-size="11.00">identifier</text>
<polygon fill="none" stroke="black" points="402,-692.75 402,-714.75 495.75,-714.75 495.75,-692.75 402,-692.75"/>
<text text-anchor="start" x="405" y="-700.05" font-family="Helvetica,sans-Serif" font-size="11.00">varchar[191]</text>
<polygon fill="none" stroke="black" points="246,-670.75 246,-692.75 402,-692.75 402,-670.75 246,-670.75"/>
<text text-anchor="start" x="266" y="-677.3" font-family="Helvetica,sans-Serif" font-size="11.00">lib_resp_name</text>
<polygon fill="none" stroke="black" points="402,-670.75 402,-692.75 495.75,-692.75 495.75,-670.75 402,-670.75"/>
<text text-anchor="start" x="405" y="-678.05" font-family="Helvetica,sans-Serif" font-size="11.00">varchar[255]</text>
<polygon fill="none" stroke="black" points="246,-648.75 246,-670.75 402,-670.75 402,-648.75 246,-648.75"/>
<text text-anchor="start" x="266" y="-655.3" font-family="Helvetica,sans-Serif" font-size="11.00">lib_resp_phone</text>
<polygon fill="none" stroke="black" points="402,-648.75 402,-670.75 495.75,-670.75 495.75,-648.75 402,-648.75"/>
<text text-anchor="start" x="405" y="-656.05" font-family="Helvetica,sans-Serif" font-size="11.00">varchar[255]</text>
<polygon fill="none" stroke="black" points="246,-626.75 246,-648.75 402,-648.75 402,-626.75 246,-626.75"/>
<text text-anchor="start" x="266" y="-633.3" font-family="Helvetica,sans-Serif" font-size="11.00">lib_resp_email</text>
<polygon fill="none" stroke="black" points="402,-626.75 402,-648.75 495.75,-648.75 495.75,-626.75 402,-626.75"/>
<text text-anchor="start" x="405" y="-634.05" font-family="Helvetica,sans-Serif" font-size="11.00">varchar[255]</text>
<polygon fill="none" stroke="black" points="246,-604.75 246,-626.75 402,-626.75 402,-604.75 246,-604.75"/>
<text text-anchor="start" x="266" y="-611.3" font-family="Helvetica,sans-Serif" font-size="11.00">leader_name</text>
<polygon fill="none" stroke="black" points="402,-604.75 402,-626.75 495.75,-626.75 495.75,-604.75 402,-604.75"/>
<text text-anchor="start" x="405" y="-612.05" font-family="Helvetica,sans-Serif" font-size="11.00">varchar[255]</text>
<polygon fill="none" stroke="black" points="246,-582.75 246,-604.75 402,-604.75 402,-582.75 246,-582.75"/>
<text text-anchor="start" x="266" y="-589.3" font-family="Helvetica,sans-Serif" font-size="11.00">leader_phone</text>
<polygon fill="none" stroke="black" points="402,-582.75 402,-604.75 495.75,-604.75 495.75,-582.75 402,-582.75"/>
<text text-anchor="start" x="405" y="-590.05" font-family="Helvetica,sans-Serif" font-size="11.00">varchar[255]</text>
<polygon fill="none" stroke="black" points="246,-560.75 246,-582.75 402,-582.75 402,-560.75 246,-560.75"/>
<text text-anchor="start" x="266" y="-567.3" font-family="Helvetica,sans-Serif" font-size="11.00">leader_email</text>
<polygon fill="none" stroke="black" points="402,-560.75 402,-582.75 495.75,-582.75 495.75,-560.75 402,-560.75"/>
<text text-anchor="start" x="405" y="-568.05" font-family="Helvetica,sans-Serif" font-size="11.00">varchar[255]</text>
<polygon fill="none" stroke="black" points="246,-538.75 246,-560.75 402,-560.75 402,-538.75 246,-538.75"/>
<text text-anchor="start" x="266" y="-545.3" font-family="Helvetica,sans-Serif" font-size="11.00">provider_name</text>
<polygon fill="none" stroke="black" points="402,-538.75 402,-560.75 495.75,-560.75 495.75,-538.75 402,-538.75"/>
<text text-anchor="start" x="405" y="-546.05" font-family="Helvetica,sans-Serif" font-size="11.00">varchar[255]</text>
<polygon fill="none" stroke="black" points="246,-516.75 246,-538.75 402,-538.75 402,-516.75 246,-516.75"/>
<text text-anchor="start" x="266" y="-523.3" font-family="Helvetica,sans-Serif" font-size="11.00">provider_phone</text>
<polygon fill="none" stroke="black" points="402,-516.75 402,-538.75 495.75,-538.75 495.75,-516.75 402,-516.75"/>
<text text-anchor="start" x="405" y="-524.05" font-family="Helvetica,sans-Serif" font-size="11.00">varchar[255]</text>
<polygon fill="none" stroke="black" points="246,-494.75 246,-516.75 402,-516.75 402,-494.75 246,-494.75"/>
<text text-anchor="start" x="266" y="-501.3" font-family="Helvetica,sans-Serif" font-size="11.00">provider_email</text>
<polygon fill="none" stroke="black" points="402,-494.75 402,-516.75 495.75,-516.75 495.75,-494.75 402,-494.75"/>
<text text-anchor="start" x="405" y="-502.05" font-family="Helvetica,sans-Serif" font-size="11.00">varchar[255]</text>
<polygon fill="none" stroke="black" points="246,-472.75 246,-494.75 402,-494.75 402,-472.75 246,-472.75"/>
<text text-anchor="start" x="266" y="-479.3" font-family="Helvetica,sans-Serif" font-size="11.00">prov_contact_name</text>
<polygon fill="none" stroke="black" points="402,-472.75 402,-494.75 495.75,-494.75 495.75,-472.75 402,-472.75"/>
<text text-anchor="start" x="405" y="-480.05" font-family="Helvetica,sans-Serif" font-size="11.00">varchar[255]</text>
<polygon fill="none" stroke="black" points="246,-450.75 246,-472.75 402,-472.75 402,-450.75 246,-450.75"/>
<text text-anchor="start" x="266" y="-457.3" font-family="Helvetica,sans-Serif" font-size="11.00">prov_contact_phone</text>
<polygon fill="none" stroke="black" points="402,-450.75 402,-472.75 495.75,-472.75 495.75,-450.75 402,-450.75"/>
<text text-anchor="start" x="405" y="-458.05" font-family="Helvetica,sans-Serif" font-size="11.00">varchar[255]</text>
<polygon fill="none" stroke="black" points="246,-428.75 246,-450.75 402,-450.75 402,-428.75 246,-428.75"/>
<text text-anchor="start" x="266" y="-435.3" font-family="Helvetica,sans-Serif" font-size="11.00">prov_contact_email</text>
<polygon fill="none" stroke="black" points="402,-428.75 402,-450.75 495.75,-450.75 495.75,-428.75 402,-428.75"/>
<text text-anchor="start" x="405" y="-436.05" font-family="Helvetica,sans-Serif" font-size="11.00">varchar[255]</text>
<polygon fill="#ffffff" stroke="none" points="246,-406.75 246,-428.75 402,-428.75 402,-406.75 246,-406.75"/>
<polygon fill="none" stroke="black" points="246,-406.75 246,-428.75 402,-428.75 402,-406.75 246,-406.75"/>
<image xlink:href="../../images/foreignKeys.png" width="11px" height="12px" preserveAspectRatio="xMinYMin meet" x="251" y="-423.75"/>
<text text-anchor="start" x="266" y="-413.3" font-family="Helvetica,sans-Serif" font-size="11.00">doc_unit</text>
<polygon fill="none" stroke="black" points="402,-406.75 402,-428.75 495.75,-428.75 495.75,-406.75 402,-406.75"/>
<text text-anchor="start" x="405" y="-414.05" font-family="Helvetica,sans-Serif" font-size="11.00">varchar[191]</text>
<polygon fill="none" stroke="black" points="246,-384.75 246,-406.75 402,-406.75 402,-384.75 246,-384.75"/>
<text text-anchor="start" x="266" y="-391.3" font-family="Helvetica,sans-Serif" font-size="11.00">version</text>
<polygon fill="none" stroke="black" points="402,-384.75 402,-406.75 495.75,-406.75 495.75,-384.75 402,-384.75"/>
<text text-anchor="start" x="405" y="-392.05" font-family="Helvetica,sans-Serif" font-size="11.00">bigint[19]</text>
<polygon fill="none" stroke="black" points="246,-362.75 246,-384.75 402,-384.75 402,-362.75 246,-362.75"/>
<text text-anchor="start" x="266" y="-369.3" font-family="Helvetica,sans-Serif" font-size="11.00">created_by</text>
<polygon fill="none" stroke="black" points="402,-362.75 402,-384.75 495.75,-384.75 495.75,-362.75 402,-362.75"/>
<text text-anchor="start" x="405" y="-370.05" font-family="Helvetica,sans-Serif" font-size="11.00">varchar[191]</text>
<polygon fill="none" stroke="black" points="246,-340.75 246,-362.75 402,-362.75 402,-340.75 246,-340.75"/>
<text text-anchor="start" x="266" y="-347.3" font-family="Helvetica,sans-Serif" font-size="11.00">last_modified_by</text>
<polygon fill="none" stroke="black" points="402,-340.75 402,-362.75 495.75,-362.75 495.75,-340.75 402,-340.75"/>
<text text-anchor="start" x="405" y="-348.05" font-family="Helvetica,sans-Serif" font-size="11.00">varchar[191]</text>
<polygon fill="none" stroke="black" points="246,-318.75 246,-340.75 402,-340.75 402,-318.75 246,-318.75"/>
<text text-anchor="start" x="266" y="-325.3" font-family="Helvetica,sans-Serif" font-size="11.00">created_date</text>
<polygon fill="none" stroke="black" points="402,-318.75 402,-340.75 495.75,-340.75 495.75,-318.75 402,-318.75"/>
<text text-anchor="start" x="405" y="-326.05" font-family="Helvetica,sans-Serif" font-size="11.00">timestamp[19]</text>
<polygon fill="none" stroke="black" points="246,-296.75 246,-318.75 402,-318.75 402,-296.75 246,-296.75"/>
<text text-anchor="start" x="266" y="-303.3" font-family="Helvetica,sans-Serif" font-size="11.00">last_modified_date</text>
<polygon fill="none" stroke="black" points="402,-296.75 402,-318.75 495.75,-318.75 495.75,-296.75 402,-296.75"/>
<text text-anchor="start" x="405" y="-304.05" font-family="Helvetica,sans-Serif" font-size="11.00">timestamp[19]</text>
<polygon fill="#ffffff" stroke="none" points="246,-277.25 246,-296.75 330,-296.75 330,-277.25 246,-277.25"/>
<polygon fill="none" stroke="black" points="246,-277.25 246,-296.75 330,-296.75 330,-277.25 246,-277.25"/>
<text text-anchor="start" x="249" y="-283.3" font-family="Helvetica,sans-Serif" font-size="11.00">&lt; 1</text>
<polygon fill="#ffffff" stroke="none" points="330,-277.25 330,-296.75 402,-296.75 402,-277.25 330,-277.25"/>
<polygon fill="none" stroke="black" points="330,-277.25 330,-296.75 402,-296.75 402,-277.25 330,-277.25"/>
<text text-anchor="start" x="391.5" y="-283.3" font-family="Helvetica,sans-Serif" font-size="11.00"> &#160;</text>
<polygon fill="#ffffff" stroke="none" points="402,-277.25 402,-296.75 495.75,-296.75 495.75,-277.25 402,-277.25"/>
<polygon fill="none" stroke="black" points="402,-277.25 402,-296.75 495.75,-296.75 495.75,-277.25 402,-277.25"/>
<text text-anchor="start" x="473.25" y="-283.3" font-family="Helvetica,sans-Serif" font-size="11.00">2 &gt;</text>
<polygon fill="none" stroke="black" stroke-width="2" points="245,-276.25 245,-739.25 502.75,-739.25 502.75,-276.25 245,-276.25"/>
</a>
</g>
</g>
<!-- doc_unit -->
<g id="node2" class="node">
<title>doc_unit</title>
<g id="a_node2"><a xlink:href="../../tables/doc_unit.html" xlink:title="doc_unit" target="_top">
<polygon fill="#ffffff" stroke="none" points="8,-38.5 8,-453 195,-453 195,-38.5 8,-38.5"/>
<polygon fill="#f5f5f5" stroke="none" points="8,-429.5 8,-453 195,-453 195,-429.5 8,-429.5"/>
<polygon fill="none" stroke="black" points="8,-429.5 8,-453 195,-453 195,-429.5 8,-429.5"/>
<text text-anchor="start" x="13" y="-438.55" font-family="Helvetica,sans-Serif" font-weight="bold" font-size="11.00">doc_unit</text>
<text text-anchor="start" x="153.25" y="-437.55" font-family="Helvetica,sans-Serif" font-size="11.00">[table]</text>
<polygon fill="none" stroke="black" points="8,-407.5 8,-429.5 195,-429.5 195,-407.5 8,-407.5"/>
<image xlink:href="../../images/primaryKeys.png" width="11px" height="12px" preserveAspectRatio="xMinYMin meet" x="13" y="-424.5"/>
<text text-anchor="start" x="28" y="-414.05" font-family="Helvetica,sans-Serif" font-size="11.00">identifier</text>
<polygon fill="#ffffff" stroke="none" points="8,-385.5 8,-407.5 195,-407.5 195,-385.5 8,-385.5"/>
<polygon fill="none" stroke="black" points="8,-385.5 8,-407.5 195,-407.5 195,-385.5 8,-385.5"/>
<text text-anchor="start" x="28" y="-392.05" font-family="Helvetica,sans-Serif" font-size="11.00">pgcn_id</text>
<polygon fill="#ffffff" stroke="none" points="8,-363.5 8,-385.5 195,-385.5 195,-363.5 8,-363.5"/>
<polygon fill="none" stroke="black" points="8,-363.5 8,-385.5 195,-385.5 195,-363.5 8,-363.5"/>
<image xlink:href="../../images/foreignKeys.png" width="11px" height="12px" preserveAspectRatio="xMinYMin meet" x="13" y="-380.5"/>
<text text-anchor="start" x="28" y="-370.05" font-family="Helvetica,sans-Serif" font-size="11.00">library</text>
<polygon fill="#ffffff" stroke="none" points="8,-341.5 8,-363.5 195,-363.5 195,-341.5 8,-341.5"/>
<polygon fill="none" stroke="black" points="8,-341.5 8,-363.5 195,-363.5 195,-341.5 8,-341.5"/>
<image xlink:href="../../images/foreignKeys.png" width="11px" height="12px" preserveAspectRatio="xMinYMin meet" x="13" y="-358.5"/>
<text text-anchor="start" x="28" y="-348.05" font-family="Helvetica,sans-Serif" font-size="11.00">project</text>
<polygon fill="#ffffff" stroke="none" points="8,-319.5 8,-341.5 195,-341.5 195,-319.5 8,-319.5"/>
<polygon fill="none" stroke="black" points="8,-319.5 8,-341.5 195,-341.5 195,-319.5 8,-319.5"/>
<text text-anchor="start" x="28" y="-326.05" font-family="Helvetica,sans-Serif" font-size="11.00">state</text>
<polygon fill="#ffffff" stroke="none" points="8,-297.5 8,-319.5 195,-319.5 195,-297.5 8,-297.5"/>
<polygon fill="none" stroke="black" points="8,-297.5 8,-319.5 195,-319.5 195,-297.5 8,-297.5"/>
<image xlink:href="../../images/foreignKeys.png" width="11px" height="12px" preserveAspectRatio="xMinYMin meet" x="13" y="-314.5"/>
<text text-anchor="start" x="28" y="-304.05" font-family="Helvetica,sans-Serif" font-size="11.00">lot</text>
<polygon fill="#ffffff" stroke="none" points="8,-275.5 8,-297.5 195,-297.5 195,-275.5 8,-275.5"/>
<polygon fill="none" stroke="black" points="8,-275.5 8,-297.5 195,-297.5 195,-275.5 8,-275.5"/>
<image xlink:href="../../images/foreignKeys.png" width="11px" height="12px" preserveAspectRatio="xMinYMin meet" x="13" y="-292.5"/>
<text text-anchor="start" x="28" y="-282.05" font-family="Helvetica,sans-Serif" font-size="11.00">collection_omeka</text>
<polygon fill="#ffffff" stroke="none" points="8,-253.5 8,-275.5 195,-275.5 195,-253.5 8,-253.5"/>
<polygon fill="none" stroke="black" points="8,-253.5 8,-275.5 195,-275.5 195,-253.5 8,-253.5"/>
<image xlink:href="../../images/foreignKeys.png" width="11px" height="12px" preserveAspectRatio="xMinYMin meet" x="13" y="-270.5"/>
<text text-anchor="start" x="28" y="-260.05" font-family="Helvetica,sans-Serif" font-size="11.00">items_omeka</text>
<polygon fill="#ffffff" stroke="none" points="8,-231.5 8,-253.5 195,-253.5 195,-231.5 8,-231.5"/>
<polygon fill="none" stroke="black" points="8,-231.5 8,-253.5 195,-253.5 195,-231.5 8,-231.5"/>
<image xlink:href="../../images/foreignKeys.png" width="11px" height="12px" preserveAspectRatio="xMinYMin meet" x="13" y="-248.5"/>
<text text-anchor="start" x="28" y="-238.05" font-family="Helvetica,sans-Serif" font-size="11.00">parent</text>
<polygon fill="#ffffff" stroke="none" points="8,-209.5 8,-231.5 195,-231.5 195,-209.5 8,-209.5"/>
<polygon fill="none" stroke="black" points="8,-209.5 8,-231.5 195,-231.5 195,-209.5 8,-209.5"/>
<image xlink:href="../../images/foreignKeys.png" width="11px" height="12px" preserveAspectRatio="xMinYMin meet" x="13" y="-226.5"/>
<text text-anchor="start" x="28" y="-216.05" font-family="Helvetica,sans-Serif" font-size="11.00">active_ocr_lang</text>
<polygon fill="#ffffff" stroke="none" points="8,-187.5 8,-209.5 195,-209.5 195,-187.5 8,-187.5"/>
<polygon fill="none" stroke="black" points="8,-187.5 8,-209.5 195,-209.5 195,-187.5 8,-187.5"/>
<image xlink:href="../../images/foreignKeys.png" width="11px" height="12px" preserveAspectRatio="xMinYMin meet" x="13" y="-204.5"/>
<text text-anchor="start" x="28" y="-194.05" font-family="Helvetica,sans-Serif" font-size="11.00">collection_ia</text>
<polygon fill="#ffffff" stroke="none" points="8,-165.5 8,-187.5 195,-187.5 195,-165.5 8,-165.5"/>
<polygon fill="none" stroke="black" points="8,-165.5 8,-187.5 195,-187.5 195,-165.5 8,-165.5"/>
<image xlink:href="../../images/foreignKeys.png" width="11px" height="12px" preserveAspectRatio="xMinYMin meet" x="13" y="-182.5"/>
<text text-anchor="start" x="28" y="-172.05" font-family="Helvetica,sans-Serif" font-size="11.00">classement_pac</text>
<polygon fill="#ffffff" stroke="none" points="8,-143.5 8,-165.5 195,-165.5 195,-143.5 8,-143.5"/>
<polygon fill="none" stroke="black" points="8,-143.5 8,-165.5 195,-165.5 195,-143.5 8,-143.5"/>
<image xlink:href="../../images/foreignKeys.png" width="11px" height="12px" preserveAspectRatio="xMinYMin meet" x="13" y="-160.5"/>
<text text-anchor="start" x="28" y="-150.05" font-family="Helvetica,sans-Serif" font-size="11.00">sibling</text>
<polygon fill="#ffffff" stroke="none" points="8,-121.5 8,-143.5 195,-143.5 195,-121.5 8,-121.5"/>
<polygon fill="none" stroke="black" points="8,-121.5 8,-143.5 195,-143.5 195,-121.5 8,-121.5"/>
<image xlink:href="../../images/foreignKeys.png" width="11px" height="12px" preserveAspectRatio="xMinYMin meet" x="13" y="-138.5"/>
<text text-anchor="start" x="28" y="-128.05" font-family="Helvetica,sans-Serif" font-size="11.00">export_data</text>
<polygon fill="#ffffff" stroke="none" points="8,-99.5 8,-121.5 195,-121.5 195,-99.5 8,-99.5"/>
<polygon fill="none" stroke="black" points="8,-99.5 8,-121.5 195,-121.5 195,-99.5 8,-99.5"/>
<image xlink:href="../../images/foreignKeys.png" width="11px" height="12px" preserveAspectRatio="xMinYMin meet" x="13" y="-116.5"/>
<text text-anchor="start" x="28" y="-106.05" font-family="Helvetica,sans-Serif" font-size="11.00">archive_item</text>
<polygon fill="#ffffff" stroke="none" points="8,-77.5 8,-99.5 195,-99.5 195,-77.5 8,-77.5"/>
<polygon fill="none" stroke="black" points="8,-77.5 8,-99.5 195,-99.5 195,-77.5 8,-77.5"/>
<image xlink:href="../../images/foreignKeys.png" width="11px" height="12px" preserveAspectRatio="xMinYMin meet" x="13" y="-94.5"/>
<text text-anchor="start" x="28" y="-84.05" font-family="Helvetica,sans-Serif" font-size="11.00">workflow</text>
<polygon fill="none" stroke="black" points="8,-58 8,-77.5 195,-77.5 195,-58 8,-58"/>
<text text-anchor="start" x="11" y="-64.05" font-family="Helvetica,sans-Serif" font-size="11.00">...</text>
<polygon fill="#ffffff" stroke="none" points="8,-38.5 8,-58 76.58,-58 76.58,-38.5 8,-38.5"/>
<polygon fill="none" stroke="black" points="8,-38.5 8,-58 76.58,-58 76.58,-38.5 8,-38.5"/>
<text text-anchor="start" x="11" y="-44.55" font-family="Helvetica,sans-Serif" font-size="11.00">&lt; 13</text>
<polygon fill="#ffffff" stroke="none" points="76.58,-38.5 76.58,-58 126.42,-58 126.42,-38.5 76.58,-38.5"/>
<polygon fill="none" stroke="black" points="76.58,-38.5 76.58,-58 126.42,-58 126.42,-38.5 76.58,-38.5"/>
<text text-anchor="start" x="115.92" y="-44.55" font-family="Helvetica,sans-Serif" font-size="11.00"> &#160;</text>
<polygon fill="#ffffff" stroke="none" points="126.42,-38.5 126.42,-58 195,-58 195,-38.5 126.42,-38.5"/>
<polygon fill="none" stroke="black" points="126.42,-38.5 126.42,-58 195,-58 195,-38.5 126.42,-38.5"/>
<text text-anchor="start" x="165.75" y="-44.55" font-family="Helvetica,sans-Serif" font-size="11.00">11 &gt;</text>
</a>
</g>
</g>
<!-- doc_condreport&#45;&gt;doc_unit -->
<g id="edge1" class="edge">
<title>doc_condreport:w&#45;&gt;doc_unit:e</title>
<path fill="none" stroke="black" d="M229.42,-417.9C218.71,-418.12 211.48,-418.5 196,-418.5"/>
<polygon fill="black" stroke="black" points="236.67,-417.83 244.7,-421.35 241,-417.79 244.33,-417.76 244.33,-417.76 244.33,-417.76 241,-417.79 244.63,-414.15 236.67,-417.83"/>
<ellipse fill="none" stroke="black" cx="231.75" cy="-417.88" rx="3.2" ry="3.2"/>
</g>
<!-- doc_condreport_attachment -->
<g id="node3" class="node">
<title>doc_condreport_attachment</title>
<g id="a_node3"><a xlink:href="../../tables/doc_condreport_attachment.html" xlink:title="doc_condreport_attachment" target="_top">
<polygon fill="#ffffff" stroke="none" points="552.75,-717.5 552.75,-824 788.5,-824 788.5,-717.5 552.75,-717.5"/>
<polygon fill="#f5f5f5" stroke="none" points="552.75,-800.5 552.75,-824 788.5,-824 788.5,-800.5 552.75,-800.5"/>
<polygon fill="none" stroke="black" points="552.75,-800.5 552.75,-824 788.5,-824 788.5,-800.5 552.75,-800.5"/>
<text text-anchor="start" x="557.75" y="-809.55" font-family="Helvetica,sans-Serif" font-weight="bold" font-size="11.00">doc_condreport_attachment</text>
<text text-anchor="start" x="746.75" y="-808.55" font-family="Helvetica,sans-Serif" font-size="11.00">[table]</text>
<polygon fill="none" stroke="black" points="552.75,-778.5 552.75,-800.5 788.5,-800.5 788.5,-778.5 552.75,-778.5"/>
<image xlink:href="../../images/primaryKeys.png" width="11px" height="12px" preserveAspectRatio="xMinYMin meet" x="557.75" y="-795.5"/>
<text text-anchor="start" x="585.62" y="-785.05" font-family="Helvetica,sans-Serif" font-size="11.00">identifier</text>
<polygon fill="#ffffff" stroke="none" points="552.75,-756.5 552.75,-778.5 788.5,-778.5 788.5,-756.5 552.75,-756.5"/>
<polygon fill="none" stroke="black" points="552.75,-756.5 552.75,-778.5 788.5,-778.5 788.5,-756.5 552.75,-756.5"/>
<image xlink:href="../../images/foreignKeys.png" width="11px" height="12px" preserveAspectRatio="xMinYMin meet" x="557.75" y="-773.5"/>
<text text-anchor="start" x="585.62" y="-763.05" font-family="Helvetica,sans-Serif" font-size="11.00">report</text>
<polygon fill="none" stroke="black" points="552.75,-737 552.75,-756.5 788.5,-756.5 788.5,-737 552.75,-737"/>
<text text-anchor="start" x="555.75" y="-743.05" font-family="Helvetica,sans-Serif" font-size="11.00">...</text>
<polygon fill="#ffffff" stroke="none" points="552.75,-717.5 552.75,-737 639.33,-737 639.33,-717.5 552.75,-717.5"/>
<polygon fill="none" stroke="black" points="552.75,-717.5 552.75,-737 639.33,-737 639.33,-717.5 552.75,-717.5"/>
<text text-anchor="start" x="555.75" y="-723.55" font-family="Helvetica,sans-Serif" font-size="11.00">&lt; 1</text>
<polygon fill="#ffffff" stroke="none" points="639.33,-717.5 639.33,-737 713.92,-737 713.92,-717.5 639.33,-717.5"/>
<polygon fill="none" stroke="black" points="639.33,-717.5 639.33,-737 713.92,-737 713.92,-717.5 639.33,-717.5"/>
<text text-anchor="start" x="703.42" y="-723.55" font-family="Helvetica,sans-Serif" font-size="11.00"> &#160;</text>
<polygon fill="#ffffff" stroke="none" points="713.92,-717.5 713.92,-737 788.5,-737 788.5,-717.5 713.92,-717.5"/>
<polygon fill="none" stroke="black" points="713.92,-717.5 713.92,-737 788.5,-737 788.5,-717.5 713.92,-717.5"/>
<text text-anchor="start" x="778" y="-723.55" font-family="Helvetica,sans-Serif" font-size="11.00"> &#160;</text>
</a>
</g>
</g>
<!-- doc_condreport_attachment&#45;&gt;doc_condreport -->
<g id="edge2" class="edge">
<title>doc_condreport_attachment:w&#45;&gt;doc_condreport:e</title>
<path fill="none" stroke="black" d="M536.95,-762.5C519.46,-747.47 527.74,-703.75 496.75,-703.75"/>
<polygon fill="black" stroke="black" points="543.85,-764.83 550.28,-770.8 547.96,-766.22 551.12,-767.29 551.12,-767.29 551.12,-767.29 547.96,-766.22 552.59,-763.98 543.85,-764.83"/>
<ellipse fill="none" stroke="black" cx="539.19" cy="-763.26" rx="3.2" ry="3.2"/>
</g>
<!-- doc_condreport_detail -->
<g id="node4" class="node">
<title>doc_condreport_detail</title>
<g id="a_node4"><a xlink:href="../../tables/doc_condreport_detail.html" xlink:title="doc_condreport_detail" target="_top">
<polygon fill="#ffffff" stroke="none" points="572.75,-589.5 572.75,-696 768.5,-696 768.5,-589.5 572.75,-589.5"/>
<polygon fill="#f5f5f5" stroke="none" points="572.75,-672.5 572.75,-696 768.5,-696 768.5,-672.5 572.75,-672.5"/>
<polygon fill="none" stroke="black" points="572.75,-672.5 572.75,-696 768.5,-696 768.5,-672.5 572.75,-672.5"/>
<text text-anchor="start" x="577.75" y="-681.55" font-family="Helvetica,sans-Serif" font-weight="bold" font-size="11.00">doc_condreport_detail</text>
<text text-anchor="start" x="726.75" y="-680.55" font-family="Helvetica,sans-Serif" font-size="11.00">[table]</text>
<polygon fill="none" stroke="black" points="572.75,-650.5 572.75,-672.5 768.5,-672.5 768.5,-650.5 572.75,-650.5"/>
<image xlink:href="../../images/primaryKeys.png" width="11px" height="12px" preserveAspectRatio="xMinYMin meet" x="577.75" y="-667.5"/>
<text text-anchor="start" x="605.62" y="-657.05" font-family="Helvetica,sans-Serif" font-size="11.00">identifier</text>
<polygon fill="#ffffff" stroke="none" points="572.75,-628.5 572.75,-650.5 768.5,-650.5 768.5,-628.5 572.75,-628.5"/>
<polygon fill="none" stroke="black" points="572.75,-628.5 572.75,-650.5 768.5,-650.5 768.5,-628.5 572.75,-628.5"/>
<image xlink:href="../../images/foreignKeys.png" width="11px" height="12px" preserveAspectRatio="xMinYMin meet" x="577.75" y="-645.5"/>
<text text-anchor="start" x="605.62" y="-635.05" font-family="Helvetica,sans-Serif" font-size="11.00">report</text>
<polygon fill="none" stroke="black" points="572.75,-609 572.75,-628.5 768.5,-628.5 768.5,-609 572.75,-609"/>
<text text-anchor="start" x="575.75" y="-615.05" font-family="Helvetica,sans-Serif" font-size="11.00">...</text>
<polygon fill="#ffffff" stroke="none" points="572.75,-589.5 572.75,-609 642,-609 642,-589.5 572.75,-589.5"/>
<polygon fill="none" stroke="black" points="572.75,-589.5 572.75,-609 642,-609 642,-589.5 572.75,-589.5"/>
<text text-anchor="start" x="575.75" y="-595.55" font-family="Helvetica,sans-Serif" font-size="11.00">&lt; 1</text>
<polygon fill="#ffffff" stroke="none" points="642,-589.5 642,-609 699.25,-609 699.25,-589.5 642,-589.5"/>
<polygon fill="none" stroke="black" points="642,-589.5 642,-609 699.25,-609 699.25,-589.5 642,-589.5"/>
<text text-anchor="start" x="688.75" y="-595.55" font-family="Helvetica,sans-Serif" font-size="11.00"> &#160;</text>
<polygon fill="#ffffff" stroke="none" points="699.25,-589.5 699.25,-609 768.5,-609 768.5,-589.5 699.25,-589.5"/>
<polygon fill="none" stroke="black" points="699.25,-589.5 699.25,-609 768.5,-609 768.5,-589.5 699.25,-589.5"/>
<text text-anchor="start" x="746" y="-595.55" font-family="Helvetica,sans-Serif" font-size="11.00">1 &gt;</text>
</a>
</g>
</g>
<!-- doc_condreport_detail&#45;&gt;doc_condreport -->
<g id="edge3" class="edge">
<title>doc_condreport_detail:w&#45;&gt;doc_condreport:e</title>
<path fill="none" stroke="black" d="M556.64,-642.77C530.29,-655.87 534.64,-703.75 496.75,-703.75"/>
<polygon fill="black" stroke="black" points="563.6,-641.26 572.19,-643.09 567.84,-640.35 571.1,-639.64 571.1,-639.64 571.1,-639.64 567.84,-640.35 570.66,-636.05 563.6,-641.26"/>
<ellipse fill="none" stroke="black" cx="558.8" cy="-642.31" rx="3.2" ry="3.2"/>
</g>
</g>
</svg>
