<?xml version="1.0" encoding="UTF-8" standalone="no"?>
<!DOCTYPE svg PUBLIC "-//W3C//DTD SVG 1.1//EN"
 "http://www.w3.org/Graphics/SVG/1.1/DTD/svg11.dtd">
<!-- Generated by graphviz version 12.2.0 (0)
 -->
<!-- Title: twoDegreesRelationshipsDiagram Pages: 1 -->
<svg width="529pt" height="861pt"
 viewBox="0.00 0.00 529.00 861.00" xmlns="http://www.w3.org/2000/svg" xmlns:xlink="http://www.w3.org/1999/xlink">
<g id="graph0" class="graph" transform="scale(1 1) rotate(0) translate(4 857)">
<title>twoDegreesRelationshipsDiagram</title>
<polygon fill="#ffffff" stroke="none" points="-4,4 -4,-857 525,-857 525,4 -4,4"/>
<text text-anchor="middle" x="79.25" y="-7.05" font-family="Helvetica,sans-Serif" font-size="11.00">Generated by SchemaSpy</text>
<!-- doc_archive_collection -->
<g id="node1" class="node">
<title>doc_archive_collection</title>
<g id="a_node1"><a xlink:href="../../tables/doc_archive_collection.html" xlink:title="doc_archive_collection" target="_top">
<polygon fill="#ffffff" stroke="none" points="267.5,-786.5 267.5,-849 465.25,-849 465.25,-786.5 267.5,-786.5"/>
<polygon fill="#f5f5f5" stroke="none" points="267.5,-825.5 267.5,-849 465.25,-849 465.25,-825.5 267.5,-825.5"/>
<polygon fill="none" stroke="black" points="267.5,-825.5 267.5,-849 465.25,-849 465.25,-825.5 267.5,-825.5"/>
<text text-anchor="start" x="272.5" y="-834.55" font-family="Helvetica,sans-Serif" font-weight="bold" font-size="11.00">doc_archive_collection</text>
<text text-anchor="start" x="423.5" y="-833.55" font-family="Helvetica,sans-Serif" font-size="11.00">[table]</text>
<polygon fill="none" stroke="black" points="267.5,-806 267.5,-825.5 465.25,-825.5 465.25,-806 267.5,-806"/>
<text text-anchor="start" x="270.5" y="-812.05" font-family="Helvetica,sans-Serif" font-size="11.00">...</text>
<polygon fill="#ffffff" stroke="none" points="267.5,-786.5 267.5,-806 341.42,-806 341.42,-786.5 267.5,-786.5"/>
<polygon fill="none" stroke="black" points="267.5,-786.5 267.5,-806 341.42,-806 341.42,-786.5 267.5,-786.5"/>
<text text-anchor="start" x="270.5" y="-792.55" font-family="Helvetica,sans-Serif" font-size="11.00">&lt; 1</text>
<polygon fill="#ffffff" stroke="none" points="341.42,-786.5 341.42,-806 403.33,-806 403.33,-786.5 341.42,-786.5"/>
<polygon fill="none" stroke="black" points="341.42,-786.5 341.42,-806 403.33,-806 403.33,-786.5 341.42,-786.5"/>
<text text-anchor="start" x="392.83" y="-792.55" font-family="Helvetica,sans-Serif" font-size="11.00"> &#160;</text>
<polygon fill="#ffffff" stroke="none" points="403.33,-786.5 403.33,-806 465.25,-806 465.25,-786.5 403.33,-786.5"/>
<polygon fill="none" stroke="black" points="403.33,-786.5 403.33,-806 465.25,-806 465.25,-786.5 403.33,-786.5"/>
<text text-anchor="start" x="454.75" y="-792.55" font-family="Helvetica,sans-Serif" font-size="11.00"> &#160;</text>
</a>
</g>
</g>
<!-- doc_archive_item -->
<g id="node2" class="node">
<title>doc_archive_item</title>
<g id="a_node2"><a xlink:href="../../tables/doc_archive_item.html" xlink:title="doc_archive_item" target="_top">
<polygon fill="#ffffff" stroke="none" points="8,-312.5 8,-397 170.75,-397 170.75,-312.5 8,-312.5"/>
<polygon fill="#f5f5f5" stroke="none" points="8,-373.5 8,-397 170.75,-397 170.75,-373.5 8,-373.5"/>
<polygon fill="none" stroke="black" points="8,-373.5 8,-397 170.75,-397 170.75,-373.5 8,-373.5"/>
<text text-anchor="start" x="13" y="-382.55" font-family="Helvetica,sans-Serif" font-weight="bold" font-size="11.00">doc_archive_item</text>
<text text-anchor="start" x="129" y="-381.55" font-family="Helvetica,sans-Serif" font-size="11.00">[table]</text>
<polygon fill="none" stroke="black" points="8,-351.5 8,-373.5 170.75,-373.5 170.75,-351.5 8,-351.5"/>
<image xlink:href="../../images/primaryKeys.png" width="11px" height="12px" preserveAspectRatio="xMinYMin meet" x="13" y="-368.5"/>
<text text-anchor="start" x="35.38" y="-358.05" font-family="Helvetica,sans-Serif" font-size="11.00">identifier</text>
<polygon fill="none" stroke="black" points="8,-332 8,-351.5 170.75,-351.5 170.75,-332 8,-332"/>
<text text-anchor="start" x="11" y="-338.05" font-family="Helvetica,sans-Serif" font-size="11.00">...</text>
<polygon fill="#ffffff" stroke="none" points="8,-312.5 8,-332 58.25,-332 58.25,-312.5 8,-312.5"/>
<polygon fill="none" stroke="black" points="8,-312.5 8,-332 58.25,-332 58.25,-312.5 8,-312.5"/>
<text text-anchor="start" x="11" y="-318.55" font-family="Helvetica,sans-Serif" font-size="11.00"> &#160;</text>
<polygon fill="#ffffff" stroke="none" points="58.25,-312.5 58.25,-332 108.5,-332 108.5,-312.5 58.25,-312.5"/>
<polygon fill="none" stroke="black" points="58.25,-312.5 58.25,-332 108.5,-332 108.5,-312.5 58.25,-312.5"/>
<text text-anchor="start" x="98" y="-318.55" font-family="Helvetica,sans-Serif" font-size="11.00"> &#160;</text>
<polygon fill="#ffffff" stroke="none" points="108.5,-312.5 108.5,-332 170.75,-332 170.75,-312.5 108.5,-312.5"/>
<polygon fill="none" stroke="black" points="108.5,-312.5 108.5,-332 170.75,-332 170.75,-312.5 108.5,-312.5"/>
<text text-anchor="start" x="148.25" y="-318.55" font-family="Helvetica,sans-Serif" font-size="11.00">8 &gt;</text>
</a>
</g>
</g>
<!-- doc_archive_collection&#45;&gt;doc_archive_item -->
<g id="edge1" class="edge">
<title>doc_archive_collection:w&#45;&gt;doc_archive_item:e</title>
<path fill="none" stroke="black" d="M250.99,-814.18C232.38,-809.88 223.76,-796.82 211.75,-775.75 188.9,-735.67 217.88,-362.5 171.75,-362.5"/>
<polygon fill="black" stroke="black" points="258.21,-814.91 265.8,-819.3 262.52,-815.35 265.83,-815.68 265.83,-815.68 265.83,-815.68 262.52,-815.35 266.53,-812.13 258.21,-814.91"/>
<ellipse fill="none" stroke="black" cx="253.31" cy="-814.41" rx="3.2" ry="3.2"/>
</g>
<!-- doc_archive_contributor -->
<g id="node3" class="node">
<title>doc_archive_contributor</title>
<g id="a_node3"><a xlink:href="../../tables/doc_archive_contributor.html" xlink:title="doc_archive_contributor" target="_top">
<polygon fill="#ffffff" stroke="none" points="262,-702.5 262,-765 470.75,-765 470.75,-702.5 262,-702.5"/>
<polygon fill="#f5f5f5" stroke="none" points="262,-741.5 262,-765 470.75,-765 470.75,-741.5 262,-741.5"/>
<polygon fill="none" stroke="black" points="262,-741.5 262,-765 470.75,-765 470.75,-741.5 262,-741.5"/>
<text text-anchor="start" x="267" y="-750.55" font-family="Helvetica,sans-Serif" font-weight="bold" font-size="11.00">doc_archive_contributor</text>
<text text-anchor="start" x="429" y="-749.55" font-family="Helvetica,sans-Serif" font-size="11.00">[table]</text>
<polygon fill="none" stroke="black" points="262,-722 262,-741.5 470.75,-741.5 470.75,-722 262,-722"/>
<text text-anchor="start" x="265" y="-728.05" font-family="Helvetica,sans-Serif" font-size="11.00">...</text>
<polygon fill="#ffffff" stroke="none" points="262,-702.5 262,-722 339.58,-722 339.58,-702.5 262,-702.5"/>
<polygon fill="none" stroke="black" points="262,-702.5 262,-722 339.58,-722 339.58,-702.5 262,-702.5"/>
<text text-anchor="start" x="265" y="-708.55" font-family="Helvetica,sans-Serif" font-size="11.00">&lt; 1</text>
<polygon fill="#ffffff" stroke="none" points="339.58,-702.5 339.58,-722 405.17,-722 405.17,-702.5 339.58,-702.5"/>
<polygon fill="none" stroke="black" points="339.58,-702.5 339.58,-722 405.17,-722 405.17,-702.5 339.58,-702.5"/>
<text text-anchor="start" x="394.67" y="-708.55" font-family="Helvetica,sans-Serif" font-size="11.00"> &#160;</text>
<polygon fill="#ffffff" stroke="none" points="405.17,-702.5 405.17,-722 470.75,-722 470.75,-702.5 405.17,-702.5"/>
<polygon fill="none" stroke="black" points="405.17,-702.5 405.17,-722 470.75,-722 470.75,-702.5 405.17,-702.5"/>
<text text-anchor="start" x="460.25" y="-708.55" font-family="Helvetica,sans-Serif" font-size="11.00"> &#160;</text>
</a>
</g>
</g>
<!-- doc_archive_contributor&#45;&gt;doc_archive_item -->
<g id="edge2" class="edge">
<title>doc_archive_contributor:w&#45;&gt;doc_archive_item:e</title>
<path fill="none" stroke="black" d="M245.68,-729.76C229.4,-724.87 222.51,-711.23 211.75,-691.75 176.11,-627.24 245.45,-362.5 171.75,-362.5"/>
<polygon fill="black" stroke="black" points="252.73,-730.68 260.2,-735.28 257.03,-731.24 260.34,-731.66 260.34,-731.66 260.34,-731.66 257.03,-731.24 261.13,-728.14 252.73,-730.68"/>
<ellipse fill="none" stroke="black" cx="247.86" cy="-730.04" rx="3.2" ry="3.2"/>
</g>
<!-- doc_archive_coverage -->
<g id="node4" class="node">
<title>doc_archive_coverage</title>
<g id="a_node4"><a xlink:href="../../tables/doc_archive_coverage.html" xlink:title="doc_archive_coverage" target="_top">
<polygon fill="#ffffff" stroke="none" points="219.75,-458.25 219.75,-681.25 513,-681.25 513,-458.25 219.75,-458.25"/>
<polygon fill="#f5f5f5" stroke="none" points="221.75,-655.75 221.75,-679.25 511,-679.25 511,-655.75 221.75,-655.75"/>
<polygon fill="none" stroke="black" points="221.75,-655.75 221.75,-679.25 511,-679.25 511,-655.75 221.75,-655.75"/>
<text text-anchor="start" x="226.75" y="-664.8" font-family="Helvetica,sans-Serif" font-weight="bold" font-size="11.00">doc_archive_coverage</text>
<text text-anchor="start" x="469.25" y="-663.8" font-family="Helvetica,sans-Serif" font-size="11.00">[table]</text>
<polygon fill="none" stroke="black" points="221.75,-633.75 221.75,-655.75 389.75,-655.75 389.75,-633.75 221.75,-633.75"/>
<image xlink:href="../../images/primaryKeys.png" width="11px" height="12px" preserveAspectRatio="xMinYMin meet" x="226.75" y="-650.75"/>
<text text-anchor="start" x="241.75" y="-640.3" font-family="Helvetica,sans-Serif" font-size="11.00">identifier</text>
<polygon fill="none" stroke="black" points="389.75,-633.75 389.75,-655.75 494.25,-655.75 494.25,-633.75 389.75,-633.75"/>
<text text-anchor="start" x="392.75" y="-641.05" font-family="Helvetica,sans-Serif" font-size="11.00">varchar[191]</text>
<polygon fill="none" stroke="black" points="221.75,-611.75 221.75,-633.75 389.75,-633.75 389.75,-611.75 221.75,-611.75"/>
<text text-anchor="start" x="241.75" y="-618.3" font-family="Helvetica,sans-Serif" font-size="11.00">value</text>
<polygon fill="none" stroke="black" points="389.75,-611.75 389.75,-633.75 494.25,-633.75 494.25,-611.75 389.75,-611.75"/>
<text text-anchor="start" x="392.75" y="-619.05" font-family="Helvetica,sans-Serif" font-size="11.00">text[65535]</text>
<polygon fill="#ffffff" stroke="none" points="221.75,-589.75 221.75,-611.75 389.75,-611.75 389.75,-589.75 221.75,-589.75"/>
<polygon fill="none" stroke="black" points="221.75,-589.75 221.75,-611.75 389.75,-611.75 389.75,-589.75 221.75,-589.75"/>
<image xlink:href="../../images/foreignKeys.png" width="11px" height="12px" preserveAspectRatio="xMinYMin meet" x="226.75" y="-606.75"/>
<text text-anchor="start" x="241.75" y="-596.3" font-family="Helvetica,sans-Serif" font-size="11.00">item</text>
<polygon fill="none" stroke="black" points="389.75,-589.75 389.75,-611.75 494.25,-611.75 494.25,-589.75 389.75,-589.75"/>
<text text-anchor="start" x="392.75" y="-597.05" font-family="Helvetica,sans-Serif" font-size="11.00">varchar[191]</text>
<polygon fill="none" stroke="black" points="221.75,-567.75 221.75,-589.75 389.75,-589.75 389.75,-567.75 221.75,-567.75"/>
<text text-anchor="start" x="241.75" y="-574.3" font-family="Helvetica,sans-Serif" font-size="11.00">version</text>
<polygon fill="none" stroke="black" points="389.75,-567.75 389.75,-589.75 494.25,-589.75 494.25,-567.75 389.75,-567.75"/>
<text text-anchor="start" x="392.75" y="-575.05" font-family="Helvetica,sans-Serif" font-size="11.00">bigint[19]</text>
<polygon fill="none" stroke="black" points="221.75,-545.75 221.75,-567.75 389.75,-567.75 389.75,-545.75 221.75,-545.75"/>
<text text-anchor="start" x="241.75" y="-552.3" font-family="Helvetica,sans-Serif" font-size="11.00">created_by</text>
<polygon fill="none" stroke="black" points="389.75,-545.75 389.75,-567.75 494.25,-567.75 494.25,-545.75 389.75,-545.75"/>
<text text-anchor="start" x="392.75" y="-553.05" font-family="Helvetica,sans-Serif" font-size="11.00">varchar[191]</text>
<polygon fill="none" stroke="black" points="221.75,-523.75 221.75,-545.75 389.75,-545.75 389.75,-523.75 221.75,-523.75"/>
<text text-anchor="start" x="241.75" y="-530.3" font-family="Helvetica,sans-Serif" font-size="11.00">last_modified_by</text>
<polygon fill="none" stroke="black" points="389.75,-523.75 389.75,-545.75 494.25,-545.75 494.25,-523.75 389.75,-523.75"/>
<text text-anchor="start" x="392.75" y="-531.05" font-family="Helvetica,sans-Serif" font-size="11.00">varchar[191]</text>
<polygon fill="none" stroke="black" points="221.75,-501.75 221.75,-523.75 389.75,-523.75 389.75,-501.75 221.75,-501.75"/>
<text text-anchor="start" x="241.75" y="-508.3" font-family="Helvetica,sans-Serif" font-size="11.00">created_date</text>
<polygon fill="none" stroke="black" points="389.75,-501.75 389.75,-523.75 494.25,-523.75 494.25,-501.75 389.75,-501.75"/>
<text text-anchor="start" x="392.75" y="-509.05" font-family="Helvetica,sans-Serif" font-size="11.00">timestamp[19]</text>
<polygon fill="none" stroke="black" points="221.75,-479.75 221.75,-501.75 389.75,-501.75 389.75,-479.75 221.75,-479.75"/>
<text text-anchor="start" x="241.75" y="-486.3" font-family="Helvetica,sans-Serif" font-size="11.00">last_modified_date</text>
<polygon fill="none" stroke="black" points="389.75,-479.75 389.75,-501.75 494.25,-501.75 494.25,-479.75 389.75,-479.75"/>
<text text-anchor="start" x="392.75" y="-487.05" font-family="Helvetica,sans-Serif" font-size="11.00">timestamp[19]</text>
<polygon fill="#ffffff" stroke="none" points="221.75,-460.25 221.75,-479.75 311.75,-479.75 311.75,-460.25 221.75,-460.25"/>
<polygon fill="none" stroke="black" points="221.75,-460.25 221.75,-479.75 311.75,-479.75 311.75,-460.25 221.75,-460.25"/>
<text text-anchor="start" x="224.75" y="-466.3" font-family="Helvetica,sans-Serif" font-size="11.00">&lt; 1</text>
<polygon fill="#ffffff" stroke="none" points="311.75,-460.25 311.75,-479.75 389.75,-479.75 389.75,-460.25 311.75,-460.25"/>
<polygon fill="none" stroke="black" points="311.75,-460.25 311.75,-479.75 389.75,-479.75 389.75,-460.25 311.75,-460.25"/>
<text text-anchor="start" x="379.25" y="-466.3" font-family="Helvetica,sans-Serif" font-size="11.00"> &#160;</text>
<polygon fill="#ffffff" stroke="none" points="389.75,-460.25 389.75,-479.75 494.25,-479.75 494.25,-460.25 389.75,-460.25"/>
<polygon fill="none" stroke="black" points="389.75,-460.25 389.75,-479.75 494.25,-479.75 494.25,-460.25 389.75,-460.25"/>
<text text-anchor="start" x="471.75" y="-466.3" font-family="Helvetica,sans-Serif" font-size="11.00">0 &gt;</text>
<polygon fill="none" stroke="black" stroke-width="2" points="220.75,-459.25 220.75,-680.25 512,-680.25 512,-459.25 220.75,-459.25"/>
</a>
</g>
</g>
<!-- doc_archive_coverage&#45;&gt;doc_archive_item -->
<g id="edge3" class="edge">
<title>doc_archive_coverage:w&#45;&gt;doc_archive_item:e</title>
<path fill="none" stroke="black" d="M205.39,-598.69C130.11,-575.4 273.94,-362.5 171.75,-362.5"/>
<polygon fill="black" stroke="black" points="212.49,-599.64 219.94,-604.27 216.79,-600.22 220.09,-600.66 220.09,-600.66 220.09,-600.66 216.79,-600.22 220.9,-597.14 212.49,-599.64"/>
<ellipse fill="none" stroke="black" cx="207.61" cy="-598.99" rx="3.2" ry="3.2"/>
</g>
<!-- doc_archive_creator -->
<g id="node5" class="node">
<title>doc_archive_creator</title>
<g id="a_node5"><a xlink:href="../../tables/doc_archive_creator.html" xlink:title="doc_archive_creator" target="_top">
<polygon fill="#ffffff" stroke="none" points="276,-374.5 276,-437 456.75,-437 456.75,-374.5 276,-374.5"/>
<polygon fill="#f5f5f5" stroke="none" points="276,-413.5 276,-437 456.75,-437 456.75,-413.5 276,-413.5"/>
<polygon fill="none" stroke="black" points="276,-413.5 276,-437 456.75,-437 456.75,-413.5 276,-413.5"/>
<text text-anchor="start" x="281" y="-422.55" font-family="Helvetica,sans-Serif" font-weight="bold" font-size="11.00">doc_archive_creator</text>
<text text-anchor="start" x="415" y="-421.55" font-family="Helvetica,sans-Serif" font-size="11.00">[table]</text>
<polygon fill="none" stroke="black" points="276,-394 276,-413.5 456.75,-413.5 456.75,-394 276,-394"/>
<text text-anchor="start" x="279" y="-400.05" font-family="Helvetica,sans-Serif" font-size="11.00">...</text>
<polygon fill="#ffffff" stroke="none" points="276,-374.5 276,-394 344.25,-394 344.25,-374.5 276,-374.5"/>
<polygon fill="none" stroke="black" points="276,-374.5 276,-394 344.25,-394 344.25,-374.5 276,-374.5"/>
<text text-anchor="start" x="279" y="-380.55" font-family="Helvetica,sans-Serif" font-size="11.00">&lt; 1</text>
<polygon fill="#ffffff" stroke="none" points="344.25,-374.5 344.25,-394 400.5,-394 400.5,-374.5 344.25,-374.5"/>
<polygon fill="none" stroke="black" points="344.25,-374.5 344.25,-394 400.5,-394 400.5,-374.5 344.25,-374.5"/>
<text text-anchor="start" x="390" y="-380.55" font-family="Helvetica,sans-Serif" font-size="11.00"> &#160;</text>
<polygon fill="#ffffff" stroke="none" points="400.5,-374.5 400.5,-394 456.75,-394 456.75,-374.5 400.5,-374.5"/>
<polygon fill="none" stroke="black" points="400.5,-374.5 400.5,-394 456.75,-394 456.75,-374.5 400.5,-374.5"/>
<text text-anchor="start" x="446.25" y="-380.55" font-family="Helvetica,sans-Serif" font-size="11.00"> &#160;</text>
</a>
</g>
</g>
<!-- doc_archive_creator&#45;&gt;doc_archive_item -->
<g id="edge4" class="edge">
<title>doc_archive_creator:w&#45;&gt;doc_archive_item:e</title>
<path fill="none" stroke="black" d="M259.34,-402.18C223.93,-394.65 215.37,-362.5 171.75,-362.5"/>
<polygon fill="black" stroke="black" points="266.71,-402.92 274.31,-407.3 271.02,-403.35 274.33,-403.68 274.33,-403.68 274.33,-403.68 271.02,-403.35 275.03,-400.13 266.71,-402.92"/>
<ellipse fill="none" stroke="black" cx="261.81" cy="-402.43" rx="3.2" ry="3.2"/>
</g>
<!-- doc_archive_header -->
<g id="node6" class="node">
<title>doc_archive_header</title>
<g id="a_node6"><a xlink:href="../../tables/doc_archive_header.html" xlink:title="doc_archive_header" target="_top">
<polygon fill="#ffffff" stroke="none" points="276.5,-290.5 276.5,-353 456.25,-353 456.25,-290.5 276.5,-290.5"/>
<polygon fill="#f5f5f5" stroke="none" points="276.5,-329.5 276.5,-353 456.25,-353 456.25,-329.5 276.5,-329.5"/>
<polygon fill="none" stroke="black" points="276.5,-329.5 276.5,-353 456.25,-353 456.25,-329.5 276.5,-329.5"/>
<text text-anchor="start" x="281.5" y="-338.55" font-family="Helvetica,sans-Serif" font-weight="bold" font-size="11.00">doc_archive_header</text>
<text text-anchor="start" x="414.5" y="-337.55" font-family="Helvetica,sans-Serif" font-size="11.00">[table]</text>
<polygon fill="none" stroke="black" points="276.5,-310 276.5,-329.5 456.25,-329.5 456.25,-310 276.5,-310"/>
<text text-anchor="start" x="279.5" y="-316.05" font-family="Helvetica,sans-Serif" font-size="11.00">...</text>
<polygon fill="#ffffff" stroke="none" points="276.5,-290.5 276.5,-310 344.42,-310 344.42,-290.5 276.5,-290.5"/>
<polygon fill="none" stroke="black" points="276.5,-290.5 276.5,-310 344.42,-310 344.42,-290.5 276.5,-290.5"/>
<text text-anchor="start" x="279.5" y="-296.55" font-family="Helvetica,sans-Serif" font-size="11.00">&lt; 1</text>
<polygon fill="#ffffff" stroke="none" points="344.42,-290.5 344.42,-310 400.33,-310 400.33,-290.5 344.42,-290.5"/>
<polygon fill="none" stroke="black" points="344.42,-290.5 344.42,-310 400.33,-310 400.33,-290.5 344.42,-290.5"/>
<text text-anchor="start" x="389.83" y="-296.55" font-family="Helvetica,sans-Serif" font-size="11.00"> &#160;</text>
<polygon fill="#ffffff" stroke="none" points="400.33,-290.5 400.33,-310 456.25,-310 456.25,-290.5 400.33,-290.5"/>
<polygon fill="none" stroke="black" points="400.33,-290.5 400.33,-310 456.25,-310 456.25,-290.5 400.33,-290.5"/>
<text text-anchor="start" x="445.75" y="-296.55" font-family="Helvetica,sans-Serif" font-size="11.00"> &#160;</text>
</a>
</g>
</g>
<!-- doc_archive_header&#45;&gt;doc_archive_item -->
<g id="edge5" class="edge">
<title>doc_archive_header:w&#45;&gt;doc_archive_item:e</title>
<path fill="none" stroke="black" d="M260.18,-321.27C224.13,-328.89 215.97,-362.5 171.75,-362.5"/>
<polygon fill="black" stroke="black" points="267.21,-320.57 275.52,-323.37 271.52,-320.15 274.83,-319.82 274.83,-319.82 274.83,-319.82 271.52,-320.15 274.81,-316.2 267.21,-320.57"/>
<ellipse fill="none" stroke="black" cx="262.31" cy="-321.06" rx="3.2" ry="3.2"/>
</g>
<!-- doc_archive_language -->
<g id="node7" class="node">
<title>doc_archive_language</title>
<g id="a_node7"><a xlink:href="../../tables/doc_archive_language.html" xlink:title="doc_archive_language" target="_top">
<polygon fill="#ffffff" stroke="none" points="269,-206.5 269,-269 463.75,-269 463.75,-206.5 269,-206.5"/>
<polygon fill="#f5f5f5" stroke="none" points="269,-245.5 269,-269 463.75,-269 463.75,-245.5 269,-245.5"/>
<polygon fill="none" stroke="black" points="269,-245.5 269,-269 463.75,-269 463.75,-245.5 269,-245.5"/>
<text text-anchor="start" x="274" y="-254.55" font-family="Helvetica,sans-Serif" font-weight="bold" font-size="11.00">doc_archive_language</text>
<text text-anchor="start" x="422" y="-253.55" font-family="Helvetica,sans-Serif" font-size="11.00">[table]</text>
<polygon fill="none" stroke="black" points="269,-226 269,-245.5 463.75,-245.5 463.75,-226 269,-226"/>
<text text-anchor="start" x="272" y="-232.05" font-family="Helvetica,sans-Serif" font-size="11.00">...</text>
<polygon fill="#ffffff" stroke="none" points="269,-206.5 269,-226 341.92,-226 341.92,-206.5 269,-206.5"/>
<polygon fill="none" stroke="black" points="269,-206.5 269,-226 341.92,-226 341.92,-206.5 269,-206.5"/>
<text text-anchor="start" x="272" y="-212.55" font-family="Helvetica,sans-Serif" font-size="11.00">&lt; 1</text>
<polygon fill="#ffffff" stroke="none" points="341.92,-206.5 341.92,-226 402.83,-226 402.83,-206.5 341.92,-206.5"/>
<polygon fill="none" stroke="black" points="341.92,-206.5 341.92,-226 402.83,-226 402.83,-206.5 341.92,-206.5"/>
<text text-anchor="start" x="392.33" y="-212.55" font-family="Helvetica,sans-Serif" font-size="11.00"> &#160;</text>
<polygon fill="#ffffff" stroke="none" points="402.83,-206.5 402.83,-226 463.75,-226 463.75,-206.5 402.83,-206.5"/>
<polygon fill="none" stroke="black" points="402.83,-206.5 402.83,-226 463.75,-226 463.75,-206.5 402.83,-206.5"/>
<text text-anchor="start" x="453.25" y="-212.55" font-family="Helvetica,sans-Serif" font-size="11.00"> &#160;</text>
</a>
</g>
</g>
<!-- doc_archive_language&#45;&gt;doc_archive_item -->
<g id="edge6" class="edge">
<title>doc_archive_language:w&#45;&gt;doc_archive_item:e</title>
<path fill="none" stroke="black" d="M252.46,-237.77C233.94,-243.33 227.86,-259.77 211.75,-279.75 186.11,-311.55 212.6,-362.5 171.75,-362.5"/>
<polygon fill="black" stroke="black" points="259.74,-236.83 268.13,-239.36 264.03,-236.27 267.34,-235.84 267.34,-235.84 267.34,-235.84 264.03,-236.27 267.2,-232.22 259.74,-236.83"/>
<ellipse fill="none" stroke="black" cx="254.86" cy="-237.46" rx="3.2" ry="3.2"/>
</g>
<!-- doc_archive_subject -->
<g id="node8" class="node">
<title>doc_archive_subject</title>
<g id="a_node8"><a xlink:href="../../tables/doc_archive_subject.html" xlink:title="doc_archive_subject" target="_top">
<polygon fill="#ffffff" stroke="none" points="275.5,-122.5 275.5,-185 457.25,-185 457.25,-122.5 275.5,-122.5"/>
<polygon fill="#f5f5f5" stroke="none" points="275.5,-161.5 275.5,-185 457.25,-185 457.25,-161.5 275.5,-161.5"/>
<polygon fill="none" stroke="black" points="275.5,-161.5 275.5,-185 457.25,-185 457.25,-161.5 275.5,-161.5"/>
<text text-anchor="start" x="280.5" y="-170.55" font-family="Helvetica,sans-Serif" font-weight="bold" font-size="11.00">doc_archive_subject</text>
<text text-anchor="start" x="415.5" y="-169.55" font-family="Helvetica,sans-Serif" font-size="11.00">[table]</text>
<polygon fill="none" stroke="black" points="275.5,-142 275.5,-161.5 457.25,-161.5 457.25,-142 275.5,-142"/>
<text text-anchor="start" x="278.5" y="-148.05" font-family="Helvetica,sans-Serif" font-size="11.00">...</text>
<polygon fill="#ffffff" stroke="none" points="275.5,-122.5 275.5,-142 344.08,-142 344.08,-122.5 275.5,-122.5"/>
<polygon fill="none" stroke="black" points="275.5,-122.5 275.5,-142 344.08,-142 344.08,-122.5 275.5,-122.5"/>
<text text-anchor="start" x="278.5" y="-128.55" font-family="Helvetica,sans-Serif" font-size="11.00">&lt; 1</text>
<polygon fill="#ffffff" stroke="none" points="344.08,-122.5 344.08,-142 400.67,-142 400.67,-122.5 344.08,-122.5"/>
<polygon fill="none" stroke="black" points="344.08,-122.5 344.08,-142 400.67,-142 400.67,-122.5 344.08,-122.5"/>
<text text-anchor="start" x="390.17" y="-128.55" font-family="Helvetica,sans-Serif" font-size="11.00"> &#160;</text>
<polygon fill="#ffffff" stroke="none" points="400.67,-122.5 400.67,-142 457.25,-142 457.25,-122.5 400.67,-122.5"/>
<polygon fill="none" stroke="black" points="400.67,-122.5 400.67,-142 457.25,-142 457.25,-122.5 400.67,-122.5"/>
<text text-anchor="start" x="446.75" y="-128.55" font-family="Helvetica,sans-Serif" font-size="11.00"> &#160;</text>
</a>
</g>
</g>
<!-- doc_archive_subject&#45;&gt;doc_archive_item -->
<g id="edge7" class="edge">
<title>doc_archive_subject:w&#45;&gt;doc_archive_item:e</title>
<path fill="none" stroke="black" d="M258.94,-153.14C236.88,-157.56 227.62,-172.43 211.75,-195.75 168.88,-258.77 247.96,-362.5 171.75,-362.5"/>
<polygon fill="black" stroke="black" points="266.2,-152.49 274.49,-155.37 270.52,-152.1 273.83,-151.81 273.83,-151.81 273.83,-151.81 270.52,-152.1 273.85,-148.19 266.2,-152.49"/>
<ellipse fill="none" stroke="black" cx="261.3" cy="-152.93" rx="3.2" ry="3.2"/>
</g>
<!-- doc_unit -->
<g id="node9" class="node">
<title>doc_unit</title>
<g id="a_node9"><a xlink:href="../../tables/doc_unit.html" xlink:title="doc_unit" target="_top">
<polygon fill="#ffffff" stroke="none" points="315,-38.5 315,-101 417.75,-101 417.75,-38.5 315,-38.5"/>
<polygon fill="#f5f5f5" stroke="none" points="315,-77.5 315,-101 417.75,-101 417.75,-77.5 315,-77.5"/>
<polygon fill="none" stroke="black" points="315,-77.5 315,-101 417.75,-101 417.75,-77.5 315,-77.5"/>
<text text-anchor="start" x="320" y="-86.55" font-family="Helvetica,sans-Serif" font-weight="bold" font-size="11.00">doc_unit</text>
<text text-anchor="start" x="376" y="-85.55" font-family="Helvetica,sans-Serif" font-size="11.00">[table]</text>
<polygon fill="none" stroke="black" points="315,-58 315,-77.5 417.75,-77.5 417.75,-58 315,-58"/>
<text text-anchor="start" x="318" y="-64.05" font-family="Helvetica,sans-Serif" font-size="11.00">...</text>
<polygon fill="#ffffff" stroke="none" points="315,-38.5 315,-58 355.5,-58 355.5,-38.5 315,-38.5"/>
<polygon fill="none" stroke="black" points="315,-38.5 315,-58 355.5,-58 355.5,-38.5 315,-38.5"/>
<text text-anchor="start" x="318" y="-44.55" font-family="Helvetica,sans-Serif" font-size="11.00">&lt; 13</text>
<polygon fill="#ffffff" stroke="none" points="355.5,-38.5 355.5,-58 377.25,-58 377.25,-38.5 355.5,-38.5"/>
<polygon fill="none" stroke="black" points="355.5,-38.5 355.5,-58 377.25,-58 377.25,-38.5 355.5,-38.5"/>
<text text-anchor="start" x="366.75" y="-44.55" font-family="Helvetica,sans-Serif" font-size="11.00"> &#160;</text>
<polygon fill="#ffffff" stroke="none" points="377.25,-38.5 377.25,-58 417.75,-58 417.75,-38.5 377.25,-38.5"/>
<polygon fill="none" stroke="black" points="377.25,-38.5 377.25,-58 417.75,-58 417.75,-38.5 377.25,-38.5"/>
<text text-anchor="start" x="388.5" y="-44.55" font-family="Helvetica,sans-Serif" font-size="11.00">11 &gt;</text>
</a>
</g>
</g>
<!-- doc_unit&#45;&gt;doc_archive_item -->
<g id="edge8" class="edge">
<title>doc_unit:w&#45;&gt;doc_archive_item:e</title>
<path fill="none" stroke="black" d="M298.18,-67.98C259.35,-69.31 238.69,-77.13 211.75,-111.75 177.1,-156.28 228.18,-362.5 171.75,-362.5"/>
<polygon fill="black" stroke="black" points="305.67,-67.87 313.72,-71.35 310,-67.81 313.33,-67.76 313.33,-67.76 313.33,-67.76 310,-67.81 313.61,-64.16 305.67,-67.87"/>
<ellipse fill="none" stroke="black" cx="300.75" cy="-67.95" rx="3.2" ry="3.2"/>
</g>
</g>
</svg>
