<?xml version="1.0" encoding="UTF-8" standalone="no"?>
<!DOCTYPE svg PUBLIC "-//W3C//DTD SVG 1.1//EN"
 "http://www.w3.org/Graphics/SVG/1.1/DTD/svg11.dtd">
<!-- Generated by graphviz version 12.2.0 (0)
 -->
<!-- Title: oneDegreeRelationshipsDiagram Pages: 1 -->
<svg width="762pt" height="711pt"
 viewBox="0.00 0.00 762.00 711.25" xmlns="http://www.w3.org/2000/svg" xmlns:xlink="http://www.w3.org/1999/xlink">
<g id="graph0" class="graph" transform="scale(1 1) rotate(0) translate(4 707.25)">
<title>oneDegreeRelationshipsDiagram</title>
<polygon fill="#ffffff" stroke="none" points="-4,4 -4,-707.25 758,-707.25 758,4 -4,4"/>
<text text-anchor="middle" x="79.25" y="-7.05" font-family="Helvetica,sans-Serif" font-size="11.00">Generated by SchemaSpy</text>
<!-- doc_condreport_desc -->
<g id="node1" class="node">
<title>doc_condreport_desc</title>
<g id="a_node1"><a xlink:href="../../tables/doc_condreport_desc.html" xlink:title="doc_condreport_desc" target="_top">
<polygon fill="#ffffff" stroke="none" points="558.25,-548.75 558.25,-699.25 746,-699.25 746,-548.75 558.25,-548.75"/>
<polygon fill="#f5f5f5" stroke="none" points="558.25,-675.75 558.25,-699.25 746,-699.25 746,-675.75 558.25,-675.75"/>
<polygon fill="none" stroke="black" points="558.25,-675.75 558.25,-699.25 746,-699.25 746,-675.75 558.25,-675.75"/>
<text text-anchor="start" x="563.25" y="-684.8" font-family="Helvetica,sans-Serif" font-weight="bold" font-size="11.00">doc_condreport_desc</text>
<text text-anchor="start" x="704.25" y="-683.8" font-family="Helvetica,sans-Serif" font-size="11.00">[table]</text>
<polygon fill="none" stroke="black" points="558.25,-653.75 558.25,-675.75 746,-675.75 746,-653.75 558.25,-653.75"/>
<image xlink:href="../../images/primaryKeys.png" width="11px" height="12px" preserveAspectRatio="xMinYMin meet" x="563.25" y="-670.75"/>
<text text-anchor="start" x="591.12" y="-660.3" font-family="Helvetica,sans-Serif" font-size="11.00">identifier</text>
<polygon fill="#ffffff" stroke="none" points="558.25,-631.75 558.25,-653.75 746,-653.75 746,-631.75 558.25,-631.75"/>
<polygon fill="none" stroke="black" points="558.25,-631.75 558.25,-653.75 746,-653.75 746,-631.75 558.25,-631.75"/>
<image xlink:href="../../images/foreignKeys.png" width="11px" height="12px" preserveAspectRatio="xMinYMin meet" x="563.25" y="-648.75"/>
<text text-anchor="start" x="591.12" y="-638.3" font-family="Helvetica,sans-Serif" font-size="11.00">property</text>
<polygon fill="#ffffff" stroke="none" points="558.25,-609.75 558.25,-631.75 746,-631.75 746,-609.75 558.25,-609.75"/>
<polygon fill="none" stroke="black" points="558.25,-609.75 558.25,-631.75 746,-631.75 746,-609.75 558.25,-609.75"/>
<image xlink:href="../../images/foreignKeys.png" width="11px" height="12px" preserveAspectRatio="xMinYMin meet" x="563.25" y="-626.75"/>
<text text-anchor="start" x="591.12" y="-616.3" font-family="Helvetica,sans-Serif" font-size="11.00">value</text>
<polygon fill="#ffffff" stroke="none" points="558.25,-587.75 558.25,-609.75 746,-609.75 746,-587.75 558.25,-587.75"/>
<polygon fill="none" stroke="black" points="558.25,-587.75 558.25,-609.75 746,-609.75 746,-587.75 558.25,-587.75"/>
<image xlink:href="../../images/foreignKeys.png" width="11px" height="12px" preserveAspectRatio="xMinYMin meet" x="563.25" y="-604.75"/>
<text text-anchor="start" x="591.12" y="-594.3" font-family="Helvetica,sans-Serif" font-size="11.00">detail</text>
<polygon fill="none" stroke="black" points="558.25,-568.25 558.25,-587.75 746,-587.75 746,-568.25 558.25,-568.25"/>
<text text-anchor="start" x="561.25" y="-574.3" font-family="Helvetica,sans-Serif" font-size="11.00">...</text>
<polygon fill="#ffffff" stroke="none" points="558.25,-548.75 558.25,-568.25 628.83,-568.25 628.83,-548.75 558.25,-548.75"/>
<polygon fill="none" stroke="black" points="558.25,-548.75 558.25,-568.25 628.83,-568.25 628.83,-548.75 558.25,-548.75"/>
<text text-anchor="start" x="561.25" y="-554.8" font-family="Helvetica,sans-Serif" font-size="11.00">&lt; 3</text>
<polygon fill="#ffffff" stroke="none" points="628.83,-548.75 628.83,-568.25 687.42,-568.25 687.42,-548.75 628.83,-548.75"/>
<polygon fill="none" stroke="black" points="628.83,-548.75 628.83,-568.25 687.42,-568.25 687.42,-548.75 628.83,-548.75"/>
<text text-anchor="start" x="676.92" y="-554.8" font-family="Helvetica,sans-Serif" font-size="11.00"> &#160;</text>
<polygon fill="#ffffff" stroke="none" points="687.42,-548.75 687.42,-568.25 746,-568.25 746,-548.75 687.42,-548.75"/>
<polygon fill="none" stroke="black" points="687.42,-548.75 687.42,-568.25 746,-568.25 746,-548.75 687.42,-548.75"/>
<text text-anchor="start" x="735.5" y="-554.8" font-family="Helvetica,sans-Serif" font-size="11.00"> &#160;</text>
</a>
</g>
</g>
<!-- doc_condreport_detail -->
<g id="node2" class="node">
<title>doc_condreport_detail</title>
<g id="a_node2"><a xlink:href="../../tables/doc_condreport_detail.html" xlink:title="doc_condreport_detail" target="_top">
<polygon fill="#ffffff" stroke="none" points="213,-38.5 213,-635.5 509.25,-635.5 509.25,-38.5 213,-38.5"/>
<polygon fill="#f5f5f5" stroke="none" points="215,-610 215,-633.5 507.25,-633.5 507.25,-610 215,-610"/>
<polygon fill="none" stroke="black" points="215,-610 215,-633.5 507.25,-633.5 507.25,-610 215,-610"/>
<text text-anchor="start" x="220" y="-619.05" font-family="Helvetica,sans-Serif" font-weight="bold" font-size="11.00">doc_condreport_detail</text>
<text text-anchor="start" x="465.5" y="-618.05" font-family="Helvetica,sans-Serif" font-size="11.00">[table]</text>
<polygon fill="none" stroke="black" points="215,-588 215,-610 385,-610 385,-588 215,-588"/>
<image xlink:href="../../images/primaryKeys.png" width="11px" height="12px" preserveAspectRatio="xMinYMin meet" x="220" y="-605"/>
<text text-anchor="start" x="235" y="-594.55" font-family="Helvetica,sans-Serif" font-size="11.00">identifier</text>
<polygon fill="none" stroke="black" points="385,-588 385,-610 490,-610 490,-588 385,-588"/>
<text text-anchor="start" x="388" y="-595.3" font-family="Helvetica,sans-Serif" font-size="11.00">varchar[191]</text>
<polygon fill="none" stroke="black" points="215,-566 215,-588 385,-588 385,-566 215,-566"/>
<text text-anchor="start" x="235" y="-572.55" font-family="Helvetica,sans-Serif" font-size="11.00">type</text>
<polygon fill="none" stroke="black" points="385,-566 385,-588 490,-588 490,-566 385,-566"/>
<text text-anchor="start" x="388" y="-573.3" font-family="Helvetica,sans-Serif" font-size="11.00">varchar[255]</text>
<polygon fill="none" stroke="black" points="215,-544 215,-566 385,-566 385,-544 215,-544"/>
<text text-anchor="start" x="235" y="-550.55" font-family="Helvetica,sans-Serif" font-size="11.00">lib_writer_name</text>
<polygon fill="none" stroke="black" points="385,-544 385,-566 490,-566 490,-544 385,-544"/>
<text text-anchor="start" x="388" y="-551.3" font-family="Helvetica,sans-Serif" font-size="11.00">varchar[255]</text>
<polygon fill="none" stroke="black" points="215,-522 215,-544 385,-544 385,-522 215,-522"/>
<text text-anchor="start" x="235" y="-528.55" font-family="Helvetica,sans-Serif" font-size="11.00">lib_writer_function</text>
<polygon fill="none" stroke="black" points="385,-522 385,-544 490,-544 490,-522 385,-522"/>
<text text-anchor="start" x="388" y="-529.3" font-family="Helvetica,sans-Serif" font-size="11.00">varchar[255]</text>
<polygon fill="none" stroke="black" points="215,-500 215,-522 385,-522 385,-500 215,-500"/>
<text text-anchor="start" x="235" y="-506.55" font-family="Helvetica,sans-Serif" font-size="11.00">prov_writer_name</text>
<polygon fill="none" stroke="black" points="385,-500 385,-522 490,-522 490,-500 385,-500"/>
<text text-anchor="start" x="388" y="-507.3" font-family="Helvetica,sans-Serif" font-size="11.00">varchar[255]</text>
<polygon fill="none" stroke="black" points="215,-478 215,-500 385,-500 385,-478 215,-478"/>
<text text-anchor="start" x="235" y="-484.55" font-family="Helvetica,sans-Serif" font-size="11.00">prov_writer_function</text>
<polygon fill="none" stroke="black" points="385,-478 385,-500 490,-500 490,-478 385,-478"/>
<text text-anchor="start" x="388" y="-485.3" font-family="Helvetica,sans-Serif" font-size="11.00">varchar[255]</text>
<polygon fill="none" stroke="black" points="215,-456 215,-478 385,-478 385,-456 215,-456"/>
<text text-anchor="start" x="235" y="-462.55" font-family="Helvetica,sans-Serif" font-size="11.00">report_date</text>
<polygon fill="none" stroke="black" points="385,-456 385,-478 490,-478 490,-456 385,-456"/>
<text text-anchor="start" x="388" y="-463.3" font-family="Helvetica,sans-Serif" font-size="11.00">date[10]</text>
<polygon fill="none" stroke="black" points="215,-434 215,-456 385,-456 385,-434 215,-434"/>
<text text-anchor="start" x="235" y="-440.55" font-family="Helvetica,sans-Serif" font-size="11.00">nb_view_binding</text>
<polygon fill="none" stroke="black" points="385,-434 385,-456 490,-456 490,-434 385,-434"/>
<text text-anchor="start" x="388" y="-441.3" font-family="Helvetica,sans-Serif" font-size="11.00">int[10]</text>
<polygon fill="none" stroke="black" points="215,-412 215,-434 385,-434 385,-412 215,-412"/>
<text text-anchor="start" x="235" y="-418.55" font-family="Helvetica,sans-Serif" font-size="11.00">nb_view_body</text>
<polygon fill="none" stroke="black" points="385,-412 385,-434 490,-434 490,-412 385,-412"/>
<text text-anchor="start" x="388" y="-419.3" font-family="Helvetica,sans-Serif" font-size="11.00">int[10]</text>
<polygon fill="none" stroke="black" points="215,-390 215,-412 385,-412 385,-390 215,-390"/>
<text text-anchor="start" x="235" y="-396.55" font-family="Helvetica,sans-Serif" font-size="11.00">nb_view_additionnal</text>
<polygon fill="none" stroke="black" points="385,-390 385,-412 490,-412 490,-390 385,-390"/>
<text text-anchor="start" x="388" y="-397.3" font-family="Helvetica,sans-Serif" font-size="11.00">int[10]</text>
<polygon fill="none" stroke="black" points="215,-368 215,-390 385,-390 385,-368 215,-368"/>
<text text-anchor="start" x="235" y="-374.55" font-family="Helvetica,sans-Serif" font-size="11.00">dim1</text>
<polygon fill="none" stroke="black" points="385,-368 385,-390 490,-390 490,-368 385,-368"/>
<text text-anchor="start" x="388" y="-375.3" font-family="Helvetica,sans-Serif" font-size="11.00">int[10]</text>
<polygon fill="none" stroke="black" points="215,-346 215,-368 385,-368 385,-346 215,-346"/>
<text text-anchor="start" x="235" y="-352.55" font-family="Helvetica,sans-Serif" font-size="11.00">dim2</text>
<polygon fill="none" stroke="black" points="385,-346 385,-368 490,-368 490,-346 385,-346"/>
<text text-anchor="start" x="388" y="-353.3" font-family="Helvetica,sans-Serif" font-size="11.00">int[10]</text>
<polygon fill="none" stroke="black" points="215,-324 215,-346 385,-346 385,-324 215,-324"/>
<text text-anchor="start" x="235" y="-330.55" font-family="Helvetica,sans-Serif" font-size="11.00">dim3</text>
<polygon fill="none" stroke="black" points="385,-324 385,-346 490,-346 490,-324 385,-324"/>
<text text-anchor="start" x="388" y="-331.3" font-family="Helvetica,sans-Serif" font-size="11.00">int[10]</text>
<polygon fill="none" stroke="black" points="215,-302 215,-324 385,-324 385,-302 215,-302"/>
<text text-anchor="start" x="235" y="-308.55" font-family="Helvetica,sans-Serif" font-size="11.00">binding_desc</text>
<polygon fill="none" stroke="black" points="385,-302 385,-324 490,-324 490,-302 385,-302"/>
<text text-anchor="start" x="388" y="-309.3" font-family="Helvetica,sans-Serif" font-size="11.00">text[65535]</text>
<polygon fill="none" stroke="black" points="215,-280 215,-302 385,-302 385,-280 215,-280"/>
<text text-anchor="start" x="235" y="-286.55" font-family="Helvetica,sans-Serif" font-size="11.00">body_desc</text>
<polygon fill="none" stroke="black" points="385,-280 385,-302 490,-302 490,-280 385,-280"/>
<text text-anchor="start" x="388" y="-287.3" font-family="Helvetica,sans-Serif" font-size="11.00">text[65535]</text>
<polygon fill="none" stroke="black" points="215,-258 215,-280 385,-280 385,-258 215,-258"/>
<text text-anchor="start" x="235" y="-264.55" font-family="Helvetica,sans-Serif" font-size="11.00">additionnal_desc</text>
<polygon fill="none" stroke="black" points="385,-258 385,-280 490,-280 490,-258 385,-258"/>
<text text-anchor="start" x="388" y="-265.3" font-family="Helvetica,sans-Serif" font-size="11.00">text[65535]</text>
<polygon fill="#ffffff" stroke="none" points="215,-236 215,-258 385,-258 385,-236 215,-236"/>
<polygon fill="none" stroke="black" points="215,-236 215,-258 385,-258 385,-236 215,-236"/>
<image xlink:href="../../images/foreignKeys.png" width="11px" height="12px" preserveAspectRatio="xMinYMin meet" x="220" y="-253"/>
<text text-anchor="start" x="235" y="-242.55" font-family="Helvetica,sans-Serif" font-size="11.00">report</text>
<polygon fill="none" stroke="black" points="385,-236 385,-258 490,-258 490,-236 385,-236"/>
<text text-anchor="start" x="388" y="-243.3" font-family="Helvetica,sans-Serif" font-size="11.00">varchar[191]</text>
<polygon fill="none" stroke="black" points="215,-214 215,-236 385,-236 385,-214 215,-214"/>
<text text-anchor="start" x="235" y="-220.55" font-family="Helvetica,sans-Serif" font-size="11.00">version</text>
<polygon fill="none" stroke="black" points="385,-214 385,-236 490,-236 490,-214 385,-214"/>
<text text-anchor="start" x="388" y="-221.3" font-family="Helvetica,sans-Serif" font-size="11.00">bigint[19]</text>
<polygon fill="none" stroke="black" points="215,-192 215,-214 385,-214 385,-192 215,-192"/>
<text text-anchor="start" x="235" y="-198.55" font-family="Helvetica,sans-Serif" font-size="11.00">created_by</text>
<polygon fill="none" stroke="black" points="385,-192 385,-214 490,-214 490,-192 385,-192"/>
<text text-anchor="start" x="388" y="-199.3" font-family="Helvetica,sans-Serif" font-size="11.00">varchar[191]</text>
<polygon fill="none" stroke="black" points="215,-170 215,-192 385,-192 385,-170 215,-170"/>
<text text-anchor="start" x="235" y="-176.55" font-family="Helvetica,sans-Serif" font-size="11.00">last_modified_by</text>
<polygon fill="none" stroke="black" points="385,-170 385,-192 490,-192 490,-170 385,-170"/>
<text text-anchor="start" x="388" y="-177.3" font-family="Helvetica,sans-Serif" font-size="11.00">varchar[191]</text>
<polygon fill="none" stroke="black" points="215,-148 215,-170 385,-170 385,-148 215,-148"/>
<text text-anchor="start" x="235" y="-154.55" font-family="Helvetica,sans-Serif" font-size="11.00">created_date</text>
<polygon fill="none" stroke="black" points="385,-148 385,-170 490,-170 490,-148 385,-148"/>
<text text-anchor="start" x="388" y="-155.3" font-family="Helvetica,sans-Serif" font-size="11.00">timestamp[19]</text>
<polygon fill="none" stroke="black" points="215,-126 215,-148 385,-148 385,-126 215,-126"/>
<text text-anchor="start" x="235" y="-132.55" font-family="Helvetica,sans-Serif" font-size="11.00">last_modified_date</text>
<polygon fill="none" stroke="black" points="385,-126 385,-148 490,-148 490,-126 385,-126"/>
<text text-anchor="start" x="388" y="-133.3" font-family="Helvetica,sans-Serif" font-size="11.00">timestamp[19]</text>
<polygon fill="none" stroke="black" points="215,-104 215,-126 385,-126 385,-104 215,-104"/>
<text text-anchor="start" x="235" y="-110.55" font-family="Helvetica,sans-Serif" font-size="11.00">insurance</text>
<polygon fill="none" stroke="black" points="385,-104 385,-126 490,-126 490,-104 385,-104"/>
<text text-anchor="start" x="388" y="-111.3" font-family="Helvetica,sans-Serif" font-size="11.00">double[22]</text>
<polygon fill="none" stroke="black" points="215,-82 215,-104 385,-104 385,-82 215,-82"/>
<text text-anchor="start" x="235" y="-88.55" font-family="Helvetica,sans-Serif" font-size="11.00">position</text>
<polygon fill="none" stroke="black" points="385,-82 385,-104 490,-104 490,-82 385,-82"/>
<text text-anchor="start" x="388" y="-89.3" font-family="Helvetica,sans-Serif" font-size="11.00">int[10]</text>
<polygon fill="none" stroke="black" points="215,-60 215,-82 385,-82 385,-60 215,-60"/>
<text text-anchor="start" x="235" y="-66.55" font-family="Helvetica,sans-Serif" font-size="11.00">comment</text>
<polygon fill="none" stroke="black" points="385,-60 385,-82 490,-82 490,-60 385,-60"/>
<text text-anchor="start" x="388" y="-67.3" font-family="Helvetica,sans-Serif" font-size="11.00">text[65535]</text>
<polygon fill="#ffffff" stroke="none" points="215,-40.5 215,-60 306,-60 306,-40.5 215,-40.5"/>
<polygon fill="none" stroke="black" points="215,-40.5 215,-60 306,-60 306,-40.5 215,-40.5"/>
<text text-anchor="start" x="218" y="-46.55" font-family="Helvetica,sans-Serif" font-size="11.00">&lt; 1</text>
<polygon fill="#ffffff" stroke="none" points="306,-40.5 306,-60 385,-60 385,-40.5 306,-40.5"/>
<polygon fill="none" stroke="black" points="306,-40.5 306,-60 385,-60 385,-40.5 306,-40.5"/>
<text text-anchor="start" x="374.5" y="-46.55" font-family="Helvetica,sans-Serif" font-size="11.00"> &#160;</text>
<polygon fill="#ffffff" stroke="none" points="385,-40.5 385,-60 490,-60 490,-40.5 385,-40.5"/>
<polygon fill="none" stroke="black" points="385,-40.5 385,-60 490,-60 490,-40.5 385,-40.5"/>
<text text-anchor="start" x="467.5" y="-46.55" font-family="Helvetica,sans-Serif" font-size="11.00">1 &gt;</text>
<polygon fill="none" stroke="black" stroke-width="2" points="214,-39.5 214,-634.5 508.25,-634.5 508.25,-39.5 214,-39.5"/>
</a>
</g>
</g>
<!-- doc_condreport_desc&#45;&gt;doc_condreport_detail -->
<g id="edge1" class="edge">
<title>doc_condreport_desc:w&#45;&gt;doc_condreport_detail:e</title>
<path fill="none" stroke="black" d="M541.41,-598.78C523.81,-598.84 514.35,-599 491,-599"/>
<polygon fill="black" stroke="black" points="548.92,-598.76 556.92,-602.35 553.25,-598.76 556.58,-598.75 556.58,-598.75 556.58,-598.75 553.25,-598.76 556.91,-595.15 548.92,-598.76"/>
<ellipse fill="none" stroke="black" cx="544" cy="-598.77" rx="3.2" ry="3.2"/>
</g>
<!-- doc_condreport -->
<g id="node3" class="node">
<title>doc_condreport</title>
<g id="a_node3"><a xlink:href="../../tables/doc_condreport.html" xlink:title="doc_condreport" target="_top">
<polygon fill="#ffffff" stroke="none" points="8,-175.75 8,-282.25 164,-282.25 164,-175.75 8,-175.75"/>
<polygon fill="#f5f5f5" stroke="none" points="8,-258.75 8,-282.25 164,-282.25 164,-258.75 8,-258.75"/>
<polygon fill="none" stroke="black" points="8,-258.75 8,-282.25 164,-282.25 164,-258.75 8,-258.75"/>
<text text-anchor="start" x="13" y="-267.8" font-family="Helvetica,sans-Serif" font-weight="bold" font-size="11.00">doc_condreport</text>
<text text-anchor="start" x="122.25" y="-266.8" font-family="Helvetica,sans-Serif" font-size="11.00">[table]</text>
<polygon fill="none" stroke="black" points="8,-236.75 8,-258.75 164,-258.75 164,-236.75 8,-236.75"/>
<image xlink:href="../../images/primaryKeys.png" width="11px" height="12px" preserveAspectRatio="xMinYMin meet" x="13" y="-253.75"/>
<text text-anchor="start" x="28" y="-243.3" font-family="Helvetica,sans-Serif" font-size="11.00">identifier</text>
<polygon fill="#ffffff" stroke="none" points="8,-214.75 8,-236.75 164,-236.75 164,-214.75 8,-214.75"/>
<polygon fill="none" stroke="black" points="8,-214.75 8,-236.75 164,-236.75 164,-214.75 8,-214.75"/>
<image xlink:href="../../images/foreignKeys.png" width="11px" height="12px" preserveAspectRatio="xMinYMin meet" x="13" y="-231.75"/>
<text text-anchor="start" x="28" y="-221.3" font-family="Helvetica,sans-Serif" font-size="11.00">doc_unit</text>
<polygon fill="none" stroke="black" points="8,-195.25 8,-214.75 164,-214.75 164,-195.25 8,-195.25"/>
<text text-anchor="start" x="11" y="-201.3" font-family="Helvetica,sans-Serif" font-size="11.00">...</text>
<polygon fill="#ffffff" stroke="none" points="8,-175.75 8,-195.25 64,-195.25 64,-175.75 8,-175.75"/>
<polygon fill="none" stroke="black" points="8,-175.75 8,-195.25 64,-195.25 64,-175.75 8,-175.75"/>
<text text-anchor="start" x="11" y="-181.8" font-family="Helvetica,sans-Serif" font-size="11.00">&lt; 1</text>
<polygon fill="#ffffff" stroke="none" points="64,-175.75 64,-195.25 108,-195.25 108,-175.75 64,-175.75"/>
<polygon fill="none" stroke="black" points="64,-175.75 64,-195.25 108,-195.25 108,-175.75 64,-175.75"/>
<text text-anchor="start" x="97.5" y="-181.8" font-family="Helvetica,sans-Serif" font-size="11.00"> &#160;</text>
<polygon fill="#ffffff" stroke="none" points="108,-175.75 108,-195.25 164,-195.25 164,-175.75 108,-175.75"/>
<polygon fill="none" stroke="black" points="108,-175.75 108,-195.25 164,-195.25 164,-175.75 108,-175.75"/>
<text text-anchor="start" x="141.5" y="-181.8" font-family="Helvetica,sans-Serif" font-size="11.00">2 &gt;</text>
</a>
</g>
</g>
<!-- doc_condreport_detail&#45;&gt;doc_condreport -->
<g id="edge2" class="edge">
<title>doc_condreport_detail:w&#45;&gt;doc_condreport:e</title>
<path fill="none" stroke="black" d="M198.42,-247.15C187.71,-247.37 180.48,-247.75 165,-247.75"/>
<polygon fill="black" stroke="black" points="205.67,-247.08 213.7,-250.6 210,-247.04 213.33,-247.01 213.33,-247.01 213.33,-247.01 210,-247.04 213.63,-243.4 205.67,-247.08"/>
<ellipse fill="none" stroke="black" cx="200.75" cy="-247.13" rx="3.2" ry="3.2"/>
</g>
</g>
</svg>
