<?xml version="1.0" encoding="UTF-8" standalone="no"?>
<!DOCTYPE svg PUBLIC "-//W3C//DTD SVG 1.1//EN"
 "http://www.w3.org/Graphics/SVG/1.1/DTD/svg11.dtd">
<!-- Generated by graphviz version 12.2.0 (0)
 -->
<!-- Title: twoDegreesRelationshipsDiagram Pages: 1 -->
<svg width="911pt" height="468pt"
 viewBox="0.00 0.00 911.25 468.00" xmlns="http://www.w3.org/2000/svg" xmlns:xlink="http://www.w3.org/1999/xlink">
<g id="graph0" class="graph" transform="scale(1 1) rotate(0) translate(4 464)">
<title>twoDegreesRelationshipsDiagram</title>
<polygon fill="#ffffff" stroke="none" points="-4,4 -4,-464 907.25,-464 907.25,4 -4,4"/>
<text text-anchor="middle" x="79.25" y="-7.05" font-family="Helvetica,sans-Serif" font-size="11.00">Generated by SchemaSpy</text>
<!-- doc_condreport_desc -->
<g id="node1" class="node">
<title>doc_condreport_desc</title>
<g id="a_node1"><a xlink:href="../../tables/doc_condreport_desc.html" xlink:title="doc_condreport_desc" target="_top">
<polygon fill="#ffffff" stroke="none" points="707.5,-338.5 707.5,-401 895.25,-401 895.25,-338.5 707.5,-338.5"/>
<polygon fill="#f5f5f5" stroke="none" points="707.5,-377.5 707.5,-401 895.25,-401 895.25,-377.5 707.5,-377.5"/>
<polygon fill="none" stroke="black" points="707.5,-377.5 707.5,-401 895.25,-401 895.25,-377.5 707.5,-377.5"/>
<text text-anchor="start" x="712.5" y="-386.55" font-family="Helvetica,sans-Serif" font-weight="bold" font-size="11.00">doc_condreport_desc</text>
<text text-anchor="start" x="853.5" y="-385.55" font-family="Helvetica,sans-Serif" font-size="11.00">[table]</text>
<polygon fill="none" stroke="black" points="707.5,-358 707.5,-377.5 895.25,-377.5 895.25,-358 707.5,-358"/>
<text text-anchor="start" x="710.5" y="-364.05" font-family="Helvetica,sans-Serif" font-size="11.00">...</text>
<polygon fill="#ffffff" stroke="none" points="707.5,-338.5 707.5,-358 778.08,-358 778.08,-338.5 707.5,-338.5"/>
<polygon fill="none" stroke="black" points="707.5,-338.5 707.5,-358 778.08,-358 778.08,-338.5 707.5,-338.5"/>
<text text-anchor="start" x="710.5" y="-344.55" font-family="Helvetica,sans-Serif" font-size="11.00">&lt; 3</text>
<polygon fill="#ffffff" stroke="none" points="778.08,-338.5 778.08,-358 836.67,-358 836.67,-338.5 778.08,-338.5"/>
<polygon fill="none" stroke="black" points="778.08,-338.5 778.08,-358 836.67,-358 836.67,-338.5 778.08,-338.5"/>
<text text-anchor="start" x="826.17" y="-344.55" font-family="Helvetica,sans-Serif" font-size="11.00"> &#160;</text>
<polygon fill="#ffffff" stroke="none" points="836.67,-338.5 836.67,-358 895.25,-358 895.25,-338.5 836.67,-338.5"/>
<polygon fill="none" stroke="black" points="836.67,-338.5 836.67,-358 895.25,-358 895.25,-338.5 836.67,-338.5"/>
<text text-anchor="start" x="884.75" y="-344.55" font-family="Helvetica,sans-Serif" font-size="11.00"> &#160;</text>
</a>
</g>
</g>
<!-- doc_condreport_detail -->
<g id="node2" class="node">
<title>doc_condreport_detail</title>
<g id="a_node2"><a xlink:href="../../tables/doc_condreport_detail.html" xlink:title="doc_condreport_detail" target="_top">
<polygon fill="#ffffff" stroke="none" points="386.25,-393.5 386.25,-456 582,-456 582,-393.5 386.25,-393.5"/>
<polygon fill="#f5f5f5" stroke="none" points="386.25,-432.5 386.25,-456 582,-456 582,-432.5 386.25,-432.5"/>
<polygon fill="none" stroke="black" points="386.25,-432.5 386.25,-456 582,-456 582,-432.5 386.25,-432.5"/>
<text text-anchor="start" x="391.25" y="-441.55" font-family="Helvetica,sans-Serif" font-weight="bold" font-size="11.00">doc_condreport_detail</text>
<text text-anchor="start" x="540.25" y="-440.55" font-family="Helvetica,sans-Serif" font-size="11.00">[table]</text>
<polygon fill="none" stroke="black" points="386.25,-413 386.25,-432.5 582,-432.5 582,-413 386.25,-413"/>
<text text-anchor="start" x="389.25" y="-419.05" font-family="Helvetica,sans-Serif" font-size="11.00">...</text>
<polygon fill="#ffffff" stroke="none" points="386.25,-393.5 386.25,-413 455.5,-413 455.5,-393.5 386.25,-393.5"/>
<polygon fill="none" stroke="black" points="386.25,-393.5 386.25,-413 455.5,-413 455.5,-393.5 386.25,-393.5"/>
<text text-anchor="start" x="389.25" y="-399.55" font-family="Helvetica,sans-Serif" font-size="11.00">&lt; 1</text>
<polygon fill="#ffffff" stroke="none" points="455.5,-393.5 455.5,-413 512.75,-413 512.75,-393.5 455.5,-393.5"/>
<polygon fill="none" stroke="black" points="455.5,-393.5 455.5,-413 512.75,-413 512.75,-393.5 455.5,-393.5"/>
<text text-anchor="start" x="502.25" y="-399.55" font-family="Helvetica,sans-Serif" font-size="11.00"> &#160;</text>
<polygon fill="#ffffff" stroke="none" points="512.75,-393.5 512.75,-413 582,-413 582,-393.5 512.75,-393.5"/>
<polygon fill="none" stroke="black" points="512.75,-393.5 512.75,-413 582,-413 582,-393.5 512.75,-393.5"/>
<text text-anchor="start" x="559.5" y="-399.55" font-family="Helvetica,sans-Serif" font-size="11.00">1 &gt;</text>
</a>
</g>
</g>
<!-- doc_condreport_desc&#45;&gt;doc_condreport_detail -->
<g id="edge1" class="edge">
<title>doc_condreport_desc:w&#45;&gt;doc_condreport_detail:e</title>
<path fill="none" stroke="black" d="M684.43,-408.79C651.99,-416.75 616.45,-422.75 583,-422.75"/>
<polygon fill="black" stroke="black" points="691.52,-406.96 700.17,-408.45 695.72,-405.88 698.95,-405.05 698.95,-405.05 698.95,-405.05 695.72,-405.88 698.37,-401.48 691.52,-406.96"/>
<ellipse fill="none" stroke="black" cx="686.76" cy="-408.19" rx="3.2" ry="3.2"/>
</g>
<!-- doc_condreport_desc_property -->
<g id="node3" class="node">
<title>doc_condreport_desc_property</title>
<g id="a_node3"><a xlink:href="../../tables/doc_condreport_desc_property.html" xlink:title="doc_condreport_desc_property" target="_top">
<polygon fill="#ffffff" stroke="none" points="8,-233.5 8,-296 260.75,-296 260.75,-233.5 8,-233.5"/>
<polygon fill="#f5f5f5" stroke="none" points="8,-272.5 8,-296 260.75,-296 260.75,-272.5 8,-272.5"/>
<polygon fill="none" stroke="black" points="8,-272.5 8,-296 260.75,-296 260.75,-272.5 8,-272.5"/>
<text text-anchor="start" x="13" y="-281.55" font-family="Helvetica,sans-Serif" font-weight="bold" font-size="11.00">doc_condreport_desc_property</text>
<text text-anchor="start" x="219" y="-280.55" font-family="Helvetica,sans-Serif" font-size="11.00">[table]</text>
<polygon fill="none" stroke="black" points="8,-253 8,-272.5 260.75,-272.5 260.75,-253 8,-253"/>
<text text-anchor="start" x="11" y="-259.05" font-family="Helvetica,sans-Serif" font-size="11.00">...</text>
<polygon fill="#ffffff" stroke="none" points="8,-233.5 8,-253 88.25,-253 88.25,-233.5 8,-233.5"/>
<polygon fill="none" stroke="black" points="8,-233.5 8,-253 88.25,-253 88.25,-233.5 8,-233.5"/>
<text text-anchor="start" x="11" y="-239.55" font-family="Helvetica,sans-Serif" font-size="11.00"> &#160;</text>
<polygon fill="#ffffff" stroke="none" points="88.25,-233.5 88.25,-253 168.5,-253 168.5,-233.5 88.25,-233.5"/>
<polygon fill="none" stroke="black" points="88.25,-233.5 88.25,-253 168.5,-253 168.5,-233.5 88.25,-233.5"/>
<text text-anchor="start" x="158" y="-239.55" font-family="Helvetica,sans-Serif" font-size="11.00"> &#160;</text>
<polygon fill="#ffffff" stroke="none" points="168.5,-233.5 168.5,-253 260.75,-253 260.75,-233.5 168.5,-233.5"/>
<polygon fill="none" stroke="black" points="168.5,-233.5 168.5,-253 260.75,-253 260.75,-233.5 168.5,-233.5"/>
<text text-anchor="start" x="238.25" y="-239.55" font-family="Helvetica,sans-Serif" font-size="11.00">3 &gt;</text>
</a>
</g>
</g>
<!-- doc_condreport_desc&#45;&gt;doc_condreport_desc_property -->
<g id="edge2" class="edge">
<title>doc_condreport_desc:w&#45;&gt;doc_condreport_desc_property:e</title>
<path fill="none" stroke="black" d="M684.06,-372.75C559.7,-374.84 371.04,-374.5 301.75,-355.75 259.64,-344.35 216.55,-320.38 184.78,-299.9"/>
<polygon fill="black" stroke="black" points="691.32,-372.62 699.38,-376.07 695.65,-372.54 698.99,-372.48 698.99,-372.48 698.99,-372.48 695.65,-372.54 699.26,-368.87 691.32,-372.62"/>
<ellipse fill="none" stroke="black" cx="686.4" cy="-372.7" rx="3.2" ry="3.2"/>
</g>
<!-- doc_condreport_desc_value -->
<g id="node4" class="node">
<title>doc_condreport_desc_value</title>
<g id="a_node4"><a xlink:href="../../tables/doc_condreport_desc_value.html" xlink:title="doc_condreport_desc_value" target="_top">
<polygon fill="#ffffff" stroke="none" points="309.75,-122.25 309.75,-345.25 658.5,-345.25 658.5,-122.25 309.75,-122.25"/>
<polygon fill="#f5f5f5" stroke="none" points="311.75,-319.75 311.75,-343.25 656.5,-343.25 656.5,-319.75 311.75,-319.75"/>
<polygon fill="none" stroke="black" points="311.75,-319.75 311.75,-343.25 656.5,-343.25 656.5,-319.75 311.75,-319.75"/>
<text text-anchor="start" x="316.75" y="-328.8" font-family="Helvetica,sans-Serif" font-weight="bold" font-size="11.00">doc_condreport_desc_value</text>
<text text-anchor="start" x="614.75" y="-327.8" font-family="Helvetica,sans-Serif" font-size="11.00">[table]</text>
<polygon fill="none" stroke="black" points="311.75,-297.75 311.75,-319.75 516.75,-319.75 516.75,-297.75 311.75,-297.75"/>
<image xlink:href="../../images/primaryKeys.png" width="11px" height="12px" preserveAspectRatio="xMinYMin meet" x="316.75" y="-314.75"/>
<text text-anchor="start" x="331.75" y="-304.3" font-family="Helvetica,sans-Serif" font-size="11.00">identifier</text>
<polygon fill="none" stroke="black" points="516.75,-297.75 516.75,-319.75 630.5,-319.75 630.5,-297.75 516.75,-297.75"/>
<text text-anchor="start" x="519.75" y="-305.05" font-family="Helvetica,sans-Serif" font-size="11.00">varchar[191]</text>
<polygon fill="none" stroke="black" points="311.75,-275.75 311.75,-297.75 516.75,-297.75 516.75,-275.75 311.75,-275.75"/>
<text text-anchor="start" x="331.75" y="-282.3" font-family="Helvetica,sans-Serif" font-size="11.00">label</text>
<polygon fill="none" stroke="black" points="516.75,-275.75 516.75,-297.75 630.5,-297.75 630.5,-275.75 516.75,-275.75"/>
<text text-anchor="start" x="519.75" y="-283.05" font-family="Helvetica,sans-Serif" font-size="11.00">varchar[255]</text>
<polygon fill="#ffffff" stroke="none" points="311.75,-253.75 311.75,-275.75 516.75,-275.75 516.75,-253.75 311.75,-253.75"/>
<polygon fill="none" stroke="black" points="311.75,-253.75 311.75,-275.75 516.75,-275.75 516.75,-253.75 311.75,-253.75"/>
<image xlink:href="../../images/foreignKeys.png" width="11px" height="12px" preserveAspectRatio="xMinYMin meet" x="316.75" y="-270.75"/>
<text text-anchor="start" x="331.75" y="-260.3" font-family="Helvetica,sans-Serif" font-size="11.00">property</text>
<polygon fill="none" stroke="black" points="516.75,-253.75 516.75,-275.75 630.5,-275.75 630.5,-253.75 516.75,-253.75"/>
<text text-anchor="start" x="519.75" y="-261.05" font-family="Helvetica,sans-Serif" font-size="11.00">varchar[191]</text>
<polygon fill="none" stroke="black" points="311.75,-231.75 311.75,-253.75 516.75,-253.75 516.75,-231.75 311.75,-231.75"/>
<text text-anchor="start" x="331.75" y="-238.3" font-family="Helvetica,sans-Serif" font-size="11.00">version</text>
<polygon fill="none" stroke="black" points="516.75,-231.75 516.75,-253.75 630.5,-253.75 630.5,-231.75 516.75,-231.75"/>
<text text-anchor="start" x="519.75" y="-239.05" font-family="Helvetica,sans-Serif" font-size="11.00">bigint[19]</text>
<polygon fill="none" stroke="black" points="311.75,-209.75 311.75,-231.75 516.75,-231.75 516.75,-209.75 311.75,-209.75"/>
<text text-anchor="start" x="331.75" y="-216.3" font-family="Helvetica,sans-Serif" font-size="11.00">created_by</text>
<polygon fill="none" stroke="black" points="516.75,-209.75 516.75,-231.75 630.5,-231.75 630.5,-209.75 516.75,-209.75"/>
<text text-anchor="start" x="519.75" y="-217.05" font-family="Helvetica,sans-Serif" font-size="11.00">varchar[191]</text>
<polygon fill="none" stroke="black" points="311.75,-187.75 311.75,-209.75 516.75,-209.75 516.75,-187.75 311.75,-187.75"/>
<text text-anchor="start" x="331.75" y="-194.3" font-family="Helvetica,sans-Serif" font-size="11.00">last_modified_by</text>
<polygon fill="none" stroke="black" points="516.75,-187.75 516.75,-209.75 630.5,-209.75 630.5,-187.75 516.75,-187.75"/>
<text text-anchor="start" x="519.75" y="-195.05" font-family="Helvetica,sans-Serif" font-size="11.00">varchar[191]</text>
<polygon fill="none" stroke="black" points="311.75,-165.75 311.75,-187.75 516.75,-187.75 516.75,-165.75 311.75,-165.75"/>
<text text-anchor="start" x="331.75" y="-172.3" font-family="Helvetica,sans-Serif" font-size="11.00">created_date</text>
<polygon fill="none" stroke="black" points="516.75,-165.75 516.75,-187.75 630.5,-187.75 630.5,-165.75 516.75,-165.75"/>
<text text-anchor="start" x="519.75" y="-173.05" font-family="Helvetica,sans-Serif" font-size="11.00">timestamp[19]</text>
<polygon fill="none" stroke="black" points="311.75,-143.75 311.75,-165.75 516.75,-165.75 516.75,-143.75 311.75,-143.75"/>
<text text-anchor="start" x="331.75" y="-150.3" font-family="Helvetica,sans-Serif" font-size="11.00">last_modified_date</text>
<polygon fill="none" stroke="black" points="516.75,-143.75 516.75,-165.75 630.5,-165.75 630.5,-143.75 516.75,-143.75"/>
<text text-anchor="start" x="519.75" y="-151.05" font-family="Helvetica,sans-Serif" font-size="11.00">timestamp[19]</text>
<polygon fill="#ffffff" stroke="none" points="311.75,-124.25 311.75,-143.75 420.25,-143.75 420.25,-124.25 311.75,-124.25"/>
<polygon fill="none" stroke="black" points="311.75,-124.25 311.75,-143.75 420.25,-143.75 420.25,-124.25 311.75,-124.25"/>
<text text-anchor="start" x="314.75" y="-130.3" font-family="Helvetica,sans-Serif" font-size="11.00">&lt; 1</text>
<polygon fill="#ffffff" stroke="none" points="420.25,-124.25 420.25,-143.75 516.75,-143.75 516.75,-124.25 420.25,-124.25"/>
<polygon fill="none" stroke="black" points="420.25,-124.25 420.25,-143.75 516.75,-143.75 516.75,-124.25 420.25,-124.25"/>
<text text-anchor="start" x="506.25" y="-130.3" font-family="Helvetica,sans-Serif" font-size="11.00"> &#160;</text>
<polygon fill="#ffffff" stroke="none" points="516.75,-124.25 516.75,-143.75 630.5,-143.75 630.5,-124.25 516.75,-124.25"/>
<polygon fill="none" stroke="black" points="516.75,-124.25 516.75,-143.75 630.5,-143.75 630.5,-124.25 516.75,-124.25"/>
<text text-anchor="start" x="608" y="-130.3" font-family="Helvetica,sans-Serif" font-size="11.00">1 &gt;</text>
<polygon fill="none" stroke="black" stroke-width="2" points="310.75,-123.25 310.75,-344.25 657.5,-344.25 657.5,-123.25 310.75,-123.25"/>
</a>
</g>
</g>
<!-- doc_condreport_desc&#45;&gt;doc_condreport_desc_value -->
<g id="edge3" class="edge">
<title>doc_condreport_desc:w&#45;&gt;doc_condreport_desc_value:e</title>
<path fill="none" stroke="black" d="M721.26,-328.55C693.62,-317.59 661.89,-308.75 631.5,-308.75"/>
<polygon fill="black" stroke="black" points="728.06,-331.4 734.04,-337.81 732.05,-333.07 735.13,-334.36 735.13,-334.36 735.13,-334.36 732.05,-333.07 736.83,-331.17 728.06,-331.4"/>
<ellipse fill="none" stroke="black" cx="723.52" cy="-329.49" rx="3.2" ry="3.2"/>
</g>
<!-- doc_condreport_desc_value&#45;&gt;doc_condreport_desc_property -->
<g id="edge4" class="edge">
<title>doc_condreport_desc_value:w&#45;&gt;doc_condreport_desc_property:e</title>
<path fill="none" stroke="black" d="M295.12,-264.75C286.33,-264.75 277.39,-264.75 268.48,-264.75"/>
<polygon fill="black" stroke="black" points="302.42,-264.75 310.42,-268.35 306.75,-264.75 310.08,-264.75 310.08,-264.75 310.08,-264.75 306.75,-264.75 310.42,-261.15 302.42,-264.75"/>
<ellipse fill="none" stroke="black" cx="297.5" cy="-264.75" rx="3.2" ry="3.2"/>
</g>
<!-- doc_condreport_property_config -->
<g id="node5" class="node">
<title>doc_condreport_property_config</title>
<g id="a_node5"><a xlink:href="../../tables/doc_condreport_property_config.html" xlink:title="doc_condreport_property_config" target="_top">
<polygon fill="#ffffff" stroke="none" points="352.25,-38.5 352.25,-101 616,-101 616,-38.5 352.25,-38.5"/>
<polygon fill="#f5f5f5" stroke="none" points="352.25,-77.5 352.25,-101 616,-101 616,-77.5 352.25,-77.5"/>
<polygon fill="none" stroke="black" points="352.25,-77.5 352.25,-101 616,-101 616,-77.5 352.25,-77.5"/>
<text text-anchor="start" x="357.25" y="-86.55" font-family="Helvetica,sans-Serif" font-weight="bold" font-size="11.00">doc_condreport_property_config</text>
<text text-anchor="start" x="574.25" y="-85.55" font-family="Helvetica,sans-Serif" font-size="11.00">[table]</text>
<polygon fill="none" stroke="black" points="352.25,-58 352.25,-77.5 616,-77.5 616,-58 352.25,-58"/>
<text text-anchor="start" x="355.25" y="-64.05" font-family="Helvetica,sans-Serif" font-size="11.00">...</text>
<polygon fill="#ffffff" stroke="none" points="352.25,-38.5 352.25,-58 444.17,-58 444.17,-38.5 352.25,-38.5"/>
<polygon fill="none" stroke="black" points="352.25,-38.5 352.25,-58 444.17,-58 444.17,-38.5 352.25,-38.5"/>
<text text-anchor="start" x="355.25" y="-44.55" font-family="Helvetica,sans-Serif" font-size="11.00">&lt; 2</text>
<polygon fill="#ffffff" stroke="none" points="444.17,-38.5 444.17,-58 524.08,-58 524.08,-38.5 444.17,-38.5"/>
<polygon fill="none" stroke="black" points="444.17,-38.5 444.17,-58 524.08,-58 524.08,-38.5 444.17,-38.5"/>
<text text-anchor="start" x="513.58" y="-44.55" font-family="Helvetica,sans-Serif" font-size="11.00"> &#160;</text>
<polygon fill="#ffffff" stroke="none" points="524.08,-38.5 524.08,-58 616,-58 616,-38.5 524.08,-38.5"/>
<polygon fill="none" stroke="black" points="524.08,-38.5 524.08,-58 616,-58 616,-38.5 524.08,-38.5"/>
<text text-anchor="start" x="593.5" y="-44.55" font-family="Helvetica,sans-Serif" font-size="11.00">1 &gt;</text>
</a>
</g>
</g>
<!-- doc_condreport_property_config&#45;&gt;doc_condreport_desc_property -->
<g id="edge5" class="edge">
<title>doc_condreport_property_config:w&#45;&gt;doc_condreport_desc_property:e</title>
<path fill="none" stroke="black" d="M335.63,-68.7C248.54,-79.3 183.16,-176.02 153.29,-229.53"/>
<polygon fill="black" stroke="black" points="342.93,-68.26 351.13,-71.36 347.26,-67.99 350.58,-67.79 350.58,-67.79 350.58,-67.79 347.26,-67.99 350.7,-64.18 342.93,-68.26"/>
<ellipse fill="none" stroke="black" cx="338.02" cy="-68.55" rx="3.2" ry="3.2"/>
</g>
</g>
</svg>
