<?xml version="1.0" encoding="UTF-8" standalone="no"?>
<!DOCTYPE svg PUBLIC "-//W3C//DTD SVG 1.1//EN"
 "http://www.w3.org/Graphics/SVG/1.1/DTD/svg11.dtd">
<!-- Generated by graphviz version 12.2.0 (0)
 -->
<!-- Title: twoDegreesRelationshipsDiagram Pages: 1 -->
<svg width="1011pt" height="842pt"
 viewBox="0.00 0.00 1010.50 842.00" xmlns="http://www.w3.org/2000/svg" xmlns:xlink="http://www.w3.org/1999/xlink">
<g id="graph0" class="graph" transform="scale(1 1) rotate(0) translate(4 838)">
<title>twoDegreesRelationshipsDiagram</title>
<polygon fill="#ffffff" stroke="none" points="-4,4 -4,-838 1006.5,-838 1006.5,4 -4,4"/>
<text text-anchor="middle" x="79.25" y="-7.05" font-family="Helvetica,sans-Serif" font-size="11.00">Generated by SchemaSpy</text>
<!-- doc_condreport -->
<g id="node1" class="node">
<title>doc_condreport</title>
<g id="a_node1"><a xlink:href="../../tables/doc_condreport.html" xlink:title="doc_condreport" target="_top">
<polygon fill="#ffffff" stroke="none" points="208.12,-492.5 208.12,-599 364.12,-599 364.12,-492.5 208.12,-492.5"/>
<polygon fill="#f5f5f5" stroke="none" points="208.12,-575.5 208.12,-599 364.12,-599 364.12,-575.5 208.12,-575.5"/>
<polygon fill="none" stroke="black" points="208.12,-575.5 208.12,-599 364.12,-599 364.12,-575.5 208.12,-575.5"/>
<text text-anchor="start" x="213.12" y="-584.55" font-family="Helvetica,sans-Serif" font-weight="bold" font-size="11.00">doc_condreport</text>
<text text-anchor="start" x="322.38" y="-583.55" font-family="Helvetica,sans-Serif" font-size="11.00">[table]</text>
<polygon fill="none" stroke="black" points="208.12,-553.5 208.12,-575.5 364.12,-575.5 364.12,-553.5 208.12,-553.5"/>
<image xlink:href="../../images/primaryKeys.png" width="11px" height="12px" preserveAspectRatio="xMinYMin meet" x="213.125" y="-570.5"/>
<text text-anchor="start" x="228.12" y="-560.05" font-family="Helvetica,sans-Serif" font-size="11.00">identifier</text>
<polygon fill="#ffffff" stroke="none" points="208.12,-531.5 208.12,-553.5 364.12,-553.5 364.12,-531.5 208.12,-531.5"/>
<polygon fill="none" stroke="black" points="208.12,-531.5 208.12,-553.5 364.12,-553.5 364.12,-531.5 208.12,-531.5"/>
<image xlink:href="../../images/foreignKeys.png" width="11px" height="12px" preserveAspectRatio="xMinYMin meet" x="213.125" y="-548.5"/>
<text text-anchor="start" x="228.12" y="-538.05" font-family="Helvetica,sans-Serif" font-size="11.00">doc_unit</text>
<polygon fill="none" stroke="black" points="208.12,-512 208.12,-531.5 364.12,-531.5 364.12,-512 208.12,-512"/>
<text text-anchor="start" x="211.12" y="-518.05" font-family="Helvetica,sans-Serif" font-size="11.00">...</text>
<polygon fill="#ffffff" stroke="none" points="208.12,-492.5 208.12,-512 264.12,-512 264.12,-492.5 208.12,-492.5"/>
<polygon fill="none" stroke="black" points="208.12,-492.5 208.12,-512 264.12,-512 264.12,-492.5 208.12,-492.5"/>
<text text-anchor="start" x="211.12" y="-498.55" font-family="Helvetica,sans-Serif" font-size="11.00">&lt; 1</text>
<polygon fill="#ffffff" stroke="none" points="264.12,-492.5 264.12,-512 308.12,-512 308.12,-492.5 264.12,-492.5"/>
<polygon fill="none" stroke="black" points="264.12,-492.5 264.12,-512 308.12,-512 308.12,-492.5 264.12,-492.5"/>
<text text-anchor="start" x="297.62" y="-498.55" font-family="Helvetica,sans-Serif" font-size="11.00"> &#160;</text>
<polygon fill="#ffffff" stroke="none" points="308.12,-492.5 308.12,-512 364.12,-512 364.12,-492.5 308.12,-492.5"/>
<polygon fill="none" stroke="black" points="308.12,-492.5 308.12,-512 364.12,-512 364.12,-492.5 308.12,-492.5"/>
<text text-anchor="start" x="341.62" y="-498.55" font-family="Helvetica,sans-Serif" font-size="11.00">2 &gt;</text>
</a>
</g>
</g>
<!-- doc_unit -->
<g id="node2" class="node">
<title>doc_unit</title>
<g id="a_node2"><a xlink:href="../../tables/doc_unit.html" xlink:title="doc_unit" target="_top">
<polygon fill="#ffffff" stroke="none" points="8,-513.5 8,-576 110.75,-576 110.75,-513.5 8,-513.5"/>
<polygon fill="#f5f5f5" stroke="none" points="8,-552.5 8,-576 110.75,-576 110.75,-552.5 8,-552.5"/>
<polygon fill="none" stroke="black" points="8,-552.5 8,-576 110.75,-576 110.75,-552.5 8,-552.5"/>
<text text-anchor="start" x="13" y="-561.55" font-family="Helvetica,sans-Serif" font-weight="bold" font-size="11.00">doc_unit</text>
<text text-anchor="start" x="69" y="-560.55" font-family="Helvetica,sans-Serif" font-size="11.00">[table]</text>
<polygon fill="none" stroke="black" points="8,-533 8,-552.5 110.75,-552.5 110.75,-533 8,-533"/>
<text text-anchor="start" x="11" y="-539.05" font-family="Helvetica,sans-Serif" font-size="11.00">...</text>
<polygon fill="#ffffff" stroke="none" points="8,-513.5 8,-533 48.5,-533 48.5,-513.5 8,-513.5"/>
<polygon fill="none" stroke="black" points="8,-513.5 8,-533 48.5,-533 48.5,-513.5 8,-513.5"/>
<text text-anchor="start" x="11" y="-519.55" font-family="Helvetica,sans-Serif" font-size="11.00">&lt; 13</text>
<polygon fill="#ffffff" stroke="none" points="48.5,-513.5 48.5,-533 70.25,-533 70.25,-513.5 48.5,-513.5"/>
<polygon fill="none" stroke="black" points="48.5,-513.5 48.5,-533 70.25,-533 70.25,-513.5 48.5,-513.5"/>
<text text-anchor="start" x="59.75" y="-519.55" font-family="Helvetica,sans-Serif" font-size="11.00"> &#160;</text>
<polygon fill="#ffffff" stroke="none" points="70.25,-513.5 70.25,-533 110.75,-533 110.75,-513.5 70.25,-513.5"/>
<polygon fill="none" stroke="black" points="70.25,-513.5 70.25,-533 110.75,-533 110.75,-513.5 70.25,-513.5"/>
<text text-anchor="start" x="81.5" y="-519.55" font-family="Helvetica,sans-Serif" font-size="11.00">11 &gt;</text>
</a>
</g>
</g>
<!-- doc_condreport&#45;&gt;doc_unit -->
<g id="edge1" class="edge">
<title>doc_condreport:w&#45;&gt;doc_unit:e</title>
<path fill="none" stroke="black" d="M191.36,-542.51C161.24,-542.56 148.34,-542.75 111.75,-542.75"/>
<polygon fill="black" stroke="black" points="198.79,-542.51 206.79,-546.1 203.13,-542.5 206.46,-542.5 206.46,-542.5 206.46,-542.5 203.13,-542.5 206.79,-538.9 198.79,-542.51"/>
<ellipse fill="none" stroke="black" cx="193.87" cy="-542.51" rx="3.2" ry="3.2"/>
</g>
<!-- doc_condreport_attachment -->
<g id="node3" class="node">
<title>doc_condreport_attachment</title>
<g id="a_node3"><a xlink:href="../../tables/doc_condreport_attachment.html" xlink:title="doc_condreport_attachment" target="_top">
<polygon fill="#ffffff" stroke="none" points="491.75,-767.5 491.75,-830 727.5,-830 727.5,-767.5 491.75,-767.5"/>
<polygon fill="#f5f5f5" stroke="none" points="491.75,-806.5 491.75,-830 727.5,-830 727.5,-806.5 491.75,-806.5"/>
<polygon fill="none" stroke="black" points="491.75,-806.5 491.75,-830 727.5,-830 727.5,-806.5 491.75,-806.5"/>
<text text-anchor="start" x="496.75" y="-815.55" font-family="Helvetica,sans-Serif" font-weight="bold" font-size="11.00">doc_condreport_attachment</text>
<text text-anchor="start" x="685.75" y="-814.55" font-family="Helvetica,sans-Serif" font-size="11.00">[table]</text>
<polygon fill="none" stroke="black" points="491.75,-787 491.75,-806.5 727.5,-806.5 727.5,-787 491.75,-787"/>
<text text-anchor="start" x="494.75" y="-793.05" font-family="Helvetica,sans-Serif" font-size="11.00">...</text>
<polygon fill="#ffffff" stroke="none" points="491.75,-767.5 491.75,-787 578.33,-787 578.33,-767.5 491.75,-767.5"/>
<polygon fill="none" stroke="black" points="491.75,-767.5 491.75,-787 578.33,-787 578.33,-767.5 491.75,-767.5"/>
<text text-anchor="start" x="494.75" y="-773.55" font-family="Helvetica,sans-Serif" font-size="11.00">&lt; 1</text>
<polygon fill="#ffffff" stroke="none" points="578.33,-767.5 578.33,-787 652.92,-787 652.92,-767.5 578.33,-767.5"/>
<polygon fill="none" stroke="black" points="578.33,-767.5 578.33,-787 652.92,-787 652.92,-767.5 578.33,-767.5"/>
<text text-anchor="start" x="642.42" y="-773.55" font-family="Helvetica,sans-Serif" font-size="11.00"> &#160;</text>
<polygon fill="#ffffff" stroke="none" points="652.92,-767.5 652.92,-787 727.5,-787 727.5,-767.5 652.92,-767.5"/>
<polygon fill="none" stroke="black" points="652.92,-767.5 652.92,-787 727.5,-787 727.5,-767.5 652.92,-767.5"/>
<text text-anchor="start" x="717" y="-773.55" font-family="Helvetica,sans-Serif" font-size="11.00"> &#160;</text>
</a>
</g>
</g>
<!-- doc_condreport_attachment&#45;&gt;doc_condreport -->
<g id="edge2" class="edge">
<title>doc_condreport_attachment:w&#45;&gt;doc_condreport:e</title>
<path fill="none" stroke="black" d="M475.13,-795.14C383.51,-774.62 476.75,-564.5 365.12,-564.5"/>
<polygon fill="black" stroke="black" points="482.46,-795.9 490.05,-800.3 486.77,-796.34 490.08,-796.68 490.08,-796.68 490.08,-796.68 486.77,-796.34 490.79,-793.13 482.46,-795.9"/>
<ellipse fill="none" stroke="black" cx="477.57" cy="-795.39" rx="3.2" ry="3.2"/>
</g>
<!-- doc_condreport_desc -->
<g id="node4" class="node">
<title>doc_condreport_desc</title>
<g id="a_node4"><a xlink:href="../../tables/doc_condreport_desc.html" xlink:title="doc_condreport_desc" target="_top">
<polygon fill="#ffffff" stroke="none" points="806.75,-632.5 806.75,-783 994.5,-783 994.5,-632.5 806.75,-632.5"/>
<polygon fill="#f5f5f5" stroke="none" points="806.75,-759.5 806.75,-783 994.5,-783 994.5,-759.5 806.75,-759.5"/>
<polygon fill="none" stroke="black" points="806.75,-759.5 806.75,-783 994.5,-783 994.5,-759.5 806.75,-759.5"/>
<text text-anchor="start" x="811.75" y="-768.55" font-family="Helvetica,sans-Serif" font-weight="bold" font-size="11.00">doc_condreport_desc</text>
<text text-anchor="start" x="952.75" y="-767.55" font-family="Helvetica,sans-Serif" font-size="11.00">[table]</text>
<polygon fill="none" stroke="black" points="806.75,-737.5 806.75,-759.5 994.5,-759.5 994.5,-737.5 806.75,-737.5"/>
<image xlink:href="../../images/primaryKeys.png" width="11px" height="12px" preserveAspectRatio="xMinYMin meet" x="811.75" y="-754.5"/>
<text text-anchor="start" x="839.62" y="-744.05" font-family="Helvetica,sans-Serif" font-size="11.00">identifier</text>
<polygon fill="#ffffff" stroke="none" points="806.75,-715.5 806.75,-737.5 994.5,-737.5 994.5,-715.5 806.75,-715.5"/>
<polygon fill="none" stroke="black" points="806.75,-715.5 806.75,-737.5 994.5,-737.5 994.5,-715.5 806.75,-715.5"/>
<image xlink:href="../../images/foreignKeys.png" width="11px" height="12px" preserveAspectRatio="xMinYMin meet" x="811.75" y="-732.5"/>
<text text-anchor="start" x="839.62" y="-722.05" font-family="Helvetica,sans-Serif" font-size="11.00">property</text>
<polygon fill="#ffffff" stroke="none" points="806.75,-693.5 806.75,-715.5 994.5,-715.5 994.5,-693.5 806.75,-693.5"/>
<polygon fill="none" stroke="black" points="806.75,-693.5 806.75,-715.5 994.5,-715.5 994.5,-693.5 806.75,-693.5"/>
<image xlink:href="../../images/foreignKeys.png" width="11px" height="12px" preserveAspectRatio="xMinYMin meet" x="811.75" y="-710.5"/>
<text text-anchor="start" x="839.62" y="-700.05" font-family="Helvetica,sans-Serif" font-size="11.00">value</text>
<polygon fill="#ffffff" stroke="none" points="806.75,-671.5 806.75,-693.5 994.5,-693.5 994.5,-671.5 806.75,-671.5"/>
<polygon fill="none" stroke="black" points="806.75,-671.5 806.75,-693.5 994.5,-693.5 994.5,-671.5 806.75,-671.5"/>
<image xlink:href="../../images/foreignKeys.png" width="11px" height="12px" preserveAspectRatio="xMinYMin meet" x="811.75" y="-688.5"/>
<text text-anchor="start" x="839.62" y="-678.05" font-family="Helvetica,sans-Serif" font-size="11.00">detail</text>
<polygon fill="none" stroke="black" points="806.75,-652 806.75,-671.5 994.5,-671.5 994.5,-652 806.75,-652"/>
<text text-anchor="start" x="809.75" y="-658.05" font-family="Helvetica,sans-Serif" font-size="11.00">...</text>
<polygon fill="#ffffff" stroke="none" points="806.75,-632.5 806.75,-652 877.33,-652 877.33,-632.5 806.75,-632.5"/>
<polygon fill="none" stroke="black" points="806.75,-632.5 806.75,-652 877.33,-652 877.33,-632.5 806.75,-632.5"/>
<text text-anchor="start" x="809.75" y="-638.55" font-family="Helvetica,sans-Serif" font-size="11.00">&lt; 3</text>
<polygon fill="#ffffff" stroke="none" points="877.33,-632.5 877.33,-652 935.92,-652 935.92,-632.5 877.33,-632.5"/>
<polygon fill="none" stroke="black" points="877.33,-632.5 877.33,-652 935.92,-652 935.92,-632.5 877.33,-632.5"/>
<text text-anchor="start" x="925.42" y="-638.55" font-family="Helvetica,sans-Serif" font-size="11.00"> &#160;</text>
<polygon fill="#ffffff" stroke="none" points="935.92,-632.5 935.92,-652 994.5,-652 994.5,-632.5 935.92,-632.5"/>
<polygon fill="none" stroke="black" points="935.92,-632.5 935.92,-652 994.5,-652 994.5,-632.5 935.92,-632.5"/>
<text text-anchor="start" x="984" y="-638.55" font-family="Helvetica,sans-Serif" font-size="11.00"> &#160;</text>
</a>
</g>
</g>
<!-- doc_condreport_detail -->
<g id="node5" class="node">
<title>doc_condreport_detail</title>
<g id="a_node5"><a xlink:href="../../tables/doc_condreport_detail.html" xlink:title="doc_condreport_detail" target="_top">
<polygon fill="#ffffff" stroke="none" points="461.5,-122.25 461.5,-719.25 757.75,-719.25 757.75,-122.25 461.5,-122.25"/>
<polygon fill="#f5f5f5" stroke="none" points="463.5,-693.75 463.5,-717.25 755.75,-717.25 755.75,-693.75 463.5,-693.75"/>
<polygon fill="none" stroke="black" points="463.5,-693.75 463.5,-717.25 755.75,-717.25 755.75,-693.75 463.5,-693.75"/>
<text text-anchor="start" x="468.5" y="-702.8" font-family="Helvetica,sans-Serif" font-weight="bold" font-size="11.00">doc_condreport_detail</text>
<text text-anchor="start" x="714" y="-701.8" font-family="Helvetica,sans-Serif" font-size="11.00">[table]</text>
<polygon fill="none" stroke="black" points="463.5,-671.75 463.5,-693.75 633.5,-693.75 633.5,-671.75 463.5,-671.75"/>
<image xlink:href="../../images/primaryKeys.png" width="11px" height="12px" preserveAspectRatio="xMinYMin meet" x="468.5" y="-688.75"/>
<text text-anchor="start" x="483.5" y="-678.3" font-family="Helvetica,sans-Serif" font-size="11.00">identifier</text>
<polygon fill="none" stroke="black" points="633.5,-671.75 633.5,-693.75 738.5,-693.75 738.5,-671.75 633.5,-671.75"/>
<text text-anchor="start" x="636.5" y="-679.05" font-family="Helvetica,sans-Serif" font-size="11.00">varchar[191]</text>
<polygon fill="none" stroke="black" points="463.5,-649.75 463.5,-671.75 633.5,-671.75 633.5,-649.75 463.5,-649.75"/>
<text text-anchor="start" x="483.5" y="-656.3" font-family="Helvetica,sans-Serif" font-size="11.00">type</text>
<polygon fill="none" stroke="black" points="633.5,-649.75 633.5,-671.75 738.5,-671.75 738.5,-649.75 633.5,-649.75"/>
<text text-anchor="start" x="636.5" y="-657.05" font-family="Helvetica,sans-Serif" font-size="11.00">varchar[255]</text>
<polygon fill="none" stroke="black" points="463.5,-627.75 463.5,-649.75 633.5,-649.75 633.5,-627.75 463.5,-627.75"/>
<text text-anchor="start" x="483.5" y="-634.3" font-family="Helvetica,sans-Serif" font-size="11.00">lib_writer_name</text>
<polygon fill="none" stroke="black" points="633.5,-627.75 633.5,-649.75 738.5,-649.75 738.5,-627.75 633.5,-627.75"/>
<text text-anchor="start" x="636.5" y="-635.05" font-family="Helvetica,sans-Serif" font-size="11.00">varchar[255]</text>
<polygon fill="none" stroke="black" points="463.5,-605.75 463.5,-627.75 633.5,-627.75 633.5,-605.75 463.5,-605.75"/>
<text text-anchor="start" x="483.5" y="-612.3" font-family="Helvetica,sans-Serif" font-size="11.00">lib_writer_function</text>
<polygon fill="none" stroke="black" points="633.5,-605.75 633.5,-627.75 738.5,-627.75 738.5,-605.75 633.5,-605.75"/>
<text text-anchor="start" x="636.5" y="-613.05" font-family="Helvetica,sans-Serif" font-size="11.00">varchar[255]</text>
<polygon fill="none" stroke="black" points="463.5,-583.75 463.5,-605.75 633.5,-605.75 633.5,-583.75 463.5,-583.75"/>
<text text-anchor="start" x="483.5" y="-590.3" font-family="Helvetica,sans-Serif" font-size="11.00">prov_writer_name</text>
<polygon fill="none" stroke="black" points="633.5,-583.75 633.5,-605.75 738.5,-605.75 738.5,-583.75 633.5,-583.75"/>
<text text-anchor="start" x="636.5" y="-591.05" font-family="Helvetica,sans-Serif" font-size="11.00">varchar[255]</text>
<polygon fill="none" stroke="black" points="463.5,-561.75 463.5,-583.75 633.5,-583.75 633.5,-561.75 463.5,-561.75"/>
<text text-anchor="start" x="483.5" y="-568.3" font-family="Helvetica,sans-Serif" font-size="11.00">prov_writer_function</text>
<polygon fill="none" stroke="black" points="633.5,-561.75 633.5,-583.75 738.5,-583.75 738.5,-561.75 633.5,-561.75"/>
<text text-anchor="start" x="636.5" y="-569.05" font-family="Helvetica,sans-Serif" font-size="11.00">varchar[255]</text>
<polygon fill="none" stroke="black" points="463.5,-539.75 463.5,-561.75 633.5,-561.75 633.5,-539.75 463.5,-539.75"/>
<text text-anchor="start" x="483.5" y="-546.3" font-family="Helvetica,sans-Serif" font-size="11.00">report_date</text>
<polygon fill="none" stroke="black" points="633.5,-539.75 633.5,-561.75 738.5,-561.75 738.5,-539.75 633.5,-539.75"/>
<text text-anchor="start" x="636.5" y="-547.05" font-family="Helvetica,sans-Serif" font-size="11.00">date[10]</text>
<polygon fill="none" stroke="black" points="463.5,-517.75 463.5,-539.75 633.5,-539.75 633.5,-517.75 463.5,-517.75"/>
<text text-anchor="start" x="483.5" y="-524.3" font-family="Helvetica,sans-Serif" font-size="11.00">nb_view_binding</text>
<polygon fill="none" stroke="black" points="633.5,-517.75 633.5,-539.75 738.5,-539.75 738.5,-517.75 633.5,-517.75"/>
<text text-anchor="start" x="636.5" y="-525.05" font-family="Helvetica,sans-Serif" font-size="11.00">int[10]</text>
<polygon fill="none" stroke="black" points="463.5,-495.75 463.5,-517.75 633.5,-517.75 633.5,-495.75 463.5,-495.75"/>
<text text-anchor="start" x="483.5" y="-502.3" font-family="Helvetica,sans-Serif" font-size="11.00">nb_view_body</text>
<polygon fill="none" stroke="black" points="633.5,-495.75 633.5,-517.75 738.5,-517.75 738.5,-495.75 633.5,-495.75"/>
<text text-anchor="start" x="636.5" y="-503.05" font-family="Helvetica,sans-Serif" font-size="11.00">int[10]</text>
<polygon fill="none" stroke="black" points="463.5,-473.75 463.5,-495.75 633.5,-495.75 633.5,-473.75 463.5,-473.75"/>
<text text-anchor="start" x="483.5" y="-480.3" font-family="Helvetica,sans-Serif" font-size="11.00">nb_view_additionnal</text>
<polygon fill="none" stroke="black" points="633.5,-473.75 633.5,-495.75 738.5,-495.75 738.5,-473.75 633.5,-473.75"/>
<text text-anchor="start" x="636.5" y="-481.05" font-family="Helvetica,sans-Serif" font-size="11.00">int[10]</text>
<polygon fill="none" stroke="black" points="463.5,-451.75 463.5,-473.75 633.5,-473.75 633.5,-451.75 463.5,-451.75"/>
<text text-anchor="start" x="483.5" y="-458.3" font-family="Helvetica,sans-Serif" font-size="11.00">dim1</text>
<polygon fill="none" stroke="black" points="633.5,-451.75 633.5,-473.75 738.5,-473.75 738.5,-451.75 633.5,-451.75"/>
<text text-anchor="start" x="636.5" y="-459.05" font-family="Helvetica,sans-Serif" font-size="11.00">int[10]</text>
<polygon fill="none" stroke="black" points="463.5,-429.75 463.5,-451.75 633.5,-451.75 633.5,-429.75 463.5,-429.75"/>
<text text-anchor="start" x="483.5" y="-436.3" font-family="Helvetica,sans-Serif" font-size="11.00">dim2</text>
<polygon fill="none" stroke="black" points="633.5,-429.75 633.5,-451.75 738.5,-451.75 738.5,-429.75 633.5,-429.75"/>
<text text-anchor="start" x="636.5" y="-437.05" font-family="Helvetica,sans-Serif" font-size="11.00">int[10]</text>
<polygon fill="none" stroke="black" points="463.5,-407.75 463.5,-429.75 633.5,-429.75 633.5,-407.75 463.5,-407.75"/>
<text text-anchor="start" x="483.5" y="-414.3" font-family="Helvetica,sans-Serif" font-size="11.00">dim3</text>
<polygon fill="none" stroke="black" points="633.5,-407.75 633.5,-429.75 738.5,-429.75 738.5,-407.75 633.5,-407.75"/>
<text text-anchor="start" x="636.5" y="-415.05" font-family="Helvetica,sans-Serif" font-size="11.00">int[10]</text>
<polygon fill="none" stroke="black" points="463.5,-385.75 463.5,-407.75 633.5,-407.75 633.5,-385.75 463.5,-385.75"/>
<text text-anchor="start" x="483.5" y="-392.3" font-family="Helvetica,sans-Serif" font-size="11.00">binding_desc</text>
<polygon fill="none" stroke="black" points="633.5,-385.75 633.5,-407.75 738.5,-407.75 738.5,-385.75 633.5,-385.75"/>
<text text-anchor="start" x="636.5" y="-393.05" font-family="Helvetica,sans-Serif" font-size="11.00">text[65535]</text>
<polygon fill="none" stroke="black" points="463.5,-363.75 463.5,-385.75 633.5,-385.75 633.5,-363.75 463.5,-363.75"/>
<text text-anchor="start" x="483.5" y="-370.3" font-family="Helvetica,sans-Serif" font-size="11.00">body_desc</text>
<polygon fill="none" stroke="black" points="633.5,-363.75 633.5,-385.75 738.5,-385.75 738.5,-363.75 633.5,-363.75"/>
<text text-anchor="start" x="636.5" y="-371.05" font-family="Helvetica,sans-Serif" font-size="11.00">text[65535]</text>
<polygon fill="none" stroke="black" points="463.5,-341.75 463.5,-363.75 633.5,-363.75 633.5,-341.75 463.5,-341.75"/>
<text text-anchor="start" x="483.5" y="-348.3" font-family="Helvetica,sans-Serif" font-size="11.00">additionnal_desc</text>
<polygon fill="none" stroke="black" points="633.5,-341.75 633.5,-363.75 738.5,-363.75 738.5,-341.75 633.5,-341.75"/>
<text text-anchor="start" x="636.5" y="-349.05" font-family="Helvetica,sans-Serif" font-size="11.00">text[65535]</text>
<polygon fill="#ffffff" stroke="none" points="463.5,-319.75 463.5,-341.75 633.5,-341.75 633.5,-319.75 463.5,-319.75"/>
<polygon fill="none" stroke="black" points="463.5,-319.75 463.5,-341.75 633.5,-341.75 633.5,-319.75 463.5,-319.75"/>
<image xlink:href="../../images/foreignKeys.png" width="11px" height="12px" preserveAspectRatio="xMinYMin meet" x="468.5" y="-336.75"/>
<text text-anchor="start" x="483.5" y="-326.3" font-family="Helvetica,sans-Serif" font-size="11.00">report</text>
<polygon fill="none" stroke="black" points="633.5,-319.75 633.5,-341.75 738.5,-341.75 738.5,-319.75 633.5,-319.75"/>
<text text-anchor="start" x="636.5" y="-327.05" font-family="Helvetica,sans-Serif" font-size="11.00">varchar[191]</text>
<polygon fill="none" stroke="black" points="463.5,-297.75 463.5,-319.75 633.5,-319.75 633.5,-297.75 463.5,-297.75"/>
<text text-anchor="start" x="483.5" y="-304.3" font-family="Helvetica,sans-Serif" font-size="11.00">version</text>
<polygon fill="none" stroke="black" points="633.5,-297.75 633.5,-319.75 738.5,-319.75 738.5,-297.75 633.5,-297.75"/>
<text text-anchor="start" x="636.5" y="-305.05" font-family="Helvetica,sans-Serif" font-size="11.00">bigint[19]</text>
<polygon fill="none" stroke="black" points="463.5,-275.75 463.5,-297.75 633.5,-297.75 633.5,-275.75 463.5,-275.75"/>
<text text-anchor="start" x="483.5" y="-282.3" font-family="Helvetica,sans-Serif" font-size="11.00">created_by</text>
<polygon fill="none" stroke="black" points="633.5,-275.75 633.5,-297.75 738.5,-297.75 738.5,-275.75 633.5,-275.75"/>
<text text-anchor="start" x="636.5" y="-283.05" font-family="Helvetica,sans-Serif" font-size="11.00">varchar[191]</text>
<polygon fill="none" stroke="black" points="463.5,-253.75 463.5,-275.75 633.5,-275.75 633.5,-253.75 463.5,-253.75"/>
<text text-anchor="start" x="483.5" y="-260.3" font-family="Helvetica,sans-Serif" font-size="11.00">last_modified_by</text>
<polygon fill="none" stroke="black" points="633.5,-253.75 633.5,-275.75 738.5,-275.75 738.5,-253.75 633.5,-253.75"/>
<text text-anchor="start" x="636.5" y="-261.05" font-family="Helvetica,sans-Serif" font-size="11.00">varchar[191]</text>
<polygon fill="none" stroke="black" points="463.5,-231.75 463.5,-253.75 633.5,-253.75 633.5,-231.75 463.5,-231.75"/>
<text text-anchor="start" x="483.5" y="-238.3" font-family="Helvetica,sans-Serif" font-size="11.00">created_date</text>
<polygon fill="none" stroke="black" points="633.5,-231.75 633.5,-253.75 738.5,-253.75 738.5,-231.75 633.5,-231.75"/>
<text text-anchor="start" x="636.5" y="-239.05" font-family="Helvetica,sans-Serif" font-size="11.00">timestamp[19]</text>
<polygon fill="none" stroke="black" points="463.5,-209.75 463.5,-231.75 633.5,-231.75 633.5,-209.75 463.5,-209.75"/>
<text text-anchor="start" x="483.5" y="-216.3" font-family="Helvetica,sans-Serif" font-size="11.00">last_modified_date</text>
<polygon fill="none" stroke="black" points="633.5,-209.75 633.5,-231.75 738.5,-231.75 738.5,-209.75 633.5,-209.75"/>
<text text-anchor="start" x="636.5" y="-217.05" font-family="Helvetica,sans-Serif" font-size="11.00">timestamp[19]</text>
<polygon fill="none" stroke="black" points="463.5,-187.75 463.5,-209.75 633.5,-209.75 633.5,-187.75 463.5,-187.75"/>
<text text-anchor="start" x="483.5" y="-194.3" font-family="Helvetica,sans-Serif" font-size="11.00">insurance</text>
<polygon fill="none" stroke="black" points="633.5,-187.75 633.5,-209.75 738.5,-209.75 738.5,-187.75 633.5,-187.75"/>
<text text-anchor="start" x="636.5" y="-195.05" font-family="Helvetica,sans-Serif" font-size="11.00">double[22]</text>
<polygon fill="none" stroke="black" points="463.5,-165.75 463.5,-187.75 633.5,-187.75 633.5,-165.75 463.5,-165.75"/>
<text text-anchor="start" x="483.5" y="-172.3" font-family="Helvetica,sans-Serif" font-size="11.00">position</text>
<polygon fill="none" stroke="black" points="633.5,-165.75 633.5,-187.75 738.5,-187.75 738.5,-165.75 633.5,-165.75"/>
<text text-anchor="start" x="636.5" y="-173.05" font-family="Helvetica,sans-Serif" font-size="11.00">int[10]</text>
<polygon fill="none" stroke="black" points="463.5,-143.75 463.5,-165.75 633.5,-165.75 633.5,-143.75 463.5,-143.75"/>
<text text-anchor="start" x="483.5" y="-150.3" font-family="Helvetica,sans-Serif" font-size="11.00">comment</text>
<polygon fill="none" stroke="black" points="633.5,-143.75 633.5,-165.75 738.5,-165.75 738.5,-143.75 633.5,-143.75"/>
<text text-anchor="start" x="636.5" y="-151.05" font-family="Helvetica,sans-Serif" font-size="11.00">text[65535]</text>
<polygon fill="#ffffff" stroke="none" points="463.5,-124.25 463.5,-143.75 554.5,-143.75 554.5,-124.25 463.5,-124.25"/>
<polygon fill="none" stroke="black" points="463.5,-124.25 463.5,-143.75 554.5,-143.75 554.5,-124.25 463.5,-124.25"/>
<text text-anchor="start" x="466.5" y="-130.3" font-family="Helvetica,sans-Serif" font-size="11.00">&lt; 1</text>
<polygon fill="#ffffff" stroke="none" points="554.5,-124.25 554.5,-143.75 633.5,-143.75 633.5,-124.25 554.5,-124.25"/>
<polygon fill="none" stroke="black" points="554.5,-124.25 554.5,-143.75 633.5,-143.75 633.5,-124.25 554.5,-124.25"/>
<text text-anchor="start" x="623" y="-130.3" font-family="Helvetica,sans-Serif" font-size="11.00"> &#160;</text>
<polygon fill="#ffffff" stroke="none" points="633.5,-124.25 633.5,-143.75 738.5,-143.75 738.5,-124.25 633.5,-124.25"/>
<polygon fill="none" stroke="black" points="633.5,-124.25 633.5,-143.75 738.5,-143.75 738.5,-124.25 633.5,-124.25"/>
<text text-anchor="start" x="716" y="-130.3" font-family="Helvetica,sans-Serif" font-size="11.00">1 &gt;</text>
<polygon fill="none" stroke="black" stroke-width="2" points="462.5,-123.25 462.5,-718.25 756.75,-718.25 756.75,-123.25 462.5,-123.25"/>
</a>
</g>
</g>
<!-- doc_condreport_desc&#45;&gt;doc_condreport_detail -->
<g id="edge3" class="edge">
<title>doc_condreport_desc:w&#45;&gt;doc_condreport_detail:e</title>
<path fill="none" stroke="black" d="M789.91,-682.53C772.31,-682.59 762.85,-682.75 739.5,-682.75"/>
<polygon fill="black" stroke="black" points="797.42,-682.51 805.42,-686.1 801.75,-682.51 805.08,-682.5 805.08,-682.5 805.08,-682.5 801.75,-682.51 805.41,-678.9 797.42,-682.51"/>
<ellipse fill="none" stroke="black" cx="792.5" cy="-682.52" rx="3.2" ry="3.2"/>
</g>
<!-- doc_condreport_desc_property -->
<g id="node6" class="node">
<title>doc_condreport_desc_property</title>
<g id="a_node6"><a xlink:href="../../tables/doc_condreport_desc_property.html" xlink:title="doc_condreport_desc_property" target="_top">
<polygon fill="#ffffff" stroke="none" points="159.75,-223.5 159.75,-286 412.5,-286 412.5,-223.5 159.75,-223.5"/>
<polygon fill="#f5f5f5" stroke="none" points="159.75,-262.5 159.75,-286 412.5,-286 412.5,-262.5 159.75,-262.5"/>
<polygon fill="none" stroke="black" points="159.75,-262.5 159.75,-286 412.5,-286 412.5,-262.5 159.75,-262.5"/>
<text text-anchor="start" x="164.75" y="-271.55" font-family="Helvetica,sans-Serif" font-weight="bold" font-size="11.00">doc_condreport_desc_property</text>
<text text-anchor="start" x="370.75" y="-270.55" font-family="Helvetica,sans-Serif" font-size="11.00">[table]</text>
<polygon fill="none" stroke="black" points="159.75,-243 159.75,-262.5 412.5,-262.5 412.5,-243 159.75,-243"/>
<text text-anchor="start" x="162.75" y="-249.05" font-family="Helvetica,sans-Serif" font-size="11.00">...</text>
<polygon fill="#ffffff" stroke="none" points="159.75,-223.5 159.75,-243 240,-243 240,-223.5 159.75,-223.5"/>
<polygon fill="none" stroke="black" points="159.75,-223.5 159.75,-243 240,-243 240,-223.5 159.75,-223.5"/>
<text text-anchor="start" x="162.75" y="-229.55" font-family="Helvetica,sans-Serif" font-size="11.00"> &#160;</text>
<polygon fill="#ffffff" stroke="none" points="240,-223.5 240,-243 320.25,-243 320.25,-223.5 240,-223.5"/>
<polygon fill="none" stroke="black" points="240,-223.5 240,-243 320.25,-243 320.25,-223.5 240,-223.5"/>
<text text-anchor="start" x="309.75" y="-229.55" font-family="Helvetica,sans-Serif" font-size="11.00"> &#160;</text>
<polygon fill="#ffffff" stroke="none" points="320.25,-223.5 320.25,-243 412.5,-243 412.5,-223.5 320.25,-223.5"/>
<polygon fill="none" stroke="black" points="320.25,-223.5 320.25,-243 412.5,-243 412.5,-223.5 320.25,-223.5"/>
<text text-anchor="start" x="390" y="-229.55" font-family="Helvetica,sans-Serif" font-size="11.00">3 &gt;</text>
</a>
</g>
</g>
<!-- doc_condreport_desc&#45;&gt;doc_condreport_desc_property -->
<g id="edge4" class="edge">
<title>doc_condreport_desc:w&#45;&gt;doc_condreport_desc_property:e</title>
<path fill="none" stroke="black" d="M789.95,-727.34C782.76,-728.14 776.89,-729.3 765.75,-729.75 696.42,-732.56 504.57,-776.72 453.5,-729.75 414.35,-693.75 466.69,-252.75 413.5,-252.75"/>
<polygon fill="black" stroke="black" points="797.43,-726.94 805.61,-730.11 801.76,-726.71 805.08,-726.54 805.08,-726.54 805.08,-726.54 801.76,-726.71 805.23,-722.92 797.43,-726.94"/>
<ellipse fill="none" stroke="black" cx="792.52" cy="-727.2" rx="3.2" ry="3.2"/>
</g>
<!-- doc_condreport_desc_value -->
<g id="node7" class="node">
<title>doc_condreport_desc_value</title>
<g id="a_node7"><a xlink:href="../../tables/doc_condreport_desc_value.html" xlink:title="doc_condreport_desc_value" target="_top">
<polygon fill="#ffffff" stroke="none" points="494.25,-38.5 494.25,-101 725,-101 725,-38.5 494.25,-38.5"/>
<polygon fill="#f5f5f5" stroke="none" points="494.25,-77.5 494.25,-101 725,-101 725,-77.5 494.25,-77.5"/>
<polygon fill="none" stroke="black" points="494.25,-77.5 494.25,-101 725,-101 725,-77.5 494.25,-77.5"/>
<text text-anchor="start" x="499.25" y="-86.55" font-family="Helvetica,sans-Serif" font-weight="bold" font-size="11.00">doc_condreport_desc_value</text>
<text text-anchor="start" x="683.25" y="-85.55" font-family="Helvetica,sans-Serif" font-size="11.00">[table]</text>
<polygon fill="none" stroke="black" points="494.25,-58 494.25,-77.5 725,-77.5 725,-58 494.25,-58"/>
<text text-anchor="start" x="497.25" y="-64.05" font-family="Helvetica,sans-Serif" font-size="11.00">...</text>
<polygon fill="#ffffff" stroke="none" points="494.25,-38.5 494.25,-58 575.17,-58 575.17,-38.5 494.25,-38.5"/>
<polygon fill="none" stroke="black" points="494.25,-38.5 494.25,-58 575.17,-58 575.17,-38.5 494.25,-38.5"/>
<text text-anchor="start" x="497.25" y="-44.55" font-family="Helvetica,sans-Serif" font-size="11.00">&lt; 1</text>
<polygon fill="#ffffff" stroke="none" points="575.17,-38.5 575.17,-58 644.08,-58 644.08,-38.5 575.17,-38.5"/>
<polygon fill="none" stroke="black" points="575.17,-38.5 575.17,-58 644.08,-58 644.08,-38.5 575.17,-38.5"/>
<text text-anchor="start" x="633.58" y="-44.55" font-family="Helvetica,sans-Serif" font-size="11.00"> &#160;</text>
<polygon fill="#ffffff" stroke="none" points="644.08,-38.5 644.08,-58 725,-58 725,-38.5 644.08,-38.5"/>
<polygon fill="none" stroke="black" points="644.08,-38.5 644.08,-58 725,-58 725,-38.5 644.08,-38.5"/>
<text text-anchor="start" x="702.5" y="-44.55" font-family="Helvetica,sans-Serif" font-size="11.00">1 &gt;</text>
</a>
</g>
</g>
<!-- doc_condreport_desc&#45;&gt;doc_condreport_desc_value -->
<g id="edge5" class="edge">
<title>doc_condreport_desc:w&#45;&gt;doc_condreport_desc_value:e</title>
<path fill="none" stroke="black" d="M792.63,-695.68C747.18,-626.19 789.56,-167.89 765.75,-111.75 755.46,-87.49 752.35,-67.75 726,-67.75"/>
<polygon fill="black" stroke="black" points="798.83,-699.85 803.46,-707.3 802.43,-702.27 805.19,-704.13 805.19,-704.13 805.19,-704.13 802.43,-702.27 807.48,-701.33 798.83,-699.85"/>
<ellipse fill="none" stroke="black" cx="794.75" cy="-697.11" rx="3.2" ry="3.2"/>
</g>
<!-- doc_condreport_detail&#45;&gt;doc_condreport -->
<g id="edge7" class="edge">
<title>doc_condreport_detail:w&#45;&gt;doc_condreport:e</title>
<path fill="none" stroke="black" d="M446.89,-332.56C362.53,-354.32 471.84,-564.5 365.12,-564.5"/>
<polygon fill="black" stroke="black" points="454.22,-331.71 462.58,-334.36 458.53,-331.21 461.84,-330.83 461.84,-330.83 461.84,-330.83 458.53,-331.21 461.75,-327.21 454.22,-331.71"/>
<ellipse fill="none" stroke="black" cx="449.34" cy="-332.28" rx="3.2" ry="3.2"/>
</g>
<!-- doc_condreport_desc_value&#45;&gt;doc_condreport_desc_property -->
<g id="edge6" class="edge">
<title>doc_condreport_desc_value:w&#45;&gt;doc_condreport_desc_property:e</title>
<path fill="none" stroke="black" d="M478.09,-71.17C465.88,-78.02 463.17,-94.28 453.5,-111.75 421.95,-168.74 478.64,-252.75 413.5,-252.75"/>
<polygon fill="black" stroke="black" points="485.12,-69.58 493.72,-71.34 489.35,-68.63 492.6,-67.9 492.6,-67.9 492.6,-67.9 489.35,-68.63 492.13,-64.31 485.12,-69.58"/>
<ellipse fill="none" stroke="black" cx="480.32" cy="-70.66" rx="3.2" ry="3.2"/>
</g>
</g>
</svg>
