<?xml version="1.0" encoding="UTF-8" standalone="no"?>
<!DOCTYPE svg PUBLIC "-//W3C//DTD SVG 1.1//EN"
 "http://www.w3.org/Graphics/SVG/1.1/DTD/svg11.dtd">
<!-- Generated by graphviz version 12.2.0 (0)
 -->
<!-- Title: twoDegreesRelationshipsDiagram Pages: 1 -->
<svg width="1087pt" height="197pt"
 viewBox="0.00 0.00 1087.00 197.00" xmlns="http://www.w3.org/2000/svg" xmlns:xlink="http://www.w3.org/1999/xlink">
<g id="graph0" class="graph" transform="scale(1 1) rotate(0) translate(4 193)">
<title>twoDegreesRelationshipsDiagram</title>
<polygon fill="#ffffff" stroke="none" points="-4,4 -4,-193 1083,-193 1083,4 -4,4"/>
<text text-anchor="middle" x="79.25" y="-7.05" font-family="Helvetica,sans-Serif" font-size="11.00">Generated by SchemaSpy</text>
<!-- doc_condreport_property_config -->
<g id="node1" class="node">
<title>doc_condreport_property_config</title>
<g id="a_node1"><a xlink:href="../../tables/doc_condreport_property_config.html" xlink:title="doc_condreport_property_config" target="_top">
<polygon fill="#ffffff" stroke="none" points="309.75,-48.5 309.75,-177 573.5,-177 573.5,-48.5 309.75,-48.5"/>
<polygon fill="#f5f5f5" stroke="none" points="309.75,-153.5 309.75,-177 573.5,-177 573.5,-153.5 309.75,-153.5"/>
<polygon fill="none" stroke="black" points="309.75,-153.5 309.75,-177 573.5,-177 573.5,-153.5 309.75,-153.5"/>
<text text-anchor="start" x="314.75" y="-162.55" font-family="Helvetica,sans-Serif" font-weight="bold" font-size="11.00">doc_condreport_property_config</text>
<text text-anchor="start" x="531.75" y="-161.55" font-family="Helvetica,sans-Serif" font-size="11.00">[table]</text>
<polygon fill="none" stroke="black" points="309.75,-131.5 309.75,-153.5 573.5,-153.5 573.5,-131.5 309.75,-131.5"/>
<image xlink:href="../../images/primaryKeys.png" width="11px" height="12px" preserveAspectRatio="xMinYMin meet" x="314.75" y="-148.5"/>
<text text-anchor="start" x="342.62" y="-138.05" font-family="Helvetica,sans-Serif" font-size="11.00">identifier</text>
<polygon fill="#ffffff" stroke="none" points="309.75,-109.5 309.75,-131.5 573.5,-131.5 573.5,-109.5 309.75,-109.5"/>
<polygon fill="none" stroke="black" points="309.75,-109.5 309.75,-131.5 573.5,-131.5 573.5,-109.5 309.75,-109.5"/>
<image xlink:href="../../images/foreignKeys.png" width="11px" height="12px" preserveAspectRatio="xMinYMin meet" x="314.75" y="-126.5"/>
<text text-anchor="start" x="342.62" y="-116.05" font-family="Helvetica,sans-Serif" font-size="11.00">library</text>
<polygon fill="#ffffff" stroke="none" points="309.75,-87.5 309.75,-109.5 573.5,-109.5 573.5,-87.5 309.75,-87.5"/>
<polygon fill="none" stroke="black" points="309.75,-87.5 309.75,-109.5 573.5,-109.5 573.5,-87.5 309.75,-87.5"/>
<image xlink:href="../../images/foreignKeys.png" width="11px" height="12px" preserveAspectRatio="xMinYMin meet" x="314.75" y="-104.5"/>
<text text-anchor="start" x="342.62" y="-94.05" font-family="Helvetica,sans-Serif" font-size="11.00">desc_property</text>
<polygon fill="none" stroke="black" points="309.75,-68 309.75,-87.5 573.5,-87.5 573.5,-68 309.75,-68"/>
<text text-anchor="start" x="312.75" y="-74.05" font-family="Helvetica,sans-Serif" font-size="11.00">...</text>
<polygon fill="#ffffff" stroke="none" points="309.75,-48.5 309.75,-68 401.67,-68 401.67,-48.5 309.75,-48.5"/>
<polygon fill="none" stroke="black" points="309.75,-48.5 309.75,-68 401.67,-68 401.67,-48.5 309.75,-48.5"/>
<text text-anchor="start" x="312.75" y="-54.55" font-family="Helvetica,sans-Serif" font-size="11.00">&lt; 2</text>
<polygon fill="#ffffff" stroke="none" points="401.67,-48.5 401.67,-68 481.58,-68 481.58,-48.5 401.67,-48.5"/>
<polygon fill="none" stroke="black" points="401.67,-48.5 401.67,-68 481.58,-68 481.58,-48.5 401.67,-48.5"/>
<text text-anchor="start" x="471.08" y="-54.55" font-family="Helvetica,sans-Serif" font-size="11.00"> &#160;</text>
<polygon fill="#ffffff" stroke="none" points="481.58,-48.5 481.58,-68 573.5,-68 573.5,-48.5 481.58,-48.5"/>
<polygon fill="none" stroke="black" points="481.58,-48.5 481.58,-68 573.5,-68 573.5,-48.5 481.58,-48.5"/>
<text text-anchor="start" x="551" y="-54.55" font-family="Helvetica,sans-Serif" font-size="11.00">1 &gt;</text>
</a>
</g>
</g>
<!-- doc_condreport_desc_property -->
<g id="node2" class="node">
<title>doc_condreport_desc_property</title>
<g id="a_node2"><a xlink:href="../../tables/doc_condreport_desc_property.html" xlink:title="doc_condreport_desc_property" target="_top">
<polygon fill="#ffffff" stroke="none" points="8,-38.5 8,-101 260.75,-101 260.75,-38.5 8,-38.5"/>
<polygon fill="#f5f5f5" stroke="none" points="8,-77.5 8,-101 260.75,-101 260.75,-77.5 8,-77.5"/>
<polygon fill="none" stroke="black" points="8,-77.5 8,-101 260.75,-101 260.75,-77.5 8,-77.5"/>
<text text-anchor="start" x="13" y="-86.55" font-family="Helvetica,sans-Serif" font-weight="bold" font-size="11.00">doc_condreport_desc_property</text>
<text text-anchor="start" x="219" y="-85.55" font-family="Helvetica,sans-Serif" font-size="11.00">[table]</text>
<polygon fill="none" stroke="black" points="8,-58 8,-77.5 260.75,-77.5 260.75,-58 8,-58"/>
<text text-anchor="start" x="11" y="-64.05" font-family="Helvetica,sans-Serif" font-size="11.00">...</text>
<polygon fill="#ffffff" stroke="none" points="8,-38.5 8,-58 88.25,-58 88.25,-38.5 8,-38.5"/>
<polygon fill="none" stroke="black" points="8,-38.5 8,-58 88.25,-58 88.25,-38.5 8,-38.5"/>
<text text-anchor="start" x="11" y="-44.55" font-family="Helvetica,sans-Serif" font-size="11.00"> &#160;</text>
<polygon fill="#ffffff" stroke="none" points="88.25,-38.5 88.25,-58 168.5,-58 168.5,-38.5 88.25,-38.5"/>
<polygon fill="none" stroke="black" points="88.25,-38.5 88.25,-58 168.5,-58 168.5,-38.5 88.25,-38.5"/>
<text text-anchor="start" x="158" y="-44.55" font-family="Helvetica,sans-Serif" font-size="11.00"> &#160;</text>
<polygon fill="#ffffff" stroke="none" points="168.5,-38.5 168.5,-58 260.75,-58 260.75,-38.5 168.5,-38.5"/>
<polygon fill="none" stroke="black" points="168.5,-38.5 168.5,-58 260.75,-58 260.75,-38.5 168.5,-38.5"/>
<text text-anchor="start" x="238.25" y="-44.55" font-family="Helvetica,sans-Serif" font-size="11.00">3 &gt;</text>
</a>
</g>
</g>
<!-- doc_condreport_property_config&#45;&gt;doc_condreport_desc_property -->
<g id="edge1" class="edge">
<title>doc_condreport_property_config:w&#45;&gt;doc_condreport_desc_property:e</title>
<path fill="none" stroke="black" d="M294.05,-93.42C283.44,-84.69 280.28,-67.75 261.75,-67.75"/>
<polygon fill="black" stroke="black" points="300.87,-95.78 307.26,-101.79 304.97,-97.19 308.12,-98.28 308.12,-98.28 308.12,-98.28 304.97,-97.19 309.61,-94.99 300.87,-95.78"/>
<ellipse fill="none" stroke="black" cx="296.22" cy="-94.17" rx="3.2" ry="3.2"/>
</g>
<!-- lib_library -->
<g id="node3" class="node">
<title>lib_library</title>
<g id="a_node3"><a xlink:href="../../tables/lib_library.html" xlink:title="lib_library" target="_top">
<polygon fill="#ffffff" stroke="none" points="77.5,-122.5 77.5,-185 191.25,-185 191.25,-122.5 77.5,-122.5"/>
<polygon fill="#f5f5f5" stroke="none" points="77.5,-161.5 77.5,-185 191.25,-185 191.25,-161.5 77.5,-161.5"/>
<polygon fill="none" stroke="black" points="77.5,-161.5 77.5,-185 191.25,-185 191.25,-161.5 77.5,-161.5"/>
<text text-anchor="start" x="82.5" y="-170.55" font-family="Helvetica,sans-Serif" font-weight="bold" font-size="11.00">lib_library</text>
<text text-anchor="start" x="149.5" y="-169.55" font-family="Helvetica,sans-Serif" font-size="11.00">[table]</text>
<polygon fill="none" stroke="black" points="77.5,-142 77.5,-161.5 191.25,-161.5 191.25,-142 77.5,-142"/>
<text text-anchor="start" x="80.5" y="-148.05" font-family="Helvetica,sans-Serif" font-size="11.00">...</text>
<polygon fill="#ffffff" stroke="none" points="77.5,-122.5 77.5,-142 117.17,-142 117.17,-122.5 77.5,-122.5"/>
<polygon fill="none" stroke="black" points="77.5,-122.5 77.5,-142 117.17,-142 117.17,-122.5 77.5,-122.5"/>
<text text-anchor="start" x="80.5" y="-128.55" font-family="Helvetica,sans-Serif" font-size="11.00">&lt; 6</text>
<polygon fill="#ffffff" stroke="none" points="117.17,-122.5 117.17,-142 144.83,-142 144.83,-122.5 117.17,-122.5"/>
<polygon fill="none" stroke="black" points="117.17,-122.5 117.17,-142 144.83,-142 144.83,-122.5 117.17,-122.5"/>
<text text-anchor="start" x="134.33" y="-128.55" font-family="Helvetica,sans-Serif" font-size="11.00"> &#160;</text>
<polygon fill="#ffffff" stroke="none" points="144.83,-122.5 144.83,-142 191.25,-142 191.25,-122.5 144.83,-122.5"/>
<polygon fill="none" stroke="black" points="144.83,-122.5 144.83,-142 191.25,-142 191.25,-122.5 144.83,-122.5"/>
<text text-anchor="start" x="162" y="-128.55" font-family="Helvetica,sans-Serif" font-size="11.00">27 &gt;</text>
</a>
</g>
</g>
<!-- doc_condreport_property_config&#45;&gt;lib_library -->
<g id="edge2" class="edge">
<title>doc_condreport_property_config:w&#45;&gt;lib_library:e</title>
<path fill="none" stroke="black" d="M293.16,-121.47C252.69,-126.74 240.2,-151.75 192.25,-151.75"/>
<polygon fill="black" stroke="black" points="300.43,-121.02 308.64,-124.11 304.76,-120.75 308.08,-120.54 308.08,-120.54 308.08,-120.54 304.76,-120.75 308.19,-116.93 300.43,-121.02"/>
<ellipse fill="none" stroke="black" cx="295.52" cy="-121.32" rx="3.2" ry="3.2"/>
</g>
<!-- doc_condreport_property_config_type -->
<g id="node4" class="node">
<title>doc_condreport_property_config_type</title>
<g id="a_node4"><a xlink:href="../../tables/doc_condreport_property_config_type.html" xlink:title="doc_condreport_property_config_type" target="_top">
<polygon fill="#ffffff" stroke="none" points="622.5,-87.25 622.5,-178.25 1071,-178.25 1071,-87.25 622.5,-87.25"/>
<polygon fill="#f5f5f5" stroke="none" points="624.5,-152.75 624.5,-176.25 1069,-176.25 1069,-152.75 624.5,-152.75"/>
<polygon fill="none" stroke="black" points="624.5,-152.75 624.5,-176.25 1069,-176.25 1069,-152.75 624.5,-152.75"/>
<text text-anchor="start" x="629.5" y="-161.8" font-family="Helvetica,sans-Serif" font-weight="bold" font-size="11.00">doc_condreport_property_config_type</text>
<text text-anchor="start" x="1027.25" y="-160.8" font-family="Helvetica,sans-Serif" font-size="11.00">[table]</text>
<polygon fill="#ffffff" stroke="none" points="624.5,-130.75 624.5,-152.75 899.5,-152.75 899.5,-130.75 624.5,-130.75"/>
<polygon fill="none" stroke="black" points="624.5,-130.75 624.5,-152.75 899.5,-152.75 899.5,-130.75 624.5,-130.75"/>
<image xlink:href="../../images/foreignKeys.png" width="11px" height="12px" preserveAspectRatio="xMinYMin meet" x="629.5" y="-147.75"/>
<text text-anchor="start" x="644.5" y="-137.3" font-family="Helvetica,sans-Serif" font-size="11.00">conf</text>
<polygon fill="none" stroke="black" points="899.5,-130.75 899.5,-152.75 1022.88,-152.75 1022.88,-130.75 899.5,-130.75"/>
<text text-anchor="start" x="902.5" y="-138.05" font-family="Helvetica,sans-Serif" font-size="11.00">varchar[191]</text>
<polygon fill="none" stroke="black" points="624.5,-108.75 624.5,-130.75 899.5,-130.75 899.5,-108.75 624.5,-108.75"/>
<text text-anchor="start" x="644.5" y="-115.3" font-family="Helvetica,sans-Serif" font-size="11.00">type</text>
<polygon fill="none" stroke="black" points="899.5,-108.75 899.5,-130.75 1022.88,-130.75 1022.88,-108.75 899.5,-108.75"/>
<text text-anchor="start" x="902.5" y="-116.05" font-family="Helvetica,sans-Serif" font-size="11.00">varchar[255]</text>
<polygon fill="#ffffff" stroke="none" points="624.5,-89.25 624.5,-108.75 768,-108.75 768,-89.25 624.5,-89.25"/>
<polygon fill="none" stroke="black" points="624.5,-89.25 624.5,-108.75 768,-108.75 768,-89.25 624.5,-89.25"/>
<text text-anchor="start" x="627.5" y="-95.3" font-family="Helvetica,sans-Serif" font-size="11.00">&lt; 1</text>
<polygon fill="#ffffff" stroke="none" points="768,-89.25 768,-108.75 899.5,-108.75 899.5,-89.25 768,-89.25"/>
<polygon fill="none" stroke="black" points="768,-89.25 768,-108.75 899.5,-108.75 899.5,-89.25 768,-89.25"/>
<text text-anchor="start" x="889" y="-95.3" font-family="Helvetica,sans-Serif" font-size="11.00"> &#160;</text>
<polygon fill="#ffffff" stroke="none" points="899.5,-89.25 899.5,-108.75 1022.88,-108.75 1022.88,-89.25 899.5,-89.25"/>
<polygon fill="none" stroke="black" points="899.5,-89.25 899.5,-108.75 1022.88,-108.75 1022.88,-89.25 899.5,-89.25"/>
<text text-anchor="start" x="1000.38" y="-95.3" font-family="Helvetica,sans-Serif" font-size="11.00">0 &gt;</text>
<polygon fill="none" stroke="black" stroke-width="2" points="623.5,-88.25 623.5,-177.25 1070,-177.25 1070,-88.25 623.5,-88.25"/>
</a>
</g>
</g>
<!-- doc_condreport_property_config_type&#45;&gt;doc_condreport_property_config -->
<g id="edge3" class="edge">
<title>doc_condreport_property_config_type:w&#45;&gt;doc_condreport_property_config:e</title>
<path fill="none" stroke="black" d="M607.92,-141.9C597.21,-142.12 589.98,-142.5 574.5,-142.5"/>
<polygon fill="black" stroke="black" points="615.17,-141.83 623.2,-145.35 619.5,-141.79 622.83,-141.76 622.83,-141.76 622.83,-141.76 619.5,-141.79 623.13,-138.15 615.17,-141.83"/>
<ellipse fill="none" stroke="black" cx="610.25" cy="-141.88" rx="3.2" ry="3.2"/>
</g>
</g>
</svg>
