<?xml version="1.0" encoding="UTF-8" standalone="no"?>
<!DOCTYPE svg PUBLIC "-//W3C//DTD SVG 1.1//EN"
 "http://www.w3.org/Graphics/SVG/1.1/DTD/svg11.dtd">
<!-- Generated by graphviz version 12.2.0 (0)
 -->
<!-- Title: oneDegreeRelationshipsDiagram Pages: 1 -->
<svg width="461pt" height="296pt"
 viewBox="0.00 0.00 460.75 295.50" xmlns="http://www.w3.org/2000/svg" xmlns:xlink="http://www.w3.org/1999/xlink">
<g id="graph0" class="graph" transform="scale(1 1) rotate(0) translate(4 291.5)">
<title>oneDegreeRelationshipsDiagram</title>
<polygon fill="#ffffff" stroke="none" points="-4,4 -4,-291.5 456.75,-291.5 456.75,4 -4,4"/>
<text text-anchor="middle" x="79.25" y="-7.05" font-family="Helvetica,sans-Serif" font-size="11.00">Generated by SchemaSpy</text>
<!-- doc_check -->
<g id="node1" class="node">
<title>doc_check</title>
<g id="a_node1"><a xlink:href="../../tables/doc_check.html" xlink:title="doc_check" target="_top">
<polygon fill="#ffffff" stroke="none" points="205,-38.5 205,-283.5 444.75,-283.5 444.75,-38.5 205,-38.5"/>
<polygon fill="#f5f5f5" stroke="none" points="207,-258 207,-281.5 442.75,-281.5 442.75,-258 207,-258"/>
<polygon fill="none" stroke="black" points="207,-258 207,-281.5 442.75,-281.5 442.75,-258 207,-258"/>
<text text-anchor="start" x="212" y="-267.05" font-family="Helvetica,sans-Serif" font-weight="bold" font-size="11.00">doc_check</text>
<text text-anchor="start" x="401" y="-266.05" font-family="Helvetica,sans-Serif" font-size="11.00">[table]</text>
<polygon fill="none" stroke="black" points="207,-236 207,-258 355,-258 355,-236 207,-236"/>
<image xlink:href="../../images/primaryKeys.png" width="11px" height="12px" preserveAspectRatio="xMinYMin meet" x="212" y="-253"/>
<text text-anchor="start" x="227" y="-242.55" font-family="Helvetica,sans-Serif" font-size="11.00">identifier</text>
<polygon fill="none" stroke="black" points="355,-236 355,-258 442.75,-258 442.75,-236 355,-236"/>
<text text-anchor="start" x="358" y="-243.3" font-family="Helvetica,sans-Serif" font-size="11.00">varchar[191]</text>
<polygon fill="none" stroke="black" points="207,-214 207,-236 355,-236 355,-214 207,-214"/>
<text text-anchor="start" x="227" y="-220.55" font-family="Helvetica,sans-Serif" font-size="11.00">err_label</text>
<polygon fill="none" stroke="black" points="355,-214 355,-236 442.75,-236 442.75,-214 355,-214"/>
<text text-anchor="start" x="358" y="-221.3" font-family="Helvetica,sans-Serif" font-size="11.00">varchar[255]</text>
<polygon fill="none" stroke="black" points="207,-192 207,-214 355,-214 355,-192 207,-192"/>
<text text-anchor="start" x="227" y="-198.55" font-family="Helvetica,sans-Serif" font-size="11.00">err_type</text>
<polygon fill="none" stroke="black" points="355,-192 355,-214 442.75,-214 442.75,-192 355,-192"/>
<text text-anchor="start" x="358" y="-199.3" font-family="Helvetica,sans-Serif" font-size="11.00">varchar[255]</text>
<polygon fill="#ffffff" stroke="none" points="207,-170 207,-192 355,-192 355,-170 207,-170"/>
<polygon fill="none" stroke="black" points="207,-170 207,-192 355,-192 355,-170 207,-170"/>
<image xlink:href="../../images/foreignKeys.png" width="11px" height="12px" preserveAspectRatio="xMinYMin meet" x="212" y="-187"/>
<text text-anchor="start" x="227" y="-176.55" font-family="Helvetica,sans-Serif" font-size="11.00">page</text>
<polygon fill="none" stroke="black" points="355,-170 355,-192 442.75,-192 442.75,-170 355,-170"/>
<text text-anchor="start" x="358" y="-177.3" font-family="Helvetica,sans-Serif" font-size="11.00">varchar[191]</text>
<polygon fill="none" stroke="black" points="207,-148 207,-170 355,-170 355,-148 207,-148"/>
<text text-anchor="start" x="227" y="-154.55" font-family="Helvetica,sans-Serif" font-size="11.00">version</text>
<polygon fill="none" stroke="black" points="355,-148 355,-170 442.75,-170 442.75,-148 355,-148"/>
<text text-anchor="start" x="358" y="-155.3" font-family="Helvetica,sans-Serif" font-size="11.00">bigint[19]</text>
<polygon fill="none" stroke="black" points="207,-126 207,-148 355,-148 355,-126 207,-126"/>
<text text-anchor="start" x="227" y="-132.55" font-family="Helvetica,sans-Serif" font-size="11.00">created_by</text>
<polygon fill="none" stroke="black" points="355,-126 355,-148 442.75,-148 442.75,-126 355,-126"/>
<text text-anchor="start" x="358" y="-133.3" font-family="Helvetica,sans-Serif" font-size="11.00">varchar[191]</text>
<polygon fill="none" stroke="black" points="207,-104 207,-126 355,-126 355,-104 207,-104"/>
<text text-anchor="start" x="227" y="-110.55" font-family="Helvetica,sans-Serif" font-size="11.00">last_modified_by</text>
<polygon fill="none" stroke="black" points="355,-104 355,-126 442.75,-126 442.75,-104 355,-104"/>
<text text-anchor="start" x="358" y="-111.3" font-family="Helvetica,sans-Serif" font-size="11.00">varchar[191]</text>
<polygon fill="none" stroke="black" points="207,-82 207,-104 355,-104 355,-82 207,-82"/>
<text text-anchor="start" x="227" y="-88.55" font-family="Helvetica,sans-Serif" font-size="11.00">created_date</text>
<polygon fill="none" stroke="black" points="355,-82 355,-104 442.75,-104 442.75,-82 355,-82"/>
<text text-anchor="start" x="358" y="-89.3" font-family="Helvetica,sans-Serif" font-size="11.00">timestamp[19]</text>
<polygon fill="none" stroke="black" points="207,-60 207,-82 355,-82 355,-60 207,-60"/>
<text text-anchor="start" x="227" y="-66.55" font-family="Helvetica,sans-Serif" font-size="11.00">last_modified_date</text>
<polygon fill="none" stroke="black" points="355,-60 355,-82 442.75,-82 442.75,-60 355,-60"/>
<text text-anchor="start" x="358" y="-67.3" font-family="Helvetica,sans-Serif" font-size="11.00">timestamp[19]</text>
<polygon fill="#ffffff" stroke="none" points="207,-40.5 207,-60 287,-60 287,-40.5 207,-40.5"/>
<polygon fill="none" stroke="black" points="207,-40.5 207,-60 287,-60 287,-40.5 207,-40.5"/>
<text text-anchor="start" x="210" y="-46.55" font-family="Helvetica,sans-Serif" font-size="11.00">&lt; 1</text>
<polygon fill="#ffffff" stroke="none" points="287,-40.5 287,-60 355,-60 355,-40.5 287,-40.5"/>
<polygon fill="none" stroke="black" points="287,-40.5 287,-60 355,-60 355,-40.5 287,-40.5"/>
<text text-anchor="start" x="344.5" y="-46.55" font-family="Helvetica,sans-Serif" font-size="11.00"> &#160;</text>
<polygon fill="#ffffff" stroke="none" points="355,-40.5 355,-60 442.75,-60 442.75,-40.5 355,-40.5"/>
<polygon fill="none" stroke="black" points="355,-40.5 355,-60 442.75,-60 442.75,-40.5 355,-40.5"/>
<text text-anchor="start" x="420.25" y="-46.55" font-family="Helvetica,sans-Serif" font-size="11.00">0 &gt;</text>
<polygon fill="none" stroke="black" stroke-width="2" points="206,-39.5 206,-282.5 443.75,-282.5 443.75,-39.5 206,-39.5"/>
</a>
</g>
</g>
<!-- doc_page -->
<g id="node2" class="node">
<title>doc_page</title>
<g id="a_node2"><a xlink:href="../../tables/doc_page.html" xlink:title="doc_page" target="_top">
<polygon fill="#ffffff" stroke="none" points="8,-65.75 8,-216.25 156,-216.25 156,-65.75 8,-65.75"/>
<polygon fill="#f5f5f5" stroke="none" points="8,-192.75 8,-216.25 156,-216.25 156,-192.75 8,-192.75"/>
<polygon fill="none" stroke="black" points="8,-192.75 8,-216.25 156,-216.25 156,-192.75 8,-192.75"/>
<text text-anchor="start" x="13" y="-201.8" font-family="Helvetica,sans-Serif" font-weight="bold" font-size="11.00">doc_page</text>
<text text-anchor="start" x="114.25" y="-200.8" font-family="Helvetica,sans-Serif" font-size="11.00">[table]</text>
<polygon fill="none" stroke="black" points="8,-170.75 8,-192.75 156,-192.75 156,-170.75 8,-170.75"/>
<image xlink:href="../../images/primaryKeys.png" width="11px" height="12px" preserveAspectRatio="xMinYMin meet" x="13" y="-187.75"/>
<text text-anchor="start" x="28" y="-177.3" font-family="Helvetica,sans-Serif" font-size="11.00">identifier</text>
<polygon fill="#ffffff" stroke="none" points="8,-148.75 8,-170.75 156,-170.75 156,-148.75 8,-148.75"/>
<polygon fill="none" stroke="black" points="8,-148.75 8,-170.75 156,-170.75 156,-148.75 8,-148.75"/>
<image xlink:href="../../images/foreignKeys.png" width="11px" height="12px" preserveAspectRatio="xMinYMin meet" x="13" y="-165.75"/>
<text text-anchor="start" x="28" y="-155.3" font-family="Helvetica,sans-Serif" font-size="11.00">digital_document</text>
<polygon fill="#ffffff" stroke="none" points="8,-126.75 8,-148.75 156,-148.75 156,-126.75 8,-126.75"/>
<polygon fill="none" stroke="black" points="8,-126.75 8,-148.75 156,-148.75 156,-126.75 8,-126.75"/>
<image xlink:href="../../images/foreignKeys.png" width="11px" height="12px" preserveAspectRatio="xMinYMin meet" x="13" y="-143.75"/>
<text text-anchor="start" x="28" y="-133.3" font-family="Helvetica,sans-Serif" font-size="11.00">sample</text>
<polygon fill="#ffffff" stroke="none" points="8,-104.75 8,-126.75 156,-126.75 156,-104.75 8,-104.75"/>
<polygon fill="none" stroke="black" points="8,-104.75 8,-126.75 156,-126.75 156,-104.75 8,-104.75"/>
<text text-anchor="start" x="28" y="-111.3" font-family="Helvetica,sans-Serif" font-size="11.00">piece</text>
<polygon fill="none" stroke="black" points="8,-85.25 8,-104.75 156,-104.75 156,-85.25 8,-85.25"/>
<text text-anchor="start" x="11" y="-91.3" font-family="Helvetica,sans-Serif" font-size="11.00">...</text>
<polygon fill="#ffffff" stroke="none" points="8,-65.75 8,-85.25 61.33,-85.25 61.33,-65.75 8,-65.75"/>
<polygon fill="none" stroke="black" points="8,-65.75 8,-85.25 61.33,-85.25 61.33,-65.75 8,-65.75"/>
<text text-anchor="start" x="11" y="-71.8" font-family="Helvetica,sans-Serif" font-size="11.00">&lt; 2</text>
<polygon fill="#ffffff" stroke="none" points="61.33,-65.75 61.33,-85.25 102.67,-85.25 102.67,-65.75 61.33,-65.75"/>
<polygon fill="none" stroke="black" points="61.33,-65.75 61.33,-85.25 102.67,-85.25 102.67,-65.75 61.33,-65.75"/>
<text text-anchor="start" x="92.17" y="-71.8" font-family="Helvetica,sans-Serif" font-size="11.00"> &#160;</text>
<polygon fill="#ffffff" stroke="none" points="102.67,-65.75 102.67,-85.25 156,-85.25 156,-65.75 102.67,-65.75"/>
<polygon fill="none" stroke="black" points="102.67,-65.75 102.67,-85.25 156,-85.25 156,-65.75 102.67,-65.75"/>
<text text-anchor="start" x="133.5" y="-71.8" font-family="Helvetica,sans-Serif" font-size="11.00">3 &gt;</text>
</a>
</g>
</g>
<!-- doc_check&#45;&gt;doc_page -->
<g id="edge1" class="edge">
<title>doc_check:w&#45;&gt;doc_page:e</title>
<path fill="none" stroke="black" d="M190.42,-181.15C179.71,-181.37 172.48,-181.75 157,-181.75"/>
<polygon fill="black" stroke="black" points="197.67,-181.08 205.7,-184.6 202,-181.04 205.33,-181.01 205.33,-181.01 205.33,-181.01 202,-181.04 205.63,-177.4 197.67,-181.08"/>
<ellipse fill="none" stroke="black" cx="192.75" cy="-181.13" rx="3.2" ry="3.2"/>
</g>
</g>
</svg>
