<?xml version="1.0" encoding="UTF-8" standalone="no"?>
<!DOCTYPE svg PUBLIC "-//W3C//DTD SVG 1.1//EN"
 "http://www.w3.org/Graphics/SVG/1.1/DTD/svg11.dtd">
<!-- Generated by graphviz version 12.2.0 (0)
 -->
<!-- Title: twoDegreesRelationshipsDiagram Pages: 1 -->
<svg width="1068pt" height="500pt"
 viewBox="0.00 0.00 1068.25 500.00" xmlns="http://www.w3.org/2000/svg" xmlns:xlink="http://www.w3.org/1999/xlink">
<g id="graph0" class="graph" transform="scale(1 1) rotate(0) translate(4 496)">
<title>twoDegreesRelationshipsDiagram</title>
<polygon fill="#ffffff" stroke="none" points="-4,4 -4,-496 1064.25,-496 1064.25,4 -4,4"/>
<text text-anchor="middle" x="79.25" y="-7.05" font-family="Helvetica,sans-Serif" font-size="11.00">Generated by SchemaSpy</text>
<!-- doc_condreport_desc -->
<g id="node1" class="node">
<title>doc_condreport_desc</title>
<g id="a_node1"><a xlink:href="../../tables/doc_condreport_desc.html" xlink:title="doc_condreport_desc" target="_top">
<polygon fill="#ffffff" stroke="none" points="808,-370.5 808,-433 995.75,-433 995.75,-370.5 808,-370.5"/>
<polygon fill="#f5f5f5" stroke="none" points="808,-409.5 808,-433 995.75,-433 995.75,-409.5 808,-409.5"/>
<polygon fill="none" stroke="black" points="808,-409.5 808,-433 995.75,-433 995.75,-409.5 808,-409.5"/>
<text text-anchor="start" x="813" y="-418.55" font-family="Helvetica,sans-Serif" font-weight="bold" font-size="11.00">doc_condreport_desc</text>
<text text-anchor="start" x="954" y="-417.55" font-family="Helvetica,sans-Serif" font-size="11.00">[table]</text>
<polygon fill="none" stroke="black" points="808,-390 808,-409.5 995.75,-409.5 995.75,-390 808,-390"/>
<text text-anchor="start" x="811" y="-396.05" font-family="Helvetica,sans-Serif" font-size="11.00">...</text>
<polygon fill="#ffffff" stroke="none" points="808,-370.5 808,-390 878.58,-390 878.58,-370.5 808,-370.5"/>
<polygon fill="none" stroke="black" points="808,-370.5 808,-390 878.58,-390 878.58,-370.5 808,-370.5"/>
<text text-anchor="start" x="811" y="-376.55" font-family="Helvetica,sans-Serif" font-size="11.00">&lt; 3</text>
<polygon fill="#ffffff" stroke="none" points="878.58,-370.5 878.58,-390 937.17,-390 937.17,-370.5 878.58,-370.5"/>
<polygon fill="none" stroke="black" points="878.58,-370.5 878.58,-390 937.17,-390 937.17,-370.5 878.58,-370.5"/>
<text text-anchor="start" x="926.67" y="-376.55" font-family="Helvetica,sans-Serif" font-size="11.00"> &#160;</text>
<polygon fill="#ffffff" stroke="none" points="937.17,-370.5 937.17,-390 995.75,-390 995.75,-370.5 937.17,-370.5"/>
<polygon fill="none" stroke="black" points="937.17,-370.5 937.17,-390 995.75,-390 995.75,-370.5 937.17,-370.5"/>
<text text-anchor="start" x="985.25" y="-376.55" font-family="Helvetica,sans-Serif" font-size="11.00"> &#160;</text>
</a>
</g>
</g>
<!-- doc_condreport_detail -->
<g id="node2" class="node">
<title>doc_condreport_detail</title>
<g id="a_node2"><a xlink:href="../../tables/doc_condreport_detail.html" xlink:title="doc_condreport_detail" target="_top">
<polygon fill="#ffffff" stroke="none" points="472.75,-425.5 472.75,-488 668.5,-488 668.5,-425.5 472.75,-425.5"/>
<polygon fill="#f5f5f5" stroke="none" points="472.75,-464.5 472.75,-488 668.5,-488 668.5,-464.5 472.75,-464.5"/>
<polygon fill="none" stroke="black" points="472.75,-464.5 472.75,-488 668.5,-488 668.5,-464.5 472.75,-464.5"/>
<text text-anchor="start" x="477.75" y="-473.55" font-family="Helvetica,sans-Serif" font-weight="bold" font-size="11.00">doc_condreport_detail</text>
<text text-anchor="start" x="626.75" y="-472.55" font-family="Helvetica,sans-Serif" font-size="11.00">[table]</text>
<polygon fill="none" stroke="black" points="472.75,-445 472.75,-464.5 668.5,-464.5 668.5,-445 472.75,-445"/>
<text text-anchor="start" x="475.75" y="-451.05" font-family="Helvetica,sans-Serif" font-size="11.00">...</text>
<polygon fill="#ffffff" stroke="none" points="472.75,-425.5 472.75,-445 542,-445 542,-425.5 472.75,-425.5"/>
<polygon fill="none" stroke="black" points="472.75,-425.5 472.75,-445 542,-445 542,-425.5 472.75,-425.5"/>
<text text-anchor="start" x="475.75" y="-431.55" font-family="Helvetica,sans-Serif" font-size="11.00">&lt; 1</text>
<polygon fill="#ffffff" stroke="none" points="542,-425.5 542,-445 599.25,-445 599.25,-425.5 542,-425.5"/>
<polygon fill="none" stroke="black" points="542,-425.5 542,-445 599.25,-445 599.25,-425.5 542,-425.5"/>
<text text-anchor="start" x="588.75" y="-431.55" font-family="Helvetica,sans-Serif" font-size="11.00"> &#160;</text>
<polygon fill="#ffffff" stroke="none" points="599.25,-425.5 599.25,-445 668.5,-445 668.5,-425.5 599.25,-425.5"/>
<polygon fill="none" stroke="black" points="599.25,-425.5 599.25,-445 668.5,-445 668.5,-425.5 599.25,-425.5"/>
<text text-anchor="start" x="646" y="-431.55" font-family="Helvetica,sans-Serif" font-size="11.00">1 &gt;</text>
</a>
</g>
</g>
<!-- doc_condreport_desc&#45;&gt;doc_condreport_detail -->
<g id="edge1" class="edge">
<title>doc_condreport_desc:w&#45;&gt;doc_condreport_detail:e</title>
<path fill="none" stroke="black" d="M784.72,-439.05C748.23,-447.86 707.54,-454.75 669.5,-454.75"/>
<polygon fill="black" stroke="black" points="792,-437.21 800.63,-438.74 796.2,-436.15 799.43,-435.33 799.43,-435.33 799.43,-435.33 796.2,-436.15 798.87,-431.76 792,-437.21"/>
<ellipse fill="none" stroke="black" cx="787.23" cy="-438.41" rx="3.2" ry="3.2"/>
</g>
<!-- doc_condreport_desc_property -->
<g id="node3" class="node">
<title>doc_condreport_desc_property</title>
<g id="a_node3"><a xlink:href="../../tables/doc_condreport_desc_property.html" xlink:title="doc_condreport_desc_property" target="_top">
<polygon fill="#ffffff" stroke="none" points="8,-122.25 8,-411.25 389.75,-411.25 389.75,-122.25 8,-122.25"/>
<polygon fill="#f5f5f5" stroke="none" points="10,-385.75 10,-409.25 387.75,-409.25 387.75,-385.75 10,-385.75"/>
<polygon fill="none" stroke="black" points="10,-385.75 10,-409.25 387.75,-409.25 387.75,-385.75 10,-385.75"/>
<text text-anchor="start" x="15" y="-394.8" font-family="Helvetica,sans-Serif" font-weight="bold" font-size="11.00">doc_condreport_desc_property</text>
<text text-anchor="start" x="346" y="-393.8" font-family="Helvetica,sans-Serif" font-size="11.00">[table]</text>
<polygon fill="none" stroke="black" points="10,-363.75 10,-385.75 237,-385.75 237,-363.75 10,-363.75"/>
<image xlink:href="../../images/primaryKeys.png" width="11px" height="12px" preserveAspectRatio="xMinYMin meet" x="15" y="-380.75"/>
<text text-anchor="start" x="30" y="-370.3" font-family="Helvetica,sans-Serif" font-size="11.00">identifier</text>
<polygon fill="none" stroke="black" points="237,-363.75 237,-385.75 356.25,-385.75 356.25,-363.75 237,-363.75"/>
<text text-anchor="start" x="240" y="-371.05" font-family="Helvetica,sans-Serif" font-size="11.00">varchar[191]</text>
<polygon fill="none" stroke="black" points="10,-341.75 10,-363.75 237,-363.75 237,-341.75 10,-341.75"/>
<text text-anchor="start" x="30" y="-348.3" font-family="Helvetica,sans-Serif" font-size="11.00">label</text>
<polygon fill="none" stroke="black" points="237,-341.75 237,-363.75 356.25,-363.75 356.25,-341.75 237,-341.75"/>
<text text-anchor="start" x="240" y="-349.05" font-family="Helvetica,sans-Serif" font-size="11.00">varchar[255]</text>
<polygon fill="none" stroke="black" points="10,-319.75 10,-341.75 237,-341.75 237,-319.75 10,-319.75"/>
<text text-anchor="start" x="30" y="-326.3" font-family="Helvetica,sans-Serif" font-size="11.00">allow_comment</text>
<polygon fill="none" stroke="black" points="237,-319.75 237,-341.75 356.25,-341.75 356.25,-319.75 237,-319.75"/>
<text text-anchor="start" x="240" y="-327.05" font-family="Helvetica,sans-Serif" font-size="11.00">bit[1]</text>
<polygon fill="none" stroke="black" points="10,-297.75 10,-319.75 237,-319.75 237,-297.75 10,-297.75"/>
<text text-anchor="start" x="30" y="-304.3" font-family="Helvetica,sans-Serif" font-size="11.00">version</text>
<polygon fill="none" stroke="black" points="237,-297.75 237,-319.75 356.25,-319.75 356.25,-297.75 237,-297.75"/>
<text text-anchor="start" x="240" y="-305.05" font-family="Helvetica,sans-Serif" font-size="11.00">bigint[19]</text>
<polygon fill="none" stroke="black" points="10,-275.75 10,-297.75 237,-297.75 237,-275.75 10,-275.75"/>
<text text-anchor="start" x="30" y="-282.3" font-family="Helvetica,sans-Serif" font-size="11.00">created_by</text>
<polygon fill="none" stroke="black" points="237,-275.75 237,-297.75 356.25,-297.75 356.25,-275.75 237,-275.75"/>
<text text-anchor="start" x="240" y="-283.05" font-family="Helvetica,sans-Serif" font-size="11.00">varchar[191]</text>
<polygon fill="none" stroke="black" points="10,-253.75 10,-275.75 237,-275.75 237,-253.75 10,-253.75"/>
<text text-anchor="start" x="30" y="-260.3" font-family="Helvetica,sans-Serif" font-size="11.00">last_modified_by</text>
<polygon fill="none" stroke="black" points="237,-253.75 237,-275.75 356.25,-275.75 356.25,-253.75 237,-253.75"/>
<text text-anchor="start" x="240" y="-261.05" font-family="Helvetica,sans-Serif" font-size="11.00">varchar[191]</text>
<polygon fill="none" stroke="black" points="10,-231.75 10,-253.75 237,-253.75 237,-231.75 10,-231.75"/>
<text text-anchor="start" x="30" y="-238.3" font-family="Helvetica,sans-Serif" font-size="11.00">created_date</text>
<polygon fill="none" stroke="black" points="237,-231.75 237,-253.75 356.25,-253.75 356.25,-231.75 237,-231.75"/>
<text text-anchor="start" x="240" y="-239.05" font-family="Helvetica,sans-Serif" font-size="11.00">timestamp[19]</text>
<polygon fill="none" stroke="black" points="10,-209.75 10,-231.75 237,-231.75 237,-209.75 10,-209.75"/>
<text text-anchor="start" x="30" y="-216.3" font-family="Helvetica,sans-Serif" font-size="11.00">last_modified_date</text>
<polygon fill="none" stroke="black" points="237,-209.75 237,-231.75 356.25,-231.75 356.25,-209.75 237,-209.75"/>
<text text-anchor="start" x="240" y="-217.05" font-family="Helvetica,sans-Serif" font-size="11.00">timestamp[19]</text>
<polygon fill="none" stroke="black" points="10,-187.75 10,-209.75 237,-209.75 237,-187.75 10,-187.75"/>
<text text-anchor="start" x="30" y="-194.3" font-family="Helvetica,sans-Serif" font-size="11.00">type</text>
<polygon fill="none" stroke="black" points="237,-187.75 237,-209.75 356.25,-209.75 356.25,-187.75 237,-187.75"/>
<text text-anchor="start" x="240" y="-195.05" font-family="Helvetica,sans-Serif" font-size="11.00">varchar[255]</text>
<polygon fill="none" stroke="black" points="10,-165.75 10,-187.75 237,-187.75 237,-165.75 10,-165.75"/>
<text text-anchor="start" x="30" y="-172.3" font-family="Helvetica,sans-Serif" font-size="11.00">code</text>
<polygon fill="none" stroke="black" points="237,-165.75 237,-187.75 356.25,-187.75 356.25,-165.75 237,-165.75"/>
<text text-anchor="start" x="240" y="-173.05" font-family="Helvetica,sans-Serif" font-size="11.00">varchar[255]</text>
<polygon fill="none" stroke="black" points="10,-143.75 10,-165.75 237,-165.75 237,-143.75 10,-143.75"/>
<text text-anchor="start" x="30" y="-150.3" font-family="Helvetica,sans-Serif" font-size="11.00">sort_order</text>
<polygon fill="none" stroke="black" points="237,-143.75 237,-165.75 356.25,-165.75 356.25,-143.75 237,-143.75"/>
<text text-anchor="start" x="240" y="-151.05" font-family="Helvetica,sans-Serif" font-size="11.00">int[10]</text>
<polygon fill="#ffffff" stroke="none" points="10,-124.25 10,-143.75 129.5,-143.75 129.5,-124.25 10,-124.25"/>
<polygon fill="none" stroke="black" points="10,-124.25 10,-143.75 129.5,-143.75 129.5,-124.25 10,-124.25"/>
<text text-anchor="start" x="13" y="-130.3" font-family="Helvetica,sans-Serif" font-size="11.00">&lt; 0</text>
<polygon fill="#ffffff" stroke="none" points="129.5,-124.25 129.5,-143.75 237,-143.75 237,-124.25 129.5,-124.25"/>
<polygon fill="none" stroke="black" points="129.5,-124.25 129.5,-143.75 237,-143.75 237,-124.25 129.5,-124.25"/>
<text text-anchor="start" x="226.5" y="-130.3" font-family="Helvetica,sans-Serif" font-size="11.00"> &#160;</text>
<polygon fill="#ffffff" stroke="none" points="237,-124.25 237,-143.75 356.25,-143.75 356.25,-124.25 237,-124.25"/>
<polygon fill="none" stroke="black" points="237,-124.25 237,-143.75 356.25,-143.75 356.25,-124.25 237,-124.25"/>
<text text-anchor="start" x="333.75" y="-130.3" font-family="Helvetica,sans-Serif" font-size="11.00">3 &gt;</text>
<polygon fill="none" stroke="black" stroke-width="2" points="9,-123.25 9,-410.25 388.75,-410.25 388.75,-123.25 9,-123.25"/>
</a>
</g>
</g>
<!-- doc_condreport_desc&#45;&gt;doc_condreport_desc_property -->
<g id="edge2" class="edge">
<title>doc_condreport_desc:w&#45;&gt;doc_condreport_desc_property:e</title>
<path fill="none" stroke="black" d="M784.33,-403.71C688.98,-404.07 550.77,-401.76 430.75,-388.75 397.69,-385.17 390.5,-374.75 357.25,-374.75"/>
<polygon fill="black" stroke="black" points="791.8,-403.67 799.82,-407.23 796.14,-403.65 799.47,-403.63 799.47,-403.63 799.47,-403.63 796.14,-403.65 799.78,-400.03 791.8,-403.67"/>
<ellipse fill="none" stroke="black" cx="786.89" cy="-403.7" rx="3.2" ry="3.2"/>
</g>
<!-- doc_condreport_desc_value -->
<g id="node4" class="node">
<title>doc_condreport_desc_value</title>
<g id="a_node4"><a xlink:href="../../tables/doc_condreport_desc_value.html" xlink:title="doc_condreport_desc_value" target="_top">
<polygon fill="#ffffff" stroke="none" points="455.25,-315.5 455.25,-378 686,-378 686,-315.5 455.25,-315.5"/>
<polygon fill="#f5f5f5" stroke="none" points="455.25,-354.5 455.25,-378 686,-378 686,-354.5 455.25,-354.5"/>
<polygon fill="none" stroke="black" points="455.25,-354.5 455.25,-378 686,-378 686,-354.5 455.25,-354.5"/>
<text text-anchor="start" x="460.25" y="-363.55" font-family="Helvetica,sans-Serif" font-weight="bold" font-size="11.00">doc_condreport_desc_value</text>
<text text-anchor="start" x="644.25" y="-362.55" font-family="Helvetica,sans-Serif" font-size="11.00">[table]</text>
<polygon fill="none" stroke="black" points="455.25,-335 455.25,-354.5 686,-354.5 686,-335 455.25,-335"/>
<text text-anchor="start" x="458.25" y="-341.05" font-family="Helvetica,sans-Serif" font-size="11.00">...</text>
<polygon fill="#ffffff" stroke="none" points="455.25,-315.5 455.25,-335 536.17,-335 536.17,-315.5 455.25,-315.5"/>
<polygon fill="none" stroke="black" points="455.25,-315.5 455.25,-335 536.17,-335 536.17,-315.5 455.25,-315.5"/>
<text text-anchor="start" x="458.25" y="-321.55" font-family="Helvetica,sans-Serif" font-size="11.00">&lt; 1</text>
<polygon fill="#ffffff" stroke="none" points="536.17,-315.5 536.17,-335 605.08,-335 605.08,-315.5 536.17,-315.5"/>
<polygon fill="none" stroke="black" points="536.17,-315.5 536.17,-335 605.08,-335 605.08,-315.5 536.17,-315.5"/>
<text text-anchor="start" x="594.58" y="-321.55" font-family="Helvetica,sans-Serif" font-size="11.00"> &#160;</text>
<polygon fill="#ffffff" stroke="none" points="605.08,-315.5 605.08,-335 686,-335 686,-315.5 605.08,-315.5"/>
<polygon fill="none" stroke="black" points="605.08,-315.5 605.08,-335 686,-335 686,-315.5 605.08,-315.5"/>
<text text-anchor="start" x="663.5" y="-321.55" font-family="Helvetica,sans-Serif" font-size="11.00">1 &gt;</text>
</a>
</g>
</g>
<!-- doc_condreport_desc&#45;&gt;doc_condreport_desc_value -->
<g id="edge3" class="edge">
<title>doc_condreport_desc:w&#45;&gt;doc_condreport_desc_value:e</title>
<path fill="none" stroke="black" d="M784.69,-382.34C755.29,-377.43 723.62,-372.14 693.92,-367.18"/>
<polygon fill="black" stroke="black" points="792.08,-383.58 799.38,-388.45 796.35,-384.29 799.64,-384.84 799.64,-384.84 799.64,-384.84 796.35,-384.29 800.56,-381.34 792.08,-383.58"/>
<ellipse fill="none" stroke="black" cx="787.23" cy="-382.77" rx="3.2" ry="3.2"/>
</g>
<!-- doc_condreport_desc_value&#45;&gt;doc_condreport_desc_property -->
<g id="edge4" class="edge">
<title>doc_condreport_desc_value:w&#45;&gt;doc_condreport_desc_property:e</title>
<path fill="none" stroke="black" d="M431.63,-370.26C406.94,-372.95 381.39,-374.75 357.25,-374.75"/>
<polygon fill="black" stroke="black" points="439.02,-369.4 447.38,-372.05 443.32,-368.9 446.63,-368.51 446.63,-368.51 446.63,-368.51 443.32,-368.9 446.55,-364.89 439.02,-369.4"/>
<ellipse fill="none" stroke="black" cx="434.13" cy="-369.97" rx="3.2" ry="3.2"/>
</g>
<!-- doc_condreport_property_config -->
<g id="node5" class="node">
<title>doc_condreport_property_config</title>
<g id="a_node5"><a xlink:href="../../tables/doc_condreport_property_config.html" xlink:title="doc_condreport_property_config" target="_top">
<polygon fill="#ffffff" stroke="none" points="438.75,-94.5 438.75,-223 702.5,-223 702.5,-94.5 438.75,-94.5"/>
<polygon fill="#f5f5f5" stroke="none" points="438.75,-199.5 438.75,-223 702.5,-223 702.5,-199.5 438.75,-199.5"/>
<polygon fill="none" stroke="black" points="438.75,-199.5 438.75,-223 702.5,-223 702.5,-199.5 438.75,-199.5"/>
<text text-anchor="start" x="443.75" y="-208.55" font-family="Helvetica,sans-Serif" font-weight="bold" font-size="11.00">doc_condreport_property_config</text>
<text text-anchor="start" x="660.75" y="-207.55" font-family="Helvetica,sans-Serif" font-size="11.00">[table]</text>
<polygon fill="none" stroke="black" points="438.75,-177.5 438.75,-199.5 702.5,-199.5 702.5,-177.5 438.75,-177.5"/>
<image xlink:href="../../images/primaryKeys.png" width="11px" height="12px" preserveAspectRatio="xMinYMin meet" x="443.75" y="-194.5"/>
<text text-anchor="start" x="471.62" y="-184.05" font-family="Helvetica,sans-Serif" font-size="11.00">identifier</text>
<polygon fill="#ffffff" stroke="none" points="438.75,-155.5 438.75,-177.5 702.5,-177.5 702.5,-155.5 438.75,-155.5"/>
<polygon fill="none" stroke="black" points="438.75,-155.5 438.75,-177.5 702.5,-177.5 702.5,-155.5 438.75,-155.5"/>
<image xlink:href="../../images/foreignKeys.png" width="11px" height="12px" preserveAspectRatio="xMinYMin meet" x="443.75" y="-172.5"/>
<text text-anchor="start" x="471.62" y="-162.05" font-family="Helvetica,sans-Serif" font-size="11.00">library</text>
<polygon fill="#ffffff" stroke="none" points="438.75,-133.5 438.75,-155.5 702.5,-155.5 702.5,-133.5 438.75,-133.5"/>
<polygon fill="none" stroke="black" points="438.75,-133.5 438.75,-155.5 702.5,-155.5 702.5,-133.5 438.75,-133.5"/>
<image xlink:href="../../images/foreignKeys.png" width="11px" height="12px" preserveAspectRatio="xMinYMin meet" x="443.75" y="-150.5"/>
<text text-anchor="start" x="471.62" y="-140.05" font-family="Helvetica,sans-Serif" font-size="11.00">desc_property</text>
<polygon fill="none" stroke="black" points="438.75,-114 438.75,-133.5 702.5,-133.5 702.5,-114 438.75,-114"/>
<text text-anchor="start" x="441.75" y="-120.05" font-family="Helvetica,sans-Serif" font-size="11.00">...</text>
<polygon fill="#ffffff" stroke="none" points="438.75,-94.5 438.75,-114 530.67,-114 530.67,-94.5 438.75,-94.5"/>
<polygon fill="none" stroke="black" points="438.75,-94.5 438.75,-114 530.67,-114 530.67,-94.5 438.75,-94.5"/>
<text text-anchor="start" x="441.75" y="-100.55" font-family="Helvetica,sans-Serif" font-size="11.00">&lt; 2</text>
<polygon fill="#ffffff" stroke="none" points="530.67,-94.5 530.67,-114 610.58,-114 610.58,-94.5 530.67,-94.5"/>
<polygon fill="none" stroke="black" points="530.67,-94.5 530.67,-114 610.58,-114 610.58,-94.5 530.67,-94.5"/>
<text text-anchor="start" x="600.08" y="-100.55" font-family="Helvetica,sans-Serif" font-size="11.00"> &#160;</text>
<polygon fill="#ffffff" stroke="none" points="610.58,-94.5 610.58,-114 702.5,-114 702.5,-94.5 610.58,-94.5"/>
<polygon fill="none" stroke="black" points="610.58,-94.5 610.58,-114 702.5,-114 702.5,-94.5 610.58,-94.5"/>
<text text-anchor="start" x="680" y="-100.55" font-family="Helvetica,sans-Serif" font-size="11.00">1 &gt;</text>
</a>
</g>
</g>
<!-- doc_condreport_property_config&#45;&gt;doc_condreport_desc_property -->
<g id="edge5" class="edge">
<title>doc_condreport_property_config:w&#45;&gt;doc_condreport_desc_property:e</title>
<path fill="none" stroke="black" d="M422.08,-146.49C343.52,-168.99 459.73,-374.75 357.25,-374.75"/>
<polygon fill="black" stroke="black" points="429.48,-145.55 437.87,-148.11 433.78,-145 437.09,-144.58 437.09,-144.58 437.09,-144.58 433.78,-145 436.96,-140.97 429.48,-145.55"/>
<ellipse fill="none" stroke="black" cx="424.6" cy="-146.17" rx="3.2" ry="3.2"/>
</g>
<!-- lib_library -->
<g id="node6" class="node">
<title>lib_library</title>
<g id="a_node6"><a xlink:href="../../tables/lib_library.html" xlink:title="lib_library" target="_top">
<polygon fill="#ffffff" stroke="none" points="142,-38.5 142,-101 255.75,-101 255.75,-38.5 142,-38.5"/>
<polygon fill="#f5f5f5" stroke="none" points="142,-77.5 142,-101 255.75,-101 255.75,-77.5 142,-77.5"/>
<polygon fill="none" stroke="black" points="142,-77.5 142,-101 255.75,-101 255.75,-77.5 142,-77.5"/>
<text text-anchor="start" x="147" y="-86.55" font-family="Helvetica,sans-Serif" font-weight="bold" font-size="11.00">lib_library</text>
<text text-anchor="start" x="214" y="-85.55" font-family="Helvetica,sans-Serif" font-size="11.00">[table]</text>
<polygon fill="none" stroke="black" points="142,-58 142,-77.5 255.75,-77.5 255.75,-58 142,-58"/>
<text text-anchor="start" x="145" y="-64.05" font-family="Helvetica,sans-Serif" font-size="11.00">...</text>
<polygon fill="#ffffff" stroke="none" points="142,-38.5 142,-58 181.67,-58 181.67,-38.5 142,-38.5"/>
<polygon fill="none" stroke="black" points="142,-38.5 142,-58 181.67,-58 181.67,-38.5 142,-38.5"/>
<text text-anchor="start" x="145" y="-44.55" font-family="Helvetica,sans-Serif" font-size="11.00">&lt; 6</text>
<polygon fill="#ffffff" stroke="none" points="181.67,-38.5 181.67,-58 209.33,-58 209.33,-38.5 181.67,-38.5"/>
<polygon fill="none" stroke="black" points="181.67,-38.5 181.67,-58 209.33,-58 209.33,-38.5 181.67,-38.5"/>
<text text-anchor="start" x="198.83" y="-44.55" font-family="Helvetica,sans-Serif" font-size="11.00"> &#160;</text>
<polygon fill="#ffffff" stroke="none" points="209.33,-38.5 209.33,-58 255.75,-58 255.75,-38.5 209.33,-38.5"/>
<polygon fill="none" stroke="black" points="209.33,-38.5 209.33,-58 255.75,-58 255.75,-38.5 209.33,-38.5"/>
<text text-anchor="start" x="226.5" y="-44.55" font-family="Helvetica,sans-Serif" font-size="11.00">27 &gt;</text>
</a>
</g>
</g>
<!-- doc_condreport_property_config&#45;&gt;lib_library -->
<g id="edge6" class="edge">
<title>doc_condreport_property_config:w&#45;&gt;lib_library:e</title>
<path fill="none" stroke="black" d="M422.86,-161.1C412.33,-150.14 416.51,-125.18 397.75,-111.75 344.37,-73.55 322.4,-67.75 256.75,-67.75"/>
<polygon fill="black" stroke="black" points="429.91,-163.66 436.21,-169.77 433.99,-165.14 437.12,-166.27 437.12,-166.27 437.12,-166.27 433.99,-165.14 438.66,-163 429.91,-163.66"/>
<ellipse fill="none" stroke="black" cx="425.29" cy="-161.98" rx="3.2" ry="3.2"/>
</g>
<!-- doc_condreport_property_config_type -->
<g id="node7" class="node">
<title>doc_condreport_property_config_type</title>
<g id="a_node7"><a xlink:href="../../tables/doc_condreport_property_config_type.html" xlink:title="doc_condreport_property_config_type" target="_top">
<polygon fill="#ffffff" stroke="none" points="751.5,-158.5 751.5,-221 1052.25,-221 1052.25,-158.5 751.5,-158.5"/>
<polygon fill="#f5f5f5" stroke="none" points="751.5,-197.5 751.5,-221 1052.25,-221 1052.25,-197.5 751.5,-197.5"/>
<polygon fill="none" stroke="black" points="751.5,-197.5 751.5,-221 1052.25,-221 1052.25,-197.5 751.5,-197.5"/>
<text text-anchor="start" x="756.5" y="-206.55" font-family="Helvetica,sans-Serif" font-weight="bold" font-size="11.00">doc_condreport_property_config_type</text>
<text text-anchor="start" x="1010.5" y="-205.55" font-family="Helvetica,sans-Serif" font-size="11.00">[table]</text>
<polygon fill="none" stroke="black" points="751.5,-178 751.5,-197.5 1052.25,-197.5 1052.25,-178 751.5,-178"/>
<text text-anchor="start" x="754.5" y="-184.05" font-family="Helvetica,sans-Serif" font-size="11.00">...</text>
<polygon fill="#ffffff" stroke="none" points="751.5,-158.5 751.5,-178 859.75,-178 859.75,-158.5 751.5,-158.5"/>
<polygon fill="none" stroke="black" points="751.5,-158.5 751.5,-178 859.75,-178 859.75,-158.5 751.5,-158.5"/>
<text text-anchor="start" x="754.5" y="-164.55" font-family="Helvetica,sans-Serif" font-size="11.00">&lt; 1</text>
<polygon fill="#ffffff" stroke="none" points="859.75,-158.5 859.75,-178 956,-178 956,-158.5 859.75,-158.5"/>
<polygon fill="none" stroke="black" points="859.75,-158.5 859.75,-178 956,-178 956,-158.5 859.75,-158.5"/>
<text text-anchor="start" x="945.5" y="-164.55" font-family="Helvetica,sans-Serif" font-size="11.00"> &#160;</text>
<polygon fill="#ffffff" stroke="none" points="956,-158.5 956,-178 1052.25,-178 1052.25,-158.5 956,-158.5"/>
<polygon fill="none" stroke="black" points="956,-158.5 956,-178 1052.25,-178 1052.25,-158.5 956,-158.5"/>
<text text-anchor="start" x="1041.75" y="-164.55" font-family="Helvetica,sans-Serif" font-size="11.00"> &#160;</text>
</a>
</g>
</g>
<!-- doc_condreport_property_config_type&#45;&gt;doc_condreport_property_config -->
<g id="edge7" class="edge">
<title>doc_condreport_property_config_type:w&#45;&gt;doc_condreport_property_config:e</title>
<path fill="none" stroke="black" d="M734.88,-187.92C724.97,-188.14 718.03,-188.5 703.5,-188.5"/>
<polygon fill="black" stroke="black" points="742.17,-187.84 750.2,-191.35 746.5,-187.79 749.83,-187.76 749.83,-187.76 749.83,-187.76 746.5,-187.79 750.13,-184.15 742.17,-187.84"/>
<ellipse fill="none" stroke="black" cx="737.25" cy="-187.89" rx="3.2" ry="3.2"/>
</g>
</g>
</svg>
