<?xml version="1.0" encoding="UTF-8" standalone="no"?>
<!DOCTYPE svg PUBLIC "-//W3C//DTD SVG 1.1//EN"
 "http://www.w3.org/Graphics/SVG/1.1/DTD/svg11.dtd">
<!-- Generated by graphviz version 12.2.0 (0)
 -->
<!-- Title: oneDegreeRelationshipsDiagram Pages: 1 -->
<svg width="911pt" height="335pt"
 viewBox="0.00 0.00 911.25 335.25" xmlns="http://www.w3.org/2000/svg" xmlns:xlink="http://www.w3.org/1999/xlink">
<g id="graph0" class="graph" transform="scale(1 1) rotate(0) translate(4 331.25)">
<title>oneDegreeRelationshipsDiagram</title>
<polygon fill="#ffffff" stroke="none" points="-4,4 -4,-331.25 907.25,-331.25 907.25,4 -4,4"/>
<text text-anchor="middle" x="79.25" y="-7.05" font-family="Helvetica,sans-Serif" font-size="11.00">Generated by SchemaSpy</text>
<!-- doc_condreport_desc -->
<g id="node1" class="node">
<title>doc_condreport_desc</title>
<g id="a_node1"><a xlink:href="../../tables/doc_condreport_desc.html" xlink:title="doc_condreport_desc" target="_top">
<polygon fill="#ffffff" stroke="none" points="707.5,-172.75 707.5,-323.25 895.25,-323.25 895.25,-172.75 707.5,-172.75"/>
<polygon fill="#f5f5f5" stroke="none" points="707.5,-299.75 707.5,-323.25 895.25,-323.25 895.25,-299.75 707.5,-299.75"/>
<polygon fill="none" stroke="black" points="707.5,-299.75 707.5,-323.25 895.25,-323.25 895.25,-299.75 707.5,-299.75"/>
<text text-anchor="start" x="712.5" y="-308.8" font-family="Helvetica,sans-Serif" font-weight="bold" font-size="11.00">doc_condreport_desc</text>
<text text-anchor="start" x="853.5" y="-307.8" font-family="Helvetica,sans-Serif" font-size="11.00">[table]</text>
<polygon fill="none" stroke="black" points="707.5,-277.75 707.5,-299.75 895.25,-299.75 895.25,-277.75 707.5,-277.75"/>
<image xlink:href="../../images/primaryKeys.png" width="11px" height="12px" preserveAspectRatio="xMinYMin meet" x="712.5" y="-294.75"/>
<text text-anchor="start" x="740.38" y="-284.3" font-family="Helvetica,sans-Serif" font-size="11.00">identifier</text>
<polygon fill="#ffffff" stroke="none" points="707.5,-255.75 707.5,-277.75 895.25,-277.75 895.25,-255.75 707.5,-255.75"/>
<polygon fill="none" stroke="black" points="707.5,-255.75 707.5,-277.75 895.25,-277.75 895.25,-255.75 707.5,-255.75"/>
<image xlink:href="../../images/foreignKeys.png" width="11px" height="12px" preserveAspectRatio="xMinYMin meet" x="712.5" y="-272.75"/>
<text text-anchor="start" x="740.38" y="-262.3" font-family="Helvetica,sans-Serif" font-size="11.00">property</text>
<polygon fill="#ffffff" stroke="none" points="707.5,-233.75 707.5,-255.75 895.25,-255.75 895.25,-233.75 707.5,-233.75"/>
<polygon fill="none" stroke="black" points="707.5,-233.75 707.5,-255.75 895.25,-255.75 895.25,-233.75 707.5,-233.75"/>
<image xlink:href="../../images/foreignKeys.png" width="11px" height="12px" preserveAspectRatio="xMinYMin meet" x="712.5" y="-250.75"/>
<text text-anchor="start" x="740.38" y="-240.3" font-family="Helvetica,sans-Serif" font-size="11.00">value</text>
<polygon fill="#ffffff" stroke="none" points="707.5,-211.75 707.5,-233.75 895.25,-233.75 895.25,-211.75 707.5,-211.75"/>
<polygon fill="none" stroke="black" points="707.5,-211.75 707.5,-233.75 895.25,-233.75 895.25,-211.75 707.5,-211.75"/>
<image xlink:href="../../images/foreignKeys.png" width="11px" height="12px" preserveAspectRatio="xMinYMin meet" x="712.5" y="-228.75"/>
<text text-anchor="start" x="740.38" y="-218.3" font-family="Helvetica,sans-Serif" font-size="11.00">detail</text>
<polygon fill="none" stroke="black" points="707.5,-192.25 707.5,-211.75 895.25,-211.75 895.25,-192.25 707.5,-192.25"/>
<text text-anchor="start" x="710.5" y="-198.3" font-family="Helvetica,sans-Serif" font-size="11.00">...</text>
<polygon fill="#ffffff" stroke="none" points="707.5,-172.75 707.5,-192.25 778.08,-192.25 778.08,-172.75 707.5,-172.75"/>
<polygon fill="none" stroke="black" points="707.5,-172.75 707.5,-192.25 778.08,-192.25 778.08,-172.75 707.5,-172.75"/>
<text text-anchor="start" x="710.5" y="-178.8" font-family="Helvetica,sans-Serif" font-size="11.00">&lt; 3</text>
<polygon fill="#ffffff" stroke="none" points="778.08,-172.75 778.08,-192.25 836.67,-192.25 836.67,-172.75 778.08,-172.75"/>
<polygon fill="none" stroke="black" points="778.08,-172.75 778.08,-192.25 836.67,-192.25 836.67,-172.75 778.08,-172.75"/>
<text text-anchor="start" x="826.17" y="-178.8" font-family="Helvetica,sans-Serif" font-size="11.00"> &#160;</text>
<polygon fill="#ffffff" stroke="none" points="836.67,-172.75 836.67,-192.25 895.25,-192.25 895.25,-172.75 836.67,-172.75"/>
<polygon fill="none" stroke="black" points="836.67,-172.75 836.67,-192.25 895.25,-192.25 895.25,-172.75 836.67,-172.75"/>
<text text-anchor="start" x="884.75" y="-178.8" font-family="Helvetica,sans-Serif" font-size="11.00"> &#160;</text>
</a>
</g>
</g>
<!-- doc_condreport_desc_property -->
<g id="node2" class="node">
<title>doc_condreport_desc_property</title>
<g id="a_node2"><a xlink:href="../../tables/doc_condreport_desc_property.html" xlink:title="doc_condreport_desc_property" target="_top">
<polygon fill="#ffffff" stroke="none" points="8,-183.75 8,-268.25 260.75,-268.25 260.75,-183.75 8,-183.75"/>
<polygon fill="#f5f5f5" stroke="none" points="8,-244.75 8,-268.25 260.75,-268.25 260.75,-244.75 8,-244.75"/>
<polygon fill="none" stroke="black" points="8,-244.75 8,-268.25 260.75,-268.25 260.75,-244.75 8,-244.75"/>
<text text-anchor="start" x="13" y="-253.8" font-family="Helvetica,sans-Serif" font-weight="bold" font-size="11.00">doc_condreport_desc_property</text>
<text text-anchor="start" x="219" y="-252.8" font-family="Helvetica,sans-Serif" font-size="11.00">[table]</text>
<polygon fill="none" stroke="black" points="8,-222.75 8,-244.75 260.75,-244.75 260.75,-222.75 8,-222.75"/>
<image xlink:href="../../images/primaryKeys.png" width="11px" height="12px" preserveAspectRatio="xMinYMin meet" x="13" y="-239.75"/>
<text text-anchor="start" x="40.88" y="-229.3" font-family="Helvetica,sans-Serif" font-size="11.00">identifier</text>
<polygon fill="none" stroke="black" points="8,-203.25 8,-222.75 260.75,-222.75 260.75,-203.25 8,-203.25"/>
<text text-anchor="start" x="11" y="-209.3" font-family="Helvetica,sans-Serif" font-size="11.00">...</text>
<polygon fill="#ffffff" stroke="none" points="8,-183.75 8,-203.25 88.25,-203.25 88.25,-183.75 8,-183.75"/>
<polygon fill="none" stroke="black" points="8,-183.75 8,-203.25 88.25,-203.25 88.25,-183.75 8,-183.75"/>
<text text-anchor="start" x="11" y="-189.8" font-family="Helvetica,sans-Serif" font-size="11.00"> &#160;</text>
<polygon fill="#ffffff" stroke="none" points="88.25,-183.75 88.25,-203.25 168.5,-203.25 168.5,-183.75 88.25,-183.75"/>
<polygon fill="none" stroke="black" points="88.25,-183.75 88.25,-203.25 168.5,-203.25 168.5,-183.75 88.25,-183.75"/>
<text text-anchor="start" x="158" y="-189.8" font-family="Helvetica,sans-Serif" font-size="11.00"> &#160;</text>
<polygon fill="#ffffff" stroke="none" points="168.5,-183.75 168.5,-203.25 260.75,-203.25 260.75,-183.75 168.5,-183.75"/>
<polygon fill="none" stroke="black" points="168.5,-183.75 168.5,-203.25 260.75,-203.25 260.75,-183.75 168.5,-183.75"/>
<text text-anchor="start" x="238.25" y="-189.8" font-family="Helvetica,sans-Serif" font-size="11.00">3 &gt;</text>
</a>
</g>
</g>
<!-- doc_condreport_desc&#45;&gt;doc_condreport_desc_property -->
<g id="edge1" class="edge">
<title>doc_condreport_desc:w&#45;&gt;doc_condreport_desc_property:e</title>
<path fill="none" stroke="black" d="M690.95,-268.05C683.65,-269.35 677.82,-271.26 666.5,-272 504.73,-282.57 452.21,-332.36 301.75,-272 278.92,-262.84 286.35,-233.75 261.75,-233.75"/>
<polygon fill="black" stroke="black" points="698.19,-267.45 706.47,-270.37 702.51,-267.08 705.83,-266.81 705.83,-266.81 705.83,-266.81 702.51,-267.08 705.87,-263.19 698.19,-267.45"/>
<ellipse fill="none" stroke="black" cx="693.29" cy="-267.86" rx="3.2" ry="3.2"/>
</g>
<!-- doc_condreport_desc_value -->
<g id="node3" class="node">
<title>doc_condreport_desc_value</title>
<g id="a_node3"><a xlink:href="../../tables/doc_condreport_desc_value.html" xlink:title="doc_condreport_desc_value" target="_top">
<polygon fill="#ffffff" stroke="none" points="309.75,-38.5 309.75,-261.5 658.5,-261.5 658.5,-38.5 309.75,-38.5"/>
<polygon fill="#f5f5f5" stroke="none" points="311.75,-236 311.75,-259.5 656.5,-259.5 656.5,-236 311.75,-236"/>
<polygon fill="none" stroke="black" points="311.75,-236 311.75,-259.5 656.5,-259.5 656.5,-236 311.75,-236"/>
<text text-anchor="start" x="316.75" y="-245.05" font-family="Helvetica,sans-Serif" font-weight="bold" font-size="11.00">doc_condreport_desc_value</text>
<text text-anchor="start" x="614.75" y="-244.05" font-family="Helvetica,sans-Serif" font-size="11.00">[table]</text>
<polygon fill="none" stroke="black" points="311.75,-214 311.75,-236 516.75,-236 516.75,-214 311.75,-214"/>
<image xlink:href="../../images/primaryKeys.png" width="11px" height="12px" preserveAspectRatio="xMinYMin meet" x="316.75" y="-231"/>
<text text-anchor="start" x="331.75" y="-220.55" font-family="Helvetica,sans-Serif" font-size="11.00">identifier</text>
<polygon fill="none" stroke="black" points="516.75,-214 516.75,-236 630.5,-236 630.5,-214 516.75,-214"/>
<text text-anchor="start" x="519.75" y="-221.3" font-family="Helvetica,sans-Serif" font-size="11.00">varchar[191]</text>
<polygon fill="none" stroke="black" points="311.75,-192 311.75,-214 516.75,-214 516.75,-192 311.75,-192"/>
<text text-anchor="start" x="331.75" y="-198.55" font-family="Helvetica,sans-Serif" font-size="11.00">label</text>
<polygon fill="none" stroke="black" points="516.75,-192 516.75,-214 630.5,-214 630.5,-192 516.75,-192"/>
<text text-anchor="start" x="519.75" y="-199.3" font-family="Helvetica,sans-Serif" font-size="11.00">varchar[255]</text>
<polygon fill="#ffffff" stroke="none" points="311.75,-170 311.75,-192 516.75,-192 516.75,-170 311.75,-170"/>
<polygon fill="none" stroke="black" points="311.75,-170 311.75,-192 516.75,-192 516.75,-170 311.75,-170"/>
<image xlink:href="../../images/foreignKeys.png" width="11px" height="12px" preserveAspectRatio="xMinYMin meet" x="316.75" y="-187"/>
<text text-anchor="start" x="331.75" y="-176.55" font-family="Helvetica,sans-Serif" font-size="11.00">property</text>
<polygon fill="none" stroke="black" points="516.75,-170 516.75,-192 630.5,-192 630.5,-170 516.75,-170"/>
<text text-anchor="start" x="519.75" y="-177.3" font-family="Helvetica,sans-Serif" font-size="11.00">varchar[191]</text>
<polygon fill="none" stroke="black" points="311.75,-148 311.75,-170 516.75,-170 516.75,-148 311.75,-148"/>
<text text-anchor="start" x="331.75" y="-154.55" font-family="Helvetica,sans-Serif" font-size="11.00">version</text>
<polygon fill="none" stroke="black" points="516.75,-148 516.75,-170 630.5,-170 630.5,-148 516.75,-148"/>
<text text-anchor="start" x="519.75" y="-155.3" font-family="Helvetica,sans-Serif" font-size="11.00">bigint[19]</text>
<polygon fill="none" stroke="black" points="311.75,-126 311.75,-148 516.75,-148 516.75,-126 311.75,-126"/>
<text text-anchor="start" x="331.75" y="-132.55" font-family="Helvetica,sans-Serif" font-size="11.00">created_by</text>
<polygon fill="none" stroke="black" points="516.75,-126 516.75,-148 630.5,-148 630.5,-126 516.75,-126"/>
<text text-anchor="start" x="519.75" y="-133.3" font-family="Helvetica,sans-Serif" font-size="11.00">varchar[191]</text>
<polygon fill="none" stroke="black" points="311.75,-104 311.75,-126 516.75,-126 516.75,-104 311.75,-104"/>
<text text-anchor="start" x="331.75" y="-110.55" font-family="Helvetica,sans-Serif" font-size="11.00">last_modified_by</text>
<polygon fill="none" stroke="black" points="516.75,-104 516.75,-126 630.5,-126 630.5,-104 516.75,-104"/>
<text text-anchor="start" x="519.75" y="-111.3" font-family="Helvetica,sans-Serif" font-size="11.00">varchar[191]</text>
<polygon fill="none" stroke="black" points="311.75,-82 311.75,-104 516.75,-104 516.75,-82 311.75,-82"/>
<text text-anchor="start" x="331.75" y="-88.55" font-family="Helvetica,sans-Serif" font-size="11.00">created_date</text>
<polygon fill="none" stroke="black" points="516.75,-82 516.75,-104 630.5,-104 630.5,-82 516.75,-82"/>
<text text-anchor="start" x="519.75" y="-89.3" font-family="Helvetica,sans-Serif" font-size="11.00">timestamp[19]</text>
<polygon fill="none" stroke="black" points="311.75,-60 311.75,-82 516.75,-82 516.75,-60 311.75,-60"/>
<text text-anchor="start" x="331.75" y="-66.55" font-family="Helvetica,sans-Serif" font-size="11.00">last_modified_date</text>
<polygon fill="none" stroke="black" points="516.75,-60 516.75,-82 630.5,-82 630.5,-60 516.75,-60"/>
<text text-anchor="start" x="519.75" y="-67.3" font-family="Helvetica,sans-Serif" font-size="11.00">timestamp[19]</text>
<polygon fill="#ffffff" stroke="none" points="311.75,-40.5 311.75,-60 420.25,-60 420.25,-40.5 311.75,-40.5"/>
<polygon fill="none" stroke="black" points="311.75,-40.5 311.75,-60 420.25,-60 420.25,-40.5 311.75,-40.5"/>
<text text-anchor="start" x="314.75" y="-46.55" font-family="Helvetica,sans-Serif" font-size="11.00">&lt; 1</text>
<polygon fill="#ffffff" stroke="none" points="420.25,-40.5 420.25,-60 516.75,-60 516.75,-40.5 420.25,-40.5"/>
<polygon fill="none" stroke="black" points="420.25,-40.5 420.25,-60 516.75,-60 516.75,-40.5 420.25,-40.5"/>
<text text-anchor="start" x="506.25" y="-46.55" font-family="Helvetica,sans-Serif" font-size="11.00"> &#160;</text>
<polygon fill="#ffffff" stroke="none" points="516.75,-40.5 516.75,-60 630.5,-60 630.5,-40.5 516.75,-40.5"/>
<polygon fill="none" stroke="black" points="516.75,-40.5 516.75,-60 630.5,-60 630.5,-40.5 516.75,-40.5"/>
<text text-anchor="start" x="608" y="-46.55" font-family="Helvetica,sans-Serif" font-size="11.00">1 &gt;</text>
<polygon fill="none" stroke="black" stroke-width="2" points="310.75,-39.5 310.75,-260.5 657.5,-260.5 657.5,-39.5 310.75,-39.5"/>
</a>
</g>
</g>
<!-- doc_condreport_desc&#45;&gt;doc_condreport_desc_value -->
<g id="edge2" class="edge">
<title>doc_condreport_desc:w&#45;&gt;doc_condreport_desc_value:e</title>
<path fill="none" stroke="black" d="M690.96,-243.2C669.11,-238.54 660.05,-225 631.5,-225"/>
<polygon fill="black" stroke="black" points="698.21,-243.92 705.81,-248.3 702.52,-244.35 705.83,-244.68 705.83,-244.68 705.83,-244.68 702.52,-244.35 706.52,-241.13 698.21,-243.92"/>
<ellipse fill="none" stroke="black" cx="693.31" cy="-243.44" rx="3.2" ry="3.2"/>
</g>
<!-- doc_condreport_desc_value&#45;&gt;doc_condreport_desc_property -->
<g id="edge3" class="edge">
<title>doc_condreport_desc_value:w&#45;&gt;doc_condreport_desc_property:e</title>
<path fill="none" stroke="black" d="M296.28,-186.65C282.9,-200.25 287.25,-233.75 261.75,-233.75"/>
<polygon fill="black" stroke="black" points="302.99,-184.03 311.75,-184.48 307.02,-182.45 310.13,-181.24 310.13,-181.24 310.13,-181.24 307.02,-182.45 309.13,-177.77 302.99,-184.03"/>
<ellipse fill="none" stroke="black" cx="298.4" cy="-185.82" rx="3.2" ry="3.2"/>
</g>
</g>
</svg>
