<?xml version="1.0" encoding="UTF-8" standalone="no"?>
<!DOCTYPE svg PUBLIC "-//W3C//DTD SVG 1.1//EN"
 "http://www.w3.org/Graphics/SVG/1.1/DTD/svg11.dtd">
<!-- Generated by graphviz version 12.2.0 (0)
 -->
<!-- Title: oneDegreeRelationshipsDiagram Pages: 1 -->
<svg width="657pt" height="307pt"
 viewBox="0.00 0.00 657.25 307.00" xmlns="http://www.w3.org/2000/svg" xmlns:xlink="http://www.w3.org/1999/xlink">
<g id="graph0" class="graph" transform="scale(1 1) rotate(0) translate(4 303)">
<title>oneDegreeRelationshipsDiagram</title>
<polygon fill="#ffffff" stroke="none" points="-4,4 -4,-303 653.25,-303 653.25,4 -4,4"/>
<text text-anchor="middle" x="79.25" y="-7.05" font-family="Helvetica,sans-Serif" font-size="11.00">Generated by SchemaSpy</text>
<!-- doc_physical_document_digital -->
<g id="node1" class="node">
<title>doc_physical_document_digital</title>
<g id="a_node1"><a xlink:href="../../tables/doc_physical_document_digital.html" xlink:title="doc_physical_document_digital" target="_top">
<polygon fill="#ffffff" stroke="none" points="261.75,-141.25 261.75,-232.25 641.25,-232.25 641.25,-141.25 261.75,-141.25"/>
<polygon fill="#f5f5f5" stroke="none" points="263.75,-206.75 263.75,-230.25 639.25,-230.25 639.25,-206.75 263.75,-206.75"/>
<polygon fill="none" stroke="black" points="263.75,-206.75 263.75,-230.25 639.25,-230.25 639.25,-206.75 263.75,-206.75"/>
<text text-anchor="start" x="268.75" y="-215.8" font-family="Helvetica,sans-Serif" font-weight="bold" font-size="11.00">doc_physical_document_digital</text>
<text text-anchor="start" x="597.5" y="-214.8" font-family="Helvetica,sans-Serif" font-size="11.00">[table]</text>
<polygon fill="none" stroke="black" points="263.75,-184.75 263.75,-206.75 492.75,-206.75 492.75,-184.75 263.75,-184.75"/>
<image xlink:href="../../images/primaryKeys.png" width="11px" height="12px" preserveAspectRatio="xMinYMin meet" x="268.75" y="-201.75"/>
<text text-anchor="start" x="283.75" y="-191.3" font-family="Helvetica,sans-Serif" font-size="11.00">physical_document</text>
<polygon fill="none" stroke="black" points="492.75,-184.75 492.75,-206.75 604.62,-206.75 604.62,-184.75 492.75,-184.75"/>
<text text-anchor="start" x="495.75" y="-192.05" font-family="Helvetica,sans-Serif" font-size="11.00">varchar[191]</text>
<polygon fill="none" stroke="black" points="263.75,-162.75 263.75,-184.75 492.75,-184.75 492.75,-162.75 263.75,-162.75"/>
<image xlink:href="../../images/primaryKeys.png" width="11px" height="12px" preserveAspectRatio="xMinYMin meet" x="268.75" y="-179.75"/>
<text text-anchor="start" x="283.75" y="-169.3" font-family="Helvetica,sans-Serif" font-size="11.00">digital_document</text>
<polygon fill="none" stroke="black" points="492.75,-162.75 492.75,-184.75 604.62,-184.75 604.62,-162.75 492.75,-162.75"/>
<text text-anchor="start" x="495.75" y="-170.05" font-family="Helvetica,sans-Serif" font-size="11.00">varchar[191]</text>
<polygon fill="#ffffff" stroke="none" points="263.75,-143.25 263.75,-162.75 384.25,-162.75 384.25,-143.25 263.75,-143.25"/>
<polygon fill="none" stroke="black" points="263.75,-143.25 263.75,-162.75 384.25,-162.75 384.25,-143.25 263.75,-143.25"/>
<text text-anchor="start" x="266.75" y="-149.3" font-family="Helvetica,sans-Serif" font-size="11.00">&lt; 2</text>
<polygon fill="#ffffff" stroke="none" points="384.25,-143.25 384.25,-162.75 492.75,-162.75 492.75,-143.25 384.25,-143.25"/>
<polygon fill="none" stroke="black" points="384.25,-143.25 384.25,-162.75 492.75,-162.75 492.75,-143.25 384.25,-143.25"/>
<text text-anchor="start" x="482.25" y="-149.3" font-family="Helvetica,sans-Serif" font-size="11.00"> &#160;</text>
<polygon fill="#ffffff" stroke="none" points="492.75,-143.25 492.75,-162.75 604.62,-162.75 604.62,-143.25 492.75,-143.25"/>
<polygon fill="none" stroke="black" points="492.75,-143.25 492.75,-162.75 604.62,-162.75 604.62,-143.25 492.75,-143.25"/>
<text text-anchor="start" x="582.12" y="-149.3" font-family="Helvetica,sans-Serif" font-size="11.00">0 &gt;</text>
<polygon fill="none" stroke="black" stroke-width="2" points="262.75,-142.25 262.75,-231.25 640.25,-231.25 640.25,-142.25 262.75,-142.25"/>
</a>
</g>
</g>
<!-- doc_digital_document -->
<g id="node2" class="node">
<title>doc_digital_document</title>
<g id="a_node2"><a xlink:href="../../tables/doc_digital_document.html" xlink:title="doc_digital_document" target="_top">
<polygon fill="#ffffff" stroke="none" points="14,-38.5 14,-145 206.75,-145 206.75,-38.5 14,-38.5"/>
<polygon fill="#f5f5f5" stroke="none" points="14,-121.5 14,-145 206.75,-145 206.75,-121.5 14,-121.5"/>
<polygon fill="none" stroke="black" points="14,-121.5 14,-145 206.75,-145 206.75,-121.5 14,-121.5"/>
<text text-anchor="start" x="19" y="-130.55" font-family="Helvetica,sans-Serif" font-weight="bold" font-size="11.00">doc_digital_document</text>
<text text-anchor="start" x="165" y="-129.55" font-family="Helvetica,sans-Serif" font-size="11.00">[table]</text>
<polygon fill="none" stroke="black" points="14,-99.5 14,-121.5 206.75,-121.5 206.75,-99.5 14,-99.5"/>
<image xlink:href="../../images/primaryKeys.png" width="11px" height="12px" preserveAspectRatio="xMinYMin meet" x="19" y="-116.5"/>
<text text-anchor="start" x="46.88" y="-106.05" font-family="Helvetica,sans-Serif" font-size="11.00">identifier</text>
<polygon fill="#ffffff" stroke="none" points="14,-77.5 14,-99.5 206.75,-99.5 206.75,-77.5 14,-77.5"/>
<polygon fill="none" stroke="black" points="14,-77.5 14,-99.5 206.75,-99.5 206.75,-77.5 14,-77.5"/>
<image xlink:href="../../images/foreignKeys.png" width="11px" height="12px" preserveAspectRatio="xMinYMin meet" x="19" y="-94.5"/>
<text text-anchor="start" x="46.88" y="-84.05" font-family="Helvetica,sans-Serif" font-size="11.00">doc_unit</text>
<polygon fill="none" stroke="black" points="14,-58 14,-77.5 206.75,-77.5 206.75,-58 14,-58"/>
<text text-anchor="start" x="17" y="-64.05" font-family="Helvetica,sans-Serif" font-size="11.00">...</text>
<polygon fill="#ffffff" stroke="none" points="14,-38.5 14,-58 82.25,-58 82.25,-38.5 14,-38.5"/>
<polygon fill="none" stroke="black" points="14,-38.5 14,-58 82.25,-58 82.25,-38.5 14,-38.5"/>
<text text-anchor="start" x="17" y="-44.55" font-family="Helvetica,sans-Serif" font-size="11.00">&lt; 1</text>
<polygon fill="#ffffff" stroke="none" points="82.25,-38.5 82.25,-58 138.5,-58 138.5,-38.5 82.25,-38.5"/>
<polygon fill="none" stroke="black" points="82.25,-38.5 82.25,-58 138.5,-58 138.5,-38.5 82.25,-38.5"/>
<text text-anchor="start" x="128" y="-44.55" font-family="Helvetica,sans-Serif" font-size="11.00"> &#160;</text>
<polygon fill="#ffffff" stroke="none" points="138.5,-38.5 138.5,-58 206.75,-58 206.75,-38.5 138.5,-38.5"/>
<polygon fill="none" stroke="black" points="138.5,-38.5 138.5,-58 206.75,-58 206.75,-38.5 138.5,-38.5"/>
<text text-anchor="start" x="184.25" y="-44.55" font-family="Helvetica,sans-Serif" font-size="11.00">6 &gt;</text>
</a>
</g>
</g>
<!-- doc_physical_document_digital&#45;&gt;doc_digital_document -->
<g id="edge1" class="edge">
<title>doc_physical_document_digital:w&#45;&gt;doc_digital_document:e</title>
<path fill="none" stroke="black" d="M248,-168.79C230.53,-153.88 238.6,-110.5 207.75,-110.5"/>
<polygon fill="black" stroke="black" points="254.85,-171.09 261.29,-177.06 258.96,-172.47 262.12,-173.54 262.12,-173.54 262.12,-173.54 258.96,-172.47 263.58,-170.23 254.85,-171.09"/>
<ellipse fill="none" stroke="black" cx="250.19" cy="-169.52" rx="3.2" ry="3.2"/>
</g>
<!-- doc_physical_document -->
<g id="node3" class="node">
<title>doc_physical_document</title>
<g id="a_node3"><a xlink:href="../../tables/doc_physical_document.html" xlink:title="doc_physical_document" target="_top">
<polygon fill="#ffffff" stroke="none" points="8,-166.5 8,-295 212.75,-295 212.75,-166.5 8,-166.5"/>
<polygon fill="#f5f5f5" stroke="none" points="8,-271.5 8,-295 212.75,-295 212.75,-271.5 8,-271.5"/>
<polygon fill="none" stroke="black" points="8,-271.5 8,-295 212.75,-295 212.75,-271.5 8,-271.5"/>
<text text-anchor="start" x="13" y="-280.55" font-family="Helvetica,sans-Serif" font-weight="bold" font-size="11.00">doc_physical_document</text>
<text text-anchor="start" x="171" y="-279.55" font-family="Helvetica,sans-Serif" font-size="11.00">[table]</text>
<polygon fill="none" stroke="black" points="8,-249.5 8,-271.5 212.75,-271.5 212.75,-249.5 8,-249.5"/>
<image xlink:href="../../images/primaryKeys.png" width="11px" height="12px" preserveAspectRatio="xMinYMin meet" x="13" y="-266.5"/>
<text text-anchor="start" x="40.88" y="-256.05" font-family="Helvetica,sans-Serif" font-size="11.00">identifier</text>
<polygon fill="#ffffff" stroke="none" points="8,-227.5 8,-249.5 212.75,-249.5 212.75,-227.5 8,-227.5"/>
<polygon fill="none" stroke="black" points="8,-227.5 8,-249.5 212.75,-249.5 212.75,-227.5 8,-227.5"/>
<image xlink:href="../../images/foreignKeys.png" width="11px" height="12px" preserveAspectRatio="xMinYMin meet" x="13" y="-244.5"/>
<text text-anchor="start" x="40.88" y="-234.05" font-family="Helvetica,sans-Serif" font-size="11.00">doc_unit</text>
<polygon fill="#ffffff" stroke="none" points="8,-205.5 8,-227.5 212.75,-227.5 212.75,-205.5 8,-205.5"/>
<polygon fill="none" stroke="black" points="8,-205.5 8,-227.5 212.75,-227.5 212.75,-205.5 8,-205.5"/>
<image xlink:href="../../images/foreignKeys.png" width="11px" height="12px" preserveAspectRatio="xMinYMin meet" x="13" y="-222.5"/>
<text text-anchor="start" x="40.88" y="-212.05" font-family="Helvetica,sans-Serif" font-size="11.00">train</text>
<polygon fill="none" stroke="black" points="8,-186 8,-205.5 212.75,-205.5 212.75,-186 8,-186"/>
<text text-anchor="start" x="11" y="-192.05" font-family="Helvetica,sans-Serif" font-size="11.00">...</text>
<polygon fill="#ffffff" stroke="none" points="8,-166.5 8,-186 80.25,-186 80.25,-166.5 8,-166.5"/>
<polygon fill="none" stroke="black" points="8,-166.5 8,-186 80.25,-186 80.25,-166.5 8,-166.5"/>
<text text-anchor="start" x="11" y="-172.55" font-family="Helvetica,sans-Serif" font-size="11.00">&lt; 2</text>
<polygon fill="#ffffff" stroke="none" points="80.25,-166.5 80.25,-186 140.5,-186 140.5,-166.5 80.25,-166.5"/>
<polygon fill="none" stroke="black" points="80.25,-166.5 80.25,-186 140.5,-186 140.5,-166.5 80.25,-166.5"/>
<text text-anchor="start" x="130" y="-172.55" font-family="Helvetica,sans-Serif" font-size="11.00"> &#160;</text>
<polygon fill="#ffffff" stroke="none" points="140.5,-166.5 140.5,-186 212.75,-186 212.75,-166.5 140.5,-166.5"/>
<polygon fill="none" stroke="black" points="140.5,-166.5 140.5,-186 212.75,-186 212.75,-166.5 140.5,-166.5"/>
<text text-anchor="start" x="190.25" y="-172.55" font-family="Helvetica,sans-Serif" font-size="11.00">2 &gt;</text>
</a>
</g>
</g>
<!-- doc_physical_document_digital&#45;&gt;doc_physical_document -->
<g id="edge2" class="edge">
<title>doc_physical_document_digital:w&#45;&gt;doc_physical_document:e</title>
<path fill="none" stroke="black" d="M248.35,-201.27C233.08,-216.93 243.35,-260.5 213.75,-260.5"/>
<polygon fill="black" stroke="black" points="254.97,-198.73 263.73,-199.23 259.02,-197.18 262.13,-195.99 262.13,-195.99 262.13,-195.99 259.02,-197.18 261.15,-192.51 254.97,-198.73"/>
<ellipse fill="none" stroke="black" cx="250.38" cy="-200.49" rx="3.2" ry="3.2"/>
</g>
</g>
</svg>
