<?xml version="1.0" encoding="UTF-8" standalone="no"?>
<!DOCTYPE svg PUBLIC "-//W3C//DTD SVG 1.1//EN"
 "http://www.w3.org/Graphics/SVG/1.1/DTD/svg11.dtd">
<!-- Generated by graphviz version 12.2.0 (0)
 -->
<!-- Title: oneDegreeRelationshipsDiagram Pages: 1 -->
<svg width="505pt" height="450pt"
 viewBox="0.00 0.00 504.50 449.50" xmlns="http://www.w3.org/2000/svg" xmlns:xlink="http://www.w3.org/1999/xlink">
<g id="graph0" class="graph" transform="scale(1 1) rotate(0) translate(4 445.5)">
<title>oneDegreeRelationshipsDiagram</title>
<polygon fill="#ffffff" stroke="none" points="-4,4 -4,-445.5 500.5,-445.5 500.5,4 -4,4"/>
<text text-anchor="middle" x="79.25" y="-7.05" font-family="Helvetica,sans-Serif" font-size="11.00">Generated by SchemaSpy</text>
<!-- exc_mapping_rule -->
<g id="node1" class="node">
<title>exc_mapping_rule</title>
<g id="a_node1"><a xlink:href="../../tables/exc_mapping_rule.html" xlink:title="exc_mapping_rule" target="_top">
<polygon fill="#ffffff" stroke="none" points="228.75,-38.5 228.75,-437.5 488.5,-437.5 488.5,-38.5 228.75,-38.5"/>
<polygon fill="#f5f5f5" stroke="none" points="230.75,-412 230.75,-435.5 486.5,-435.5 486.5,-412 230.75,-412"/>
<polygon fill="none" stroke="black" points="230.75,-412 230.75,-435.5 486.5,-435.5 486.5,-412 230.75,-412"/>
<text text-anchor="start" x="235.75" y="-421.05" font-family="Helvetica,sans-Serif" font-weight="bold" font-size="11.00">exc_mapping_rule</text>
<text text-anchor="start" x="444.75" y="-420.05" font-family="Helvetica,sans-Serif" font-size="11.00">[table]</text>
<polygon fill="none" stroke="black" points="230.75,-390 230.75,-412 378.75,-412 378.75,-390 230.75,-390"/>
<image xlink:href="../../images/primaryKeys.png" width="11px" height="12px" preserveAspectRatio="xMinYMin meet" x="235.75" y="-407"/>
<text text-anchor="start" x="250.75" y="-396.55" font-family="Helvetica,sans-Serif" font-size="11.00">identifier</text>
<polygon fill="none" stroke="black" points="378.75,-390 378.75,-412 476.5,-412 476.5,-390 378.75,-390"/>
<text text-anchor="start" x="381.75" y="-397.3" font-family="Helvetica,sans-Serif" font-size="11.00">varchar[191]</text>
<polygon fill="none" stroke="black" points="230.75,-368 230.75,-390 378.75,-390 378.75,-368 230.75,-368"/>
<text text-anchor="start" x="250.75" y="-374.55" font-family="Helvetica,sans-Serif" font-size="11.00">doc_unit_field</text>
<polygon fill="none" stroke="black" points="378.75,-368 378.75,-390 476.5,-390 476.5,-368 378.75,-368"/>
<text text-anchor="start" x="381.75" y="-375.3" font-family="Helvetica,sans-Serif" font-size="11.00">varchar[255]</text>
<polygon fill="none" stroke="black" points="230.75,-346 230.75,-368 378.75,-368 378.75,-346 230.75,-346"/>
<text text-anchor="start" x="250.75" y="-352.55" font-family="Helvetica,sans-Serif" font-size="11.00">bib_record_field</text>
<polygon fill="none" stroke="black" points="378.75,-346 378.75,-368 476.5,-368 476.5,-346 378.75,-346"/>
<text text-anchor="start" x="381.75" y="-353.3" font-family="Helvetica,sans-Serif" font-size="11.00">varchar[255]</text>
<polygon fill="#ffffff" stroke="none" points="230.75,-324 230.75,-346 378.75,-346 378.75,-324 230.75,-324"/>
<polygon fill="none" stroke="black" points="230.75,-324 230.75,-346 378.75,-346 378.75,-324 230.75,-324"/>
<image xlink:href="../../images/foreignKeys.png" width="11px" height="12px" preserveAspectRatio="xMinYMin meet" x="235.75" y="-341"/>
<text text-anchor="start" x="250.75" y="-330.55" font-family="Helvetica,sans-Serif" font-size="11.00">property</text>
<polygon fill="none" stroke="black" points="378.75,-324 378.75,-346 476.5,-346 476.5,-324 378.75,-324"/>
<text text-anchor="start" x="381.75" y="-331.3" font-family="Helvetica,sans-Serif" font-size="11.00">varchar[191]</text>
<polygon fill="none" stroke="black" points="230.75,-302 230.75,-324 378.75,-324 378.75,-302 230.75,-302"/>
<text text-anchor="start" x="250.75" y="-308.55" font-family="Helvetica,sans-Serif" font-size="11.00">expression</text>
<polygon fill="none" stroke="black" points="378.75,-302 378.75,-324 476.5,-324 476.5,-302 378.75,-302"/>
<text text-anchor="start" x="381.75" y="-309.3" font-family="Helvetica,sans-Serif" font-size="11.00">text[65535]</text>
<polygon fill="none" stroke="black" points="230.75,-280 230.75,-302 378.75,-302 378.75,-280 230.75,-280"/>
<text text-anchor="start" x="250.75" y="-286.55" font-family="Helvetica,sans-Serif" font-size="11.00">expression_conf</text>
<polygon fill="none" stroke="black" points="378.75,-280 378.75,-302 476.5,-302 476.5,-280 378.75,-280"/>
<text text-anchor="start" x="381.75" y="-287.3" font-family="Helvetica,sans-Serif" font-size="11.00">text[65535]</text>
<polygon fill="none" stroke="black" points="230.75,-258 230.75,-280 378.75,-280 378.75,-258 230.75,-258"/>
<text text-anchor="start" x="250.75" y="-264.55" font-family="Helvetica,sans-Serif" font-size="11.00">apply_if</text>
<polygon fill="none" stroke="black" points="378.75,-258 378.75,-280 476.5,-280 476.5,-258 378.75,-258"/>
<text text-anchor="start" x="381.75" y="-265.3" font-family="Helvetica,sans-Serif" font-size="11.00">text[65535]</text>
<polygon fill="none" stroke="black" points="230.75,-236 230.75,-258 378.75,-258 378.75,-236 230.75,-236"/>
<text text-anchor="start" x="250.75" y="-242.55" font-family="Helvetica,sans-Serif" font-size="11.00">apply_if_conf</text>
<polygon fill="none" stroke="black" points="378.75,-236 378.75,-258 476.5,-258 476.5,-236 378.75,-236"/>
<text text-anchor="start" x="381.75" y="-243.3" font-family="Helvetica,sans-Serif" font-size="11.00">text[65535]</text>
<polygon fill="#ffffff" stroke="none" points="230.75,-214 230.75,-236 378.75,-236 378.75,-214 230.75,-214"/>
<polygon fill="none" stroke="black" points="230.75,-214 230.75,-236 378.75,-236 378.75,-214 230.75,-214"/>
<image xlink:href="../../images/foreignKeys.png" width="11px" height="12px" preserveAspectRatio="xMinYMin meet" x="235.75" y="-231"/>
<text text-anchor="start" x="250.75" y="-220.55" font-family="Helvetica,sans-Serif" font-size="11.00">mapping</text>
<polygon fill="none" stroke="black" points="378.75,-214 378.75,-236 476.5,-236 476.5,-214 378.75,-214"/>
<text text-anchor="start" x="381.75" y="-221.3" font-family="Helvetica,sans-Serif" font-size="11.00">varchar[191]</text>
<polygon fill="none" stroke="black" points="230.75,-192 230.75,-214 378.75,-214 378.75,-192 230.75,-192"/>
<text text-anchor="start" x="250.75" y="-198.55" font-family="Helvetica,sans-Serif" font-size="11.00">version</text>
<polygon fill="none" stroke="black" points="378.75,-192 378.75,-214 476.5,-214 476.5,-192 378.75,-192"/>
<text text-anchor="start" x="381.75" y="-199.3" font-family="Helvetica,sans-Serif" font-size="11.00">bigint[19]</text>
<polygon fill="none" stroke="black" points="230.75,-170 230.75,-192 378.75,-192 378.75,-170 230.75,-170"/>
<text text-anchor="start" x="250.75" y="-176.55" font-family="Helvetica,sans-Serif" font-size="11.00">created_by</text>
<polygon fill="none" stroke="black" points="378.75,-170 378.75,-192 476.5,-192 476.5,-170 378.75,-170"/>
<text text-anchor="start" x="381.75" y="-177.3" font-family="Helvetica,sans-Serif" font-size="11.00">varchar[255]</text>
<polygon fill="none" stroke="black" points="230.75,-148 230.75,-170 378.75,-170 378.75,-148 230.75,-148"/>
<text text-anchor="start" x="250.75" y="-154.55" font-family="Helvetica,sans-Serif" font-size="11.00">last_modified_by</text>
<polygon fill="none" stroke="black" points="378.75,-148 378.75,-170 476.5,-170 476.5,-148 378.75,-148"/>
<text text-anchor="start" x="381.75" y="-155.3" font-family="Helvetica,sans-Serif" font-size="11.00">varchar[255]</text>
<polygon fill="none" stroke="black" points="230.75,-126 230.75,-148 378.75,-148 378.75,-126 230.75,-126"/>
<text text-anchor="start" x="250.75" y="-132.55" font-family="Helvetica,sans-Serif" font-size="11.00">created_date</text>
<polygon fill="none" stroke="black" points="378.75,-126 378.75,-148 476.5,-148 476.5,-126 378.75,-126"/>
<text text-anchor="start" x="381.75" y="-133.3" font-family="Helvetica,sans-Serif" font-size="11.00">timestamp[19]</text>
<polygon fill="none" stroke="black" points="230.75,-104 230.75,-126 378.75,-126 378.75,-104 230.75,-104"/>
<text text-anchor="start" x="250.75" y="-110.55" font-family="Helvetica,sans-Serif" font-size="11.00">last_modified_date</text>
<polygon fill="none" stroke="black" points="378.75,-104 378.75,-126 476.5,-126 476.5,-104 378.75,-104"/>
<text text-anchor="start" x="381.75" y="-111.3" font-family="Helvetica,sans-Serif" font-size="11.00">timestamp[19]</text>
<polygon fill="none" stroke="black" points="230.75,-82 230.75,-104 378.75,-104 378.75,-82 230.75,-82"/>
<text text-anchor="start" x="250.75" y="-88.55" font-family="Helvetica,sans-Serif" font-size="11.00">position</text>
<polygon fill="none" stroke="black" points="378.75,-82 378.75,-104 476.5,-104 476.5,-82 378.75,-82"/>
<text text-anchor="start" x="381.75" y="-89.3" font-family="Helvetica,sans-Serif" font-size="11.00">int[10]</text>
<polygon fill="none" stroke="black" points="230.75,-60 230.75,-82 378.75,-82 378.75,-60 230.75,-60"/>
<text text-anchor="start" x="250.75" y="-66.55" font-family="Helvetica,sans-Serif" font-size="11.00">default_rule</text>
<polygon fill="none" stroke="black" points="378.75,-60 378.75,-82 476.5,-82 476.5,-60 378.75,-60"/>
<text text-anchor="start" x="381.75" y="-67.3" font-family="Helvetica,sans-Serif" font-size="11.00">bit[1]</text>
<polygon fill="#ffffff" stroke="none" points="230.75,-40.5 230.75,-60 310.75,-60 310.75,-40.5 230.75,-40.5"/>
<polygon fill="none" stroke="black" points="230.75,-40.5 230.75,-60 310.75,-60 310.75,-40.5 230.75,-40.5"/>
<text text-anchor="start" x="233.75" y="-46.55" font-family="Helvetica,sans-Serif" font-size="11.00">&lt; 2</text>
<polygon fill="#ffffff" stroke="none" points="310.75,-40.5 310.75,-60 378.75,-60 378.75,-40.5 310.75,-40.5"/>
<polygon fill="none" stroke="black" points="310.75,-40.5 310.75,-60 378.75,-60 378.75,-40.5 310.75,-40.5"/>
<text text-anchor="start" x="368.25" y="-46.55" font-family="Helvetica,sans-Serif" font-size="11.00"> &#160;</text>
<polygon fill="#ffffff" stroke="none" points="378.75,-40.5 378.75,-60 476.5,-60 476.5,-40.5 378.75,-40.5"/>
<polygon fill="none" stroke="black" points="378.75,-40.5 378.75,-60 476.5,-60 476.5,-40.5 378.75,-40.5"/>
<text text-anchor="start" x="454" y="-46.55" font-family="Helvetica,sans-Serif" font-size="11.00">0 &gt;</text>
<polygon fill="none" stroke="black" stroke-width="2" points="229.75,-39.5 229.75,-436.5 487.5,-436.5 487.5,-39.5 229.75,-39.5"/>
</a>
</g>
</g>
<!-- exc_mapping -->
<g id="node2" class="node">
<title>exc_mapping</title>
<g id="a_node2"><a xlink:href="../../tables/exc_mapping.html" xlink:title="exc_mapping" target="_top">
<polygon fill="#ffffff" stroke="none" points="19.88,-153.75 19.88,-260.25 167.88,-260.25 167.88,-153.75 19.88,-153.75"/>
<polygon fill="#f5f5f5" stroke="none" points="19.88,-236.75 19.88,-260.25 167.88,-260.25 167.88,-236.75 19.88,-236.75"/>
<polygon fill="none" stroke="black" points="19.88,-236.75 19.88,-260.25 167.88,-260.25 167.88,-236.75 19.88,-236.75"/>
<text text-anchor="start" x="24.88" y="-245.8" font-family="Helvetica,sans-Serif" font-weight="bold" font-size="11.00">exc_mapping</text>
<text text-anchor="start" x="126.12" y="-244.8" font-family="Helvetica,sans-Serif" font-size="11.00">[table]</text>
<polygon fill="none" stroke="black" points="19.88,-214.75 19.88,-236.75 167.88,-236.75 167.88,-214.75 19.88,-214.75"/>
<image xlink:href="../../images/primaryKeys.png" width="11px" height="12px" preserveAspectRatio="xMinYMin meet" x="24.875" y="-231.75"/>
<text text-anchor="start" x="39.88" y="-221.3" font-family="Helvetica,sans-Serif" font-size="11.00">identifier</text>
<polygon fill="#ffffff" stroke="none" points="19.88,-192.75 19.88,-214.75 167.88,-214.75 167.88,-192.75 19.88,-192.75"/>
<polygon fill="none" stroke="black" points="19.88,-192.75 19.88,-214.75 167.88,-214.75 167.88,-192.75 19.88,-192.75"/>
<image xlink:href="../../images/foreignKeys.png" width="11px" height="12px" preserveAspectRatio="xMinYMin meet" x="24.875" y="-209.75"/>
<text text-anchor="start" x="39.88" y="-199.3" font-family="Helvetica,sans-Serif" font-size="11.00">library</text>
<polygon fill="none" stroke="black" points="19.88,-173.25 19.88,-192.75 167.88,-192.75 167.88,-173.25 19.88,-173.25"/>
<text text-anchor="start" x="22.88" y="-179.3" font-family="Helvetica,sans-Serif" font-size="11.00">...</text>
<polygon fill="#ffffff" stroke="none" points="19.88,-153.75 19.88,-173.25 73.21,-173.25 73.21,-153.75 19.88,-153.75"/>
<polygon fill="none" stroke="black" points="19.88,-153.75 19.88,-173.25 73.21,-173.25 73.21,-153.75 19.88,-153.75"/>
<text text-anchor="start" x="22.88" y="-159.8" font-family="Helvetica,sans-Serif" font-size="11.00">&lt; 1</text>
<polygon fill="#ffffff" stroke="none" points="73.21,-153.75 73.21,-173.25 114.54,-173.25 114.54,-153.75 73.21,-153.75"/>
<polygon fill="none" stroke="black" points="73.21,-153.75 73.21,-173.25 114.54,-173.25 114.54,-153.75 73.21,-153.75"/>
<text text-anchor="start" x="104.04" y="-159.8" font-family="Helvetica,sans-Serif" font-size="11.00"> &#160;</text>
<polygon fill="#ffffff" stroke="none" points="114.54,-153.75 114.54,-173.25 167.88,-173.25 167.88,-153.75 114.54,-153.75"/>
<polygon fill="none" stroke="black" points="114.54,-153.75 114.54,-173.25 167.88,-173.25 167.88,-153.75 114.54,-153.75"/>
<text text-anchor="start" x="145.38" y="-159.8" font-family="Helvetica,sans-Serif" font-size="11.00">3 &gt;</text>
</a>
</g>
</g>
<!-- exc_mapping_rule&#45;&gt;exc_mapping -->
<g id="edge1" class="edge">
<title>exc_mapping_rule:w&#45;&gt;exc_mapping:e</title>
<path fill="none" stroke="black" d="M214.01,-225.1C198.59,-225.3 189.8,-225.75 168.88,-225.75"/>
<polygon fill="black" stroke="black" points="221.42,-225.05 229.44,-228.6 225.75,-225.02 229.08,-225 229.08,-225 229.08,-225 225.75,-225.02 229.39,-221.4 221.42,-225.05"/>
<ellipse fill="none" stroke="black" cx="216.5" cy="-225.08" rx="3.2" ry="3.2"/>
</g>
<!-- doc_property_type -->
<g id="node3" class="node">
<title>doc_property_type</title>
<g id="a_node3"><a xlink:href="../../tables/doc_property_type.html" xlink:title="doc_property_type" target="_top">
<polygon fill="#ffffff" stroke="none" points="8,-284.75 8,-369.25 179.75,-369.25 179.75,-284.75 8,-284.75"/>
<polygon fill="#f5f5f5" stroke="none" points="8,-345.75 8,-369.25 179.75,-369.25 179.75,-345.75 8,-345.75"/>
<polygon fill="none" stroke="black" points="8,-345.75 8,-369.25 179.75,-369.25 179.75,-345.75 8,-345.75"/>
<text text-anchor="start" x="13" y="-354.8" font-family="Helvetica,sans-Serif" font-weight="bold" font-size="11.00">doc_property_type</text>
<text text-anchor="start" x="138" y="-353.8" font-family="Helvetica,sans-Serif" font-size="11.00">[table]</text>
<polygon fill="none" stroke="black" points="8,-323.75 8,-345.75 179.75,-345.75 179.75,-323.75 8,-323.75"/>
<image xlink:href="../../images/primaryKeys.png" width="11px" height="12px" preserveAspectRatio="xMinYMin meet" x="13" y="-340.75"/>
<text text-anchor="start" x="39.88" y="-330.3" font-family="Helvetica,sans-Serif" font-size="11.00">identifier</text>
<polygon fill="none" stroke="black" points="8,-304.25 8,-323.75 179.75,-323.75 179.75,-304.25 8,-304.25"/>
<text text-anchor="start" x="11" y="-310.3" font-family="Helvetica,sans-Serif" font-size="11.00">...</text>
<polygon fill="#ffffff" stroke="none" points="8,-284.75 8,-304.25 61.25,-304.25 61.25,-284.75 8,-284.75"/>
<polygon fill="none" stroke="black" points="8,-284.75 8,-304.25 61.25,-304.25 61.25,-284.75 8,-284.75"/>
<text text-anchor="start" x="11" y="-290.8" font-family="Helvetica,sans-Serif" font-size="11.00"> &#160;</text>
<polygon fill="#ffffff" stroke="none" points="61.25,-284.75 61.25,-304.25 114.5,-304.25 114.5,-284.75 61.25,-284.75"/>
<polygon fill="none" stroke="black" points="61.25,-284.75 61.25,-304.25 114.5,-304.25 114.5,-284.75 61.25,-284.75"/>
<text text-anchor="start" x="104" y="-290.8" font-family="Helvetica,sans-Serif" font-size="11.00"> &#160;</text>
<polygon fill="#ffffff" stroke="none" points="114.5,-284.75 114.5,-304.25 179.75,-304.25 179.75,-284.75 114.5,-284.75"/>
<polygon fill="none" stroke="black" points="114.5,-284.75 114.5,-304.25 179.75,-304.25 179.75,-284.75 114.5,-284.75"/>
<text text-anchor="start" x="157.25" y="-290.8" font-family="Helvetica,sans-Serif" font-size="11.00">4 &gt;</text>
</a>
</g>
</g>
<!-- exc_mapping_rule&#45;&gt;doc_property_type -->
<g id="edge2" class="edge">
<title>exc_mapping_rule:w&#45;&gt;doc_property_type:e</title>
<path fill="none" stroke="black" d="M214.17,-334.95C203.46,-334.88 196.23,-334.75 180.75,-334.75"/>
<polygon fill="black" stroke="black" points="221.42,-334.97 229.4,-338.6 225.75,-334.99 229.08,-335 229.08,-335 229.08,-335 225.75,-334.99 229.43,-331.4 221.42,-334.97"/>
<ellipse fill="none" stroke="black" cx="216.5" cy="-334.96" rx="3.2" ry="3.2"/>
</g>
</g>
</svg>
