<?xml version="1.0" encoding="UTF-8" standalone="no"?>
<!DOCTYPE svg PUBLIC "-//W3C//DTD SVG 1.1//EN"
 "http://www.w3.org/Graphics/SVG/1.1/DTD/svg11.dtd">
<!-- Generated by graphviz version 12.2.0 (0)
 -->
<!-- Title: oneDegreeRelationshipsDiagram Pages: 1 -->
<svg width="552pt" height="318pt"
 viewBox="0.00 0.00 551.75 317.50" xmlns="http://www.w3.org/2000/svg" xmlns:xlink="http://www.w3.org/1999/xlink">
<g id="graph0" class="graph" transform="scale(1 1) rotate(0) translate(4 313.5)">
<title>oneDegreeRelationshipsDiagram</title>
<polygon fill="#ffffff" stroke="none" points="-4,4 -4,-313.5 547.75,-313.5 547.75,4 -4,4"/>
<text text-anchor="middle" x="79.25" y="-7.05" font-family="Helvetica,sans-Serif" font-size="11.00">Generated by SchemaSpy</text>
<!-- exc_template -->
<g id="node1" class="node">
<title>exc_template</title>
<g id="a_node1"><a xlink:href="../../tables/exc_template.html" xlink:title="exc_template" target="_top">
<polygon fill="#ffffff" stroke="none" points="291,-38.5 291,-305.5 535.75,-305.5 535.75,-38.5 291,-38.5"/>
<polygon fill="#f5f5f5" stroke="none" points="293,-280 293,-303.5 533.75,-303.5 533.75,-280 293,-280"/>
<polygon fill="none" stroke="black" points="293,-280 293,-303.5 533.75,-303.5 533.75,-280 293,-280"/>
<text text-anchor="start" x="298" y="-289.05" font-family="Helvetica,sans-Serif" font-weight="bold" font-size="11.00">exc_template</text>
<text text-anchor="start" x="492" y="-288.05" font-family="Helvetica,sans-Serif" font-size="11.00">[table]</text>
<polygon fill="none" stroke="black" points="293,-258 293,-280 441,-280 441,-258 293,-258"/>
<image xlink:href="../../images/primaryKeys.png" width="11px" height="12px" preserveAspectRatio="xMinYMin meet" x="298" y="-275"/>
<text text-anchor="start" x="313" y="-264.55" font-family="Helvetica,sans-Serif" font-size="11.00">identifier</text>
<polygon fill="none" stroke="black" points="441,-258 441,-280 531.25,-280 531.25,-258 441,-258"/>
<text text-anchor="start" x="444" y="-265.3" font-family="Helvetica,sans-Serif" font-size="11.00">varchar[191]</text>
<polygon fill="#ffffff" stroke="none" points="293,-236 293,-258 441,-258 441,-236 293,-236"/>
<polygon fill="none" stroke="black" points="293,-236 293,-258 441,-258 441,-236 293,-236"/>
<text text-anchor="start" x="313" y="-242.55" font-family="Helvetica,sans-Serif" font-size="11.00">name</text>
<polygon fill="none" stroke="black" points="441,-236 441,-258 531.25,-258 531.25,-236 441,-236"/>
<text text-anchor="start" x="444" y="-243.3" font-family="Helvetica,sans-Serif" font-size="11.00">varchar[191]</text>
<polygon fill="#ffffff" stroke="none" points="293,-214 293,-236 441,-236 441,-214 293,-214"/>
<polygon fill="none" stroke="black" points="293,-214 293,-236 441,-236 441,-214 293,-214"/>
<image xlink:href="../../images/foreignKeys.png" width="11px" height="12px" preserveAspectRatio="xMinYMin meet" x="298" y="-231"/>
<text text-anchor="start" x="313" y="-220.55" font-family="Helvetica,sans-Serif" font-size="11.00">library</text>
<polygon fill="none" stroke="black" points="441,-214 441,-236 531.25,-236 531.25,-214 441,-214"/>
<text text-anchor="start" x="444" y="-221.3" font-family="Helvetica,sans-Serif" font-size="11.00">varchar[191]</text>
<polygon fill="none" stroke="black" points="293,-192 293,-214 441,-214 441,-192 293,-192"/>
<text text-anchor="start" x="313" y="-198.55" font-family="Helvetica,sans-Serif" font-size="11.00">original_filename</text>
<polygon fill="none" stroke="black" points="441,-192 441,-214 531.25,-214 531.25,-192 441,-192"/>
<text text-anchor="start" x="444" y="-199.3" font-family="Helvetica,sans-Serif" font-size="11.00">varchar[1024]</text>
<polygon fill="none" stroke="black" points="293,-170 293,-192 441,-192 441,-170 293,-170"/>
<text text-anchor="start" x="313" y="-176.55" font-family="Helvetica,sans-Serif" font-size="11.00">file_size</text>
<polygon fill="none" stroke="black" points="441,-170 441,-192 531.25,-192 531.25,-170 441,-170"/>
<text text-anchor="start" x="444" y="-177.3" font-family="Helvetica,sans-Serif" font-size="11.00">bigint[19]</text>
<polygon fill="none" stroke="black" points="293,-148 293,-170 441,-170 441,-148 293,-148"/>
<text text-anchor="start" x="313" y="-154.55" font-family="Helvetica,sans-Serif" font-size="11.00">version</text>
<polygon fill="none" stroke="black" points="441,-148 441,-170 531.25,-170 531.25,-148 441,-148"/>
<text text-anchor="start" x="444" y="-155.3" font-family="Helvetica,sans-Serif" font-size="11.00">bigint[19]</text>
<polygon fill="none" stroke="black" points="293,-126 293,-148 441,-148 441,-126 293,-126"/>
<text text-anchor="start" x="313" y="-132.55" font-family="Helvetica,sans-Serif" font-size="11.00">created_by</text>
<polygon fill="none" stroke="black" points="441,-126 441,-148 531.25,-148 531.25,-126 441,-126"/>
<text text-anchor="start" x="444" y="-133.3" font-family="Helvetica,sans-Serif" font-size="11.00">varchar[255]</text>
<polygon fill="none" stroke="black" points="293,-104 293,-126 441,-126 441,-104 293,-104"/>
<text text-anchor="start" x="313" y="-110.55" font-family="Helvetica,sans-Serif" font-size="11.00">last_modified_by</text>
<polygon fill="none" stroke="black" points="441,-104 441,-126 531.25,-126 531.25,-104 441,-104"/>
<text text-anchor="start" x="444" y="-111.3" font-family="Helvetica,sans-Serif" font-size="11.00">varchar[255]</text>
<polygon fill="none" stroke="black" points="293,-82 293,-104 441,-104 441,-82 293,-82"/>
<text text-anchor="start" x="313" y="-88.55" font-family="Helvetica,sans-Serif" font-size="11.00">created_date</text>
<polygon fill="none" stroke="black" points="441,-82 441,-104 531.25,-104 531.25,-82 441,-82"/>
<text text-anchor="start" x="444" y="-89.3" font-family="Helvetica,sans-Serif" font-size="11.00">timestamp[19]</text>
<polygon fill="none" stroke="black" points="293,-60 293,-82 441,-82 441,-60 293,-60"/>
<text text-anchor="start" x="313" y="-66.55" font-family="Helvetica,sans-Serif" font-size="11.00">last_modified_date</text>
<polygon fill="none" stroke="black" points="441,-60 441,-82 531.25,-82 531.25,-60 441,-60"/>
<text text-anchor="start" x="444" y="-67.3" font-family="Helvetica,sans-Serif" font-size="11.00">timestamp[19]</text>
<polygon fill="#ffffff" stroke="none" points="293,-40.5 293,-60 373,-60 373,-40.5 293,-40.5"/>
<polygon fill="none" stroke="black" points="293,-40.5 293,-60 373,-60 373,-40.5 293,-40.5"/>
<text text-anchor="start" x="296" y="-46.55" font-family="Helvetica,sans-Serif" font-size="11.00">&lt; 1</text>
<polygon fill="#ffffff" stroke="none" points="373,-40.5 373,-60 441,-60 441,-40.5 373,-40.5"/>
<polygon fill="none" stroke="black" points="373,-40.5 373,-60 441,-60 441,-40.5 373,-40.5"/>
<text text-anchor="start" x="430.5" y="-46.55" font-family="Helvetica,sans-Serif" font-size="11.00"> &#160;</text>
<polygon fill="#ffffff" stroke="none" points="441,-40.5 441,-60 531.25,-60 531.25,-40.5 441,-40.5"/>
<polygon fill="none" stroke="black" points="441,-40.5 441,-60 531.25,-60 531.25,-40.5 441,-40.5"/>
<text text-anchor="start" x="508.75" y="-46.55" font-family="Helvetica,sans-Serif" font-size="11.00">0 &gt;</text>
<polygon fill="none" stroke="black" stroke-width="2" points="292,-39.5 292,-304.5 534.75,-304.5 534.75,-39.5 292,-39.5"/>
</a>
</g>
</g>
<!-- lib_library -->
<g id="node2" class="node">
<title>lib_library</title>
<g id="a_node2"><a xlink:href="../../tables/lib_library.html" xlink:title="lib_library" target="_top">
<polygon fill="#ffffff" stroke="none" points="8,-43.75 8,-260.25 242,-260.25 242,-43.75 8,-43.75"/>
<polygon fill="#f5f5f5" stroke="none" points="8,-236.75 8,-260.25 242,-260.25 242,-236.75 8,-236.75"/>
<polygon fill="none" stroke="black" points="8,-236.75 8,-260.25 242,-260.25 242,-236.75 8,-236.75"/>
<text text-anchor="start" x="13" y="-245.8" font-family="Helvetica,sans-Serif" font-weight="bold" font-size="11.00">lib_library</text>
<text text-anchor="start" x="200.25" y="-244.8" font-family="Helvetica,sans-Serif" font-size="11.00">[table]</text>
<polygon fill="none" stroke="black" points="8,-214.75 8,-236.75 242,-236.75 242,-214.75 8,-214.75"/>
<image xlink:href="../../images/primaryKeys.png" width="11px" height="12px" preserveAspectRatio="xMinYMin meet" x="13" y="-231.75"/>
<text text-anchor="start" x="28" y="-221.3" font-family="Helvetica,sans-Serif" font-size="11.00">identifier</text>
<polygon fill="#ffffff" stroke="none" points="8,-192.75 8,-214.75 242,-214.75 242,-192.75 8,-192.75"/>
<polygon fill="none" stroke="black" points="8,-192.75 8,-214.75 242,-214.75 242,-192.75 8,-192.75"/>
<image xlink:href="../../images/foreignKeys.png" width="11px" height="12px" preserveAspectRatio="xMinYMin meet" x="13" y="-209.75"/>
<text text-anchor="start" x="28" y="-199.3" font-family="Helvetica,sans-Serif" font-size="11.00">address</text>
<polygon fill="#ffffff" stroke="none" points="8,-170.75 8,-192.75 242,-192.75 242,-170.75 8,-170.75"/>
<polygon fill="none" stroke="black" points="8,-170.75 8,-192.75 242,-192.75 242,-170.75 8,-170.75"/>
<image xlink:href="../../images/foreignKeys.png" width="11px" height="12px" preserveAspectRatio="xMinYMin meet" x="13" y="-187.75"/>
<text text-anchor="start" x="28" y="-177.3" font-family="Helvetica,sans-Serif" font-size="11.00">active_configuration_ftp</text>
<polygon fill="#ffffff" stroke="none" points="8,-148.75 8,-170.75 242,-170.75 242,-148.75 8,-148.75"/>
<polygon fill="none" stroke="black" points="8,-148.75 8,-170.75 242,-170.75 242,-148.75 8,-148.75"/>
<image xlink:href="../../images/foreignKeys.png" width="11px" height="12px" preserveAspectRatio="xMinYMin meet" x="13" y="-165.75"/>
<text text-anchor="start" x="28" y="-155.3" font-family="Helvetica,sans-Serif" font-size="11.00">active_configuration_check</text>
<polygon fill="#ffffff" stroke="none" points="8,-126.75 8,-148.75 242,-148.75 242,-126.75 8,-126.75"/>
<polygon fill="none" stroke="black" points="8,-126.75 8,-148.75 242,-148.75 242,-126.75 8,-126.75"/>
<image xlink:href="../../images/foreignKeys.png" width="11px" height="12px" preserveAspectRatio="xMinYMin meet" x="13" y="-143.75"/>
<text text-anchor="start" x="28" y="-133.3" font-family="Helvetica,sans-Serif" font-size="11.00">role</text>
<polygon fill="#ffffff" stroke="none" points="8,-104.75 8,-126.75 242,-126.75 242,-104.75 8,-104.75"/>
<polygon fill="none" stroke="black" points="8,-104.75 8,-126.75 242,-126.75 242,-104.75 8,-104.75"/>
<image xlink:href="../../images/foreignKeys.png" width="11px" height="12px" preserveAspectRatio="xMinYMin meet" x="13" y="-121.75"/>
<text text-anchor="start" x="28" y="-111.3" font-family="Helvetica,sans-Serif" font-size="11.00">active_configuration_export_ftp</text>
<polygon fill="#ffffff" stroke="none" points="8,-82.75 8,-104.75 242,-104.75 242,-82.75 8,-82.75"/>
<polygon fill="none" stroke="black" points="8,-82.75 8,-104.75 242,-104.75 242,-82.75 8,-82.75"/>
<image xlink:href="../../images/foreignKeys.png" width="11px" height="12px" preserveAspectRatio="xMinYMin meet" x="13" y="-99.75"/>
<text text-anchor="start" x="28" y="-89.3" font-family="Helvetica,sans-Serif" font-size="11.00">active_configuration_ocr_lang</text>
<polygon fill="none" stroke="black" points="8,-63.25 8,-82.75 242,-82.75 242,-63.25 8,-63.25"/>
<text text-anchor="start" x="11" y="-69.3" font-family="Helvetica,sans-Serif" font-size="11.00">...</text>
<polygon fill="#ffffff" stroke="none" points="8,-43.75 8,-63.25 87.75,-63.25 87.75,-43.75 8,-43.75"/>
<polygon fill="none" stroke="black" points="8,-43.75 8,-63.25 87.75,-63.25 87.75,-43.75 8,-43.75"/>
<text text-anchor="start" x="11" y="-49.8" font-family="Helvetica,sans-Serif" font-size="11.00">&lt; 6</text>
<polygon fill="#ffffff" stroke="none" points="87.75,-43.75 87.75,-63.25 155.5,-63.25 155.5,-43.75 87.75,-43.75"/>
<polygon fill="none" stroke="black" points="87.75,-43.75 87.75,-63.25 155.5,-63.25 155.5,-43.75 87.75,-43.75"/>
<text text-anchor="start" x="145" y="-49.8" font-family="Helvetica,sans-Serif" font-size="11.00"> &#160;</text>
<polygon fill="#ffffff" stroke="none" points="155.5,-43.75 155.5,-63.25 242,-63.25 242,-43.75 155.5,-43.75"/>
<polygon fill="none" stroke="black" points="155.5,-43.75 155.5,-63.25 242,-63.25 242,-43.75 155.5,-43.75"/>
<text text-anchor="start" x="212.75" y="-49.8" font-family="Helvetica,sans-Serif" font-size="11.00">27 &gt;</text>
</a>
</g>
</g>
<!-- exc_template&#45;&gt;lib_library -->
<g id="edge1" class="edge">
<title>exc_template:w&#45;&gt;lib_library:e</title>
<path fill="none" stroke="black" d="M276.42,-225.15C265.71,-225.37 258.48,-225.75 243,-225.75"/>
<polygon fill="black" stroke="black" points="283.67,-225.08 291.7,-228.6 288,-225.04 291.33,-225.01 291.33,-225.01 291.33,-225.01 288,-225.04 291.63,-221.4 283.67,-225.08"/>
<ellipse fill="none" stroke="black" cx="278.75" cy="-225.13" rx="3.2" ry="3.2"/>
</g>
</g>
</svg>
