<?xml version="1.0" encoding="UTF-8" standalone="no"?>
<!DOCTYPE svg PUBLIC "-//W3C//DTD SVG 1.1//EN"
 "http://www.w3.org/Graphics/SVG/1.1/DTD/svg11.dtd">
<!-- Generated by graphviz version 12.2.0 (0)
 -->
<!-- Title: oneDegreeRelationshipsDiagram Pages: 1 -->
<svg width="719pt" height="812pt"
 viewBox="0.00 0.00 719.00 812.25" xmlns="http://www.w3.org/2000/svg" xmlns:xlink="http://www.w3.org/1999/xlink">
<g id="graph0" class="graph" transform="scale(1 1) rotate(0) translate(4 808.25)">
<title>oneDegreeRelationshipsDiagram</title>
<polygon fill="#ffffff" stroke="none" points="-4,4 -4,-808.25 715,-808.25 715,4 -4,4"/>
<text text-anchor="middle" x="79.25" y="-7.05" font-family="Helvetica,sans-Serif" font-size="11.00">Generated by SchemaSpy</text>
<!-- exc_doc_unit -->
<g id="node1" class="node">
<title>exc_doc_unit</title>
<g id="a_node1"><a xlink:href="../../tables/exc_doc_unit.html" xlink:title="exc_doc_unit" target="_top">
<polygon fill="#ffffff" stroke="none" points="244,-379.25 244,-800.25 486.25,-800.25 486.25,-379.25 244,-379.25"/>
<polygon fill="#f5f5f5" stroke="none" points="246,-774.75 246,-798.25 484.25,-798.25 484.25,-774.75 246,-774.75"/>
<polygon fill="none" stroke="black" points="246,-774.75 246,-798.25 484.25,-798.25 484.25,-774.75 246,-774.75"/>
<text text-anchor="start" x="251" y="-783.8" font-family="Helvetica,sans-Serif" font-weight="bold" font-size="11.00">exc_doc_unit</text>
<text text-anchor="start" x="442.5" y="-782.8" font-family="Helvetica,sans-Serif" font-size="11.00">[table]</text>
<polygon fill="none" stroke="black" points="246,-752.75 246,-774.75 394,-774.75 394,-752.75 246,-752.75"/>
<image xlink:href="../../images/primaryKeys.png" width="11px" height="12px" preserveAspectRatio="xMinYMin meet" x="251" y="-769.75"/>
<text text-anchor="start" x="266" y="-759.3" font-family="Helvetica,sans-Serif" font-size="11.00">identifier</text>
<polygon fill="none" stroke="black" points="394,-752.75 394,-774.75 483,-774.75 483,-752.75 394,-752.75"/>
<text text-anchor="start" x="397" y="-760.05" font-family="Helvetica,sans-Serif" font-size="11.00">varchar[191]</text>
<polygon fill="#ffffff" stroke="none" points="246,-730.75 246,-752.75 394,-752.75 394,-730.75 246,-730.75"/>
<polygon fill="none" stroke="black" points="246,-730.75 246,-752.75 394,-752.75 394,-730.75 246,-730.75"/>
<image xlink:href="../../images/foreignKeys.png" width="11px" height="12px" preserveAspectRatio="xMinYMin meet" x="251" y="-747.75"/>
<text text-anchor="start" x="266" y="-737.3" font-family="Helvetica,sans-Serif" font-size="11.00">report</text>
<polygon fill="none" stroke="black" points="394,-730.75 394,-752.75 483,-752.75 483,-730.75 394,-730.75"/>
<text text-anchor="start" x="397" y="-738.05" font-family="Helvetica,sans-Serif" font-size="11.00">varchar[191]</text>
<polygon fill="none" stroke="black" points="246,-708.75 246,-730.75 394,-730.75 394,-708.75 246,-708.75"/>
<text text-anchor="start" x="266" y="-715.3" font-family="Helvetica,sans-Serif" font-size="11.00">process</text>
<polygon fill="none" stroke="black" points="394,-708.75 394,-730.75 483,-730.75 483,-708.75 394,-708.75"/>
<text text-anchor="start" x="397" y="-716.05" font-family="Helvetica,sans-Serif" font-size="11.00">varchar[255]</text>
<polygon fill="none" stroke="black" points="246,-686.75 246,-708.75 394,-708.75 394,-686.75 246,-686.75"/>
<text text-anchor="start" x="266" y="-693.3" font-family="Helvetica,sans-Serif" font-size="11.00">date_import</text>
<polygon fill="none" stroke="black" points="394,-686.75 394,-708.75 483,-708.75 483,-686.75 394,-686.75"/>
<text text-anchor="start" x="397" y="-694.05" font-family="Helvetica,sans-Serif" font-size="11.00">timestamp[19]</text>
<polygon fill="#ffffff" stroke="none" points="246,-664.75 246,-686.75 394,-686.75 394,-664.75 246,-664.75"/>
<polygon fill="none" stroke="black" points="246,-664.75 246,-686.75 394,-686.75 394,-664.75 246,-664.75"/>
<image xlink:href="../../images/foreignKeys.png" width="11px" height="12px" preserveAspectRatio="xMinYMin meet" x="251" y="-681.75"/>
<text text-anchor="start" x="266" y="-671.3" font-family="Helvetica,sans-Serif" font-size="11.00">doc_unit</text>
<polygon fill="none" stroke="black" points="394,-664.75 394,-686.75 483,-686.75 483,-664.75 394,-664.75"/>
<text text-anchor="start" x="397" y="-672.05" font-family="Helvetica,sans-Serif" font-size="11.00">varchar[191]</text>
<polygon fill="none" stroke="black" points="246,-642.75 246,-664.75 394,-664.75 394,-642.75 246,-642.75"/>
<text text-anchor="start" x="266" y="-649.3" font-family="Helvetica,sans-Serif" font-size="11.00">doc_unit_pgcn_id</text>
<polygon fill="none" stroke="black" points="394,-642.75 394,-664.75 483,-664.75 483,-642.75 394,-642.75"/>
<text text-anchor="start" x="397" y="-650.05" font-family="Helvetica,sans-Serif" font-size="11.00">varchar[191]</text>
<polygon fill="none" stroke="black" points="246,-620.75 246,-642.75 394,-642.75 394,-620.75 246,-620.75"/>
<text text-anchor="start" x="266" y="-627.3" font-family="Helvetica,sans-Serif" font-size="11.00">doc_unit_label</text>
<polygon fill="none" stroke="black" points="394,-620.75 394,-642.75 483,-642.75 483,-620.75 394,-620.75"/>
<text text-anchor="start" x="397" y="-628.05" font-family="Helvetica,sans-Serif" font-size="11.00">varchar[255]</text>
<polygon fill="none" stroke="black" points="246,-598.75 246,-620.75 394,-620.75 394,-598.75 246,-598.75"/>
<text text-anchor="start" x="266" y="-605.3" font-family="Helvetica,sans-Serif" font-size="11.00">version</text>
<polygon fill="none" stroke="black" points="394,-598.75 394,-620.75 483,-620.75 483,-598.75 394,-598.75"/>
<text text-anchor="start" x="397" y="-606.05" font-family="Helvetica,sans-Serif" font-size="11.00">bigint[19]</text>
<polygon fill="none" stroke="black" points="246,-576.75 246,-598.75 394,-598.75 394,-576.75 246,-576.75"/>
<text text-anchor="start" x="266" y="-583.3" font-family="Helvetica,sans-Serif" font-size="11.00">created_by</text>
<polygon fill="none" stroke="black" points="394,-576.75 394,-598.75 483,-598.75 483,-576.75 394,-576.75"/>
<text text-anchor="start" x="397" y="-584.05" font-family="Helvetica,sans-Serif" font-size="11.00">varchar[255]</text>
<polygon fill="none" stroke="black" points="246,-554.75 246,-576.75 394,-576.75 394,-554.75 246,-554.75"/>
<text text-anchor="start" x="266" y="-561.3" font-family="Helvetica,sans-Serif" font-size="11.00">last_modified_by</text>
<polygon fill="none" stroke="black" points="394,-554.75 394,-576.75 483,-576.75 483,-554.75 394,-554.75"/>
<text text-anchor="start" x="397" y="-562.05" font-family="Helvetica,sans-Serif" font-size="11.00">varchar[255]</text>
<polygon fill="none" stroke="black" points="246,-532.75 246,-554.75 394,-554.75 394,-532.75 246,-532.75"/>
<text text-anchor="start" x="266" y="-539.3" font-family="Helvetica,sans-Serif" font-size="11.00">created_date</text>
<polygon fill="none" stroke="black" points="394,-532.75 394,-554.75 483,-554.75 483,-532.75 394,-532.75"/>
<text text-anchor="start" x="397" y="-540.05" font-family="Helvetica,sans-Serif" font-size="11.00">timestamp[19]</text>
<polygon fill="none" stroke="black" points="246,-510.75 246,-532.75 394,-532.75 394,-510.75 246,-510.75"/>
<text text-anchor="start" x="266" y="-517.3" font-family="Helvetica,sans-Serif" font-size="11.00">last_modified_date</text>
<polygon fill="none" stroke="black" points="394,-510.75 394,-532.75 483,-532.75 483,-510.75 394,-510.75"/>
<text text-anchor="start" x="397" y="-518.05" font-family="Helvetica,sans-Serif" font-size="11.00">timestamp[19]</text>
<polygon fill="#ffffff" stroke="none" points="246,-488.75 246,-510.75 394,-510.75 394,-488.75 246,-488.75"/>
<polygon fill="none" stroke="black" points="246,-488.75 246,-510.75 394,-510.75 394,-488.75 246,-488.75"/>
<text text-anchor="start" x="266" y="-495.3" font-family="Helvetica,sans-Serif" font-size="11.00">parent_key</text>
<polygon fill="none" stroke="black" points="394,-488.75 394,-510.75 483,-510.75 483,-488.75 394,-488.75"/>
<text text-anchor="start" x="397" y="-496.05" font-family="Helvetica,sans-Serif" font-size="11.00">varchar[191]</text>
<polygon fill="none" stroke="black" points="246,-466.75 246,-488.75 394,-488.75 394,-466.75 246,-466.75"/>
<text text-anchor="start" x="266" y="-473.3" font-family="Helvetica,sans-Serif" font-size="11.00">parent_doc_unit</text>
<polygon fill="none" stroke="black" points="394,-466.75 394,-488.75 483,-488.75 483,-466.75 394,-466.75"/>
<text text-anchor="start" x="397" y="-474.05" font-family="Helvetica,sans-Serif" font-size="11.00">varchar[191]</text>
<polygon fill="none" stroke="black" points="246,-444.75 246,-466.75 394,-466.75 394,-444.75 246,-444.75"/>
<text text-anchor="start" x="266" y="-451.3" font-family="Helvetica,sans-Serif" font-size="11.00">parent_pgcn_id</text>
<polygon fill="none" stroke="black" points="394,-444.75 394,-466.75 483,-466.75 483,-444.75 394,-444.75"/>
<text text-anchor="start" x="397" y="-452.05" font-family="Helvetica,sans-Serif" font-size="11.00">varchar[191]</text>
<polygon fill="none" stroke="black" points="246,-422.75 246,-444.75 394,-444.75 394,-422.75 246,-422.75"/>
<text text-anchor="start" x="266" y="-429.3" font-family="Helvetica,sans-Serif" font-size="11.00">parent_label</text>
<polygon fill="none" stroke="black" points="394,-422.75 394,-444.75 483,-444.75 483,-422.75 394,-422.75"/>
<text text-anchor="start" x="397" y="-430.05" font-family="Helvetica,sans-Serif" font-size="11.00">varchar[255]</text>
<polygon fill="none" stroke="black" points="246,-400.75 246,-422.75 394,-422.75 394,-400.75 246,-400.75"/>
<text text-anchor="start" x="266" y="-407.3" font-family="Helvetica,sans-Serif" font-size="11.00">group_code</text>
<polygon fill="none" stroke="black" points="394,-400.75 394,-422.75 483,-422.75 483,-400.75 394,-400.75"/>
<text text-anchor="start" x="397" y="-408.05" font-family="Helvetica,sans-Serif" font-size="11.00">varchar[255]</text>
<polygon fill="#ffffff" stroke="none" points="246,-381.25 246,-400.75 326,-400.75 326,-381.25 246,-381.25"/>
<polygon fill="none" stroke="black" points="246,-381.25 246,-400.75 326,-400.75 326,-381.25 246,-381.25"/>
<text text-anchor="start" x="249" y="-387.3" font-family="Helvetica,sans-Serif" font-size="11.00">&lt; 2</text>
<polygon fill="#ffffff" stroke="none" points="326,-381.25 326,-400.75 394,-400.75 394,-381.25 326,-381.25"/>
<polygon fill="none" stroke="black" points="326,-381.25 326,-400.75 394,-400.75 394,-381.25 326,-381.25"/>
<text text-anchor="start" x="383.5" y="-387.3" font-family="Helvetica,sans-Serif" font-size="11.00"> &#160;</text>
<polygon fill="#ffffff" stroke="none" points="394,-381.25 394,-400.75 483,-400.75 483,-381.25 394,-381.25"/>
<polygon fill="none" stroke="black" points="394,-381.25 394,-400.75 483,-400.75 483,-381.25 394,-381.25"/>
<text text-anchor="start" x="460.5" y="-387.3" font-family="Helvetica,sans-Serif" font-size="11.00">2 &gt;</text>
<polygon fill="none" stroke="black" stroke-width="2" points="245,-380.25 245,-799.25 485.25,-799.25 485.25,-380.25 245,-380.25"/>
</a>
</g>
</g>
<!-- doc_unit -->
<g id="node2" class="node">
<title>doc_unit</title>
<g id="a_node2"><a xlink:href="../../tables/doc_unit.html" xlink:title="doc_unit" target="_top">
<polygon fill="#ffffff" stroke="none" points="8,-38.5 8,-453 195,-453 195,-38.5 8,-38.5"/>
<polygon fill="#f5f5f5" stroke="none" points="8,-429.5 8,-453 195,-453 195,-429.5 8,-429.5"/>
<polygon fill="none" stroke="black" points="8,-429.5 8,-453 195,-453 195,-429.5 8,-429.5"/>
<text text-anchor="start" x="13" y="-438.55" font-family="Helvetica,sans-Serif" font-weight="bold" font-size="11.00">doc_unit</text>
<text text-anchor="start" x="153.25" y="-437.55" font-family="Helvetica,sans-Serif" font-size="11.00">[table]</text>
<polygon fill="none" stroke="black" points="8,-407.5 8,-429.5 195,-429.5 195,-407.5 8,-407.5"/>
<image xlink:href="../../images/primaryKeys.png" width="11px" height="12px" preserveAspectRatio="xMinYMin meet" x="13" y="-424.5"/>
<text text-anchor="start" x="28" y="-414.05" font-family="Helvetica,sans-Serif" font-size="11.00">identifier</text>
<polygon fill="#ffffff" stroke="none" points="8,-385.5 8,-407.5 195,-407.5 195,-385.5 8,-385.5"/>
<polygon fill="none" stroke="black" points="8,-385.5 8,-407.5 195,-407.5 195,-385.5 8,-385.5"/>
<text text-anchor="start" x="28" y="-392.05" font-family="Helvetica,sans-Serif" font-size="11.00">pgcn_id</text>
<polygon fill="#ffffff" stroke="none" points="8,-363.5 8,-385.5 195,-385.5 195,-363.5 8,-363.5"/>
<polygon fill="none" stroke="black" points="8,-363.5 8,-385.5 195,-385.5 195,-363.5 8,-363.5"/>
<image xlink:href="../../images/foreignKeys.png" width="11px" height="12px" preserveAspectRatio="xMinYMin meet" x="13" y="-380.5"/>
<text text-anchor="start" x="28" y="-370.05" font-family="Helvetica,sans-Serif" font-size="11.00">library</text>
<polygon fill="#ffffff" stroke="none" points="8,-341.5 8,-363.5 195,-363.5 195,-341.5 8,-341.5"/>
<polygon fill="none" stroke="black" points="8,-341.5 8,-363.5 195,-363.5 195,-341.5 8,-341.5"/>
<image xlink:href="../../images/foreignKeys.png" width="11px" height="12px" preserveAspectRatio="xMinYMin meet" x="13" y="-358.5"/>
<text text-anchor="start" x="28" y="-348.05" font-family="Helvetica,sans-Serif" font-size="11.00">project</text>
<polygon fill="#ffffff" stroke="none" points="8,-319.5 8,-341.5 195,-341.5 195,-319.5 8,-319.5"/>
<polygon fill="none" stroke="black" points="8,-319.5 8,-341.5 195,-341.5 195,-319.5 8,-319.5"/>
<text text-anchor="start" x="28" y="-326.05" font-family="Helvetica,sans-Serif" font-size="11.00">state</text>
<polygon fill="#ffffff" stroke="none" points="8,-297.5 8,-319.5 195,-319.5 195,-297.5 8,-297.5"/>
<polygon fill="none" stroke="black" points="8,-297.5 8,-319.5 195,-319.5 195,-297.5 8,-297.5"/>
<image xlink:href="../../images/foreignKeys.png" width="11px" height="12px" preserveAspectRatio="xMinYMin meet" x="13" y="-314.5"/>
<text text-anchor="start" x="28" y="-304.05" font-family="Helvetica,sans-Serif" font-size="11.00">lot</text>
<polygon fill="#ffffff" stroke="none" points="8,-275.5 8,-297.5 195,-297.5 195,-275.5 8,-275.5"/>
<polygon fill="none" stroke="black" points="8,-275.5 8,-297.5 195,-297.5 195,-275.5 8,-275.5"/>
<image xlink:href="../../images/foreignKeys.png" width="11px" height="12px" preserveAspectRatio="xMinYMin meet" x="13" y="-292.5"/>
<text text-anchor="start" x="28" y="-282.05" font-family="Helvetica,sans-Serif" font-size="11.00">collection_omeka</text>
<polygon fill="#ffffff" stroke="none" points="8,-253.5 8,-275.5 195,-275.5 195,-253.5 8,-253.5"/>
<polygon fill="none" stroke="black" points="8,-253.5 8,-275.5 195,-275.5 195,-253.5 8,-253.5"/>
<image xlink:href="../../images/foreignKeys.png" width="11px" height="12px" preserveAspectRatio="xMinYMin meet" x="13" y="-270.5"/>
<text text-anchor="start" x="28" y="-260.05" font-family="Helvetica,sans-Serif" font-size="11.00">items_omeka</text>
<polygon fill="#ffffff" stroke="none" points="8,-231.5 8,-253.5 195,-253.5 195,-231.5 8,-231.5"/>
<polygon fill="none" stroke="black" points="8,-231.5 8,-253.5 195,-253.5 195,-231.5 8,-231.5"/>
<image xlink:href="../../images/foreignKeys.png" width="11px" height="12px" preserveAspectRatio="xMinYMin meet" x="13" y="-248.5"/>
<text text-anchor="start" x="28" y="-238.05" font-family="Helvetica,sans-Serif" font-size="11.00">parent</text>
<polygon fill="#ffffff" stroke="none" points="8,-209.5 8,-231.5 195,-231.5 195,-209.5 8,-209.5"/>
<polygon fill="none" stroke="black" points="8,-209.5 8,-231.5 195,-231.5 195,-209.5 8,-209.5"/>
<image xlink:href="../../images/foreignKeys.png" width="11px" height="12px" preserveAspectRatio="xMinYMin meet" x="13" y="-226.5"/>
<text text-anchor="start" x="28" y="-216.05" font-family="Helvetica,sans-Serif" font-size="11.00">active_ocr_lang</text>
<polygon fill="#ffffff" stroke="none" points="8,-187.5 8,-209.5 195,-209.5 195,-187.5 8,-187.5"/>
<polygon fill="none" stroke="black" points="8,-187.5 8,-209.5 195,-209.5 195,-187.5 8,-187.5"/>
<image xlink:href="../../images/foreignKeys.png" width="11px" height="12px" preserveAspectRatio="xMinYMin meet" x="13" y="-204.5"/>
<text text-anchor="start" x="28" y="-194.05" font-family="Helvetica,sans-Serif" font-size="11.00">collection_ia</text>
<polygon fill="#ffffff" stroke="none" points="8,-165.5 8,-187.5 195,-187.5 195,-165.5 8,-165.5"/>
<polygon fill="none" stroke="black" points="8,-165.5 8,-187.5 195,-187.5 195,-165.5 8,-165.5"/>
<image xlink:href="../../images/foreignKeys.png" width="11px" height="12px" preserveAspectRatio="xMinYMin meet" x="13" y="-182.5"/>
<text text-anchor="start" x="28" y="-172.05" font-family="Helvetica,sans-Serif" font-size="11.00">classement_pac</text>
<polygon fill="#ffffff" stroke="none" points="8,-143.5 8,-165.5 195,-165.5 195,-143.5 8,-143.5"/>
<polygon fill="none" stroke="black" points="8,-143.5 8,-165.5 195,-165.5 195,-143.5 8,-143.5"/>
<image xlink:href="../../images/foreignKeys.png" width="11px" height="12px" preserveAspectRatio="xMinYMin meet" x="13" y="-160.5"/>
<text text-anchor="start" x="28" y="-150.05" font-family="Helvetica,sans-Serif" font-size="11.00">sibling</text>
<polygon fill="#ffffff" stroke="none" points="8,-121.5 8,-143.5 195,-143.5 195,-121.5 8,-121.5"/>
<polygon fill="none" stroke="black" points="8,-121.5 8,-143.5 195,-143.5 195,-121.5 8,-121.5"/>
<image xlink:href="../../images/foreignKeys.png" width="11px" height="12px" preserveAspectRatio="xMinYMin meet" x="13" y="-138.5"/>
<text text-anchor="start" x="28" y="-128.05" font-family="Helvetica,sans-Serif" font-size="11.00">export_data</text>
<polygon fill="#ffffff" stroke="none" points="8,-99.5 8,-121.5 195,-121.5 195,-99.5 8,-99.5"/>
<polygon fill="none" stroke="black" points="8,-99.5 8,-121.5 195,-121.5 195,-99.5 8,-99.5"/>
<image xlink:href="../../images/foreignKeys.png" width="11px" height="12px" preserveAspectRatio="xMinYMin meet" x="13" y="-116.5"/>
<text text-anchor="start" x="28" y="-106.05" font-family="Helvetica,sans-Serif" font-size="11.00">archive_item</text>
<polygon fill="#ffffff" stroke="none" points="8,-77.5 8,-99.5 195,-99.5 195,-77.5 8,-77.5"/>
<polygon fill="none" stroke="black" points="8,-77.5 8,-99.5 195,-99.5 195,-77.5 8,-77.5"/>
<image xlink:href="../../images/foreignKeys.png" width="11px" height="12px" preserveAspectRatio="xMinYMin meet" x="13" y="-94.5"/>
<text text-anchor="start" x="28" y="-84.05" font-family="Helvetica,sans-Serif" font-size="11.00">workflow</text>
<polygon fill="none" stroke="black" points="8,-58 8,-77.5 195,-77.5 195,-58 8,-58"/>
<text text-anchor="start" x="11" y="-64.05" font-family="Helvetica,sans-Serif" font-size="11.00">...</text>
<polygon fill="#ffffff" stroke="none" points="8,-38.5 8,-58 76.58,-58 76.58,-38.5 8,-38.5"/>
<polygon fill="none" stroke="black" points="8,-38.5 8,-58 76.58,-58 76.58,-38.5 8,-38.5"/>
<text text-anchor="start" x="11" y="-44.55" font-family="Helvetica,sans-Serif" font-size="11.00">&lt; 13</text>
<polygon fill="#ffffff" stroke="none" points="76.58,-38.5 76.58,-58 126.42,-58 126.42,-38.5 76.58,-38.5"/>
<polygon fill="none" stroke="black" points="76.58,-38.5 76.58,-58 126.42,-58 126.42,-38.5 76.58,-38.5"/>
<text text-anchor="start" x="115.92" y="-44.55" font-family="Helvetica,sans-Serif" font-size="11.00"> &#160;</text>
<polygon fill="#ffffff" stroke="none" points="126.42,-38.5 126.42,-58 195,-58 195,-38.5 126.42,-38.5"/>
<polygon fill="none" stroke="black" points="126.42,-38.5 126.42,-58 195,-58 195,-38.5 126.42,-38.5"/>
<text text-anchor="start" x="165.75" y="-44.55" font-family="Helvetica,sans-Serif" font-size="11.00">11 &gt;</text>
</a>
</g>
</g>
<!-- exc_doc_unit&#45;&gt;doc_unit -->
<g id="edge1" class="edge">
<title>exc_doc_unit:w&#45;&gt;doc_unit:e</title>
<path fill="none" stroke="black" d="M229.51,-673.83C146.5,-650.29 306.48,-418.5 196,-418.5"/>
<polygon fill="black" stroke="black" points="236.73,-674.72 244.22,-679.28 241.03,-675.26 244.34,-675.67 244.34,-675.67 244.34,-675.67 241.03,-675.26 245.11,-672.14 236.73,-674.72"/>
<ellipse fill="none" stroke="black" cx="231.85" cy="-674.12" rx="3.2" ry="3.2"/>
</g>
<!-- exc_import_report -->
<g id="node3" class="node">
<title>exc_import_report</title>
<g id="a_node3"><a xlink:href="../../tables/exc_import_report.html" xlink:title="exc_import_report" target="_top">
<polygon fill="#ffffff" stroke="none" points="17.12,-537.5 17.12,-776 185.88,-776 185.88,-537.5 17.12,-537.5"/>
<polygon fill="#f5f5f5" stroke="none" points="17.12,-752.5 17.12,-776 185.88,-776 185.88,-752.5 17.12,-752.5"/>
<polygon fill="none" stroke="black" points="17.12,-752.5 17.12,-776 185.88,-776 185.88,-752.5 17.12,-752.5"/>
<text text-anchor="start" x="22.12" y="-761.55" font-family="Helvetica,sans-Serif" font-weight="bold" font-size="11.00">exc_import_report</text>
<text text-anchor="start" x="144.12" y="-760.55" font-family="Helvetica,sans-Serif" font-size="11.00">[table]</text>
<polygon fill="none" stroke="black" points="17.12,-730.5 17.12,-752.5 185.88,-752.5 185.88,-730.5 17.12,-730.5"/>
<image xlink:href="../../images/primaryKeys.png" width="11px" height="12px" preserveAspectRatio="xMinYMin meet" x="22.125" y="-747.5"/>
<text text-anchor="start" x="47.5" y="-737.05" font-family="Helvetica,sans-Serif" font-size="11.00">identifier</text>
<polygon fill="#ffffff" stroke="none" points="17.12,-708.5 17.12,-730.5 185.88,-730.5 185.88,-708.5 17.12,-708.5"/>
<polygon fill="none" stroke="black" points="17.12,-708.5 17.12,-730.5 185.88,-730.5 185.88,-708.5 17.12,-708.5"/>
<image xlink:href="../../images/foreignKeys.png" width="11px" height="12px" preserveAspectRatio="xMinYMin meet" x="22.125" y="-725.5"/>
<text text-anchor="start" x="47.5" y="-715.05" font-family="Helvetica,sans-Serif" font-size="11.00">library</text>
<polygon fill="#ffffff" stroke="none" points="17.12,-686.5 17.12,-708.5 185.88,-708.5 185.88,-686.5 17.12,-686.5"/>
<polygon fill="none" stroke="black" points="17.12,-686.5 17.12,-708.5 185.88,-708.5 185.88,-686.5 17.12,-686.5"/>
<image xlink:href="../../images/foreignKeys.png" width="11px" height="12px" preserveAspectRatio="xMinYMin meet" x="22.125" y="-703.5"/>
<text text-anchor="start" x="47.5" y="-693.05" font-family="Helvetica,sans-Serif" font-size="11.00">mapping</text>
<polygon fill="#ffffff" stroke="none" points="17.12,-664.5 17.12,-686.5 185.88,-686.5 185.88,-664.5 17.12,-664.5"/>
<polygon fill="none" stroke="black" points="17.12,-664.5 17.12,-686.5 185.88,-686.5 185.88,-664.5 17.12,-664.5"/>
<image xlink:href="../../images/foreignKeys.png" width="11px" height="12px" preserveAspectRatio="xMinYMin meet" x="22.125" y="-681.5"/>
<text text-anchor="start" x="47.5" y="-671.05" font-family="Helvetica,sans-Serif" font-size="11.00">mapping_children</text>
<polygon fill="#ffffff" stroke="none" points="17.12,-642.5 17.12,-664.5 185.88,-664.5 185.88,-642.5 17.12,-642.5"/>
<polygon fill="none" stroke="black" points="17.12,-642.5 17.12,-664.5 185.88,-664.5 185.88,-642.5 17.12,-642.5"/>
<image xlink:href="../../images/foreignKeys.png" width="11px" height="12px" preserveAspectRatio="xMinYMin meet" x="22.125" y="-659.5"/>
<text text-anchor="start" x="47.5" y="-649.05" font-family="Helvetica,sans-Serif" font-size="11.00">csv_mapping</text>
<polygon fill="#ffffff" stroke="none" points="17.12,-620.5 17.12,-642.5 185.88,-642.5 185.88,-620.5 17.12,-620.5"/>
<polygon fill="none" stroke="black" points="17.12,-620.5 17.12,-642.5 185.88,-642.5 185.88,-620.5 17.12,-620.5"/>
<image xlink:href="../../images/foreignKeys.png" width="11px" height="12px" preserveAspectRatio="xMinYMin meet" x="22.125" y="-637.5"/>
<text text-anchor="start" x="47.5" y="-627.05" font-family="Helvetica,sans-Serif" font-size="11.00">project</text>
<polygon fill="#ffffff" stroke="none" points="17.12,-598.5 17.12,-620.5 185.88,-620.5 185.88,-598.5 17.12,-598.5"/>
<polygon fill="none" stroke="black" points="17.12,-598.5 17.12,-620.5 185.88,-620.5 185.88,-598.5 17.12,-598.5"/>
<image xlink:href="../../images/foreignKeys.png" width="11px" height="12px" preserveAspectRatio="xMinYMin meet" x="22.125" y="-615.5"/>
<text text-anchor="start" x="47.5" y="-605.05" font-family="Helvetica,sans-Serif" font-size="11.00">lot</text>
<polygon fill="#ffffff" stroke="none" points="17.12,-576.5 17.12,-598.5 185.88,-598.5 185.88,-576.5 17.12,-576.5"/>
<polygon fill="none" stroke="black" points="17.12,-576.5 17.12,-598.5 185.88,-598.5 185.88,-576.5 17.12,-576.5"/>
<image xlink:href="../../images/foreignKeys.png" width="11px" height="12px" preserveAspectRatio="xMinYMin meet" x="22.125" y="-593.5"/>
<text text-anchor="start" x="47.5" y="-583.05" font-family="Helvetica,sans-Serif" font-size="11.00">parent</text>
<polygon fill="none" stroke="black" points="17.12,-557 17.12,-576.5 185.88,-576.5 185.88,-557 17.12,-557"/>
<text text-anchor="start" x="20.12" y="-563.05" font-family="Helvetica,sans-Serif" font-size="11.00">...</text>
<polygon fill="#ffffff" stroke="none" points="17.12,-537.5 17.12,-557 77.38,-557 77.38,-537.5 17.12,-537.5"/>
<polygon fill="none" stroke="black" points="17.12,-537.5 17.12,-557 77.38,-557 77.38,-537.5 17.12,-537.5"/>
<text text-anchor="start" x="20.12" y="-543.55" font-family="Helvetica,sans-Serif" font-size="11.00">&lt; 7</text>
<polygon fill="#ffffff" stroke="none" points="77.38,-537.5 77.38,-557 125.62,-557 125.62,-537.5 77.38,-537.5"/>
<polygon fill="none" stroke="black" points="77.38,-537.5 77.38,-557 125.62,-557 125.62,-537.5 77.38,-537.5"/>
<text text-anchor="start" x="115.12" y="-543.55" font-family="Helvetica,sans-Serif" font-size="11.00"> &#160;</text>
<polygon fill="#ffffff" stroke="none" points="125.62,-537.5 125.62,-557 185.88,-557 185.88,-537.5 125.62,-537.5"/>
<polygon fill="none" stroke="black" points="125.62,-537.5 125.62,-557 185.88,-557 185.88,-537.5 125.62,-537.5"/>
<text text-anchor="start" x="163.38" y="-543.55" font-family="Helvetica,sans-Serif" font-size="11.00">3 &gt;</text>
</a>
</g>
</g>
<!-- exc_doc_unit&#45;&gt;exc_import_report -->
<g id="edge2" class="edge">
<title>exc_doc_unit:w&#45;&gt;exc_import_report:e</title>
<path fill="none" stroke="black" d="M229.53,-741.72C215.07,-741.65 206.65,-741.5 186.88,-741.5"/>
<polygon fill="black" stroke="black" points="236.67,-741.73 244.66,-745.35 241,-741.74 244.33,-741.75 244.33,-741.75 244.33,-741.75 241,-741.74 244.67,-738.15 236.67,-741.73"/>
<ellipse fill="none" stroke="black" cx="231.75" cy="-741.72" rx="3.2" ry="3.2"/>
</g>
<!-- exc_doc_unit_dupl -->
<g id="node4" class="node">
<title>exc_doc_unit_dupl</title>
<g id="a_node4"><a xlink:href="../../tables/exc_doc_unit_dupl.html" xlink:title="exc_doc_unit_dupl" target="_top">
<polygon fill="#ffffff" stroke="none" points="535.25,-464.25 535.25,-551.25 703,-551.25 703,-464.25 535.25,-464.25"/>
<polygon fill="#f5f5f5" stroke="none" points="535.25,-527.75 535.25,-551.25 703,-551.25 703,-527.75 535.25,-527.75"/>
<polygon fill="none" stroke="black" points="535.25,-527.75 535.25,-551.25 703,-551.25 703,-527.75 535.25,-527.75"/>
<text text-anchor="start" x="540.25" y="-536.8" font-family="Helvetica,sans-Serif" font-weight="bold" font-size="11.00">exc_doc_unit_dupl</text>
<text text-anchor="start" x="661.25" y="-535.8" font-family="Helvetica,sans-Serif" font-size="11.00">[table]</text>
<polygon fill="none" stroke="black" points="535.25,-505.75 535.25,-527.75 703,-527.75 703,-505.75 535.25,-505.75"/>
<image xlink:href="../../images/primaryKeys.png" width="11px" height="12px" preserveAspectRatio="xMinYMin meet" x="540.25" y="-522.75"/>
<text text-anchor="start" x="568.12" y="-512.3" font-family="Helvetica,sans-Serif" font-size="11.00">imp_unit</text>
<polygon fill="none" stroke="black" points="535.25,-483.75 535.25,-505.75 703,-505.75 703,-483.75 535.25,-483.75"/>
<image xlink:href="../../images/primaryKeys.png" width="11px" height="12px" preserveAspectRatio="xMinYMin meet" x="540.25" y="-500.75"/>
<text text-anchor="start" x="568.12" y="-490.3" font-family="Helvetica,sans-Serif" font-size="11.00">doc_unit</text>
<polygon fill="#ffffff" stroke="none" points="535.25,-464.25 535.25,-483.75 599.17,-483.75 599.17,-464.25 535.25,-464.25"/>
<polygon fill="none" stroke="black" points="535.25,-464.25 535.25,-483.75 599.17,-483.75 599.17,-464.25 535.25,-464.25"/>
<text text-anchor="start" x="538.25" y="-470.3" font-family="Helvetica,sans-Serif" font-size="11.00">&lt; 2</text>
<polygon fill="#ffffff" stroke="none" points="599.17,-464.25 599.17,-483.75 651.08,-483.75 651.08,-464.25 599.17,-464.25"/>
<polygon fill="none" stroke="black" points="599.17,-464.25 599.17,-483.75 651.08,-483.75 651.08,-464.25 599.17,-464.25"/>
<text text-anchor="start" x="640.58" y="-470.3" font-family="Helvetica,sans-Serif" font-size="11.00"> &#160;</text>
<polygon fill="#ffffff" stroke="none" points="651.08,-464.25 651.08,-483.75 703,-483.75 703,-464.25 651.08,-464.25"/>
<polygon fill="none" stroke="black" points="651.08,-464.25 651.08,-483.75 703,-483.75 703,-464.25 651.08,-464.25"/>
<text text-anchor="start" x="692.5" y="-470.3" font-family="Helvetica,sans-Serif" font-size="11.00"> &#160;</text>
</a>
</g>
</g>
<!-- exc_doc_unit_dupl&#45;&gt;exc_doc_unit -->
<g id="edge4" class="edge">
<title>exc_doc_unit_dupl:w&#45;&gt;exc_doc_unit:e</title>
<path fill="none" stroke="black" d="M518.83,-518.74C439.76,-542.11 590.12,-763.75 484,-763.75"/>
<polygon fill="black" stroke="black" points="525.98,-517.82 534.38,-520.36 530.28,-517.26 533.59,-516.84 533.59,-516.84 533.59,-516.84 530.28,-517.26 533.46,-513.22 525.98,-517.82"/>
<ellipse fill="none" stroke="black" cx="521.11" cy="-518.44" rx="3.2" ry="3.2"/>
</g>
<!-- exc_doc_unit_dupl&#45;&gt;doc_unit -->
<g id="edge3" class="edge">
<title>exc_doc_unit_dupl:w&#45;&gt;doc_unit:e</title>
<path fill="none" stroke="black" d="M519.14,-491.67C488.61,-475.45 536.48,-399.65 494.25,-368.75 401.62,-300.97 339.51,-319.16 236,-368.75 210.41,-381.01 224.37,-418.5 196,-418.5"/>
<polygon fill="black" stroke="black" points="526.08,-493.08 533.2,-498.21 530.33,-493.95 533.59,-494.62 533.59,-494.62 533.59,-494.62 530.33,-493.95 534.64,-491.16 526.08,-493.08"/>
<ellipse fill="none" stroke="black" cx="521.26" cy="-492.1" rx="3.2" ry="3.2"/>
</g>
<!-- exc_doc_unit_msg -->
<g id="node5" class="node">
<title>exc_doc_unit_msg</title>
<g id="a_node5"><a xlink:href="../../tables/exc_doc_unit_msg.html" xlink:title="exc_doc_unit_msg" target="_top">
<polygon fill="#ffffff" stroke="none" points="535.75,-713.5 535.75,-798 702.5,-798 702.5,-713.5 535.75,-713.5"/>
<polygon fill="#f5f5f5" stroke="none" points="535.75,-774.5 535.75,-798 702.5,-798 702.5,-774.5 535.75,-774.5"/>
<polygon fill="none" stroke="black" points="535.75,-774.5 535.75,-798 702.5,-798 702.5,-774.5 535.75,-774.5"/>
<text text-anchor="start" x="540.75" y="-783.55" font-family="Helvetica,sans-Serif" font-weight="bold" font-size="11.00">exc_doc_unit_msg</text>
<text text-anchor="start" x="660.75" y="-782.55" font-family="Helvetica,sans-Serif" font-size="11.00">[table]</text>
<polygon fill="#ffffff" stroke="none" points="535.75,-752.5 535.75,-774.5 702.5,-774.5 702.5,-752.5 535.75,-752.5"/>
<polygon fill="none" stroke="black" points="535.75,-752.5 535.75,-774.5 702.5,-774.5 702.5,-752.5 535.75,-752.5"/>
<image xlink:href="../../images/foreignKeys.png" width="11px" height="12px" preserveAspectRatio="xMinYMin meet" x="540.75" y="-769.5"/>
<text text-anchor="start" x="568.62" y="-759.05" font-family="Helvetica,sans-Serif" font-size="11.00">imp_unit</text>
<polygon fill="none" stroke="black" points="535.75,-733 535.75,-752.5 702.5,-752.5 702.5,-733 535.75,-733"/>
<text text-anchor="start" x="538.75" y="-739.05" font-family="Helvetica,sans-Serif" font-size="11.00">...</text>
<polygon fill="#ffffff" stroke="none" points="535.75,-713.5 535.75,-733 599.33,-733 599.33,-713.5 535.75,-713.5"/>
<polygon fill="none" stroke="black" points="535.75,-713.5 535.75,-733 599.33,-733 599.33,-713.5 535.75,-713.5"/>
<text text-anchor="start" x="538.75" y="-719.55" font-family="Helvetica,sans-Serif" font-size="11.00">&lt; 1</text>
<polygon fill="#ffffff" stroke="none" points="599.33,-713.5 599.33,-733 650.92,-733 650.92,-713.5 599.33,-713.5"/>
<polygon fill="none" stroke="black" points="599.33,-713.5 599.33,-733 650.92,-733 650.92,-713.5 599.33,-713.5"/>
<text text-anchor="start" x="640.42" y="-719.55" font-family="Helvetica,sans-Serif" font-size="11.00"> &#160;</text>
<polygon fill="#ffffff" stroke="none" points="650.92,-713.5 650.92,-733 702.5,-733 702.5,-713.5 650.92,-713.5"/>
<polygon fill="none" stroke="black" points="650.92,-713.5 650.92,-733 702.5,-733 702.5,-713.5 650.92,-713.5"/>
<text text-anchor="start" x="692" y="-719.55" font-family="Helvetica,sans-Serif" font-size="11.00"> &#160;</text>
</a>
</g>
</g>
<!-- exc_doc_unit_msg&#45;&gt;exc_doc_unit -->
<g id="edge5" class="edge">
<title>exc_doc_unit_msg:w&#45;&gt;exc_doc_unit:e</title>
<path fill="none" stroke="black" d="M518.98,-763.55C507.68,-763.62 500.21,-763.75 484,-763.75"/>
<polygon fill="black" stroke="black" points="526.42,-763.53 534.43,-767.1 530.75,-763.51 534.08,-763.5 534.08,-763.5 534.08,-763.5 530.75,-763.51 534.4,-759.9 526.42,-763.53"/>
<ellipse fill="none" stroke="black" cx="521.5" cy="-763.54" rx="3.2" ry="3.2"/>
</g>
</g>
</svg>
