<?xml version="1.0" encoding="UTF-8" standalone="no"?>
<!DOCTYPE svg PUBLIC "-//W3C//DTD SVG 1.1//EN"
 "http://www.w3.org/Graphics/SVG/1.1/DTD/svg11.dtd">
<!-- Generated by graphviz version 12.2.0 (0)
 -->
<!-- Title: twoDegreesRelationshipsDiagram Pages: 1 -->
<svg width="702pt" height="741pt"
 viewBox="0.00 0.00 702.25 741.00" xmlns="http://www.w3.org/2000/svg" xmlns:xlink="http://www.w3.org/1999/xlink">
<g id="graph0" class="graph" transform="scale(1 1) rotate(0) translate(4 737)">
<title>twoDegreesRelationshipsDiagram</title>
<polygon fill="#ffffff" stroke="none" points="-4,4 -4,-737 698.25,-737 698.25,4 -4,4"/>
<text text-anchor="middle" x="79.25" y="-7.05" font-family="Helvetica,sans-Serif" font-size="11.00">Generated by SchemaSpy</text>
<!-- doc_export_property -->
<g id="node1" class="node">
<title>doc_export_property</title>
<g id="a_node1"><a xlink:href="../../tables/doc_export_property.html" xlink:title="doc_export_property" target="_top">
<polygon fill="#ffffff" stroke="none" points="446,-666.5 446,-729 631.75,-729 631.75,-666.5 446,-666.5"/>
<polygon fill="#f5f5f5" stroke="none" points="446,-705.5 446,-729 631.75,-729 631.75,-705.5 446,-705.5"/>
<polygon fill="none" stroke="black" points="446,-705.5 446,-729 631.75,-729 631.75,-705.5 446,-705.5"/>
<text text-anchor="start" x="451" y="-714.55" font-family="Helvetica,sans-Serif" font-weight="bold" font-size="11.00">doc_export_property</text>
<text text-anchor="start" x="590" y="-713.55" font-family="Helvetica,sans-Serif" font-size="11.00">[table]</text>
<polygon fill="none" stroke="black" points="446,-686 446,-705.5 631.75,-705.5 631.75,-686 446,-686"/>
<text text-anchor="start" x="449" y="-692.05" font-family="Helvetica,sans-Serif" font-size="11.00">...</text>
<polygon fill="#ffffff" stroke="none" points="446,-666.5 446,-686 515.92,-686 515.92,-666.5 446,-666.5"/>
<polygon fill="none" stroke="black" points="446,-666.5 446,-686 515.92,-686 515.92,-666.5 446,-666.5"/>
<text text-anchor="start" x="449" y="-672.55" font-family="Helvetica,sans-Serif" font-size="11.00">&lt; 2</text>
<polygon fill="#ffffff" stroke="none" points="515.92,-666.5 515.92,-686 573.83,-686 573.83,-666.5 515.92,-666.5"/>
<polygon fill="none" stroke="black" points="515.92,-666.5 515.92,-686 573.83,-686 573.83,-666.5 515.92,-666.5"/>
<text text-anchor="start" x="563.33" y="-672.55" font-family="Helvetica,sans-Serif" font-size="11.00"> &#160;</text>
<polygon fill="#ffffff" stroke="none" points="573.83,-666.5 573.83,-686 631.75,-686 631.75,-666.5 573.83,-666.5"/>
<polygon fill="none" stroke="black" points="573.83,-666.5 573.83,-686 631.75,-686 631.75,-666.5 573.83,-666.5"/>
<text text-anchor="start" x="621.25" y="-672.55" font-family="Helvetica,sans-Serif" font-size="11.00"> &#160;</text>
</a>
</g>
</g>
<!-- doc_property_type -->
<g id="node2" class="node">
<title>doc_property_type</title>
<g id="a_node2"><a xlink:href="../../tables/doc_property_type.html" xlink:title="doc_property_type" target="_top">
<polygon fill="#ffffff" stroke="none" points="170.75,-520.5 170.75,-605 342.5,-605 342.5,-520.5 170.75,-520.5"/>
<polygon fill="#f5f5f5" stroke="none" points="170.75,-581.5 170.75,-605 342.5,-605 342.5,-581.5 170.75,-581.5"/>
<polygon fill="none" stroke="black" points="170.75,-581.5 170.75,-605 342.5,-605 342.5,-581.5 170.75,-581.5"/>
<text text-anchor="start" x="175.75" y="-590.55" font-family="Helvetica,sans-Serif" font-weight="bold" font-size="11.00">doc_property_type</text>
<text text-anchor="start" x="300.75" y="-589.55" font-family="Helvetica,sans-Serif" font-size="11.00">[table]</text>
<polygon fill="none" stroke="black" points="170.75,-559.5 170.75,-581.5 342.5,-581.5 342.5,-559.5 170.75,-559.5"/>
<image xlink:href="../../images/primaryKeys.png" width="11px" height="12px" preserveAspectRatio="xMinYMin meet" x="175.75" y="-576.5"/>
<text text-anchor="start" x="202.62" y="-566.05" font-family="Helvetica,sans-Serif" font-size="11.00">identifier</text>
<polygon fill="none" stroke="black" points="170.75,-540 170.75,-559.5 342.5,-559.5 342.5,-540 170.75,-540"/>
<text text-anchor="start" x="173.75" y="-546.05" font-family="Helvetica,sans-Serif" font-size="11.00">...</text>
<polygon fill="#ffffff" stroke="none" points="170.75,-520.5 170.75,-540 224,-540 224,-520.5 170.75,-520.5"/>
<polygon fill="none" stroke="black" points="170.75,-520.5 170.75,-540 224,-540 224,-520.5 170.75,-520.5"/>
<text text-anchor="start" x="173.75" y="-526.55" font-family="Helvetica,sans-Serif" font-size="11.00"> &#160;</text>
<polygon fill="#ffffff" stroke="none" points="224,-520.5 224,-540 277.25,-540 277.25,-520.5 224,-520.5"/>
<polygon fill="none" stroke="black" points="224,-520.5 224,-540 277.25,-540 277.25,-520.5 224,-520.5"/>
<text text-anchor="start" x="266.75" y="-526.55" font-family="Helvetica,sans-Serif" font-size="11.00"> &#160;</text>
<polygon fill="#ffffff" stroke="none" points="277.25,-520.5 277.25,-540 342.5,-540 342.5,-520.5 277.25,-520.5"/>
<polygon fill="none" stroke="black" points="277.25,-520.5 277.25,-540 342.5,-540 342.5,-520.5 277.25,-520.5"/>
<text text-anchor="start" x="320" y="-526.55" font-family="Helvetica,sans-Serif" font-size="11.00">4 &gt;</text>
</a>
</g>
</g>
<!-- doc_export_property&#45;&gt;doc_property_type -->
<g id="edge1" class="edge">
<title>doc_export_property:w&#45;&gt;doc_property_type:e</title>
<path fill="none" stroke="black" d="M429.34,-694.23C409.18,-689.78 400.98,-675.83 383.5,-655.75 356.02,-624.19 385.35,-570.5 343.5,-570.5"/>
<polygon fill="black" stroke="black" points="436.7,-694.94 444.32,-699.3 441.02,-695.36 444.33,-695.69 444.33,-695.69 444.33,-695.69 441.02,-695.36 445.01,-692.13 436.7,-694.94"/>
<ellipse fill="none" stroke="black" cx="431.81" cy="-694.47" rx="3.2" ry="3.2"/>
</g>
<!-- doc_property -->
<g id="node3" class="node">
<title>doc_property</title>
<g id="a_node3"><a xlink:href="../../tables/doc_property.html" xlink:title="doc_property" target="_top">
<polygon fill="#ffffff" stroke="none" points="471.5,-582.5 471.5,-645 606.25,-645 606.25,-582.5 471.5,-582.5"/>
<polygon fill="#f5f5f5" stroke="none" points="471.5,-621.5 471.5,-645 606.25,-645 606.25,-621.5 471.5,-621.5"/>
<polygon fill="none" stroke="black" points="471.5,-621.5 471.5,-645 606.25,-645 606.25,-621.5 471.5,-621.5"/>
<text text-anchor="start" x="476.5" y="-630.55" font-family="Helvetica,sans-Serif" font-weight="bold" font-size="11.00">doc_property</text>
<text text-anchor="start" x="564.5" y="-629.55" font-family="Helvetica,sans-Serif" font-size="11.00">[table]</text>
<polygon fill="none" stroke="black" points="471.5,-602 471.5,-621.5 606.25,-621.5 606.25,-602 471.5,-602"/>
<text text-anchor="start" x="474.5" y="-608.05" font-family="Helvetica,sans-Serif" font-size="11.00">...</text>
<polygon fill="#ffffff" stroke="none" points="471.5,-582.5 471.5,-602 524.42,-602 524.42,-582.5 471.5,-582.5"/>
<polygon fill="none" stroke="black" points="471.5,-582.5 471.5,-602 524.42,-602 524.42,-582.5 471.5,-582.5"/>
<text text-anchor="start" x="474.5" y="-588.55" font-family="Helvetica,sans-Serif" font-size="11.00">&lt; 2</text>
<polygon fill="#ffffff" stroke="none" points="524.42,-582.5 524.42,-602 565.33,-602 565.33,-582.5 524.42,-582.5"/>
<polygon fill="none" stroke="black" points="524.42,-582.5 524.42,-602 565.33,-602 565.33,-582.5 524.42,-582.5"/>
<text text-anchor="start" x="554.83" y="-588.55" font-family="Helvetica,sans-Serif" font-size="11.00"> &#160;</text>
<polygon fill="#ffffff" stroke="none" points="565.33,-582.5 565.33,-602 606.25,-602 606.25,-582.5 565.33,-582.5"/>
<polygon fill="none" stroke="black" points="565.33,-582.5 565.33,-602 606.25,-602 606.25,-582.5 565.33,-582.5"/>
<text text-anchor="start" x="595.75" y="-588.55" font-family="Helvetica,sans-Serif" font-size="11.00"> &#160;</text>
</a>
</g>
</g>
<!-- doc_property&#45;&gt;doc_property_type -->
<g id="edge2" class="edge">
<title>doc_property:w&#45;&gt;doc_property_type:e</title>
<path fill="none" stroke="black" d="M454.77,-610.69C409.1,-604.23 397.17,-570.5 343.5,-570.5"/>
<polygon fill="black" stroke="black" points="462.18,-611.19 469.92,-615.32 466.51,-611.48 469.83,-611.7 469.83,-611.7 469.83,-611.7 466.51,-611.48 470.41,-608.14 462.18,-611.19"/>
<ellipse fill="none" stroke="black" cx="457.28" cy="-610.86" rx="3.2" ry="3.2"/>
</g>
<!-- exc_csv_mapping -->
<g id="node4" class="node">
<title>exc_csv_mapping</title>
<g id="a_node4"><a xlink:href="../../tables/exc_csv_mapping.html" xlink:title="exc_csv_mapping" target="_top">
<polygon fill="#ffffff" stroke="none" points="175.25,-91.5 175.25,-198 338,-198 338,-91.5 175.25,-91.5"/>
<polygon fill="#f5f5f5" stroke="none" points="175.25,-174.5 175.25,-198 338,-198 338,-174.5 175.25,-174.5"/>
<polygon fill="none" stroke="black" points="175.25,-174.5 175.25,-198 338,-198 338,-174.5 175.25,-174.5"/>
<text text-anchor="start" x="180.25" y="-183.55" font-family="Helvetica,sans-Serif" font-weight="bold" font-size="11.00">exc_csv_mapping</text>
<text text-anchor="start" x="296.25" y="-182.55" font-family="Helvetica,sans-Serif" font-size="11.00">[table]</text>
<polygon fill="none" stroke="black" points="175.25,-152.5 175.25,-174.5 338,-174.5 338,-152.5 175.25,-152.5"/>
<image xlink:href="../../images/primaryKeys.png" width="11px" height="12px" preserveAspectRatio="xMinYMin meet" x="180.25" y="-169.5"/>
<text text-anchor="start" x="202.62" y="-159.05" font-family="Helvetica,sans-Serif" font-size="11.00">identifier</text>
<polygon fill="#ffffff" stroke="none" points="175.25,-130.5 175.25,-152.5 338,-152.5 338,-130.5 175.25,-130.5"/>
<polygon fill="none" stroke="black" points="175.25,-130.5 175.25,-152.5 338,-152.5 338,-130.5 175.25,-130.5"/>
<image xlink:href="../../images/foreignKeys.png" width="11px" height="12px" preserveAspectRatio="xMinYMin meet" x="180.25" y="-147.5"/>
<text text-anchor="start" x="202.62" y="-137.05" font-family="Helvetica,sans-Serif" font-size="11.00">library</text>
<polygon fill="none" stroke="black" points="175.25,-111 175.25,-130.5 338,-130.5 338,-111 175.25,-111"/>
<text text-anchor="start" x="178.25" y="-117.05" font-family="Helvetica,sans-Serif" font-size="11.00">...</text>
<polygon fill="#ffffff" stroke="none" points="175.25,-91.5 175.25,-111 233.5,-111 233.5,-91.5 175.25,-91.5"/>
<polygon fill="none" stroke="black" points="175.25,-91.5 175.25,-111 233.5,-111 233.5,-91.5 175.25,-91.5"/>
<text text-anchor="start" x="178.25" y="-97.55" font-family="Helvetica,sans-Serif" font-size="11.00">&lt; 1</text>
<polygon fill="#ffffff" stroke="none" points="233.5,-91.5 233.5,-111 279.75,-111 279.75,-91.5 233.5,-91.5"/>
<polygon fill="none" stroke="black" points="233.5,-91.5 233.5,-111 279.75,-111 279.75,-91.5 233.5,-91.5"/>
<text text-anchor="start" x="269.25" y="-97.55" font-family="Helvetica,sans-Serif" font-size="11.00"> &#160;</text>
<polygon fill="#ffffff" stroke="none" points="279.75,-91.5 279.75,-111 338,-111 338,-91.5 279.75,-91.5"/>
<polygon fill="none" stroke="black" points="279.75,-91.5 279.75,-111 338,-111 338,-91.5 279.75,-91.5"/>
<text text-anchor="start" x="315.5" y="-97.55" font-family="Helvetica,sans-Serif" font-size="11.00">2 &gt;</text>
</a>
</g>
</g>
<!-- lib_library -->
<g id="node5" class="node">
<title>lib_library</title>
<g id="a_node5"><a xlink:href="../../tables/lib_library.html" xlink:title="lib_library" target="_top">
<polygon fill="#ffffff" stroke="none" points="8,-75.5 8,-138 121.75,-138 121.75,-75.5 8,-75.5"/>
<polygon fill="#f5f5f5" stroke="none" points="8,-114.5 8,-138 121.75,-138 121.75,-114.5 8,-114.5"/>
<polygon fill="none" stroke="black" points="8,-114.5 8,-138 121.75,-138 121.75,-114.5 8,-114.5"/>
<text text-anchor="start" x="13" y="-123.55" font-family="Helvetica,sans-Serif" font-weight="bold" font-size="11.00">lib_library</text>
<text text-anchor="start" x="80" y="-122.55" font-family="Helvetica,sans-Serif" font-size="11.00">[table]</text>
<polygon fill="none" stroke="black" points="8,-95 8,-114.5 121.75,-114.5 121.75,-95 8,-95"/>
<text text-anchor="start" x="11" y="-101.05" font-family="Helvetica,sans-Serif" font-size="11.00">...</text>
<polygon fill="#ffffff" stroke="none" points="8,-75.5 8,-95 47.67,-95 47.67,-75.5 8,-75.5"/>
<polygon fill="none" stroke="black" points="8,-75.5 8,-95 47.67,-95 47.67,-75.5 8,-75.5"/>
<text text-anchor="start" x="11" y="-81.55" font-family="Helvetica,sans-Serif" font-size="11.00">&lt; 6</text>
<polygon fill="#ffffff" stroke="none" points="47.67,-75.5 47.67,-95 75.33,-95 75.33,-75.5 47.67,-75.5"/>
<polygon fill="none" stroke="black" points="47.67,-75.5 47.67,-95 75.33,-95 75.33,-75.5 47.67,-75.5"/>
<text text-anchor="start" x="64.83" y="-81.55" font-family="Helvetica,sans-Serif" font-size="11.00"> &#160;</text>
<polygon fill="#ffffff" stroke="none" points="75.33,-75.5 75.33,-95 121.75,-95 121.75,-75.5 75.33,-75.5"/>
<polygon fill="none" stroke="black" points="75.33,-75.5 75.33,-95 121.75,-95 121.75,-75.5 75.33,-75.5"/>
<text text-anchor="start" x="92.5" y="-81.55" font-family="Helvetica,sans-Serif" font-size="11.00">27 &gt;</text>
</a>
</g>
</g>
<!-- exc_csv_mapping&#45;&gt;lib_library -->
<g id="edge3" class="edge">
<title>exc_csv_mapping:w&#45;&gt;lib_library:e</title>
<path fill="none" stroke="black" d="M159.43,-136.7C146.59,-126.73 144.5,-104.75 122.75,-104.75"/>
<polygon fill="black" stroke="black" points="166.32,-138.93 172.82,-144.82 170.45,-140.27 173.61,-141.29 173.61,-141.29 173.61,-141.29 170.45,-140.27 175.04,-137.97 166.32,-138.93"/>
<ellipse fill="none" stroke="black" cx="161.64" cy="-137.41" rx="3.2" ry="3.2"/>
</g>
<!-- exc_csv_mapping_rule -->
<g id="node6" class="node">
<title>exc_csv_mapping_rule</title>
<g id="a_node6"><a xlink:href="../../tables/exc_csv_mapping_rule.html" xlink:title="exc_csv_mapping_rule" target="_top">
<polygon fill="#ffffff" stroke="none" points="391.5,-122.25 391.5,-477.25 686.25,-477.25 686.25,-122.25 391.5,-122.25"/>
<polygon fill="#f5f5f5" stroke="none" points="393.5,-451.75 393.5,-475.25 684.25,-475.25 684.25,-451.75 393.5,-451.75"/>
<polygon fill="none" stroke="black" points="393.5,-451.75 393.5,-475.25 684.25,-475.25 684.25,-451.75 393.5,-451.75"/>
<text text-anchor="start" x="398.5" y="-460.8" font-family="Helvetica,sans-Serif" font-weight="bold" font-size="11.00">exc_csv_mapping_rule</text>
<text text-anchor="start" x="642.5" y="-459.8" font-family="Helvetica,sans-Serif" font-size="11.00">[table]</text>
<polygon fill="none" stroke="black" points="393.5,-429.75 393.5,-451.75 562.5,-451.75 562.5,-429.75 393.5,-429.75"/>
<image xlink:href="../../images/primaryKeys.png" width="11px" height="12px" preserveAspectRatio="xMinYMin meet" x="398.5" y="-446.75"/>
<text text-anchor="start" x="413.5" y="-436.3" font-family="Helvetica,sans-Serif" font-size="11.00">identifier</text>
<polygon fill="none" stroke="black" points="562.5,-429.75 562.5,-451.75 667.25,-451.75 667.25,-429.75 562.5,-429.75"/>
<text text-anchor="start" x="565.5" y="-437.05" font-family="Helvetica,sans-Serif" font-size="11.00">varchar[191]</text>
<polygon fill="none" stroke="black" points="393.5,-407.75 393.5,-429.75 562.5,-429.75 562.5,-407.75 393.5,-407.75"/>
<text text-anchor="start" x="413.5" y="-414.3" font-family="Helvetica,sans-Serif" font-size="11.00">doc_unit_field</text>
<polygon fill="none" stroke="black" points="562.5,-407.75 562.5,-429.75 667.25,-429.75 667.25,-407.75 562.5,-407.75"/>
<text text-anchor="start" x="565.5" y="-415.05" font-family="Helvetica,sans-Serif" font-size="11.00">varchar[255]</text>
<polygon fill="none" stroke="black" points="393.5,-385.75 393.5,-407.75 562.5,-407.75 562.5,-385.75 393.5,-385.75"/>
<text text-anchor="start" x="413.5" y="-392.3" font-family="Helvetica,sans-Serif" font-size="11.00">csv_field</text>
<polygon fill="none" stroke="black" points="562.5,-385.75 562.5,-407.75 667.25,-407.75 667.25,-385.75 562.5,-385.75"/>
<text text-anchor="start" x="565.5" y="-393.05" font-family="Helvetica,sans-Serif" font-size="11.00">varchar[255]</text>
<polygon fill="#ffffff" stroke="none" points="393.5,-363.75 393.5,-385.75 562.5,-385.75 562.5,-363.75 393.5,-363.75"/>
<polygon fill="none" stroke="black" points="393.5,-363.75 393.5,-385.75 562.5,-385.75 562.5,-363.75 393.5,-363.75"/>
<image xlink:href="../../images/foreignKeys.png" width="11px" height="12px" preserveAspectRatio="xMinYMin meet" x="398.5" y="-380.75"/>
<text text-anchor="start" x="413.5" y="-370.3" font-family="Helvetica,sans-Serif" font-size="11.00">mapping</text>
<polygon fill="none" stroke="black" points="562.5,-363.75 562.5,-385.75 667.25,-385.75 667.25,-363.75 562.5,-363.75"/>
<text text-anchor="start" x="565.5" y="-371.05" font-family="Helvetica,sans-Serif" font-size="11.00">varchar[191]</text>
<polygon fill="none" stroke="black" points="393.5,-341.75 393.5,-363.75 562.5,-363.75 562.5,-341.75 393.5,-341.75"/>
<text text-anchor="start" x="413.5" y="-348.3" font-family="Helvetica,sans-Serif" font-size="11.00">version</text>
<polygon fill="none" stroke="black" points="562.5,-341.75 562.5,-363.75 667.25,-363.75 667.25,-341.75 562.5,-341.75"/>
<text text-anchor="start" x="565.5" y="-349.05" font-family="Helvetica,sans-Serif" font-size="11.00">bigint[19]</text>
<polygon fill="none" stroke="black" points="393.5,-319.75 393.5,-341.75 562.5,-341.75 562.5,-319.75 393.5,-319.75"/>
<text text-anchor="start" x="413.5" y="-326.3" font-family="Helvetica,sans-Serif" font-size="11.00">created_by</text>
<polygon fill="none" stroke="black" points="562.5,-319.75 562.5,-341.75 667.25,-341.75 667.25,-319.75 562.5,-319.75"/>
<text text-anchor="start" x="565.5" y="-327.05" font-family="Helvetica,sans-Serif" font-size="11.00">varchar[255]</text>
<polygon fill="none" stroke="black" points="393.5,-297.75 393.5,-319.75 562.5,-319.75 562.5,-297.75 393.5,-297.75"/>
<text text-anchor="start" x="413.5" y="-304.3" font-family="Helvetica,sans-Serif" font-size="11.00">last_modified_by</text>
<polygon fill="none" stroke="black" points="562.5,-297.75 562.5,-319.75 667.25,-319.75 667.25,-297.75 562.5,-297.75"/>
<text text-anchor="start" x="565.5" y="-305.05" font-family="Helvetica,sans-Serif" font-size="11.00">varchar[255]</text>
<polygon fill="none" stroke="black" points="393.5,-275.75 393.5,-297.75 562.5,-297.75 562.5,-275.75 393.5,-275.75"/>
<text text-anchor="start" x="413.5" y="-282.3" font-family="Helvetica,sans-Serif" font-size="11.00">created_date</text>
<polygon fill="none" stroke="black" points="562.5,-275.75 562.5,-297.75 667.25,-297.75 667.25,-275.75 562.5,-275.75"/>
<text text-anchor="start" x="565.5" y="-283.05" font-family="Helvetica,sans-Serif" font-size="11.00">timestamp[19]</text>
<polygon fill="none" stroke="black" points="393.5,-253.75 393.5,-275.75 562.5,-275.75 562.5,-253.75 393.5,-253.75"/>
<text text-anchor="start" x="413.5" y="-260.3" font-family="Helvetica,sans-Serif" font-size="11.00">last_modified_date</text>
<polygon fill="none" stroke="black" points="562.5,-253.75 562.5,-275.75 667.25,-275.75 667.25,-253.75 562.5,-253.75"/>
<text text-anchor="start" x="565.5" y="-261.05" font-family="Helvetica,sans-Serif" font-size="11.00">timestamp[19]</text>
<polygon fill="none" stroke="black" points="393.5,-231.75 393.5,-253.75 562.5,-253.75 562.5,-231.75 393.5,-231.75"/>
<text text-anchor="start" x="413.5" y="-238.3" font-family="Helvetica,sans-Serif" font-size="11.00">cond_report</text>
<polygon fill="none" stroke="black" points="562.5,-231.75 562.5,-253.75 667.25,-253.75 667.25,-231.75 562.5,-231.75"/>
<text text-anchor="start" x="565.5" y="-239.05" font-family="Helvetica,sans-Serif" font-size="11.00">varchar[255]</text>
<polygon fill="none" stroke="black" points="393.5,-209.75 393.5,-231.75 562.5,-231.75 562.5,-209.75 393.5,-209.75"/>
<text text-anchor="start" x="413.5" y="-216.3" font-family="Helvetica,sans-Serif" font-size="11.00">metadata</text>
<polygon fill="none" stroke="black" points="562.5,-209.75 562.5,-231.75 667.25,-231.75 667.25,-209.75 562.5,-209.75"/>
<text text-anchor="start" x="565.5" y="-217.05" font-family="Helvetica,sans-Serif" font-size="11.00">varchar[255]</text>
<polygon fill="none" stroke="black" points="393.5,-187.75 393.5,-209.75 562.5,-209.75 562.5,-187.75 393.5,-187.75"/>
<text text-anchor="start" x="413.5" y="-194.3" font-family="Helvetica,sans-Serif" font-size="11.00">bib_record_field</text>
<polygon fill="none" stroke="black" points="562.5,-187.75 562.5,-209.75 667.25,-209.75 667.25,-187.75 562.5,-187.75"/>
<text text-anchor="start" x="565.5" y="-195.05" font-family="Helvetica,sans-Serif" font-size="11.00">varchar[255]</text>
<polygon fill="#ffffff" stroke="none" points="393.5,-165.75 393.5,-187.75 562.5,-187.75 562.5,-165.75 393.5,-165.75"/>
<polygon fill="none" stroke="black" points="393.5,-165.75 393.5,-187.75 562.5,-187.75 562.5,-165.75 393.5,-165.75"/>
<image xlink:href="../../images/foreignKeys.png" width="11px" height="12px" preserveAspectRatio="xMinYMin meet" x="398.5" y="-182.75"/>
<text text-anchor="start" x="413.5" y="-172.3" font-family="Helvetica,sans-Serif" font-size="11.00">property</text>
<polygon fill="none" stroke="black" points="562.5,-165.75 562.5,-187.75 667.25,-187.75 667.25,-165.75 562.5,-165.75"/>
<text text-anchor="start" x="565.5" y="-173.05" font-family="Helvetica,sans-Serif" font-size="11.00">varchar[191]</text>
<polygon fill="none" stroke="black" points="393.5,-143.75 393.5,-165.75 562.5,-165.75 562.5,-143.75 393.5,-143.75"/>
<text text-anchor="start" x="413.5" y="-150.3" font-family="Helvetica,sans-Serif" font-size="11.00">rank</text>
<polygon fill="none" stroke="black" points="562.5,-143.75 562.5,-165.75 667.25,-165.75 667.25,-143.75 562.5,-143.75"/>
<text text-anchor="start" x="565.5" y="-151.05" font-family="Helvetica,sans-Serif" font-size="11.00">int[10]</text>
<polygon fill="#ffffff" stroke="none" points="393.5,-124.25 393.5,-143.75 484,-143.75 484,-124.25 393.5,-124.25"/>
<polygon fill="none" stroke="black" points="393.5,-124.25 393.5,-143.75 484,-143.75 484,-124.25 393.5,-124.25"/>
<text text-anchor="start" x="396.5" y="-130.3" font-family="Helvetica,sans-Serif" font-size="11.00">&lt; 2</text>
<polygon fill="#ffffff" stroke="none" points="484,-124.25 484,-143.75 562.5,-143.75 562.5,-124.25 484,-124.25"/>
<polygon fill="none" stroke="black" points="484,-124.25 484,-143.75 562.5,-143.75 562.5,-124.25 484,-124.25"/>
<text text-anchor="start" x="552" y="-130.3" font-family="Helvetica,sans-Serif" font-size="11.00"> &#160;</text>
<polygon fill="#ffffff" stroke="none" points="562.5,-124.25 562.5,-143.75 667.25,-143.75 667.25,-124.25 562.5,-124.25"/>
<polygon fill="none" stroke="black" points="562.5,-124.25 562.5,-143.75 667.25,-143.75 667.25,-124.25 562.5,-124.25"/>
<text text-anchor="start" x="644.75" y="-130.3" font-family="Helvetica,sans-Serif" font-size="11.00">0 &gt;</text>
<polygon fill="none" stroke="black" stroke-width="2" points="392.5,-123.25 392.5,-476.25 685.25,-476.25 685.25,-123.25 392.5,-123.25"/>
</a>
</g>
</g>
<!-- exc_csv_mapping_rule&#45;&gt;doc_property_type -->
<g id="edge5" class="edge">
<title>exc_csv_mapping_rule:w&#45;&gt;doc_property_type:e</title>
<path fill="none" stroke="black" d="M377.66,-181.73C320.29,-227.31 425.82,-570.5 343.5,-570.5"/>
<polygon fill="black" stroke="black" points="384.6,-179.4 393.33,-180.27 388.71,-178.02 391.87,-176.96 391.87,-176.96 391.87,-176.96 388.71,-178.02 391.04,-173.44 384.6,-179.4"/>
<ellipse fill="none" stroke="black" cx="379.94" cy="-180.96" rx="3.2" ry="3.2"/>
</g>
<!-- exc_csv_mapping_rule&#45;&gt;exc_csv_mapping -->
<g id="edge4" class="edge">
<title>exc_csv_mapping_rule:w&#45;&gt;exc_csv_mapping:e</title>
<path fill="none" stroke="black" d="M377,-372.38C312.25,-349.17 429.8,-163.5 339,-163.5"/>
<polygon fill="black" stroke="black" points="384.26,-373.49 391.62,-378.26 388.55,-374.14 391.84,-374.65 391.84,-374.65 391.84,-374.65 388.55,-374.14 392.71,-371.14 384.26,-373.49"/>
<ellipse fill="none" stroke="black" cx="379.4" cy="-372.74" rx="3.2" ry="3.2"/>
</g>
<!-- exc_import_report -->
<g id="node7" class="node">
<title>exc_import_report</title>
<g id="a_node7"><a xlink:href="../../tables/exc_import_report.html" xlink:title="exc_import_report" target="_top">
<polygon fill="#ffffff" stroke="none" points="454.5,-38.5 454.5,-101 623.25,-101 623.25,-38.5 454.5,-38.5"/>
<polygon fill="#f5f5f5" stroke="none" points="454.5,-77.5 454.5,-101 623.25,-101 623.25,-77.5 454.5,-77.5"/>
<polygon fill="none" stroke="black" points="454.5,-77.5 454.5,-101 623.25,-101 623.25,-77.5 454.5,-77.5"/>
<text text-anchor="start" x="459.5" y="-86.55" font-family="Helvetica,sans-Serif" font-weight="bold" font-size="11.00">exc_import_report</text>
<text text-anchor="start" x="581.5" y="-85.55" font-family="Helvetica,sans-Serif" font-size="11.00">[table]</text>
<polygon fill="none" stroke="black" points="454.5,-58 454.5,-77.5 623.25,-77.5 623.25,-58 454.5,-58"/>
<text text-anchor="start" x="457.5" y="-64.05" font-family="Helvetica,sans-Serif" font-size="11.00">...</text>
<polygon fill="#ffffff" stroke="none" points="454.5,-38.5 454.5,-58 514.75,-58 514.75,-38.5 454.5,-38.5"/>
<polygon fill="none" stroke="black" points="454.5,-38.5 454.5,-58 514.75,-58 514.75,-38.5 454.5,-38.5"/>
<text text-anchor="start" x="457.5" y="-44.55" font-family="Helvetica,sans-Serif" font-size="11.00">&lt; 7</text>
<polygon fill="#ffffff" stroke="none" points="514.75,-38.5 514.75,-58 563,-58 563,-38.5 514.75,-38.5"/>
<polygon fill="none" stroke="black" points="514.75,-38.5 514.75,-58 563,-58 563,-38.5 514.75,-38.5"/>
<text text-anchor="start" x="552.5" y="-44.55" font-family="Helvetica,sans-Serif" font-size="11.00"> &#160;</text>
<polygon fill="#ffffff" stroke="none" points="563,-38.5 563,-58 623.25,-58 623.25,-38.5 563,-38.5"/>
<polygon fill="none" stroke="black" points="563,-38.5 563,-58 623.25,-58 623.25,-38.5 563,-38.5"/>
<text text-anchor="start" x="600.75" y="-44.55" font-family="Helvetica,sans-Serif" font-size="11.00">3 &gt;</text>
</a>
</g>
</g>
<!-- exc_import_report&#45;&gt;exc_csv_mapping -->
<g id="edge6" class="edge">
<title>exc_import_report:w&#45;&gt;exc_csv_mapping:e</title>
<path fill="none" stroke="black" d="M438.04,-69.22C414.45,-74.27 406.89,-91.61 383.5,-111.75 360.51,-131.54 369.33,-163.5 339,-163.5"/>
<polygon fill="black" stroke="black" points="445.2,-68.54 453.51,-71.37 449.52,-68.13 452.83,-67.81 452.83,-67.81 452.83,-67.81 449.52,-68.13 452.83,-64.2 445.2,-68.54"/>
<ellipse fill="none" stroke="black" cx="440.31" cy="-69.01" rx="3.2" ry="3.2"/>
</g>
<!-- exc_import_report&#45;&gt;lib_library -->
<g id="edge7" class="edge">
<title>exc_import_report:w&#45;&gt;lib_library:e</title>
<path fill="none" stroke="black" d="M437.68,-67.63C320.84,-65.82 281.4,-45.01 162.75,-80.75 142.9,-86.73 143.48,-104.75 122.75,-104.75"/>
<polygon fill="black" stroke="black" points="445.17,-67.69 453.14,-71.35 449.5,-67.72 452.83,-67.74 452.83,-67.74 452.83,-67.74 449.5,-67.72 453.19,-64.15 445.17,-67.69"/>
<ellipse fill="none" stroke="black" cx="440.25" cy="-67.65" rx="3.2" ry="3.2"/>
</g>
<!-- exc_mapping_rule -->
<g id="node8" class="node">
<title>exc_mapping_rule</title>
<g id="a_node8"><a xlink:href="../../tables/exc_mapping_rule.html" xlink:title="exc_mapping_rule" target="_top">
<polygon fill="#ffffff" stroke="none" points="455.5,-498.5 455.5,-561 622.25,-561 622.25,-498.5 455.5,-498.5"/>
<polygon fill="#f5f5f5" stroke="none" points="455.5,-537.5 455.5,-561 622.25,-561 622.25,-537.5 455.5,-537.5"/>
<polygon fill="none" stroke="black" points="455.5,-537.5 455.5,-561 622.25,-561 622.25,-537.5 455.5,-537.5"/>
<text text-anchor="start" x="460.5" y="-546.55" font-family="Helvetica,sans-Serif" font-weight="bold" font-size="11.00">exc_mapping_rule</text>
<text text-anchor="start" x="580.5" y="-545.55" font-family="Helvetica,sans-Serif" font-size="11.00">[table]</text>
<polygon fill="none" stroke="black" points="455.5,-518 455.5,-537.5 622.25,-537.5 622.25,-518 455.5,-518"/>
<text text-anchor="start" x="458.5" y="-524.05" font-family="Helvetica,sans-Serif" font-size="11.00">...</text>
<polygon fill="#ffffff" stroke="none" points="455.5,-498.5 455.5,-518 519.08,-518 519.08,-498.5 455.5,-498.5"/>
<polygon fill="none" stroke="black" points="455.5,-498.5 455.5,-518 519.08,-518 519.08,-498.5 455.5,-498.5"/>
<text text-anchor="start" x="458.5" y="-504.55" font-family="Helvetica,sans-Serif" font-size="11.00">&lt; 2</text>
<polygon fill="#ffffff" stroke="none" points="519.08,-498.5 519.08,-518 570.67,-518 570.67,-498.5 519.08,-498.5"/>
<polygon fill="none" stroke="black" points="519.08,-498.5 519.08,-518 570.67,-518 570.67,-498.5 519.08,-498.5"/>
<text text-anchor="start" x="560.17" y="-504.55" font-family="Helvetica,sans-Serif" font-size="11.00"> &#160;</text>
<polygon fill="#ffffff" stroke="none" points="570.67,-498.5 570.67,-518 622.25,-518 622.25,-498.5 570.67,-498.5"/>
<polygon fill="none" stroke="black" points="570.67,-498.5 570.67,-518 622.25,-518 622.25,-498.5 570.67,-498.5"/>
<text text-anchor="start" x="611.75" y="-504.55" font-family="Helvetica,sans-Serif" font-size="11.00"> &#160;</text>
</a>
</g>
</g>
<!-- exc_mapping_rule&#45;&gt;doc_property_type -->
<g id="edge8" class="edge">
<title>exc_mapping_rule:w&#45;&gt;doc_property_type:e</title>
<path fill="none" stroke="black" d="M438.74,-529.17C399.91,-536.59 390.58,-570.5 343.5,-570.5"/>
<polygon fill="black" stroke="black" points="446.2,-528.5 454.49,-531.37 450.52,-528.11 453.83,-527.81 453.83,-527.81 453.83,-527.81 450.52,-528.11 453.84,-524.19 446.2,-528.5"/>
<ellipse fill="none" stroke="black" cx="441.3" cy="-528.94" rx="3.2" ry="3.2"/>
</g>
</g>
</svg>
