<?xml version="1.0" encoding="UTF-8" standalone="no"?>
<!DOCTYPE svg PUBLIC "-//W3C//DTD SVG 1.1//EN"
 "http://www.w3.org/Graphics/SVG/1.1/DTD/svg11.dtd">
<!-- Generated by graphviz version 12.2.0 (0)
 -->
<!-- Title: oneDegreeRelationshipsDiagram Pages: 1 -->
<svg width="375pt" height="402pt"
 viewBox="0.00 0.00 374.55 401.50" xmlns="http://www.w3.org/2000/svg" xmlns:xlink="http://www.w3.org/1999/xlink">
<g id="graph0" class="graph" transform="scale(1 1) rotate(0) translate(4 397.5)">
<title>oneDegreeRelationshipsDiagram</title>
<polygon fill="#ffffff" stroke="none" points="-4,4 -4,-397.5 370.55,-397.5 370.55,4 -4,4"/>
<text text-anchor="middle" x="79.25" y="-7.05" font-family="Helvetica,sans-Serif" font-size="11.00">Generated by SchemaSpy</text>
<!-- hlp_page -->
<g id="node1" class="node">
<title>hlp_page</title>
<g id="a_node1"><a xlink:href="../../tables/hlp_page.html" xlink:title="hlp_page" target="_top">
<polygon fill="#ffffff" stroke="none" points="43.39,-38.5 43.39,-371.5 323.64,-371.5 323.64,-38.5 43.39,-38.5"/>
<polygon fill="#f5f5f5" stroke="none" points="45.39,-346 45.39,-369.5 321.64,-369.5 321.64,-346 45.39,-346"/>
<polygon fill="none" stroke="black" points="45.39,-346 45.39,-369.5 321.64,-369.5 321.64,-346 45.39,-346"/>
<text text-anchor="start" x="50.39" y="-355.05" font-family="Helvetica,sans-Serif" font-weight="bold" font-size="11.00">hlp_page</text>
<text text-anchor="start" x="279.89" y="-354.05" font-family="Helvetica,sans-Serif" font-size="11.00">[table]</text>
<polygon fill="none" stroke="black" points="45.39,-324 45.39,-346 193.39,-346 193.39,-324 45.39,-324"/>
<image xlink:href="../../images/primaryKeys.png" width="11px" height="12px" preserveAspectRatio="xMinYMin meet" x="50.394" y="-341"/>
<text text-anchor="start" x="65.39" y="-330.55" font-family="Helvetica,sans-Serif" font-size="11.00">identifier</text>
<polygon fill="none" stroke="black" points="193.39,-324 193.39,-346 321.64,-346 321.64,-324 193.39,-324"/>
<text text-anchor="start" x="196.39" y="-331.3" font-family="Helvetica,sans-Serif" font-size="11.00">varchar[191]</text>
<polygon fill="none" stroke="black" points="45.39,-302 45.39,-324 193.39,-324 193.39,-302 45.39,-302"/>
<text text-anchor="start" x="65.39" y="-308.55" font-family="Helvetica,sans-Serif" font-size="11.00">version</text>
<polygon fill="none" stroke="black" points="193.39,-302 193.39,-324 321.64,-324 321.64,-302 193.39,-302"/>
<text text-anchor="start" x="196.39" y="-309.3" font-family="Helvetica,sans-Serif" font-size="11.00">bigint[19]</text>
<polygon fill="none" stroke="black" points="45.39,-280 45.39,-302 193.39,-302 193.39,-280 45.39,-280"/>
<text text-anchor="start" x="65.39" y="-286.55" font-family="Helvetica,sans-Serif" font-size="11.00">created_by</text>
<polygon fill="none" stroke="black" points="193.39,-280 193.39,-302 321.64,-302 321.64,-280 193.39,-280"/>
<text text-anchor="start" x="196.39" y="-287.3" font-family="Helvetica,sans-Serif" font-size="11.00">varchar[191]</text>
<polygon fill="none" stroke="black" points="45.39,-258 45.39,-280 193.39,-280 193.39,-258 45.39,-258"/>
<text text-anchor="start" x="65.39" y="-264.55" font-family="Helvetica,sans-Serif" font-size="11.00">last_modified_by</text>
<polygon fill="none" stroke="black" points="193.39,-258 193.39,-280 321.64,-280 321.64,-258 193.39,-258"/>
<text text-anchor="start" x="196.39" y="-265.3" font-family="Helvetica,sans-Serif" font-size="11.00">varchar[191]</text>
<polygon fill="none" stroke="black" points="45.39,-236 45.39,-258 193.39,-258 193.39,-236 45.39,-236"/>
<text text-anchor="start" x="65.39" y="-242.55" font-family="Helvetica,sans-Serif" font-size="11.00">created_date</text>
<polygon fill="none" stroke="black" points="193.39,-236 193.39,-258 321.64,-258 321.64,-236 193.39,-236"/>
<text text-anchor="start" x="196.39" y="-243.3" font-family="Helvetica,sans-Serif" font-size="11.00">timestamp[19]</text>
<polygon fill="none" stroke="black" points="45.39,-214 45.39,-236 193.39,-236 193.39,-214 45.39,-214"/>
<text text-anchor="start" x="65.39" y="-220.55" font-family="Helvetica,sans-Serif" font-size="11.00">last_modified_date</text>
<polygon fill="none" stroke="black" points="193.39,-214 193.39,-236 321.64,-236 321.64,-214 193.39,-214"/>
<text text-anchor="start" x="196.39" y="-221.3" font-family="Helvetica,sans-Serif" font-size="11.00">timestamp[19]</text>
<polygon fill="none" stroke="black" points="45.39,-192 45.39,-214 193.39,-214 193.39,-192 45.39,-192"/>
<text text-anchor="start" x="65.39" y="-198.55" font-family="Helvetica,sans-Serif" font-size="11.00">content</text>
<polygon fill="none" stroke="black" points="193.39,-192 193.39,-214 321.64,-214 321.64,-192 193.39,-192"/>
<text text-anchor="start" x="196.39" y="-199.3" font-family="Helvetica,sans-Serif" font-size="11.00">longtext[2147483647]</text>
<polygon fill="none" stroke="black" points="45.39,-170 45.39,-192 193.39,-192 193.39,-170 45.39,-170"/>
<text text-anchor="start" x="65.39" y="-176.55" font-family="Helvetica,sans-Serif" font-size="11.00">module</text>
<polygon fill="none" stroke="black" points="193.39,-170 193.39,-192 321.64,-192 321.64,-170 193.39,-170"/>
<text text-anchor="start" x="196.39" y="-177.3" font-family="Helvetica,sans-Serif" font-size="11.00">varchar[5000]</text>
<polygon fill="none" stroke="black" points="45.39,-148 45.39,-170 193.39,-170 193.39,-148 45.39,-148"/>
<text text-anchor="start" x="65.39" y="-154.55" font-family="Helvetica,sans-Serif" font-size="11.00">rank</text>
<polygon fill="none" stroke="black" points="193.39,-148 193.39,-170 321.64,-170 321.64,-148 193.39,-148"/>
<text text-anchor="start" x="196.39" y="-155.3" font-family="Helvetica,sans-Serif" font-size="11.00">int[10]</text>
<polygon fill="none" stroke="black" points="45.39,-126 45.39,-148 193.39,-148 193.39,-126 45.39,-126"/>
<text text-anchor="start" x="65.39" y="-132.55" font-family="Helvetica,sans-Serif" font-size="11.00">tag</text>
<polygon fill="none" stroke="black" points="193.39,-126 193.39,-148 321.64,-148 321.64,-126 193.39,-126"/>
<text text-anchor="start" x="196.39" y="-133.3" font-family="Helvetica,sans-Serif" font-size="11.00">varchar[191]</text>
<polygon fill="none" stroke="black" points="45.39,-104 45.39,-126 193.39,-126 193.39,-104 45.39,-104"/>
<text text-anchor="start" x="65.39" y="-110.55" font-family="Helvetica,sans-Serif" font-size="11.00">title</text>
<polygon fill="none" stroke="black" points="193.39,-104 193.39,-126 321.64,-126 321.64,-104 193.39,-104"/>
<text text-anchor="start" x="196.39" y="-111.3" font-family="Helvetica,sans-Serif" font-size="11.00">varchar[191]</text>
<polygon fill="none" stroke="black" points="45.39,-82 45.39,-104 193.39,-104 193.39,-82 45.39,-82"/>
<text text-anchor="start" x="65.39" y="-88.55" font-family="Helvetica,sans-Serif" font-size="11.00">type</text>
<polygon fill="none" stroke="black" points="193.39,-82 193.39,-104 321.64,-104 321.64,-82 193.39,-82"/>
<text text-anchor="start" x="196.39" y="-89.3" font-family="Helvetica,sans-Serif" font-size="11.00">varchar[191]</text>
<polygon fill="#ffffff" stroke="none" points="45.39,-60 45.39,-82 193.39,-82 193.39,-60 45.39,-60"/>
<polygon fill="none" stroke="black" points="45.39,-60 45.39,-82 193.39,-82 193.39,-60 45.39,-60"/>
<image xlink:href="../../images/foreignKeys.png" width="11px" height="12px" preserveAspectRatio="xMinYMin meet" x="50.394" y="-77"/>
<text text-anchor="start" x="65.39" y="-66.55" font-family="Helvetica,sans-Serif" font-size="11.00">parent</text>
<polygon fill="none" stroke="black" points="193.39,-60 193.39,-82 321.64,-82 321.64,-60 193.39,-60"/>
<text text-anchor="start" x="196.39" y="-67.3" font-family="Helvetica,sans-Serif" font-size="11.00">varchar[191]</text>
<polygon fill="#ffffff" stroke="none" points="45.39,-40.5 45.39,-60 125.39,-60 125.39,-40.5 45.39,-40.5"/>
<polygon fill="none" stroke="black" points="45.39,-40.5 45.39,-60 125.39,-60 125.39,-40.5 45.39,-40.5"/>
<text text-anchor="start" x="48.39" y="-46.55" font-family="Helvetica,sans-Serif" font-size="11.00">&lt; 1</text>
<polygon fill="#ffffff" stroke="none" points="125.39,-40.5 125.39,-60 193.39,-60 193.39,-40.5 125.39,-40.5"/>
<polygon fill="none" stroke="black" points="125.39,-40.5 125.39,-60 193.39,-60 193.39,-40.5 125.39,-40.5"/>
<text text-anchor="start" x="182.89" y="-46.55" font-family="Helvetica,sans-Serif" font-size="11.00"> &#160;</text>
<polygon fill="#ffffff" stroke="none" points="193.39,-40.5 193.39,-60 321.64,-60 321.64,-40.5 193.39,-40.5"/>
<polygon fill="none" stroke="black" points="193.39,-40.5 193.39,-60 321.64,-60 321.64,-40.5 193.39,-40.5"/>
<text text-anchor="start" x="299.14" y="-46.55" font-family="Helvetica,sans-Serif" font-size="11.00">1 &gt;</text>
<polygon fill="none" stroke="black" stroke-width="2" points="44.39,-39.5 44.39,-370.5 322.64,-370.5 322.64,-39.5 44.39,-39.5"/>
</a>
</g>
</g>
<!-- hlp_page&#45;&gt;hlp_page -->
<g id="edge1" class="edge">
<title>hlp_page:w&#45;&gt;hlp_page:e</title>
<path fill="none" stroke="black" d="M34.32,-82.24C-28.08,-158.49 -17.48,-388.5 183.52,-388.5 395.71,-388.5 395.71,-379.83 321.64,-335"/>
<polygon fill="black" stroke="black" points="39.54,-76.94 47.72,-73.77 42.59,-73.85 44.92,-71.48 44.92,-71.48 44.92,-71.48 42.59,-73.85 42.6,-68.71 39.54,-76.94"/>
<ellipse fill="none" stroke="black" cx="36.09" cy="-80.44" rx="3.2" ry="3.2"/>
</g>
</g>
</svg>
