<?xml version="1.0" encoding="UTF-8" standalone="no"?>
<!DOCTYPE svg PUBLIC "-//W3C//DTD SVG 1.1//EN"
 "http://www.w3.org/Graphics/SVG/1.1/DTD/svg11.dtd">
<!-- Generated by graphviz version 12.2.0 (0)
 -->
<!-- Title: twoDegreesRelationshipsDiagram Pages: 1 -->
<svg width="1159pt" height="904pt"
 viewBox="0.00 0.00 1158.75 904.00" xmlns="http://www.w3.org/2000/svg" xmlns:xlink="http://www.w3.org/1999/xlink">
<g id="graph0" class="graph" transform="scale(1 1) rotate(0) translate(4 900)">
<title>twoDegreesRelationshipsDiagram</title>
<polygon fill="#ffffff" stroke="none" points="-4,4 -4,-900 1154.75,-900 1154.75,4 -4,4"/>
<text text-anchor="middle" x="79.25" y="-7.05" font-family="Helvetica,sans-Serif" font-size="11.00">Generated by SchemaSpy</text>
<!-- check_automatic_result -->
<g id="node1" class="node">
<title>check_automatic_result</title>
<g id="a_node1"><a xlink:href="../../tables/check_automatic_result.html" xlink:title="check_automatic_result" target="_top">
<polygon fill="#ffffff" stroke="none" points="770.75,-829.5 770.75,-892 975.5,-892 975.5,-829.5 770.75,-829.5"/>
<polygon fill="#f5f5f5" stroke="none" points="770.75,-868.5 770.75,-892 975.5,-892 975.5,-868.5 770.75,-868.5"/>
<polygon fill="none" stroke="black" points="770.75,-868.5 770.75,-892 975.5,-892 975.5,-868.5 770.75,-868.5"/>
<text text-anchor="start" x="775.75" y="-877.55" font-family="Helvetica,sans-Serif" font-weight="bold" font-size="11.00">check_automatic_result</text>
<text text-anchor="start" x="933.75" y="-876.55" font-family="Helvetica,sans-Serif" font-size="11.00">[table]</text>
<polygon fill="none" stroke="black" points="770.75,-849 770.75,-868.5 975.5,-868.5 975.5,-849 770.75,-849"/>
<text text-anchor="start" x="773.75" y="-855.05" font-family="Helvetica,sans-Serif" font-size="11.00">...</text>
<polygon fill="#ffffff" stroke="none" points="770.75,-829.5 770.75,-849 847,-849 847,-829.5 770.75,-829.5"/>
<polygon fill="none" stroke="black" points="770.75,-829.5 770.75,-849 847,-849 847,-829.5 770.75,-829.5"/>
<text text-anchor="start" x="773.75" y="-835.55" font-family="Helvetica,sans-Serif" font-size="11.00">&lt; 6</text>
<polygon fill="#ffffff" stroke="none" points="847,-829.5 847,-849 911.25,-849 911.25,-829.5 847,-829.5"/>
<polygon fill="none" stroke="black" points="847,-829.5 847,-849 911.25,-849 911.25,-829.5 847,-829.5"/>
<text text-anchor="start" x="900.75" y="-835.55" font-family="Helvetica,sans-Serif" font-size="11.00"> &#160;</text>
<polygon fill="#ffffff" stroke="none" points="911.25,-829.5 911.25,-849 975.5,-849 975.5,-829.5 911.25,-829.5"/>
<polygon fill="none" stroke="black" points="911.25,-829.5 911.25,-849 975.5,-849 975.5,-829.5 911.25,-829.5"/>
<text text-anchor="start" x="965" y="-835.55" font-family="Helvetica,sans-Serif" font-size="11.00"> &#160;</text>
</a>
</g>
</g>
<!-- doc_digital_document -->
<g id="node2" class="node">
<title>doc_digital_document</title>
<g id="a_node2"><a xlink:href="../../tables/doc_digital_document.html" xlink:title="doc_digital_document" target="_top">
<polygon fill="#ffffff" stroke="none" points="8,-765.5 8,-828 200.75,-828 200.75,-765.5 8,-765.5"/>
<polygon fill="#f5f5f5" stroke="none" points="8,-804.5 8,-828 200.75,-828 200.75,-804.5 8,-804.5"/>
<polygon fill="none" stroke="black" points="8,-804.5 8,-828 200.75,-828 200.75,-804.5 8,-804.5"/>
<text text-anchor="start" x="13" y="-813.55" font-family="Helvetica,sans-Serif" font-weight="bold" font-size="11.00">doc_digital_document</text>
<text text-anchor="start" x="159" y="-812.55" font-family="Helvetica,sans-Serif" font-size="11.00">[table]</text>
<polygon fill="none" stroke="black" points="8,-785 8,-804.5 200.75,-804.5 200.75,-785 8,-785"/>
<text text-anchor="start" x="11" y="-791.05" font-family="Helvetica,sans-Serif" font-size="11.00">...</text>
<polygon fill="#ffffff" stroke="none" points="8,-765.5 8,-785 76.25,-785 76.25,-765.5 8,-765.5"/>
<polygon fill="none" stroke="black" points="8,-765.5 8,-785 76.25,-785 76.25,-765.5 8,-765.5"/>
<text text-anchor="start" x="11" y="-771.55" font-family="Helvetica,sans-Serif" font-size="11.00">&lt; 1</text>
<polygon fill="#ffffff" stroke="none" points="76.25,-765.5 76.25,-785 132.5,-785 132.5,-765.5 76.25,-765.5"/>
<polygon fill="none" stroke="black" points="76.25,-765.5 76.25,-785 132.5,-785 132.5,-765.5 76.25,-765.5"/>
<text text-anchor="start" x="122" y="-771.55" font-family="Helvetica,sans-Serif" font-size="11.00"> &#160;</text>
<polygon fill="#ffffff" stroke="none" points="132.5,-765.5 132.5,-785 200.75,-785 200.75,-765.5 132.5,-765.5"/>
<polygon fill="none" stroke="black" points="132.5,-765.5 132.5,-785 200.75,-785 200.75,-765.5 132.5,-765.5"/>
<text text-anchor="start" x="178.25" y="-771.55" font-family="Helvetica,sans-Serif" font-size="11.00">6 &gt;</text>
</a>
</g>
</g>
<!-- check_automatic_result&#45;&gt;doc_digital_document -->
<g id="edge1" class="edge">
<title>check_automatic_result:w&#45;&gt;doc_digital_document:e</title>
<path fill="none" stroke="black" d="M753.95,-858.7C608.85,-857.84 567.1,-844.93 415.5,-826.75 367.81,-821.03 249.78,-794.75 201.75,-794.75"/>
<polygon fill="black" stroke="black" points="761.42,-858.73 769.41,-862.35 765.75,-858.74 769.08,-858.75 769.08,-858.75 769.08,-858.75 765.75,-858.74 769.43,-855.15 761.42,-858.73"/>
<ellipse fill="none" stroke="black" cx="756.5" cy="-858.71" rx="3.2" ry="3.2"/>
</g>
<!-- doc_page -->
<g id="node3" class="node">
<title>doc_page</title>
<g id="a_node3"><a xlink:href="../../tables/doc_page.html" xlink:title="doc_page" target="_top">
<polygon fill="#ffffff" stroke="none" points="483.88,-665.5 483.88,-816 631.88,-816 631.88,-665.5 483.88,-665.5"/>
<polygon fill="#f5f5f5" stroke="none" points="483.88,-792.5 483.88,-816 631.88,-816 631.88,-792.5 483.88,-792.5"/>
<polygon fill="none" stroke="black" points="483.88,-792.5 483.88,-816 631.88,-816 631.88,-792.5 483.88,-792.5"/>
<text text-anchor="start" x="488.88" y="-801.55" font-family="Helvetica,sans-Serif" font-weight="bold" font-size="11.00">doc_page</text>
<text text-anchor="start" x="590.12" y="-800.55" font-family="Helvetica,sans-Serif" font-size="11.00">[table]</text>
<polygon fill="none" stroke="black" points="483.88,-770.5 483.88,-792.5 631.88,-792.5 631.88,-770.5 483.88,-770.5"/>
<image xlink:href="../../images/primaryKeys.png" width="11px" height="12px" preserveAspectRatio="xMinYMin meet" x="488.875" y="-787.5"/>
<text text-anchor="start" x="503.88" y="-777.05" font-family="Helvetica,sans-Serif" font-size="11.00">identifier</text>
<polygon fill="#ffffff" stroke="none" points="483.88,-748.5 483.88,-770.5 631.88,-770.5 631.88,-748.5 483.88,-748.5"/>
<polygon fill="none" stroke="black" points="483.88,-748.5 483.88,-770.5 631.88,-770.5 631.88,-748.5 483.88,-748.5"/>
<image xlink:href="../../images/foreignKeys.png" width="11px" height="12px" preserveAspectRatio="xMinYMin meet" x="488.875" y="-765.5"/>
<text text-anchor="start" x="503.88" y="-755.05" font-family="Helvetica,sans-Serif" font-size="11.00">digital_document</text>
<polygon fill="#ffffff" stroke="none" points="483.88,-726.5 483.88,-748.5 631.88,-748.5 631.88,-726.5 483.88,-726.5"/>
<polygon fill="none" stroke="black" points="483.88,-726.5 483.88,-748.5 631.88,-748.5 631.88,-726.5 483.88,-726.5"/>
<image xlink:href="../../images/foreignKeys.png" width="11px" height="12px" preserveAspectRatio="xMinYMin meet" x="488.875" y="-743.5"/>
<text text-anchor="start" x="503.88" y="-733.05" font-family="Helvetica,sans-Serif" font-size="11.00">sample</text>
<polygon fill="#ffffff" stroke="none" points="483.88,-704.5 483.88,-726.5 631.88,-726.5 631.88,-704.5 483.88,-704.5"/>
<polygon fill="none" stroke="black" points="483.88,-704.5 483.88,-726.5 631.88,-726.5 631.88,-704.5 483.88,-704.5"/>
<text text-anchor="start" x="503.88" y="-711.05" font-family="Helvetica,sans-Serif" font-size="11.00">piece</text>
<polygon fill="none" stroke="black" points="483.88,-685 483.88,-704.5 631.88,-704.5 631.88,-685 483.88,-685"/>
<text text-anchor="start" x="486.88" y="-691.05" font-family="Helvetica,sans-Serif" font-size="11.00">...</text>
<polygon fill="#ffffff" stroke="none" points="483.88,-665.5 483.88,-685 537.21,-685 537.21,-665.5 483.88,-665.5"/>
<polygon fill="none" stroke="black" points="483.88,-665.5 483.88,-685 537.21,-685 537.21,-665.5 483.88,-665.5"/>
<text text-anchor="start" x="486.88" y="-671.55" font-family="Helvetica,sans-Serif" font-size="11.00">&lt; 2</text>
<polygon fill="#ffffff" stroke="none" points="537.21,-665.5 537.21,-685 578.54,-685 578.54,-665.5 537.21,-665.5"/>
<polygon fill="none" stroke="black" points="537.21,-665.5 537.21,-685 578.54,-685 578.54,-665.5 537.21,-665.5"/>
<text text-anchor="start" x="568.04" y="-671.55" font-family="Helvetica,sans-Serif" font-size="11.00"> &#160;</text>
<polygon fill="#ffffff" stroke="none" points="578.54,-665.5 578.54,-685 631.88,-685 631.88,-665.5 578.54,-665.5"/>
<polygon fill="none" stroke="black" points="578.54,-665.5 578.54,-685 631.88,-685 631.88,-665.5 578.54,-665.5"/>
<text text-anchor="start" x="609.38" y="-671.55" font-family="Helvetica,sans-Serif" font-size="11.00">3 &gt;</text>
</a>
</g>
</g>
<!-- check_automatic_result&#45;&gt;doc_page -->
<g id="edge2" class="edge">
<title>check_automatic_result:w&#45;&gt;doc_page:e</title>
<path fill="none" stroke="black" d="M754.29,-857.34C699.88,-846.87 697.13,-781.5 632.88,-781.5"/>
<polygon fill="black" stroke="black" points="761.45,-857.99 769.09,-862.3 765.77,-858.39 769.08,-858.69 769.08,-858.69 769.08,-858.69 765.77,-858.39 769.74,-855.13 761.45,-857.99"/>
<ellipse fill="none" stroke="black" cx="756.55" cy="-857.55" rx="3.2" ry="3.2"/>
</g>
<!-- doc_page&#45;&gt;doc_digital_document -->
<g id="edge5" class="edge">
<title>doc_page:w&#45;&gt;doc_digital_document:e</title>
<path fill="none" stroke="black" d="M467.3,-760.19C434.26,-763.27 422.06,-775.97 382.5,-781.75 302.8,-793.39 282.29,-794.75 201.75,-794.75"/>
<polygon fill="black" stroke="black" points="474.55,-759.87 482.7,-763.11 478.88,-759.68 482.21,-759.53 482.21,-759.53 482.21,-759.53 478.88,-759.68 482.38,-755.92 474.55,-759.87"/>
<ellipse fill="none" stroke="black" cx="469.63" cy="-760.08" rx="3.2" ry="3.2"/>
</g>
<!-- doc_sample -->
<g id="node7" class="node">
<title>doc_sample</title>
<g id="a_node7"><a xlink:href="../../tables/doc_sample.html" xlink:title="doc_sample" target="_top">
<polygon fill="#ffffff" stroke="none" points="249.75,-708.5 249.75,-771 374.5,-771 374.5,-708.5 249.75,-708.5"/>
<polygon fill="#f5f5f5" stroke="none" points="249.75,-747.5 249.75,-771 374.5,-771 374.5,-747.5 249.75,-747.5"/>
<polygon fill="none" stroke="black" points="249.75,-747.5 249.75,-771 374.5,-771 374.5,-747.5 249.75,-747.5"/>
<text text-anchor="start" x="254.75" y="-756.55" font-family="Helvetica,sans-Serif" font-weight="bold" font-size="11.00">doc_sample</text>
<text text-anchor="start" x="332.75" y="-755.55" font-family="Helvetica,sans-Serif" font-size="11.00">[table]</text>
<polygon fill="none" stroke="black" points="249.75,-728 249.75,-747.5 374.5,-747.5 374.5,-728 249.75,-728"/>
<text text-anchor="start" x="252.75" y="-734.05" font-family="Helvetica,sans-Serif" font-size="11.00">...</text>
<polygon fill="#ffffff" stroke="none" points="249.75,-708.5 249.75,-728 295.33,-728 295.33,-708.5 249.75,-708.5"/>
<polygon fill="none" stroke="black" points="249.75,-708.5 249.75,-728 295.33,-728 295.33,-708.5 249.75,-708.5"/>
<text text-anchor="start" x="252.75" y="-714.55" font-family="Helvetica,sans-Serif" font-size="11.00">&lt; 2</text>
<polygon fill="#ffffff" stroke="none" points="295.33,-708.5 295.33,-728 328.92,-728 328.92,-708.5 295.33,-708.5"/>
<polygon fill="none" stroke="black" points="295.33,-708.5 295.33,-728 328.92,-728 328.92,-708.5 295.33,-708.5"/>
<text text-anchor="start" x="318.42" y="-714.55" font-family="Helvetica,sans-Serif" font-size="11.00"> &#160;</text>
<polygon fill="#ffffff" stroke="none" points="328.92,-708.5 328.92,-728 374.5,-728 374.5,-708.5 328.92,-708.5"/>
<polygon fill="none" stroke="black" points="328.92,-708.5 328.92,-728 374.5,-728 374.5,-708.5 328.92,-708.5"/>
<text text-anchor="start" x="352" y="-714.55" font-family="Helvetica,sans-Serif" font-size="11.00">1 &gt;</text>
</a>
</g>
</g>
<!-- doc_page&#45;&gt;doc_sample -->
<g id="edge6" class="edge">
<title>doc_page:w&#45;&gt;doc_sample:e</title>
<path fill="none" stroke="black" d="M467.46,-737.51C431.86,-737.56 417.63,-737.75 375.5,-737.75"/>
<polygon fill="black" stroke="black" points="474.54,-737.51 482.54,-741.1 478.88,-737.5 482.21,-737.5 482.21,-737.5 482.21,-737.5 478.88,-737.5 482.54,-733.9 474.54,-737.51"/>
<ellipse fill="none" stroke="black" cx="469.62" cy="-737.51" rx="3.2" ry="3.2"/>
</g>
<!-- conf_views_format_configuration -->
<g id="node4" class="node">
<title>conf_views_format_configuration</title>
<g id="a_node4"><a xlink:href="../../tables/conf_views_format_configuration.html" xlink:title="conf_views_format_configuration" target="_top">
<polygon fill="#ffffff" stroke="none" points="423.5,-72.5 423.5,-179 692.25,-179 692.25,-72.5 423.5,-72.5"/>
<polygon fill="#f5f5f5" stroke="none" points="423.5,-155.5 423.5,-179 692.25,-179 692.25,-155.5 423.5,-155.5"/>
<polygon fill="none" stroke="black" points="423.5,-155.5 423.5,-179 692.25,-179 692.25,-155.5 423.5,-155.5"/>
<text text-anchor="start" x="428.5" y="-164.55" font-family="Helvetica,sans-Serif" font-weight="bold" font-size="11.00">conf_views_format_configuration</text>
<text text-anchor="start" x="650.5" y="-163.55" font-family="Helvetica,sans-Serif" font-size="11.00">[table]</text>
<polygon fill="none" stroke="black" points="423.5,-133.5 423.5,-155.5 692.25,-155.5 692.25,-133.5 423.5,-133.5"/>
<image xlink:href="../../images/primaryKeys.png" width="11px" height="12px" preserveAspectRatio="xMinYMin meet" x="428.5" y="-150.5"/>
<text text-anchor="start" x="456.38" y="-140.05" font-family="Helvetica,sans-Serif" font-size="11.00">identifier</text>
<polygon fill="#ffffff" stroke="none" points="423.5,-111.5 423.5,-133.5 692.25,-133.5 692.25,-111.5 423.5,-111.5"/>
<polygon fill="none" stroke="black" points="423.5,-111.5 423.5,-133.5 692.25,-133.5 692.25,-111.5 423.5,-111.5"/>
<image xlink:href="../../images/foreignKeys.png" width="11px" height="12px" preserveAspectRatio="xMinYMin meet" x="428.5" y="-128.5"/>
<text text-anchor="start" x="456.38" y="-118.05" font-family="Helvetica,sans-Serif" font-size="11.00">library</text>
<polygon fill="none" stroke="black" points="423.5,-92 423.5,-111.5 692.25,-111.5 692.25,-92 423.5,-92"/>
<text text-anchor="start" x="426.5" y="-98.05" font-family="Helvetica,sans-Serif" font-size="11.00">...</text>
<polygon fill="#ffffff" stroke="none" points="423.5,-72.5 423.5,-92 517.08,-92 517.08,-72.5 423.5,-72.5"/>
<polygon fill="none" stroke="black" points="423.5,-72.5 423.5,-92 517.08,-92 517.08,-72.5 423.5,-72.5"/>
<text text-anchor="start" x="426.5" y="-78.55" font-family="Helvetica,sans-Serif" font-size="11.00">&lt; 1</text>
<polygon fill="#ffffff" stroke="none" points="517.08,-72.5 517.08,-92 598.67,-92 598.67,-72.5 517.08,-72.5"/>
<polygon fill="none" stroke="black" points="517.08,-72.5 517.08,-92 598.67,-92 598.67,-72.5 517.08,-72.5"/>
<text text-anchor="start" x="588.17" y="-78.55" font-family="Helvetica,sans-Serif" font-size="11.00"> &#160;</text>
<polygon fill="#ffffff" stroke="none" points="598.67,-72.5 598.67,-92 692.25,-92 692.25,-72.5 598.67,-72.5"/>
<polygon fill="none" stroke="black" points="598.67,-72.5 598.67,-92 692.25,-92 692.25,-72.5 598.67,-72.5"/>
<text text-anchor="start" x="669.75" y="-78.55" font-family="Helvetica,sans-Serif" font-size="11.00">3 &gt;</text>
</a>
</g>
</g>
<!-- lib_library -->
<g id="node5" class="node">
<title>lib_library</title>
<g id="a_node5"><a xlink:href="../../tables/lib_library.html" xlink:title="lib_library" target="_top">
<polygon fill="#ffffff" stroke="none" points="255.25,-56.5 255.25,-119 369,-119 369,-56.5 255.25,-56.5"/>
<polygon fill="#f5f5f5" stroke="none" points="255.25,-95.5 255.25,-119 369,-119 369,-95.5 255.25,-95.5"/>
<polygon fill="none" stroke="black" points="255.25,-95.5 255.25,-119 369,-119 369,-95.5 255.25,-95.5"/>
<text text-anchor="start" x="260.25" y="-104.55" font-family="Helvetica,sans-Serif" font-weight="bold" font-size="11.00">lib_library</text>
<text text-anchor="start" x="327.25" y="-103.55" font-family="Helvetica,sans-Serif" font-size="11.00">[table]</text>
<polygon fill="none" stroke="black" points="255.25,-76 255.25,-95.5 369,-95.5 369,-76 255.25,-76"/>
<text text-anchor="start" x="258.25" y="-82.05" font-family="Helvetica,sans-Serif" font-size="11.00">...</text>
<polygon fill="#ffffff" stroke="none" points="255.25,-56.5 255.25,-76 294.92,-76 294.92,-56.5 255.25,-56.5"/>
<polygon fill="none" stroke="black" points="255.25,-56.5 255.25,-76 294.92,-76 294.92,-56.5 255.25,-56.5"/>
<text text-anchor="start" x="258.25" y="-62.55" font-family="Helvetica,sans-Serif" font-size="11.00">&lt; 6</text>
<polygon fill="#ffffff" stroke="none" points="294.92,-56.5 294.92,-76 322.58,-76 322.58,-56.5 294.92,-56.5"/>
<polygon fill="none" stroke="black" points="294.92,-56.5 294.92,-76 322.58,-76 322.58,-56.5 294.92,-56.5"/>
<text text-anchor="start" x="312.08" y="-62.55" font-family="Helvetica,sans-Serif" font-size="11.00"> &#160;</text>
<polygon fill="#ffffff" stroke="none" points="322.58,-56.5 322.58,-76 369,-76 369,-56.5 322.58,-56.5"/>
<polygon fill="none" stroke="black" points="322.58,-56.5 322.58,-76 369,-76 369,-56.5 322.58,-56.5"/>
<text text-anchor="start" x="339.75" y="-62.55" font-family="Helvetica,sans-Serif" font-size="11.00">27 &gt;</text>
</a>
</g>
</g>
<!-- conf_views_format_configuration&#45;&gt;lib_library -->
<g id="edge3" class="edge">
<title>conf_views_format_configuration:w&#45;&gt;lib_library:e</title>
<path fill="none" stroke="black" d="M407.45,-117.7C394.35,-107.73 392.03,-85.75 370,-85.75"/>
<polygon fill="black" stroke="black" points="414.56,-119.97 421.09,-125.83 418.69,-121.28 421.86,-122.3 421.86,-122.3 421.86,-122.3 418.69,-121.28 423.28,-118.97 414.56,-119.97"/>
<ellipse fill="none" stroke="black" cx="409.87" cy="-118.47" rx="3.2" ry="3.2"/>
</g>
<!-- doc_check -->
<g id="node6" class="node">
<title>doc_check</title>
<g id="a_node6"><a xlink:href="../../tables/doc_check.html" xlink:title="doc_check" target="_top">
<polygon fill="#ffffff" stroke="none" points="815.75,-745.5 815.75,-808 930.5,-808 930.5,-745.5 815.75,-745.5"/>
<polygon fill="#f5f5f5" stroke="none" points="815.75,-784.5 815.75,-808 930.5,-808 930.5,-784.5 815.75,-784.5"/>
<polygon fill="none" stroke="black" points="815.75,-784.5 815.75,-808 930.5,-808 930.5,-784.5 815.75,-784.5"/>
<text text-anchor="start" x="820.75" y="-793.55" font-family="Helvetica,sans-Serif" font-weight="bold" font-size="11.00">doc_check</text>
<text text-anchor="start" x="888.75" y="-792.55" font-family="Helvetica,sans-Serif" font-size="11.00">[table]</text>
<polygon fill="none" stroke="black" points="815.75,-765 815.75,-784.5 930.5,-784.5 930.5,-765 815.75,-765"/>
<text text-anchor="start" x="818.75" y="-771.05" font-family="Helvetica,sans-Serif" font-size="11.00">...</text>
<polygon fill="#ffffff" stroke="none" points="815.75,-745.5 815.75,-765 862,-765 862,-745.5 815.75,-745.5"/>
<polygon fill="none" stroke="black" points="815.75,-745.5 815.75,-765 862,-765 862,-745.5 815.75,-745.5"/>
<text text-anchor="start" x="818.75" y="-751.55" font-family="Helvetica,sans-Serif" font-size="11.00">&lt; 1</text>
<polygon fill="#ffffff" stroke="none" points="862,-745.5 862,-765 896.25,-765 896.25,-745.5 862,-745.5"/>
<polygon fill="none" stroke="black" points="862,-745.5 862,-765 896.25,-765 896.25,-745.5 862,-745.5"/>
<text text-anchor="start" x="885.75" y="-751.55" font-family="Helvetica,sans-Serif" font-size="11.00"> &#160;</text>
<polygon fill="#ffffff" stroke="none" points="896.25,-745.5 896.25,-765 930.5,-765 930.5,-745.5 896.25,-745.5"/>
<polygon fill="none" stroke="black" points="896.25,-745.5 896.25,-765 930.5,-765 930.5,-745.5 896.25,-745.5"/>
<text text-anchor="start" x="920" y="-751.55" font-family="Helvetica,sans-Serif" font-size="11.00"> &#160;</text>
</a>
</g>
</g>
<!-- doc_check&#45;&gt;doc_page -->
<g id="edge4" class="edge">
<title>doc_check:w&#45;&gt;doc_page:e</title>
<path fill="none" stroke="black" d="M798.97,-774.84C730.83,-775.64 708.23,-781.5 632.88,-781.5"/>
<polygon fill="black" stroke="black" points="806.42,-774.8 814.44,-778.35 810.75,-774.77 814.08,-774.75 814.08,-774.75 814.08,-774.75 810.75,-774.77 814.39,-771.15 806.42,-774.8"/>
<ellipse fill="none" stroke="black" cx="801.5" cy="-774.83" rx="3.2" ry="3.2"/>
</g>
<!-- doc_sample&#45;&gt;doc_digital_document -->
<g id="edge7" class="edge">
<title>doc_sample:w&#45;&gt;doc_digital_document:e</title>
<path fill="none" stroke="black" d="M234.25,-743.85C221.37,-758.55 227.92,-794.75 201.75,-794.75"/>
<polygon fill="black" stroke="black" points="241.07,-740.98 249.84,-741.2 245.06,-739.3 248.13,-738.01 248.13,-738.01 248.13,-738.01 245.06,-739.3 247.05,-734.56 241.07,-740.98"/>
<ellipse fill="none" stroke="black" cx="236.53" cy="-742.89" rx="3.2" ry="3.2"/>
</g>
<!-- lot_lot -->
<g id="node8" class="node">
<title>lot_lot</title>
<g id="a_node8"><a xlink:href="../../tables/lot_lot.html" xlink:title="lot_lot" target="_top">
<polygon fill="#ffffff" stroke="none" points="1054,-66.5 1054,-129 1142.75,-129 1142.75,-66.5 1054,-66.5"/>
<polygon fill="#f5f5f5" stroke="none" points="1054,-105.5 1054,-129 1142.75,-129 1142.75,-105.5 1054,-105.5"/>
<polygon fill="none" stroke="black" points="1054,-105.5 1054,-129 1142.75,-129 1142.75,-105.5 1054,-105.5"/>
<text text-anchor="start" x="1058.88" y="-114.55" font-family="Helvetica,sans-Serif" font-weight="bold" font-size="11.00">lot_lot</text>
<text text-anchor="start" x="1101" y="-113.55" font-family="Helvetica,sans-Serif" font-size="11.00">[table]</text>
<polygon fill="none" stroke="black" points="1054,-86 1054,-105.5 1142.75,-105.5 1142.75,-86 1054,-86"/>
<text text-anchor="start" x="1057" y="-92.05" font-family="Helvetica,sans-Serif" font-size="11.00">...</text>
<polygon fill="#ffffff" stroke="none" points="1054,-66.5 1054,-86 1092.08,-86 1092.08,-66.5 1054,-66.5"/>
<polygon fill="none" stroke="black" points="1054,-66.5 1054,-86 1092.08,-86 1092.08,-66.5 1054,-66.5"/>
<text text-anchor="start" x="1057" y="-72.55" font-family="Helvetica,sans-Serif" font-size="11.00">&lt; 14</text>
<polygon fill="#ffffff" stroke="none" points="1092.08,-66.5 1092.08,-86 1111.42,-86 1111.42,-66.5 1092.08,-66.5"/>
<polygon fill="none" stroke="black" points="1092.08,-66.5 1092.08,-86 1111.42,-86 1111.42,-66.5 1092.08,-66.5"/>
<text text-anchor="start" x="1100.92" y="-72.55" font-family="Helvetica,sans-Serif" font-size="11.00"> &#160;</text>
<polygon fill="#ffffff" stroke="none" points="1111.42,-66.5 1111.42,-86 1142.75,-86 1142.75,-66.5 1111.42,-66.5"/>
<polygon fill="none" stroke="black" points="1111.42,-66.5 1111.42,-86 1142.75,-86 1142.75,-66.5 1111.42,-66.5"/>
<text text-anchor="start" x="1120.25" y="-72.55" font-family="Helvetica,sans-Serif" font-size="11.00">4 &gt;</text>
</a>
</g>
</g>
<!-- lot_lot&#45;&gt;conf_views_format_configuration -->
<g id="edge8" class="edge">
<title>lot_lot:w&#45;&gt;conf_views_format_configuration:e</title>
<path fill="none" stroke="black" d="M1037.63,-99.21C1030.25,-102.96 1025.06,-108.82 1013,-111.75 891.62,-141.24 857.27,-123.86 733.25,-138.75 715.42,-140.89 711.21,-144.5 693.25,-144.5"/>
<polygon fill="black" stroke="black" points="1044.87,-97.58 1053.46,-99.34 1049.1,-96.63 1052.35,-95.9 1052.35,-95.9 1052.35,-95.9 1049.1,-96.63 1051.88,-92.31 1044.87,-97.58"/>
<ellipse fill="none" stroke="black" cx="1040.07" cy="-98.66" rx="3.2" ry="3.2"/>
</g>
<!-- proj_project -->
<g id="node9" class="node">
<title>proj_project</title>
<g id="a_node9"><a xlink:href="../../tables/proj_project.html" xlink:title="proj_project" target="_top">
<polygon fill="#ffffff" stroke="none" points="809.75,-38.5 809.75,-101 936.5,-101 936.5,-38.5 809.75,-38.5"/>
<polygon fill="#f5f5f5" stroke="none" points="809.75,-77.5 809.75,-101 936.5,-101 936.5,-77.5 809.75,-77.5"/>
<polygon fill="none" stroke="black" points="809.75,-77.5 809.75,-101 936.5,-101 936.5,-77.5 809.75,-77.5"/>
<text text-anchor="start" x="814.75" y="-86.55" font-family="Helvetica,sans-Serif" font-weight="bold" font-size="11.00">proj_project</text>
<text text-anchor="start" x="894.75" y="-85.55" font-family="Helvetica,sans-Serif" font-size="11.00">[table]</text>
<polygon fill="none" stroke="black" points="809.75,-58 809.75,-77.5 936.5,-77.5 936.5,-58 809.75,-58"/>
<text text-anchor="start" x="812.75" y="-64.05" font-family="Helvetica,sans-Serif" font-size="11.00">...</text>
<polygon fill="#ffffff" stroke="none" points="809.75,-38.5 809.75,-58 860.5,-58 860.5,-38.5 809.75,-38.5"/>
<polygon fill="none" stroke="black" points="809.75,-38.5 809.75,-58 860.5,-58 860.5,-38.5 809.75,-38.5"/>
<text text-anchor="start" x="812.75" y="-44.55" font-family="Helvetica,sans-Serif" font-size="11.00">&lt; 13</text>
<polygon fill="#ffffff" stroke="none" points="860.5,-38.5 860.5,-58 892.5,-58 892.5,-38.5 860.5,-38.5"/>
<polygon fill="none" stroke="black" points="860.5,-38.5 860.5,-58 892.5,-58 892.5,-38.5 860.5,-38.5"/>
<text text-anchor="start" x="882" y="-44.55" font-family="Helvetica,sans-Serif" font-size="11.00"> &#160;</text>
<polygon fill="#ffffff" stroke="none" points="892.5,-38.5 892.5,-58 936.5,-58 936.5,-38.5 892.5,-38.5"/>
<polygon fill="none" stroke="black" points="892.5,-38.5 892.5,-58 936.5,-58 936.5,-38.5 892.5,-38.5"/>
<text text-anchor="start" x="914" y="-44.55" font-family="Helvetica,sans-Serif" font-size="11.00">7 &gt;</text>
</a>
</g>
</g>
<!-- lot_lot&#45;&gt;proj_project -->
<g id="edge9" class="edge">
<title>lot_lot:w&#45;&gt;proj_project:e</title>
<path fill="none" stroke="black" d="M1037.36,-94.85C997.57,-90.06 984.65,-67.75 937.5,-67.75"/>
<polygon fill="black" stroke="black" points="1044.68,-95.27 1052.46,-99.32 1049.01,-95.52 1052.33,-95.71 1052.33,-95.71 1052.33,-95.71 1049.01,-95.52 1052.87,-92.14 1044.68,-95.27"/>
<ellipse fill="none" stroke="black" cx="1039.77" cy="-94.99" rx="3.2" ry="3.2"/>
</g>
<!-- proj_project&#45;&gt;conf_views_format_configuration -->
<g id="edge10" class="edge">
<title>proj_project:w&#45;&gt;conf_views_format_configuration:e</title>
<path fill="none" stroke="black" d="M793.33,-69.3C767.59,-75.04 761.07,-95.8 733.25,-114.75 714.94,-127.23 715.41,-144.5 693.25,-144.5"/>
<polygon fill="black" stroke="black" points="800.46,-68.58 808.78,-71.37 804.77,-68.15 808.08,-67.82 808.08,-67.82 808.08,-67.82 804.77,-68.15 808.06,-64.2 800.46,-68.58"/>
<ellipse fill="none" stroke="black" cx="795.56" cy="-69.07" rx="3.2" ry="3.2"/>
</g>
<!-- proj_project&#45;&gt;lib_library -->
<g id="edge11" class="edge">
<title>proj_project:w&#45;&gt;lib_library:e</title>
<path fill="none" stroke="black" d="M793.15,-67.57C757.16,-66.7 742.87,-62.93 700.25,-61.75 573.74,-58.25 538.35,-31.34 415.5,-61.75 393.31,-67.24 392.86,-85.75 370,-85.75"/>
<polygon fill="black" stroke="black" points="800.42,-67.65 808.37,-71.35 804.75,-67.7 808.08,-67.74 808.08,-67.74 808.08,-67.74 804.75,-67.7 808.46,-64.15 800.42,-67.65"/>
<ellipse fill="none" stroke="black" cx="795.5" cy="-67.6" rx="3.2" ry="3.2"/>
</g>
<!-- sto_stored_file -->
<g id="node10" class="node">
<title>sto_stored_file</title>
<g id="a_node10"><a xlink:href="../../tables/sto_stored_file.html" xlink:title="sto_stored_file" target="_top">
<polygon fill="#ffffff" stroke="none" points="741.25,-149.25 741.25,-724.25 1005,-724.25 1005,-149.25 741.25,-149.25"/>
<polygon fill="#f5f5f5" stroke="none" points="743.25,-698.75 743.25,-722.25 1003,-722.25 1003,-698.75 743.25,-698.75"/>
<polygon fill="none" stroke="black" points="743.25,-698.75 743.25,-722.25 1003,-722.25 1003,-698.75 743.25,-698.75"/>
<text text-anchor="start" x="748.25" y="-707.8" font-family="Helvetica,sans-Serif" font-weight="bold" font-size="11.00">sto_stored_file</text>
<text text-anchor="start" x="961.25" y="-706.8" font-family="Helvetica,sans-Serif" font-size="11.00">[table]</text>
<polygon fill="none" stroke="black" points="743.25,-676.75 743.25,-698.75 906.25,-698.75 906.25,-676.75 743.25,-676.75"/>
<image xlink:href="../../images/primaryKeys.png" width="11px" height="12px" preserveAspectRatio="xMinYMin meet" x="748.25" y="-693.75"/>
<text text-anchor="start" x="763.25" y="-683.3" font-family="Helvetica,sans-Serif" font-size="11.00">identifier</text>
<polygon fill="none" stroke="black" points="906.25,-676.75 906.25,-698.75 998.5,-698.75 998.5,-676.75 906.25,-676.75"/>
<text text-anchor="start" x="909.25" y="-684.05" font-family="Helvetica,sans-Serif" font-size="11.00">varchar[191]</text>
<polygon fill="none" stroke="black" points="743.25,-654.75 743.25,-676.75 906.25,-676.75 906.25,-654.75 743.25,-654.75"/>
<text text-anchor="start" x="763.25" y="-661.3" font-family="Helvetica,sans-Serif" font-size="11.00">filename</text>
<polygon fill="none" stroke="black" points="906.25,-654.75 906.25,-676.75 998.5,-676.75 998.5,-654.75 906.25,-654.75"/>
<text text-anchor="start" x="909.25" y="-662.05" font-family="Helvetica,sans-Serif" font-size="11.00">varchar[255]</text>
<polygon fill="none" stroke="black" points="743.25,-632.75 743.25,-654.75 906.25,-654.75 906.25,-632.75 743.25,-632.75"/>
<text text-anchor="start" x="763.25" y="-639.3" font-family="Helvetica,sans-Serif" font-size="11.00">length</text>
<polygon fill="none" stroke="black" points="906.25,-632.75 906.25,-654.75 998.5,-654.75 998.5,-632.75 906.25,-632.75"/>
<text text-anchor="start" x="909.25" y="-640.05" font-family="Helvetica,sans-Serif" font-size="11.00">bigint[19]</text>
<polygon fill="none" stroke="black" points="743.25,-610.75 743.25,-632.75 906.25,-632.75 906.25,-610.75 743.25,-610.75"/>
<text text-anchor="start" x="763.25" y="-617.3" font-family="Helvetica,sans-Serif" font-size="11.00">page_digest</text>
<polygon fill="none" stroke="black" points="906.25,-610.75 906.25,-632.75 998.5,-632.75 998.5,-610.75 906.25,-610.75"/>
<text text-anchor="start" x="909.25" y="-618.05" font-family="Helvetica,sans-Serif" font-size="11.00">varchar[255]</text>
<polygon fill="none" stroke="black" points="743.25,-588.75 743.25,-610.75 906.25,-610.75 906.25,-588.75 743.25,-588.75"/>
<text text-anchor="start" x="763.25" y="-595.3" font-family="Helvetica,sans-Serif" font-size="11.00">mimetype</text>
<polygon fill="none" stroke="black" points="906.25,-588.75 906.25,-610.75 998.5,-610.75 998.5,-588.75 906.25,-588.75"/>
<text text-anchor="start" x="909.25" y="-596.05" font-family="Helvetica,sans-Serif" font-size="11.00">varchar[255]</text>
<polygon fill="none" stroke="black" points="743.25,-566.75 743.25,-588.75 906.25,-588.75 906.25,-566.75 743.25,-566.75"/>
<text text-anchor="start" x="763.25" y="-573.3" font-family="Helvetica,sans-Serif" font-size="11.00">type</text>
<polygon fill="none" stroke="black" points="906.25,-566.75 906.25,-588.75 998.5,-588.75 998.5,-566.75 906.25,-566.75"/>
<text text-anchor="start" x="909.25" y="-574.05" font-family="Helvetica,sans-Serif" font-size="11.00">varchar[255]</text>
<polygon fill="#ffffff" stroke="none" points="743.25,-544.75 743.25,-566.75 906.25,-566.75 906.25,-544.75 743.25,-544.75"/>
<polygon fill="none" stroke="black" points="743.25,-544.75 743.25,-566.75 906.25,-566.75 906.25,-544.75 743.25,-544.75"/>
<image xlink:href="../../images/foreignKeys.png" width="11px" height="12px" preserveAspectRatio="xMinYMin meet" x="748.25" y="-561.75"/>
<text text-anchor="start" x="763.25" y="-551.3" font-family="Helvetica,sans-Serif" font-size="11.00">page</text>
<polygon fill="none" stroke="black" points="906.25,-544.75 906.25,-566.75 998.5,-566.75 998.5,-544.75 906.25,-544.75"/>
<text text-anchor="start" x="909.25" y="-552.05" font-family="Helvetica,sans-Serif" font-size="11.00">varchar[191]</text>
<polygon fill="none" stroke="black" points="743.25,-522.75 743.25,-544.75 906.25,-544.75 906.25,-522.75 743.25,-522.75"/>
<text text-anchor="start" x="763.25" y="-529.3" font-family="Helvetica,sans-Serif" font-size="11.00">version</text>
<polygon fill="none" stroke="black" points="906.25,-522.75 906.25,-544.75 998.5,-544.75 998.5,-522.75 906.25,-522.75"/>
<text text-anchor="start" x="909.25" y="-530.05" font-family="Helvetica,sans-Serif" font-size="11.00">bigint[19]</text>
<polygon fill="none" stroke="black" points="743.25,-500.75 743.25,-522.75 906.25,-522.75 906.25,-500.75 743.25,-500.75"/>
<text text-anchor="start" x="763.25" y="-507.3" font-family="Helvetica,sans-Serif" font-size="11.00">created_by</text>
<polygon fill="none" stroke="black" points="906.25,-500.75 906.25,-522.75 998.5,-522.75 998.5,-500.75 906.25,-500.75"/>
<text text-anchor="start" x="909.25" y="-508.05" font-family="Helvetica,sans-Serif" font-size="11.00">varchar[191]</text>
<polygon fill="none" stroke="black" points="743.25,-478.75 743.25,-500.75 906.25,-500.75 906.25,-478.75 743.25,-478.75"/>
<text text-anchor="start" x="763.25" y="-485.3" font-family="Helvetica,sans-Serif" font-size="11.00">last_modified_by</text>
<polygon fill="none" stroke="black" points="906.25,-478.75 906.25,-500.75 998.5,-500.75 998.5,-478.75 906.25,-478.75"/>
<text text-anchor="start" x="909.25" y="-486.05" font-family="Helvetica,sans-Serif" font-size="11.00">varchar[191]</text>
<polygon fill="none" stroke="black" points="743.25,-456.75 743.25,-478.75 906.25,-478.75 906.25,-456.75 743.25,-456.75"/>
<text text-anchor="start" x="763.25" y="-463.3" font-family="Helvetica,sans-Serif" font-size="11.00">created_date</text>
<polygon fill="none" stroke="black" points="906.25,-456.75 906.25,-478.75 998.5,-478.75 998.5,-456.75 906.25,-456.75"/>
<text text-anchor="start" x="909.25" y="-464.05" font-family="Helvetica,sans-Serif" font-size="11.00">timestamp[19]</text>
<polygon fill="none" stroke="black" points="743.25,-434.75 743.25,-456.75 906.25,-456.75 906.25,-434.75 743.25,-434.75"/>
<text text-anchor="start" x="763.25" y="-441.3" font-family="Helvetica,sans-Serif" font-size="11.00">last_modified_date</text>
<polygon fill="none" stroke="black" points="906.25,-434.75 906.25,-456.75 998.5,-456.75 998.5,-434.75 906.25,-434.75"/>
<text text-anchor="start" x="909.25" y="-442.05" font-family="Helvetica,sans-Serif" font-size="11.00">timestamp[19]</text>
<polygon fill="none" stroke="black" points="743.25,-412.75 743.25,-434.75 906.25,-434.75 906.25,-412.75 743.25,-412.75"/>
<text text-anchor="start" x="763.25" y="-419.3" font-family="Helvetica,sans-Serif" font-size="11.00">height</text>
<polygon fill="none" stroke="black" points="906.25,-412.75 906.25,-434.75 998.5,-434.75 998.5,-412.75 906.25,-412.75"/>
<text text-anchor="start" x="909.25" y="-420.05" font-family="Helvetica,sans-Serif" font-size="11.00">bigint[19]</text>
<polygon fill="none" stroke="black" points="743.25,-390.75 743.25,-412.75 906.25,-412.75 906.25,-390.75 743.25,-390.75"/>
<text text-anchor="start" x="763.25" y="-397.3" font-family="Helvetica,sans-Serif" font-size="11.00">width</text>
<polygon fill="none" stroke="black" points="906.25,-390.75 906.25,-412.75 998.5,-412.75 998.5,-390.75 906.25,-390.75"/>
<text text-anchor="start" x="909.25" y="-398.05" font-family="Helvetica,sans-Serif" font-size="11.00">bigint[19]</text>
<polygon fill="none" stroke="black" points="743.25,-368.75 743.25,-390.75 906.25,-390.75 906.25,-368.75 743.25,-368.75"/>
<text text-anchor="start" x="763.25" y="-375.3" font-family="Helvetica,sans-Serif" font-size="11.00">title_toc</text>
<polygon fill="none" stroke="black" points="906.25,-368.75 906.25,-390.75 998.5,-390.75 998.5,-368.75 906.25,-368.75"/>
<text text-anchor="start" x="909.25" y="-376.05" font-family="Helvetica,sans-Serif" font-size="11.00">text[65535]</text>
<polygon fill="none" stroke="black" points="743.25,-346.75 743.25,-368.75 906.25,-368.75 906.25,-346.75 743.25,-346.75"/>
<text text-anchor="start" x="763.25" y="-353.3" font-family="Helvetica,sans-Serif" font-size="11.00">type_toc</text>
<polygon fill="none" stroke="black" points="906.25,-346.75 906.25,-368.75 998.5,-368.75 998.5,-346.75 906.25,-346.75"/>
<text text-anchor="start" x="909.25" y="-354.05" font-family="Helvetica,sans-Serif" font-size="11.00">varchar[255]</text>
<polygon fill="none" stroke="black" points="743.25,-324.75 743.25,-346.75 906.25,-346.75 906.25,-324.75 743.25,-324.75"/>
<text text-anchor="start" x="763.25" y="-331.3" font-family="Helvetica,sans-Serif" font-size="11.00">order_toc</text>
<polygon fill="none" stroke="black" points="906.25,-324.75 906.25,-346.75 998.5,-346.75 998.5,-324.75 906.25,-324.75"/>
<text text-anchor="start" x="909.25" y="-332.05" font-family="Helvetica,sans-Serif" font-size="11.00">varchar[255]</text>
<polygon fill="none" stroke="black" points="743.25,-302.75 743.25,-324.75 906.25,-324.75 906.25,-302.75 743.25,-302.75"/>
<text text-anchor="start" x="763.25" y="-309.3" font-family="Helvetica,sans-Serif" font-size="11.00">compression_type</text>
<polygon fill="none" stroke="black" points="906.25,-302.75 906.25,-324.75 998.5,-324.75 998.5,-302.75 906.25,-302.75"/>
<text text-anchor="start" x="909.25" y="-310.05" font-family="Helvetica,sans-Serif" font-size="11.00">varchar[255]</text>
<polygon fill="none" stroke="black" points="743.25,-280.75 743.25,-302.75 906.25,-302.75 906.25,-280.75 743.25,-280.75"/>
<text text-anchor="start" x="763.25" y="-287.3" font-family="Helvetica,sans-Serif" font-size="11.00">colorspace</text>
<polygon fill="none" stroke="black" points="906.25,-280.75 906.25,-302.75 998.5,-302.75 998.5,-280.75 906.25,-280.75"/>
<text text-anchor="start" x="909.25" y="-288.05" font-family="Helvetica,sans-Serif" font-size="11.00">varchar[255]</text>
<polygon fill="none" stroke="black" points="743.25,-258.75 743.25,-280.75 906.25,-280.75 906.25,-258.75 743.25,-258.75"/>
<text text-anchor="start" x="763.25" y="-265.3" font-family="Helvetica,sans-Serif" font-size="11.00">compression_rate</text>
<polygon fill="none" stroke="black" points="906.25,-258.75 906.25,-280.75 998.5,-280.75 998.5,-258.75 906.25,-258.75"/>
<text text-anchor="start" x="909.25" y="-266.05" font-family="Helvetica,sans-Serif" font-size="11.00">int[10]</text>
<polygon fill="none" stroke="black" points="743.25,-236.75 743.25,-258.75 906.25,-258.75 906.25,-236.75 743.25,-236.75"/>
<text text-anchor="start" x="763.25" y="-243.3" font-family="Helvetica,sans-Serif" font-size="11.00">resolution</text>
<polygon fill="none" stroke="black" points="906.25,-236.75 906.25,-258.75 998.5,-258.75 998.5,-236.75 906.25,-236.75"/>
<text text-anchor="start" x="909.25" y="-244.05" font-family="Helvetica,sans-Serif" font-size="11.00">int[10]</text>
<polygon fill="none" stroke="black" points="743.25,-214.75 743.25,-236.75 906.25,-236.75 906.25,-214.75 743.25,-214.75"/>
<text text-anchor="start" x="763.25" y="-221.3" font-family="Helvetica,sans-Serif" font-size="11.00">text_ocr</text>
<polygon fill="none" stroke="black" points="906.25,-214.75 906.25,-236.75 998.5,-236.75 998.5,-214.75 906.25,-214.75"/>
<text text-anchor="start" x="909.25" y="-222.05" font-family="Helvetica,sans-Serif" font-size="11.00">text[65535]</text>
<polygon fill="none" stroke="black" points="743.25,-192.75 743.25,-214.75 906.25,-214.75 906.25,-192.75 743.25,-192.75"/>
<text text-anchor="start" x="763.25" y="-199.3" font-family="Helvetica,sans-Serif" font-size="11.00">file_format</text>
<polygon fill="none" stroke="black" points="906.25,-192.75 906.25,-214.75 998.5,-214.75 998.5,-192.75 906.25,-192.75"/>
<text text-anchor="start" x="909.25" y="-200.05" font-family="Helvetica,sans-Serif" font-size="11.00">varchar[255]</text>
<polygon fill="#ffffff" stroke="none" points="743.25,-170.75 743.25,-192.75 906.25,-192.75 906.25,-170.75 743.25,-170.75"/>
<polygon fill="none" stroke="black" points="743.25,-170.75 743.25,-192.75 906.25,-192.75 906.25,-170.75 743.25,-170.75"/>
<image xlink:href="../../images/foreignKeys.png" width="11px" height="12px" preserveAspectRatio="xMinYMin meet" x="748.25" y="-187.75"/>
<text text-anchor="start" x="763.25" y="-177.3" font-family="Helvetica,sans-Serif" font-size="11.00">format_configuration</text>
<polygon fill="none" stroke="black" points="906.25,-170.75 906.25,-192.75 998.5,-192.75 998.5,-170.75 906.25,-170.75"/>
<text text-anchor="start" x="909.25" y="-178.05" font-family="Helvetica,sans-Serif" font-size="11.00">varchar[191]</text>
<polygon fill="#ffffff" stroke="none" points="743.25,-151.25 743.25,-170.75 830.75,-170.75 830.75,-151.25 743.25,-151.25"/>
<polygon fill="none" stroke="black" points="743.25,-151.25 743.25,-170.75 830.75,-170.75 830.75,-151.25 743.25,-151.25"/>
<text text-anchor="start" x="746.25" y="-157.3" font-family="Helvetica,sans-Serif" font-size="11.00">&lt; 2</text>
<polygon fill="#ffffff" stroke="none" points="830.75,-151.25 830.75,-170.75 906.25,-170.75 906.25,-151.25 830.75,-151.25"/>
<polygon fill="none" stroke="black" points="830.75,-151.25 830.75,-170.75 906.25,-170.75 906.25,-151.25 830.75,-151.25"/>
<text text-anchor="start" x="895.75" y="-157.3" font-family="Helvetica,sans-Serif" font-size="11.00"> &#160;</text>
<polygon fill="#ffffff" stroke="none" points="906.25,-151.25 906.25,-170.75 998.5,-170.75 998.5,-151.25 906.25,-151.25"/>
<polygon fill="none" stroke="black" points="906.25,-151.25 906.25,-170.75 998.5,-170.75 998.5,-151.25 906.25,-151.25"/>
<text text-anchor="start" x="976" y="-157.3" font-family="Helvetica,sans-Serif" font-size="11.00">0 &gt;</text>
<polygon fill="none" stroke="black" stroke-width="2" points="742.25,-150.25 742.25,-723.25 1004,-723.25 1004,-150.25 742.25,-150.25"/>
</a>
</g>
</g>
<!-- sto_stored_file&#45;&gt;doc_page -->
<g id="edge13" class="edge">
<title>sto_stored_file:w&#45;&gt;doc_page:e</title>
<path fill="none" stroke="black" d="M726.69,-557.5C641.92,-578.51 738.59,-781.5 632.88,-781.5"/>
<polygon fill="black" stroke="black" points="733.97,-556.68 742.32,-559.36 738.28,-556.2 741.59,-555.82 741.59,-555.82 741.59,-555.82 738.28,-556.2 741.51,-552.21 733.97,-556.68"/>
<ellipse fill="none" stroke="black" cx="729.08" cy="-557.23" rx="3.2" ry="3.2"/>
</g>
<!-- sto_stored_file&#45;&gt;conf_views_format_configuration -->
<g id="edge12" class="edge">
<title>sto_stored_file:w&#45;&gt;conf_views_format_configuration:e</title>
<path fill="none" stroke="black" d="M727.61,-176.57C715.75,-166.34 714.19,-144.5 693.25,-144.5"/>
<polygon fill="black" stroke="black" points="734.39,-178.97 740.73,-185.03 738.48,-180.42 741.62,-181.53 741.62,-181.53 741.62,-181.53 738.48,-180.42 743.14,-178.24 734.39,-178.97"/>
<ellipse fill="none" stroke="black" cx="729.76" cy="-177.33" rx="3.2" ry="3.2"/>
</g>
</g>
</svg>
