<?xml version="1.0" encoding="UTF-8" standalone="no"?>
<!DOCTYPE svg PUBLIC "-//W3C//DTD SVG 1.1//EN"
 "http://www.w3.org/Graphics/SVG/1.1/DTD/svg11.dtd">
<!-- Generated by graphviz version 12.2.0 (0)
 -->
<!-- Title: twoDegreesRelationshipsDiagram Pages: 1 -->
<svg width="1137pt" height="462pt"
 viewBox="0.00 0.00 1136.50 462.07" xmlns="http://www.w3.org/2000/svg" xmlns:xlink="http://www.w3.org/1999/xlink">
<g id="graph0" class="graph" transform="scale(1 1) rotate(0) translate(4 458.07)">
<title>twoDegreesRelationshipsDiagram</title>
<polygon fill="#ffffff" stroke="none" points="-4,4 -4,-458.07 1132.5,-458.07 1132.5,4 -4,4"/>
<text text-anchor="middle" x="79.25" y="-7.05" font-family="Helvetica,sans-Serif" font-size="11.00">Generated by SchemaSpy</text>
<!-- lib_library -->
<g id="node1" class="node">
<title>lib_library</title>
<g id="a_node1"><a xlink:href="../../tables/lib_library.html" xlink:title="lib_library" target="_top">
<polygon fill="#ffffff" stroke="none" points="276,-296.57 276,-359.07 389.75,-359.07 389.75,-296.57 276,-296.57"/>
<polygon fill="#f5f5f5" stroke="none" points="276,-335.57 276,-359.07 389.75,-359.07 389.75,-335.57 276,-335.57"/>
<polygon fill="none" stroke="black" points="276,-335.57 276,-359.07 389.75,-359.07 389.75,-335.57 276,-335.57"/>
<text text-anchor="start" x="281" y="-344.62" font-family="Helvetica,sans-Serif" font-weight="bold" font-size="11.00">lib_library</text>
<text text-anchor="start" x="348" y="-343.62" font-family="Helvetica,sans-Serif" font-size="11.00">[table]</text>
<polygon fill="none" stroke="black" points="276,-316.07 276,-335.57 389.75,-335.57 389.75,-316.07 276,-316.07"/>
<text text-anchor="start" x="279" y="-322.12" font-family="Helvetica,sans-Serif" font-size="11.00">...</text>
<polygon fill="#ffffff" stroke="none" points="276,-296.57 276,-316.07 315.67,-316.07 315.67,-296.57 276,-296.57"/>
<polygon fill="none" stroke="black" points="276,-296.57 276,-316.07 315.67,-316.07 315.67,-296.57 276,-296.57"/>
<text text-anchor="start" x="279" y="-302.62" font-family="Helvetica,sans-Serif" font-size="11.00">&lt; 6</text>
<polygon fill="#ffffff" stroke="none" points="315.67,-296.57 315.67,-316.07 343.33,-316.07 343.33,-296.57 315.67,-296.57"/>
<polygon fill="none" stroke="black" points="315.67,-296.57 315.67,-316.07 343.33,-316.07 343.33,-296.57 315.67,-296.57"/>
<text text-anchor="start" x="332.83" y="-302.62" font-family="Helvetica,sans-Serif" font-size="11.00"> &#160;</text>
<polygon fill="#ffffff" stroke="none" points="343.33,-296.57 343.33,-316.07 389.75,-316.07 389.75,-296.57 343.33,-296.57"/>
<polygon fill="none" stroke="black" points="343.33,-296.57 343.33,-316.07 389.75,-316.07 389.75,-296.57 343.33,-296.57"/>
<text text-anchor="start" x="360.5" y="-302.62" font-family="Helvetica,sans-Serif" font-size="11.00">27 &gt;</text>
</a>
</g>
</g>
<!-- user_address -->
<g id="node2" class="node">
<title>user_address</title>
<g id="a_node2"><a xlink:href="../../tables/user_address.html" xlink:title="user_address" target="_top">
<polygon fill="#ffffff" stroke="none" points="8,-144.57 8,-207.07 143.75,-207.07 143.75,-144.57 8,-144.57"/>
<polygon fill="#f5f5f5" stroke="none" points="8,-183.57 8,-207.07 143.75,-207.07 143.75,-183.57 8,-183.57"/>
<polygon fill="none" stroke="black" points="8,-183.57 8,-207.07 143.75,-207.07 143.75,-183.57 8,-183.57"/>
<text text-anchor="start" x="13" y="-192.62" font-family="Helvetica,sans-Serif" font-weight="bold" font-size="11.00">user_address</text>
<text text-anchor="start" x="102" y="-191.62" font-family="Helvetica,sans-Serif" font-size="11.00">[table]</text>
<polygon fill="none" stroke="black" points="8,-164.07 8,-183.57 143.75,-183.57 143.75,-164.07 8,-164.07"/>
<text text-anchor="start" x="11" y="-170.12" font-family="Helvetica,sans-Serif" font-size="11.00">...</text>
<polygon fill="#ffffff" stroke="none" points="8,-144.57 8,-164.07 49.25,-164.07 49.25,-144.57 8,-144.57"/>
<polygon fill="none" stroke="black" points="8,-144.57 8,-164.07 49.25,-164.07 49.25,-144.57 8,-144.57"/>
<text text-anchor="start" x="11" y="-150.62" font-family="Helvetica,sans-Serif" font-size="11.00"> &#160;</text>
<polygon fill="#ffffff" stroke="none" points="49.25,-144.57 49.25,-164.07 90.5,-164.07 90.5,-144.57 49.25,-144.57"/>
<polygon fill="none" stroke="black" points="49.25,-144.57 49.25,-164.07 90.5,-164.07 90.5,-144.57 49.25,-144.57"/>
<text text-anchor="start" x="80" y="-150.62" font-family="Helvetica,sans-Serif" font-size="11.00"> &#160;</text>
<polygon fill="#ffffff" stroke="none" points="90.5,-144.57 90.5,-164.07 143.75,-164.07 143.75,-144.57 90.5,-144.57"/>
<polygon fill="none" stroke="black" points="90.5,-144.57 90.5,-164.07 143.75,-164.07 143.75,-144.57 90.5,-144.57"/>
<text text-anchor="start" x="121.25" y="-150.62" font-family="Helvetica,sans-Serif" font-size="11.00">2 &gt;</text>
</a>
</g>
</g>
<!-- lib_library&#45;&gt;user_address -->
<g id="edge1" class="edge">
<title>lib_library:w&#45;&gt;user_address:e</title>
<path fill="none" stroke="black" d="M259.31,-325.4C226.64,-323.4 210.75,-313.83 184.75,-285.82 148.79,-247.09 197.61,-173.82 144.75,-173.82"/>
<polygon fill="black" stroke="black" points="266.67,-325.6 274.57,-329.41 271,-325.72 274.33,-325.81 274.33,-325.81 274.33,-325.81 271,-325.72 274.76,-322.22 266.67,-325.6"/>
<ellipse fill="none" stroke="black" cx="261.75" cy="-325.46" rx="3.2" ry="3.2"/>
</g>
<!-- user_role -->
<g id="node3" class="node">
<title>user_role</title>
<g id="a_node3"><a xlink:href="../../tables/user_role.html" xlink:title="user_role" target="_top">
<polygon fill="#ffffff" stroke="none" points="21.5,-324.57 21.5,-387.07 130.25,-387.07 130.25,-324.57 21.5,-324.57"/>
<polygon fill="#f5f5f5" stroke="none" points="21.5,-363.57 21.5,-387.07 130.25,-387.07 130.25,-363.57 21.5,-363.57"/>
<polygon fill="none" stroke="black" points="21.5,-363.57 21.5,-387.07 130.25,-387.07 130.25,-363.57 21.5,-363.57"/>
<text text-anchor="start" x="26.5" y="-372.62" font-family="Helvetica,sans-Serif" font-weight="bold" font-size="11.00">user_role</text>
<text text-anchor="start" x="88.5" y="-371.62" font-family="Helvetica,sans-Serif" font-size="11.00">[table]</text>
<polygon fill="none" stroke="black" points="21.5,-344.07 21.5,-363.57 130.25,-363.57 130.25,-344.07 21.5,-344.07"/>
<text text-anchor="start" x="24.5" y="-350.12" font-family="Helvetica,sans-Serif" font-size="11.00">...</text>
<polygon fill="#ffffff" stroke="none" points="21.5,-324.57 21.5,-344.07 53.75,-344.07 53.75,-324.57 21.5,-324.57"/>
<polygon fill="none" stroke="black" points="21.5,-324.57 21.5,-344.07 53.75,-344.07 53.75,-324.57 21.5,-324.57"/>
<text text-anchor="start" x="24.5" y="-330.62" font-family="Helvetica,sans-Serif" font-size="11.00"> &#160;</text>
<polygon fill="#ffffff" stroke="none" points="53.75,-324.57 53.75,-344.07 86,-344.07 86,-324.57 53.75,-324.57"/>
<polygon fill="none" stroke="black" points="53.75,-324.57 53.75,-344.07 86,-344.07 86,-324.57 53.75,-324.57"/>
<text text-anchor="start" x="75.5" y="-330.62" font-family="Helvetica,sans-Serif" font-size="11.00"> &#160;</text>
<polygon fill="#ffffff" stroke="none" points="86,-324.57 86,-344.07 130.25,-344.07 130.25,-324.57 86,-324.57"/>
<polygon fill="none" stroke="black" points="86,-324.57 86,-344.07 130.25,-344.07 130.25,-324.57 86,-324.57"/>
<text text-anchor="start" x="107.75" y="-330.62" font-family="Helvetica,sans-Serif" font-size="11.00">3 &gt;</text>
</a>
</g>
</g>
<!-- lib_library&#45;&gt;user_role -->
<g id="edge2" class="edge">
<title>lib_library:w&#45;&gt;user_role:e</title>
<path fill="none" stroke="black" d="M259.3,-326.41C207.2,-330.43 190.75,-353.82 131.25,-353.82"/>
<polygon fill="black" stroke="black" points="266.67,-326.13 274.8,-329.43 271,-325.97 274.33,-325.85 274.33,-325.85 274.33,-325.85 271,-325.97 274.53,-322.24 266.67,-326.13"/>
<ellipse fill="none" stroke="black" cx="261.76" cy="-326.32" rx="3.2" ry="3.2"/>
</g>
<!-- lot_lot -->
<g id="node4" class="node">
<title>lot_lot</title>
<g id="a_node4"><a xlink:href="../../tables/lot_lot.html" xlink:title="lot_lot" target="_top">
<polygon fill="#ffffff" stroke="none" points="994.75,-383.57 994.75,-446.07 1083.5,-446.07 1083.5,-383.57 994.75,-383.57"/>
<polygon fill="#f5f5f5" stroke="none" points="994.75,-422.57 994.75,-446.07 1083.5,-446.07 1083.5,-422.57 994.75,-422.57"/>
<polygon fill="none" stroke="black" points="994.75,-422.57 994.75,-446.07 1083.5,-446.07 1083.5,-422.57 994.75,-422.57"/>
<text text-anchor="start" x="999.62" y="-431.62" font-family="Helvetica,sans-Serif" font-weight="bold" font-size="11.00">lot_lot</text>
<text text-anchor="start" x="1041.75" y="-430.62" font-family="Helvetica,sans-Serif" font-size="11.00">[table]</text>
<polygon fill="none" stroke="black" points="994.75,-403.07 994.75,-422.57 1083.5,-422.57 1083.5,-403.07 994.75,-403.07"/>
<text text-anchor="start" x="997.75" y="-409.12" font-family="Helvetica,sans-Serif" font-size="11.00">...</text>
<polygon fill="#ffffff" stroke="none" points="994.75,-383.57 994.75,-403.07 1032.83,-403.07 1032.83,-383.57 994.75,-383.57"/>
<polygon fill="none" stroke="black" points="994.75,-383.57 994.75,-403.07 1032.83,-403.07 1032.83,-383.57 994.75,-383.57"/>
<text text-anchor="start" x="997.75" y="-389.62" font-family="Helvetica,sans-Serif" font-size="11.00">&lt; 14</text>
<polygon fill="#ffffff" stroke="none" points="1032.83,-383.57 1032.83,-403.07 1052.17,-403.07 1052.17,-383.57 1032.83,-383.57"/>
<polygon fill="none" stroke="black" points="1032.83,-383.57 1032.83,-403.07 1052.17,-403.07 1052.17,-383.57 1032.83,-383.57"/>
<text text-anchor="start" x="1041.67" y="-389.62" font-family="Helvetica,sans-Serif" font-size="11.00"> &#160;</text>
<polygon fill="#ffffff" stroke="none" points="1052.17,-383.57 1052.17,-403.07 1083.5,-403.07 1083.5,-383.57 1052.17,-383.57"/>
<polygon fill="none" stroke="black" points="1052.17,-383.57 1052.17,-403.07 1083.5,-403.07 1083.5,-383.57 1052.17,-383.57"/>
<text text-anchor="start" x="1061" y="-389.62" font-family="Helvetica,sans-Serif" font-size="11.00">4 &gt;</text>
</a>
</g>
</g>
<!-- proj_project -->
<g id="node5" class="node">
<title>proj_project</title>
<g id="a_node5"><a xlink:href="../../tables/proj_project.html" xlink:title="proj_project" target="_top">
<polygon fill="#ffffff" stroke="none" points="750.5,-355.57 750.5,-418.07 877.25,-418.07 877.25,-355.57 750.5,-355.57"/>
<polygon fill="#f5f5f5" stroke="none" points="750.5,-394.57 750.5,-418.07 877.25,-418.07 877.25,-394.57 750.5,-394.57"/>
<polygon fill="none" stroke="black" points="750.5,-394.57 750.5,-418.07 877.25,-418.07 877.25,-394.57 750.5,-394.57"/>
<text text-anchor="start" x="755.5" y="-403.62" font-family="Helvetica,sans-Serif" font-weight="bold" font-size="11.00">proj_project</text>
<text text-anchor="start" x="835.5" y="-402.62" font-family="Helvetica,sans-Serif" font-size="11.00">[table]</text>
<polygon fill="none" stroke="black" points="750.5,-375.07 750.5,-394.57 877.25,-394.57 877.25,-375.07 750.5,-375.07"/>
<text text-anchor="start" x="753.5" y="-381.12" font-family="Helvetica,sans-Serif" font-size="11.00">...</text>
<polygon fill="#ffffff" stroke="none" points="750.5,-355.57 750.5,-375.07 801.25,-375.07 801.25,-355.57 750.5,-355.57"/>
<polygon fill="none" stroke="black" points="750.5,-355.57 750.5,-375.07 801.25,-375.07 801.25,-355.57 750.5,-355.57"/>
<text text-anchor="start" x="753.5" y="-361.62" font-family="Helvetica,sans-Serif" font-size="11.00">&lt; 13</text>
<polygon fill="#ffffff" stroke="none" points="801.25,-355.57 801.25,-375.07 833.25,-375.07 833.25,-355.57 801.25,-355.57"/>
<polygon fill="none" stroke="black" points="801.25,-355.57 801.25,-375.07 833.25,-375.07 833.25,-355.57 801.25,-355.57"/>
<text text-anchor="start" x="822.75" y="-361.62" font-family="Helvetica,sans-Serif" font-size="11.00"> &#160;</text>
<polygon fill="#ffffff" stroke="none" points="833.25,-355.57 833.25,-375.07 877.25,-375.07 877.25,-355.57 833.25,-355.57"/>
<polygon fill="none" stroke="black" points="833.25,-355.57 833.25,-375.07 877.25,-375.07 877.25,-355.57 833.25,-355.57"/>
<text text-anchor="start" x="854.75" y="-361.62" font-family="Helvetica,sans-Serif" font-size="11.00">7 &gt;</text>
</a>
</g>
</g>
<!-- lot_lot&#45;&gt;proj_project -->
<g id="edge3" class="edge">
<title>lot_lot:w&#45;&gt;proj_project:e</title>
<path fill="none" stroke="black" d="M978.11,-411.92C938.32,-407.13 925.4,-384.82 878.25,-384.82"/>
<polygon fill="black" stroke="black" points="985.43,-412.35 993.21,-416.4 989.76,-412.59 993.08,-412.79 993.08,-412.79 993.08,-412.79 989.76,-412.59 993.62,-409.21 985.43,-412.35"/>
<ellipse fill="none" stroke="black" cx="980.52" cy="-412.06" rx="3.2" ry="3.2"/>
</g>
<!-- user_user -->
<g id="node6" class="node">
<title>user_user</title>
<g id="a_node6"><a xlink:href="../../tables/user_user.html" xlink:title="user_user" target="_top">
<polygon fill="#ffffff" stroke="none" points="522,-166.57 522,-361.07 670,-361.07 670,-166.57 522,-166.57"/>
<polygon fill="#f5f5f5" stroke="none" points="522,-337.57 522,-361.07 670,-361.07 670,-337.57 522,-337.57"/>
<polygon fill="none" stroke="black" points="522,-337.57 522,-361.07 670,-361.07 670,-337.57 522,-337.57"/>
<text text-anchor="start" x="527" y="-346.62" font-family="Helvetica,sans-Serif" font-weight="bold" font-size="11.00">user_user</text>
<text text-anchor="start" x="628.25" y="-345.62" font-family="Helvetica,sans-Serif" font-size="11.00">[table]</text>
<polygon fill="none" stroke="black" points="522,-315.57 522,-337.57 670,-337.57 670,-315.57 522,-315.57"/>
<image xlink:href="../../images/primaryKeys.png" width="11px" height="12px" preserveAspectRatio="xMinYMin meet" x="527" y="-332.574"/>
<text text-anchor="start" x="542" y="-322.12" font-family="Helvetica,sans-Serif" font-size="11.00">identifier</text>
<polygon fill="#ffffff" stroke="none" points="522,-293.57 522,-315.57 670,-315.57 670,-293.57 522,-293.57"/>
<polygon fill="none" stroke="black" points="522,-293.57 522,-315.57 670,-315.57 670,-293.57 522,-293.57"/>
<text text-anchor="start" x="542" y="-300.12" font-family="Helvetica,sans-Serif" font-size="11.00">login</text>
<polygon fill="#ffffff" stroke="none" points="522,-271.57 522,-293.57 670,-293.57 670,-271.57 522,-271.57"/>
<polygon fill="none" stroke="black" points="522,-271.57 522,-293.57 670,-293.57 670,-271.57 522,-271.57"/>
<image xlink:href="../../images/foreignKeys.png" width="11px" height="12px" preserveAspectRatio="xMinYMin meet" x="527" y="-288.574"/>
<text text-anchor="start" x="542" y="-278.12" font-family="Helvetica,sans-Serif" font-size="11.00">role</text>
<polygon fill="#ffffff" stroke="none" points="522,-249.57 522,-271.57 670,-271.57 670,-249.57 522,-249.57"/>
<polygon fill="none" stroke="black" points="522,-249.57 522,-271.57 670,-271.57 670,-249.57 522,-249.57"/>
<image xlink:href="../../images/foreignKeys.png" width="11px" height="12px" preserveAspectRatio="xMinYMin meet" x="527" y="-266.574"/>
<text text-anchor="start" x="542" y="-256.12" font-family="Helvetica,sans-Serif" font-size="11.00">library</text>
<polygon fill="#ffffff" stroke="none" points="522,-227.57 522,-249.57 670,-249.57 670,-227.57 522,-227.57"/>
<polygon fill="none" stroke="black" points="522,-227.57 522,-249.57 670,-249.57 670,-227.57 522,-227.57"/>
<image xlink:href="../../images/foreignKeys.png" width="11px" height="12px" preserveAspectRatio="xMinYMin meet" x="527" y="-244.574"/>
<text text-anchor="start" x="542" y="-234.12" font-family="Helvetica,sans-Serif" font-size="11.00">dashboard</text>
<polygon fill="#ffffff" stroke="none" points="522,-205.57 522,-227.57 670,-227.57 670,-205.57 522,-205.57"/>
<polygon fill="none" stroke="black" points="522,-205.57 522,-227.57 670,-227.57 670,-205.57 522,-205.57"/>
<image xlink:href="../../images/foreignKeys.png" width="11px" height="12px" preserveAspectRatio="xMinYMin meet" x="527" y="-222.574"/>
<text text-anchor="start" x="542" y="-212.12" font-family="Helvetica,sans-Serif" font-size="11.00">address</text>
<polygon fill="none" stroke="black" points="522,-186.07 522,-205.57 670,-205.57 670,-186.07 522,-186.07"/>
<text text-anchor="start" x="525" y="-192.12" font-family="Helvetica,sans-Serif" font-size="11.00">...</text>
<polygon fill="#ffffff" stroke="none" points="522,-166.57 522,-186.07 575.33,-186.07 575.33,-166.57 522,-166.57"/>
<polygon fill="none" stroke="black" points="522,-166.57 522,-186.07 575.33,-186.07 575.33,-166.57 522,-166.57"/>
<text text-anchor="start" x="525" y="-172.62" font-family="Helvetica,sans-Serif" font-size="11.00">&lt; 4</text>
<polygon fill="#ffffff" stroke="none" points="575.33,-166.57 575.33,-186.07 616.67,-186.07 616.67,-166.57 575.33,-166.57"/>
<polygon fill="none" stroke="black" points="575.33,-166.57 575.33,-186.07 616.67,-186.07 616.67,-166.57 575.33,-166.57"/>
<text text-anchor="start" x="606.17" y="-172.62" font-family="Helvetica,sans-Serif" font-size="11.00"> &#160;</text>
<polygon fill="#ffffff" stroke="none" points="616.67,-166.57 616.67,-186.07 670,-186.07 670,-166.57 616.67,-166.57"/>
<polygon fill="none" stroke="black" points="616.67,-166.57 616.67,-186.07 670,-186.07 670,-166.57 616.67,-166.57"/>
<text text-anchor="start" x="647.5" y="-172.62" font-family="Helvetica,sans-Serif" font-size="11.00">4 &gt;</text>
</a>
</g>
</g>
<!-- lot_lot&#45;&gt;user_user -->
<g id="edge4" class="edge">
<title>lot_lot:w&#45;&gt;user_user:e</title>
<path fill="none" stroke="black" d="M978.22,-413.78C955.58,-416.75 945.68,-425.85 916.75,-428.82 825.78,-438.18 786.53,-480.38 711,-428.82 670.7,-401.31 719.8,-326.57 671,-326.57"/>
<polygon fill="black" stroke="black" points="985.43,-413.33 993.64,-416.44 989.76,-413.07 993.08,-412.87 993.08,-412.87 993.08,-412.87 989.76,-413.07 993.2,-409.25 985.43,-413.33"/>
<ellipse fill="none" stroke="black" cx="980.52" cy="-413.63" rx="3.2" ry="3.2"/>
</g>
<!-- proj_project&#45;&gt;lib_library -->
<g id="edge5" class="edge">
<title>proj_project:w&#45;&gt;lib_library:e</title>
<path fill="none" stroke="black" d="M733.82,-384.89C641.57,-385.62 611.3,-392.17 514,-371.82 456.77,-359.85 449.22,-325.82 390.75,-325.82"/>
<polygon fill="black" stroke="black" points="741.17,-384.86 749.18,-388.43 745.5,-384.84 748.83,-384.83 748.83,-384.83 748.83,-384.83 745.5,-384.84 749.15,-381.23 741.17,-384.86"/>
<ellipse fill="none" stroke="black" cx="736.25" cy="-384.88" rx="3.2" ry="3.2"/>
</g>
<!-- proj_project&#45;&gt;user_user -->
<g id="edge6" class="edge">
<title>proj_project:w&#45;&gt;user_user:e</title>
<path fill="none" stroke="black" d="M734.32,-381.86C707.38,-369.99 708.51,-326.57 671,-326.57"/>
<polygon fill="black" stroke="black" points="741.32,-383.22 748.48,-388.29 745.57,-384.06 748.84,-384.7 748.84,-384.7 748.84,-384.7 745.57,-384.06 749.86,-381.23 741.32,-383.22"/>
<ellipse fill="none" stroke="black" cx="736.49" cy="-382.28" rx="3.2" ry="3.2"/>
</g>
<!-- user_user&#45;&gt;lib_library -->
<g id="edge11" class="edge">
<title>user_user:w&#45;&gt;lib_library:e</title>
<path fill="none" stroke="black" d="M505.86,-264.62C497.84,-269.85 493.61,-279.1 481,-285.82 442.29,-306.48 434.62,-325.82 390.75,-325.82"/>
<polygon fill="black" stroke="black" points="512.95,-262.72 521.61,-264.14 517.14,-261.61 520.35,-260.75 520.35,-260.75 520.35,-260.75 517.14,-261.61 519.75,-257.18 512.95,-262.72"/>
<ellipse fill="none" stroke="black" cx="508.2" cy="-263.99" rx="3.2" ry="3.2"/>
</g>
<!-- user_user&#45;&gt;user_address -->
<g id="edge9" class="edge">
<title>user_user:w&#45;&gt;user_address:e</title>
<path fill="none" stroke="black" d="M505.39,-213.93C465.37,-196.97 531.45,-102.77 481,-63.82 428.89,-23.6 238.67,-26.06 184.75,-63.82 142.14,-93.67 196.77,-173.82 144.75,-173.82"/>
<polygon fill="black" stroke="black" points="512.78,-215.18 520.07,-220.07 517.06,-215.91 520.34,-216.46 520.34,-216.46 520.34,-216.46 517.06,-215.91 521.27,-212.97 512.78,-215.18"/>
<ellipse fill="none" stroke="black" cx="507.93" cy="-214.36" rx="3.2" ry="3.2"/>
</g>
<!-- user_user&#45;&gt;user_role -->
<g id="edge12" class="edge">
<title>user_user:w&#45;&gt;user_role:e</title>
<path fill="none" stroke="black" d="M506.36,-286.88C488.57,-301.64 511.29,-350.39 481,-369.82 370.18,-440.93 315.03,-388.89 184.75,-369.82 160.19,-366.23 156.07,-353.82 131.25,-353.82"/>
<polygon fill="black" stroke="black" points="513,-284.92 521.69,-286.12 517.16,-283.7 520.36,-282.76 520.36,-282.76 520.36,-282.76 517.16,-283.7 519.66,-279.21 513,-284.92"/>
<ellipse fill="none" stroke="black" cx="508.28" cy="-286.31" rx="3.2" ry="3.2"/>
</g>
<!-- user_dashboard -->
<g id="node8" class="node">
<title>user_dashboard</title>
<g id="a_node8"><a xlink:href="../../tables/user_dashboard.html" xlink:title="user_dashboard" target="_top">
<polygon fill="#ffffff" stroke="none" points="192.75,-74.32 192.75,-275.32 473,-275.32 473,-74.32 192.75,-74.32"/>
<polygon fill="#f5f5f5" stroke="none" points="194.75,-249.82 194.75,-273.32 471,-273.32 471,-249.82 194.75,-249.82"/>
<polygon fill="none" stroke="black" points="194.75,-249.82 194.75,-273.32 471,-273.32 471,-249.82 194.75,-249.82"/>
<text text-anchor="start" x="199.75" y="-258.87" font-family="Helvetica,sans-Serif" font-weight="bold" font-size="11.00">user_dashboard</text>
<text text-anchor="start" x="429.25" y="-257.87" font-family="Helvetica,sans-Serif" font-size="11.00">[table]</text>
<polygon fill="none" stroke="black" points="194.75,-227.82 194.75,-249.82 342.75,-249.82 342.75,-227.82 194.75,-227.82"/>
<image xlink:href="../../images/primaryKeys.png" width="11px" height="12px" preserveAspectRatio="xMinYMin meet" x="199.75" y="-244.824"/>
<text text-anchor="start" x="214.75" y="-234.37" font-family="Helvetica,sans-Serif" font-size="11.00">identifier</text>
<polygon fill="none" stroke="black" points="342.75,-227.82 342.75,-249.82 471,-249.82 471,-227.82 342.75,-227.82"/>
<text text-anchor="start" x="345.75" y="-235.12" font-family="Helvetica,sans-Serif" font-size="11.00">varchar[191]</text>
<polygon fill="none" stroke="black" points="194.75,-205.82 194.75,-227.82 342.75,-227.82 342.75,-205.82 194.75,-205.82"/>
<text text-anchor="start" x="214.75" y="-212.37" font-family="Helvetica,sans-Serif" font-size="11.00">version</text>
<polygon fill="none" stroke="black" points="342.75,-205.82 342.75,-227.82 471,-227.82 471,-205.82 342.75,-205.82"/>
<text text-anchor="start" x="345.75" y="-213.12" font-family="Helvetica,sans-Serif" font-size="11.00">bigint[19]</text>
<polygon fill="none" stroke="black" points="194.75,-183.82 194.75,-205.82 342.75,-205.82 342.75,-183.82 194.75,-183.82"/>
<text text-anchor="start" x="214.75" y="-190.37" font-family="Helvetica,sans-Serif" font-size="11.00">created_by</text>
<polygon fill="none" stroke="black" points="342.75,-183.82 342.75,-205.82 471,-205.82 471,-183.82 342.75,-183.82"/>
<text text-anchor="start" x="345.75" y="-191.12" font-family="Helvetica,sans-Serif" font-size="11.00">varchar[191]</text>
<polygon fill="none" stroke="black" points="194.75,-161.82 194.75,-183.82 342.75,-183.82 342.75,-161.82 194.75,-161.82"/>
<text text-anchor="start" x="214.75" y="-168.37" font-family="Helvetica,sans-Serif" font-size="11.00">last_modified_by</text>
<polygon fill="none" stroke="black" points="342.75,-161.82 342.75,-183.82 471,-183.82 471,-161.82 342.75,-161.82"/>
<text text-anchor="start" x="345.75" y="-169.12" font-family="Helvetica,sans-Serif" font-size="11.00">varchar[191]</text>
<polygon fill="none" stroke="black" points="194.75,-139.82 194.75,-161.82 342.75,-161.82 342.75,-139.82 194.75,-139.82"/>
<text text-anchor="start" x="214.75" y="-146.37" font-family="Helvetica,sans-Serif" font-size="11.00">created_date</text>
<polygon fill="none" stroke="black" points="342.75,-139.82 342.75,-161.82 471,-161.82 471,-139.82 342.75,-139.82"/>
<text text-anchor="start" x="345.75" y="-147.12" font-family="Helvetica,sans-Serif" font-size="11.00">timestamp[19]</text>
<polygon fill="none" stroke="black" points="194.75,-117.82 194.75,-139.82 342.75,-139.82 342.75,-117.82 194.75,-117.82"/>
<text text-anchor="start" x="214.75" y="-124.37" font-family="Helvetica,sans-Serif" font-size="11.00">last_modified_date</text>
<polygon fill="none" stroke="black" points="342.75,-117.82 342.75,-139.82 471,-139.82 471,-117.82 342.75,-117.82"/>
<text text-anchor="start" x="345.75" y="-125.12" font-family="Helvetica,sans-Serif" font-size="11.00">timestamp[19]</text>
<polygon fill="none" stroke="black" points="194.75,-95.82 194.75,-117.82 342.75,-117.82 342.75,-95.82 194.75,-95.82"/>
<text text-anchor="start" x="214.75" y="-102.37" font-family="Helvetica,sans-Serif" font-size="11.00">dashboard</text>
<polygon fill="none" stroke="black" points="342.75,-95.82 342.75,-117.82 471,-117.82 471,-95.82 342.75,-95.82"/>
<text text-anchor="start" x="345.75" y="-103.12" font-family="Helvetica,sans-Serif" font-size="11.00">longtext[2147483647]</text>
<polygon fill="#ffffff" stroke="none" points="194.75,-76.32 194.75,-95.82 274.75,-95.82 274.75,-76.32 194.75,-76.32"/>
<polygon fill="none" stroke="black" points="194.75,-76.32 194.75,-95.82 274.75,-95.82 274.75,-76.32 194.75,-76.32"/>
<text text-anchor="start" x="197.75" y="-82.37" font-family="Helvetica,sans-Serif" font-size="11.00">&lt; 0</text>
<polygon fill="#ffffff" stroke="none" points="274.75,-76.32 274.75,-95.82 342.75,-95.82 342.75,-76.32 274.75,-76.32"/>
<polygon fill="none" stroke="black" points="274.75,-76.32 274.75,-95.82 342.75,-95.82 342.75,-76.32 274.75,-76.32"/>
<text text-anchor="start" x="332.25" y="-82.37" font-family="Helvetica,sans-Serif" font-size="11.00"> &#160;</text>
<polygon fill="#ffffff" stroke="none" points="342.75,-76.32 342.75,-95.82 471,-95.82 471,-76.32 342.75,-76.32"/>
<polygon fill="none" stroke="black" points="342.75,-76.32 342.75,-95.82 471,-95.82 471,-76.32 342.75,-76.32"/>
<text text-anchor="start" x="448.5" y="-82.37" font-family="Helvetica,sans-Serif" font-size="11.00">1 &gt;</text>
<polygon fill="none" stroke="black" stroke-width="2" points="193.75,-75.32 193.75,-274.32 472,-274.32 472,-75.32 193.75,-75.32"/>
</a>
</g>
</g>
<!-- user_user&#45;&gt;user_dashboard -->
<g id="edge10" class="edge">
<title>user_user:w&#45;&gt;user_dashboard:e</title>
<path fill="none" stroke="black" d="M505.42,-238.62C494.71,-238.7 487.48,-238.82 472,-238.82"/>
<polygon fill="black" stroke="black" points="512.67,-238.6 520.68,-242.18 517,-238.59 520.33,-238.58 520.33,-238.58 520.33,-238.58 517,-238.59 520.65,-234.98 512.67,-238.6"/>
<ellipse fill="none" stroke="black" cx="507.75" cy="-238.62" rx="3.2" ry="3.2"/>
</g>
<!-- proj_project_user -->
<g id="node7" class="node">
<title>proj_project_user</title>
<g id="a_node7"><a xlink:href="../../tables/proj_project_user.html" xlink:title="proj_project_user" target="_top">
<polygon fill="#ffffff" stroke="none" points="957.75,-273.57 957.75,-336.07 1120.5,-336.07 1120.5,-273.57 957.75,-273.57"/>
<polygon fill="#f5f5f5" stroke="none" points="957.75,-312.57 957.75,-336.07 1120.5,-336.07 1120.5,-312.57 957.75,-312.57"/>
<polygon fill="none" stroke="black" points="957.75,-312.57 957.75,-336.07 1120.5,-336.07 1120.5,-312.57 957.75,-312.57"/>
<text text-anchor="start" x="962.75" y="-321.62" font-family="Helvetica,sans-Serif" font-weight="bold" font-size="11.00">proj_project_user</text>
<text text-anchor="start" x="1078.75" y="-320.62" font-family="Helvetica,sans-Serif" font-size="11.00">[table]</text>
<polygon fill="none" stroke="black" points="957.75,-293.07 957.75,-312.57 1120.5,-312.57 1120.5,-293.07 957.75,-293.07"/>
<text text-anchor="start" x="960.75" y="-299.12" font-family="Helvetica,sans-Serif" font-size="11.00">...</text>
<polygon fill="#ffffff" stroke="none" points="957.75,-273.57 957.75,-293.07 1020,-293.07 1020,-273.57 957.75,-273.57"/>
<polygon fill="none" stroke="black" points="957.75,-273.57 957.75,-293.07 1020,-293.07 1020,-273.57 957.75,-273.57"/>
<text text-anchor="start" x="960.75" y="-279.62" font-family="Helvetica,sans-Serif" font-size="11.00">&lt; 2</text>
<polygon fill="#ffffff" stroke="none" points="1020,-273.57 1020,-293.07 1070.25,-293.07 1070.25,-273.57 1020,-273.57"/>
<polygon fill="none" stroke="black" points="1020,-273.57 1020,-293.07 1070.25,-293.07 1070.25,-273.57 1020,-273.57"/>
<text text-anchor="start" x="1059.75" y="-279.62" font-family="Helvetica,sans-Serif" font-size="11.00"> &#160;</text>
<polygon fill="#ffffff" stroke="none" points="1070.25,-273.57 1070.25,-293.07 1120.5,-293.07 1120.5,-273.57 1070.25,-273.57"/>
<polygon fill="none" stroke="black" points="1070.25,-273.57 1070.25,-293.07 1120.5,-293.07 1120.5,-273.57 1070.25,-273.57"/>
<text text-anchor="start" x="1110" y="-279.62" font-family="Helvetica,sans-Serif" font-size="11.00"> &#160;</text>
</a>
</g>
</g>
<!-- proj_project_user&#45;&gt;proj_project -->
<g id="edge8" class="edge">
<title>proj_project_user:w&#45;&gt;proj_project:e</title>
<path fill="none" stroke="black" d="M941.37,-306.14C910.66,-321.48 922.59,-384.82 878.25,-384.82"/>
<polygon fill="black" stroke="black" points="948.6,-304.58 957.18,-306.41 952.84,-303.67 956.1,-302.97 956.1,-302.97 956.1,-302.97 952.84,-303.67 955.66,-299.38 948.6,-304.58"/>
<ellipse fill="none" stroke="black" cx="943.79" cy="-305.62" rx="3.2" ry="3.2"/>
</g>
<!-- proj_project_user&#45;&gt;user_user -->
<g id="edge7" class="edge">
<title>proj_project_user:w&#45;&gt;user_user:e</title>
<path fill="none" stroke="black" d="M942.11,-296.78C933.67,-287.03 933.96,-268.2 916.75,-260.82 832.7,-224.8 790.71,-216.01 711,-260.82 681.18,-277.59 705.21,-326.57 671,-326.57"/>
<polygon fill="black" stroke="black" points="949.05,-299.64 955.07,-306.02 953.05,-301.3 956.13,-302.57 956.13,-302.57 956.13,-302.57 953.05,-301.3 957.82,-299.37 949.05,-299.64"/>
<ellipse fill="none" stroke="black" cx="944.5" cy="-297.76" rx="3.2" ry="3.2"/>
</g>
<!-- workflow_group_user -->
<g id="node9" class="node">
<title>workflow_group_user</title>
<g id="a_node9"><a xlink:href="../../tables/workflow_group_user.html" xlink:title="workflow_group_user" target="_top">
<polygon fill="#ffffff" stroke="none" points="719,-271.57 719,-334.07 908.75,-334.07 908.75,-271.57 719,-271.57"/>
<polygon fill="#f5f5f5" stroke="none" points="719,-310.57 719,-334.07 908.75,-334.07 908.75,-310.57 719,-310.57"/>
<polygon fill="none" stroke="black" points="719,-310.57 719,-334.07 908.75,-334.07 908.75,-310.57 719,-310.57"/>
<text text-anchor="start" x="724" y="-319.62" font-family="Helvetica,sans-Serif" font-weight="bold" font-size="11.00">workflow_group_user</text>
<text text-anchor="start" x="867" y="-318.62" font-family="Helvetica,sans-Serif" font-size="11.00">[table]</text>
<polygon fill="none" stroke="black" points="719,-291.07 719,-310.57 908.75,-310.57 908.75,-291.07 719,-291.07"/>
<text text-anchor="start" x="722" y="-297.12" font-family="Helvetica,sans-Serif" font-size="11.00">...</text>
<polygon fill="#ffffff" stroke="none" points="719,-271.57 719,-291.07 790.25,-291.07 790.25,-271.57 719,-271.57"/>
<polygon fill="none" stroke="black" points="719,-271.57 719,-291.07 790.25,-291.07 790.25,-271.57 719,-271.57"/>
<text text-anchor="start" x="722" y="-277.62" font-family="Helvetica,sans-Serif" font-size="11.00">&lt; 2</text>
<polygon fill="#ffffff" stroke="none" points="790.25,-271.57 790.25,-291.07 849.5,-291.07 849.5,-271.57 790.25,-271.57"/>
<polygon fill="none" stroke="black" points="790.25,-271.57 790.25,-291.07 849.5,-291.07 849.5,-271.57 790.25,-271.57"/>
<text text-anchor="start" x="839" y="-277.62" font-family="Helvetica,sans-Serif" font-size="11.00"> &#160;</text>
<polygon fill="#ffffff" stroke="none" points="849.5,-271.57 849.5,-291.07 908.75,-291.07 908.75,-271.57 849.5,-271.57"/>
<polygon fill="none" stroke="black" points="849.5,-271.57 849.5,-291.07 908.75,-291.07 908.75,-271.57 849.5,-271.57"/>
<text text-anchor="start" x="898.25" y="-277.62" font-family="Helvetica,sans-Serif" font-size="11.00"> &#160;</text>
</a>
</g>
</g>
<!-- workflow_group_user&#45;&gt;user_user -->
<g id="edge13" class="edge">
<title>workflow_group_user:w&#45;&gt;user_user:e</title>
<path fill="none" stroke="black" d="M702.95,-305.55C692.7,-312.98 688.31,-326.57 671,-326.57"/>
<polygon fill="black" stroke="black" points="710.05,-303.32 718.76,-304.36 714.18,-302.02 717.36,-301.02 717.36,-301.02 717.36,-301.02 714.18,-302.02 716.6,-297.49 710.05,-303.32"/>
<ellipse fill="none" stroke="black" cx="705.35" cy="-304.79" rx="3.2" ry="3.2"/>
</g>
</g>
</svg>
