<?xml version="1.0" encoding="UTF-8" standalone="no"?>
<!DOCTYPE svg PUBLIC "-//W3C//DTD SVG 1.1//EN"
 "http://www.w3.org/Graphics/SVG/1.1/DTD/svg11.dtd">
<!-- Generated by graphviz version 12.2.0 (0)
 -->
<!-- Title: oneDegreeRelationshipsDiagram Pages: 1 -->
<svg width="318pt" height="230pt"
 viewBox="0.00 0.00 318.38 229.50" xmlns="http://www.w3.org/2000/svg" xmlns:xlink="http://www.w3.org/1999/xlink">
<g id="graph0" class="graph" transform="scale(1 1) rotate(0) translate(4 225.5)">
<title>oneDegreeRelationshipsDiagram</title>
<polygon fill="#ffffff" stroke="none" points="-4,4 -4,-225.5 314.38,-225.5 314.38,4 -4,4"/>
<text text-anchor="middle" x="79.25" y="-7.05" font-family="Helvetica,sans-Serif" font-size="11.00">Generated by SchemaSpy</text>
<!-- user_persistent_token -->
<g id="node1" class="node">
<title>user_persistent_token</title>
<g id="a_node1"><a xlink:href="../../tables/user_persistent_token.html" xlink:title="user_persistent_token" target="_top">
<polygon fill="#ffffff" stroke="none" points="8,-38.5 8,-217.5 302.38,-217.5 302.38,-38.5 8,-38.5"/>
<polygon fill="#f5f5f5" stroke="none" points="10,-192 10,-215.5 300.38,-215.5 300.38,-192 10,-192"/>
<polygon fill="none" stroke="black" points="10,-192 10,-215.5 300.38,-215.5 300.38,-192 10,-192"/>
<text text-anchor="start" x="15" y="-201.05" font-family="Helvetica,sans-Serif" font-weight="bold" font-size="11.00">user_persistent_token</text>
<text text-anchor="start" x="258.62" y="-200.05" font-family="Helvetica,sans-Serif" font-size="11.00">[table]</text>
<polygon fill="none" stroke="black" points="10,-170 10,-192 180,-192 180,-170 10,-170"/>
<image xlink:href="../../images/primaryKeys.png" width="11px" height="12px" preserveAspectRatio="xMinYMin meet" x="15" y="-187"/>
<text text-anchor="start" x="30" y="-176.55" font-family="Helvetica,sans-Serif" font-size="11.00">series</text>
<polygon fill="none" stroke="black" points="180,-170 180,-192 282.19,-192 282.19,-170 180,-170"/>
<text text-anchor="start" x="183" y="-177.3" font-family="Helvetica,sans-Serif" font-size="11.00">varchar[191]</text>
<polygon fill="none" stroke="black" points="10,-148 10,-170 180,-170 180,-148 10,-148"/>
<text text-anchor="start" x="30" y="-154.55" font-family="Helvetica,sans-Serif" font-size="11.00">user_identifier</text>
<polygon fill="none" stroke="black" points="180,-148 180,-170 282.19,-170 282.19,-148 180,-148"/>
<text text-anchor="start" x="183" y="-155.3" font-family="Helvetica,sans-Serif" font-size="11.00">varchar[191]</text>
<polygon fill="none" stroke="black" points="10,-126 10,-148 180,-148 180,-126 10,-126"/>
<text text-anchor="start" x="30" y="-132.55" font-family="Helvetica,sans-Serif" font-size="11.00">token_value</text>
<polygon fill="none" stroke="black" points="180,-126 180,-148 282.19,-148 282.19,-126 180,-126"/>
<text text-anchor="start" x="183" y="-133.3" font-family="Helvetica,sans-Serif" font-size="11.00">varchar[2000]</text>
<polygon fill="none" stroke="black" points="10,-104 10,-126 180,-126 180,-104 10,-104"/>
<text text-anchor="start" x="30" y="-110.55" font-family="Helvetica,sans-Serif" font-size="11.00">token_date</text>
<polygon fill="none" stroke="black" points="180,-104 180,-126 282.19,-126 282.19,-104 180,-104"/>
<text text-anchor="start" x="183" y="-111.3" font-family="Helvetica,sans-Serif" font-size="11.00">date[10]</text>
<polygon fill="none" stroke="black" points="10,-82 10,-104 180,-104 180,-82 10,-82"/>
<text text-anchor="start" x="30" y="-88.55" font-family="Helvetica,sans-Serif" font-size="11.00">ip_address</text>
<polygon fill="none" stroke="black" points="180,-82 180,-104 282.19,-104 282.19,-82 180,-82"/>
<text text-anchor="start" x="183" y="-89.3" font-family="Helvetica,sans-Serif" font-size="11.00">varchar[255]</text>
<polygon fill="none" stroke="black" points="10,-60 10,-82 180,-82 180,-60 10,-60"/>
<text text-anchor="start" x="30" y="-66.55" font-family="Helvetica,sans-Serif" font-size="11.00">user_agent</text>
<polygon fill="none" stroke="black" points="180,-60 180,-82 282.19,-82 282.19,-60 180,-60"/>
<text text-anchor="start" x="183" y="-67.3" font-family="Helvetica,sans-Serif" font-size="11.00">varchar[255]</text>
<polygon fill="#ffffff" stroke="none" points="10,-40.5 10,-60 101,-60 101,-40.5 10,-40.5"/>
<polygon fill="none" stroke="black" points="10,-40.5 10,-60 101,-60 101,-40.5 10,-40.5"/>
<text text-anchor="start" x="13" y="-46.55" font-family="Helvetica,sans-Serif" font-size="11.00">&lt; 0</text>
<polygon fill="#ffffff" stroke="none" points="101,-40.5 101,-60 180,-60 180,-40.5 101,-40.5"/>
<polygon fill="none" stroke="black" points="101,-40.5 101,-60 180,-60 180,-40.5 101,-40.5"/>
<text text-anchor="start" x="169.5" y="-46.55" font-family="Helvetica,sans-Serif" font-size="11.00"> &#160;</text>
<polygon fill="#ffffff" stroke="none" points="180,-40.5 180,-60 282.19,-60 282.19,-40.5 180,-40.5"/>
<polygon fill="none" stroke="black" points="180,-40.5 180,-60 282.19,-60 282.19,-40.5 180,-40.5"/>
<text text-anchor="start" x="259.69" y="-46.55" font-family="Helvetica,sans-Serif" font-size="11.00">0 &gt;</text>
<polygon fill="none" stroke="black" stroke-width="2" points="9,-39.5 9,-216.5 301.38,-216.5 301.38,-39.5 9,-39.5"/>
</a>
</g>
</g>
</g>
</svg>
