<?xml version="1.0" encoding="UTF-8" standalone="no"?>
<!DOCTYPE svg PUBLIC "-//W3C//DTD SVG 1.1//EN"
 "http://www.w3.org/Graphics/SVG/1.1/DTD/svg11.dtd">
<!-- Generated by graphviz version 12.2.0 (0)
 -->
<!-- Title: oneDegreeRelationshipsDiagram Pages: 1 -->
<svg width="744pt" height="402pt"
 viewBox="0.00 0.00 743.75 402.25" xmlns="http://www.w3.org/2000/svg" xmlns:xlink="http://www.w3.org/1999/xlink">
<g id="graph0" class="graph" transform="scale(1 1) rotate(0) translate(4 398.25)">
<title>oneDegreeRelationshipsDiagram</title>
<polygon fill="#ffffff" stroke="none" points="-4,4 -4,-398.25 739.75,-398.25 739.75,4 -4,4"/>
<text text-anchor="middle" x="79.25" y="-7.05" font-family="Helvetica,sans-Serif" font-size="11.00">Generated by SchemaSpy</text>
<!-- lib_library -->
<g id="node1" class="node">
<title>lib_library</title>
<g id="a_node1"><a xlink:href="../../tables/lib_library.html" xlink:title="lib_library" target="_top">
<polygon fill="#ffffff" stroke="none" points="296.75,-38.5 296.75,-255 530.75,-255 530.75,-38.5 296.75,-38.5"/>
<polygon fill="#f5f5f5" stroke="none" points="296.75,-231.5 296.75,-255 530.75,-255 530.75,-231.5 296.75,-231.5"/>
<polygon fill="none" stroke="black" points="296.75,-231.5 296.75,-255 530.75,-255 530.75,-231.5 296.75,-231.5"/>
<text text-anchor="start" x="301.75" y="-240.55" font-family="Helvetica,sans-Serif" font-weight="bold" font-size="11.00">lib_library</text>
<text text-anchor="start" x="489" y="-239.55" font-family="Helvetica,sans-Serif" font-size="11.00">[table]</text>
<polygon fill="none" stroke="black" points="296.75,-209.5 296.75,-231.5 530.75,-231.5 530.75,-209.5 296.75,-209.5"/>
<image xlink:href="../../images/primaryKeys.png" width="11px" height="12px" preserveAspectRatio="xMinYMin meet" x="301.75" y="-226.5"/>
<text text-anchor="start" x="316.75" y="-216.05" font-family="Helvetica,sans-Serif" font-size="11.00">identifier</text>
<polygon fill="#ffffff" stroke="none" points="296.75,-187.5 296.75,-209.5 530.75,-209.5 530.75,-187.5 296.75,-187.5"/>
<polygon fill="none" stroke="black" points="296.75,-187.5 296.75,-209.5 530.75,-209.5 530.75,-187.5 296.75,-187.5"/>
<image xlink:href="../../images/foreignKeys.png" width="11px" height="12px" preserveAspectRatio="xMinYMin meet" x="301.75" y="-204.5"/>
<text text-anchor="start" x="316.75" y="-194.05" font-family="Helvetica,sans-Serif" font-size="11.00">address</text>
<polygon fill="#ffffff" stroke="none" points="296.75,-165.5 296.75,-187.5 530.75,-187.5 530.75,-165.5 296.75,-165.5"/>
<polygon fill="none" stroke="black" points="296.75,-165.5 296.75,-187.5 530.75,-187.5 530.75,-165.5 296.75,-165.5"/>
<image xlink:href="../../images/foreignKeys.png" width="11px" height="12px" preserveAspectRatio="xMinYMin meet" x="301.75" y="-182.5"/>
<text text-anchor="start" x="316.75" y="-172.05" font-family="Helvetica,sans-Serif" font-size="11.00">active_configuration_ftp</text>
<polygon fill="#ffffff" stroke="none" points="296.75,-143.5 296.75,-165.5 530.75,-165.5 530.75,-143.5 296.75,-143.5"/>
<polygon fill="none" stroke="black" points="296.75,-143.5 296.75,-165.5 530.75,-165.5 530.75,-143.5 296.75,-143.5"/>
<image xlink:href="../../images/foreignKeys.png" width="11px" height="12px" preserveAspectRatio="xMinYMin meet" x="301.75" y="-160.5"/>
<text text-anchor="start" x="316.75" y="-150.05" font-family="Helvetica,sans-Serif" font-size="11.00">active_configuration_check</text>
<polygon fill="#ffffff" stroke="none" points="296.75,-121.5 296.75,-143.5 530.75,-143.5 530.75,-121.5 296.75,-121.5"/>
<polygon fill="none" stroke="black" points="296.75,-121.5 296.75,-143.5 530.75,-143.5 530.75,-121.5 296.75,-121.5"/>
<image xlink:href="../../images/foreignKeys.png" width="11px" height="12px" preserveAspectRatio="xMinYMin meet" x="301.75" y="-138.5"/>
<text text-anchor="start" x="316.75" y="-128.05" font-family="Helvetica,sans-Serif" font-size="11.00">role</text>
<polygon fill="#ffffff" stroke="none" points="296.75,-99.5 296.75,-121.5 530.75,-121.5 530.75,-99.5 296.75,-99.5"/>
<polygon fill="none" stroke="black" points="296.75,-99.5 296.75,-121.5 530.75,-121.5 530.75,-99.5 296.75,-99.5"/>
<image xlink:href="../../images/foreignKeys.png" width="11px" height="12px" preserveAspectRatio="xMinYMin meet" x="301.75" y="-116.5"/>
<text text-anchor="start" x="316.75" y="-106.05" font-family="Helvetica,sans-Serif" font-size="11.00">active_configuration_export_ftp</text>
<polygon fill="#ffffff" stroke="none" points="296.75,-77.5 296.75,-99.5 530.75,-99.5 530.75,-77.5 296.75,-77.5"/>
<polygon fill="none" stroke="black" points="296.75,-77.5 296.75,-99.5 530.75,-99.5 530.75,-77.5 296.75,-77.5"/>
<image xlink:href="../../images/foreignKeys.png" width="11px" height="12px" preserveAspectRatio="xMinYMin meet" x="301.75" y="-94.5"/>
<text text-anchor="start" x="316.75" y="-84.05" font-family="Helvetica,sans-Serif" font-size="11.00">active_configuration_ocr_lang</text>
<polygon fill="none" stroke="black" points="296.75,-58 296.75,-77.5 530.75,-77.5 530.75,-58 296.75,-58"/>
<text text-anchor="start" x="299.75" y="-64.05" font-family="Helvetica,sans-Serif" font-size="11.00">...</text>
<polygon fill="#ffffff" stroke="none" points="296.75,-38.5 296.75,-58 376.5,-58 376.5,-38.5 296.75,-38.5"/>
<polygon fill="none" stroke="black" points="296.75,-38.5 296.75,-58 376.5,-58 376.5,-38.5 296.75,-38.5"/>
<text text-anchor="start" x="299.75" y="-44.55" font-family="Helvetica,sans-Serif" font-size="11.00">&lt; 6</text>
<polygon fill="#ffffff" stroke="none" points="376.5,-38.5 376.5,-58 444.25,-58 444.25,-38.5 376.5,-38.5"/>
<polygon fill="none" stroke="black" points="376.5,-38.5 376.5,-58 444.25,-58 444.25,-38.5 376.5,-38.5"/>
<text text-anchor="start" x="433.75" y="-44.55" font-family="Helvetica,sans-Serif" font-size="11.00"> &#160;</text>
<polygon fill="#ffffff" stroke="none" points="444.25,-38.5 444.25,-58 530.75,-58 530.75,-38.5 444.25,-38.5"/>
<polygon fill="none" stroke="black" points="444.25,-38.5 444.25,-58 530.75,-58 530.75,-38.5 444.25,-38.5"/>
<text text-anchor="start" x="501.5" y="-44.55" font-family="Helvetica,sans-Serif" font-size="11.00">27 &gt;</text>
</a>
</g>
</g>
<!-- user_role -->
<g id="node2" class="node">
<title>user_role</title>
<g id="a_node2"><a xlink:href="../../tables/user_role.html" xlink:title="user_role" target="_top">
<polygon fill="#ffffff" stroke="none" points="8,-48.25 8,-315.25 247.75,-315.25 247.75,-48.25 8,-48.25"/>
<polygon fill="#f5f5f5" stroke="none" points="10,-289.75 10,-313.25 245.75,-313.25 245.75,-289.75 10,-289.75"/>
<polygon fill="none" stroke="black" points="10,-289.75 10,-313.25 245.75,-313.25 245.75,-289.75 10,-289.75"/>
<text text-anchor="start" x="15" y="-298.8" font-family="Helvetica,sans-Serif" font-weight="bold" font-size="11.00">user_role</text>
<text text-anchor="start" x="204" y="-297.8" font-family="Helvetica,sans-Serif" font-size="11.00">[table]</text>
<polygon fill="none" stroke="black" points="10,-267.75 10,-289.75 158,-289.75 158,-267.75 10,-267.75"/>
<image xlink:href="../../images/primaryKeys.png" width="11px" height="12px" preserveAspectRatio="xMinYMin meet" x="15" y="-284.75"/>
<text text-anchor="start" x="30" y="-274.3" font-family="Helvetica,sans-Serif" font-size="11.00">identifier</text>
<polygon fill="none" stroke="black" points="158,-267.75 158,-289.75 245.75,-289.75 245.75,-267.75 158,-267.75"/>
<text text-anchor="start" x="161" y="-275.05" font-family="Helvetica,sans-Serif" font-size="11.00">varchar[191]</text>
<polygon fill="#ffffff" stroke="none" points="10,-245.75 10,-267.75 158,-267.75 158,-245.75 10,-245.75"/>
<polygon fill="none" stroke="black" points="10,-245.75 10,-267.75 158,-267.75 158,-245.75 10,-245.75"/>
<text text-anchor="start" x="30" y="-252.3" font-family="Helvetica,sans-Serif" font-size="11.00">code</text>
<polygon fill="none" stroke="black" points="158,-245.75 158,-267.75 245.75,-267.75 245.75,-245.75 158,-245.75"/>
<text text-anchor="start" x="161" y="-253.05" font-family="Helvetica,sans-Serif" font-size="11.00">varchar[191]</text>
<polygon fill="#ffffff" stroke="none" points="10,-223.75 10,-245.75 158,-245.75 158,-223.75 10,-223.75"/>
<polygon fill="none" stroke="black" points="10,-223.75 10,-245.75 158,-245.75 158,-223.75 10,-223.75"/>
<text text-anchor="start" x="30" y="-230.3" font-family="Helvetica,sans-Serif" font-size="11.00">label</text>
<polygon fill="none" stroke="black" points="158,-223.75 158,-245.75 245.75,-245.75 245.75,-223.75 158,-223.75"/>
<text text-anchor="start" x="161" y="-231.05" font-family="Helvetica,sans-Serif" font-size="11.00">varchar[191]</text>
<polygon fill="none" stroke="black" points="10,-201.75 10,-223.75 158,-223.75 158,-201.75 10,-201.75"/>
<text text-anchor="start" x="30" y="-208.3" font-family="Helvetica,sans-Serif" font-size="11.00">description</text>
<polygon fill="none" stroke="black" points="158,-201.75 158,-223.75 245.75,-223.75 245.75,-201.75 158,-201.75"/>
<text text-anchor="start" x="161" y="-209.05" font-family="Helvetica,sans-Serif" font-size="11.00">varchar[2000]</text>
<polygon fill="none" stroke="black" points="10,-179.75 10,-201.75 158,-201.75 158,-179.75 10,-179.75"/>
<text text-anchor="start" x="30" y="-186.3" font-family="Helvetica,sans-Serif" font-size="11.00">version</text>
<polygon fill="none" stroke="black" points="158,-179.75 158,-201.75 245.75,-201.75 245.75,-179.75 158,-179.75"/>
<text text-anchor="start" x="161" y="-187.05" font-family="Helvetica,sans-Serif" font-size="11.00">bigint[19]</text>
<polygon fill="none" stroke="black" points="10,-157.75 10,-179.75 158,-179.75 158,-157.75 10,-157.75"/>
<text text-anchor="start" x="30" y="-164.3" font-family="Helvetica,sans-Serif" font-size="11.00">created_by</text>
<polygon fill="none" stroke="black" points="158,-157.75 158,-179.75 245.75,-179.75 245.75,-157.75 158,-157.75"/>
<text text-anchor="start" x="161" y="-165.05" font-family="Helvetica,sans-Serif" font-size="11.00">varchar[191]</text>
<polygon fill="none" stroke="black" points="10,-135.75 10,-157.75 158,-157.75 158,-135.75 10,-135.75"/>
<text text-anchor="start" x="30" y="-142.3" font-family="Helvetica,sans-Serif" font-size="11.00">last_modified_by</text>
<polygon fill="none" stroke="black" points="158,-135.75 158,-157.75 245.75,-157.75 245.75,-135.75 158,-135.75"/>
<text text-anchor="start" x="161" y="-143.05" font-family="Helvetica,sans-Serif" font-size="11.00">varchar[191]</text>
<polygon fill="none" stroke="black" points="10,-113.75 10,-135.75 158,-135.75 158,-113.75 10,-113.75"/>
<text text-anchor="start" x="30" y="-120.3" font-family="Helvetica,sans-Serif" font-size="11.00">created_date</text>
<polygon fill="none" stroke="black" points="158,-113.75 158,-135.75 245.75,-135.75 245.75,-113.75 158,-113.75"/>
<text text-anchor="start" x="161" y="-121.05" font-family="Helvetica,sans-Serif" font-size="11.00">timestamp[19]</text>
<polygon fill="none" stroke="black" points="10,-91.75 10,-113.75 158,-113.75 158,-91.75 10,-91.75"/>
<text text-anchor="start" x="30" y="-98.3" font-family="Helvetica,sans-Serif" font-size="11.00">last_modified_date</text>
<polygon fill="none" stroke="black" points="158,-91.75 158,-113.75 245.75,-113.75 245.75,-91.75 158,-91.75"/>
<text text-anchor="start" x="161" y="-99.05" font-family="Helvetica,sans-Serif" font-size="11.00">timestamp[19]</text>
<polygon fill="none" stroke="black" points="10,-69.75 10,-91.75 158,-91.75 158,-69.75 10,-69.75"/>
<text text-anchor="start" x="30" y="-76.3" font-family="Helvetica,sans-Serif" font-size="11.00">superuser</text>
<polygon fill="none" stroke="black" points="158,-69.75 158,-91.75 245.75,-91.75 245.75,-69.75 158,-69.75"/>
<text text-anchor="start" x="161" y="-77.05" font-family="Helvetica,sans-Serif" font-size="11.00">bit[1]</text>
<polygon fill="#ffffff" stroke="none" points="10,-50.25 10,-69.75 90,-69.75 90,-50.25 10,-50.25"/>
<polygon fill="none" stroke="black" points="10,-50.25 10,-69.75 90,-69.75 90,-50.25 10,-50.25"/>
<text text-anchor="start" x="13" y="-56.3" font-family="Helvetica,sans-Serif" font-size="11.00">&lt; 0</text>
<polygon fill="#ffffff" stroke="none" points="90,-50.25 90,-69.75 158,-69.75 158,-50.25 90,-50.25"/>
<polygon fill="none" stroke="black" points="90,-50.25 90,-69.75 158,-69.75 158,-50.25 90,-50.25"/>
<text text-anchor="start" x="147.5" y="-56.3" font-family="Helvetica,sans-Serif" font-size="11.00"> &#160;</text>
<polygon fill="#ffffff" stroke="none" points="158,-50.25 158,-69.75 245.75,-69.75 245.75,-50.25 158,-50.25"/>
<polygon fill="none" stroke="black" points="158,-50.25 158,-69.75 245.75,-69.75 245.75,-50.25 158,-50.25"/>
<text text-anchor="start" x="223.25" y="-56.3" font-family="Helvetica,sans-Serif" font-size="11.00">3 &gt;</text>
<polygon fill="none" stroke="black" stroke-width="2" points="9,-49.25 9,-314.25 246.75,-314.25 246.75,-49.25 9,-49.25"/>
</a>
</g>
</g>
<!-- lib_library&#45;&gt;user_role -->
<g id="edge1" class="edge">
<title>lib_library:w&#45;&gt;user_role:e</title>
<path fill="none" stroke="black" d="M280.34,-136.12C242.34,-158.64 308.87,-278.75 246.75,-278.75"/>
<polygon fill="black" stroke="black" points="287.64,-134.4 296.25,-136.08 291.86,-133.41 295.1,-132.65 295.1,-132.65 295.1,-132.65 291.86,-133.41 294.6,-129.07 287.64,-134.4"/>
<ellipse fill="none" stroke="black" cx="282.85" cy="-135.53" rx="3.2" ry="3.2"/>
</g>
<!-- user_role_authorization -->
<g id="node3" class="node">
<title>user_role_authorization</title>
<g id="a_node3"><a xlink:href="../../tables/user_role_authorization.html" xlink:title="user_role_authorization" target="_top">
<polygon fill="#ffffff" stroke="none" points="310.88,-303.25 310.88,-390.25 516.62,-390.25 516.62,-303.25 310.88,-303.25"/>
<polygon fill="#f5f5f5" stroke="none" points="310.88,-366.75 310.88,-390.25 516.62,-390.25 516.62,-366.75 310.88,-366.75"/>
<polygon fill="none" stroke="black" points="310.88,-366.75 310.88,-390.25 516.62,-390.25 516.62,-366.75 310.88,-366.75"/>
<text text-anchor="start" x="315.88" y="-375.8" font-family="Helvetica,sans-Serif" font-weight="bold" font-size="11.00">user_role_authorization</text>
<text text-anchor="start" x="474.88" y="-374.8" font-family="Helvetica,sans-Serif" font-size="11.00">[table]</text>
<polygon fill="none" stroke="black" points="310.88,-344.75 310.88,-366.75 516.62,-366.75 516.62,-344.75 310.88,-344.75"/>
<image xlink:href="../../images/primaryKeys.png" width="11px" height="12px" preserveAspectRatio="xMinYMin meet" x="315.875" y="-361.75"/>
<text text-anchor="start" x="343.75" y="-351.3" font-family="Helvetica,sans-Serif" font-size="11.00">user_authorization</text>
<polygon fill="none" stroke="black" points="310.88,-322.75 310.88,-344.75 516.62,-344.75 516.62,-322.75 310.88,-322.75"/>
<image xlink:href="../../images/primaryKeys.png" width="11px" height="12px" preserveAspectRatio="xMinYMin meet" x="315.875" y="-339.75"/>
<text text-anchor="start" x="343.75" y="-329.3" font-family="Helvetica,sans-Serif" font-size="11.00">role</text>
<polygon fill="#ffffff" stroke="none" points="310.88,-303.25 310.88,-322.75 387.46,-322.75 387.46,-303.25 310.88,-303.25"/>
<polygon fill="none" stroke="black" points="310.88,-303.25 310.88,-322.75 387.46,-322.75 387.46,-303.25 310.88,-303.25"/>
<text text-anchor="start" x="313.88" y="-309.3" font-family="Helvetica,sans-Serif" font-size="11.00">&lt; 2</text>
<polygon fill="#ffffff" stroke="none" points="387.46,-303.25 387.46,-322.75 452.04,-322.75 452.04,-303.25 387.46,-303.25"/>
<polygon fill="none" stroke="black" points="387.46,-303.25 387.46,-322.75 452.04,-322.75 452.04,-303.25 387.46,-303.25"/>
<text text-anchor="start" x="441.54" y="-309.3" font-family="Helvetica,sans-Serif" font-size="11.00"> &#160;</text>
<polygon fill="#ffffff" stroke="none" points="452.04,-303.25 452.04,-322.75 516.62,-322.75 516.62,-303.25 452.04,-303.25"/>
<polygon fill="none" stroke="black" points="452.04,-303.25 452.04,-322.75 516.62,-322.75 516.62,-303.25 452.04,-303.25"/>
<text text-anchor="start" x="506.12" y="-309.3" font-family="Helvetica,sans-Serif" font-size="11.00"> &#160;</text>
</a>
</g>
</g>
<!-- user_role_authorization&#45;&gt;user_role -->
<g id="edge2" class="edge">
<title>user_role_authorization:w&#45;&gt;user_role:e</title>
<path fill="none" stroke="black" d="M294.77,-329.62C275.09,-316.83 277.71,-278.75 246.75,-278.75"/>
<polygon fill="black" stroke="black" points="301.84,-331.55 308.6,-337.13 306.02,-332.69 309.23,-333.57 309.23,-333.57 309.23,-333.57 306.02,-332.69 310.5,-330.19 301.84,-331.55"/>
<ellipse fill="none" stroke="black" cx="297.09" cy="-330.25" rx="3.2" ry="3.2"/>
</g>
<!-- user_user -->
<g id="node4" class="node">
<title>user_user</title>
<g id="a_node4"><a xlink:href="../../tables/user_user.html" xlink:title="user_user" target="_top">
<polygon fill="#ffffff" stroke="none" points="579.75,-144.5 579.75,-339 727.75,-339 727.75,-144.5 579.75,-144.5"/>
<polygon fill="#f5f5f5" stroke="none" points="579.75,-315.5 579.75,-339 727.75,-339 727.75,-315.5 579.75,-315.5"/>
<polygon fill="none" stroke="black" points="579.75,-315.5 579.75,-339 727.75,-339 727.75,-315.5 579.75,-315.5"/>
<text text-anchor="start" x="584.75" y="-324.55" font-family="Helvetica,sans-Serif" font-weight="bold" font-size="11.00">user_user</text>
<text text-anchor="start" x="686" y="-323.55" font-family="Helvetica,sans-Serif" font-size="11.00">[table]</text>
<polygon fill="none" stroke="black" points="579.75,-293.5 579.75,-315.5 727.75,-315.5 727.75,-293.5 579.75,-293.5"/>
<image xlink:href="../../images/primaryKeys.png" width="11px" height="12px" preserveAspectRatio="xMinYMin meet" x="584.75" y="-310.5"/>
<text text-anchor="start" x="599.75" y="-300.05" font-family="Helvetica,sans-Serif" font-size="11.00">identifier</text>
<polygon fill="#ffffff" stroke="none" points="579.75,-271.5 579.75,-293.5 727.75,-293.5 727.75,-271.5 579.75,-271.5"/>
<polygon fill="none" stroke="black" points="579.75,-271.5 579.75,-293.5 727.75,-293.5 727.75,-271.5 579.75,-271.5"/>
<text text-anchor="start" x="599.75" y="-278.05" font-family="Helvetica,sans-Serif" font-size="11.00">login</text>
<polygon fill="#ffffff" stroke="none" points="579.75,-249.5 579.75,-271.5 727.75,-271.5 727.75,-249.5 579.75,-249.5"/>
<polygon fill="none" stroke="black" points="579.75,-249.5 579.75,-271.5 727.75,-271.5 727.75,-249.5 579.75,-249.5"/>
<image xlink:href="../../images/foreignKeys.png" width="11px" height="12px" preserveAspectRatio="xMinYMin meet" x="584.75" y="-266.5"/>
<text text-anchor="start" x="599.75" y="-256.05" font-family="Helvetica,sans-Serif" font-size="11.00">role</text>
<polygon fill="#ffffff" stroke="none" points="579.75,-227.5 579.75,-249.5 727.75,-249.5 727.75,-227.5 579.75,-227.5"/>
<polygon fill="none" stroke="black" points="579.75,-227.5 579.75,-249.5 727.75,-249.5 727.75,-227.5 579.75,-227.5"/>
<image xlink:href="../../images/foreignKeys.png" width="11px" height="12px" preserveAspectRatio="xMinYMin meet" x="584.75" y="-244.5"/>
<text text-anchor="start" x="599.75" y="-234.05" font-family="Helvetica,sans-Serif" font-size="11.00">library</text>
<polygon fill="#ffffff" stroke="none" points="579.75,-205.5 579.75,-227.5 727.75,-227.5 727.75,-205.5 579.75,-205.5"/>
<polygon fill="none" stroke="black" points="579.75,-205.5 579.75,-227.5 727.75,-227.5 727.75,-205.5 579.75,-205.5"/>
<image xlink:href="../../images/foreignKeys.png" width="11px" height="12px" preserveAspectRatio="xMinYMin meet" x="584.75" y="-222.5"/>
<text text-anchor="start" x="599.75" y="-212.05" font-family="Helvetica,sans-Serif" font-size="11.00">dashboard</text>
<polygon fill="#ffffff" stroke="none" points="579.75,-183.5 579.75,-205.5 727.75,-205.5 727.75,-183.5 579.75,-183.5"/>
<polygon fill="none" stroke="black" points="579.75,-183.5 579.75,-205.5 727.75,-205.5 727.75,-183.5 579.75,-183.5"/>
<image xlink:href="../../images/foreignKeys.png" width="11px" height="12px" preserveAspectRatio="xMinYMin meet" x="584.75" y="-200.5"/>
<text text-anchor="start" x="599.75" y="-190.05" font-family="Helvetica,sans-Serif" font-size="11.00">address</text>
<polygon fill="none" stroke="black" points="579.75,-164 579.75,-183.5 727.75,-183.5 727.75,-164 579.75,-164"/>
<text text-anchor="start" x="582.75" y="-170.05" font-family="Helvetica,sans-Serif" font-size="11.00">...</text>
<polygon fill="#ffffff" stroke="none" points="579.75,-144.5 579.75,-164 633.08,-164 633.08,-144.5 579.75,-144.5"/>
<polygon fill="none" stroke="black" points="579.75,-144.5 579.75,-164 633.08,-164 633.08,-144.5 579.75,-144.5"/>
<text text-anchor="start" x="582.75" y="-150.55" font-family="Helvetica,sans-Serif" font-size="11.00">&lt; 4</text>
<polygon fill="#ffffff" stroke="none" points="633.08,-144.5 633.08,-164 674.42,-164 674.42,-144.5 633.08,-144.5"/>
<polygon fill="none" stroke="black" points="633.08,-144.5 633.08,-164 674.42,-164 674.42,-144.5 633.08,-144.5"/>
<text text-anchor="start" x="663.92" y="-150.55" font-family="Helvetica,sans-Serif" font-size="11.00"> &#160;</text>
<polygon fill="#ffffff" stroke="none" points="674.42,-144.5 674.42,-164 727.75,-164 727.75,-144.5 674.42,-144.5"/>
<polygon fill="none" stroke="black" points="674.42,-144.5 674.42,-164 727.75,-164 727.75,-144.5 674.42,-144.5"/>
<text text-anchor="start" x="705.25" y="-150.55" font-family="Helvetica,sans-Serif" font-size="11.00">4 &gt;</text>
</a>
</g>
</g>
<!-- user_user&#45;&gt;lib_library -->
<g id="edge3" class="edge">
<title>user_user:w&#45;&gt;lib_library:e</title>
<path fill="none" stroke="black" d="M563.42,-234.86C553.39,-229.6 547.65,-220.5 531.75,-220.5"/>
<polygon fill="black" stroke="black" points="570.64,-236.57 577.59,-241.93 574.86,-237.58 578.1,-238.35 578.1,-238.35 578.1,-238.35 574.86,-237.58 579.26,-234.92 570.64,-236.57"/>
<ellipse fill="none" stroke="black" cx="565.86" cy="-235.44" rx="3.2" ry="3.2"/>
</g>
<!-- user_user&#45;&gt;user_role -->
<g id="edge4" class="edge">
<title>user_user:w&#45;&gt;user_role:e</title>
<path fill="none" stroke="black" d="M563.19,-261.7C555.89,-262.92 550.05,-264.76 538.75,-265.75 409.34,-277.1 376.66,-278.75 246.75,-278.75"/>
<polygon fill="black" stroke="black" points="570.44,-261.14 578.69,-264.12 574.76,-260.81 578.08,-260.55 578.08,-260.55 578.08,-260.55 574.76,-260.81 578.14,-256.94 570.44,-261.14"/>
<ellipse fill="none" stroke="black" cx="565.54" cy="-261.52" rx="3.2" ry="3.2"/>
</g>
</g>
</svg>
