<?xml version="1.0" encoding="UTF-8" standalone="no"?>
<!DOCTYPE svg PUBLIC "-//W3C//DTD SVG 1.1//EN"
 "http://www.w3.org/Graphics/SVG/1.1/DTD/svg11.dtd">
<!-- Generated by graphviz version 12.2.0 (0)
 -->
<!-- Title: oneDegreeRelationshipsDiagram Pages: 1 -->
<svg width="501pt" height="337pt"
 viewBox="0.00 0.00 501.25 337.25" xmlns="http://www.w3.org/2000/svg" xmlns:xlink="http://www.w3.org/1999/xlink">
<g id="graph0" class="graph" transform="scale(1 1) rotate(0) translate(4 333.25)">
<title>oneDegreeRelationshipsDiagram</title>
<polygon fill="#ffffff" stroke="none" points="-4,4 -4,-333.25 497.25,-333.25 497.25,4 -4,4"/>
<text text-anchor="middle" x="79.25" y="-7.05" font-family="Helvetica,sans-Serif" font-size="11.00">Generated by SchemaSpy</text>
<!-- user_user -->
<g id="node1" class="node">
<title>user_user</title>
<g id="a_node1"><a xlink:href="../../tables/user_user.html" xlink:title="user_user" target="_top">
<polygon fill="#ffffff" stroke="none" points="337.25,-130.75 337.25,-325.25 485.25,-325.25 485.25,-130.75 337.25,-130.75"/>
<polygon fill="#f5f5f5" stroke="none" points="337.25,-301.75 337.25,-325.25 485.25,-325.25 485.25,-301.75 337.25,-301.75"/>
<polygon fill="none" stroke="black" points="337.25,-301.75 337.25,-325.25 485.25,-325.25 485.25,-301.75 337.25,-301.75"/>
<text text-anchor="start" x="342.25" y="-310.8" font-family="Helvetica,sans-Serif" font-weight="bold" font-size="11.00">user_user</text>
<text text-anchor="start" x="443.5" y="-309.8" font-family="Helvetica,sans-Serif" font-size="11.00">[table]</text>
<polygon fill="none" stroke="black" points="337.25,-279.75 337.25,-301.75 485.25,-301.75 485.25,-279.75 337.25,-279.75"/>
<image xlink:href="../../images/primaryKeys.png" width="11px" height="12px" preserveAspectRatio="xMinYMin meet" x="342.25" y="-296.75"/>
<text text-anchor="start" x="357.25" y="-286.3" font-family="Helvetica,sans-Serif" font-size="11.00">identifier</text>
<polygon fill="#ffffff" stroke="none" points="337.25,-257.75 337.25,-279.75 485.25,-279.75 485.25,-257.75 337.25,-257.75"/>
<polygon fill="none" stroke="black" points="337.25,-257.75 337.25,-279.75 485.25,-279.75 485.25,-257.75 337.25,-257.75"/>
<text text-anchor="start" x="357.25" y="-264.3" font-family="Helvetica,sans-Serif" font-size="11.00">login</text>
<polygon fill="#ffffff" stroke="none" points="337.25,-235.75 337.25,-257.75 485.25,-257.75 485.25,-235.75 337.25,-235.75"/>
<polygon fill="none" stroke="black" points="337.25,-235.75 337.25,-257.75 485.25,-257.75 485.25,-235.75 337.25,-235.75"/>
<image xlink:href="../../images/foreignKeys.png" width="11px" height="12px" preserveAspectRatio="xMinYMin meet" x="342.25" y="-252.75"/>
<text text-anchor="start" x="357.25" y="-242.3" font-family="Helvetica,sans-Serif" font-size="11.00">role</text>
<polygon fill="#ffffff" stroke="none" points="337.25,-213.75 337.25,-235.75 485.25,-235.75 485.25,-213.75 337.25,-213.75"/>
<polygon fill="none" stroke="black" points="337.25,-213.75 337.25,-235.75 485.25,-235.75 485.25,-213.75 337.25,-213.75"/>
<image xlink:href="../../images/foreignKeys.png" width="11px" height="12px" preserveAspectRatio="xMinYMin meet" x="342.25" y="-230.75"/>
<text text-anchor="start" x="357.25" y="-220.3" font-family="Helvetica,sans-Serif" font-size="11.00">library</text>
<polygon fill="#ffffff" stroke="none" points="337.25,-191.75 337.25,-213.75 485.25,-213.75 485.25,-191.75 337.25,-191.75"/>
<polygon fill="none" stroke="black" points="337.25,-191.75 337.25,-213.75 485.25,-213.75 485.25,-191.75 337.25,-191.75"/>
<image xlink:href="../../images/foreignKeys.png" width="11px" height="12px" preserveAspectRatio="xMinYMin meet" x="342.25" y="-208.75"/>
<text text-anchor="start" x="357.25" y="-198.3" font-family="Helvetica,sans-Serif" font-size="11.00">dashboard</text>
<polygon fill="#ffffff" stroke="none" points="337.25,-169.75 337.25,-191.75 485.25,-191.75 485.25,-169.75 337.25,-169.75"/>
<polygon fill="none" stroke="black" points="337.25,-169.75 337.25,-191.75 485.25,-191.75 485.25,-169.75 337.25,-169.75"/>
<image xlink:href="../../images/foreignKeys.png" width="11px" height="12px" preserveAspectRatio="xMinYMin meet" x="342.25" y="-186.75"/>
<text text-anchor="start" x="357.25" y="-176.3" font-family="Helvetica,sans-Serif" font-size="11.00">address</text>
<polygon fill="none" stroke="black" points="337.25,-150.25 337.25,-169.75 485.25,-169.75 485.25,-150.25 337.25,-150.25"/>
<text text-anchor="start" x="340.25" y="-156.3" font-family="Helvetica,sans-Serif" font-size="11.00">...</text>
<polygon fill="#ffffff" stroke="none" points="337.25,-130.75 337.25,-150.25 390.58,-150.25 390.58,-130.75 337.25,-130.75"/>
<polygon fill="none" stroke="black" points="337.25,-130.75 337.25,-150.25 390.58,-150.25 390.58,-130.75 337.25,-130.75"/>
<text text-anchor="start" x="340.25" y="-136.8" font-family="Helvetica,sans-Serif" font-size="11.00">&lt; 4</text>
<polygon fill="#ffffff" stroke="none" points="390.58,-130.75 390.58,-150.25 431.92,-150.25 431.92,-130.75 390.58,-130.75"/>
<polygon fill="none" stroke="black" points="390.58,-130.75 390.58,-150.25 431.92,-150.25 431.92,-130.75 390.58,-130.75"/>
<text text-anchor="start" x="421.42" y="-136.8" font-family="Helvetica,sans-Serif" font-size="11.00"> &#160;</text>
<polygon fill="#ffffff" stroke="none" points="431.92,-130.75 431.92,-150.25 485.25,-150.25 485.25,-130.75 431.92,-130.75"/>
<polygon fill="none" stroke="black" points="431.92,-130.75 431.92,-150.25 485.25,-150.25 485.25,-130.75 431.92,-130.75"/>
<text text-anchor="start" x="462.75" y="-136.8" font-family="Helvetica,sans-Serif" font-size="11.00">4 &gt;</text>
</a>
</g>
</g>
<!-- user_dashboard -->
<g id="node2" class="node">
<title>user_dashboard</title>
<g id="a_node2"><a xlink:href="../../tables/user_dashboard.html" xlink:title="user_dashboard" target="_top">
<polygon fill="#ffffff" stroke="none" points="8,-38.5 8,-239.5 288.25,-239.5 288.25,-38.5 8,-38.5"/>
<polygon fill="#f5f5f5" stroke="none" points="10,-214 10,-237.5 286.25,-237.5 286.25,-214 10,-214"/>
<polygon fill="none" stroke="black" points="10,-214 10,-237.5 286.25,-237.5 286.25,-214 10,-214"/>
<text text-anchor="start" x="15" y="-223.05" font-family="Helvetica,sans-Serif" font-weight="bold" font-size="11.00">user_dashboard</text>
<text text-anchor="start" x="244.5" y="-222.05" font-family="Helvetica,sans-Serif" font-size="11.00">[table]</text>
<polygon fill="none" stroke="black" points="10,-192 10,-214 158,-214 158,-192 10,-192"/>
<image xlink:href="../../images/primaryKeys.png" width="11px" height="12px" preserveAspectRatio="xMinYMin meet" x="15" y="-209"/>
<text text-anchor="start" x="30" y="-198.55" font-family="Helvetica,sans-Serif" font-size="11.00">identifier</text>
<polygon fill="none" stroke="black" points="158,-192 158,-214 286.25,-214 286.25,-192 158,-192"/>
<text text-anchor="start" x="161" y="-199.3" font-family="Helvetica,sans-Serif" font-size="11.00">varchar[191]</text>
<polygon fill="none" stroke="black" points="10,-170 10,-192 158,-192 158,-170 10,-170"/>
<text text-anchor="start" x="30" y="-176.55" font-family="Helvetica,sans-Serif" font-size="11.00">version</text>
<polygon fill="none" stroke="black" points="158,-170 158,-192 286.25,-192 286.25,-170 158,-170"/>
<text text-anchor="start" x="161" y="-177.3" font-family="Helvetica,sans-Serif" font-size="11.00">bigint[19]</text>
<polygon fill="none" stroke="black" points="10,-148 10,-170 158,-170 158,-148 10,-148"/>
<text text-anchor="start" x="30" y="-154.55" font-family="Helvetica,sans-Serif" font-size="11.00">created_by</text>
<polygon fill="none" stroke="black" points="158,-148 158,-170 286.25,-170 286.25,-148 158,-148"/>
<text text-anchor="start" x="161" y="-155.3" font-family="Helvetica,sans-Serif" font-size="11.00">varchar[191]</text>
<polygon fill="none" stroke="black" points="10,-126 10,-148 158,-148 158,-126 10,-126"/>
<text text-anchor="start" x="30" y="-132.55" font-family="Helvetica,sans-Serif" font-size="11.00">last_modified_by</text>
<polygon fill="none" stroke="black" points="158,-126 158,-148 286.25,-148 286.25,-126 158,-126"/>
<text text-anchor="start" x="161" y="-133.3" font-family="Helvetica,sans-Serif" font-size="11.00">varchar[191]</text>
<polygon fill="none" stroke="black" points="10,-104 10,-126 158,-126 158,-104 10,-104"/>
<text text-anchor="start" x="30" y="-110.55" font-family="Helvetica,sans-Serif" font-size="11.00">created_date</text>
<polygon fill="none" stroke="black" points="158,-104 158,-126 286.25,-126 286.25,-104 158,-104"/>
<text text-anchor="start" x="161" y="-111.3" font-family="Helvetica,sans-Serif" font-size="11.00">timestamp[19]</text>
<polygon fill="none" stroke="black" points="10,-82 10,-104 158,-104 158,-82 10,-82"/>
<text text-anchor="start" x="30" y="-88.55" font-family="Helvetica,sans-Serif" font-size="11.00">last_modified_date</text>
<polygon fill="none" stroke="black" points="158,-82 158,-104 286.25,-104 286.25,-82 158,-82"/>
<text text-anchor="start" x="161" y="-89.3" font-family="Helvetica,sans-Serif" font-size="11.00">timestamp[19]</text>
<polygon fill="none" stroke="black" points="10,-60 10,-82 158,-82 158,-60 10,-60"/>
<text text-anchor="start" x="30" y="-66.55" font-family="Helvetica,sans-Serif" font-size="11.00">dashboard</text>
<polygon fill="none" stroke="black" points="158,-60 158,-82 286.25,-82 286.25,-60 158,-60"/>
<text text-anchor="start" x="161" y="-67.3" font-family="Helvetica,sans-Serif" font-size="11.00">longtext[2147483647]</text>
<polygon fill="#ffffff" stroke="none" points="10,-40.5 10,-60 90,-60 90,-40.5 10,-40.5"/>
<polygon fill="none" stroke="black" points="10,-40.5 10,-60 90,-60 90,-40.5 10,-40.5"/>
<text text-anchor="start" x="13" y="-46.55" font-family="Helvetica,sans-Serif" font-size="11.00">&lt; 0</text>
<polygon fill="#ffffff" stroke="none" points="90,-40.5 90,-60 158,-60 158,-40.5 90,-40.5"/>
<polygon fill="none" stroke="black" points="90,-40.5 90,-60 158,-60 158,-40.5 90,-40.5"/>
<text text-anchor="start" x="147.5" y="-46.55" font-family="Helvetica,sans-Serif" font-size="11.00"> &#160;</text>
<polygon fill="#ffffff" stroke="none" points="158,-40.5 158,-60 286.25,-60 286.25,-40.5 158,-40.5"/>
<polygon fill="none" stroke="black" points="158,-40.5 158,-60 286.25,-60 286.25,-40.5 158,-40.5"/>
<text text-anchor="start" x="263.75" y="-46.55" font-family="Helvetica,sans-Serif" font-size="11.00">1 &gt;</text>
<polygon fill="none" stroke="black" stroke-width="2" points="9,-39.5 9,-238.5 287.25,-238.5 287.25,-39.5 9,-39.5"/>
</a>
</g>
</g>
<!-- user_user&#45;&gt;user_dashboard -->
<g id="edge1" class="edge">
<title>user_user:w&#45;&gt;user_dashboard:e</title>
<path fill="none" stroke="black" d="M320.67,-202.8C309.96,-202.87 302.73,-203 287.25,-203"/>
<polygon fill="black" stroke="black" points="327.92,-202.78 335.93,-206.35 332.25,-202.76 335.58,-202.75 335.58,-202.75 335.58,-202.75 332.25,-202.76 335.9,-199.15 327.92,-202.78"/>
<ellipse fill="none" stroke="black" cx="323" cy="-202.79" rx="3.2" ry="3.2"/>
</g>
</g>
</svg>
