<?xml version="1.0" encoding="UTF-8" standalone="no"?>
<!DOCTYPE svg PUBLIC "-//W3C//DTD SVG 1.1//EN"
 "http://www.w3.org/Graphics/SVG/1.1/DTD/svg11.dtd">
<!-- Generated by graphviz version 12.2.0 (0)
 -->
<!-- Title: oneDegreeRelationshipsDiagram Pages: 1 -->
<svg width="1147pt" height="760pt"
 viewBox="0.00 0.00 1147.25 760.13" xmlns="http://www.w3.org/2000/svg" xmlns:xlink="http://www.w3.org/1999/xlink">
<g id="graph0" class="graph" transform="scale(1 1) rotate(0) translate(4 756.13)">
<title>oneDegreeRelationshipsDiagram</title>
<polygon fill="#ffffff" stroke="none" points="-4,4 -4,-756.13 1143.25,-756.13 1143.25,4 -4,4"/>
<text text-anchor="middle" x="79.25" y="-7.05" font-family="Helvetica,sans-Serif" font-size="11.00">Generated by SchemaSpy</text>
<!-- doc_workflow -->
<g id="node1" class="node">
<title>doc_workflow</title>
<g id="a_node1"><a xlink:href="../../tables/doc_workflow.html" xlink:title="doc_workflow" target="_top">
<polygon fill="#ffffff" stroke="none" points="642.25,-249.63 642.25,-356.13 790.25,-356.13 790.25,-249.63 642.25,-249.63"/>
<polygon fill="#f5f5f5" stroke="none" points="642.25,-332.63 642.25,-356.13 790.25,-356.13 790.25,-332.63 642.25,-332.63"/>
<polygon fill="none" stroke="black" points="642.25,-332.63 642.25,-356.13 790.25,-356.13 790.25,-332.63 642.25,-332.63"/>
<text text-anchor="start" x="647.25" y="-341.68" font-family="Helvetica,sans-Serif" font-weight="bold" font-size="11.00">doc_workflow</text>
<text text-anchor="start" x="748.5" y="-340.68" font-family="Helvetica,sans-Serif" font-size="11.00">[table]</text>
<polygon fill="none" stroke="black" points="642.25,-310.63 642.25,-332.63 790.25,-332.63 790.25,-310.63 642.25,-310.63"/>
<image xlink:href="../../images/primaryKeys.png" width="11px" height="12px" preserveAspectRatio="xMinYMin meet" x="647.25" y="-327.627"/>
<text text-anchor="start" x="662.25" y="-317.18" font-family="Helvetica,sans-Serif" font-size="11.00">identifier</text>
<polygon fill="#ffffff" stroke="none" points="642.25,-288.63 642.25,-310.63 790.25,-310.63 790.25,-288.63 642.25,-288.63"/>
<polygon fill="none" stroke="black" points="642.25,-288.63 642.25,-310.63 790.25,-310.63 790.25,-288.63 642.25,-288.63"/>
<image xlink:href="../../images/foreignKeys.png" width="11px" height="12px" preserveAspectRatio="xMinYMin meet" x="647.25" y="-305.627"/>
<text text-anchor="start" x="662.25" y="-295.18" font-family="Helvetica,sans-Serif" font-size="11.00">model</text>
<polygon fill="none" stroke="black" points="642.25,-269.13 642.25,-288.63 790.25,-288.63 790.25,-269.13 642.25,-269.13"/>
<text text-anchor="start" x="645.25" y="-275.18" font-family="Helvetica,sans-Serif" font-size="11.00">...</text>
<polygon fill="#ffffff" stroke="none" points="642.25,-249.63 642.25,-269.13 695.58,-269.13 695.58,-249.63 642.25,-249.63"/>
<polygon fill="none" stroke="black" points="642.25,-249.63 642.25,-269.13 695.58,-269.13 695.58,-249.63 642.25,-249.63"/>
<text text-anchor="start" x="645.25" y="-255.68" font-family="Helvetica,sans-Serif" font-size="11.00">&lt; 1</text>
<polygon fill="#ffffff" stroke="none" points="695.58,-249.63 695.58,-269.13 736.92,-269.13 736.92,-249.63 695.58,-249.63"/>
<polygon fill="none" stroke="black" points="695.58,-249.63 695.58,-269.13 736.92,-269.13 736.92,-249.63 695.58,-249.63"/>
<text text-anchor="start" x="726.42" y="-255.68" font-family="Helvetica,sans-Serif" font-size="11.00"> &#160;</text>
<polygon fill="#ffffff" stroke="none" points="736.92,-249.63 736.92,-269.13 790.25,-269.13 790.25,-249.63 736.92,-249.63"/>
<polygon fill="none" stroke="black" points="736.92,-249.63 736.92,-269.13 790.25,-269.13 790.25,-249.63 736.92,-249.63"/>
<text text-anchor="start" x="767.75" y="-255.68" font-family="Helvetica,sans-Serif" font-size="11.00">2 &gt;</text>
</a>
</g>
</g>
<!-- workflow_model -->
<g id="node2" class="node">
<title>workflow_model</title>
<g id="a_node2"><a xlink:href="../../tables/workflow_model.html" xlink:title="workflow_model" target="_top">
<polygon fill="#ffffff" stroke="none" points="291,-69.38 291,-336.38 545.25,-336.38 545.25,-69.38 291,-69.38"/>
<polygon fill="#f5f5f5" stroke="none" points="293,-310.88 293,-334.38 543.25,-334.38 543.25,-310.88 293,-310.88"/>
<polygon fill="none" stroke="black" points="293,-310.88 293,-334.38 543.25,-334.38 543.25,-310.88 293,-310.88"/>
<text text-anchor="start" x="298" y="-319.93" font-family="Helvetica,sans-Serif" font-weight="bold" font-size="11.00">workflow_model</text>
<text text-anchor="start" x="501.5" y="-318.93" font-family="Helvetica,sans-Serif" font-size="11.00">[table]</text>
<polygon fill="none" stroke="black" points="293,-288.88 293,-310.88 441,-310.88 441,-288.88 293,-288.88"/>
<image xlink:href="../../images/primaryKeys.png" width="11px" height="12px" preserveAspectRatio="xMinYMin meet" x="298" y="-305.877"/>
<text text-anchor="start" x="313" y="-295.43" font-family="Helvetica,sans-Serif" font-size="11.00">identifier</text>
<polygon fill="none" stroke="black" points="441,-288.88 441,-310.88 536,-310.88 536,-288.88 441,-288.88"/>
<text text-anchor="start" x="444" y="-296.18" font-family="Helvetica,sans-Serif" font-size="11.00">varchar[191]</text>
<polygon fill="#ffffff" stroke="none" points="293,-266.88 293,-288.88 441,-288.88 441,-266.88 293,-266.88"/>
<polygon fill="none" stroke="black" points="293,-266.88 293,-288.88 441,-288.88 441,-266.88 293,-266.88"/>
<text text-anchor="start" x="313" y="-273.43" font-family="Helvetica,sans-Serif" font-size="11.00">name</text>
<polygon fill="none" stroke="black" points="441,-266.88 441,-288.88 536,-288.88 536,-266.88 441,-266.88"/>
<text text-anchor="start" x="444" y="-274.18" font-family="Helvetica,sans-Serif" font-size="11.00">varchar[191]</text>
<polygon fill="#ffffff" stroke="none" points="293,-244.88 293,-266.88 441,-266.88 441,-244.88 293,-244.88"/>
<polygon fill="none" stroke="black" points="293,-244.88 293,-266.88 441,-266.88 441,-244.88 293,-244.88"/>
<image xlink:href="../../images/foreignKeys.png" width="11px" height="12px" preserveAspectRatio="xMinYMin meet" x="298" y="-261.877"/>
<text text-anchor="start" x="313" y="-251.43" font-family="Helvetica,sans-Serif" font-size="11.00">library</text>
<polygon fill="none" stroke="black" points="441,-244.88 441,-266.88 536,-266.88 536,-244.88 441,-244.88"/>
<text text-anchor="start" x="444" y="-252.18" font-family="Helvetica,sans-Serif" font-size="11.00">varchar[191]</text>
<polygon fill="none" stroke="black" points="293,-222.88 293,-244.88 441,-244.88 441,-222.88 293,-222.88"/>
<text text-anchor="start" x="313" y="-229.43" font-family="Helvetica,sans-Serif" font-size="11.00">description</text>
<polygon fill="none" stroke="black" points="441,-222.88 441,-244.88 536,-244.88 536,-222.88 441,-222.88"/>
<text text-anchor="start" x="444" y="-230.18" font-family="Helvetica,sans-Serif" font-size="11.00">text[65535]</text>
<polygon fill="none" stroke="black" points="293,-200.88 293,-222.88 441,-222.88 441,-200.88 293,-200.88"/>
<text text-anchor="start" x="313" y="-207.43" font-family="Helvetica,sans-Serif" font-size="11.00">version</text>
<polygon fill="none" stroke="black" points="441,-200.88 441,-222.88 536,-222.88 536,-200.88 441,-200.88"/>
<text text-anchor="start" x="444" y="-208.18" font-family="Helvetica,sans-Serif" font-size="11.00">bigint[19]</text>
<polygon fill="none" stroke="black" points="293,-178.88 293,-200.88 441,-200.88 441,-178.88 293,-178.88"/>
<text text-anchor="start" x="313" y="-185.43" font-family="Helvetica,sans-Serif" font-size="11.00">created_by</text>
<polygon fill="none" stroke="black" points="441,-178.88 441,-200.88 536,-200.88 536,-178.88 441,-178.88"/>
<text text-anchor="start" x="444" y="-186.18" font-family="Helvetica,sans-Serif" font-size="11.00">varchar[255]</text>
<polygon fill="none" stroke="black" points="293,-156.88 293,-178.88 441,-178.88 441,-156.88 293,-156.88"/>
<text text-anchor="start" x="313" y="-163.43" font-family="Helvetica,sans-Serif" font-size="11.00">last_modified_by</text>
<polygon fill="none" stroke="black" points="441,-156.88 441,-178.88 536,-178.88 536,-156.88 441,-156.88"/>
<text text-anchor="start" x="444" y="-164.18" font-family="Helvetica,sans-Serif" font-size="11.00">varchar[255]</text>
<polygon fill="none" stroke="black" points="293,-134.88 293,-156.88 441,-156.88 441,-134.88 293,-134.88"/>
<text text-anchor="start" x="313" y="-141.43" font-family="Helvetica,sans-Serif" font-size="11.00">created_date</text>
<polygon fill="none" stroke="black" points="441,-134.88 441,-156.88 536,-156.88 536,-134.88 441,-134.88"/>
<text text-anchor="start" x="444" y="-142.18" font-family="Helvetica,sans-Serif" font-size="11.00">timestamp[19]</text>
<polygon fill="none" stroke="black" points="293,-112.88 293,-134.88 441,-134.88 441,-112.88 293,-112.88"/>
<text text-anchor="start" x="313" y="-119.43" font-family="Helvetica,sans-Serif" font-size="11.00">last_modified_date</text>
<polygon fill="none" stroke="black" points="441,-112.88 441,-134.88 536,-134.88 536,-112.88 441,-112.88"/>
<text text-anchor="start" x="444" y="-120.18" font-family="Helvetica,sans-Serif" font-size="11.00">timestamp[19]</text>
<polygon fill="none" stroke="black" points="293,-90.88 293,-112.88 441,-112.88 441,-90.88 293,-90.88"/>
<text text-anchor="start" x="313" y="-97.43" font-family="Helvetica,sans-Serif" font-size="11.00">active</text>
<polygon fill="none" stroke="black" points="441,-90.88 441,-112.88 536,-112.88 536,-90.88 441,-90.88"/>
<text text-anchor="start" x="444" y="-98.18" font-family="Helvetica,sans-Serif" font-size="11.00">bit[1]</text>
<polygon fill="#ffffff" stroke="none" points="293,-71.38 293,-90.88 373,-90.88 373,-71.38 293,-71.38"/>
<polygon fill="none" stroke="black" points="293,-71.38 293,-90.88 373,-90.88 373,-71.38 293,-71.38"/>
<text text-anchor="start" x="296" y="-77.43" font-family="Helvetica,sans-Serif" font-size="11.00">&lt; 1</text>
<polygon fill="#ffffff" stroke="none" points="373,-71.38 373,-90.88 441,-90.88 441,-71.38 373,-71.38"/>
<polygon fill="none" stroke="black" points="373,-71.38 373,-90.88 441,-90.88 441,-71.38 373,-71.38"/>
<text text-anchor="start" x="430.5" y="-77.43" font-family="Helvetica,sans-Serif" font-size="11.00"> &#160;</text>
<polygon fill="#ffffff" stroke="none" points="441,-71.38 441,-90.88 536,-90.88 536,-71.38 441,-71.38"/>
<polygon fill="none" stroke="black" points="441,-71.38 441,-90.88 536,-90.88 536,-71.38 441,-71.38"/>
<text text-anchor="start" x="513.5" y="-77.43" font-family="Helvetica,sans-Serif" font-size="11.00">4 &gt;</text>
<polygon fill="none" stroke="black" stroke-width="2" points="292,-70.38 292,-335.38 544.25,-335.38 544.25,-70.38 292,-70.38"/>
</a>
</g>
</g>
<!-- doc_workflow&#45;&gt;workflow_model -->
<g id="edge1" class="edge">
<title>doc_workflow:w&#45;&gt;workflow_model:e</title>
<path fill="none" stroke="black" d="M625.82,-299.64C591.6,-299.68 577.72,-299.88 537,-299.88"/>
<polygon fill="black" stroke="black" points="632.92,-299.63 640.92,-303.23 637.25,-299.63 640.58,-299.63 640.58,-299.63 640.58,-299.63 637.25,-299.63 640.91,-296.03 632.92,-299.63"/>
<ellipse fill="none" stroke="black" cx="628" cy="-299.64" rx="3.2" ry="3.2"/>
</g>
<!-- lib_library -->
<g id="node5" class="node">
<title>lib_library</title>
<g id="a_node5"><a xlink:href="../../tables/lib_library.html" xlink:title="lib_library" target="_top">
<polygon fill="#ffffff" stroke="none" points="8,-126.63 8,-343.13 242,-343.13 242,-126.63 8,-126.63"/>
<polygon fill="#f5f5f5" stroke="none" points="8,-319.63 8,-343.13 242,-343.13 242,-319.63 8,-319.63"/>
<polygon fill="none" stroke="black" points="8,-319.63 8,-343.13 242,-343.13 242,-319.63 8,-319.63"/>
<text text-anchor="start" x="13" y="-328.68" font-family="Helvetica,sans-Serif" font-weight="bold" font-size="11.00">lib_library</text>
<text text-anchor="start" x="200.25" y="-327.68" font-family="Helvetica,sans-Serif" font-size="11.00">[table]</text>
<polygon fill="none" stroke="black" points="8,-297.63 8,-319.63 242,-319.63 242,-297.63 8,-297.63"/>
<image xlink:href="../../images/primaryKeys.png" width="11px" height="12px" preserveAspectRatio="xMinYMin meet" x="13" y="-314.627"/>
<text text-anchor="start" x="28" y="-304.18" font-family="Helvetica,sans-Serif" font-size="11.00">identifier</text>
<polygon fill="#ffffff" stroke="none" points="8,-275.63 8,-297.63 242,-297.63 242,-275.63 8,-275.63"/>
<polygon fill="none" stroke="black" points="8,-275.63 8,-297.63 242,-297.63 242,-275.63 8,-275.63"/>
<image xlink:href="../../images/foreignKeys.png" width="11px" height="12px" preserveAspectRatio="xMinYMin meet" x="13" y="-292.627"/>
<text text-anchor="start" x="28" y="-282.18" font-family="Helvetica,sans-Serif" font-size="11.00">address</text>
<polygon fill="#ffffff" stroke="none" points="8,-253.63 8,-275.63 242,-275.63 242,-253.63 8,-253.63"/>
<polygon fill="none" stroke="black" points="8,-253.63 8,-275.63 242,-275.63 242,-253.63 8,-253.63"/>
<image xlink:href="../../images/foreignKeys.png" width="11px" height="12px" preserveAspectRatio="xMinYMin meet" x="13" y="-270.627"/>
<text text-anchor="start" x="28" y="-260.18" font-family="Helvetica,sans-Serif" font-size="11.00">active_configuration_ftp</text>
<polygon fill="#ffffff" stroke="none" points="8,-231.63 8,-253.63 242,-253.63 242,-231.63 8,-231.63"/>
<polygon fill="none" stroke="black" points="8,-231.63 8,-253.63 242,-253.63 242,-231.63 8,-231.63"/>
<image xlink:href="../../images/foreignKeys.png" width="11px" height="12px" preserveAspectRatio="xMinYMin meet" x="13" y="-248.627"/>
<text text-anchor="start" x="28" y="-238.18" font-family="Helvetica,sans-Serif" font-size="11.00">active_configuration_check</text>
<polygon fill="#ffffff" stroke="none" points="8,-209.63 8,-231.63 242,-231.63 242,-209.63 8,-209.63"/>
<polygon fill="none" stroke="black" points="8,-209.63 8,-231.63 242,-231.63 242,-209.63 8,-209.63"/>
<image xlink:href="../../images/foreignKeys.png" width="11px" height="12px" preserveAspectRatio="xMinYMin meet" x="13" y="-226.627"/>
<text text-anchor="start" x="28" y="-216.18" font-family="Helvetica,sans-Serif" font-size="11.00">role</text>
<polygon fill="#ffffff" stroke="none" points="8,-187.63 8,-209.63 242,-209.63 242,-187.63 8,-187.63"/>
<polygon fill="none" stroke="black" points="8,-187.63 8,-209.63 242,-209.63 242,-187.63 8,-187.63"/>
<image xlink:href="../../images/foreignKeys.png" width="11px" height="12px" preserveAspectRatio="xMinYMin meet" x="13" y="-204.627"/>
<text text-anchor="start" x="28" y="-194.18" font-family="Helvetica,sans-Serif" font-size="11.00">active_configuration_export_ftp</text>
<polygon fill="#ffffff" stroke="none" points="8,-165.63 8,-187.63 242,-187.63 242,-165.63 8,-165.63"/>
<polygon fill="none" stroke="black" points="8,-165.63 8,-187.63 242,-187.63 242,-165.63 8,-165.63"/>
<image xlink:href="../../images/foreignKeys.png" width="11px" height="12px" preserveAspectRatio="xMinYMin meet" x="13" y="-182.627"/>
<text text-anchor="start" x="28" y="-172.18" font-family="Helvetica,sans-Serif" font-size="11.00">active_configuration_ocr_lang</text>
<polygon fill="none" stroke="black" points="8,-146.13 8,-165.63 242,-165.63 242,-146.13 8,-146.13"/>
<text text-anchor="start" x="11" y="-152.18" font-family="Helvetica,sans-Serif" font-size="11.00">...</text>
<polygon fill="#ffffff" stroke="none" points="8,-126.63 8,-146.13 87.75,-146.13 87.75,-126.63 8,-126.63"/>
<polygon fill="none" stroke="black" points="8,-126.63 8,-146.13 87.75,-146.13 87.75,-126.63 8,-126.63"/>
<text text-anchor="start" x="11" y="-132.68" font-family="Helvetica,sans-Serif" font-size="11.00">&lt; 6</text>
<polygon fill="#ffffff" stroke="none" points="87.75,-126.63 87.75,-146.13 155.5,-146.13 155.5,-126.63 87.75,-126.63"/>
<polygon fill="none" stroke="black" points="87.75,-126.63 87.75,-146.13 155.5,-146.13 155.5,-126.63 87.75,-126.63"/>
<text text-anchor="start" x="145" y="-132.68" font-family="Helvetica,sans-Serif" font-size="11.00"> &#160;</text>
<polygon fill="#ffffff" stroke="none" points="155.5,-126.63 155.5,-146.13 242,-146.13 242,-126.63 155.5,-126.63"/>
<polygon fill="none" stroke="black" points="155.5,-126.63 155.5,-146.13 242,-146.13 242,-126.63 155.5,-126.63"/>
<text text-anchor="start" x="212.75" y="-132.68" font-family="Helvetica,sans-Serif" font-size="11.00">27 &gt;</text>
</a>
</g>
</g>
<!-- workflow_model&#45;&gt;lib_library -->
<g id="edge6" class="edge">
<title>workflow_model:w&#45;&gt;lib_library:e</title>
<path fill="none" stroke="black" d="M277.53,-261.52C264.15,-275.13 268.5,-308.63 243,-308.63"/>
<polygon fill="black" stroke="black" points="284.24,-258.91 293,-259.35 288.27,-257.33 291.38,-256.12 291.38,-256.12 291.38,-256.12 288.27,-257.33 290.38,-252.64 284.24,-258.91"/>
<ellipse fill="none" stroke="black" cx="279.65" cy="-260.69" rx="3.2" ry="3.2"/>
</g>
<!-- lot_lot -->
<g id="node3" class="node">
<title>lot_lot</title>
<g id="a_node3"><a xlink:href="../../tables/lot_lot.html" xlink:title="lot_lot" target="_top">
<polygon fill="#ffffff" stroke="none" points="887.25,-168.63 887.25,-583.13 1131.25,-583.13 1131.25,-168.63 887.25,-168.63"/>
<polygon fill="#f5f5f5" stroke="none" points="887.25,-559.63 887.25,-583.13 1131.25,-583.13 1131.25,-559.63 887.25,-559.63"/>
<polygon fill="none" stroke="black" points="887.25,-559.63 887.25,-583.13 1131.25,-583.13 1131.25,-559.63 887.25,-559.63"/>
<text text-anchor="start" x="892.12" y="-568.68" font-family="Helvetica,sans-Serif" font-weight="bold" font-size="11.00">lot_lot</text>
<text text-anchor="start" x="1089.5" y="-567.68" font-family="Helvetica,sans-Serif" font-size="11.00">[table]</text>
<polygon fill="none" stroke="black" points="887.25,-537.63 887.25,-559.63 1131.25,-559.63 1131.25,-537.63 887.25,-537.63"/>
<image xlink:href="../../images/primaryKeys.png" width="11px" height="12px" preserveAspectRatio="xMinYMin meet" x="892.25" y="-554.627"/>
<text text-anchor="start" x="907.25" y="-544.18" font-family="Helvetica,sans-Serif" font-size="11.00">identifier</text>
<polygon fill="#ffffff" stroke="none" points="887.25,-515.63 887.25,-537.63 1131.25,-537.63 1131.25,-515.63 887.25,-515.63"/>
<polygon fill="none" stroke="black" points="887.25,-515.63 887.25,-537.63 1131.25,-537.63 1131.25,-515.63 887.25,-515.63"/>
<text text-anchor="start" x="907.25" y="-522.18" font-family="Helvetica,sans-Serif" font-size="11.00">code</text>
<polygon fill="#ffffff" stroke="none" points="887.25,-493.63 887.25,-515.63 1131.25,-515.63 1131.25,-493.63 887.25,-493.63"/>
<polygon fill="none" stroke="black" points="887.25,-493.63 887.25,-515.63 1131.25,-515.63 1131.25,-493.63 887.25,-493.63"/>
<image xlink:href="../../images/foreignKeys.png" width="11px" height="12px" preserveAspectRatio="xMinYMin meet" x="892.25" y="-510.627"/>
<text text-anchor="start" x="907.25" y="-500.18" font-family="Helvetica,sans-Serif" font-size="11.00">project</text>
<polygon fill="#ffffff" stroke="none" points="887.25,-471.63 887.25,-493.63 1131.25,-493.63 1131.25,-471.63 887.25,-471.63"/>
<polygon fill="none" stroke="black" points="887.25,-471.63 887.25,-493.63 1131.25,-493.63 1131.25,-471.63 887.25,-471.63"/>
<image xlink:href="../../images/foreignKeys.png" width="11px" height="12px" preserveAspectRatio="xMinYMin meet" x="892.25" y="-488.627"/>
<text text-anchor="start" x="907.25" y="-478.18" font-family="Helvetica,sans-Serif" font-size="11.00">active_configuration_ftp</text>
<polygon fill="#ffffff" stroke="none" points="887.25,-449.63 887.25,-471.63 1131.25,-471.63 1131.25,-449.63 887.25,-449.63"/>
<polygon fill="none" stroke="black" points="887.25,-449.63 887.25,-471.63 1131.25,-471.63 1131.25,-449.63 887.25,-449.63"/>
<image xlink:href="../../images/foreignKeys.png" width="11px" height="12px" preserveAspectRatio="xMinYMin meet" x="892.25" y="-466.627"/>
<text text-anchor="start" x="907.25" y="-456.18" font-family="Helvetica,sans-Serif" font-size="11.00">active_configuration_check</text>
<polygon fill="#ffffff" stroke="none" points="887.25,-427.63 887.25,-449.63 1131.25,-449.63 1131.25,-427.63 887.25,-427.63"/>
<polygon fill="none" stroke="black" points="887.25,-427.63 887.25,-449.63 1131.25,-449.63 1131.25,-427.63 887.25,-427.63"/>
<image xlink:href="../../images/foreignKeys.png" width="11px" height="12px" preserveAspectRatio="xMinYMin meet" x="892.25" y="-444.627"/>
<text text-anchor="start" x="907.25" y="-434.18" font-family="Helvetica,sans-Serif" font-size="11.00">provider</text>
<polygon fill="#ffffff" stroke="none" points="887.25,-405.63 887.25,-427.63 1131.25,-427.63 1131.25,-405.63 887.25,-405.63"/>
<polygon fill="none" stroke="black" points="887.25,-405.63 887.25,-427.63 1131.25,-427.63 1131.25,-405.63 887.25,-405.63"/>
<image xlink:href="../../images/foreignKeys.png" width="11px" height="12px" preserveAspectRatio="xMinYMin meet" x="892.25" y="-422.627"/>
<text text-anchor="start" x="907.25" y="-412.18" font-family="Helvetica,sans-Serif" font-size="11.00">collection_omeka</text>
<polygon fill="#ffffff" stroke="none" points="887.25,-383.63 887.25,-405.63 1131.25,-405.63 1131.25,-383.63 887.25,-383.63"/>
<polygon fill="none" stroke="black" points="887.25,-383.63 887.25,-405.63 1131.25,-405.63 1131.25,-383.63 887.25,-383.63"/>
<image xlink:href="../../images/foreignKeys.png" width="11px" height="12px" preserveAspectRatio="xMinYMin meet" x="892.25" y="-400.627"/>
<text text-anchor="start" x="907.25" y="-390.18" font-family="Helvetica,sans-Serif" font-size="11.00">items_omeka</text>
<polygon fill="#ffffff" stroke="none" points="887.25,-361.63 887.25,-383.63 1131.25,-383.63 1131.25,-361.63 887.25,-361.63"/>
<polygon fill="none" stroke="black" points="887.25,-361.63 887.25,-383.63 1131.25,-383.63 1131.25,-361.63 887.25,-361.63"/>
<image xlink:href="../../images/foreignKeys.png" width="11px" height="12px" preserveAspectRatio="xMinYMin meet" x="892.25" y="-378.627"/>
<text text-anchor="start" x="907.25" y="-368.18" font-family="Helvetica,sans-Serif" font-size="11.00">active_configuration_export_ftp</text>
<polygon fill="#ffffff" stroke="none" points="887.25,-339.63 887.25,-361.63 1131.25,-361.63 1131.25,-339.63 887.25,-339.63"/>
<polygon fill="none" stroke="black" points="887.25,-339.63 887.25,-361.63 1131.25,-361.63 1131.25,-339.63 887.25,-339.63"/>
<image xlink:href="../../images/foreignKeys.png" width="11px" height="12px" preserveAspectRatio="xMinYMin meet" x="892.25" y="-356.627"/>
<text text-anchor="start" x="907.25" y="-346.18" font-family="Helvetica,sans-Serif" font-size="11.00">active_ocr_lang</text>
<polygon fill="#ffffff" stroke="none" points="887.25,-317.63 887.25,-339.63 1131.25,-339.63 1131.25,-317.63 887.25,-317.63"/>
<polygon fill="none" stroke="black" points="887.25,-317.63 887.25,-339.63 1131.25,-339.63 1131.25,-317.63 887.25,-317.63"/>
<image xlink:href="../../images/foreignKeys.png" width="11px" height="12px" preserveAspectRatio="xMinYMin meet" x="892.25" y="-334.627"/>
<text text-anchor="start" x="907.25" y="-324.18" font-family="Helvetica,sans-Serif" font-size="11.00">collection_ia</text>
<polygon fill="#ffffff" stroke="none" points="887.25,-295.63 887.25,-317.63 1131.25,-317.63 1131.25,-295.63 887.25,-295.63"/>
<polygon fill="none" stroke="black" points="887.25,-295.63 887.25,-317.63 1131.25,-317.63 1131.25,-295.63 887.25,-295.63"/>
<image xlink:href="../../images/foreignKeys.png" width="11px" height="12px" preserveAspectRatio="xMinYMin meet" x="892.25" y="-312.627"/>
<text text-anchor="start" x="907.25" y="-302.18" font-family="Helvetica,sans-Serif" font-size="11.00">classement_pac</text>
<polygon fill="#ffffff" stroke="none" points="887.25,-273.63 887.25,-295.63 1131.25,-295.63 1131.25,-273.63 887.25,-273.63"/>
<polygon fill="none" stroke="black" points="887.25,-273.63 887.25,-295.63 1131.25,-295.63 1131.25,-273.63 887.25,-273.63"/>
<image xlink:href="../../images/foreignKeys.png" width="11px" height="12px" preserveAspectRatio="xMinYMin meet" x="892.25" y="-290.627"/>
<text text-anchor="start" x="907.25" y="-280.18" font-family="Helvetica,sans-Serif" font-size="11.00">workflow_model</text>
<polygon fill="#ffffff" stroke="none" points="887.25,-251.63 887.25,-273.63 1131.25,-273.63 1131.25,-251.63 887.25,-251.63"/>
<polygon fill="none" stroke="black" points="887.25,-251.63 887.25,-273.63 1131.25,-273.63 1131.25,-251.63 887.25,-251.63"/>
<image xlink:href="../../images/foreignKeys.png" width="11px" height="12px" preserveAspectRatio="xMinYMin meet" x="892.25" y="-268.627"/>
<text text-anchor="start" x="907.25" y="-258.18" font-family="Helvetica,sans-Serif" font-size="11.00">active_format_configuration</text>
<polygon fill="#ffffff" stroke="none" points="887.25,-229.63 887.25,-251.63 1131.25,-251.63 1131.25,-229.63 887.25,-229.63"/>
<polygon fill="none" stroke="black" points="887.25,-229.63 887.25,-251.63 1131.25,-251.63 1131.25,-229.63 887.25,-229.63"/>
<image xlink:href="../../images/foreignKeys.png" width="11px" height="12px" preserveAspectRatio="xMinYMin meet" x="892.25" y="-246.627"/>
<text text-anchor="start" x="907.25" y="-236.18" font-family="Helvetica,sans-Serif" font-size="11.00">omeka_configuration</text>
<polygon fill="#ffffff" stroke="none" points="887.25,-207.63 887.25,-229.63 1131.25,-229.63 1131.25,-207.63 887.25,-207.63"/>
<polygon fill="none" stroke="black" points="887.25,-207.63 887.25,-229.63 1131.25,-229.63 1131.25,-207.63 887.25,-207.63"/>
<image xlink:href="../../images/foreignKeys.png" width="11px" height="12px" preserveAspectRatio="xMinYMin meet" x="892.25" y="-224.627"/>
<text text-anchor="start" x="907.25" y="-214.18" font-family="Helvetica,sans-Serif" font-size="11.00">active_export_ftp_delivery_folder</text>
<polygon fill="none" stroke="black" points="887.25,-188.13 887.25,-207.63 1131.25,-207.63 1131.25,-188.13 887.25,-188.13"/>
<text text-anchor="start" x="890.25" y="-194.18" font-family="Helvetica,sans-Serif" font-size="11.00">...</text>
<polygon fill="#ffffff" stroke="none" points="887.25,-168.63 887.25,-188.13 977.08,-188.13 977.08,-168.63 887.25,-168.63"/>
<polygon fill="none" stroke="black" points="887.25,-168.63 887.25,-188.13 977.08,-188.13 977.08,-168.63 887.25,-168.63"/>
<text text-anchor="start" x="890.25" y="-174.68" font-family="Helvetica,sans-Serif" font-size="11.00">&lt; 14</text>
<polygon fill="#ffffff" stroke="none" points="977.08,-168.63 977.08,-188.13 1048.17,-188.13 1048.17,-168.63 977.08,-168.63"/>
<polygon fill="none" stroke="black" points="977.08,-168.63 977.08,-188.13 1048.17,-188.13 1048.17,-168.63 977.08,-168.63"/>
<text text-anchor="start" x="1037.67" y="-174.68" font-family="Helvetica,sans-Serif" font-size="11.00"> &#160;</text>
<polygon fill="#ffffff" stroke="none" points="1048.17,-168.63 1048.17,-188.13 1131.25,-188.13 1131.25,-168.63 1048.17,-168.63"/>
<polygon fill="none" stroke="black" points="1048.17,-168.63 1048.17,-188.13 1131.25,-188.13 1131.25,-168.63 1048.17,-168.63"/>
<text text-anchor="start" x="1108.75" y="-174.68" font-family="Helvetica,sans-Serif" font-size="11.00">4 &gt;</text>
</a>
</g>
</g>
<!-- lot_lot&#45;&gt;workflow_model -->
<g id="edge3" class="edge">
<title>lot_lot:w&#45;&gt;workflow_model:e</title>
<path fill="none" stroke="black" d="M870.81,-282.74C812.66,-265.93 910.34,-141.19 846.25,-88.88 756.73,-15.8 676.77,-17.05 586.25,-88.88 510.81,-148.73 633.3,-299.88 537,-299.88"/>
<polygon fill="black" stroke="black" points="877.98,-283.62 885.48,-288.16 882.28,-284.14 885.59,-284.55 885.59,-284.55 885.59,-284.55 882.28,-284.14 886.35,-281.01 877.98,-283.62"/>
<ellipse fill="none" stroke="black" cx="873.09" cy="-283.02" rx="3.2" ry="3.2"/>
</g>
<!-- proj_project -->
<g id="node4" class="node">
<title>proj_project</title>
<g id="a_node4"><a xlink:href="../../tables/proj_project.html" xlink:title="proj_project" target="_top">
<polygon fill="#ffffff" stroke="none" points="594.25,-377.63 594.25,-748.13 838.25,-748.13 838.25,-377.63 594.25,-377.63"/>
<polygon fill="#f5f5f5" stroke="none" points="594.25,-724.63 594.25,-748.13 838.25,-748.13 838.25,-724.63 594.25,-724.63"/>
<polygon fill="none" stroke="black" points="594.25,-724.63 594.25,-748.13 838.25,-748.13 838.25,-724.63 594.25,-724.63"/>
<text text-anchor="start" x="599.25" y="-733.68" font-family="Helvetica,sans-Serif" font-weight="bold" font-size="11.00">proj_project</text>
<text text-anchor="start" x="796.5" y="-732.68" font-family="Helvetica,sans-Serif" font-size="11.00">[table]</text>
<polygon fill="none" stroke="black" points="594.25,-702.63 594.25,-724.63 838.25,-724.63 838.25,-702.63 594.25,-702.63"/>
<image xlink:href="../../images/primaryKeys.png" width="11px" height="12px" preserveAspectRatio="xMinYMin meet" x="599.25" y="-719.627"/>
<text text-anchor="start" x="614.25" y="-709.18" font-family="Helvetica,sans-Serif" font-size="11.00">identifier</text>
<polygon fill="#ffffff" stroke="none" points="594.25,-680.63 594.25,-702.63 838.25,-702.63 838.25,-680.63 594.25,-680.63"/>
<polygon fill="none" stroke="black" points="594.25,-680.63 594.25,-702.63 838.25,-702.63 838.25,-680.63 594.25,-680.63"/>
<image xlink:href="../../images/foreignKeys.png" width="11px" height="12px" preserveAspectRatio="xMinYMin meet" x="599.25" y="-697.627"/>
<text text-anchor="start" x="614.25" y="-687.18" font-family="Helvetica,sans-Serif" font-size="11.00">library</text>
<polygon fill="#ffffff" stroke="none" points="594.25,-658.63 594.25,-680.63 838.25,-680.63 838.25,-658.63 594.25,-658.63"/>
<polygon fill="none" stroke="black" points="594.25,-658.63 594.25,-680.63 838.25,-680.63 838.25,-658.63 594.25,-658.63"/>
<image xlink:href="../../images/foreignKeys.png" width="11px" height="12px" preserveAspectRatio="xMinYMin meet" x="599.25" y="-675.627"/>
<text text-anchor="start" x="614.25" y="-665.18" font-family="Helvetica,sans-Serif" font-size="11.00">active_configuration_ftp</text>
<polygon fill="#ffffff" stroke="none" points="594.25,-636.63 594.25,-658.63 838.25,-658.63 838.25,-636.63 594.25,-636.63"/>
<polygon fill="none" stroke="black" points="594.25,-636.63 594.25,-658.63 838.25,-658.63 838.25,-636.63 594.25,-636.63"/>
<image xlink:href="../../images/foreignKeys.png" width="11px" height="12px" preserveAspectRatio="xMinYMin meet" x="599.25" y="-653.627"/>
<text text-anchor="start" x="614.25" y="-643.18" font-family="Helvetica,sans-Serif" font-size="11.00">active_configuration_check</text>
<polygon fill="#ffffff" stroke="none" points="594.25,-614.63 594.25,-636.63 838.25,-636.63 838.25,-614.63 594.25,-614.63"/>
<polygon fill="none" stroke="black" points="594.25,-614.63 594.25,-636.63 838.25,-636.63 838.25,-614.63 594.25,-614.63"/>
<image xlink:href="../../images/foreignKeys.png" width="11px" height="12px" preserveAspectRatio="xMinYMin meet" x="599.25" y="-631.627"/>
<text text-anchor="start" x="614.25" y="-621.18" font-family="Helvetica,sans-Serif" font-size="11.00">provider</text>
<polygon fill="#ffffff" stroke="none" points="594.25,-592.63 594.25,-614.63 838.25,-614.63 838.25,-592.63 594.25,-592.63"/>
<polygon fill="none" stroke="black" points="594.25,-592.63 594.25,-614.63 838.25,-614.63 838.25,-592.63 594.25,-592.63"/>
<image xlink:href="../../images/foreignKeys.png" width="11px" height="12px" preserveAspectRatio="xMinYMin meet" x="599.25" y="-609.627"/>
<text text-anchor="start" x="614.25" y="-599.18" font-family="Helvetica,sans-Serif" font-size="11.00">collection_omeka</text>
<polygon fill="#ffffff" stroke="none" points="594.25,-570.63 594.25,-592.63 838.25,-592.63 838.25,-570.63 594.25,-570.63"/>
<polygon fill="none" stroke="black" points="594.25,-570.63 594.25,-592.63 838.25,-592.63 838.25,-570.63 594.25,-570.63"/>
<image xlink:href="../../images/foreignKeys.png" width="11px" height="12px" preserveAspectRatio="xMinYMin meet" x="599.25" y="-587.627"/>
<text text-anchor="start" x="614.25" y="-577.18" font-family="Helvetica,sans-Serif" font-size="11.00">items_omeka</text>
<polygon fill="#ffffff" stroke="none" points="594.25,-548.63 594.25,-570.63 838.25,-570.63 838.25,-548.63 594.25,-548.63"/>
<polygon fill="none" stroke="black" points="594.25,-548.63 594.25,-570.63 838.25,-570.63 838.25,-548.63 594.25,-548.63"/>
<image xlink:href="../../images/foreignKeys.png" width="11px" height="12px" preserveAspectRatio="xMinYMin meet" x="599.25" y="-565.627"/>
<text text-anchor="start" x="614.25" y="-555.18" font-family="Helvetica,sans-Serif" font-size="11.00">active_configuration_export_ftp</text>
<polygon fill="#ffffff" stroke="none" points="594.25,-526.63 594.25,-548.63 838.25,-548.63 838.25,-526.63 594.25,-526.63"/>
<polygon fill="none" stroke="black" points="594.25,-526.63 594.25,-548.63 838.25,-548.63 838.25,-526.63 594.25,-526.63"/>
<image xlink:href="../../images/foreignKeys.png" width="11px" height="12px" preserveAspectRatio="xMinYMin meet" x="599.25" y="-543.627"/>
<text text-anchor="start" x="614.25" y="-533.18" font-family="Helvetica,sans-Serif" font-size="11.00">collection_ia</text>
<polygon fill="#ffffff" stroke="none" points="594.25,-504.63 594.25,-526.63 838.25,-526.63 838.25,-504.63 594.25,-504.63"/>
<polygon fill="none" stroke="black" points="594.25,-504.63 594.25,-526.63 838.25,-526.63 838.25,-504.63 594.25,-504.63"/>
<image xlink:href="../../images/foreignKeys.png" width="11px" height="12px" preserveAspectRatio="xMinYMin meet" x="599.25" y="-521.627"/>
<text text-anchor="start" x="614.25" y="-511.18" font-family="Helvetica,sans-Serif" font-size="11.00">classement_pac</text>
<polygon fill="#ffffff" stroke="none" points="594.25,-482.63 594.25,-504.63 838.25,-504.63 838.25,-482.63 594.25,-482.63"/>
<polygon fill="none" stroke="black" points="594.25,-482.63 594.25,-504.63 838.25,-504.63 838.25,-482.63 594.25,-482.63"/>
<image xlink:href="../../images/foreignKeys.png" width="11px" height="12px" preserveAspectRatio="xMinYMin meet" x="599.25" y="-499.627"/>
<text text-anchor="start" x="614.25" y="-489.18" font-family="Helvetica,sans-Serif" font-size="11.00">workflow_model</text>
<polygon fill="#ffffff" stroke="none" points="594.25,-460.63 594.25,-482.63 838.25,-482.63 838.25,-460.63 594.25,-460.63"/>
<polygon fill="none" stroke="black" points="594.25,-460.63 594.25,-482.63 838.25,-482.63 838.25,-460.63 594.25,-460.63"/>
<image xlink:href="../../images/foreignKeys.png" width="11px" height="12px" preserveAspectRatio="xMinYMin meet" x="599.25" y="-477.627"/>
<text text-anchor="start" x="614.25" y="-467.18" font-family="Helvetica,sans-Serif" font-size="11.00">active_format_configuration</text>
<polygon fill="#ffffff" stroke="none" points="594.25,-438.63 594.25,-460.63 838.25,-460.63 838.25,-438.63 594.25,-438.63"/>
<polygon fill="none" stroke="black" points="594.25,-438.63 594.25,-460.63 838.25,-460.63 838.25,-438.63 594.25,-438.63"/>
<image xlink:href="../../images/foreignKeys.png" width="11px" height="12px" preserveAspectRatio="xMinYMin meet" x="599.25" y="-455.627"/>
<text text-anchor="start" x="614.25" y="-445.18" font-family="Helvetica,sans-Serif" font-size="11.00">omeka_configuration</text>
<polygon fill="#ffffff" stroke="none" points="594.25,-416.63 594.25,-438.63 838.25,-438.63 838.25,-416.63 594.25,-416.63"/>
<polygon fill="none" stroke="black" points="594.25,-416.63 594.25,-438.63 838.25,-438.63 838.25,-416.63 594.25,-416.63"/>
<image xlink:href="../../images/foreignKeys.png" width="11px" height="12px" preserveAspectRatio="xMinYMin meet" x="599.25" y="-433.627"/>
<text text-anchor="start" x="614.25" y="-423.18" font-family="Helvetica,sans-Serif" font-size="11.00">active_export_ftp_delivery_folder</text>
<polygon fill="none" stroke="black" points="594.25,-397.13 594.25,-416.63 838.25,-416.63 838.25,-397.13 594.25,-397.13"/>
<text text-anchor="start" x="597.25" y="-403.18" font-family="Helvetica,sans-Serif" font-size="11.00">...</text>
<polygon fill="#ffffff" stroke="none" points="594.25,-377.63 594.25,-397.13 684.08,-397.13 684.08,-377.63 594.25,-377.63"/>
<polygon fill="none" stroke="black" points="594.25,-377.63 594.25,-397.13 684.08,-397.13 684.08,-377.63 594.25,-377.63"/>
<text text-anchor="start" x="597.25" y="-383.68" font-family="Helvetica,sans-Serif" font-size="11.00">&lt; 13</text>
<polygon fill="#ffffff" stroke="none" points="684.08,-377.63 684.08,-397.13 755.17,-397.13 755.17,-377.63 684.08,-377.63"/>
<polygon fill="none" stroke="black" points="684.08,-377.63 684.08,-397.13 755.17,-397.13 755.17,-377.63 684.08,-377.63"/>
<text text-anchor="start" x="744.67" y="-383.68" font-family="Helvetica,sans-Serif" font-size="11.00"> &#160;</text>
<polygon fill="#ffffff" stroke="none" points="755.17,-377.63 755.17,-397.13 838.25,-397.13 838.25,-377.63 755.17,-377.63"/>
<polygon fill="none" stroke="black" points="755.17,-377.63 755.17,-397.13 838.25,-397.13 838.25,-377.63 755.17,-377.63"/>
<text text-anchor="start" x="815.75" y="-383.68" font-family="Helvetica,sans-Serif" font-size="11.00">7 &gt;</text>
</a>
</g>
</g>
<!-- lot_lot&#45;&gt;proj_project -->
<g id="edge2" class="edge">
<title>lot_lot:w&#45;&gt;proj_project:e</title>
<path fill="none" stroke="black" d="M870.69,-507.12C808.54,-530.7 928.32,-713.63 839.25,-713.63"/>
<polygon fill="black" stroke="black" points="878.02,-505.94 886.49,-508.23 882.3,-505.26 885.59,-504.73 885.59,-504.73 885.59,-504.73 882.3,-505.26 885.35,-501.12 878.02,-505.94"/>
<ellipse fill="none" stroke="black" cx="873.16" cy="-506.72" rx="3.2" ry="3.2"/>
</g>
<!-- proj_project&#45;&gt;workflow_model -->
<g id="edge5" class="edge">
<title>proj_project:w&#45;&gt;workflow_model:e</title>
<path fill="none" stroke="black" d="M577.71,-491.03C519.42,-468.04 620.54,-299.88 537,-299.88"/>
<polygon fill="black" stroke="black" points="585.03,-492.26 592.33,-497.12 589.3,-492.97 592.59,-493.52 592.59,-493.52 592.59,-493.52 589.3,-492.97 593.51,-490.02 585.03,-492.26"/>
<ellipse fill="none" stroke="black" cx="580.18" cy="-491.45" rx="3.2" ry="3.2"/>
</g>
<!-- proj_project&#45;&gt;lib_library -->
<g id="edge4" class="edge">
<title>proj_project:w&#45;&gt;lib_library:e</title>
<path fill="none" stroke="black" d="M581.21,-681.77C520.12,-621.83 256.04,-308.63 243,-308.63"/>
<polygon fill="black" stroke="black" points="586.8,-686.35 590.71,-694.2 590.15,-689.09 592.73,-691.2 592.73,-691.2 592.73,-691.2 590.15,-689.09 595.27,-688.63 586.8,-686.35"/>
<ellipse fill="none" stroke="black" cx="582.99" cy="-683.23" rx="3.2" ry="3.2"/>
</g>
<!-- workflow_model_state -->
<g id="node6" class="node">
<title>workflow_model_state</title>
<g id="a_node6"><a xlink:href="../../tables/workflow_model_state.html" xlink:title="workflow_model_state" target="_top">
<polygon fill="#ffffff" stroke="none" points="617.88,-99.63 617.88,-228.13 814.62,-228.13 814.62,-99.63 617.88,-99.63"/>
<polygon fill="#f5f5f5" stroke="none" points="617.88,-204.63 617.88,-228.13 814.62,-228.13 814.62,-204.63 617.88,-204.63"/>
<polygon fill="none" stroke="black" points="617.88,-204.63 617.88,-228.13 814.62,-228.13 814.62,-204.63 617.88,-204.63"/>
<text text-anchor="start" x="622.88" y="-213.68" font-family="Helvetica,sans-Serif" font-weight="bold" font-size="11.00">workflow_model_state</text>
<text text-anchor="start" x="772.88" y="-212.68" font-family="Helvetica,sans-Serif" font-size="11.00">[table]</text>
<polygon fill="none" stroke="black" points="617.88,-182.63 617.88,-204.63 814.62,-204.63 814.62,-182.63 617.88,-182.63"/>
<image xlink:href="../../images/primaryKeys.png" width="11px" height="12px" preserveAspectRatio="xMinYMin meet" x="622.875" y="-199.627"/>
<text text-anchor="start" x="650.75" y="-189.18" font-family="Helvetica,sans-Serif" font-size="11.00">identifier</text>
<polygon fill="#ffffff" stroke="none" points="617.88,-160.63 617.88,-182.63 814.62,-182.63 814.62,-160.63 617.88,-160.63"/>
<polygon fill="none" stroke="black" points="617.88,-160.63 617.88,-182.63 814.62,-182.63 814.62,-160.63 617.88,-160.63"/>
<image xlink:href="../../images/foreignKeys.png" width="11px" height="12px" preserveAspectRatio="xMinYMin meet" x="622.875" y="-177.627"/>
<text text-anchor="start" x="650.75" y="-167.18" font-family="Helvetica,sans-Serif" font-size="11.00">group</text>
<polygon fill="#ffffff" stroke="none" points="617.88,-138.63 617.88,-160.63 814.62,-160.63 814.62,-138.63 617.88,-138.63"/>
<polygon fill="none" stroke="black" points="617.88,-138.63 617.88,-160.63 814.62,-160.63 814.62,-138.63 617.88,-138.63"/>
<image xlink:href="../../images/foreignKeys.png" width="11px" height="12px" preserveAspectRatio="xMinYMin meet" x="622.875" y="-155.627"/>
<text text-anchor="start" x="650.75" y="-145.18" font-family="Helvetica,sans-Serif" font-size="11.00">model</text>
<polygon fill="none" stroke="black" points="617.88,-119.13 617.88,-138.63 814.62,-138.63 814.62,-119.13 617.88,-119.13"/>
<text text-anchor="start" x="620.88" y="-125.18" font-family="Helvetica,sans-Serif" font-size="11.00">...</text>
<polygon fill="#ffffff" stroke="none" points="617.88,-99.63 617.88,-119.13 687.46,-119.13 687.46,-99.63 617.88,-99.63"/>
<polygon fill="none" stroke="black" points="617.88,-99.63 617.88,-119.13 687.46,-119.13 687.46,-99.63 617.88,-99.63"/>
<text text-anchor="start" x="620.88" y="-105.68" font-family="Helvetica,sans-Serif" font-size="11.00">&lt; 2</text>
<polygon fill="#ffffff" stroke="none" points="687.46,-99.63 687.46,-119.13 745.04,-119.13 745.04,-99.63 687.46,-99.63"/>
<polygon fill="none" stroke="black" points="687.46,-99.63 687.46,-119.13 745.04,-119.13 745.04,-99.63 687.46,-99.63"/>
<text text-anchor="start" x="734.54" y="-105.68" font-family="Helvetica,sans-Serif" font-size="11.00"> &#160;</text>
<polygon fill="#ffffff" stroke="none" points="745.04,-99.63 745.04,-119.13 814.62,-119.13 814.62,-99.63 745.04,-99.63"/>
<polygon fill="none" stroke="black" points="745.04,-99.63 745.04,-119.13 814.62,-119.13 814.62,-99.63 745.04,-99.63"/>
<text text-anchor="start" x="792.12" y="-105.68" font-family="Helvetica,sans-Serif" font-size="11.00">1 &gt;</text>
</a>
</g>
</g>
<!-- workflow_model_state&#45;&gt;workflow_model -->
<g id="edge7" class="edge">
<title>workflow_model_state:w&#45;&gt;workflow_model:e</title>
<path fill="none" stroke="black" d="M601.38,-152.36C551.74,-172.73 606.57,-299.88 537,-299.88"/>
<polygon fill="black" stroke="black" points="608.67,-151.08 617.17,-153.23 612.94,-150.32 616.22,-149.74 616.22,-149.74 616.22,-149.74 612.94,-150.32 615.92,-146.14 608.67,-151.08"/>
<ellipse fill="none" stroke="black" cx="603.82" cy="-151.93" rx="3.2" ry="3.2"/>
</g>
</g>
</svg>
