<?xml version="1.0" encoding="UTF-8" standalone="no"?>
<!DOCTYPE svg PUBLIC "-//W3C//DTD SVG 1.1//EN"
 "http://www.w3.org/Graphics/SVG/1.1/DTD/svg11.dtd">
<!-- Generated by graphviz version 12.2.0 (0)
 -->
<!-- Title: twoDegreesRelationshipsDiagram Pages: 1 -->
<svg width="1108pt" height="443pt"
 viewBox="0.00 0.00 1108.00 443.24" xmlns="http://www.w3.org/2000/svg" xmlns:xlink="http://www.w3.org/1999/xlink">
<g id="graph0" class="graph" transform="scale(1 1) rotate(0) translate(4 439.24)">
<title>twoDegreesRelationshipsDiagram</title>
<polygon fill="#ffffff" stroke="none" points="-4,4 -4,-439.24 1104,-439.24 1104,4 -4,4"/>
<text text-anchor="middle" x="79.25" y="-7.05" font-family="Helvetica,sans-Serif" font-size="11.00">Generated by SchemaSpy</text>
<!-- lib_library -->
<g id="node1" class="node">
<title>lib_library</title>
<g id="a_node1"><a xlink:href="../../tables/lib_library.html" xlink:title="lib_library" target="_top">
<polygon fill="#ffffff" stroke="none" points="212.75,-168.74 212.75,-231.24 326.5,-231.24 326.5,-168.74 212.75,-168.74"/>
<polygon fill="#f5f5f5" stroke="none" points="212.75,-207.74 212.75,-231.24 326.5,-231.24 326.5,-207.74 212.75,-207.74"/>
<polygon fill="none" stroke="black" points="212.75,-207.74 212.75,-231.24 326.5,-231.24 326.5,-207.74 212.75,-207.74"/>
<text text-anchor="start" x="217.75" y="-216.79" font-family="Helvetica,sans-Serif" font-weight="bold" font-size="11.00">lib_library</text>
<text text-anchor="start" x="284.75" y="-215.79" font-family="Helvetica,sans-Serif" font-size="11.00">[table]</text>
<polygon fill="none" stroke="black" points="212.75,-188.24 212.75,-207.74 326.5,-207.74 326.5,-188.24 212.75,-188.24"/>
<text text-anchor="start" x="215.75" y="-194.29" font-family="Helvetica,sans-Serif" font-size="11.00">...</text>
<polygon fill="#ffffff" stroke="none" points="212.75,-168.74 212.75,-188.24 252.42,-188.24 252.42,-168.74 212.75,-168.74"/>
<polygon fill="none" stroke="black" points="212.75,-168.74 212.75,-188.24 252.42,-188.24 252.42,-168.74 212.75,-168.74"/>
<text text-anchor="start" x="215.75" y="-174.79" font-family="Helvetica,sans-Serif" font-size="11.00">&lt; 6</text>
<polygon fill="#ffffff" stroke="none" points="252.42,-168.74 252.42,-188.24 280.08,-188.24 280.08,-168.74 252.42,-168.74"/>
<polygon fill="none" stroke="black" points="252.42,-168.74 252.42,-188.24 280.08,-188.24 280.08,-168.74 252.42,-168.74"/>
<text text-anchor="start" x="269.58" y="-174.79" font-family="Helvetica,sans-Serif" font-size="11.00"> &#160;</text>
<polygon fill="#ffffff" stroke="none" points="280.08,-168.74 280.08,-188.24 326.5,-188.24 326.5,-168.74 280.08,-168.74"/>
<polygon fill="none" stroke="black" points="280.08,-168.74 280.08,-188.24 326.5,-188.24 326.5,-168.74 280.08,-168.74"/>
<text text-anchor="start" x="297.25" y="-174.79" font-family="Helvetica,sans-Serif" font-size="11.00">27 &gt;</text>
</a>
</g>
</g>
<!-- user_address -->
<g id="node2" class="node">
<title>user_address</title>
<g id="a_node2"><a xlink:href="../../tables/user_address.html" xlink:title="user_address" target="_top">
<polygon fill="#ffffff" stroke="none" points="8,-86.74 8,-149.24 143.75,-149.24 143.75,-86.74 8,-86.74"/>
<polygon fill="#f5f5f5" stroke="none" points="8,-125.74 8,-149.24 143.75,-149.24 143.75,-125.74 8,-125.74"/>
<polygon fill="none" stroke="black" points="8,-125.74 8,-149.24 143.75,-149.24 143.75,-125.74 8,-125.74"/>
<text text-anchor="start" x="13" y="-134.79" font-family="Helvetica,sans-Serif" font-weight="bold" font-size="11.00">user_address</text>
<text text-anchor="start" x="102" y="-133.79" font-family="Helvetica,sans-Serif" font-size="11.00">[table]</text>
<polygon fill="none" stroke="black" points="8,-106.24 8,-125.74 143.75,-125.74 143.75,-106.24 8,-106.24"/>
<text text-anchor="start" x="11" y="-112.29" font-family="Helvetica,sans-Serif" font-size="11.00">...</text>
<polygon fill="#ffffff" stroke="none" points="8,-86.74 8,-106.24 49.25,-106.24 49.25,-86.74 8,-86.74"/>
<polygon fill="none" stroke="black" points="8,-86.74 8,-106.24 49.25,-106.24 49.25,-86.74 8,-86.74"/>
<text text-anchor="start" x="11" y="-92.79" font-family="Helvetica,sans-Serif" font-size="11.00"> &#160;</text>
<polygon fill="#ffffff" stroke="none" points="49.25,-86.74 49.25,-106.24 90.5,-106.24 90.5,-86.74 49.25,-86.74"/>
<polygon fill="none" stroke="black" points="49.25,-86.74 49.25,-106.24 90.5,-106.24 90.5,-86.74 49.25,-86.74"/>
<text text-anchor="start" x="80" y="-92.79" font-family="Helvetica,sans-Serif" font-size="11.00"> &#160;</text>
<polygon fill="#ffffff" stroke="none" points="90.5,-86.74 90.5,-106.24 143.75,-106.24 143.75,-86.74 90.5,-86.74"/>
<polygon fill="none" stroke="black" points="90.5,-86.74 90.5,-106.24 143.75,-106.24 143.75,-86.74 90.5,-86.74"/>
<text text-anchor="start" x="121.25" y="-92.79" font-family="Helvetica,sans-Serif" font-size="11.00">2 &gt;</text>
</a>
</g>
</g>
<!-- lib_library&#45;&gt;user_address -->
<g id="edge1" class="edge">
<title>lib_library:w&#45;&gt;user_address:e</title>
<path fill="none" stroke="black" d="M196.58,-194.03C170.58,-177.65 185.56,-115.99 144.75,-115.99"/>
<polygon fill="black" stroke="black" points="203.68,-195.89 210.52,-201.39 207.88,-196.98 211.1,-197.82 211.1,-197.82 211.1,-197.82 207.88,-196.98 212.33,-194.42 203.68,-195.89"/>
<ellipse fill="none" stroke="black" cx="198.93" cy="-194.65" rx="3.2" ry="3.2"/>
</g>
<!-- user_role -->
<g id="node3" class="node">
<title>user_role</title>
<g id="a_node3"><a xlink:href="../../tables/user_role.html" xlink:title="user_role" target="_top">
<polygon fill="#ffffff" stroke="none" points="21.5,-196.74 21.5,-259.24 130.25,-259.24 130.25,-196.74 21.5,-196.74"/>
<polygon fill="#f5f5f5" stroke="none" points="21.5,-235.74 21.5,-259.24 130.25,-259.24 130.25,-235.74 21.5,-235.74"/>
<polygon fill="none" stroke="black" points="21.5,-235.74 21.5,-259.24 130.25,-259.24 130.25,-235.74 21.5,-235.74"/>
<text text-anchor="start" x="26.5" y="-244.79" font-family="Helvetica,sans-Serif" font-weight="bold" font-size="11.00">user_role</text>
<text text-anchor="start" x="88.5" y="-243.79" font-family="Helvetica,sans-Serif" font-size="11.00">[table]</text>
<polygon fill="none" stroke="black" points="21.5,-216.24 21.5,-235.74 130.25,-235.74 130.25,-216.24 21.5,-216.24"/>
<text text-anchor="start" x="24.5" y="-222.29" font-family="Helvetica,sans-Serif" font-size="11.00">...</text>
<polygon fill="#ffffff" stroke="none" points="21.5,-196.74 21.5,-216.24 53.75,-216.24 53.75,-196.74 21.5,-196.74"/>
<polygon fill="none" stroke="black" points="21.5,-196.74 21.5,-216.24 53.75,-216.24 53.75,-196.74 21.5,-196.74"/>
<text text-anchor="start" x="24.5" y="-202.79" font-family="Helvetica,sans-Serif" font-size="11.00"> &#160;</text>
<polygon fill="#ffffff" stroke="none" points="53.75,-196.74 53.75,-216.24 86,-216.24 86,-196.74 53.75,-196.74"/>
<polygon fill="none" stroke="black" points="53.75,-196.74 53.75,-216.24 86,-216.24 86,-196.74 53.75,-196.74"/>
<text text-anchor="start" x="75.5" y="-202.79" font-family="Helvetica,sans-Serif" font-size="11.00"> &#160;</text>
<polygon fill="#ffffff" stroke="none" points="86,-196.74 86,-216.24 130.25,-216.24 130.25,-196.74 86,-196.74"/>
<polygon fill="none" stroke="black" points="86,-196.74 86,-216.24 130.25,-216.24 130.25,-196.74 86,-196.74"/>
<text text-anchor="start" x="107.75" y="-202.79" font-family="Helvetica,sans-Serif" font-size="11.00">3 &gt;</text>
</a>
</g>
</g>
<!-- lib_library&#45;&gt;user_role -->
<g id="edge2" class="edge">
<title>lib_library:w&#45;&gt;user_role:e</title>
<path fill="none" stroke="black" d="M196.17,-199.83C171.58,-206.05 163.21,-225.99 131.25,-225.99"/>
<polygon fill="black" stroke="black" points="203.47,-198.96 211.84,-201.6 207.78,-198.46 211.09,-198.07 211.09,-198.07 211.09,-198.07 207.78,-198.46 211,-194.45 203.47,-198.96"/>
<ellipse fill="none" stroke="black" cx="198.59" cy="-199.54" rx="3.2" ry="3.2"/>
</g>
<!-- lot_lot -->
<g id="node4" class="node">
<title>lot_lot</title>
<g id="a_node4"><a xlink:href="../../tables/lot_lot.html" xlink:title="lot_lot" target="_top">
<polygon fill="#ffffff" stroke="none" points="966.25,-195.74 966.25,-258.24 1055,-258.24 1055,-195.74 966.25,-195.74"/>
<polygon fill="#f5f5f5" stroke="none" points="966.25,-234.74 966.25,-258.24 1055,-258.24 1055,-234.74 966.25,-234.74"/>
<polygon fill="none" stroke="black" points="966.25,-234.74 966.25,-258.24 1055,-258.24 1055,-234.74 966.25,-234.74"/>
<text text-anchor="start" x="971.12" y="-243.79" font-family="Helvetica,sans-Serif" font-weight="bold" font-size="11.00">lot_lot</text>
<text text-anchor="start" x="1013.25" y="-242.79" font-family="Helvetica,sans-Serif" font-size="11.00">[table]</text>
<polygon fill="none" stroke="black" points="966.25,-215.24 966.25,-234.74 1055,-234.74 1055,-215.24 966.25,-215.24"/>
<text text-anchor="start" x="969.25" y="-221.29" font-family="Helvetica,sans-Serif" font-size="11.00">...</text>
<polygon fill="#ffffff" stroke="none" points="966.25,-195.74 966.25,-215.24 1004.33,-215.24 1004.33,-195.74 966.25,-195.74"/>
<polygon fill="none" stroke="black" points="966.25,-195.74 966.25,-215.24 1004.33,-215.24 1004.33,-195.74 966.25,-195.74"/>
<text text-anchor="start" x="969.25" y="-201.79" font-family="Helvetica,sans-Serif" font-size="11.00">&lt; 14</text>
<polygon fill="#ffffff" stroke="none" points="1004.33,-195.74 1004.33,-215.24 1023.67,-215.24 1023.67,-195.74 1004.33,-195.74"/>
<polygon fill="none" stroke="black" points="1004.33,-195.74 1004.33,-215.24 1023.67,-215.24 1023.67,-195.74 1004.33,-195.74"/>
<text text-anchor="start" x="1013.17" y="-201.79" font-family="Helvetica,sans-Serif" font-size="11.00"> &#160;</text>
<polygon fill="#ffffff" stroke="none" points="1023.67,-195.74 1023.67,-215.24 1055,-215.24 1055,-195.74 1023.67,-195.74"/>
<polygon fill="none" stroke="black" points="1023.67,-195.74 1023.67,-215.24 1055,-215.24 1055,-195.74 1023.67,-195.74"/>
<text text-anchor="start" x="1032.5" y="-201.79" font-family="Helvetica,sans-Serif" font-size="11.00">4 &gt;</text>
</a>
</g>
</g>
<!-- proj_project -->
<g id="node5" class="node">
<title>proj_project</title>
<g id="a_node5"><a xlink:href="../../tables/proj_project.html" xlink:title="proj_project" target="_top">
<polygon fill="#ffffff" stroke="none" points="675.88,-145.74 675.88,-208.24 802.62,-208.24 802.62,-145.74 675.88,-145.74"/>
<polygon fill="#f5f5f5" stroke="none" points="675.88,-184.74 675.88,-208.24 802.62,-208.24 802.62,-184.74 675.88,-184.74"/>
<polygon fill="none" stroke="black" points="675.88,-184.74 675.88,-208.24 802.62,-208.24 802.62,-184.74 675.88,-184.74"/>
<text text-anchor="start" x="680.88" y="-193.79" font-family="Helvetica,sans-Serif" font-weight="bold" font-size="11.00">proj_project</text>
<text text-anchor="start" x="760.88" y="-192.79" font-family="Helvetica,sans-Serif" font-size="11.00">[table]</text>
<polygon fill="none" stroke="black" points="675.88,-165.24 675.88,-184.74 802.62,-184.74 802.62,-165.24 675.88,-165.24"/>
<text text-anchor="start" x="678.88" y="-171.29" font-family="Helvetica,sans-Serif" font-size="11.00">...</text>
<polygon fill="#ffffff" stroke="none" points="675.88,-145.74 675.88,-165.24 726.62,-165.24 726.62,-145.74 675.88,-145.74"/>
<polygon fill="none" stroke="black" points="675.88,-145.74 675.88,-165.24 726.62,-165.24 726.62,-145.74 675.88,-145.74"/>
<text text-anchor="start" x="678.88" y="-151.79" font-family="Helvetica,sans-Serif" font-size="11.00">&lt; 13</text>
<polygon fill="#ffffff" stroke="none" points="726.62,-145.74 726.62,-165.24 758.62,-165.24 758.62,-145.74 726.62,-145.74"/>
<polygon fill="none" stroke="black" points="726.62,-145.74 726.62,-165.24 758.62,-165.24 758.62,-145.74 726.62,-145.74"/>
<text text-anchor="start" x="748.12" y="-151.79" font-family="Helvetica,sans-Serif" font-size="11.00"> &#160;</text>
<polygon fill="#ffffff" stroke="none" points="758.62,-145.74 758.62,-165.24 802.62,-165.24 802.62,-145.74 758.62,-145.74"/>
<polygon fill="none" stroke="black" points="758.62,-145.74 758.62,-165.24 802.62,-165.24 802.62,-145.74 758.62,-145.74"/>
<text text-anchor="start" x="780.12" y="-151.79" font-family="Helvetica,sans-Serif" font-size="11.00">7 &gt;</text>
</a>
</g>
</g>
<!-- lot_lot&#45;&gt;proj_project -->
<g id="edge3" class="edge">
<title>lot_lot:w&#45;&gt;proj_project:e</title>
<path fill="none" stroke="black" d="M949.51,-224.2C888.04,-217.84 873.24,-174.99 803.62,-174.99"/>
<polygon fill="black" stroke="black" points="956.93,-224.57 964.74,-228.57 961.25,-224.79 964.58,-224.96 964.58,-224.96 964.58,-224.96 961.25,-224.79 965.1,-221.38 956.93,-224.57"/>
<ellipse fill="none" stroke="black" cx="952.01" cy="-224.33" rx="3.2" ry="3.2"/>
</g>
<!-- user_user -->
<g id="node6" class="node">
<title>user_user</title>
<g id="a_node6"><a xlink:href="../../tables/user_user.html" xlink:title="user_user" target="_top">
<polygon fill="#ffffff" stroke="none" points="398.38,-72.74 398.38,-267.24 546.38,-267.24 546.38,-72.74 398.38,-72.74"/>
<polygon fill="#f5f5f5" stroke="none" points="398.38,-243.74 398.38,-267.24 546.38,-267.24 546.38,-243.74 398.38,-243.74"/>
<polygon fill="none" stroke="black" points="398.38,-243.74 398.38,-267.24 546.38,-267.24 546.38,-243.74 398.38,-243.74"/>
<text text-anchor="start" x="403.38" y="-252.79" font-family="Helvetica,sans-Serif" font-weight="bold" font-size="11.00">user_user</text>
<text text-anchor="start" x="504.62" y="-251.79" font-family="Helvetica,sans-Serif" font-size="11.00">[table]</text>
<polygon fill="none" stroke="black" points="398.38,-221.74 398.38,-243.74 546.38,-243.74 546.38,-221.74 398.38,-221.74"/>
<image xlink:href="../../images/primaryKeys.png" width="11px" height="12px" preserveAspectRatio="xMinYMin meet" x="403.375" y="-238.738"/>
<text text-anchor="start" x="418.38" y="-228.29" font-family="Helvetica,sans-Serif" font-size="11.00">identifier</text>
<polygon fill="#ffffff" stroke="none" points="398.38,-199.74 398.38,-221.74 546.38,-221.74 546.38,-199.74 398.38,-199.74"/>
<polygon fill="none" stroke="black" points="398.38,-199.74 398.38,-221.74 546.38,-221.74 546.38,-199.74 398.38,-199.74"/>
<text text-anchor="start" x="418.38" y="-206.29" font-family="Helvetica,sans-Serif" font-size="11.00">login</text>
<polygon fill="#ffffff" stroke="none" points="398.38,-177.74 398.38,-199.74 546.38,-199.74 546.38,-177.74 398.38,-177.74"/>
<polygon fill="none" stroke="black" points="398.38,-177.74 398.38,-199.74 546.38,-199.74 546.38,-177.74 398.38,-177.74"/>
<image xlink:href="../../images/foreignKeys.png" width="11px" height="12px" preserveAspectRatio="xMinYMin meet" x="403.375" y="-194.738"/>
<text text-anchor="start" x="418.38" y="-184.29" font-family="Helvetica,sans-Serif" font-size="11.00">role</text>
<polygon fill="#ffffff" stroke="none" points="398.38,-155.74 398.38,-177.74 546.38,-177.74 546.38,-155.74 398.38,-155.74"/>
<polygon fill="none" stroke="black" points="398.38,-155.74 398.38,-177.74 546.38,-177.74 546.38,-155.74 398.38,-155.74"/>
<image xlink:href="../../images/foreignKeys.png" width="11px" height="12px" preserveAspectRatio="xMinYMin meet" x="403.375" y="-172.738"/>
<text text-anchor="start" x="418.38" y="-162.29" font-family="Helvetica,sans-Serif" font-size="11.00">library</text>
<polygon fill="#ffffff" stroke="none" points="398.38,-133.74 398.38,-155.74 546.38,-155.74 546.38,-133.74 398.38,-133.74"/>
<polygon fill="none" stroke="black" points="398.38,-133.74 398.38,-155.74 546.38,-155.74 546.38,-133.74 398.38,-133.74"/>
<image xlink:href="../../images/foreignKeys.png" width="11px" height="12px" preserveAspectRatio="xMinYMin meet" x="403.375" y="-150.738"/>
<text text-anchor="start" x="418.38" y="-140.29" font-family="Helvetica,sans-Serif" font-size="11.00">dashboard</text>
<polygon fill="#ffffff" stroke="none" points="398.38,-111.74 398.38,-133.74 546.38,-133.74 546.38,-111.74 398.38,-111.74"/>
<polygon fill="none" stroke="black" points="398.38,-111.74 398.38,-133.74 546.38,-133.74 546.38,-111.74 398.38,-111.74"/>
<image xlink:href="../../images/foreignKeys.png" width="11px" height="12px" preserveAspectRatio="xMinYMin meet" x="403.375" y="-128.738"/>
<text text-anchor="start" x="418.38" y="-118.29" font-family="Helvetica,sans-Serif" font-size="11.00">address</text>
<polygon fill="none" stroke="black" points="398.38,-92.24 398.38,-111.74 546.38,-111.74 546.38,-92.24 398.38,-92.24"/>
<text text-anchor="start" x="401.38" y="-98.29" font-family="Helvetica,sans-Serif" font-size="11.00">...</text>
<polygon fill="#ffffff" stroke="none" points="398.38,-72.74 398.38,-92.24 451.71,-92.24 451.71,-72.74 398.38,-72.74"/>
<polygon fill="none" stroke="black" points="398.38,-72.74 398.38,-92.24 451.71,-92.24 451.71,-72.74 398.38,-72.74"/>
<text text-anchor="start" x="401.38" y="-78.79" font-family="Helvetica,sans-Serif" font-size="11.00">&lt; 4</text>
<polygon fill="#ffffff" stroke="none" points="451.71,-72.74 451.71,-92.24 493.04,-92.24 493.04,-72.74 451.71,-72.74"/>
<polygon fill="none" stroke="black" points="451.71,-72.74 451.71,-92.24 493.04,-92.24 493.04,-72.74 451.71,-72.74"/>
<text text-anchor="start" x="482.54" y="-78.79" font-family="Helvetica,sans-Serif" font-size="11.00"> &#160;</text>
<polygon fill="#ffffff" stroke="none" points="493.04,-72.74 493.04,-92.24 546.38,-92.24 546.38,-72.74 493.04,-72.74"/>
<polygon fill="none" stroke="black" points="493.04,-72.74 493.04,-92.24 546.38,-92.24 546.38,-72.74 493.04,-72.74"/>
<text text-anchor="start" x="523.88" y="-78.79" font-family="Helvetica,sans-Serif" font-size="11.00">4 &gt;</text>
</a>
</g>
</g>
<!-- lot_lot&#45;&gt;user_user -->
<g id="edge4" class="edge">
<title>lot_lot:w&#45;&gt;user_user:e</title>
<path fill="none" stroke="black" d="M949.54,-225.01C776.71,-225.43 727.78,-232.74 547.38,-232.74"/>
<polygon fill="black" stroke="black" points="956.92,-225 964.92,-228.59 961.25,-224.99 964.58,-224.99 964.58,-224.99 964.58,-224.99 961.25,-224.99 964.91,-221.39 956.92,-225"/>
<ellipse fill="none" stroke="black" cx="952" cy="-225" rx="3.2" ry="3.2"/>
</g>
<!-- proj_project&#45;&gt;lib_library -->
<g id="edge5" class="edge">
<title>proj_project:w&#45;&gt;lib_library:e</title>
<path fill="none" stroke="black" d="M659.19,-173.41C605.35,-161.6 619.11,-86.89 557.25,-61.99 487.26,-33.82 448.91,-18.16 387.5,-61.99 333.73,-100.37 393.57,-197.99 327.5,-197.99"/>
<polygon fill="black" stroke="black" points="666.58,-174.15 674.18,-178.54 670.9,-174.59 674.21,-174.92 674.21,-174.92 674.21,-174.92 670.9,-174.59 674.9,-171.37 666.58,-174.15"/>
<ellipse fill="none" stroke="black" cx="661.69" cy="-173.66" rx="3.2" ry="3.2"/>
</g>
<!-- proj_project&#45;&gt;user_user -->
<g id="edge6" class="edge">
<title>proj_project:w&#45;&gt;user_user:e</title>
<path fill="none" stroke="black" d="M659.15,-176.36C611.6,-185.1 603.87,-232.74 547.38,-232.74"/>
<polygon fill="black" stroke="black" points="666.57,-175.71 674.85,-178.6 670.89,-175.34 674.21,-175.05 674.21,-175.05 674.21,-175.05 670.89,-175.34 674.23,-171.43 666.57,-175.71"/>
<ellipse fill="none" stroke="black" cx="661.67" cy="-176.14" rx="3.2" ry="3.2"/>
</g>
<!-- user_user&#45;&gt;lib_library -->
<g id="edge11" class="edge">
<title>user_user:w&#45;&gt;lib_library:e</title>
<path fill="none" stroke="black" d="M381.78,-169.4C361.66,-176.96 355.41,-197.99 327.5,-197.99"/>
<polygon fill="black" stroke="black" points="389.16,-168.14 397.65,-170.34 393.43,-167.41 396.72,-166.85 396.72,-166.85 396.72,-166.85 393.43,-167.41 396.44,-163.25 389.16,-168.14"/>
<ellipse fill="none" stroke="black" cx="384.31" cy="-168.97" rx="3.2" ry="3.2"/>
</g>
<!-- user_user&#45;&gt;user_address -->
<g id="edge9" class="edge">
<title>user_user:w&#45;&gt;user_address:e</title>
<path fill="none" stroke="black" d="M382.84,-117.46C372.15,-106.83 374.63,-83.09 354.5,-73.99 285.76,-42.9 254.09,-44.27 184.75,-73.99 161.06,-84.14 170.53,-115.99 144.75,-115.99"/>
<polygon fill="black" stroke="black" points="389.54,-119.89 395.83,-126.01 393.62,-121.37 396.75,-122.51 396.75,-122.51 396.75,-122.51 393.62,-121.37 398.29,-119.24 389.54,-119.89"/>
<ellipse fill="none" stroke="black" cx="384.92" cy="-118.22" rx="3.2" ry="3.2"/>
</g>
<!-- user_user&#45;&gt;user_role -->
<g id="edge12" class="edge">
<title>user_user:w&#45;&gt;user_role:e</title>
<path fill="none" stroke="black" d="M382.68,-194.14C371.58,-205.54 375.7,-231.84 354.5,-241.99 286.45,-274.56 259.4,-252.91 184.75,-241.99 160.19,-238.39 156.07,-225.99 131.25,-225.99"/>
<polygon fill="black" stroke="black" points="389.55,-191.61 398.3,-192.23 393.62,-190.12 396.75,-188.97 396.75,-188.97 396.75,-188.97 393.62,-190.12 395.82,-185.47 389.55,-191.61"/>
<ellipse fill="none" stroke="black" cx="384.94" cy="-193.31" rx="3.2" ry="3.2"/>
</g>
<!-- user_dashboard -->
<g id="node8" class="node">
<title>user_dashboard</title>
<g id="a_node8"><a xlink:href="../../tables/user_dashboard.html" xlink:title="user_dashboard" target="_top">
<polygon fill="#ffffff" stroke="none" points="192.75,-84.74 192.75,-147.24 346.5,-147.24 346.5,-84.74 192.75,-84.74"/>
<polygon fill="#f5f5f5" stroke="none" points="192.75,-123.74 192.75,-147.24 346.5,-147.24 346.5,-123.74 192.75,-123.74"/>
<polygon fill="none" stroke="black" points="192.75,-123.74 192.75,-147.24 346.5,-147.24 346.5,-123.74 192.75,-123.74"/>
<text text-anchor="start" x="197.75" y="-132.79" font-family="Helvetica,sans-Serif" font-weight="bold" font-size="11.00">user_dashboard</text>
<text text-anchor="start" x="304.75" y="-131.79" font-family="Helvetica,sans-Serif" font-size="11.00">[table]</text>
<polygon fill="none" stroke="black" points="192.75,-104.24 192.75,-123.74 346.5,-123.74 346.5,-104.24 192.75,-104.24"/>
<text text-anchor="start" x="195.75" y="-110.29" font-family="Helvetica,sans-Serif" font-size="11.00">...</text>
<polygon fill="#ffffff" stroke="none" points="192.75,-84.74 192.75,-104.24 240,-104.24 240,-84.74 192.75,-84.74"/>
<polygon fill="none" stroke="black" points="192.75,-84.74 192.75,-104.24 240,-104.24 240,-84.74 192.75,-84.74"/>
<text text-anchor="start" x="195.75" y="-90.79" font-family="Helvetica,sans-Serif" font-size="11.00"> &#160;</text>
<polygon fill="#ffffff" stroke="none" points="240,-84.74 240,-104.24 287.25,-104.24 287.25,-84.74 240,-84.74"/>
<polygon fill="none" stroke="black" points="240,-84.74 240,-104.24 287.25,-104.24 287.25,-84.74 240,-84.74"/>
<text text-anchor="start" x="276.75" y="-90.79" font-family="Helvetica,sans-Serif" font-size="11.00"> &#160;</text>
<polygon fill="#ffffff" stroke="none" points="287.25,-84.74 287.25,-104.24 346.5,-104.24 346.5,-84.74 287.25,-84.74"/>
<polygon fill="none" stroke="black" points="287.25,-84.74 287.25,-104.24 346.5,-104.24 346.5,-84.74 287.25,-84.74"/>
<text text-anchor="start" x="324" y="-90.79" font-family="Helvetica,sans-Serif" font-size="11.00">1 &gt;</text>
</a>
</g>
</g>
<!-- user_user&#45;&gt;user_dashboard -->
<g id="edge10" class="edge">
<title>user_user:w&#45;&gt;user_dashboard:e</title>
<path fill="none" stroke="black" d="M382.62,-140.2C370.75,-131.65 367.23,-113.99 347.5,-113.99"/>
<polygon fill="black" stroke="black" points="389.41,-142.29 396,-148.08 393.55,-143.56 396.74,-144.54 396.74,-144.54 396.74,-144.54 393.55,-143.56 398.11,-141.2 389.41,-142.29"/>
<ellipse fill="none" stroke="black" cx="384.71" cy="-140.84" rx="3.2" ry="3.2"/>
</g>
<!-- proj_project_user -->
<g id="node7" class="node">
<title>proj_project_user</title>
<g id="a_node7"><a xlink:href="../../tables/proj_project_user.html" xlink:title="proj_project_user" target="_top">
<polygon fill="#ffffff" stroke="none" points="929.25,-105.74 929.25,-168.24 1092,-168.24 1092,-105.74 929.25,-105.74"/>
<polygon fill="#f5f5f5" stroke="none" points="929.25,-144.74 929.25,-168.24 1092,-168.24 1092,-144.74 929.25,-144.74"/>
<polygon fill="none" stroke="black" points="929.25,-144.74 929.25,-168.24 1092,-168.24 1092,-144.74 929.25,-144.74"/>
<text text-anchor="start" x="934.25" y="-153.79" font-family="Helvetica,sans-Serif" font-weight="bold" font-size="11.00">proj_project_user</text>
<text text-anchor="start" x="1050.25" y="-152.79" font-family="Helvetica,sans-Serif" font-size="11.00">[table]</text>
<polygon fill="none" stroke="black" points="929.25,-125.24 929.25,-144.74 1092,-144.74 1092,-125.24 929.25,-125.24"/>
<text text-anchor="start" x="932.25" y="-131.29" font-family="Helvetica,sans-Serif" font-size="11.00">...</text>
<polygon fill="#ffffff" stroke="none" points="929.25,-105.74 929.25,-125.24 991.5,-125.24 991.5,-105.74 929.25,-105.74"/>
<polygon fill="none" stroke="black" points="929.25,-105.74 929.25,-125.24 991.5,-125.24 991.5,-105.74 929.25,-105.74"/>
<text text-anchor="start" x="932.25" y="-111.79" font-family="Helvetica,sans-Serif" font-size="11.00">&lt; 2</text>
<polygon fill="#ffffff" stroke="none" points="991.5,-105.74 991.5,-125.24 1041.75,-125.24 1041.75,-105.74 991.5,-105.74"/>
<polygon fill="none" stroke="black" points="991.5,-105.74 991.5,-125.24 1041.75,-125.24 1041.75,-105.74 991.5,-105.74"/>
<text text-anchor="start" x="1031.25" y="-111.79" font-family="Helvetica,sans-Serif" font-size="11.00"> &#160;</text>
<polygon fill="#ffffff" stroke="none" points="1041.75,-105.74 1041.75,-125.24 1092,-125.24 1092,-105.74 1041.75,-105.74"/>
<polygon fill="none" stroke="black" points="1041.75,-105.74 1041.75,-125.24 1092,-125.24 1092,-105.74 1041.75,-105.74"/>
<text text-anchor="start" x="1081.5" y="-111.79" font-family="Helvetica,sans-Serif" font-size="11.00"> &#160;</text>
</a>
</g>
</g>
<!-- proj_project_user&#45;&gt;proj_project -->
<g id="edge8" class="edge">
<title>proj_project_user:w&#45;&gt;proj_project:e</title>
<path fill="none" stroke="black" d="M912.54,-136.06C867.98,-142.42 856.12,-174.99 803.62,-174.99"/>
<polygon fill="black" stroke="black" points="919.93,-135.55 928.16,-138.6 924.26,-135.26 927.58,-135.03 927.58,-135.03 927.58,-135.03 924.26,-135.26 927.67,-131.42 919.93,-135.55"/>
<ellipse fill="none" stroke="black" cx="915.03" cy="-135.89" rx="3.2" ry="3.2"/>
</g>
<!-- proj_project_user&#45;&gt;user_user -->
<g id="edge7" class="edge">
<title>proj_project_user:w&#45;&gt;user_user:e</title>
<path fill="none" stroke="black" d="M912.73,-134.69C773.59,-129.41 711.59,-55.71 590.25,-134.99 550.54,-160.94 594.81,-232.74 547.38,-232.74"/>
<polygon fill="black" stroke="black" points="919.92,-134.83 927.85,-138.58 924.25,-134.91 927.58,-134.98 927.58,-134.98 927.58,-134.98 924.25,-134.91 927.98,-131.38 919.92,-134.83"/>
<ellipse fill="none" stroke="black" cx="915" cy="-134.74" rx="3.2" ry="3.2"/>
</g>
<!-- workflow_group -->
<g id="node9" class="node">
<title>workflow_group</title>
<g id="a_node9"><a xlink:href="../../tables/workflow_group.html" xlink:title="workflow_group" target="_top">
<polygon fill="#ffffff" stroke="none" points="395.5,-288.74 395.5,-417.24 549.25,-417.24 549.25,-288.74 395.5,-288.74"/>
<polygon fill="#f5f5f5" stroke="none" points="395.5,-393.74 395.5,-417.24 549.25,-417.24 549.25,-393.74 395.5,-393.74"/>
<polygon fill="none" stroke="black" points="395.5,-393.74 395.5,-417.24 549.25,-417.24 549.25,-393.74 395.5,-393.74"/>
<text text-anchor="start" x="400.5" y="-402.79" font-family="Helvetica,sans-Serif" font-weight="bold" font-size="11.00">workflow_group</text>
<text text-anchor="start" x="507.5" y="-401.79" font-family="Helvetica,sans-Serif" font-size="11.00">[table]</text>
<polygon fill="none" stroke="black" points="395.5,-371.74 395.5,-393.74 549.25,-393.74 549.25,-371.74 395.5,-371.74"/>
<image xlink:href="../../images/primaryKeys.png" width="11px" height="12px" preserveAspectRatio="xMinYMin meet" x="400.5" y="-388.738"/>
<text text-anchor="start" x="418.38" y="-378.29" font-family="Helvetica,sans-Serif" font-size="11.00">identifier</text>
<polygon fill="#ffffff" stroke="none" points="395.5,-349.74 395.5,-371.74 549.25,-371.74 549.25,-349.74 395.5,-349.74"/>
<polygon fill="none" stroke="black" points="395.5,-349.74 395.5,-371.74 549.25,-371.74 549.25,-349.74 395.5,-349.74"/>
<text text-anchor="start" x="418.38" y="-356.29" font-family="Helvetica,sans-Serif" font-size="11.00">name</text>
<polygon fill="#ffffff" stroke="none" points="395.5,-327.74 395.5,-349.74 549.25,-349.74 549.25,-327.74 395.5,-327.74"/>
<polygon fill="none" stroke="black" points="395.5,-327.74 395.5,-349.74 549.25,-349.74 549.25,-327.74 395.5,-327.74"/>
<image xlink:href="../../images/foreignKeys.png" width="11px" height="12px" preserveAspectRatio="xMinYMin meet" x="400.5" y="-344.738"/>
<text text-anchor="start" x="418.38" y="-334.29" font-family="Helvetica,sans-Serif" font-size="11.00">library</text>
<polygon fill="none" stroke="black" points="395.5,-308.24 395.5,-327.74 549.25,-327.74 549.25,-308.24 395.5,-308.24"/>
<text text-anchor="start" x="398.5" y="-314.29" font-family="Helvetica,sans-Serif" font-size="11.00">...</text>
<polygon fill="#ffffff" stroke="none" points="395.5,-288.74 395.5,-308.24 450.75,-308.24 450.75,-288.74 395.5,-288.74"/>
<polygon fill="none" stroke="black" points="395.5,-288.74 395.5,-308.24 450.75,-308.24 450.75,-288.74 395.5,-288.74"/>
<text text-anchor="start" x="398.5" y="-294.79" font-family="Helvetica,sans-Serif" font-size="11.00">&lt; 1</text>
<polygon fill="#ffffff" stroke="none" points="450.75,-288.74 450.75,-308.24 494,-308.24 494,-288.74 450.75,-288.74"/>
<polygon fill="none" stroke="black" points="450.75,-288.74 450.75,-308.24 494,-308.24 494,-288.74 450.75,-288.74"/>
<text text-anchor="start" x="483.5" y="-294.79" font-family="Helvetica,sans-Serif" font-size="11.00"> &#160;</text>
<polygon fill="#ffffff" stroke="none" points="494,-288.74 494,-308.24 549.25,-308.24 549.25,-288.74 494,-288.74"/>
<polygon fill="none" stroke="black" points="494,-288.74 494,-308.24 549.25,-308.24 549.25,-288.74 494,-288.74"/>
<text text-anchor="start" x="526.75" y="-294.79" font-family="Helvetica,sans-Serif" font-size="11.00">2 &gt;</text>
</a>
</g>
</g>
<!-- workflow_group&#45;&gt;lib_library -->
<g id="edge13" class="edge">
<title>workflow_group:w&#45;&gt;lib_library:e</title>
<path fill="none" stroke="black" d="M379.03,-335.53C336.94,-314.58 390.56,-197.99 327.5,-197.99"/>
<polygon fill="black" stroke="black" points="386.34,-337.05 393.44,-342.2 390.58,-337.93 393.84,-338.6 393.84,-338.6 393.84,-338.6 390.58,-337.93 394.9,-335.15 386.34,-337.05"/>
<ellipse fill="none" stroke="black" cx="381.52" cy="-336.05" rx="3.2" ry="3.2"/>
</g>
<!-- workflow_group_user -->
<g id="node10" class="node">
<title>workflow_group_user</title>
<g id="a_node10"><a xlink:href="../../tables/workflow_group_user.html" xlink:title="workflow_group_user" target="_top">
<polygon fill="#ffffff" stroke="none" points="598.25,-256.49 598.25,-347.49 880.25,-347.49 880.25,-256.49 598.25,-256.49"/>
<polygon fill="#f5f5f5" stroke="none" points="600.25,-321.99 600.25,-345.49 878.25,-345.49 878.25,-321.99 600.25,-321.99"/>
<polygon fill="none" stroke="black" points="600.25,-321.99 600.25,-345.49 878.25,-345.49 878.25,-321.99 600.25,-321.99"/>
<text text-anchor="start" x="605.25" y="-331.04" font-family="Helvetica,sans-Serif" font-weight="bold" font-size="11.00">workflow_group_user</text>
<text text-anchor="start" x="836.5" y="-330.04" font-family="Helvetica,sans-Serif" font-size="11.00">[table]</text>
<polygon fill="none" stroke="black" points="600.25,-299.99 600.25,-321.99 764.25,-321.99 764.25,-299.99 600.25,-299.99"/>
<image xlink:href="../../images/primaryKeys.png" width="11px" height="12px" preserveAspectRatio="xMinYMin meet" x="605.25" y="-316.988"/>
<text text-anchor="start" x="620.25" y="-306.54" font-family="Helvetica,sans-Serif" font-size="11.00">workflow_group</text>
<polygon fill="none" stroke="black" points="764.25,-299.99 764.25,-321.99 859.88,-321.99 859.88,-299.99 764.25,-299.99"/>
<text text-anchor="start" x="767.25" y="-307.29" font-family="Helvetica,sans-Serif" font-size="11.00">varchar[191]</text>
<polygon fill="none" stroke="black" points="600.25,-277.99 600.25,-299.99 764.25,-299.99 764.25,-277.99 600.25,-277.99"/>
<image xlink:href="../../images/primaryKeys.png" width="11px" height="12px" preserveAspectRatio="xMinYMin meet" x="605.25" y="-294.988"/>
<text text-anchor="start" x="620.25" y="-284.54" font-family="Helvetica,sans-Serif" font-size="11.00">workflow_user</text>
<polygon fill="none" stroke="black" points="764.25,-277.99 764.25,-299.99 859.88,-299.99 859.88,-277.99 764.25,-277.99"/>
<text text-anchor="start" x="767.25" y="-285.29" font-family="Helvetica,sans-Serif" font-size="11.00">varchar[191]</text>
<polygon fill="#ffffff" stroke="none" points="600.25,-258.49 600.25,-277.99 688.25,-277.99 688.25,-258.49 600.25,-258.49"/>
<polygon fill="none" stroke="black" points="600.25,-258.49 600.25,-277.99 688.25,-277.99 688.25,-258.49 600.25,-258.49"/>
<text text-anchor="start" x="603.25" y="-264.54" font-family="Helvetica,sans-Serif" font-size="11.00">&lt; 2</text>
<polygon fill="#ffffff" stroke="none" points="688.25,-258.49 688.25,-277.99 764.25,-277.99 764.25,-258.49 688.25,-258.49"/>
<polygon fill="none" stroke="black" points="688.25,-258.49 688.25,-277.99 764.25,-277.99 764.25,-258.49 688.25,-258.49"/>
<text text-anchor="start" x="753.75" y="-264.54" font-family="Helvetica,sans-Serif" font-size="11.00"> &#160;</text>
<polygon fill="#ffffff" stroke="none" points="764.25,-258.49 764.25,-277.99 859.88,-277.99 859.88,-258.49 764.25,-258.49"/>
<polygon fill="none" stroke="black" points="764.25,-258.49 764.25,-277.99 859.88,-277.99 859.88,-258.49 764.25,-258.49"/>
<text text-anchor="start" x="837.38" y="-264.54" font-family="Helvetica,sans-Serif" font-size="11.00">0 &gt;</text>
<polygon fill="none" stroke="black" stroke-width="2" points="599.25,-257.49 599.25,-346.49 879.25,-346.49 879.25,-257.49 599.25,-257.49"/>
</a>
</g>
</g>
<!-- workflow_group_user&#45;&gt;user_user -->
<g id="edge15" class="edge">
<title>workflow_group_user:w&#45;&gt;user_user:e</title>
<path fill="none" stroke="black" d="M584.75,-283.8C569.53,-269.87 575.01,-232.74 547.38,-232.74"/>
<polygon fill="black" stroke="black" points="591.4,-286.18 597.72,-292.27 595.48,-287.64 598.62,-288.76 598.62,-288.76 598.62,-288.76 595.48,-287.64 600.15,-285.49 591.4,-286.18"/>
<ellipse fill="none" stroke="black" cx="586.77" cy="-284.52" rx="3.2" ry="3.2"/>
</g>
<!-- workflow_group_user&#45;&gt;workflow_group -->
<g id="edge14" class="edge">
<title>workflow_group_user:w&#45;&gt;workflow_group:e</title>
<path fill="none" stroke="black" d="M584.58,-316.62C568.36,-333.53 582.23,-382.74 550.25,-382.74"/>
<polygon fill="black" stroke="black" points="591.47,-313.98 600.23,-314.47 595.52,-312.42 598.63,-311.23 598.63,-311.23 598.63,-311.23 595.52,-312.42 597.65,-307.75 591.47,-313.98"/>
<ellipse fill="none" stroke="black" cx="586.88" cy="-315.74" rx="3.2" ry="3.2"/>
</g>
<!-- workflow_model_state -->
<g id="node11" class="node">
<title>workflow_model_state</title>
<g id="a_node11"><a xlink:href="../../tables/workflow_model_state.html" xlink:title="workflow_model_state" target="_top">
<polygon fill="#ffffff" stroke="none" points="640.88,-368.74 640.88,-431.24 837.62,-431.24 837.62,-368.74 640.88,-368.74"/>
<polygon fill="#f5f5f5" stroke="none" points="640.88,-407.74 640.88,-431.24 837.62,-431.24 837.62,-407.74 640.88,-407.74"/>
<polygon fill="none" stroke="black" points="640.88,-407.74 640.88,-431.24 837.62,-431.24 837.62,-407.74 640.88,-407.74"/>
<text text-anchor="start" x="645.88" y="-416.79" font-family="Helvetica,sans-Serif" font-weight="bold" font-size="11.00">workflow_model_state</text>
<text text-anchor="start" x="795.88" y="-415.79" font-family="Helvetica,sans-Serif" font-size="11.00">[table]</text>
<polygon fill="none" stroke="black" points="640.88,-388.24 640.88,-407.74 837.62,-407.74 837.62,-388.24 640.88,-388.24"/>
<text text-anchor="start" x="643.88" y="-394.29" font-family="Helvetica,sans-Serif" font-size="11.00">...</text>
<polygon fill="#ffffff" stroke="none" points="640.88,-368.74 640.88,-388.24 710.46,-388.24 710.46,-368.74 640.88,-368.74"/>
<polygon fill="none" stroke="black" points="640.88,-368.74 640.88,-388.24 710.46,-388.24 710.46,-368.74 640.88,-368.74"/>
<text text-anchor="start" x="643.88" y="-374.79" font-family="Helvetica,sans-Serif" font-size="11.00">&lt; 2</text>
<polygon fill="#ffffff" stroke="none" points="710.46,-368.74 710.46,-388.24 768.04,-388.24 768.04,-368.74 710.46,-368.74"/>
<polygon fill="none" stroke="black" points="710.46,-368.74 710.46,-388.24 768.04,-388.24 768.04,-368.74 710.46,-368.74"/>
<text text-anchor="start" x="757.54" y="-374.79" font-family="Helvetica,sans-Serif" font-size="11.00"> &#160;</text>
<polygon fill="#ffffff" stroke="none" points="768.04,-368.74 768.04,-388.24 837.62,-388.24 837.62,-368.74 768.04,-368.74"/>
<polygon fill="none" stroke="black" points="768.04,-368.74 768.04,-388.24 837.62,-388.24 837.62,-368.74 768.04,-368.74"/>
<text text-anchor="start" x="815.12" y="-374.79" font-family="Helvetica,sans-Serif" font-size="11.00">1 &gt;</text>
</a>
</g>
</g>
<!-- workflow_model_state&#45;&gt;workflow_group -->
<g id="edge16" class="edge">
<title>workflow_model_state:w&#45;&gt;workflow_group:e</title>
<path fill="none" stroke="black" d="M624.14,-397.12C596.26,-393.9 584.82,-382.74 550.25,-382.74"/>
<polygon fill="black" stroke="black" points="631.55,-397.53 639.34,-401.56 635.88,-397.77 639.21,-397.95 639.21,-397.95 639.21,-397.95 635.88,-397.77 639.74,-394.38 631.55,-397.53"/>
<ellipse fill="none" stroke="black" cx="626.64" cy="-397.26" rx="3.2" ry="3.2"/>
</g>
</g>
</svg>
