<?xml version="1.0" encoding="UTF-8" standalone="no"?>
<!DOCTYPE svg PUBLIC "-//W3C//DTD SVG 1.1//EN"
 "http://www.w3.org/Graphics/SVG/1.1/DTD/svg11.dtd">
<!-- Generated by graphviz version 12.2.1 (0)
 -->
<!-- Title: oneDegreeRelationshipsDiagram Pages: 1 -->
<svg width="254pt" height="186pt"
 viewBox="0.00 0.00 253.50 185.50" xmlns="http://www.w3.org/2000/svg" xmlns:xlink="http://www.w3.org/1999/xlink">
<g id="graph0" class="graph" transform="scale(1 1) rotate(0) translate(4 181.5)">
<title>oneDegreeRelationshipsDiagram</title>
<polygon fill="#ffffff" stroke="none" points="-4,4 -4,-181.5 249.5,-181.5 249.5,4 -4,4"/>
<text text-anchor="middle" x="79.25" y="-7.05" font-family="Helvetica,sans-Serif" font-size="11.00">Generated by SchemaSpy</text>
<!-- aud_doc_unit -->
<g id="node1" class="node">
<title>aud_doc_unit</title>
<g id="a_node1"><a xlink:href="../../tables/aud_doc_unit.html" xlink:title="aud_doc_unit" target="_top">
<polygon fill="#ffffff" stroke="none" points="8,-38.5 8,-173.5 237.5,-173.5 237.5,-38.5 8,-38.5"/>
<polygon fill="#f5f5f5" stroke="none" points="10,-148 10,-171.5 235.5,-171.5 235.5,-148 10,-148"/>
<polygon fill="none" stroke="black" points="10,-148 10,-171.5 235.5,-171.5 235.5,-148 10,-148"/>
<text text-anchor="start" x="15" y="-157.05" font-family="Helvetica,sans-Serif" font-weight="bold" font-size="11.00">aud_doc_unit</text>
<text text-anchor="start" x="193.75" y="-156.05" font-family="Helvetica,sans-Serif" font-size="11.00">[table]</text>
<polygon fill="none" stroke="black" points="10,-126 10,-148 126,-148 126,-126 10,-126"/>
<image xlink:href="../../images/primaryKeys.png" width="11px" height="12px" preserveAspectRatio="xMinYMin meet" x="15" y="-143"/>
<text text-anchor="start" x="30" y="-132.55" font-family="Helvetica,sans-Serif" font-size="11.00">identifier</text>
<polygon fill="none" stroke="black" points="126,-126 126,-148 219.38,-148 219.38,-126 126,-126"/>
<text text-anchor="start" x="129" y="-133.3" font-family="Helvetica,sans-Serif" font-size="11.00">varchar[191]</text>
<polygon fill="none" stroke="black" points="10,-104 10,-126 126,-126 126,-104 10,-104"/>
<image xlink:href="../../images/primaryKeys.png" width="11px" height="12px" preserveAspectRatio="xMinYMin meet" x="15" y="-121"/>
<text text-anchor="start" x="30" y="-110.55" font-family="Helvetica,sans-Serif" font-size="11.00">rev</text>
<polygon fill="none" stroke="black" points="126,-104 126,-126 219.38,-126 219.38,-104 126,-104"/>
<text text-anchor="start" x="129" y="-111.3" font-family="Helvetica,sans-Serif" font-size="11.00">int[10]</text>
<polygon fill="none" stroke="black" points="10,-82 10,-104 126,-104 126,-82 10,-82"/>
<text text-anchor="start" x="30" y="-88.55" font-family="Helvetica,sans-Serif" font-size="11.00">revtype</text>
<polygon fill="none" stroke="black" points="126,-82 126,-104 219.38,-104 219.38,-82 126,-82"/>
<text text-anchor="start" x="129" y="-89.3" font-family="Helvetica,sans-Serif" font-size="11.00">tinyint[3]</text>
<polygon fill="none" stroke="black" points="10,-60 10,-82 126,-82 126,-60 10,-60"/>
<text text-anchor="start" x="30" y="-66.55" font-family="Helvetica,sans-Serif" font-size="11.00">lot</text>
<polygon fill="none" stroke="black" points="126,-60 126,-82 219.38,-82 219.38,-60 126,-60"/>
<text text-anchor="start" x="129" y="-67.3" font-family="Helvetica,sans-Serif" font-size="11.00">varchar[255]</text>
<polygon fill="#ffffff" stroke="none" points="10,-40.5 10,-60 235.5,-60 235.5,-40.5 10,-40.5"/>
<polygon fill="none" stroke="black" points="10,-40.5 10,-60 235.5,-60 235.5,-40.5 10,-40.5"/>
<polygon fill="#ffffff" stroke="none" points="11,-41.5 11,-59 89.5,-59 89.5,-41.5 11,-41.5"/>
<text text-anchor="start" x="13" y="-46.55" font-family="Helvetica,sans-Serif" font-size="11.00">&lt; 0</text>
<polygon fill="#ffffff" stroke="none" points="89.5,-41.5 89.5,-59 156,-59 156,-41.5 89.5,-41.5"/>
<text text-anchor="start" x="119" y="-46.55" font-family="Helvetica,sans-Serif" font-size="11.00"> &#160;</text>
<polygon fill="#ffffff" stroke="none" points="156,-41.5 156,-59 234.5,-59 234.5,-41.5 156,-41.5"/>
<text text-anchor="start" x="213" y="-46.55" font-family="Helvetica,sans-Serif" font-size="11.00">0 &gt;</text>
<polygon fill="black" stroke="black" points="89.5,-41.5 89.5,-59 89.5,-59 89.5,-41.5 89.5,-41.5"/>
<polygon fill="black" stroke="black" points="156,-41.5 156,-59 156,-59 156,-41.5 156,-41.5"/>
<polygon fill="none" stroke="black" stroke-width="2" points="9,-39.5 9,-172.5 236.5,-172.5 236.5,-39.5 9,-39.5"/>
</a>
</g>
</g>
</g>
</svg>
