<?xml version="1.0" encoding="UTF-8" standalone="no"?>
<!DOCTYPE svg PUBLIC "-//W3C//DTD SVG 1.1//EN"
 "http://www.w3.org/Graphics/SVG/1.1/DTD/svg11.dtd">
<!-- Generated by graphviz version 12.2.1 (0)
 -->
<!-- Title: twoDegreesRelationshipsDiagram Pages: 1 -->
<svg width="795pt" height="379pt"
 viewBox="0.00 0.00 795.00 379.25" xmlns="http://www.w3.org/2000/svg" xmlns:xlink="http://www.w3.org/1999/xlink">
<g id="graph0" class="graph" transform="scale(1 1) rotate(0) translate(4 375.25)">
<title>twoDegreesRelationshipsDiagram</title>
<polygon fill="#ffffff" stroke="none" points="-4,4 -4,-375.25 791,-375.25 791,4 -4,4"/>
<text text-anchor="middle" x="79.25" y="-7.05" font-family="Helvetica,sans-Serif" font-size="11.00">Generated by SchemaSpy</text>
<!-- doc_condreport -->
<g id="node1" class="node">
<title>doc_condreport</title>
<g id="a_node1"><a xlink:href="../../tables/doc_condreport.html" xlink:title="doc_condreport" target="_top">
<polygon fill="#ffffff" stroke="none" points="164.75,-94.5 164.75,-201 331.75,-201 331.75,-94.5 164.75,-94.5"/>
<polygon fill="#f5f5f5" stroke="none" points="164.75,-177.5 164.75,-201 331.75,-201 331.75,-177.5 164.75,-177.5"/>
<polygon fill="none" stroke="black" points="164.75,-177.5 164.75,-201 331.75,-201 331.75,-177.5 164.75,-177.5"/>
<text text-anchor="start" x="169.75" y="-186.55" font-family="Helvetica,sans-Serif" font-weight="bold" font-size="11.00">doc_condreport</text>
<text text-anchor="start" x="290" y="-185.55" font-family="Helvetica,sans-Serif" font-size="11.00">[table]</text>
<polygon fill="none" stroke="black" points="164.75,-155.5 164.75,-177.5 331.75,-177.5 331.75,-155.5 164.75,-155.5"/>
<image xlink:href="../../images/primaryKeys.png" width="11px" height="12px" preserveAspectRatio="xMinYMin meet" x="169.75" y="-172.5"/>
<text text-anchor="start" x="184.75" y="-162.05" font-family="Helvetica,sans-Serif" font-size="11.00">identifier</text>
<polygon fill="#ffffff" stroke="none" points="164.75,-133.5 164.75,-155.5 331.75,-155.5 331.75,-133.5 164.75,-133.5"/>
<polygon fill="none" stroke="black" points="164.75,-133.5 164.75,-155.5 331.75,-155.5 331.75,-133.5 164.75,-133.5"/>
<image xlink:href="../../images/foreignKeys.png" width="11px" height="12px" preserveAspectRatio="xMinYMin meet" x="169.75" y="-150.5"/>
<text text-anchor="start" x="184.75" y="-140.05" font-family="Helvetica,sans-Serif" font-size="11.00">doc_unit</text>
<polygon fill="none" stroke="black" points="164.75,-114 164.75,-133.5 331.75,-133.5 331.75,-114 164.75,-114"/>
<text text-anchor="start" x="167.75" y="-120.05" font-family="Helvetica,sans-Serif" font-size="11.00">...</text>
<polygon fill="#ffffff" stroke="none" points="164.75,-94.5 164.75,-114 331.75,-114 331.75,-94.5 164.75,-94.5"/>
<polygon fill="none" stroke="black" points="164.75,-94.5 164.75,-114 331.75,-114 331.75,-94.5 164.75,-94.5"/>
<polygon fill="#ffffff" stroke="none" points="165.75,-95.5 165.75,-113 224.75,-113 224.75,-95.5 165.75,-95.5"/>
<text text-anchor="start" x="167.75" y="-100.55" font-family="Helvetica,sans-Serif" font-size="11.00">&lt; 1</text>
<polygon fill="#ffffff" stroke="none" points="224.75,-95.5 224.75,-113 271.75,-113 271.75,-95.5 224.75,-95.5"/>
<text text-anchor="start" x="244.5" y="-100.55" font-family="Helvetica,sans-Serif" font-size="11.00"> &#160;</text>
<polygon fill="#ffffff" stroke="none" points="271.75,-95.5 271.75,-113 330.75,-113 330.75,-95.5 271.75,-95.5"/>
<text text-anchor="start" x="309.25" y="-100.55" font-family="Helvetica,sans-Serif" font-size="11.00">2 &gt;</text>
<polygon fill="black" stroke="black" points="224.75,-95.5 224.75,-113 224.75,-113 224.75,-95.5 224.75,-95.5"/>
<polygon fill="black" stroke="black" points="271.75,-95.5 271.75,-113 271.75,-113 271.75,-95.5 271.75,-95.5"/>
</a>
</g>
</g>
<!-- doc_unit -->
<g id="node2" class="node">
<title>doc_unit</title>
<g id="a_node2"><a xlink:href="../../tables/doc_unit.html" xlink:title="doc_unit" target="_top">
<polygon fill="#ffffff" stroke="none" points="8,-115.5 8,-178 115.75,-178 115.75,-115.5 8,-115.5"/>
<polygon fill="#f5f5f5" stroke="none" points="8,-154.5 8,-178 115.75,-178 115.75,-154.5 8,-154.5"/>
<polygon fill="none" stroke="black" points="8,-154.5 8,-178 115.75,-178 115.75,-154.5 8,-154.5"/>
<text text-anchor="start" x="13" y="-163.55" font-family="Helvetica,sans-Serif" font-weight="bold" font-size="11.00">doc_unit</text>
<text text-anchor="start" x="74" y="-162.55" font-family="Helvetica,sans-Serif" font-size="11.00">[table]</text>
<polygon fill="none" stroke="black" points="8,-135 8,-154.5 115.75,-154.5 115.75,-135 8,-135"/>
<text text-anchor="start" x="11" y="-141.05" font-family="Helvetica,sans-Serif" font-size="11.00">...</text>
<polygon fill="#ffffff" stroke="none" points="8,-115.5 8,-135 115.75,-135 115.75,-115.5 8,-115.5"/>
<polygon fill="none" stroke="black" points="8,-115.5 8,-135 115.75,-135 115.75,-115.5 8,-115.5"/>
<polygon fill="#ffffff" stroke="none" points="9,-116.5 9,-134 50.5,-134 50.5,-116.5 9,-116.5"/>
<text text-anchor="start" x="11" y="-121.55" font-family="Helvetica,sans-Serif" font-size="11.00">&lt; 13</text>
<polygon fill="#ffffff" stroke="none" points="50.5,-116.5 50.5,-134 73.25,-134 73.25,-116.5 50.5,-116.5"/>
<text text-anchor="start" x="58.12" y="-121.55" font-family="Helvetica,sans-Serif" font-size="11.00"> &#160;</text>
<polygon fill="#ffffff" stroke="none" points="73.25,-116.5 73.25,-134 114.75,-134 114.75,-116.5 73.25,-116.5"/>
<text text-anchor="start" x="86.5" y="-121.55" font-family="Helvetica,sans-Serif" font-size="11.00">11 &gt;</text>
<polygon fill="black" stroke="black" points="50.5,-116.5 50.5,-134 50.5,-134 50.5,-116.5 50.5,-116.5"/>
<polygon fill="black" stroke="black" points="73.25,-116.5 73.25,-134 73.25,-134 73.25,-116.5 73.25,-116.5"/>
</a>
</g>
</g>
<!-- doc_condreport&#45;&gt;doc_unit -->
<g id="edge1" class="edge">
<title>doc_condreport:w&#45;&gt;doc_unit:e</title>
<path fill="none" stroke="black" d="M148.13,-144.56C138.22,-144.63 131.27,-144.75 116.75,-144.75"/>
<polygon fill="black" stroke="black" points="155.42,-144.53 163.43,-148.1 159.75,-144.51 163.08,-144.5 163.08,-144.5 163.08,-144.5 159.75,-144.51 163.4,-140.9 155.42,-144.53"/>
<ellipse fill="none" stroke="black" cx="150.5" cy="-144.55" rx="3.2" ry="3.2"/>
</g>
<!-- doc_condreport_attachment -->
<g id="node3" class="node">
<title>doc_condreport_attachment</title>
<g id="a_node3"><a xlink:href="../../tables/doc_condreport_attachment.html" xlink:title="doc_condreport_attachment" target="_top">
<polygon fill="#ffffff" stroke="none" points="380.75,-122.25 380.75,-367.25 779,-367.25 779,-122.25 380.75,-122.25"/>
<polygon fill="#f5f5f5" stroke="none" points="382.75,-341.75 382.75,-365.25 777,-365.25 777,-341.75 382.75,-341.75"/>
<polygon fill="none" stroke="black" points="382.75,-341.75 382.75,-365.25 777,-365.25 777,-341.75 382.75,-341.75"/>
<text text-anchor="start" x="387.75" y="-350.8" font-family="Helvetica,sans-Serif" font-weight="bold" font-size="11.00">doc_condreport_attachment</text>
<text text-anchor="start" x="735.25" y="-349.8" font-family="Helvetica,sans-Serif" font-size="11.00">[table]</text>
<polygon fill="none" stroke="black" points="382.75,-319.75 382.75,-341.75 607.75,-341.75 607.75,-319.75 382.75,-319.75"/>
<image xlink:href="../../images/primaryKeys.png" width="11px" height="12px" preserveAspectRatio="xMinYMin meet" x="387.75" y="-336.75"/>
<text text-anchor="start" x="402.75" y="-326.3" font-family="Helvetica,sans-Serif" font-size="11.00">identifier</text>
<polygon fill="none" stroke="black" points="607.75,-319.75 607.75,-341.75 736.25,-341.75 736.25,-319.75 607.75,-319.75"/>
<text text-anchor="start" x="610.75" y="-327.05" font-family="Helvetica,sans-Serif" font-size="11.00">varchar[191]</text>
<polygon fill="none" stroke="black" points="382.75,-297.75 382.75,-319.75 607.75,-319.75 607.75,-297.75 382.75,-297.75"/>
<text text-anchor="start" x="402.75" y="-304.3" font-family="Helvetica,sans-Serif" font-size="11.00">original_filename</text>
<polygon fill="none" stroke="black" points="607.75,-297.75 607.75,-319.75 736.25,-319.75 736.25,-297.75 607.75,-297.75"/>
<text text-anchor="start" x="610.75" y="-305.05" font-family="Helvetica,sans-Serif" font-size="11.00">varchar[1024]</text>
<polygon fill="none" stroke="black" points="382.75,-275.75 382.75,-297.75 607.75,-297.75 607.75,-275.75 382.75,-275.75"/>
<text text-anchor="start" x="402.75" y="-282.3" font-family="Helvetica,sans-Serif" font-size="11.00">file_size</text>
<polygon fill="none" stroke="black" points="607.75,-275.75 607.75,-297.75 736.25,-297.75 736.25,-275.75 607.75,-275.75"/>
<text text-anchor="start" x="610.75" y="-283.05" font-family="Helvetica,sans-Serif" font-size="11.00">bigint[19]</text>
<polygon fill="#ffffff" stroke="none" points="382.75,-253.75 382.75,-275.75 607.75,-275.75 607.75,-253.75 382.75,-253.75"/>
<polygon fill="none" stroke="black" points="382.75,-253.75 382.75,-275.75 607.75,-275.75 607.75,-253.75 382.75,-253.75"/>
<image xlink:href="../../images/foreignKeys.png" width="11px" height="12px" preserveAspectRatio="xMinYMin meet" x="387.75" y="-270.75"/>
<text text-anchor="start" x="402.75" y="-260.3" font-family="Helvetica,sans-Serif" font-size="11.00">report</text>
<polygon fill="none" stroke="black" points="607.75,-253.75 607.75,-275.75 736.25,-275.75 736.25,-253.75 607.75,-253.75"/>
<text text-anchor="start" x="610.75" y="-261.05" font-family="Helvetica,sans-Serif" font-size="11.00">varchar[191]</text>
<polygon fill="none" stroke="black" points="382.75,-231.75 382.75,-253.75 607.75,-253.75 607.75,-231.75 382.75,-231.75"/>
<text text-anchor="start" x="402.75" y="-238.3" font-family="Helvetica,sans-Serif" font-size="11.00">version</text>
<polygon fill="none" stroke="black" points="607.75,-231.75 607.75,-253.75 736.25,-253.75 736.25,-231.75 607.75,-231.75"/>
<text text-anchor="start" x="610.75" y="-239.05" font-family="Helvetica,sans-Serif" font-size="11.00">bigint[19]</text>
<polygon fill="none" stroke="black" points="382.75,-209.75 382.75,-231.75 607.75,-231.75 607.75,-209.75 382.75,-209.75"/>
<text text-anchor="start" x="402.75" y="-216.3" font-family="Helvetica,sans-Serif" font-size="11.00">created_by</text>
<polygon fill="none" stroke="black" points="607.75,-209.75 607.75,-231.75 736.25,-231.75 736.25,-209.75 607.75,-209.75"/>
<text text-anchor="start" x="610.75" y="-217.05" font-family="Helvetica,sans-Serif" font-size="11.00">varchar[191]</text>
<polygon fill="none" stroke="black" points="382.75,-187.75 382.75,-209.75 607.75,-209.75 607.75,-187.75 382.75,-187.75"/>
<text text-anchor="start" x="402.75" y="-194.3" font-family="Helvetica,sans-Serif" font-size="11.00">last_modified_by</text>
<polygon fill="none" stroke="black" points="607.75,-187.75 607.75,-209.75 736.25,-209.75 736.25,-187.75 607.75,-187.75"/>
<text text-anchor="start" x="610.75" y="-195.05" font-family="Helvetica,sans-Serif" font-size="11.00">varchar[191]</text>
<polygon fill="none" stroke="black" points="382.75,-165.75 382.75,-187.75 607.75,-187.75 607.75,-165.75 382.75,-165.75"/>
<text text-anchor="start" x="402.75" y="-172.3" font-family="Helvetica,sans-Serif" font-size="11.00">created_date</text>
<polygon fill="none" stroke="black" points="607.75,-165.75 607.75,-187.75 736.25,-187.75 736.25,-165.75 607.75,-165.75"/>
<text text-anchor="start" x="610.75" y="-173.05" font-family="Helvetica,sans-Serif" font-size="11.00">timestamp[19]</text>
<polygon fill="none" stroke="black" points="382.75,-143.75 382.75,-165.75 607.75,-165.75 607.75,-143.75 382.75,-143.75"/>
<text text-anchor="start" x="402.75" y="-150.3" font-family="Helvetica,sans-Serif" font-size="11.00">last_modified_date</text>
<polygon fill="none" stroke="black" points="607.75,-143.75 607.75,-165.75 736.25,-165.75 736.25,-143.75 607.75,-143.75"/>
<text text-anchor="start" x="610.75" y="-151.05" font-family="Helvetica,sans-Serif" font-size="11.00">timestamp[19]</text>
<polygon fill="#ffffff" stroke="none" points="382.75,-124.25 382.75,-143.75 777,-143.75 777,-124.25 382.75,-124.25"/>
<polygon fill="none" stroke="black" points="382.75,-124.25 382.75,-143.75 777,-143.75 777,-124.25 382.75,-124.25"/>
<polygon fill="#ffffff" stroke="none" points="383.75,-125.25 383.75,-142.75 518.5,-142.75 518.5,-125.25 383.75,-125.25"/>
<text text-anchor="start" x="385.75" y="-130.3" font-family="Helvetica,sans-Serif" font-size="11.00">&lt; 1</text>
<polygon fill="#ffffff" stroke="none" points="518.5,-125.25 518.5,-142.75 641.25,-142.75 641.25,-125.25 518.5,-125.25"/>
<text text-anchor="start" x="576.12" y="-130.3" font-family="Helvetica,sans-Serif" font-size="11.00"> &#160;</text>
<polygon fill="#ffffff" stroke="none" points="641.25,-125.25 641.25,-142.75 776,-142.75 776,-125.25 641.25,-125.25"/>
<text text-anchor="start" x="754.5" y="-130.3" font-family="Helvetica,sans-Serif" font-size="11.00">0 &gt;</text>
<polygon fill="black" stroke="black" points="518.5,-125.25 518.5,-142.75 518.5,-142.75 518.5,-125.25 518.5,-125.25"/>
<polygon fill="black" stroke="black" points="641.25,-125.25 641.25,-142.75 641.25,-142.75 641.25,-125.25 641.25,-125.25"/>
<polygon fill="none" stroke="black" stroke-width="2" points="381.75,-123.25 381.75,-366.25 778,-366.25 778,-123.25 381.75,-123.25"/>
</a>
</g>
</g>
<!-- doc_condreport_attachment&#45;&gt;doc_condreport -->
<g id="edge2" class="edge">
<title>doc_condreport_attachment:w&#45;&gt;doc_condreport:e</title>
<path fill="none" stroke="black" d="M367.01,-260.01C344.14,-240.39 375.07,-166.5 332.75,-166.5"/>
<polygon fill="black" stroke="black" points="373.82,-262.2 380.33,-268.08 377.94,-263.53 381.11,-264.55 381.11,-264.55 381.11,-264.55 377.94,-263.53 382.53,-261.22 373.82,-262.2"/>
<ellipse fill="none" stroke="black" cx="369.13" cy="-260.69" rx="3.2" ry="3.2"/>
</g>
<!-- doc_condreport_detail -->
<g id="node4" class="node">
<title>doc_condreport_detail</title>
<g id="a_node4"><a xlink:href="../../tables/doc_condreport_detail.html" xlink:title="doc_condreport_detail" target="_top">
<polygon fill="#ffffff" stroke="none" points="475.5,-38.5 475.5,-101 684.25,-101 684.25,-38.5 475.5,-38.5"/>
<polygon fill="#f5f5f5" stroke="none" points="475.5,-77.5 475.5,-101 684.25,-101 684.25,-77.5 475.5,-77.5"/>
<polygon fill="none" stroke="black" points="475.5,-77.5 475.5,-101 684.25,-101 684.25,-77.5 475.5,-77.5"/>
<text text-anchor="start" x="480.5" y="-86.55" font-family="Helvetica,sans-Serif" font-weight="bold" font-size="11.00">doc_condreport_detail</text>
<text text-anchor="start" x="642.5" y="-85.55" font-family="Helvetica,sans-Serif" font-size="11.00">[table]</text>
<polygon fill="none" stroke="black" points="475.5,-58 475.5,-77.5 684.25,-77.5 684.25,-58 475.5,-58"/>
<text text-anchor="start" x="478.5" y="-64.05" font-family="Helvetica,sans-Serif" font-size="11.00">...</text>
<polygon fill="#ffffff" stroke="none" points="475.5,-38.5 475.5,-58 684.25,-58 684.25,-38.5 475.5,-38.5"/>
<polygon fill="none" stroke="black" points="475.5,-38.5 475.5,-58 684.25,-58 684.25,-38.5 475.5,-38.5"/>
<polygon fill="#ffffff" stroke="none" points="476.5,-39.5 476.5,-57 549.42,-57 549.42,-39.5 476.5,-39.5"/>
<text text-anchor="start" x="478.5" y="-44.55" font-family="Helvetica,sans-Serif" font-size="11.00">&lt; 1</text>
<polygon fill="#ffffff" stroke="none" points="549.42,-39.5 549.42,-57 610.33,-57 610.33,-39.5 549.42,-39.5"/>
<text text-anchor="start" x="576.12" y="-44.55" font-family="Helvetica,sans-Serif" font-size="11.00"> &#160;</text>
<polygon fill="#ffffff" stroke="none" points="610.33,-39.5 610.33,-57 683.25,-57 683.25,-39.5 610.33,-39.5"/>
<text text-anchor="start" x="661.75" y="-44.55" font-family="Helvetica,sans-Serif" font-size="11.00">1 &gt;</text>
<polygon fill="black" stroke="black" points="549.42,-39.5 549.42,-57 549.42,-57 549.42,-39.5 549.42,-39.5"/>
<polygon fill="black" stroke="black" points="610.33,-39.5 610.33,-57 610.33,-57 610.33,-39.5 610.33,-39.5"/>
</a>
</g>
</g>
<!-- doc_condreport_detail&#45;&gt;doc_condreport -->
<g id="edge3" class="edge">
<title>doc_condreport_detail:w&#45;&gt;doc_condreport:e</title>
<path fill="none" stroke="black" d="M459.03,-68.27C421.75,-70.98 406.89,-84.48 372.75,-111.75 349.2,-130.56 362.89,-166.5 332.75,-166.5"/>
<polygon fill="black" stroke="black" points="466.17,-68.03 474.29,-71.36 470.5,-67.88 473.83,-67.77 473.83,-67.77 473.83,-67.77 470.5,-67.88 474.05,-64.16 466.17,-68.03"/>
<ellipse fill="none" stroke="black" cx="461.25" cy="-68.19" rx="3.2" ry="3.2"/>
</g>
</g>
</svg>
