<?xml version="1.0" encoding="UTF-8" standalone="no"?>
<!DOCTYPE svg PUBLIC "-//W3C//DTD SVG 1.1//EN"
 "http://www.w3.org/Graphics/SVG/1.1/DTD/svg11.dtd">
<!-- Generated by graphviz version 12.2.1 (0)
 -->
<!-- Title: twoDegreesRelationshipsDiagram Pages: 1 -->
<svg width="741pt" height="251pt"
 viewBox="0.00 0.00 740.75 251.25" xmlns="http://www.w3.org/2000/svg" xmlns:xlink="http://www.w3.org/1999/xlink">
<g id="graph0" class="graph" transform="scale(1 1) rotate(0) translate(4 247.25)">
<title>twoDegreesRelationshipsDiagram</title>
<polygon fill="#ffffff" stroke="none" points="-4,4 -4,-247.25 736.75,-247.25 736.75,4 -4,4"/>
<text text-anchor="middle" x="79.25" y="-7.05" font-family="Helvetica,sans-Serif" font-size="11.00">Generated by SchemaSpy</text>
<!-- exc_doc_unit -->
<g id="node1" class="node">
<title>exc_doc_unit</title>
<g id="a_node1"><a xlink:href="../../tables/exc_doc_unit.html" xlink:title="exc_doc_unit" target="_top">
<polygon fill="#ffffff" stroke="none" points="235.75,-87.5 235.75,-238 393.75,-238 393.75,-87.5 235.75,-87.5"/>
<polygon fill="#f5f5f5" stroke="none" points="235.75,-214.5 235.75,-238 393.75,-238 393.75,-214.5 235.75,-214.5"/>
<polygon fill="none" stroke="black" points="235.75,-214.5 235.75,-238 393.75,-238 393.75,-214.5 235.75,-214.5"/>
<text text-anchor="start" x="240.75" y="-223.55" font-family="Helvetica,sans-Serif" font-weight="bold" font-size="11.00">exc_doc_unit</text>
<text text-anchor="start" x="352" y="-222.55" font-family="Helvetica,sans-Serif" font-size="11.00">[table]</text>
<polygon fill="none" stroke="black" points="235.75,-192.5 235.75,-214.5 393.75,-214.5 393.75,-192.5 235.75,-192.5"/>
<image xlink:href="../../images/primaryKeys.png" width="11px" height="12px" preserveAspectRatio="xMinYMin meet" x="240.75" y="-209.5"/>
<text text-anchor="start" x="255.75" y="-199.05" font-family="Helvetica,sans-Serif" font-size="11.00">identifier</text>
<polygon fill="#ffffff" stroke="none" points="235.75,-170.5 235.75,-192.5 393.75,-192.5 393.75,-170.5 235.75,-170.5"/>
<polygon fill="none" stroke="black" points="235.75,-170.5 235.75,-192.5 393.75,-192.5 393.75,-170.5 235.75,-170.5"/>
<image xlink:href="../../images/foreignKeys.png" width="11px" height="12px" preserveAspectRatio="xMinYMin meet" x="240.75" y="-187.5"/>
<text text-anchor="start" x="255.75" y="-177.05" font-family="Helvetica,sans-Serif" font-size="11.00">report</text>
<polygon fill="#ffffff" stroke="none" points="235.75,-148.5 235.75,-170.5 393.75,-170.5 393.75,-148.5 235.75,-148.5"/>
<polygon fill="none" stroke="black" points="235.75,-148.5 235.75,-170.5 393.75,-170.5 393.75,-148.5 235.75,-148.5"/>
<image xlink:href="../../images/foreignKeys.png" width="11px" height="12px" preserveAspectRatio="xMinYMin meet" x="240.75" y="-165.5"/>
<text text-anchor="start" x="255.75" y="-155.05" font-family="Helvetica,sans-Serif" font-size="11.00">doc_unit</text>
<polygon fill="#ffffff" stroke="none" points="235.75,-126.5 235.75,-148.5 393.75,-148.5 393.75,-126.5 235.75,-126.5"/>
<polygon fill="none" stroke="black" points="235.75,-126.5 235.75,-148.5 393.75,-148.5 393.75,-126.5 235.75,-126.5"/>
<text text-anchor="start" x="255.75" y="-133.05" font-family="Helvetica,sans-Serif" font-size="11.00">parent_key</text>
<polygon fill="none" stroke="black" points="235.75,-107 235.75,-126.5 393.75,-126.5 393.75,-107 235.75,-107"/>
<text text-anchor="start" x="238.75" y="-113.05" font-family="Helvetica,sans-Serif" font-size="11.00">...</text>
<polygon fill="#ffffff" stroke="none" points="235.75,-87.5 235.75,-107 393.75,-107 393.75,-87.5 235.75,-87.5"/>
<polygon fill="none" stroke="black" points="235.75,-87.5 235.75,-107 393.75,-107 393.75,-87.5 235.75,-87.5"/>
<polygon fill="#ffffff" stroke="none" points="236.75,-88.5 236.75,-106 292.75,-106 292.75,-88.5 236.75,-88.5"/>
<text text-anchor="start" x="238.75" y="-93.55" font-family="Helvetica,sans-Serif" font-size="11.00">&lt; 2</text>
<polygon fill="#ffffff" stroke="none" points="292.75,-88.5 292.75,-106 336.75,-106 336.75,-88.5 292.75,-88.5"/>
<text text-anchor="start" x="311" y="-93.55" font-family="Helvetica,sans-Serif" font-size="11.00"> &#160;</text>
<polygon fill="#ffffff" stroke="none" points="336.75,-88.5 336.75,-106 392.75,-106 392.75,-88.5 336.75,-88.5"/>
<text text-anchor="start" x="371.25" y="-93.55" font-family="Helvetica,sans-Serif" font-size="11.00">2 &gt;</text>
<polygon fill="black" stroke="black" points="292.75,-88.5 292.75,-106 292.75,-106 292.75,-88.5 292.75,-88.5"/>
<polygon fill="black" stroke="black" points="336.75,-88.5 336.75,-106 336.75,-106 336.75,-88.5 336.75,-88.5"/>
</a>
</g>
</g>
<!-- doc_unit -->
<g id="node2" class="node">
<title>doc_unit</title>
<g id="a_node2"><a xlink:href="../../tables/doc_unit.html" xlink:title="doc_unit" target="_top">
<polygon fill="#ffffff" stroke="none" points="43.5,-51.5 43.5,-114 151.25,-114 151.25,-51.5 43.5,-51.5"/>
<polygon fill="#f5f5f5" stroke="none" points="43.5,-90.5 43.5,-114 151.25,-114 151.25,-90.5 43.5,-90.5"/>
<polygon fill="none" stroke="black" points="43.5,-90.5 43.5,-114 151.25,-114 151.25,-90.5 43.5,-90.5"/>
<text text-anchor="start" x="48.5" y="-99.55" font-family="Helvetica,sans-Serif" font-weight="bold" font-size="11.00">doc_unit</text>
<text text-anchor="start" x="109.5" y="-98.55" font-family="Helvetica,sans-Serif" font-size="11.00">[table]</text>
<polygon fill="none" stroke="black" points="43.5,-71 43.5,-90.5 151.25,-90.5 151.25,-71 43.5,-71"/>
<text text-anchor="start" x="46.5" y="-77.05" font-family="Helvetica,sans-Serif" font-size="11.00">...</text>
<polygon fill="#ffffff" stroke="none" points="43.5,-51.5 43.5,-71 151.25,-71 151.25,-51.5 43.5,-51.5"/>
<polygon fill="none" stroke="black" points="43.5,-51.5 43.5,-71 151.25,-71 151.25,-51.5 43.5,-51.5"/>
<polygon fill="#ffffff" stroke="none" points="44.5,-52.5 44.5,-70 86,-70 86,-52.5 44.5,-52.5"/>
<text text-anchor="start" x="46.5" y="-57.55" font-family="Helvetica,sans-Serif" font-size="11.00">&lt; 13</text>
<polygon fill="#ffffff" stroke="none" points="86,-52.5 86,-70 108.75,-70 108.75,-52.5 86,-52.5"/>
<text text-anchor="start" x="93.62" y="-57.55" font-family="Helvetica,sans-Serif" font-size="11.00"> &#160;</text>
<polygon fill="#ffffff" stroke="none" points="108.75,-52.5 108.75,-70 150.25,-70 150.25,-52.5 108.75,-52.5"/>
<text text-anchor="start" x="122" y="-57.55" font-family="Helvetica,sans-Serif" font-size="11.00">11 &gt;</text>
<polygon fill="black" stroke="black" points="86,-52.5 86,-70 86,-70 86,-52.5 86,-52.5"/>
<polygon fill="black" stroke="black" points="108.75,-52.5 108.75,-70 108.75,-70 108.75,-52.5 108.75,-52.5"/>
</a>
</g>
</g>
<!-- exc_doc_unit&#45;&gt;doc_unit -->
<g id="edge1" class="edge">
<title>exc_doc_unit:w&#45;&gt;doc_unit:e</title>
<path fill="none" stroke="black" d="M219.57,-156.51C187.53,-142.12 197,-80.75 152.25,-80.75"/>
<polygon fill="black" stroke="black" points="226.57,-157.89 233.73,-162.97 230.83,-158.73 234.09,-159.37 234.09,-159.37 234.09,-159.37 230.83,-158.73 235.12,-155.9 226.57,-157.89"/>
<ellipse fill="none" stroke="black" cx="221.75" cy="-156.94" rx="3.2" ry="3.2"/>
</g>
<!-- exc_import_report -->
<g id="node3" class="node">
<title>exc_import_report</title>
<g id="a_node3"><a xlink:href="../../tables/exc_import_report.html" xlink:title="exc_import_report" target="_top">
<polygon fill="#ffffff" stroke="none" points="8,-151.5 8,-214 186.75,-214 186.75,-151.5 8,-151.5"/>
<polygon fill="#f5f5f5" stroke="none" points="8,-190.5 8,-214 186.75,-214 186.75,-190.5 8,-190.5"/>
<polygon fill="none" stroke="black" points="8,-190.5 8,-214 186.75,-214 186.75,-190.5 8,-190.5"/>
<text text-anchor="start" x="13" y="-199.55" font-family="Helvetica,sans-Serif" font-weight="bold" font-size="11.00">exc_import_report</text>
<text text-anchor="start" x="145" y="-198.55" font-family="Helvetica,sans-Serif" font-size="11.00">[table]</text>
<polygon fill="none" stroke="black" points="8,-171 8,-190.5 186.75,-190.5 186.75,-171 8,-171"/>
<text text-anchor="start" x="11" y="-177.05" font-family="Helvetica,sans-Serif" font-size="11.00">...</text>
<polygon fill="#ffffff" stroke="none" points="8,-151.5 8,-171 186.75,-171 186.75,-151.5 8,-151.5"/>
<polygon fill="none" stroke="black" points="8,-151.5 8,-171 186.75,-171 186.75,-151.5 8,-151.5"/>
<polygon fill="#ffffff" stroke="none" points="9,-152.5 9,-170 71.92,-170 71.92,-152.5 9,-152.5"/>
<text text-anchor="start" x="11" y="-157.55" font-family="Helvetica,sans-Serif" font-size="11.00">&lt; 7</text>
<polygon fill="#ffffff" stroke="none" points="71.92,-152.5 71.92,-170 122.83,-170 122.83,-152.5 71.92,-152.5"/>
<text text-anchor="start" x="93.62" y="-157.55" font-family="Helvetica,sans-Serif" font-size="11.00"> &#160;</text>
<polygon fill="#ffffff" stroke="none" points="122.83,-152.5 122.83,-170 185.75,-170 185.75,-152.5 122.83,-152.5"/>
<text text-anchor="start" x="164.25" y="-157.55" font-family="Helvetica,sans-Serif" font-size="11.00">3 &gt;</text>
<polygon fill="black" stroke="black" points="71.92,-152.5 71.92,-170 71.92,-170 71.92,-152.5 71.92,-152.5"/>
<polygon fill="black" stroke="black" points="122.83,-152.5 122.83,-170 122.83,-170 122.83,-152.5 122.83,-152.5"/>
</a>
</g>
</g>
<!-- exc_doc_unit&#45;&gt;exc_import_report -->
<g id="edge2" class="edge">
<title>exc_doc_unit:w&#45;&gt;exc_import_report:e</title>
<path fill="none" stroke="black" d="M219.13,-181.33C209.22,-181.11 202.28,-180.75 187.75,-180.75"/>
<polygon fill="black" stroke="black" points="226.42,-181.41 234.38,-185.1 230.75,-181.46 234.08,-181.49 234.08,-181.49 234.08,-181.49 230.75,-181.46 234.45,-177.9 226.42,-181.41"/>
<ellipse fill="none" stroke="black" cx="221.5" cy="-181.36" rx="3.2" ry="3.2"/>
</g>
<!-- exc_doc_unit_dupl -->
<g id="node4" class="node">
<title>exc_doc_unit_dupl</title>
<g id="a_node4"><a xlink:href="../../tables/exc_doc_unit_dupl.html" xlink:title="exc_doc_unit_dupl" target="_top">
<polygon fill="#ffffff" stroke="none" points="494.88,-38.5 494.88,-101 672.62,-101 672.62,-38.5 494.88,-38.5"/>
<polygon fill="#f5f5f5" stroke="none" points="494.88,-77.5 494.88,-101 672.62,-101 672.62,-77.5 494.88,-77.5"/>
<polygon fill="none" stroke="black" points="494.88,-77.5 494.88,-101 672.62,-101 672.62,-77.5 494.88,-77.5"/>
<text text-anchor="start" x="499.88" y="-86.55" font-family="Helvetica,sans-Serif" font-weight="bold" font-size="11.00">exc_doc_unit_dupl</text>
<text text-anchor="start" x="630.88" y="-85.55" font-family="Helvetica,sans-Serif" font-size="11.00">[table]</text>
<polygon fill="none" stroke="black" points="494.88,-58 494.88,-77.5 672.62,-77.5 672.62,-58 494.88,-58"/>
<text text-anchor="start" x="497.88" y="-64.05" font-family="Helvetica,sans-Serif" font-size="11.00">...</text>
<polygon fill="#ffffff" stroke="none" points="494.88,-38.5 494.88,-58 672.62,-58 672.62,-38.5 494.88,-38.5"/>
<polygon fill="none" stroke="black" points="494.88,-38.5 494.88,-58 672.62,-58 672.62,-38.5 494.88,-38.5"/>
<polygon fill="#ffffff" stroke="none" points="495.88,-39.5 495.88,-57 562.46,-57 562.46,-39.5 495.88,-39.5"/>
<text text-anchor="start" x="497.88" y="-44.55" font-family="Helvetica,sans-Serif" font-size="11.00">&lt; 2</text>
<polygon fill="#ffffff" stroke="none" points="562.46,-39.5 562.46,-57 617.04,-57 617.04,-39.5 562.46,-39.5"/>
<text text-anchor="start" x="586" y="-44.55" font-family="Helvetica,sans-Serif" font-size="11.00"> &#160;</text>
<polygon fill="#ffffff" stroke="none" points="617.04,-39.5 617.04,-57 671.62,-57 671.62,-39.5 617.04,-39.5"/>
<text text-anchor="start" x="662.12" y="-44.55" font-family="Helvetica,sans-Serif" font-size="11.00"> &#160;</text>
<polygon fill="black" stroke="black" points="562.46,-39.5 562.46,-57 562.46,-57 562.46,-39.5 562.46,-39.5"/>
<polygon fill="black" stroke="black" points="617.04,-39.5 617.04,-57 617.04,-57 617.04,-39.5 617.04,-39.5"/>
</a>
</g>
</g>
<!-- exc_doc_unit_dupl&#45;&gt;exc_doc_unit -->
<g id="edge4" class="edge">
<title>exc_doc_unit_dupl:w&#45;&gt;exc_doc_unit:e</title>
<path fill="none" stroke="black" d="M478.2,-69.72C457.86,-75.56 451.74,-93.79 434.75,-115.75 408.53,-149.65 437.61,-203.5 394.75,-203.5"/>
<polygon fill="black" stroke="black" points="485.61,-68.79 493.99,-71.36 489.91,-68.25 493.21,-67.83 493.21,-67.83 493.21,-67.83 489.91,-68.25 493.1,-64.22 485.61,-68.79"/>
<ellipse fill="none" stroke="black" cx="480.73" cy="-69.4" rx="3.2" ry="3.2"/>
</g>
<!-- exc_doc_unit_dupl&#45;&gt;doc_unit -->
<g id="edge3" class="edge">
<title>exc_doc_unit_dupl:w&#45;&gt;doc_unit:e</title>
<path fill="none" stroke="black" d="M478.12,-67.77C372.63,-68.11 340.56,-71.85 227.75,-76.75 194.18,-78.21 185.85,-80.75 152.25,-80.75"/>
<polygon fill="black" stroke="black" points="485.54,-67.76 493.55,-71.35 489.88,-67.76 493.21,-67.75 493.21,-67.75 493.21,-67.75 489.88,-67.76 493.53,-64.15 485.54,-67.76"/>
<ellipse fill="none" stroke="black" cx="480.62" cy="-67.77" rx="3.2" ry="3.2"/>
</g>
<!-- exc_doc_unit_msg -->
<g id="node5" class="node">
<title>exc_doc_unit_msg</title>
<g id="a_node5"><a xlink:href="../../tables/exc_doc_unit_msg.html" xlink:title="exc_doc_unit_msg" target="_top">
<polygon fill="#ffffff" stroke="none" points="442.75,-126.25 442.75,-239.25 724.75,-239.25 724.75,-126.25 442.75,-126.25"/>
<polygon fill="#f5f5f5" stroke="none" points="444.75,-213.75 444.75,-237.25 722.75,-237.25 722.75,-213.75 444.75,-213.75"/>
<polygon fill="none" stroke="black" points="444.75,-213.75 444.75,-237.25 722.75,-237.25 722.75,-213.75 444.75,-213.75"/>
<text text-anchor="start" x="449.75" y="-222.8" font-family="Helvetica,sans-Serif" font-weight="bold" font-size="11.00">exc_doc_unit_msg</text>
<text text-anchor="start" x="681" y="-221.8" font-family="Helvetica,sans-Serif" font-size="11.00">[table]</text>
<polygon fill="#ffffff" stroke="none" points="444.75,-191.75 444.75,-213.75 595.75,-213.75 595.75,-191.75 444.75,-191.75"/>
<polygon fill="none" stroke="black" points="444.75,-191.75 444.75,-213.75 595.75,-213.75 595.75,-191.75 444.75,-191.75"/>
<image xlink:href="../../images/foreignKeys.png" width="11px" height="12px" preserveAspectRatio="xMinYMin meet" x="449.75" y="-208.75"/>
<text text-anchor="start" x="464.75" y="-198.3" font-family="Helvetica,sans-Serif" font-size="11.00">imp_unit</text>
<polygon fill="none" stroke="black" points="595.75,-191.75 595.75,-213.75 697.88,-213.75 697.88,-191.75 595.75,-191.75"/>
<text text-anchor="start" x="598.75" y="-199.05" font-family="Helvetica,sans-Serif" font-size="11.00">varchar[191]</text>
<polygon fill="none" stroke="black" points="444.75,-169.75 444.75,-191.75 595.75,-191.75 595.75,-169.75 444.75,-169.75"/>
<text text-anchor="start" x="464.75" y="-176.3" font-family="Helvetica,sans-Serif" font-size="11.00">code</text>
<polygon fill="none" stroke="black" points="595.75,-169.75 595.75,-191.75 697.88,-191.75 697.88,-169.75 595.75,-169.75"/>
<text text-anchor="start" x="598.75" y="-177.05" font-family="Helvetica,sans-Serif" font-size="11.00">varchar[255]</text>
<polygon fill="none" stroke="black" points="444.75,-147.75 444.75,-169.75 595.75,-169.75 595.75,-147.75 444.75,-147.75"/>
<text text-anchor="start" x="464.75" y="-154.3" font-family="Helvetica,sans-Serif" font-size="11.00">complement</text>
<polygon fill="none" stroke="black" points="595.75,-147.75 595.75,-169.75 697.88,-169.75 697.88,-147.75 595.75,-147.75"/>
<text text-anchor="start" x="598.75" y="-155.05" font-family="Helvetica,sans-Serif" font-size="11.00">text[65535]</text>
<polygon fill="#ffffff" stroke="none" points="444.75,-128.25 444.75,-147.75 722.75,-147.75 722.75,-128.25 444.75,-128.25"/>
<polygon fill="none" stroke="black" points="444.75,-128.25 444.75,-147.75 722.75,-147.75 722.75,-128.25 444.75,-128.25"/>
<polygon fill="#ffffff" stroke="none" points="445.75,-129.25 445.75,-146.75 541.75,-146.75 541.75,-129.25 445.75,-129.25"/>
<text text-anchor="start" x="447.75" y="-134.3" font-family="Helvetica,sans-Serif" font-size="11.00">&lt; 1</text>
<polygon fill="#ffffff" stroke="none" points="541.75,-129.25 541.75,-146.75 625.75,-146.75 625.75,-129.25 541.75,-129.25"/>
<text text-anchor="start" x="580" y="-134.3" font-family="Helvetica,sans-Serif" font-size="11.00"> &#160;</text>
<polygon fill="#ffffff" stroke="none" points="625.75,-129.25 625.75,-146.75 721.75,-146.75 721.75,-129.25 625.75,-129.25"/>
<text text-anchor="start" x="700.25" y="-134.3" font-family="Helvetica,sans-Serif" font-size="11.00">0 &gt;</text>
<polygon fill="black" stroke="black" points="541.75,-129.25 541.75,-146.75 541.75,-146.75 541.75,-129.25 541.75,-129.25"/>
<polygon fill="black" stroke="black" points="625.75,-129.25 625.75,-146.75 625.75,-146.75 625.75,-129.25 625.75,-129.25"/>
<polygon fill="none" stroke="black" stroke-width="2" points="443.75,-127.25 443.75,-238.25 723.75,-238.25 723.75,-127.25 443.75,-127.25"/>
</a>
</g>
</g>
<!-- exc_doc_unit_msg&#45;&gt;exc_doc_unit -->
<g id="edge5" class="edge">
<title>exc_doc_unit_msg:w&#45;&gt;exc_doc_unit:e</title>
<path fill="none" stroke="black" d="M428.17,-202.9C417.46,-203.12 410.23,-203.5 394.75,-203.5"/>
<polygon fill="black" stroke="black" points="435.42,-202.83 443.45,-206.35 439.75,-202.79 443.08,-202.76 443.08,-202.76 443.08,-202.76 439.75,-202.79 443.38,-199.15 435.42,-202.83"/>
<ellipse fill="none" stroke="black" cx="430.5" cy="-202.88" rx="3.2" ry="3.2"/>
</g>
</g>
</svg>
