<?xml version="1.0" encoding="UTF-8" standalone="no"?>
<!DOCTYPE svg PUBLIC "-//W3C//DTD SVG 1.1//EN"
 "http://www.w3.org/Graphics/SVG/1.1/DTD/svg11.dtd">
<!-- Generated by graphviz version 12.2.0 (0)
 -->
<!-- Title: oneDegreeRelationshipsDiagram Pages: 1 -->
<svg width="318pt" height="384pt"
 viewBox="0.00 0.00 318.00 383.50" xmlns="http://www.w3.org/2000/svg" xmlns:xlink="http://www.w3.org/1999/xlink">
<g id="graph0" class="graph" transform="scale(1 1) rotate(0) translate(4 379.5)">
<title>oneDegreeRelationshipsDiagram</title>
<polygon fill="#ffffff" stroke="none" points="-4,4 -4,-379.5 314,-379.5 314,4 -4,4"/>
<text text-anchor="middle" x="79.25" y="-7.05" font-family="Helvetica,sans-Serif" font-size="11.00">Generated by SchemaSpy</text>
<!-- aud_exc_mapping_rule -->
<g id="node1" class="node">
<title>aud_exc_mapping_rule</title>
<g id="a_node1"><a xlink:href="../../tables/aud_exc_mapping_rule.html" xlink:title="aud_exc_mapping_rule" target="_top">
<polygon fill="#ffffff" stroke="none" points="8,-38.5 8,-371.5 302,-371.5 302,-38.5 8,-38.5"/>
<polygon fill="#f5f5f5" stroke="none" points="10,-346 10,-369.5 300,-369.5 300,-346 10,-346"/>
<polygon fill="none" stroke="black" points="10,-346 10,-369.5 300,-369.5 300,-346 10,-346"/>
<text text-anchor="start" x="15" y="-355.05" font-family="Helvetica,sans-Serif" font-weight="bold" font-size="11.00">aud_exc_mapping_rule</text>
<text text-anchor="start" x="258.25" y="-354.05" font-family="Helvetica,sans-Serif" font-size="11.00">[table]</text>
<polygon fill="none" stroke="black" points="10,-324 10,-346 182,-346 182,-324 10,-324"/>
<image xlink:href="../../images/primaryKeys.png" width="11px" height="12px" preserveAspectRatio="xMinYMin meet" x="15" y="-341"/>
<text text-anchor="start" x="30" y="-330.55" font-family="Helvetica,sans-Serif" font-size="11.00">identifier</text>
<polygon fill="none" stroke="black" points="182,-324 182,-346 279.62,-346 279.62,-324 182,-324"/>
<text text-anchor="start" x="185" y="-331.3" font-family="Helvetica,sans-Serif" font-size="11.00">varchar[191]</text>
<polygon fill="none" stroke="black" points="10,-302 10,-324 182,-324 182,-302 10,-302"/>
<image xlink:href="../../images/primaryKeys.png" width="11px" height="12px" preserveAspectRatio="xMinYMin meet" x="15" y="-319"/>
<text text-anchor="start" x="30" y="-308.55" font-family="Helvetica,sans-Serif" font-size="11.00">rev</text>
<polygon fill="none" stroke="black" points="182,-302 182,-324 279.62,-324 279.62,-302 182,-302"/>
<text text-anchor="start" x="185" y="-309.3" font-family="Helvetica,sans-Serif" font-size="11.00">int[10]</text>
<polygon fill="none" stroke="black" points="10,-280 10,-302 182,-302 182,-280 10,-280"/>
<text text-anchor="start" x="30" y="-286.55" font-family="Helvetica,sans-Serif" font-size="11.00">revtype</text>
<polygon fill="none" stroke="black" points="182,-280 182,-302 279.62,-302 279.62,-280 182,-280"/>
<text text-anchor="start" x="185" y="-287.3" font-family="Helvetica,sans-Serif" font-size="11.00">tinyint[3]</text>
<polygon fill="none" stroke="black" points="10,-258 10,-280 182,-280 182,-258 10,-258"/>
<text text-anchor="start" x="30" y="-264.55" font-family="Helvetica,sans-Serif" font-size="11.00">doc_unit_field</text>
<polygon fill="none" stroke="black" points="182,-258 182,-280 279.62,-280 279.62,-258 182,-258"/>
<text text-anchor="start" x="185" y="-265.3" font-family="Helvetica,sans-Serif" font-size="11.00">varchar[255]</text>
<polygon fill="none" stroke="black" points="10,-236 10,-258 182,-258 182,-236 10,-236"/>
<text text-anchor="start" x="30" y="-242.55" font-family="Helvetica,sans-Serif" font-size="11.00">bib_record_field</text>
<polygon fill="none" stroke="black" points="182,-236 182,-258 279.62,-258 279.62,-236 182,-236"/>
<text text-anchor="start" x="185" y="-243.3" font-family="Helvetica,sans-Serif" font-size="11.00">varchar[255]</text>
<polygon fill="none" stroke="black" points="10,-214 10,-236 182,-236 182,-214 10,-214"/>
<text text-anchor="start" x="30" y="-220.55" font-family="Helvetica,sans-Serif" font-size="11.00">property</text>
<polygon fill="none" stroke="black" points="182,-214 182,-236 279.62,-236 279.62,-214 182,-214"/>
<text text-anchor="start" x="185" y="-221.3" font-family="Helvetica,sans-Serif" font-size="11.00">varchar[191]</text>
<polygon fill="none" stroke="black" points="10,-192 10,-214 182,-214 182,-192 10,-192"/>
<text text-anchor="start" x="30" y="-198.55" font-family="Helvetica,sans-Serif" font-size="11.00">expression</text>
<polygon fill="none" stroke="black" points="182,-192 182,-214 279.62,-214 279.62,-192 182,-192"/>
<text text-anchor="start" x="185" y="-199.3" font-family="Helvetica,sans-Serif" font-size="11.00">text[65535]</text>
<polygon fill="none" stroke="black" points="10,-170 10,-192 182,-192 182,-170 10,-170"/>
<text text-anchor="start" x="30" y="-176.55" font-family="Helvetica,sans-Serif" font-size="11.00">expression_conf</text>
<polygon fill="none" stroke="black" points="182,-170 182,-192 279.62,-192 279.62,-170 182,-170"/>
<text text-anchor="start" x="185" y="-177.3" font-family="Helvetica,sans-Serif" font-size="11.00">text[65535]</text>
<polygon fill="none" stroke="black" points="10,-148 10,-170 182,-170 182,-148 10,-148"/>
<text text-anchor="start" x="30" y="-154.55" font-family="Helvetica,sans-Serif" font-size="11.00">apply_if</text>
<polygon fill="none" stroke="black" points="182,-148 182,-170 279.62,-170 279.62,-148 182,-148"/>
<text text-anchor="start" x="185" y="-155.3" font-family="Helvetica,sans-Serif" font-size="11.00">text[65535]</text>
<polygon fill="none" stroke="black" points="10,-126 10,-148 182,-148 182,-126 10,-126"/>
<text text-anchor="start" x="30" y="-132.55" font-family="Helvetica,sans-Serif" font-size="11.00">apply_if_conf</text>
<polygon fill="none" stroke="black" points="182,-126 182,-148 279.62,-148 279.62,-126 182,-126"/>
<text text-anchor="start" x="185" y="-133.3" font-family="Helvetica,sans-Serif" font-size="11.00">text[65535]</text>
<polygon fill="none" stroke="black" points="10,-104 10,-126 182,-126 182,-104 10,-104"/>
<text text-anchor="start" x="30" y="-110.55" font-family="Helvetica,sans-Serif" font-size="11.00">mapping</text>
<polygon fill="none" stroke="black" points="182,-104 182,-126 279.62,-126 279.62,-104 182,-104"/>
<text text-anchor="start" x="185" y="-111.3" font-family="Helvetica,sans-Serif" font-size="11.00">varchar[191]</text>
<polygon fill="none" stroke="black" points="10,-82 10,-104 182,-104 182,-82 10,-82"/>
<text text-anchor="start" x="30" y="-88.55" font-family="Helvetica,sans-Serif" font-size="11.00">position</text>
<polygon fill="none" stroke="black" points="182,-82 182,-104 279.62,-104 279.62,-82 182,-82"/>
<text text-anchor="start" x="185" y="-89.3" font-family="Helvetica,sans-Serif" font-size="11.00">int[10]</text>
<polygon fill="none" stroke="black" points="10,-60 10,-82 182,-82 182,-60 10,-60"/>
<text text-anchor="start" x="30" y="-66.55" font-family="Helvetica,sans-Serif" font-size="11.00">default_rule</text>
<polygon fill="none" stroke="black" points="182,-60 182,-82 279.62,-82 279.62,-60 182,-60"/>
<text text-anchor="start" x="185" y="-67.3" font-family="Helvetica,sans-Serif" font-size="11.00">bit[1]</text>
<polygon fill="#ffffff" stroke="none" points="10,-40.5 10,-60 102,-60 102,-40.5 10,-40.5"/>
<polygon fill="none" stroke="black" points="10,-40.5 10,-60 102,-60 102,-40.5 10,-40.5"/>
<text text-anchor="start" x="13" y="-46.55" font-family="Helvetica,sans-Serif" font-size="11.00">&lt; 0</text>
<polygon fill="#ffffff" stroke="none" points="102,-40.5 102,-60 182,-60 182,-40.5 102,-40.5"/>
<polygon fill="none" stroke="black" points="102,-40.5 102,-60 182,-60 182,-40.5 102,-40.5"/>
<text text-anchor="start" x="171.5" y="-46.55" font-family="Helvetica,sans-Serif" font-size="11.00"> &#160;</text>
<polygon fill="#ffffff" stroke="none" points="182,-40.5 182,-60 279.62,-60 279.62,-40.5 182,-40.5"/>
<polygon fill="none" stroke="black" points="182,-40.5 182,-60 279.62,-60 279.62,-40.5 182,-40.5"/>
<text text-anchor="start" x="257.12" y="-46.55" font-family="Helvetica,sans-Serif" font-size="11.00">0 &gt;</text>
<polygon fill="none" stroke="black" stroke-width="2" points="9,-39.5 9,-370.5 301,-370.5 301,-39.5 9,-39.5"/>
</a>
</g>
</g>
</g>
</svg>
