<?xml version="1.0" encoding="UTF-8" standalone="no"?>
<!DOCTYPE svg PUBLIC "-//W3C//DTD SVG 1.1//EN"
 "http://www.w3.org/Graphics/SVG/1.1/DTD/svg11.dtd">
<!-- Generated by graphviz version 12.2.0 (0)
 -->
<!-- Title: oneDegreeRelationshipsDiagram Pages: 1 -->
<svg width="270pt" height="252pt"
 viewBox="0.00 0.00 270.00 251.50" xmlns="http://www.w3.org/2000/svg" xmlns:xlink="http://www.w3.org/1999/xlink">
<g id="graph0" class="graph" transform="scale(1 1) rotate(0) translate(4 247.5)">
<title>oneDegreeRelationshipsDiagram</title>
<polygon fill="#ffffff" stroke="none" points="-4,4 -4,-247.5 266,-247.5 266,4 -4,4"/>
<text text-anchor="middle" x="79.25" y="-7.05" font-family="Helvetica,sans-Serif" font-size="11.00">Generated by SchemaSpy</text>
<!-- aud_exc_mapping -->
<g id="node1" class="node">
<title>aud_exc_mapping</title>
<g id="a_node1"><a xlink:href="../../tables/aud_exc_mapping.html" xlink:title="aud_exc_mapping" target="_top">
<polygon fill="#ffffff" stroke="none" points="8,-38.5 8,-239.5 254,-239.5 254,-38.5 8,-38.5"/>
<polygon fill="#f5f5f5" stroke="none" points="10,-214 10,-237.5 252,-237.5 252,-214 10,-214"/>
<polygon fill="none" stroke="black" points="10,-214 10,-237.5 252,-237.5 252,-214 10,-214"/>
<text text-anchor="start" x="15" y="-223.05" font-family="Helvetica,sans-Serif" font-weight="bold" font-size="11.00">aud_exc_mapping</text>
<text text-anchor="start" x="210.25" y="-222.05" font-family="Helvetica,sans-Serif" font-size="11.00">[table]</text>
<polygon fill="none" stroke="black" points="10,-192 10,-214 150,-214 150,-192 10,-192"/>
<image xlink:href="../../images/primaryKeys.png" width="11px" height="12px" preserveAspectRatio="xMinYMin meet" x="15" y="-209"/>
<text text-anchor="start" x="30" y="-198.55" font-family="Helvetica,sans-Serif" font-size="11.00">identifier</text>
<polygon fill="none" stroke="black" points="150,-192 150,-214 239.62,-214 239.62,-192 150,-192"/>
<text text-anchor="start" x="153" y="-199.3" font-family="Helvetica,sans-Serif" font-size="11.00">varchar[191]</text>
<polygon fill="none" stroke="black" points="10,-170 10,-192 150,-192 150,-170 10,-170"/>
<image xlink:href="../../images/primaryKeys.png" width="11px" height="12px" preserveAspectRatio="xMinYMin meet" x="15" y="-187"/>
<text text-anchor="start" x="30" y="-176.55" font-family="Helvetica,sans-Serif" font-size="11.00">rev</text>
<polygon fill="none" stroke="black" points="150,-170 150,-192 239.62,-192 239.62,-170 150,-170"/>
<text text-anchor="start" x="153" y="-177.3" font-family="Helvetica,sans-Serif" font-size="11.00">int[10]</text>
<polygon fill="none" stroke="black" points="10,-148 10,-170 150,-170 150,-148 10,-148"/>
<text text-anchor="start" x="30" y="-154.55" font-family="Helvetica,sans-Serif" font-size="11.00">revtype</text>
<polygon fill="none" stroke="black" points="150,-148 150,-170 239.62,-170 239.62,-148 150,-148"/>
<text text-anchor="start" x="153" y="-155.3" font-family="Helvetica,sans-Serif" font-size="11.00">tinyint[3]</text>
<polygon fill="none" stroke="black" points="10,-126 10,-148 150,-148 150,-126 10,-126"/>
<text text-anchor="start" x="30" y="-132.55" font-family="Helvetica,sans-Serif" font-size="11.00">label</text>
<polygon fill="none" stroke="black" points="150,-126 150,-148 239.62,-148 239.62,-126 150,-126"/>
<text text-anchor="start" x="153" y="-133.3" font-family="Helvetica,sans-Serif" font-size="11.00">varchar[255]</text>
<polygon fill="none" stroke="black" points="10,-104 10,-126 150,-126 150,-104 10,-104"/>
<text text-anchor="start" x="30" y="-110.55" font-family="Helvetica,sans-Serif" font-size="11.00">library</text>
<polygon fill="none" stroke="black" points="150,-104 150,-126 239.62,-126 239.62,-104 150,-104"/>
<text text-anchor="start" x="153" y="-111.3" font-family="Helvetica,sans-Serif" font-size="11.00">varchar[191]</text>
<polygon fill="none" stroke="black" points="10,-82 10,-104 150,-104 150,-82 10,-82"/>
<text text-anchor="start" x="30" y="-88.55" font-family="Helvetica,sans-Serif" font-size="11.00">type</text>
<polygon fill="none" stroke="black" points="150,-82 150,-104 239.62,-104 239.62,-82 150,-82"/>
<text text-anchor="start" x="153" y="-89.3" font-family="Helvetica,sans-Serif" font-size="11.00">varchar[255]</text>
<polygon fill="none" stroke="black" points="10,-60 10,-82 150,-82 150,-60 10,-60"/>
<text text-anchor="start" x="30" y="-66.55" font-family="Helvetica,sans-Serif" font-size="11.00">join_expression</text>
<polygon fill="none" stroke="black" points="150,-60 150,-82 239.62,-82 239.62,-60 150,-60"/>
<text text-anchor="start" x="153" y="-67.3" font-family="Helvetica,sans-Serif" font-size="11.00">text[65535]</text>
<polygon fill="#ffffff" stroke="none" points="10,-40.5 10,-60 86,-60 86,-40.5 10,-40.5"/>
<polygon fill="none" stroke="black" points="10,-40.5 10,-60 86,-60 86,-40.5 10,-40.5"/>
<text text-anchor="start" x="13" y="-46.55" font-family="Helvetica,sans-Serif" font-size="11.00">&lt; 0</text>
<polygon fill="#ffffff" stroke="none" points="86,-40.5 86,-60 150,-60 150,-40.5 86,-40.5"/>
<polygon fill="none" stroke="black" points="86,-40.5 86,-60 150,-60 150,-40.5 86,-40.5"/>
<text text-anchor="start" x="139.5" y="-46.55" font-family="Helvetica,sans-Serif" font-size="11.00"> &#160;</text>
<polygon fill="#ffffff" stroke="none" points="150,-40.5 150,-60 239.62,-60 239.62,-40.5 150,-40.5"/>
<polygon fill="none" stroke="black" points="150,-40.5 150,-60 239.62,-60 239.62,-40.5 150,-40.5"/>
<text text-anchor="start" x="217.12" y="-46.55" font-family="Helvetica,sans-Serif" font-size="11.00">0 &gt;</text>
<polygon fill="none" stroke="black" stroke-width="2" points="9,-39.5 9,-238.5 253,-238.5 253,-39.5 9,-39.5"/>
</a>
</g>
</g>
</g>
</svg>
