<?xml version="1.0" encoding="UTF-8" standalone="no"?>
<!DOCTYPE svg PUBLIC "-//W3C//DTD SVG 1.1//EN"
 "http://www.w3.org/Graphics/SVG/1.1/DTD/svg11.dtd">
<!-- Generated by graphviz version 12.2.0 (0)
 -->
<!-- Title: oneDegreeRelationshipsDiagram Pages: 1 -->
<svg width="596pt" height="489pt"
 viewBox="0.00 0.00 596.00 489.25" xmlns="http://www.w3.org/2000/svg" xmlns:xlink="http://www.w3.org/1999/xlink">
<g id="graph0" class="graph" transform="scale(1 1) rotate(0) translate(4 485.25)">
<title>oneDegreeRelationshipsDiagram</title>
<polygon fill="#ffffff" stroke="none" points="-4,4 -4,-485.25 592,-485.25 592,4 -4,4"/>
<text text-anchor="middle" x="79.25" y="-7.05" font-family="Helvetica,sans-Serif" font-size="11.00">Generated by SchemaSpy</text>
<!-- check_automatic_result -->
<g id="node1" class="node">
<title>check_automatic_result</title>
<g id="a_node1"><a xlink:href="../../tables/check_automatic_result.html" xlink:title="check_automatic_result" target="_top">
<polygon fill="#ffffff" stroke="none" points="364.25,-260.75 364.25,-477.25 569,-477.25 569,-260.75 364.25,-260.75"/>
<polygon fill="#f5f5f5" stroke="none" points="364.25,-453.75 364.25,-477.25 569,-477.25 569,-453.75 364.25,-453.75"/>
<polygon fill="none" stroke="black" points="364.25,-453.75 364.25,-477.25 569,-477.25 569,-453.75 364.25,-453.75"/>
<text text-anchor="start" x="369.25" y="-462.8" font-family="Helvetica,sans-Serif" font-weight="bold" font-size="11.00">check_automatic_result</text>
<text text-anchor="start" x="527.25" y="-461.8" font-family="Helvetica,sans-Serif" font-size="11.00">[table]</text>
<polygon fill="none" stroke="black" points="364.25,-431.75 364.25,-453.75 569,-453.75 569,-431.75 364.25,-431.75"/>
<image xlink:href="../../images/primaryKeys.png" width="11px" height="12px" preserveAspectRatio="xMinYMin meet" x="369.25" y="-448.75"/>
<text text-anchor="start" x="397.12" y="-438.3" font-family="Helvetica,sans-Serif" font-size="11.00">identifier</text>
<polygon fill="#ffffff" stroke="none" points="364.25,-409.75 364.25,-431.75 569,-431.75 569,-409.75 364.25,-409.75"/>
<polygon fill="none" stroke="black" points="364.25,-409.75 364.25,-431.75 569,-431.75 569,-409.75 364.25,-409.75"/>
<image xlink:href="../../images/foreignKeys.png" width="11px" height="12px" preserveAspectRatio="xMinYMin meet" x="369.25" y="-426.75"/>
<text text-anchor="start" x="397.12" y="-416.3" font-family="Helvetica,sans-Serif" font-size="11.00">check_type</text>
<polygon fill="#ffffff" stroke="none" points="364.25,-387.75 364.25,-409.75 569,-409.75 569,-387.75 364.25,-387.75"/>
<polygon fill="none" stroke="black" points="364.25,-387.75 364.25,-409.75 569,-409.75 569,-387.75 364.25,-387.75"/>
<image xlink:href="../../images/foreignKeys.png" width="11px" height="12px" preserveAspectRatio="xMinYMin meet" x="369.25" y="-404.75"/>
<text text-anchor="start" x="397.12" y="-394.3" font-family="Helvetica,sans-Serif" font-size="11.00">digital_document</text>
<polygon fill="#ffffff" stroke="none" points="364.25,-365.75 364.25,-387.75 569,-387.75 569,-365.75 364.25,-365.75"/>
<polygon fill="none" stroke="black" points="364.25,-365.75 364.25,-387.75 569,-387.75 569,-365.75 364.25,-365.75"/>
<image xlink:href="../../images/foreignKeys.png" width="11px" height="12px" preserveAspectRatio="xMinYMin meet" x="369.25" y="-382.75"/>
<text text-anchor="start" x="397.12" y="-372.3" font-family="Helvetica,sans-Serif" font-size="11.00">doc_unit</text>
<polygon fill="#ffffff" stroke="none" points="364.25,-343.75 364.25,-365.75 569,-365.75 569,-343.75 364.25,-343.75"/>
<polygon fill="none" stroke="black" points="364.25,-343.75 364.25,-365.75 569,-365.75 569,-343.75 364.25,-343.75"/>
<image xlink:href="../../images/foreignKeys.png" width="11px" height="12px" preserveAspectRatio="xMinYMin meet" x="369.25" y="-360.75"/>
<text text-anchor="start" x="397.12" y="-350.3" font-family="Helvetica,sans-Serif" font-size="11.00">page</text>
<polygon fill="#ffffff" stroke="none" points="364.25,-321.75 364.25,-343.75 569,-343.75 569,-321.75 364.25,-321.75"/>
<polygon fill="none" stroke="black" points="364.25,-321.75 364.25,-343.75 569,-343.75 569,-321.75 364.25,-321.75"/>
<image xlink:href="../../images/foreignKeys.png" width="11px" height="12px" preserveAspectRatio="xMinYMin meet" x="369.25" y="-338.75"/>
<text text-anchor="start" x="397.12" y="-328.3" font-family="Helvetica,sans-Serif" font-size="11.00">delivery</text>
<polygon fill="#ffffff" stroke="none" points="364.25,-299.75 364.25,-321.75 569,-321.75 569,-299.75 364.25,-299.75"/>
<polygon fill="none" stroke="black" points="364.25,-299.75 364.25,-321.75 569,-321.75 569,-299.75 364.25,-299.75"/>
<image xlink:href="../../images/foreignKeys.png" width="11px" height="12px" preserveAspectRatio="xMinYMin meet" x="369.25" y="-316.75"/>
<text text-anchor="start" x="397.12" y="-306.3" font-family="Helvetica,sans-Serif" font-size="11.00">physical_document</text>
<polygon fill="none" stroke="black" points="364.25,-280.25 364.25,-299.75 569,-299.75 569,-280.25 364.25,-280.25"/>
<text text-anchor="start" x="367.25" y="-286.3" font-family="Helvetica,sans-Serif" font-size="11.00">...</text>
<polygon fill="#ffffff" stroke="none" points="364.25,-260.75 364.25,-280.25 440.5,-280.25 440.5,-260.75 364.25,-260.75"/>
<polygon fill="none" stroke="black" points="364.25,-260.75 364.25,-280.25 440.5,-280.25 440.5,-260.75 364.25,-260.75"/>
<text text-anchor="start" x="367.25" y="-266.8" font-family="Helvetica,sans-Serif" font-size="11.00">&lt; 6</text>
<polygon fill="#ffffff" stroke="none" points="440.5,-260.75 440.5,-280.25 504.75,-280.25 504.75,-260.75 440.5,-260.75"/>
<polygon fill="none" stroke="black" points="440.5,-260.75 440.5,-280.25 504.75,-280.25 504.75,-260.75 440.5,-260.75"/>
<text text-anchor="start" x="494.25" y="-266.8" font-family="Helvetica,sans-Serif" font-size="11.00"> &#160;</text>
<polygon fill="#ffffff" stroke="none" points="504.75,-260.75 504.75,-280.25 569,-280.25 569,-260.75 504.75,-260.75"/>
<polygon fill="none" stroke="black" points="504.75,-260.75 504.75,-280.25 569,-280.25 569,-260.75 504.75,-260.75"/>
<text text-anchor="start" x="558.5" y="-266.8" font-family="Helvetica,sans-Serif" font-size="11.00"> &#160;</text>
</a>
</g>
</g>
<!-- check_automatic_type -->
<g id="node2" class="node">
<title>check_automatic_type</title>
<g id="a_node2"><a xlink:href="../../tables/check_automatic_type.html" xlink:title="check_automatic_type" target="_top">
<polygon fill="#ffffff" stroke="none" points="8,-38.5 8,-327.5 304.25,-327.5 304.25,-38.5 8,-38.5"/>
<polygon fill="#f5f5f5" stroke="none" points="10,-302 10,-325.5 302.25,-325.5 302.25,-302 10,-302"/>
<polygon fill="none" stroke="black" points="10,-302 10,-325.5 302.25,-325.5 302.25,-302 10,-302"/>
<text text-anchor="start" x="15" y="-311.05" font-family="Helvetica,sans-Serif" font-weight="bold" font-size="11.00">check_automatic_type</text>
<text text-anchor="start" x="260.5" y="-310.05" font-family="Helvetica,sans-Serif" font-size="11.00">[table]</text>
<polygon fill="none" stroke="black" points="10,-280 10,-302 180,-302 180,-280 10,-280"/>
<image xlink:href="../../images/primaryKeys.png" width="11px" height="12px" preserveAspectRatio="xMinYMin meet" x="15" y="-297"/>
<text text-anchor="start" x="30" y="-286.55" font-family="Helvetica,sans-Serif" font-size="11.00">identifier</text>
<polygon fill="none" stroke="black" points="180,-280 180,-302 285,-302 285,-280 180,-280"/>
<text text-anchor="start" x="183" y="-287.3" font-family="Helvetica,sans-Serif" font-size="11.00">varchar[191]</text>
<polygon fill="none" stroke="black" points="10,-258 10,-280 180,-280 180,-258 10,-258"/>
<text text-anchor="start" x="30" y="-264.55" font-family="Helvetica,sans-Serif" font-size="11.00">label</text>
<polygon fill="none" stroke="black" points="180,-258 180,-280 285,-280 285,-258 180,-258"/>
<text text-anchor="start" x="183" y="-265.3" font-family="Helvetica,sans-Serif" font-size="11.00">varchar[255]</text>
<polygon fill="none" stroke="black" points="10,-236 10,-258 180,-258 180,-236 10,-236"/>
<text text-anchor="start" x="30" y="-242.55" font-family="Helvetica,sans-Serif" font-size="11.00">type</text>
<polygon fill="none" stroke="black" points="180,-236 180,-258 285,-258 285,-236 180,-236"/>
<text text-anchor="start" x="183" y="-243.3" font-family="Helvetica,sans-Serif" font-size="11.00">varchar[255]</text>
<polygon fill="none" stroke="black" points="10,-214 10,-236 180,-236 180,-214 10,-214"/>
<text text-anchor="start" x="30" y="-220.55" font-family="Helvetica,sans-Serif" font-size="11.00">active</text>
<polygon fill="none" stroke="black" points="180,-214 180,-236 285,-236 285,-214 180,-214"/>
<text text-anchor="start" x="183" y="-221.3" font-family="Helvetica,sans-Serif" font-size="11.00">bit[1]</text>
<polygon fill="none" stroke="black" points="10,-192 10,-214 180,-214 180,-192 10,-192"/>
<text text-anchor="start" x="30" y="-198.55" font-family="Helvetica,sans-Serif" font-size="11.00">version</text>
<polygon fill="none" stroke="black" points="180,-192 180,-214 285,-214 285,-192 180,-192"/>
<text text-anchor="start" x="183" y="-199.3" font-family="Helvetica,sans-Serif" font-size="11.00">bigint[19]</text>
<polygon fill="none" stroke="black" points="10,-170 10,-192 180,-192 180,-170 10,-170"/>
<text text-anchor="start" x="30" y="-176.55" font-family="Helvetica,sans-Serif" font-size="11.00">created_by</text>
<polygon fill="none" stroke="black" points="180,-170 180,-192 285,-192 285,-170 180,-170"/>
<text text-anchor="start" x="183" y="-177.3" font-family="Helvetica,sans-Serif" font-size="11.00">varchar[191]</text>
<polygon fill="none" stroke="black" points="10,-148 10,-170 180,-170 180,-148 10,-148"/>
<text text-anchor="start" x="30" y="-154.55" font-family="Helvetica,sans-Serif" font-size="11.00">last_modified_by</text>
<polygon fill="none" stroke="black" points="180,-148 180,-170 285,-170 285,-148 180,-148"/>
<text text-anchor="start" x="183" y="-155.3" font-family="Helvetica,sans-Serif" font-size="11.00">varchar[191]</text>
<polygon fill="none" stroke="black" points="10,-126 10,-148 180,-148 180,-126 10,-126"/>
<text text-anchor="start" x="30" y="-132.55" font-family="Helvetica,sans-Serif" font-size="11.00">created_date</text>
<polygon fill="none" stroke="black" points="180,-126 180,-148 285,-148 285,-126 180,-126"/>
<text text-anchor="start" x="183" y="-133.3" font-family="Helvetica,sans-Serif" font-size="11.00">timestamp[19]</text>
<polygon fill="none" stroke="black" points="10,-104 10,-126 180,-126 180,-104 10,-104"/>
<text text-anchor="start" x="30" y="-110.55" font-family="Helvetica,sans-Serif" font-size="11.00">last_modified_date</text>
<polygon fill="none" stroke="black" points="180,-104 180,-126 285,-126 285,-104 180,-104"/>
<text text-anchor="start" x="183" y="-111.3" font-family="Helvetica,sans-Serif" font-size="11.00">timestamp[19]</text>
<polygon fill="none" stroke="black" points="10,-82 10,-104 180,-104 180,-82 10,-82"/>
<text text-anchor="start" x="30" y="-88.55" font-family="Helvetica,sans-Serif" font-size="11.00">configurable</text>
<polygon fill="none" stroke="black" points="180,-82 180,-104 285,-104 285,-82 180,-82"/>
<text text-anchor="start" x="183" y="-89.3" font-family="Helvetica,sans-Serif" font-size="11.00">bit[1]</text>
<polygon fill="none" stroke="black" points="10,-60 10,-82 180,-82 180,-60 10,-60"/>
<text text-anchor="start" x="30" y="-66.55" font-family="Helvetica,sans-Serif" font-size="11.00">order</text>
<polygon fill="none" stroke="black" points="180,-60 180,-82 285,-82 285,-60 180,-60"/>
<text text-anchor="start" x="183" y="-67.3" font-family="Helvetica,sans-Serif" font-size="11.00">int[10]</text>
<polygon fill="#ffffff" stroke="none" points="10,-40.5 10,-60 101,-60 101,-40.5 10,-40.5"/>
<polygon fill="none" stroke="black" points="10,-40.5 10,-60 101,-60 101,-40.5 10,-40.5"/>
<text text-anchor="start" x="13" y="-46.55" font-family="Helvetica,sans-Serif" font-size="11.00">&lt; 0</text>
<polygon fill="#ffffff" stroke="none" points="101,-40.5 101,-60 180,-60 180,-40.5 101,-40.5"/>
<polygon fill="none" stroke="black" points="101,-40.5 101,-60 180,-60 180,-40.5 101,-40.5"/>
<text text-anchor="start" x="169.5" y="-46.55" font-family="Helvetica,sans-Serif" font-size="11.00"> &#160;</text>
<polygon fill="#ffffff" stroke="none" points="180,-40.5 180,-60 285,-60 285,-40.5 180,-40.5"/>
<polygon fill="none" stroke="black" points="180,-40.5 180,-60 285,-60 285,-40.5 180,-40.5"/>
<text text-anchor="start" x="262.5" y="-46.55" font-family="Helvetica,sans-Serif" font-size="11.00">2 &gt;</text>
<polygon fill="none" stroke="black" stroke-width="2" points="9,-39.5 9,-326.5 303.25,-326.5 303.25,-39.5 9,-39.5"/>
</a>
</g>
</g>
<!-- check_automatic_result&#45;&gt;check_automatic_type -->
<g id="edge1" class="edge">
<title>check_automatic_result:w&#45;&gt;check_automatic_type:e</title>
<path fill="none" stroke="black" d="M347.71,-417.67C305.55,-398.02 346.95,-291 286,-291"/>
<polygon fill="black" stroke="black" points="355.07,-419.13 362.22,-424.22 359.33,-419.97 362.59,-420.62 362.59,-420.62 362.59,-420.62 359.33,-419.97 363.62,-417.15 355.07,-419.13"/>
<ellipse fill="none" stroke="black" cx="350.25" cy="-418.17" rx="3.2" ry="3.2"/>
</g>
<!-- conf_automatic_check_rule -->
<g id="node3" class="node">
<title>conf_automatic_check_rule</title>
<g id="a_node3"><a xlink:href="../../tables/conf_automatic_check_rule.html" xlink:title="conf_automatic_check_rule" target="_top">
<polygon fill="#ffffff" stroke="none" points="353.25,-110.75 353.25,-239.25 580,-239.25 580,-110.75 353.25,-110.75"/>
<polygon fill="#f5f5f5" stroke="none" points="353.25,-215.75 353.25,-239.25 580,-239.25 580,-215.75 353.25,-215.75"/>
<polygon fill="none" stroke="black" points="353.25,-215.75 353.25,-239.25 580,-239.25 580,-215.75 353.25,-215.75"/>
<text text-anchor="start" x="358.25" y="-224.8" font-family="Helvetica,sans-Serif" font-weight="bold" font-size="11.00">conf_automatic_check_rule</text>
<text text-anchor="start" x="538.25" y="-223.8" font-family="Helvetica,sans-Serif" font-size="11.00">[table]</text>
<polygon fill="none" stroke="black" points="353.25,-193.75 353.25,-215.75 580,-215.75 580,-193.75 353.25,-193.75"/>
<image xlink:href="../../images/primaryKeys.png" width="11px" height="12px" preserveAspectRatio="xMinYMin meet" x="358.25" y="-210.75"/>
<text text-anchor="start" x="386.12" y="-200.3" font-family="Helvetica,sans-Serif" font-size="11.00">identifier</text>
<polygon fill="#ffffff" stroke="none" points="353.25,-171.75 353.25,-193.75 580,-193.75 580,-171.75 353.25,-171.75"/>
<polygon fill="none" stroke="black" points="353.25,-171.75 353.25,-193.75 580,-193.75 580,-171.75 353.25,-171.75"/>
<image xlink:href="../../images/foreignKeys.png" width="11px" height="12px" preserveAspectRatio="xMinYMin meet" x="358.25" y="-188.75"/>
<text text-anchor="start" x="386.12" y="-178.3" font-family="Helvetica,sans-Serif" font-size="11.00">check_configuration</text>
<polygon fill="#ffffff" stroke="none" points="353.25,-149.75 353.25,-171.75 580,-171.75 580,-149.75 353.25,-149.75"/>
<polygon fill="none" stroke="black" points="353.25,-149.75 353.25,-171.75 580,-171.75 580,-149.75 353.25,-149.75"/>
<image xlink:href="../../images/foreignKeys.png" width="11px" height="12px" preserveAspectRatio="xMinYMin meet" x="358.25" y="-166.75"/>
<text text-anchor="start" x="386.12" y="-156.3" font-family="Helvetica,sans-Serif" font-size="11.00">check_type</text>
<polygon fill="none" stroke="black" points="353.25,-130.25 353.25,-149.75 580,-149.75 580,-130.25 353.25,-130.25"/>
<text text-anchor="start" x="356.25" y="-136.3" font-family="Helvetica,sans-Serif" font-size="11.00">...</text>
<polygon fill="#ffffff" stroke="none" points="353.25,-110.75 353.25,-130.25 436.83,-130.25 436.83,-110.75 353.25,-110.75"/>
<polygon fill="none" stroke="black" points="353.25,-110.75 353.25,-130.25 436.83,-130.25 436.83,-110.75 353.25,-110.75"/>
<text text-anchor="start" x="356.25" y="-116.8" font-family="Helvetica,sans-Serif" font-size="11.00">&lt; 2</text>
<polygon fill="#ffffff" stroke="none" points="436.83,-110.75 436.83,-130.25 508.42,-130.25 508.42,-110.75 436.83,-110.75"/>
<polygon fill="none" stroke="black" points="436.83,-110.75 436.83,-130.25 508.42,-130.25 508.42,-110.75 436.83,-110.75"/>
<text text-anchor="start" x="497.92" y="-116.8" font-family="Helvetica,sans-Serif" font-size="11.00"> &#160;</text>
<polygon fill="#ffffff" stroke="none" points="508.42,-110.75 508.42,-130.25 580,-130.25 580,-110.75 508.42,-110.75"/>
<polygon fill="none" stroke="black" points="508.42,-110.75 508.42,-130.25 580,-130.25 580,-110.75 508.42,-110.75"/>
<text text-anchor="start" x="569.5" y="-116.8" font-family="Helvetica,sans-Serif" font-size="11.00"> &#160;</text>
</a>
</g>
</g>
<!-- conf_automatic_check_rule&#45;&gt;check_automatic_type -->
<g id="edge2" class="edge">
<title>conf_automatic_check_rule:w&#45;&gt;check_automatic_type:e</title>
<path fill="none" stroke="black" d="M337.16,-163.97C298.11,-184.03 344.86,-291 286,-291"/>
<polygon fill="black" stroke="black" points="344.1,-162.49 352.67,-164.34 348.34,-161.58 351.6,-160.89 351.6,-160.89 351.6,-160.89 348.34,-161.58 351.17,-157.3 344.1,-162.49"/>
<ellipse fill="none" stroke="black" cx="339.29" cy="-163.52" rx="3.2" ry="3.2"/>
</g>
</g>
</svg>
