<?xml version="1.0" encoding="UTF-8" standalone="no"?>
<!DOCTYPE svg PUBLIC "-//W3C//DTD SVG 1.1//EN"
 "http://www.w3.org/Graphics/SVG/1.1/DTD/svg11.dtd">
<!-- Generated by graphviz version 12.2.0 (0)
 -->
<!-- Title: oneDegreeRelationshipsDiagram Pages: 1 -->
<svg width="291pt" height="164pt"
 viewBox="0.00 0.00 291.00 163.50" xmlns="http://www.w3.org/2000/svg" xmlns:xlink="http://www.w3.org/1999/xlink">
<g id="graph0" class="graph" transform="scale(1 1) rotate(0) translate(4 159.5)">
<title>oneDegreeRelationshipsDiagram</title>
<polygon fill="#ffffff" stroke="none" points="-4,4 -4,-159.5 287,-159.5 287,4 -4,4"/>
<text text-anchor="middle" x="79.25" y="-7.05" font-family="Helvetica,sans-Serif" font-size="11.00">Generated by SchemaSpy</text>
<!-- conf_transliteration -->
<g id="node1" class="node">
<title>conf_transliteration</title>
<g id="a_node1"><a xlink:href="../../tables/conf_transliteration.html" xlink:title="conf_transliteration" target="_top">
<polygon fill="#ffffff" stroke="none" points="8,-38.5 8,-151.5 275,-151.5 275,-38.5 8,-38.5"/>
<polygon fill="#f5f5f5" stroke="none" points="10,-126 10,-149.5 273,-149.5 273,-126 10,-126"/>
<polygon fill="none" stroke="black" points="10,-126 10,-149.5 273,-149.5 273,-126 10,-126"/>
<text text-anchor="start" x="15" y="-135.05" font-family="Helvetica,sans-Serif" font-weight="bold" font-size="11.00">conf_transliteration</text>
<text text-anchor="start" x="231.25" y="-134.05" font-family="Helvetica,sans-Serif" font-size="11.00">[table]</text>
<polygon fill="none" stroke="black" points="10,-104 10,-126 164,-126 164,-104 10,-104"/>
<image xlink:href="../../images/primaryKeys.png" width="11px" height="12px" preserveAspectRatio="xMinYMin meet" x="15" y="-121"/>
<text text-anchor="start" x="30" y="-110.55" font-family="Helvetica,sans-Serif" font-size="11.00">type</text>
<polygon fill="none" stroke="black" points="164,-104 164,-126 257.12,-126 257.12,-104 164,-104"/>
<text text-anchor="start" x="167" y="-111.3" font-family="Helvetica,sans-Serif" font-size="11.00">varchar[191]</text>
<polygon fill="none" stroke="black" points="10,-82 10,-104 164,-104 164,-82 10,-82"/>
<image xlink:href="../../images/primaryKeys.png" width="11px" height="12px" preserveAspectRatio="xMinYMin meet" x="15" y="-99"/>
<text text-anchor="start" x="30" y="-88.55" font-family="Helvetica,sans-Serif" font-size="11.00">code</text>
<polygon fill="none" stroke="black" points="164,-82 164,-104 257.12,-104 257.12,-82 164,-82"/>
<text text-anchor="start" x="167" y="-89.3" font-family="Helvetica,sans-Serif" font-size="11.00">varchar[191]</text>
<polygon fill="none" stroke="black" points="10,-60 10,-82 164,-82 164,-60 10,-60"/>
<text text-anchor="start" x="30" y="-66.55" font-family="Helvetica,sans-Serif" font-size="11.00">value</text>
<polygon fill="none" stroke="black" points="164,-60 164,-82 257.12,-82 257.12,-60 164,-60"/>
<text text-anchor="start" x="167" y="-67.3" font-family="Helvetica,sans-Serif" font-size="11.00">varchar[255]</text>
<polygon fill="#ffffff" stroke="none" points="10,-40.5 10,-60 93,-60 93,-40.5 10,-40.5"/>
<polygon fill="none" stroke="black" points="10,-40.5 10,-60 93,-60 93,-40.5 10,-40.5"/>
<text text-anchor="start" x="13" y="-46.55" font-family="Helvetica,sans-Serif" font-size="11.00">&lt; 0</text>
<polygon fill="#ffffff" stroke="none" points="93,-40.5 93,-60 164,-60 164,-40.5 93,-40.5"/>
<polygon fill="none" stroke="black" points="93,-40.5 93,-60 164,-60 164,-40.5 93,-40.5"/>
<text text-anchor="start" x="153.5" y="-46.55" font-family="Helvetica,sans-Serif" font-size="11.00"> &#160;</text>
<polygon fill="#ffffff" stroke="none" points="164,-40.5 164,-60 257.12,-60 257.12,-40.5 164,-40.5"/>
<polygon fill="none" stroke="black" points="164,-40.5 164,-60 257.12,-60 257.12,-40.5 164,-40.5"/>
<text text-anchor="start" x="234.62" y="-46.55" font-family="Helvetica,sans-Serif" font-size="11.00">0 &gt;</text>
<polygon fill="none" stroke="black" stroke-width="2" points="9,-39.5 9,-150.5 274,-150.5 274,-39.5 9,-39.5"/>
</a>
</g>
</g>
</g>
</svg>
