<?xml version="1.0" encoding="UTF-8" standalone="no"?>
<!DOCTYPE svg PUBLIC "-//W3C//DTD SVG 1.1//EN"
 "http://www.w3.org/Graphics/SVG/1.1/DTD/svg11.dtd">
<!-- Generated by graphviz version 12.2.0 (0)
 -->
<!-- Title: twoDegreesRelationshipsDiagram Pages: 1 -->
<svg width="711pt" height="468pt"
 viewBox="0.00 0.00 710.75 468.00" xmlns="http://www.w3.org/2000/svg" xmlns:xlink="http://www.w3.org/1999/xlink">
<g id="graph0" class="graph" transform="scale(1 1) rotate(0) translate(4 464)">
<title>twoDegreesRelationshipsDiagram</title>
<polygon fill="#ffffff" stroke="none" points="-4,4 -4,-464 706.75,-464 706.75,4 -4,4"/>
<text text-anchor="middle" x="79.25" y="-7.05" font-family="Helvetica,sans-Serif" font-size="11.00">Generated by SchemaSpy</text>
<!-- conf_activated_ocr_lang -->
<g id="node1" class="node">
<title>conf_activated_ocr_lang</title>
<g id="a_node1"><a xlink:href="../../tables/conf_activated_ocr_lang.html" xlink:title="conf_activated_ocr_lang" target="_top">
<polygon fill="#ffffff" stroke="none" points="228.75,-149.25 228.75,-372.25 543,-372.25 543,-149.25 228.75,-149.25"/>
<polygon fill="#f5f5f5" stroke="none" points="230.75,-346.75 230.75,-370.25 541,-370.25 541,-346.75 230.75,-346.75"/>
<polygon fill="none" stroke="black" points="230.75,-346.75 230.75,-370.25 541,-370.25 541,-346.75 230.75,-346.75"/>
<text text-anchor="start" x="235.75" y="-355.8" font-family="Helvetica,sans-Serif" font-weight="bold" font-size="11.00">conf_activated_ocr_lang</text>
<text text-anchor="start" x="499.25" y="-354.8" font-family="Helvetica,sans-Serif" font-size="11.00">[table]</text>
<polygon fill="none" stroke="black" points="230.75,-324.75 230.75,-346.75 412.75,-346.75 412.75,-324.75 230.75,-324.75"/>
<image xlink:href="../../images/primaryKeys.png" width="11px" height="12px" preserveAspectRatio="xMinYMin meet" x="235.75" y="-341.75"/>
<text text-anchor="start" x="250.75" y="-331.3" font-family="Helvetica,sans-Serif" font-size="11.00">identifier</text>
<polygon fill="none" stroke="black" points="412.75,-324.75 412.75,-346.75 520.75,-346.75 520.75,-324.75 412.75,-324.75"/>
<text text-anchor="start" x="415.75" y="-332.05" font-family="Helvetica,sans-Serif" font-size="11.00">varchar[191]</text>
<polygon fill="#ffffff" stroke="none" points="230.75,-302.75 230.75,-324.75 412.75,-324.75 412.75,-302.75 230.75,-302.75"/>
<polygon fill="none" stroke="black" points="230.75,-302.75 230.75,-324.75 412.75,-324.75 412.75,-302.75 230.75,-302.75"/>
<image xlink:href="../../images/foreignKeys.png" width="11px" height="12px" preserveAspectRatio="xMinYMin meet" x="235.75" y="-319.75"/>
<text text-anchor="start" x="250.75" y="-309.3" font-family="Helvetica,sans-Serif" font-size="11.00">ocr_lang_configuration</text>
<polygon fill="none" stroke="black" points="412.75,-302.75 412.75,-324.75 520.75,-324.75 520.75,-302.75 412.75,-302.75"/>
<text text-anchor="start" x="415.75" y="-310.05" font-family="Helvetica,sans-Serif" font-size="11.00">varchar[191]</text>
<polygon fill="#ffffff" stroke="none" points="230.75,-280.75 230.75,-302.75 412.75,-302.75 412.75,-280.75 230.75,-280.75"/>
<polygon fill="none" stroke="black" points="230.75,-280.75 230.75,-302.75 412.75,-302.75 412.75,-280.75 230.75,-280.75"/>
<image xlink:href="../../images/foreignKeys.png" width="11px" height="12px" preserveAspectRatio="xMinYMin meet" x="235.75" y="-297.75"/>
<text text-anchor="start" x="250.75" y="-287.3" font-family="Helvetica,sans-Serif" font-size="11.00">ocr_language</text>
<polygon fill="none" stroke="black" points="412.75,-280.75 412.75,-302.75 520.75,-302.75 520.75,-280.75 412.75,-280.75"/>
<text text-anchor="start" x="415.75" y="-288.05" font-family="Helvetica,sans-Serif" font-size="11.00">varchar[191]</text>
<polygon fill="none" stroke="black" points="230.75,-258.75 230.75,-280.75 412.75,-280.75 412.75,-258.75 230.75,-258.75"/>
<text text-anchor="start" x="250.75" y="-265.3" font-family="Helvetica,sans-Serif" font-size="11.00">version</text>
<polygon fill="none" stroke="black" points="412.75,-258.75 412.75,-280.75 520.75,-280.75 520.75,-258.75 412.75,-258.75"/>
<text text-anchor="start" x="415.75" y="-266.05" font-family="Helvetica,sans-Serif" font-size="11.00">bigint[19]</text>
<polygon fill="none" stroke="black" points="230.75,-236.75 230.75,-258.75 412.75,-258.75 412.75,-236.75 230.75,-236.75"/>
<text text-anchor="start" x="250.75" y="-243.3" font-family="Helvetica,sans-Serif" font-size="11.00">created_by</text>
<polygon fill="none" stroke="black" points="412.75,-236.75 412.75,-258.75 520.75,-258.75 520.75,-236.75 412.75,-236.75"/>
<text text-anchor="start" x="415.75" y="-244.05" font-family="Helvetica,sans-Serif" font-size="11.00">varchar[191]</text>
<polygon fill="none" stroke="black" points="230.75,-214.75 230.75,-236.75 412.75,-236.75 412.75,-214.75 230.75,-214.75"/>
<text text-anchor="start" x="250.75" y="-221.3" font-family="Helvetica,sans-Serif" font-size="11.00">last_modified_by</text>
<polygon fill="none" stroke="black" points="412.75,-214.75 412.75,-236.75 520.75,-236.75 520.75,-214.75 412.75,-214.75"/>
<text text-anchor="start" x="415.75" y="-222.05" font-family="Helvetica,sans-Serif" font-size="11.00">varchar[191]</text>
<polygon fill="none" stroke="black" points="230.75,-192.75 230.75,-214.75 412.75,-214.75 412.75,-192.75 230.75,-192.75"/>
<text text-anchor="start" x="250.75" y="-199.3" font-family="Helvetica,sans-Serif" font-size="11.00">created_date</text>
<polygon fill="none" stroke="black" points="412.75,-192.75 412.75,-214.75 520.75,-214.75 520.75,-192.75 412.75,-192.75"/>
<text text-anchor="start" x="415.75" y="-200.05" font-family="Helvetica,sans-Serif" font-size="11.00">timestamp[19]</text>
<polygon fill="none" stroke="black" points="230.75,-170.75 230.75,-192.75 412.75,-192.75 412.75,-170.75 230.75,-170.75"/>
<text text-anchor="start" x="250.75" y="-177.3" font-family="Helvetica,sans-Serif" font-size="11.00">last_modified_date</text>
<polygon fill="none" stroke="black" points="412.75,-170.75 412.75,-192.75 520.75,-192.75 520.75,-170.75 412.75,-170.75"/>
<text text-anchor="start" x="415.75" y="-178.05" font-family="Helvetica,sans-Serif" font-size="11.00">timestamp[19]</text>
<polygon fill="#ffffff" stroke="none" points="230.75,-151.25 230.75,-170.75 327.75,-170.75 327.75,-151.25 230.75,-151.25"/>
<polygon fill="none" stroke="black" points="230.75,-151.25 230.75,-170.75 327.75,-170.75 327.75,-151.25 230.75,-151.25"/>
<text text-anchor="start" x="233.75" y="-157.3" font-family="Helvetica,sans-Serif" font-size="11.00">&lt; 2</text>
<polygon fill="#ffffff" stroke="none" points="327.75,-151.25 327.75,-170.75 412.75,-170.75 412.75,-151.25 327.75,-151.25"/>
<polygon fill="none" stroke="black" points="327.75,-151.25 327.75,-170.75 412.75,-170.75 412.75,-151.25 327.75,-151.25"/>
<text text-anchor="start" x="402.25" y="-157.3" font-family="Helvetica,sans-Serif" font-size="11.00"> &#160;</text>
<polygon fill="#ffffff" stroke="none" points="412.75,-151.25 412.75,-170.75 520.75,-170.75 520.75,-151.25 412.75,-151.25"/>
<polygon fill="none" stroke="black" points="412.75,-151.25 412.75,-170.75 520.75,-170.75 520.75,-151.25 412.75,-151.25"/>
<text text-anchor="start" x="498.25" y="-157.3" font-family="Helvetica,sans-Serif" font-size="11.00">0 &gt;</text>
<polygon fill="none" stroke="black" stroke-width="2" points="229.75,-150.25 229.75,-371.25 542,-371.25 542,-150.25 229.75,-150.25"/>
</a>
</g>
</g>
<!-- conf_ocr_lang -->
<g id="node2" class="node">
<title>conf_ocr_lang</title>
<g id="a_node2"><a xlink:href="../../tables/conf_ocr_lang.html" xlink:title="conf_ocr_lang" target="_top">
<polygon fill="#ffffff" stroke="none" points="19.88,-318.5 19.88,-403 167.88,-403 167.88,-318.5 19.88,-318.5"/>
<polygon fill="#f5f5f5" stroke="none" points="19.88,-379.5 19.88,-403 167.88,-403 167.88,-379.5 19.88,-379.5"/>
<polygon fill="none" stroke="black" points="19.88,-379.5 19.88,-403 167.88,-403 167.88,-379.5 19.88,-379.5"/>
<text text-anchor="start" x="24.88" y="-388.55" font-family="Helvetica,sans-Serif" font-weight="bold" font-size="11.00">conf_ocr_lang</text>
<text text-anchor="start" x="126.12" y="-387.55" font-family="Helvetica,sans-Serif" font-size="11.00">[table]</text>
<polygon fill="none" stroke="black" points="19.88,-357.5 19.88,-379.5 167.88,-379.5 167.88,-357.5 19.88,-357.5"/>
<image xlink:href="../../images/primaryKeys.png" width="11px" height="12px" preserveAspectRatio="xMinYMin meet" x="24.875" y="-374.5"/>
<text text-anchor="start" x="39.88" y="-364.05" font-family="Helvetica,sans-Serif" font-size="11.00">identifier</text>
<polygon fill="none" stroke="black" points="19.88,-338 19.88,-357.5 167.88,-357.5 167.88,-338 19.88,-338"/>
<text text-anchor="start" x="22.88" y="-344.05" font-family="Helvetica,sans-Serif" font-size="11.00">...</text>
<polygon fill="#ffffff" stroke="none" points="19.88,-318.5 19.88,-338 65.21,-338 65.21,-318.5 19.88,-318.5"/>
<polygon fill="none" stroke="black" points="19.88,-318.5 19.88,-338 65.21,-338 65.21,-318.5 19.88,-318.5"/>
<text text-anchor="start" x="22.88" y="-324.55" font-family="Helvetica,sans-Serif" font-size="11.00"> &#160;</text>
<polygon fill="#ffffff" stroke="none" points="65.21,-318.5 65.21,-338 110.54,-338 110.54,-318.5 65.21,-318.5"/>
<polygon fill="none" stroke="black" points="65.21,-318.5 65.21,-338 110.54,-338 110.54,-318.5 65.21,-318.5"/>
<text text-anchor="start" x="100.04" y="-324.55" font-family="Helvetica,sans-Serif" font-size="11.00"> &#160;</text>
<polygon fill="#ffffff" stroke="none" points="110.54,-318.5 110.54,-338 167.88,-338 167.88,-318.5 110.54,-318.5"/>
<polygon fill="none" stroke="black" points="110.54,-318.5 110.54,-338 167.88,-338 167.88,-318.5 110.54,-318.5"/>
<text text-anchor="start" x="145.38" y="-324.55" font-family="Helvetica,sans-Serif" font-size="11.00">2 &gt;</text>
</a>
</g>
</g>
<!-- conf_activated_ocr_lang&#45;&gt;conf_ocr_lang -->
<g id="edge1" class="edge">
<title>conf_activated_ocr_lang:w&#45;&gt;conf_ocr_lang:e</title>
<path fill="none" stroke="black" d="M214.78,-318.05C196.03,-330.95 199.01,-368.5 168.88,-368.5"/>
<polygon fill="black" stroke="black" points="221.74,-316.05 230.42,-317.3 225.91,-314.85 229.11,-313.93 229.11,-313.93 229.11,-313.93 225.91,-314.85 228.44,-310.38 221.74,-316.05"/>
<ellipse fill="none" stroke="black" cx="217.01" cy="-317.41" rx="3.2" ry="3.2"/>
</g>
<!-- conf_language_ocr -->
<g id="node3" class="node">
<title>conf_language_ocr</title>
<g id="a_node3"><a xlink:href="../../tables/conf_language_ocr.html" xlink:title="conf_language_ocr" target="_top">
<polygon fill="#ffffff" stroke="none" points="8,-75.5 8,-160 179.75,-160 179.75,-75.5 8,-75.5"/>
<polygon fill="#f5f5f5" stroke="none" points="8,-136.5 8,-160 179.75,-160 179.75,-136.5 8,-136.5"/>
<polygon fill="none" stroke="black" points="8,-136.5 8,-160 179.75,-160 179.75,-136.5 8,-136.5"/>
<text text-anchor="start" x="13" y="-145.55" font-family="Helvetica,sans-Serif" font-weight="bold" font-size="11.00">conf_language_ocr</text>
<text text-anchor="start" x="138" y="-144.55" font-family="Helvetica,sans-Serif" font-size="11.00">[table]</text>
<polygon fill="none" stroke="black" points="8,-114.5 8,-136.5 179.75,-136.5 179.75,-114.5 8,-114.5"/>
<image xlink:href="../../images/primaryKeys.png" width="11px" height="12px" preserveAspectRatio="xMinYMin meet" x="13" y="-131.5"/>
<text text-anchor="start" x="39.88" y="-121.05" font-family="Helvetica,sans-Serif" font-size="11.00">identifier</text>
<polygon fill="none" stroke="black" points="8,-95 8,-114.5 179.75,-114.5 179.75,-95 8,-95"/>
<text text-anchor="start" x="11" y="-101.05" font-family="Helvetica,sans-Serif" font-size="11.00">...</text>
<polygon fill="#ffffff" stroke="none" points="8,-75.5 8,-95 61.25,-95 61.25,-75.5 8,-75.5"/>
<polygon fill="none" stroke="black" points="8,-75.5 8,-95 61.25,-95 61.25,-75.5 8,-75.5"/>
<text text-anchor="start" x="11" y="-81.55" font-family="Helvetica,sans-Serif" font-size="11.00"> &#160;</text>
<polygon fill="#ffffff" stroke="none" points="61.25,-75.5 61.25,-95 114.5,-95 114.5,-75.5 61.25,-75.5"/>
<polygon fill="none" stroke="black" points="61.25,-75.5 61.25,-95 114.5,-95 114.5,-75.5 61.25,-75.5"/>
<text text-anchor="start" x="104" y="-81.55" font-family="Helvetica,sans-Serif" font-size="11.00"> &#160;</text>
<polygon fill="#ffffff" stroke="none" points="114.5,-75.5 114.5,-95 179.75,-95 179.75,-75.5 114.5,-75.5"/>
<polygon fill="none" stroke="black" points="114.5,-75.5 114.5,-95 179.75,-95 179.75,-75.5 114.5,-75.5"/>
<text text-anchor="start" x="157.25" y="-81.55" font-family="Helvetica,sans-Serif" font-size="11.00">3 &gt;</text>
</a>
</g>
</g>
<!-- conf_activated_ocr_lang&#45;&gt;conf_language_ocr -->
<g id="edge2" class="edge">
<title>conf_activated_ocr_lang:w&#45;&gt;conf_language_ocr:e</title>
<path fill="none" stroke="black" d="M214.27,-288.58C168.73,-265.59 251.46,-125.5 180.75,-125.5"/>
<polygon fill="black" stroke="black" points="221.59,-290.08 228.7,-295.21 225.83,-290.95 229.09,-291.62 229.09,-291.62 229.09,-291.62 225.83,-290.95 230.15,-288.16 221.59,-290.08"/>
<ellipse fill="none" stroke="black" cx="216.77" cy="-289.09" rx="3.2" ry="3.2"/>
</g>
<!-- doc_unit -->
<g id="node4" class="node">
<title>doc_unit</title>
<g id="a_node4"><a xlink:href="../../tables/doc_unit.html" xlink:title="doc_unit" target="_top">
<polygon fill="#ffffff" stroke="none" points="592,-95.5 592,-158 694.75,-158 694.75,-95.5 592,-95.5"/>
<polygon fill="#f5f5f5" stroke="none" points="592,-134.5 592,-158 694.75,-158 694.75,-134.5 592,-134.5"/>
<polygon fill="none" stroke="black" points="592,-134.5 592,-158 694.75,-158 694.75,-134.5 592,-134.5"/>
<text text-anchor="start" x="597" y="-143.55" font-family="Helvetica,sans-Serif" font-weight="bold" font-size="11.00">doc_unit</text>
<text text-anchor="start" x="653" y="-142.55" font-family="Helvetica,sans-Serif" font-size="11.00">[table]</text>
<polygon fill="none" stroke="black" points="592,-115 592,-134.5 694.75,-134.5 694.75,-115 592,-115"/>
<text text-anchor="start" x="595" y="-121.05" font-family="Helvetica,sans-Serif" font-size="11.00">...</text>
<polygon fill="#ffffff" stroke="none" points="592,-95.5 592,-115 632.5,-115 632.5,-95.5 592,-95.5"/>
<polygon fill="none" stroke="black" points="592,-95.5 592,-115 632.5,-115 632.5,-95.5 592,-95.5"/>
<text text-anchor="start" x="595" y="-101.55" font-family="Helvetica,sans-Serif" font-size="11.00">&lt; 13</text>
<polygon fill="#ffffff" stroke="none" points="632.5,-95.5 632.5,-115 654.25,-115 654.25,-95.5 632.5,-95.5"/>
<polygon fill="none" stroke="black" points="632.5,-95.5 632.5,-115 654.25,-115 654.25,-95.5 632.5,-95.5"/>
<text text-anchor="start" x="643.75" y="-101.55" font-family="Helvetica,sans-Serif" font-size="11.00"> &#160;</text>
<polygon fill="#ffffff" stroke="none" points="654.25,-95.5 654.25,-115 694.75,-115 694.75,-95.5 654.25,-95.5"/>
<polygon fill="none" stroke="black" points="654.25,-95.5 654.25,-115 694.75,-115 694.75,-95.5 654.25,-95.5"/>
<text text-anchor="start" x="665.5" y="-101.55" font-family="Helvetica,sans-Serif" font-size="11.00">11 &gt;</text>
</a>
</g>
</g>
<!-- doc_unit&#45;&gt;conf_language_ocr -->
<g id="edge3" class="edge">
<title>doc_unit:w&#45;&gt;conf_language_ocr:e</title>
<path fill="none" stroke="black" d="M575.32,-124.75C405.88,-124.79 357.74,-125.5 180.75,-125.5"/>
<polygon fill="black" stroke="black" points="582.67,-124.75 590.67,-128.35 587,-124.75 590.33,-124.75 590.33,-124.75 590.33,-124.75 587,-124.75 590.67,-121.15 582.67,-124.75"/>
<ellipse fill="none" stroke="black" cx="577.75" cy="-124.75" rx="3.2" ry="3.2"/>
</g>
<!-- lib_library -->
<g id="node5" class="node">
<title>lib_library</title>
<g id="a_node5"><a xlink:href="../../tables/lib_library.html" xlink:title="lib_library" target="_top">
<polygon fill="#ffffff" stroke="none" points="329,-393.5 329,-456 442.75,-456 442.75,-393.5 329,-393.5"/>
<polygon fill="#f5f5f5" stroke="none" points="329,-432.5 329,-456 442.75,-456 442.75,-432.5 329,-432.5"/>
<polygon fill="none" stroke="black" points="329,-432.5 329,-456 442.75,-456 442.75,-432.5 329,-432.5"/>
<text text-anchor="start" x="334" y="-441.55" font-family="Helvetica,sans-Serif" font-weight="bold" font-size="11.00">lib_library</text>
<text text-anchor="start" x="401" y="-440.55" font-family="Helvetica,sans-Serif" font-size="11.00">[table]</text>
<polygon fill="none" stroke="black" points="329,-413 329,-432.5 442.75,-432.5 442.75,-413 329,-413"/>
<text text-anchor="start" x="332" y="-419.05" font-family="Helvetica,sans-Serif" font-size="11.00">...</text>
<polygon fill="#ffffff" stroke="none" points="329,-393.5 329,-413 368.67,-413 368.67,-393.5 329,-393.5"/>
<polygon fill="none" stroke="black" points="329,-393.5 329,-413 368.67,-413 368.67,-393.5 329,-393.5"/>
<text text-anchor="start" x="332" y="-399.55" font-family="Helvetica,sans-Serif" font-size="11.00">&lt; 6</text>
<polygon fill="#ffffff" stroke="none" points="368.67,-393.5 368.67,-413 396.33,-413 396.33,-393.5 368.67,-393.5"/>
<polygon fill="none" stroke="black" points="368.67,-393.5 368.67,-413 396.33,-413 396.33,-393.5 368.67,-393.5"/>
<text text-anchor="start" x="385.83" y="-399.55" font-family="Helvetica,sans-Serif" font-size="11.00"> &#160;</text>
<polygon fill="#ffffff" stroke="none" points="396.33,-393.5 396.33,-413 442.75,-413 442.75,-393.5 396.33,-393.5"/>
<polygon fill="none" stroke="black" points="396.33,-393.5 396.33,-413 442.75,-413 442.75,-393.5 396.33,-393.5"/>
<text text-anchor="start" x="413.5" y="-399.55" font-family="Helvetica,sans-Serif" font-size="11.00">27 &gt;</text>
</a>
</g>
</g>
<!-- doc_unit&#45;&gt;lib_library -->
<g id="edge4" class="edge">
<title>doc_unit:w&#45;&gt;lib_library:e</title>
<path fill="none" stroke="black" d="M576.6,-130.94C543.14,-166.29 583.93,-342.34 551,-382.75 518.86,-422.19 494.62,-422.75 443.75,-422.75"/>
<polygon fill="black" stroke="black" points="583.34,-128.04 592.11,-128.19 587.33,-126.33 590.39,-125.01 590.39,-125.01 590.39,-125.01 587.33,-126.33 589.27,-121.57 583.34,-128.04"/>
<ellipse fill="none" stroke="black" cx="578.82" cy="-129.98" rx="3.2" ry="3.2"/>
</g>
<!-- lot_lot -->
<g id="node6" class="node">
<title>lot_lot</title>
<g id="a_node6"><a xlink:href="../../tables/lot_lot.html" xlink:title="lot_lot" target="_top">
<polygon fill="#ffffff" stroke="none" points="341.5,-38.5 341.5,-101 430.25,-101 430.25,-38.5 341.5,-38.5"/>
<polygon fill="#f5f5f5" stroke="none" points="341.5,-77.5 341.5,-101 430.25,-101 430.25,-77.5 341.5,-77.5"/>
<polygon fill="none" stroke="black" points="341.5,-77.5 341.5,-101 430.25,-101 430.25,-77.5 341.5,-77.5"/>
<text text-anchor="start" x="346.38" y="-86.55" font-family="Helvetica,sans-Serif" font-weight="bold" font-size="11.00">lot_lot</text>
<text text-anchor="start" x="388.5" y="-85.55" font-family="Helvetica,sans-Serif" font-size="11.00">[table]</text>
<polygon fill="none" stroke="black" points="341.5,-58 341.5,-77.5 430.25,-77.5 430.25,-58 341.5,-58"/>
<text text-anchor="start" x="344.5" y="-64.05" font-family="Helvetica,sans-Serif" font-size="11.00">...</text>
<polygon fill="#ffffff" stroke="none" points="341.5,-38.5 341.5,-58 379.58,-58 379.58,-38.5 341.5,-38.5"/>
<polygon fill="none" stroke="black" points="341.5,-38.5 341.5,-58 379.58,-58 379.58,-38.5 341.5,-38.5"/>
<text text-anchor="start" x="344.5" y="-44.55" font-family="Helvetica,sans-Serif" font-size="11.00">&lt; 14</text>
<polygon fill="#ffffff" stroke="none" points="379.58,-38.5 379.58,-58 398.92,-58 398.92,-38.5 379.58,-38.5"/>
<polygon fill="none" stroke="black" points="379.58,-38.5 379.58,-58 398.92,-58 398.92,-38.5 379.58,-38.5"/>
<text text-anchor="start" x="388.42" y="-44.55" font-family="Helvetica,sans-Serif" font-size="11.00"> &#160;</text>
<polygon fill="#ffffff" stroke="none" points="398.92,-38.5 398.92,-58 430.25,-58 430.25,-38.5 398.92,-38.5"/>
<polygon fill="none" stroke="black" points="398.92,-38.5 398.92,-58 430.25,-58 430.25,-38.5 398.92,-38.5"/>
<text text-anchor="start" x="407.75" y="-44.55" font-family="Helvetica,sans-Serif" font-size="11.00">4 &gt;</text>
</a>
</g>
</g>
<!-- doc_unit&#45;&gt;lot_lot -->
<g id="edge5" class="edge">
<title>doc_unit:w&#45;&gt;lot_lot:e</title>
<path fill="none" stroke="black" d="M575.42,-122.44C533.56,-111.78 464.38,-67.75 431.25,-67.75"/>
<polygon fill="black" stroke="black" points="582.76,-123.53 590.14,-128.26 587.04,-124.16 590.34,-124.65 590.34,-124.65 590.34,-124.65 587.04,-124.16 591.2,-121.14 582.76,-123.53"/>
<ellipse fill="none" stroke="black" cx="577.89" cy="-122.81" rx="3.2" ry="3.2"/>
</g>
<!-- lib_library&#45;&gt;conf_ocr_lang -->
<g id="edge6" class="edge">
<title>lib_library:w&#45;&gt;conf_ocr_lang:e</title>
<path fill="none" stroke="black" d="M312.53,-420.56C270.89,-410.41 201.71,-368.5 168.88,-368.5"/>
<polygon fill="black" stroke="black" points="319.75,-421.58 327.16,-426.27 324.04,-422.19 327.34,-422.66 327.34,-422.66 327.34,-422.66 324.04,-422.19 328.17,-419.14 319.75,-421.58"/>
<ellipse fill="none" stroke="black" cx="314.88" cy="-420.89" rx="3.2" ry="3.2"/>
</g>
<!-- lot_lot&#45;&gt;conf_language_ocr -->
<g id="edge7" class="edge">
<title>lot_lot:w&#45;&gt;conf_language_ocr:e</title>
<path fill="none" stroke="black" d="M324.91,-70.09C283.03,-80.89 213.93,-125.5 180.75,-125.5"/>
<polygon fill="black" stroke="black" points="332.26,-68.98 340.7,-71.36 336.54,-68.34 339.84,-67.85 339.84,-67.85 339.84,-67.85 336.54,-68.34 339.64,-64.24 332.26,-68.98"/>
<ellipse fill="none" stroke="black" cx="327.39" cy="-69.71" rx="3.2" ry="3.2"/>
</g>
</g>
</svg>
