<?xml version="1.0" encoding="UTF-8" standalone="no"?>
<!DOCTYPE svg PUBLIC "-//W3C//DTD SVG 1.1//EN"
 "http://www.w3.org/Graphics/SVG/1.1/DTD/svg11.dtd">
<!-- Generated by graphviz version 12.2.0 (0)
 -->
<!-- Title: oneDegreeRelationshipsDiagram Pages: 1 -->
<svg width="452pt" height="164pt"
 viewBox="0.00 0.00 452.00 163.50" xmlns="http://www.w3.org/2000/svg" xmlns:xlink="http://www.w3.org/1999/xlink">
<g id="graph0" class="graph" transform="scale(1 1) rotate(0) translate(4 159.5)">
<title>oneDegreeRelationshipsDiagram</title>
<polygon fill="#ffffff" stroke="none" points="-4,4 -4,-159.5 448,-159.5 448,4 -4,4"/>
<text text-anchor="middle" x="79.25" y="-7.05" font-family="Helvetica,sans-Serif" font-size="11.00">Generated by SchemaSpy</text>
<!-- conf_email_prop -->
<g id="node1" class="node">
<title>conf_email_prop</title>
<g id="a_node1"><a xlink:href="../../tables/conf_email_prop.html" xlink:title="conf_email_prop" target="_top">
<polygon fill="#ffffff" stroke="none" points="205,-38.5 205,-151.5 436,-151.5 436,-38.5 205,-38.5"/>
<polygon fill="#f5f5f5" stroke="none" points="207,-126 207,-149.5 434,-149.5 434,-126 207,-126"/>
<polygon fill="none" stroke="black" points="207,-126 207,-149.5 434,-149.5 434,-126 207,-126"/>
<text text-anchor="start" x="212" y="-135.05" font-family="Helvetica,sans-Serif" font-weight="bold" font-size="11.00">conf_email_prop</text>
<text text-anchor="start" x="392.25" y="-134.05" font-family="Helvetica,sans-Serif" font-size="11.00">[table]</text>
<polygon fill="#ffffff" stroke="none" points="207,-104 207,-126 337,-126 337,-104 207,-104"/>
<polygon fill="none" stroke="black" points="207,-104 207,-126 337,-126 337,-104 207,-104"/>
<image xlink:href="../../images/foreignKeys.png" width="11px" height="12px" preserveAspectRatio="xMinYMin meet" x="212" y="-121"/>
<text text-anchor="start" x="227" y="-110.55" font-family="Helvetica,sans-Serif" font-size="11.00">conf_id</text>
<polygon fill="none" stroke="black" points="337,-104 337,-126 424.12,-126 424.12,-104 337,-104"/>
<text text-anchor="start" x="340" y="-111.3" font-family="Helvetica,sans-Serif" font-size="11.00">varchar[191]</text>
<polygon fill="none" stroke="black" points="207,-82 207,-104 337,-104 337,-82 207,-82"/>
<text text-anchor="start" x="227" y="-88.55" font-family="Helvetica,sans-Serif" font-size="11.00">name</text>
<polygon fill="none" stroke="black" points="337,-82 337,-104 424.12,-104 424.12,-82 337,-82"/>
<text text-anchor="start" x="340" y="-89.3" font-family="Helvetica,sans-Serif" font-size="11.00">varchar[255]</text>
<polygon fill="none" stroke="black" points="207,-60 207,-82 337,-82 337,-60 207,-60"/>
<text text-anchor="start" x="227" y="-66.55" font-family="Helvetica,sans-Serif" font-size="11.00">value</text>
<polygon fill="none" stroke="black" points="337,-60 337,-82 424.12,-82 424.12,-60 337,-60"/>
<text text-anchor="start" x="340" y="-67.3" font-family="Helvetica,sans-Serif" font-size="11.00">varchar[255]</text>
<polygon fill="#ffffff" stroke="none" points="207,-40.5 207,-60 278,-60 278,-40.5 207,-40.5"/>
<polygon fill="none" stroke="black" points="207,-40.5 207,-60 278,-60 278,-40.5 207,-40.5"/>
<text text-anchor="start" x="210" y="-46.55" font-family="Helvetica,sans-Serif" font-size="11.00">&lt; 1</text>
<polygon fill="#ffffff" stroke="none" points="278,-40.5 278,-60 337,-60 337,-40.5 278,-40.5"/>
<polygon fill="none" stroke="black" points="278,-40.5 278,-60 337,-60 337,-40.5 278,-40.5"/>
<text text-anchor="start" x="326.5" y="-46.55" font-family="Helvetica,sans-Serif" font-size="11.00"> &#160;</text>
<polygon fill="#ffffff" stroke="none" points="337,-40.5 337,-60 424.12,-60 424.12,-40.5 337,-40.5"/>
<polygon fill="none" stroke="black" points="337,-40.5 337,-60 424.12,-60 424.12,-40.5 337,-40.5"/>
<text text-anchor="start" x="401.62" y="-46.55" font-family="Helvetica,sans-Serif" font-size="11.00">0 &gt;</text>
<polygon fill="none" stroke="black" stroke-width="2" points="206,-39.5 206,-150.5 435,-150.5 435,-39.5 206,-39.5"/>
</a>
</g>
</g>
<!-- conf_email -->
<g id="node2" class="node">
<title>conf_email</title>
<g id="a_node2"><a xlink:href="../../tables/conf_email.html" xlink:title="conf_email" target="_top">
<polygon fill="#ffffff" stroke="none" points="8,-42.75 8,-149.25 156,-149.25 156,-42.75 8,-42.75"/>
<polygon fill="#f5f5f5" stroke="none" points="8,-125.75 8,-149.25 156,-149.25 156,-125.75 8,-125.75"/>
<polygon fill="none" stroke="black" points="8,-125.75 8,-149.25 156,-149.25 156,-125.75 8,-125.75"/>
<text text-anchor="start" x="13" y="-134.8" font-family="Helvetica,sans-Serif" font-weight="bold" font-size="11.00">conf_email</text>
<text text-anchor="start" x="114.25" y="-133.8" font-family="Helvetica,sans-Serif" font-size="11.00">[table]</text>
<polygon fill="none" stroke="black" points="8,-103.75 8,-125.75 156,-125.75 156,-103.75 8,-103.75"/>
<image xlink:href="../../images/primaryKeys.png" width="11px" height="12px" preserveAspectRatio="xMinYMin meet" x="13" y="-120.75"/>
<text text-anchor="start" x="28" y="-110.3" font-family="Helvetica,sans-Serif" font-size="11.00">identifier</text>
<polygon fill="#ffffff" stroke="none" points="8,-81.75 8,-103.75 156,-103.75 156,-81.75 8,-81.75"/>
<polygon fill="none" stroke="black" points="8,-81.75 8,-103.75 156,-103.75 156,-81.75 8,-81.75"/>
<image xlink:href="../../images/foreignKeys.png" width="11px" height="12px" preserveAspectRatio="xMinYMin meet" x="13" y="-98.75"/>
<text text-anchor="start" x="28" y="-88.3" font-family="Helvetica,sans-Serif" font-size="11.00">library</text>
<polygon fill="none" stroke="black" points="8,-62.25 8,-81.75 156,-81.75 156,-62.25 8,-62.25"/>
<text text-anchor="start" x="11" y="-68.3" font-family="Helvetica,sans-Serif" font-size="11.00">...</text>
<polygon fill="#ffffff" stroke="none" points="8,-42.75 8,-62.25 61.33,-62.25 61.33,-42.75 8,-42.75"/>
<polygon fill="none" stroke="black" points="8,-42.75 8,-62.25 61.33,-62.25 61.33,-42.75 8,-42.75"/>
<text text-anchor="start" x="11" y="-48.8" font-family="Helvetica,sans-Serif" font-size="11.00">&lt; 1</text>
<polygon fill="#ffffff" stroke="none" points="61.33,-42.75 61.33,-62.25 102.67,-62.25 102.67,-42.75 61.33,-42.75"/>
<polygon fill="none" stroke="black" points="61.33,-42.75 61.33,-62.25 102.67,-62.25 102.67,-42.75 61.33,-42.75"/>
<text text-anchor="start" x="92.17" y="-48.8" font-family="Helvetica,sans-Serif" font-size="11.00"> &#160;</text>
<polygon fill="#ffffff" stroke="none" points="102.67,-42.75 102.67,-62.25 156,-62.25 156,-42.75 102.67,-42.75"/>
<polygon fill="none" stroke="black" points="102.67,-42.75 102.67,-62.25 156,-62.25 156,-42.75 102.67,-42.75"/>
<text text-anchor="start" x="133.5" y="-48.8" font-family="Helvetica,sans-Serif" font-size="11.00">1 &gt;</text>
</a>
</g>
</g>
<!-- conf_email_prop&#45;&gt;conf_email -->
<g id="edge1" class="edge">
<title>conf_email_prop:w&#45;&gt;conf_email:e</title>
<path fill="none" stroke="black" d="M190.42,-114.95C179.71,-114.88 172.48,-114.75 157,-114.75"/>
<polygon fill="black" stroke="black" points="197.67,-114.97 205.65,-118.6 202,-114.99 205.33,-115 205.33,-115 205.33,-115 202,-114.99 205.68,-111.4 197.67,-114.97"/>
<ellipse fill="none" stroke="black" cx="192.75" cy="-114.96" rx="3.2" ry="3.2"/>
</g>
</g>
</svg>
