<?xml version="1.0" encoding="UTF-8" standalone="no"?>
<!DOCTYPE svg PUBLIC "-//W3C//DTD SVG 1.1//EN"
 "http://www.w3.org/Graphics/SVG/1.1/DTD/svg11.dtd">
<!-- Generated by graphviz version 12.2.0 (0)
 -->
<!-- Title: oneDegreeRelationshipsDiagram Pages: 1 -->
<svg width="1346pt" height="720pt"
 viewBox="0.00 0.00 1345.50 720.25" xmlns="http://www.w3.org/2000/svg" xmlns:xlink="http://www.w3.org/1999/xlink">
<g id="graph0" class="graph" transform="scale(1 1) rotate(0) translate(4 716.25)">
<title>oneDegreeRelationshipsDiagram</title>
<polygon fill="#ffffff" stroke="none" points="-4,4 -4,-716.25 1341.5,-716.25 1341.5,4 -4,4"/>
<text text-anchor="middle" x="79.25" y="-7.05" font-family="Helvetica,sans-Serif" font-size="11.00">Generated by SchemaSpy</text>
<!-- conf_collection_ia -->
<g id="node1" class="node">
<title>conf_collection_ia</title>
<g id="a_node1"><a xlink:href="../../tables/conf_collection_ia.html" xlink:title="conf_collection_ia" target="_top">
<polygon fill="#ffffff" stroke="none" points="248.75,-38.5 248.75,-261.5 507.5,-261.5 507.5,-38.5 248.75,-38.5"/>
<polygon fill="#f5f5f5" stroke="none" points="250.75,-236 250.75,-259.5 505.5,-259.5 505.5,-236 250.75,-236"/>
<polygon fill="none" stroke="black" points="250.75,-236 250.75,-259.5 505.5,-259.5 505.5,-236 250.75,-236"/>
<text text-anchor="start" x="255.75" y="-245.05" font-family="Helvetica,sans-Serif" font-weight="bold" font-size="11.00">conf_collection_ia</text>
<text text-anchor="start" x="463.75" y="-244.05" font-family="Helvetica,sans-Serif" font-size="11.00">[table]</text>
<polygon fill="none" stroke="black" points="250.75,-214 250.75,-236 398.75,-236 398.75,-214 250.75,-214"/>
<image xlink:href="../../images/primaryKeys.png" width="11px" height="12px" preserveAspectRatio="xMinYMin meet" x="255.75" y="-231"/>
<text text-anchor="start" x="270.75" y="-220.55" font-family="Helvetica,sans-Serif" font-size="11.00">identifier</text>
<polygon fill="none" stroke="black" points="398.75,-214 398.75,-236 496,-236 496,-214 398.75,-214"/>
<text text-anchor="start" x="401.75" y="-221.3" font-family="Helvetica,sans-Serif" font-size="11.00">varchar[191]</text>
<polygon fill="#ffffff" stroke="none" points="250.75,-192 250.75,-214 398.75,-214 398.75,-192 250.75,-192"/>
<polygon fill="none" stroke="black" points="250.75,-192 250.75,-214 398.75,-214 398.75,-192 250.75,-192"/>
<text text-anchor="start" x="270.75" y="-198.55" font-family="Helvetica,sans-Serif" font-size="11.00">name</text>
<polygon fill="none" stroke="black" points="398.75,-192 398.75,-214 496,-214 496,-192 398.75,-192"/>
<text text-anchor="start" x="401.75" y="-199.3" font-family="Helvetica,sans-Serif" font-size="11.00">varchar[191]</text>
<polygon fill="#ffffff" stroke="none" points="250.75,-170 250.75,-192 398.75,-192 398.75,-170 250.75,-170"/>
<polygon fill="none" stroke="black" points="250.75,-170 250.75,-192 398.75,-192 398.75,-170 250.75,-170"/>
<image xlink:href="../../images/foreignKeys.png" width="11px" height="12px" preserveAspectRatio="xMinYMin meet" x="255.75" y="-187"/>
<text text-anchor="start" x="270.75" y="-176.55" font-family="Helvetica,sans-Serif" font-size="11.00">conf_ia</text>
<polygon fill="none" stroke="black" points="398.75,-170 398.75,-192 496,-192 496,-170 398.75,-170"/>
<text text-anchor="start" x="401.75" y="-177.3" font-family="Helvetica,sans-Serif" font-size="11.00">varchar[191]</text>
<polygon fill="none" stroke="black" points="250.75,-148 250.75,-170 398.75,-170 398.75,-148 250.75,-148"/>
<text text-anchor="start" x="270.75" y="-154.55" font-family="Helvetica,sans-Serif" font-size="11.00">version</text>
<polygon fill="none" stroke="black" points="398.75,-148 398.75,-170 496,-170 496,-148 398.75,-148"/>
<text text-anchor="start" x="401.75" y="-155.3" font-family="Helvetica,sans-Serif" font-size="11.00">bigint[19]</text>
<polygon fill="none" stroke="black" points="250.75,-126 250.75,-148 398.75,-148 398.75,-126 250.75,-126"/>
<text text-anchor="start" x="270.75" y="-132.55" font-family="Helvetica,sans-Serif" font-size="11.00">created_by</text>
<polygon fill="none" stroke="black" points="398.75,-126 398.75,-148 496,-148 496,-126 398.75,-126"/>
<text text-anchor="start" x="401.75" y="-133.3" font-family="Helvetica,sans-Serif" font-size="11.00">varchar[255]</text>
<polygon fill="none" stroke="black" points="250.75,-104 250.75,-126 398.75,-126 398.75,-104 250.75,-104"/>
<text text-anchor="start" x="270.75" y="-110.55" font-family="Helvetica,sans-Serif" font-size="11.00">last_modified_by</text>
<polygon fill="none" stroke="black" points="398.75,-104 398.75,-126 496,-126 496,-104 398.75,-104"/>
<text text-anchor="start" x="401.75" y="-111.3" font-family="Helvetica,sans-Serif" font-size="11.00">varchar[255]</text>
<polygon fill="none" stroke="black" points="250.75,-82 250.75,-104 398.75,-104 398.75,-82 250.75,-82"/>
<text text-anchor="start" x="270.75" y="-88.55" font-family="Helvetica,sans-Serif" font-size="11.00">created_date</text>
<polygon fill="none" stroke="black" points="398.75,-82 398.75,-104 496,-104 496,-82 398.75,-82"/>
<text text-anchor="start" x="401.75" y="-89.3" font-family="Helvetica,sans-Serif" font-size="11.00">timestamp[19]</text>
<polygon fill="none" stroke="black" points="250.75,-60 250.75,-82 398.75,-82 398.75,-60 250.75,-60"/>
<text text-anchor="start" x="270.75" y="-66.55" font-family="Helvetica,sans-Serif" font-size="11.00">last_modified_date</text>
<polygon fill="none" stroke="black" points="398.75,-60 398.75,-82 496,-82 496,-60 398.75,-60"/>
<text text-anchor="start" x="401.75" y="-67.3" font-family="Helvetica,sans-Serif" font-size="11.00">timestamp[19]</text>
<polygon fill="#ffffff" stroke="none" points="250.75,-40.5 250.75,-60 330.75,-60 330.75,-40.5 250.75,-40.5"/>
<polygon fill="none" stroke="black" points="250.75,-40.5 250.75,-60 330.75,-60 330.75,-40.5 250.75,-40.5"/>
<text text-anchor="start" x="253.75" y="-46.55" font-family="Helvetica,sans-Serif" font-size="11.00">&lt; 1</text>
<polygon fill="#ffffff" stroke="none" points="330.75,-40.5 330.75,-60 398.75,-60 398.75,-40.5 330.75,-40.5"/>
<polygon fill="none" stroke="black" points="330.75,-40.5 330.75,-60 398.75,-60 398.75,-40.5 330.75,-40.5"/>
<text text-anchor="start" x="388.25" y="-46.55" font-family="Helvetica,sans-Serif" font-size="11.00"> &#160;</text>
<polygon fill="#ffffff" stroke="none" points="398.75,-40.5 398.75,-60 496,-60 496,-40.5 398.75,-40.5"/>
<polygon fill="none" stroke="black" points="398.75,-40.5 398.75,-60 496,-60 496,-40.5 398.75,-40.5"/>
<text text-anchor="start" x="473.5" y="-46.55" font-family="Helvetica,sans-Serif" font-size="11.00">3 &gt;</text>
<polygon fill="none" stroke="black" stroke-width="2" points="249.75,-39.5 249.75,-260.5 506.5,-260.5 506.5,-39.5 249.75,-39.5"/>
</a>
</g>
</g>
<!-- conf_internet_archive -->
<g id="node2" class="node">
<title>conf_internet_archive</title>
<g id="a_node2"><a xlink:href="../../tables/conf_internet_archive.html" xlink:title="conf_internet_archive" target="_top">
<polygon fill="#ffffff" stroke="none" points="8,-108.75 8,-215.25 199.75,-215.25 199.75,-108.75 8,-108.75"/>
<polygon fill="#f5f5f5" stroke="none" points="8,-191.75 8,-215.25 199.75,-215.25 199.75,-191.75 8,-191.75"/>
<polygon fill="none" stroke="black" points="8,-191.75 8,-215.25 199.75,-215.25 199.75,-191.75 8,-191.75"/>
<text text-anchor="start" x="13" y="-200.8" font-family="Helvetica,sans-Serif" font-weight="bold" font-size="11.00">conf_internet_archive</text>
<text text-anchor="start" x="158" y="-199.8" font-family="Helvetica,sans-Serif" font-size="11.00">[table]</text>
<polygon fill="none" stroke="black" points="8,-169.75 8,-191.75 199.75,-191.75 199.75,-169.75 8,-169.75"/>
<image xlink:href="../../images/primaryKeys.png" width="11px" height="12px" preserveAspectRatio="xMinYMin meet" x="13" y="-186.75"/>
<text text-anchor="start" x="40.87" y="-176.3" font-family="Helvetica,sans-Serif" font-size="11.00">identifier</text>
<polygon fill="#ffffff" stroke="none" points="8,-147.75 8,-169.75 199.75,-169.75 199.75,-147.75 8,-147.75"/>
<polygon fill="none" stroke="black" points="8,-147.75 8,-169.75 199.75,-169.75 199.75,-147.75 8,-147.75"/>
<image xlink:href="../../images/foreignKeys.png" width="11px" height="12px" preserveAspectRatio="xMinYMin meet" x="13" y="-164.75"/>
<text text-anchor="start" x="40.87" y="-154.3" font-family="Helvetica,sans-Serif" font-size="11.00">library</text>
<polygon fill="none" stroke="black" points="8,-128.25 8,-147.75 199.75,-147.75 199.75,-128.25 8,-128.25"/>
<text text-anchor="start" x="11" y="-134.3" font-family="Helvetica,sans-Serif" font-size="11.00">...</text>
<polygon fill="#ffffff" stroke="none" points="8,-108.75 8,-128.25 75.92,-128.25 75.92,-108.75 8,-108.75"/>
<polygon fill="none" stroke="black" points="8,-108.75 8,-128.25 75.92,-128.25 75.92,-108.75 8,-108.75"/>
<text text-anchor="start" x="11" y="-114.8" font-family="Helvetica,sans-Serif" font-size="11.00">&lt; 1</text>
<polygon fill="#ffffff" stroke="none" points="75.92,-108.75 75.92,-128.25 131.83,-128.25 131.83,-108.75 75.92,-108.75"/>
<polygon fill="none" stroke="black" points="75.92,-108.75 75.92,-128.25 131.83,-128.25 131.83,-108.75 75.92,-108.75"/>
<text text-anchor="start" x="121.33" y="-114.8" font-family="Helvetica,sans-Serif" font-size="11.00"> &#160;</text>
<polygon fill="#ffffff" stroke="none" points="131.83,-108.75 131.83,-128.25 199.75,-128.25 199.75,-108.75 131.83,-108.75"/>
<polygon fill="none" stroke="black" points="131.83,-108.75 131.83,-128.25 199.75,-128.25 199.75,-108.75 131.83,-108.75"/>
<text text-anchor="start" x="177.25" y="-114.8" font-family="Helvetica,sans-Serif" font-size="11.00">1 &gt;</text>
</a>
</g>
</g>
<!-- conf_collection_ia&#45;&gt;conf_internet_archive -->
<g id="edge1" class="edge">
<title>conf_collection_ia:w&#45;&gt;conf_internet_archive:e</title>
<path fill="none" stroke="black" d="M234.17,-180.95C223.46,-180.88 216.23,-180.75 200.75,-180.75"/>
<polygon fill="black" stroke="black" points="241.42,-180.97 249.4,-184.6 245.75,-180.99 249.08,-181 249.08,-181 249.08,-181 245.75,-180.99 249.43,-177.4 241.42,-180.97"/>
<ellipse fill="none" stroke="black" cx="236.5" cy="-180.96" rx="3.2" ry="3.2"/>
</g>
<!-- doc_unit -->
<g id="node3" class="node">
<title>doc_unit</title>
<g id="a_node3"><a xlink:href="../../tables/doc_unit.html" xlink:title="doc_unit" target="_top">
<polygon fill="#ffffff" stroke="none" points="1142.5,-293.75 1142.5,-708.25 1329.5,-708.25 1329.5,-293.75 1142.5,-293.75"/>
<polygon fill="#f5f5f5" stroke="none" points="1142.5,-684.75 1142.5,-708.25 1329.5,-708.25 1329.5,-684.75 1142.5,-684.75"/>
<polygon fill="none" stroke="black" points="1142.5,-684.75 1142.5,-708.25 1329.5,-708.25 1329.5,-684.75 1142.5,-684.75"/>
<text text-anchor="start" x="1147.5" y="-693.8" font-family="Helvetica,sans-Serif" font-weight="bold" font-size="11.00">doc_unit</text>
<text text-anchor="start" x="1287.75" y="-692.8" font-family="Helvetica,sans-Serif" font-size="11.00">[table]</text>
<polygon fill="none" stroke="black" points="1142.5,-662.75 1142.5,-684.75 1329.5,-684.75 1329.5,-662.75 1142.5,-662.75"/>
<image xlink:href="../../images/primaryKeys.png" width="11px" height="12px" preserveAspectRatio="xMinYMin meet" x="1147.5" y="-679.75"/>
<text text-anchor="start" x="1162.5" y="-669.3" font-family="Helvetica,sans-Serif" font-size="11.00">identifier</text>
<polygon fill="#ffffff" stroke="none" points="1142.5,-640.75 1142.5,-662.75 1329.5,-662.75 1329.5,-640.75 1142.5,-640.75"/>
<polygon fill="none" stroke="black" points="1142.5,-640.75 1142.5,-662.75 1329.5,-662.75 1329.5,-640.75 1142.5,-640.75"/>
<text text-anchor="start" x="1162.5" y="-647.3" font-family="Helvetica,sans-Serif" font-size="11.00">pgcn_id</text>
<polygon fill="#ffffff" stroke="none" points="1142.5,-618.75 1142.5,-640.75 1329.5,-640.75 1329.5,-618.75 1142.5,-618.75"/>
<polygon fill="none" stroke="black" points="1142.5,-618.75 1142.5,-640.75 1329.5,-640.75 1329.5,-618.75 1142.5,-618.75"/>
<image xlink:href="../../images/foreignKeys.png" width="11px" height="12px" preserveAspectRatio="xMinYMin meet" x="1147.5" y="-635.75"/>
<text text-anchor="start" x="1162.5" y="-625.3" font-family="Helvetica,sans-Serif" font-size="11.00">library</text>
<polygon fill="#ffffff" stroke="none" points="1142.5,-596.75 1142.5,-618.75 1329.5,-618.75 1329.5,-596.75 1142.5,-596.75"/>
<polygon fill="none" stroke="black" points="1142.5,-596.75 1142.5,-618.75 1329.5,-618.75 1329.5,-596.75 1142.5,-596.75"/>
<image xlink:href="../../images/foreignKeys.png" width="11px" height="12px" preserveAspectRatio="xMinYMin meet" x="1147.5" y="-613.75"/>
<text text-anchor="start" x="1162.5" y="-603.3" font-family="Helvetica,sans-Serif" font-size="11.00">project</text>
<polygon fill="#ffffff" stroke="none" points="1142.5,-574.75 1142.5,-596.75 1329.5,-596.75 1329.5,-574.75 1142.5,-574.75"/>
<polygon fill="none" stroke="black" points="1142.5,-574.75 1142.5,-596.75 1329.5,-596.75 1329.5,-574.75 1142.5,-574.75"/>
<text text-anchor="start" x="1162.5" y="-581.3" font-family="Helvetica,sans-Serif" font-size="11.00">state</text>
<polygon fill="#ffffff" stroke="none" points="1142.5,-552.75 1142.5,-574.75 1329.5,-574.75 1329.5,-552.75 1142.5,-552.75"/>
<polygon fill="none" stroke="black" points="1142.5,-552.75 1142.5,-574.75 1329.5,-574.75 1329.5,-552.75 1142.5,-552.75"/>
<image xlink:href="../../images/foreignKeys.png" width="11px" height="12px" preserveAspectRatio="xMinYMin meet" x="1147.5" y="-569.75"/>
<text text-anchor="start" x="1162.5" y="-559.3" font-family="Helvetica,sans-Serif" font-size="11.00">lot</text>
<polygon fill="#ffffff" stroke="none" points="1142.5,-530.75 1142.5,-552.75 1329.5,-552.75 1329.5,-530.75 1142.5,-530.75"/>
<polygon fill="none" stroke="black" points="1142.5,-530.75 1142.5,-552.75 1329.5,-552.75 1329.5,-530.75 1142.5,-530.75"/>
<image xlink:href="../../images/foreignKeys.png" width="11px" height="12px" preserveAspectRatio="xMinYMin meet" x="1147.5" y="-547.75"/>
<text text-anchor="start" x="1162.5" y="-537.3" font-family="Helvetica,sans-Serif" font-size="11.00">collection_omeka</text>
<polygon fill="#ffffff" stroke="none" points="1142.5,-508.75 1142.5,-530.75 1329.5,-530.75 1329.5,-508.75 1142.5,-508.75"/>
<polygon fill="none" stroke="black" points="1142.5,-508.75 1142.5,-530.75 1329.5,-530.75 1329.5,-508.75 1142.5,-508.75"/>
<image xlink:href="../../images/foreignKeys.png" width="11px" height="12px" preserveAspectRatio="xMinYMin meet" x="1147.5" y="-525.75"/>
<text text-anchor="start" x="1162.5" y="-515.3" font-family="Helvetica,sans-Serif" font-size="11.00">items_omeka</text>
<polygon fill="#ffffff" stroke="none" points="1142.5,-486.75 1142.5,-508.75 1329.5,-508.75 1329.5,-486.75 1142.5,-486.75"/>
<polygon fill="none" stroke="black" points="1142.5,-486.75 1142.5,-508.75 1329.5,-508.75 1329.5,-486.75 1142.5,-486.75"/>
<image xlink:href="../../images/foreignKeys.png" width="11px" height="12px" preserveAspectRatio="xMinYMin meet" x="1147.5" y="-503.75"/>
<text text-anchor="start" x="1162.5" y="-493.3" font-family="Helvetica,sans-Serif" font-size="11.00">parent</text>
<polygon fill="#ffffff" stroke="none" points="1142.5,-464.75 1142.5,-486.75 1329.5,-486.75 1329.5,-464.75 1142.5,-464.75"/>
<polygon fill="none" stroke="black" points="1142.5,-464.75 1142.5,-486.75 1329.5,-486.75 1329.5,-464.75 1142.5,-464.75"/>
<image xlink:href="../../images/foreignKeys.png" width="11px" height="12px" preserveAspectRatio="xMinYMin meet" x="1147.5" y="-481.75"/>
<text text-anchor="start" x="1162.5" y="-471.3" font-family="Helvetica,sans-Serif" font-size="11.00">active_ocr_lang</text>
<polygon fill="#ffffff" stroke="none" points="1142.5,-442.75 1142.5,-464.75 1329.5,-464.75 1329.5,-442.75 1142.5,-442.75"/>
<polygon fill="none" stroke="black" points="1142.5,-442.75 1142.5,-464.75 1329.5,-464.75 1329.5,-442.75 1142.5,-442.75"/>
<image xlink:href="../../images/foreignKeys.png" width="11px" height="12px" preserveAspectRatio="xMinYMin meet" x="1147.5" y="-459.75"/>
<text text-anchor="start" x="1162.5" y="-449.3" font-family="Helvetica,sans-Serif" font-size="11.00">collection_ia</text>
<polygon fill="#ffffff" stroke="none" points="1142.5,-420.75 1142.5,-442.75 1329.5,-442.75 1329.5,-420.75 1142.5,-420.75"/>
<polygon fill="none" stroke="black" points="1142.5,-420.75 1142.5,-442.75 1329.5,-442.75 1329.5,-420.75 1142.5,-420.75"/>
<image xlink:href="../../images/foreignKeys.png" width="11px" height="12px" preserveAspectRatio="xMinYMin meet" x="1147.5" y="-437.75"/>
<text text-anchor="start" x="1162.5" y="-427.3" font-family="Helvetica,sans-Serif" font-size="11.00">classement_pac</text>
<polygon fill="#ffffff" stroke="none" points="1142.5,-398.75 1142.5,-420.75 1329.5,-420.75 1329.5,-398.75 1142.5,-398.75"/>
<polygon fill="none" stroke="black" points="1142.5,-398.75 1142.5,-420.75 1329.5,-420.75 1329.5,-398.75 1142.5,-398.75"/>
<image xlink:href="../../images/foreignKeys.png" width="11px" height="12px" preserveAspectRatio="xMinYMin meet" x="1147.5" y="-415.75"/>
<text text-anchor="start" x="1162.5" y="-405.3" font-family="Helvetica,sans-Serif" font-size="11.00">sibling</text>
<polygon fill="#ffffff" stroke="none" points="1142.5,-376.75 1142.5,-398.75 1329.5,-398.75 1329.5,-376.75 1142.5,-376.75"/>
<polygon fill="none" stroke="black" points="1142.5,-376.75 1142.5,-398.75 1329.5,-398.75 1329.5,-376.75 1142.5,-376.75"/>
<image xlink:href="../../images/foreignKeys.png" width="11px" height="12px" preserveAspectRatio="xMinYMin meet" x="1147.5" y="-393.75"/>
<text text-anchor="start" x="1162.5" y="-383.3" font-family="Helvetica,sans-Serif" font-size="11.00">export_data</text>
<polygon fill="#ffffff" stroke="none" points="1142.5,-354.75 1142.5,-376.75 1329.5,-376.75 1329.5,-354.75 1142.5,-354.75"/>
<polygon fill="none" stroke="black" points="1142.5,-354.75 1142.5,-376.75 1329.5,-376.75 1329.5,-354.75 1142.5,-354.75"/>
<image xlink:href="../../images/foreignKeys.png" width="11px" height="12px" preserveAspectRatio="xMinYMin meet" x="1147.5" y="-371.75"/>
<text text-anchor="start" x="1162.5" y="-361.3" font-family="Helvetica,sans-Serif" font-size="11.00">archive_item</text>
<polygon fill="#ffffff" stroke="none" points="1142.5,-332.75 1142.5,-354.75 1329.5,-354.75 1329.5,-332.75 1142.5,-332.75"/>
<polygon fill="none" stroke="black" points="1142.5,-332.75 1142.5,-354.75 1329.5,-354.75 1329.5,-332.75 1142.5,-332.75"/>
<image xlink:href="../../images/foreignKeys.png" width="11px" height="12px" preserveAspectRatio="xMinYMin meet" x="1147.5" y="-349.75"/>
<text text-anchor="start" x="1162.5" y="-339.3" font-family="Helvetica,sans-Serif" font-size="11.00">workflow</text>
<polygon fill="none" stroke="black" points="1142.5,-313.25 1142.5,-332.75 1329.5,-332.75 1329.5,-313.25 1142.5,-313.25"/>
<text text-anchor="start" x="1145.5" y="-319.3" font-family="Helvetica,sans-Serif" font-size="11.00">...</text>
<polygon fill="#ffffff" stroke="none" points="1142.5,-293.75 1142.5,-313.25 1211.08,-313.25 1211.08,-293.75 1142.5,-293.75"/>
<polygon fill="none" stroke="black" points="1142.5,-293.75 1142.5,-313.25 1211.08,-313.25 1211.08,-293.75 1142.5,-293.75"/>
<text text-anchor="start" x="1145.5" y="-299.8" font-family="Helvetica,sans-Serif" font-size="11.00">&lt; 13</text>
<polygon fill="#ffffff" stroke="none" points="1211.08,-293.75 1211.08,-313.25 1260.92,-313.25 1260.92,-293.75 1211.08,-293.75"/>
<polygon fill="none" stroke="black" points="1211.08,-293.75 1211.08,-313.25 1260.92,-313.25 1260.92,-293.75 1211.08,-293.75"/>
<text text-anchor="start" x="1250.42" y="-299.8" font-family="Helvetica,sans-Serif" font-size="11.00"> &#160;</text>
<polygon fill="#ffffff" stroke="none" points="1260.92,-293.75 1260.92,-313.25 1329.5,-313.25 1329.5,-293.75 1260.92,-293.75"/>
<polygon fill="none" stroke="black" points="1260.92,-293.75 1260.92,-313.25 1329.5,-313.25 1329.5,-293.75 1260.92,-293.75"/>
<text text-anchor="start" x="1300.25" y="-299.8" font-family="Helvetica,sans-Serif" font-size="11.00">11 &gt;</text>
</a>
</g>
</g>
<!-- doc_unit&#45;&gt;conf_collection_ia -->
<g id="edge2" class="edge">
<title>doc_unit:w&#45;&gt;conf_collection_ia:e</title>
<path fill="none" stroke="black" d="M1127.09,-447.8C1090.68,-410.59 1144.64,-210.43 1101.5,-173 915.71,-11.8 783.4,-122.03 548.5,-195 523.2,-202.86 523.49,-225 497,-225"/>
<polygon fill="black" stroke="black" points="1133.8,-450.57 1139.82,-456.95 1137.8,-452.22 1140.88,-453.49 1140.88,-453.49 1140.88,-453.49 1137.8,-452.22 1142.57,-450.3 1133.8,-450.57"/>
<ellipse fill="none" stroke="black" cx="1129.25" cy="-448.69" rx="3.2" ry="3.2"/>
</g>
<!-- lot_lot -->
<g id="node4" class="node">
<title>lot_lot</title>
<g id="a_node4"><a xlink:href="../../tables/lot_lot.html" xlink:title="lot_lot" target="_top">
<polygon fill="#ffffff" stroke="none" points="849.5,-183.75 849.5,-598.25 1093.5,-598.25 1093.5,-183.75 849.5,-183.75"/>
<polygon fill="#f5f5f5" stroke="none" points="849.5,-574.75 849.5,-598.25 1093.5,-598.25 1093.5,-574.75 849.5,-574.75"/>
<polygon fill="none" stroke="black" points="849.5,-574.75 849.5,-598.25 1093.5,-598.25 1093.5,-574.75 849.5,-574.75"/>
<text text-anchor="start" x="854.38" y="-583.8" font-family="Helvetica,sans-Serif" font-weight="bold" font-size="11.00">lot_lot</text>
<text text-anchor="start" x="1051.75" y="-582.8" font-family="Helvetica,sans-Serif" font-size="11.00">[table]</text>
<polygon fill="none" stroke="black" points="849.5,-552.75 849.5,-574.75 1093.5,-574.75 1093.5,-552.75 849.5,-552.75"/>
<image xlink:href="../../images/primaryKeys.png" width="11px" height="12px" preserveAspectRatio="xMinYMin meet" x="854.5" y="-569.75"/>
<text text-anchor="start" x="869.5" y="-559.3" font-family="Helvetica,sans-Serif" font-size="11.00">identifier</text>
<polygon fill="#ffffff" stroke="none" points="849.5,-530.75 849.5,-552.75 1093.5,-552.75 1093.5,-530.75 849.5,-530.75"/>
<polygon fill="none" stroke="black" points="849.5,-530.75 849.5,-552.75 1093.5,-552.75 1093.5,-530.75 849.5,-530.75"/>
<text text-anchor="start" x="869.5" y="-537.3" font-family="Helvetica,sans-Serif" font-size="11.00">code</text>
<polygon fill="#ffffff" stroke="none" points="849.5,-508.75 849.5,-530.75 1093.5,-530.75 1093.5,-508.75 849.5,-508.75"/>
<polygon fill="none" stroke="black" points="849.5,-508.75 849.5,-530.75 1093.5,-530.75 1093.5,-508.75 849.5,-508.75"/>
<image xlink:href="../../images/foreignKeys.png" width="11px" height="12px" preserveAspectRatio="xMinYMin meet" x="854.5" y="-525.75"/>
<text text-anchor="start" x="869.5" y="-515.3" font-family="Helvetica,sans-Serif" font-size="11.00">project</text>
<polygon fill="#ffffff" stroke="none" points="849.5,-486.75 849.5,-508.75 1093.5,-508.75 1093.5,-486.75 849.5,-486.75"/>
<polygon fill="none" stroke="black" points="849.5,-486.75 849.5,-508.75 1093.5,-508.75 1093.5,-486.75 849.5,-486.75"/>
<image xlink:href="../../images/foreignKeys.png" width="11px" height="12px" preserveAspectRatio="xMinYMin meet" x="854.5" y="-503.75"/>
<text text-anchor="start" x="869.5" y="-493.3" font-family="Helvetica,sans-Serif" font-size="11.00">active_configuration_ftp</text>
<polygon fill="#ffffff" stroke="none" points="849.5,-464.75 849.5,-486.75 1093.5,-486.75 1093.5,-464.75 849.5,-464.75"/>
<polygon fill="none" stroke="black" points="849.5,-464.75 849.5,-486.75 1093.5,-486.75 1093.5,-464.75 849.5,-464.75"/>
<image xlink:href="../../images/foreignKeys.png" width="11px" height="12px" preserveAspectRatio="xMinYMin meet" x="854.5" y="-481.75"/>
<text text-anchor="start" x="869.5" y="-471.3" font-family="Helvetica,sans-Serif" font-size="11.00">active_configuration_check</text>
<polygon fill="#ffffff" stroke="none" points="849.5,-442.75 849.5,-464.75 1093.5,-464.75 1093.5,-442.75 849.5,-442.75"/>
<polygon fill="none" stroke="black" points="849.5,-442.75 849.5,-464.75 1093.5,-464.75 1093.5,-442.75 849.5,-442.75"/>
<image xlink:href="../../images/foreignKeys.png" width="11px" height="12px" preserveAspectRatio="xMinYMin meet" x="854.5" y="-459.75"/>
<text text-anchor="start" x="869.5" y="-449.3" font-family="Helvetica,sans-Serif" font-size="11.00">provider</text>
<polygon fill="#ffffff" stroke="none" points="849.5,-420.75 849.5,-442.75 1093.5,-442.75 1093.5,-420.75 849.5,-420.75"/>
<polygon fill="none" stroke="black" points="849.5,-420.75 849.5,-442.75 1093.5,-442.75 1093.5,-420.75 849.5,-420.75"/>
<image xlink:href="../../images/foreignKeys.png" width="11px" height="12px" preserveAspectRatio="xMinYMin meet" x="854.5" y="-437.75"/>
<text text-anchor="start" x="869.5" y="-427.3" font-family="Helvetica,sans-Serif" font-size="11.00">collection_omeka</text>
<polygon fill="#ffffff" stroke="none" points="849.5,-398.75 849.5,-420.75 1093.5,-420.75 1093.5,-398.75 849.5,-398.75"/>
<polygon fill="none" stroke="black" points="849.5,-398.75 849.5,-420.75 1093.5,-420.75 1093.5,-398.75 849.5,-398.75"/>
<image xlink:href="../../images/foreignKeys.png" width="11px" height="12px" preserveAspectRatio="xMinYMin meet" x="854.5" y="-415.75"/>
<text text-anchor="start" x="869.5" y="-405.3" font-family="Helvetica,sans-Serif" font-size="11.00">items_omeka</text>
<polygon fill="#ffffff" stroke="none" points="849.5,-376.75 849.5,-398.75 1093.5,-398.75 1093.5,-376.75 849.5,-376.75"/>
<polygon fill="none" stroke="black" points="849.5,-376.75 849.5,-398.75 1093.5,-398.75 1093.5,-376.75 849.5,-376.75"/>
<image xlink:href="../../images/foreignKeys.png" width="11px" height="12px" preserveAspectRatio="xMinYMin meet" x="854.5" y="-393.75"/>
<text text-anchor="start" x="869.5" y="-383.3" font-family="Helvetica,sans-Serif" font-size="11.00">active_configuration_export_ftp</text>
<polygon fill="#ffffff" stroke="none" points="849.5,-354.75 849.5,-376.75 1093.5,-376.75 1093.5,-354.75 849.5,-354.75"/>
<polygon fill="none" stroke="black" points="849.5,-354.75 849.5,-376.75 1093.5,-376.75 1093.5,-354.75 849.5,-354.75"/>
<image xlink:href="../../images/foreignKeys.png" width="11px" height="12px" preserveAspectRatio="xMinYMin meet" x="854.5" y="-371.75"/>
<text text-anchor="start" x="869.5" y="-361.3" font-family="Helvetica,sans-Serif" font-size="11.00">active_ocr_lang</text>
<polygon fill="#ffffff" stroke="none" points="849.5,-332.75 849.5,-354.75 1093.5,-354.75 1093.5,-332.75 849.5,-332.75"/>
<polygon fill="none" stroke="black" points="849.5,-332.75 849.5,-354.75 1093.5,-354.75 1093.5,-332.75 849.5,-332.75"/>
<image xlink:href="../../images/foreignKeys.png" width="11px" height="12px" preserveAspectRatio="xMinYMin meet" x="854.5" y="-349.75"/>
<text text-anchor="start" x="869.5" y="-339.3" font-family="Helvetica,sans-Serif" font-size="11.00">collection_ia</text>
<polygon fill="#ffffff" stroke="none" points="849.5,-310.75 849.5,-332.75 1093.5,-332.75 1093.5,-310.75 849.5,-310.75"/>
<polygon fill="none" stroke="black" points="849.5,-310.75 849.5,-332.75 1093.5,-332.75 1093.5,-310.75 849.5,-310.75"/>
<image xlink:href="../../images/foreignKeys.png" width="11px" height="12px" preserveAspectRatio="xMinYMin meet" x="854.5" y="-327.75"/>
<text text-anchor="start" x="869.5" y="-317.3" font-family="Helvetica,sans-Serif" font-size="11.00">classement_pac</text>
<polygon fill="#ffffff" stroke="none" points="849.5,-288.75 849.5,-310.75 1093.5,-310.75 1093.5,-288.75 849.5,-288.75"/>
<polygon fill="none" stroke="black" points="849.5,-288.75 849.5,-310.75 1093.5,-310.75 1093.5,-288.75 849.5,-288.75"/>
<image xlink:href="../../images/foreignKeys.png" width="11px" height="12px" preserveAspectRatio="xMinYMin meet" x="854.5" y="-305.75"/>
<text text-anchor="start" x="869.5" y="-295.3" font-family="Helvetica,sans-Serif" font-size="11.00">workflow_model</text>
<polygon fill="#ffffff" stroke="none" points="849.5,-266.75 849.5,-288.75 1093.5,-288.75 1093.5,-266.75 849.5,-266.75"/>
<polygon fill="none" stroke="black" points="849.5,-266.75 849.5,-288.75 1093.5,-288.75 1093.5,-266.75 849.5,-266.75"/>
<image xlink:href="../../images/foreignKeys.png" width="11px" height="12px" preserveAspectRatio="xMinYMin meet" x="854.5" y="-283.75"/>
<text text-anchor="start" x="869.5" y="-273.3" font-family="Helvetica,sans-Serif" font-size="11.00">active_format_configuration</text>
<polygon fill="#ffffff" stroke="none" points="849.5,-244.75 849.5,-266.75 1093.5,-266.75 1093.5,-244.75 849.5,-244.75"/>
<polygon fill="none" stroke="black" points="849.5,-244.75 849.5,-266.75 1093.5,-266.75 1093.5,-244.75 849.5,-244.75"/>
<image xlink:href="../../images/foreignKeys.png" width="11px" height="12px" preserveAspectRatio="xMinYMin meet" x="854.5" y="-261.75"/>
<text text-anchor="start" x="869.5" y="-251.3" font-family="Helvetica,sans-Serif" font-size="11.00">omeka_configuration</text>
<polygon fill="#ffffff" stroke="none" points="849.5,-222.75 849.5,-244.75 1093.5,-244.75 1093.5,-222.75 849.5,-222.75"/>
<polygon fill="none" stroke="black" points="849.5,-222.75 849.5,-244.75 1093.5,-244.75 1093.5,-222.75 849.5,-222.75"/>
<image xlink:href="../../images/foreignKeys.png" width="11px" height="12px" preserveAspectRatio="xMinYMin meet" x="854.5" y="-239.75"/>
<text text-anchor="start" x="869.5" y="-229.3" font-family="Helvetica,sans-Serif" font-size="11.00">active_export_ftp_delivery_folder</text>
<polygon fill="none" stroke="black" points="849.5,-203.25 849.5,-222.75 1093.5,-222.75 1093.5,-203.25 849.5,-203.25"/>
<text text-anchor="start" x="852.5" y="-209.3" font-family="Helvetica,sans-Serif" font-size="11.00">...</text>
<polygon fill="#ffffff" stroke="none" points="849.5,-183.75 849.5,-203.25 939.33,-203.25 939.33,-183.75 849.5,-183.75"/>
<polygon fill="none" stroke="black" points="849.5,-183.75 849.5,-203.25 939.33,-203.25 939.33,-183.75 849.5,-183.75"/>
<text text-anchor="start" x="852.5" y="-189.8" font-family="Helvetica,sans-Serif" font-size="11.00">&lt; 14</text>
<polygon fill="#ffffff" stroke="none" points="939.33,-183.75 939.33,-203.25 1010.42,-203.25 1010.42,-183.75 939.33,-183.75"/>
<polygon fill="none" stroke="black" points="939.33,-183.75 939.33,-203.25 1010.42,-203.25 1010.42,-183.75 939.33,-183.75"/>
<text text-anchor="start" x="999.92" y="-189.8" font-family="Helvetica,sans-Serif" font-size="11.00"> &#160;</text>
<polygon fill="#ffffff" stroke="none" points="1010.42,-183.75 1010.42,-203.25 1093.5,-203.25 1093.5,-183.75 1010.42,-183.75"/>
<polygon fill="none" stroke="black" points="1010.42,-183.75 1010.42,-203.25 1093.5,-203.25 1093.5,-183.75 1010.42,-183.75"/>
<text text-anchor="start" x="1071" y="-189.8" font-family="Helvetica,sans-Serif" font-size="11.00">4 &gt;</text>
</a>
</g>
</g>
<!-- doc_unit&#45;&gt;lot_lot -->
<g id="edge3" class="edge">
<title>doc_unit:w&#45;&gt;lot_lot:e</title>
<path fill="none" stroke="black" d="M1125.88,-563.75C1115.97,-563.75 1109.02,-563.75 1094.5,-563.75"/>
<polygon fill="black" stroke="black" points="1133.17,-563.75 1141.17,-567.35 1137.5,-563.75 1140.83,-563.75 1140.83,-563.75 1140.83,-563.75 1137.5,-563.75 1141.17,-560.15 1133.17,-563.75"/>
<ellipse fill="none" stroke="black" cx="1128.25" cy="-563.75" rx="3.2" ry="3.2"/>
</g>
<!-- proj_project -->
<g id="node5" class="node">
<title>proj_project</title>
<g id="a_node5"><a xlink:href="../../tables/proj_project.html" xlink:title="proj_project" target="_top">
<polygon fill="#ffffff" stroke="none" points="556.5,-248.75 556.5,-619.25 800.5,-619.25 800.5,-248.75 556.5,-248.75"/>
<polygon fill="#f5f5f5" stroke="none" points="556.5,-595.75 556.5,-619.25 800.5,-619.25 800.5,-595.75 556.5,-595.75"/>
<polygon fill="none" stroke="black" points="556.5,-595.75 556.5,-619.25 800.5,-619.25 800.5,-595.75 556.5,-595.75"/>
<text text-anchor="start" x="561.5" y="-604.8" font-family="Helvetica,sans-Serif" font-weight="bold" font-size="11.00">proj_project</text>
<text text-anchor="start" x="758.75" y="-603.8" font-family="Helvetica,sans-Serif" font-size="11.00">[table]</text>
<polygon fill="none" stroke="black" points="556.5,-573.75 556.5,-595.75 800.5,-595.75 800.5,-573.75 556.5,-573.75"/>
<image xlink:href="../../images/primaryKeys.png" width="11px" height="12px" preserveAspectRatio="xMinYMin meet" x="561.5" y="-590.75"/>
<text text-anchor="start" x="576.5" y="-580.3" font-family="Helvetica,sans-Serif" font-size="11.00">identifier</text>
<polygon fill="#ffffff" stroke="none" points="556.5,-551.75 556.5,-573.75 800.5,-573.75 800.5,-551.75 556.5,-551.75"/>
<polygon fill="none" stroke="black" points="556.5,-551.75 556.5,-573.75 800.5,-573.75 800.5,-551.75 556.5,-551.75"/>
<image xlink:href="../../images/foreignKeys.png" width="11px" height="12px" preserveAspectRatio="xMinYMin meet" x="561.5" y="-568.75"/>
<text text-anchor="start" x="576.5" y="-558.3" font-family="Helvetica,sans-Serif" font-size="11.00">library</text>
<polygon fill="#ffffff" stroke="none" points="556.5,-529.75 556.5,-551.75 800.5,-551.75 800.5,-529.75 556.5,-529.75"/>
<polygon fill="none" stroke="black" points="556.5,-529.75 556.5,-551.75 800.5,-551.75 800.5,-529.75 556.5,-529.75"/>
<image xlink:href="../../images/foreignKeys.png" width="11px" height="12px" preserveAspectRatio="xMinYMin meet" x="561.5" y="-546.75"/>
<text text-anchor="start" x="576.5" y="-536.3" font-family="Helvetica,sans-Serif" font-size="11.00">active_configuration_ftp</text>
<polygon fill="#ffffff" stroke="none" points="556.5,-507.75 556.5,-529.75 800.5,-529.75 800.5,-507.75 556.5,-507.75"/>
<polygon fill="none" stroke="black" points="556.5,-507.75 556.5,-529.75 800.5,-529.75 800.5,-507.75 556.5,-507.75"/>
<image xlink:href="../../images/foreignKeys.png" width="11px" height="12px" preserveAspectRatio="xMinYMin meet" x="561.5" y="-524.75"/>
<text text-anchor="start" x="576.5" y="-514.3" font-family="Helvetica,sans-Serif" font-size="11.00">active_configuration_check</text>
<polygon fill="#ffffff" stroke="none" points="556.5,-485.75 556.5,-507.75 800.5,-507.75 800.5,-485.75 556.5,-485.75"/>
<polygon fill="none" stroke="black" points="556.5,-485.75 556.5,-507.75 800.5,-507.75 800.5,-485.75 556.5,-485.75"/>
<image xlink:href="../../images/foreignKeys.png" width="11px" height="12px" preserveAspectRatio="xMinYMin meet" x="561.5" y="-502.75"/>
<text text-anchor="start" x="576.5" y="-492.3" font-family="Helvetica,sans-Serif" font-size="11.00">provider</text>
<polygon fill="#ffffff" stroke="none" points="556.5,-463.75 556.5,-485.75 800.5,-485.75 800.5,-463.75 556.5,-463.75"/>
<polygon fill="none" stroke="black" points="556.5,-463.75 556.5,-485.75 800.5,-485.75 800.5,-463.75 556.5,-463.75"/>
<image xlink:href="../../images/foreignKeys.png" width="11px" height="12px" preserveAspectRatio="xMinYMin meet" x="561.5" y="-480.75"/>
<text text-anchor="start" x="576.5" y="-470.3" font-family="Helvetica,sans-Serif" font-size="11.00">collection_omeka</text>
<polygon fill="#ffffff" stroke="none" points="556.5,-441.75 556.5,-463.75 800.5,-463.75 800.5,-441.75 556.5,-441.75"/>
<polygon fill="none" stroke="black" points="556.5,-441.75 556.5,-463.75 800.5,-463.75 800.5,-441.75 556.5,-441.75"/>
<image xlink:href="../../images/foreignKeys.png" width="11px" height="12px" preserveAspectRatio="xMinYMin meet" x="561.5" y="-458.75"/>
<text text-anchor="start" x="576.5" y="-448.3" font-family="Helvetica,sans-Serif" font-size="11.00">items_omeka</text>
<polygon fill="#ffffff" stroke="none" points="556.5,-419.75 556.5,-441.75 800.5,-441.75 800.5,-419.75 556.5,-419.75"/>
<polygon fill="none" stroke="black" points="556.5,-419.75 556.5,-441.75 800.5,-441.75 800.5,-419.75 556.5,-419.75"/>
<image xlink:href="../../images/foreignKeys.png" width="11px" height="12px" preserveAspectRatio="xMinYMin meet" x="561.5" y="-436.75"/>
<text text-anchor="start" x="576.5" y="-426.3" font-family="Helvetica,sans-Serif" font-size="11.00">active_configuration_export_ftp</text>
<polygon fill="#ffffff" stroke="none" points="556.5,-397.75 556.5,-419.75 800.5,-419.75 800.5,-397.75 556.5,-397.75"/>
<polygon fill="none" stroke="black" points="556.5,-397.75 556.5,-419.75 800.5,-419.75 800.5,-397.75 556.5,-397.75"/>
<image xlink:href="../../images/foreignKeys.png" width="11px" height="12px" preserveAspectRatio="xMinYMin meet" x="561.5" y="-414.75"/>
<text text-anchor="start" x="576.5" y="-404.3" font-family="Helvetica,sans-Serif" font-size="11.00">collection_ia</text>
<polygon fill="#ffffff" stroke="none" points="556.5,-375.75 556.5,-397.75 800.5,-397.75 800.5,-375.75 556.5,-375.75"/>
<polygon fill="none" stroke="black" points="556.5,-375.75 556.5,-397.75 800.5,-397.75 800.5,-375.75 556.5,-375.75"/>
<image xlink:href="../../images/foreignKeys.png" width="11px" height="12px" preserveAspectRatio="xMinYMin meet" x="561.5" y="-392.75"/>
<text text-anchor="start" x="576.5" y="-382.3" font-family="Helvetica,sans-Serif" font-size="11.00">classement_pac</text>
<polygon fill="#ffffff" stroke="none" points="556.5,-353.75 556.5,-375.75 800.5,-375.75 800.5,-353.75 556.5,-353.75"/>
<polygon fill="none" stroke="black" points="556.5,-353.75 556.5,-375.75 800.5,-375.75 800.5,-353.75 556.5,-353.75"/>
<image xlink:href="../../images/foreignKeys.png" width="11px" height="12px" preserveAspectRatio="xMinYMin meet" x="561.5" y="-370.75"/>
<text text-anchor="start" x="576.5" y="-360.3" font-family="Helvetica,sans-Serif" font-size="11.00">workflow_model</text>
<polygon fill="#ffffff" stroke="none" points="556.5,-331.75 556.5,-353.75 800.5,-353.75 800.5,-331.75 556.5,-331.75"/>
<polygon fill="none" stroke="black" points="556.5,-331.75 556.5,-353.75 800.5,-353.75 800.5,-331.75 556.5,-331.75"/>
<image xlink:href="../../images/foreignKeys.png" width="11px" height="12px" preserveAspectRatio="xMinYMin meet" x="561.5" y="-348.75"/>
<text text-anchor="start" x="576.5" y="-338.3" font-family="Helvetica,sans-Serif" font-size="11.00">active_format_configuration</text>
<polygon fill="#ffffff" stroke="none" points="556.5,-309.75 556.5,-331.75 800.5,-331.75 800.5,-309.75 556.5,-309.75"/>
<polygon fill="none" stroke="black" points="556.5,-309.75 556.5,-331.75 800.5,-331.75 800.5,-309.75 556.5,-309.75"/>
<image xlink:href="../../images/foreignKeys.png" width="11px" height="12px" preserveAspectRatio="xMinYMin meet" x="561.5" y="-326.75"/>
<text text-anchor="start" x="576.5" y="-316.3" font-family="Helvetica,sans-Serif" font-size="11.00">omeka_configuration</text>
<polygon fill="#ffffff" stroke="none" points="556.5,-287.75 556.5,-309.75 800.5,-309.75 800.5,-287.75 556.5,-287.75"/>
<polygon fill="none" stroke="black" points="556.5,-287.75 556.5,-309.75 800.5,-309.75 800.5,-287.75 556.5,-287.75"/>
<image xlink:href="../../images/foreignKeys.png" width="11px" height="12px" preserveAspectRatio="xMinYMin meet" x="561.5" y="-304.75"/>
<text text-anchor="start" x="576.5" y="-294.3" font-family="Helvetica,sans-Serif" font-size="11.00">active_export_ftp_delivery_folder</text>
<polygon fill="none" stroke="black" points="556.5,-268.25 556.5,-287.75 800.5,-287.75 800.5,-268.25 556.5,-268.25"/>
<text text-anchor="start" x="559.5" y="-274.3" font-family="Helvetica,sans-Serif" font-size="11.00">...</text>
<polygon fill="#ffffff" stroke="none" points="556.5,-248.75 556.5,-268.25 646.33,-268.25 646.33,-248.75 556.5,-248.75"/>
<polygon fill="none" stroke="black" points="556.5,-248.75 556.5,-268.25 646.33,-268.25 646.33,-248.75 556.5,-248.75"/>
<text text-anchor="start" x="559.5" y="-254.8" font-family="Helvetica,sans-Serif" font-size="11.00">&lt; 13</text>
<polygon fill="#ffffff" stroke="none" points="646.33,-248.75 646.33,-268.25 717.42,-268.25 717.42,-248.75 646.33,-248.75"/>
<polygon fill="none" stroke="black" points="646.33,-248.75 646.33,-268.25 717.42,-268.25 717.42,-248.75 646.33,-248.75"/>
<text text-anchor="start" x="706.92" y="-254.8" font-family="Helvetica,sans-Serif" font-size="11.00"> &#160;</text>
<polygon fill="#ffffff" stroke="none" points="717.42,-248.75 717.42,-268.25 800.5,-268.25 800.5,-248.75 717.42,-248.75"/>
<polygon fill="none" stroke="black" points="717.42,-248.75 717.42,-268.25 800.5,-268.25 800.5,-248.75 717.42,-248.75"/>
<text text-anchor="start" x="778" y="-254.8" font-family="Helvetica,sans-Serif" font-size="11.00">7 &gt;</text>
</a>
</g>
</g>
<!-- doc_unit&#45;&gt;proj_project -->
<g id="edge4" class="edge">
<title>doc_unit:w&#45;&gt;proj_project:e</title>
<path fill="none" stroke="black" d="M1125.99,-608.02C1051.57,-610.27 901.19,-625.68 841.5,-609 821.48,-603.4 822.29,-584.75 801.5,-584.75"/>
<polygon fill="black" stroke="black" points="1133.17,-607.89 1141.23,-611.36 1137.5,-607.82 1140.83,-607.76 1140.83,-607.76 1140.83,-607.76 1137.5,-607.82 1141.1,-604.16 1133.17,-607.89"/>
<ellipse fill="none" stroke="black" cx="1128.25" cy="-607.98" rx="3.2" ry="3.2"/>
</g>
<!-- lot_lot&#45;&gt;conf_collection_ia -->
<g id="edge5" class="edge">
<title>lot_lot:w&#45;&gt;conf_collection_ia:e</title>
<path fill="none" stroke="black" d="M833.38,-340C810.18,-324.3 843.83,-263.51 808.5,-238 696.16,-156.88 635.56,-225 497,-225"/>
<polygon fill="black" stroke="black" points="840.41,-341.74 847.31,-347.16 844.62,-342.79 847.85,-343.59 847.85,-343.59 847.85,-343.59 844.62,-342.79 849.04,-340.18 840.41,-341.74"/>
<ellipse fill="none" stroke="black" cx="835.64" cy="-340.56" rx="3.2" ry="3.2"/>
</g>
<!-- lot_lot&#45;&gt;proj_project -->
<g id="edge6" class="edge">
<title>lot_lot:w&#45;&gt;proj_project:e</title>
<path fill="none" stroke="black" d="M833.98,-525.75C819.85,-541.84 830.47,-584.75 801.5,-584.75"/>
<polygon fill="black" stroke="black" points="840.8,-522.93 849.57,-523.2 844.8,-521.28 847.88,-520.01 847.88,-520.01 847.88,-520.01 844.8,-521.28 846.82,-516.55 840.8,-522.93"/>
<ellipse fill="none" stroke="black" cx="836.25" cy="-524.81" rx="3.2" ry="3.2"/>
</g>
<!-- proj_project&#45;&gt;conf_collection_ia -->
<g id="edge7" class="edge">
<title>proj_project:w&#45;&gt;conf_collection_ia:e</title>
<path fill="none" stroke="black" d="M540.23,-406.15C484.69,-383.82 576.68,-225 497,-225"/>
<polygon fill="black" stroke="black" points="547.28,-407.35 554.57,-412.24 551.56,-408.08 554.84,-408.64 554.84,-408.64 554.84,-408.64 551.56,-408.08 555.77,-405.14 547.28,-407.35"/>
<ellipse fill="none" stroke="black" cx="542.43" cy="-406.53" rx="3.2" ry="3.2"/>
</g>
</g>
</svg>
