<?xml version="1.0" encoding="UTF-8" standalone="no"?>
<!DOCTYPE svg PUBLIC "-//W3C//DTD SVG 1.1//EN"
 "http://www.w3.org/Graphics/SVG/1.1/DTD/svg11.dtd">
<!-- Generated by graphviz version 12.2.0 (0)
 -->
<!-- Title: oneDegreeRelationshipsDiagram Pages: 1 -->
<svg width="1327pt" height="720pt"
 viewBox="0.00 0.00 1327.25 720.25" xmlns="http://www.w3.org/2000/svg" xmlns:xlink="http://www.w3.org/1999/xlink">
<g id="graph0" class="graph" transform="scale(1 1) rotate(0) translate(4 716.25)">
<title>oneDegreeRelationshipsDiagram</title>
<polygon fill="#ffffff" stroke="none" points="-4,4 -4,-716.25 1323.25,-716.25 1323.25,4 -4,4"/>
<text text-anchor="middle" x="79.25" y="-7.05" font-family="Helvetica,sans-Serif" font-size="11.00">Generated by SchemaSpy</text>
<!-- conf_classement_pac -->
<g id="node1" class="node">
<title>conf_classement_pac</title>
<g id="a_node1"><a xlink:href="../../tables/conf_classement_pac.html" xlink:title="conf_classement_pac" target="_top">
<polygon fill="#ffffff" stroke="none" points="205,-38.5 205,-261.5 489.25,-261.5 489.25,-38.5 205,-38.5"/>
<polygon fill="#f5f5f5" stroke="none" points="207,-236 207,-259.5 487.25,-259.5 487.25,-236 207,-236"/>
<polygon fill="none" stroke="black" points="207,-236 207,-259.5 487.25,-259.5 487.25,-236 207,-236"/>
<text text-anchor="start" x="212" y="-245.05" font-family="Helvetica,sans-Serif" font-weight="bold" font-size="11.00">conf_classement_pac</text>
<text text-anchor="start" x="445.5" y="-244.05" font-family="Helvetica,sans-Serif" font-size="11.00">[table]</text>
<polygon fill="none" stroke="black" points="207,-214 207,-236 369,-236 369,-214 207,-214"/>
<image xlink:href="../../images/primaryKeys.png" width="11px" height="12px" preserveAspectRatio="xMinYMin meet" x="212" y="-231"/>
<text text-anchor="start" x="227" y="-220.55" font-family="Helvetica,sans-Serif" font-size="11.00">identifier</text>
<polygon fill="none" stroke="black" points="369,-214 369,-236 472,-236 472,-214 369,-214"/>
<text text-anchor="start" x="372" y="-221.3" font-family="Helvetica,sans-Serif" font-size="11.00">varchar[191]</text>
<polygon fill="none" stroke="black" points="207,-192 207,-214 369,-214 369,-192 207,-192"/>
<text text-anchor="start" x="227" y="-198.55" font-family="Helvetica,sans-Serif" font-size="11.00">name</text>
<polygon fill="none" stroke="black" points="369,-192 369,-214 472,-214 472,-192 369,-192"/>
<text text-anchor="start" x="372" y="-199.3" font-family="Helvetica,sans-Serif" font-size="11.00">varchar[191]</text>
<polygon fill="#ffffff" stroke="none" points="207,-170 207,-192 369,-192 369,-170 207,-170"/>
<polygon fill="none" stroke="black" points="207,-170 207,-192 369,-192 369,-170 207,-170"/>
<image xlink:href="../../images/foreignKeys.png" width="11px" height="12px" preserveAspectRatio="xMinYMin meet" x="212" y="-187"/>
<text text-anchor="start" x="227" y="-176.55" font-family="Helvetica,sans-Serif" font-size="11.00">conf_pac</text>
<polygon fill="none" stroke="black" points="369,-170 369,-192 472,-192 472,-170 369,-170"/>
<text text-anchor="start" x="372" y="-177.3" font-family="Helvetica,sans-Serif" font-size="11.00">varchar[191]</text>
<polygon fill="none" stroke="black" points="207,-148 207,-170 369,-170 369,-148 207,-148"/>
<text text-anchor="start" x="227" y="-154.55" font-family="Helvetica,sans-Serif" font-size="11.00">version</text>
<polygon fill="none" stroke="black" points="369,-148 369,-170 472,-170 472,-148 369,-148"/>
<text text-anchor="start" x="372" y="-155.3" font-family="Helvetica,sans-Serif" font-size="11.00">bigint[19]</text>
<polygon fill="none" stroke="black" points="207,-126 207,-148 369,-148 369,-126 207,-126"/>
<text text-anchor="start" x="227" y="-132.55" font-family="Helvetica,sans-Serif" font-size="11.00">created_by</text>
<polygon fill="none" stroke="black" points="369,-126 369,-148 472,-148 472,-126 369,-126"/>
<text text-anchor="start" x="372" y="-133.3" font-family="Helvetica,sans-Serif" font-size="11.00">varchar[255]</text>
<polygon fill="none" stroke="black" points="207,-104 207,-126 369,-126 369,-104 207,-104"/>
<text text-anchor="start" x="227" y="-110.55" font-family="Helvetica,sans-Serif" font-size="11.00">last_modified_by</text>
<polygon fill="none" stroke="black" points="369,-104 369,-126 472,-126 472,-104 369,-104"/>
<text text-anchor="start" x="372" y="-111.3" font-family="Helvetica,sans-Serif" font-size="11.00">varchar[255]</text>
<polygon fill="none" stroke="black" points="207,-82 207,-104 369,-104 369,-82 207,-82"/>
<text text-anchor="start" x="227" y="-88.55" font-family="Helvetica,sans-Serif" font-size="11.00">created_date</text>
<polygon fill="none" stroke="black" points="369,-82 369,-104 472,-104 472,-82 369,-82"/>
<text text-anchor="start" x="372" y="-89.3" font-family="Helvetica,sans-Serif" font-size="11.00">timestamp[19]</text>
<polygon fill="none" stroke="black" points="207,-60 207,-82 369,-82 369,-60 207,-60"/>
<text text-anchor="start" x="227" y="-66.55" font-family="Helvetica,sans-Serif" font-size="11.00">last_modified_date</text>
<polygon fill="none" stroke="black" points="369,-60 369,-82 472,-82 472,-60 369,-60"/>
<text text-anchor="start" x="372" y="-67.3" font-family="Helvetica,sans-Serif" font-size="11.00">timestamp[19]</text>
<polygon fill="#ffffff" stroke="none" points="207,-40.5 207,-60 294,-60 294,-40.5 207,-40.5"/>
<polygon fill="none" stroke="black" points="207,-40.5 207,-60 294,-60 294,-40.5 207,-40.5"/>
<text text-anchor="start" x="210" y="-46.55" font-family="Helvetica,sans-Serif" font-size="11.00">&lt; 1</text>
<polygon fill="#ffffff" stroke="none" points="294,-40.5 294,-60 369,-60 369,-40.5 294,-40.5"/>
<polygon fill="none" stroke="black" points="294,-40.5 294,-60 369,-60 369,-40.5 294,-40.5"/>
<text text-anchor="start" x="358.5" y="-46.55" font-family="Helvetica,sans-Serif" font-size="11.00"> &#160;</text>
<polygon fill="#ffffff" stroke="none" points="369,-40.5 369,-60 472,-60 472,-40.5 369,-40.5"/>
<polygon fill="none" stroke="black" points="369,-40.5 369,-60 472,-60 472,-40.5 369,-40.5"/>
<text text-anchor="start" x="449.5" y="-46.55" font-family="Helvetica,sans-Serif" font-size="11.00">3 &gt;</text>
<polygon fill="none" stroke="black" stroke-width="2" points="206,-39.5 206,-260.5 488.25,-260.5 488.25,-39.5 206,-39.5"/>
</a>
</g>
</g>
<!-- conf_sftp -->
<g id="node2" class="node">
<title>conf_sftp</title>
<g id="a_node2"><a xlink:href="../../tables/conf_sftp.html" xlink:title="conf_sftp" target="_top">
<polygon fill="#ffffff" stroke="none" points="8,-108.75 8,-215.25 156,-215.25 156,-108.75 8,-108.75"/>
<polygon fill="#f5f5f5" stroke="none" points="8,-191.75 8,-215.25 156,-215.25 156,-191.75 8,-191.75"/>
<polygon fill="none" stroke="black" points="8,-191.75 8,-215.25 156,-215.25 156,-191.75 8,-191.75"/>
<text text-anchor="start" x="13" y="-200.8" font-family="Helvetica,sans-Serif" font-weight="bold" font-size="11.00">conf_sftp</text>
<text text-anchor="start" x="114.25" y="-199.8" font-family="Helvetica,sans-Serif" font-size="11.00">[table]</text>
<polygon fill="none" stroke="black" points="8,-169.75 8,-191.75 156,-191.75 156,-169.75 8,-169.75"/>
<image xlink:href="../../images/primaryKeys.png" width="11px" height="12px" preserveAspectRatio="xMinYMin meet" x="13" y="-186.75"/>
<text text-anchor="start" x="28" y="-176.3" font-family="Helvetica,sans-Serif" font-size="11.00">identifier</text>
<polygon fill="#ffffff" stroke="none" points="8,-147.75 8,-169.75 156,-169.75 156,-147.75 8,-147.75"/>
<polygon fill="none" stroke="black" points="8,-147.75 8,-169.75 156,-169.75 156,-147.75 8,-147.75"/>
<image xlink:href="../../images/foreignKeys.png" width="11px" height="12px" preserveAspectRatio="xMinYMin meet" x="13" y="-164.75"/>
<text text-anchor="start" x="28" y="-154.3" font-family="Helvetica,sans-Serif" font-size="11.00">library</text>
<polygon fill="none" stroke="black" points="8,-128.25 8,-147.75 156,-147.75 156,-128.25 8,-128.25"/>
<text text-anchor="start" x="11" y="-134.3" font-family="Helvetica,sans-Serif" font-size="11.00">...</text>
<polygon fill="#ffffff" stroke="none" points="8,-108.75 8,-128.25 61.33,-128.25 61.33,-108.75 8,-108.75"/>
<polygon fill="none" stroke="black" points="8,-108.75 8,-128.25 61.33,-128.25 61.33,-108.75 8,-108.75"/>
<text text-anchor="start" x="11" y="-114.8" font-family="Helvetica,sans-Serif" font-size="11.00">&lt; 1</text>
<polygon fill="#ffffff" stroke="none" points="61.33,-108.75 61.33,-128.25 102.67,-128.25 102.67,-108.75 61.33,-108.75"/>
<polygon fill="none" stroke="black" points="61.33,-108.75 61.33,-128.25 102.67,-128.25 102.67,-108.75 61.33,-108.75"/>
<text text-anchor="start" x="92.17" y="-114.8" font-family="Helvetica,sans-Serif" font-size="11.00"> &#160;</text>
<polygon fill="#ffffff" stroke="none" points="102.67,-108.75 102.67,-128.25 156,-128.25 156,-108.75 102.67,-108.75"/>
<polygon fill="none" stroke="black" points="102.67,-108.75 102.67,-128.25 156,-128.25 156,-108.75 102.67,-108.75"/>
<text text-anchor="start" x="133.5" y="-114.8" font-family="Helvetica,sans-Serif" font-size="11.00">1 &gt;</text>
</a>
</g>
</g>
<!-- conf_classement_pac&#45;&gt;conf_sftp -->
<g id="edge1" class="edge">
<title>conf_classement_pac:w&#45;&gt;conf_sftp:e</title>
<path fill="none" stroke="black" d="M190.42,-180.95C179.71,-180.88 172.48,-180.75 157,-180.75"/>
<polygon fill="black" stroke="black" points="197.67,-180.97 205.65,-184.6 202,-180.99 205.33,-181 205.33,-181 205.33,-181 202,-180.99 205.68,-177.4 197.67,-180.97"/>
<ellipse fill="none" stroke="black" cx="192.75" cy="-180.96" rx="3.2" ry="3.2"/>
</g>
<!-- doc_unit -->
<g id="node3" class="node">
<title>doc_unit</title>
<g id="a_node3"><a xlink:href="../../tables/doc_unit.html" xlink:title="doc_unit" target="_top">
<polygon fill="#ffffff" stroke="none" points="1124.25,-293.75 1124.25,-708.25 1311.25,-708.25 1311.25,-293.75 1124.25,-293.75"/>
<polygon fill="#f5f5f5" stroke="none" points="1124.25,-684.75 1124.25,-708.25 1311.25,-708.25 1311.25,-684.75 1124.25,-684.75"/>
<polygon fill="none" stroke="black" points="1124.25,-684.75 1124.25,-708.25 1311.25,-708.25 1311.25,-684.75 1124.25,-684.75"/>
<text text-anchor="start" x="1129.25" y="-693.8" font-family="Helvetica,sans-Serif" font-weight="bold" font-size="11.00">doc_unit</text>
<text text-anchor="start" x="1269.5" y="-692.8" font-family="Helvetica,sans-Serif" font-size="11.00">[table]</text>
<polygon fill="none" stroke="black" points="1124.25,-662.75 1124.25,-684.75 1311.25,-684.75 1311.25,-662.75 1124.25,-662.75"/>
<image xlink:href="../../images/primaryKeys.png" width="11px" height="12px" preserveAspectRatio="xMinYMin meet" x="1129.25" y="-679.75"/>
<text text-anchor="start" x="1144.25" y="-669.3" font-family="Helvetica,sans-Serif" font-size="11.00">identifier</text>
<polygon fill="#ffffff" stroke="none" points="1124.25,-640.75 1124.25,-662.75 1311.25,-662.75 1311.25,-640.75 1124.25,-640.75"/>
<polygon fill="none" stroke="black" points="1124.25,-640.75 1124.25,-662.75 1311.25,-662.75 1311.25,-640.75 1124.25,-640.75"/>
<text text-anchor="start" x="1144.25" y="-647.3" font-family="Helvetica,sans-Serif" font-size="11.00">pgcn_id</text>
<polygon fill="#ffffff" stroke="none" points="1124.25,-618.75 1124.25,-640.75 1311.25,-640.75 1311.25,-618.75 1124.25,-618.75"/>
<polygon fill="none" stroke="black" points="1124.25,-618.75 1124.25,-640.75 1311.25,-640.75 1311.25,-618.75 1124.25,-618.75"/>
<image xlink:href="../../images/foreignKeys.png" width="11px" height="12px" preserveAspectRatio="xMinYMin meet" x="1129.25" y="-635.75"/>
<text text-anchor="start" x="1144.25" y="-625.3" font-family="Helvetica,sans-Serif" font-size="11.00">library</text>
<polygon fill="#ffffff" stroke="none" points="1124.25,-596.75 1124.25,-618.75 1311.25,-618.75 1311.25,-596.75 1124.25,-596.75"/>
<polygon fill="none" stroke="black" points="1124.25,-596.75 1124.25,-618.75 1311.25,-618.75 1311.25,-596.75 1124.25,-596.75"/>
<image xlink:href="../../images/foreignKeys.png" width="11px" height="12px" preserveAspectRatio="xMinYMin meet" x="1129.25" y="-613.75"/>
<text text-anchor="start" x="1144.25" y="-603.3" font-family="Helvetica,sans-Serif" font-size="11.00">project</text>
<polygon fill="#ffffff" stroke="none" points="1124.25,-574.75 1124.25,-596.75 1311.25,-596.75 1311.25,-574.75 1124.25,-574.75"/>
<polygon fill="none" stroke="black" points="1124.25,-574.75 1124.25,-596.75 1311.25,-596.75 1311.25,-574.75 1124.25,-574.75"/>
<text text-anchor="start" x="1144.25" y="-581.3" font-family="Helvetica,sans-Serif" font-size="11.00">state</text>
<polygon fill="#ffffff" stroke="none" points="1124.25,-552.75 1124.25,-574.75 1311.25,-574.75 1311.25,-552.75 1124.25,-552.75"/>
<polygon fill="none" stroke="black" points="1124.25,-552.75 1124.25,-574.75 1311.25,-574.75 1311.25,-552.75 1124.25,-552.75"/>
<image xlink:href="../../images/foreignKeys.png" width="11px" height="12px" preserveAspectRatio="xMinYMin meet" x="1129.25" y="-569.75"/>
<text text-anchor="start" x="1144.25" y="-559.3" font-family="Helvetica,sans-Serif" font-size="11.00">lot</text>
<polygon fill="#ffffff" stroke="none" points="1124.25,-530.75 1124.25,-552.75 1311.25,-552.75 1311.25,-530.75 1124.25,-530.75"/>
<polygon fill="none" stroke="black" points="1124.25,-530.75 1124.25,-552.75 1311.25,-552.75 1311.25,-530.75 1124.25,-530.75"/>
<image xlink:href="../../images/foreignKeys.png" width="11px" height="12px" preserveAspectRatio="xMinYMin meet" x="1129.25" y="-547.75"/>
<text text-anchor="start" x="1144.25" y="-537.3" font-family="Helvetica,sans-Serif" font-size="11.00">collection_omeka</text>
<polygon fill="#ffffff" stroke="none" points="1124.25,-508.75 1124.25,-530.75 1311.25,-530.75 1311.25,-508.75 1124.25,-508.75"/>
<polygon fill="none" stroke="black" points="1124.25,-508.75 1124.25,-530.75 1311.25,-530.75 1311.25,-508.75 1124.25,-508.75"/>
<image xlink:href="../../images/foreignKeys.png" width="11px" height="12px" preserveAspectRatio="xMinYMin meet" x="1129.25" y="-525.75"/>
<text text-anchor="start" x="1144.25" y="-515.3" font-family="Helvetica,sans-Serif" font-size="11.00">items_omeka</text>
<polygon fill="#ffffff" stroke="none" points="1124.25,-486.75 1124.25,-508.75 1311.25,-508.75 1311.25,-486.75 1124.25,-486.75"/>
<polygon fill="none" stroke="black" points="1124.25,-486.75 1124.25,-508.75 1311.25,-508.75 1311.25,-486.75 1124.25,-486.75"/>
<image xlink:href="../../images/foreignKeys.png" width="11px" height="12px" preserveAspectRatio="xMinYMin meet" x="1129.25" y="-503.75"/>
<text text-anchor="start" x="1144.25" y="-493.3" font-family="Helvetica,sans-Serif" font-size="11.00">parent</text>
<polygon fill="#ffffff" stroke="none" points="1124.25,-464.75 1124.25,-486.75 1311.25,-486.75 1311.25,-464.75 1124.25,-464.75"/>
<polygon fill="none" stroke="black" points="1124.25,-464.75 1124.25,-486.75 1311.25,-486.75 1311.25,-464.75 1124.25,-464.75"/>
<image xlink:href="../../images/foreignKeys.png" width="11px" height="12px" preserveAspectRatio="xMinYMin meet" x="1129.25" y="-481.75"/>
<text text-anchor="start" x="1144.25" y="-471.3" font-family="Helvetica,sans-Serif" font-size="11.00">active_ocr_lang</text>
<polygon fill="#ffffff" stroke="none" points="1124.25,-442.75 1124.25,-464.75 1311.25,-464.75 1311.25,-442.75 1124.25,-442.75"/>
<polygon fill="none" stroke="black" points="1124.25,-442.75 1124.25,-464.75 1311.25,-464.75 1311.25,-442.75 1124.25,-442.75"/>
<image xlink:href="../../images/foreignKeys.png" width="11px" height="12px" preserveAspectRatio="xMinYMin meet" x="1129.25" y="-459.75"/>
<text text-anchor="start" x="1144.25" y="-449.3" font-family="Helvetica,sans-Serif" font-size="11.00">collection_ia</text>
<polygon fill="#ffffff" stroke="none" points="1124.25,-420.75 1124.25,-442.75 1311.25,-442.75 1311.25,-420.75 1124.25,-420.75"/>
<polygon fill="none" stroke="black" points="1124.25,-420.75 1124.25,-442.75 1311.25,-442.75 1311.25,-420.75 1124.25,-420.75"/>
<image xlink:href="../../images/foreignKeys.png" width="11px" height="12px" preserveAspectRatio="xMinYMin meet" x="1129.25" y="-437.75"/>
<text text-anchor="start" x="1144.25" y="-427.3" font-family="Helvetica,sans-Serif" font-size="11.00">classement_pac</text>
<polygon fill="#ffffff" stroke="none" points="1124.25,-398.75 1124.25,-420.75 1311.25,-420.75 1311.25,-398.75 1124.25,-398.75"/>
<polygon fill="none" stroke="black" points="1124.25,-398.75 1124.25,-420.75 1311.25,-420.75 1311.25,-398.75 1124.25,-398.75"/>
<image xlink:href="../../images/foreignKeys.png" width="11px" height="12px" preserveAspectRatio="xMinYMin meet" x="1129.25" y="-415.75"/>
<text text-anchor="start" x="1144.25" y="-405.3" font-family="Helvetica,sans-Serif" font-size="11.00">sibling</text>
<polygon fill="#ffffff" stroke="none" points="1124.25,-376.75 1124.25,-398.75 1311.25,-398.75 1311.25,-376.75 1124.25,-376.75"/>
<polygon fill="none" stroke="black" points="1124.25,-376.75 1124.25,-398.75 1311.25,-398.75 1311.25,-376.75 1124.25,-376.75"/>
<image xlink:href="../../images/foreignKeys.png" width="11px" height="12px" preserveAspectRatio="xMinYMin meet" x="1129.25" y="-393.75"/>
<text text-anchor="start" x="1144.25" y="-383.3" font-family="Helvetica,sans-Serif" font-size="11.00">export_data</text>
<polygon fill="#ffffff" stroke="none" points="1124.25,-354.75 1124.25,-376.75 1311.25,-376.75 1311.25,-354.75 1124.25,-354.75"/>
<polygon fill="none" stroke="black" points="1124.25,-354.75 1124.25,-376.75 1311.25,-376.75 1311.25,-354.75 1124.25,-354.75"/>
<image xlink:href="../../images/foreignKeys.png" width="11px" height="12px" preserveAspectRatio="xMinYMin meet" x="1129.25" y="-371.75"/>
<text text-anchor="start" x="1144.25" y="-361.3" font-family="Helvetica,sans-Serif" font-size="11.00">archive_item</text>
<polygon fill="#ffffff" stroke="none" points="1124.25,-332.75 1124.25,-354.75 1311.25,-354.75 1311.25,-332.75 1124.25,-332.75"/>
<polygon fill="none" stroke="black" points="1124.25,-332.75 1124.25,-354.75 1311.25,-354.75 1311.25,-332.75 1124.25,-332.75"/>
<image xlink:href="../../images/foreignKeys.png" width="11px" height="12px" preserveAspectRatio="xMinYMin meet" x="1129.25" y="-349.75"/>
<text text-anchor="start" x="1144.25" y="-339.3" font-family="Helvetica,sans-Serif" font-size="11.00">workflow</text>
<polygon fill="none" stroke="black" points="1124.25,-313.25 1124.25,-332.75 1311.25,-332.75 1311.25,-313.25 1124.25,-313.25"/>
<text text-anchor="start" x="1127.25" y="-319.3" font-family="Helvetica,sans-Serif" font-size="11.00">...</text>
<polygon fill="#ffffff" stroke="none" points="1124.25,-293.75 1124.25,-313.25 1192.83,-313.25 1192.83,-293.75 1124.25,-293.75"/>
<polygon fill="none" stroke="black" points="1124.25,-293.75 1124.25,-313.25 1192.83,-313.25 1192.83,-293.75 1124.25,-293.75"/>
<text text-anchor="start" x="1127.25" y="-299.8" font-family="Helvetica,sans-Serif" font-size="11.00">&lt; 13</text>
<polygon fill="#ffffff" stroke="none" points="1192.83,-293.75 1192.83,-313.25 1242.67,-313.25 1242.67,-293.75 1192.83,-293.75"/>
<polygon fill="none" stroke="black" points="1192.83,-293.75 1192.83,-313.25 1242.67,-313.25 1242.67,-293.75 1192.83,-293.75"/>
<text text-anchor="start" x="1232.17" y="-299.8" font-family="Helvetica,sans-Serif" font-size="11.00"> &#160;</text>
<polygon fill="#ffffff" stroke="none" points="1242.67,-293.75 1242.67,-313.25 1311.25,-313.25 1311.25,-293.75 1242.67,-293.75"/>
<polygon fill="none" stroke="black" points="1242.67,-293.75 1242.67,-313.25 1311.25,-313.25 1311.25,-293.75 1242.67,-293.75"/>
<text text-anchor="start" x="1282" y="-299.8" font-family="Helvetica,sans-Serif" font-size="11.00">11 &gt;</text>
</a>
</g>
</g>
<!-- doc_unit&#45;&gt;conf_classement_pac -->
<g id="edge2" class="edge">
<title>doc_unit:w&#45;&gt;conf_classement_pac:e</title>
<path fill="none" stroke="black" d="M1109.01,-425.34C1076.63,-388.77 1122.94,-207.02 1083.25,-173 896.48,-12.88 767.46,-131.78 530.25,-197 502.94,-204.51 501.32,-225 473,-225"/>
<polygon fill="black" stroke="black" points="1115.65,-428.33 1121.47,-434.9 1119.6,-430.11 1122.64,-431.48 1122.64,-431.48 1122.64,-431.48 1119.6,-430.11 1124.42,-428.33 1115.65,-428.33"/>
<ellipse fill="none" stroke="black" cx="1111.17" cy="-426.31" rx="3.2" ry="3.2"/>
</g>
<!-- lot_lot -->
<g id="node4" class="node">
<title>lot_lot</title>
<g id="a_node4"><a xlink:href="../../tables/lot_lot.html" xlink:title="lot_lot" target="_top">
<polygon fill="#ffffff" stroke="none" points="831.25,-183.75 831.25,-598.25 1075.25,-598.25 1075.25,-183.75 831.25,-183.75"/>
<polygon fill="#f5f5f5" stroke="none" points="831.25,-574.75 831.25,-598.25 1075.25,-598.25 1075.25,-574.75 831.25,-574.75"/>
<polygon fill="none" stroke="black" points="831.25,-574.75 831.25,-598.25 1075.25,-598.25 1075.25,-574.75 831.25,-574.75"/>
<text text-anchor="start" x="836.12" y="-583.8" font-family="Helvetica,sans-Serif" font-weight="bold" font-size="11.00">lot_lot</text>
<text text-anchor="start" x="1033.5" y="-582.8" font-family="Helvetica,sans-Serif" font-size="11.00">[table]</text>
<polygon fill="none" stroke="black" points="831.25,-552.75 831.25,-574.75 1075.25,-574.75 1075.25,-552.75 831.25,-552.75"/>
<image xlink:href="../../images/primaryKeys.png" width="11px" height="12px" preserveAspectRatio="xMinYMin meet" x="836.25" y="-569.75"/>
<text text-anchor="start" x="851.25" y="-559.3" font-family="Helvetica,sans-Serif" font-size="11.00">identifier</text>
<polygon fill="#ffffff" stroke="none" points="831.25,-530.75 831.25,-552.75 1075.25,-552.75 1075.25,-530.75 831.25,-530.75"/>
<polygon fill="none" stroke="black" points="831.25,-530.75 831.25,-552.75 1075.25,-552.75 1075.25,-530.75 831.25,-530.75"/>
<text text-anchor="start" x="851.25" y="-537.3" font-family="Helvetica,sans-Serif" font-size="11.00">code</text>
<polygon fill="#ffffff" stroke="none" points="831.25,-508.75 831.25,-530.75 1075.25,-530.75 1075.25,-508.75 831.25,-508.75"/>
<polygon fill="none" stroke="black" points="831.25,-508.75 831.25,-530.75 1075.25,-530.75 1075.25,-508.75 831.25,-508.75"/>
<image xlink:href="../../images/foreignKeys.png" width="11px" height="12px" preserveAspectRatio="xMinYMin meet" x="836.25" y="-525.75"/>
<text text-anchor="start" x="851.25" y="-515.3" font-family="Helvetica,sans-Serif" font-size="11.00">project</text>
<polygon fill="#ffffff" stroke="none" points="831.25,-486.75 831.25,-508.75 1075.25,-508.75 1075.25,-486.75 831.25,-486.75"/>
<polygon fill="none" stroke="black" points="831.25,-486.75 831.25,-508.75 1075.25,-508.75 1075.25,-486.75 831.25,-486.75"/>
<image xlink:href="../../images/foreignKeys.png" width="11px" height="12px" preserveAspectRatio="xMinYMin meet" x="836.25" y="-503.75"/>
<text text-anchor="start" x="851.25" y="-493.3" font-family="Helvetica,sans-Serif" font-size="11.00">active_configuration_ftp</text>
<polygon fill="#ffffff" stroke="none" points="831.25,-464.75 831.25,-486.75 1075.25,-486.75 1075.25,-464.75 831.25,-464.75"/>
<polygon fill="none" stroke="black" points="831.25,-464.75 831.25,-486.75 1075.25,-486.75 1075.25,-464.75 831.25,-464.75"/>
<image xlink:href="../../images/foreignKeys.png" width="11px" height="12px" preserveAspectRatio="xMinYMin meet" x="836.25" y="-481.75"/>
<text text-anchor="start" x="851.25" y="-471.3" font-family="Helvetica,sans-Serif" font-size="11.00">active_configuration_check</text>
<polygon fill="#ffffff" stroke="none" points="831.25,-442.75 831.25,-464.75 1075.25,-464.75 1075.25,-442.75 831.25,-442.75"/>
<polygon fill="none" stroke="black" points="831.25,-442.75 831.25,-464.75 1075.25,-464.75 1075.25,-442.75 831.25,-442.75"/>
<image xlink:href="../../images/foreignKeys.png" width="11px" height="12px" preserveAspectRatio="xMinYMin meet" x="836.25" y="-459.75"/>
<text text-anchor="start" x="851.25" y="-449.3" font-family="Helvetica,sans-Serif" font-size="11.00">provider</text>
<polygon fill="#ffffff" stroke="none" points="831.25,-420.75 831.25,-442.75 1075.25,-442.75 1075.25,-420.75 831.25,-420.75"/>
<polygon fill="none" stroke="black" points="831.25,-420.75 831.25,-442.75 1075.25,-442.75 1075.25,-420.75 831.25,-420.75"/>
<image xlink:href="../../images/foreignKeys.png" width="11px" height="12px" preserveAspectRatio="xMinYMin meet" x="836.25" y="-437.75"/>
<text text-anchor="start" x="851.25" y="-427.3" font-family="Helvetica,sans-Serif" font-size="11.00">collection_omeka</text>
<polygon fill="#ffffff" stroke="none" points="831.25,-398.75 831.25,-420.75 1075.25,-420.75 1075.25,-398.75 831.25,-398.75"/>
<polygon fill="none" stroke="black" points="831.25,-398.75 831.25,-420.75 1075.25,-420.75 1075.25,-398.75 831.25,-398.75"/>
<image xlink:href="../../images/foreignKeys.png" width="11px" height="12px" preserveAspectRatio="xMinYMin meet" x="836.25" y="-415.75"/>
<text text-anchor="start" x="851.25" y="-405.3" font-family="Helvetica,sans-Serif" font-size="11.00">items_omeka</text>
<polygon fill="#ffffff" stroke="none" points="831.25,-376.75 831.25,-398.75 1075.25,-398.75 1075.25,-376.75 831.25,-376.75"/>
<polygon fill="none" stroke="black" points="831.25,-376.75 831.25,-398.75 1075.25,-398.75 1075.25,-376.75 831.25,-376.75"/>
<image xlink:href="../../images/foreignKeys.png" width="11px" height="12px" preserveAspectRatio="xMinYMin meet" x="836.25" y="-393.75"/>
<text text-anchor="start" x="851.25" y="-383.3" font-family="Helvetica,sans-Serif" font-size="11.00">active_configuration_export_ftp</text>
<polygon fill="#ffffff" stroke="none" points="831.25,-354.75 831.25,-376.75 1075.25,-376.75 1075.25,-354.75 831.25,-354.75"/>
<polygon fill="none" stroke="black" points="831.25,-354.75 831.25,-376.75 1075.25,-376.75 1075.25,-354.75 831.25,-354.75"/>
<image xlink:href="../../images/foreignKeys.png" width="11px" height="12px" preserveAspectRatio="xMinYMin meet" x="836.25" y="-371.75"/>
<text text-anchor="start" x="851.25" y="-361.3" font-family="Helvetica,sans-Serif" font-size="11.00">active_ocr_lang</text>
<polygon fill="#ffffff" stroke="none" points="831.25,-332.75 831.25,-354.75 1075.25,-354.75 1075.25,-332.75 831.25,-332.75"/>
<polygon fill="none" stroke="black" points="831.25,-332.75 831.25,-354.75 1075.25,-354.75 1075.25,-332.75 831.25,-332.75"/>
<image xlink:href="../../images/foreignKeys.png" width="11px" height="12px" preserveAspectRatio="xMinYMin meet" x="836.25" y="-349.75"/>
<text text-anchor="start" x="851.25" y="-339.3" font-family="Helvetica,sans-Serif" font-size="11.00">collection_ia</text>
<polygon fill="#ffffff" stroke="none" points="831.25,-310.75 831.25,-332.75 1075.25,-332.75 1075.25,-310.75 831.25,-310.75"/>
<polygon fill="none" stroke="black" points="831.25,-310.75 831.25,-332.75 1075.25,-332.75 1075.25,-310.75 831.25,-310.75"/>
<image xlink:href="../../images/foreignKeys.png" width="11px" height="12px" preserveAspectRatio="xMinYMin meet" x="836.25" y="-327.75"/>
<text text-anchor="start" x="851.25" y="-317.3" font-family="Helvetica,sans-Serif" font-size="11.00">classement_pac</text>
<polygon fill="#ffffff" stroke="none" points="831.25,-288.75 831.25,-310.75 1075.25,-310.75 1075.25,-288.75 831.25,-288.75"/>
<polygon fill="none" stroke="black" points="831.25,-288.75 831.25,-310.75 1075.25,-310.75 1075.25,-288.75 831.25,-288.75"/>
<image xlink:href="../../images/foreignKeys.png" width="11px" height="12px" preserveAspectRatio="xMinYMin meet" x="836.25" y="-305.75"/>
<text text-anchor="start" x="851.25" y="-295.3" font-family="Helvetica,sans-Serif" font-size="11.00">workflow_model</text>
<polygon fill="#ffffff" stroke="none" points="831.25,-266.75 831.25,-288.75 1075.25,-288.75 1075.25,-266.75 831.25,-266.75"/>
<polygon fill="none" stroke="black" points="831.25,-266.75 831.25,-288.75 1075.25,-288.75 1075.25,-266.75 831.25,-266.75"/>
<image xlink:href="../../images/foreignKeys.png" width="11px" height="12px" preserveAspectRatio="xMinYMin meet" x="836.25" y="-283.75"/>
<text text-anchor="start" x="851.25" y="-273.3" font-family="Helvetica,sans-Serif" font-size="11.00">active_format_configuration</text>
<polygon fill="#ffffff" stroke="none" points="831.25,-244.75 831.25,-266.75 1075.25,-266.75 1075.25,-244.75 831.25,-244.75"/>
<polygon fill="none" stroke="black" points="831.25,-244.75 831.25,-266.75 1075.25,-266.75 1075.25,-244.75 831.25,-244.75"/>
<image xlink:href="../../images/foreignKeys.png" width="11px" height="12px" preserveAspectRatio="xMinYMin meet" x="836.25" y="-261.75"/>
<text text-anchor="start" x="851.25" y="-251.3" font-family="Helvetica,sans-Serif" font-size="11.00">omeka_configuration</text>
<polygon fill="#ffffff" stroke="none" points="831.25,-222.75 831.25,-244.75 1075.25,-244.75 1075.25,-222.75 831.25,-222.75"/>
<polygon fill="none" stroke="black" points="831.25,-222.75 831.25,-244.75 1075.25,-244.75 1075.25,-222.75 831.25,-222.75"/>
<image xlink:href="../../images/foreignKeys.png" width="11px" height="12px" preserveAspectRatio="xMinYMin meet" x="836.25" y="-239.75"/>
<text text-anchor="start" x="851.25" y="-229.3" font-family="Helvetica,sans-Serif" font-size="11.00">active_export_ftp_delivery_folder</text>
<polygon fill="none" stroke="black" points="831.25,-203.25 831.25,-222.75 1075.25,-222.75 1075.25,-203.25 831.25,-203.25"/>
<text text-anchor="start" x="834.25" y="-209.3" font-family="Helvetica,sans-Serif" font-size="11.00">...</text>
<polygon fill="#ffffff" stroke="none" points="831.25,-183.75 831.25,-203.25 921.08,-203.25 921.08,-183.75 831.25,-183.75"/>
<polygon fill="none" stroke="black" points="831.25,-183.75 831.25,-203.25 921.08,-203.25 921.08,-183.75 831.25,-183.75"/>
<text text-anchor="start" x="834.25" y="-189.8" font-family="Helvetica,sans-Serif" font-size="11.00">&lt; 14</text>
<polygon fill="#ffffff" stroke="none" points="921.08,-183.75 921.08,-203.25 992.17,-203.25 992.17,-183.75 921.08,-183.75"/>
<polygon fill="none" stroke="black" points="921.08,-183.75 921.08,-203.25 992.17,-203.25 992.17,-183.75 921.08,-183.75"/>
<text text-anchor="start" x="981.67" y="-189.8" font-family="Helvetica,sans-Serif" font-size="11.00"> &#160;</text>
<polygon fill="#ffffff" stroke="none" points="992.17,-183.75 992.17,-203.25 1075.25,-203.25 1075.25,-183.75 992.17,-183.75"/>
<polygon fill="none" stroke="black" points="992.17,-183.75 992.17,-203.25 1075.25,-203.25 1075.25,-183.75 992.17,-183.75"/>
<text text-anchor="start" x="1052.75" y="-189.8" font-family="Helvetica,sans-Serif" font-size="11.00">4 &gt;</text>
</a>
</g>
</g>
<!-- doc_unit&#45;&gt;lot_lot -->
<g id="edge3" class="edge">
<title>doc_unit:w&#45;&gt;lot_lot:e</title>
<path fill="none" stroke="black" d="M1107.63,-563.75C1097.72,-563.75 1090.77,-563.75 1076.25,-563.75"/>
<polygon fill="black" stroke="black" points="1114.92,-563.75 1122.92,-567.35 1119.25,-563.75 1122.58,-563.75 1122.58,-563.75 1122.58,-563.75 1119.25,-563.75 1122.92,-560.15 1114.92,-563.75"/>
<ellipse fill="none" stroke="black" cx="1110" cy="-563.75" rx="3.2" ry="3.2"/>
</g>
<!-- proj_project -->
<g id="node5" class="node">
<title>proj_project</title>
<g id="a_node5"><a xlink:href="../../tables/proj_project.html" xlink:title="proj_project" target="_top">
<polygon fill="#ffffff" stroke="none" points="538.25,-248.75 538.25,-619.25 782.25,-619.25 782.25,-248.75 538.25,-248.75"/>
<polygon fill="#f5f5f5" stroke="none" points="538.25,-595.75 538.25,-619.25 782.25,-619.25 782.25,-595.75 538.25,-595.75"/>
<polygon fill="none" stroke="black" points="538.25,-595.75 538.25,-619.25 782.25,-619.25 782.25,-595.75 538.25,-595.75"/>
<text text-anchor="start" x="543.25" y="-604.8" font-family="Helvetica,sans-Serif" font-weight="bold" font-size="11.00">proj_project</text>
<text text-anchor="start" x="740.5" y="-603.8" font-family="Helvetica,sans-Serif" font-size="11.00">[table]</text>
<polygon fill="none" stroke="black" points="538.25,-573.75 538.25,-595.75 782.25,-595.75 782.25,-573.75 538.25,-573.75"/>
<image xlink:href="../../images/primaryKeys.png" width="11px" height="12px" preserveAspectRatio="xMinYMin meet" x="543.25" y="-590.75"/>
<text text-anchor="start" x="558.25" y="-580.3" font-family="Helvetica,sans-Serif" font-size="11.00">identifier</text>
<polygon fill="#ffffff" stroke="none" points="538.25,-551.75 538.25,-573.75 782.25,-573.75 782.25,-551.75 538.25,-551.75"/>
<polygon fill="none" stroke="black" points="538.25,-551.75 538.25,-573.75 782.25,-573.75 782.25,-551.75 538.25,-551.75"/>
<image xlink:href="../../images/foreignKeys.png" width="11px" height="12px" preserveAspectRatio="xMinYMin meet" x="543.25" y="-568.75"/>
<text text-anchor="start" x="558.25" y="-558.3" font-family="Helvetica,sans-Serif" font-size="11.00">library</text>
<polygon fill="#ffffff" stroke="none" points="538.25,-529.75 538.25,-551.75 782.25,-551.75 782.25,-529.75 538.25,-529.75"/>
<polygon fill="none" stroke="black" points="538.25,-529.75 538.25,-551.75 782.25,-551.75 782.25,-529.75 538.25,-529.75"/>
<image xlink:href="../../images/foreignKeys.png" width="11px" height="12px" preserveAspectRatio="xMinYMin meet" x="543.25" y="-546.75"/>
<text text-anchor="start" x="558.25" y="-536.3" font-family="Helvetica,sans-Serif" font-size="11.00">active_configuration_ftp</text>
<polygon fill="#ffffff" stroke="none" points="538.25,-507.75 538.25,-529.75 782.25,-529.75 782.25,-507.75 538.25,-507.75"/>
<polygon fill="none" stroke="black" points="538.25,-507.75 538.25,-529.75 782.25,-529.75 782.25,-507.75 538.25,-507.75"/>
<image xlink:href="../../images/foreignKeys.png" width="11px" height="12px" preserveAspectRatio="xMinYMin meet" x="543.25" y="-524.75"/>
<text text-anchor="start" x="558.25" y="-514.3" font-family="Helvetica,sans-Serif" font-size="11.00">active_configuration_check</text>
<polygon fill="#ffffff" stroke="none" points="538.25,-485.75 538.25,-507.75 782.25,-507.75 782.25,-485.75 538.25,-485.75"/>
<polygon fill="none" stroke="black" points="538.25,-485.75 538.25,-507.75 782.25,-507.75 782.25,-485.75 538.25,-485.75"/>
<image xlink:href="../../images/foreignKeys.png" width="11px" height="12px" preserveAspectRatio="xMinYMin meet" x="543.25" y="-502.75"/>
<text text-anchor="start" x="558.25" y="-492.3" font-family="Helvetica,sans-Serif" font-size="11.00">provider</text>
<polygon fill="#ffffff" stroke="none" points="538.25,-463.75 538.25,-485.75 782.25,-485.75 782.25,-463.75 538.25,-463.75"/>
<polygon fill="none" stroke="black" points="538.25,-463.75 538.25,-485.75 782.25,-485.75 782.25,-463.75 538.25,-463.75"/>
<image xlink:href="../../images/foreignKeys.png" width="11px" height="12px" preserveAspectRatio="xMinYMin meet" x="543.25" y="-480.75"/>
<text text-anchor="start" x="558.25" y="-470.3" font-family="Helvetica,sans-Serif" font-size="11.00">collection_omeka</text>
<polygon fill="#ffffff" stroke="none" points="538.25,-441.75 538.25,-463.75 782.25,-463.75 782.25,-441.75 538.25,-441.75"/>
<polygon fill="none" stroke="black" points="538.25,-441.75 538.25,-463.75 782.25,-463.75 782.25,-441.75 538.25,-441.75"/>
<image xlink:href="../../images/foreignKeys.png" width="11px" height="12px" preserveAspectRatio="xMinYMin meet" x="543.25" y="-458.75"/>
<text text-anchor="start" x="558.25" y="-448.3" font-family="Helvetica,sans-Serif" font-size="11.00">items_omeka</text>
<polygon fill="#ffffff" stroke="none" points="538.25,-419.75 538.25,-441.75 782.25,-441.75 782.25,-419.75 538.25,-419.75"/>
<polygon fill="none" stroke="black" points="538.25,-419.75 538.25,-441.75 782.25,-441.75 782.25,-419.75 538.25,-419.75"/>
<image xlink:href="../../images/foreignKeys.png" width="11px" height="12px" preserveAspectRatio="xMinYMin meet" x="543.25" y="-436.75"/>
<text text-anchor="start" x="558.25" y="-426.3" font-family="Helvetica,sans-Serif" font-size="11.00">active_configuration_export_ftp</text>
<polygon fill="#ffffff" stroke="none" points="538.25,-397.75 538.25,-419.75 782.25,-419.75 782.25,-397.75 538.25,-397.75"/>
<polygon fill="none" stroke="black" points="538.25,-397.75 538.25,-419.75 782.25,-419.75 782.25,-397.75 538.25,-397.75"/>
<image xlink:href="../../images/foreignKeys.png" width="11px" height="12px" preserveAspectRatio="xMinYMin meet" x="543.25" y="-414.75"/>
<text text-anchor="start" x="558.25" y="-404.3" font-family="Helvetica,sans-Serif" font-size="11.00">collection_ia</text>
<polygon fill="#ffffff" stroke="none" points="538.25,-375.75 538.25,-397.75 782.25,-397.75 782.25,-375.75 538.25,-375.75"/>
<polygon fill="none" stroke="black" points="538.25,-375.75 538.25,-397.75 782.25,-397.75 782.25,-375.75 538.25,-375.75"/>
<image xlink:href="../../images/foreignKeys.png" width="11px" height="12px" preserveAspectRatio="xMinYMin meet" x="543.25" y="-392.75"/>
<text text-anchor="start" x="558.25" y="-382.3" font-family="Helvetica,sans-Serif" font-size="11.00">classement_pac</text>
<polygon fill="#ffffff" stroke="none" points="538.25,-353.75 538.25,-375.75 782.25,-375.75 782.25,-353.75 538.25,-353.75"/>
<polygon fill="none" stroke="black" points="538.25,-353.75 538.25,-375.75 782.25,-375.75 782.25,-353.75 538.25,-353.75"/>
<image xlink:href="../../images/foreignKeys.png" width="11px" height="12px" preserveAspectRatio="xMinYMin meet" x="543.25" y="-370.75"/>
<text text-anchor="start" x="558.25" y="-360.3" font-family="Helvetica,sans-Serif" font-size="11.00">workflow_model</text>
<polygon fill="#ffffff" stroke="none" points="538.25,-331.75 538.25,-353.75 782.25,-353.75 782.25,-331.75 538.25,-331.75"/>
<polygon fill="none" stroke="black" points="538.25,-331.75 538.25,-353.75 782.25,-353.75 782.25,-331.75 538.25,-331.75"/>
<image xlink:href="../../images/foreignKeys.png" width="11px" height="12px" preserveAspectRatio="xMinYMin meet" x="543.25" y="-348.75"/>
<text text-anchor="start" x="558.25" y="-338.3" font-family="Helvetica,sans-Serif" font-size="11.00">active_format_configuration</text>
<polygon fill="#ffffff" stroke="none" points="538.25,-309.75 538.25,-331.75 782.25,-331.75 782.25,-309.75 538.25,-309.75"/>
<polygon fill="none" stroke="black" points="538.25,-309.75 538.25,-331.75 782.25,-331.75 782.25,-309.75 538.25,-309.75"/>
<image xlink:href="../../images/foreignKeys.png" width="11px" height="12px" preserveAspectRatio="xMinYMin meet" x="543.25" y="-326.75"/>
<text text-anchor="start" x="558.25" y="-316.3" font-family="Helvetica,sans-Serif" font-size="11.00">omeka_configuration</text>
<polygon fill="#ffffff" stroke="none" points="538.25,-287.75 538.25,-309.75 782.25,-309.75 782.25,-287.75 538.25,-287.75"/>
<polygon fill="none" stroke="black" points="538.25,-287.75 538.25,-309.75 782.25,-309.75 782.25,-287.75 538.25,-287.75"/>
<image xlink:href="../../images/foreignKeys.png" width="11px" height="12px" preserveAspectRatio="xMinYMin meet" x="543.25" y="-304.75"/>
<text text-anchor="start" x="558.25" y="-294.3" font-family="Helvetica,sans-Serif" font-size="11.00">active_export_ftp_delivery_folder</text>
<polygon fill="none" stroke="black" points="538.25,-268.25 538.25,-287.75 782.25,-287.75 782.25,-268.25 538.25,-268.25"/>
<text text-anchor="start" x="541.25" y="-274.3" font-family="Helvetica,sans-Serif" font-size="11.00">...</text>
<polygon fill="#ffffff" stroke="none" points="538.25,-248.75 538.25,-268.25 628.08,-268.25 628.08,-248.75 538.25,-248.75"/>
<polygon fill="none" stroke="black" points="538.25,-248.75 538.25,-268.25 628.08,-268.25 628.08,-248.75 538.25,-248.75"/>
<text text-anchor="start" x="541.25" y="-254.8" font-family="Helvetica,sans-Serif" font-size="11.00">&lt; 13</text>
<polygon fill="#ffffff" stroke="none" points="628.08,-248.75 628.08,-268.25 699.17,-268.25 699.17,-248.75 628.08,-248.75"/>
<polygon fill="none" stroke="black" points="628.08,-248.75 628.08,-268.25 699.17,-268.25 699.17,-248.75 628.08,-248.75"/>
<text text-anchor="start" x="688.67" y="-254.8" font-family="Helvetica,sans-Serif" font-size="11.00"> &#160;</text>
<polygon fill="#ffffff" stroke="none" points="699.17,-248.75 699.17,-268.25 782.25,-268.25 782.25,-248.75 699.17,-248.75"/>
<polygon fill="none" stroke="black" points="699.17,-248.75 699.17,-268.25 782.25,-268.25 782.25,-248.75 699.17,-248.75"/>
<text text-anchor="start" x="759.75" y="-254.8" font-family="Helvetica,sans-Serif" font-size="11.00">7 &gt;</text>
</a>
</g>
</g>
<!-- doc_unit&#45;&gt;proj_project -->
<g id="edge4" class="edge">
<title>doc_unit:w&#45;&gt;proj_project:e</title>
<path fill="none" stroke="black" d="M1107.74,-608.02C1033.32,-610.27 882.94,-625.68 823.25,-609 803.23,-603.4 804.04,-584.75 783.25,-584.75"/>
<polygon fill="black" stroke="black" points="1114.92,-607.89 1122.98,-611.36 1119.25,-607.82 1122.58,-607.76 1122.58,-607.76 1122.58,-607.76 1119.25,-607.82 1122.85,-604.16 1114.92,-607.89"/>
<ellipse fill="none" stroke="black" cx="1110" cy="-607.98" rx="3.2" ry="3.2"/>
</g>
<!-- lot_lot&#45;&gt;conf_classement_pac -->
<g id="edge5" class="edge">
<title>lot_lot:w&#45;&gt;conf_classement_pac:e</title>
<path fill="none" stroke="black" d="M815.51,-317.26C798.82,-302.75 819.03,-256.99 790.25,-238 672.45,-160.3 614.12,-225 473,-225"/>
<polygon fill="black" stroke="black" points="822.28,-319.32 828.88,-325.1 826.42,-320.58 829.61,-321.56 829.61,-321.56 829.61,-321.56 826.42,-320.58 830.98,-318.21 822.28,-319.32"/>
<ellipse fill="none" stroke="black" cx="817.57" cy="-317.89" rx="3.2" ry="3.2"/>
</g>
<!-- lot_lot&#45;&gt;proj_project -->
<g id="edge6" class="edge">
<title>lot_lot:w&#45;&gt;proj_project:e</title>
<path fill="none" stroke="black" d="M815.73,-525.75C801.6,-541.84 812.22,-584.75 783.25,-584.75"/>
<polygon fill="black" stroke="black" points="822.55,-522.93 831.32,-523.2 826.55,-521.28 829.63,-520.01 829.63,-520.01 829.63,-520.01 826.55,-521.28 828.57,-516.55 822.55,-522.93"/>
<ellipse fill="none" stroke="black" cx="818" cy="-524.81" rx="3.2" ry="3.2"/>
</g>
<!-- proj_project&#45;&gt;conf_classement_pac -->
<g id="edge7" class="edge">
<title>proj_project:w&#45;&gt;conf_classement_pac:e</title>
<path fill="none" stroke="black" d="M521.72,-383.8C473.31,-361.88 544.16,-225 473,-225"/>
<polygon fill="black" stroke="black" points="529.06,-385.2 536.25,-390.22 533.32,-386 536.59,-386.63 536.59,-386.63 536.59,-386.63 533.32,-386 537.59,-383.15 529.06,-385.2"/>
<ellipse fill="none" stroke="black" cx="524.23" cy="-384.28" rx="3.2" ry="3.2"/>
</g>
</g>
</svg>
