<?xml version="1.0" encoding="UTF-8" standalone="no"?>
<!DOCTYPE svg PUBLIC "-//W3C//DTD SVG 1.1//EN"
 "http://www.w3.org/Graphics/SVG/1.1/DTD/svg11.dtd">
<!-- Generated by graphviz version 12.2.0 (0)
 -->
<!-- Title: oneDegreeRelationshipsDiagram Pages: 1 -->
<svg width="559pt" height="291pt"
 viewBox="0.00 0.00 559.00 291.25" xmlns="http://www.w3.org/2000/svg" xmlns:xlink="http://www.w3.org/1999/xlink">
<g id="graph0" class="graph" transform="scale(1 1) rotate(0) translate(4 287.25)">
<title>oneDegreeRelationshipsDiagram</title>
<polygon fill="#ffffff" stroke="none" points="-4,4 -4,-287.25 555,-287.25 555,4 -4,4"/>
<text text-anchor="middle" x="79.25" y="-7.05" font-family="Helvetica,sans-Serif" font-size="11.00">Generated by SchemaSpy</text>
<!-- conf_activated_ocr_lang -->
<g id="node1" class="node">
<title>conf_activated_ocr_lang</title>
<g id="a_node1"><a xlink:href="../../tables/conf_activated_ocr_lang.html" xlink:title="conf_activated_ocr_lang" target="_top">
<polygon fill="#ffffff" stroke="none" points="228.75,-38.5 228.75,-261.5 543,-261.5 543,-38.5 228.75,-38.5"/>
<polygon fill="#f5f5f5" stroke="none" points="230.75,-236 230.75,-259.5 541,-259.5 541,-236 230.75,-236"/>
<polygon fill="none" stroke="black" points="230.75,-236 230.75,-259.5 541,-259.5 541,-236 230.75,-236"/>
<text text-anchor="start" x="235.75" y="-245.05" font-family="Helvetica,sans-Serif" font-weight="bold" font-size="11.00">conf_activated_ocr_lang</text>
<text text-anchor="start" x="499.25" y="-244.05" font-family="Helvetica,sans-Serif" font-size="11.00">[table]</text>
<polygon fill="none" stroke="black" points="230.75,-214 230.75,-236 412.75,-236 412.75,-214 230.75,-214"/>
<image xlink:href="../../images/primaryKeys.png" width="11px" height="12px" preserveAspectRatio="xMinYMin meet" x="235.75" y="-231"/>
<text text-anchor="start" x="250.75" y="-220.55" font-family="Helvetica,sans-Serif" font-size="11.00">identifier</text>
<polygon fill="none" stroke="black" points="412.75,-214 412.75,-236 520.75,-236 520.75,-214 412.75,-214"/>
<text text-anchor="start" x="415.75" y="-221.3" font-family="Helvetica,sans-Serif" font-size="11.00">varchar[191]</text>
<polygon fill="#ffffff" stroke="none" points="230.75,-192 230.75,-214 412.75,-214 412.75,-192 230.75,-192"/>
<polygon fill="none" stroke="black" points="230.75,-192 230.75,-214 412.75,-214 412.75,-192 230.75,-192"/>
<image xlink:href="../../images/foreignKeys.png" width="11px" height="12px" preserveAspectRatio="xMinYMin meet" x="235.75" y="-209"/>
<text text-anchor="start" x="250.75" y="-198.55" font-family="Helvetica,sans-Serif" font-size="11.00">ocr_lang_configuration</text>
<polygon fill="none" stroke="black" points="412.75,-192 412.75,-214 520.75,-214 520.75,-192 412.75,-192"/>
<text text-anchor="start" x="415.75" y="-199.3" font-family="Helvetica,sans-Serif" font-size="11.00">varchar[191]</text>
<polygon fill="#ffffff" stroke="none" points="230.75,-170 230.75,-192 412.75,-192 412.75,-170 230.75,-170"/>
<polygon fill="none" stroke="black" points="230.75,-170 230.75,-192 412.75,-192 412.75,-170 230.75,-170"/>
<image xlink:href="../../images/foreignKeys.png" width="11px" height="12px" preserveAspectRatio="xMinYMin meet" x="235.75" y="-187"/>
<text text-anchor="start" x="250.75" y="-176.55" font-family="Helvetica,sans-Serif" font-size="11.00">ocr_language</text>
<polygon fill="none" stroke="black" points="412.75,-170 412.75,-192 520.75,-192 520.75,-170 412.75,-170"/>
<text text-anchor="start" x="415.75" y="-177.3" font-family="Helvetica,sans-Serif" font-size="11.00">varchar[191]</text>
<polygon fill="none" stroke="black" points="230.75,-148 230.75,-170 412.75,-170 412.75,-148 230.75,-148"/>
<text text-anchor="start" x="250.75" y="-154.55" font-family="Helvetica,sans-Serif" font-size="11.00">version</text>
<polygon fill="none" stroke="black" points="412.75,-148 412.75,-170 520.75,-170 520.75,-148 412.75,-148"/>
<text text-anchor="start" x="415.75" y="-155.3" font-family="Helvetica,sans-Serif" font-size="11.00">bigint[19]</text>
<polygon fill="none" stroke="black" points="230.75,-126 230.75,-148 412.75,-148 412.75,-126 230.75,-126"/>
<text text-anchor="start" x="250.75" y="-132.55" font-family="Helvetica,sans-Serif" font-size="11.00">created_by</text>
<polygon fill="none" stroke="black" points="412.75,-126 412.75,-148 520.75,-148 520.75,-126 412.75,-126"/>
<text text-anchor="start" x="415.75" y="-133.3" font-family="Helvetica,sans-Serif" font-size="11.00">varchar[191]</text>
<polygon fill="none" stroke="black" points="230.75,-104 230.75,-126 412.75,-126 412.75,-104 230.75,-104"/>
<text text-anchor="start" x="250.75" y="-110.55" font-family="Helvetica,sans-Serif" font-size="11.00">last_modified_by</text>
<polygon fill="none" stroke="black" points="412.75,-104 412.75,-126 520.75,-126 520.75,-104 412.75,-104"/>
<text text-anchor="start" x="415.75" y="-111.3" font-family="Helvetica,sans-Serif" font-size="11.00">varchar[191]</text>
<polygon fill="none" stroke="black" points="230.75,-82 230.75,-104 412.75,-104 412.75,-82 230.75,-82"/>
<text text-anchor="start" x="250.75" y="-88.55" font-family="Helvetica,sans-Serif" font-size="11.00">created_date</text>
<polygon fill="none" stroke="black" points="412.75,-82 412.75,-104 520.75,-104 520.75,-82 412.75,-82"/>
<text text-anchor="start" x="415.75" y="-89.3" font-family="Helvetica,sans-Serif" font-size="11.00">timestamp[19]</text>
<polygon fill="none" stroke="black" points="230.75,-60 230.75,-82 412.75,-82 412.75,-60 230.75,-60"/>
<text text-anchor="start" x="250.75" y="-66.55" font-family="Helvetica,sans-Serif" font-size="11.00">last_modified_date</text>
<polygon fill="none" stroke="black" points="412.75,-60 412.75,-82 520.75,-82 520.75,-60 412.75,-60"/>
<text text-anchor="start" x="415.75" y="-67.3" font-family="Helvetica,sans-Serif" font-size="11.00">timestamp[19]</text>
<polygon fill="#ffffff" stroke="none" points="230.75,-40.5 230.75,-60 327.75,-60 327.75,-40.5 230.75,-40.5"/>
<polygon fill="none" stroke="black" points="230.75,-40.5 230.75,-60 327.75,-60 327.75,-40.5 230.75,-40.5"/>
<text text-anchor="start" x="233.75" y="-46.55" font-family="Helvetica,sans-Serif" font-size="11.00">&lt; 2</text>
<polygon fill="#ffffff" stroke="none" points="327.75,-40.5 327.75,-60 412.75,-60 412.75,-40.5 327.75,-40.5"/>
<polygon fill="none" stroke="black" points="327.75,-40.5 327.75,-60 412.75,-60 412.75,-40.5 327.75,-40.5"/>
<text text-anchor="start" x="402.25" y="-46.55" font-family="Helvetica,sans-Serif" font-size="11.00"> &#160;</text>
<polygon fill="#ffffff" stroke="none" points="412.75,-40.5 412.75,-60 520.75,-60 520.75,-40.5 412.75,-40.5"/>
<polygon fill="none" stroke="black" points="412.75,-40.5 412.75,-60 520.75,-60 520.75,-40.5 412.75,-40.5"/>
<text text-anchor="start" x="498.25" y="-46.55" font-family="Helvetica,sans-Serif" font-size="11.00">0 &gt;</text>
<polygon fill="none" stroke="black" stroke-width="2" points="229.75,-39.5 229.75,-260.5 542,-260.5 542,-39.5 229.75,-39.5"/>
</a>
</g>
</g>
<!-- conf_ocr_lang -->
<g id="node2" class="node">
<title>conf_ocr_lang</title>
<g id="a_node2"><a xlink:href="../../tables/conf_ocr_lang.html" xlink:title="conf_ocr_lang" target="_top">
<polygon fill="#ffffff" stroke="none" points="19.88,-194.75 19.88,-279.25 167.88,-279.25 167.88,-194.75 19.88,-194.75"/>
<polygon fill="#f5f5f5" stroke="none" points="19.88,-255.75 19.88,-279.25 167.88,-279.25 167.88,-255.75 19.88,-255.75"/>
<polygon fill="none" stroke="black" points="19.88,-255.75 19.88,-279.25 167.88,-279.25 167.88,-255.75 19.88,-255.75"/>
<text text-anchor="start" x="24.88" y="-264.8" font-family="Helvetica,sans-Serif" font-weight="bold" font-size="11.00">conf_ocr_lang</text>
<text text-anchor="start" x="126.12" y="-263.8" font-family="Helvetica,sans-Serif" font-size="11.00">[table]</text>
<polygon fill="none" stroke="black" points="19.88,-233.75 19.88,-255.75 167.88,-255.75 167.88,-233.75 19.88,-233.75"/>
<image xlink:href="../../images/primaryKeys.png" width="11px" height="12px" preserveAspectRatio="xMinYMin meet" x="24.875" y="-250.75"/>
<text text-anchor="start" x="39.88" y="-240.3" font-family="Helvetica,sans-Serif" font-size="11.00">identifier</text>
<polygon fill="none" stroke="black" points="19.88,-214.25 19.88,-233.75 167.88,-233.75 167.88,-214.25 19.88,-214.25"/>
<text text-anchor="start" x="22.88" y="-220.3" font-family="Helvetica,sans-Serif" font-size="11.00">...</text>
<polygon fill="#ffffff" stroke="none" points="19.88,-194.75 19.88,-214.25 65.21,-214.25 65.21,-194.75 19.88,-194.75"/>
<polygon fill="none" stroke="black" points="19.88,-194.75 19.88,-214.25 65.21,-214.25 65.21,-194.75 19.88,-194.75"/>
<text text-anchor="start" x="22.88" y="-200.8" font-family="Helvetica,sans-Serif" font-size="11.00"> &#160;</text>
<polygon fill="#ffffff" stroke="none" points="65.21,-194.75 65.21,-214.25 110.54,-214.25 110.54,-194.75 65.21,-194.75"/>
<polygon fill="none" stroke="black" points="65.21,-194.75 65.21,-214.25 110.54,-214.25 110.54,-194.75 65.21,-194.75"/>
<text text-anchor="start" x="100.04" y="-200.8" font-family="Helvetica,sans-Serif" font-size="11.00"> &#160;</text>
<polygon fill="#ffffff" stroke="none" points="110.54,-194.75 110.54,-214.25 167.88,-214.25 167.88,-194.75 110.54,-194.75"/>
<polygon fill="none" stroke="black" points="110.54,-194.75 110.54,-214.25 167.88,-214.25 167.88,-194.75 110.54,-194.75"/>
<text text-anchor="start" x="145.38" y="-200.8" font-family="Helvetica,sans-Serif" font-size="11.00">2 &gt;</text>
</a>
</g>
</g>
<!-- conf_activated_ocr_lang&#45;&gt;conf_ocr_lang -->
<g id="edge1" class="edge">
<title>conf_activated_ocr_lang:w&#45;&gt;conf_ocr_lang:e</title>
<path fill="none" stroke="black" d="M214.76,-206.85C197.4,-217.19 195.53,-244.75 168.88,-244.75"/>
<polygon fill="black" stroke="black" points="221.68,-205.07 230.32,-206.57 225.88,-204 229.1,-203.17 229.1,-203.17 229.1,-203.17 225.88,-204 228.53,-199.6 221.68,-205.07"/>
<ellipse fill="none" stroke="black" cx="216.91" cy="-206.3" rx="3.2" ry="3.2"/>
</g>
<!-- conf_language_ocr -->
<g id="node3" class="node">
<title>conf_language_ocr</title>
<g id="a_node3"><a xlink:href="../../tables/conf_language_ocr.html" xlink:title="conf_language_ocr" target="_top">
<polygon fill="#ffffff" stroke="none" points="8,-88.75 8,-173.25 179.75,-173.25 179.75,-88.75 8,-88.75"/>
<polygon fill="#f5f5f5" stroke="none" points="8,-149.75 8,-173.25 179.75,-173.25 179.75,-149.75 8,-149.75"/>
<polygon fill="none" stroke="black" points="8,-149.75 8,-173.25 179.75,-173.25 179.75,-149.75 8,-149.75"/>
<text text-anchor="start" x="13" y="-158.8" font-family="Helvetica,sans-Serif" font-weight="bold" font-size="11.00">conf_language_ocr</text>
<text text-anchor="start" x="138" y="-157.8" font-family="Helvetica,sans-Serif" font-size="11.00">[table]</text>
<polygon fill="none" stroke="black" points="8,-127.75 8,-149.75 179.75,-149.75 179.75,-127.75 8,-127.75"/>
<image xlink:href="../../images/primaryKeys.png" width="11px" height="12px" preserveAspectRatio="xMinYMin meet" x="13" y="-144.75"/>
<text text-anchor="start" x="39.88" y="-134.3" font-family="Helvetica,sans-Serif" font-size="11.00">identifier</text>
<polygon fill="none" stroke="black" points="8,-108.25 8,-127.75 179.75,-127.75 179.75,-108.25 8,-108.25"/>
<text text-anchor="start" x="11" y="-114.3" font-family="Helvetica,sans-Serif" font-size="11.00">...</text>
<polygon fill="#ffffff" stroke="none" points="8,-88.75 8,-108.25 61.25,-108.25 61.25,-88.75 8,-88.75"/>
<polygon fill="none" stroke="black" points="8,-88.75 8,-108.25 61.25,-108.25 61.25,-88.75 8,-88.75"/>
<text text-anchor="start" x="11" y="-94.8" font-family="Helvetica,sans-Serif" font-size="11.00"> &#160;</text>
<polygon fill="#ffffff" stroke="none" points="61.25,-88.75 61.25,-108.25 114.5,-108.25 114.5,-88.75 61.25,-88.75"/>
<polygon fill="none" stroke="black" points="61.25,-88.75 61.25,-108.25 114.5,-108.25 114.5,-88.75 61.25,-88.75"/>
<text text-anchor="start" x="104" y="-94.8" font-family="Helvetica,sans-Serif" font-size="11.00"> &#160;</text>
<polygon fill="#ffffff" stroke="none" points="114.5,-88.75 114.5,-108.25 179.75,-108.25 179.75,-88.75 114.5,-88.75"/>
<polygon fill="none" stroke="black" points="114.5,-88.75 114.5,-108.25 179.75,-108.25 179.75,-88.75 114.5,-88.75"/>
<text text-anchor="start" x="157.25" y="-94.8" font-family="Helvetica,sans-Serif" font-size="11.00">3 &gt;</text>
</a>
</g>
</g>
<!-- conf_activated_ocr_lang&#45;&gt;conf_language_ocr -->
<g id="edge2" class="edge">
<title>conf_activated_ocr_lang:w&#45;&gt;conf_language_ocr:e</title>
<path fill="none" stroke="black" d="M215.08,-175.48C202.94,-164.02 202.99,-138.75 180.75,-138.75"/>
<polygon fill="black" stroke="black" points="221.95,-178.06 228.17,-184.25 226.01,-179.59 229.12,-180.76 229.12,-180.76 229.12,-180.76 226.01,-179.59 230.71,-177.51 221.95,-178.06"/>
<ellipse fill="none" stroke="black" cx="217.35" cy="-176.33" rx="3.2" ry="3.2"/>
</g>
</g>
</svg>
