<?xml version="1.0" encoding="UTF-8" standalone="no"?>
<!DOCTYPE svg PUBLIC "-//W3C//DTD SVG 1.1//EN"
 "http://www.w3.org/Graphics/SVG/1.1/DTD/svg11.dtd">
<!-- Generated by graphviz version 12.2.0 (0)
 -->
<!-- Title: oneDegreeRelationshipsDiagram Pages: 1 -->
<svg width="815pt" height="674pt"
 viewBox="0.00 0.00 815.25 674.25" xmlns="http://www.w3.org/2000/svg" xmlns:xlink="http://www.w3.org/1999/xlink">
<g id="graph0" class="graph" transform="scale(1 1) rotate(0) translate(4 670.25)">
<title>oneDegreeRelationshipsDiagram</title>
<polygon fill="#ffffff" stroke="none" points="-4,4 -4,-670.25 811.25,-670.25 811.25,4 -4,4"/>
<text text-anchor="middle" x="79.25" y="-7.05" font-family="Helvetica,sans-Serif" font-size="11.00">Generated by SchemaSpy</text>
<!-- conf_activated_ocr_lang -->
<g id="node1" class="node">
<title>conf_activated_ocr_lang</title>
<g id="a_node1"><a xlink:href="../../tables/conf_activated_ocr_lang.html" xlink:title="conf_activated_ocr_lang" target="_top">
<polygon fill="#ffffff" stroke="none" points="337.38,-533.75 337.38,-662.25 545.12,-662.25 545.12,-533.75 337.38,-533.75"/>
<polygon fill="#f5f5f5" stroke="none" points="337.38,-638.75 337.38,-662.25 545.12,-662.25 545.12,-638.75 337.38,-638.75"/>
<polygon fill="none" stroke="black" points="337.38,-638.75 337.38,-662.25 545.12,-662.25 545.12,-638.75 337.38,-638.75"/>
<text text-anchor="start" x="342.38" y="-647.8" font-family="Helvetica,sans-Serif" font-weight="bold" font-size="11.00">conf_activated_ocr_lang</text>
<text text-anchor="start" x="503.38" y="-646.8" font-family="Helvetica,sans-Serif" font-size="11.00">[table]</text>
<polygon fill="none" stroke="black" points="337.38,-616.75 337.38,-638.75 545.12,-638.75 545.12,-616.75 337.38,-616.75"/>
<image xlink:href="../../images/primaryKeys.png" width="11px" height="12px" preserveAspectRatio="xMinYMin meet" x="342.375" y="-633.748"/>
<text text-anchor="start" x="370.25" y="-623.3" font-family="Helvetica,sans-Serif" font-size="11.00">identifier</text>
<polygon fill="#ffffff" stroke="none" points="337.38,-594.75 337.38,-616.75 545.12,-616.75 545.12,-594.75 337.38,-594.75"/>
<polygon fill="none" stroke="black" points="337.38,-594.75 337.38,-616.75 545.12,-616.75 545.12,-594.75 337.38,-594.75"/>
<image xlink:href="../../images/foreignKeys.png" width="11px" height="12px" preserveAspectRatio="xMinYMin meet" x="342.375" y="-611.748"/>
<text text-anchor="start" x="370.25" y="-601.3" font-family="Helvetica,sans-Serif" font-size="11.00">ocr_lang_configuration</text>
<polygon fill="#ffffff" stroke="none" points="337.38,-572.75 337.38,-594.75 545.12,-594.75 545.12,-572.75 337.38,-572.75"/>
<polygon fill="none" stroke="black" points="337.38,-572.75 337.38,-594.75 545.12,-594.75 545.12,-572.75 337.38,-572.75"/>
<image xlink:href="../../images/foreignKeys.png" width="11px" height="12px" preserveAspectRatio="xMinYMin meet" x="342.375" y="-589.748"/>
<text text-anchor="start" x="370.25" y="-579.3" font-family="Helvetica,sans-Serif" font-size="11.00">ocr_language</text>
<polygon fill="none" stroke="black" points="337.38,-553.25 337.38,-572.75 545.12,-572.75 545.12,-553.25 337.38,-553.25"/>
<text text-anchor="start" x="340.38" y="-559.3" font-family="Helvetica,sans-Serif" font-size="11.00">...</text>
<polygon fill="#ffffff" stroke="none" points="337.38,-533.75 337.38,-553.25 414.62,-553.25 414.62,-533.75 337.38,-533.75"/>
<polygon fill="none" stroke="black" points="337.38,-533.75 337.38,-553.25 414.62,-553.25 414.62,-533.75 337.38,-533.75"/>
<text text-anchor="start" x="340.38" y="-539.8" font-family="Helvetica,sans-Serif" font-size="11.00">&lt; 2</text>
<polygon fill="#ffffff" stroke="none" points="414.62,-533.75 414.62,-553.25 479.88,-553.25 479.88,-533.75 414.62,-533.75"/>
<polygon fill="none" stroke="black" points="414.62,-533.75 414.62,-553.25 479.88,-553.25 479.88,-533.75 414.62,-533.75"/>
<text text-anchor="start" x="469.38" y="-539.8" font-family="Helvetica,sans-Serif" font-size="11.00"> &#160;</text>
<polygon fill="#ffffff" stroke="none" points="479.88,-533.75 479.88,-553.25 545.12,-553.25 545.12,-533.75 479.88,-533.75"/>
<polygon fill="none" stroke="black" points="479.88,-533.75 479.88,-553.25 545.12,-553.25 545.12,-533.75 479.88,-533.75"/>
<text text-anchor="start" x="534.62" y="-539.8" font-family="Helvetica,sans-Serif" font-size="11.00"> &#160;</text>
</a>
</g>
</g>
<!-- conf_language_ocr -->
<g id="node2" class="node">
<title>conf_language_ocr</title>
<g id="a_node2"><a xlink:href="../../tables/conf_language_ocr.html" xlink:title="conf_language_ocr" target="_top">
<polygon fill="#ffffff" stroke="none" points="8,-93.5 8,-316.5 270.25,-316.5 270.25,-93.5 8,-93.5"/>
<polygon fill="#f5f5f5" stroke="none" points="10,-291 10,-314.5 268.25,-314.5 268.25,-291 10,-291"/>
<polygon fill="none" stroke="black" points="10,-291 10,-314.5 268.25,-314.5 268.25,-291 10,-291"/>
<text text-anchor="start" x="15" y="-300.05" font-family="Helvetica,sans-Serif" font-weight="bold" font-size="11.00">conf_language_ocr</text>
<text text-anchor="start" x="226.5" y="-299.05" font-family="Helvetica,sans-Serif" font-size="11.00">[table]</text>
<polygon fill="none" stroke="black" points="10,-269 10,-291 158,-291 158,-269 10,-269"/>
<image xlink:href="../../images/primaryKeys.png" width="11px" height="12px" preserveAspectRatio="xMinYMin meet" x="15" y="-285.998"/>
<text text-anchor="start" x="30" y="-275.55" font-family="Helvetica,sans-Serif" font-size="11.00">identifier</text>
<polygon fill="none" stroke="black" points="158,-269 158,-291 257,-291 257,-269 158,-269"/>
<text text-anchor="start" x="161" y="-276.3" font-family="Helvetica,sans-Serif" font-size="11.00">varchar[191]</text>
<polygon fill="none" stroke="black" points="10,-247 10,-269 158,-269 158,-247 10,-247"/>
<text text-anchor="start" x="30" y="-253.55" font-family="Helvetica,sans-Serif" font-size="11.00">code</text>
<polygon fill="none" stroke="black" points="158,-247 158,-269 257,-269 257,-247 158,-247"/>
<text text-anchor="start" x="161" y="-254.3" font-family="Helvetica,sans-Serif" font-size="11.00">varchar[255]</text>
<polygon fill="none" stroke="black" points="10,-225 10,-247 158,-247 158,-225 10,-225"/>
<text text-anchor="start" x="30" y="-231.55" font-family="Helvetica,sans-Serif" font-size="11.00">label</text>
<polygon fill="none" stroke="black" points="158,-225 158,-247 257,-247 257,-225 158,-225"/>
<text text-anchor="start" x="161" y="-232.3" font-family="Helvetica,sans-Serif" font-size="11.00">varchar[255]</text>
<polygon fill="none" stroke="black" points="10,-203 10,-225 158,-225 158,-203 10,-203"/>
<text text-anchor="start" x="30" y="-209.55" font-family="Helvetica,sans-Serif" font-size="11.00">version</text>
<polygon fill="none" stroke="black" points="158,-203 158,-225 257,-225 257,-203 158,-203"/>
<text text-anchor="start" x="161" y="-210.3" font-family="Helvetica,sans-Serif" font-size="11.00">bigint[19]</text>
<polygon fill="none" stroke="black" points="10,-181 10,-203 158,-203 158,-181 10,-181"/>
<text text-anchor="start" x="30" y="-187.55" font-family="Helvetica,sans-Serif" font-size="11.00">created_by</text>
<polygon fill="none" stroke="black" points="158,-181 158,-203 257,-203 257,-181 158,-181"/>
<text text-anchor="start" x="161" y="-188.3" font-family="Helvetica,sans-Serif" font-size="11.00">varchar[255]</text>
<polygon fill="none" stroke="black" points="10,-159 10,-181 158,-181 158,-159 10,-159"/>
<text text-anchor="start" x="30" y="-165.55" font-family="Helvetica,sans-Serif" font-size="11.00">last_modified_by</text>
<polygon fill="none" stroke="black" points="158,-159 158,-181 257,-181 257,-159 158,-159"/>
<text text-anchor="start" x="161" y="-166.3" font-family="Helvetica,sans-Serif" font-size="11.00">varchar[255]</text>
<polygon fill="none" stroke="black" points="10,-137 10,-159 158,-159 158,-137 10,-137"/>
<text text-anchor="start" x="30" y="-143.55" font-family="Helvetica,sans-Serif" font-size="11.00">created_date</text>
<polygon fill="none" stroke="black" points="158,-137 158,-159 257,-159 257,-137 158,-137"/>
<text text-anchor="start" x="161" y="-144.3" font-family="Helvetica,sans-Serif" font-size="11.00">timestamp[19]</text>
<polygon fill="none" stroke="black" points="10,-115 10,-137 158,-137 158,-115 10,-115"/>
<text text-anchor="start" x="30" y="-121.55" font-family="Helvetica,sans-Serif" font-size="11.00">last_modified_date</text>
<polygon fill="none" stroke="black" points="158,-115 158,-137 257,-137 257,-115 158,-115"/>
<text text-anchor="start" x="161" y="-122.3" font-family="Helvetica,sans-Serif" font-size="11.00">timestamp[19]</text>
<polygon fill="#ffffff" stroke="none" points="10,-95.5 10,-115 90,-115 90,-95.5 10,-95.5"/>
<polygon fill="none" stroke="black" points="10,-95.5 10,-115 90,-115 90,-95.5 10,-95.5"/>
<text text-anchor="start" x="13" y="-101.55" font-family="Helvetica,sans-Serif" font-size="11.00">&lt; 0</text>
<polygon fill="#ffffff" stroke="none" points="90,-95.5 90,-115 158,-115 158,-95.5 90,-95.5"/>
<polygon fill="none" stroke="black" points="90,-95.5 90,-115 158,-115 158,-95.5 90,-95.5"/>
<text text-anchor="start" x="147.5" y="-101.55" font-family="Helvetica,sans-Serif" font-size="11.00"> &#160;</text>
<polygon fill="#ffffff" stroke="none" points="158,-95.5 158,-115 257,-115 257,-95.5 158,-95.5"/>
<polygon fill="none" stroke="black" points="158,-95.5 158,-115 257,-115 257,-95.5 158,-95.5"/>
<text text-anchor="start" x="234.5" y="-101.55" font-family="Helvetica,sans-Serif" font-size="11.00">3 &gt;</text>
<polygon fill="none" stroke="black" stroke-width="2" points="9,-94.5 9,-315.5 269.25,-315.5 269.25,-94.5 9,-94.5"/>
</a>
</g>
</g>
<!-- conf_activated_ocr_lang&#45;&gt;conf_language_ocr -->
<g id="edge1" class="edge">
<title>conf_activated_ocr_lang:w&#45;&gt;conf_language_ocr:e</title>
<path fill="none" stroke="black" d="M320.89,-582.26C212.83,-559.34 391.7,-280 258,-280"/>
<polygon fill="black" stroke="black" points="328.08,-582.95 335.7,-587.3 332.39,-583.36 335.71,-583.68 335.71,-583.68 335.71,-583.68 332.39,-583.36 336.39,-580.13 328.08,-582.95"/>
<ellipse fill="none" stroke="black" cx="323.18" cy="-582.48" rx="3.2" ry="3.2"/>
</g>
<!-- doc_unit -->
<g id="node3" class="node">
<title>doc_unit</title>
<g id="a_node3"><a xlink:href="../../tables/doc_unit.html" xlink:title="doc_unit" target="_top">
<polygon fill="#ffffff" stroke="none" points="612.25,-49.75 612.25,-464.25 799.25,-464.25 799.25,-49.75 612.25,-49.75"/>
<polygon fill="#f5f5f5" stroke="none" points="612.25,-440.75 612.25,-464.25 799.25,-464.25 799.25,-440.75 612.25,-440.75"/>
<polygon fill="none" stroke="black" points="612.25,-440.75 612.25,-464.25 799.25,-464.25 799.25,-440.75 612.25,-440.75"/>
<text text-anchor="start" x="617.25" y="-449.8" font-family="Helvetica,sans-Serif" font-weight="bold" font-size="11.00">doc_unit</text>
<text text-anchor="start" x="757.5" y="-448.8" font-family="Helvetica,sans-Serif" font-size="11.00">[table]</text>
<polygon fill="none" stroke="black" points="612.25,-418.75 612.25,-440.75 799.25,-440.75 799.25,-418.75 612.25,-418.75"/>
<image xlink:href="../../images/primaryKeys.png" width="11px" height="12px" preserveAspectRatio="xMinYMin meet" x="617.25" y="-435.748"/>
<text text-anchor="start" x="632.25" y="-425.3" font-family="Helvetica,sans-Serif" font-size="11.00">identifier</text>
<polygon fill="#ffffff" stroke="none" points="612.25,-396.75 612.25,-418.75 799.25,-418.75 799.25,-396.75 612.25,-396.75"/>
<polygon fill="none" stroke="black" points="612.25,-396.75 612.25,-418.75 799.25,-418.75 799.25,-396.75 612.25,-396.75"/>
<text text-anchor="start" x="632.25" y="-403.3" font-family="Helvetica,sans-Serif" font-size="11.00">pgcn_id</text>
<polygon fill="#ffffff" stroke="none" points="612.25,-374.75 612.25,-396.75 799.25,-396.75 799.25,-374.75 612.25,-374.75"/>
<polygon fill="none" stroke="black" points="612.25,-374.75 612.25,-396.75 799.25,-396.75 799.25,-374.75 612.25,-374.75"/>
<image xlink:href="../../images/foreignKeys.png" width="11px" height="12px" preserveAspectRatio="xMinYMin meet" x="617.25" y="-391.748"/>
<text text-anchor="start" x="632.25" y="-381.3" font-family="Helvetica,sans-Serif" font-size="11.00">library</text>
<polygon fill="#ffffff" stroke="none" points="612.25,-352.75 612.25,-374.75 799.25,-374.75 799.25,-352.75 612.25,-352.75"/>
<polygon fill="none" stroke="black" points="612.25,-352.75 612.25,-374.75 799.25,-374.75 799.25,-352.75 612.25,-352.75"/>
<image xlink:href="../../images/foreignKeys.png" width="11px" height="12px" preserveAspectRatio="xMinYMin meet" x="617.25" y="-369.748"/>
<text text-anchor="start" x="632.25" y="-359.3" font-family="Helvetica,sans-Serif" font-size="11.00">project</text>
<polygon fill="#ffffff" stroke="none" points="612.25,-330.75 612.25,-352.75 799.25,-352.75 799.25,-330.75 612.25,-330.75"/>
<polygon fill="none" stroke="black" points="612.25,-330.75 612.25,-352.75 799.25,-352.75 799.25,-330.75 612.25,-330.75"/>
<text text-anchor="start" x="632.25" y="-337.3" font-family="Helvetica,sans-Serif" font-size="11.00">state</text>
<polygon fill="#ffffff" stroke="none" points="612.25,-308.75 612.25,-330.75 799.25,-330.75 799.25,-308.75 612.25,-308.75"/>
<polygon fill="none" stroke="black" points="612.25,-308.75 612.25,-330.75 799.25,-330.75 799.25,-308.75 612.25,-308.75"/>
<image xlink:href="../../images/foreignKeys.png" width="11px" height="12px" preserveAspectRatio="xMinYMin meet" x="617.25" y="-325.748"/>
<text text-anchor="start" x="632.25" y="-315.3" font-family="Helvetica,sans-Serif" font-size="11.00">lot</text>
<polygon fill="#ffffff" stroke="none" points="612.25,-286.75 612.25,-308.75 799.25,-308.75 799.25,-286.75 612.25,-286.75"/>
<polygon fill="none" stroke="black" points="612.25,-286.75 612.25,-308.75 799.25,-308.75 799.25,-286.75 612.25,-286.75"/>
<image xlink:href="../../images/foreignKeys.png" width="11px" height="12px" preserveAspectRatio="xMinYMin meet" x="617.25" y="-303.748"/>
<text text-anchor="start" x="632.25" y="-293.3" font-family="Helvetica,sans-Serif" font-size="11.00">collection_omeka</text>
<polygon fill="#ffffff" stroke="none" points="612.25,-264.75 612.25,-286.75 799.25,-286.75 799.25,-264.75 612.25,-264.75"/>
<polygon fill="none" stroke="black" points="612.25,-264.75 612.25,-286.75 799.25,-286.75 799.25,-264.75 612.25,-264.75"/>
<image xlink:href="../../images/foreignKeys.png" width="11px" height="12px" preserveAspectRatio="xMinYMin meet" x="617.25" y="-281.748"/>
<text text-anchor="start" x="632.25" y="-271.3" font-family="Helvetica,sans-Serif" font-size="11.00">items_omeka</text>
<polygon fill="#ffffff" stroke="none" points="612.25,-242.75 612.25,-264.75 799.25,-264.75 799.25,-242.75 612.25,-242.75"/>
<polygon fill="none" stroke="black" points="612.25,-242.75 612.25,-264.75 799.25,-264.75 799.25,-242.75 612.25,-242.75"/>
<image xlink:href="../../images/foreignKeys.png" width="11px" height="12px" preserveAspectRatio="xMinYMin meet" x="617.25" y="-259.748"/>
<text text-anchor="start" x="632.25" y="-249.3" font-family="Helvetica,sans-Serif" font-size="11.00">parent</text>
<polygon fill="#ffffff" stroke="none" points="612.25,-220.75 612.25,-242.75 799.25,-242.75 799.25,-220.75 612.25,-220.75"/>
<polygon fill="none" stroke="black" points="612.25,-220.75 612.25,-242.75 799.25,-242.75 799.25,-220.75 612.25,-220.75"/>
<image xlink:href="../../images/foreignKeys.png" width="11px" height="12px" preserveAspectRatio="xMinYMin meet" x="617.25" y="-237.748"/>
<text text-anchor="start" x="632.25" y="-227.3" font-family="Helvetica,sans-Serif" font-size="11.00">active_ocr_lang</text>
<polygon fill="#ffffff" stroke="none" points="612.25,-198.75 612.25,-220.75 799.25,-220.75 799.25,-198.75 612.25,-198.75"/>
<polygon fill="none" stroke="black" points="612.25,-198.75 612.25,-220.75 799.25,-220.75 799.25,-198.75 612.25,-198.75"/>
<image xlink:href="../../images/foreignKeys.png" width="11px" height="12px" preserveAspectRatio="xMinYMin meet" x="617.25" y="-215.748"/>
<text text-anchor="start" x="632.25" y="-205.3" font-family="Helvetica,sans-Serif" font-size="11.00">collection_ia</text>
<polygon fill="#ffffff" stroke="none" points="612.25,-176.75 612.25,-198.75 799.25,-198.75 799.25,-176.75 612.25,-176.75"/>
<polygon fill="none" stroke="black" points="612.25,-176.75 612.25,-198.75 799.25,-198.75 799.25,-176.75 612.25,-176.75"/>
<image xlink:href="../../images/foreignKeys.png" width="11px" height="12px" preserveAspectRatio="xMinYMin meet" x="617.25" y="-193.748"/>
<text text-anchor="start" x="632.25" y="-183.3" font-family="Helvetica,sans-Serif" font-size="11.00">classement_pac</text>
<polygon fill="#ffffff" stroke="none" points="612.25,-154.75 612.25,-176.75 799.25,-176.75 799.25,-154.75 612.25,-154.75"/>
<polygon fill="none" stroke="black" points="612.25,-154.75 612.25,-176.75 799.25,-176.75 799.25,-154.75 612.25,-154.75"/>
<image xlink:href="../../images/foreignKeys.png" width="11px" height="12px" preserveAspectRatio="xMinYMin meet" x="617.25" y="-171.748"/>
<text text-anchor="start" x="632.25" y="-161.3" font-family="Helvetica,sans-Serif" font-size="11.00">sibling</text>
<polygon fill="#ffffff" stroke="none" points="612.25,-132.75 612.25,-154.75 799.25,-154.75 799.25,-132.75 612.25,-132.75"/>
<polygon fill="none" stroke="black" points="612.25,-132.75 612.25,-154.75 799.25,-154.75 799.25,-132.75 612.25,-132.75"/>
<image xlink:href="../../images/foreignKeys.png" width="11px" height="12px" preserveAspectRatio="xMinYMin meet" x="617.25" y="-149.748"/>
<text text-anchor="start" x="632.25" y="-139.3" font-family="Helvetica,sans-Serif" font-size="11.00">export_data</text>
<polygon fill="#ffffff" stroke="none" points="612.25,-110.75 612.25,-132.75 799.25,-132.75 799.25,-110.75 612.25,-110.75"/>
<polygon fill="none" stroke="black" points="612.25,-110.75 612.25,-132.75 799.25,-132.75 799.25,-110.75 612.25,-110.75"/>
<image xlink:href="../../images/foreignKeys.png" width="11px" height="12px" preserveAspectRatio="xMinYMin meet" x="617.25" y="-127.748"/>
<text text-anchor="start" x="632.25" y="-117.3" font-family="Helvetica,sans-Serif" font-size="11.00">archive_item</text>
<polygon fill="#ffffff" stroke="none" points="612.25,-88.75 612.25,-110.75 799.25,-110.75 799.25,-88.75 612.25,-88.75"/>
<polygon fill="none" stroke="black" points="612.25,-88.75 612.25,-110.75 799.25,-110.75 799.25,-88.75 612.25,-88.75"/>
<image xlink:href="../../images/foreignKeys.png" width="11px" height="12px" preserveAspectRatio="xMinYMin meet" x="617.25" y="-105.748"/>
<text text-anchor="start" x="632.25" y="-95.3" font-family="Helvetica,sans-Serif" font-size="11.00">workflow</text>
<polygon fill="none" stroke="black" points="612.25,-69.25 612.25,-88.75 799.25,-88.75 799.25,-69.25 612.25,-69.25"/>
<text text-anchor="start" x="615.25" y="-75.3" font-family="Helvetica,sans-Serif" font-size="11.00">...</text>
<polygon fill="#ffffff" stroke="none" points="612.25,-49.75 612.25,-69.25 680.83,-69.25 680.83,-49.75 612.25,-49.75"/>
<polygon fill="none" stroke="black" points="612.25,-49.75 612.25,-69.25 680.83,-69.25 680.83,-49.75 612.25,-49.75"/>
<text text-anchor="start" x="615.25" y="-55.8" font-family="Helvetica,sans-Serif" font-size="11.00">&lt; 13</text>
<polygon fill="#ffffff" stroke="none" points="680.83,-49.75 680.83,-69.25 730.67,-69.25 730.67,-49.75 680.83,-49.75"/>
<polygon fill="none" stroke="black" points="680.83,-49.75 680.83,-69.25 730.67,-69.25 730.67,-49.75 680.83,-49.75"/>
<text text-anchor="start" x="720.17" y="-55.8" font-family="Helvetica,sans-Serif" font-size="11.00"> &#160;</text>
<polygon fill="#ffffff" stroke="none" points="730.67,-49.75 730.67,-69.25 799.25,-69.25 799.25,-49.75 730.67,-49.75"/>
<polygon fill="none" stroke="black" points="730.67,-49.75 730.67,-69.25 799.25,-69.25 799.25,-49.75 730.67,-49.75"/>
<text text-anchor="start" x="770" y="-55.8" font-family="Helvetica,sans-Serif" font-size="11.00">11 &gt;</text>
</a>
</g>
</g>
<!-- doc_unit&#45;&gt;conf_language_ocr -->
<g id="edge2" class="edge">
<title>doc_unit:w&#45;&gt;conf_language_ocr:e</title>
<path fill="none" stroke="black" d="M596.11,-229.14C558.31,-212.75 619.38,-123.63 571.25,-87 479.3,-17.01 403.19,-16.99 311.25,-87 240.45,-140.91 346.98,-280 258,-280"/>
<polygon fill="black" stroke="black" points="603.04,-230.33 610.31,-235.24 607.31,-231.07 610.59,-231.63 610.59,-231.63 610.59,-231.63 607.31,-231.07 611.53,-228.14 603.04,-230.33"/>
<ellipse fill="none" stroke="black" cx="598.19" cy="-229.49" rx="3.2" ry="3.2"/>
</g>
<!-- lot_lot -->
<g id="node4" class="node">
<title>lot_lot</title>
<g id="a_node4"><a xlink:href="../../tables/lot_lot.html" xlink:title="lot_lot" target="_top">
<polygon fill="#ffffff" stroke="none" points="319.25,-97.75 319.25,-512.25 563.25,-512.25 563.25,-97.75 319.25,-97.75"/>
<polygon fill="#f5f5f5" stroke="none" points="319.25,-488.75 319.25,-512.25 563.25,-512.25 563.25,-488.75 319.25,-488.75"/>
<polygon fill="none" stroke="black" points="319.25,-488.75 319.25,-512.25 563.25,-512.25 563.25,-488.75 319.25,-488.75"/>
<text text-anchor="start" x="324.12" y="-497.8" font-family="Helvetica,sans-Serif" font-weight="bold" font-size="11.00">lot_lot</text>
<text text-anchor="start" x="521.5" y="-496.8" font-family="Helvetica,sans-Serif" font-size="11.00">[table]</text>
<polygon fill="none" stroke="black" points="319.25,-466.75 319.25,-488.75 563.25,-488.75 563.25,-466.75 319.25,-466.75"/>
<image xlink:href="../../images/primaryKeys.png" width="11px" height="12px" preserveAspectRatio="xMinYMin meet" x="324.25" y="-483.748"/>
<text text-anchor="start" x="339.25" y="-473.3" font-family="Helvetica,sans-Serif" font-size="11.00">identifier</text>
<polygon fill="#ffffff" stroke="none" points="319.25,-444.75 319.25,-466.75 563.25,-466.75 563.25,-444.75 319.25,-444.75"/>
<polygon fill="none" stroke="black" points="319.25,-444.75 319.25,-466.75 563.25,-466.75 563.25,-444.75 319.25,-444.75"/>
<text text-anchor="start" x="339.25" y="-451.3" font-family="Helvetica,sans-Serif" font-size="11.00">code</text>
<polygon fill="#ffffff" stroke="none" points="319.25,-422.75 319.25,-444.75 563.25,-444.75 563.25,-422.75 319.25,-422.75"/>
<polygon fill="none" stroke="black" points="319.25,-422.75 319.25,-444.75 563.25,-444.75 563.25,-422.75 319.25,-422.75"/>
<image xlink:href="../../images/foreignKeys.png" width="11px" height="12px" preserveAspectRatio="xMinYMin meet" x="324.25" y="-439.748"/>
<text text-anchor="start" x="339.25" y="-429.3" font-family="Helvetica,sans-Serif" font-size="11.00">project</text>
<polygon fill="#ffffff" stroke="none" points="319.25,-400.75 319.25,-422.75 563.25,-422.75 563.25,-400.75 319.25,-400.75"/>
<polygon fill="none" stroke="black" points="319.25,-400.75 319.25,-422.75 563.25,-422.75 563.25,-400.75 319.25,-400.75"/>
<image xlink:href="../../images/foreignKeys.png" width="11px" height="12px" preserveAspectRatio="xMinYMin meet" x="324.25" y="-417.748"/>
<text text-anchor="start" x="339.25" y="-407.3" font-family="Helvetica,sans-Serif" font-size="11.00">active_configuration_ftp</text>
<polygon fill="#ffffff" stroke="none" points="319.25,-378.75 319.25,-400.75 563.25,-400.75 563.25,-378.75 319.25,-378.75"/>
<polygon fill="none" stroke="black" points="319.25,-378.75 319.25,-400.75 563.25,-400.75 563.25,-378.75 319.25,-378.75"/>
<image xlink:href="../../images/foreignKeys.png" width="11px" height="12px" preserveAspectRatio="xMinYMin meet" x="324.25" y="-395.748"/>
<text text-anchor="start" x="339.25" y="-385.3" font-family="Helvetica,sans-Serif" font-size="11.00">active_configuration_check</text>
<polygon fill="#ffffff" stroke="none" points="319.25,-356.75 319.25,-378.75 563.25,-378.75 563.25,-356.75 319.25,-356.75"/>
<polygon fill="none" stroke="black" points="319.25,-356.75 319.25,-378.75 563.25,-378.75 563.25,-356.75 319.25,-356.75"/>
<image xlink:href="../../images/foreignKeys.png" width="11px" height="12px" preserveAspectRatio="xMinYMin meet" x="324.25" y="-373.748"/>
<text text-anchor="start" x="339.25" y="-363.3" font-family="Helvetica,sans-Serif" font-size="11.00">provider</text>
<polygon fill="#ffffff" stroke="none" points="319.25,-334.75 319.25,-356.75 563.25,-356.75 563.25,-334.75 319.25,-334.75"/>
<polygon fill="none" stroke="black" points="319.25,-334.75 319.25,-356.75 563.25,-356.75 563.25,-334.75 319.25,-334.75"/>
<image xlink:href="../../images/foreignKeys.png" width="11px" height="12px" preserveAspectRatio="xMinYMin meet" x="324.25" y="-351.748"/>
<text text-anchor="start" x="339.25" y="-341.3" font-family="Helvetica,sans-Serif" font-size="11.00">collection_omeka</text>
<polygon fill="#ffffff" stroke="none" points="319.25,-312.75 319.25,-334.75 563.25,-334.75 563.25,-312.75 319.25,-312.75"/>
<polygon fill="none" stroke="black" points="319.25,-312.75 319.25,-334.75 563.25,-334.75 563.25,-312.75 319.25,-312.75"/>
<image xlink:href="../../images/foreignKeys.png" width="11px" height="12px" preserveAspectRatio="xMinYMin meet" x="324.25" y="-329.748"/>
<text text-anchor="start" x="339.25" y="-319.3" font-family="Helvetica,sans-Serif" font-size="11.00">items_omeka</text>
<polygon fill="#ffffff" stroke="none" points="319.25,-290.75 319.25,-312.75 563.25,-312.75 563.25,-290.75 319.25,-290.75"/>
<polygon fill="none" stroke="black" points="319.25,-290.75 319.25,-312.75 563.25,-312.75 563.25,-290.75 319.25,-290.75"/>
<image xlink:href="../../images/foreignKeys.png" width="11px" height="12px" preserveAspectRatio="xMinYMin meet" x="324.25" y="-307.748"/>
<text text-anchor="start" x="339.25" y="-297.3" font-family="Helvetica,sans-Serif" font-size="11.00">active_configuration_export_ftp</text>
<polygon fill="#ffffff" stroke="none" points="319.25,-268.75 319.25,-290.75 563.25,-290.75 563.25,-268.75 319.25,-268.75"/>
<polygon fill="none" stroke="black" points="319.25,-268.75 319.25,-290.75 563.25,-290.75 563.25,-268.75 319.25,-268.75"/>
<image xlink:href="../../images/foreignKeys.png" width="11px" height="12px" preserveAspectRatio="xMinYMin meet" x="324.25" y="-285.748"/>
<text text-anchor="start" x="339.25" y="-275.3" font-family="Helvetica,sans-Serif" font-size="11.00">active_ocr_lang</text>
<polygon fill="#ffffff" stroke="none" points="319.25,-246.75 319.25,-268.75 563.25,-268.75 563.25,-246.75 319.25,-246.75"/>
<polygon fill="none" stroke="black" points="319.25,-246.75 319.25,-268.75 563.25,-268.75 563.25,-246.75 319.25,-246.75"/>
<image xlink:href="../../images/foreignKeys.png" width="11px" height="12px" preserveAspectRatio="xMinYMin meet" x="324.25" y="-263.748"/>
<text text-anchor="start" x="339.25" y="-253.3" font-family="Helvetica,sans-Serif" font-size="11.00">collection_ia</text>
<polygon fill="#ffffff" stroke="none" points="319.25,-224.75 319.25,-246.75 563.25,-246.75 563.25,-224.75 319.25,-224.75"/>
<polygon fill="none" stroke="black" points="319.25,-224.75 319.25,-246.75 563.25,-246.75 563.25,-224.75 319.25,-224.75"/>
<image xlink:href="../../images/foreignKeys.png" width="11px" height="12px" preserveAspectRatio="xMinYMin meet" x="324.25" y="-241.748"/>
<text text-anchor="start" x="339.25" y="-231.3" font-family="Helvetica,sans-Serif" font-size="11.00">classement_pac</text>
<polygon fill="#ffffff" stroke="none" points="319.25,-202.75 319.25,-224.75 563.25,-224.75 563.25,-202.75 319.25,-202.75"/>
<polygon fill="none" stroke="black" points="319.25,-202.75 319.25,-224.75 563.25,-224.75 563.25,-202.75 319.25,-202.75"/>
<image xlink:href="../../images/foreignKeys.png" width="11px" height="12px" preserveAspectRatio="xMinYMin meet" x="324.25" y="-219.748"/>
<text text-anchor="start" x="339.25" y="-209.3" font-family="Helvetica,sans-Serif" font-size="11.00">workflow_model</text>
<polygon fill="#ffffff" stroke="none" points="319.25,-180.75 319.25,-202.75 563.25,-202.75 563.25,-180.75 319.25,-180.75"/>
<polygon fill="none" stroke="black" points="319.25,-180.75 319.25,-202.75 563.25,-202.75 563.25,-180.75 319.25,-180.75"/>
<image xlink:href="../../images/foreignKeys.png" width="11px" height="12px" preserveAspectRatio="xMinYMin meet" x="324.25" y="-197.748"/>
<text text-anchor="start" x="339.25" y="-187.3" font-family="Helvetica,sans-Serif" font-size="11.00">active_format_configuration</text>
<polygon fill="#ffffff" stroke="none" points="319.25,-158.75 319.25,-180.75 563.25,-180.75 563.25,-158.75 319.25,-158.75"/>
<polygon fill="none" stroke="black" points="319.25,-158.75 319.25,-180.75 563.25,-180.75 563.25,-158.75 319.25,-158.75"/>
<image xlink:href="../../images/foreignKeys.png" width="11px" height="12px" preserveAspectRatio="xMinYMin meet" x="324.25" y="-175.748"/>
<text text-anchor="start" x="339.25" y="-165.3" font-family="Helvetica,sans-Serif" font-size="11.00">omeka_configuration</text>
<polygon fill="#ffffff" stroke="none" points="319.25,-136.75 319.25,-158.75 563.25,-158.75 563.25,-136.75 319.25,-136.75"/>
<polygon fill="none" stroke="black" points="319.25,-136.75 319.25,-158.75 563.25,-158.75 563.25,-136.75 319.25,-136.75"/>
<image xlink:href="../../images/foreignKeys.png" width="11px" height="12px" preserveAspectRatio="xMinYMin meet" x="324.25" y="-153.748"/>
<text text-anchor="start" x="339.25" y="-143.3" font-family="Helvetica,sans-Serif" font-size="11.00">active_export_ftp_delivery_folder</text>
<polygon fill="none" stroke="black" points="319.25,-117.25 319.25,-136.75 563.25,-136.75 563.25,-117.25 319.25,-117.25"/>
<text text-anchor="start" x="322.25" y="-123.3" font-family="Helvetica,sans-Serif" font-size="11.00">...</text>
<polygon fill="#ffffff" stroke="none" points="319.25,-97.75 319.25,-117.25 409.08,-117.25 409.08,-97.75 319.25,-97.75"/>
<polygon fill="none" stroke="black" points="319.25,-97.75 319.25,-117.25 409.08,-117.25 409.08,-97.75 319.25,-97.75"/>
<text text-anchor="start" x="322.25" y="-103.8" font-family="Helvetica,sans-Serif" font-size="11.00">&lt; 14</text>
<polygon fill="#ffffff" stroke="none" points="409.08,-97.75 409.08,-117.25 480.17,-117.25 480.17,-97.75 409.08,-97.75"/>
<polygon fill="none" stroke="black" points="409.08,-97.75 409.08,-117.25 480.17,-117.25 480.17,-97.75 409.08,-97.75"/>
<text text-anchor="start" x="469.67" y="-103.8" font-family="Helvetica,sans-Serif" font-size="11.00"> &#160;</text>
<polygon fill="#ffffff" stroke="none" points="480.17,-97.75 480.17,-117.25 563.25,-117.25 563.25,-97.75 480.17,-97.75"/>
<polygon fill="none" stroke="black" points="480.17,-97.75 480.17,-117.25 563.25,-117.25 563.25,-97.75 480.17,-97.75"/>
<text text-anchor="start" x="540.75" y="-103.8" font-family="Helvetica,sans-Serif" font-size="11.00">4 &gt;</text>
</a>
</g>
</g>
<!-- doc_unit&#45;&gt;lot_lot -->
<g id="edge3" class="edge">
<title>doc_unit:w&#45;&gt;lot_lot:e</title>
<path fill="none" stroke="black" d="M595.97,-323.05C553.82,-345.74 631.22,-477.75 564.25,-477.75"/>
<polygon fill="black" stroke="black" points="603.1,-321.51 611.68,-323.34 607.34,-320.59 610.6,-319.89 610.6,-319.89 610.6,-319.89 607.34,-320.59 610.16,-316.3 603.1,-321.51"/>
<ellipse fill="none" stroke="black" cx="598.3" cy="-322.55" rx="3.2" ry="3.2"/>
</g>
<!-- lot_lot&#45;&gt;conf_language_ocr -->
<g id="edge4" class="edge">
<title>lot_lot:w&#45;&gt;conf_language_ocr:e</title>
<path fill="none" stroke="black" d="M302.67,-279.78C287.41,-279.85 278.71,-280 258,-280"/>
<polygon fill="black" stroke="black" points="309.92,-279.77 317.92,-283.35 314.25,-279.76 317.58,-279.75 317.58,-279.75 317.58,-279.75 314.25,-279.76 317.91,-276.15 309.92,-279.77"/>
<ellipse fill="none" stroke="black" cx="305" cy="-279.78" rx="3.2" ry="3.2"/>
</g>
</g>
</svg>
