<?xml version="1.0" encoding="UTF-8" standalone="no"?>
<!DOCTYPE svg PUBLIC "-//W3C//DTD SVG 1.1//EN"
 "http://www.w3.org/Graphics/SVG/1.1/DTD/svg11.dtd">
<!-- Generated by graphviz version 12.2.0 (0)
 -->
<!-- Title: oneDegreeRelationshipsDiagram Pages: 1 -->
<svg width="1197pt" height="595pt"
 viewBox="0.00 0.00 1196.70 594.61" xmlns="http://www.w3.org/2000/svg" xmlns:xlink="http://www.w3.org/1999/xlink">
<g id="graph0" class="graph" transform="scale(1 1) rotate(0) translate(4 590.61)">
<title>oneDegreeRelationshipsDiagram</title>
<polygon fill="#ffffff" stroke="none" points="-4,4 -4,-590.61 1192.7,-590.61 1192.7,4 -4,4"/>
<text text-anchor="middle" x="79.25" y="-7.05" font-family="Helvetica,sans-Serif" font-size="11.00">Generated by SchemaSpy</text>
<!-- conf_configuration_ftp -->
<g id="node1" class="node">
<title>conf_configuration_ftp</title>
<g id="a_node1"><a xlink:href="../../tables/conf_configuration_ftp.html" xlink:title="conf_configuration_ftp" target="_top">
<polygon fill="#ffffff" stroke="none" points="295.45,-185.25 295.45,-496.25 594.7,-496.25 594.7,-185.25 295.45,-185.25"/>
<polygon fill="#f5f5f5" stroke="none" points="297.45,-470.75 297.45,-494.25 592.7,-494.25 592.7,-470.75 297.45,-470.75"/>
<polygon fill="none" stroke="black" points="297.45,-470.75 297.45,-494.25 592.7,-494.25 592.7,-470.75 297.45,-470.75"/>
<text text-anchor="start" x="302.45" y="-479.8" font-family="Helvetica,sans-Serif" font-weight="bold" font-size="11.00">conf_configuration_ftp</text>
<text text-anchor="start" x="550.95" y="-478.8" font-family="Helvetica,sans-Serif" font-size="11.00">[table]</text>
<polygon fill="none" stroke="black" points="297.45,-448.75 297.45,-470.75 469.45,-470.75 469.45,-448.75 297.45,-448.75"/>
<image xlink:href="../../images/primaryKeys.png" width="11px" height="12px" preserveAspectRatio="xMinYMin meet" x="302.454" y="-465.75"/>
<text text-anchor="start" x="317.45" y="-455.3" font-family="Helvetica,sans-Serif" font-size="11.00">identifier</text>
<polygon fill="none" stroke="black" points="469.45,-448.75 469.45,-470.75 574.95,-470.75 574.95,-448.75 469.45,-448.75"/>
<text text-anchor="start" x="472.45" y="-456.05" font-family="Helvetica,sans-Serif" font-size="11.00">varchar[191]</text>
<polygon fill="none" stroke="black" points="297.45,-426.75 297.45,-448.75 469.45,-448.75 469.45,-426.75 297.45,-426.75"/>
<text text-anchor="start" x="317.45" y="-433.3" font-family="Helvetica,sans-Serif" font-size="11.00">label</text>
<polygon fill="none" stroke="black" points="469.45,-426.75 469.45,-448.75 574.95,-448.75 574.95,-426.75 469.45,-426.75"/>
<text text-anchor="start" x="472.45" y="-434.05" font-family="Helvetica,sans-Serif" font-size="11.00">varchar[191]</text>
<polygon fill="none" stroke="black" points="297.45,-404.75 297.45,-426.75 469.45,-426.75 469.45,-404.75 297.45,-404.75"/>
<text text-anchor="start" x="317.45" y="-411.3" font-family="Helvetica,sans-Serif" font-size="11.00">address</text>
<polygon fill="none" stroke="black" points="469.45,-404.75 469.45,-426.75 574.95,-426.75 574.95,-404.75 469.45,-404.75"/>
<text text-anchor="start" x="472.45" y="-412.05" font-family="Helvetica,sans-Serif" font-size="11.00">varchar[255]</text>
<polygon fill="none" stroke="black" points="297.45,-382.75 297.45,-404.75 469.45,-404.75 469.45,-382.75 297.45,-382.75"/>
<text text-anchor="start" x="317.45" y="-389.3" font-family="Helvetica,sans-Serif" font-size="11.00">login</text>
<polygon fill="none" stroke="black" points="469.45,-382.75 469.45,-404.75 574.95,-404.75 574.95,-382.75 469.45,-382.75"/>
<text text-anchor="start" x="472.45" y="-390.05" font-family="Helvetica,sans-Serif" font-size="11.00">varchar[255]</text>
<polygon fill="none" stroke="black" points="297.45,-360.75 297.45,-382.75 469.45,-382.75 469.45,-360.75 297.45,-360.75"/>
<text text-anchor="start" x="317.45" y="-367.3" font-family="Helvetica,sans-Serif" font-size="11.00">password</text>
<polygon fill="none" stroke="black" points="469.45,-360.75 469.45,-382.75 574.95,-382.75 574.95,-360.75 469.45,-360.75"/>
<text text-anchor="start" x="472.45" y="-368.05" font-family="Helvetica,sans-Serif" font-size="11.00">varchar[255]</text>
<polygon fill="none" stroke="black" points="297.45,-338.75 297.45,-360.75 469.45,-360.75 469.45,-338.75 297.45,-338.75"/>
<text text-anchor="start" x="317.45" y="-345.3" font-family="Helvetica,sans-Serif" font-size="11.00">version</text>
<polygon fill="none" stroke="black" points="469.45,-338.75 469.45,-360.75 574.95,-360.75 574.95,-338.75 469.45,-338.75"/>
<text text-anchor="start" x="472.45" y="-346.05" font-family="Helvetica,sans-Serif" font-size="11.00">bigint[19]</text>
<polygon fill="none" stroke="black" points="297.45,-316.75 297.45,-338.75 469.45,-338.75 469.45,-316.75 297.45,-316.75"/>
<text text-anchor="start" x="317.45" y="-323.3" font-family="Helvetica,sans-Serif" font-size="11.00">created_by</text>
<polygon fill="none" stroke="black" points="469.45,-316.75 469.45,-338.75 574.95,-338.75 574.95,-316.75 469.45,-316.75"/>
<text text-anchor="start" x="472.45" y="-324.05" font-family="Helvetica,sans-Serif" font-size="11.00">varchar[191]</text>
<polygon fill="none" stroke="black" points="297.45,-294.75 297.45,-316.75 469.45,-316.75 469.45,-294.75 297.45,-294.75"/>
<text text-anchor="start" x="317.45" y="-301.3" font-family="Helvetica,sans-Serif" font-size="11.00">last_modified_by</text>
<polygon fill="none" stroke="black" points="469.45,-294.75 469.45,-316.75 574.95,-316.75 574.95,-294.75 469.45,-294.75"/>
<text text-anchor="start" x="472.45" y="-302.05" font-family="Helvetica,sans-Serif" font-size="11.00">varchar[191]</text>
<polygon fill="none" stroke="black" points="297.45,-272.75 297.45,-294.75 469.45,-294.75 469.45,-272.75 297.45,-272.75"/>
<text text-anchor="start" x="317.45" y="-279.3" font-family="Helvetica,sans-Serif" font-size="11.00">created_date</text>
<polygon fill="none" stroke="black" points="469.45,-272.75 469.45,-294.75 574.95,-294.75 574.95,-272.75 469.45,-272.75"/>
<text text-anchor="start" x="472.45" y="-280.05" font-family="Helvetica,sans-Serif" font-size="11.00">timestamp[19]</text>
<polygon fill="none" stroke="black" points="297.45,-250.75 297.45,-272.75 469.45,-272.75 469.45,-250.75 297.45,-250.75"/>
<text text-anchor="start" x="317.45" y="-257.3" font-family="Helvetica,sans-Serif" font-size="11.00">last_modified_date</text>
<polygon fill="none" stroke="black" points="469.45,-250.75 469.45,-272.75 574.95,-272.75 574.95,-250.75 469.45,-250.75"/>
<text text-anchor="start" x="472.45" y="-258.05" font-family="Helvetica,sans-Serif" font-size="11.00">timestamp[19]</text>
<polygon fill="#ffffff" stroke="none" points="297.45,-228.75 297.45,-250.75 469.45,-250.75 469.45,-228.75 297.45,-228.75"/>
<polygon fill="none" stroke="black" points="297.45,-228.75 297.45,-250.75 469.45,-250.75 469.45,-228.75 297.45,-228.75"/>
<image xlink:href="../../images/foreignKeys.png" width="11px" height="12px" preserveAspectRatio="xMinYMin meet" x="302.454" y="-245.75"/>
<text text-anchor="start" x="317.45" y="-235.3" font-family="Helvetica,sans-Serif" font-size="11.00">library</text>
<polygon fill="none" stroke="black" points="469.45,-228.75 469.45,-250.75 574.95,-250.75 574.95,-228.75 469.45,-228.75"/>
<text text-anchor="start" x="472.45" y="-236.05" font-family="Helvetica,sans-Serif" font-size="11.00">varchar[191]</text>
<polygon fill="none" stroke="black" points="297.45,-206.75 297.45,-228.75 469.45,-228.75 469.45,-206.75 297.45,-206.75"/>
<text text-anchor="start" x="317.45" y="-213.3" font-family="Helvetica,sans-Serif" font-size="11.00">delivery_folder</text>
<polygon fill="none" stroke="black" points="469.45,-206.75 469.45,-228.75 574.95,-228.75 574.95,-206.75 469.45,-206.75"/>
<text text-anchor="start" x="472.45" y="-214.05" font-family="Helvetica,sans-Serif" font-size="11.00">varchar[255]</text>
<polygon fill="#ffffff" stroke="none" points="297.45,-187.25 297.45,-206.75 389.45,-206.75 389.45,-187.25 297.45,-187.25"/>
<polygon fill="none" stroke="black" points="297.45,-187.25 297.45,-206.75 389.45,-206.75 389.45,-187.25 297.45,-187.25"/>
<text text-anchor="start" x="300.45" y="-193.3" font-family="Helvetica,sans-Serif" font-size="11.00">&lt; 1</text>
<polygon fill="#ffffff" stroke="none" points="389.45,-187.25 389.45,-206.75 469.45,-206.75 469.45,-187.25 389.45,-187.25"/>
<polygon fill="none" stroke="black" points="389.45,-187.25 389.45,-206.75 469.45,-206.75 469.45,-187.25 389.45,-187.25"/>
<text text-anchor="start" x="458.95" y="-193.3" font-family="Helvetica,sans-Serif" font-size="11.00"> &#160;</text>
<polygon fill="#ffffff" stroke="none" points="469.45,-187.25 469.45,-206.75 574.95,-206.75 574.95,-187.25 469.45,-187.25"/>
<polygon fill="none" stroke="black" points="469.45,-187.25 469.45,-206.75 574.95,-206.75 574.95,-187.25 469.45,-187.25"/>
<text text-anchor="start" x="552.45" y="-193.3" font-family="Helvetica,sans-Serif" font-size="11.00">3 &gt;</text>
<polygon fill="none" stroke="black" stroke-width="2" points="296.45,-186.25 296.45,-495.25 593.7,-495.25 593.7,-186.25 296.45,-186.25"/>
</a>
</g>
</g>
<!-- lib_library -->
<g id="node2" class="node">
<title>lib_library</title>
<g id="a_node2"><a xlink:href="../../tables/lib_library.html" xlink:title="lib_library" target="_top">
<polygon fill="#ffffff" stroke="none" points="12.45,-321.5 12.45,-538 246.45,-538 246.45,-321.5 12.45,-321.5"/>
<polygon fill="#f5f5f5" stroke="none" points="12.45,-514.5 12.45,-538 246.45,-538 246.45,-514.5 12.45,-514.5"/>
<polygon fill="none" stroke="black" points="12.45,-514.5 12.45,-538 246.45,-538 246.45,-514.5 12.45,-514.5"/>
<text text-anchor="start" x="17.45" y="-523.55" font-family="Helvetica,sans-Serif" font-weight="bold" font-size="11.00">lib_library</text>
<text text-anchor="start" x="204.7" y="-522.55" font-family="Helvetica,sans-Serif" font-size="11.00">[table]</text>
<polygon fill="none" stroke="black" points="12.45,-492.5 12.45,-514.5 246.45,-514.5 246.45,-492.5 12.45,-492.5"/>
<image xlink:href="../../images/primaryKeys.png" width="11px" height="12px" preserveAspectRatio="xMinYMin meet" x="17.4543" y="-509.5"/>
<text text-anchor="start" x="32.45" y="-499.05" font-family="Helvetica,sans-Serif" font-size="11.00">identifier</text>
<polygon fill="#ffffff" stroke="none" points="12.45,-470.5 12.45,-492.5 246.45,-492.5 246.45,-470.5 12.45,-470.5"/>
<polygon fill="none" stroke="black" points="12.45,-470.5 12.45,-492.5 246.45,-492.5 246.45,-470.5 12.45,-470.5"/>
<image xlink:href="../../images/foreignKeys.png" width="11px" height="12px" preserveAspectRatio="xMinYMin meet" x="17.4543" y="-487.5"/>
<text text-anchor="start" x="32.45" y="-477.05" font-family="Helvetica,sans-Serif" font-size="11.00">address</text>
<polygon fill="#ffffff" stroke="none" points="12.45,-448.5 12.45,-470.5 246.45,-470.5 246.45,-448.5 12.45,-448.5"/>
<polygon fill="none" stroke="black" points="12.45,-448.5 12.45,-470.5 246.45,-470.5 246.45,-448.5 12.45,-448.5"/>
<image xlink:href="../../images/foreignKeys.png" width="11px" height="12px" preserveAspectRatio="xMinYMin meet" x="17.4543" y="-465.5"/>
<text text-anchor="start" x="32.45" y="-455.05" font-family="Helvetica,sans-Serif" font-size="11.00">active_configuration_ftp</text>
<polygon fill="#ffffff" stroke="none" points="12.45,-426.5 12.45,-448.5 246.45,-448.5 246.45,-426.5 12.45,-426.5"/>
<polygon fill="none" stroke="black" points="12.45,-426.5 12.45,-448.5 246.45,-448.5 246.45,-426.5 12.45,-426.5"/>
<image xlink:href="../../images/foreignKeys.png" width="11px" height="12px" preserveAspectRatio="xMinYMin meet" x="17.4543" y="-443.5"/>
<text text-anchor="start" x="32.45" y="-433.05" font-family="Helvetica,sans-Serif" font-size="11.00">active_configuration_check</text>
<polygon fill="#ffffff" stroke="none" points="12.45,-404.5 12.45,-426.5 246.45,-426.5 246.45,-404.5 12.45,-404.5"/>
<polygon fill="none" stroke="black" points="12.45,-404.5 12.45,-426.5 246.45,-426.5 246.45,-404.5 12.45,-404.5"/>
<image xlink:href="../../images/foreignKeys.png" width="11px" height="12px" preserveAspectRatio="xMinYMin meet" x="17.4543" y="-421.5"/>
<text text-anchor="start" x="32.45" y="-411.05" font-family="Helvetica,sans-Serif" font-size="11.00">role</text>
<polygon fill="#ffffff" stroke="none" points="12.45,-382.5 12.45,-404.5 246.45,-404.5 246.45,-382.5 12.45,-382.5"/>
<polygon fill="none" stroke="black" points="12.45,-382.5 12.45,-404.5 246.45,-404.5 246.45,-382.5 12.45,-382.5"/>
<image xlink:href="../../images/foreignKeys.png" width="11px" height="12px" preserveAspectRatio="xMinYMin meet" x="17.4543" y="-399.5"/>
<text text-anchor="start" x="32.45" y="-389.05" font-family="Helvetica,sans-Serif" font-size="11.00">active_configuration_export_ftp</text>
<polygon fill="#ffffff" stroke="none" points="12.45,-360.5 12.45,-382.5 246.45,-382.5 246.45,-360.5 12.45,-360.5"/>
<polygon fill="none" stroke="black" points="12.45,-360.5 12.45,-382.5 246.45,-382.5 246.45,-360.5 12.45,-360.5"/>
<image xlink:href="../../images/foreignKeys.png" width="11px" height="12px" preserveAspectRatio="xMinYMin meet" x="17.4543" y="-377.5"/>
<text text-anchor="start" x="32.45" y="-367.05" font-family="Helvetica,sans-Serif" font-size="11.00">active_configuration_ocr_lang</text>
<polygon fill="none" stroke="black" points="12.45,-341 12.45,-360.5 246.45,-360.5 246.45,-341 12.45,-341"/>
<text text-anchor="start" x="15.45" y="-347.05" font-family="Helvetica,sans-Serif" font-size="11.00">...</text>
<polygon fill="#ffffff" stroke="none" points="12.45,-321.5 12.45,-341 92.2,-341 92.2,-321.5 12.45,-321.5"/>
<polygon fill="none" stroke="black" points="12.45,-321.5 12.45,-341 92.2,-341 92.2,-321.5 12.45,-321.5"/>
<text text-anchor="start" x="15.45" y="-327.55" font-family="Helvetica,sans-Serif" font-size="11.00">&lt; 6</text>
<polygon fill="#ffffff" stroke="none" points="92.2,-321.5 92.2,-341 159.95,-341 159.95,-321.5 92.2,-321.5"/>
<polygon fill="none" stroke="black" points="92.2,-321.5 92.2,-341 159.95,-341 159.95,-321.5 92.2,-321.5"/>
<text text-anchor="start" x="149.45" y="-327.55" font-family="Helvetica,sans-Serif" font-size="11.00"> &#160;</text>
<polygon fill="#ffffff" stroke="none" points="159.95,-321.5 159.95,-341 246.45,-341 246.45,-321.5 159.95,-321.5"/>
<polygon fill="none" stroke="black" points="159.95,-321.5 159.95,-341 246.45,-341 246.45,-321.5 159.95,-321.5"/>
<text text-anchor="start" x="217.2" y="-327.55" font-family="Helvetica,sans-Serif" font-size="11.00">27 &gt;</text>
</a>
</g>
</g>
<!-- conf_configuration_ftp&#45;&gt;lib_library -->
<g id="edge1" class="edge">
<title>conf_configuration_ftp:w&#45;&gt;lib_library:e</title>
<path fill="none" stroke="black" d="M280.86,-241.65C195.33,-265.37 360.74,-503.5 247.45,-503.5"/>
<polygon fill="black" stroke="black" points="288.18,-240.76 296.56,-243.36 292.48,-240.23 295.79,-239.83 295.79,-239.83 295.79,-239.83 292.48,-240.23 295.69,-236.22 288.18,-240.76"/>
<ellipse fill="none" stroke="black" cx="283.3" cy="-241.35" rx="3.2" ry="3.2"/>
</g>
<!-- lib_library&#45;&gt;conf_configuration_ftp -->
<g id="edge2" class="edge">
<title>lib_library:w&#45;&gt;conf_configuration_ftp:e</title>
<path fill="none" stroke="black" d="M1.72,-471.87C-3.06,-492.48 2.88,-532.54 12.45,-542 88.97,-617.59 154.53,-581.8 254.45,-542 273.22,-534.52 269.42,-519.85 287.45,-510.75 301.89,-503.47 590.12,-459.75 573.95,-459.75"/>
<polygon fill="black" stroke="black" points="6.3,-466.05 14.08,-461.99 8.98,-462.64 11.04,-460.03 11.04,-460.03 11.04,-460.03 8.98,-462.64 8.42,-457.54 6.3,-466.05"/>
<ellipse fill="none" stroke="black" cx="3.26" cy="-469.91" rx="3.2" ry="3.2"/>
</g>
<!-- lot_lot -->
<g id="node3" class="node">
<title>lot_lot</title>
<g id="a_node3"><a xlink:href="../../tables/lot_lot.html" xlink:title="lot_lot" target="_top">
<polygon fill="#ffffff" stroke="none" points="936.7,-38.5 936.7,-453 1180.7,-453 1180.7,-38.5 936.7,-38.5"/>
<polygon fill="#f5f5f5" stroke="none" points="936.7,-429.5 936.7,-453 1180.7,-453 1180.7,-429.5 936.7,-429.5"/>
<polygon fill="none" stroke="black" points="936.7,-429.5 936.7,-453 1180.7,-453 1180.7,-429.5 936.7,-429.5"/>
<text text-anchor="start" x="941.58" y="-438.55" font-family="Helvetica,sans-Serif" font-weight="bold" font-size="11.00">lot_lot</text>
<text text-anchor="start" x="1138.95" y="-437.55" font-family="Helvetica,sans-Serif" font-size="11.00">[table]</text>
<polygon fill="none" stroke="black" points="936.7,-407.5 936.7,-429.5 1180.7,-429.5 1180.7,-407.5 936.7,-407.5"/>
<image xlink:href="../../images/primaryKeys.png" width="11px" height="12px" preserveAspectRatio="xMinYMin meet" x="941.704" y="-424.5"/>
<text text-anchor="start" x="956.7" y="-414.05" font-family="Helvetica,sans-Serif" font-size="11.00">identifier</text>
<polygon fill="#ffffff" stroke="none" points="936.7,-385.5 936.7,-407.5 1180.7,-407.5 1180.7,-385.5 936.7,-385.5"/>
<polygon fill="none" stroke="black" points="936.7,-385.5 936.7,-407.5 1180.7,-407.5 1180.7,-385.5 936.7,-385.5"/>
<text text-anchor="start" x="956.7" y="-392.05" font-family="Helvetica,sans-Serif" font-size="11.00">code</text>
<polygon fill="#ffffff" stroke="none" points="936.7,-363.5 936.7,-385.5 1180.7,-385.5 1180.7,-363.5 936.7,-363.5"/>
<polygon fill="none" stroke="black" points="936.7,-363.5 936.7,-385.5 1180.7,-385.5 1180.7,-363.5 936.7,-363.5"/>
<image xlink:href="../../images/foreignKeys.png" width="11px" height="12px" preserveAspectRatio="xMinYMin meet" x="941.704" y="-380.5"/>
<text text-anchor="start" x="956.7" y="-370.05" font-family="Helvetica,sans-Serif" font-size="11.00">project</text>
<polygon fill="#ffffff" stroke="none" points="936.7,-341.5 936.7,-363.5 1180.7,-363.5 1180.7,-341.5 936.7,-341.5"/>
<polygon fill="none" stroke="black" points="936.7,-341.5 936.7,-363.5 1180.7,-363.5 1180.7,-341.5 936.7,-341.5"/>
<image xlink:href="../../images/foreignKeys.png" width="11px" height="12px" preserveAspectRatio="xMinYMin meet" x="941.704" y="-358.5"/>
<text text-anchor="start" x="956.7" y="-348.05" font-family="Helvetica,sans-Serif" font-size="11.00">active_configuration_ftp</text>
<polygon fill="#ffffff" stroke="none" points="936.7,-319.5 936.7,-341.5 1180.7,-341.5 1180.7,-319.5 936.7,-319.5"/>
<polygon fill="none" stroke="black" points="936.7,-319.5 936.7,-341.5 1180.7,-341.5 1180.7,-319.5 936.7,-319.5"/>
<image xlink:href="../../images/foreignKeys.png" width="11px" height="12px" preserveAspectRatio="xMinYMin meet" x="941.704" y="-336.5"/>
<text text-anchor="start" x="956.7" y="-326.05" font-family="Helvetica,sans-Serif" font-size="11.00">active_configuration_check</text>
<polygon fill="#ffffff" stroke="none" points="936.7,-297.5 936.7,-319.5 1180.7,-319.5 1180.7,-297.5 936.7,-297.5"/>
<polygon fill="none" stroke="black" points="936.7,-297.5 936.7,-319.5 1180.7,-319.5 1180.7,-297.5 936.7,-297.5"/>
<image xlink:href="../../images/foreignKeys.png" width="11px" height="12px" preserveAspectRatio="xMinYMin meet" x="941.704" y="-314.5"/>
<text text-anchor="start" x="956.7" y="-304.05" font-family="Helvetica,sans-Serif" font-size="11.00">provider</text>
<polygon fill="#ffffff" stroke="none" points="936.7,-275.5 936.7,-297.5 1180.7,-297.5 1180.7,-275.5 936.7,-275.5"/>
<polygon fill="none" stroke="black" points="936.7,-275.5 936.7,-297.5 1180.7,-297.5 1180.7,-275.5 936.7,-275.5"/>
<image xlink:href="../../images/foreignKeys.png" width="11px" height="12px" preserveAspectRatio="xMinYMin meet" x="941.704" y="-292.5"/>
<text text-anchor="start" x="956.7" y="-282.05" font-family="Helvetica,sans-Serif" font-size="11.00">collection_omeka</text>
<polygon fill="#ffffff" stroke="none" points="936.7,-253.5 936.7,-275.5 1180.7,-275.5 1180.7,-253.5 936.7,-253.5"/>
<polygon fill="none" stroke="black" points="936.7,-253.5 936.7,-275.5 1180.7,-275.5 1180.7,-253.5 936.7,-253.5"/>
<image xlink:href="../../images/foreignKeys.png" width="11px" height="12px" preserveAspectRatio="xMinYMin meet" x="941.704" y="-270.5"/>
<text text-anchor="start" x="956.7" y="-260.05" font-family="Helvetica,sans-Serif" font-size="11.00">items_omeka</text>
<polygon fill="#ffffff" stroke="none" points="936.7,-231.5 936.7,-253.5 1180.7,-253.5 1180.7,-231.5 936.7,-231.5"/>
<polygon fill="none" stroke="black" points="936.7,-231.5 936.7,-253.5 1180.7,-253.5 1180.7,-231.5 936.7,-231.5"/>
<image xlink:href="../../images/foreignKeys.png" width="11px" height="12px" preserveAspectRatio="xMinYMin meet" x="941.704" y="-248.5"/>
<text text-anchor="start" x="956.7" y="-238.05" font-family="Helvetica,sans-Serif" font-size="11.00">active_configuration_export_ftp</text>
<polygon fill="#ffffff" stroke="none" points="936.7,-209.5 936.7,-231.5 1180.7,-231.5 1180.7,-209.5 936.7,-209.5"/>
<polygon fill="none" stroke="black" points="936.7,-209.5 936.7,-231.5 1180.7,-231.5 1180.7,-209.5 936.7,-209.5"/>
<image xlink:href="../../images/foreignKeys.png" width="11px" height="12px" preserveAspectRatio="xMinYMin meet" x="941.704" y="-226.5"/>
<text text-anchor="start" x="956.7" y="-216.05" font-family="Helvetica,sans-Serif" font-size="11.00">active_ocr_lang</text>
<polygon fill="#ffffff" stroke="none" points="936.7,-187.5 936.7,-209.5 1180.7,-209.5 1180.7,-187.5 936.7,-187.5"/>
<polygon fill="none" stroke="black" points="936.7,-187.5 936.7,-209.5 1180.7,-209.5 1180.7,-187.5 936.7,-187.5"/>
<image xlink:href="../../images/foreignKeys.png" width="11px" height="12px" preserveAspectRatio="xMinYMin meet" x="941.704" y="-204.5"/>
<text text-anchor="start" x="956.7" y="-194.05" font-family="Helvetica,sans-Serif" font-size="11.00">collection_ia</text>
<polygon fill="#ffffff" stroke="none" points="936.7,-165.5 936.7,-187.5 1180.7,-187.5 1180.7,-165.5 936.7,-165.5"/>
<polygon fill="none" stroke="black" points="936.7,-165.5 936.7,-187.5 1180.7,-187.5 1180.7,-165.5 936.7,-165.5"/>
<image xlink:href="../../images/foreignKeys.png" width="11px" height="12px" preserveAspectRatio="xMinYMin meet" x="941.704" y="-182.5"/>
<text text-anchor="start" x="956.7" y="-172.05" font-family="Helvetica,sans-Serif" font-size="11.00">classement_pac</text>
<polygon fill="#ffffff" stroke="none" points="936.7,-143.5 936.7,-165.5 1180.7,-165.5 1180.7,-143.5 936.7,-143.5"/>
<polygon fill="none" stroke="black" points="936.7,-143.5 936.7,-165.5 1180.7,-165.5 1180.7,-143.5 936.7,-143.5"/>
<image xlink:href="../../images/foreignKeys.png" width="11px" height="12px" preserveAspectRatio="xMinYMin meet" x="941.704" y="-160.5"/>
<text text-anchor="start" x="956.7" y="-150.05" font-family="Helvetica,sans-Serif" font-size="11.00">workflow_model</text>
<polygon fill="#ffffff" stroke="none" points="936.7,-121.5 936.7,-143.5 1180.7,-143.5 1180.7,-121.5 936.7,-121.5"/>
<polygon fill="none" stroke="black" points="936.7,-121.5 936.7,-143.5 1180.7,-143.5 1180.7,-121.5 936.7,-121.5"/>
<image xlink:href="../../images/foreignKeys.png" width="11px" height="12px" preserveAspectRatio="xMinYMin meet" x="941.704" y="-138.5"/>
<text text-anchor="start" x="956.7" y="-128.05" font-family="Helvetica,sans-Serif" font-size="11.00">active_format_configuration</text>
<polygon fill="#ffffff" stroke="none" points="936.7,-99.5 936.7,-121.5 1180.7,-121.5 1180.7,-99.5 936.7,-99.5"/>
<polygon fill="none" stroke="black" points="936.7,-99.5 936.7,-121.5 1180.7,-121.5 1180.7,-99.5 936.7,-99.5"/>
<image xlink:href="../../images/foreignKeys.png" width="11px" height="12px" preserveAspectRatio="xMinYMin meet" x="941.704" y="-116.5"/>
<text text-anchor="start" x="956.7" y="-106.05" font-family="Helvetica,sans-Serif" font-size="11.00">omeka_configuration</text>
<polygon fill="#ffffff" stroke="none" points="936.7,-77.5 936.7,-99.5 1180.7,-99.5 1180.7,-77.5 936.7,-77.5"/>
<polygon fill="none" stroke="black" points="936.7,-77.5 936.7,-99.5 1180.7,-99.5 1180.7,-77.5 936.7,-77.5"/>
<image xlink:href="../../images/foreignKeys.png" width="11px" height="12px" preserveAspectRatio="xMinYMin meet" x="941.704" y="-94.5"/>
<text text-anchor="start" x="956.7" y="-84.05" font-family="Helvetica,sans-Serif" font-size="11.00">active_export_ftp_delivery_folder</text>
<polygon fill="none" stroke="black" points="936.7,-58 936.7,-77.5 1180.7,-77.5 1180.7,-58 936.7,-58"/>
<text text-anchor="start" x="939.7" y="-64.05" font-family="Helvetica,sans-Serif" font-size="11.00">...</text>
<polygon fill="#ffffff" stroke="none" points="936.7,-38.5 936.7,-58 1026.54,-58 1026.54,-38.5 936.7,-38.5"/>
<polygon fill="none" stroke="black" points="936.7,-38.5 936.7,-58 1026.54,-58 1026.54,-38.5 936.7,-38.5"/>
<text text-anchor="start" x="939.7" y="-44.55" font-family="Helvetica,sans-Serif" font-size="11.00">&lt; 14</text>
<polygon fill="#ffffff" stroke="none" points="1026.54,-38.5 1026.54,-58 1097.62,-58 1097.62,-38.5 1026.54,-38.5"/>
<polygon fill="none" stroke="black" points="1026.54,-38.5 1026.54,-58 1097.62,-58 1097.62,-38.5 1026.54,-38.5"/>
<text text-anchor="start" x="1087.12" y="-44.55" font-family="Helvetica,sans-Serif" font-size="11.00"> &#160;</text>
<polygon fill="#ffffff" stroke="none" points="1097.62,-38.5 1097.62,-58 1180.7,-58 1180.7,-38.5 1097.62,-38.5"/>
<polygon fill="none" stroke="black" points="1097.62,-38.5 1097.62,-58 1180.7,-58 1180.7,-38.5 1097.62,-38.5"/>
<text text-anchor="start" x="1158.2" y="-44.55" font-family="Helvetica,sans-Serif" font-size="11.00">4 &gt;</text>
</a>
</g>
</g>
<!-- lot_lot&#45;&gt;conf_configuration_ftp -->
<g id="edge3" class="edge">
<title>lot_lot:w&#45;&gt;conf_configuration_ftp:e</title>
<path fill="none" stroke="black" d="M920.08,-349.92C878.87,-332.93 947.1,-236.62 895.7,-196.75 804.4,-125.93 726.01,-124.66 635.7,-196.75 542.03,-271.53 695.82,-459.75 575.95,-459.75"/>
<polygon fill="black" stroke="black" points="927.48,-351.14 934.79,-356 931.76,-351.85 935.04,-352.39 935.04,-352.39 935.04,-352.39 931.76,-351.85 935.96,-348.89 927.48,-351.14"/>
<ellipse fill="none" stroke="black" cx="922.63" cy="-350.34" rx="3.2" ry="3.2"/>
</g>
<!-- proj_project -->
<g id="node4" class="node">
<title>proj_project</title>
<g id="a_node4"><a xlink:href="../../tables/proj_project.html" xlink:title="proj_project" target="_top">
<polygon fill="#ffffff" stroke="none" points="643.7,-207.5 643.7,-578 887.7,-578 887.7,-207.5 643.7,-207.5"/>
<polygon fill="#f5f5f5" stroke="none" points="643.7,-554.5 643.7,-578 887.7,-578 887.7,-554.5 643.7,-554.5"/>
<polygon fill="none" stroke="black" points="643.7,-554.5 643.7,-578 887.7,-578 887.7,-554.5 643.7,-554.5"/>
<text text-anchor="start" x="648.7" y="-563.55" font-family="Helvetica,sans-Serif" font-weight="bold" font-size="11.00">proj_project</text>
<text text-anchor="start" x="845.95" y="-562.55" font-family="Helvetica,sans-Serif" font-size="11.00">[table]</text>
<polygon fill="none" stroke="black" points="643.7,-532.5 643.7,-554.5 887.7,-554.5 887.7,-532.5 643.7,-532.5"/>
<image xlink:href="../../images/primaryKeys.png" width="11px" height="12px" preserveAspectRatio="xMinYMin meet" x="648.704" y="-549.5"/>
<text text-anchor="start" x="663.7" y="-539.05" font-family="Helvetica,sans-Serif" font-size="11.00">identifier</text>
<polygon fill="#ffffff" stroke="none" points="643.7,-510.5 643.7,-532.5 887.7,-532.5 887.7,-510.5 643.7,-510.5"/>
<polygon fill="none" stroke="black" points="643.7,-510.5 643.7,-532.5 887.7,-532.5 887.7,-510.5 643.7,-510.5"/>
<image xlink:href="../../images/foreignKeys.png" width="11px" height="12px" preserveAspectRatio="xMinYMin meet" x="648.704" y="-527.5"/>
<text text-anchor="start" x="663.7" y="-517.05" font-family="Helvetica,sans-Serif" font-size="11.00">library</text>
<polygon fill="#ffffff" stroke="none" points="643.7,-488.5 643.7,-510.5 887.7,-510.5 887.7,-488.5 643.7,-488.5"/>
<polygon fill="none" stroke="black" points="643.7,-488.5 643.7,-510.5 887.7,-510.5 887.7,-488.5 643.7,-488.5"/>
<image xlink:href="../../images/foreignKeys.png" width="11px" height="12px" preserveAspectRatio="xMinYMin meet" x="648.704" y="-505.5"/>
<text text-anchor="start" x="663.7" y="-495.05" font-family="Helvetica,sans-Serif" font-size="11.00">active_configuration_ftp</text>
<polygon fill="#ffffff" stroke="none" points="643.7,-466.5 643.7,-488.5 887.7,-488.5 887.7,-466.5 643.7,-466.5"/>
<polygon fill="none" stroke="black" points="643.7,-466.5 643.7,-488.5 887.7,-488.5 887.7,-466.5 643.7,-466.5"/>
<image xlink:href="../../images/foreignKeys.png" width="11px" height="12px" preserveAspectRatio="xMinYMin meet" x="648.704" y="-483.5"/>
<text text-anchor="start" x="663.7" y="-473.05" font-family="Helvetica,sans-Serif" font-size="11.00">active_configuration_check</text>
<polygon fill="#ffffff" stroke="none" points="643.7,-444.5 643.7,-466.5 887.7,-466.5 887.7,-444.5 643.7,-444.5"/>
<polygon fill="none" stroke="black" points="643.7,-444.5 643.7,-466.5 887.7,-466.5 887.7,-444.5 643.7,-444.5"/>
<image xlink:href="../../images/foreignKeys.png" width="11px" height="12px" preserveAspectRatio="xMinYMin meet" x="648.704" y="-461.5"/>
<text text-anchor="start" x="663.7" y="-451.05" font-family="Helvetica,sans-Serif" font-size="11.00">provider</text>
<polygon fill="#ffffff" stroke="none" points="643.7,-422.5 643.7,-444.5 887.7,-444.5 887.7,-422.5 643.7,-422.5"/>
<polygon fill="none" stroke="black" points="643.7,-422.5 643.7,-444.5 887.7,-444.5 887.7,-422.5 643.7,-422.5"/>
<image xlink:href="../../images/foreignKeys.png" width="11px" height="12px" preserveAspectRatio="xMinYMin meet" x="648.704" y="-439.5"/>
<text text-anchor="start" x="663.7" y="-429.05" font-family="Helvetica,sans-Serif" font-size="11.00">collection_omeka</text>
<polygon fill="#ffffff" stroke="none" points="643.7,-400.5 643.7,-422.5 887.7,-422.5 887.7,-400.5 643.7,-400.5"/>
<polygon fill="none" stroke="black" points="643.7,-400.5 643.7,-422.5 887.7,-422.5 887.7,-400.5 643.7,-400.5"/>
<image xlink:href="../../images/foreignKeys.png" width="11px" height="12px" preserveAspectRatio="xMinYMin meet" x="648.704" y="-417.5"/>
<text text-anchor="start" x="663.7" y="-407.05" font-family="Helvetica,sans-Serif" font-size="11.00">items_omeka</text>
<polygon fill="#ffffff" stroke="none" points="643.7,-378.5 643.7,-400.5 887.7,-400.5 887.7,-378.5 643.7,-378.5"/>
<polygon fill="none" stroke="black" points="643.7,-378.5 643.7,-400.5 887.7,-400.5 887.7,-378.5 643.7,-378.5"/>
<image xlink:href="../../images/foreignKeys.png" width="11px" height="12px" preserveAspectRatio="xMinYMin meet" x="648.704" y="-395.5"/>
<text text-anchor="start" x="663.7" y="-385.05" font-family="Helvetica,sans-Serif" font-size="11.00">active_configuration_export_ftp</text>
<polygon fill="#ffffff" stroke="none" points="643.7,-356.5 643.7,-378.5 887.7,-378.5 887.7,-356.5 643.7,-356.5"/>
<polygon fill="none" stroke="black" points="643.7,-356.5 643.7,-378.5 887.7,-378.5 887.7,-356.5 643.7,-356.5"/>
<image xlink:href="../../images/foreignKeys.png" width="11px" height="12px" preserveAspectRatio="xMinYMin meet" x="648.704" y="-373.5"/>
<text text-anchor="start" x="663.7" y="-363.05" font-family="Helvetica,sans-Serif" font-size="11.00">collection_ia</text>
<polygon fill="#ffffff" stroke="none" points="643.7,-334.5 643.7,-356.5 887.7,-356.5 887.7,-334.5 643.7,-334.5"/>
<polygon fill="none" stroke="black" points="643.7,-334.5 643.7,-356.5 887.7,-356.5 887.7,-334.5 643.7,-334.5"/>
<image xlink:href="../../images/foreignKeys.png" width="11px" height="12px" preserveAspectRatio="xMinYMin meet" x="648.704" y="-351.5"/>
<text text-anchor="start" x="663.7" y="-341.05" font-family="Helvetica,sans-Serif" font-size="11.00">classement_pac</text>
<polygon fill="#ffffff" stroke="none" points="643.7,-312.5 643.7,-334.5 887.7,-334.5 887.7,-312.5 643.7,-312.5"/>
<polygon fill="none" stroke="black" points="643.7,-312.5 643.7,-334.5 887.7,-334.5 887.7,-312.5 643.7,-312.5"/>
<image xlink:href="../../images/foreignKeys.png" width="11px" height="12px" preserveAspectRatio="xMinYMin meet" x="648.704" y="-329.5"/>
<text text-anchor="start" x="663.7" y="-319.05" font-family="Helvetica,sans-Serif" font-size="11.00">workflow_model</text>
<polygon fill="#ffffff" stroke="none" points="643.7,-290.5 643.7,-312.5 887.7,-312.5 887.7,-290.5 643.7,-290.5"/>
<polygon fill="none" stroke="black" points="643.7,-290.5 643.7,-312.5 887.7,-312.5 887.7,-290.5 643.7,-290.5"/>
<image xlink:href="../../images/foreignKeys.png" width="11px" height="12px" preserveAspectRatio="xMinYMin meet" x="648.704" y="-307.5"/>
<text text-anchor="start" x="663.7" y="-297.05" font-family="Helvetica,sans-Serif" font-size="11.00">active_format_configuration</text>
<polygon fill="#ffffff" stroke="none" points="643.7,-268.5 643.7,-290.5 887.7,-290.5 887.7,-268.5 643.7,-268.5"/>
<polygon fill="none" stroke="black" points="643.7,-268.5 643.7,-290.5 887.7,-290.5 887.7,-268.5 643.7,-268.5"/>
<image xlink:href="../../images/foreignKeys.png" width="11px" height="12px" preserveAspectRatio="xMinYMin meet" x="648.704" y="-285.5"/>
<text text-anchor="start" x="663.7" y="-275.05" font-family="Helvetica,sans-Serif" font-size="11.00">omeka_configuration</text>
<polygon fill="#ffffff" stroke="none" points="643.7,-246.5 643.7,-268.5 887.7,-268.5 887.7,-246.5 643.7,-246.5"/>
<polygon fill="none" stroke="black" points="643.7,-246.5 643.7,-268.5 887.7,-268.5 887.7,-246.5 643.7,-246.5"/>
<image xlink:href="../../images/foreignKeys.png" width="11px" height="12px" preserveAspectRatio="xMinYMin meet" x="648.704" y="-263.5"/>
<text text-anchor="start" x="663.7" y="-253.05" font-family="Helvetica,sans-Serif" font-size="11.00">active_export_ftp_delivery_folder</text>
<polygon fill="none" stroke="black" points="643.7,-227 643.7,-246.5 887.7,-246.5 887.7,-227 643.7,-227"/>
<text text-anchor="start" x="646.7" y="-233.05" font-family="Helvetica,sans-Serif" font-size="11.00">...</text>
<polygon fill="#ffffff" stroke="none" points="643.7,-207.5 643.7,-227 733.54,-227 733.54,-207.5 643.7,-207.5"/>
<polygon fill="none" stroke="black" points="643.7,-207.5 643.7,-227 733.54,-227 733.54,-207.5 643.7,-207.5"/>
<text text-anchor="start" x="646.7" y="-213.55" font-family="Helvetica,sans-Serif" font-size="11.00">&lt; 13</text>
<polygon fill="#ffffff" stroke="none" points="733.54,-207.5 733.54,-227 804.62,-227 804.62,-207.5 733.54,-207.5"/>
<polygon fill="none" stroke="black" points="733.54,-207.5 733.54,-227 804.62,-227 804.62,-207.5 733.54,-207.5"/>
<text text-anchor="start" x="794.12" y="-213.55" font-family="Helvetica,sans-Serif" font-size="11.00"> &#160;</text>
<polygon fill="#ffffff" stroke="none" points="804.62,-207.5 804.62,-227 887.7,-227 887.7,-207.5 804.62,-207.5"/>
<polygon fill="none" stroke="black" points="804.62,-207.5 804.62,-227 887.7,-227 887.7,-207.5 804.62,-207.5"/>
<text text-anchor="start" x="865.2" y="-213.55" font-family="Helvetica,sans-Serif" font-size="11.00">7 &gt;</text>
</a>
</g>
</g>
<!-- lot_lot&#45;&gt;proj_project -->
<g id="edge4" class="edge">
<title>lot_lot:w&#45;&gt;proj_project:e</title>
<path fill="none" stroke="black" d="M920.38,-377.58C873.99,-400.48 960.42,-543.5 888.7,-543.5"/>
<polygon fill="black" stroke="black" points="927.53,-376.14 936.09,-378.1 931.78,-375.29 935.05,-374.63 935.05,-374.63 935.05,-374.63 931.78,-375.29 934.67,-371.04 927.53,-376.14"/>
<ellipse fill="none" stroke="black" cx="922.71" cy="-377.11" rx="3.2" ry="3.2"/>
</g>
<!-- proj_project&#45;&gt;conf_configuration_ftp -->
<g id="edge5" class="edge">
<title>proj_project:w&#45;&gt;conf_configuration_ftp:e</title>
<path fill="none" stroke="black" d="M627.23,-496.11C607.82,-486.5 604.28,-459.75 575.95,-459.75"/>
<polygon fill="black" stroke="black" points="634.56,-497.72 641.61,-502.95 638.8,-498.64 642.05,-499.36 642.05,-499.36 642.05,-499.36 638.8,-498.64 643.15,-495.91 634.56,-497.72"/>
<ellipse fill="none" stroke="black" cx="629.76" cy="-496.66" rx="3.2" ry="3.2"/>
</g>
<!-- proj_project&#45;&gt;lib_library -->
<g id="edge6" class="edge">
<title>proj_project:w&#45;&gt;lib_library:e</title>
<path fill="none" stroke="black" d="M626.91,-521.48C481.84,-521.15 439.79,-516.1 287.45,-506.75 269.65,-505.66 265.29,-503.5 247.45,-503.5"/>
<polygon fill="black" stroke="black" points="634.37,-521.49 642.37,-525.1 638.7,-521.5 642.04,-521.5 642.04,-521.5 642.04,-521.5 638.7,-521.5 642.37,-517.9 634.37,-521.49"/>
<ellipse fill="none" stroke="black" cx="629.45" cy="-521.49" rx="3.2" ry="3.2"/>
</g>
</g>
</svg>
