<?xml version="1.0" encoding="UTF-8" standalone="no"?>
<!DOCTYPE svg PUBLIC "-//W3C//DTD SVG 1.1//EN"
 "http://www.w3.org/Graphics/SVG/1.1/DTD/svg11.dtd">
<!-- Generated by graphviz version 12.2.0 (0)
 -->
<!-- Title: oneDegreeRelationshipsDiagram Pages: 1 -->
<svg width="1299pt" height="773pt"
 viewBox="0.00 0.00 1298.75 773.25" xmlns="http://www.w3.org/2000/svg" xmlns:xlink="http://www.w3.org/1999/xlink">
<g id="graph0" class="graph" transform="scale(1 1) rotate(0) translate(4 769.25)">
<title>oneDegreeRelationshipsDiagram</title>
<polygon fill="#ffffff" stroke="none" points="-4,4 -4,-769.25 1294.75,-769.25 1294.75,4 -4,4"/>
<text text-anchor="middle" x="79.25" y="-7.05" font-family="Helvetica,sans-Serif" font-size="11.00">Generated by SchemaSpy</text>
<!-- conf_views_format_configuration -->
<g id="node1" class="node">
<title>conf_views_format_configuration</title>
<g id="a_node1"><a xlink:href="../../tables/conf_views_format_configuration.html" xlink:title="conf_views_format_configuration" target="_top">
<polygon fill="#ffffff" stroke="none" points="291,-38.5 291,-415.5 696.75,-415.5 696.75,-38.5 291,-38.5"/>
<polygon fill="#f5f5f5" stroke="none" points="293,-390 293,-413.5 694.75,-413.5 694.75,-390 293,-390"/>
<polygon fill="none" stroke="black" points="293,-390 293,-413.5 694.75,-413.5 694.75,-390 293,-390"/>
<text text-anchor="start" x="298" y="-399.05" font-family="Helvetica,sans-Serif" font-weight="bold" font-size="11.00">conf_views_format_configuration</text>
<text text-anchor="start" x="653" y="-398.05" font-family="Helvetica,sans-Serif" font-size="11.00">[table]</text>
<polygon fill="none" stroke="black" points="293,-368 293,-390 536,-390 536,-368 293,-368"/>
<image xlink:href="../../images/primaryKeys.png" width="11px" height="12px" preserveAspectRatio="xMinYMin meet" x="298" y="-385"/>
<text text-anchor="start" x="313" y="-374.55" font-family="Helvetica,sans-Serif" font-size="11.00">identifier</text>
<polygon fill="none" stroke="black" points="536,-368 536,-390 659.25,-390 659.25,-368 536,-368"/>
<text text-anchor="start" x="539" y="-375.3" font-family="Helvetica,sans-Serif" font-size="11.00">varchar[191]</text>
<polygon fill="none" stroke="black" points="293,-346 293,-368 536,-368 536,-346 293,-346"/>
<text text-anchor="start" x="313" y="-352.55" font-family="Helvetica,sans-Serif" font-size="11.00">label</text>
<polygon fill="none" stroke="black" points="536,-346 536,-368 659.25,-368 659.25,-346 536,-346"/>
<text text-anchor="start" x="539" y="-353.3" font-family="Helvetica,sans-Serif" font-size="11.00">varchar[255]</text>
<polygon fill="none" stroke="black" points="293,-324 293,-346 536,-346 536,-324 293,-324"/>
<text text-anchor="start" x="313" y="-330.55" font-family="Helvetica,sans-Serif" font-size="11.00">thumb_height</text>
<polygon fill="none" stroke="black" points="536,-324 536,-346 659.25,-346 659.25,-324 536,-324"/>
<text text-anchor="start" x="539" y="-331.3" font-family="Helvetica,sans-Serif" font-size="11.00">bigint[19]</text>
<polygon fill="none" stroke="black" points="293,-302 293,-324 536,-324 536,-302 293,-302"/>
<text text-anchor="start" x="313" y="-308.55" font-family="Helvetica,sans-Serif" font-size="11.00">thumb_width</text>
<polygon fill="none" stroke="black" points="536,-302 536,-324 659.25,-324 659.25,-302 536,-302"/>
<text text-anchor="start" x="539" y="-309.3" font-family="Helvetica,sans-Serif" font-size="11.00">bigint[19]</text>
<polygon fill="none" stroke="black" points="293,-280 293,-302 536,-302 536,-280 293,-280"/>
<text text-anchor="start" x="313" y="-286.55" font-family="Helvetica,sans-Serif" font-size="11.00">view_height</text>
<polygon fill="none" stroke="black" points="536,-280 536,-302 659.25,-302 659.25,-280 536,-280"/>
<text text-anchor="start" x="539" y="-287.3" font-family="Helvetica,sans-Serif" font-size="11.00">bigint[19]</text>
<polygon fill="none" stroke="black" points="293,-258 293,-280 536,-280 536,-258 293,-258"/>
<text text-anchor="start" x="313" y="-264.55" font-family="Helvetica,sans-Serif" font-size="11.00">view_width</text>
<polygon fill="none" stroke="black" points="536,-258 536,-280 659.25,-280 659.25,-258 536,-258"/>
<text text-anchor="start" x="539" y="-265.3" font-family="Helvetica,sans-Serif" font-size="11.00">bigint[19]</text>
<polygon fill="none" stroke="black" points="293,-236 293,-258 536,-258 536,-236 293,-236"/>
<text text-anchor="start" x="313" y="-242.55" font-family="Helvetica,sans-Serif" font-size="11.00">print_height</text>
<polygon fill="none" stroke="black" points="536,-236 536,-258 659.25,-258 659.25,-236 536,-236"/>
<text text-anchor="start" x="539" y="-243.3" font-family="Helvetica,sans-Serif" font-size="11.00">bigint[19]</text>
<polygon fill="none" stroke="black" points="293,-214 293,-236 536,-236 536,-214 293,-214"/>
<text text-anchor="start" x="313" y="-220.55" font-family="Helvetica,sans-Serif" font-size="11.00">print_width</text>
<polygon fill="none" stroke="black" points="536,-214 536,-236 659.25,-236 659.25,-214 536,-214"/>
<text text-anchor="start" x="539" y="-221.3" font-family="Helvetica,sans-Serif" font-size="11.00">bigint[19]</text>
<polygon fill="none" stroke="black" points="293,-192 293,-214 536,-214 536,-192 293,-192"/>
<text text-anchor="start" x="313" y="-198.55" font-family="Helvetica,sans-Serif" font-size="11.00">active</text>
<polygon fill="none" stroke="black" points="536,-192 536,-214 659.25,-214 659.25,-192 536,-192"/>
<text text-anchor="start" x="539" y="-199.3" font-family="Helvetica,sans-Serif" font-size="11.00">bit[1]</text>
<polygon fill="#ffffff" stroke="none" points="293,-170 293,-192 536,-192 536,-170 293,-170"/>
<polygon fill="none" stroke="black" points="293,-170 293,-192 536,-192 536,-170 293,-170"/>
<image xlink:href="../../images/foreignKeys.png" width="11px" height="12px" preserveAspectRatio="xMinYMin meet" x="298" y="-187"/>
<text text-anchor="start" x="313" y="-176.55" font-family="Helvetica,sans-Serif" font-size="11.00">library</text>
<polygon fill="none" stroke="black" points="536,-170 536,-192 659.25,-192 659.25,-170 536,-170"/>
<text text-anchor="start" x="539" y="-177.3" font-family="Helvetica,sans-Serif" font-size="11.00">varchar[191]</text>
<polygon fill="none" stroke="black" points="293,-148 293,-170 536,-170 536,-148 293,-148"/>
<text text-anchor="start" x="313" y="-154.55" font-family="Helvetica,sans-Serif" font-size="11.00">version</text>
<polygon fill="none" stroke="black" points="536,-148 536,-170 659.25,-170 659.25,-148 536,-148"/>
<text text-anchor="start" x="539" y="-155.3" font-family="Helvetica,sans-Serif" font-size="11.00">bigint[19]</text>
<polygon fill="none" stroke="black" points="293,-126 293,-148 536,-148 536,-126 293,-126"/>
<text text-anchor="start" x="313" y="-132.55" font-family="Helvetica,sans-Serif" font-size="11.00">created_by</text>
<polygon fill="none" stroke="black" points="536,-126 536,-148 659.25,-148 659.25,-126 536,-126"/>
<text text-anchor="start" x="539" y="-133.3" font-family="Helvetica,sans-Serif" font-size="11.00">varchar[191]</text>
<polygon fill="none" stroke="black" points="293,-104 293,-126 536,-126 536,-104 293,-104"/>
<text text-anchor="start" x="313" y="-110.55" font-family="Helvetica,sans-Serif" font-size="11.00">last_modified_by</text>
<polygon fill="none" stroke="black" points="536,-104 536,-126 659.25,-126 659.25,-104 536,-104"/>
<text text-anchor="start" x="539" y="-111.3" font-family="Helvetica,sans-Serif" font-size="11.00">varchar[191]</text>
<polygon fill="none" stroke="black" points="293,-82 293,-104 536,-104 536,-82 293,-82"/>
<text text-anchor="start" x="313" y="-88.55" font-family="Helvetica,sans-Serif" font-size="11.00">created_date</text>
<polygon fill="none" stroke="black" points="536,-82 536,-104 659.25,-104 659.25,-82 536,-82"/>
<text text-anchor="start" x="539" y="-89.3" font-family="Helvetica,sans-Serif" font-size="11.00">timestamp[19]</text>
<polygon fill="none" stroke="black" points="293,-60 293,-82 536,-82 536,-60 293,-60"/>
<text text-anchor="start" x="313" y="-66.55" font-family="Helvetica,sans-Serif" font-size="11.00">last_modified_date</text>
<polygon fill="none" stroke="black" points="536,-60 536,-82 659.25,-82 659.25,-60 536,-60"/>
<text text-anchor="start" x="539" y="-67.3" font-family="Helvetica,sans-Serif" font-size="11.00">timestamp[19]</text>
<polygon fill="#ffffff" stroke="none" points="293,-40.5 293,-60 420.5,-60 420.5,-40.5 293,-40.5"/>
<polygon fill="none" stroke="black" points="293,-40.5 293,-60 420.5,-60 420.5,-40.5 293,-40.5"/>
<text text-anchor="start" x="296" y="-46.55" font-family="Helvetica,sans-Serif" font-size="11.00">&lt; 1</text>
<polygon fill="#ffffff" stroke="none" points="420.5,-40.5 420.5,-60 536,-60 536,-40.5 420.5,-40.5"/>
<polygon fill="none" stroke="black" points="420.5,-40.5 420.5,-60 536,-60 536,-40.5 420.5,-40.5"/>
<text text-anchor="start" x="525.5" y="-46.55" font-family="Helvetica,sans-Serif" font-size="11.00"> &#160;</text>
<polygon fill="#ffffff" stroke="none" points="536,-40.5 536,-60 659.25,-60 659.25,-40.5 536,-40.5"/>
<polygon fill="none" stroke="black" points="536,-40.5 536,-60 659.25,-60 659.25,-40.5 536,-40.5"/>
<text text-anchor="start" x="636.75" y="-46.55" font-family="Helvetica,sans-Serif" font-size="11.00">3 &gt;</text>
<polygon fill="none" stroke="black" stroke-width="2" points="292,-39.5 292,-414.5 695.75,-414.5 695.75,-39.5 292,-39.5"/>
</a>
</g>
</g>
<!-- lib_library -->
<g id="node2" class="node">
<title>lib_library</title>
<g id="a_node2"><a xlink:href="../../tables/lib_library.html" xlink:title="lib_library" target="_top">
<polygon fill="#ffffff" stroke="none" points="8,-128.75 8,-345.25 242,-345.25 242,-128.75 8,-128.75"/>
<polygon fill="#f5f5f5" stroke="none" points="8,-321.75 8,-345.25 242,-345.25 242,-321.75 8,-321.75"/>
<polygon fill="none" stroke="black" points="8,-321.75 8,-345.25 242,-345.25 242,-321.75 8,-321.75"/>
<text text-anchor="start" x="13" y="-330.8" font-family="Helvetica,sans-Serif" font-weight="bold" font-size="11.00">lib_library</text>
<text text-anchor="start" x="200.25" y="-329.8" font-family="Helvetica,sans-Serif" font-size="11.00">[table]</text>
<polygon fill="none" stroke="black" points="8,-299.75 8,-321.75 242,-321.75 242,-299.75 8,-299.75"/>
<image xlink:href="../../images/primaryKeys.png" width="11px" height="12px" preserveAspectRatio="xMinYMin meet" x="13" y="-316.75"/>
<text text-anchor="start" x="28" y="-306.3" font-family="Helvetica,sans-Serif" font-size="11.00">identifier</text>
<polygon fill="#ffffff" stroke="none" points="8,-277.75 8,-299.75 242,-299.75 242,-277.75 8,-277.75"/>
<polygon fill="none" stroke="black" points="8,-277.75 8,-299.75 242,-299.75 242,-277.75 8,-277.75"/>
<image xlink:href="../../images/foreignKeys.png" width="11px" height="12px" preserveAspectRatio="xMinYMin meet" x="13" y="-294.75"/>
<text text-anchor="start" x="28" y="-284.3" font-family="Helvetica,sans-Serif" font-size="11.00">address</text>
<polygon fill="#ffffff" stroke="none" points="8,-255.75 8,-277.75 242,-277.75 242,-255.75 8,-255.75"/>
<polygon fill="none" stroke="black" points="8,-255.75 8,-277.75 242,-277.75 242,-255.75 8,-255.75"/>
<image xlink:href="../../images/foreignKeys.png" width="11px" height="12px" preserveAspectRatio="xMinYMin meet" x="13" y="-272.75"/>
<text text-anchor="start" x="28" y="-262.3" font-family="Helvetica,sans-Serif" font-size="11.00">active_configuration_ftp</text>
<polygon fill="#ffffff" stroke="none" points="8,-233.75 8,-255.75 242,-255.75 242,-233.75 8,-233.75"/>
<polygon fill="none" stroke="black" points="8,-233.75 8,-255.75 242,-255.75 242,-233.75 8,-233.75"/>
<image xlink:href="../../images/foreignKeys.png" width="11px" height="12px" preserveAspectRatio="xMinYMin meet" x="13" y="-250.75"/>
<text text-anchor="start" x="28" y="-240.3" font-family="Helvetica,sans-Serif" font-size="11.00">active_configuration_check</text>
<polygon fill="#ffffff" stroke="none" points="8,-211.75 8,-233.75 242,-233.75 242,-211.75 8,-211.75"/>
<polygon fill="none" stroke="black" points="8,-211.75 8,-233.75 242,-233.75 242,-211.75 8,-211.75"/>
<image xlink:href="../../images/foreignKeys.png" width="11px" height="12px" preserveAspectRatio="xMinYMin meet" x="13" y="-228.75"/>
<text text-anchor="start" x="28" y="-218.3" font-family="Helvetica,sans-Serif" font-size="11.00">role</text>
<polygon fill="#ffffff" stroke="none" points="8,-189.75 8,-211.75 242,-211.75 242,-189.75 8,-189.75"/>
<polygon fill="none" stroke="black" points="8,-189.75 8,-211.75 242,-211.75 242,-189.75 8,-189.75"/>
<image xlink:href="../../images/foreignKeys.png" width="11px" height="12px" preserveAspectRatio="xMinYMin meet" x="13" y="-206.75"/>
<text text-anchor="start" x="28" y="-196.3" font-family="Helvetica,sans-Serif" font-size="11.00">active_configuration_export_ftp</text>
<polygon fill="#ffffff" stroke="none" points="8,-167.75 8,-189.75 242,-189.75 242,-167.75 8,-167.75"/>
<polygon fill="none" stroke="black" points="8,-167.75 8,-189.75 242,-189.75 242,-167.75 8,-167.75"/>
<image xlink:href="../../images/foreignKeys.png" width="11px" height="12px" preserveAspectRatio="xMinYMin meet" x="13" y="-184.75"/>
<text text-anchor="start" x="28" y="-174.3" font-family="Helvetica,sans-Serif" font-size="11.00">active_configuration_ocr_lang</text>
<polygon fill="none" stroke="black" points="8,-148.25 8,-167.75 242,-167.75 242,-148.25 8,-148.25"/>
<text text-anchor="start" x="11" y="-154.3" font-family="Helvetica,sans-Serif" font-size="11.00">...</text>
<polygon fill="#ffffff" stroke="none" points="8,-128.75 8,-148.25 87.75,-148.25 87.75,-128.75 8,-128.75"/>
<polygon fill="none" stroke="black" points="8,-128.75 8,-148.25 87.75,-148.25 87.75,-128.75 8,-128.75"/>
<text text-anchor="start" x="11" y="-134.8" font-family="Helvetica,sans-Serif" font-size="11.00">&lt; 6</text>
<polygon fill="#ffffff" stroke="none" points="87.75,-128.75 87.75,-148.25 155.5,-148.25 155.5,-128.75 87.75,-128.75"/>
<polygon fill="none" stroke="black" points="87.75,-128.75 87.75,-148.25 155.5,-148.25 155.5,-128.75 87.75,-128.75"/>
<text text-anchor="start" x="145" y="-134.8" font-family="Helvetica,sans-Serif" font-size="11.00"> &#160;</text>
<polygon fill="#ffffff" stroke="none" points="155.5,-128.75 155.5,-148.25 242,-148.25 242,-128.75 155.5,-128.75"/>
<polygon fill="none" stroke="black" points="155.5,-128.75 155.5,-148.25 242,-148.25 242,-128.75 155.5,-128.75"/>
<text text-anchor="start" x="212.75" y="-134.8" font-family="Helvetica,sans-Serif" font-size="11.00">27 &gt;</text>
</a>
</g>
</g>
<!-- conf_views_format_configuration&#45;&gt;lib_library -->
<g id="edge1" class="edge">
<title>conf_views_format_configuration:w&#45;&gt;lib_library:e</title>
<path fill="none" stroke="black" d="M276.71,-185.03C244.52,-206.93 298.14,-310.75 243,-310.75"/>
<polygon fill="black" stroke="black" points="283.94,-183.12 292.59,-184.57 288.13,-182.02 291.35,-181.17 291.35,-181.17 291.35,-181.17 288.13,-182.02 290.76,-177.6 283.94,-183.12"/>
<ellipse fill="none" stroke="black" cx="279.18" cy="-184.37" rx="3.2" ry="3.2"/>
</g>
<!-- lot_lot -->
<g id="node3" class="node">
<title>lot_lot</title>
<g id="a_node3"><a xlink:href="../../tables/lot_lot.html" xlink:title="lot_lot" target="_top">
<polygon fill="#ffffff" stroke="none" points="1038.75,-256.75 1038.75,-671.25 1282.75,-671.25 1282.75,-256.75 1038.75,-256.75"/>
<polygon fill="#f5f5f5" stroke="none" points="1038.75,-647.75 1038.75,-671.25 1282.75,-671.25 1282.75,-647.75 1038.75,-647.75"/>
<polygon fill="none" stroke="black" points="1038.75,-647.75 1038.75,-671.25 1282.75,-671.25 1282.75,-647.75 1038.75,-647.75"/>
<text text-anchor="start" x="1043.62" y="-656.8" font-family="Helvetica,sans-Serif" font-weight="bold" font-size="11.00">lot_lot</text>
<text text-anchor="start" x="1241" y="-655.8" font-family="Helvetica,sans-Serif" font-size="11.00">[table]</text>
<polygon fill="none" stroke="black" points="1038.75,-625.75 1038.75,-647.75 1282.75,-647.75 1282.75,-625.75 1038.75,-625.75"/>
<image xlink:href="../../images/primaryKeys.png" width="11px" height="12px" preserveAspectRatio="xMinYMin meet" x="1043.75" y="-642.75"/>
<text text-anchor="start" x="1058.75" y="-632.3" font-family="Helvetica,sans-Serif" font-size="11.00">identifier</text>
<polygon fill="#ffffff" stroke="none" points="1038.75,-603.75 1038.75,-625.75 1282.75,-625.75 1282.75,-603.75 1038.75,-603.75"/>
<polygon fill="none" stroke="black" points="1038.75,-603.75 1038.75,-625.75 1282.75,-625.75 1282.75,-603.75 1038.75,-603.75"/>
<text text-anchor="start" x="1058.75" y="-610.3" font-family="Helvetica,sans-Serif" font-size="11.00">code</text>
<polygon fill="#ffffff" stroke="none" points="1038.75,-581.75 1038.75,-603.75 1282.75,-603.75 1282.75,-581.75 1038.75,-581.75"/>
<polygon fill="none" stroke="black" points="1038.75,-581.75 1038.75,-603.75 1282.75,-603.75 1282.75,-581.75 1038.75,-581.75"/>
<image xlink:href="../../images/foreignKeys.png" width="11px" height="12px" preserveAspectRatio="xMinYMin meet" x="1043.75" y="-598.75"/>
<text text-anchor="start" x="1058.75" y="-588.3" font-family="Helvetica,sans-Serif" font-size="11.00">project</text>
<polygon fill="#ffffff" stroke="none" points="1038.75,-559.75 1038.75,-581.75 1282.75,-581.75 1282.75,-559.75 1038.75,-559.75"/>
<polygon fill="none" stroke="black" points="1038.75,-559.75 1038.75,-581.75 1282.75,-581.75 1282.75,-559.75 1038.75,-559.75"/>
<image xlink:href="../../images/foreignKeys.png" width="11px" height="12px" preserveAspectRatio="xMinYMin meet" x="1043.75" y="-576.75"/>
<text text-anchor="start" x="1058.75" y="-566.3" font-family="Helvetica,sans-Serif" font-size="11.00">active_configuration_ftp</text>
<polygon fill="#ffffff" stroke="none" points="1038.75,-537.75 1038.75,-559.75 1282.75,-559.75 1282.75,-537.75 1038.75,-537.75"/>
<polygon fill="none" stroke="black" points="1038.75,-537.75 1038.75,-559.75 1282.75,-559.75 1282.75,-537.75 1038.75,-537.75"/>
<image xlink:href="../../images/foreignKeys.png" width="11px" height="12px" preserveAspectRatio="xMinYMin meet" x="1043.75" y="-554.75"/>
<text text-anchor="start" x="1058.75" y="-544.3" font-family="Helvetica,sans-Serif" font-size="11.00">active_configuration_check</text>
<polygon fill="#ffffff" stroke="none" points="1038.75,-515.75 1038.75,-537.75 1282.75,-537.75 1282.75,-515.75 1038.75,-515.75"/>
<polygon fill="none" stroke="black" points="1038.75,-515.75 1038.75,-537.75 1282.75,-537.75 1282.75,-515.75 1038.75,-515.75"/>
<image xlink:href="../../images/foreignKeys.png" width="11px" height="12px" preserveAspectRatio="xMinYMin meet" x="1043.75" y="-532.75"/>
<text text-anchor="start" x="1058.75" y="-522.3" font-family="Helvetica,sans-Serif" font-size="11.00">provider</text>
<polygon fill="#ffffff" stroke="none" points="1038.75,-493.75 1038.75,-515.75 1282.75,-515.75 1282.75,-493.75 1038.75,-493.75"/>
<polygon fill="none" stroke="black" points="1038.75,-493.75 1038.75,-515.75 1282.75,-515.75 1282.75,-493.75 1038.75,-493.75"/>
<image xlink:href="../../images/foreignKeys.png" width="11px" height="12px" preserveAspectRatio="xMinYMin meet" x="1043.75" y="-510.75"/>
<text text-anchor="start" x="1058.75" y="-500.3" font-family="Helvetica,sans-Serif" font-size="11.00">collection_omeka</text>
<polygon fill="#ffffff" stroke="none" points="1038.75,-471.75 1038.75,-493.75 1282.75,-493.75 1282.75,-471.75 1038.75,-471.75"/>
<polygon fill="none" stroke="black" points="1038.75,-471.75 1038.75,-493.75 1282.75,-493.75 1282.75,-471.75 1038.75,-471.75"/>
<image xlink:href="../../images/foreignKeys.png" width="11px" height="12px" preserveAspectRatio="xMinYMin meet" x="1043.75" y="-488.75"/>
<text text-anchor="start" x="1058.75" y="-478.3" font-family="Helvetica,sans-Serif" font-size="11.00">items_omeka</text>
<polygon fill="#ffffff" stroke="none" points="1038.75,-449.75 1038.75,-471.75 1282.75,-471.75 1282.75,-449.75 1038.75,-449.75"/>
<polygon fill="none" stroke="black" points="1038.75,-449.75 1038.75,-471.75 1282.75,-471.75 1282.75,-449.75 1038.75,-449.75"/>
<image xlink:href="../../images/foreignKeys.png" width="11px" height="12px" preserveAspectRatio="xMinYMin meet" x="1043.75" y="-466.75"/>
<text text-anchor="start" x="1058.75" y="-456.3" font-family="Helvetica,sans-Serif" font-size="11.00">active_configuration_export_ftp</text>
<polygon fill="#ffffff" stroke="none" points="1038.75,-427.75 1038.75,-449.75 1282.75,-449.75 1282.75,-427.75 1038.75,-427.75"/>
<polygon fill="none" stroke="black" points="1038.75,-427.75 1038.75,-449.75 1282.75,-449.75 1282.75,-427.75 1038.75,-427.75"/>
<image xlink:href="../../images/foreignKeys.png" width="11px" height="12px" preserveAspectRatio="xMinYMin meet" x="1043.75" y="-444.75"/>
<text text-anchor="start" x="1058.75" y="-434.3" font-family="Helvetica,sans-Serif" font-size="11.00">active_ocr_lang</text>
<polygon fill="#ffffff" stroke="none" points="1038.75,-405.75 1038.75,-427.75 1282.75,-427.75 1282.75,-405.75 1038.75,-405.75"/>
<polygon fill="none" stroke="black" points="1038.75,-405.75 1038.75,-427.75 1282.75,-427.75 1282.75,-405.75 1038.75,-405.75"/>
<image xlink:href="../../images/foreignKeys.png" width="11px" height="12px" preserveAspectRatio="xMinYMin meet" x="1043.75" y="-422.75"/>
<text text-anchor="start" x="1058.75" y="-412.3" font-family="Helvetica,sans-Serif" font-size="11.00">collection_ia</text>
<polygon fill="#ffffff" stroke="none" points="1038.75,-383.75 1038.75,-405.75 1282.75,-405.75 1282.75,-383.75 1038.75,-383.75"/>
<polygon fill="none" stroke="black" points="1038.75,-383.75 1038.75,-405.75 1282.75,-405.75 1282.75,-383.75 1038.75,-383.75"/>
<image xlink:href="../../images/foreignKeys.png" width="11px" height="12px" preserveAspectRatio="xMinYMin meet" x="1043.75" y="-400.75"/>
<text text-anchor="start" x="1058.75" y="-390.3" font-family="Helvetica,sans-Serif" font-size="11.00">classement_pac</text>
<polygon fill="#ffffff" stroke="none" points="1038.75,-361.75 1038.75,-383.75 1282.75,-383.75 1282.75,-361.75 1038.75,-361.75"/>
<polygon fill="none" stroke="black" points="1038.75,-361.75 1038.75,-383.75 1282.75,-383.75 1282.75,-361.75 1038.75,-361.75"/>
<image xlink:href="../../images/foreignKeys.png" width="11px" height="12px" preserveAspectRatio="xMinYMin meet" x="1043.75" y="-378.75"/>
<text text-anchor="start" x="1058.75" y="-368.3" font-family="Helvetica,sans-Serif" font-size="11.00">workflow_model</text>
<polygon fill="#ffffff" stroke="none" points="1038.75,-339.75 1038.75,-361.75 1282.75,-361.75 1282.75,-339.75 1038.75,-339.75"/>
<polygon fill="none" stroke="black" points="1038.75,-339.75 1038.75,-361.75 1282.75,-361.75 1282.75,-339.75 1038.75,-339.75"/>
<image xlink:href="../../images/foreignKeys.png" width="11px" height="12px" preserveAspectRatio="xMinYMin meet" x="1043.75" y="-356.75"/>
<text text-anchor="start" x="1058.75" y="-346.3" font-family="Helvetica,sans-Serif" font-size="11.00">active_format_configuration</text>
<polygon fill="#ffffff" stroke="none" points="1038.75,-317.75 1038.75,-339.75 1282.75,-339.75 1282.75,-317.75 1038.75,-317.75"/>
<polygon fill="none" stroke="black" points="1038.75,-317.75 1038.75,-339.75 1282.75,-339.75 1282.75,-317.75 1038.75,-317.75"/>
<image xlink:href="../../images/foreignKeys.png" width="11px" height="12px" preserveAspectRatio="xMinYMin meet" x="1043.75" y="-334.75"/>
<text text-anchor="start" x="1058.75" y="-324.3" font-family="Helvetica,sans-Serif" font-size="11.00">omeka_configuration</text>
<polygon fill="#ffffff" stroke="none" points="1038.75,-295.75 1038.75,-317.75 1282.75,-317.75 1282.75,-295.75 1038.75,-295.75"/>
<polygon fill="none" stroke="black" points="1038.75,-295.75 1038.75,-317.75 1282.75,-317.75 1282.75,-295.75 1038.75,-295.75"/>
<image xlink:href="../../images/foreignKeys.png" width="11px" height="12px" preserveAspectRatio="xMinYMin meet" x="1043.75" y="-312.75"/>
<text text-anchor="start" x="1058.75" y="-302.3" font-family="Helvetica,sans-Serif" font-size="11.00">active_export_ftp_delivery_folder</text>
<polygon fill="none" stroke="black" points="1038.75,-276.25 1038.75,-295.75 1282.75,-295.75 1282.75,-276.25 1038.75,-276.25"/>
<text text-anchor="start" x="1041.75" y="-282.3" font-family="Helvetica,sans-Serif" font-size="11.00">...</text>
<polygon fill="#ffffff" stroke="none" points="1038.75,-256.75 1038.75,-276.25 1128.58,-276.25 1128.58,-256.75 1038.75,-256.75"/>
<polygon fill="none" stroke="black" points="1038.75,-256.75 1038.75,-276.25 1128.58,-276.25 1128.58,-256.75 1038.75,-256.75"/>
<text text-anchor="start" x="1041.75" y="-262.8" font-family="Helvetica,sans-Serif" font-size="11.00">&lt; 14</text>
<polygon fill="#ffffff" stroke="none" points="1128.58,-256.75 1128.58,-276.25 1199.67,-276.25 1199.67,-256.75 1128.58,-256.75"/>
<polygon fill="none" stroke="black" points="1128.58,-256.75 1128.58,-276.25 1199.67,-276.25 1199.67,-256.75 1128.58,-256.75"/>
<text text-anchor="start" x="1189.17" y="-262.8" font-family="Helvetica,sans-Serif" font-size="11.00"> &#160;</text>
<polygon fill="#ffffff" stroke="none" points="1199.67,-256.75 1199.67,-276.25 1282.75,-276.25 1282.75,-256.75 1199.67,-256.75"/>
<polygon fill="none" stroke="black" points="1199.67,-256.75 1199.67,-276.25 1282.75,-276.25 1282.75,-256.75 1199.67,-256.75"/>
<text text-anchor="start" x="1260.25" y="-262.8" font-family="Helvetica,sans-Serif" font-size="11.00">4 &gt;</text>
</a>
</g>
</g>
<!-- lot_lot&#45;&gt;conf_views_format_configuration -->
<g id="edge2" class="edge">
<title>lot_lot:w&#45;&gt;conf_views_format_configuration:e</title>
<path fill="none" stroke="black" d="M1022.41,-347.37C994.35,-330.96 1038.21,-259.22 997.75,-230 904.07,-162.35 836.53,-170.04 737.75,-230 673.94,-268.73 734.89,-379 660.25,-379"/>
<polygon fill="black" stroke="black" points="1029.61,-348.96 1036.65,-354.19 1033.84,-349.89 1037.1,-350.61 1037.1,-350.61 1037.1,-350.61 1033.84,-349.89 1038.2,-347.16 1029.61,-348.96"/>
<ellipse fill="none" stroke="black" cx="1024.81" cy="-347.9" rx="3.2" ry="3.2"/>
</g>
<!-- proj_project -->
<g id="node4" class="node">
<title>proj_project</title>
<g id="a_node4"><a xlink:href="../../tables/proj_project.html" xlink:title="proj_project" target="_top">
<polygon fill="#ffffff" stroke="none" points="745.75,-390.75 745.75,-761.25 989.75,-761.25 989.75,-390.75 745.75,-390.75"/>
<polygon fill="#f5f5f5" stroke="none" points="745.75,-737.75 745.75,-761.25 989.75,-761.25 989.75,-737.75 745.75,-737.75"/>
<polygon fill="none" stroke="black" points="745.75,-737.75 745.75,-761.25 989.75,-761.25 989.75,-737.75 745.75,-737.75"/>
<text text-anchor="start" x="750.75" y="-746.8" font-family="Helvetica,sans-Serif" font-weight="bold" font-size="11.00">proj_project</text>
<text text-anchor="start" x="948" y="-745.8" font-family="Helvetica,sans-Serif" font-size="11.00">[table]</text>
<polygon fill="none" stroke="black" points="745.75,-715.75 745.75,-737.75 989.75,-737.75 989.75,-715.75 745.75,-715.75"/>
<image xlink:href="../../images/primaryKeys.png" width="11px" height="12px" preserveAspectRatio="xMinYMin meet" x="750.75" y="-732.75"/>
<text text-anchor="start" x="765.75" y="-722.3" font-family="Helvetica,sans-Serif" font-size="11.00">identifier</text>
<polygon fill="#ffffff" stroke="none" points="745.75,-693.75 745.75,-715.75 989.75,-715.75 989.75,-693.75 745.75,-693.75"/>
<polygon fill="none" stroke="black" points="745.75,-693.75 745.75,-715.75 989.75,-715.75 989.75,-693.75 745.75,-693.75"/>
<image xlink:href="../../images/foreignKeys.png" width="11px" height="12px" preserveAspectRatio="xMinYMin meet" x="750.75" y="-710.75"/>
<text text-anchor="start" x="765.75" y="-700.3" font-family="Helvetica,sans-Serif" font-size="11.00">library</text>
<polygon fill="#ffffff" stroke="none" points="745.75,-671.75 745.75,-693.75 989.75,-693.75 989.75,-671.75 745.75,-671.75"/>
<polygon fill="none" stroke="black" points="745.75,-671.75 745.75,-693.75 989.75,-693.75 989.75,-671.75 745.75,-671.75"/>
<image xlink:href="../../images/foreignKeys.png" width="11px" height="12px" preserveAspectRatio="xMinYMin meet" x="750.75" y="-688.75"/>
<text text-anchor="start" x="765.75" y="-678.3" font-family="Helvetica,sans-Serif" font-size="11.00">active_configuration_ftp</text>
<polygon fill="#ffffff" stroke="none" points="745.75,-649.75 745.75,-671.75 989.75,-671.75 989.75,-649.75 745.75,-649.75"/>
<polygon fill="none" stroke="black" points="745.75,-649.75 745.75,-671.75 989.75,-671.75 989.75,-649.75 745.75,-649.75"/>
<image xlink:href="../../images/foreignKeys.png" width="11px" height="12px" preserveAspectRatio="xMinYMin meet" x="750.75" y="-666.75"/>
<text text-anchor="start" x="765.75" y="-656.3" font-family="Helvetica,sans-Serif" font-size="11.00">active_configuration_check</text>
<polygon fill="#ffffff" stroke="none" points="745.75,-627.75 745.75,-649.75 989.75,-649.75 989.75,-627.75 745.75,-627.75"/>
<polygon fill="none" stroke="black" points="745.75,-627.75 745.75,-649.75 989.75,-649.75 989.75,-627.75 745.75,-627.75"/>
<image xlink:href="../../images/foreignKeys.png" width="11px" height="12px" preserveAspectRatio="xMinYMin meet" x="750.75" y="-644.75"/>
<text text-anchor="start" x="765.75" y="-634.3" font-family="Helvetica,sans-Serif" font-size="11.00">provider</text>
<polygon fill="#ffffff" stroke="none" points="745.75,-605.75 745.75,-627.75 989.75,-627.75 989.75,-605.75 745.75,-605.75"/>
<polygon fill="none" stroke="black" points="745.75,-605.75 745.75,-627.75 989.75,-627.75 989.75,-605.75 745.75,-605.75"/>
<image xlink:href="../../images/foreignKeys.png" width="11px" height="12px" preserveAspectRatio="xMinYMin meet" x="750.75" y="-622.75"/>
<text text-anchor="start" x="765.75" y="-612.3" font-family="Helvetica,sans-Serif" font-size="11.00">collection_omeka</text>
<polygon fill="#ffffff" stroke="none" points="745.75,-583.75 745.75,-605.75 989.75,-605.75 989.75,-583.75 745.75,-583.75"/>
<polygon fill="none" stroke="black" points="745.75,-583.75 745.75,-605.75 989.75,-605.75 989.75,-583.75 745.75,-583.75"/>
<image xlink:href="../../images/foreignKeys.png" width="11px" height="12px" preserveAspectRatio="xMinYMin meet" x="750.75" y="-600.75"/>
<text text-anchor="start" x="765.75" y="-590.3" font-family="Helvetica,sans-Serif" font-size="11.00">items_omeka</text>
<polygon fill="#ffffff" stroke="none" points="745.75,-561.75 745.75,-583.75 989.75,-583.75 989.75,-561.75 745.75,-561.75"/>
<polygon fill="none" stroke="black" points="745.75,-561.75 745.75,-583.75 989.75,-583.75 989.75,-561.75 745.75,-561.75"/>
<image xlink:href="../../images/foreignKeys.png" width="11px" height="12px" preserveAspectRatio="xMinYMin meet" x="750.75" y="-578.75"/>
<text text-anchor="start" x="765.75" y="-568.3" font-family="Helvetica,sans-Serif" font-size="11.00">active_configuration_export_ftp</text>
<polygon fill="#ffffff" stroke="none" points="745.75,-539.75 745.75,-561.75 989.75,-561.75 989.75,-539.75 745.75,-539.75"/>
<polygon fill="none" stroke="black" points="745.75,-539.75 745.75,-561.75 989.75,-561.75 989.75,-539.75 745.75,-539.75"/>
<image xlink:href="../../images/foreignKeys.png" width="11px" height="12px" preserveAspectRatio="xMinYMin meet" x="750.75" y="-556.75"/>
<text text-anchor="start" x="765.75" y="-546.3" font-family="Helvetica,sans-Serif" font-size="11.00">collection_ia</text>
<polygon fill="#ffffff" stroke="none" points="745.75,-517.75 745.75,-539.75 989.75,-539.75 989.75,-517.75 745.75,-517.75"/>
<polygon fill="none" stroke="black" points="745.75,-517.75 745.75,-539.75 989.75,-539.75 989.75,-517.75 745.75,-517.75"/>
<image xlink:href="../../images/foreignKeys.png" width="11px" height="12px" preserveAspectRatio="xMinYMin meet" x="750.75" y="-534.75"/>
<text text-anchor="start" x="765.75" y="-524.3" font-family="Helvetica,sans-Serif" font-size="11.00">classement_pac</text>
<polygon fill="#ffffff" stroke="none" points="745.75,-495.75 745.75,-517.75 989.75,-517.75 989.75,-495.75 745.75,-495.75"/>
<polygon fill="none" stroke="black" points="745.75,-495.75 745.75,-517.75 989.75,-517.75 989.75,-495.75 745.75,-495.75"/>
<image xlink:href="../../images/foreignKeys.png" width="11px" height="12px" preserveAspectRatio="xMinYMin meet" x="750.75" y="-512.75"/>
<text text-anchor="start" x="765.75" y="-502.3" font-family="Helvetica,sans-Serif" font-size="11.00">workflow_model</text>
<polygon fill="#ffffff" stroke="none" points="745.75,-473.75 745.75,-495.75 989.75,-495.75 989.75,-473.75 745.75,-473.75"/>
<polygon fill="none" stroke="black" points="745.75,-473.75 745.75,-495.75 989.75,-495.75 989.75,-473.75 745.75,-473.75"/>
<image xlink:href="../../images/foreignKeys.png" width="11px" height="12px" preserveAspectRatio="xMinYMin meet" x="750.75" y="-490.75"/>
<text text-anchor="start" x="765.75" y="-480.3" font-family="Helvetica,sans-Serif" font-size="11.00">active_format_configuration</text>
<polygon fill="#ffffff" stroke="none" points="745.75,-451.75 745.75,-473.75 989.75,-473.75 989.75,-451.75 745.75,-451.75"/>
<polygon fill="none" stroke="black" points="745.75,-451.75 745.75,-473.75 989.75,-473.75 989.75,-451.75 745.75,-451.75"/>
<image xlink:href="../../images/foreignKeys.png" width="11px" height="12px" preserveAspectRatio="xMinYMin meet" x="750.75" y="-468.75"/>
<text text-anchor="start" x="765.75" y="-458.3" font-family="Helvetica,sans-Serif" font-size="11.00">omeka_configuration</text>
<polygon fill="#ffffff" stroke="none" points="745.75,-429.75 745.75,-451.75 989.75,-451.75 989.75,-429.75 745.75,-429.75"/>
<polygon fill="none" stroke="black" points="745.75,-429.75 745.75,-451.75 989.75,-451.75 989.75,-429.75 745.75,-429.75"/>
<image xlink:href="../../images/foreignKeys.png" width="11px" height="12px" preserveAspectRatio="xMinYMin meet" x="750.75" y="-446.75"/>
<text text-anchor="start" x="765.75" y="-436.3" font-family="Helvetica,sans-Serif" font-size="11.00">active_export_ftp_delivery_folder</text>
<polygon fill="none" stroke="black" points="745.75,-410.25 745.75,-429.75 989.75,-429.75 989.75,-410.25 745.75,-410.25"/>
<text text-anchor="start" x="748.75" y="-416.3" font-family="Helvetica,sans-Serif" font-size="11.00">...</text>
<polygon fill="#ffffff" stroke="none" points="745.75,-390.75 745.75,-410.25 835.58,-410.25 835.58,-390.75 745.75,-390.75"/>
<polygon fill="none" stroke="black" points="745.75,-390.75 745.75,-410.25 835.58,-410.25 835.58,-390.75 745.75,-390.75"/>
<text text-anchor="start" x="748.75" y="-396.8" font-family="Helvetica,sans-Serif" font-size="11.00">&lt; 13</text>
<polygon fill="#ffffff" stroke="none" points="835.58,-390.75 835.58,-410.25 906.67,-410.25 906.67,-390.75 835.58,-390.75"/>
<polygon fill="none" stroke="black" points="835.58,-390.75 835.58,-410.25 906.67,-410.25 906.67,-390.75 835.58,-390.75"/>
<text text-anchor="start" x="896.17" y="-396.8" font-family="Helvetica,sans-Serif" font-size="11.00"> &#160;</text>
<polygon fill="#ffffff" stroke="none" points="906.67,-390.75 906.67,-410.25 989.75,-410.25 989.75,-390.75 906.67,-390.75"/>
<polygon fill="none" stroke="black" points="906.67,-390.75 906.67,-410.25 989.75,-410.25 989.75,-390.75 906.67,-390.75"/>
<text text-anchor="start" x="967.25" y="-396.8" font-family="Helvetica,sans-Serif" font-size="11.00">7 &gt;</text>
</a>
</g>
</g>
<!-- lot_lot&#45;&gt;proj_project -->
<g id="edge3" class="edge">
<title>lot_lot:w&#45;&gt;proj_project:e</title>
<path fill="none" stroke="black" d="M1022.63,-596.62C989.26,-618.59 1047.45,-726.75 990.75,-726.75"/>
<polygon fill="black" stroke="black" points="1029.68,-594.81 1038.32,-596.32 1033.87,-593.74 1037.1,-592.92 1037.1,-592.92 1037.1,-592.92 1033.87,-593.74 1036.53,-589.34 1029.68,-594.81"/>
<ellipse fill="none" stroke="black" cx="1024.91" cy="-596.03" rx="3.2" ry="3.2"/>
</g>
<!-- proj_project&#45;&gt;conf_views_format_configuration -->
<g id="edge4" class="edge">
<title>proj_project:w&#45;&gt;conf_views_format_configuration:e</title>
<path fill="none" stroke="black" d="M729.44,-481.81C690.77,-464.73 714.42,-379 660.25,-379"/>
<polygon fill="black" stroke="black" points="736.56,-483.18 743.74,-488.22 740.82,-484 744.09,-484.62 744.09,-484.62 744.09,-484.62 740.82,-484 745.1,-481.15 736.56,-483.18"/>
<ellipse fill="none" stroke="black" cx="731.73" cy="-482.25" rx="3.2" ry="3.2"/>
</g>
<!-- proj_project&#45;&gt;lib_library -->
<g id="edge5" class="edge">
<title>proj_project:w&#45;&gt;lib_library:e</title>
<path fill="none" stroke="black" d="M729.19,-704.62C501.87,-700.64 430.58,-608.17 283,-426 248.87,-383.87 297.22,-310.75 243,-310.75"/>
<polygon fill="black" stroke="black" points="736.42,-704.68 744.38,-708.35 740.75,-704.72 744.08,-704.74 744.08,-704.74 744.08,-704.74 740.75,-704.72 744.45,-701.15 736.42,-704.68"/>
<ellipse fill="none" stroke="black" cx="731.5" cy="-704.64" rx="3.2" ry="3.2"/>
</g>
<!-- sto_stored_file -->
<g id="node5" class="node">
<title>sto_stored_file</title>
<g id="a_node5"><a xlink:href="../../tables/sto_stored_file.html" xlink:title="sto_stored_file" target="_top">
<polygon fill="#ffffff" stroke="none" points="786.25,-240.75 786.25,-369.25 949.25,-369.25 949.25,-240.75 786.25,-240.75"/>
<polygon fill="#f5f5f5" stroke="none" points="786.25,-345.75 786.25,-369.25 949.25,-369.25 949.25,-345.75 786.25,-345.75"/>
<polygon fill="none" stroke="black" points="786.25,-345.75 786.25,-369.25 949.25,-369.25 949.25,-345.75 786.25,-345.75"/>
<text text-anchor="start" x="791.25" y="-354.8" font-family="Helvetica,sans-Serif" font-weight="bold" font-size="11.00">sto_stored_file</text>
<text text-anchor="start" x="907.5" y="-353.8" font-family="Helvetica,sans-Serif" font-size="11.00">[table]</text>
<polygon fill="none" stroke="black" points="786.25,-323.75 786.25,-345.75 949.25,-345.75 949.25,-323.75 786.25,-323.75"/>
<image xlink:href="../../images/primaryKeys.png" width="11px" height="12px" preserveAspectRatio="xMinYMin meet" x="791.25" y="-340.75"/>
<text text-anchor="start" x="806.25" y="-330.3" font-family="Helvetica,sans-Serif" font-size="11.00">identifier</text>
<polygon fill="#ffffff" stroke="none" points="786.25,-301.75 786.25,-323.75 949.25,-323.75 949.25,-301.75 786.25,-301.75"/>
<polygon fill="none" stroke="black" points="786.25,-301.75 786.25,-323.75 949.25,-323.75 949.25,-301.75 786.25,-301.75"/>
<image xlink:href="../../images/foreignKeys.png" width="11px" height="12px" preserveAspectRatio="xMinYMin meet" x="791.25" y="-318.75"/>
<text text-anchor="start" x="806.25" y="-308.3" font-family="Helvetica,sans-Serif" font-size="11.00">page</text>
<polygon fill="#ffffff" stroke="none" points="786.25,-279.75 786.25,-301.75 949.25,-301.75 949.25,-279.75 786.25,-279.75"/>
<polygon fill="none" stroke="black" points="786.25,-279.75 786.25,-301.75 949.25,-301.75 949.25,-279.75 786.25,-279.75"/>
<image xlink:href="../../images/foreignKeys.png" width="11px" height="12px" preserveAspectRatio="xMinYMin meet" x="791.25" y="-296.75"/>
<text text-anchor="start" x="806.25" y="-286.3" font-family="Helvetica,sans-Serif" font-size="11.00">format_configuration</text>
<polygon fill="none" stroke="black" points="786.25,-260.25 786.25,-279.75 949.25,-279.75 949.25,-260.25 786.25,-260.25"/>
<text text-anchor="start" x="789.25" y="-266.3" font-family="Helvetica,sans-Serif" font-size="11.00">...</text>
<polygon fill="#ffffff" stroke="none" points="786.25,-240.75 786.25,-260.25 848.58,-260.25 848.58,-240.75 786.25,-240.75"/>
<polygon fill="none" stroke="black" points="786.25,-240.75 786.25,-260.25 848.58,-260.25 848.58,-240.75 786.25,-240.75"/>
<text text-anchor="start" x="789.25" y="-246.8" font-family="Helvetica,sans-Serif" font-size="11.00">&lt; 2</text>
<polygon fill="#ffffff" stroke="none" points="848.58,-240.75 848.58,-260.25 898.92,-260.25 898.92,-240.75 848.58,-240.75"/>
<polygon fill="none" stroke="black" points="848.58,-240.75 848.58,-260.25 898.92,-260.25 898.92,-240.75 848.58,-240.75"/>
<text text-anchor="start" x="888.42" y="-246.8" font-family="Helvetica,sans-Serif" font-size="11.00"> &#160;</text>
<polygon fill="#ffffff" stroke="none" points="898.92,-240.75 898.92,-260.25 949.25,-260.25 949.25,-240.75 898.92,-240.75"/>
<polygon fill="none" stroke="black" points="898.92,-240.75 898.92,-260.25 949.25,-260.25 949.25,-240.75 898.92,-240.75"/>
<text text-anchor="start" x="938.75" y="-246.8" font-family="Helvetica,sans-Serif" font-size="11.00"> &#160;</text>
</a>
</g>
</g>
<!-- sto_stored_file&#45;&gt;conf_views_format_configuration -->
<g id="edge6" class="edge">
<title>sto_stored_file:w&#45;&gt;conf_views_format_configuration:e</title>
<path fill="none" stroke="black" d="M769.69,-292.51C718.54,-304.95 722.54,-379 660.25,-379"/>
<polygon fill="black" stroke="black" points="776.97,-291.69 785.32,-294.36 781.28,-291.2 784.59,-290.83 784.59,-290.83 784.59,-290.83 781.28,-291.2 784.51,-287.21 776.97,-291.69"/>
<ellipse fill="none" stroke="black" cx="772.08" cy="-292.24" rx="3.2" ry="3.2"/>
</g>
</g>
</svg>
