<?xml version="1.0" encoding="UTF-8" standalone="no"?>
<!DOCTYPE svg PUBLIC "-//W3C//DTD SVG 1.1//EN"
 "http://www.w3.org/Graphics/SVG/1.1/DTD/svg11.dtd">
<!-- Generated by graphviz version 12.2.0 (0)
 -->
<!-- Title: oneDegreeRelationshipsDiagram Pages: 1 -->
<svg width="378pt" height="186pt"
 viewBox="0.00 0.00 378.38 185.50" xmlns="http://www.w3.org/2000/svg" xmlns:xlink="http://www.w3.org/1999/xlink">
<g id="graph0" class="graph" transform="scale(1 1) rotate(0) translate(4 181.5)">
<title>oneDegreeRelationshipsDiagram</title>
<polygon fill="#ffffff" stroke="none" points="-4,4 -4,-181.5 374.38,-181.5 374.38,4 -4,4"/>
<text text-anchor="middle" x="79.25" y="-7.05" font-family="Helvetica,sans-Serif" font-size="11.00">Generated by SchemaSpy</text>
<!-- DATABASECHANGELOGLOCK -->
<g id="node1" class="node">
<title>DATABASECHANGELOGLOCK</title>
<g id="a_node1"><a xlink:href="../../tables/DATABASECHANGELOGLOCK.html" xlink:title="DATABASECHANGELOGLOCK" target="_top">
<polygon fill="#ffffff" stroke="none" points="8,-38.5 8,-173.5 362.38,-173.5 362.38,-38.5 8,-38.5"/>
<polygon fill="#f5f5f5" stroke="none" points="10,-148 10,-171.5 360.38,-171.5 360.38,-148 10,-148"/>
<polygon fill="none" stroke="black" points="10,-148 10,-171.5 360.38,-171.5 360.38,-148 10,-148"/>
<text text-anchor="start" x="15" y="-157.05" font-family="Helvetica,sans-Serif" font-weight="bold" font-size="11.00">DATABASECHANGELOGLOCK</text>
<text text-anchor="start" x="318.62" y="-156.05" font-family="Helvetica,sans-Serif" font-size="11.00">[table]</text>
<polygon fill="none" stroke="black" points="10,-126 10,-148 222,-148 222,-126 10,-126"/>
<image xlink:href="../../images/primaryKeys.png" width="11px" height="12px" preserveAspectRatio="xMinYMin meet" x="15" y="-143"/>
<text text-anchor="start" x="30" y="-132.55" font-family="Helvetica,sans-Serif" font-size="11.00">ID</text>
<polygon fill="none" stroke="black" points="222,-126 222,-148 330.19,-148 330.19,-126 222,-126"/>
<text text-anchor="start" x="225" y="-133.3" font-family="Helvetica,sans-Serif" font-size="11.00">int[10]</text>
<polygon fill="none" stroke="black" points="10,-104 10,-126 222,-126 222,-104 10,-104"/>
<text text-anchor="start" x="30" y="-110.55" font-family="Helvetica,sans-Serif" font-size="11.00">LOCKED</text>
<polygon fill="none" stroke="black" points="222,-104 222,-126 330.19,-126 330.19,-104 222,-104"/>
<text text-anchor="start" x="225" y="-111.3" font-family="Helvetica,sans-Serif" font-size="11.00">bit[1]</text>
<polygon fill="none" stroke="black" points="10,-82 10,-104 222,-104 222,-82 10,-82"/>
<text text-anchor="start" x="30" y="-88.55" font-family="Helvetica,sans-Serif" font-size="11.00">LOCKGRANTED</text>
<polygon fill="none" stroke="black" points="222,-82 222,-104 330.19,-104 330.19,-82 222,-82"/>
<text text-anchor="start" x="225" y="-89.3" font-family="Helvetica,sans-Serif" font-size="11.00">datetime[19]</text>
<polygon fill="none" stroke="black" points="10,-60 10,-82 222,-82 222,-60 10,-60"/>
<text text-anchor="start" x="30" y="-66.55" font-family="Helvetica,sans-Serif" font-size="11.00">LOCKEDBY</text>
<polygon fill="none" stroke="black" points="222,-60 222,-82 330.19,-82 330.19,-60 222,-60"/>
<text text-anchor="start" x="225" y="-67.3" font-family="Helvetica,sans-Serif" font-size="11.00">varchar[255]</text>
<polygon fill="#ffffff" stroke="none" points="10,-40.5 10,-60 122,-60 122,-40.5 10,-40.5"/>
<polygon fill="none" stroke="black" points="10,-40.5 10,-60 122,-60 122,-40.5 10,-40.5"/>
<text text-anchor="start" x="13" y="-46.55" font-family="Helvetica,sans-Serif" font-size="11.00">&lt; 0</text>
<polygon fill="#ffffff" stroke="none" points="122,-40.5 122,-60 222,-60 222,-40.5 122,-40.5"/>
<polygon fill="none" stroke="black" points="122,-40.5 122,-60 222,-60 222,-40.5 122,-40.5"/>
<text text-anchor="start" x="211.5" y="-46.55" font-family="Helvetica,sans-Serif" font-size="11.00"> &#160;</text>
<polygon fill="#ffffff" stroke="none" points="222,-40.5 222,-60 330.19,-60 330.19,-40.5 222,-40.5"/>
<polygon fill="none" stroke="black" points="222,-40.5 222,-60 330.19,-60 330.19,-40.5 222,-40.5"/>
<text text-anchor="start" x="307.69" y="-46.55" font-family="Helvetica,sans-Serif" font-size="11.00">0 &gt;</text>
<polygon fill="none" stroke="black" stroke-width="2" points="9,-39.5 9,-172.5 361.38,-172.5 361.38,-39.5 9,-39.5"/>
</a>
</g>
</g>
</g>
</svg>
