<?xml version="1.0" encoding="UTF-8" standalone="no"?>
<!DOCTYPE svg PUBLIC "-//W3C//DTD SVG 1.1//EN"
 "http://www.w3.org/Graphics/SVG/1.1/DTD/svg11.dtd">
<!-- Generated by graphviz version 12.2.0 (0)
 -->
<!-- Title: oneDegreeRelationshipsDiagram Pages: 1 -->
<svg width="556pt" height="450pt"
 viewBox="0.00 0.00 555.75 449.50" xmlns="http://www.w3.org/2000/svg" xmlns:xlink="http://www.w3.org/1999/xlink">
<g id="graph0" class="graph" transform="scale(1 1) rotate(0) translate(4 445.5)">
<title>oneDegreeRelationshipsDiagram</title>
<polygon fill="#ffffff" stroke="none" points="-4,4 -4,-445.5 551.75,-445.5 551.75,4 -4,4"/>
<text text-anchor="middle" x="79.25" y="-7.05" font-family="Helvetica,sans-Serif" font-size="11.00">Generated by SchemaSpy</text>
<!-- del_slip_config -->
<g id="node1" class="node">
<title>del_slip_config</title>
<g id="a_node1"><a xlink:href="../../tables/del_slip_config.html" xlink:title="del_slip_config" target="_top">
<polygon fill="#ffffff" stroke="none" points="291,-38.5 291,-437.5 539.75,-437.5 539.75,-38.5 291,-38.5"/>
<polygon fill="#f5f5f5" stroke="none" points="293,-412 293,-435.5 537.75,-435.5 537.75,-412 293,-412"/>
<polygon fill="none" stroke="black" points="293,-412 293,-435.5 537.75,-435.5 537.75,-412 293,-412"/>
<text text-anchor="start" x="298" y="-421.05" font-family="Helvetica,sans-Serif" font-weight="bold" font-size="11.00">del_slip_config</text>
<text text-anchor="start" x="496" y="-420.05" font-family="Helvetica,sans-Serif" font-size="11.00">[table]</text>
<polygon fill="none" stroke="black" points="293,-390 293,-412 441,-412 441,-390 293,-390"/>
<image xlink:href="../../images/primaryKeys.png" width="11px" height="12px" preserveAspectRatio="xMinYMin meet" x="298" y="-407"/>
<text text-anchor="start" x="313" y="-396.55" font-family="Helvetica,sans-Serif" font-size="11.00">identifier</text>
<polygon fill="none" stroke="black" points="441,-390 441,-412 533.25,-412 533.25,-390 441,-390"/>
<text text-anchor="start" x="444" y="-397.3" font-family="Helvetica,sans-Serif" font-size="11.00">varchar[191]</text>
<polygon fill="#ffffff" stroke="none" points="293,-368 293,-390 441,-390 441,-368 293,-368"/>
<polygon fill="none" stroke="black" points="293,-368 293,-390 441,-390 441,-368 293,-368"/>
<image xlink:href="../../images/foreignKeys.png" width="11px" height="12px" preserveAspectRatio="xMinYMin meet" x="298" y="-385"/>
<text text-anchor="start" x="313" y="-374.55" font-family="Helvetica,sans-Serif" font-size="11.00">library</text>
<polygon fill="none" stroke="black" points="441,-368 441,-390 533.25,-390 533.25,-368 441,-368"/>
<text text-anchor="start" x="444" y="-375.3" font-family="Helvetica,sans-Serif" font-size="11.00">varchar[191]</text>
<polygon fill="none" stroke="black" points="293,-346 293,-368 441,-368 441,-346 293,-346"/>
<text text-anchor="start" x="313" y="-352.55" font-family="Helvetica,sans-Serif" font-size="11.00">pgcn_id</text>
<polygon fill="none" stroke="black" points="441,-346 441,-368 533.25,-368 533.25,-346 441,-346"/>
<text text-anchor="start" x="444" y="-353.3" font-family="Helvetica,sans-Serif" font-size="11.00">bit[1]</text>
<polygon fill="none" stroke="black" points="293,-324 293,-346 441,-346 441,-324 293,-324"/>
<text text-anchor="start" x="313" y="-330.55" font-family="Helvetica,sans-Serif" font-size="11.00">lot</text>
<polygon fill="none" stroke="black" points="441,-324 441,-346 533.25,-346 533.25,-324 441,-324"/>
<text text-anchor="start" x="444" y="-331.3" font-family="Helvetica,sans-Serif" font-size="11.00">bit[1]</text>
<polygon fill="none" stroke="black" points="293,-302 293,-324 441,-324 441,-302 293,-302"/>
<text text-anchor="start" x="313" y="-308.55" font-family="Helvetica,sans-Serif" font-size="11.00">train</text>
<polygon fill="none" stroke="black" points="441,-302 441,-324 533.25,-324 533.25,-302 441,-302"/>
<text text-anchor="start" x="444" y="-309.3" font-family="Helvetica,sans-Serif" font-size="11.00">bit[1]</text>
<polygon fill="none" stroke="black" points="293,-280 293,-302 441,-302 441,-280 293,-280"/>
<text text-anchor="start" x="313" y="-286.55" font-family="Helvetica,sans-Serif" font-size="11.00">radical</text>
<polygon fill="none" stroke="black" points="441,-280 441,-302 533.25,-302 533.25,-280 441,-280"/>
<text text-anchor="start" x="444" y="-287.3" font-family="Helvetica,sans-Serif" font-size="11.00">bit[1]</text>
<polygon fill="none" stroke="black" points="293,-258 293,-280 441,-280 441,-258 293,-258"/>
<text text-anchor="start" x="313" y="-264.55" font-family="Helvetica,sans-Serif" font-size="11.00">title</text>
<polygon fill="none" stroke="black" points="441,-258 441,-280 533.25,-280 533.25,-258 441,-258"/>
<text text-anchor="start" x="444" y="-265.3" font-family="Helvetica,sans-Serif" font-size="11.00">bit[1]</text>
<polygon fill="none" stroke="black" points="293,-236 293,-258 441,-258 441,-236 293,-236"/>
<text text-anchor="start" x="313" y="-242.55" font-family="Helvetica,sans-Serif" font-size="11.00">nb_pages</text>
<polygon fill="none" stroke="black" points="441,-236 441,-258 533.25,-258 533.25,-236 441,-236"/>
<text text-anchor="start" x="444" y="-243.3" font-family="Helvetica,sans-Serif" font-size="11.00">bit[1]</text>
<polygon fill="none" stroke="black" points="293,-214 293,-236 441,-236 441,-214 293,-214"/>
<text text-anchor="start" x="313" y="-220.55" font-family="Helvetica,sans-Serif" font-size="11.00">date</text>
<polygon fill="none" stroke="black" points="441,-214 441,-236 533.25,-236 533.25,-214 441,-214"/>
<text text-anchor="start" x="444" y="-221.3" font-family="Helvetica,sans-Serif" font-size="11.00">bit[1]</text>
<polygon fill="none" stroke="black" points="293,-192 293,-214 441,-214 441,-192 293,-192"/>
<text text-anchor="start" x="313" y="-198.55" font-family="Helvetica,sans-Serif" font-size="11.00">separator</text>
<polygon fill="none" stroke="black" points="441,-192 441,-214 533.25,-214 533.25,-192 441,-192"/>
<text text-anchor="start" x="444" y="-199.3" font-family="Helvetica,sans-Serif" font-size="11.00">varchar[255]</text>
<polygon fill="none" stroke="black" points="293,-170 293,-192 441,-192 441,-170 293,-170"/>
<text text-anchor="start" x="313" y="-176.55" font-family="Helvetica,sans-Serif" font-size="11.00">encoding</text>
<polygon fill="none" stroke="black" points="441,-170 441,-192 533.25,-192 533.25,-170 441,-170"/>
<text text-anchor="start" x="444" y="-177.3" font-family="Helvetica,sans-Serif" font-size="11.00">varchar[255]</text>
<polygon fill="none" stroke="black" points="293,-148 293,-170 441,-170 441,-148 293,-148"/>
<text text-anchor="start" x="313" y="-154.55" font-family="Helvetica,sans-Serif" font-size="11.00">version</text>
<polygon fill="none" stroke="black" points="441,-148 441,-170 533.25,-170 533.25,-148 441,-148"/>
<text text-anchor="start" x="444" y="-155.3" font-family="Helvetica,sans-Serif" font-size="11.00">bigint[19]</text>
<polygon fill="none" stroke="black" points="293,-126 293,-148 441,-148 441,-126 293,-126"/>
<text text-anchor="start" x="313" y="-132.55" font-family="Helvetica,sans-Serif" font-size="11.00">created_by</text>
<polygon fill="none" stroke="black" points="441,-126 441,-148 533.25,-148 533.25,-126 441,-126"/>
<text text-anchor="start" x="444" y="-133.3" font-family="Helvetica,sans-Serif" font-size="11.00">varchar[191]</text>
<polygon fill="none" stroke="black" points="293,-104 293,-126 441,-126 441,-104 293,-104"/>
<text text-anchor="start" x="313" y="-110.55" font-family="Helvetica,sans-Serif" font-size="11.00">last_modified_by</text>
<polygon fill="none" stroke="black" points="441,-104 441,-126 533.25,-126 533.25,-104 441,-104"/>
<text text-anchor="start" x="444" y="-111.3" font-family="Helvetica,sans-Serif" font-size="11.00">varchar[191]</text>
<polygon fill="none" stroke="black" points="293,-82 293,-104 441,-104 441,-82 293,-82"/>
<text text-anchor="start" x="313" y="-88.55" font-family="Helvetica,sans-Serif" font-size="11.00">created_date</text>
<polygon fill="none" stroke="black" points="441,-82 441,-104 533.25,-104 533.25,-82 441,-82"/>
<text text-anchor="start" x="444" y="-89.3" font-family="Helvetica,sans-Serif" font-size="11.00">timestamp[19]</text>
<polygon fill="none" stroke="black" points="293,-60 293,-82 441,-82 441,-60 293,-60"/>
<text text-anchor="start" x="313" y="-66.55" font-family="Helvetica,sans-Serif" font-size="11.00">last_modified_date</text>
<polygon fill="none" stroke="black" points="441,-60 441,-82 533.25,-82 533.25,-60 441,-60"/>
<text text-anchor="start" x="444" y="-67.3" font-family="Helvetica,sans-Serif" font-size="11.00">timestamp[19]</text>
<polygon fill="#ffffff" stroke="none" points="293,-40.5 293,-60 373,-60 373,-40.5 293,-40.5"/>
<polygon fill="none" stroke="black" points="293,-40.5 293,-60 373,-60 373,-40.5 293,-40.5"/>
<text text-anchor="start" x="296" y="-46.55" font-family="Helvetica,sans-Serif" font-size="11.00">&lt; 1</text>
<polygon fill="#ffffff" stroke="none" points="373,-40.5 373,-60 441,-60 441,-40.5 373,-40.5"/>
<polygon fill="none" stroke="black" points="373,-40.5 373,-60 441,-60 441,-40.5 373,-40.5"/>
<text text-anchor="start" x="430.5" y="-46.55" font-family="Helvetica,sans-Serif" font-size="11.00"> &#160;</text>
<polygon fill="#ffffff" stroke="none" points="441,-40.5 441,-60 533.25,-60 533.25,-40.5 441,-40.5"/>
<polygon fill="none" stroke="black" points="441,-40.5 441,-60 533.25,-60 533.25,-40.5 441,-40.5"/>
<text text-anchor="start" x="510.75" y="-46.55" font-family="Helvetica,sans-Serif" font-size="11.00">0 &gt;</text>
<polygon fill="none" stroke="black" stroke-width="2" points="292,-39.5 292,-436.5 538.75,-436.5 538.75,-39.5 292,-39.5"/>
</a>
</g>
</g>
<!-- lib_library -->
<g id="node2" class="node">
<title>lib_library</title>
<g id="a_node2"><a xlink:href="../../tables/lib_library.html" xlink:title="lib_library" target="_top">
<polygon fill="#ffffff" stroke="none" points="8,-196.75 8,-413.25 242,-413.25 242,-196.75 8,-196.75"/>
<polygon fill="#f5f5f5" stroke="none" points="8,-389.75 8,-413.25 242,-413.25 242,-389.75 8,-389.75"/>
<polygon fill="none" stroke="black" points="8,-389.75 8,-413.25 242,-413.25 242,-389.75 8,-389.75"/>
<text text-anchor="start" x="13" y="-398.8" font-family="Helvetica,sans-Serif" font-weight="bold" font-size="11.00">lib_library</text>
<text text-anchor="start" x="200.25" y="-397.8" font-family="Helvetica,sans-Serif" font-size="11.00">[table]</text>
<polygon fill="none" stroke="black" points="8,-367.75 8,-389.75 242,-389.75 242,-367.75 8,-367.75"/>
<image xlink:href="../../images/primaryKeys.png" width="11px" height="12px" preserveAspectRatio="xMinYMin meet" x="13" y="-384.75"/>
<text text-anchor="start" x="28" y="-374.3" font-family="Helvetica,sans-Serif" font-size="11.00">identifier</text>
<polygon fill="#ffffff" stroke="none" points="8,-345.75 8,-367.75 242,-367.75 242,-345.75 8,-345.75"/>
<polygon fill="none" stroke="black" points="8,-345.75 8,-367.75 242,-367.75 242,-345.75 8,-345.75"/>
<image xlink:href="../../images/foreignKeys.png" width="11px" height="12px" preserveAspectRatio="xMinYMin meet" x="13" y="-362.75"/>
<text text-anchor="start" x="28" y="-352.3" font-family="Helvetica,sans-Serif" font-size="11.00">address</text>
<polygon fill="#ffffff" stroke="none" points="8,-323.75 8,-345.75 242,-345.75 242,-323.75 8,-323.75"/>
<polygon fill="none" stroke="black" points="8,-323.75 8,-345.75 242,-345.75 242,-323.75 8,-323.75"/>
<image xlink:href="../../images/foreignKeys.png" width="11px" height="12px" preserveAspectRatio="xMinYMin meet" x="13" y="-340.75"/>
<text text-anchor="start" x="28" y="-330.3" font-family="Helvetica,sans-Serif" font-size="11.00">active_configuration_ftp</text>
<polygon fill="#ffffff" stroke="none" points="8,-301.75 8,-323.75 242,-323.75 242,-301.75 8,-301.75"/>
<polygon fill="none" stroke="black" points="8,-301.75 8,-323.75 242,-323.75 242,-301.75 8,-301.75"/>
<image xlink:href="../../images/foreignKeys.png" width="11px" height="12px" preserveAspectRatio="xMinYMin meet" x="13" y="-318.75"/>
<text text-anchor="start" x="28" y="-308.3" font-family="Helvetica,sans-Serif" font-size="11.00">active_configuration_check</text>
<polygon fill="#ffffff" stroke="none" points="8,-279.75 8,-301.75 242,-301.75 242,-279.75 8,-279.75"/>
<polygon fill="none" stroke="black" points="8,-279.75 8,-301.75 242,-301.75 242,-279.75 8,-279.75"/>
<image xlink:href="../../images/foreignKeys.png" width="11px" height="12px" preserveAspectRatio="xMinYMin meet" x="13" y="-296.75"/>
<text text-anchor="start" x="28" y="-286.3" font-family="Helvetica,sans-Serif" font-size="11.00">role</text>
<polygon fill="#ffffff" stroke="none" points="8,-257.75 8,-279.75 242,-279.75 242,-257.75 8,-257.75"/>
<polygon fill="none" stroke="black" points="8,-257.75 8,-279.75 242,-279.75 242,-257.75 8,-257.75"/>
<image xlink:href="../../images/foreignKeys.png" width="11px" height="12px" preserveAspectRatio="xMinYMin meet" x="13" y="-274.75"/>
<text text-anchor="start" x="28" y="-264.3" font-family="Helvetica,sans-Serif" font-size="11.00">active_configuration_export_ftp</text>
<polygon fill="#ffffff" stroke="none" points="8,-235.75 8,-257.75 242,-257.75 242,-235.75 8,-235.75"/>
<polygon fill="none" stroke="black" points="8,-235.75 8,-257.75 242,-257.75 242,-235.75 8,-235.75"/>
<image xlink:href="../../images/foreignKeys.png" width="11px" height="12px" preserveAspectRatio="xMinYMin meet" x="13" y="-252.75"/>
<text text-anchor="start" x="28" y="-242.3" font-family="Helvetica,sans-Serif" font-size="11.00">active_configuration_ocr_lang</text>
<polygon fill="none" stroke="black" points="8,-216.25 8,-235.75 242,-235.75 242,-216.25 8,-216.25"/>
<text text-anchor="start" x="11" y="-222.3" font-family="Helvetica,sans-Serif" font-size="11.00">...</text>
<polygon fill="#ffffff" stroke="none" points="8,-196.75 8,-216.25 87.75,-216.25 87.75,-196.75 8,-196.75"/>
<polygon fill="none" stroke="black" points="8,-196.75 8,-216.25 87.75,-216.25 87.75,-196.75 8,-196.75"/>
<text text-anchor="start" x="11" y="-202.8" font-family="Helvetica,sans-Serif" font-size="11.00">&lt; 6</text>
<polygon fill="#ffffff" stroke="none" points="87.75,-196.75 87.75,-216.25 155.5,-216.25 155.5,-196.75 87.75,-196.75"/>
<polygon fill="none" stroke="black" points="87.75,-196.75 87.75,-216.25 155.5,-216.25 155.5,-196.75 87.75,-196.75"/>
<text text-anchor="start" x="145" y="-202.8" font-family="Helvetica,sans-Serif" font-size="11.00"> &#160;</text>
<polygon fill="#ffffff" stroke="none" points="155.5,-196.75 155.5,-216.25 242,-216.25 242,-196.75 155.5,-196.75"/>
<polygon fill="none" stroke="black" points="155.5,-196.75 155.5,-216.25 242,-216.25 242,-196.75 155.5,-196.75"/>
<text text-anchor="start" x="212.75" y="-202.8" font-family="Helvetica,sans-Serif" font-size="11.00">27 &gt;</text>
</a>
</g>
</g>
<!-- del_slip_config&#45;&gt;lib_library -->
<g id="edge1" class="edge">
<title>del_slip_config:w&#45;&gt;lib_library:e</title>
<path fill="none" stroke="black" d="M276.42,-378.95C265.71,-378.88 258.48,-378.75 243,-378.75"/>
<polygon fill="black" stroke="black" points="283.67,-378.97 291.65,-382.6 288,-378.99 291.33,-379 291.33,-379 291.33,-379 288,-378.99 291.68,-375.4 283.67,-378.97"/>
<ellipse fill="none" stroke="black" cx="278.75" cy="-378.96" rx="3.2" ry="3.2"/>
</g>
</g>
</svg>
