<?xml version="1.0" encoding="UTF-8" standalone="no"?>
<!DOCTYPE svg PUBLIC "-//W3C//DTD SVG 1.1//EN"
 "http://www.w3.org/Graphics/SVG/1.1/DTD/svg11.dtd">
<!-- Generated by graphviz version 12.2.0 (0)
 -->
<!-- Title: twoDegreesRelationshipsDiagram Pages: 1 -->
<svg width="638pt" height="406pt"
 viewBox="0.00 0.00 638.00 405.50" xmlns="http://www.w3.org/2000/svg" xmlns:xlink="http://www.w3.org/1999/xlink">
<g id="graph0" class="graph" transform="scale(1 1) rotate(0) translate(4 401.5)">
<title>twoDegreesRelationshipsDiagram</title>
<polygon fill="#ffffff" stroke="none" points="-4,4 -4,-401.5 634,-401.5 634,4 -4,4"/>
<text text-anchor="middle" x="79.25" y="-7.05" font-family="Helvetica,sans-Serif" font-size="11.00">Generated by SchemaSpy</text>
<!-- del_slip -->
<g id="node1" class="node">
<title>del_slip</title>
<g id="a_node1"><a xlink:href="../../tables/del_slip.html" xlink:title="del_slip" target="_top">
<polygon fill="#ffffff" stroke="none" points="184.75,-262.75 184.75,-369.25 332.75,-369.25 332.75,-262.75 184.75,-262.75"/>
<polygon fill="#f5f5f5" stroke="none" points="184.75,-345.75 184.75,-369.25 332.75,-369.25 332.75,-345.75 184.75,-345.75"/>
<polygon fill="none" stroke="black" points="184.75,-345.75 184.75,-369.25 332.75,-369.25 332.75,-345.75 184.75,-345.75"/>
<text text-anchor="start" x="189.75" y="-354.8" font-family="Helvetica,sans-Serif" font-weight="bold" font-size="11.00">del_slip</text>
<text text-anchor="start" x="291" y="-353.8" font-family="Helvetica,sans-Serif" font-size="11.00">[table]</text>
<polygon fill="none" stroke="black" points="184.75,-323.75 184.75,-345.75 332.75,-345.75 332.75,-323.75 184.75,-323.75"/>
<image xlink:href="../../images/primaryKeys.png" width="11px" height="12px" preserveAspectRatio="xMinYMin meet" x="189.75" y="-340.75"/>
<text text-anchor="start" x="204.75" y="-330.3" font-family="Helvetica,sans-Serif" font-size="11.00">identifier</text>
<polygon fill="#ffffff" stroke="none" points="184.75,-301.75 184.75,-323.75 332.75,-323.75 332.75,-301.75 184.75,-301.75"/>
<polygon fill="none" stroke="black" points="184.75,-301.75 184.75,-323.75 332.75,-323.75 332.75,-301.75 184.75,-301.75"/>
<image xlink:href="../../images/foreignKeys.png" width="11px" height="12px" preserveAspectRatio="xMinYMin meet" x="189.75" y="-318.75"/>
<text text-anchor="start" x="204.75" y="-308.3" font-family="Helvetica,sans-Serif" font-size="11.00">delivery</text>
<polygon fill="none" stroke="black" points="184.75,-282.25 184.75,-301.75 332.75,-301.75 332.75,-282.25 184.75,-282.25"/>
<text text-anchor="start" x="187.75" y="-288.3" font-family="Helvetica,sans-Serif" font-size="11.00">...</text>
<polygon fill="#ffffff" stroke="none" points="184.75,-262.75 184.75,-282.25 238.08,-282.25 238.08,-262.75 184.75,-262.75"/>
<polygon fill="none" stroke="black" points="184.75,-262.75 184.75,-282.25 238.08,-282.25 238.08,-262.75 184.75,-262.75"/>
<text text-anchor="start" x="187.75" y="-268.8" font-family="Helvetica,sans-Serif" font-size="11.00">&lt; 1</text>
<polygon fill="#ffffff" stroke="none" points="238.08,-262.75 238.08,-282.25 279.42,-282.25 279.42,-262.75 238.08,-262.75"/>
<polygon fill="none" stroke="black" points="238.08,-262.75 238.08,-282.25 279.42,-282.25 279.42,-262.75 238.08,-262.75"/>
<text text-anchor="start" x="268.92" y="-268.8" font-family="Helvetica,sans-Serif" font-size="11.00"> &#160;</text>
<polygon fill="#ffffff" stroke="none" points="279.42,-262.75 279.42,-282.25 332.75,-282.25 332.75,-262.75 279.42,-262.75"/>
<polygon fill="none" stroke="black" points="279.42,-262.75 279.42,-282.25 332.75,-282.25 332.75,-262.75 279.42,-262.75"/>
<text text-anchor="start" x="310.25" y="-268.8" font-family="Helvetica,sans-Serif" font-size="11.00">1 &gt;</text>
</a>
</g>
</g>
<!-- del_delivery -->
<g id="node2" class="node">
<title>del_delivery</title>
<g id="a_node2"><a xlink:href="../../tables/del_delivery.html" xlink:title="del_delivery" target="_top">
<polygon fill="#ffffff" stroke="none" points="8,-283.75 8,-346.25 135.75,-346.25 135.75,-283.75 8,-283.75"/>
<polygon fill="#f5f5f5" stroke="none" points="8,-322.75 8,-346.25 135.75,-346.25 135.75,-322.75 8,-322.75"/>
<polygon fill="none" stroke="black" points="8,-322.75 8,-346.25 135.75,-346.25 135.75,-322.75 8,-322.75"/>
<text text-anchor="start" x="13" y="-331.8" font-family="Helvetica,sans-Serif" font-weight="bold" font-size="11.00">del_delivery</text>
<text text-anchor="start" x="94" y="-330.8" font-family="Helvetica,sans-Serif" font-size="11.00">[table]</text>
<polygon fill="none" stroke="black" points="8,-303.25 8,-322.75 135.75,-322.75 135.75,-303.25 8,-303.25"/>
<text text-anchor="start" x="11" y="-309.3" font-family="Helvetica,sans-Serif" font-size="11.00">...</text>
<polygon fill="#ffffff" stroke="none" points="8,-283.75 8,-303.25 54.58,-303.25 54.58,-283.75 8,-283.75"/>
<polygon fill="none" stroke="black" points="8,-283.75 8,-303.25 54.58,-303.25 54.58,-283.75 8,-283.75"/>
<text text-anchor="start" x="11" y="-289.8" font-family="Helvetica,sans-Serif" font-size="11.00">&lt; 2</text>
<polygon fill="#ffffff" stroke="none" points="54.58,-283.75 54.58,-303.25 89.17,-303.25 89.17,-283.75 54.58,-283.75"/>
<polygon fill="none" stroke="black" points="54.58,-283.75 54.58,-303.25 89.17,-303.25 89.17,-283.75 54.58,-283.75"/>
<text text-anchor="start" x="78.67" y="-289.8" font-family="Helvetica,sans-Serif" font-size="11.00"> &#160;</text>
<polygon fill="#ffffff" stroke="none" points="89.17,-283.75 89.17,-303.25 135.75,-303.25 135.75,-283.75 89.17,-283.75"/>
<polygon fill="none" stroke="black" points="89.17,-283.75 89.17,-303.25 135.75,-303.25 135.75,-283.75 89.17,-283.75"/>
<text text-anchor="start" x="113.25" y="-289.8" font-family="Helvetica,sans-Serif" font-size="11.00">4 &gt;</text>
</a>
</g>
</g>
<!-- del_slip&#45;&gt;del_delivery -->
<g id="edge1" class="edge">
<title>del_slip:w&#45;&gt;del_delivery:e</title>
<path fill="none" stroke="black" d="M168.13,-312.81C158.22,-312.88 151.27,-313 136.75,-313"/>
<polygon fill="black" stroke="black" points="175.42,-312.78 183.43,-316.35 179.75,-312.76 183.08,-312.75 183.08,-312.75 183.08,-312.75 179.75,-312.76 183.4,-309.15 175.42,-312.78"/>
<ellipse fill="none" stroke="black" cx="170.5" cy="-312.8" rx="3.2" ry="3.2"/>
</g>
<!-- del_slip_line -->
<g id="node3" class="node">
<title>del_slip_line</title>
<g id="a_node3"><a xlink:href="../../tables/del_slip_line.html" xlink:title="del_slip_line" target="_top">
<polygon fill="#ffffff" stroke="none" points="381.75,-38.5 381.75,-393.5 622,-393.5 622,-38.5 381.75,-38.5"/>
<polygon fill="#f5f5f5" stroke="none" points="383.75,-368 383.75,-391.5 620,-391.5 620,-368 383.75,-368"/>
<polygon fill="none" stroke="black" points="383.75,-368 383.75,-391.5 620,-391.5 620,-368 383.75,-368"/>
<text text-anchor="start" x="388.75" y="-377.05" font-family="Helvetica,sans-Serif" font-weight="bold" font-size="11.00">del_slip_line</text>
<text text-anchor="start" x="578.25" y="-376.05" font-family="Helvetica,sans-Serif" font-size="11.00">[table]</text>
<polygon fill="none" stroke="black" points="383.75,-346 383.75,-368 531.75,-368 531.75,-346 383.75,-346"/>
<image xlink:href="../../images/primaryKeys.png" width="11px" height="12px" preserveAspectRatio="xMinYMin meet" x="388.75" y="-363"/>
<text text-anchor="start" x="403.75" y="-352.55" font-family="Helvetica,sans-Serif" font-size="11.00">identifier</text>
<polygon fill="none" stroke="black" points="531.75,-346 531.75,-368 619.75,-368 619.75,-346 531.75,-346"/>
<text text-anchor="start" x="534.75" y="-353.3" font-family="Helvetica,sans-Serif" font-size="11.00">varchar[191]</text>
<polygon fill="#ffffff" stroke="none" points="383.75,-324 383.75,-346 531.75,-346 531.75,-324 383.75,-324"/>
<polygon fill="none" stroke="black" points="383.75,-324 383.75,-346 531.75,-346 531.75,-324 383.75,-324"/>
<image xlink:href="../../images/foreignKeys.png" width="11px" height="12px" preserveAspectRatio="xMinYMin meet" x="388.75" y="-341"/>
<text text-anchor="start" x="403.75" y="-330.55" font-family="Helvetica,sans-Serif" font-size="11.00">slip</text>
<polygon fill="none" stroke="black" points="531.75,-324 531.75,-346 619.75,-346 619.75,-324 531.75,-324"/>
<text text-anchor="start" x="534.75" y="-331.3" font-family="Helvetica,sans-Serif" font-size="11.00">varchar[191]</text>
<polygon fill="none" stroke="black" points="383.75,-302 383.75,-324 531.75,-324 531.75,-302 383.75,-302"/>
<text text-anchor="start" x="403.75" y="-308.55" font-family="Helvetica,sans-Serif" font-size="11.00">pgcn_id</text>
<polygon fill="none" stroke="black" points="531.75,-302 531.75,-324 619.75,-324 619.75,-302 531.75,-302"/>
<text text-anchor="start" x="534.75" y="-309.3" font-family="Helvetica,sans-Serif" font-size="11.00">varchar[255]</text>
<polygon fill="none" stroke="black" points="383.75,-280 383.75,-302 531.75,-302 531.75,-280 383.75,-280"/>
<text text-anchor="start" x="403.75" y="-286.55" font-family="Helvetica,sans-Serif" font-size="11.00">lot</text>
<polygon fill="none" stroke="black" points="531.75,-280 531.75,-302 619.75,-302 619.75,-280 531.75,-280"/>
<text text-anchor="start" x="534.75" y="-287.3" font-family="Helvetica,sans-Serif" font-size="11.00">varchar[255]</text>
<polygon fill="none" stroke="black" points="383.75,-258 383.75,-280 531.75,-280 531.75,-258 383.75,-258"/>
<text text-anchor="start" x="403.75" y="-264.55" font-family="Helvetica,sans-Serif" font-size="11.00">train</text>
<polygon fill="none" stroke="black" points="531.75,-258 531.75,-280 619.75,-280 619.75,-258 531.75,-258"/>
<text text-anchor="start" x="534.75" y="-265.3" font-family="Helvetica,sans-Serif" font-size="11.00">varchar[255]</text>
<polygon fill="none" stroke="black" points="383.75,-236 383.75,-258 531.75,-258 531.75,-236 383.75,-236"/>
<text text-anchor="start" x="403.75" y="-242.55" font-family="Helvetica,sans-Serif" font-size="11.00">radical</text>
<polygon fill="none" stroke="black" points="531.75,-236 531.75,-258 619.75,-258 619.75,-236 531.75,-236"/>
<text text-anchor="start" x="534.75" y="-243.3" font-family="Helvetica,sans-Serif" font-size="11.00">varchar[255]</text>
<polygon fill="none" stroke="black" points="383.75,-214 383.75,-236 531.75,-236 531.75,-214 383.75,-214"/>
<text text-anchor="start" x="403.75" y="-220.55" font-family="Helvetica,sans-Serif" font-size="11.00">title</text>
<polygon fill="none" stroke="black" points="531.75,-214 531.75,-236 619.75,-236 619.75,-214 531.75,-214"/>
<text text-anchor="start" x="534.75" y="-221.3" font-family="Helvetica,sans-Serif" font-size="11.00">varchar[255]</text>
<polygon fill="none" stroke="black" points="383.75,-192 383.75,-214 531.75,-214 531.75,-192 383.75,-192"/>
<text text-anchor="start" x="403.75" y="-198.55" font-family="Helvetica,sans-Serif" font-size="11.00">nb_pages</text>
<polygon fill="none" stroke="black" points="531.75,-192 531.75,-214 619.75,-214 619.75,-192 531.75,-192"/>
<text text-anchor="start" x="534.75" y="-199.3" font-family="Helvetica,sans-Serif" font-size="11.00">varchar[255]</text>
<polygon fill="none" stroke="black" points="383.75,-170 383.75,-192 531.75,-192 531.75,-170 383.75,-170"/>
<text text-anchor="start" x="403.75" y="-176.55" font-family="Helvetica,sans-Serif" font-size="11.00">date</text>
<polygon fill="none" stroke="black" points="531.75,-170 531.75,-192 619.75,-192 619.75,-170 531.75,-170"/>
<text text-anchor="start" x="534.75" y="-177.3" font-family="Helvetica,sans-Serif" font-size="11.00">varchar[255]</text>
<polygon fill="none" stroke="black" points="383.75,-148 383.75,-170 531.75,-170 531.75,-148 383.75,-148"/>
<text text-anchor="start" x="403.75" y="-154.55" font-family="Helvetica,sans-Serif" font-size="11.00">version</text>
<polygon fill="none" stroke="black" points="531.75,-148 531.75,-170 619.75,-170 619.75,-148 531.75,-148"/>
<text text-anchor="start" x="534.75" y="-155.3" font-family="Helvetica,sans-Serif" font-size="11.00">bigint[19]</text>
<polygon fill="none" stroke="black" points="383.75,-126 383.75,-148 531.75,-148 531.75,-126 383.75,-126"/>
<text text-anchor="start" x="403.75" y="-132.55" font-family="Helvetica,sans-Serif" font-size="11.00">created_by</text>
<polygon fill="none" stroke="black" points="531.75,-126 531.75,-148 619.75,-148 619.75,-126 531.75,-126"/>
<text text-anchor="start" x="534.75" y="-133.3" font-family="Helvetica,sans-Serif" font-size="11.00">varchar[191]</text>
<polygon fill="none" stroke="black" points="383.75,-104 383.75,-126 531.75,-126 531.75,-104 383.75,-104"/>
<text text-anchor="start" x="403.75" y="-110.55" font-family="Helvetica,sans-Serif" font-size="11.00">last_modified_by</text>
<polygon fill="none" stroke="black" points="531.75,-104 531.75,-126 619.75,-126 619.75,-104 531.75,-104"/>
<text text-anchor="start" x="534.75" y="-111.3" font-family="Helvetica,sans-Serif" font-size="11.00">varchar[191]</text>
<polygon fill="none" stroke="black" points="383.75,-82 383.75,-104 531.75,-104 531.75,-82 383.75,-82"/>
<text text-anchor="start" x="403.75" y="-88.55" font-family="Helvetica,sans-Serif" font-size="11.00">created_date</text>
<polygon fill="none" stroke="black" points="531.75,-82 531.75,-104 619.75,-104 619.75,-82 531.75,-82"/>
<text text-anchor="start" x="534.75" y="-89.3" font-family="Helvetica,sans-Serif" font-size="11.00">timestamp[19]</text>
<polygon fill="none" stroke="black" points="383.75,-60 383.75,-82 531.75,-82 531.75,-60 383.75,-60"/>
<text text-anchor="start" x="403.75" y="-66.55" font-family="Helvetica,sans-Serif" font-size="11.00">last_modified_date</text>
<polygon fill="none" stroke="black" points="531.75,-60 531.75,-82 619.75,-82 619.75,-60 531.75,-60"/>
<text text-anchor="start" x="534.75" y="-67.3" font-family="Helvetica,sans-Serif" font-size="11.00">timestamp[19]</text>
<polygon fill="#ffffff" stroke="none" points="383.75,-40.5 383.75,-60 463.75,-60 463.75,-40.5 383.75,-40.5"/>
<polygon fill="none" stroke="black" points="383.75,-40.5 383.75,-60 463.75,-60 463.75,-40.5 383.75,-40.5"/>
<text text-anchor="start" x="386.75" y="-46.55" font-family="Helvetica,sans-Serif" font-size="11.00">&lt; 1</text>
<polygon fill="#ffffff" stroke="none" points="463.75,-40.5 463.75,-60 531.75,-60 531.75,-40.5 463.75,-40.5"/>
<polygon fill="none" stroke="black" points="463.75,-40.5 463.75,-60 531.75,-60 531.75,-40.5 463.75,-40.5"/>
<text text-anchor="start" x="521.25" y="-46.55" font-family="Helvetica,sans-Serif" font-size="11.00"> &#160;</text>
<polygon fill="#ffffff" stroke="none" points="531.75,-40.5 531.75,-60 619.75,-60 619.75,-40.5 531.75,-40.5"/>
<polygon fill="none" stroke="black" points="531.75,-40.5 531.75,-60 619.75,-60 619.75,-40.5 531.75,-40.5"/>
<text text-anchor="start" x="597.25" y="-46.55" font-family="Helvetica,sans-Serif" font-size="11.00">0 &gt;</text>
<polygon fill="none" stroke="black" stroke-width="2" points="382.75,-39.5 382.75,-392.5 621,-392.5 621,-39.5 382.75,-39.5"/>
</a>
</g>
</g>
<!-- del_slip_line&#45;&gt;del_slip -->
<g id="edge2" class="edge">
<title>del_slip_line:w&#45;&gt;del_slip:e</title>
<path fill="none" stroke="black" d="M367.17,-334.95C356.46,-334.88 349.23,-334.75 333.75,-334.75"/>
<polygon fill="black" stroke="black" points="374.42,-334.97 382.4,-338.6 378.75,-334.99 382.08,-335 382.08,-335 382.08,-335 378.75,-334.99 382.43,-331.4 374.42,-334.97"/>
<ellipse fill="none" stroke="black" cx="369.5" cy="-334.96" rx="3.2" ry="3.2"/>
</g>
</g>
</svg>
