<?xml version="1.0" encoding="UTF-8" standalone="no"?>
<!DOCTYPE svg PUBLIC "-//W3C//DTD SVG 1.1//EN"
 "http://www.w3.org/Graphics/SVG/1.1/DTD/svg11.dtd">
<!-- Generated by graphviz version 12.2.0 (0)
 -->
<!-- Title: oneDegreeRelationshipsDiagram Pages: 1 -->
<svg width="708pt" height="271pt"
 viewBox="0.00 0.00 707.75 271.25" xmlns="http://www.w3.org/2000/svg" xmlns:xlink="http://www.w3.org/1999/xlink">
<g id="graph0" class="graph" transform="scale(1 1) rotate(0) translate(4 267.25)">
<title>oneDegreeRelationshipsDiagram</title>
<polygon fill="#ffffff" stroke="none" points="-4,4 -4,-267.25 703.75,-267.25 703.75,4 -4,4"/>
<text text-anchor="middle" x="79.25" y="-7.05" font-family="Helvetica,sans-Serif" font-size="11.00">Generated by SchemaSpy</text>
<!-- del_slip -->
<g id="node1" class="node">
<title>del_slip</title>
<g id="a_node1"><a xlink:href="../../tables/del_slip.html" xlink:title="del_slip" target="_top">
<polygon fill="#ffffff" stroke="none" points="255,-38.5 255,-239.5 494.75,-239.5 494.75,-38.5 255,-38.5"/>
<polygon fill="#f5f5f5" stroke="none" points="257,-214 257,-237.5 492.75,-237.5 492.75,-214 257,-214"/>
<polygon fill="none" stroke="black" points="257,-214 257,-237.5 492.75,-237.5 492.75,-214 257,-214"/>
<text text-anchor="start" x="262" y="-223.05" font-family="Helvetica,sans-Serif" font-weight="bold" font-size="11.00">del_slip</text>
<text text-anchor="start" x="451" y="-222.05" font-family="Helvetica,sans-Serif" font-size="11.00">[table]</text>
<polygon fill="none" stroke="black" points="257,-192 257,-214 405,-214 405,-192 257,-192"/>
<image xlink:href="../../images/primaryKeys.png" width="11px" height="12px" preserveAspectRatio="xMinYMin meet" x="262" y="-209"/>
<text text-anchor="start" x="277" y="-198.55" font-family="Helvetica,sans-Serif" font-size="11.00">identifier</text>
<polygon fill="none" stroke="black" points="405,-192 405,-214 492.75,-214 492.75,-192 405,-192"/>
<text text-anchor="start" x="408" y="-199.3" font-family="Helvetica,sans-Serif" font-size="11.00">varchar[191]</text>
<polygon fill="#ffffff" stroke="none" points="257,-170 257,-192 405,-192 405,-170 257,-170"/>
<polygon fill="none" stroke="black" points="257,-170 257,-192 405,-192 405,-170 257,-170"/>
<image xlink:href="../../images/foreignKeys.png" width="11px" height="12px" preserveAspectRatio="xMinYMin meet" x="262" y="-187"/>
<text text-anchor="start" x="277" y="-176.55" font-family="Helvetica,sans-Serif" font-size="11.00">delivery</text>
<polygon fill="none" stroke="black" points="405,-170 405,-192 492.75,-192 492.75,-170 405,-170"/>
<text text-anchor="start" x="408" y="-177.3" font-family="Helvetica,sans-Serif" font-size="11.00">varchar[191]</text>
<polygon fill="none" stroke="black" points="257,-148 257,-170 405,-170 405,-148 257,-148"/>
<text text-anchor="start" x="277" y="-154.55" font-family="Helvetica,sans-Serif" font-size="11.00">version</text>
<polygon fill="none" stroke="black" points="405,-148 405,-170 492.75,-170 492.75,-148 405,-148"/>
<text text-anchor="start" x="408" y="-155.3" font-family="Helvetica,sans-Serif" font-size="11.00">bigint[19]</text>
<polygon fill="none" stroke="black" points="257,-126 257,-148 405,-148 405,-126 257,-126"/>
<text text-anchor="start" x="277" y="-132.55" font-family="Helvetica,sans-Serif" font-size="11.00">created_by</text>
<polygon fill="none" stroke="black" points="405,-126 405,-148 492.75,-148 492.75,-126 405,-126"/>
<text text-anchor="start" x="408" y="-133.3" font-family="Helvetica,sans-Serif" font-size="11.00">varchar[191]</text>
<polygon fill="none" stroke="black" points="257,-104 257,-126 405,-126 405,-104 257,-104"/>
<text text-anchor="start" x="277" y="-110.55" font-family="Helvetica,sans-Serif" font-size="11.00">last_modified_by</text>
<polygon fill="none" stroke="black" points="405,-104 405,-126 492.75,-126 492.75,-104 405,-104"/>
<text text-anchor="start" x="408" y="-111.3" font-family="Helvetica,sans-Serif" font-size="11.00">varchar[191]</text>
<polygon fill="none" stroke="black" points="257,-82 257,-104 405,-104 405,-82 257,-82"/>
<text text-anchor="start" x="277" y="-88.55" font-family="Helvetica,sans-Serif" font-size="11.00">created_date</text>
<polygon fill="none" stroke="black" points="405,-82 405,-104 492.75,-104 492.75,-82 405,-82"/>
<text text-anchor="start" x="408" y="-89.3" font-family="Helvetica,sans-Serif" font-size="11.00">timestamp[19]</text>
<polygon fill="none" stroke="black" points="257,-60 257,-82 405,-82 405,-60 257,-60"/>
<text text-anchor="start" x="277" y="-66.55" font-family="Helvetica,sans-Serif" font-size="11.00">last_modified_date</text>
<polygon fill="none" stroke="black" points="405,-60 405,-82 492.75,-82 492.75,-60 405,-60"/>
<text text-anchor="start" x="408" y="-67.3" font-family="Helvetica,sans-Serif" font-size="11.00">timestamp[19]</text>
<polygon fill="#ffffff" stroke="none" points="257,-40.5 257,-60 337,-60 337,-40.5 257,-40.5"/>
<polygon fill="none" stroke="black" points="257,-40.5 257,-60 337,-60 337,-40.5 257,-40.5"/>
<text text-anchor="start" x="260" y="-46.55" font-family="Helvetica,sans-Serif" font-size="11.00">&lt; 1</text>
<polygon fill="#ffffff" stroke="none" points="337,-40.5 337,-60 405,-60 405,-40.5 337,-40.5"/>
<polygon fill="none" stroke="black" points="337,-40.5 337,-60 405,-60 405,-40.5 337,-40.5"/>
<text text-anchor="start" x="394.5" y="-46.55" font-family="Helvetica,sans-Serif" font-size="11.00"> &#160;</text>
<polygon fill="#ffffff" stroke="none" points="405,-40.5 405,-60 492.75,-60 492.75,-40.5 405,-40.5"/>
<polygon fill="none" stroke="black" points="405,-40.5 405,-60 492.75,-60 492.75,-40.5 405,-40.5"/>
<text text-anchor="start" x="470.25" y="-46.55" font-family="Helvetica,sans-Serif" font-size="11.00">1 &gt;</text>
<polygon fill="none" stroke="black" stroke-width="2" points="256,-39.5 256,-238.5 493.75,-238.5 493.75,-39.5 256,-39.5"/>
</a>
</g>
</g>
<!-- del_delivery -->
<g id="node2" class="node">
<title>del_delivery</title>
<g id="a_node2"><a xlink:href="../../tables/del_delivery.html" xlink:title="del_delivery" target="_top">
<polygon fill="#ffffff" stroke="none" points="8,-86.75 8,-215.25 206,-215.25 206,-86.75 8,-86.75"/>
<polygon fill="#f5f5f5" stroke="none" points="8,-191.75 8,-215.25 206,-215.25 206,-191.75 8,-191.75"/>
<polygon fill="none" stroke="black" points="8,-191.75 8,-215.25 206,-215.25 206,-191.75 8,-191.75"/>
<text text-anchor="start" x="13" y="-200.8" font-family="Helvetica,sans-Serif" font-weight="bold" font-size="11.00">del_delivery</text>
<text text-anchor="start" x="164.25" y="-199.8" font-family="Helvetica,sans-Serif" font-size="11.00">[table]</text>
<polygon fill="none" stroke="black" points="8,-169.75 8,-191.75 206,-191.75 206,-169.75 8,-169.75"/>
<image xlink:href="../../images/primaryKeys.png" width="11px" height="12px" preserveAspectRatio="xMinYMin meet" x="13" y="-186.75"/>
<text text-anchor="start" x="28" y="-176.3" font-family="Helvetica,sans-Serif" font-size="11.00">identifier</text>
<polygon fill="#ffffff" stroke="none" points="8,-147.75 8,-169.75 206,-169.75 206,-147.75 8,-147.75"/>
<polygon fill="none" stroke="black" points="8,-147.75 8,-169.75 206,-169.75 206,-147.75 8,-147.75"/>
<image xlink:href="../../images/foreignKeys.png" width="11px" height="12px" preserveAspectRatio="xMinYMin meet" x="13" y="-164.75"/>
<text text-anchor="start" x="28" y="-154.3" font-family="Helvetica,sans-Serif" font-size="11.00">lot_identifier</text>
<polygon fill="#ffffff" stroke="none" points="8,-125.75 8,-147.75 206,-147.75 206,-125.75 8,-125.75"/>
<polygon fill="none" stroke="black" points="8,-125.75 8,-147.75 206,-147.75 206,-125.75 8,-125.75"/>
<image xlink:href="../../images/foreignKeys.png" width="11px" height="12px" preserveAspectRatio="xMinYMin meet" x="13" y="-142.75"/>
<text text-anchor="start" x="28" y="-132.3" font-family="Helvetica,sans-Serif" font-size="11.00">multi_lots_delivery</text>
<polygon fill="none" stroke="black" points="8,-106.25 8,-125.75 206,-125.75 206,-106.25 8,-106.25"/>
<text text-anchor="start" x="11" y="-112.3" font-family="Helvetica,sans-Serif" font-size="11.00">...</text>
<polygon fill="#ffffff" stroke="none" points="8,-86.75 8,-106.25 78,-106.25 78,-86.75 8,-86.75"/>
<polygon fill="none" stroke="black" points="8,-86.75 8,-106.25 78,-106.25 78,-86.75 8,-86.75"/>
<text text-anchor="start" x="11" y="-92.8" font-family="Helvetica,sans-Serif" font-size="11.00">&lt; 2</text>
<polygon fill="#ffffff" stroke="none" points="78,-86.75 78,-106.25 136,-106.25 136,-86.75 78,-86.75"/>
<polygon fill="none" stroke="black" points="78,-86.75 78,-106.25 136,-106.25 136,-86.75 78,-86.75"/>
<text text-anchor="start" x="125.5" y="-92.8" font-family="Helvetica,sans-Serif" font-size="11.00"> &#160;</text>
<polygon fill="#ffffff" stroke="none" points="136,-86.75 136,-106.25 206,-106.25 206,-86.75 136,-86.75"/>
<polygon fill="none" stroke="black" points="136,-86.75 136,-106.25 206,-106.25 206,-86.75 136,-86.75"/>
<text text-anchor="start" x="183.5" y="-92.8" font-family="Helvetica,sans-Serif" font-size="11.00">4 &gt;</text>
</a>
</g>
</g>
<!-- del_slip&#45;&gt;del_delivery -->
<g id="edge1" class="edge">
<title>del_slip:w&#45;&gt;del_delivery:e</title>
<path fill="none" stroke="black" d="M240.42,-180.95C229.71,-180.88 222.48,-180.75 207,-180.75"/>
<polygon fill="black" stroke="black" points="247.67,-180.97 255.65,-184.6 252,-180.99 255.33,-181 255.33,-181 255.33,-181 252,-180.99 255.68,-177.4 247.67,-180.97"/>
<ellipse fill="none" stroke="black" cx="242.75" cy="-180.96" rx="3.2" ry="3.2"/>
</g>
<!-- del_slip_line -->
<g id="node3" class="node">
<title>del_slip_line</title>
<g id="a_node3"><a xlink:href="../../tables/del_slip_line.html" xlink:title="del_slip_line" target="_top">
<polygon fill="#ffffff" stroke="none" points="543.75,-152.75 543.75,-259.25 691.75,-259.25 691.75,-152.75 543.75,-152.75"/>
<polygon fill="#f5f5f5" stroke="none" points="543.75,-235.75 543.75,-259.25 691.75,-259.25 691.75,-235.75 543.75,-235.75"/>
<polygon fill="none" stroke="black" points="543.75,-235.75 543.75,-259.25 691.75,-259.25 691.75,-235.75 543.75,-235.75"/>
<text text-anchor="start" x="548.75" y="-244.8" font-family="Helvetica,sans-Serif" font-weight="bold" font-size="11.00">del_slip_line</text>
<text text-anchor="start" x="650" y="-243.8" font-family="Helvetica,sans-Serif" font-size="11.00">[table]</text>
<polygon fill="none" stroke="black" points="543.75,-213.75 543.75,-235.75 691.75,-235.75 691.75,-213.75 543.75,-213.75"/>
<image xlink:href="../../images/primaryKeys.png" width="11px" height="12px" preserveAspectRatio="xMinYMin meet" x="548.75" y="-230.75"/>
<text text-anchor="start" x="563.75" y="-220.3" font-family="Helvetica,sans-Serif" font-size="11.00">identifier</text>
<polygon fill="#ffffff" stroke="none" points="543.75,-191.75 543.75,-213.75 691.75,-213.75 691.75,-191.75 543.75,-191.75"/>
<polygon fill="none" stroke="black" points="543.75,-191.75 543.75,-213.75 691.75,-213.75 691.75,-191.75 543.75,-191.75"/>
<image xlink:href="../../images/foreignKeys.png" width="11px" height="12px" preserveAspectRatio="xMinYMin meet" x="548.75" y="-208.75"/>
<text text-anchor="start" x="563.75" y="-198.3" font-family="Helvetica,sans-Serif" font-size="11.00">slip</text>
<polygon fill="none" stroke="black" points="543.75,-172.25 543.75,-191.75 691.75,-191.75 691.75,-172.25 543.75,-172.25"/>
<text text-anchor="start" x="546.75" y="-178.3" font-family="Helvetica,sans-Serif" font-size="11.00">...</text>
<polygon fill="#ffffff" stroke="none" points="543.75,-152.75 543.75,-172.25 601.08,-172.25 601.08,-152.75 543.75,-152.75"/>
<polygon fill="none" stroke="black" points="543.75,-152.75 543.75,-172.25 601.08,-172.25 601.08,-152.75 543.75,-152.75"/>
<text text-anchor="start" x="546.75" y="-158.8" font-family="Helvetica,sans-Serif" font-size="11.00">&lt; 1</text>
<polygon fill="#ffffff" stroke="none" points="601.08,-152.75 601.08,-172.25 646.42,-172.25 646.42,-152.75 601.08,-152.75"/>
<polygon fill="none" stroke="black" points="601.08,-152.75 601.08,-172.25 646.42,-172.25 646.42,-152.75 601.08,-152.75"/>
<text text-anchor="start" x="635.92" y="-158.8" font-family="Helvetica,sans-Serif" font-size="11.00"> &#160;</text>
<polygon fill="#ffffff" stroke="none" points="646.42,-152.75 646.42,-172.25 691.75,-172.25 691.75,-152.75 646.42,-152.75"/>
<polygon fill="none" stroke="black" points="646.42,-152.75 646.42,-172.25 691.75,-172.25 691.75,-152.75 646.42,-152.75"/>
<text text-anchor="start" x="681.25" y="-158.8" font-family="Helvetica,sans-Serif" font-size="11.00"> &#160;</text>
</a>
</g>
</g>
<!-- del_slip_line&#45;&gt;del_slip -->
<g id="edge2" class="edge">
<title>del_slip_line:w&#45;&gt;del_slip:e</title>
<path fill="none" stroke="black" d="M527.17,-202.8C516.46,-202.87 509.23,-203 493.75,-203"/>
<polygon fill="black" stroke="black" points="534.42,-202.78 542.43,-206.35 538.75,-202.76 542.08,-202.75 542.08,-202.75 542.08,-202.75 538.75,-202.76 542.4,-199.15 534.42,-202.78"/>
<ellipse fill="none" stroke="black" cx="529.5" cy="-202.79" rx="3.2" ry="3.2"/>
</g>
</g>
</svg>
