<?xml version="1.0" encoding="UTF-8" standalone="no"?>
<!DOCTYPE svg PUBLIC "-//W3C//DTD SVG 1.1//EN"
 "http://www.w3.org/Graphics/SVG/1.1/DTD/svg11.dtd">
<!-- Generated by graphviz version 12.2.0 (0)
 -->
<!-- Title: twoDegreesRelationshipsDiagram Pages: 1 -->
<svg width="511pt" height="861pt"
 viewBox="0.00 0.00 511.00 861.00" xmlns="http://www.w3.org/2000/svg" xmlns:xlink="http://www.w3.org/1999/xlink">
<g id="graph0" class="graph" transform="scale(1 1) rotate(0) translate(4 857)">
<title>twoDegreesRelationshipsDiagram</title>
<polygon fill="#ffffff" stroke="none" points="-4,4 -4,-857 507,-857 507,4 -4,4"/>
<text text-anchor="middle" x="79.25" y="-7.05" font-family="Helvetica,sans-Serif" font-size="11.00">Generated by SchemaSpy</text>
<!-- doc_archive_collection -->
<g id="node1" class="node">
<title>doc_archive_collection</title>
<g id="a_node1"><a xlink:href="../../tables/doc_archive_collection.html" xlink:title="doc_archive_collection" target="_top">
<polygon fill="#ffffff" stroke="none" points="258.5,-786.5 258.5,-849 456.25,-849 456.25,-786.5 258.5,-786.5"/>
<polygon fill="#f5f5f5" stroke="none" points="258.5,-825.5 258.5,-849 456.25,-849 456.25,-825.5 258.5,-825.5"/>
<polygon fill="none" stroke="black" points="258.5,-825.5 258.5,-849 456.25,-849 456.25,-825.5 258.5,-825.5"/>
<text text-anchor="start" x="263.5" y="-834.55" font-family="Helvetica,sans-Serif" font-weight="bold" font-size="11.00">doc_archive_collection</text>
<text text-anchor="start" x="414.5" y="-833.55" font-family="Helvetica,sans-Serif" font-size="11.00">[table]</text>
<polygon fill="none" stroke="black" points="258.5,-806 258.5,-825.5 456.25,-825.5 456.25,-806 258.5,-806"/>
<text text-anchor="start" x="261.5" y="-812.05" font-family="Helvetica,sans-Serif" font-size="11.00">...</text>
<polygon fill="#ffffff" stroke="none" points="258.5,-786.5 258.5,-806 332.42,-806 332.42,-786.5 258.5,-786.5"/>
<polygon fill="none" stroke="black" points="258.5,-786.5 258.5,-806 332.42,-806 332.42,-786.5 258.5,-786.5"/>
<text text-anchor="start" x="261.5" y="-792.55" font-family="Helvetica,sans-Serif" font-size="11.00">&lt; 1</text>
<polygon fill="#ffffff" stroke="none" points="332.42,-786.5 332.42,-806 394.33,-806 394.33,-786.5 332.42,-786.5"/>
<polygon fill="none" stroke="black" points="332.42,-786.5 332.42,-806 394.33,-806 394.33,-786.5 332.42,-786.5"/>
<text text-anchor="start" x="383.83" y="-792.55" font-family="Helvetica,sans-Serif" font-size="11.00"> &#160;</text>
<polygon fill="#ffffff" stroke="none" points="394.33,-786.5 394.33,-806 456.25,-806 456.25,-786.5 394.33,-786.5"/>
<polygon fill="none" stroke="black" points="394.33,-786.5 394.33,-806 456.25,-806 456.25,-786.5 394.33,-786.5"/>
<text text-anchor="start" x="445.75" y="-792.55" font-family="Helvetica,sans-Serif" font-size="11.00"> &#160;</text>
</a>
</g>
</g>
<!-- doc_archive_item -->
<g id="node2" class="node">
<title>doc_archive_item</title>
<g id="a_node2"><a xlink:href="../../tables/doc_archive_item.html" xlink:title="doc_archive_item" target="_top">
<polygon fill="#ffffff" stroke="none" points="8,-472.5 8,-557 170.75,-557 170.75,-472.5 8,-472.5"/>
<polygon fill="#f5f5f5" stroke="none" points="8,-533.5 8,-557 170.75,-557 170.75,-533.5 8,-533.5"/>
<polygon fill="none" stroke="black" points="8,-533.5 8,-557 170.75,-557 170.75,-533.5 8,-533.5"/>
<text text-anchor="start" x="13" y="-542.55" font-family="Helvetica,sans-Serif" font-weight="bold" font-size="11.00">doc_archive_item</text>
<text text-anchor="start" x="129" y="-541.55" font-family="Helvetica,sans-Serif" font-size="11.00">[table]</text>
<polygon fill="none" stroke="black" points="8,-511.5 8,-533.5 170.75,-533.5 170.75,-511.5 8,-511.5"/>
<image xlink:href="../../images/primaryKeys.png" width="11px" height="12px" preserveAspectRatio="xMinYMin meet" x="13" y="-528.5"/>
<text text-anchor="start" x="35.38" y="-518.05" font-family="Helvetica,sans-Serif" font-size="11.00">identifier</text>
<polygon fill="none" stroke="black" points="8,-492 8,-511.5 170.75,-511.5 170.75,-492 8,-492"/>
<text text-anchor="start" x="11" y="-498.05" font-family="Helvetica,sans-Serif" font-size="11.00">...</text>
<polygon fill="#ffffff" stroke="none" points="8,-472.5 8,-492 58.25,-492 58.25,-472.5 8,-472.5"/>
<polygon fill="none" stroke="black" points="8,-472.5 8,-492 58.25,-492 58.25,-472.5 8,-472.5"/>
<text text-anchor="start" x="11" y="-478.55" font-family="Helvetica,sans-Serif" font-size="11.00"> &#160;</text>
<polygon fill="#ffffff" stroke="none" points="58.25,-472.5 58.25,-492 108.5,-492 108.5,-472.5 58.25,-472.5"/>
<polygon fill="none" stroke="black" points="58.25,-472.5 58.25,-492 108.5,-492 108.5,-472.5 58.25,-472.5"/>
<text text-anchor="start" x="98" y="-478.55" font-family="Helvetica,sans-Serif" font-size="11.00"> &#160;</text>
<polygon fill="#ffffff" stroke="none" points="108.5,-472.5 108.5,-492 170.75,-492 170.75,-472.5 108.5,-472.5"/>
<polygon fill="none" stroke="black" points="108.5,-472.5 108.5,-492 170.75,-492 170.75,-472.5 108.5,-472.5"/>
<text text-anchor="start" x="148.25" y="-478.55" font-family="Helvetica,sans-Serif" font-size="11.00">8 &gt;</text>
</a>
</g>
</g>
<!-- doc_archive_collection&#45;&gt;doc_archive_item -->
<g id="edge1" class="edge">
<title>doc_archive_collection:w&#45;&gt;doc_archive_item:e</title>
<path fill="none" stroke="black" d="M242.09,-813.34C227.54,-807.96 221.85,-794.04 211.75,-775.75 184.21,-725.87 228.73,-522.5 171.75,-522.5"/>
<polygon fill="black" stroke="black" points="249.27,-814.46 256.61,-819.25 253.55,-815.13 256.84,-815.65 256.84,-815.65 256.84,-815.65 253.55,-815.13 257.73,-812.14 249.27,-814.46"/>
<ellipse fill="none" stroke="black" cx="244.41" cy="-813.7" rx="3.2" ry="3.2"/>
</g>
<!-- doc_archive_contributor -->
<g id="node3" class="node">
<title>doc_archive_contributor</title>
<g id="a_node3"><a xlink:href="../../tables/doc_archive_contributor.html" xlink:title="doc_archive_contributor" target="_top">
<polygon fill="#ffffff" stroke="none" points="253,-702.5 253,-765 461.75,-765 461.75,-702.5 253,-702.5"/>
<polygon fill="#f5f5f5" stroke="none" points="253,-741.5 253,-765 461.75,-765 461.75,-741.5 253,-741.5"/>
<polygon fill="none" stroke="black" points="253,-741.5 253,-765 461.75,-765 461.75,-741.5 253,-741.5"/>
<text text-anchor="start" x="258" y="-750.55" font-family="Helvetica,sans-Serif" font-weight="bold" font-size="11.00">doc_archive_contributor</text>
<text text-anchor="start" x="420" y="-749.55" font-family="Helvetica,sans-Serif" font-size="11.00">[table]</text>
<polygon fill="none" stroke="black" points="253,-722 253,-741.5 461.75,-741.5 461.75,-722 253,-722"/>
<text text-anchor="start" x="256" y="-728.05" font-family="Helvetica,sans-Serif" font-size="11.00">...</text>
<polygon fill="#ffffff" stroke="none" points="253,-702.5 253,-722 330.58,-722 330.58,-702.5 253,-702.5"/>
<polygon fill="none" stroke="black" points="253,-702.5 253,-722 330.58,-722 330.58,-702.5 253,-702.5"/>
<text text-anchor="start" x="256" y="-708.55" font-family="Helvetica,sans-Serif" font-size="11.00">&lt; 1</text>
<polygon fill="#ffffff" stroke="none" points="330.58,-702.5 330.58,-722 396.17,-722 396.17,-702.5 330.58,-702.5"/>
<polygon fill="none" stroke="black" points="330.58,-702.5 330.58,-722 396.17,-722 396.17,-702.5 330.58,-702.5"/>
<text text-anchor="start" x="385.67" y="-708.55" font-family="Helvetica,sans-Serif" font-size="11.00"> &#160;</text>
<polygon fill="#ffffff" stroke="none" points="396.17,-702.5 396.17,-722 461.75,-722 461.75,-702.5 396.17,-702.5"/>
<polygon fill="none" stroke="black" points="396.17,-702.5 396.17,-722 461.75,-722 461.75,-702.5 396.17,-702.5"/>
<text text-anchor="start" x="451.25" y="-708.55" font-family="Helvetica,sans-Serif" font-size="11.00"> &#160;</text>
</a>
</g>
</g>
<!-- doc_archive_contributor&#45;&gt;doc_archive_item -->
<g id="edge2" class="edge">
<title>doc_archive_contributor:w&#45;&gt;doc_archive_item:e</title>
<path fill="none" stroke="black" d="M236.8,-728.59C224.82,-722.5 220.99,-708.26 211.75,-691.75 174,-624.3 249.04,-522.5 171.75,-522.5"/>
<polygon fill="black" stroke="black" points="243.84,-730.06 250.94,-735.21 248.08,-730.94 251.35,-731.61 251.35,-731.61 251.35,-731.61 248.08,-730.94 252.4,-728.16 243.84,-730.06"/>
<ellipse fill="none" stroke="black" cx="239.02" cy="-729.06" rx="3.2" ry="3.2"/>
</g>
<!-- doc_archive_coverage -->
<g id="node4" class="node">
<title>doc_archive_coverage</title>
<g id="a_node4"><a xlink:href="../../tables/doc_archive_coverage.html" xlink:title="doc_archive_coverage" target="_top">
<polygon fill="#ffffff" stroke="none" points="260.5,-618.5 260.5,-681 454.25,-681 454.25,-618.5 260.5,-618.5"/>
<polygon fill="#f5f5f5" stroke="none" points="260.5,-657.5 260.5,-681 454.25,-681 454.25,-657.5 260.5,-657.5"/>
<polygon fill="none" stroke="black" points="260.5,-657.5 260.5,-681 454.25,-681 454.25,-657.5 260.5,-657.5"/>
<text text-anchor="start" x="265.5" y="-666.55" font-family="Helvetica,sans-Serif" font-weight="bold" font-size="11.00">doc_archive_coverage</text>
<text text-anchor="start" x="412.5" y="-665.55" font-family="Helvetica,sans-Serif" font-size="11.00">[table]</text>
<polygon fill="none" stroke="black" points="260.5,-638 260.5,-657.5 454.25,-657.5 454.25,-638 260.5,-638"/>
<text text-anchor="start" x="263.5" y="-644.05" font-family="Helvetica,sans-Serif" font-size="11.00">...</text>
<polygon fill="#ffffff" stroke="none" points="260.5,-618.5 260.5,-638 333.08,-638 333.08,-618.5 260.5,-618.5"/>
<polygon fill="none" stroke="black" points="260.5,-618.5 260.5,-638 333.08,-638 333.08,-618.5 260.5,-618.5"/>
<text text-anchor="start" x="263.5" y="-624.55" font-family="Helvetica,sans-Serif" font-size="11.00">&lt; 1</text>
<polygon fill="#ffffff" stroke="none" points="333.08,-618.5 333.08,-638 393.67,-638 393.67,-618.5 333.08,-618.5"/>
<polygon fill="none" stroke="black" points="333.08,-618.5 333.08,-638 393.67,-638 393.67,-618.5 333.08,-618.5"/>
<text text-anchor="start" x="383.17" y="-624.55" font-family="Helvetica,sans-Serif" font-size="11.00"> &#160;</text>
<polygon fill="#ffffff" stroke="none" points="393.67,-618.5 393.67,-638 454.25,-638 454.25,-618.5 393.67,-618.5"/>
<polygon fill="none" stroke="black" points="393.67,-618.5 393.67,-638 454.25,-638 454.25,-618.5 393.67,-618.5"/>
<text text-anchor="start" x="443.75" y="-624.55" font-family="Helvetica,sans-Serif" font-size="11.00"> &#160;</text>
</a>
</g>
</g>
<!-- doc_archive_coverage&#45;&gt;doc_archive_item -->
<g id="edge3" class="edge">
<title>doc_archive_coverage:w&#45;&gt;doc_archive_item:e</title>
<path fill="none" stroke="black" d="M244.01,-645.13C229.67,-639.37 224.81,-624.72 211.75,-607.75 186.22,-574.59 213.6,-522.5 171.75,-522.5"/>
<polygon fill="black" stroke="black" points="251.28,-646.36 258.57,-651.24 255.56,-647.08 258.84,-647.64 258.84,-647.64 258.84,-647.64 255.56,-647.08 259.77,-644.14 251.28,-646.36"/>
<ellipse fill="none" stroke="black" cx="246.43" cy="-645.54" rx="3.2" ry="3.2"/>
</g>
<!-- doc_archive_creator -->
<g id="node5" class="node">
<title>doc_archive_creator</title>
<g id="a_node5"><a xlink:href="../../tables/doc_archive_creator.html" xlink:title="doc_archive_creator" target="_top">
<polygon fill="#ffffff" stroke="none" points="267,-534.5 267,-597 447.75,-597 447.75,-534.5 267,-534.5"/>
<polygon fill="#f5f5f5" stroke="none" points="267,-573.5 267,-597 447.75,-597 447.75,-573.5 267,-573.5"/>
<polygon fill="none" stroke="black" points="267,-573.5 267,-597 447.75,-597 447.75,-573.5 267,-573.5"/>
<text text-anchor="start" x="272" y="-582.55" font-family="Helvetica,sans-Serif" font-weight="bold" font-size="11.00">doc_archive_creator</text>
<text text-anchor="start" x="406" y="-581.55" font-family="Helvetica,sans-Serif" font-size="11.00">[table]</text>
<polygon fill="none" stroke="black" points="267,-554 267,-573.5 447.75,-573.5 447.75,-554 267,-554"/>
<text text-anchor="start" x="270" y="-560.05" font-family="Helvetica,sans-Serif" font-size="11.00">...</text>
<polygon fill="#ffffff" stroke="none" points="267,-534.5 267,-554 335.25,-554 335.25,-534.5 267,-534.5"/>
<polygon fill="none" stroke="black" points="267,-534.5 267,-554 335.25,-554 335.25,-534.5 267,-534.5"/>
<text text-anchor="start" x="270" y="-540.55" font-family="Helvetica,sans-Serif" font-size="11.00">&lt; 1</text>
<polygon fill="#ffffff" stroke="none" points="335.25,-534.5 335.25,-554 391.5,-554 391.5,-534.5 335.25,-534.5"/>
<polygon fill="none" stroke="black" points="335.25,-534.5 335.25,-554 391.5,-554 391.5,-534.5 335.25,-534.5"/>
<text text-anchor="start" x="381" y="-540.55" font-family="Helvetica,sans-Serif" font-size="11.00"> &#160;</text>
<polygon fill="#ffffff" stroke="none" points="391.5,-534.5 391.5,-554 447.75,-554 447.75,-534.5 391.5,-534.5"/>
<polygon fill="none" stroke="black" points="391.5,-534.5 391.5,-554 447.75,-554 447.75,-534.5 391.5,-534.5"/>
<text text-anchor="start" x="437.25" y="-540.55" font-family="Helvetica,sans-Serif" font-size="11.00"> &#160;</text>
</a>
</g>
</g>
<!-- doc_archive_creator&#45;&gt;doc_archive_item -->
<g id="edge4" class="edge">
<title>doc_archive_creator:w&#45;&gt;doc_archive_item:e</title>
<path fill="none" stroke="black" d="M250.27,-561.87C218.84,-553.8 211.58,-522.5 171.75,-522.5"/>
<polygon fill="black" stroke="black" points="257.72,-562.76 265.24,-567.28 262.03,-563.28 265.34,-563.67 265.34,-563.67 265.34,-563.67 262.03,-563.28 266.1,-560.14 257.72,-562.76"/>
<ellipse fill="none" stroke="black" cx="252.84" cy="-562.18" rx="3.2" ry="3.2"/>
</g>
<!-- doc_archive_header -->
<g id="node6" class="node">
<title>doc_archive_header</title>
<g id="a_node6"><a xlink:href="../../tables/doc_archive_header.html" xlink:title="doc_archive_header" target="_top">
<polygon fill="#ffffff" stroke="none" points="267.5,-450.5 267.5,-513 447.25,-513 447.25,-450.5 267.5,-450.5"/>
<polygon fill="#f5f5f5" stroke="none" points="267.5,-489.5 267.5,-513 447.25,-513 447.25,-489.5 267.5,-489.5"/>
<polygon fill="none" stroke="black" points="267.5,-489.5 267.5,-513 447.25,-513 447.25,-489.5 267.5,-489.5"/>
<text text-anchor="start" x="272.5" y="-498.55" font-family="Helvetica,sans-Serif" font-weight="bold" font-size="11.00">doc_archive_header</text>
<text text-anchor="start" x="405.5" y="-497.55" font-family="Helvetica,sans-Serif" font-size="11.00">[table]</text>
<polygon fill="none" stroke="black" points="267.5,-470 267.5,-489.5 447.25,-489.5 447.25,-470 267.5,-470"/>
<text text-anchor="start" x="270.5" y="-476.05" font-family="Helvetica,sans-Serif" font-size="11.00">...</text>
<polygon fill="#ffffff" stroke="none" points="267.5,-450.5 267.5,-470 335.42,-470 335.42,-450.5 267.5,-450.5"/>
<polygon fill="none" stroke="black" points="267.5,-450.5 267.5,-470 335.42,-470 335.42,-450.5 267.5,-450.5"/>
<text text-anchor="start" x="270.5" y="-456.55" font-family="Helvetica,sans-Serif" font-size="11.00">&lt; 1</text>
<polygon fill="#ffffff" stroke="none" points="335.42,-450.5 335.42,-470 391.33,-470 391.33,-450.5 335.42,-450.5"/>
<polygon fill="none" stroke="black" points="335.42,-450.5 335.42,-470 391.33,-470 391.33,-450.5 335.42,-450.5"/>
<text text-anchor="start" x="380.83" y="-456.55" font-family="Helvetica,sans-Serif" font-size="11.00"> &#160;</text>
<polygon fill="#ffffff" stroke="none" points="391.33,-450.5 391.33,-470 447.25,-470 447.25,-450.5 391.33,-450.5"/>
<polygon fill="none" stroke="black" points="391.33,-450.5 391.33,-470 447.25,-470 447.25,-450.5 391.33,-450.5"/>
<text text-anchor="start" x="436.75" y="-456.55" font-family="Helvetica,sans-Serif" font-size="11.00"> &#160;</text>
</a>
</g>
</g>
<!-- doc_archive_header&#45;&gt;doc_archive_item -->
<g id="edge5" class="edge">
<title>doc_archive_header:w&#45;&gt;doc_archive_item:e</title>
<path fill="none" stroke="black" d="M251.06,-481.59C219.03,-489.77 212.17,-522.5 171.75,-522.5"/>
<polygon fill="black" stroke="black" points="258.22,-480.73 266.59,-483.36 262.53,-480.22 265.84,-479.83 265.84,-479.83 265.84,-479.83 262.53,-480.22 265.74,-476.21 258.22,-480.73"/>
<ellipse fill="none" stroke="black" cx="253.34" cy="-481.32" rx="3.2" ry="3.2"/>
</g>
<!-- doc_archive_language -->
<g id="node7" class="node">
<title>doc_archive_language</title>
<g id="a_node7"><a xlink:href="../../tables/doc_archive_language.html" xlink:title="doc_archive_language" target="_top">
<polygon fill="#ffffff" stroke="none" points="260,-366.5 260,-429 454.75,-429 454.75,-366.5 260,-366.5"/>
<polygon fill="#f5f5f5" stroke="none" points="260,-405.5 260,-429 454.75,-429 454.75,-405.5 260,-405.5"/>
<polygon fill="none" stroke="black" points="260,-405.5 260,-429 454.75,-429 454.75,-405.5 260,-405.5"/>
<text text-anchor="start" x="265" y="-414.55" font-family="Helvetica,sans-Serif" font-weight="bold" font-size="11.00">doc_archive_language</text>
<text text-anchor="start" x="413" y="-413.55" font-family="Helvetica,sans-Serif" font-size="11.00">[table]</text>
<polygon fill="none" stroke="black" points="260,-386 260,-405.5 454.75,-405.5 454.75,-386 260,-386"/>
<text text-anchor="start" x="263" y="-392.05" font-family="Helvetica,sans-Serif" font-size="11.00">...</text>
<polygon fill="#ffffff" stroke="none" points="260,-366.5 260,-386 332.92,-386 332.92,-366.5 260,-366.5"/>
<polygon fill="none" stroke="black" points="260,-366.5 260,-386 332.92,-386 332.92,-366.5 260,-366.5"/>
<text text-anchor="start" x="263" y="-372.55" font-family="Helvetica,sans-Serif" font-size="11.00">&lt; 1</text>
<polygon fill="#ffffff" stroke="none" points="332.92,-366.5 332.92,-386 393.83,-386 393.83,-366.5 332.92,-366.5"/>
<polygon fill="none" stroke="black" points="332.92,-366.5 332.92,-386 393.83,-386 393.83,-366.5 332.92,-366.5"/>
<text text-anchor="start" x="383.33" y="-372.55" font-family="Helvetica,sans-Serif" font-size="11.00"> &#160;</text>
<polygon fill="#ffffff" stroke="none" points="393.83,-366.5 393.83,-386 454.75,-386 454.75,-366.5 393.83,-366.5"/>
<polygon fill="none" stroke="black" points="393.83,-366.5 393.83,-386 454.75,-386 454.75,-366.5 393.83,-366.5"/>
<text text-anchor="start" x="444.25" y="-372.55" font-family="Helvetica,sans-Serif" font-size="11.00"> &#160;</text>
</a>
</g>
</g>
<!-- doc_archive_language&#45;&gt;doc_archive_item -->
<g id="edge6" class="edge">
<title>doc_archive_language:w&#45;&gt;doc_archive_item:e</title>
<path fill="none" stroke="black" d="M243.62,-398.56C228.9,-405 225.06,-421.71 211.75,-439.75 187.5,-472.62 212.6,-522.5 171.75,-522.5"/>
<polygon fill="black" stroke="black" points="250.8,-397.25 259.32,-399.35 255.06,-396.47 258.34,-395.87 258.34,-395.87 258.34,-395.87 255.06,-396.47 258.02,-392.27 250.8,-397.25"/>
<ellipse fill="none" stroke="black" cx="245.96" cy="-398.13" rx="3.2" ry="3.2"/>
</g>
<!-- doc_archive_subject -->
<g id="node8" class="node">
<title>doc_archive_subject</title>
<g id="a_node8"><a xlink:href="../../tables/doc_archive_subject.html" xlink:title="doc_archive_subject" target="_top">
<polygon fill="#ffffff" stroke="none" points="219.75,-122.25 219.75,-345.25 495,-345.25 495,-122.25 219.75,-122.25"/>
<polygon fill="#f5f5f5" stroke="none" points="221.75,-319.75 221.75,-343.25 493,-343.25 493,-319.75 221.75,-319.75"/>
<polygon fill="none" stroke="black" points="221.75,-319.75 221.75,-343.25 493,-343.25 493,-319.75 221.75,-319.75"/>
<text text-anchor="start" x="226.75" y="-328.8" font-family="Helvetica,sans-Serif" font-weight="bold" font-size="11.00">doc_archive_subject</text>
<text text-anchor="start" x="451.25" y="-327.8" font-family="Helvetica,sans-Serif" font-size="11.00">[table]</text>
<polygon fill="none" stroke="black" points="221.75,-297.75 221.75,-319.75 377.75,-319.75 377.75,-297.75 221.75,-297.75"/>
<image xlink:href="../../images/primaryKeys.png" width="11px" height="12px" preserveAspectRatio="xMinYMin meet" x="226.75" y="-314.75"/>
<text text-anchor="start" x="241.75" y="-304.3" font-family="Helvetica,sans-Serif" font-size="11.00">identifier</text>
<polygon fill="none" stroke="black" points="377.75,-297.75 377.75,-319.75 479.25,-319.75 479.25,-297.75 377.75,-297.75"/>
<text text-anchor="start" x="380.75" y="-305.05" font-family="Helvetica,sans-Serif" font-size="11.00">varchar[191]</text>
<polygon fill="none" stroke="black" points="221.75,-275.75 221.75,-297.75 377.75,-297.75 377.75,-275.75 221.75,-275.75"/>
<text text-anchor="start" x="241.75" y="-282.3" font-family="Helvetica,sans-Serif" font-size="11.00">value</text>
<polygon fill="none" stroke="black" points="377.75,-275.75 377.75,-297.75 479.25,-297.75 479.25,-275.75 377.75,-275.75"/>
<text text-anchor="start" x="380.75" y="-283.05" font-family="Helvetica,sans-Serif" font-size="11.00">text[65535]</text>
<polygon fill="#ffffff" stroke="none" points="221.75,-253.75 221.75,-275.75 377.75,-275.75 377.75,-253.75 221.75,-253.75"/>
<polygon fill="none" stroke="black" points="221.75,-253.75 221.75,-275.75 377.75,-275.75 377.75,-253.75 221.75,-253.75"/>
<image xlink:href="../../images/foreignKeys.png" width="11px" height="12px" preserveAspectRatio="xMinYMin meet" x="226.75" y="-270.75"/>
<text text-anchor="start" x="241.75" y="-260.3" font-family="Helvetica,sans-Serif" font-size="11.00">item</text>
<polygon fill="none" stroke="black" points="377.75,-253.75 377.75,-275.75 479.25,-275.75 479.25,-253.75 377.75,-253.75"/>
<text text-anchor="start" x="380.75" y="-261.05" font-family="Helvetica,sans-Serif" font-size="11.00">varchar[191]</text>
<polygon fill="none" stroke="black" points="221.75,-231.75 221.75,-253.75 377.75,-253.75 377.75,-231.75 221.75,-231.75"/>
<text text-anchor="start" x="241.75" y="-238.3" font-family="Helvetica,sans-Serif" font-size="11.00">version</text>
<polygon fill="none" stroke="black" points="377.75,-231.75 377.75,-253.75 479.25,-253.75 479.25,-231.75 377.75,-231.75"/>
<text text-anchor="start" x="380.75" y="-239.05" font-family="Helvetica,sans-Serif" font-size="11.00">bigint[19]</text>
<polygon fill="none" stroke="black" points="221.75,-209.75 221.75,-231.75 377.75,-231.75 377.75,-209.75 221.75,-209.75"/>
<text text-anchor="start" x="241.75" y="-216.3" font-family="Helvetica,sans-Serif" font-size="11.00">created_by</text>
<polygon fill="none" stroke="black" points="377.75,-209.75 377.75,-231.75 479.25,-231.75 479.25,-209.75 377.75,-209.75"/>
<text text-anchor="start" x="380.75" y="-217.05" font-family="Helvetica,sans-Serif" font-size="11.00">varchar[191]</text>
<polygon fill="none" stroke="black" points="221.75,-187.75 221.75,-209.75 377.75,-209.75 377.75,-187.75 221.75,-187.75"/>
<text text-anchor="start" x="241.75" y="-194.3" font-family="Helvetica,sans-Serif" font-size="11.00">last_modified_by</text>
<polygon fill="none" stroke="black" points="377.75,-187.75 377.75,-209.75 479.25,-209.75 479.25,-187.75 377.75,-187.75"/>
<text text-anchor="start" x="380.75" y="-195.05" font-family="Helvetica,sans-Serif" font-size="11.00">varchar[191]</text>
<polygon fill="none" stroke="black" points="221.75,-165.75 221.75,-187.75 377.75,-187.75 377.75,-165.75 221.75,-165.75"/>
<text text-anchor="start" x="241.75" y="-172.3" font-family="Helvetica,sans-Serif" font-size="11.00">created_date</text>
<polygon fill="none" stroke="black" points="377.75,-165.75 377.75,-187.75 479.25,-187.75 479.25,-165.75 377.75,-165.75"/>
<text text-anchor="start" x="380.75" y="-173.05" font-family="Helvetica,sans-Serif" font-size="11.00">timestamp[19]</text>
<polygon fill="none" stroke="black" points="221.75,-143.75 221.75,-165.75 377.75,-165.75 377.75,-143.75 221.75,-143.75"/>
<text text-anchor="start" x="241.75" y="-150.3" font-family="Helvetica,sans-Serif" font-size="11.00">last_modified_date</text>
<polygon fill="none" stroke="black" points="377.75,-143.75 377.75,-165.75 479.25,-165.75 479.25,-143.75 377.75,-143.75"/>
<text text-anchor="start" x="380.75" y="-151.05" font-family="Helvetica,sans-Serif" font-size="11.00">timestamp[19]</text>
<polygon fill="#ffffff" stroke="none" points="221.75,-124.25 221.75,-143.75 305.75,-143.75 305.75,-124.25 221.75,-124.25"/>
<polygon fill="none" stroke="black" points="221.75,-124.25 221.75,-143.75 305.75,-143.75 305.75,-124.25 221.75,-124.25"/>
<text text-anchor="start" x="224.75" y="-130.3" font-family="Helvetica,sans-Serif" font-size="11.00">&lt; 1</text>
<polygon fill="#ffffff" stroke="none" points="305.75,-124.25 305.75,-143.75 377.75,-143.75 377.75,-124.25 305.75,-124.25"/>
<polygon fill="none" stroke="black" points="305.75,-124.25 305.75,-143.75 377.75,-143.75 377.75,-124.25 305.75,-124.25"/>
<text text-anchor="start" x="367.25" y="-130.3" font-family="Helvetica,sans-Serif" font-size="11.00"> &#160;</text>
<polygon fill="#ffffff" stroke="none" points="377.75,-124.25 377.75,-143.75 479.25,-143.75 479.25,-124.25 377.75,-124.25"/>
<polygon fill="none" stroke="black" points="377.75,-124.25 377.75,-143.75 479.25,-143.75 479.25,-124.25 377.75,-124.25"/>
<text text-anchor="start" x="456.75" y="-130.3" font-family="Helvetica,sans-Serif" font-size="11.00">0 &gt;</text>
<polygon fill="none" stroke="black" stroke-width="2" points="220.75,-123.25 220.75,-344.25 494,-344.25 494,-123.25 220.75,-123.25"/>
</a>
</g>
</g>
<!-- doc_archive_subject&#45;&gt;doc_archive_item -->
<g id="edge7" class="edge">
<title>doc_archive_subject:w&#45;&gt;doc_archive_item:e</title>
<path fill="none" stroke="black" d="M206.83,-271.91C174.67,-313.54 224.25,-522.5 171.75,-522.5"/>
<polygon fill="black" stroke="black" points="213.34,-268.56 222.1,-268.1 217.19,-266.58 220.16,-265.06 220.16,-265.06 220.16,-265.06 217.19,-266.58 218.81,-261.7 213.34,-268.56"/>
<ellipse fill="none" stroke="black" cx="208.97" cy="-270.81" rx="3.2" ry="3.2"/>
</g>
<!-- doc_unit -->
<g id="node9" class="node">
<title>doc_unit</title>
<g id="a_node9"><a xlink:href="../../tables/doc_unit.html" xlink:title="doc_unit" target="_top">
<polygon fill="#ffffff" stroke="none" points="306,-38.5 306,-101 408.75,-101 408.75,-38.5 306,-38.5"/>
<polygon fill="#f5f5f5" stroke="none" points="306,-77.5 306,-101 408.75,-101 408.75,-77.5 306,-77.5"/>
<polygon fill="none" stroke="black" points="306,-77.5 306,-101 408.75,-101 408.75,-77.5 306,-77.5"/>
<text text-anchor="start" x="311" y="-86.55" font-family="Helvetica,sans-Serif" font-weight="bold" font-size="11.00">doc_unit</text>
<text text-anchor="start" x="367" y="-85.55" font-family="Helvetica,sans-Serif" font-size="11.00">[table]</text>
<polygon fill="none" stroke="black" points="306,-58 306,-77.5 408.75,-77.5 408.75,-58 306,-58"/>
<text text-anchor="start" x="309" y="-64.05" font-family="Helvetica,sans-Serif" font-size="11.00">...</text>
<polygon fill="#ffffff" stroke="none" points="306,-38.5 306,-58 346.5,-58 346.5,-38.5 306,-38.5"/>
<polygon fill="none" stroke="black" points="306,-38.5 306,-58 346.5,-58 346.5,-38.5 306,-38.5"/>
<text text-anchor="start" x="309" y="-44.55" font-family="Helvetica,sans-Serif" font-size="11.00">&lt; 13</text>
<polygon fill="#ffffff" stroke="none" points="346.5,-38.5 346.5,-58 368.25,-58 368.25,-38.5 346.5,-38.5"/>
<polygon fill="none" stroke="black" points="346.5,-38.5 346.5,-58 368.25,-58 368.25,-38.5 346.5,-38.5"/>
<text text-anchor="start" x="357.75" y="-44.55" font-family="Helvetica,sans-Serif" font-size="11.00"> &#160;</text>
<polygon fill="#ffffff" stroke="none" points="368.25,-38.5 368.25,-58 408.75,-58 408.75,-38.5 368.25,-38.5"/>
<polygon fill="none" stroke="black" points="368.25,-38.5 368.25,-58 408.75,-58 408.75,-38.5 368.25,-38.5"/>
<text text-anchor="start" x="379.5" y="-44.55" font-family="Helvetica,sans-Serif" font-size="11.00">11 &gt;</text>
</a>
</g>
</g>
<!-- doc_unit&#45;&gt;doc_archive_item -->
<g id="edge8" class="edge">
<title>doc_unit:w&#45;&gt;doc_archive_item:e</title>
<path fill="none" stroke="black" d="M289.39,-68.08C254,-69.79 234.94,-78.82 211.75,-111.75 158.95,-186.74 263.46,-522.5 171.75,-522.5"/>
<polygon fill="black" stroke="black" points="296.67,-67.93 304.74,-71.36 301,-67.83 304.33,-67.76 304.33,-67.76 304.33,-67.76 301,-67.83 304.59,-64.16 296.67,-67.93"/>
<ellipse fill="none" stroke="black" cx="291.75" cy="-68.03" rx="3.2" ry="3.2"/>
</g>
</g>
</svg>
