<?xml version="1.0" encoding="UTF-8" standalone="no"?>
<!DOCTYPE svg PUBLIC "-//W3C//DTD SVG 1.1//EN"
 "http://www.w3.org/Graphics/SVG/1.1/DTD/svg11.dtd">
<!-- Generated by graphviz version 12.2.0 (0)
 -->
<!-- Title: oneDegreeRelationshipsDiagram Pages: 1 -->
<svg width="1074pt" height="402pt"
 viewBox="0.00 0.00 1073.75 402.25" xmlns="http://www.w3.org/2000/svg" xmlns:xlink="http://www.w3.org/1999/xlink">
<g id="graph0" class="graph" transform="scale(1 1) rotate(0) translate(4 398.25)">
<title>oneDegreeRelationshipsDiagram</title>
<polygon fill="#ffffff" stroke="none" points="-4,4 -4,-398.25 1069.75,-398.25 1069.75,4 -4,4"/>
<text text-anchor="middle" x="79.25" y="-7.05" font-family="Helvetica,sans-Serif" font-size="11.00">Generated by SchemaSpy</text>
<!-- doc_condreport_property_config -->
<g id="node1" class="node">
<title>doc_condreport_property_config</title>
<g id="a_node1"><a xlink:href="../../tables/doc_condreport_property_config.html" xlink:title="doc_condreport_property_config" target="_top">
<polygon fill="#ffffff" stroke="none" points="309.75,-38.5 309.75,-349.5 708,-349.5 708,-38.5 309.75,-38.5"/>
<polygon fill="#f5f5f5" stroke="none" points="311.75,-324 311.75,-347.5 706,-347.5 706,-324 311.75,-324"/>
<polygon fill="none" stroke="black" points="311.75,-324 311.75,-347.5 706,-347.5 706,-324 311.75,-324"/>
<text text-anchor="start" x="316.75" y="-333.05" font-family="Helvetica,sans-Serif" font-weight="bold" font-size="11.00">doc_condreport_property_config</text>
<text text-anchor="start" x="664.25" y="-332.05" font-family="Helvetica,sans-Serif" font-size="11.00">[table]</text>
<polygon fill="none" stroke="black" points="311.75,-302 311.75,-324 549.75,-324 549.75,-302 311.75,-302"/>
<image xlink:href="../../images/primaryKeys.png" width="11px" height="12px" preserveAspectRatio="xMinYMin meet" x="316.75" y="-319"/>
<text text-anchor="start" x="331.75" y="-308.55" font-family="Helvetica,sans-Serif" font-size="11.00">identifier</text>
<polygon fill="none" stroke="black" points="549.75,-302 549.75,-324 671.75,-324 671.75,-302 549.75,-302"/>
<text text-anchor="start" x="552.75" y="-309.3" font-family="Helvetica,sans-Serif" font-size="11.00">varchar[191]</text>
<polygon fill="none" stroke="black" points="311.75,-280 311.75,-302 549.75,-302 549.75,-280 311.75,-280"/>
<text text-anchor="start" x="331.75" y="-286.55" font-family="Helvetica,sans-Serif" font-size="11.00">required</text>
<polygon fill="none" stroke="black" points="549.75,-280 549.75,-302 671.75,-302 671.75,-280 549.75,-280"/>
<text text-anchor="start" x="552.75" y="-287.3" font-family="Helvetica,sans-Serif" font-size="11.00">bit[1]</text>
<polygon fill="none" stroke="black" points="311.75,-258 311.75,-280 549.75,-280 549.75,-258 311.75,-258"/>
<text text-anchor="start" x="331.75" y="-264.55" font-family="Helvetica,sans-Serif" font-size="11.00">allow_comment</text>
<polygon fill="none" stroke="black" points="549.75,-258 549.75,-280 671.75,-280 671.75,-258 549.75,-258"/>
<text text-anchor="start" x="552.75" y="-265.3" font-family="Helvetica,sans-Serif" font-size="11.00">bit[1]</text>
<polygon fill="#ffffff" stroke="none" points="311.75,-236 311.75,-258 549.75,-258 549.75,-236 311.75,-236"/>
<polygon fill="none" stroke="black" points="311.75,-236 311.75,-258 549.75,-258 549.75,-236 311.75,-236"/>
<image xlink:href="../../images/foreignKeys.png" width="11px" height="12px" preserveAspectRatio="xMinYMin meet" x="316.75" y="-253"/>
<text text-anchor="start" x="331.75" y="-242.55" font-family="Helvetica,sans-Serif" font-size="11.00">library</text>
<polygon fill="none" stroke="black" points="549.75,-236 549.75,-258 671.75,-258 671.75,-236 549.75,-236"/>
<text text-anchor="start" x="552.75" y="-243.3" font-family="Helvetica,sans-Serif" font-size="11.00">varchar[191]</text>
<polygon fill="#ffffff" stroke="none" points="311.75,-214 311.75,-236 549.75,-236 549.75,-214 311.75,-214"/>
<polygon fill="none" stroke="black" points="311.75,-214 311.75,-236 549.75,-236 549.75,-214 311.75,-214"/>
<image xlink:href="../../images/foreignKeys.png" width="11px" height="12px" preserveAspectRatio="xMinYMin meet" x="316.75" y="-231"/>
<text text-anchor="start" x="331.75" y="-220.55" font-family="Helvetica,sans-Serif" font-size="11.00">desc_property</text>
<polygon fill="none" stroke="black" points="549.75,-214 549.75,-236 671.75,-236 671.75,-214 549.75,-214"/>
<text text-anchor="start" x="552.75" y="-221.3" font-family="Helvetica,sans-Serif" font-size="11.00">varchar[191]</text>
<polygon fill="none" stroke="black" points="311.75,-192 311.75,-214 549.75,-214 549.75,-192 311.75,-192"/>
<text text-anchor="start" x="331.75" y="-198.55" font-family="Helvetica,sans-Serif" font-size="11.00">version</text>
<polygon fill="none" stroke="black" points="549.75,-192 549.75,-214 671.75,-214 671.75,-192 549.75,-192"/>
<text text-anchor="start" x="552.75" y="-199.3" font-family="Helvetica,sans-Serif" font-size="11.00">bigint[19]</text>
<polygon fill="none" stroke="black" points="311.75,-170 311.75,-192 549.75,-192 549.75,-170 311.75,-170"/>
<text text-anchor="start" x="331.75" y="-176.55" font-family="Helvetica,sans-Serif" font-size="11.00">created_by</text>
<polygon fill="none" stroke="black" points="549.75,-170 549.75,-192 671.75,-192 671.75,-170 549.75,-170"/>
<text text-anchor="start" x="552.75" y="-177.3" font-family="Helvetica,sans-Serif" font-size="11.00">varchar[191]</text>
<polygon fill="none" stroke="black" points="311.75,-148 311.75,-170 549.75,-170 549.75,-148 311.75,-148"/>
<text text-anchor="start" x="331.75" y="-154.55" font-family="Helvetica,sans-Serif" font-size="11.00">last_modified_by</text>
<polygon fill="none" stroke="black" points="549.75,-148 549.75,-170 671.75,-170 671.75,-148 549.75,-148"/>
<text text-anchor="start" x="552.75" y="-155.3" font-family="Helvetica,sans-Serif" font-size="11.00">varchar[191]</text>
<polygon fill="none" stroke="black" points="311.75,-126 311.75,-148 549.75,-148 549.75,-126 311.75,-126"/>
<text text-anchor="start" x="331.75" y="-132.55" font-family="Helvetica,sans-Serif" font-size="11.00">created_date</text>
<polygon fill="none" stroke="black" points="549.75,-126 549.75,-148 671.75,-148 671.75,-126 549.75,-126"/>
<text text-anchor="start" x="552.75" y="-133.3" font-family="Helvetica,sans-Serif" font-size="11.00">timestamp[19]</text>
<polygon fill="none" stroke="black" points="311.75,-104 311.75,-126 549.75,-126 549.75,-104 311.75,-104"/>
<text text-anchor="start" x="331.75" y="-110.55" font-family="Helvetica,sans-Serif" font-size="11.00">last_modified_date</text>
<polygon fill="none" stroke="black" points="549.75,-104 549.75,-126 671.75,-126 671.75,-104 549.75,-104"/>
<text text-anchor="start" x="552.75" y="-111.3" font-family="Helvetica,sans-Serif" font-size="11.00">timestamp[19]</text>
<polygon fill="none" stroke="black" points="311.75,-82 311.75,-104 549.75,-104 549.75,-82 311.75,-82"/>
<text text-anchor="start" x="331.75" y="-88.55" font-family="Helvetica,sans-Serif" font-size="11.00">show_on_creation</text>
<polygon fill="none" stroke="black" points="549.75,-82 549.75,-104 671.75,-104 671.75,-82 549.75,-82"/>
<text text-anchor="start" x="552.75" y="-89.3" font-family="Helvetica,sans-Serif" font-size="11.00">bit[1]</text>
<polygon fill="none" stroke="black" points="311.75,-60 311.75,-82 549.75,-82 549.75,-60 311.75,-60"/>
<text text-anchor="start" x="331.75" y="-66.55" font-family="Helvetica,sans-Serif" font-size="11.00">internal_prop</text>
<polygon fill="none" stroke="black" points="549.75,-60 549.75,-82 671.75,-82 671.75,-60 549.75,-60"/>
<text text-anchor="start" x="552.75" y="-67.3" font-family="Helvetica,sans-Serif" font-size="11.00">varchar[255]</text>
<polygon fill="#ffffff" stroke="none" points="311.75,-40.5 311.75,-60 436.75,-60 436.75,-40.5 311.75,-40.5"/>
<polygon fill="none" stroke="black" points="311.75,-40.5 311.75,-60 436.75,-60 436.75,-40.5 311.75,-40.5"/>
<text text-anchor="start" x="314.75" y="-46.55" font-family="Helvetica,sans-Serif" font-size="11.00">&lt; 2</text>
<polygon fill="#ffffff" stroke="none" points="436.75,-40.5 436.75,-60 549.75,-60 549.75,-40.5 436.75,-40.5"/>
<polygon fill="none" stroke="black" points="436.75,-40.5 436.75,-60 549.75,-60 549.75,-40.5 436.75,-40.5"/>
<text text-anchor="start" x="539.25" y="-46.55" font-family="Helvetica,sans-Serif" font-size="11.00"> &#160;</text>
<polygon fill="#ffffff" stroke="none" points="549.75,-40.5 549.75,-60 671.75,-60 671.75,-40.5 549.75,-40.5"/>
<polygon fill="none" stroke="black" points="549.75,-40.5 549.75,-60 671.75,-60 671.75,-40.5 549.75,-40.5"/>
<text text-anchor="start" x="649.25" y="-46.55" font-family="Helvetica,sans-Serif" font-size="11.00">1 &gt;</text>
<polygon fill="none" stroke="black" stroke-width="2" points="310.75,-39.5 310.75,-348.5 707,-348.5 707,-39.5 310.75,-39.5"/>
</a>
</g>
</g>
<!-- doc_condreport_desc_property -->
<g id="node2" class="node">
<title>doc_condreport_desc_property</title>
<g id="a_node2"><a xlink:href="../../tables/doc_condreport_desc_property.html" xlink:title="doc_condreport_desc_property" target="_top">
<polygon fill="#ffffff" stroke="none" points="8,-67.75 8,-152.25 260.75,-152.25 260.75,-67.75 8,-67.75"/>
<polygon fill="#f5f5f5" stroke="none" points="8,-128.75 8,-152.25 260.75,-152.25 260.75,-128.75 8,-128.75"/>
<polygon fill="none" stroke="black" points="8,-128.75 8,-152.25 260.75,-152.25 260.75,-128.75 8,-128.75"/>
<text text-anchor="start" x="13" y="-137.8" font-family="Helvetica,sans-Serif" font-weight="bold" font-size="11.00">doc_condreport_desc_property</text>
<text text-anchor="start" x="219" y="-136.8" font-family="Helvetica,sans-Serif" font-size="11.00">[table]</text>
<polygon fill="none" stroke="black" points="8,-106.75 8,-128.75 260.75,-128.75 260.75,-106.75 8,-106.75"/>
<image xlink:href="../../images/primaryKeys.png" width="11px" height="12px" preserveAspectRatio="xMinYMin meet" x="13" y="-123.75"/>
<text text-anchor="start" x="40.88" y="-113.3" font-family="Helvetica,sans-Serif" font-size="11.00">identifier</text>
<polygon fill="none" stroke="black" points="8,-87.25 8,-106.75 260.75,-106.75 260.75,-87.25 8,-87.25"/>
<text text-anchor="start" x="11" y="-93.3" font-family="Helvetica,sans-Serif" font-size="11.00">...</text>
<polygon fill="#ffffff" stroke="none" points="8,-67.75 8,-87.25 88.25,-87.25 88.25,-67.75 8,-67.75"/>
<polygon fill="none" stroke="black" points="8,-67.75 8,-87.25 88.25,-87.25 88.25,-67.75 8,-67.75"/>
<text text-anchor="start" x="11" y="-73.8" font-family="Helvetica,sans-Serif" font-size="11.00"> &#160;</text>
<polygon fill="#ffffff" stroke="none" points="88.25,-67.75 88.25,-87.25 168.5,-87.25 168.5,-67.75 88.25,-67.75"/>
<polygon fill="none" stroke="black" points="88.25,-67.75 88.25,-87.25 168.5,-87.25 168.5,-67.75 88.25,-67.75"/>
<text text-anchor="start" x="158" y="-73.8" font-family="Helvetica,sans-Serif" font-size="11.00"> &#160;</text>
<polygon fill="#ffffff" stroke="none" points="168.5,-67.75 168.5,-87.25 260.75,-87.25 260.75,-67.75 168.5,-67.75"/>
<polygon fill="none" stroke="black" points="168.5,-67.75 168.5,-87.25 260.75,-87.25 260.75,-67.75 168.5,-67.75"/>
<text text-anchor="start" x="238.25" y="-73.8" font-family="Helvetica,sans-Serif" font-size="11.00">3 &gt;</text>
</a>
</g>
</g>
<!-- doc_condreport_property_config&#45;&gt;doc_condreport_desc_property -->
<g id="edge1" class="edge">
<title>doc_condreport_property_config:w&#45;&gt;doc_condreport_desc_property:e</title>
<path fill="none" stroke="black" d="M295.75,-220.39C270.61,-199.86 307.61,-117.75 261.75,-117.75"/>
<polygon fill="black" stroke="black" points="302.78,-222.55 309.37,-228.34 306.93,-223.83 310.11,-224.8 310.11,-224.8 310.11,-224.8 306.93,-223.83 311.49,-221.46 302.78,-222.55"/>
<ellipse fill="none" stroke="black" cx="298.08" cy="-221.11" rx="3.2" ry="3.2"/>
</g>
<!-- lib_library -->
<g id="node3" class="node">
<title>lib_library</title>
<g id="a_node3"><a xlink:href="../../tables/lib_library.html" xlink:title="lib_library" target="_top">
<polygon fill="#ffffff" stroke="none" points="17.38,-173.75 17.38,-390.25 251.38,-390.25 251.38,-173.75 17.38,-173.75"/>
<polygon fill="#f5f5f5" stroke="none" points="17.38,-366.75 17.38,-390.25 251.38,-390.25 251.38,-366.75 17.38,-366.75"/>
<polygon fill="none" stroke="black" points="17.38,-366.75 17.38,-390.25 251.38,-390.25 251.38,-366.75 17.38,-366.75"/>
<text text-anchor="start" x="22.38" y="-375.8" font-family="Helvetica,sans-Serif" font-weight="bold" font-size="11.00">lib_library</text>
<text text-anchor="start" x="209.62" y="-374.8" font-family="Helvetica,sans-Serif" font-size="11.00">[table]</text>
<polygon fill="none" stroke="black" points="17.38,-344.75 17.38,-366.75 251.38,-366.75 251.38,-344.75 17.38,-344.75"/>
<image xlink:href="../../images/primaryKeys.png" width="11px" height="12px" preserveAspectRatio="xMinYMin meet" x="22.375" y="-361.75"/>
<text text-anchor="start" x="37.38" y="-351.3" font-family="Helvetica,sans-Serif" font-size="11.00">identifier</text>
<polygon fill="#ffffff" stroke="none" points="17.38,-322.75 17.38,-344.75 251.38,-344.75 251.38,-322.75 17.38,-322.75"/>
<polygon fill="none" stroke="black" points="17.38,-322.75 17.38,-344.75 251.38,-344.75 251.38,-322.75 17.38,-322.75"/>
<image xlink:href="../../images/foreignKeys.png" width="11px" height="12px" preserveAspectRatio="xMinYMin meet" x="22.375" y="-339.75"/>
<text text-anchor="start" x="37.38" y="-329.3" font-family="Helvetica,sans-Serif" font-size="11.00">address</text>
<polygon fill="#ffffff" stroke="none" points="17.38,-300.75 17.38,-322.75 251.38,-322.75 251.38,-300.75 17.38,-300.75"/>
<polygon fill="none" stroke="black" points="17.38,-300.75 17.38,-322.75 251.38,-322.75 251.38,-300.75 17.38,-300.75"/>
<image xlink:href="../../images/foreignKeys.png" width="11px" height="12px" preserveAspectRatio="xMinYMin meet" x="22.375" y="-317.75"/>
<text text-anchor="start" x="37.38" y="-307.3" font-family="Helvetica,sans-Serif" font-size="11.00">active_configuration_ftp</text>
<polygon fill="#ffffff" stroke="none" points="17.38,-278.75 17.38,-300.75 251.38,-300.75 251.38,-278.75 17.38,-278.75"/>
<polygon fill="none" stroke="black" points="17.38,-278.75 17.38,-300.75 251.38,-300.75 251.38,-278.75 17.38,-278.75"/>
<image xlink:href="../../images/foreignKeys.png" width="11px" height="12px" preserveAspectRatio="xMinYMin meet" x="22.375" y="-295.75"/>
<text text-anchor="start" x="37.38" y="-285.3" font-family="Helvetica,sans-Serif" font-size="11.00">active_configuration_check</text>
<polygon fill="#ffffff" stroke="none" points="17.38,-256.75 17.38,-278.75 251.38,-278.75 251.38,-256.75 17.38,-256.75"/>
<polygon fill="none" stroke="black" points="17.38,-256.75 17.38,-278.75 251.38,-278.75 251.38,-256.75 17.38,-256.75"/>
<image xlink:href="../../images/foreignKeys.png" width="11px" height="12px" preserveAspectRatio="xMinYMin meet" x="22.375" y="-273.75"/>
<text text-anchor="start" x="37.38" y="-263.3" font-family="Helvetica,sans-Serif" font-size="11.00">role</text>
<polygon fill="#ffffff" stroke="none" points="17.38,-234.75 17.38,-256.75 251.38,-256.75 251.38,-234.75 17.38,-234.75"/>
<polygon fill="none" stroke="black" points="17.38,-234.75 17.38,-256.75 251.38,-256.75 251.38,-234.75 17.38,-234.75"/>
<image xlink:href="../../images/foreignKeys.png" width="11px" height="12px" preserveAspectRatio="xMinYMin meet" x="22.375" y="-251.75"/>
<text text-anchor="start" x="37.38" y="-241.3" font-family="Helvetica,sans-Serif" font-size="11.00">active_configuration_export_ftp</text>
<polygon fill="#ffffff" stroke="none" points="17.38,-212.75 17.38,-234.75 251.38,-234.75 251.38,-212.75 17.38,-212.75"/>
<polygon fill="none" stroke="black" points="17.38,-212.75 17.38,-234.75 251.38,-234.75 251.38,-212.75 17.38,-212.75"/>
<image xlink:href="../../images/foreignKeys.png" width="11px" height="12px" preserveAspectRatio="xMinYMin meet" x="22.375" y="-229.75"/>
<text text-anchor="start" x="37.38" y="-219.3" font-family="Helvetica,sans-Serif" font-size="11.00">active_configuration_ocr_lang</text>
<polygon fill="none" stroke="black" points="17.38,-193.25 17.38,-212.75 251.38,-212.75 251.38,-193.25 17.38,-193.25"/>
<text text-anchor="start" x="20.38" y="-199.3" font-family="Helvetica,sans-Serif" font-size="11.00">...</text>
<polygon fill="#ffffff" stroke="none" points="17.38,-173.75 17.38,-193.25 97.12,-193.25 97.12,-173.75 17.38,-173.75"/>
<polygon fill="none" stroke="black" points="17.38,-173.75 17.38,-193.25 97.12,-193.25 97.12,-173.75 17.38,-173.75"/>
<text text-anchor="start" x="20.38" y="-179.8" font-family="Helvetica,sans-Serif" font-size="11.00">&lt; 6</text>
<polygon fill="#ffffff" stroke="none" points="97.12,-173.75 97.12,-193.25 164.88,-193.25 164.88,-173.75 97.12,-173.75"/>
<polygon fill="none" stroke="black" points="97.12,-173.75 97.12,-193.25 164.88,-193.25 164.88,-173.75 97.12,-173.75"/>
<text text-anchor="start" x="154.38" y="-179.8" font-family="Helvetica,sans-Serif" font-size="11.00"> &#160;</text>
<polygon fill="#ffffff" stroke="none" points="164.88,-173.75 164.88,-193.25 251.38,-193.25 251.38,-173.75 164.88,-173.75"/>
<polygon fill="none" stroke="black" points="164.88,-173.75 164.88,-193.25 251.38,-193.25 251.38,-173.75 164.88,-173.75"/>
<text text-anchor="start" x="222.12" y="-179.8" font-family="Helvetica,sans-Serif" font-size="11.00">27 &gt;</text>
</a>
</g>
</g>
<!-- doc_condreport_property_config&#45;&gt;lib_library -->
<g id="edge2" class="edge">
<title>doc_condreport_property_config:w&#45;&gt;lib_library:e</title>
<path fill="none" stroke="black" d="M295.5,-251.13C266.47,-270.99 300.8,-355.75 252.38,-355.75"/>
<polygon fill="black" stroke="black" points="302.71,-249.18 311.37,-250.56 306.89,-248.05 310.1,-247.17 310.1,-247.17 310.1,-247.17 306.89,-248.05 309.49,-243.61 302.71,-249.18"/>
<ellipse fill="none" stroke="black" cx="297.96" cy="-250.46" rx="3.2" ry="3.2"/>
</g>
<!-- doc_condreport_property_config_type -->
<g id="node4" class="node">
<title>doc_condreport_property_config_type</title>
<g id="a_node4"><a xlink:href="../../tables/doc_condreport_property_config_type.html" xlink:title="doc_condreport_property_config_type" target="_top">
<polygon fill="#ffffff" stroke="none" points="757,-262.75 757,-347.25 1057.75,-347.25 1057.75,-262.75 757,-262.75"/>
<polygon fill="#f5f5f5" stroke="none" points="757,-323.75 757,-347.25 1057.75,-347.25 1057.75,-323.75 757,-323.75"/>
<polygon fill="none" stroke="black" points="757,-323.75 757,-347.25 1057.75,-347.25 1057.75,-323.75 757,-323.75"/>
<text text-anchor="start" x="762" y="-332.8" font-family="Helvetica,sans-Serif" font-weight="bold" font-size="11.00">doc_condreport_property_config_type</text>
<text text-anchor="start" x="1016" y="-331.8" font-family="Helvetica,sans-Serif" font-size="11.00">[table]</text>
<polygon fill="#ffffff" stroke="none" points="757,-301.75 757,-323.75 1057.75,-323.75 1057.75,-301.75 757,-301.75"/>
<polygon fill="none" stroke="black" points="757,-301.75 757,-323.75 1057.75,-323.75 1057.75,-301.75 757,-301.75"/>
<image xlink:href="../../images/foreignKeys.png" width="11px" height="12px" preserveAspectRatio="xMinYMin meet" x="762" y="-318.75"/>
<text text-anchor="start" x="789.88" y="-308.3" font-family="Helvetica,sans-Serif" font-size="11.00">conf</text>
<polygon fill="none" stroke="black" points="757,-282.25 757,-301.75 1057.75,-301.75 1057.75,-282.25 757,-282.25"/>
<text text-anchor="start" x="760" y="-288.3" font-family="Helvetica,sans-Serif" font-size="11.00">...</text>
<polygon fill="#ffffff" stroke="none" points="757,-262.75 757,-282.25 865.25,-282.25 865.25,-262.75 757,-262.75"/>
<polygon fill="none" stroke="black" points="757,-262.75 757,-282.25 865.25,-282.25 865.25,-262.75 757,-262.75"/>
<text text-anchor="start" x="760" y="-268.8" font-family="Helvetica,sans-Serif" font-size="11.00">&lt; 1</text>
<polygon fill="#ffffff" stroke="none" points="865.25,-262.75 865.25,-282.25 961.5,-282.25 961.5,-262.75 865.25,-262.75"/>
<polygon fill="none" stroke="black" points="865.25,-262.75 865.25,-282.25 961.5,-282.25 961.5,-262.75 865.25,-262.75"/>
<text text-anchor="start" x="951" y="-268.8" font-family="Helvetica,sans-Serif" font-size="11.00"> &#160;</text>
<polygon fill="#ffffff" stroke="none" points="961.5,-262.75 961.5,-282.25 1057.75,-282.25 1057.75,-262.75 961.5,-262.75"/>
<polygon fill="none" stroke="black" points="961.5,-262.75 961.5,-282.25 1057.75,-282.25 1057.75,-262.75 961.5,-262.75"/>
<text text-anchor="start" x="1047.25" y="-268.8" font-family="Helvetica,sans-Serif" font-size="11.00"> &#160;</text>
</a>
</g>
</g>
<!-- doc_condreport_property_config_type&#45;&gt;doc_condreport_property_config -->
<g id="edge3" class="edge">
<title>doc_condreport_property_config_type:w&#45;&gt;doc_condreport_property_config:e</title>
<path fill="none" stroke="black" d="M740.48,-312.77C715.43,-312.82 703.97,-313 672.75,-313"/>
<polygon fill="black" stroke="black" points="747.67,-312.76 755.67,-316.35 752,-312.75 755.33,-312.75 755.33,-312.75 755.33,-312.75 752,-312.75 755.66,-309.15 747.67,-312.76"/>
<ellipse fill="none" stroke="black" cx="742.75" cy="-312.76" rx="3.2" ry="3.2"/>
</g>
</g>
</svg>
