<?xml version="1.0" encoding="UTF-8" standalone="no"?>
<!DOCTYPE svg PUBLIC "-//W3C//DTD SVG 1.1//EN"
 "http://www.w3.org/Graphics/SVG/1.1/DTD/svg11.dtd">
<!-- Generated by graphviz version 12.2.0 (0)
 -->
<!-- Title: twoDegreesRelationshipsDiagram Pages: 1 -->
<svg width="846pt" height="591pt"
 viewBox="0.00 0.00 846.00 591.25" xmlns="http://www.w3.org/2000/svg" xmlns:xlink="http://www.w3.org/1999/xlink">
<g id="graph0" class="graph" transform="scale(1 1) rotate(0) translate(4 587.25)">
<title>twoDegreesRelationshipsDiagram</title>
<polygon fill="#ffffff" stroke="none" points="-4,4 -4,-587.25 842,-587.25 842,4 -4,4"/>
<text text-anchor="middle" x="79.25" y="-7.05" font-family="Helvetica,sans-Serif" font-size="11.00">Generated by SchemaSpy</text>
<!-- doc_bibliographic_record -->
<g id="node1" class="node">
<title>doc_bibliographic_record</title>
<g id="a_node1"><a xlink:href="../../tables/doc_bibliographic_record.html" xlink:title="doc_bibliographic_record" target="_top">
<polygon fill="#ffffff" stroke="none" points="322.5,-339.5 322.5,-468 537.25,-468 537.25,-339.5 322.5,-339.5"/>
<polygon fill="#f5f5f5" stroke="none" points="322.5,-444.5 322.5,-468 537.25,-468 537.25,-444.5 322.5,-444.5"/>
<polygon fill="none" stroke="black" points="322.5,-444.5 322.5,-468 537.25,-468 537.25,-444.5 322.5,-444.5"/>
<text text-anchor="start" x="327.5" y="-453.55" font-family="Helvetica,sans-Serif" font-weight="bold" font-size="11.00">doc_bibliographic_record</text>
<text text-anchor="start" x="495.5" y="-452.55" font-family="Helvetica,sans-Serif" font-size="11.00">[table]</text>
<polygon fill="none" stroke="black" points="322.5,-422.5 322.5,-444.5 537.25,-444.5 537.25,-422.5 322.5,-422.5"/>
<image xlink:href="../../images/primaryKeys.png" width="11px" height="12px" preserveAspectRatio="xMinYMin meet" x="327.5" y="-439.5"/>
<text text-anchor="start" x="355.38" y="-429.05" font-family="Helvetica,sans-Serif" font-size="11.00">identifier</text>
<polygon fill="#ffffff" stroke="none" points="322.5,-400.5 322.5,-422.5 537.25,-422.5 537.25,-400.5 322.5,-400.5"/>
<polygon fill="none" stroke="black" points="322.5,-400.5 322.5,-422.5 537.25,-422.5 537.25,-400.5 322.5,-400.5"/>
<image xlink:href="../../images/foreignKeys.png" width="11px" height="12px" preserveAspectRatio="xMinYMin meet" x="327.5" y="-417.5"/>
<text text-anchor="start" x="355.38" y="-407.05" font-family="Helvetica,sans-Serif" font-size="11.00">doc_unit</text>
<polygon fill="#ffffff" stroke="none" points="322.5,-378.5 322.5,-400.5 537.25,-400.5 537.25,-378.5 322.5,-378.5"/>
<polygon fill="none" stroke="black" points="322.5,-378.5 322.5,-400.5 537.25,-400.5 537.25,-378.5 322.5,-378.5"/>
<image xlink:href="../../images/foreignKeys.png" width="11px" height="12px" preserveAspectRatio="xMinYMin meet" x="327.5" y="-395.5"/>
<text text-anchor="start" x="355.38" y="-385.05" font-family="Helvetica,sans-Serif" font-size="11.00">library</text>
<polygon fill="none" stroke="black" points="322.5,-359 322.5,-378.5 537.25,-378.5 537.25,-359 322.5,-359"/>
<text text-anchor="start" x="325.5" y="-365.05" font-family="Helvetica,sans-Serif" font-size="11.00">...</text>
<polygon fill="#ffffff" stroke="none" points="322.5,-339.5 322.5,-359 398.08,-359 398.08,-339.5 322.5,-339.5"/>
<polygon fill="none" stroke="black" points="322.5,-339.5 322.5,-359 398.08,-359 398.08,-339.5 322.5,-339.5"/>
<text text-anchor="start" x="325.5" y="-345.55" font-family="Helvetica,sans-Serif" font-size="11.00">&lt; 2</text>
<polygon fill="#ffffff" stroke="none" points="398.08,-339.5 398.08,-359 461.67,-359 461.67,-339.5 398.08,-339.5"/>
<polygon fill="none" stroke="black" points="398.08,-339.5 398.08,-359 461.67,-359 461.67,-339.5 398.08,-339.5"/>
<text text-anchor="start" x="451.17" y="-345.55" font-family="Helvetica,sans-Serif" font-size="11.00"> &#160;</text>
<polygon fill="#ffffff" stroke="none" points="461.67,-339.5 461.67,-359 537.25,-359 537.25,-339.5 461.67,-339.5"/>
<polygon fill="none" stroke="black" points="461.67,-339.5 461.67,-359 537.25,-359 537.25,-339.5 461.67,-339.5"/>
<text text-anchor="start" x="514.75" y="-345.55" font-family="Helvetica,sans-Serif" font-size="11.00">1 &gt;</text>
</a>
</g>
</g>
<!-- doc_unit -->
<g id="node2" class="node">
<title>doc_unit</title>
<g id="a_node2"><a xlink:href="../../tables/doc_unit.html" xlink:title="doc_unit" target="_top">
<polygon fill="#ffffff" stroke="none" points="170.75,-397.5 170.75,-460 273.5,-460 273.5,-397.5 170.75,-397.5"/>
<polygon fill="#f5f5f5" stroke="none" points="170.75,-436.5 170.75,-460 273.5,-460 273.5,-436.5 170.75,-436.5"/>
<polygon fill="none" stroke="black" points="170.75,-436.5 170.75,-460 273.5,-460 273.5,-436.5 170.75,-436.5"/>
<text text-anchor="start" x="175.75" y="-445.55" font-family="Helvetica,sans-Serif" font-weight="bold" font-size="11.00">doc_unit</text>
<text text-anchor="start" x="231.75" y="-444.55" font-family="Helvetica,sans-Serif" font-size="11.00">[table]</text>
<polygon fill="none" stroke="black" points="170.75,-417 170.75,-436.5 273.5,-436.5 273.5,-417 170.75,-417"/>
<text text-anchor="start" x="173.75" y="-423.05" font-family="Helvetica,sans-Serif" font-size="11.00">...</text>
<polygon fill="#ffffff" stroke="none" points="170.75,-397.5 170.75,-417 211.25,-417 211.25,-397.5 170.75,-397.5"/>
<polygon fill="none" stroke="black" points="170.75,-397.5 170.75,-417 211.25,-417 211.25,-397.5 170.75,-397.5"/>
<text text-anchor="start" x="173.75" y="-403.55" font-family="Helvetica,sans-Serif" font-size="11.00">&lt; 13</text>
<polygon fill="#ffffff" stroke="none" points="211.25,-397.5 211.25,-417 233,-417 233,-397.5 211.25,-397.5"/>
<polygon fill="none" stroke="black" points="211.25,-397.5 211.25,-417 233,-417 233,-397.5 211.25,-397.5"/>
<text text-anchor="start" x="222.5" y="-403.55" font-family="Helvetica,sans-Serif" font-size="11.00"> &#160;</text>
<polygon fill="#ffffff" stroke="none" points="233,-397.5 233,-417 273.5,-417 273.5,-397.5 233,-397.5"/>
<polygon fill="none" stroke="black" points="233,-397.5 233,-417 273.5,-417 273.5,-397.5 233,-397.5"/>
<text text-anchor="start" x="244.25" y="-403.55" font-family="Helvetica,sans-Serif" font-size="11.00">11 &gt;</text>
</a>
</g>
</g>
<!-- doc_bibliographic_record&#45;&gt;doc_unit -->
<g id="edge1" class="edge">
<title>doc_bibliographic_record:w&#45;&gt;doc_unit:e</title>
<path fill="none" stroke="black" d="M306.28,-414.59C296.18,-419.04 290.11,-426.75 274.5,-426.75"/>
<polygon fill="black" stroke="black" points="313.33,-413.16 321.89,-415.09 317.58,-412.29 320.84,-411.63 320.84,-411.63 320.84,-411.63 317.58,-412.29 320.46,-408.04 313.33,-413.16"/>
<ellipse fill="none" stroke="black" cx="308.51" cy="-414.13" rx="3.2" ry="3.2"/>
</g>
<!-- lib_library -->
<g id="node3" class="node">
<title>lib_library</title>
<g id="a_node3"><a xlink:href="../../tables/lib_library.html" xlink:title="lib_library" target="_top">
<polygon fill="#ffffff" stroke="none" points="8,-370.5 8,-433 121.75,-433 121.75,-370.5 8,-370.5"/>
<polygon fill="#f5f5f5" stroke="none" points="8,-409.5 8,-433 121.75,-433 121.75,-409.5 8,-409.5"/>
<polygon fill="none" stroke="black" points="8,-409.5 8,-433 121.75,-433 121.75,-409.5 8,-409.5"/>
<text text-anchor="start" x="13" y="-418.55" font-family="Helvetica,sans-Serif" font-weight="bold" font-size="11.00">lib_library</text>
<text text-anchor="start" x="80" y="-417.55" font-family="Helvetica,sans-Serif" font-size="11.00">[table]</text>
<polygon fill="none" stroke="black" points="8,-390 8,-409.5 121.75,-409.5 121.75,-390 8,-390"/>
<text text-anchor="start" x="11" y="-396.05" font-family="Helvetica,sans-Serif" font-size="11.00">...</text>
<polygon fill="#ffffff" stroke="none" points="8,-370.5 8,-390 47.67,-390 47.67,-370.5 8,-370.5"/>
<polygon fill="none" stroke="black" points="8,-370.5 8,-390 47.67,-390 47.67,-370.5 8,-370.5"/>
<text text-anchor="start" x="11" y="-376.55" font-family="Helvetica,sans-Serif" font-size="11.00">&lt; 6</text>
<polygon fill="#ffffff" stroke="none" points="47.67,-370.5 47.67,-390 75.33,-390 75.33,-370.5 47.67,-370.5"/>
<polygon fill="none" stroke="black" points="47.67,-370.5 47.67,-390 75.33,-390 75.33,-370.5 47.67,-370.5"/>
<text text-anchor="start" x="64.83" y="-376.55" font-family="Helvetica,sans-Serif" font-size="11.00"> &#160;</text>
<polygon fill="#ffffff" stroke="none" points="75.33,-370.5 75.33,-390 121.75,-390 121.75,-370.5 75.33,-370.5"/>
<polygon fill="none" stroke="black" points="75.33,-370.5 75.33,-390 121.75,-390 121.75,-370.5 75.33,-370.5"/>
<text text-anchor="start" x="92.5" y="-376.55" font-family="Helvetica,sans-Serif" font-size="11.00">27 &gt;</text>
</a>
</g>
</g>
<!-- doc_bibliographic_record&#45;&gt;lib_library -->
<g id="edge2" class="edge">
<title>doc_bibliographic_record:w&#45;&gt;lib_library:e</title>
<path fill="none" stroke="black" d="M305.71,-388.79C298.51,-388.11 292.63,-387.13 281.5,-386.75 228.75,-384.94 214.88,-378.49 162.75,-386.75 144.29,-389.67 141.44,-399.75 122.75,-399.75"/>
<polygon fill="black" stroke="black" points="313.17,-389.13 321,-393.08 317.5,-389.32 320.83,-389.47 320.83,-389.47 320.83,-389.47 317.5,-389.32 321.33,-385.89 313.17,-389.13"/>
<ellipse fill="none" stroke="black" cx="308.26" cy="-388.91" rx="3.2" ry="3.2"/>
</g>
<!-- doc_unit&#45;&gt;lib_library -->
<g id="edge6" class="edge">
<title>doc_unit:w&#45;&gt;lib_library:e</title>
<path fill="none" stroke="black" d="M154.95,-422.05C144.5,-414.31 140.44,-399.75 122.75,-399.75"/>
<polygon fill="black" stroke="black" points="161.81,-424.23 168.34,-430.08 165.94,-425.54 169.11,-426.55 169.11,-426.55 169.11,-426.55 165.94,-425.54 170.52,-423.22 161.81,-424.23"/>
<ellipse fill="none" stroke="black" cx="157.12" cy="-422.74" rx="3.2" ry="3.2"/>
</g>
<!-- doc_export_property -->
<g id="node4" class="node">
<title>doc_export_property</title>
<g id="a_node4"><a xlink:href="../../tables/doc_export_property.html" xlink:title="doc_export_property" target="_top">
<polygon fill="#ffffff" stroke="none" points="615.25,-206.5 615.25,-269 801,-269 801,-206.5 615.25,-206.5"/>
<polygon fill="#f5f5f5" stroke="none" points="615.25,-245.5 615.25,-269 801,-269 801,-245.5 615.25,-245.5"/>
<polygon fill="none" stroke="black" points="615.25,-245.5 615.25,-269 801,-269 801,-245.5 615.25,-245.5"/>
<text text-anchor="start" x="620.25" y="-254.55" font-family="Helvetica,sans-Serif" font-weight="bold" font-size="11.00">doc_export_property</text>
<text text-anchor="start" x="759.25" y="-253.55" font-family="Helvetica,sans-Serif" font-size="11.00">[table]</text>
<polygon fill="none" stroke="black" points="615.25,-226 615.25,-245.5 801,-245.5 801,-226 615.25,-226"/>
<text text-anchor="start" x="618.25" y="-232.05" font-family="Helvetica,sans-Serif" font-size="11.00">...</text>
<polygon fill="#ffffff" stroke="none" points="615.25,-206.5 615.25,-226 685.17,-226 685.17,-206.5 615.25,-206.5"/>
<polygon fill="none" stroke="black" points="615.25,-206.5 615.25,-226 685.17,-226 685.17,-206.5 615.25,-206.5"/>
<text text-anchor="start" x="618.25" y="-212.55" font-family="Helvetica,sans-Serif" font-size="11.00">&lt; 2</text>
<polygon fill="#ffffff" stroke="none" points="685.17,-206.5 685.17,-226 743.08,-226 743.08,-206.5 685.17,-206.5"/>
<polygon fill="none" stroke="black" points="685.17,-206.5 685.17,-226 743.08,-226 743.08,-206.5 685.17,-206.5"/>
<text text-anchor="start" x="732.58" y="-212.55" font-family="Helvetica,sans-Serif" font-size="11.00"> &#160;</text>
<polygon fill="#ffffff" stroke="none" points="743.08,-206.5 743.08,-226 801,-226 801,-206.5 743.08,-206.5"/>
<polygon fill="none" stroke="black" points="743.08,-206.5 743.08,-226 801,-226 801,-206.5 743.08,-206.5"/>
<text text-anchor="start" x="790.5" y="-212.55" font-family="Helvetica,sans-Serif" font-size="11.00"> &#160;</text>
</a>
</g>
</g>
<!-- doc_property_type -->
<g id="node5" class="node">
<title>doc_property_type</title>
<g id="a_node5"><a xlink:href="../../tables/doc_property_type.html" xlink:title="doc_property_type" target="_top">
<polygon fill="#ffffff" stroke="none" points="344,-144.5 344,-229 515.75,-229 515.75,-144.5 344,-144.5"/>
<polygon fill="#f5f5f5" stroke="none" points="344,-205.5 344,-229 515.75,-229 515.75,-205.5 344,-205.5"/>
<polygon fill="none" stroke="black" points="344,-205.5 344,-229 515.75,-229 515.75,-205.5 344,-205.5"/>
<text text-anchor="start" x="349" y="-214.55" font-family="Helvetica,sans-Serif" font-weight="bold" font-size="11.00">doc_property_type</text>
<text text-anchor="start" x="474" y="-213.55" font-family="Helvetica,sans-Serif" font-size="11.00">[table]</text>
<polygon fill="none" stroke="black" points="344,-183.5 344,-205.5 515.75,-205.5 515.75,-183.5 344,-183.5"/>
<image xlink:href="../../images/primaryKeys.png" width="11px" height="12px" preserveAspectRatio="xMinYMin meet" x="349" y="-200.5"/>
<text text-anchor="start" x="375.88" y="-190.05" font-family="Helvetica,sans-Serif" font-size="11.00">identifier</text>
<polygon fill="none" stroke="black" points="344,-164 344,-183.5 515.75,-183.5 515.75,-164 344,-164"/>
<text text-anchor="start" x="347" y="-170.05" font-family="Helvetica,sans-Serif" font-size="11.00">...</text>
<polygon fill="#ffffff" stroke="none" points="344,-144.5 344,-164 397.25,-164 397.25,-144.5 344,-144.5"/>
<polygon fill="none" stroke="black" points="344,-144.5 344,-164 397.25,-164 397.25,-144.5 344,-144.5"/>
<text text-anchor="start" x="347" y="-150.55" font-family="Helvetica,sans-Serif" font-size="11.00"> &#160;</text>
<polygon fill="#ffffff" stroke="none" points="397.25,-144.5 397.25,-164 450.5,-164 450.5,-144.5 397.25,-144.5"/>
<polygon fill="none" stroke="black" points="397.25,-144.5 397.25,-164 450.5,-164 450.5,-144.5 397.25,-144.5"/>
<text text-anchor="start" x="440" y="-150.55" font-family="Helvetica,sans-Serif" font-size="11.00"> &#160;</text>
<polygon fill="#ffffff" stroke="none" points="450.5,-144.5 450.5,-164 515.75,-164 515.75,-144.5 450.5,-144.5"/>
<polygon fill="none" stroke="black" points="450.5,-144.5 450.5,-164 515.75,-164 515.75,-144.5 450.5,-144.5"/>
<text text-anchor="start" x="493.25" y="-150.55" font-family="Helvetica,sans-Serif" font-size="11.00">4 &gt;</text>
</a>
</g>
</g>
<!-- doc_export_property&#45;&gt;doc_property_type -->
<g id="edge3" class="edge">
<title>doc_export_property:w&#45;&gt;doc_property_type:e</title>
<path fill="none" stroke="black" d="M598.92,-234.08C565.74,-226.36 558.1,-194.5 516.75,-194.5"/>
<polygon fill="black" stroke="black" points="605.96,-234.85 613.53,-239.29 610.27,-235.32 613.58,-235.68 613.58,-235.68 613.58,-235.68 610.27,-235.32 614.31,-232.13 605.96,-234.85"/>
<ellipse fill="none" stroke="black" cx="601.07" cy="-234.32" rx="3.2" ry="3.2"/>
</g>
<!-- doc_property -->
<g id="node6" class="node">
<title>doc_property</title>
<g id="a_node6"><a xlink:href="../../tables/doc_property.html" xlink:title="doc_property" target="_top">
<polygon fill="#ffffff" stroke="none" points="586.25,-290.25 586.25,-579.25 830,-579.25 830,-290.25 586.25,-290.25"/>
<polygon fill="#f5f5f5" stroke="none" points="588.25,-553.75 588.25,-577.25 828,-577.25 828,-553.75 588.25,-553.75"/>
<polygon fill="none" stroke="black" points="588.25,-553.75 588.25,-577.25 828,-577.25 828,-553.75 588.25,-553.75"/>
<text text-anchor="start" x="593.25" y="-562.8" font-family="Helvetica,sans-Serif" font-weight="bold" font-size="11.00">doc_property</text>
<text text-anchor="start" x="786.25" y="-561.8" font-family="Helvetica,sans-Serif" font-size="11.00">[table]</text>
<polygon fill="none" stroke="black" points="588.25,-531.75 588.25,-553.75 736.25,-553.75 736.25,-531.75 588.25,-531.75"/>
<image xlink:href="../../images/primaryKeys.png" width="11px" height="12px" preserveAspectRatio="xMinYMin meet" x="593.25" y="-548.75"/>
<text text-anchor="start" x="608.25" y="-538.3" font-family="Helvetica,sans-Serif" font-size="11.00">identifier</text>
<polygon fill="none" stroke="black" points="736.25,-531.75 736.25,-553.75 826,-553.75 826,-531.75 736.25,-531.75"/>
<text text-anchor="start" x="739.25" y="-539.05" font-family="Helvetica,sans-Serif" font-size="11.00">varchar[191]</text>
<polygon fill="none" stroke="black" points="588.25,-509.75 588.25,-531.75 736.25,-531.75 736.25,-509.75 588.25,-509.75"/>
<text text-anchor="start" x="608.25" y="-516.3" font-family="Helvetica,sans-Serif" font-size="11.00">value</text>
<polygon fill="none" stroke="black" points="736.25,-509.75 736.25,-531.75 826,-531.75 826,-509.75 736.25,-509.75"/>
<text text-anchor="start" x="739.25" y="-517.05" font-family="Helvetica,sans-Serif" font-size="11.00">text[65535]</text>
<polygon fill="none" stroke="black" points="588.25,-487.75 588.25,-509.75 736.25,-509.75 736.25,-487.75 588.25,-487.75"/>
<text text-anchor="start" x="608.25" y="-494.3" font-family="Helvetica,sans-Serif" font-size="11.00">language</text>
<polygon fill="none" stroke="black" points="736.25,-487.75 736.25,-509.75 826,-509.75 826,-487.75 736.25,-487.75"/>
<text text-anchor="start" x="739.25" y="-495.05" font-family="Helvetica,sans-Serif" font-size="11.00">varchar[255]</text>
<polygon fill="none" stroke="black" points="588.25,-465.75 588.25,-487.75 736.25,-487.75 736.25,-465.75 588.25,-465.75"/>
<text text-anchor="start" x="608.25" y="-472.3" font-family="Helvetica,sans-Serif" font-size="11.00">rank</text>
<polygon fill="none" stroke="black" points="736.25,-465.75 736.25,-487.75 826,-487.75 826,-465.75 736.25,-465.75"/>
<text text-anchor="start" x="739.25" y="-473.05" font-family="Helvetica,sans-Serif" font-size="11.00">int[10]</text>
<polygon fill="#ffffff" stroke="none" points="588.25,-443.75 588.25,-465.75 736.25,-465.75 736.25,-443.75 588.25,-443.75"/>
<polygon fill="none" stroke="black" points="588.25,-443.75 588.25,-465.75 736.25,-465.75 736.25,-443.75 588.25,-443.75"/>
<image xlink:href="../../images/foreignKeys.png" width="11px" height="12px" preserveAspectRatio="xMinYMin meet" x="593.25" y="-460.75"/>
<text text-anchor="start" x="608.25" y="-450.3" font-family="Helvetica,sans-Serif" font-size="11.00">type</text>
<polygon fill="none" stroke="black" points="736.25,-443.75 736.25,-465.75 826,-465.75 826,-443.75 736.25,-443.75"/>
<text text-anchor="start" x="739.25" y="-451.05" font-family="Helvetica,sans-Serif" font-size="11.00">varchar[191]</text>
<polygon fill="#ffffff" stroke="none" points="588.25,-421.75 588.25,-443.75 736.25,-443.75 736.25,-421.75 588.25,-421.75"/>
<polygon fill="none" stroke="black" points="588.25,-421.75 588.25,-443.75 736.25,-443.75 736.25,-421.75 588.25,-421.75"/>
<image xlink:href="../../images/foreignKeys.png" width="11px" height="12px" preserveAspectRatio="xMinYMin meet" x="593.25" y="-438.75"/>
<text text-anchor="start" x="608.25" y="-428.3" font-family="Helvetica,sans-Serif" font-size="11.00">record</text>
<polygon fill="none" stroke="black" points="736.25,-421.75 736.25,-443.75 826,-443.75 826,-421.75 736.25,-421.75"/>
<text text-anchor="start" x="739.25" y="-429.05" font-family="Helvetica,sans-Serif" font-size="11.00">varchar[191]</text>
<polygon fill="none" stroke="black" points="588.25,-399.75 588.25,-421.75 736.25,-421.75 736.25,-399.75 588.25,-399.75"/>
<text text-anchor="start" x="608.25" y="-406.3" font-family="Helvetica,sans-Serif" font-size="11.00">version</text>
<polygon fill="none" stroke="black" points="736.25,-399.75 736.25,-421.75 826,-421.75 826,-399.75 736.25,-399.75"/>
<text text-anchor="start" x="739.25" y="-407.05" font-family="Helvetica,sans-Serif" font-size="11.00">bigint[19]</text>
<polygon fill="none" stroke="black" points="588.25,-377.75 588.25,-399.75 736.25,-399.75 736.25,-377.75 588.25,-377.75"/>
<text text-anchor="start" x="608.25" y="-384.3" font-family="Helvetica,sans-Serif" font-size="11.00">created_by</text>
<polygon fill="none" stroke="black" points="736.25,-377.75 736.25,-399.75 826,-399.75 826,-377.75 736.25,-377.75"/>
<text text-anchor="start" x="739.25" y="-385.05" font-family="Helvetica,sans-Serif" font-size="11.00">varchar[191]</text>
<polygon fill="none" stroke="black" points="588.25,-355.75 588.25,-377.75 736.25,-377.75 736.25,-355.75 588.25,-355.75"/>
<text text-anchor="start" x="608.25" y="-362.3" font-family="Helvetica,sans-Serif" font-size="11.00">last_modified_by</text>
<polygon fill="none" stroke="black" points="736.25,-355.75 736.25,-377.75 826,-377.75 826,-355.75 736.25,-355.75"/>
<text text-anchor="start" x="739.25" y="-363.05" font-family="Helvetica,sans-Serif" font-size="11.00">varchar[191]</text>
<polygon fill="none" stroke="black" points="588.25,-333.75 588.25,-355.75 736.25,-355.75 736.25,-333.75 588.25,-333.75"/>
<text text-anchor="start" x="608.25" y="-340.3" font-family="Helvetica,sans-Serif" font-size="11.00">created_date</text>
<polygon fill="none" stroke="black" points="736.25,-333.75 736.25,-355.75 826,-355.75 826,-333.75 736.25,-333.75"/>
<text text-anchor="start" x="739.25" y="-341.05" font-family="Helvetica,sans-Serif" font-size="11.00">timestamp[19]</text>
<polygon fill="none" stroke="black" points="588.25,-311.75 588.25,-333.75 736.25,-333.75 736.25,-311.75 588.25,-311.75"/>
<text text-anchor="start" x="608.25" y="-318.3" font-family="Helvetica,sans-Serif" font-size="11.00">last_modified_date</text>
<polygon fill="none" stroke="black" points="736.25,-311.75 736.25,-333.75 826,-333.75 826,-311.75 736.25,-311.75"/>
<text text-anchor="start" x="739.25" y="-319.05" font-family="Helvetica,sans-Serif" font-size="11.00">timestamp[19]</text>
<polygon fill="#ffffff" stroke="none" points="588.25,-292.25 588.25,-311.75 668.25,-311.75 668.25,-292.25 588.25,-292.25"/>
<polygon fill="none" stroke="black" points="588.25,-292.25 588.25,-311.75 668.25,-311.75 668.25,-292.25 588.25,-292.25"/>
<text text-anchor="start" x="591.25" y="-298.3" font-family="Helvetica,sans-Serif" font-size="11.00">&lt; 2</text>
<polygon fill="#ffffff" stroke="none" points="668.25,-292.25 668.25,-311.75 736.25,-311.75 736.25,-292.25 668.25,-292.25"/>
<polygon fill="none" stroke="black" points="668.25,-292.25 668.25,-311.75 736.25,-311.75 736.25,-292.25 668.25,-292.25"/>
<text text-anchor="start" x="725.75" y="-298.3" font-family="Helvetica,sans-Serif" font-size="11.00"> &#160;</text>
<polygon fill="#ffffff" stroke="none" points="736.25,-292.25 736.25,-311.75 826,-311.75 826,-292.25 736.25,-292.25"/>
<polygon fill="none" stroke="black" points="736.25,-292.25 736.25,-311.75 826,-311.75 826,-292.25 736.25,-292.25"/>
<text text-anchor="start" x="803.5" y="-298.3" font-family="Helvetica,sans-Serif" font-size="11.00">0 &gt;</text>
<polygon fill="none" stroke="black" stroke-width="2" points="587.25,-291.25 587.25,-578.25 829,-578.25 829,-291.25 587.25,-291.25"/>
</a>
</g>
</g>
<!-- doc_property&#45;&gt;doc_bibliographic_record -->
<g id="edge4" class="edge">
<title>doc_property:w&#45;&gt;doc_bibliographic_record:e</title>
<path fill="none" stroke="black" d="M571.67,-432.9C560.96,-433.12 553.73,-433.5 538.25,-433.5"/>
<polygon fill="black" stroke="black" points="578.92,-432.83 586.95,-436.35 583.25,-432.79 586.58,-432.76 586.58,-432.76 586.58,-432.76 583.25,-432.79 586.88,-429.15 578.92,-432.83"/>
<ellipse fill="none" stroke="black" cx="574" cy="-432.88" rx="3.2" ry="3.2"/>
</g>
<!-- doc_property&#45;&gt;doc_property_type -->
<g id="edge5" class="edge">
<title>doc_property:w&#45;&gt;doc_property_type:e</title>
<path fill="none" stroke="black" d="M573.1,-448.32C535.62,-408.24 571.05,-194.5 516.75,-194.5"/>
<polygon fill="black" stroke="black" points="579.66,-451.3 585.46,-457.89 583.61,-453.09 586.64,-454.47 586.64,-454.47 586.64,-454.47 583.61,-453.09 588.44,-451.33 579.66,-451.3"/>
<ellipse fill="none" stroke="black" cx="575.19" cy="-449.27" rx="3.2" ry="3.2"/>
</g>
<!-- exc_csv_mapping_rule -->
<g id="node7" class="node">
<title>exc_csv_mapping_rule</title>
<g id="a_node7"><a xlink:href="../../tables/exc_csv_mapping_rule.html" xlink:title="exc_csv_mapping_rule" target="_top">
<polygon fill="#ffffff" stroke="none" points="610.75,-122.5 610.75,-185 805.5,-185 805.5,-122.5 610.75,-122.5"/>
<polygon fill="#f5f5f5" stroke="none" points="610.75,-161.5 610.75,-185 805.5,-185 805.5,-161.5 610.75,-161.5"/>
<polygon fill="none" stroke="black" points="610.75,-161.5 610.75,-185 805.5,-185 805.5,-161.5 610.75,-161.5"/>
<text text-anchor="start" x="615.75" y="-170.55" font-family="Helvetica,sans-Serif" font-weight="bold" font-size="11.00">exc_csv_mapping_rule</text>
<text text-anchor="start" x="763.75" y="-169.55" font-family="Helvetica,sans-Serif" font-size="11.00">[table]</text>
<polygon fill="none" stroke="black" points="610.75,-142 610.75,-161.5 805.5,-161.5 805.5,-142 610.75,-142"/>
<text text-anchor="start" x="613.75" y="-148.05" font-family="Helvetica,sans-Serif" font-size="11.00">...</text>
<polygon fill="#ffffff" stroke="none" points="610.75,-122.5 610.75,-142 683.67,-142 683.67,-122.5 610.75,-122.5"/>
<polygon fill="none" stroke="black" points="610.75,-122.5 610.75,-142 683.67,-142 683.67,-122.5 610.75,-122.5"/>
<text text-anchor="start" x="613.75" y="-128.55" font-family="Helvetica,sans-Serif" font-size="11.00">&lt; 2</text>
<polygon fill="#ffffff" stroke="none" points="683.67,-122.5 683.67,-142 744.58,-142 744.58,-122.5 683.67,-122.5"/>
<polygon fill="none" stroke="black" points="683.67,-122.5 683.67,-142 744.58,-142 744.58,-122.5 683.67,-122.5"/>
<text text-anchor="start" x="734.08" y="-128.55" font-family="Helvetica,sans-Serif" font-size="11.00"> &#160;</text>
<polygon fill="#ffffff" stroke="none" points="744.58,-122.5 744.58,-142 805.5,-142 805.5,-122.5 744.58,-122.5"/>
<polygon fill="none" stroke="black" points="744.58,-122.5 744.58,-142 805.5,-142 805.5,-122.5 744.58,-122.5"/>
<text text-anchor="start" x="795" y="-128.55" font-family="Helvetica,sans-Serif" font-size="11.00"> &#160;</text>
</a>
</g>
</g>
<!-- exc_csv_mapping_rule&#45;&gt;doc_property_type -->
<g id="edge7" class="edge">
<title>exc_csv_mapping_rule:w&#45;&gt;doc_property_type:e</title>
<path fill="none" stroke="black" d="M594.14,-153.7C563.02,-162.06 556.38,-194.5 516.75,-194.5"/>
<polygon fill="black" stroke="black" points="601.48,-152.78 609.86,-155.36 605.78,-152.25 609.09,-151.83 609.09,-151.83 609.09,-151.83 605.78,-152.25 608.97,-148.22 601.48,-152.78"/>
<ellipse fill="none" stroke="black" cx="596.6" cy="-153.39" rx="3.2" ry="3.2"/>
</g>
<!-- exc_mapping_rule -->
<g id="node8" class="node">
<title>exc_mapping_rule</title>
<g id="a_node8"><a xlink:href="../../tables/exc_mapping_rule.html" xlink:title="exc_mapping_rule" target="_top">
<polygon fill="#ffffff" stroke="none" points="624.75,-38.5 624.75,-101 791.5,-101 791.5,-38.5 624.75,-38.5"/>
<polygon fill="#f5f5f5" stroke="none" points="624.75,-77.5 624.75,-101 791.5,-101 791.5,-77.5 624.75,-77.5"/>
<polygon fill="none" stroke="black" points="624.75,-77.5 624.75,-101 791.5,-101 791.5,-77.5 624.75,-77.5"/>
<text text-anchor="start" x="629.75" y="-86.55" font-family="Helvetica,sans-Serif" font-weight="bold" font-size="11.00">exc_mapping_rule</text>
<text text-anchor="start" x="749.75" y="-85.55" font-family="Helvetica,sans-Serif" font-size="11.00">[table]</text>
<polygon fill="none" stroke="black" points="624.75,-58 624.75,-77.5 791.5,-77.5 791.5,-58 624.75,-58"/>
<text text-anchor="start" x="627.75" y="-64.05" font-family="Helvetica,sans-Serif" font-size="11.00">...</text>
<polygon fill="#ffffff" stroke="none" points="624.75,-38.5 624.75,-58 688.33,-58 688.33,-38.5 624.75,-38.5"/>
<polygon fill="none" stroke="black" points="624.75,-38.5 624.75,-58 688.33,-58 688.33,-38.5 624.75,-38.5"/>
<text text-anchor="start" x="627.75" y="-44.55" font-family="Helvetica,sans-Serif" font-size="11.00">&lt; 2</text>
<polygon fill="#ffffff" stroke="none" points="688.33,-38.5 688.33,-58 739.92,-58 739.92,-38.5 688.33,-38.5"/>
<polygon fill="none" stroke="black" points="688.33,-38.5 688.33,-58 739.92,-58 739.92,-38.5 688.33,-38.5"/>
<text text-anchor="start" x="729.42" y="-44.55" font-family="Helvetica,sans-Serif" font-size="11.00"> &#160;</text>
<polygon fill="#ffffff" stroke="none" points="739.92,-38.5 739.92,-58 791.5,-58 791.5,-38.5 739.92,-38.5"/>
<polygon fill="none" stroke="black" points="739.92,-38.5 739.92,-58 791.5,-58 791.5,-38.5 739.92,-38.5"/>
<text text-anchor="start" x="781" y="-44.55" font-family="Helvetica,sans-Serif" font-size="11.00"> &#160;</text>
</a>
</g>
</g>
<!-- exc_mapping_rule&#45;&gt;doc_property_type -->
<g id="edge8" class="edge">
<title>exc_mapping_rule:w&#45;&gt;doc_property_type:e</title>
<path fill="none" stroke="black" d="M608.12,-70.06C555.77,-87.24 584.57,-194.5 516.75,-194.5"/>
<polygon fill="black" stroke="black" points="615.5,-68.97 623.95,-71.36 619.79,-68.33 623.09,-67.85 623.09,-67.85 623.09,-67.85 619.79,-68.33 622.89,-64.24 615.5,-68.97"/>
<ellipse fill="none" stroke="black" cx="610.64" cy="-69.69" rx="3.2" ry="3.2"/>
</g>
</g>
</svg>
