<?xml version="1.0" encoding="UTF-8" standalone="no"?>
<!DOCTYPE svg PUBLIC "-//W3C//DTD SVG 1.1//EN"
 "http://www.w3.org/Graphics/SVG/1.1/DTD/svg11.dtd">
<!-- Generated by graphviz version 12.2.0 (0)
 -->
<!-- Title: oneDegreeRelationshipsDiagram Pages: 1 -->
<svg width="874pt" height="659pt"
 viewBox="0.00 0.00 873.50 659.00" xmlns="http://www.w3.org/2000/svg" xmlns:xlink="http://www.w3.org/1999/xlink">
<g id="graph0" class="graph" transform="scale(1 1) rotate(0) translate(4 655)">
<title>oneDegreeRelationshipsDiagram</title>
<polygon fill="#ffffff" stroke="none" points="-4,4 -4,-655 869.5,-655 869.5,4 -4,4"/>
<text text-anchor="middle" x="79.25" y="-7.05" font-family="Helvetica,sans-Serif" font-size="11.00">Generated by SchemaSpy</text>
<!-- check_automatic_result -->
<g id="node1" class="node">
<title>check_automatic_result</title>
<g id="a_node1"><a xlink:href="../../tables/check_automatic_result.html" xlink:title="check_automatic_result" target="_top">
<polygon fill="#ffffff" stroke="none" points="627.75,-430.5 627.75,-647 832.5,-647 832.5,-430.5 627.75,-430.5"/>
<polygon fill="#f5f5f5" stroke="none" points="627.75,-623.5 627.75,-647 832.5,-647 832.5,-623.5 627.75,-623.5"/>
<polygon fill="none" stroke="black" points="627.75,-623.5 627.75,-647 832.5,-647 832.5,-623.5 627.75,-623.5"/>
<text text-anchor="start" x="632.75" y="-632.55" font-family="Helvetica,sans-Serif" font-weight="bold" font-size="11.00">check_automatic_result</text>
<text text-anchor="start" x="790.75" y="-631.55" font-family="Helvetica,sans-Serif" font-size="11.00">[table]</text>
<polygon fill="none" stroke="black" points="627.75,-601.5 627.75,-623.5 832.5,-623.5 832.5,-601.5 627.75,-601.5"/>
<image xlink:href="../../images/primaryKeys.png" width="11px" height="12px" preserveAspectRatio="xMinYMin meet" x="632.75" y="-618.5"/>
<text text-anchor="start" x="660.62" y="-608.05" font-family="Helvetica,sans-Serif" font-size="11.00">identifier</text>
<polygon fill="#ffffff" stroke="none" points="627.75,-579.5 627.75,-601.5 832.5,-601.5 832.5,-579.5 627.75,-579.5"/>
<polygon fill="none" stroke="black" points="627.75,-579.5 627.75,-601.5 832.5,-601.5 832.5,-579.5 627.75,-579.5"/>
<image xlink:href="../../images/foreignKeys.png" width="11px" height="12px" preserveAspectRatio="xMinYMin meet" x="632.75" y="-596.5"/>
<text text-anchor="start" x="660.62" y="-586.05" font-family="Helvetica,sans-Serif" font-size="11.00">check_type</text>
<polygon fill="#ffffff" stroke="none" points="627.75,-557.5 627.75,-579.5 832.5,-579.5 832.5,-557.5 627.75,-557.5"/>
<polygon fill="none" stroke="black" points="627.75,-557.5 627.75,-579.5 832.5,-579.5 832.5,-557.5 627.75,-557.5"/>
<image xlink:href="../../images/foreignKeys.png" width="11px" height="12px" preserveAspectRatio="xMinYMin meet" x="632.75" y="-574.5"/>
<text text-anchor="start" x="660.62" y="-564.05" font-family="Helvetica,sans-Serif" font-size="11.00">digital_document</text>
<polygon fill="#ffffff" stroke="none" points="627.75,-535.5 627.75,-557.5 832.5,-557.5 832.5,-535.5 627.75,-535.5"/>
<polygon fill="none" stroke="black" points="627.75,-535.5 627.75,-557.5 832.5,-557.5 832.5,-535.5 627.75,-535.5"/>
<image xlink:href="../../images/foreignKeys.png" width="11px" height="12px" preserveAspectRatio="xMinYMin meet" x="632.75" y="-552.5"/>
<text text-anchor="start" x="660.62" y="-542.05" font-family="Helvetica,sans-Serif" font-size="11.00">doc_unit</text>
<polygon fill="#ffffff" stroke="none" points="627.75,-513.5 627.75,-535.5 832.5,-535.5 832.5,-513.5 627.75,-513.5"/>
<polygon fill="none" stroke="black" points="627.75,-513.5 627.75,-535.5 832.5,-535.5 832.5,-513.5 627.75,-513.5"/>
<image xlink:href="../../images/foreignKeys.png" width="11px" height="12px" preserveAspectRatio="xMinYMin meet" x="632.75" y="-530.5"/>
<text text-anchor="start" x="660.62" y="-520.05" font-family="Helvetica,sans-Serif" font-size="11.00">page</text>
<polygon fill="#ffffff" stroke="none" points="627.75,-491.5 627.75,-513.5 832.5,-513.5 832.5,-491.5 627.75,-491.5"/>
<polygon fill="none" stroke="black" points="627.75,-491.5 627.75,-513.5 832.5,-513.5 832.5,-491.5 627.75,-491.5"/>
<image xlink:href="../../images/foreignKeys.png" width="11px" height="12px" preserveAspectRatio="xMinYMin meet" x="632.75" y="-508.5"/>
<text text-anchor="start" x="660.62" y="-498.05" font-family="Helvetica,sans-Serif" font-size="11.00">delivery</text>
<polygon fill="#ffffff" stroke="none" points="627.75,-469.5 627.75,-491.5 832.5,-491.5 832.5,-469.5 627.75,-469.5"/>
<polygon fill="none" stroke="black" points="627.75,-469.5 627.75,-491.5 832.5,-491.5 832.5,-469.5 627.75,-469.5"/>
<image xlink:href="../../images/foreignKeys.png" width="11px" height="12px" preserveAspectRatio="xMinYMin meet" x="632.75" y="-486.5"/>
<text text-anchor="start" x="660.62" y="-476.05" font-family="Helvetica,sans-Serif" font-size="11.00">physical_document</text>
<polygon fill="none" stroke="black" points="627.75,-450 627.75,-469.5 832.5,-469.5 832.5,-450 627.75,-450"/>
<text text-anchor="start" x="630.75" y="-456.05" font-family="Helvetica,sans-Serif" font-size="11.00">...</text>
<polygon fill="#ffffff" stroke="none" points="627.75,-430.5 627.75,-450 704,-450 704,-430.5 627.75,-430.5"/>
<polygon fill="none" stroke="black" points="627.75,-430.5 627.75,-450 704,-450 704,-430.5 627.75,-430.5"/>
<text text-anchor="start" x="630.75" y="-436.55" font-family="Helvetica,sans-Serif" font-size="11.00">&lt; 6</text>
<polygon fill="#ffffff" stroke="none" points="704,-430.5 704,-450 768.25,-450 768.25,-430.5 704,-430.5"/>
<polygon fill="none" stroke="black" points="704,-430.5 704,-450 768.25,-450 768.25,-430.5 704,-430.5"/>
<text text-anchor="start" x="757.75" y="-436.55" font-family="Helvetica,sans-Serif" font-size="11.00"> &#160;</text>
<polygon fill="#ffffff" stroke="none" points="768.25,-430.5 768.25,-450 832.5,-450 832.5,-430.5 768.25,-430.5"/>
<polygon fill="none" stroke="black" points="768.25,-430.5 768.25,-450 832.5,-450 832.5,-430.5 768.25,-430.5"/>
<text text-anchor="start" x="822" y="-436.55" font-family="Helvetica,sans-Serif" font-size="11.00"> &#160;</text>
</a>
</g>
</g>
<!-- doc_unit -->
<g id="node2" class="node">
<title>doc_unit</title>
<g id="a_node2"><a xlink:href="../../tables/doc_unit.html" xlink:title="doc_unit" target="_top">
<polygon fill="#ffffff" stroke="none" points="8,-166.5 8,-581 195,-581 195,-166.5 8,-166.5"/>
<polygon fill="#f5f5f5" stroke="none" points="8,-557.5 8,-581 195,-581 195,-557.5 8,-557.5"/>
<polygon fill="none" stroke="black" points="8,-557.5 8,-581 195,-581 195,-557.5 8,-557.5"/>
<text text-anchor="start" x="13" y="-566.55" font-family="Helvetica,sans-Serif" font-weight="bold" font-size="11.00">doc_unit</text>
<text text-anchor="start" x="153.25" y="-565.55" font-family="Helvetica,sans-Serif" font-size="11.00">[table]</text>
<polygon fill="none" stroke="black" points="8,-535.5 8,-557.5 195,-557.5 195,-535.5 8,-535.5"/>
<image xlink:href="../../images/primaryKeys.png" width="11px" height="12px" preserveAspectRatio="xMinYMin meet" x="13" y="-552.5"/>
<text text-anchor="start" x="28" y="-542.05" font-family="Helvetica,sans-Serif" font-size="11.00">identifier</text>
<polygon fill="#ffffff" stroke="none" points="8,-513.5 8,-535.5 195,-535.5 195,-513.5 8,-513.5"/>
<polygon fill="none" stroke="black" points="8,-513.5 8,-535.5 195,-535.5 195,-513.5 8,-513.5"/>
<text text-anchor="start" x="28" y="-520.05" font-family="Helvetica,sans-Serif" font-size="11.00">pgcn_id</text>
<polygon fill="#ffffff" stroke="none" points="8,-491.5 8,-513.5 195,-513.5 195,-491.5 8,-491.5"/>
<polygon fill="none" stroke="black" points="8,-491.5 8,-513.5 195,-513.5 195,-491.5 8,-491.5"/>
<image xlink:href="../../images/foreignKeys.png" width="11px" height="12px" preserveAspectRatio="xMinYMin meet" x="13" y="-508.5"/>
<text text-anchor="start" x="28" y="-498.05" font-family="Helvetica,sans-Serif" font-size="11.00">library</text>
<polygon fill="#ffffff" stroke="none" points="8,-469.5 8,-491.5 195,-491.5 195,-469.5 8,-469.5"/>
<polygon fill="none" stroke="black" points="8,-469.5 8,-491.5 195,-491.5 195,-469.5 8,-469.5"/>
<image xlink:href="../../images/foreignKeys.png" width="11px" height="12px" preserveAspectRatio="xMinYMin meet" x="13" y="-486.5"/>
<text text-anchor="start" x="28" y="-476.05" font-family="Helvetica,sans-Serif" font-size="11.00">project</text>
<polygon fill="#ffffff" stroke="none" points="8,-447.5 8,-469.5 195,-469.5 195,-447.5 8,-447.5"/>
<polygon fill="none" stroke="black" points="8,-447.5 8,-469.5 195,-469.5 195,-447.5 8,-447.5"/>
<text text-anchor="start" x="28" y="-454.05" font-family="Helvetica,sans-Serif" font-size="11.00">state</text>
<polygon fill="#ffffff" stroke="none" points="8,-425.5 8,-447.5 195,-447.5 195,-425.5 8,-425.5"/>
<polygon fill="none" stroke="black" points="8,-425.5 8,-447.5 195,-447.5 195,-425.5 8,-425.5"/>
<image xlink:href="../../images/foreignKeys.png" width="11px" height="12px" preserveAspectRatio="xMinYMin meet" x="13" y="-442.5"/>
<text text-anchor="start" x="28" y="-432.05" font-family="Helvetica,sans-Serif" font-size="11.00">lot</text>
<polygon fill="#ffffff" stroke="none" points="8,-403.5 8,-425.5 195,-425.5 195,-403.5 8,-403.5"/>
<polygon fill="none" stroke="black" points="8,-403.5 8,-425.5 195,-425.5 195,-403.5 8,-403.5"/>
<image xlink:href="../../images/foreignKeys.png" width="11px" height="12px" preserveAspectRatio="xMinYMin meet" x="13" y="-420.5"/>
<text text-anchor="start" x="28" y="-410.05" font-family="Helvetica,sans-Serif" font-size="11.00">collection_omeka</text>
<polygon fill="#ffffff" stroke="none" points="8,-381.5 8,-403.5 195,-403.5 195,-381.5 8,-381.5"/>
<polygon fill="none" stroke="black" points="8,-381.5 8,-403.5 195,-403.5 195,-381.5 8,-381.5"/>
<image xlink:href="../../images/foreignKeys.png" width="11px" height="12px" preserveAspectRatio="xMinYMin meet" x="13" y="-398.5"/>
<text text-anchor="start" x="28" y="-388.05" font-family="Helvetica,sans-Serif" font-size="11.00">items_omeka</text>
<polygon fill="#ffffff" stroke="none" points="8,-359.5 8,-381.5 195,-381.5 195,-359.5 8,-359.5"/>
<polygon fill="none" stroke="black" points="8,-359.5 8,-381.5 195,-381.5 195,-359.5 8,-359.5"/>
<image xlink:href="../../images/foreignKeys.png" width="11px" height="12px" preserveAspectRatio="xMinYMin meet" x="13" y="-376.5"/>
<text text-anchor="start" x="28" y="-366.05" font-family="Helvetica,sans-Serif" font-size="11.00">parent</text>
<polygon fill="#ffffff" stroke="none" points="8,-337.5 8,-359.5 195,-359.5 195,-337.5 8,-337.5"/>
<polygon fill="none" stroke="black" points="8,-337.5 8,-359.5 195,-359.5 195,-337.5 8,-337.5"/>
<image xlink:href="../../images/foreignKeys.png" width="11px" height="12px" preserveAspectRatio="xMinYMin meet" x="13" y="-354.5"/>
<text text-anchor="start" x="28" y="-344.05" font-family="Helvetica,sans-Serif" font-size="11.00">active_ocr_lang</text>
<polygon fill="#ffffff" stroke="none" points="8,-315.5 8,-337.5 195,-337.5 195,-315.5 8,-315.5"/>
<polygon fill="none" stroke="black" points="8,-315.5 8,-337.5 195,-337.5 195,-315.5 8,-315.5"/>
<image xlink:href="../../images/foreignKeys.png" width="11px" height="12px" preserveAspectRatio="xMinYMin meet" x="13" y="-332.5"/>
<text text-anchor="start" x="28" y="-322.05" font-family="Helvetica,sans-Serif" font-size="11.00">collection_ia</text>
<polygon fill="#ffffff" stroke="none" points="8,-293.5 8,-315.5 195,-315.5 195,-293.5 8,-293.5"/>
<polygon fill="none" stroke="black" points="8,-293.5 8,-315.5 195,-315.5 195,-293.5 8,-293.5"/>
<image xlink:href="../../images/foreignKeys.png" width="11px" height="12px" preserveAspectRatio="xMinYMin meet" x="13" y="-310.5"/>
<text text-anchor="start" x="28" y="-300.05" font-family="Helvetica,sans-Serif" font-size="11.00">classement_pac</text>
<polygon fill="#ffffff" stroke="none" points="8,-271.5 8,-293.5 195,-293.5 195,-271.5 8,-271.5"/>
<polygon fill="none" stroke="black" points="8,-271.5 8,-293.5 195,-293.5 195,-271.5 8,-271.5"/>
<image xlink:href="../../images/foreignKeys.png" width="11px" height="12px" preserveAspectRatio="xMinYMin meet" x="13" y="-288.5"/>
<text text-anchor="start" x="28" y="-278.05" font-family="Helvetica,sans-Serif" font-size="11.00">sibling</text>
<polygon fill="#ffffff" stroke="none" points="8,-249.5 8,-271.5 195,-271.5 195,-249.5 8,-249.5"/>
<polygon fill="none" stroke="black" points="8,-249.5 8,-271.5 195,-271.5 195,-249.5 8,-249.5"/>
<image xlink:href="../../images/foreignKeys.png" width="11px" height="12px" preserveAspectRatio="xMinYMin meet" x="13" y="-266.5"/>
<text text-anchor="start" x="28" y="-256.05" font-family="Helvetica,sans-Serif" font-size="11.00">export_data</text>
<polygon fill="#ffffff" stroke="none" points="8,-227.5 8,-249.5 195,-249.5 195,-227.5 8,-227.5"/>
<polygon fill="none" stroke="black" points="8,-227.5 8,-249.5 195,-249.5 195,-227.5 8,-227.5"/>
<image xlink:href="../../images/foreignKeys.png" width="11px" height="12px" preserveAspectRatio="xMinYMin meet" x="13" y="-244.5"/>
<text text-anchor="start" x="28" y="-234.05" font-family="Helvetica,sans-Serif" font-size="11.00">archive_item</text>
<polygon fill="#ffffff" stroke="none" points="8,-205.5 8,-227.5 195,-227.5 195,-205.5 8,-205.5"/>
<polygon fill="none" stroke="black" points="8,-205.5 8,-227.5 195,-227.5 195,-205.5 8,-205.5"/>
<image xlink:href="../../images/foreignKeys.png" width="11px" height="12px" preserveAspectRatio="xMinYMin meet" x="13" y="-222.5"/>
<text text-anchor="start" x="28" y="-212.05" font-family="Helvetica,sans-Serif" font-size="11.00">workflow</text>
<polygon fill="none" stroke="black" points="8,-186 8,-205.5 195,-205.5 195,-186 8,-186"/>
<text text-anchor="start" x="11" y="-192.05" font-family="Helvetica,sans-Serif" font-size="11.00">...</text>
<polygon fill="#ffffff" stroke="none" points="8,-166.5 8,-186 76.58,-186 76.58,-166.5 8,-166.5"/>
<polygon fill="none" stroke="black" points="8,-166.5 8,-186 76.58,-186 76.58,-166.5 8,-166.5"/>
<text text-anchor="start" x="11" y="-172.55" font-family="Helvetica,sans-Serif" font-size="11.00">&lt; 13</text>
<polygon fill="#ffffff" stroke="none" points="76.58,-166.5 76.58,-186 126.42,-186 126.42,-166.5 76.58,-166.5"/>
<polygon fill="none" stroke="black" points="76.58,-166.5 76.58,-186 126.42,-186 126.42,-166.5 76.58,-166.5"/>
<text text-anchor="start" x="115.92" y="-172.55" font-family="Helvetica,sans-Serif" font-size="11.00"> &#160;</text>
<polygon fill="#ffffff" stroke="none" points="126.42,-166.5 126.42,-186 195,-186 195,-166.5 126.42,-166.5"/>
<polygon fill="none" stroke="black" points="126.42,-166.5 126.42,-186 195,-186 195,-166.5 126.42,-166.5"/>
<text text-anchor="start" x="165.75" y="-172.55" font-family="Helvetica,sans-Serif" font-size="11.00">11 &gt;</text>
</a>
</g>
</g>
<!-- check_automatic_result&#45;&gt;doc_unit -->
<g id="edge1" class="edge">
<title>check_automatic_result:w&#45;&gt;doc_unit:e</title>
<path fill="none" stroke="black" d="M611.09,-546.5C432.53,-546.5 382.12,-546.5 196,-546.5"/>
<polygon fill="black" stroke="black" points="618.42,-546.5 626.42,-550.1 622.75,-546.5 626.08,-546.5 626.08,-546.5 626.08,-546.5 622.75,-546.5 626.42,-542.9 618.42,-546.5"/>
<ellipse fill="none" stroke="black" cx="613.5" cy="-546.5" rx="3.2" ry="3.2"/>
</g>
<!-- doc_physical_document -->
<g id="node3" class="node">
<title>doc_physical_document</title>
<g id="a_node3"><a xlink:href="../../tables/doc_physical_document.html" xlink:title="doc_physical_document" target="_top">
<polygon fill="#ffffff" stroke="none" points="244,-153.25 244,-464.25 553.75,-464.25 553.75,-153.25 244,-153.25"/>
<polygon fill="#f5f5f5" stroke="none" points="246,-438.75 246,-462.25 551.75,-462.25 551.75,-438.75 246,-438.75"/>
<polygon fill="none" stroke="black" points="246,-438.75 246,-462.25 551.75,-462.25 551.75,-438.75 246,-438.75"/>
<text text-anchor="start" x="251" y="-447.8" font-family="Helvetica,sans-Serif" font-weight="bold" font-size="11.00">doc_physical_document</text>
<text text-anchor="start" x="510" y="-446.8" font-family="Helvetica,sans-Serif" font-size="11.00">[table]</text>
<polygon fill="none" stroke="black" points="246,-416.75 246,-438.75 425,-438.75 425,-416.75 246,-416.75"/>
<image xlink:href="../../images/primaryKeys.png" width="11px" height="12px" preserveAspectRatio="xMinYMin meet" x="251" y="-433.75"/>
<text text-anchor="start" x="266" y="-423.3" font-family="Helvetica,sans-Serif" font-size="11.00">identifier</text>
<polygon fill="none" stroke="black" points="425,-416.75 425,-438.75 532.25,-438.75 532.25,-416.75 425,-416.75"/>
<text text-anchor="start" x="428" y="-424.05" font-family="Helvetica,sans-Serif" font-size="11.00">varchar[191]</text>
<polygon fill="none" stroke="black" points="246,-394.75 246,-416.75 425,-416.75 425,-394.75 246,-394.75"/>
<text text-anchor="start" x="266" y="-401.3" font-family="Helvetica,sans-Serif" font-size="11.00">total_page</text>
<polygon fill="none" stroke="black" points="425,-394.75 425,-416.75 532.25,-416.75 532.25,-394.75 425,-394.75"/>
<text text-anchor="start" x="428" y="-402.05" font-family="Helvetica,sans-Serif" font-size="11.00">int[10]</text>
<polygon fill="none" stroke="black" points="246,-372.75 246,-394.75 425,-394.75 425,-372.75 246,-372.75"/>
<text text-anchor="start" x="266" y="-379.3" font-family="Helvetica,sans-Serif" font-size="11.00">status</text>
<polygon fill="none" stroke="black" points="425,-372.75 425,-394.75 532.25,-394.75 532.25,-372.75 425,-372.75"/>
<text text-anchor="start" x="428" y="-380.05" font-family="Helvetica,sans-Serif" font-size="11.00">varchar[255]</text>
<polygon fill="#ffffff" stroke="none" points="246,-350.75 246,-372.75 425,-372.75 425,-350.75 246,-350.75"/>
<polygon fill="none" stroke="black" points="246,-350.75 246,-372.75 425,-372.75 425,-350.75 246,-350.75"/>
<image xlink:href="../../images/foreignKeys.png" width="11px" height="12px" preserveAspectRatio="xMinYMin meet" x="251" y="-367.75"/>
<text text-anchor="start" x="266" y="-357.3" font-family="Helvetica,sans-Serif" font-size="11.00">doc_unit</text>
<polygon fill="none" stroke="black" points="425,-350.75 425,-372.75 532.25,-372.75 532.25,-350.75 425,-350.75"/>
<text text-anchor="start" x="428" y="-358.05" font-family="Helvetica,sans-Serif" font-size="11.00">varchar[191]</text>
<polygon fill="none" stroke="black" points="246,-328.75 246,-350.75 425,-350.75 425,-328.75 246,-328.75"/>
<text text-anchor="start" x="266" y="-335.3" font-family="Helvetica,sans-Serif" font-size="11.00">version</text>
<polygon fill="none" stroke="black" points="425,-328.75 425,-350.75 532.25,-350.75 532.25,-328.75 425,-328.75"/>
<text text-anchor="start" x="428" y="-336.05" font-family="Helvetica,sans-Serif" font-size="11.00">bigint[19]</text>
<polygon fill="none" stroke="black" points="246,-306.75 246,-328.75 425,-328.75 425,-306.75 246,-306.75"/>
<text text-anchor="start" x="266" y="-313.3" font-family="Helvetica,sans-Serif" font-size="11.00">created_by</text>
<polygon fill="none" stroke="black" points="425,-306.75 425,-328.75 532.25,-328.75 532.25,-306.75 425,-306.75"/>
<text text-anchor="start" x="428" y="-314.05" font-family="Helvetica,sans-Serif" font-size="11.00">varchar[191]</text>
<polygon fill="none" stroke="black" points="246,-284.75 246,-306.75 425,-306.75 425,-284.75 246,-284.75"/>
<text text-anchor="start" x="266" y="-291.3" font-family="Helvetica,sans-Serif" font-size="11.00">last_modified_by</text>
<polygon fill="none" stroke="black" points="425,-284.75 425,-306.75 532.25,-306.75 532.25,-284.75 425,-284.75"/>
<text text-anchor="start" x="428" y="-292.05" font-family="Helvetica,sans-Serif" font-size="11.00">varchar[191]</text>
<polygon fill="none" stroke="black" points="246,-262.75 246,-284.75 425,-284.75 425,-262.75 246,-262.75"/>
<text text-anchor="start" x="266" y="-269.3" font-family="Helvetica,sans-Serif" font-size="11.00">created_date</text>
<polygon fill="none" stroke="black" points="425,-262.75 425,-284.75 532.25,-284.75 532.25,-262.75 425,-262.75"/>
<text text-anchor="start" x="428" y="-270.05" font-family="Helvetica,sans-Serif" font-size="11.00">timestamp[19]</text>
<polygon fill="none" stroke="black" points="246,-240.75 246,-262.75 425,-262.75 425,-240.75 246,-240.75"/>
<text text-anchor="start" x="266" y="-247.3" font-family="Helvetica,sans-Serif" font-size="11.00">last_modified_date</text>
<polygon fill="none" stroke="black" points="425,-240.75 425,-262.75 532.25,-262.75 532.25,-240.75 425,-240.75"/>
<text text-anchor="start" x="428" y="-248.05" font-family="Helvetica,sans-Serif" font-size="11.00">timestamp[19]</text>
<polygon fill="none" stroke="black" points="246,-218.75 246,-240.75 425,-240.75 425,-218.75 246,-218.75"/>
<text text-anchor="start" x="266" y="-225.3" font-family="Helvetica,sans-Serif" font-size="11.00">digital_id</text>
<polygon fill="none" stroke="black" points="425,-218.75 425,-240.75 532.25,-240.75 532.25,-218.75 425,-218.75"/>
<text text-anchor="start" x="428" y="-226.05" font-family="Helvetica,sans-Serif" font-size="11.00">varchar[191]</text>
<polygon fill="#ffffff" stroke="none" points="246,-196.75 246,-218.75 425,-218.75 425,-196.75 246,-196.75"/>
<polygon fill="none" stroke="black" points="246,-196.75 246,-218.75 425,-218.75 425,-196.75 246,-196.75"/>
<image xlink:href="../../images/foreignKeys.png" width="11px" height="12px" preserveAspectRatio="xMinYMin meet" x="251" y="-213.75"/>
<text text-anchor="start" x="266" y="-203.3" font-family="Helvetica,sans-Serif" font-size="11.00">train</text>
<polygon fill="none" stroke="black" points="425,-196.75 425,-218.75 532.25,-218.75 532.25,-196.75 425,-196.75"/>
<text text-anchor="start" x="428" y="-204.05" font-family="Helvetica,sans-Serif" font-size="11.00">varchar[191]</text>
<polygon fill="none" stroke="black" points="246,-174.75 246,-196.75 425,-196.75 425,-174.75 246,-174.75"/>
<text text-anchor="start" x="266" y="-181.3" font-family="Helvetica,sans-Serif" font-size="11.00">name</text>
<polygon fill="none" stroke="black" points="425,-174.75 425,-196.75 532.25,-196.75 532.25,-174.75 425,-174.75"/>
<text text-anchor="start" x="428" y="-182.05" font-family="Helvetica,sans-Serif" font-size="11.00">varchar[191]</text>
<polygon fill="#ffffff" stroke="none" points="246,-155.25 246,-174.75 341.5,-174.75 341.5,-155.25 246,-155.25"/>
<polygon fill="none" stroke="black" points="246,-155.25 246,-174.75 341.5,-174.75 341.5,-155.25 246,-155.25"/>
<text text-anchor="start" x="249" y="-161.3" font-family="Helvetica,sans-Serif" font-size="11.00">&lt; 2</text>
<polygon fill="#ffffff" stroke="none" points="341.5,-155.25 341.5,-174.75 425,-174.75 425,-155.25 341.5,-155.25"/>
<polygon fill="none" stroke="black" points="341.5,-155.25 341.5,-174.75 425,-174.75 425,-155.25 341.5,-155.25"/>
<text text-anchor="start" x="414.5" y="-161.3" font-family="Helvetica,sans-Serif" font-size="11.00"> &#160;</text>
<polygon fill="#ffffff" stroke="none" points="425,-155.25 425,-174.75 532.25,-174.75 532.25,-155.25 425,-155.25"/>
<polygon fill="none" stroke="black" points="425,-155.25 425,-174.75 532.25,-174.75 532.25,-155.25 425,-155.25"/>
<text text-anchor="start" x="509.75" y="-161.3" font-family="Helvetica,sans-Serif" font-size="11.00">2 &gt;</text>
<polygon fill="none" stroke="black" stroke-width="2" points="245,-154.25 245,-463.25 552.75,-463.25 552.75,-154.25 245,-154.25"/>
</a>
</g>
</g>
<!-- check_automatic_result&#45;&gt;doc_physical_document -->
<g id="edge2" class="edge">
<title>check_automatic_result:w&#45;&gt;doc_physical_document:e</title>
<path fill="none" stroke="black" d="M611.42,-478.37C578.78,-468.5 575.19,-427.75 533.25,-427.75"/>
<polygon fill="black" stroke="black" points="618.5,-479.35 625.92,-484.02 622.79,-479.95 626.09,-480.41 626.09,-480.41 626.09,-480.41 622.79,-479.95 626.92,-476.89 618.5,-479.35"/>
<ellipse fill="none" stroke="black" cx="613.62" cy="-478.67" rx="3.2" ry="3.2"/>
</g>
<!-- doc_physical_document&#45;&gt;doc_unit -->
<g id="edge3" class="edge">
<title>doc_physical_document:w&#45;&gt;doc_unit:e</title>
<path fill="none" stroke="black" d="M229.65,-364.51C176.45,-387.49 274.81,-546.5 196,-546.5"/>
<polygon fill="black" stroke="black" points="236.8,-363.22 245.31,-365.35 241.06,-362.46 244.34,-361.87 244.34,-361.87 244.34,-361.87 241.06,-362.46 244.03,-358.27 236.8,-363.22"/>
<ellipse fill="none" stroke="black" cx="231.96" cy="-364.09" rx="3.2" ry="3.2"/>
</g>
<!-- train_train -->
<g id="node4" class="node">
<title>train_train</title>
<g id="a_node4"><a xlink:href="../../tables/train_train.html" xlink:title="train_train" target="_top">
<polygon fill="#ffffff" stroke="none" points="14.5,-38.5 14.5,-145 188.5,-145 188.5,-38.5 14.5,-38.5"/>
<polygon fill="#f5f5f5" stroke="none" points="14.5,-121.5 14.5,-145 188.5,-145 188.5,-121.5 14.5,-121.5"/>
<polygon fill="none" stroke="black" points="14.5,-121.5 14.5,-145 188.5,-145 188.5,-121.5 14.5,-121.5"/>
<text text-anchor="start" x="19.5" y="-130.55" font-family="Helvetica,sans-Serif" font-weight="bold" font-size="11.00">train_train</text>
<text text-anchor="start" x="146.75" y="-129.55" font-family="Helvetica,sans-Serif" font-size="11.00">[table]</text>
<polygon fill="none" stroke="black" points="14.5,-99.5 14.5,-121.5 188.5,-121.5 188.5,-99.5 14.5,-99.5"/>
<image xlink:href="../../images/primaryKeys.png" width="11px" height="12px" preserveAspectRatio="xMinYMin meet" x="19.5" y="-116.5"/>
<text text-anchor="start" x="34.5" y="-106.05" font-family="Helvetica,sans-Serif" font-size="11.00">identifier</text>
<polygon fill="#ffffff" stroke="none" points="14.5,-77.5 14.5,-99.5 188.5,-99.5 188.5,-77.5 14.5,-77.5"/>
<polygon fill="none" stroke="black" points="14.5,-77.5 14.5,-99.5 188.5,-99.5 188.5,-77.5 14.5,-77.5"/>
<image xlink:href="../../images/foreignKeys.png" width="11px" height="12px" preserveAspectRatio="xMinYMin meet" x="19.5" y="-94.5"/>
<text text-anchor="start" x="34.5" y="-84.05" font-family="Helvetica,sans-Serif" font-size="11.00">project</text>
<polygon fill="none" stroke="black" points="14.5,-58 14.5,-77.5 188.5,-77.5 188.5,-58 14.5,-58"/>
<text text-anchor="start" x="17.5" y="-64.05" font-family="Helvetica,sans-Serif" font-size="11.00">...</text>
<polygon fill="#ffffff" stroke="none" points="14.5,-38.5 14.5,-58 76.5,-58 76.5,-38.5 14.5,-38.5"/>
<polygon fill="none" stroke="black" points="14.5,-38.5 14.5,-58 76.5,-58 76.5,-38.5 14.5,-38.5"/>
<text text-anchor="start" x="17.5" y="-44.55" font-family="Helvetica,sans-Serif" font-size="11.00">&lt; 1</text>
<polygon fill="#ffffff" stroke="none" points="76.5,-38.5 76.5,-58 126.5,-58 126.5,-38.5 76.5,-38.5"/>
<polygon fill="none" stroke="black" points="76.5,-38.5 76.5,-58 126.5,-58 126.5,-38.5 76.5,-38.5"/>
<text text-anchor="start" x="116" y="-44.55" font-family="Helvetica,sans-Serif" font-size="11.00"> &#160;</text>
<polygon fill="#ffffff" stroke="none" points="126.5,-38.5 126.5,-58 188.5,-58 188.5,-38.5 126.5,-38.5"/>
<polygon fill="none" stroke="black" points="126.5,-38.5 126.5,-58 188.5,-58 188.5,-38.5 126.5,-38.5"/>
<text text-anchor="start" x="166" y="-44.55" font-family="Helvetica,sans-Serif" font-size="11.00">1 &gt;</text>
</a>
</g>
</g>
<!-- doc_physical_document&#45;&gt;train_train -->
<g id="edge4" class="edge">
<title>doc_physical_document:w&#45;&gt;train_train:e</title>
<path fill="none" stroke="black" d="M230.03,-203.32C205.03,-184.29 232.85,-110.5 189.5,-110.5"/>
<polygon fill="black" stroke="black" points="237.01,-205.38 243.66,-211.11 241.16,-206.61 244.36,-207.56 244.36,-207.56 244.36,-207.56 241.16,-206.61 245.7,-204.2 237.01,-205.38"/>
<ellipse fill="none" stroke="black" cx="232.29" cy="-203.99" rx="3.2" ry="3.2"/>
</g>
<!-- doc_physical_document_digital -->
<g id="node5" class="node">
<title>doc_physical_document_digital</title>
<g id="a_node5"><a xlink:href="../../tables/doc_physical_document_digital.html" xlink:title="doc_physical_document_digital" target="_top">
<polygon fill="#ffffff" stroke="none" points="602.75,-322.25 602.75,-409.25 857.5,-409.25 857.5,-322.25 602.75,-322.25"/>
<polygon fill="#f5f5f5" stroke="none" points="602.75,-385.75 602.75,-409.25 857.5,-409.25 857.5,-385.75 602.75,-385.75"/>
<polygon fill="none" stroke="black" points="602.75,-385.75 602.75,-409.25 857.5,-409.25 857.5,-385.75 602.75,-385.75"/>
<text text-anchor="start" x="607.75" y="-394.8" font-family="Helvetica,sans-Serif" font-weight="bold" font-size="11.00">doc_physical_document_digital</text>
<text text-anchor="start" x="815.75" y="-393.8" font-family="Helvetica,sans-Serif" font-size="11.00">[table]</text>
<polygon fill="none" stroke="black" points="602.75,-363.75 602.75,-385.75 857.5,-385.75 857.5,-363.75 602.75,-363.75"/>
<image xlink:href="../../images/primaryKeys.png" width="11px" height="12px" preserveAspectRatio="xMinYMin meet" x="607.75" y="-380.75"/>
<text text-anchor="start" x="635.62" y="-370.3" font-family="Helvetica,sans-Serif" font-size="11.00">physical_document</text>
<polygon fill="none" stroke="black" points="602.75,-341.75 602.75,-363.75 857.5,-363.75 857.5,-341.75 602.75,-341.75"/>
<image xlink:href="../../images/primaryKeys.png" width="11px" height="12px" preserveAspectRatio="xMinYMin meet" x="607.75" y="-358.75"/>
<text text-anchor="start" x="635.62" y="-348.3" font-family="Helvetica,sans-Serif" font-size="11.00">digital_document</text>
<polygon fill="#ffffff" stroke="none" points="602.75,-322.25 602.75,-341.75 695.67,-341.75 695.67,-322.25 602.75,-322.25"/>
<polygon fill="none" stroke="black" points="602.75,-322.25 602.75,-341.75 695.67,-341.75 695.67,-322.25 602.75,-322.25"/>
<text text-anchor="start" x="605.75" y="-328.3" font-family="Helvetica,sans-Serif" font-size="11.00">&lt; 2</text>
<polygon fill="#ffffff" stroke="none" points="695.67,-322.25 695.67,-341.75 776.58,-341.75 776.58,-322.25 695.67,-322.25"/>
<polygon fill="none" stroke="black" points="695.67,-322.25 695.67,-341.75 776.58,-341.75 776.58,-322.25 695.67,-322.25"/>
<text text-anchor="start" x="766.08" y="-328.3" font-family="Helvetica,sans-Serif" font-size="11.00"> &#160;</text>
<polygon fill="#ffffff" stroke="none" points="776.58,-322.25 776.58,-341.75 857.5,-341.75 857.5,-322.25 776.58,-322.25"/>
<polygon fill="none" stroke="black" points="776.58,-322.25 776.58,-341.75 857.5,-341.75 857.5,-322.25 776.58,-322.25"/>
<text text-anchor="start" x="847" y="-328.3" font-family="Helvetica,sans-Serif" font-size="11.00"> &#160;</text>
</a>
</g>
</g>
<!-- doc_physical_document_digital&#45;&gt;doc_physical_document -->
<g id="edge5" class="edge">
<title>doc_physical_document_digital:w&#45;&gt;doc_physical_document:e</title>
<path fill="none" stroke="black" d="M586.48,-378.39C564.77,-390.37 565.58,-427.75 533.25,-427.75"/>
<polygon fill="black" stroke="black" points="593.64,-376.68 602.26,-378.33 597.86,-375.68 601.1,-374.91 601.1,-374.91 601.1,-374.91 597.86,-375.68 600.59,-371.33 593.64,-376.68"/>
<ellipse fill="none" stroke="black" cx="588.86" cy="-377.83" rx="3.2" ry="3.2"/>
</g>
</g>
</svg>
