<?xml version="1.0" encoding="UTF-8" standalone="no"?>
<!DOCTYPE svg PUBLIC "-//W3C//DTD SVG 1.1//EN"
 "http://www.w3.org/Graphics/SVG/1.1/DTD/svg11.dtd">
<!-- Generated by graphviz version 12.2.0 (0)
 -->
<!-- Title: oneDegreeRelationshipsDiagram Pages: 1 -->
<svg width="1065pt" height="529pt"
 viewBox="0.00 0.00 1064.75 528.61" xmlns="http://www.w3.org/2000/svg" xmlns:xlink="http://www.w3.org/1999/xlink">
<g id="graph0" class="graph" transform="scale(1 1) rotate(0) translate(4 524.61)">
<title>oneDegreeRelationshipsDiagram</title>
<polygon fill="#ffffff" stroke="none" points="-4,4 -4,-524.61 1060.75,-524.61 1060.75,4 -4,4"/>
<text text-anchor="middle" x="79.25" y="-7.05" font-family="Helvetica,sans-Serif" font-size="11.00">Generated by SchemaSpy</text>
<!-- doc_bibliographic_record -->
<g id="node1" class="node">
<title>doc_bibliographic_record</title>
<g id="a_node1"><a xlink:href="../../tables/doc_bibliographic_record.html" xlink:title="doc_bibliographic_record" target="_top">
<polygon fill="#ffffff" stroke="none" points="527,-119.86 527,-474.86 851.75,-474.86 851.75,-119.86 527,-119.86"/>
<polygon fill="#f5f5f5" stroke="none" points="529,-449.36 529,-472.86 849.75,-472.86 849.75,-449.36 529,-449.36"/>
<polygon fill="none" stroke="black" points="529,-449.36 529,-472.86 849.75,-472.86 849.75,-449.36 529,-449.36"/>
<text text-anchor="start" x="534" y="-458.41" font-family="Helvetica,sans-Serif" font-weight="bold" font-size="11.00">doc_bibliographic_record</text>
<text text-anchor="start" x="808" y="-457.41" font-family="Helvetica,sans-Serif" font-size="11.00">[table]</text>
<polygon fill="none" stroke="black" points="529,-427.36 529,-449.36 718,-449.36 718,-427.36 529,-427.36"/>
<image xlink:href="../../images/primaryKeys.png" width="11px" height="12px" preserveAspectRatio="xMinYMin meet" x="534" y="-444.361"/>
<text text-anchor="start" x="549" y="-433.91" font-family="Helvetica,sans-Serif" font-size="11.00">identifier</text>
<polygon fill="none" stroke="black" points="718,-427.36 718,-449.36 827.75,-449.36 827.75,-427.36 718,-427.36"/>
<text text-anchor="start" x="721" y="-434.66" font-family="Helvetica,sans-Serif" font-size="11.00">varchar[191]</text>
<polygon fill="none" stroke="black" points="529,-405.36 529,-427.36 718,-427.36 718,-405.36 529,-405.36"/>
<text text-anchor="start" x="549" y="-411.91" font-family="Helvetica,sans-Serif" font-size="11.00">sigb</text>
<polygon fill="none" stroke="black" points="718,-405.36 718,-427.36 827.75,-427.36 827.75,-405.36 718,-405.36"/>
<text text-anchor="start" x="721" y="-412.66" font-family="Helvetica,sans-Serif" font-size="11.00">varchar[255]</text>
<polygon fill="none" stroke="black" points="529,-383.36 529,-405.36 718,-405.36 718,-383.36 529,-383.36"/>
<text text-anchor="start" x="549" y="-389.91" font-family="Helvetica,sans-Serif" font-size="11.00">sudoc</text>
<polygon fill="none" stroke="black" points="718,-383.36 718,-405.36 827.75,-405.36 827.75,-383.36 718,-383.36"/>
<text text-anchor="start" x="721" y="-390.66" font-family="Helvetica,sans-Serif" font-size="11.00">varchar[255]</text>
<polygon fill="none" stroke="black" points="529,-361.36 529,-383.36 718,-383.36 718,-361.36 529,-361.36"/>
<text text-anchor="start" x="549" y="-367.91" font-family="Helvetica,sans-Serif" font-size="11.00">calames</text>
<polygon fill="none" stroke="black" points="718,-361.36 718,-383.36 827.75,-383.36 827.75,-361.36 718,-361.36"/>
<text text-anchor="start" x="721" y="-368.66" font-family="Helvetica,sans-Serif" font-size="11.00">varchar[255]</text>
<polygon fill="#ffffff" stroke="none" points="529,-339.36 529,-361.36 718,-361.36 718,-339.36 529,-339.36"/>
<polygon fill="none" stroke="black" points="529,-339.36 529,-361.36 718,-361.36 718,-339.36 529,-339.36"/>
<image xlink:href="../../images/foreignKeys.png" width="11px" height="12px" preserveAspectRatio="xMinYMin meet" x="534" y="-356.361"/>
<text text-anchor="start" x="549" y="-345.91" font-family="Helvetica,sans-Serif" font-size="11.00">doc_unit</text>
<polygon fill="none" stroke="black" points="718,-339.36 718,-361.36 827.75,-361.36 827.75,-339.36 718,-339.36"/>
<text text-anchor="start" x="721" y="-346.66" font-family="Helvetica,sans-Serif" font-size="11.00">varchar[191]</text>
<polygon fill="none" stroke="black" points="529,-317.36 529,-339.36 718,-339.36 718,-317.36 529,-317.36"/>
<text text-anchor="start" x="549" y="-323.91" font-family="Helvetica,sans-Serif" font-size="11.00">version</text>
<polygon fill="none" stroke="black" points="718,-317.36 718,-339.36 827.75,-339.36 827.75,-317.36 718,-317.36"/>
<text text-anchor="start" x="721" y="-324.66" font-family="Helvetica,sans-Serif" font-size="11.00">bigint[19]</text>
<polygon fill="none" stroke="black" points="529,-295.36 529,-317.36 718,-317.36 718,-295.36 529,-295.36"/>
<text text-anchor="start" x="549" y="-301.91" font-family="Helvetica,sans-Serif" font-size="11.00">created_by</text>
<polygon fill="none" stroke="black" points="718,-295.36 718,-317.36 827.75,-317.36 827.75,-295.36 718,-295.36"/>
<text text-anchor="start" x="721" y="-302.66" font-family="Helvetica,sans-Serif" font-size="11.00">varchar[191]</text>
<polygon fill="none" stroke="black" points="529,-273.36 529,-295.36 718,-295.36 718,-273.36 529,-273.36"/>
<text text-anchor="start" x="549" y="-279.91" font-family="Helvetica,sans-Serif" font-size="11.00">last_modified_by</text>
<polygon fill="none" stroke="black" points="718,-273.36 718,-295.36 827.75,-295.36 827.75,-273.36 718,-273.36"/>
<text text-anchor="start" x="721" y="-280.66" font-family="Helvetica,sans-Serif" font-size="11.00">varchar[191]</text>
<polygon fill="none" stroke="black" points="529,-251.36 529,-273.36 718,-273.36 718,-251.36 529,-251.36"/>
<text text-anchor="start" x="549" y="-257.91" font-family="Helvetica,sans-Serif" font-size="11.00">created_date</text>
<polygon fill="none" stroke="black" points="718,-251.36 718,-273.36 827.75,-273.36 827.75,-251.36 718,-251.36"/>
<text text-anchor="start" x="721" y="-258.66" font-family="Helvetica,sans-Serif" font-size="11.00">timestamp[19]</text>
<polygon fill="none" stroke="black" points="529,-229.36 529,-251.36 718,-251.36 718,-229.36 529,-229.36"/>
<text text-anchor="start" x="549" y="-235.91" font-family="Helvetica,sans-Serif" font-size="11.00">last_modified_date</text>
<polygon fill="none" stroke="black" points="718,-229.36 718,-251.36 827.75,-251.36 827.75,-229.36 718,-229.36"/>
<text text-anchor="start" x="721" y="-236.66" font-family="Helvetica,sans-Serif" font-size="11.00">timestamp[19]</text>
<polygon fill="none" stroke="black" points="529,-207.36 529,-229.36 718,-229.36 718,-207.36 529,-207.36"/>
<text text-anchor="start" x="549" y="-213.91" font-family="Helvetica,sans-Serif" font-size="11.00">title</text>
<polygon fill="none" stroke="black" points="718,-207.36 718,-229.36 827.75,-229.36 827.75,-207.36 718,-207.36"/>
<text text-anchor="start" x="721" y="-214.66" font-family="Helvetica,sans-Serif" font-size="11.00">text[65535]</text>
<polygon fill="none" stroke="black" points="529,-185.36 529,-207.36 718,-207.36 718,-185.36 529,-185.36"/>
<text text-anchor="start" x="549" y="-191.91" font-family="Helvetica,sans-Serif" font-size="11.00">doc_electronique</text>
<polygon fill="none" stroke="black" points="718,-185.36 718,-207.36 827.75,-207.36 827.75,-185.36 718,-185.36"/>
<text text-anchor="start" x="721" y="-192.66" font-family="Helvetica,sans-Serif" font-size="11.00">varchar[255]</text>
<polygon fill="#ffffff" stroke="none" points="529,-163.36 529,-185.36 718,-185.36 718,-163.36 529,-163.36"/>
<polygon fill="none" stroke="black" points="529,-163.36 529,-185.36 718,-185.36 718,-163.36 529,-163.36"/>
<image xlink:href="../../images/foreignKeys.png" width="11px" height="12px" preserveAspectRatio="xMinYMin meet" x="534" y="-180.361"/>
<text text-anchor="start" x="549" y="-169.91" font-family="Helvetica,sans-Serif" font-size="11.00">library</text>
<polygon fill="none" stroke="black" points="718,-163.36 718,-185.36 827.75,-185.36 827.75,-163.36 718,-163.36"/>
<text text-anchor="start" x="721" y="-170.66" font-family="Helvetica,sans-Serif" font-size="11.00">varchar[191]</text>
<polygon fill="none" stroke="black" points="529,-141.36 529,-163.36 718,-163.36 718,-141.36 529,-141.36"/>
<text text-anchor="start" x="549" y="-147.91" font-family="Helvetica,sans-Serif" font-size="11.00">property_order</text>
<polygon fill="none" stroke="black" points="718,-141.36 718,-163.36 827.75,-163.36 827.75,-141.36 718,-141.36"/>
<text text-anchor="start" x="721" y="-148.66" font-family="Helvetica,sans-Serif" font-size="11.00">varchar[255]</text>
<polygon fill="#ffffff" stroke="none" points="529,-121.86 529,-141.36 629.5,-141.36 629.5,-121.86 529,-121.86"/>
<polygon fill="none" stroke="black" points="529,-121.86 529,-141.36 629.5,-141.36 629.5,-121.86 529,-121.86"/>
<text text-anchor="start" x="532" y="-127.91" font-family="Helvetica,sans-Serif" font-size="11.00">&lt; 2</text>
<polygon fill="#ffffff" stroke="none" points="629.5,-121.86 629.5,-141.36 718,-141.36 718,-121.86 629.5,-121.86"/>
<polygon fill="none" stroke="black" points="629.5,-121.86 629.5,-141.36 718,-141.36 718,-121.86 629.5,-121.86"/>
<text text-anchor="start" x="707.5" y="-127.91" font-family="Helvetica,sans-Serif" font-size="11.00"> &#160;</text>
<polygon fill="#ffffff" stroke="none" points="718,-121.86 718,-141.36 827.75,-141.36 827.75,-121.86 718,-121.86"/>
<polygon fill="none" stroke="black" points="718,-121.86 718,-141.36 827.75,-141.36 827.75,-121.86 718,-121.86"/>
<text text-anchor="start" x="805.25" y="-127.91" font-family="Helvetica,sans-Serif" font-size="11.00">1 &gt;</text>
<polygon fill="none" stroke="black" stroke-width="2" points="528,-120.86 528,-473.86 850.75,-473.86 850.75,-120.86 528,-120.86"/>
</a>
</g>
</g>
<!-- doc_unit -->
<g id="node2" class="node">
<title>doc_unit</title>
<g id="a_node2"><a xlink:href="../../tables/doc_unit.html" xlink:title="doc_unit" target="_top">
<polygon fill="#ffffff" stroke="none" points="291,-85.11 291,-499.61 478,-499.61 478,-85.11 291,-85.11"/>
<polygon fill="#f5f5f5" stroke="none" points="291,-476.11 291,-499.61 478,-499.61 478,-476.11 291,-476.11"/>
<polygon fill="none" stroke="black" points="291,-476.11 291,-499.61 478,-499.61 478,-476.11 291,-476.11"/>
<text text-anchor="start" x="296" y="-485.16" font-family="Helvetica,sans-Serif" font-weight="bold" font-size="11.00">doc_unit</text>
<text text-anchor="start" x="436.25" y="-484.16" font-family="Helvetica,sans-Serif" font-size="11.00">[table]</text>
<polygon fill="none" stroke="black" points="291,-454.11 291,-476.11 478,-476.11 478,-454.11 291,-454.11"/>
<image xlink:href="../../images/primaryKeys.png" width="11px" height="12px" preserveAspectRatio="xMinYMin meet" x="296" y="-471.111"/>
<text text-anchor="start" x="311" y="-460.66" font-family="Helvetica,sans-Serif" font-size="11.00">identifier</text>
<polygon fill="#ffffff" stroke="none" points="291,-432.11 291,-454.11 478,-454.11 478,-432.11 291,-432.11"/>
<polygon fill="none" stroke="black" points="291,-432.11 291,-454.11 478,-454.11 478,-432.11 291,-432.11"/>
<text text-anchor="start" x="311" y="-438.66" font-family="Helvetica,sans-Serif" font-size="11.00">pgcn_id</text>
<polygon fill="#ffffff" stroke="none" points="291,-410.11 291,-432.11 478,-432.11 478,-410.11 291,-410.11"/>
<polygon fill="none" stroke="black" points="291,-410.11 291,-432.11 478,-432.11 478,-410.11 291,-410.11"/>
<image xlink:href="../../images/foreignKeys.png" width="11px" height="12px" preserveAspectRatio="xMinYMin meet" x="296" y="-427.111"/>
<text text-anchor="start" x="311" y="-416.66" font-family="Helvetica,sans-Serif" font-size="11.00">library</text>
<polygon fill="#ffffff" stroke="none" points="291,-388.11 291,-410.11 478,-410.11 478,-388.11 291,-388.11"/>
<polygon fill="none" stroke="black" points="291,-388.11 291,-410.11 478,-410.11 478,-388.11 291,-388.11"/>
<image xlink:href="../../images/foreignKeys.png" width="11px" height="12px" preserveAspectRatio="xMinYMin meet" x="296" y="-405.111"/>
<text text-anchor="start" x="311" y="-394.66" font-family="Helvetica,sans-Serif" font-size="11.00">project</text>
<polygon fill="#ffffff" stroke="none" points="291,-366.11 291,-388.11 478,-388.11 478,-366.11 291,-366.11"/>
<polygon fill="none" stroke="black" points="291,-366.11 291,-388.11 478,-388.11 478,-366.11 291,-366.11"/>
<text text-anchor="start" x="311" y="-372.66" font-family="Helvetica,sans-Serif" font-size="11.00">state</text>
<polygon fill="#ffffff" stroke="none" points="291,-344.11 291,-366.11 478,-366.11 478,-344.11 291,-344.11"/>
<polygon fill="none" stroke="black" points="291,-344.11 291,-366.11 478,-366.11 478,-344.11 291,-344.11"/>
<image xlink:href="../../images/foreignKeys.png" width="11px" height="12px" preserveAspectRatio="xMinYMin meet" x="296" y="-361.111"/>
<text text-anchor="start" x="311" y="-350.66" font-family="Helvetica,sans-Serif" font-size="11.00">lot</text>
<polygon fill="#ffffff" stroke="none" points="291,-322.11 291,-344.11 478,-344.11 478,-322.11 291,-322.11"/>
<polygon fill="none" stroke="black" points="291,-322.11 291,-344.11 478,-344.11 478,-322.11 291,-322.11"/>
<image xlink:href="../../images/foreignKeys.png" width="11px" height="12px" preserveAspectRatio="xMinYMin meet" x="296" y="-339.111"/>
<text text-anchor="start" x="311" y="-328.66" font-family="Helvetica,sans-Serif" font-size="11.00">collection_omeka</text>
<polygon fill="#ffffff" stroke="none" points="291,-300.11 291,-322.11 478,-322.11 478,-300.11 291,-300.11"/>
<polygon fill="none" stroke="black" points="291,-300.11 291,-322.11 478,-322.11 478,-300.11 291,-300.11"/>
<image xlink:href="../../images/foreignKeys.png" width="11px" height="12px" preserveAspectRatio="xMinYMin meet" x="296" y="-317.111"/>
<text text-anchor="start" x="311" y="-306.66" font-family="Helvetica,sans-Serif" font-size="11.00">items_omeka</text>
<polygon fill="#ffffff" stroke="none" points="291,-278.11 291,-300.11 478,-300.11 478,-278.11 291,-278.11"/>
<polygon fill="none" stroke="black" points="291,-278.11 291,-300.11 478,-300.11 478,-278.11 291,-278.11"/>
<image xlink:href="../../images/foreignKeys.png" width="11px" height="12px" preserveAspectRatio="xMinYMin meet" x="296" y="-295.111"/>
<text text-anchor="start" x="311" y="-284.66" font-family="Helvetica,sans-Serif" font-size="11.00">parent</text>
<polygon fill="#ffffff" stroke="none" points="291,-256.11 291,-278.11 478,-278.11 478,-256.11 291,-256.11"/>
<polygon fill="none" stroke="black" points="291,-256.11 291,-278.11 478,-278.11 478,-256.11 291,-256.11"/>
<image xlink:href="../../images/foreignKeys.png" width="11px" height="12px" preserveAspectRatio="xMinYMin meet" x="296" y="-273.111"/>
<text text-anchor="start" x="311" y="-262.66" font-family="Helvetica,sans-Serif" font-size="11.00">active_ocr_lang</text>
<polygon fill="#ffffff" stroke="none" points="291,-234.11 291,-256.11 478,-256.11 478,-234.11 291,-234.11"/>
<polygon fill="none" stroke="black" points="291,-234.11 291,-256.11 478,-256.11 478,-234.11 291,-234.11"/>
<image xlink:href="../../images/foreignKeys.png" width="11px" height="12px" preserveAspectRatio="xMinYMin meet" x="296" y="-251.111"/>
<text text-anchor="start" x="311" y="-240.66" font-family="Helvetica,sans-Serif" font-size="11.00">collection_ia</text>
<polygon fill="#ffffff" stroke="none" points="291,-212.11 291,-234.11 478,-234.11 478,-212.11 291,-212.11"/>
<polygon fill="none" stroke="black" points="291,-212.11 291,-234.11 478,-234.11 478,-212.11 291,-212.11"/>
<image xlink:href="../../images/foreignKeys.png" width="11px" height="12px" preserveAspectRatio="xMinYMin meet" x="296" y="-229.111"/>
<text text-anchor="start" x="311" y="-218.66" font-family="Helvetica,sans-Serif" font-size="11.00">classement_pac</text>
<polygon fill="#ffffff" stroke="none" points="291,-190.11 291,-212.11 478,-212.11 478,-190.11 291,-190.11"/>
<polygon fill="none" stroke="black" points="291,-190.11 291,-212.11 478,-212.11 478,-190.11 291,-190.11"/>
<image xlink:href="../../images/foreignKeys.png" width="11px" height="12px" preserveAspectRatio="xMinYMin meet" x="296" y="-207.111"/>
<text text-anchor="start" x="311" y="-196.66" font-family="Helvetica,sans-Serif" font-size="11.00">sibling</text>
<polygon fill="#ffffff" stroke="none" points="291,-168.11 291,-190.11 478,-190.11 478,-168.11 291,-168.11"/>
<polygon fill="none" stroke="black" points="291,-168.11 291,-190.11 478,-190.11 478,-168.11 291,-168.11"/>
<image xlink:href="../../images/foreignKeys.png" width="11px" height="12px" preserveAspectRatio="xMinYMin meet" x="296" y="-185.111"/>
<text text-anchor="start" x="311" y="-174.66" font-family="Helvetica,sans-Serif" font-size="11.00">export_data</text>
<polygon fill="#ffffff" stroke="none" points="291,-146.11 291,-168.11 478,-168.11 478,-146.11 291,-146.11"/>
<polygon fill="none" stroke="black" points="291,-146.11 291,-168.11 478,-168.11 478,-146.11 291,-146.11"/>
<image xlink:href="../../images/foreignKeys.png" width="11px" height="12px" preserveAspectRatio="xMinYMin meet" x="296" y="-163.111"/>
<text text-anchor="start" x="311" y="-152.66" font-family="Helvetica,sans-Serif" font-size="11.00">archive_item</text>
<polygon fill="#ffffff" stroke="none" points="291,-124.11 291,-146.11 478,-146.11 478,-124.11 291,-124.11"/>
<polygon fill="none" stroke="black" points="291,-124.11 291,-146.11 478,-146.11 478,-124.11 291,-124.11"/>
<image xlink:href="../../images/foreignKeys.png" width="11px" height="12px" preserveAspectRatio="xMinYMin meet" x="296" y="-141.111"/>
<text text-anchor="start" x="311" y="-130.66" font-family="Helvetica,sans-Serif" font-size="11.00">workflow</text>
<polygon fill="none" stroke="black" points="291,-104.61 291,-124.11 478,-124.11 478,-104.61 291,-104.61"/>
<text text-anchor="start" x="294" y="-110.66" font-family="Helvetica,sans-Serif" font-size="11.00">...</text>
<polygon fill="#ffffff" stroke="none" points="291,-85.11 291,-104.61 359.58,-104.61 359.58,-85.11 291,-85.11"/>
<polygon fill="none" stroke="black" points="291,-85.11 291,-104.61 359.58,-104.61 359.58,-85.11 291,-85.11"/>
<text text-anchor="start" x="294" y="-91.16" font-family="Helvetica,sans-Serif" font-size="11.00">&lt; 13</text>
<polygon fill="#ffffff" stroke="none" points="359.58,-85.11 359.58,-104.61 409.42,-104.61 409.42,-85.11 359.58,-85.11"/>
<polygon fill="none" stroke="black" points="359.58,-85.11 359.58,-104.61 409.42,-104.61 409.42,-85.11 359.58,-85.11"/>
<text text-anchor="start" x="398.92" y="-91.16" font-family="Helvetica,sans-Serif" font-size="11.00"> &#160;</text>
<polygon fill="#ffffff" stroke="none" points="409.42,-85.11 409.42,-104.61 478,-104.61 478,-85.11 409.42,-85.11"/>
<polygon fill="none" stroke="black" points="409.42,-85.11 409.42,-104.61 478,-104.61 478,-85.11 409.42,-85.11"/>
<text text-anchor="start" x="448.75" y="-91.16" font-family="Helvetica,sans-Serif" font-size="11.00">11 &gt;</text>
</a>
</g>
</g>
<!-- doc_bibliographic_record&#45;&gt;doc_unit -->
<g id="edge1" class="edge">
<title>doc_bibliographic_record:w&#45;&gt;doc_unit:e</title>
<path fill="none" stroke="black" d="M512.96,-354.72C485.44,-375.68 527.96,-465.11 479,-465.11"/>
<polygon fill="black" stroke="black" points="519.99,-352.68 528.68,-353.91 524.16,-351.47 527.36,-350.55 527.36,-350.55 527.36,-350.55 524.16,-351.47 526.68,-347 519.99,-352.68"/>
<ellipse fill="none" stroke="black" cx="515.27" cy="-354.05" rx="3.2" ry="3.2"/>
</g>
<!-- lib_library -->
<g id="node3" class="node">
<title>lib_library</title>
<g id="a_node3"><a xlink:href="../../tables/lib_library.html" xlink:title="lib_library" target="_top">
<polygon fill="#ffffff" stroke="none" points="8,-59.11 8,-275.61 242,-275.61 242,-59.11 8,-59.11"/>
<polygon fill="#f5f5f5" stroke="none" points="8,-252.11 8,-275.61 242,-275.61 242,-252.11 8,-252.11"/>
<polygon fill="none" stroke="black" points="8,-252.11 8,-275.61 242,-275.61 242,-252.11 8,-252.11"/>
<text text-anchor="start" x="13" y="-261.16" font-family="Helvetica,sans-Serif" font-weight="bold" font-size="11.00">lib_library</text>
<text text-anchor="start" x="200.25" y="-260.16" font-family="Helvetica,sans-Serif" font-size="11.00">[table]</text>
<polygon fill="none" stroke="black" points="8,-230.11 8,-252.11 242,-252.11 242,-230.11 8,-230.11"/>
<image xlink:href="../../images/primaryKeys.png" width="11px" height="12px" preserveAspectRatio="xMinYMin meet" x="13" y="-247.111"/>
<text text-anchor="start" x="28" y="-236.66" font-family="Helvetica,sans-Serif" font-size="11.00">identifier</text>
<polygon fill="#ffffff" stroke="none" points="8,-208.11 8,-230.11 242,-230.11 242,-208.11 8,-208.11"/>
<polygon fill="none" stroke="black" points="8,-208.11 8,-230.11 242,-230.11 242,-208.11 8,-208.11"/>
<image xlink:href="../../images/foreignKeys.png" width="11px" height="12px" preserveAspectRatio="xMinYMin meet" x="13" y="-225.111"/>
<text text-anchor="start" x="28" y="-214.66" font-family="Helvetica,sans-Serif" font-size="11.00">address</text>
<polygon fill="#ffffff" stroke="none" points="8,-186.11 8,-208.11 242,-208.11 242,-186.11 8,-186.11"/>
<polygon fill="none" stroke="black" points="8,-186.11 8,-208.11 242,-208.11 242,-186.11 8,-186.11"/>
<image xlink:href="../../images/foreignKeys.png" width="11px" height="12px" preserveAspectRatio="xMinYMin meet" x="13" y="-203.111"/>
<text text-anchor="start" x="28" y="-192.66" font-family="Helvetica,sans-Serif" font-size="11.00">active_configuration_ftp</text>
<polygon fill="#ffffff" stroke="none" points="8,-164.11 8,-186.11 242,-186.11 242,-164.11 8,-164.11"/>
<polygon fill="none" stroke="black" points="8,-164.11 8,-186.11 242,-186.11 242,-164.11 8,-164.11"/>
<image xlink:href="../../images/foreignKeys.png" width="11px" height="12px" preserveAspectRatio="xMinYMin meet" x="13" y="-181.111"/>
<text text-anchor="start" x="28" y="-170.66" font-family="Helvetica,sans-Serif" font-size="11.00">active_configuration_check</text>
<polygon fill="#ffffff" stroke="none" points="8,-142.11 8,-164.11 242,-164.11 242,-142.11 8,-142.11"/>
<polygon fill="none" stroke="black" points="8,-142.11 8,-164.11 242,-164.11 242,-142.11 8,-142.11"/>
<image xlink:href="../../images/foreignKeys.png" width="11px" height="12px" preserveAspectRatio="xMinYMin meet" x="13" y="-159.111"/>
<text text-anchor="start" x="28" y="-148.66" font-family="Helvetica,sans-Serif" font-size="11.00">role</text>
<polygon fill="#ffffff" stroke="none" points="8,-120.11 8,-142.11 242,-142.11 242,-120.11 8,-120.11"/>
<polygon fill="none" stroke="black" points="8,-120.11 8,-142.11 242,-142.11 242,-120.11 8,-120.11"/>
<image xlink:href="../../images/foreignKeys.png" width="11px" height="12px" preserveAspectRatio="xMinYMin meet" x="13" y="-137.111"/>
<text text-anchor="start" x="28" y="-126.66" font-family="Helvetica,sans-Serif" font-size="11.00">active_configuration_export_ftp</text>
<polygon fill="#ffffff" stroke="none" points="8,-98.11 8,-120.11 242,-120.11 242,-98.11 8,-98.11"/>
<polygon fill="none" stroke="black" points="8,-98.11 8,-120.11 242,-120.11 242,-98.11 8,-98.11"/>
<image xlink:href="../../images/foreignKeys.png" width="11px" height="12px" preserveAspectRatio="xMinYMin meet" x="13" y="-115.111"/>
<text text-anchor="start" x="28" y="-104.66" font-family="Helvetica,sans-Serif" font-size="11.00">active_configuration_ocr_lang</text>
<polygon fill="none" stroke="black" points="8,-78.61 8,-98.11 242,-98.11 242,-78.61 8,-78.61"/>
<text text-anchor="start" x="11" y="-84.66" font-family="Helvetica,sans-Serif" font-size="11.00">...</text>
<polygon fill="#ffffff" stroke="none" points="8,-59.11 8,-78.61 87.75,-78.61 87.75,-59.11 8,-59.11"/>
<polygon fill="none" stroke="black" points="8,-59.11 8,-78.61 87.75,-78.61 87.75,-59.11 8,-59.11"/>
<text text-anchor="start" x="11" y="-65.16" font-family="Helvetica,sans-Serif" font-size="11.00">&lt; 6</text>
<polygon fill="#ffffff" stroke="none" points="87.75,-59.11 87.75,-78.61 155.5,-78.61 155.5,-59.11 87.75,-59.11"/>
<polygon fill="none" stroke="black" points="87.75,-59.11 87.75,-78.61 155.5,-78.61 155.5,-59.11 87.75,-59.11"/>
<text text-anchor="start" x="145" y="-65.16" font-family="Helvetica,sans-Serif" font-size="11.00"> &#160;</text>
<polygon fill="#ffffff" stroke="none" points="155.5,-59.11 155.5,-78.61 242,-78.61 242,-59.11 155.5,-59.11"/>
<polygon fill="none" stroke="black" points="155.5,-59.11 155.5,-78.61 242,-78.61 242,-59.11 155.5,-59.11"/>
<text text-anchor="start" x="212.75" y="-65.16" font-family="Helvetica,sans-Serif" font-size="11.00">27 &gt;</text>
</a>
</g>
</g>
<!-- doc_bibliographic_record&#45;&gt;lib_library -->
<g id="edge2" class="edge">
<title>doc_bibliographic_record:w&#45;&gt;lib_library:e</title>
<path fill="none" stroke="black" d="M512.77,-170.34C491.12,-154.66 520.5,-97.29 486,-74.36 410.86,-24.42 353.85,-18.5 283,-74.36 223.15,-121.55 319.21,-241.11 243,-241.11"/>
<polygon fill="black" stroke="black" points="519.94,-172.24 526.76,-177.76 524.13,-173.34 527.35,-174.19 527.35,-174.19 527.35,-174.19 524.13,-173.34 528.59,-170.79 519.94,-172.24"/>
<ellipse fill="none" stroke="black" cx="515.19" cy="-170.98" rx="3.2" ry="3.2"/>
</g>
<!-- doc_unit&#45;&gt;lib_library -->
<g id="edge4" class="edge">
<title>doc_unit:w&#45;&gt;lib_library:e</title>
<path fill="none" stroke="black" d="M274.75,-418.28C223.78,-395.38 319.55,-241.11 243,-241.11"/>
<polygon fill="black" stroke="black" points="281.81,-419.59 289.01,-424.59 286.07,-420.38 289.34,-420.99 289.34,-420.99 289.34,-420.99 286.07,-420.38 290.33,-417.51 281.81,-419.59"/>
<ellipse fill="none" stroke="black" cx="276.97" cy="-418.7" rx="3.2" ry="3.2"/>
</g>
<!-- doc_property -->
<g id="node4" class="node">
<title>doc_property</title>
<g id="a_node4"><a xlink:href="../../tables/doc_property.html" xlink:title="doc_property" target="_top">
<polygon fill="#ffffff" stroke="none" points="900.75,-388.11 900.75,-516.61 1048.75,-516.61 1048.75,-388.11 900.75,-388.11"/>
<polygon fill="#f5f5f5" stroke="none" points="900.75,-493.11 900.75,-516.61 1048.75,-516.61 1048.75,-493.11 900.75,-493.11"/>
<polygon fill="none" stroke="black" points="900.75,-493.11 900.75,-516.61 1048.75,-516.61 1048.75,-493.11 900.75,-493.11"/>
<text text-anchor="start" x="905.75" y="-502.16" font-family="Helvetica,sans-Serif" font-weight="bold" font-size="11.00">doc_property</text>
<text text-anchor="start" x="1007" y="-501.16" font-family="Helvetica,sans-Serif" font-size="11.00">[table]</text>
<polygon fill="none" stroke="black" points="900.75,-471.11 900.75,-493.11 1048.75,-493.11 1048.75,-471.11 900.75,-471.11"/>
<image xlink:href="../../images/primaryKeys.png" width="11px" height="12px" preserveAspectRatio="xMinYMin meet" x="905.75" y="-488.111"/>
<text text-anchor="start" x="920.75" y="-477.66" font-family="Helvetica,sans-Serif" font-size="11.00">identifier</text>
<polygon fill="#ffffff" stroke="none" points="900.75,-449.11 900.75,-471.11 1048.75,-471.11 1048.75,-449.11 900.75,-449.11"/>
<polygon fill="none" stroke="black" points="900.75,-449.11 900.75,-471.11 1048.75,-471.11 1048.75,-449.11 900.75,-449.11"/>
<image xlink:href="../../images/foreignKeys.png" width="11px" height="12px" preserveAspectRatio="xMinYMin meet" x="905.75" y="-466.111"/>
<text text-anchor="start" x="920.75" y="-455.66" font-family="Helvetica,sans-Serif" font-size="11.00">type</text>
<polygon fill="#ffffff" stroke="none" points="900.75,-427.11 900.75,-449.11 1048.75,-449.11 1048.75,-427.11 900.75,-427.11"/>
<polygon fill="none" stroke="black" points="900.75,-427.11 900.75,-449.11 1048.75,-449.11 1048.75,-427.11 900.75,-427.11"/>
<image xlink:href="../../images/foreignKeys.png" width="11px" height="12px" preserveAspectRatio="xMinYMin meet" x="905.75" y="-444.111"/>
<text text-anchor="start" x="920.75" y="-433.66" font-family="Helvetica,sans-Serif" font-size="11.00">record</text>
<polygon fill="none" stroke="black" points="900.75,-407.61 900.75,-427.11 1048.75,-427.11 1048.75,-407.61 900.75,-407.61"/>
<text text-anchor="start" x="903.75" y="-413.66" font-family="Helvetica,sans-Serif" font-size="11.00">...</text>
<polygon fill="#ffffff" stroke="none" points="900.75,-388.11 900.75,-407.61 958.08,-407.61 958.08,-388.11 900.75,-388.11"/>
<polygon fill="none" stroke="black" points="900.75,-388.11 900.75,-407.61 958.08,-407.61 958.08,-388.11 900.75,-388.11"/>
<text text-anchor="start" x="903.75" y="-394.16" font-family="Helvetica,sans-Serif" font-size="11.00">&lt; 2</text>
<polygon fill="#ffffff" stroke="none" points="958.08,-388.11 958.08,-407.61 1003.42,-407.61 1003.42,-388.11 958.08,-388.11"/>
<polygon fill="none" stroke="black" points="958.08,-388.11 958.08,-407.61 1003.42,-407.61 1003.42,-388.11 958.08,-388.11"/>
<text text-anchor="start" x="992.92" y="-394.16" font-family="Helvetica,sans-Serif" font-size="11.00"> &#160;</text>
<polygon fill="#ffffff" stroke="none" points="1003.42,-388.11 1003.42,-407.61 1048.75,-407.61 1048.75,-388.11 1003.42,-388.11"/>
<polygon fill="none" stroke="black" points="1003.42,-388.11 1003.42,-407.61 1048.75,-407.61 1048.75,-388.11 1003.42,-388.11"/>
<text text-anchor="start" x="1038.25" y="-394.16" font-family="Helvetica,sans-Serif" font-size="11.00"> &#160;</text>
</a>
</g>
</g>
<!-- doc_property&#45;&gt;doc_bibliographic_record -->
<g id="edge3" class="edge">
<title>doc_property:w&#45;&gt;doc_bibliographic_record:e</title>
<path fill="none" stroke="black" d="M884.18,-438.13C864.4,-438.2 854.39,-438.36 828.75,-438.36"/>
<polygon fill="black" stroke="black" points="891.42,-438.12 899.42,-441.71 895.75,-438.12 899.08,-438.11 899.08,-438.11 899.08,-438.11 895.75,-438.12 899.41,-434.51 891.42,-438.12"/>
<ellipse fill="none" stroke="black" cx="886.5" cy="-438.13" rx="3.2" ry="3.2"/>
</g>
</g>
</svg>
