<?xml version="1.0" encoding="UTF-8" standalone="no"?>
<!DOCTYPE svg PUBLIC "-//W3C//DTD SVG 1.1//EN"
 "http://www.w3.org/Graphics/SVG/1.1/DTD/svg11.dtd">
<!-- Generated by graphviz version 12.2.0 (0)
 -->
<!-- Title: oneDegreeRelationshipsDiagram Pages: 1 -->
<svg width="785pt" height="180pt"
 viewBox="0.00 0.00 785.25 180.25" xmlns="http://www.w3.org/2000/svg" xmlns:xlink="http://www.w3.org/1999/xlink">
<g id="graph0" class="graph" transform="scale(1 1) rotate(0) translate(4 176.25)">
<title>oneDegreeRelationshipsDiagram</title>
<polygon fill="#ffffff" stroke="none" points="-4,4 -4,-176.25 781.25,-176.25 781.25,4 -4,4"/>
<text text-anchor="middle" x="79.25" y="-7.05" font-family="Helvetica,sans-Serif" font-size="11.00">Generated by SchemaSpy</text>
<!-- doc_condreport_property_config_type -->
<g id="node1" class="node">
<title>doc_condreport_property_config_type</title>
<g id="a_node1"><a xlink:href="../../tables/doc_condreport_property_config_type.html" xlink:title="doc_condreport_property_config_type" target="_top">
<polygon fill="#ffffff" stroke="none" points="320.75,-77.25 320.75,-168.25 769.25,-168.25 769.25,-77.25 320.75,-77.25"/>
<polygon fill="#f5f5f5" stroke="none" points="322.75,-142.75 322.75,-166.25 767.25,-166.25 767.25,-142.75 322.75,-142.75"/>
<polygon fill="none" stroke="black" points="322.75,-142.75 322.75,-166.25 767.25,-166.25 767.25,-142.75 322.75,-142.75"/>
<text text-anchor="start" x="327.75" y="-151.8" font-family="Helvetica,sans-Serif" font-weight="bold" font-size="11.00">doc_condreport_property_config_type</text>
<text text-anchor="start" x="725.5" y="-150.8" font-family="Helvetica,sans-Serif" font-size="11.00">[table]</text>
<polygon fill="#ffffff" stroke="none" points="322.75,-120.75 322.75,-142.75 597.75,-142.75 597.75,-120.75 322.75,-120.75"/>
<polygon fill="none" stroke="black" points="322.75,-120.75 322.75,-142.75 597.75,-142.75 597.75,-120.75 322.75,-120.75"/>
<image xlink:href="../../images/foreignKeys.png" width="11px" height="12px" preserveAspectRatio="xMinYMin meet" x="327.75" y="-137.75"/>
<text text-anchor="start" x="342.75" y="-127.3" font-family="Helvetica,sans-Serif" font-size="11.00">conf</text>
<polygon fill="none" stroke="black" points="597.75,-120.75 597.75,-142.75 721.12,-142.75 721.12,-120.75 597.75,-120.75"/>
<text text-anchor="start" x="600.75" y="-128.05" font-family="Helvetica,sans-Serif" font-size="11.00">varchar[191]</text>
<polygon fill="none" stroke="black" points="322.75,-98.75 322.75,-120.75 597.75,-120.75 597.75,-98.75 322.75,-98.75"/>
<text text-anchor="start" x="342.75" y="-105.3" font-family="Helvetica,sans-Serif" font-size="11.00">type</text>
<polygon fill="none" stroke="black" points="597.75,-98.75 597.75,-120.75 721.12,-120.75 721.12,-98.75 597.75,-98.75"/>
<text text-anchor="start" x="600.75" y="-106.05" font-family="Helvetica,sans-Serif" font-size="11.00">varchar[255]</text>
<polygon fill="#ffffff" stroke="none" points="322.75,-79.25 322.75,-98.75 466.25,-98.75 466.25,-79.25 322.75,-79.25"/>
<polygon fill="none" stroke="black" points="322.75,-79.25 322.75,-98.75 466.25,-98.75 466.25,-79.25 322.75,-79.25"/>
<text text-anchor="start" x="325.75" y="-85.3" font-family="Helvetica,sans-Serif" font-size="11.00">&lt; 1</text>
<polygon fill="#ffffff" stroke="none" points="466.25,-79.25 466.25,-98.75 597.75,-98.75 597.75,-79.25 466.25,-79.25"/>
<polygon fill="none" stroke="black" points="466.25,-79.25 466.25,-98.75 597.75,-98.75 597.75,-79.25 466.25,-79.25"/>
<text text-anchor="start" x="587.25" y="-85.3" font-family="Helvetica,sans-Serif" font-size="11.00"> &#160;</text>
<polygon fill="#ffffff" stroke="none" points="597.75,-79.25 597.75,-98.75 721.12,-98.75 721.12,-79.25 597.75,-79.25"/>
<polygon fill="none" stroke="black" points="597.75,-79.25 597.75,-98.75 721.12,-98.75 721.12,-79.25 597.75,-79.25"/>
<text text-anchor="start" x="698.62" y="-85.3" font-family="Helvetica,sans-Serif" font-size="11.00">0 &gt;</text>
<polygon fill="none" stroke="black" stroke-width="2" points="321.75,-78.25 321.75,-167.25 768.25,-167.25 768.25,-78.25 321.75,-78.25"/>
</a>
</g>
</g>
<!-- doc_condreport_property_config -->
<g id="node2" class="node">
<title>doc_condreport_property_config</title>
<g id="a_node2"><a xlink:href="../../tables/doc_condreport_property_config.html" xlink:title="doc_condreport_property_config" target="_top">
<polygon fill="#ffffff" stroke="none" points="8,-38.5 8,-167 271.75,-167 271.75,-38.5 8,-38.5"/>
<polygon fill="#f5f5f5" stroke="none" points="8,-143.5 8,-167 271.75,-167 271.75,-143.5 8,-143.5"/>
<polygon fill="none" stroke="black" points="8,-143.5 8,-167 271.75,-167 271.75,-143.5 8,-143.5"/>
<text text-anchor="start" x="13" y="-152.55" font-family="Helvetica,sans-Serif" font-weight="bold" font-size="11.00">doc_condreport_property_config</text>
<text text-anchor="start" x="230" y="-151.55" font-family="Helvetica,sans-Serif" font-size="11.00">[table]</text>
<polygon fill="none" stroke="black" points="8,-121.5 8,-143.5 271.75,-143.5 271.75,-121.5 8,-121.5"/>
<image xlink:href="../../images/primaryKeys.png" width="11px" height="12px" preserveAspectRatio="xMinYMin meet" x="13" y="-138.5"/>
<text text-anchor="start" x="40.88" y="-128.05" font-family="Helvetica,sans-Serif" font-size="11.00">identifier</text>
<polygon fill="#ffffff" stroke="none" points="8,-99.5 8,-121.5 271.75,-121.5 271.75,-99.5 8,-99.5"/>
<polygon fill="none" stroke="black" points="8,-99.5 8,-121.5 271.75,-121.5 271.75,-99.5 8,-99.5"/>
<image xlink:href="../../images/foreignKeys.png" width="11px" height="12px" preserveAspectRatio="xMinYMin meet" x="13" y="-116.5"/>
<text text-anchor="start" x="40.88" y="-106.05" font-family="Helvetica,sans-Serif" font-size="11.00">library</text>
<polygon fill="#ffffff" stroke="none" points="8,-77.5 8,-99.5 271.75,-99.5 271.75,-77.5 8,-77.5"/>
<polygon fill="none" stroke="black" points="8,-77.5 8,-99.5 271.75,-99.5 271.75,-77.5 8,-77.5"/>
<image xlink:href="../../images/foreignKeys.png" width="11px" height="12px" preserveAspectRatio="xMinYMin meet" x="13" y="-94.5"/>
<text text-anchor="start" x="40.88" y="-84.05" font-family="Helvetica,sans-Serif" font-size="11.00">desc_property</text>
<polygon fill="none" stroke="black" points="8,-58 8,-77.5 271.75,-77.5 271.75,-58 8,-58"/>
<text text-anchor="start" x="11" y="-64.05" font-family="Helvetica,sans-Serif" font-size="11.00">...</text>
<polygon fill="#ffffff" stroke="none" points="8,-38.5 8,-58 99.92,-58 99.92,-38.5 8,-38.5"/>
<polygon fill="none" stroke="black" points="8,-38.5 8,-58 99.92,-58 99.92,-38.5 8,-38.5"/>
<text text-anchor="start" x="11" y="-44.55" font-family="Helvetica,sans-Serif" font-size="11.00">&lt; 2</text>
<polygon fill="#ffffff" stroke="none" points="99.92,-38.5 99.92,-58 179.83,-58 179.83,-38.5 99.92,-38.5"/>
<polygon fill="none" stroke="black" points="99.92,-38.5 99.92,-58 179.83,-58 179.83,-38.5 99.92,-38.5"/>
<text text-anchor="start" x="169.33" y="-44.55" font-family="Helvetica,sans-Serif" font-size="11.00"> &#160;</text>
<polygon fill="#ffffff" stroke="none" points="179.83,-38.5 179.83,-58 271.75,-58 271.75,-38.5 179.83,-38.5"/>
<polygon fill="none" stroke="black" points="179.83,-38.5 179.83,-58 271.75,-58 271.75,-38.5 179.83,-38.5"/>
<text text-anchor="start" x="249.25" y="-44.55" font-family="Helvetica,sans-Serif" font-size="11.00">1 &gt;</text>
</a>
</g>
</g>
<!-- doc_condreport_property_config_type&#45;&gt;doc_condreport_property_config -->
<g id="edge1" class="edge">
<title>doc_condreport_property_config_type:w&#45;&gt;doc_condreport_property_config:e</title>
<path fill="none" stroke="black" d="M306.17,-131.9C295.46,-132.12 288.23,-132.5 272.75,-132.5"/>
<polygon fill="black" stroke="black" points="313.42,-131.83 321.45,-135.35 317.75,-131.79 321.08,-131.76 321.08,-131.76 321.08,-131.76 317.75,-131.79 321.38,-128.15 313.42,-131.83"/>
<ellipse fill="none" stroke="black" cx="308.5" cy="-131.88" rx="3.2" ry="3.2"/>
</g>
</g>
</svg>
