<?xml version="1.0" encoding="UTF-8" standalone="no"?>
<!DOCTYPE svg PUBLIC "-//W3C//DTD SVG 1.1//EN"
 "http://www.w3.org/Graphics/SVG/1.1/DTD/svg11.dtd">
<!-- Generated by graphviz version 12.2.0 (0)
 -->
<!-- Title: oneDegreeRelationshipsDiagram Pages: 1 -->
<svg width="524pt" height="296pt"
 viewBox="0.00 0.00 523.50 295.50" xmlns="http://www.w3.org/2000/svg" xmlns:xlink="http://www.w3.org/1999/xlink">
<g id="graph0" class="graph" transform="scale(1 1) rotate(0) translate(4 291.5)">
<title>oneDegreeRelationshipsDiagram</title>
<polygon fill="#ffffff" stroke="none" points="-4,4 -4,-291.5 519.5,-291.5 519.5,4 -4,4"/>
<text text-anchor="middle" x="79.25" y="-7.05" font-family="Helvetica,sans-Serif" font-size="11.00">Generated by SchemaSpy</text>
<!-- doc_global_check -->
<g id="node1" class="node">
<title>doc_global_check</title>
<g id="a_node1"><a xlink:href="../../tables/doc_global_check.html" xlink:title="doc_global_check" target="_top">
<polygon fill="#ffffff" stroke="none" points="249.75,-38.5 249.75,-283.5 507.5,-283.5 507.5,-38.5 249.75,-38.5"/>
<polygon fill="#f5f5f5" stroke="none" points="251.75,-258 251.75,-281.5 505.5,-281.5 505.5,-258 251.75,-258"/>
<polygon fill="none" stroke="black" points="251.75,-258 251.75,-281.5 505.5,-281.5 505.5,-258 251.75,-258"/>
<text text-anchor="start" x="256.75" y="-267.05" font-family="Helvetica,sans-Serif" font-weight="bold" font-size="11.00">doc_global_check</text>
<text text-anchor="start" x="463.75" y="-266.05" font-family="Helvetica,sans-Serif" font-size="11.00">[table]</text>
<polygon fill="none" stroke="black" points="251.75,-236 251.75,-258 399.75,-258 399.75,-236 251.75,-236"/>
<image xlink:href="../../images/primaryKeys.png" width="11px" height="12px" preserveAspectRatio="xMinYMin meet" x="256.75" y="-253"/>
<text text-anchor="start" x="271.75" y="-242.55" font-family="Helvetica,sans-Serif" font-size="11.00">identifier</text>
<polygon fill="none" stroke="black" points="399.75,-236 399.75,-258 496.5,-258 496.5,-236 399.75,-236"/>
<text text-anchor="start" x="402.75" y="-243.3" font-family="Helvetica,sans-Serif" font-size="11.00">varchar[191]</text>
<polygon fill="none" stroke="black" points="251.75,-214 251.75,-236 399.75,-236 399.75,-214 251.75,-214"/>
<text text-anchor="start" x="271.75" y="-220.55" font-family="Helvetica,sans-Serif" font-size="11.00">err_label</text>
<polygon fill="none" stroke="black" points="399.75,-214 399.75,-236 496.5,-236 496.5,-214 399.75,-214"/>
<text text-anchor="start" x="402.75" y="-221.3" font-family="Helvetica,sans-Serif" font-size="11.00">varchar[255]</text>
<polygon fill="none" stroke="black" points="251.75,-192 251.75,-214 399.75,-214 399.75,-192 251.75,-192"/>
<text text-anchor="start" x="271.75" y="-198.55" font-family="Helvetica,sans-Serif" font-size="11.00">err_type</text>
<polygon fill="none" stroke="black" points="399.75,-192 399.75,-214 496.5,-214 496.5,-192 399.75,-192"/>
<text text-anchor="start" x="402.75" y="-199.3" font-family="Helvetica,sans-Serif" font-size="11.00">varchar[255]</text>
<polygon fill="#ffffff" stroke="none" points="251.75,-170 251.75,-192 399.75,-192 399.75,-170 251.75,-170"/>
<polygon fill="none" stroke="black" points="251.75,-170 251.75,-192 399.75,-192 399.75,-170 251.75,-170"/>
<image xlink:href="../../images/foreignKeys.png" width="11px" height="12px" preserveAspectRatio="xMinYMin meet" x="256.75" y="-187"/>
<text text-anchor="start" x="271.75" y="-176.55" font-family="Helvetica,sans-Serif" font-size="11.00">digital_document</text>
<polygon fill="none" stroke="black" points="399.75,-170 399.75,-192 496.5,-192 496.5,-170 399.75,-170"/>
<text text-anchor="start" x="402.75" y="-177.3" font-family="Helvetica,sans-Serif" font-size="11.00">varchar[191]</text>
<polygon fill="none" stroke="black" points="251.75,-148 251.75,-170 399.75,-170 399.75,-148 251.75,-148"/>
<text text-anchor="start" x="271.75" y="-154.55" font-family="Helvetica,sans-Serif" font-size="11.00">version</text>
<polygon fill="none" stroke="black" points="399.75,-148 399.75,-170 496.5,-170 496.5,-148 399.75,-148"/>
<text text-anchor="start" x="402.75" y="-155.3" font-family="Helvetica,sans-Serif" font-size="11.00">bigint[19]</text>
<polygon fill="none" stroke="black" points="251.75,-126 251.75,-148 399.75,-148 399.75,-126 251.75,-126"/>
<text text-anchor="start" x="271.75" y="-132.55" font-family="Helvetica,sans-Serif" font-size="11.00">created_by</text>
<polygon fill="none" stroke="black" points="399.75,-126 399.75,-148 496.5,-148 496.5,-126 399.75,-126"/>
<text text-anchor="start" x="402.75" y="-133.3" font-family="Helvetica,sans-Serif" font-size="11.00">varchar[191]</text>
<polygon fill="none" stroke="black" points="251.75,-104 251.75,-126 399.75,-126 399.75,-104 251.75,-104"/>
<text text-anchor="start" x="271.75" y="-110.55" font-family="Helvetica,sans-Serif" font-size="11.00">last_modified_by</text>
<polygon fill="none" stroke="black" points="399.75,-104 399.75,-126 496.5,-126 496.5,-104 399.75,-104"/>
<text text-anchor="start" x="402.75" y="-111.3" font-family="Helvetica,sans-Serif" font-size="11.00">varchar[191]</text>
<polygon fill="none" stroke="black" points="251.75,-82 251.75,-104 399.75,-104 399.75,-82 251.75,-82"/>
<text text-anchor="start" x="271.75" y="-88.55" font-family="Helvetica,sans-Serif" font-size="11.00">created_date</text>
<polygon fill="none" stroke="black" points="399.75,-82 399.75,-104 496.5,-104 496.5,-82 399.75,-82"/>
<text text-anchor="start" x="402.75" y="-89.3" font-family="Helvetica,sans-Serif" font-size="11.00">timestamp[19]</text>
<polygon fill="none" stroke="black" points="251.75,-60 251.75,-82 399.75,-82 399.75,-60 251.75,-60"/>
<text text-anchor="start" x="271.75" y="-66.55" font-family="Helvetica,sans-Serif" font-size="11.00">last_modified_date</text>
<polygon fill="none" stroke="black" points="399.75,-60 399.75,-82 496.5,-82 496.5,-60 399.75,-60"/>
<text text-anchor="start" x="402.75" y="-67.3" font-family="Helvetica,sans-Serif" font-size="11.00">timestamp[19]</text>
<polygon fill="#ffffff" stroke="none" points="251.75,-40.5 251.75,-60 331.75,-60 331.75,-40.5 251.75,-40.5"/>
<polygon fill="none" stroke="black" points="251.75,-40.5 251.75,-60 331.75,-60 331.75,-40.5 251.75,-40.5"/>
<text text-anchor="start" x="254.75" y="-46.55" font-family="Helvetica,sans-Serif" font-size="11.00">&lt; 1</text>
<polygon fill="#ffffff" stroke="none" points="331.75,-40.5 331.75,-60 399.75,-60 399.75,-40.5 331.75,-40.5"/>
<polygon fill="none" stroke="black" points="331.75,-40.5 331.75,-60 399.75,-60 399.75,-40.5 331.75,-40.5"/>
<text text-anchor="start" x="389.25" y="-46.55" font-family="Helvetica,sans-Serif" font-size="11.00"> &#160;</text>
<polygon fill="#ffffff" stroke="none" points="399.75,-40.5 399.75,-60 496.5,-60 496.5,-40.5 399.75,-40.5"/>
<polygon fill="none" stroke="black" points="399.75,-40.5 399.75,-60 496.5,-60 496.5,-40.5 399.75,-40.5"/>
<text text-anchor="start" x="474" y="-46.55" font-family="Helvetica,sans-Serif" font-size="11.00">0 &gt;</text>
<polygon fill="none" stroke="black" stroke-width="2" points="250.75,-39.5 250.75,-282.5 506.5,-282.5 506.5,-39.5 250.75,-39.5"/>
</a>
</g>
</g>
<!-- doc_digital_document -->
<g id="node2" class="node">
<title>doc_digital_document</title>
<g id="a_node2"><a xlink:href="../../tables/doc_digital_document.html" xlink:title="doc_digital_document" target="_top">
<polygon fill="#ffffff" stroke="none" points="8,-108.75 8,-215.25 200.75,-215.25 200.75,-108.75 8,-108.75"/>
<polygon fill="#f5f5f5" stroke="none" points="8,-191.75 8,-215.25 200.75,-215.25 200.75,-191.75 8,-191.75"/>
<polygon fill="none" stroke="black" points="8,-191.75 8,-215.25 200.75,-215.25 200.75,-191.75 8,-191.75"/>
<text text-anchor="start" x="13" y="-200.8" font-family="Helvetica,sans-Serif" font-weight="bold" font-size="11.00">doc_digital_document</text>
<text text-anchor="start" x="159" y="-199.8" font-family="Helvetica,sans-Serif" font-size="11.00">[table]</text>
<polygon fill="none" stroke="black" points="8,-169.75 8,-191.75 200.75,-191.75 200.75,-169.75 8,-169.75"/>
<image xlink:href="../../images/primaryKeys.png" width="11px" height="12px" preserveAspectRatio="xMinYMin meet" x="13" y="-186.75"/>
<text text-anchor="start" x="40.88" y="-176.3" font-family="Helvetica,sans-Serif" font-size="11.00">identifier</text>
<polygon fill="#ffffff" stroke="none" points="8,-147.75 8,-169.75 200.75,-169.75 200.75,-147.75 8,-147.75"/>
<polygon fill="none" stroke="black" points="8,-147.75 8,-169.75 200.75,-169.75 200.75,-147.75 8,-147.75"/>
<image xlink:href="../../images/foreignKeys.png" width="11px" height="12px" preserveAspectRatio="xMinYMin meet" x="13" y="-164.75"/>
<text text-anchor="start" x="40.88" y="-154.3" font-family="Helvetica,sans-Serif" font-size="11.00">doc_unit</text>
<polygon fill="none" stroke="black" points="8,-128.25 8,-147.75 200.75,-147.75 200.75,-128.25 8,-128.25"/>
<text text-anchor="start" x="11" y="-134.3" font-family="Helvetica,sans-Serif" font-size="11.00">...</text>
<polygon fill="#ffffff" stroke="none" points="8,-108.75 8,-128.25 76.25,-128.25 76.25,-108.75 8,-108.75"/>
<polygon fill="none" stroke="black" points="8,-108.75 8,-128.25 76.25,-128.25 76.25,-108.75 8,-108.75"/>
<text text-anchor="start" x="11" y="-114.8" font-family="Helvetica,sans-Serif" font-size="11.00">&lt; 1</text>
<polygon fill="#ffffff" stroke="none" points="76.25,-108.75 76.25,-128.25 132.5,-128.25 132.5,-108.75 76.25,-108.75"/>
<polygon fill="none" stroke="black" points="76.25,-108.75 76.25,-128.25 132.5,-128.25 132.5,-108.75 76.25,-108.75"/>
<text text-anchor="start" x="122" y="-114.8" font-family="Helvetica,sans-Serif" font-size="11.00"> &#160;</text>
<polygon fill="#ffffff" stroke="none" points="132.5,-108.75 132.5,-128.25 200.75,-128.25 200.75,-108.75 132.5,-108.75"/>
<polygon fill="none" stroke="black" points="132.5,-108.75 132.5,-128.25 200.75,-128.25 200.75,-108.75 132.5,-108.75"/>
<text text-anchor="start" x="178.25" y="-114.8" font-family="Helvetica,sans-Serif" font-size="11.00">6 &gt;</text>
</a>
</g>
</g>
<!-- doc_global_check&#45;&gt;doc_digital_document -->
<g id="edge1" class="edge">
<title>doc_global_check:w&#45;&gt;doc_digital_document:e</title>
<path fill="none" stroke="black" d="M235.17,-180.95C224.46,-180.88 217.23,-180.75 201.75,-180.75"/>
<polygon fill="black" stroke="black" points="242.42,-180.97 250.4,-184.6 246.75,-180.99 250.08,-181 250.08,-181 250.08,-181 246.75,-180.99 250.43,-177.4 242.42,-180.97"/>
<ellipse fill="none" stroke="black" cx="237.5" cy="-180.96" rx="3.2" ry="3.2"/>
</g>
</g>
</svg>
