<?xml version="1.0" encoding="UTF-8" standalone="no"?>
<!DOCTYPE svg PUBLIC "-//W3C//DTD SVG 1.1//EN"
 "http://www.w3.org/Graphics/SVG/1.1/DTD/svg11.dtd">
<!-- Generated by graphviz version 12.2.0 (0)
 -->
<!-- Title: twoDegreesRelationshipsDiagram Pages: 1 -->
<svg width="508pt" height="883pt"
 viewBox="0.00 0.00 508.00 883.00" xmlns="http://www.w3.org/2000/svg" xmlns:xlink="http://www.w3.org/1999/xlink">
<g id="graph0" class="graph" transform="scale(1 1) rotate(0) translate(4 879)">
<title>twoDegreesRelationshipsDiagram</title>
<polygon fill="#ffffff" stroke="none" points="-4,4 -4,-879 504,-879 504,4 -4,4"/>
<text text-anchor="middle" x="79.25" y="-7.05" font-family="Helvetica,sans-Serif" font-size="11.00">Generated by SchemaSpy</text>
<!-- doc_archive_collection -->
<g id="node1" class="node">
<title>doc_archive_collection</title>
<g id="a_node1"><a xlink:href="../../tables/doc_archive_collection.html" xlink:title="doc_archive_collection" target="_top">
<polygon fill="#ffffff" stroke="none" points="257,-808.5 257,-871 454.75,-871 454.75,-808.5 257,-808.5"/>
<polygon fill="#f5f5f5" stroke="none" points="257,-847.5 257,-871 454.75,-871 454.75,-847.5 257,-847.5"/>
<polygon fill="none" stroke="black" points="257,-847.5 257,-871 454.75,-871 454.75,-847.5 257,-847.5"/>
<text text-anchor="start" x="262" y="-856.55" font-family="Helvetica,sans-Serif" font-weight="bold" font-size="11.00">doc_archive_collection</text>
<text text-anchor="start" x="413" y="-855.55" font-family="Helvetica,sans-Serif" font-size="11.00">[table]</text>
<polygon fill="none" stroke="black" points="257,-828 257,-847.5 454.75,-847.5 454.75,-828 257,-828"/>
<text text-anchor="start" x="260" y="-834.05" font-family="Helvetica,sans-Serif" font-size="11.00">...</text>
<polygon fill="#ffffff" stroke="none" points="257,-808.5 257,-828 330.92,-828 330.92,-808.5 257,-808.5"/>
<polygon fill="none" stroke="black" points="257,-808.5 257,-828 330.92,-828 330.92,-808.5 257,-808.5"/>
<text text-anchor="start" x="260" y="-814.55" font-family="Helvetica,sans-Serif" font-size="11.00">&lt; 1</text>
<polygon fill="#ffffff" stroke="none" points="330.92,-808.5 330.92,-828 392.83,-828 392.83,-808.5 330.92,-808.5"/>
<polygon fill="none" stroke="black" points="330.92,-808.5 330.92,-828 392.83,-828 392.83,-808.5 330.92,-808.5"/>
<text text-anchor="start" x="382.33" y="-814.55" font-family="Helvetica,sans-Serif" font-size="11.00"> &#160;</text>
<polygon fill="#ffffff" stroke="none" points="392.83,-808.5 392.83,-828 454.75,-828 454.75,-808.5 392.83,-808.5"/>
<polygon fill="none" stroke="black" points="392.83,-808.5 392.83,-828 454.75,-828 454.75,-808.5 392.83,-808.5"/>
<text text-anchor="start" x="444.25" y="-814.55" font-family="Helvetica,sans-Serif" font-size="11.00"> &#160;</text>
</a>
</g>
</g>
<!-- doc_archive_item -->
<g id="node2" class="node">
<title>doc_archive_item</title>
<g id="a_node2"><a xlink:href="../../tables/doc_archive_item.html" xlink:title="doc_archive_item" target="_top">
<polygon fill="#ffffff" stroke="none" points="8,-459.5 8,-544 170.75,-544 170.75,-459.5 8,-459.5"/>
<polygon fill="#f5f5f5" stroke="none" points="8,-520.5 8,-544 170.75,-544 170.75,-520.5 8,-520.5"/>
<polygon fill="none" stroke="black" points="8,-520.5 8,-544 170.75,-544 170.75,-520.5 8,-520.5"/>
<text text-anchor="start" x="13" y="-529.55" font-family="Helvetica,sans-Serif" font-weight="bold" font-size="11.00">doc_archive_item</text>
<text text-anchor="start" x="129" y="-528.55" font-family="Helvetica,sans-Serif" font-size="11.00">[table]</text>
<polygon fill="none" stroke="black" points="8,-498.5 8,-520.5 170.75,-520.5 170.75,-498.5 8,-498.5"/>
<image xlink:href="../../images/primaryKeys.png" width="11px" height="12px" preserveAspectRatio="xMinYMin meet" x="13" y="-515.5"/>
<text text-anchor="start" x="35.38" y="-505.05" font-family="Helvetica,sans-Serif" font-size="11.00">identifier</text>
<polygon fill="none" stroke="black" points="8,-479 8,-498.5 170.75,-498.5 170.75,-479 8,-479"/>
<text text-anchor="start" x="11" y="-485.05" font-family="Helvetica,sans-Serif" font-size="11.00">...</text>
<polygon fill="#ffffff" stroke="none" points="8,-459.5 8,-479 58.25,-479 58.25,-459.5 8,-459.5"/>
<polygon fill="none" stroke="black" points="8,-459.5 8,-479 58.25,-479 58.25,-459.5 8,-459.5"/>
<text text-anchor="start" x="11" y="-465.55" font-family="Helvetica,sans-Serif" font-size="11.00"> &#160;</text>
<polygon fill="#ffffff" stroke="none" points="58.25,-459.5 58.25,-479 108.5,-479 108.5,-459.5 58.25,-459.5"/>
<polygon fill="none" stroke="black" points="58.25,-459.5 58.25,-479 108.5,-479 108.5,-459.5 58.25,-459.5"/>
<text text-anchor="start" x="98" y="-465.55" font-family="Helvetica,sans-Serif" font-size="11.00"> &#160;</text>
<polygon fill="#ffffff" stroke="none" points="108.5,-459.5 108.5,-479 170.75,-479 170.75,-459.5 108.5,-459.5"/>
<polygon fill="none" stroke="black" points="108.5,-459.5 108.5,-479 170.75,-479 170.75,-459.5 108.5,-459.5"/>
<text text-anchor="start" x="148.25" y="-465.55" font-family="Helvetica,sans-Serif" font-size="11.00">8 &gt;</text>
</a>
</g>
</g>
<!-- doc_archive_collection&#45;&gt;doc_archive_item -->
<g id="edge1" class="edge">
<title>doc_archive_collection:w&#45;&gt;doc_archive_item:e</title>
<path fill="none" stroke="black" d="M240.49,-835.14C226.6,-829.61 221.25,-815.69 211.75,-797.75 181.5,-740.59 236.42,-509.5 171.75,-509.5"/>
<polygon fill="black" stroke="black" points="247.78,-836.37 255.07,-841.24 252.06,-837.09 255.34,-837.64 255.34,-837.64 255.34,-837.64 252.06,-837.09 256.27,-834.14 247.78,-836.37"/>
<ellipse fill="none" stroke="black" cx="242.93" cy="-835.55" rx="3.2" ry="3.2"/>
</g>
<!-- doc_archive_contributor -->
<g id="node3" class="node">
<title>doc_archive_contributor</title>
<g id="a_node3"><a xlink:href="../../tables/doc_archive_contributor.html" xlink:title="doc_archive_contributor" target="_top">
<polygon fill="#ffffff" stroke="none" points="251.5,-724.5 251.5,-787 460.25,-787 460.25,-724.5 251.5,-724.5"/>
<polygon fill="#f5f5f5" stroke="none" points="251.5,-763.5 251.5,-787 460.25,-787 460.25,-763.5 251.5,-763.5"/>
<polygon fill="none" stroke="black" points="251.5,-763.5 251.5,-787 460.25,-787 460.25,-763.5 251.5,-763.5"/>
<text text-anchor="start" x="256.5" y="-772.55" font-family="Helvetica,sans-Serif" font-weight="bold" font-size="11.00">doc_archive_contributor</text>
<text text-anchor="start" x="418.5" y="-771.55" font-family="Helvetica,sans-Serif" font-size="11.00">[table]</text>
<polygon fill="none" stroke="black" points="251.5,-744 251.5,-763.5 460.25,-763.5 460.25,-744 251.5,-744"/>
<text text-anchor="start" x="254.5" y="-750.05" font-family="Helvetica,sans-Serif" font-size="11.00">...</text>
<polygon fill="#ffffff" stroke="none" points="251.5,-724.5 251.5,-744 329.08,-744 329.08,-724.5 251.5,-724.5"/>
<polygon fill="none" stroke="black" points="251.5,-724.5 251.5,-744 329.08,-744 329.08,-724.5 251.5,-724.5"/>
<text text-anchor="start" x="254.5" y="-730.55" font-family="Helvetica,sans-Serif" font-size="11.00">&lt; 1</text>
<polygon fill="#ffffff" stroke="none" points="329.08,-724.5 329.08,-744 394.67,-744 394.67,-724.5 329.08,-724.5"/>
<polygon fill="none" stroke="black" points="329.08,-724.5 329.08,-744 394.67,-744 394.67,-724.5 329.08,-724.5"/>
<text text-anchor="start" x="384.17" y="-730.55" font-family="Helvetica,sans-Serif" font-size="11.00"> &#160;</text>
<polygon fill="#ffffff" stroke="none" points="394.67,-724.5 394.67,-744 460.25,-744 460.25,-724.5 394.67,-724.5"/>
<polygon fill="none" stroke="black" points="394.67,-724.5 394.67,-744 460.25,-744 460.25,-724.5 394.67,-724.5"/>
<text text-anchor="start" x="449.75" y="-730.55" font-family="Helvetica,sans-Serif" font-size="11.00"> &#160;</text>
</a>
</g>
</g>
<!-- doc_archive_contributor&#45;&gt;doc_archive_item -->
<g id="edge2" class="edge">
<title>doc_archive_contributor:w&#45;&gt;doc_archive_item:e</title>
<path fill="none" stroke="black" d="M235.25,-750.39C223.85,-744.18 220.26,-730.03 211.75,-713.75 190.33,-672.76 218,-509.5 171.75,-509.5"/>
<polygon fill="black" stroke="black" points="242.36,-751.96 249.4,-757.19 246.59,-752.89 249.85,-753.61 249.85,-753.61 249.85,-753.61 246.59,-752.89 250.95,-750.16 242.36,-751.96"/>
<ellipse fill="none" stroke="black" cx="237.56" cy="-750.9" rx="3.2" ry="3.2"/>
</g>
<!-- doc_archive_coverage -->
<g id="node4" class="node">
<title>doc_archive_coverage</title>
<g id="a_node4"><a xlink:href="../../tables/doc_archive_coverage.html" xlink:title="doc_archive_coverage" target="_top">
<polygon fill="#ffffff" stroke="none" points="259,-640.5 259,-703 452.75,-703 452.75,-640.5 259,-640.5"/>
<polygon fill="#f5f5f5" stroke="none" points="259,-679.5 259,-703 452.75,-703 452.75,-679.5 259,-679.5"/>
<polygon fill="none" stroke="black" points="259,-679.5 259,-703 452.75,-703 452.75,-679.5 259,-679.5"/>
<text text-anchor="start" x="264" y="-688.55" font-family="Helvetica,sans-Serif" font-weight="bold" font-size="11.00">doc_archive_coverage</text>
<text text-anchor="start" x="411" y="-687.55" font-family="Helvetica,sans-Serif" font-size="11.00">[table]</text>
<polygon fill="none" stroke="black" points="259,-660 259,-679.5 452.75,-679.5 452.75,-660 259,-660"/>
<text text-anchor="start" x="262" y="-666.05" font-family="Helvetica,sans-Serif" font-size="11.00">...</text>
<polygon fill="#ffffff" stroke="none" points="259,-640.5 259,-660 331.58,-660 331.58,-640.5 259,-640.5"/>
<polygon fill="none" stroke="black" points="259,-640.5 259,-660 331.58,-660 331.58,-640.5 259,-640.5"/>
<text text-anchor="start" x="262" y="-646.55" font-family="Helvetica,sans-Serif" font-size="11.00">&lt; 1</text>
<polygon fill="#ffffff" stroke="none" points="331.58,-640.5 331.58,-660 392.17,-660 392.17,-640.5 331.58,-640.5"/>
<polygon fill="none" stroke="black" points="331.58,-640.5 331.58,-660 392.17,-660 392.17,-640.5 331.58,-640.5"/>
<text text-anchor="start" x="381.67" y="-646.55" font-family="Helvetica,sans-Serif" font-size="11.00"> &#160;</text>
<polygon fill="#ffffff" stroke="none" points="392.17,-640.5 392.17,-660 452.75,-660 452.75,-640.5 392.17,-640.5"/>
<polygon fill="none" stroke="black" points="392.17,-640.5 392.17,-660 452.75,-660 452.75,-640.5 392.17,-640.5"/>
<text text-anchor="start" x="442.25" y="-646.55" font-family="Helvetica,sans-Serif" font-size="11.00"> &#160;</text>
</a>
</g>
</g>
<!-- doc_archive_coverage&#45;&gt;doc_archive_item -->
<g id="edge3" class="edge">
<title>doc_archive_coverage:w&#45;&gt;doc_archive_item:e</title>
<path fill="none" stroke="black" d="M242.7,-667.21C228.45,-661.6 223.43,-647.22 211.75,-629.75 180.44,-582.93 228.07,-509.5 171.75,-509.5"/>
<polygon fill="black" stroke="black" points="249.78,-668.39 257.08,-673.25 254.05,-669.1 257.34,-669.64 257.34,-669.64 257.34,-669.64 254.05,-669.1 258.26,-666.14 249.78,-668.39"/>
<ellipse fill="none" stroke="black" cx="244.93" cy="-667.58" rx="3.2" ry="3.2"/>
</g>
<!-- doc_archive_creator -->
<g id="node5" class="node">
<title>doc_archive_creator</title>
<g id="a_node5"><a xlink:href="../../tables/doc_archive_creator.html" xlink:title="doc_archive_creator" target="_top">
<polygon fill="#ffffff" stroke="none" points="265.5,-556.5 265.5,-619 446.25,-619 446.25,-556.5 265.5,-556.5"/>
<polygon fill="#f5f5f5" stroke="none" points="265.5,-595.5 265.5,-619 446.25,-619 446.25,-595.5 265.5,-595.5"/>
<polygon fill="none" stroke="black" points="265.5,-595.5 265.5,-619 446.25,-619 446.25,-595.5 265.5,-595.5"/>
<text text-anchor="start" x="270.5" y="-604.55" font-family="Helvetica,sans-Serif" font-weight="bold" font-size="11.00">doc_archive_creator</text>
<text text-anchor="start" x="404.5" y="-603.55" font-family="Helvetica,sans-Serif" font-size="11.00">[table]</text>
<polygon fill="none" stroke="black" points="265.5,-576 265.5,-595.5 446.25,-595.5 446.25,-576 265.5,-576"/>
<text text-anchor="start" x="268.5" y="-582.05" font-family="Helvetica,sans-Serif" font-size="11.00">...</text>
<polygon fill="#ffffff" stroke="none" points="265.5,-556.5 265.5,-576 333.75,-576 333.75,-556.5 265.5,-556.5"/>
<polygon fill="none" stroke="black" points="265.5,-556.5 265.5,-576 333.75,-576 333.75,-556.5 265.5,-556.5"/>
<text text-anchor="start" x="268.5" y="-562.55" font-family="Helvetica,sans-Serif" font-size="11.00">&lt; 1</text>
<polygon fill="#ffffff" stroke="none" points="333.75,-556.5 333.75,-576 390,-576 390,-556.5 333.75,-556.5"/>
<polygon fill="none" stroke="black" points="333.75,-556.5 333.75,-576 390,-576 390,-556.5 333.75,-556.5"/>
<text text-anchor="start" x="379.5" y="-562.55" font-family="Helvetica,sans-Serif" font-size="11.00"> &#160;</text>
<polygon fill="#ffffff" stroke="none" points="390,-556.5 390,-576 446.25,-576 446.25,-556.5 390,-556.5"/>
<polygon fill="none" stroke="black" points="390,-556.5 390,-576 446.25,-576 446.25,-556.5 390,-556.5"/>
<text text-anchor="start" x="435.75" y="-562.55" font-family="Helvetica,sans-Serif" font-size="11.00"> &#160;</text>
</a>
</g>
</g>
<!-- doc_archive_creator&#45;&gt;doc_archive_item -->
<g id="edge4" class="edge">
<title>doc_archive_creator:w&#45;&gt;doc_archive_item:e</title>
<path fill="none" stroke="black" d="M249.24,-583.14C233.81,-576.91 229.62,-560.57 211.75,-545.75 193.28,-530.43 195.74,-509.5 171.75,-509.5"/>
<polygon fill="black" stroke="black" points="256.28,-584.34 263.56,-589.24 260.56,-585.08 263.84,-585.64 263.84,-585.64 263.84,-585.64 260.56,-585.08 264.78,-582.15 256.28,-584.34"/>
<ellipse fill="none" stroke="black" cx="251.44" cy="-583.52" rx="3.2" ry="3.2"/>
</g>
<!-- doc_archive_header -->
<g id="node6" class="node">
<title>doc_archive_header</title>
<g id="a_node6"><a xlink:href="../../tables/doc_archive_header.html" xlink:title="doc_archive_header" target="_top">
<polygon fill="#ffffff" stroke="none" points="219.75,-290.25 219.75,-535.25 492,-535.25 492,-290.25 219.75,-290.25"/>
<polygon fill="#f5f5f5" stroke="none" points="221.75,-509.75 221.75,-533.25 490,-533.25 490,-509.75 221.75,-509.75"/>
<polygon fill="none" stroke="black" points="221.75,-509.75 221.75,-533.25 490,-533.25 490,-509.75 221.75,-509.75"/>
<text text-anchor="start" x="226.75" y="-518.8" font-family="Helvetica,sans-Serif" font-weight="bold" font-size="11.00">doc_archive_header</text>
<text text-anchor="start" x="448.25" y="-517.8" font-family="Helvetica,sans-Serif" font-size="11.00">[table]</text>
<polygon fill="none" stroke="black" points="221.75,-487.75 221.75,-509.75 375.75,-509.75 375.75,-487.75 221.75,-487.75"/>
<image xlink:href="../../images/primaryKeys.png" width="11px" height="12px" preserveAspectRatio="xMinYMin meet" x="226.75" y="-504.75"/>
<text text-anchor="start" x="241.75" y="-494.3" font-family="Helvetica,sans-Serif" font-size="11.00">identifier</text>
<polygon fill="none" stroke="black" points="375.75,-487.75 375.75,-509.75 476.75,-509.75 476.75,-487.75 375.75,-487.75"/>
<text text-anchor="start" x="378.75" y="-495.05" font-family="Helvetica,sans-Serif" font-size="11.00">varchar[191]</text>
<polygon fill="none" stroke="black" points="221.75,-465.75 221.75,-487.75 375.75,-487.75 375.75,-465.75 221.75,-465.75"/>
<text text-anchor="start" x="241.75" y="-472.3" font-family="Helvetica,sans-Serif" font-size="11.00">value</text>
<polygon fill="none" stroke="black" points="375.75,-465.75 375.75,-487.75 476.75,-487.75 476.75,-465.75 375.75,-465.75"/>
<text text-anchor="start" x="378.75" y="-473.05" font-family="Helvetica,sans-Serif" font-size="11.00">text[65535]</text>
<polygon fill="none" stroke="black" points="221.75,-443.75 221.75,-465.75 375.75,-465.75 375.75,-443.75 221.75,-443.75"/>
<text text-anchor="start" x="241.75" y="-450.3" font-family="Helvetica,sans-Serif" font-size="11.00">type</text>
<polygon fill="none" stroke="black" points="375.75,-443.75 375.75,-465.75 476.75,-465.75 476.75,-443.75 375.75,-443.75"/>
<text text-anchor="start" x="378.75" y="-451.05" font-family="Helvetica,sans-Serif" font-size="11.00">varchar[191]</text>
<polygon fill="#ffffff" stroke="none" points="221.75,-421.75 221.75,-443.75 375.75,-443.75 375.75,-421.75 221.75,-421.75"/>
<polygon fill="none" stroke="black" points="221.75,-421.75 221.75,-443.75 375.75,-443.75 375.75,-421.75 221.75,-421.75"/>
<image xlink:href="../../images/foreignKeys.png" width="11px" height="12px" preserveAspectRatio="xMinYMin meet" x="226.75" y="-438.75"/>
<text text-anchor="start" x="241.75" y="-428.3" font-family="Helvetica,sans-Serif" font-size="11.00">item</text>
<polygon fill="none" stroke="black" points="375.75,-421.75 375.75,-443.75 476.75,-443.75 476.75,-421.75 375.75,-421.75"/>
<text text-anchor="start" x="378.75" y="-429.05" font-family="Helvetica,sans-Serif" font-size="11.00">varchar[191]</text>
<polygon fill="none" stroke="black" points="221.75,-399.75 221.75,-421.75 375.75,-421.75 375.75,-399.75 221.75,-399.75"/>
<text text-anchor="start" x="241.75" y="-406.3" font-family="Helvetica,sans-Serif" font-size="11.00">version</text>
<polygon fill="none" stroke="black" points="375.75,-399.75 375.75,-421.75 476.75,-421.75 476.75,-399.75 375.75,-399.75"/>
<text text-anchor="start" x="378.75" y="-407.05" font-family="Helvetica,sans-Serif" font-size="11.00">bigint[19]</text>
<polygon fill="none" stroke="black" points="221.75,-377.75 221.75,-399.75 375.75,-399.75 375.75,-377.75 221.75,-377.75"/>
<text text-anchor="start" x="241.75" y="-384.3" font-family="Helvetica,sans-Serif" font-size="11.00">created_by</text>
<polygon fill="none" stroke="black" points="375.75,-377.75 375.75,-399.75 476.75,-399.75 476.75,-377.75 375.75,-377.75"/>
<text text-anchor="start" x="378.75" y="-385.05" font-family="Helvetica,sans-Serif" font-size="11.00">varchar[191]</text>
<polygon fill="none" stroke="black" points="221.75,-355.75 221.75,-377.75 375.75,-377.75 375.75,-355.75 221.75,-355.75"/>
<text text-anchor="start" x="241.75" y="-362.3" font-family="Helvetica,sans-Serif" font-size="11.00">last_modified_by</text>
<polygon fill="none" stroke="black" points="375.75,-355.75 375.75,-377.75 476.75,-377.75 476.75,-355.75 375.75,-355.75"/>
<text text-anchor="start" x="378.75" y="-363.05" font-family="Helvetica,sans-Serif" font-size="11.00">varchar[191]</text>
<polygon fill="none" stroke="black" points="221.75,-333.75 221.75,-355.75 375.75,-355.75 375.75,-333.75 221.75,-333.75"/>
<text text-anchor="start" x="241.75" y="-340.3" font-family="Helvetica,sans-Serif" font-size="11.00">created_date</text>
<polygon fill="none" stroke="black" points="375.75,-333.75 375.75,-355.75 476.75,-355.75 476.75,-333.75 375.75,-333.75"/>
<text text-anchor="start" x="378.75" y="-341.05" font-family="Helvetica,sans-Serif" font-size="11.00">timestamp[19]</text>
<polygon fill="none" stroke="black" points="221.75,-311.75 221.75,-333.75 375.75,-333.75 375.75,-311.75 221.75,-311.75"/>
<text text-anchor="start" x="241.75" y="-318.3" font-family="Helvetica,sans-Serif" font-size="11.00">last_modified_date</text>
<polygon fill="none" stroke="black" points="375.75,-311.75 375.75,-333.75 476.75,-333.75 476.75,-311.75 375.75,-311.75"/>
<text text-anchor="start" x="378.75" y="-319.05" font-family="Helvetica,sans-Serif" font-size="11.00">timestamp[19]</text>
<polygon fill="#ffffff" stroke="none" points="221.75,-292.25 221.75,-311.75 304.75,-311.75 304.75,-292.25 221.75,-292.25"/>
<polygon fill="none" stroke="black" points="221.75,-292.25 221.75,-311.75 304.75,-311.75 304.75,-292.25 221.75,-292.25"/>
<text text-anchor="start" x="224.75" y="-298.3" font-family="Helvetica,sans-Serif" font-size="11.00">&lt; 1</text>
<polygon fill="#ffffff" stroke="none" points="304.75,-292.25 304.75,-311.75 375.75,-311.75 375.75,-292.25 304.75,-292.25"/>
<polygon fill="none" stroke="black" points="304.75,-292.25 304.75,-311.75 375.75,-311.75 375.75,-292.25 304.75,-292.25"/>
<text text-anchor="start" x="365.25" y="-298.3" font-family="Helvetica,sans-Serif" font-size="11.00"> &#160;</text>
<polygon fill="#ffffff" stroke="none" points="375.75,-292.25 375.75,-311.75 476.75,-311.75 476.75,-292.25 375.75,-292.25"/>
<polygon fill="none" stroke="black" points="375.75,-292.25 375.75,-311.75 476.75,-311.75 476.75,-292.25 375.75,-292.25"/>
<text text-anchor="start" x="454.25" y="-298.3" font-family="Helvetica,sans-Serif" font-size="11.00">0 &gt;</text>
<polygon fill="none" stroke="black" stroke-width="2" points="220.75,-291.25 220.75,-534.25 491,-534.25 491,-291.25 220.75,-291.25"/>
</a>
</g>
</g>
<!-- doc_archive_header&#45;&gt;doc_archive_item -->
<g id="edge5" class="edge">
<title>doc_archive_header:w&#45;&gt;doc_archive_item:e</title>
<path fill="none" stroke="black" d="M206.04,-438.27C188.81,-455.87 205.58,-509.5 171.75,-509.5"/>
<polygon fill="black" stroke="black" points="212.95,-435.68 221.7,-436.24 217,-434.16 220.12,-432.99 220.12,-432.99 220.12,-432.99 217,-434.16 219.17,-429.5 212.95,-435.68"/>
<ellipse fill="none" stroke="black" cx="208.34" cy="-437.41" rx="3.2" ry="3.2"/>
</g>
<!-- doc_archive_language -->
<g id="node7" class="node">
<title>doc_archive_language</title>
<g id="a_node7"><a xlink:href="../../tables/doc_archive_language.html" xlink:title="doc_archive_language" target="_top">
<polygon fill="#ffffff" stroke="none" points="258.5,-206.5 258.5,-269 453.25,-269 453.25,-206.5 258.5,-206.5"/>
<polygon fill="#f5f5f5" stroke="none" points="258.5,-245.5 258.5,-269 453.25,-269 453.25,-245.5 258.5,-245.5"/>
<polygon fill="none" stroke="black" points="258.5,-245.5 258.5,-269 453.25,-269 453.25,-245.5 258.5,-245.5"/>
<text text-anchor="start" x="263.5" y="-254.55" font-family="Helvetica,sans-Serif" font-weight="bold" font-size="11.00">doc_archive_language</text>
<text text-anchor="start" x="411.5" y="-253.55" font-family="Helvetica,sans-Serif" font-size="11.00">[table]</text>
<polygon fill="none" stroke="black" points="258.5,-226 258.5,-245.5 453.25,-245.5 453.25,-226 258.5,-226"/>
<text text-anchor="start" x="261.5" y="-232.05" font-family="Helvetica,sans-Serif" font-size="11.00">...</text>
<polygon fill="#ffffff" stroke="none" points="258.5,-206.5 258.5,-226 331.42,-226 331.42,-206.5 258.5,-206.5"/>
<polygon fill="none" stroke="black" points="258.5,-206.5 258.5,-226 331.42,-226 331.42,-206.5 258.5,-206.5"/>
<text text-anchor="start" x="261.5" y="-212.55" font-family="Helvetica,sans-Serif" font-size="11.00">&lt; 1</text>
<polygon fill="#ffffff" stroke="none" points="331.42,-206.5 331.42,-226 392.33,-226 392.33,-206.5 331.42,-206.5"/>
<polygon fill="none" stroke="black" points="331.42,-206.5 331.42,-226 392.33,-226 392.33,-206.5 331.42,-206.5"/>
<text text-anchor="start" x="381.83" y="-212.55" font-family="Helvetica,sans-Serif" font-size="11.00"> &#160;</text>
<polygon fill="#ffffff" stroke="none" points="392.33,-206.5 392.33,-226 453.25,-226 453.25,-206.5 392.33,-206.5"/>
<polygon fill="none" stroke="black" points="392.33,-206.5 392.33,-226 453.25,-226 453.25,-206.5 392.33,-206.5"/>
<text text-anchor="start" x="442.75" y="-212.55" font-family="Helvetica,sans-Serif" font-size="11.00"> &#160;</text>
</a>
</g>
</g>
<!-- doc_archive_language&#45;&gt;doc_archive_item -->
<g id="edge6" class="edge">
<title>doc_archive_language:w&#45;&gt;doc_archive_item:e</title>
<path fill="none" stroke="black" d="M242.08,-238.35C226.98,-244.38 222.1,-260.29 211.75,-279.75 187.42,-325.51 223.57,-509.5 171.75,-509.5"/>
<polygon fill="black" stroke="black" points="249.28,-237.14 257.77,-239.36 253.56,-236.42 256.84,-235.86 256.84,-235.86 256.84,-235.86 253.56,-236.42 256.57,-232.26 249.28,-237.14"/>
<ellipse fill="none" stroke="black" cx="244.43" cy="-237.95" rx="3.2" ry="3.2"/>
</g>
<!-- doc_archive_subject -->
<g id="node8" class="node">
<title>doc_archive_subject</title>
<g id="a_node8"><a xlink:href="../../tables/doc_archive_subject.html" xlink:title="doc_archive_subject" target="_top">
<polygon fill="#ffffff" stroke="none" points="265,-122.5 265,-185 446.75,-185 446.75,-122.5 265,-122.5"/>
<polygon fill="#f5f5f5" stroke="none" points="265,-161.5 265,-185 446.75,-185 446.75,-161.5 265,-161.5"/>
<polygon fill="none" stroke="black" points="265,-161.5 265,-185 446.75,-185 446.75,-161.5 265,-161.5"/>
<text text-anchor="start" x="270" y="-170.55" font-family="Helvetica,sans-Serif" font-weight="bold" font-size="11.00">doc_archive_subject</text>
<text text-anchor="start" x="405" y="-169.55" font-family="Helvetica,sans-Serif" font-size="11.00">[table]</text>
<polygon fill="none" stroke="black" points="265,-142 265,-161.5 446.75,-161.5 446.75,-142 265,-142"/>
<text text-anchor="start" x="268" y="-148.05" font-family="Helvetica,sans-Serif" font-size="11.00">...</text>
<polygon fill="#ffffff" stroke="none" points="265,-122.5 265,-142 333.58,-142 333.58,-122.5 265,-122.5"/>
<polygon fill="none" stroke="black" points="265,-122.5 265,-142 333.58,-142 333.58,-122.5 265,-122.5"/>
<text text-anchor="start" x="268" y="-128.55" font-family="Helvetica,sans-Serif" font-size="11.00">&lt; 1</text>
<polygon fill="#ffffff" stroke="none" points="333.58,-122.5 333.58,-142 390.17,-142 390.17,-122.5 333.58,-122.5"/>
<polygon fill="none" stroke="black" points="333.58,-122.5 333.58,-142 390.17,-142 390.17,-122.5 333.58,-122.5"/>
<text text-anchor="start" x="379.67" y="-128.55" font-family="Helvetica,sans-Serif" font-size="11.00"> &#160;</text>
<polygon fill="#ffffff" stroke="none" points="390.17,-122.5 390.17,-142 446.75,-142 446.75,-122.5 390.17,-122.5"/>
<polygon fill="none" stroke="black" points="390.17,-122.5 390.17,-142 446.75,-142 446.75,-122.5 390.17,-122.5"/>
<text text-anchor="start" x="436.25" y="-128.55" font-family="Helvetica,sans-Serif" font-size="11.00"> &#160;</text>
</a>
</g>
</g>
<!-- doc_archive_subject&#45;&gt;doc_archive_item -->
<g id="edge7" class="edge">
<title>doc_archive_subject:w&#45;&gt;doc_archive_item:e</title>
<path fill="none" stroke="black" d="M248.35,-153.75C230.42,-159.03 223.38,-174.4 211.75,-195.75 178.12,-257.47 242.04,-509.5 171.75,-509.5"/>
<polygon fill="black" stroke="black" points="255.73,-152.81 264.13,-155.36 260.03,-152.26 263.34,-151.83 263.34,-151.83 263.34,-151.83 260.03,-152.26 263.21,-148.22 255.73,-152.81"/>
<ellipse fill="none" stroke="black" cx="250.85" cy="-153.43" rx="3.2" ry="3.2"/>
</g>
<!-- doc_unit -->
<g id="node9" class="node">
<title>doc_unit</title>
<g id="a_node9"><a xlink:href="../../tables/doc_unit.html" xlink:title="doc_unit" target="_top">
<polygon fill="#ffffff" stroke="none" points="304.5,-38.5 304.5,-101 407.25,-101 407.25,-38.5 304.5,-38.5"/>
<polygon fill="#f5f5f5" stroke="none" points="304.5,-77.5 304.5,-101 407.25,-101 407.25,-77.5 304.5,-77.5"/>
<polygon fill="none" stroke="black" points="304.5,-77.5 304.5,-101 407.25,-101 407.25,-77.5 304.5,-77.5"/>
<text text-anchor="start" x="309.5" y="-86.55" font-family="Helvetica,sans-Serif" font-weight="bold" font-size="11.00">doc_unit</text>
<text text-anchor="start" x="365.5" y="-85.55" font-family="Helvetica,sans-Serif" font-size="11.00">[table]</text>
<polygon fill="none" stroke="black" points="304.5,-58 304.5,-77.5 407.25,-77.5 407.25,-58 304.5,-58"/>
<text text-anchor="start" x="307.5" y="-64.05" font-family="Helvetica,sans-Serif" font-size="11.00">...</text>
<polygon fill="#ffffff" stroke="none" points="304.5,-38.5 304.5,-58 345,-58 345,-38.5 304.5,-38.5"/>
<polygon fill="none" stroke="black" points="304.5,-38.5 304.5,-58 345,-58 345,-38.5 304.5,-38.5"/>
<text text-anchor="start" x="307.5" y="-44.55" font-family="Helvetica,sans-Serif" font-size="11.00">&lt; 13</text>
<polygon fill="#ffffff" stroke="none" points="345,-38.5 345,-58 366.75,-58 366.75,-38.5 345,-38.5"/>
<polygon fill="none" stroke="black" points="345,-38.5 345,-58 366.75,-58 366.75,-38.5 345,-38.5"/>
<text text-anchor="start" x="356.25" y="-44.55" font-family="Helvetica,sans-Serif" font-size="11.00"> &#160;</text>
<polygon fill="#ffffff" stroke="none" points="366.75,-38.5 366.75,-58 407.25,-58 407.25,-38.5 366.75,-38.5"/>
<polygon fill="none" stroke="black" points="366.75,-38.5 366.75,-58 407.25,-58 407.25,-38.5 366.75,-38.5"/>
<text text-anchor="start" x="378" y="-44.55" font-family="Helvetica,sans-Serif" font-size="11.00">11 &gt;</text>
</a>
</g>
</g>
<!-- doc_unit&#45;&gt;doc_archive_item -->
<g id="edge8" class="edge">
<title>doc_unit:w&#45;&gt;doc_archive_item:e</title>
<path fill="none" stroke="black" d="M288.1,-68.1C253.22,-69.88 234.58,-79.21 211.75,-111.75 160.72,-184.46 260.58,-509.5 171.75,-509.5"/>
<polygon fill="black" stroke="black" points="295.17,-67.94 303.25,-71.36 299.5,-67.84 302.83,-67.77 302.83,-67.77 302.83,-67.77 299.5,-67.84 303.08,-64.16 295.17,-67.94"/>
<ellipse fill="none" stroke="black" cx="290.25" cy="-68.05" rx="3.2" ry="3.2"/>
</g>
</g>
</svg>
