<?xml version="1.0" encoding="UTF-8" standalone="no"?>
<!DOCTYPE svg PUBLIC "-//W3C//DTD SVG 1.1//EN"
 "http://www.w3.org/Graphics/SVG/1.1/DTD/svg11.dtd">
<!-- Generated by graphviz version 12.2.0 (0)
 -->
<!-- Title: oneDegreeRelationshipsDiagram Pages: 1 -->
<svg width="514pt" height="491pt"
 viewBox="0.00 0.00 513.75 491.25" xmlns="http://www.w3.org/2000/svg" xmlns:xlink="http://www.w3.org/1999/xlink">
<g id="graph0" class="graph" transform="scale(1 1) rotate(0) translate(4 487.25)">
<title>oneDegreeRelationshipsDiagram</title>
<polygon fill="#ffffff" stroke="none" points="-4,4 -4,-487.25 509.75,-487.25 509.75,4 -4,4"/>
<text text-anchor="middle" x="79.25" y="-7.05" font-family="Helvetica,sans-Serif" font-size="11.00">Generated by SchemaSpy</text>
<!-- doc_unit -->
<g id="node1" class="node">
<title>doc_unit</title>
<g id="a_node1"><a xlink:href="../../tables/doc_unit.html" xlink:title="doc_unit" target="_top">
<polygon fill="#ffffff" stroke="none" points="310.75,-64.75 310.75,-479.25 497.75,-479.25 497.75,-64.75 310.75,-64.75"/>
<polygon fill="#f5f5f5" stroke="none" points="310.75,-455.75 310.75,-479.25 497.75,-479.25 497.75,-455.75 310.75,-455.75"/>
<polygon fill="none" stroke="black" points="310.75,-455.75 310.75,-479.25 497.75,-479.25 497.75,-455.75 310.75,-455.75"/>
<text text-anchor="start" x="315.75" y="-464.8" font-family="Helvetica,sans-Serif" font-weight="bold" font-size="11.00">doc_unit</text>
<text text-anchor="start" x="456" y="-463.8" font-family="Helvetica,sans-Serif" font-size="11.00">[table]</text>
<polygon fill="none" stroke="black" points="310.75,-433.75 310.75,-455.75 497.75,-455.75 497.75,-433.75 310.75,-433.75"/>
<image xlink:href="../../images/primaryKeys.png" width="11px" height="12px" preserveAspectRatio="xMinYMin meet" x="315.75" y="-450.75"/>
<text text-anchor="start" x="330.75" y="-440.3" font-family="Helvetica,sans-Serif" font-size="11.00">identifier</text>
<polygon fill="#ffffff" stroke="none" points="310.75,-411.75 310.75,-433.75 497.75,-433.75 497.75,-411.75 310.75,-411.75"/>
<polygon fill="none" stroke="black" points="310.75,-411.75 310.75,-433.75 497.75,-433.75 497.75,-411.75 310.75,-411.75"/>
<text text-anchor="start" x="330.75" y="-418.3" font-family="Helvetica,sans-Serif" font-size="11.00">pgcn_id</text>
<polygon fill="#ffffff" stroke="none" points="310.75,-389.75 310.75,-411.75 497.75,-411.75 497.75,-389.75 310.75,-389.75"/>
<polygon fill="none" stroke="black" points="310.75,-389.75 310.75,-411.75 497.75,-411.75 497.75,-389.75 310.75,-389.75"/>
<image xlink:href="../../images/foreignKeys.png" width="11px" height="12px" preserveAspectRatio="xMinYMin meet" x="315.75" y="-406.75"/>
<text text-anchor="start" x="330.75" y="-396.3" font-family="Helvetica,sans-Serif" font-size="11.00">library</text>
<polygon fill="#ffffff" stroke="none" points="310.75,-367.75 310.75,-389.75 497.75,-389.75 497.75,-367.75 310.75,-367.75"/>
<polygon fill="none" stroke="black" points="310.75,-367.75 310.75,-389.75 497.75,-389.75 497.75,-367.75 310.75,-367.75"/>
<image xlink:href="../../images/foreignKeys.png" width="11px" height="12px" preserveAspectRatio="xMinYMin meet" x="315.75" y="-384.75"/>
<text text-anchor="start" x="330.75" y="-374.3" font-family="Helvetica,sans-Serif" font-size="11.00">project</text>
<polygon fill="#ffffff" stroke="none" points="310.75,-345.75 310.75,-367.75 497.75,-367.75 497.75,-345.75 310.75,-345.75"/>
<polygon fill="none" stroke="black" points="310.75,-345.75 310.75,-367.75 497.75,-367.75 497.75,-345.75 310.75,-345.75"/>
<text text-anchor="start" x="330.75" y="-352.3" font-family="Helvetica,sans-Serif" font-size="11.00">state</text>
<polygon fill="#ffffff" stroke="none" points="310.75,-323.75 310.75,-345.75 497.75,-345.75 497.75,-323.75 310.75,-323.75"/>
<polygon fill="none" stroke="black" points="310.75,-323.75 310.75,-345.75 497.75,-345.75 497.75,-323.75 310.75,-323.75"/>
<image xlink:href="../../images/foreignKeys.png" width="11px" height="12px" preserveAspectRatio="xMinYMin meet" x="315.75" y="-340.75"/>
<text text-anchor="start" x="330.75" y="-330.3" font-family="Helvetica,sans-Serif" font-size="11.00">lot</text>
<polygon fill="#ffffff" stroke="none" points="310.75,-301.75 310.75,-323.75 497.75,-323.75 497.75,-301.75 310.75,-301.75"/>
<polygon fill="none" stroke="black" points="310.75,-301.75 310.75,-323.75 497.75,-323.75 497.75,-301.75 310.75,-301.75"/>
<image xlink:href="../../images/foreignKeys.png" width="11px" height="12px" preserveAspectRatio="xMinYMin meet" x="315.75" y="-318.75"/>
<text text-anchor="start" x="330.75" y="-308.3" font-family="Helvetica,sans-Serif" font-size="11.00">collection_omeka</text>
<polygon fill="#ffffff" stroke="none" points="310.75,-279.75 310.75,-301.75 497.75,-301.75 497.75,-279.75 310.75,-279.75"/>
<polygon fill="none" stroke="black" points="310.75,-279.75 310.75,-301.75 497.75,-301.75 497.75,-279.75 310.75,-279.75"/>
<image xlink:href="../../images/foreignKeys.png" width="11px" height="12px" preserveAspectRatio="xMinYMin meet" x="315.75" y="-296.75"/>
<text text-anchor="start" x="330.75" y="-286.3" font-family="Helvetica,sans-Serif" font-size="11.00">items_omeka</text>
<polygon fill="#ffffff" stroke="none" points="310.75,-257.75 310.75,-279.75 497.75,-279.75 497.75,-257.75 310.75,-257.75"/>
<polygon fill="none" stroke="black" points="310.75,-257.75 310.75,-279.75 497.75,-279.75 497.75,-257.75 310.75,-257.75"/>
<image xlink:href="../../images/foreignKeys.png" width="11px" height="12px" preserveAspectRatio="xMinYMin meet" x="315.75" y="-274.75"/>
<text text-anchor="start" x="330.75" y="-264.3" font-family="Helvetica,sans-Serif" font-size="11.00">parent</text>
<polygon fill="#ffffff" stroke="none" points="310.75,-235.75 310.75,-257.75 497.75,-257.75 497.75,-235.75 310.75,-235.75"/>
<polygon fill="none" stroke="black" points="310.75,-235.75 310.75,-257.75 497.75,-257.75 497.75,-235.75 310.75,-235.75"/>
<image xlink:href="../../images/foreignKeys.png" width="11px" height="12px" preserveAspectRatio="xMinYMin meet" x="315.75" y="-252.75"/>
<text text-anchor="start" x="330.75" y="-242.3" font-family="Helvetica,sans-Serif" font-size="11.00">active_ocr_lang</text>
<polygon fill="#ffffff" stroke="none" points="310.75,-213.75 310.75,-235.75 497.75,-235.75 497.75,-213.75 310.75,-213.75"/>
<polygon fill="none" stroke="black" points="310.75,-213.75 310.75,-235.75 497.75,-235.75 497.75,-213.75 310.75,-213.75"/>
<image xlink:href="../../images/foreignKeys.png" width="11px" height="12px" preserveAspectRatio="xMinYMin meet" x="315.75" y="-230.75"/>
<text text-anchor="start" x="330.75" y="-220.3" font-family="Helvetica,sans-Serif" font-size="11.00">collection_ia</text>
<polygon fill="#ffffff" stroke="none" points="310.75,-191.75 310.75,-213.75 497.75,-213.75 497.75,-191.75 310.75,-191.75"/>
<polygon fill="none" stroke="black" points="310.75,-191.75 310.75,-213.75 497.75,-213.75 497.75,-191.75 310.75,-191.75"/>
<image xlink:href="../../images/foreignKeys.png" width="11px" height="12px" preserveAspectRatio="xMinYMin meet" x="315.75" y="-208.75"/>
<text text-anchor="start" x="330.75" y="-198.3" font-family="Helvetica,sans-Serif" font-size="11.00">classement_pac</text>
<polygon fill="#ffffff" stroke="none" points="310.75,-169.75 310.75,-191.75 497.75,-191.75 497.75,-169.75 310.75,-169.75"/>
<polygon fill="none" stroke="black" points="310.75,-169.75 310.75,-191.75 497.75,-191.75 497.75,-169.75 310.75,-169.75"/>
<image xlink:href="../../images/foreignKeys.png" width="11px" height="12px" preserveAspectRatio="xMinYMin meet" x="315.75" y="-186.75"/>
<text text-anchor="start" x="330.75" y="-176.3" font-family="Helvetica,sans-Serif" font-size="11.00">sibling</text>
<polygon fill="#ffffff" stroke="none" points="310.75,-147.75 310.75,-169.75 497.75,-169.75 497.75,-147.75 310.75,-147.75"/>
<polygon fill="none" stroke="black" points="310.75,-147.75 310.75,-169.75 497.75,-169.75 497.75,-147.75 310.75,-147.75"/>
<image xlink:href="../../images/foreignKeys.png" width="11px" height="12px" preserveAspectRatio="xMinYMin meet" x="315.75" y="-164.75"/>
<text text-anchor="start" x="330.75" y="-154.3" font-family="Helvetica,sans-Serif" font-size="11.00">export_data</text>
<polygon fill="#ffffff" stroke="none" points="310.75,-125.75 310.75,-147.75 497.75,-147.75 497.75,-125.75 310.75,-125.75"/>
<polygon fill="none" stroke="black" points="310.75,-125.75 310.75,-147.75 497.75,-147.75 497.75,-125.75 310.75,-125.75"/>
<image xlink:href="../../images/foreignKeys.png" width="11px" height="12px" preserveAspectRatio="xMinYMin meet" x="315.75" y="-142.75"/>
<text text-anchor="start" x="330.75" y="-132.3" font-family="Helvetica,sans-Serif" font-size="11.00">archive_item</text>
<polygon fill="#ffffff" stroke="none" points="310.75,-103.75 310.75,-125.75 497.75,-125.75 497.75,-103.75 310.75,-103.75"/>
<polygon fill="none" stroke="black" points="310.75,-103.75 310.75,-125.75 497.75,-125.75 497.75,-103.75 310.75,-103.75"/>
<image xlink:href="../../images/foreignKeys.png" width="11px" height="12px" preserveAspectRatio="xMinYMin meet" x="315.75" y="-120.75"/>
<text text-anchor="start" x="330.75" y="-110.3" font-family="Helvetica,sans-Serif" font-size="11.00">workflow</text>
<polygon fill="none" stroke="black" points="310.75,-84.25 310.75,-103.75 497.75,-103.75 497.75,-84.25 310.75,-84.25"/>
<text text-anchor="start" x="313.75" y="-90.3" font-family="Helvetica,sans-Serif" font-size="11.00">...</text>
<polygon fill="#ffffff" stroke="none" points="310.75,-64.75 310.75,-84.25 379.33,-84.25 379.33,-64.75 310.75,-64.75"/>
<polygon fill="none" stroke="black" points="310.75,-64.75 310.75,-84.25 379.33,-84.25 379.33,-64.75 310.75,-64.75"/>
<text text-anchor="start" x="313.75" y="-70.8" font-family="Helvetica,sans-Serif" font-size="11.00">&lt; 13</text>
<polygon fill="#ffffff" stroke="none" points="379.33,-64.75 379.33,-84.25 429.17,-84.25 429.17,-64.75 379.33,-64.75"/>
<polygon fill="none" stroke="black" points="379.33,-64.75 379.33,-84.25 429.17,-84.25 429.17,-64.75 379.33,-64.75"/>
<text text-anchor="start" x="418.67" y="-70.8" font-family="Helvetica,sans-Serif" font-size="11.00"> &#160;</text>
<polygon fill="#ffffff" stroke="none" points="429.17,-64.75 429.17,-84.25 497.75,-84.25 497.75,-64.75 429.17,-64.75"/>
<polygon fill="none" stroke="black" points="429.17,-64.75 429.17,-84.25 497.75,-84.25 497.75,-64.75 429.17,-64.75"/>
<text text-anchor="start" x="468.5" y="-70.8" font-family="Helvetica,sans-Serif" font-size="11.00">11 &gt;</text>
</a>
</g>
</g>
<!-- doc_unit_sibling -->
<g id="node2" class="node">
<title>doc_unit_sibling</title>
<g id="a_node2"><a xlink:href="../../tables/doc_unit_sibling.html" xlink:title="doc_unit_sibling" target="_top">
<polygon fill="#ffffff" stroke="none" points="8,-38.5 8,-217.5 261.75,-217.5 261.75,-38.5 8,-38.5"/>
<polygon fill="#f5f5f5" stroke="none" points="10,-192 10,-215.5 259.75,-215.5 259.75,-192 10,-192"/>
<polygon fill="none" stroke="black" points="10,-192 10,-215.5 259.75,-215.5 259.75,-192 10,-192"/>
<text text-anchor="start" x="15" y="-201.05" font-family="Helvetica,sans-Serif" font-weight="bold" font-size="11.00">doc_unit_sibling</text>
<text text-anchor="start" x="218" y="-200.05" font-family="Helvetica,sans-Serif" font-size="11.00">[table]</text>
<polygon fill="none" stroke="black" points="10,-170 10,-192 158,-192 158,-170 10,-170"/>
<image xlink:href="../../images/primaryKeys.png" width="11px" height="12px" preserveAspectRatio="xMinYMin meet" x="15" y="-187"/>
<text text-anchor="start" x="30" y="-176.55" font-family="Helvetica,sans-Serif" font-size="11.00">identifier</text>
<polygon fill="none" stroke="black" points="158,-170 158,-192 252.75,-192 252.75,-170 158,-170"/>
<text text-anchor="start" x="161" y="-177.3" font-family="Helvetica,sans-Serif" font-size="11.00">varchar[191]</text>
<polygon fill="none" stroke="black" points="10,-148 10,-170 158,-170 158,-148 10,-148"/>
<text text-anchor="start" x="30" y="-154.55" font-family="Helvetica,sans-Serif" font-size="11.00">version</text>
<polygon fill="none" stroke="black" points="158,-148 158,-170 252.75,-170 252.75,-148 158,-148"/>
<text text-anchor="start" x="161" y="-155.3" font-family="Helvetica,sans-Serif" font-size="11.00">bigint[19]</text>
<polygon fill="none" stroke="black" points="10,-126 10,-148 158,-148 158,-126 10,-126"/>
<text text-anchor="start" x="30" y="-132.55" font-family="Helvetica,sans-Serif" font-size="11.00">created_by</text>
<polygon fill="none" stroke="black" points="158,-126 158,-148 252.75,-148 252.75,-126 158,-126"/>
<text text-anchor="start" x="161" y="-133.3" font-family="Helvetica,sans-Serif" font-size="11.00">varchar[191]</text>
<polygon fill="none" stroke="black" points="10,-104 10,-126 158,-126 158,-104 10,-104"/>
<text text-anchor="start" x="30" y="-110.55" font-family="Helvetica,sans-Serif" font-size="11.00">last_modified_by</text>
<polygon fill="none" stroke="black" points="158,-104 158,-126 252.75,-126 252.75,-104 158,-104"/>
<text text-anchor="start" x="161" y="-111.3" font-family="Helvetica,sans-Serif" font-size="11.00">varchar[191]</text>
<polygon fill="none" stroke="black" points="10,-82 10,-104 158,-104 158,-82 10,-82"/>
<text text-anchor="start" x="30" y="-88.55" font-family="Helvetica,sans-Serif" font-size="11.00">created_date</text>
<polygon fill="none" stroke="black" points="158,-82 158,-104 252.75,-104 252.75,-82 158,-82"/>
<text text-anchor="start" x="161" y="-89.3" font-family="Helvetica,sans-Serif" font-size="11.00">timestamp[19]</text>
<polygon fill="none" stroke="black" points="10,-60 10,-82 158,-82 158,-60 10,-60"/>
<text text-anchor="start" x="30" y="-66.55" font-family="Helvetica,sans-Serif" font-size="11.00">last_modified_date</text>
<polygon fill="none" stroke="black" points="158,-60 158,-82 252.75,-82 252.75,-60 158,-60"/>
<text text-anchor="start" x="161" y="-67.3" font-family="Helvetica,sans-Serif" font-size="11.00">timestamp[19]</text>
<polygon fill="#ffffff" stroke="none" points="10,-40.5 10,-60 90,-60 90,-40.5 10,-40.5"/>
<polygon fill="none" stroke="black" points="10,-40.5 10,-60 90,-60 90,-40.5 10,-40.5"/>
<text text-anchor="start" x="13" y="-46.55" font-family="Helvetica,sans-Serif" font-size="11.00">&lt; 0</text>
<polygon fill="#ffffff" stroke="none" points="90,-40.5 90,-60 158,-60 158,-40.5 90,-40.5"/>
<polygon fill="none" stroke="black" points="90,-40.5 90,-60 158,-60 158,-40.5 90,-40.5"/>
<text text-anchor="start" x="147.5" y="-46.55" font-family="Helvetica,sans-Serif" font-size="11.00"> &#160;</text>
<polygon fill="#ffffff" stroke="none" points="158,-40.5 158,-60 252.75,-60 252.75,-40.5 158,-40.5"/>
<polygon fill="none" stroke="black" points="158,-40.5 158,-60 252.75,-60 252.75,-40.5 158,-40.5"/>
<text text-anchor="start" x="230.25" y="-46.55" font-family="Helvetica,sans-Serif" font-size="11.00">1 &gt;</text>
<polygon fill="none" stroke="black" stroke-width="2" points="9,-39.5 9,-216.5 260.75,-216.5 260.75,-39.5 9,-39.5"/>
</a>
</g>
</g>
<!-- doc_unit&#45;&gt;doc_unit_sibling -->
<g id="edge1" class="edge">
<title>doc_unit:w&#45;&gt;doc_unit_sibling:e</title>
<path fill="none" stroke="black" d="M294,-180.79C280.58,-180.86 272.42,-181 253.75,-181"/>
<polygon fill="black" stroke="black" points="301.42,-180.77 309.42,-184.35 305.75,-180.76 309.08,-180.75 309.08,-180.75 309.08,-180.75 305.75,-180.76 309.41,-177.15 301.42,-180.77"/>
<ellipse fill="none" stroke="black" cx="296.5" cy="-180.78" rx="3.2" ry="3.2"/>
</g>
</g>
</svg>
