<?xml version="1.0" encoding="UTF-8" standalone="no"?>
<!DOCTYPE svg PUBLIC "-//W3C//DTD SVG 1.1//EN"
 "http://www.w3.org/Graphics/SVG/1.1/DTD/svg11.dtd">
<!-- Generated by graphviz version 12.2.0 (0)
 -->
<!-- Title: oneDegreeRelationshipsDiagram Pages: 1 -->
<svg width="585pt" height="296pt"
 viewBox="0.00 0.00 585.25 295.50" xmlns="http://www.w3.org/2000/svg" xmlns:xlink="http://www.w3.org/1999/xlink">
<g id="graph0" class="graph" transform="scale(1 1) rotate(0) translate(4 291.5)">
<title>oneDegreeRelationshipsDiagram</title>
<polygon fill="#ffffff" stroke="none" points="-4,4 -4,-291.5 581.25,-291.5 581.25,4 -4,4"/>
<text text-anchor="middle" x="79.25" y="-7.05" font-family="Helvetica,sans-Serif" font-size="11.00">Generated by SchemaSpy</text>
<!-- doc_condreport_attachment -->
<g id="node1" class="node">
<title>doc_condreport_attachment</title>
<g id="a_node1"><a xlink:href="../../tables/doc_condreport_attachment.html" xlink:title="doc_condreport_attachment" target="_top">
<polygon fill="#ffffff" stroke="none" points="213,-38.5 213,-283.5 569.25,-283.5 569.25,-38.5 213,-38.5"/>
<polygon fill="#f5f5f5" stroke="none" points="215,-258 215,-281.5 567.25,-281.5 567.25,-258 215,-258"/>
<polygon fill="none" stroke="black" points="215,-258 215,-281.5 567.25,-281.5 567.25,-258 215,-258"/>
<text text-anchor="start" x="220" y="-267.05" font-family="Helvetica,sans-Serif" font-weight="bold" font-size="11.00">doc_condreport_attachment</text>
<text text-anchor="start" x="525.5" y="-266.05" font-family="Helvetica,sans-Serif" font-size="11.00">[table]</text>
<polygon fill="none" stroke="black" points="215,-236 215,-258 425,-258 425,-236 215,-236"/>
<image xlink:href="../../images/primaryKeys.png" width="11px" height="12px" preserveAspectRatio="xMinYMin meet" x="220" y="-253"/>
<text text-anchor="start" x="235" y="-242.55" font-family="Helvetica,sans-Serif" font-size="11.00">identifier</text>
<polygon fill="none" stroke="black" points="425,-236 425,-258 540,-258 540,-236 425,-236"/>
<text text-anchor="start" x="428" y="-243.3" font-family="Helvetica,sans-Serif" font-size="11.00">varchar[191]</text>
<polygon fill="none" stroke="black" points="215,-214 215,-236 425,-236 425,-214 215,-214"/>
<text text-anchor="start" x="235" y="-220.55" font-family="Helvetica,sans-Serif" font-size="11.00">original_filename</text>
<polygon fill="none" stroke="black" points="425,-214 425,-236 540,-236 540,-214 425,-214"/>
<text text-anchor="start" x="428" y="-221.3" font-family="Helvetica,sans-Serif" font-size="11.00">varchar[1024]</text>
<polygon fill="none" stroke="black" points="215,-192 215,-214 425,-214 425,-192 215,-192"/>
<text text-anchor="start" x="235" y="-198.55" font-family="Helvetica,sans-Serif" font-size="11.00">file_size</text>
<polygon fill="none" stroke="black" points="425,-192 425,-214 540,-214 540,-192 425,-192"/>
<text text-anchor="start" x="428" y="-199.3" font-family="Helvetica,sans-Serif" font-size="11.00">bigint[19]</text>
<polygon fill="#ffffff" stroke="none" points="215,-170 215,-192 425,-192 425,-170 215,-170"/>
<polygon fill="none" stroke="black" points="215,-170 215,-192 425,-192 425,-170 215,-170"/>
<image xlink:href="../../images/foreignKeys.png" width="11px" height="12px" preserveAspectRatio="xMinYMin meet" x="220" y="-187"/>
<text text-anchor="start" x="235" y="-176.55" font-family="Helvetica,sans-Serif" font-size="11.00">report</text>
<polygon fill="none" stroke="black" points="425,-170 425,-192 540,-192 540,-170 425,-170"/>
<text text-anchor="start" x="428" y="-177.3" font-family="Helvetica,sans-Serif" font-size="11.00">varchar[191]</text>
<polygon fill="none" stroke="black" points="215,-148 215,-170 425,-170 425,-148 215,-148"/>
<text text-anchor="start" x="235" y="-154.55" font-family="Helvetica,sans-Serif" font-size="11.00">version</text>
<polygon fill="none" stroke="black" points="425,-148 425,-170 540,-170 540,-148 425,-148"/>
<text text-anchor="start" x="428" y="-155.3" font-family="Helvetica,sans-Serif" font-size="11.00">bigint[19]</text>
<polygon fill="none" stroke="black" points="215,-126 215,-148 425,-148 425,-126 215,-126"/>
<text text-anchor="start" x="235" y="-132.55" font-family="Helvetica,sans-Serif" font-size="11.00">created_by</text>
<polygon fill="none" stroke="black" points="425,-126 425,-148 540,-148 540,-126 425,-126"/>
<text text-anchor="start" x="428" y="-133.3" font-family="Helvetica,sans-Serif" font-size="11.00">varchar[191]</text>
<polygon fill="none" stroke="black" points="215,-104 215,-126 425,-126 425,-104 215,-104"/>
<text text-anchor="start" x="235" y="-110.55" font-family="Helvetica,sans-Serif" font-size="11.00">last_modified_by</text>
<polygon fill="none" stroke="black" points="425,-104 425,-126 540,-126 540,-104 425,-104"/>
<text text-anchor="start" x="428" y="-111.3" font-family="Helvetica,sans-Serif" font-size="11.00">varchar[191]</text>
<polygon fill="none" stroke="black" points="215,-82 215,-104 425,-104 425,-82 215,-82"/>
<text text-anchor="start" x="235" y="-88.55" font-family="Helvetica,sans-Serif" font-size="11.00">created_date</text>
<polygon fill="none" stroke="black" points="425,-82 425,-104 540,-104 540,-82 425,-82"/>
<text text-anchor="start" x="428" y="-89.3" font-family="Helvetica,sans-Serif" font-size="11.00">timestamp[19]</text>
<polygon fill="none" stroke="black" points="215,-60 215,-82 425,-82 425,-60 215,-60"/>
<text text-anchor="start" x="235" y="-66.55" font-family="Helvetica,sans-Serif" font-size="11.00">last_modified_date</text>
<polygon fill="none" stroke="black" points="425,-60 425,-82 540,-82 540,-60 425,-60"/>
<text text-anchor="start" x="428" y="-67.3" font-family="Helvetica,sans-Serif" font-size="11.00">timestamp[19]</text>
<polygon fill="#ffffff" stroke="none" points="215,-40.5 215,-60 326,-60 326,-40.5 215,-40.5"/>
<polygon fill="none" stroke="black" points="215,-40.5 215,-60 326,-60 326,-40.5 215,-40.5"/>
<text text-anchor="start" x="218" y="-46.55" font-family="Helvetica,sans-Serif" font-size="11.00">&lt; 1</text>
<polygon fill="#ffffff" stroke="none" points="326,-40.5 326,-60 425,-60 425,-40.5 326,-40.5"/>
<polygon fill="none" stroke="black" points="326,-40.5 326,-60 425,-60 425,-40.5 326,-40.5"/>
<text text-anchor="start" x="414.5" y="-46.55" font-family="Helvetica,sans-Serif" font-size="11.00"> &#160;</text>
<polygon fill="#ffffff" stroke="none" points="425,-40.5 425,-60 540,-60 540,-40.5 425,-40.5"/>
<polygon fill="none" stroke="black" points="425,-40.5 425,-60 540,-60 540,-40.5 425,-40.5"/>
<text text-anchor="start" x="517.5" y="-46.55" font-family="Helvetica,sans-Serif" font-size="11.00">0 &gt;</text>
<polygon fill="none" stroke="black" stroke-width="2" points="214,-39.5 214,-282.5 568.25,-282.5 568.25,-39.5 214,-39.5"/>
</a>
</g>
</g>
<!-- doc_condreport -->
<g id="node2" class="node">
<title>doc_condreport</title>
<g id="a_node2"><a xlink:href="../../tables/doc_condreport.html" xlink:title="doc_condreport" target="_top">
<polygon fill="#ffffff" stroke="none" points="8,-108.75 8,-215.25 164,-215.25 164,-108.75 8,-108.75"/>
<polygon fill="#f5f5f5" stroke="none" points="8,-191.75 8,-215.25 164,-215.25 164,-191.75 8,-191.75"/>
<polygon fill="none" stroke="black" points="8,-191.75 8,-215.25 164,-215.25 164,-191.75 8,-191.75"/>
<text text-anchor="start" x="13" y="-200.8" font-family="Helvetica,sans-Serif" font-weight="bold" font-size="11.00">doc_condreport</text>
<text text-anchor="start" x="122.25" y="-199.8" font-family="Helvetica,sans-Serif" font-size="11.00">[table]</text>
<polygon fill="none" stroke="black" points="8,-169.75 8,-191.75 164,-191.75 164,-169.75 8,-169.75"/>
<image xlink:href="../../images/primaryKeys.png" width="11px" height="12px" preserveAspectRatio="xMinYMin meet" x="13" y="-186.75"/>
<text text-anchor="start" x="28" y="-176.3" font-family="Helvetica,sans-Serif" font-size="11.00">identifier</text>
<polygon fill="#ffffff" stroke="none" points="8,-147.75 8,-169.75 164,-169.75 164,-147.75 8,-147.75"/>
<polygon fill="none" stroke="black" points="8,-147.75 8,-169.75 164,-169.75 164,-147.75 8,-147.75"/>
<image xlink:href="../../images/foreignKeys.png" width="11px" height="12px" preserveAspectRatio="xMinYMin meet" x="13" y="-164.75"/>
<text text-anchor="start" x="28" y="-154.3" font-family="Helvetica,sans-Serif" font-size="11.00">doc_unit</text>
<polygon fill="none" stroke="black" points="8,-128.25 8,-147.75 164,-147.75 164,-128.25 8,-128.25"/>
<text text-anchor="start" x="11" y="-134.3" font-family="Helvetica,sans-Serif" font-size="11.00">...</text>
<polygon fill="#ffffff" stroke="none" points="8,-108.75 8,-128.25 64,-128.25 64,-108.75 8,-108.75"/>
<polygon fill="none" stroke="black" points="8,-108.75 8,-128.25 64,-128.25 64,-108.75 8,-108.75"/>
<text text-anchor="start" x="11" y="-114.8" font-family="Helvetica,sans-Serif" font-size="11.00">&lt; 1</text>
<polygon fill="#ffffff" stroke="none" points="64,-108.75 64,-128.25 108,-128.25 108,-108.75 64,-108.75"/>
<polygon fill="none" stroke="black" points="64,-108.75 64,-128.25 108,-128.25 108,-108.75 64,-108.75"/>
<text text-anchor="start" x="97.5" y="-114.8" font-family="Helvetica,sans-Serif" font-size="11.00"> &#160;</text>
<polygon fill="#ffffff" stroke="none" points="108,-108.75 108,-128.25 164,-128.25 164,-108.75 108,-108.75"/>
<polygon fill="none" stroke="black" points="108,-108.75 108,-128.25 164,-128.25 164,-108.75 108,-108.75"/>
<text text-anchor="start" x="141.5" y="-114.8" font-family="Helvetica,sans-Serif" font-size="11.00">2 &gt;</text>
</a>
</g>
</g>
<!-- doc_condreport_attachment&#45;&gt;doc_condreport -->
<g id="edge1" class="edge">
<title>doc_condreport_attachment:w&#45;&gt;doc_condreport:e</title>
<path fill="none" stroke="black" d="M198.42,-180.95C187.71,-180.88 180.48,-180.75 165,-180.75"/>
<polygon fill="black" stroke="black" points="205.67,-180.97 213.65,-184.6 210,-180.99 213.33,-181 213.33,-181 213.33,-181 210,-180.99 213.68,-177.4 205.67,-180.97"/>
<ellipse fill="none" stroke="black" cx="200.75" cy="-180.96" rx="3.2" ry="3.2"/>
</g>
</g>
</svg>
