<?xml version="1.0" encoding="UTF-8" standalone="no"?>
<!DOCTYPE svg PUBLIC "-//W3C//DTD SVG 1.1//EN"
 "http://www.w3.org/Graphics/SVG/1.1/DTD/svg11.dtd">
<!-- Generated by graphviz version 12.2.0 (0)
 -->
<!-- Title: twoDegreesRelationshipsDiagram Pages: 1 -->
<svg width="923pt" height="374pt"
 viewBox="0.00 0.00 922.75 374.25" xmlns="http://www.w3.org/2000/svg" xmlns:xlink="http://www.w3.org/1999/xlink">
<g id="graph0" class="graph" transform="scale(1 1) rotate(0) translate(4 370.25)">
<title>twoDegreesRelationshipsDiagram</title>
<polygon fill="#ffffff" stroke="none" points="-4,4 -4,-370.25 918.75,-370.25 918.75,4 -4,4"/>
<text text-anchor="middle" x="79.25" y="-7.05" font-family="Helvetica,sans-Serif" font-size="11.00">Generated by SchemaSpy</text>
<!-- doc_condreport_desc -->
<g id="node1" class="node">
<title>doc_condreport_desc</title>
<g id="a_node1"><a xlink:href="../../tables/doc_condreport_desc.html" xlink:title="doc_condreport_desc" target="_top">
<polygon fill="#ffffff" stroke="none" points="622.5,-95.25 622.5,-362.25 906.75,-362.25 906.75,-95.25 622.5,-95.25"/>
<polygon fill="#f5f5f5" stroke="none" points="624.5,-336.75 624.5,-360.25 904.75,-360.25 904.75,-336.75 624.5,-336.75"/>
<polygon fill="none" stroke="black" points="624.5,-336.75 624.5,-360.25 904.75,-360.25 904.75,-336.75 624.5,-336.75"/>
<text text-anchor="start" x="629.5" y="-345.8" font-family="Helvetica,sans-Serif" font-weight="bold" font-size="11.00">doc_condreport_desc</text>
<text text-anchor="start" x="863" y="-344.8" font-family="Helvetica,sans-Serif" font-size="11.00">[table]</text>
<polygon fill="none" stroke="black" points="624.5,-314.75 624.5,-336.75 786.5,-336.75 786.5,-314.75 624.5,-314.75"/>
<image xlink:href="../../images/primaryKeys.png" width="11px" height="12px" preserveAspectRatio="xMinYMin meet" x="629.5" y="-331.75"/>
<text text-anchor="start" x="644.5" y="-321.3" font-family="Helvetica,sans-Serif" font-size="11.00">identifier</text>
<polygon fill="none" stroke="black" points="786.5,-314.75 786.5,-336.75 889.5,-336.75 889.5,-314.75 786.5,-314.75"/>
<text text-anchor="start" x="789.5" y="-322.05" font-family="Helvetica,sans-Serif" font-size="11.00">varchar[191]</text>
<polygon fill="#ffffff" stroke="none" points="624.5,-292.75 624.5,-314.75 786.5,-314.75 786.5,-292.75 624.5,-292.75"/>
<polygon fill="none" stroke="black" points="624.5,-292.75 624.5,-314.75 786.5,-314.75 786.5,-292.75 624.5,-292.75"/>
<image xlink:href="../../images/foreignKeys.png" width="11px" height="12px" preserveAspectRatio="xMinYMin meet" x="629.5" y="-309.75"/>
<text text-anchor="start" x="644.5" y="-299.3" font-family="Helvetica,sans-Serif" font-size="11.00">property</text>
<polygon fill="none" stroke="black" points="786.5,-292.75 786.5,-314.75 889.5,-314.75 889.5,-292.75 786.5,-292.75"/>
<text text-anchor="start" x="789.5" y="-300.05" font-family="Helvetica,sans-Serif" font-size="11.00">varchar[191]</text>
<polygon fill="#ffffff" stroke="none" points="624.5,-270.75 624.5,-292.75 786.5,-292.75 786.5,-270.75 624.5,-270.75"/>
<polygon fill="none" stroke="black" points="624.5,-270.75 624.5,-292.75 786.5,-292.75 786.5,-270.75 624.5,-270.75"/>
<image xlink:href="../../images/foreignKeys.png" width="11px" height="12px" preserveAspectRatio="xMinYMin meet" x="629.5" y="-287.75"/>
<text text-anchor="start" x="644.5" y="-277.3" font-family="Helvetica,sans-Serif" font-size="11.00">value</text>
<polygon fill="none" stroke="black" points="786.5,-270.75 786.5,-292.75 889.5,-292.75 889.5,-270.75 786.5,-270.75"/>
<text text-anchor="start" x="789.5" y="-278.05" font-family="Helvetica,sans-Serif" font-size="11.00">varchar[191]</text>
<polygon fill="none" stroke="black" points="624.5,-248.75 624.5,-270.75 786.5,-270.75 786.5,-248.75 624.5,-248.75"/>
<text text-anchor="start" x="644.5" y="-255.3" font-family="Helvetica,sans-Serif" font-size="11.00">comment</text>
<polygon fill="none" stroke="black" points="786.5,-248.75 786.5,-270.75 889.5,-270.75 889.5,-248.75 786.5,-248.75"/>
<text text-anchor="start" x="789.5" y="-256.05" font-family="Helvetica,sans-Serif" font-size="11.00">text[65535]</text>
<polygon fill="#ffffff" stroke="none" points="624.5,-226.75 624.5,-248.75 786.5,-248.75 786.5,-226.75 624.5,-226.75"/>
<polygon fill="none" stroke="black" points="624.5,-226.75 624.5,-248.75 786.5,-248.75 786.5,-226.75 624.5,-226.75"/>
<image xlink:href="../../images/foreignKeys.png" width="11px" height="12px" preserveAspectRatio="xMinYMin meet" x="629.5" y="-243.75"/>
<text text-anchor="start" x="644.5" y="-233.3" font-family="Helvetica,sans-Serif" font-size="11.00">detail</text>
<polygon fill="none" stroke="black" points="786.5,-226.75 786.5,-248.75 889.5,-248.75 889.5,-226.75 786.5,-226.75"/>
<text text-anchor="start" x="789.5" y="-234.05" font-family="Helvetica,sans-Serif" font-size="11.00">varchar[191]</text>
<polygon fill="none" stroke="black" points="624.5,-204.75 624.5,-226.75 786.5,-226.75 786.5,-204.75 624.5,-204.75"/>
<text text-anchor="start" x="644.5" y="-211.3" font-family="Helvetica,sans-Serif" font-size="11.00">version</text>
<polygon fill="none" stroke="black" points="786.5,-204.75 786.5,-226.75 889.5,-226.75 889.5,-204.75 786.5,-204.75"/>
<text text-anchor="start" x="789.5" y="-212.05" font-family="Helvetica,sans-Serif" font-size="11.00">bigint[19]</text>
<polygon fill="none" stroke="black" points="624.5,-182.75 624.5,-204.75 786.5,-204.75 786.5,-182.75 624.5,-182.75"/>
<text text-anchor="start" x="644.5" y="-189.3" font-family="Helvetica,sans-Serif" font-size="11.00">created_by</text>
<polygon fill="none" stroke="black" points="786.5,-182.75 786.5,-204.75 889.5,-204.75 889.5,-182.75 786.5,-182.75"/>
<text text-anchor="start" x="789.5" y="-190.05" font-family="Helvetica,sans-Serif" font-size="11.00">varchar[191]</text>
<polygon fill="none" stroke="black" points="624.5,-160.75 624.5,-182.75 786.5,-182.75 786.5,-160.75 624.5,-160.75"/>
<text text-anchor="start" x="644.5" y="-167.3" font-family="Helvetica,sans-Serif" font-size="11.00">last_modified_by</text>
<polygon fill="none" stroke="black" points="786.5,-160.75 786.5,-182.75 889.5,-182.75 889.5,-160.75 786.5,-160.75"/>
<text text-anchor="start" x="789.5" y="-168.05" font-family="Helvetica,sans-Serif" font-size="11.00">varchar[191]</text>
<polygon fill="none" stroke="black" points="624.5,-138.75 624.5,-160.75 786.5,-160.75 786.5,-138.75 624.5,-138.75"/>
<text text-anchor="start" x="644.5" y="-145.3" font-family="Helvetica,sans-Serif" font-size="11.00">created_date</text>
<polygon fill="none" stroke="black" points="786.5,-138.75 786.5,-160.75 889.5,-160.75 889.5,-138.75 786.5,-138.75"/>
<text text-anchor="start" x="789.5" y="-146.05" font-family="Helvetica,sans-Serif" font-size="11.00">timestamp[19]</text>
<polygon fill="none" stroke="black" points="624.5,-116.75 624.5,-138.75 786.5,-138.75 786.5,-116.75 624.5,-116.75"/>
<text text-anchor="start" x="644.5" y="-123.3" font-family="Helvetica,sans-Serif" font-size="11.00">last_modified_date</text>
<polygon fill="none" stroke="black" points="786.5,-116.75 786.5,-138.75 889.5,-138.75 889.5,-116.75 786.5,-116.75"/>
<text text-anchor="start" x="789.5" y="-124.05" font-family="Helvetica,sans-Serif" font-size="11.00">timestamp[19]</text>
<polygon fill="#ffffff" stroke="none" points="624.5,-97.25 624.5,-116.75 711.5,-116.75 711.5,-97.25 624.5,-97.25"/>
<polygon fill="none" stroke="black" points="624.5,-97.25 624.5,-116.75 711.5,-116.75 711.5,-97.25 624.5,-97.25"/>
<text text-anchor="start" x="627.5" y="-103.3" font-family="Helvetica,sans-Serif" font-size="11.00">&lt; 3</text>
<polygon fill="#ffffff" stroke="none" points="711.5,-97.25 711.5,-116.75 786.5,-116.75 786.5,-97.25 711.5,-97.25"/>
<polygon fill="none" stroke="black" points="711.5,-97.25 711.5,-116.75 786.5,-116.75 786.5,-97.25 711.5,-97.25"/>
<text text-anchor="start" x="776" y="-103.3" font-family="Helvetica,sans-Serif" font-size="11.00"> &#160;</text>
<polygon fill="#ffffff" stroke="none" points="786.5,-97.25 786.5,-116.75 889.5,-116.75 889.5,-97.25 786.5,-97.25"/>
<polygon fill="none" stroke="black" points="786.5,-97.25 786.5,-116.75 889.5,-116.75 889.5,-97.25 786.5,-97.25"/>
<text text-anchor="start" x="867" y="-103.3" font-family="Helvetica,sans-Serif" font-size="11.00">0 &gt;</text>
<polygon fill="none" stroke="black" stroke-width="2" points="623.5,-96.25 623.5,-361.25 905.75,-361.25 905.75,-96.25 623.5,-96.25"/>
</a>
</g>
</g>
<!-- doc_condreport_detail -->
<g id="node2" class="node">
<title>doc_condreport_detail</title>
<g id="a_node2"><a xlink:href="../../tables/doc_condreport_detail.html" xlink:title="doc_condreport_detail" target="_top">
<polygon fill="#ffffff" stroke="none" points="343.75,-38.5 343.75,-145 539.5,-145 539.5,-38.5 343.75,-38.5"/>
<polygon fill="#f5f5f5" stroke="none" points="343.75,-121.5 343.75,-145 539.5,-145 539.5,-121.5 343.75,-121.5"/>
<polygon fill="none" stroke="black" points="343.75,-121.5 343.75,-145 539.5,-145 539.5,-121.5 343.75,-121.5"/>
<text text-anchor="start" x="348.75" y="-130.55" font-family="Helvetica,sans-Serif" font-weight="bold" font-size="11.00">doc_condreport_detail</text>
<text text-anchor="start" x="497.75" y="-129.55" font-family="Helvetica,sans-Serif" font-size="11.00">[table]</text>
<polygon fill="none" stroke="black" points="343.75,-99.5 343.75,-121.5 539.5,-121.5 539.5,-99.5 343.75,-99.5"/>
<image xlink:href="../../images/primaryKeys.png" width="11px" height="12px" preserveAspectRatio="xMinYMin meet" x="348.75" y="-116.5"/>
<text text-anchor="start" x="376.62" y="-106.05" font-family="Helvetica,sans-Serif" font-size="11.00">identifier</text>
<polygon fill="#ffffff" stroke="none" points="343.75,-77.5 343.75,-99.5 539.5,-99.5 539.5,-77.5 343.75,-77.5"/>
<polygon fill="none" stroke="black" points="343.75,-77.5 343.75,-99.5 539.5,-99.5 539.5,-77.5 343.75,-77.5"/>
<image xlink:href="../../images/foreignKeys.png" width="11px" height="12px" preserveAspectRatio="xMinYMin meet" x="348.75" y="-94.5"/>
<text text-anchor="start" x="376.62" y="-84.05" font-family="Helvetica,sans-Serif" font-size="11.00">report</text>
<polygon fill="none" stroke="black" points="343.75,-58 343.75,-77.5 539.5,-77.5 539.5,-58 343.75,-58"/>
<text text-anchor="start" x="346.75" y="-64.05" font-family="Helvetica,sans-Serif" font-size="11.00">...</text>
<polygon fill="#ffffff" stroke="none" points="343.75,-38.5 343.75,-58 413,-58 413,-38.5 343.75,-38.5"/>
<polygon fill="none" stroke="black" points="343.75,-38.5 343.75,-58 413,-58 413,-38.5 343.75,-38.5"/>
<text text-anchor="start" x="346.75" y="-44.55" font-family="Helvetica,sans-Serif" font-size="11.00">&lt; 1</text>
<polygon fill="#ffffff" stroke="none" points="413,-38.5 413,-58 470.25,-58 470.25,-38.5 413,-38.5"/>
<polygon fill="none" stroke="black" points="413,-38.5 413,-58 470.25,-58 470.25,-38.5 413,-38.5"/>
<text text-anchor="start" x="459.75" y="-44.55" font-family="Helvetica,sans-Serif" font-size="11.00"> &#160;</text>
<polygon fill="#ffffff" stroke="none" points="470.25,-38.5 470.25,-58 539.5,-58 539.5,-38.5 470.25,-38.5"/>
<polygon fill="none" stroke="black" points="470.25,-38.5 470.25,-58 539.5,-58 539.5,-38.5 470.25,-38.5"/>
<text text-anchor="start" x="517" y="-44.55" font-family="Helvetica,sans-Serif" font-size="11.00">1 &gt;</text>
</a>
</g>
</g>
<!-- doc_condreport_desc&#45;&gt;doc_condreport_detail -->
<g id="edge1" class="edge">
<title>doc_condreport_desc:w&#45;&gt;doc_condreport_detail:e</title>
<path fill="none" stroke="black" d="M608.24,-234.29C588.51,-222.65 601.05,-184.04 581.5,-155.75 566.07,-133.42 567.64,-110.5 540.5,-110.5"/>
<polygon fill="black" stroke="black" points="615.37,-235.91 622.38,-241.19 619.6,-236.87 622.85,-237.6 622.85,-237.6 622.85,-237.6 619.6,-236.87 623.97,-234.17 615.37,-235.91"/>
<ellipse fill="none" stroke="black" cx="610.58" cy="-234.82" rx="3.2" ry="3.2"/>
</g>
<!-- doc_condreport_desc_property -->
<g id="node3" class="node">
<title>doc_condreport_desc_property</title>
<g id="a_node3"><a xlink:href="../../tables/doc_condreport_desc_property.html" xlink:title="doc_condreport_desc_property" target="_top">
<polygon fill="#ffffff" stroke="none" points="8,-250.5 8,-313 260.75,-313 260.75,-250.5 8,-250.5"/>
<polygon fill="#f5f5f5" stroke="none" points="8,-289.5 8,-313 260.75,-313 260.75,-289.5 8,-289.5"/>
<polygon fill="none" stroke="black" points="8,-289.5 8,-313 260.75,-313 260.75,-289.5 8,-289.5"/>
<text text-anchor="start" x="13" y="-298.55" font-family="Helvetica,sans-Serif" font-weight="bold" font-size="11.00">doc_condreport_desc_property</text>
<text text-anchor="start" x="219" y="-297.55" font-family="Helvetica,sans-Serif" font-size="11.00">[table]</text>
<polygon fill="none" stroke="black" points="8,-270 8,-289.5 260.75,-289.5 260.75,-270 8,-270"/>
<text text-anchor="start" x="11" y="-276.05" font-family="Helvetica,sans-Serif" font-size="11.00">...</text>
<polygon fill="#ffffff" stroke="none" points="8,-250.5 8,-270 88.25,-270 88.25,-250.5 8,-250.5"/>
<polygon fill="none" stroke="black" points="8,-250.5 8,-270 88.25,-270 88.25,-250.5 8,-250.5"/>
<text text-anchor="start" x="11" y="-256.55" font-family="Helvetica,sans-Serif" font-size="11.00"> &#160;</text>
<polygon fill="#ffffff" stroke="none" points="88.25,-250.5 88.25,-270 168.5,-270 168.5,-250.5 88.25,-250.5"/>
<polygon fill="none" stroke="black" points="88.25,-250.5 88.25,-270 168.5,-270 168.5,-250.5 88.25,-250.5"/>
<text text-anchor="start" x="158" y="-256.55" font-family="Helvetica,sans-Serif" font-size="11.00"> &#160;</text>
<polygon fill="#ffffff" stroke="none" points="168.5,-250.5 168.5,-270 260.75,-270 260.75,-250.5 168.5,-250.5"/>
<polygon fill="none" stroke="black" points="168.5,-250.5 168.5,-270 260.75,-270 260.75,-250.5 168.5,-250.5"/>
<text text-anchor="start" x="238.25" y="-256.55" font-family="Helvetica,sans-Serif" font-size="11.00">3 &gt;</text>
</a>
</g>
</g>
<!-- doc_condreport_desc&#45;&gt;doc_condreport_desc_property -->
<g id="edge2" class="edge">
<title>doc_condreport_desc:w&#45;&gt;doc_condreport_desc_property:e</title>
<path fill="none" stroke="black" d="M608.37,-307.64C600.13,-312.53 595.21,-320.65 581.5,-323.75 460.22,-351.15 425.13,-339.08 301.75,-323.75 288.45,-322.1 274.68,-319.73 261.02,-316.94"/>
<polygon fill="black" stroke="black" points="615.43,-305.82 624.07,-307.32 619.63,-304.75 622.85,-303.92 622.85,-303.92 622.85,-303.92 619.63,-304.75 622.28,-300.35 615.43,-305.82"/>
<ellipse fill="none" stroke="black" cx="610.66" cy="-307.05" rx="3.2" ry="3.2"/>
</g>
<!-- doc_condreport_desc_value -->
<g id="node4" class="node">
<title>doc_condreport_desc_value</title>
<g id="a_node4"><a xlink:href="../../tables/doc_condreport_desc_value.html" xlink:title="doc_condreport_desc_value" target="_top">
<polygon fill="#ffffff" stroke="none" points="326.25,-250.5 326.25,-313 557,-313 557,-250.5 326.25,-250.5"/>
<polygon fill="#f5f5f5" stroke="none" points="326.25,-289.5 326.25,-313 557,-313 557,-289.5 326.25,-289.5"/>
<polygon fill="none" stroke="black" points="326.25,-289.5 326.25,-313 557,-313 557,-289.5 326.25,-289.5"/>
<text text-anchor="start" x="331.25" y="-298.55" font-family="Helvetica,sans-Serif" font-weight="bold" font-size="11.00">doc_condreport_desc_value</text>
<text text-anchor="start" x="515.25" y="-297.55" font-family="Helvetica,sans-Serif" font-size="11.00">[table]</text>
<polygon fill="none" stroke="black" points="326.25,-270 326.25,-289.5 557,-289.5 557,-270 326.25,-270"/>
<text text-anchor="start" x="329.25" y="-276.05" font-family="Helvetica,sans-Serif" font-size="11.00">...</text>
<polygon fill="#ffffff" stroke="none" points="326.25,-250.5 326.25,-270 407.17,-270 407.17,-250.5 326.25,-250.5"/>
<polygon fill="none" stroke="black" points="326.25,-250.5 326.25,-270 407.17,-270 407.17,-250.5 326.25,-250.5"/>
<text text-anchor="start" x="329.25" y="-256.55" font-family="Helvetica,sans-Serif" font-size="11.00">&lt; 1</text>
<polygon fill="#ffffff" stroke="none" points="407.17,-250.5 407.17,-270 476.08,-270 476.08,-250.5 407.17,-250.5"/>
<polygon fill="none" stroke="black" points="407.17,-250.5 407.17,-270 476.08,-270 476.08,-250.5 407.17,-250.5"/>
<text text-anchor="start" x="465.58" y="-256.55" font-family="Helvetica,sans-Serif" font-size="11.00"> &#160;</text>
<polygon fill="#ffffff" stroke="none" points="476.08,-250.5 476.08,-270 557,-270 557,-250.5 476.08,-250.5"/>
<polygon fill="none" stroke="black" points="476.08,-250.5 476.08,-270 557,-270 557,-250.5 476.08,-250.5"/>
<text text-anchor="start" x="534.5" y="-256.55" font-family="Helvetica,sans-Serif" font-size="11.00">1 &gt;</text>
</a>
</g>
</g>
<!-- doc_condreport_desc&#45;&gt;doc_condreport_desc_value -->
<g id="edge3" class="edge">
<title>doc_condreport_desc:w&#45;&gt;doc_condreport_desc_value:e</title>
<path fill="none" stroke="black" d="M607.7,-281.75C593.53,-281.75 579.01,-281.75 564.73,-281.75"/>
<polygon fill="black" stroke="black" points="615.17,-281.75 623.17,-285.35 619.5,-281.75 622.83,-281.75 622.83,-281.75 622.83,-281.75 619.5,-281.75 623.17,-278.15 615.17,-281.75"/>
<ellipse fill="none" stroke="black" cx="610.25" cy="-281.75" rx="3.2" ry="3.2"/>
</g>
<!-- doc_condreport -->
<g id="node5" class="node">
<title>doc_condreport</title>
<g id="a_node5"><a xlink:href="../../tables/doc_condreport.html" xlink:title="doc_condreport" target="_top">
<polygon fill="#ffffff" stroke="none" points="59,-59.5 59,-122 209.75,-122 209.75,-59.5 59,-59.5"/>
<polygon fill="#f5f5f5" stroke="none" points="59,-98.5 59,-122 209.75,-122 209.75,-98.5 59,-98.5"/>
<polygon fill="none" stroke="black" points="59,-98.5 59,-122 209.75,-122 209.75,-98.5 59,-98.5"/>
<text text-anchor="start" x="64" y="-107.55" font-family="Helvetica,sans-Serif" font-weight="bold" font-size="11.00">doc_condreport</text>
<text text-anchor="start" x="168" y="-106.55" font-family="Helvetica,sans-Serif" font-size="11.00">[table]</text>
<polygon fill="none" stroke="black" points="59,-79 59,-98.5 209.75,-98.5 209.75,-79 59,-79"/>
<text text-anchor="start" x="62" y="-85.05" font-family="Helvetica,sans-Serif" font-size="11.00">...</text>
<polygon fill="#ffffff" stroke="none" points="59,-59.5 59,-79 113.25,-79 113.25,-59.5 59,-59.5"/>
<polygon fill="none" stroke="black" points="59,-59.5 59,-79 113.25,-79 113.25,-59.5 59,-59.5"/>
<text text-anchor="start" x="62" y="-65.55" font-family="Helvetica,sans-Serif" font-size="11.00">&lt; 1</text>
<polygon fill="#ffffff" stroke="none" points="113.25,-59.5 113.25,-79 155.5,-79 155.5,-59.5 113.25,-59.5"/>
<polygon fill="none" stroke="black" points="113.25,-59.5 113.25,-79 155.5,-79 155.5,-59.5 113.25,-59.5"/>
<text text-anchor="start" x="145" y="-65.55" font-family="Helvetica,sans-Serif" font-size="11.00"> &#160;</text>
<polygon fill="#ffffff" stroke="none" points="155.5,-59.5 155.5,-79 209.75,-79 209.75,-59.5 155.5,-59.5"/>
<polygon fill="none" stroke="black" points="155.5,-59.5 155.5,-79 209.75,-79 209.75,-59.5 155.5,-59.5"/>
<text text-anchor="start" x="187.25" y="-65.55" font-family="Helvetica,sans-Serif" font-size="11.00">2 &gt;</text>
</a>
</g>
</g>
<!-- doc_condreport_detail&#45;&gt;doc_condreport -->
<g id="edge5" class="edge">
<title>doc_condreport_detail:w&#45;&gt;doc_condreport:e</title>
<path fill="none" stroke="black" d="M327.04,-88.51C280.87,-88.55 263.8,-88.75 210.75,-88.75"/>
<polygon fill="black" stroke="black" points="334.42,-88.5 342.42,-92.1 338.75,-88.5 342.08,-88.5 342.08,-88.5 342.08,-88.5 338.75,-88.5 342.41,-84.9 334.42,-88.5"/>
<ellipse fill="none" stroke="black" cx="329.5" cy="-88.51" rx="3.2" ry="3.2"/>
</g>
<!-- doc_condreport_desc_value&#45;&gt;doc_condreport_desc_property -->
<g id="edge4" class="edge">
<title>doc_condreport_desc_value:w&#45;&gt;doc_condreport_desc_property:e</title>
<path fill="none" stroke="black" d="M303.13,-281.75C291.67,-281.75 280.1,-281.75 268.67,-281.75"/>
<polygon fill="black" stroke="black" points="310.33,-281.75 318.33,-285.35 314.67,-281.75 318,-281.75 318,-281.75 318,-281.75 314.67,-281.75 318.33,-278.15 310.33,-281.75"/>
<ellipse fill="none" stroke="black" cx="305.41" cy="-281.75" rx="3.2" ry="3.2"/>
</g>
<!-- doc_condreport_property_config -->
<g id="node6" class="node">
<title>doc_condreport_property_config</title>
<g id="a_node6"><a xlink:href="../../tables/doc_condreport_property_config.html" xlink:title="doc_condreport_property_config" target="_top">
<polygon fill="#ffffff" stroke="none" points="309.75,-166.5 309.75,-229 573.5,-229 573.5,-166.5 309.75,-166.5"/>
<polygon fill="#f5f5f5" stroke="none" points="309.75,-205.5 309.75,-229 573.5,-229 573.5,-205.5 309.75,-205.5"/>
<polygon fill="none" stroke="black" points="309.75,-205.5 309.75,-229 573.5,-229 573.5,-205.5 309.75,-205.5"/>
<text text-anchor="start" x="314.75" y="-214.55" font-family="Helvetica,sans-Serif" font-weight="bold" font-size="11.00">doc_condreport_property_config</text>
<text text-anchor="start" x="531.75" y="-213.55" font-family="Helvetica,sans-Serif" font-size="11.00">[table]</text>
<polygon fill="none" stroke="black" points="309.75,-186 309.75,-205.5 573.5,-205.5 573.5,-186 309.75,-186"/>
<text text-anchor="start" x="312.75" y="-192.05" font-family="Helvetica,sans-Serif" font-size="11.00">...</text>
<polygon fill="#ffffff" stroke="none" points="309.75,-166.5 309.75,-186 401.67,-186 401.67,-166.5 309.75,-166.5"/>
<polygon fill="none" stroke="black" points="309.75,-166.5 309.75,-186 401.67,-186 401.67,-166.5 309.75,-166.5"/>
<text text-anchor="start" x="312.75" y="-172.55" font-family="Helvetica,sans-Serif" font-size="11.00">&lt; 2</text>
<polygon fill="#ffffff" stroke="none" points="401.67,-166.5 401.67,-186 481.58,-186 481.58,-166.5 401.67,-166.5"/>
<polygon fill="none" stroke="black" points="401.67,-166.5 401.67,-186 481.58,-186 481.58,-166.5 401.67,-166.5"/>
<text text-anchor="start" x="471.08" y="-172.55" font-family="Helvetica,sans-Serif" font-size="11.00"> &#160;</text>
<polygon fill="#ffffff" stroke="none" points="481.58,-166.5 481.58,-186 573.5,-186 573.5,-166.5 481.58,-166.5"/>
<polygon fill="none" stroke="black" points="481.58,-166.5 481.58,-186 573.5,-186 573.5,-166.5 481.58,-166.5"/>
<text text-anchor="start" x="551" y="-172.55" font-family="Helvetica,sans-Serif" font-size="11.00">1 &gt;</text>
</a>
</g>
</g>
<!-- doc_condreport_property_config&#45;&gt;doc_condreport_desc_property -->
<g id="edge6" class="edge">
<title>doc_condreport_property_config:w&#45;&gt;doc_condreport_desc_property:e</title>
<path fill="none" stroke="black" d="M293.22,-196.65C250.26,-201.52 208.3,-225.32 178.46,-246.52"/>
<polygon fill="black" stroke="black" points="300.43,-196.23 308.62,-199.36 304.76,-195.98 308.08,-195.79 308.08,-195.79 308.08,-195.79 304.76,-195.98 308.21,-192.18 300.43,-196.23"/>
<ellipse fill="none" stroke="black" cx="295.52" cy="-196.51" rx="3.2" ry="3.2"/>
</g>
</g>
</svg>
