<?xml version="1.0" encoding="UTF-8" standalone="no"?>
<!DOCTYPE svg PUBLIC "-//W3C//DTD SVG 1.1//EN"
 "http://www.w3.org/Graphics/SVG/1.1/DTD/svg11.dtd">
<!-- Generated by graphviz version 12.2.0 (0)
 -->
<!-- Title: oneDegreeRelationshipsDiagram Pages: 1 -->
<svg width="530pt" height="629pt"
 viewBox="0.00 0.00 530.00 629.00" xmlns="http://www.w3.org/2000/svg" xmlns:xlink="http://www.w3.org/1999/xlink">
<g id="graph0" class="graph" transform="scale(1 1) rotate(0) translate(4 625)">
<title>oneDegreeRelationshipsDiagram</title>
<polygon fill="#ffffff" stroke="none" points="-4,4 -4,-625 526,-625 526,4 -4,4"/>
<text text-anchor="middle" x="79.25" y="-7.05" font-family="Helvetica,sans-Serif" font-size="11.00">Generated by SchemaSpy</text>
<!-- doc_export_property -->
<g id="node1" class="node">
<title>doc_export_property</title>
<g id="a_node1"><a xlink:href="../../tables/doc_export_property.html" xlink:title="doc_export_property" target="_top">
<polygon fill="#ffffff" stroke="none" points="323.75,-488.5 323.75,-617 509.5,-617 509.5,-488.5 323.75,-488.5"/>
<polygon fill="#f5f5f5" stroke="none" points="323.75,-593.5 323.75,-617 509.5,-617 509.5,-593.5 323.75,-593.5"/>
<polygon fill="none" stroke="black" points="323.75,-593.5 323.75,-617 509.5,-617 509.5,-593.5 323.75,-593.5"/>
<text text-anchor="start" x="328.75" y="-602.55" font-family="Helvetica,sans-Serif" font-weight="bold" font-size="11.00">doc_export_property</text>
<text text-anchor="start" x="467.75" y="-601.55" font-family="Helvetica,sans-Serif" font-size="11.00">[table]</text>
<polygon fill="none" stroke="black" points="323.75,-571.5 323.75,-593.5 509.5,-593.5 509.5,-571.5 323.75,-571.5"/>
<image xlink:href="../../images/primaryKeys.png" width="11px" height="12px" preserveAspectRatio="xMinYMin meet" x="328.75" y="-588.5"/>
<text text-anchor="start" x="356.62" y="-578.05" font-family="Helvetica,sans-Serif" font-size="11.00">identifier</text>
<polygon fill="#ffffff" stroke="none" points="323.75,-549.5 323.75,-571.5 509.5,-571.5 509.5,-549.5 323.75,-549.5"/>
<polygon fill="none" stroke="black" points="323.75,-549.5 323.75,-571.5 509.5,-571.5 509.5,-549.5 323.75,-549.5"/>
<image xlink:href="../../images/foreignKeys.png" width="11px" height="12px" preserveAspectRatio="xMinYMin meet" x="328.75" y="-566.5"/>
<text text-anchor="start" x="356.62" y="-556.05" font-family="Helvetica,sans-Serif" font-size="11.00">type</text>
<polygon fill="#ffffff" stroke="none" points="323.75,-527.5 323.75,-549.5 509.5,-549.5 509.5,-527.5 323.75,-527.5"/>
<polygon fill="none" stroke="black" points="323.75,-527.5 323.75,-549.5 509.5,-549.5 509.5,-527.5 323.75,-527.5"/>
<image xlink:href="../../images/foreignKeys.png" width="11px" height="12px" preserveAspectRatio="xMinYMin meet" x="328.75" y="-544.5"/>
<text text-anchor="start" x="356.62" y="-534.05" font-family="Helvetica,sans-Serif" font-size="11.00">record</text>
<polygon fill="none" stroke="black" points="323.75,-508 323.75,-527.5 509.5,-527.5 509.5,-508 323.75,-508"/>
<text text-anchor="start" x="326.75" y="-514.05" font-family="Helvetica,sans-Serif" font-size="11.00">...</text>
<polygon fill="#ffffff" stroke="none" points="323.75,-488.5 323.75,-508 393.67,-508 393.67,-488.5 323.75,-488.5"/>
<polygon fill="none" stroke="black" points="323.75,-488.5 323.75,-508 393.67,-508 393.67,-488.5 323.75,-488.5"/>
<text text-anchor="start" x="326.75" y="-494.55" font-family="Helvetica,sans-Serif" font-size="11.00">&lt; 2</text>
<polygon fill="#ffffff" stroke="none" points="393.67,-488.5 393.67,-508 451.58,-508 451.58,-488.5 393.67,-488.5"/>
<polygon fill="none" stroke="black" points="393.67,-488.5 393.67,-508 451.58,-508 451.58,-488.5 393.67,-488.5"/>
<text text-anchor="start" x="441.08" y="-494.55" font-family="Helvetica,sans-Serif" font-size="11.00"> &#160;</text>
<polygon fill="#ffffff" stroke="none" points="451.58,-488.5 451.58,-508 509.5,-508 509.5,-488.5 451.58,-488.5"/>
<polygon fill="none" stroke="black" points="451.58,-488.5 451.58,-508 509.5,-508 509.5,-488.5 451.58,-488.5"/>
<text text-anchor="start" x="499" y="-494.55" font-family="Helvetica,sans-Serif" font-size="11.00"> &#160;</text>
</a>
</g>
</g>
<!-- doc_property_type -->
<g id="node2" class="node">
<title>doc_property_type</title>
<g id="a_node2"><a xlink:href="../../tables/doc_property_type.html" xlink:title="doc_property_type" target="_top">
<polygon fill="#ffffff" stroke="none" points="8,-116.25 8,-361.25 270.25,-361.25 270.25,-116.25 8,-116.25"/>
<polygon fill="#f5f5f5" stroke="none" points="10,-335.75 10,-359.25 268.25,-359.25 268.25,-335.75 10,-335.75"/>
<polygon fill="none" stroke="black" points="10,-335.75 10,-359.25 268.25,-359.25 268.25,-335.75 10,-335.75"/>
<text text-anchor="start" x="15" y="-344.8" font-family="Helvetica,sans-Serif" font-weight="bold" font-size="11.00">doc_property_type</text>
<text text-anchor="start" x="226.5" y="-343.8" font-family="Helvetica,sans-Serif" font-size="11.00">[table]</text>
<polygon fill="none" stroke="black" points="10,-313.75 10,-335.75 158,-335.75 158,-313.75 10,-313.75"/>
<image xlink:href="../../images/primaryKeys.png" width="11px" height="12px" preserveAspectRatio="xMinYMin meet" x="15" y="-330.75"/>
<text text-anchor="start" x="30" y="-320.3" font-family="Helvetica,sans-Serif" font-size="11.00">identifier</text>
<polygon fill="none" stroke="black" points="158,-313.75 158,-335.75 257,-335.75 257,-313.75 158,-313.75"/>
<text text-anchor="start" x="161" y="-321.05" font-family="Helvetica,sans-Serif" font-size="11.00">varchar[191]</text>
<polygon fill="none" stroke="black" points="10,-291.75 10,-313.75 158,-313.75 158,-291.75 10,-291.75"/>
<text text-anchor="start" x="30" y="-298.3" font-family="Helvetica,sans-Serif" font-size="11.00">label</text>
<polygon fill="none" stroke="black" points="158,-291.75 158,-313.75 257,-313.75 257,-291.75 158,-291.75"/>
<text text-anchor="start" x="161" y="-299.05" font-family="Helvetica,sans-Serif" font-size="11.00">varchar[255]</text>
<polygon fill="none" stroke="black" points="10,-269.75 10,-291.75 158,-291.75 158,-269.75 10,-269.75"/>
<text text-anchor="start" x="30" y="-276.3" font-family="Helvetica,sans-Serif" font-size="11.00">supertype</text>
<polygon fill="none" stroke="black" points="158,-269.75 158,-291.75 257,-291.75 257,-269.75 158,-269.75"/>
<text text-anchor="start" x="161" y="-277.05" font-family="Helvetica,sans-Serif" font-size="11.00">varchar[255]</text>
<polygon fill="none" stroke="black" points="10,-247.75 10,-269.75 158,-269.75 158,-247.75 10,-247.75"/>
<text text-anchor="start" x="30" y="-254.3" font-family="Helvetica,sans-Serif" font-size="11.00">rank</text>
<polygon fill="none" stroke="black" points="158,-247.75 158,-269.75 257,-269.75 257,-247.75 158,-247.75"/>
<text text-anchor="start" x="161" y="-255.05" font-family="Helvetica,sans-Serif" font-size="11.00">int[10]</text>
<polygon fill="none" stroke="black" points="10,-225.75 10,-247.75 158,-247.75 158,-225.75 10,-225.75"/>
<text text-anchor="start" x="30" y="-232.3" font-family="Helvetica,sans-Serif" font-size="11.00">version</text>
<polygon fill="none" stroke="black" points="158,-225.75 158,-247.75 257,-247.75 257,-225.75 158,-225.75"/>
<text text-anchor="start" x="161" y="-233.05" font-family="Helvetica,sans-Serif" font-size="11.00">bigint[19]</text>
<polygon fill="none" stroke="black" points="10,-203.75 10,-225.75 158,-225.75 158,-203.75 10,-203.75"/>
<text text-anchor="start" x="30" y="-210.3" font-family="Helvetica,sans-Serif" font-size="11.00">created_by</text>
<polygon fill="none" stroke="black" points="158,-203.75 158,-225.75 257,-225.75 257,-203.75 158,-203.75"/>
<text text-anchor="start" x="161" y="-211.05" font-family="Helvetica,sans-Serif" font-size="11.00">varchar[191]</text>
<polygon fill="none" stroke="black" points="10,-181.75 10,-203.75 158,-203.75 158,-181.75 10,-181.75"/>
<text text-anchor="start" x="30" y="-188.3" font-family="Helvetica,sans-Serif" font-size="11.00">last_modified_by</text>
<polygon fill="none" stroke="black" points="158,-181.75 158,-203.75 257,-203.75 257,-181.75 158,-181.75"/>
<text text-anchor="start" x="161" y="-189.05" font-family="Helvetica,sans-Serif" font-size="11.00">varchar[191]</text>
<polygon fill="none" stroke="black" points="10,-159.75 10,-181.75 158,-181.75 158,-159.75 10,-159.75"/>
<text text-anchor="start" x="30" y="-166.3" font-family="Helvetica,sans-Serif" font-size="11.00">created_date</text>
<polygon fill="none" stroke="black" points="158,-159.75 158,-181.75 257,-181.75 257,-159.75 158,-159.75"/>
<text text-anchor="start" x="161" y="-167.05" font-family="Helvetica,sans-Serif" font-size="11.00">timestamp[19]</text>
<polygon fill="none" stroke="black" points="10,-137.75 10,-159.75 158,-159.75 158,-137.75 10,-137.75"/>
<text text-anchor="start" x="30" y="-144.3" font-family="Helvetica,sans-Serif" font-size="11.00">last_modified_date</text>
<polygon fill="none" stroke="black" points="158,-137.75 158,-159.75 257,-159.75 257,-137.75 158,-137.75"/>
<text text-anchor="start" x="161" y="-145.05" font-family="Helvetica,sans-Serif" font-size="11.00">timestamp[19]</text>
<polygon fill="#ffffff" stroke="none" points="10,-118.25 10,-137.75 90,-137.75 90,-118.25 10,-118.25"/>
<polygon fill="none" stroke="black" points="10,-118.25 10,-137.75 90,-137.75 90,-118.25 10,-118.25"/>
<text text-anchor="start" x="13" y="-124.3" font-family="Helvetica,sans-Serif" font-size="11.00">&lt; 0</text>
<polygon fill="#ffffff" stroke="none" points="90,-118.25 90,-137.75 158,-137.75 158,-118.25 90,-118.25"/>
<polygon fill="none" stroke="black" points="90,-118.25 90,-137.75 158,-137.75 158,-118.25 90,-118.25"/>
<text text-anchor="start" x="147.5" y="-124.3" font-family="Helvetica,sans-Serif" font-size="11.00"> &#160;</text>
<polygon fill="#ffffff" stroke="none" points="158,-118.25 158,-137.75 257,-137.75 257,-118.25 158,-118.25"/>
<polygon fill="none" stroke="black" points="158,-118.25 158,-137.75 257,-137.75 257,-118.25 158,-118.25"/>
<text text-anchor="start" x="234.5" y="-124.3" font-family="Helvetica,sans-Serif" font-size="11.00">4 &gt;</text>
<polygon fill="none" stroke="black" stroke-width="2" points="9,-117.25 9,-360.25 269.25,-360.25 269.25,-117.25 9,-117.25"/>
</a>
</g>
</g>
<!-- doc_export_property&#45;&gt;doc_property_type -->
<g id="edge1" class="edge">
<title>doc_export_property:w&#45;&gt;doc_property_type:e</title>
<path fill="none" stroke="black" d="M307.18,-558.46C230,-535.42 360.72,-324.75 258,-324.75"/>
<polygon fill="black" stroke="black" points="314.49,-559.42 321.95,-564.03 318.78,-559.98 322.09,-560.41 322.09,-560.41 322.09,-560.41 318.78,-559.98 322.89,-556.89 314.49,-559.42"/>
<ellipse fill="none" stroke="black" cx="309.61" cy="-558.78" rx="3.2" ry="3.2"/>
</g>
<!-- doc_property -->
<g id="node3" class="node">
<title>doc_property</title>
<g id="a_node3"><a xlink:href="../../tables/doc_property.html" xlink:title="doc_property" target="_top">
<polygon fill="#ffffff" stroke="none" points="342.62,-338.5 342.62,-467 490.62,-467 490.62,-338.5 342.62,-338.5"/>
<polygon fill="#f5f5f5" stroke="none" points="342.62,-443.5 342.62,-467 490.62,-467 490.62,-443.5 342.62,-443.5"/>
<polygon fill="none" stroke="black" points="342.62,-443.5 342.62,-467 490.62,-467 490.62,-443.5 342.62,-443.5"/>
<text text-anchor="start" x="347.62" y="-452.55" font-family="Helvetica,sans-Serif" font-weight="bold" font-size="11.00">doc_property</text>
<text text-anchor="start" x="448.88" y="-451.55" font-family="Helvetica,sans-Serif" font-size="11.00">[table]</text>
<polygon fill="none" stroke="black" points="342.62,-421.5 342.62,-443.5 490.62,-443.5 490.62,-421.5 342.62,-421.5"/>
<image xlink:href="../../images/primaryKeys.png" width="11px" height="12px" preserveAspectRatio="xMinYMin meet" x="347.625" y="-438.5"/>
<text text-anchor="start" x="362.62" y="-428.05" font-family="Helvetica,sans-Serif" font-size="11.00">identifier</text>
<polygon fill="#ffffff" stroke="none" points="342.62,-399.5 342.62,-421.5 490.62,-421.5 490.62,-399.5 342.62,-399.5"/>
<polygon fill="none" stroke="black" points="342.62,-399.5 342.62,-421.5 490.62,-421.5 490.62,-399.5 342.62,-399.5"/>
<image xlink:href="../../images/foreignKeys.png" width="11px" height="12px" preserveAspectRatio="xMinYMin meet" x="347.625" y="-416.5"/>
<text text-anchor="start" x="362.62" y="-406.05" font-family="Helvetica,sans-Serif" font-size="11.00">type</text>
<polygon fill="#ffffff" stroke="none" points="342.62,-377.5 342.62,-399.5 490.62,-399.5 490.62,-377.5 342.62,-377.5"/>
<polygon fill="none" stroke="black" points="342.62,-377.5 342.62,-399.5 490.62,-399.5 490.62,-377.5 342.62,-377.5"/>
<image xlink:href="../../images/foreignKeys.png" width="11px" height="12px" preserveAspectRatio="xMinYMin meet" x="347.625" y="-394.5"/>
<text text-anchor="start" x="362.62" y="-384.05" font-family="Helvetica,sans-Serif" font-size="11.00">record</text>
<polygon fill="none" stroke="black" points="342.62,-358 342.62,-377.5 490.62,-377.5 490.62,-358 342.62,-358"/>
<text text-anchor="start" x="345.62" y="-364.05" font-family="Helvetica,sans-Serif" font-size="11.00">...</text>
<polygon fill="#ffffff" stroke="none" points="342.62,-338.5 342.62,-358 399.96,-358 399.96,-338.5 342.62,-338.5"/>
<polygon fill="none" stroke="black" points="342.62,-338.5 342.62,-358 399.96,-358 399.96,-338.5 342.62,-338.5"/>
<text text-anchor="start" x="345.62" y="-344.55" font-family="Helvetica,sans-Serif" font-size="11.00">&lt; 2</text>
<polygon fill="#ffffff" stroke="none" points="399.96,-338.5 399.96,-358 445.29,-358 445.29,-338.5 399.96,-338.5"/>
<polygon fill="none" stroke="black" points="399.96,-338.5 399.96,-358 445.29,-358 445.29,-338.5 399.96,-338.5"/>
<text text-anchor="start" x="434.79" y="-344.55" font-family="Helvetica,sans-Serif" font-size="11.00"> &#160;</text>
<polygon fill="#ffffff" stroke="none" points="445.29,-338.5 445.29,-358 490.62,-358 490.62,-338.5 445.29,-338.5"/>
<polygon fill="none" stroke="black" points="445.29,-338.5 445.29,-358 490.62,-358 490.62,-338.5 445.29,-338.5"/>
<text text-anchor="start" x="480.12" y="-344.55" font-family="Helvetica,sans-Serif" font-size="11.00"> &#160;</text>
</a>
</g>
</g>
<!-- doc_property&#45;&gt;doc_property_type -->
<g id="edge2" class="edge">
<title>doc_property:w&#45;&gt;doc_property_type:e</title>
<path fill="none" stroke="black" d="M326.24,-407.45C292.59,-392.17 305.2,-324.75 258,-324.75"/>
<polygon fill="black" stroke="black" points="333.45,-408.88 340.6,-413.97 337.7,-409.72 340.97,-410.37 340.97,-410.37 340.97,-410.37 337.7,-409.72 342,-406.9 333.45,-408.88"/>
<ellipse fill="none" stroke="black" cx="328.63" cy="-407.92" rx="3.2" ry="3.2"/>
</g>
<!-- exc_csv_mapping_rule -->
<g id="node4" class="node">
<title>exc_csv_mapping_rule</title>
<g id="a_node4"><a xlink:href="../../tables/exc_csv_mapping_rule.html" xlink:title="exc_csv_mapping_rule" target="_top">
<polygon fill="#ffffff" stroke="none" points="319.25,-188.5 319.25,-317 514,-317 514,-188.5 319.25,-188.5"/>
<polygon fill="#f5f5f5" stroke="none" points="319.25,-293.5 319.25,-317 514,-317 514,-293.5 319.25,-293.5"/>
<polygon fill="none" stroke="black" points="319.25,-293.5 319.25,-317 514,-317 514,-293.5 319.25,-293.5"/>
<text text-anchor="start" x="324.25" y="-302.55" font-family="Helvetica,sans-Serif" font-weight="bold" font-size="11.00">exc_csv_mapping_rule</text>
<text text-anchor="start" x="472.25" y="-301.55" font-family="Helvetica,sans-Serif" font-size="11.00">[table]</text>
<polygon fill="none" stroke="black" points="319.25,-271.5 319.25,-293.5 514,-293.5 514,-271.5 319.25,-271.5"/>
<image xlink:href="../../images/primaryKeys.png" width="11px" height="12px" preserveAspectRatio="xMinYMin meet" x="324.25" y="-288.5"/>
<text text-anchor="start" x="352.12" y="-278.05" font-family="Helvetica,sans-Serif" font-size="11.00">identifier</text>
<polygon fill="#ffffff" stroke="none" points="319.25,-249.5 319.25,-271.5 514,-271.5 514,-249.5 319.25,-249.5"/>
<polygon fill="none" stroke="black" points="319.25,-249.5 319.25,-271.5 514,-271.5 514,-249.5 319.25,-249.5"/>
<image xlink:href="../../images/foreignKeys.png" width="11px" height="12px" preserveAspectRatio="xMinYMin meet" x="324.25" y="-266.5"/>
<text text-anchor="start" x="352.12" y="-256.05" font-family="Helvetica,sans-Serif" font-size="11.00">mapping</text>
<polygon fill="#ffffff" stroke="none" points="319.25,-227.5 319.25,-249.5 514,-249.5 514,-227.5 319.25,-227.5"/>
<polygon fill="none" stroke="black" points="319.25,-227.5 319.25,-249.5 514,-249.5 514,-227.5 319.25,-227.5"/>
<image xlink:href="../../images/foreignKeys.png" width="11px" height="12px" preserveAspectRatio="xMinYMin meet" x="324.25" y="-244.5"/>
<text text-anchor="start" x="352.12" y="-234.05" font-family="Helvetica,sans-Serif" font-size="11.00">property</text>
<polygon fill="none" stroke="black" points="319.25,-208 319.25,-227.5 514,-227.5 514,-208 319.25,-208"/>
<text text-anchor="start" x="322.25" y="-214.05" font-family="Helvetica,sans-Serif" font-size="11.00">...</text>
<polygon fill="#ffffff" stroke="none" points="319.25,-188.5 319.25,-208 392.17,-208 392.17,-188.5 319.25,-188.5"/>
<polygon fill="none" stroke="black" points="319.25,-188.5 319.25,-208 392.17,-208 392.17,-188.5 319.25,-188.5"/>
<text text-anchor="start" x="322.25" y="-194.55" font-family="Helvetica,sans-Serif" font-size="11.00">&lt; 2</text>
<polygon fill="#ffffff" stroke="none" points="392.17,-188.5 392.17,-208 453.08,-208 453.08,-188.5 392.17,-188.5"/>
<polygon fill="none" stroke="black" points="392.17,-188.5 392.17,-208 453.08,-208 453.08,-188.5 392.17,-188.5"/>
<text text-anchor="start" x="442.58" y="-194.55" font-family="Helvetica,sans-Serif" font-size="11.00"> &#160;</text>
<polygon fill="#ffffff" stroke="none" points="453.08,-188.5 453.08,-208 514,-208 514,-188.5 453.08,-188.5"/>
<polygon fill="none" stroke="black" points="453.08,-188.5 453.08,-208 514,-208 514,-188.5 453.08,-188.5"/>
<text text-anchor="start" x="503.5" y="-194.55" font-family="Helvetica,sans-Serif" font-size="11.00"> &#160;</text>
</a>
</g>
</g>
<!-- exc_csv_mapping_rule&#45;&gt;doc_property_type -->
<g id="edge3" class="edge">
<title>exc_csv_mapping_rule:w&#45;&gt;doc_property_type:e</title>
<path fill="none" stroke="black" d="M303.15,-242.9C279.09,-260.47 298.37,-324.75 258,-324.75"/>
<polygon fill="black" stroke="black" points="310.25,-240.83 318.94,-242.05 314.41,-239.62 317.61,-238.69 317.61,-238.69 317.61,-238.69 314.41,-239.62 316.92,-235.14 310.25,-240.83"/>
<ellipse fill="none" stroke="black" cx="305.53" cy="-242.2" rx="3.2" ry="3.2"/>
</g>
<!-- exc_mapping_rule -->
<g id="node5" class="node">
<title>exc_mapping_rule</title>
<g id="a_node5"><a xlink:href="../../tables/exc_mapping_rule.html" xlink:title="exc_mapping_rule" target="_top">
<polygon fill="#ffffff" stroke="none" points="333.25,-38.5 333.25,-167 500,-167 500,-38.5 333.25,-38.5"/>
<polygon fill="#f5f5f5" stroke="none" points="333.25,-143.5 333.25,-167 500,-167 500,-143.5 333.25,-143.5"/>
<polygon fill="none" stroke="black" points="333.25,-143.5 333.25,-167 500,-167 500,-143.5 333.25,-143.5"/>
<text text-anchor="start" x="338.25" y="-152.55" font-family="Helvetica,sans-Serif" font-weight="bold" font-size="11.00">exc_mapping_rule</text>
<text text-anchor="start" x="458.25" y="-151.55" font-family="Helvetica,sans-Serif" font-size="11.00">[table]</text>
<polygon fill="none" stroke="black" points="333.25,-121.5 333.25,-143.5 500,-143.5 500,-121.5 333.25,-121.5"/>
<image xlink:href="../../images/primaryKeys.png" width="11px" height="12px" preserveAspectRatio="xMinYMin meet" x="338.25" y="-138.5"/>
<text text-anchor="start" x="362.62" y="-128.05" font-family="Helvetica,sans-Serif" font-size="11.00">identifier</text>
<polygon fill="#ffffff" stroke="none" points="333.25,-99.5 333.25,-121.5 500,-121.5 500,-99.5 333.25,-99.5"/>
<polygon fill="none" stroke="black" points="333.25,-99.5 333.25,-121.5 500,-121.5 500,-99.5 333.25,-99.5"/>
<image xlink:href="../../images/foreignKeys.png" width="11px" height="12px" preserveAspectRatio="xMinYMin meet" x="338.25" y="-116.5"/>
<text text-anchor="start" x="362.62" y="-106.05" font-family="Helvetica,sans-Serif" font-size="11.00">property</text>
<polygon fill="#ffffff" stroke="none" points="333.25,-77.5 333.25,-99.5 500,-99.5 500,-77.5 333.25,-77.5"/>
<polygon fill="none" stroke="black" points="333.25,-77.5 333.25,-99.5 500,-99.5 500,-77.5 333.25,-77.5"/>
<image xlink:href="../../images/foreignKeys.png" width="11px" height="12px" preserveAspectRatio="xMinYMin meet" x="338.25" y="-94.5"/>
<text text-anchor="start" x="362.62" y="-84.05" font-family="Helvetica,sans-Serif" font-size="11.00">mapping</text>
<polygon fill="none" stroke="black" points="333.25,-58 333.25,-77.5 500,-77.5 500,-58 333.25,-58"/>
<text text-anchor="start" x="336.25" y="-64.05" font-family="Helvetica,sans-Serif" font-size="11.00">...</text>
<polygon fill="#ffffff" stroke="none" points="333.25,-38.5 333.25,-58 396.83,-58 396.83,-38.5 333.25,-38.5"/>
<polygon fill="none" stroke="black" points="333.25,-38.5 333.25,-58 396.83,-58 396.83,-38.5 333.25,-38.5"/>
<text text-anchor="start" x="336.25" y="-44.55" font-family="Helvetica,sans-Serif" font-size="11.00">&lt; 2</text>
<polygon fill="#ffffff" stroke="none" points="396.83,-38.5 396.83,-58 448.42,-58 448.42,-38.5 396.83,-38.5"/>
<polygon fill="none" stroke="black" points="396.83,-38.5 396.83,-58 448.42,-58 448.42,-38.5 396.83,-38.5"/>
<text text-anchor="start" x="437.92" y="-44.55" font-family="Helvetica,sans-Serif" font-size="11.00"> &#160;</text>
<polygon fill="#ffffff" stroke="none" points="448.42,-38.5 448.42,-58 500,-58 500,-38.5 448.42,-38.5"/>
<polygon fill="none" stroke="black" points="448.42,-38.5 448.42,-58 500,-58 500,-38.5 448.42,-38.5"/>
<text text-anchor="start" x="489.5" y="-44.55" font-family="Helvetica,sans-Serif" font-size="11.00"> &#160;</text>
</a>
</g>
</g>
<!-- exc_mapping_rule&#45;&gt;doc_property_type -->
<g id="edge4" class="edge">
<title>exc_mapping_rule:w&#45;&gt;doc_property_type:e</title>
<path fill="none" stroke="black" d="M316.79,-112.62C245.61,-134.87 352.87,-324.75 258,-324.75"/>
<polygon fill="black" stroke="black" points="323.99,-111.63 332.41,-114.11 328.29,-111.04 331.59,-110.59 331.59,-110.59 331.59,-110.59 328.29,-111.04 331.43,-106.98 323.99,-111.63"/>
<ellipse fill="none" stroke="black" cx="319.12" cy="-112.3" rx="3.2" ry="3.2"/>
</g>
</g>
</svg>
