<?xml version="1.0" encoding="UTF-8" standalone="no"?>
<!DOCTYPE svg PUBLIC "-//W3C//DTD SVG 1.1//EN"
 "http://www.w3.org/Graphics/SVG/1.1/DTD/svg11.dtd">
<!-- Generated by graphviz version 12.2.0 (0)
 -->
<!-- Title: oneDegreeRelationshipsDiagram Pages: 1 -->
<svg width="526pt" height="340pt"
 viewBox="0.00 0.00 526.00 339.50" xmlns="http://www.w3.org/2000/svg" xmlns:xlink="http://www.w3.org/1999/xlink">
<g id="graph0" class="graph" transform="scale(1 1) rotate(0) translate(4 335.5)">
<title>oneDegreeRelationshipsDiagram</title>
<polygon fill="#ffffff" stroke="none" points="-4,4 -4,-335.5 522,-335.5 522,4 -4,4"/>
<text text-anchor="middle" x="79.25" y="-7.05" font-family="Helvetica,sans-Serif" font-size="11.00">Generated by SchemaSpy</text>
<!-- doc_export_property -->
<g id="node1" class="node">
<title>doc_export_property</title>
<g id="a_node1"><a xlink:href="../../tables/doc_export_property.html" xlink:title="doc_export_property" target="_top">
<polygon fill="#ffffff" stroke="none" points="228.75,-38.5 228.75,-327.5 510,-327.5 510,-38.5 228.75,-38.5"/>
<polygon fill="#f5f5f5" stroke="none" points="230.75,-302 230.75,-325.5 508,-325.5 508,-302 230.75,-302"/>
<polygon fill="none" stroke="black" points="230.75,-302 230.75,-325.5 508,-325.5 508,-302 230.75,-302"/>
<text text-anchor="start" x="235.75" y="-311.05" font-family="Helvetica,sans-Serif" font-weight="bold" font-size="11.00">doc_export_property</text>
<text text-anchor="start" x="466.25" y="-310.05" font-family="Helvetica,sans-Serif" font-size="11.00">[table]</text>
<polygon fill="none" stroke="black" points="230.75,-280 230.75,-302 390.75,-302 390.75,-280 230.75,-280"/>
<image xlink:href="../../images/primaryKeys.png" width="11px" height="12px" preserveAspectRatio="xMinYMin meet" x="235.75" y="-297"/>
<text text-anchor="start" x="250.75" y="-286.55" font-family="Helvetica,sans-Serif" font-size="11.00">identifier</text>
<polygon fill="none" stroke="black" points="390.75,-280 390.75,-302 493.25,-302 493.25,-280 390.75,-280"/>
<text text-anchor="start" x="393.75" y="-287.3" font-family="Helvetica,sans-Serif" font-size="11.00">varchar[191]</text>
<polygon fill="none" stroke="black" points="230.75,-258 230.75,-280 390.75,-280 390.75,-258 230.75,-258"/>
<text text-anchor="start" x="250.75" y="-264.55" font-family="Helvetica,sans-Serif" font-size="11.00">value</text>
<polygon fill="none" stroke="black" points="390.75,-258 390.75,-280 493.25,-280 493.25,-258 390.75,-258"/>
<text text-anchor="start" x="393.75" y="-265.3" font-family="Helvetica,sans-Serif" font-size="11.00">text[65535]</text>
<polygon fill="none" stroke="black" points="230.75,-236 230.75,-258 390.75,-258 390.75,-236 230.75,-236"/>
<text text-anchor="start" x="250.75" y="-242.55" font-family="Helvetica,sans-Serif" font-size="11.00">language</text>
<polygon fill="none" stroke="black" points="390.75,-236 390.75,-258 493.25,-258 493.25,-236 390.75,-236"/>
<text text-anchor="start" x="393.75" y="-243.3" font-family="Helvetica,sans-Serif" font-size="11.00">varchar[255]</text>
<polygon fill="none" stroke="black" points="230.75,-214 230.75,-236 390.75,-236 390.75,-214 230.75,-214"/>
<text text-anchor="start" x="250.75" y="-220.55" font-family="Helvetica,sans-Serif" font-size="11.00">rank</text>
<polygon fill="none" stroke="black" points="390.75,-214 390.75,-236 493.25,-236 493.25,-214 390.75,-214"/>
<text text-anchor="start" x="393.75" y="-221.3" font-family="Helvetica,sans-Serif" font-size="11.00">int[10]</text>
<polygon fill="#ffffff" stroke="none" points="230.75,-192 230.75,-214 390.75,-214 390.75,-192 230.75,-192"/>
<polygon fill="none" stroke="black" points="230.75,-192 230.75,-214 390.75,-214 390.75,-192 230.75,-192"/>
<image xlink:href="../../images/foreignKeys.png" width="11px" height="12px" preserveAspectRatio="xMinYMin meet" x="235.75" y="-209"/>
<text text-anchor="start" x="250.75" y="-198.55" font-family="Helvetica,sans-Serif" font-size="11.00">type</text>
<polygon fill="none" stroke="black" points="390.75,-192 390.75,-214 493.25,-214 493.25,-192 390.75,-192"/>
<text text-anchor="start" x="393.75" y="-199.3" font-family="Helvetica,sans-Serif" font-size="11.00">varchar[191]</text>
<polygon fill="#ffffff" stroke="none" points="230.75,-170 230.75,-192 390.75,-192 390.75,-170 230.75,-170"/>
<polygon fill="none" stroke="black" points="230.75,-170 230.75,-192 390.75,-192 390.75,-170 230.75,-170"/>
<image xlink:href="../../images/foreignKeys.png" width="11px" height="12px" preserveAspectRatio="xMinYMin meet" x="235.75" y="-187"/>
<text text-anchor="start" x="250.75" y="-176.55" font-family="Helvetica,sans-Serif" font-size="11.00">record</text>
<polygon fill="none" stroke="black" points="390.75,-170 390.75,-192 493.25,-192 493.25,-170 390.75,-170"/>
<text text-anchor="start" x="393.75" y="-177.3" font-family="Helvetica,sans-Serif" font-size="11.00">varchar[191]</text>
<polygon fill="none" stroke="black" points="230.75,-148 230.75,-170 390.75,-170 390.75,-148 230.75,-148"/>
<text text-anchor="start" x="250.75" y="-154.55" font-family="Helvetica,sans-Serif" font-size="11.00">version</text>
<polygon fill="none" stroke="black" points="390.75,-148 390.75,-170 493.25,-170 493.25,-148 390.75,-148"/>
<text text-anchor="start" x="393.75" y="-155.3" font-family="Helvetica,sans-Serif" font-size="11.00">bigint[19]</text>
<polygon fill="none" stroke="black" points="230.75,-126 230.75,-148 390.75,-148 390.75,-126 230.75,-126"/>
<text text-anchor="start" x="250.75" y="-132.55" font-family="Helvetica,sans-Serif" font-size="11.00">created_by</text>
<polygon fill="none" stroke="black" points="390.75,-126 390.75,-148 493.25,-148 493.25,-126 390.75,-126"/>
<text text-anchor="start" x="393.75" y="-133.3" font-family="Helvetica,sans-Serif" font-size="11.00">varchar[191]</text>
<polygon fill="none" stroke="black" points="230.75,-104 230.75,-126 390.75,-126 390.75,-104 230.75,-104"/>
<text text-anchor="start" x="250.75" y="-110.55" font-family="Helvetica,sans-Serif" font-size="11.00">last_modified_by</text>
<polygon fill="none" stroke="black" points="390.75,-104 390.75,-126 493.25,-126 493.25,-104 390.75,-104"/>
<text text-anchor="start" x="393.75" y="-111.3" font-family="Helvetica,sans-Serif" font-size="11.00">varchar[191]</text>
<polygon fill="none" stroke="black" points="230.75,-82 230.75,-104 390.75,-104 390.75,-82 230.75,-82"/>
<text text-anchor="start" x="250.75" y="-88.55" font-family="Helvetica,sans-Serif" font-size="11.00">created_date</text>
<polygon fill="none" stroke="black" points="390.75,-82 390.75,-104 493.25,-104 493.25,-82 390.75,-82"/>
<text text-anchor="start" x="393.75" y="-89.3" font-family="Helvetica,sans-Serif" font-size="11.00">timestamp[19]</text>
<polygon fill="none" stroke="black" points="230.75,-60 230.75,-82 390.75,-82 390.75,-60 230.75,-60"/>
<text text-anchor="start" x="250.75" y="-66.55" font-family="Helvetica,sans-Serif" font-size="11.00">last_modified_date</text>
<polygon fill="none" stroke="black" points="390.75,-60 390.75,-82 493.25,-82 493.25,-60 390.75,-60"/>
<text text-anchor="start" x="393.75" y="-67.3" font-family="Helvetica,sans-Serif" font-size="11.00">timestamp[19]</text>
<polygon fill="#ffffff" stroke="none" points="230.75,-40.5 230.75,-60 316.75,-60 316.75,-40.5 230.75,-40.5"/>
<polygon fill="none" stroke="black" points="230.75,-40.5 230.75,-60 316.75,-60 316.75,-40.5 230.75,-40.5"/>
<text text-anchor="start" x="233.75" y="-46.55" font-family="Helvetica,sans-Serif" font-size="11.00">&lt; 2</text>
<polygon fill="#ffffff" stroke="none" points="316.75,-40.5 316.75,-60 390.75,-60 390.75,-40.5 316.75,-40.5"/>
<polygon fill="none" stroke="black" points="316.75,-40.5 316.75,-60 390.75,-60 390.75,-40.5 316.75,-40.5"/>
<text text-anchor="start" x="380.25" y="-46.55" font-family="Helvetica,sans-Serif" font-size="11.00"> &#160;</text>
<polygon fill="#ffffff" stroke="none" points="390.75,-40.5 390.75,-60 493.25,-60 493.25,-40.5 390.75,-40.5"/>
<polygon fill="none" stroke="black" points="390.75,-40.5 390.75,-60 493.25,-60 493.25,-40.5 390.75,-40.5"/>
<text text-anchor="start" x="470.75" y="-46.55" font-family="Helvetica,sans-Serif" font-size="11.00">0 &gt;</text>
<polygon fill="none" stroke="black" stroke-width="2" points="229.75,-39.5 229.75,-326.5 509,-326.5 509,-39.5 229.75,-39.5"/>
</a>
</g>
</g>
<!-- doc_export_data -->
<g id="node2" class="node">
<title>doc_export_data</title>
<g id="a_node2"><a xlink:href="../../tables/doc_export_data.html" xlink:title="doc_export_data" target="_top">
<polygon fill="#ffffff" stroke="none" points="15.5,-89.75 15.5,-174.25 172.25,-174.25 172.25,-89.75 15.5,-89.75"/>
<polygon fill="#f5f5f5" stroke="none" points="15.5,-150.75 15.5,-174.25 172.25,-174.25 172.25,-150.75 15.5,-150.75"/>
<polygon fill="none" stroke="black" points="15.5,-150.75 15.5,-174.25 172.25,-174.25 172.25,-150.75 15.5,-150.75"/>
<text text-anchor="start" x="20.5" y="-159.8" font-family="Helvetica,sans-Serif" font-weight="bold" font-size="11.00">doc_export_data</text>
<text text-anchor="start" x="130.5" y="-158.8" font-family="Helvetica,sans-Serif" font-size="11.00">[table]</text>
<polygon fill="none" stroke="black" points="15.5,-128.75 15.5,-150.75 172.25,-150.75 172.25,-128.75 15.5,-128.75"/>
<image xlink:href="../../images/primaryKeys.png" width="11px" height="12px" preserveAspectRatio="xMinYMin meet" x="20.5" y="-145.75"/>
<text text-anchor="start" x="39.88" y="-135.3" font-family="Helvetica,sans-Serif" font-size="11.00">identifier</text>
<polygon fill="none" stroke="black" points="15.5,-109.25 15.5,-128.75 172.25,-128.75 172.25,-109.25 15.5,-109.25"/>
<text text-anchor="start" x="18.5" y="-115.3" font-family="Helvetica,sans-Serif" font-size="11.00">...</text>
<polygon fill="#ffffff" stroke="none" points="15.5,-89.75 15.5,-109.25 63.75,-109.25 63.75,-89.75 15.5,-89.75"/>
<polygon fill="none" stroke="black" points="15.5,-89.75 15.5,-109.25 63.75,-109.25 63.75,-89.75 15.5,-89.75"/>
<text text-anchor="start" x="18.5" y="-95.8" font-family="Helvetica,sans-Serif" font-size="11.00"> &#160;</text>
<polygon fill="#ffffff" stroke="none" points="63.75,-89.75 63.75,-109.25 112,-109.25 112,-89.75 63.75,-89.75"/>
<polygon fill="none" stroke="black" points="63.75,-89.75 63.75,-109.25 112,-109.25 112,-89.75 63.75,-89.75"/>
<text text-anchor="start" x="101.5" y="-95.8" font-family="Helvetica,sans-Serif" font-size="11.00"> &#160;</text>
<polygon fill="#ffffff" stroke="none" points="112,-89.75 112,-109.25 172.25,-109.25 172.25,-89.75 112,-89.75"/>
<polygon fill="none" stroke="black" points="112,-89.75 112,-109.25 172.25,-109.25 172.25,-89.75 112,-89.75"/>
<text text-anchor="start" x="149.75" y="-95.8" font-family="Helvetica,sans-Serif" font-size="11.00">2 &gt;</text>
</a>
</g>
</g>
<!-- doc_export_property&#45;&gt;doc_export_data -->
<g id="edge1" class="edge">
<title>doc_export_property:w&#45;&gt;doc_export_data:e</title>
<path fill="none" stroke="black" d="M214.74,-176.59C199.45,-165.94 198.03,-139.75 173.25,-139.75"/>
<polygon fill="black" stroke="black" points="221.75,-178.65 228.41,-184.36 225.91,-179.87 229.11,-180.81 229.11,-180.81 229.11,-180.81 225.91,-179.87 230.44,-177.45 221.75,-178.65"/>
<ellipse fill="none" stroke="black" cx="217.04" cy="-177.26" rx="3.2" ry="3.2"/>
</g>
<!-- doc_property_type -->
<g id="node3" class="node">
<title>doc_property_type</title>
<g id="a_node3"><a xlink:href="../../tables/doc_property_type.html" xlink:title="doc_property_type" target="_top">
<polygon fill="#ffffff" stroke="none" points="8,-195.75 8,-280.25 179.75,-280.25 179.75,-195.75 8,-195.75"/>
<polygon fill="#f5f5f5" stroke="none" points="8,-256.75 8,-280.25 179.75,-280.25 179.75,-256.75 8,-256.75"/>
<polygon fill="none" stroke="black" points="8,-256.75 8,-280.25 179.75,-280.25 179.75,-256.75 8,-256.75"/>
<text text-anchor="start" x="13" y="-265.8" font-family="Helvetica,sans-Serif" font-weight="bold" font-size="11.00">doc_property_type</text>
<text text-anchor="start" x="138" y="-264.8" font-family="Helvetica,sans-Serif" font-size="11.00">[table]</text>
<polygon fill="none" stroke="black" points="8,-234.75 8,-256.75 179.75,-256.75 179.75,-234.75 8,-234.75"/>
<image xlink:href="../../images/primaryKeys.png" width="11px" height="12px" preserveAspectRatio="xMinYMin meet" x="13" y="-251.75"/>
<text text-anchor="start" x="39.88" y="-241.3" font-family="Helvetica,sans-Serif" font-size="11.00">identifier</text>
<polygon fill="none" stroke="black" points="8,-215.25 8,-234.75 179.75,-234.75 179.75,-215.25 8,-215.25"/>
<text text-anchor="start" x="11" y="-221.3" font-family="Helvetica,sans-Serif" font-size="11.00">...</text>
<polygon fill="#ffffff" stroke="none" points="8,-195.75 8,-215.25 61.25,-215.25 61.25,-195.75 8,-195.75"/>
<polygon fill="none" stroke="black" points="8,-195.75 8,-215.25 61.25,-215.25 61.25,-195.75 8,-195.75"/>
<text text-anchor="start" x="11" y="-201.8" font-family="Helvetica,sans-Serif" font-size="11.00"> &#160;</text>
<polygon fill="#ffffff" stroke="none" points="61.25,-195.75 61.25,-215.25 114.5,-215.25 114.5,-195.75 61.25,-195.75"/>
<polygon fill="none" stroke="black" points="61.25,-195.75 61.25,-215.25 114.5,-215.25 114.5,-195.75 61.25,-195.75"/>
<text text-anchor="start" x="104" y="-201.8" font-family="Helvetica,sans-Serif" font-size="11.00"> &#160;</text>
<polygon fill="#ffffff" stroke="none" points="114.5,-195.75 114.5,-215.25 179.75,-215.25 179.75,-195.75 114.5,-195.75"/>
<polygon fill="none" stroke="black" points="114.5,-195.75 114.5,-215.25 179.75,-215.25 179.75,-195.75 114.5,-195.75"/>
<text text-anchor="start" x="157.25" y="-201.8" font-family="Helvetica,sans-Serif" font-size="11.00">4 &gt;</text>
</a>
</g>
</g>
<!-- doc_export_property&#45;&gt;doc_property_type -->
<g id="edge2" class="edge">
<title>doc_export_property:w&#45;&gt;doc_property_type:e</title>
<path fill="none" stroke="black" d="M215.04,-208.59C202.9,-220.18 203.1,-245.75 180.75,-245.75"/>
<polygon fill="black" stroke="black" points="221.96,-205.96 230.72,-206.48 226.01,-204.42 229.12,-203.24 229.12,-203.24 229.12,-203.24 226.01,-204.42 228.16,-199.75 221.96,-205.96"/>
<ellipse fill="none" stroke="black" cx="217.36" cy="-207.71" rx="3.2" ry="3.2"/>
</g>
</g>
</svg>
