<?xml version="1.0" encoding="UTF-8" standalone="no"?>
<!DOCTYPE svg PUBLIC "-//W3C//DTD SVG 1.1//EN"
 "http://www.w3.org/Graphics/SVG/1.1/DTD/svg11.dtd">
<!-- Generated by graphviz version 12.2.0 (0)
 -->
<!-- Title: oneDegreeRelationshipsDiagram Pages: 1 -->
<svg width="532pt" height="340pt"
 viewBox="0.00 0.00 531.50 339.50" xmlns="http://www.w3.org/2000/svg" xmlns:xlink="http://www.w3.org/1999/xlink">
<g id="graph0" class="graph" transform="scale(1 1) rotate(0) translate(4 335.5)">
<title>oneDegreeRelationshipsDiagram</title>
<polygon fill="#ffffff" stroke="none" points="-4,4 -4,-335.5 527.5,-335.5 527.5,4 -4,4"/>
<text text-anchor="middle" x="79.25" y="-7.05" font-family="Helvetica,sans-Serif" font-size="11.00">Generated by SchemaSpy</text>
<!-- doc_property -->
<g id="node1" class="node">
<title>doc_property</title>
<g id="a_node1"><a xlink:href="../../tables/doc_property.html" xlink:title="doc_property" target="_top">
<polygon fill="#ffffff" stroke="none" points="271.75,-38.5 271.75,-327.5 515.5,-327.5 515.5,-38.5 271.75,-38.5"/>
<polygon fill="#f5f5f5" stroke="none" points="273.75,-302 273.75,-325.5 513.5,-325.5 513.5,-302 273.75,-302"/>
<polygon fill="none" stroke="black" points="273.75,-302 273.75,-325.5 513.5,-325.5 513.5,-302 273.75,-302"/>
<text text-anchor="start" x="278.75" y="-311.05" font-family="Helvetica,sans-Serif" font-weight="bold" font-size="11.00">doc_property</text>
<text text-anchor="start" x="471.75" y="-310.05" font-family="Helvetica,sans-Serif" font-size="11.00">[table]</text>
<polygon fill="none" stroke="black" points="273.75,-280 273.75,-302 421.75,-302 421.75,-280 273.75,-280"/>
<image xlink:href="../../images/primaryKeys.png" width="11px" height="12px" preserveAspectRatio="xMinYMin meet" x="278.75" y="-297"/>
<text text-anchor="start" x="293.75" y="-286.55" font-family="Helvetica,sans-Serif" font-size="11.00">identifier</text>
<polygon fill="none" stroke="black" points="421.75,-280 421.75,-302 511.5,-302 511.5,-280 421.75,-280"/>
<text text-anchor="start" x="424.75" y="-287.3" font-family="Helvetica,sans-Serif" font-size="11.00">varchar[191]</text>
<polygon fill="none" stroke="black" points="273.75,-258 273.75,-280 421.75,-280 421.75,-258 273.75,-258"/>
<text text-anchor="start" x="293.75" y="-264.55" font-family="Helvetica,sans-Serif" font-size="11.00">value</text>
<polygon fill="none" stroke="black" points="421.75,-258 421.75,-280 511.5,-280 511.5,-258 421.75,-258"/>
<text text-anchor="start" x="424.75" y="-265.3" font-family="Helvetica,sans-Serif" font-size="11.00">text[65535]</text>
<polygon fill="none" stroke="black" points="273.75,-236 273.75,-258 421.75,-258 421.75,-236 273.75,-236"/>
<text text-anchor="start" x="293.75" y="-242.55" font-family="Helvetica,sans-Serif" font-size="11.00">language</text>
<polygon fill="none" stroke="black" points="421.75,-236 421.75,-258 511.5,-258 511.5,-236 421.75,-236"/>
<text text-anchor="start" x="424.75" y="-243.3" font-family="Helvetica,sans-Serif" font-size="11.00">varchar[255]</text>
<polygon fill="none" stroke="black" points="273.75,-214 273.75,-236 421.75,-236 421.75,-214 273.75,-214"/>
<text text-anchor="start" x="293.75" y="-220.55" font-family="Helvetica,sans-Serif" font-size="11.00">rank</text>
<polygon fill="none" stroke="black" points="421.75,-214 421.75,-236 511.5,-236 511.5,-214 421.75,-214"/>
<text text-anchor="start" x="424.75" y="-221.3" font-family="Helvetica,sans-Serif" font-size="11.00">int[10]</text>
<polygon fill="#ffffff" stroke="none" points="273.75,-192 273.75,-214 421.75,-214 421.75,-192 273.75,-192"/>
<polygon fill="none" stroke="black" points="273.75,-192 273.75,-214 421.75,-214 421.75,-192 273.75,-192"/>
<image xlink:href="../../images/foreignKeys.png" width="11px" height="12px" preserveAspectRatio="xMinYMin meet" x="278.75" y="-209"/>
<text text-anchor="start" x="293.75" y="-198.55" font-family="Helvetica,sans-Serif" font-size="11.00">type</text>
<polygon fill="none" stroke="black" points="421.75,-192 421.75,-214 511.5,-214 511.5,-192 421.75,-192"/>
<text text-anchor="start" x="424.75" y="-199.3" font-family="Helvetica,sans-Serif" font-size="11.00">varchar[191]</text>
<polygon fill="#ffffff" stroke="none" points="273.75,-170 273.75,-192 421.75,-192 421.75,-170 273.75,-170"/>
<polygon fill="none" stroke="black" points="273.75,-170 273.75,-192 421.75,-192 421.75,-170 273.75,-170"/>
<image xlink:href="../../images/foreignKeys.png" width="11px" height="12px" preserveAspectRatio="xMinYMin meet" x="278.75" y="-187"/>
<text text-anchor="start" x="293.75" y="-176.55" font-family="Helvetica,sans-Serif" font-size="11.00">record</text>
<polygon fill="none" stroke="black" points="421.75,-170 421.75,-192 511.5,-192 511.5,-170 421.75,-170"/>
<text text-anchor="start" x="424.75" y="-177.3" font-family="Helvetica,sans-Serif" font-size="11.00">varchar[191]</text>
<polygon fill="none" stroke="black" points="273.75,-148 273.75,-170 421.75,-170 421.75,-148 273.75,-148"/>
<text text-anchor="start" x="293.75" y="-154.55" font-family="Helvetica,sans-Serif" font-size="11.00">version</text>
<polygon fill="none" stroke="black" points="421.75,-148 421.75,-170 511.5,-170 511.5,-148 421.75,-148"/>
<text text-anchor="start" x="424.75" y="-155.3" font-family="Helvetica,sans-Serif" font-size="11.00">bigint[19]</text>
<polygon fill="none" stroke="black" points="273.75,-126 273.75,-148 421.75,-148 421.75,-126 273.75,-126"/>
<text text-anchor="start" x="293.75" y="-132.55" font-family="Helvetica,sans-Serif" font-size="11.00">created_by</text>
<polygon fill="none" stroke="black" points="421.75,-126 421.75,-148 511.5,-148 511.5,-126 421.75,-126"/>
<text text-anchor="start" x="424.75" y="-133.3" font-family="Helvetica,sans-Serif" font-size="11.00">varchar[191]</text>
<polygon fill="none" stroke="black" points="273.75,-104 273.75,-126 421.75,-126 421.75,-104 273.75,-104"/>
<text text-anchor="start" x="293.75" y="-110.55" font-family="Helvetica,sans-Serif" font-size="11.00">last_modified_by</text>
<polygon fill="none" stroke="black" points="421.75,-104 421.75,-126 511.5,-126 511.5,-104 421.75,-104"/>
<text text-anchor="start" x="424.75" y="-111.3" font-family="Helvetica,sans-Serif" font-size="11.00">varchar[191]</text>
<polygon fill="none" stroke="black" points="273.75,-82 273.75,-104 421.75,-104 421.75,-82 273.75,-82"/>
<text text-anchor="start" x="293.75" y="-88.55" font-family="Helvetica,sans-Serif" font-size="11.00">created_date</text>
<polygon fill="none" stroke="black" points="421.75,-82 421.75,-104 511.5,-104 511.5,-82 421.75,-82"/>
<text text-anchor="start" x="424.75" y="-89.3" font-family="Helvetica,sans-Serif" font-size="11.00">timestamp[19]</text>
<polygon fill="none" stroke="black" points="273.75,-60 273.75,-82 421.75,-82 421.75,-60 273.75,-60"/>
<text text-anchor="start" x="293.75" y="-66.55" font-family="Helvetica,sans-Serif" font-size="11.00">last_modified_date</text>
<polygon fill="none" stroke="black" points="421.75,-60 421.75,-82 511.5,-82 511.5,-60 421.75,-60"/>
<text text-anchor="start" x="424.75" y="-67.3" font-family="Helvetica,sans-Serif" font-size="11.00">timestamp[19]</text>
<polygon fill="#ffffff" stroke="none" points="273.75,-40.5 273.75,-60 353.75,-60 353.75,-40.5 273.75,-40.5"/>
<polygon fill="none" stroke="black" points="273.75,-40.5 273.75,-60 353.75,-60 353.75,-40.5 273.75,-40.5"/>
<text text-anchor="start" x="276.75" y="-46.55" font-family="Helvetica,sans-Serif" font-size="11.00">&lt; 2</text>
<polygon fill="#ffffff" stroke="none" points="353.75,-40.5 353.75,-60 421.75,-60 421.75,-40.5 353.75,-40.5"/>
<polygon fill="none" stroke="black" points="353.75,-40.5 353.75,-60 421.75,-60 421.75,-40.5 353.75,-40.5"/>
<text text-anchor="start" x="411.25" y="-46.55" font-family="Helvetica,sans-Serif" font-size="11.00"> &#160;</text>
<polygon fill="#ffffff" stroke="none" points="421.75,-40.5 421.75,-60 511.5,-60 511.5,-40.5 421.75,-40.5"/>
<polygon fill="none" stroke="black" points="421.75,-40.5 421.75,-60 511.5,-60 511.5,-40.5 421.75,-40.5"/>
<text text-anchor="start" x="489" y="-46.55" font-family="Helvetica,sans-Serif" font-size="11.00">0 &gt;</text>
<polygon fill="none" stroke="black" stroke-width="2" points="272.75,-39.5 272.75,-326.5 514.5,-326.5 514.5,-39.5 272.75,-39.5"/>
</a>
</g>
</g>
<!-- doc_bibliographic_record -->
<g id="node2" class="node">
<title>doc_bibliographic_record</title>
<g id="a_node2"><a xlink:href="../../tables/doc_bibliographic_record.html" xlink:title="doc_bibliographic_record" target="_top">
<polygon fill="#ffffff" stroke="none" points="8,-45.75 8,-174.25 222.75,-174.25 222.75,-45.75 8,-45.75"/>
<polygon fill="#f5f5f5" stroke="none" points="8,-150.75 8,-174.25 222.75,-174.25 222.75,-150.75 8,-150.75"/>
<polygon fill="none" stroke="black" points="8,-150.75 8,-174.25 222.75,-174.25 222.75,-150.75 8,-150.75"/>
<text text-anchor="start" x="13" y="-159.8" font-family="Helvetica,sans-Serif" font-weight="bold" font-size="11.00">doc_bibliographic_record</text>
<text text-anchor="start" x="181" y="-158.8" font-family="Helvetica,sans-Serif" font-size="11.00">[table]</text>
<polygon fill="none" stroke="black" points="8,-128.75 8,-150.75 222.75,-150.75 222.75,-128.75 8,-128.75"/>
<image xlink:href="../../images/primaryKeys.png" width="11px" height="12px" preserveAspectRatio="xMinYMin meet" x="13" y="-145.75"/>
<text text-anchor="start" x="40.88" y="-135.3" font-family="Helvetica,sans-Serif" font-size="11.00">identifier</text>
<polygon fill="#ffffff" stroke="none" points="8,-106.75 8,-128.75 222.75,-128.75 222.75,-106.75 8,-106.75"/>
<polygon fill="none" stroke="black" points="8,-106.75 8,-128.75 222.75,-128.75 222.75,-106.75 8,-106.75"/>
<image xlink:href="../../images/foreignKeys.png" width="11px" height="12px" preserveAspectRatio="xMinYMin meet" x="13" y="-123.75"/>
<text text-anchor="start" x="40.88" y="-113.3" font-family="Helvetica,sans-Serif" font-size="11.00">doc_unit</text>
<polygon fill="#ffffff" stroke="none" points="8,-84.75 8,-106.75 222.75,-106.75 222.75,-84.75 8,-84.75"/>
<polygon fill="none" stroke="black" points="8,-84.75 8,-106.75 222.75,-106.75 222.75,-84.75 8,-84.75"/>
<image xlink:href="../../images/foreignKeys.png" width="11px" height="12px" preserveAspectRatio="xMinYMin meet" x="13" y="-101.75"/>
<text text-anchor="start" x="40.88" y="-91.3" font-family="Helvetica,sans-Serif" font-size="11.00">library</text>
<polygon fill="none" stroke="black" points="8,-65.25 8,-84.75 222.75,-84.75 222.75,-65.25 8,-65.25"/>
<text text-anchor="start" x="11" y="-71.3" font-family="Helvetica,sans-Serif" font-size="11.00">...</text>
<polygon fill="#ffffff" stroke="none" points="8,-45.75 8,-65.25 83.58,-65.25 83.58,-45.75 8,-45.75"/>
<polygon fill="none" stroke="black" points="8,-45.75 8,-65.25 83.58,-65.25 83.58,-45.75 8,-45.75"/>
<text text-anchor="start" x="11" y="-51.8" font-family="Helvetica,sans-Serif" font-size="11.00">&lt; 2</text>
<polygon fill="#ffffff" stroke="none" points="83.58,-45.75 83.58,-65.25 147.17,-65.25 147.17,-45.75 83.58,-45.75"/>
<polygon fill="none" stroke="black" points="83.58,-45.75 83.58,-65.25 147.17,-65.25 147.17,-45.75 83.58,-45.75"/>
<text text-anchor="start" x="136.67" y="-51.8" font-family="Helvetica,sans-Serif" font-size="11.00"> &#160;</text>
<polygon fill="#ffffff" stroke="none" points="147.17,-45.75 147.17,-65.25 222.75,-65.25 222.75,-45.75 147.17,-45.75"/>
<polygon fill="none" stroke="black" points="147.17,-45.75 147.17,-65.25 222.75,-65.25 222.75,-45.75 147.17,-45.75"/>
<text text-anchor="start" x="200.25" y="-51.8" font-family="Helvetica,sans-Serif" font-size="11.00">1 &gt;</text>
</a>
</g>
</g>
<!-- doc_property&#45;&gt;doc_bibliographic_record -->
<g id="edge1" class="edge">
<title>doc_property:w&#45;&gt;doc_bibliographic_record:e</title>
<path fill="none" stroke="black" d="M258.16,-175.61C246.01,-164.43 245.77,-139.75 223.75,-139.75"/>
<polygon fill="black" stroke="black" points="264.93,-178.11 271.19,-184.26 269,-179.61 272.12,-180.77 272.12,-180.77 272.12,-180.77 269,-179.61 273.68,-177.51 264.93,-178.11"/>
<ellipse fill="none" stroke="black" cx="260.32" cy="-176.41" rx="3.2" ry="3.2"/>
</g>
<!-- doc_property_type -->
<g id="node3" class="node">
<title>doc_property_type</title>
<g id="a_node3"><a xlink:href="../../tables/doc_property_type.html" xlink:title="doc_property_type" target="_top">
<polygon fill="#ffffff" stroke="none" points="29.5,-195.75 29.5,-280.25 201.25,-280.25 201.25,-195.75 29.5,-195.75"/>
<polygon fill="#f5f5f5" stroke="none" points="29.5,-256.75 29.5,-280.25 201.25,-280.25 201.25,-256.75 29.5,-256.75"/>
<polygon fill="none" stroke="black" points="29.5,-256.75 29.5,-280.25 201.25,-280.25 201.25,-256.75 29.5,-256.75"/>
<text text-anchor="start" x="34.5" y="-265.8" font-family="Helvetica,sans-Serif" font-weight="bold" font-size="11.00">doc_property_type</text>
<text text-anchor="start" x="159.5" y="-264.8" font-family="Helvetica,sans-Serif" font-size="11.00">[table]</text>
<polygon fill="none" stroke="black" points="29.5,-234.75 29.5,-256.75 201.25,-256.75 201.25,-234.75 29.5,-234.75"/>
<image xlink:href="../../images/primaryKeys.png" width="11px" height="12px" preserveAspectRatio="xMinYMin meet" x="34.5" y="-251.75"/>
<text text-anchor="start" x="61.38" y="-241.3" font-family="Helvetica,sans-Serif" font-size="11.00">identifier</text>
<polygon fill="none" stroke="black" points="29.5,-215.25 29.5,-234.75 201.25,-234.75 201.25,-215.25 29.5,-215.25"/>
<text text-anchor="start" x="32.5" y="-221.3" font-family="Helvetica,sans-Serif" font-size="11.00">...</text>
<polygon fill="#ffffff" stroke="none" points="29.5,-195.75 29.5,-215.25 82.75,-215.25 82.75,-195.75 29.5,-195.75"/>
<polygon fill="none" stroke="black" points="29.5,-195.75 29.5,-215.25 82.75,-215.25 82.75,-195.75 29.5,-195.75"/>
<text text-anchor="start" x="32.5" y="-201.8" font-family="Helvetica,sans-Serif" font-size="11.00"> &#160;</text>
<polygon fill="#ffffff" stroke="none" points="82.75,-195.75 82.75,-215.25 136,-215.25 136,-195.75 82.75,-195.75"/>
<polygon fill="none" stroke="black" points="82.75,-195.75 82.75,-215.25 136,-215.25 136,-195.75 82.75,-195.75"/>
<text text-anchor="start" x="125.5" y="-201.8" font-family="Helvetica,sans-Serif" font-size="11.00"> &#160;</text>
<polygon fill="#ffffff" stroke="none" points="136,-195.75 136,-215.25 201.25,-215.25 201.25,-195.75 136,-195.75"/>
<polygon fill="none" stroke="black" points="136,-195.75 136,-215.25 201.25,-215.25 201.25,-195.75 136,-195.75"/>
<text text-anchor="start" x="178.75" y="-201.8" font-family="Helvetica,sans-Serif" font-size="11.00">4 &gt;</text>
</a>
</g>
</g>
<!-- doc_property&#45;&gt;doc_property_type -->
<g id="edge2" class="edge">
<title>doc_property:w&#45;&gt;doc_property_type:e</title>
<path fill="none" stroke="black" d="M257.25,-206.21C235.93,-216.16 232.74,-245.75 202.25,-245.75"/>
<polygon fill="black" stroke="black" points="264.59,-204.69 273.15,-206.59 268.83,-203.81 272.09,-203.14 272.09,-203.14 272.09,-203.14 268.83,-203.81 271.69,-199.54 264.59,-204.69"/>
<ellipse fill="none" stroke="black" cx="259.77" cy="-205.69" rx="3.2" ry="3.2"/>
</g>
</g>
</svg>
