<?xml version="1.0" encoding="UTF-8" standalone="no"?>
<!DOCTYPE svg PUBLIC "-//W3C//DTD SVG 1.1//EN"
 "http://www.w3.org/Graphics/SVG/1.1/DTD/svg11.dtd">
<!-- Generated by graphviz version 12.2.0 (0)
 -->
<!-- Title: oneDegreeRelationshipsDiagram Pages: 1 -->
<svg width="809pt" height="439pt"
 viewBox="0.00 0.00 808.50 439.00" xmlns="http://www.w3.org/2000/svg" xmlns:xlink="http://www.w3.org/1999/xlink">
<g id="graph0" class="graph" transform="scale(1 1) rotate(0) translate(4 435)">
<title>oneDegreeRelationshipsDiagram</title>
<polygon fill="#ffffff" stroke="none" points="-4,4 -4,-435 804.5,-435 804.5,4 -4,4"/>
<text text-anchor="middle" x="79.25" y="-7.05" font-family="Helvetica,sans-Serif" font-size="11.00">Generated by SchemaSpy</text>
<!-- exc_csv_mapping -->
<g id="node1" class="node">
<title>exc_csv_mapping</title>
<g id="a_node1"><a xlink:href="../../tables/exc_csv_mapping.html" xlink:title="exc_csv_mapping" target="_top">
<polygon fill="#ffffff" stroke="none" points="291,-96.25 291,-341.25 548.75,-341.25 548.75,-96.25 291,-96.25"/>
<polygon fill="#f5f5f5" stroke="none" points="293,-315.75 293,-339.25 546.75,-339.25 546.75,-315.75 293,-315.75"/>
<polygon fill="none" stroke="black" points="293,-315.75 293,-339.25 546.75,-339.25 546.75,-315.75 293,-315.75"/>
<text text-anchor="start" x="298" y="-324.8" font-family="Helvetica,sans-Serif" font-weight="bold" font-size="11.00">exc_csv_mapping</text>
<text text-anchor="start" x="505" y="-323.8" font-family="Helvetica,sans-Serif" font-size="11.00">[table]</text>
<polygon fill="none" stroke="black" points="293,-293.75 293,-315.75 441,-315.75 441,-293.75 293,-293.75"/>
<image xlink:href="../../images/primaryKeys.png" width="11px" height="12px" preserveAspectRatio="xMinYMin meet" x="298" y="-310.75"/>
<text text-anchor="start" x="313" y="-300.3" font-family="Helvetica,sans-Serif" font-size="11.00">identifier</text>
<polygon fill="none" stroke="black" points="441,-293.75 441,-315.75 537.75,-315.75 537.75,-293.75 441,-293.75"/>
<text text-anchor="start" x="444" y="-301.05" font-family="Helvetica,sans-Serif" font-size="11.00">varchar[191]</text>
<polygon fill="none" stroke="black" points="293,-271.75 293,-293.75 441,-293.75 441,-271.75 293,-271.75"/>
<text text-anchor="start" x="313" y="-278.3" font-family="Helvetica,sans-Serif" font-size="11.00">label</text>
<polygon fill="none" stroke="black" points="441,-271.75 441,-293.75 537.75,-293.75 537.75,-271.75 441,-271.75"/>
<text text-anchor="start" x="444" y="-279.05" font-family="Helvetica,sans-Serif" font-size="11.00">varchar[255]</text>
<polygon fill="#ffffff" stroke="none" points="293,-249.75 293,-271.75 441,-271.75 441,-249.75 293,-249.75"/>
<polygon fill="none" stroke="black" points="293,-249.75 293,-271.75 441,-271.75 441,-249.75 293,-249.75"/>
<image xlink:href="../../images/foreignKeys.png" width="11px" height="12px" preserveAspectRatio="xMinYMin meet" x="298" y="-266.75"/>
<text text-anchor="start" x="313" y="-256.3" font-family="Helvetica,sans-Serif" font-size="11.00">library</text>
<polygon fill="none" stroke="black" points="441,-249.75 441,-271.75 537.75,-271.75 537.75,-249.75 441,-249.75"/>
<text text-anchor="start" x="444" y="-257.05" font-family="Helvetica,sans-Serif" font-size="11.00">varchar[191]</text>
<polygon fill="none" stroke="black" points="293,-227.75 293,-249.75 441,-249.75 441,-227.75 293,-227.75"/>
<text text-anchor="start" x="313" y="-234.3" font-family="Helvetica,sans-Serif" font-size="11.00">version</text>
<polygon fill="none" stroke="black" points="441,-227.75 441,-249.75 537.75,-249.75 537.75,-227.75 441,-227.75"/>
<text text-anchor="start" x="444" y="-235.05" font-family="Helvetica,sans-Serif" font-size="11.00">bigint[19]</text>
<polygon fill="none" stroke="black" points="293,-205.75 293,-227.75 441,-227.75 441,-205.75 293,-205.75"/>
<text text-anchor="start" x="313" y="-212.3" font-family="Helvetica,sans-Serif" font-size="11.00">created_by</text>
<polygon fill="none" stroke="black" points="441,-205.75 441,-227.75 537.75,-227.75 537.75,-205.75 441,-205.75"/>
<text text-anchor="start" x="444" y="-213.05" font-family="Helvetica,sans-Serif" font-size="11.00">varchar[255]</text>
<polygon fill="none" stroke="black" points="293,-183.75 293,-205.75 441,-205.75 441,-183.75 293,-183.75"/>
<text text-anchor="start" x="313" y="-190.3" font-family="Helvetica,sans-Serif" font-size="11.00">last_modified_by</text>
<polygon fill="none" stroke="black" points="441,-183.75 441,-205.75 537.75,-205.75 537.75,-183.75 441,-183.75"/>
<text text-anchor="start" x="444" y="-191.05" font-family="Helvetica,sans-Serif" font-size="11.00">varchar[255]</text>
<polygon fill="none" stroke="black" points="293,-161.75 293,-183.75 441,-183.75 441,-161.75 293,-161.75"/>
<text text-anchor="start" x="313" y="-168.3" font-family="Helvetica,sans-Serif" font-size="11.00">created_date</text>
<polygon fill="none" stroke="black" points="441,-161.75 441,-183.75 537.75,-183.75 537.75,-161.75 441,-161.75"/>
<text text-anchor="start" x="444" y="-169.05" font-family="Helvetica,sans-Serif" font-size="11.00">timestamp[19]</text>
<polygon fill="none" stroke="black" points="293,-139.75 293,-161.75 441,-161.75 441,-139.75 293,-139.75"/>
<text text-anchor="start" x="313" y="-146.3" font-family="Helvetica,sans-Serif" font-size="11.00">last_modified_date</text>
<polygon fill="none" stroke="black" points="441,-139.75 441,-161.75 537.75,-161.75 537.75,-139.75 441,-139.75"/>
<text text-anchor="start" x="444" y="-147.05" font-family="Helvetica,sans-Serif" font-size="11.00">timestamp[19]</text>
<polygon fill="none" stroke="black" points="293,-117.75 293,-139.75 441,-139.75 441,-117.75 293,-117.75"/>
<text text-anchor="start" x="313" y="-124.3" font-family="Helvetica,sans-Serif" font-size="11.00">join_expression</text>
<polygon fill="none" stroke="black" points="441,-117.75 441,-139.75 537.75,-139.75 537.75,-117.75 441,-117.75"/>
<text text-anchor="start" x="444" y="-125.05" font-family="Helvetica,sans-Serif" font-size="11.00">text[65535]</text>
<polygon fill="#ffffff" stroke="none" points="293,-98.25 293,-117.75 373,-117.75 373,-98.25 293,-98.25"/>
<polygon fill="none" stroke="black" points="293,-98.25 293,-117.75 373,-117.75 373,-98.25 293,-98.25"/>
<text text-anchor="start" x="296" y="-104.3" font-family="Helvetica,sans-Serif" font-size="11.00">&lt; 1</text>
<polygon fill="#ffffff" stroke="none" points="373,-98.25 373,-117.75 441,-117.75 441,-98.25 373,-98.25"/>
<polygon fill="none" stroke="black" points="373,-98.25 373,-117.75 441,-117.75 441,-98.25 373,-98.25"/>
<text text-anchor="start" x="430.5" y="-104.3" font-family="Helvetica,sans-Serif" font-size="11.00"> &#160;</text>
<polygon fill="#ffffff" stroke="none" points="441,-98.25 441,-117.75 537.75,-117.75 537.75,-98.25 441,-98.25"/>
<polygon fill="none" stroke="black" points="441,-98.25 441,-117.75 537.75,-117.75 537.75,-98.25 441,-98.25"/>
<text text-anchor="start" x="515.25" y="-104.3" font-family="Helvetica,sans-Serif" font-size="11.00">2 &gt;</text>
<polygon fill="none" stroke="black" stroke-width="2" points="292,-97.25 292,-340.25 547.75,-340.25 547.75,-97.25 292,-97.25"/>
</a>
</g>
</g>
<!-- lib_library -->
<g id="node2" class="node">
<title>lib_library</title>
<g id="a_node2"><a xlink:href="../../tables/lib_library.html" xlink:title="lib_library" target="_top">
<polygon fill="#ffffff" stroke="none" points="8,-131.5 8,-348 242,-348 242,-131.5 8,-131.5"/>
<polygon fill="#f5f5f5" stroke="none" points="8,-324.5 8,-348 242,-348 242,-324.5 8,-324.5"/>
<polygon fill="none" stroke="black" points="8,-324.5 8,-348 242,-348 242,-324.5 8,-324.5"/>
<text text-anchor="start" x="13" y="-333.55" font-family="Helvetica,sans-Serif" font-weight="bold" font-size="11.00">lib_library</text>
<text text-anchor="start" x="200.25" y="-332.55" font-family="Helvetica,sans-Serif" font-size="11.00">[table]</text>
<polygon fill="none" stroke="black" points="8,-302.5 8,-324.5 242,-324.5 242,-302.5 8,-302.5"/>
<image xlink:href="../../images/primaryKeys.png" width="11px" height="12px" preserveAspectRatio="xMinYMin meet" x="13" y="-319.5"/>
<text text-anchor="start" x="28" y="-309.05" font-family="Helvetica,sans-Serif" font-size="11.00">identifier</text>
<polygon fill="#ffffff" stroke="none" points="8,-280.5 8,-302.5 242,-302.5 242,-280.5 8,-280.5"/>
<polygon fill="none" stroke="black" points="8,-280.5 8,-302.5 242,-302.5 242,-280.5 8,-280.5"/>
<image xlink:href="../../images/foreignKeys.png" width="11px" height="12px" preserveAspectRatio="xMinYMin meet" x="13" y="-297.5"/>
<text text-anchor="start" x="28" y="-287.05" font-family="Helvetica,sans-Serif" font-size="11.00">address</text>
<polygon fill="#ffffff" stroke="none" points="8,-258.5 8,-280.5 242,-280.5 242,-258.5 8,-258.5"/>
<polygon fill="none" stroke="black" points="8,-258.5 8,-280.5 242,-280.5 242,-258.5 8,-258.5"/>
<image xlink:href="../../images/foreignKeys.png" width="11px" height="12px" preserveAspectRatio="xMinYMin meet" x="13" y="-275.5"/>
<text text-anchor="start" x="28" y="-265.05" font-family="Helvetica,sans-Serif" font-size="11.00">active_configuration_ftp</text>
<polygon fill="#ffffff" stroke="none" points="8,-236.5 8,-258.5 242,-258.5 242,-236.5 8,-236.5"/>
<polygon fill="none" stroke="black" points="8,-236.5 8,-258.5 242,-258.5 242,-236.5 8,-236.5"/>
<image xlink:href="../../images/foreignKeys.png" width="11px" height="12px" preserveAspectRatio="xMinYMin meet" x="13" y="-253.5"/>
<text text-anchor="start" x="28" y="-243.05" font-family="Helvetica,sans-Serif" font-size="11.00">active_configuration_check</text>
<polygon fill="#ffffff" stroke="none" points="8,-214.5 8,-236.5 242,-236.5 242,-214.5 8,-214.5"/>
<polygon fill="none" stroke="black" points="8,-214.5 8,-236.5 242,-236.5 242,-214.5 8,-214.5"/>
<image xlink:href="../../images/foreignKeys.png" width="11px" height="12px" preserveAspectRatio="xMinYMin meet" x="13" y="-231.5"/>
<text text-anchor="start" x="28" y="-221.05" font-family="Helvetica,sans-Serif" font-size="11.00">role</text>
<polygon fill="#ffffff" stroke="none" points="8,-192.5 8,-214.5 242,-214.5 242,-192.5 8,-192.5"/>
<polygon fill="none" stroke="black" points="8,-192.5 8,-214.5 242,-214.5 242,-192.5 8,-192.5"/>
<image xlink:href="../../images/foreignKeys.png" width="11px" height="12px" preserveAspectRatio="xMinYMin meet" x="13" y="-209.5"/>
<text text-anchor="start" x="28" y="-199.05" font-family="Helvetica,sans-Serif" font-size="11.00">active_configuration_export_ftp</text>
<polygon fill="#ffffff" stroke="none" points="8,-170.5 8,-192.5 242,-192.5 242,-170.5 8,-170.5"/>
<polygon fill="none" stroke="black" points="8,-170.5 8,-192.5 242,-192.5 242,-170.5 8,-170.5"/>
<image xlink:href="../../images/foreignKeys.png" width="11px" height="12px" preserveAspectRatio="xMinYMin meet" x="13" y="-187.5"/>
<text text-anchor="start" x="28" y="-177.05" font-family="Helvetica,sans-Serif" font-size="11.00">active_configuration_ocr_lang</text>
<polygon fill="none" stroke="black" points="8,-151 8,-170.5 242,-170.5 242,-151 8,-151"/>
<text text-anchor="start" x="11" y="-157.05" font-family="Helvetica,sans-Serif" font-size="11.00">...</text>
<polygon fill="#ffffff" stroke="none" points="8,-131.5 8,-151 87.75,-151 87.75,-131.5 8,-131.5"/>
<polygon fill="none" stroke="black" points="8,-131.5 8,-151 87.75,-151 87.75,-131.5 8,-131.5"/>
<text text-anchor="start" x="11" y="-137.55" font-family="Helvetica,sans-Serif" font-size="11.00">&lt; 6</text>
<polygon fill="#ffffff" stroke="none" points="87.75,-131.5 87.75,-151 155.5,-151 155.5,-131.5 87.75,-131.5"/>
<polygon fill="none" stroke="black" points="87.75,-131.5 87.75,-151 155.5,-151 155.5,-131.5 87.75,-131.5"/>
<text text-anchor="start" x="145" y="-137.55" font-family="Helvetica,sans-Serif" font-size="11.00"> &#160;</text>
<polygon fill="#ffffff" stroke="none" points="155.5,-131.5 155.5,-151 242,-151 242,-131.5 155.5,-131.5"/>
<polygon fill="none" stroke="black" points="155.5,-131.5 155.5,-151 242,-151 242,-131.5 155.5,-131.5"/>
<text text-anchor="start" x="212.75" y="-137.55" font-family="Helvetica,sans-Serif" font-size="11.00">27 &gt;</text>
</a>
</g>
</g>
<!-- exc_csv_mapping&#45;&gt;lib_library -->
<g id="edge1" class="edge">
<title>exc_csv_mapping:w&#45;&gt;lib_library:e</title>
<path fill="none" stroke="black" d="M277.53,-266.4C264.15,-280 268.5,-313.5 243,-313.5"/>
<polygon fill="black" stroke="black" points="284.24,-263.78 293,-264.23 288.27,-262.2 291.38,-260.99 291.38,-260.99 291.38,-260.99 288.27,-262.2 290.38,-257.52 284.24,-263.78"/>
<ellipse fill="none" stroke="black" cx="279.65" cy="-265.57" rx="3.2" ry="3.2"/>
</g>
<!-- exc_csv_mapping_rule -->
<g id="node3" class="node">
<title>exc_csv_mapping_rule</title>
<g id="a_node3"><a xlink:href="../../tables/exc_csv_mapping_rule.html" xlink:title="exc_csv_mapping_rule" target="_top">
<polygon fill="#ffffff" stroke="none" points="597.75,-38.5 597.75,-167 792.5,-167 792.5,-38.5 597.75,-38.5"/>
<polygon fill="#f5f5f5" stroke="none" points="597.75,-143.5 597.75,-167 792.5,-167 792.5,-143.5 597.75,-143.5"/>
<polygon fill="none" stroke="black" points="597.75,-143.5 597.75,-167 792.5,-167 792.5,-143.5 597.75,-143.5"/>
<text text-anchor="start" x="602.75" y="-152.55" font-family="Helvetica,sans-Serif" font-weight="bold" font-size="11.00">exc_csv_mapping_rule</text>
<text text-anchor="start" x="750.75" y="-151.55" font-family="Helvetica,sans-Serif" font-size="11.00">[table]</text>
<polygon fill="none" stroke="black" points="597.75,-121.5 597.75,-143.5 792.5,-143.5 792.5,-121.5 597.75,-121.5"/>
<image xlink:href="../../images/primaryKeys.png" width="11px" height="12px" preserveAspectRatio="xMinYMin meet" x="602.75" y="-138.5"/>
<text text-anchor="start" x="630.62" y="-128.05" font-family="Helvetica,sans-Serif" font-size="11.00">identifier</text>
<polygon fill="#ffffff" stroke="none" points="597.75,-99.5 597.75,-121.5 792.5,-121.5 792.5,-99.5 597.75,-99.5"/>
<polygon fill="none" stroke="black" points="597.75,-99.5 597.75,-121.5 792.5,-121.5 792.5,-99.5 597.75,-99.5"/>
<image xlink:href="../../images/foreignKeys.png" width="11px" height="12px" preserveAspectRatio="xMinYMin meet" x="602.75" y="-116.5"/>
<text text-anchor="start" x="630.62" y="-106.05" font-family="Helvetica,sans-Serif" font-size="11.00">mapping</text>
<polygon fill="#ffffff" stroke="none" points="597.75,-77.5 597.75,-99.5 792.5,-99.5 792.5,-77.5 597.75,-77.5"/>
<polygon fill="none" stroke="black" points="597.75,-77.5 597.75,-99.5 792.5,-99.5 792.5,-77.5 597.75,-77.5"/>
<image xlink:href="../../images/foreignKeys.png" width="11px" height="12px" preserveAspectRatio="xMinYMin meet" x="602.75" y="-94.5"/>
<text text-anchor="start" x="630.62" y="-84.05" font-family="Helvetica,sans-Serif" font-size="11.00">property</text>
<polygon fill="none" stroke="black" points="597.75,-58 597.75,-77.5 792.5,-77.5 792.5,-58 597.75,-58"/>
<text text-anchor="start" x="600.75" y="-64.05" font-family="Helvetica,sans-Serif" font-size="11.00">...</text>
<polygon fill="#ffffff" stroke="none" points="597.75,-38.5 597.75,-58 670.67,-58 670.67,-38.5 597.75,-38.5"/>
<polygon fill="none" stroke="black" points="597.75,-38.5 597.75,-58 670.67,-58 670.67,-38.5 597.75,-38.5"/>
<text text-anchor="start" x="600.75" y="-44.55" font-family="Helvetica,sans-Serif" font-size="11.00">&lt; 2</text>
<polygon fill="#ffffff" stroke="none" points="670.67,-38.5 670.67,-58 731.58,-58 731.58,-38.5 670.67,-38.5"/>
<polygon fill="none" stroke="black" points="670.67,-38.5 670.67,-58 731.58,-58 731.58,-38.5 670.67,-38.5"/>
<text text-anchor="start" x="721.08" y="-44.55" font-family="Helvetica,sans-Serif" font-size="11.00"> &#160;</text>
<polygon fill="#ffffff" stroke="none" points="731.58,-38.5 731.58,-58 792.5,-58 792.5,-38.5 731.58,-38.5"/>
<polygon fill="none" stroke="black" points="731.58,-38.5 731.58,-58 792.5,-58 792.5,-38.5 731.58,-38.5"/>
<text text-anchor="start" x="782" y="-44.55" font-family="Helvetica,sans-Serif" font-size="11.00"> &#160;</text>
</a>
</g>
</g>
<!-- exc_csv_mapping_rule&#45;&gt;exc_csv_mapping -->
<g id="edge2" class="edge">
<title>exc_csv_mapping_rule:w&#45;&gt;exc_csv_mapping:e</title>
<path fill="none" stroke="black" d="M581.48,-112.96C521.94,-135.44 622.87,-304.75 538.75,-304.75"/>
<polygon fill="black" stroke="black" points="588.52,-111.82 596.99,-114.11 592.8,-111.14 596.09,-110.61 596.09,-110.61 596.09,-110.61 592.8,-111.14 595.85,-107 588.52,-111.82"/>
<ellipse fill="none" stroke="black" cx="583.67" cy="-112.61" rx="3.2" ry="3.2"/>
</g>
<!-- exc_import_report -->
<g id="node4" class="node">
<title>exc_import_report</title>
<g id="a_node4"><a xlink:href="../../tables/exc_import_report.html" xlink:title="exc_import_report" target="_top">
<polygon fill="#ffffff" stroke="none" points="610.75,-188.5 610.75,-427 779.5,-427 779.5,-188.5 610.75,-188.5"/>
<polygon fill="#f5f5f5" stroke="none" points="610.75,-403.5 610.75,-427 779.5,-427 779.5,-403.5 610.75,-403.5"/>
<polygon fill="none" stroke="black" points="610.75,-403.5 610.75,-427 779.5,-427 779.5,-403.5 610.75,-403.5"/>
<text text-anchor="start" x="615.75" y="-412.55" font-family="Helvetica,sans-Serif" font-weight="bold" font-size="11.00">exc_import_report</text>
<text text-anchor="start" x="737.75" y="-411.55" font-family="Helvetica,sans-Serif" font-size="11.00">[table]</text>
<polygon fill="none" stroke="black" points="610.75,-381.5 610.75,-403.5 779.5,-403.5 779.5,-381.5 610.75,-381.5"/>
<image xlink:href="../../images/primaryKeys.png" width="11px" height="12px" preserveAspectRatio="xMinYMin meet" x="615.75" y="-398.5"/>
<text text-anchor="start" x="641.12" y="-388.05" font-family="Helvetica,sans-Serif" font-size="11.00">identifier</text>
<polygon fill="#ffffff" stroke="none" points="610.75,-359.5 610.75,-381.5 779.5,-381.5 779.5,-359.5 610.75,-359.5"/>
<polygon fill="none" stroke="black" points="610.75,-359.5 610.75,-381.5 779.5,-381.5 779.5,-359.5 610.75,-359.5"/>
<image xlink:href="../../images/foreignKeys.png" width="11px" height="12px" preserveAspectRatio="xMinYMin meet" x="615.75" y="-376.5"/>
<text text-anchor="start" x="641.12" y="-366.05" font-family="Helvetica,sans-Serif" font-size="11.00">library</text>
<polygon fill="#ffffff" stroke="none" points="610.75,-337.5 610.75,-359.5 779.5,-359.5 779.5,-337.5 610.75,-337.5"/>
<polygon fill="none" stroke="black" points="610.75,-337.5 610.75,-359.5 779.5,-359.5 779.5,-337.5 610.75,-337.5"/>
<image xlink:href="../../images/foreignKeys.png" width="11px" height="12px" preserveAspectRatio="xMinYMin meet" x="615.75" y="-354.5"/>
<text text-anchor="start" x="641.12" y="-344.05" font-family="Helvetica,sans-Serif" font-size="11.00">mapping</text>
<polygon fill="#ffffff" stroke="none" points="610.75,-315.5 610.75,-337.5 779.5,-337.5 779.5,-315.5 610.75,-315.5"/>
<polygon fill="none" stroke="black" points="610.75,-315.5 610.75,-337.5 779.5,-337.5 779.5,-315.5 610.75,-315.5"/>
<image xlink:href="../../images/foreignKeys.png" width="11px" height="12px" preserveAspectRatio="xMinYMin meet" x="615.75" y="-332.5"/>
<text text-anchor="start" x="641.12" y="-322.05" font-family="Helvetica,sans-Serif" font-size="11.00">mapping_children</text>
<polygon fill="#ffffff" stroke="none" points="610.75,-293.5 610.75,-315.5 779.5,-315.5 779.5,-293.5 610.75,-293.5"/>
<polygon fill="none" stroke="black" points="610.75,-293.5 610.75,-315.5 779.5,-315.5 779.5,-293.5 610.75,-293.5"/>
<image xlink:href="../../images/foreignKeys.png" width="11px" height="12px" preserveAspectRatio="xMinYMin meet" x="615.75" y="-310.5"/>
<text text-anchor="start" x="641.12" y="-300.05" font-family="Helvetica,sans-Serif" font-size="11.00">csv_mapping</text>
<polygon fill="#ffffff" stroke="none" points="610.75,-271.5 610.75,-293.5 779.5,-293.5 779.5,-271.5 610.75,-271.5"/>
<polygon fill="none" stroke="black" points="610.75,-271.5 610.75,-293.5 779.5,-293.5 779.5,-271.5 610.75,-271.5"/>
<image xlink:href="../../images/foreignKeys.png" width="11px" height="12px" preserveAspectRatio="xMinYMin meet" x="615.75" y="-288.5"/>
<text text-anchor="start" x="641.12" y="-278.05" font-family="Helvetica,sans-Serif" font-size="11.00">project</text>
<polygon fill="#ffffff" stroke="none" points="610.75,-249.5 610.75,-271.5 779.5,-271.5 779.5,-249.5 610.75,-249.5"/>
<polygon fill="none" stroke="black" points="610.75,-249.5 610.75,-271.5 779.5,-271.5 779.5,-249.5 610.75,-249.5"/>
<image xlink:href="../../images/foreignKeys.png" width="11px" height="12px" preserveAspectRatio="xMinYMin meet" x="615.75" y="-266.5"/>
<text text-anchor="start" x="641.12" y="-256.05" font-family="Helvetica,sans-Serif" font-size="11.00">lot</text>
<polygon fill="#ffffff" stroke="none" points="610.75,-227.5 610.75,-249.5 779.5,-249.5 779.5,-227.5 610.75,-227.5"/>
<polygon fill="none" stroke="black" points="610.75,-227.5 610.75,-249.5 779.5,-249.5 779.5,-227.5 610.75,-227.5"/>
<image xlink:href="../../images/foreignKeys.png" width="11px" height="12px" preserveAspectRatio="xMinYMin meet" x="615.75" y="-244.5"/>
<text text-anchor="start" x="641.12" y="-234.05" font-family="Helvetica,sans-Serif" font-size="11.00">parent</text>
<polygon fill="none" stroke="black" points="610.75,-208 610.75,-227.5 779.5,-227.5 779.5,-208 610.75,-208"/>
<text text-anchor="start" x="613.75" y="-214.05" font-family="Helvetica,sans-Serif" font-size="11.00">...</text>
<polygon fill="#ffffff" stroke="none" points="610.75,-188.5 610.75,-208 671,-208 671,-188.5 610.75,-188.5"/>
<polygon fill="none" stroke="black" points="610.75,-188.5 610.75,-208 671,-208 671,-188.5 610.75,-188.5"/>
<text text-anchor="start" x="613.75" y="-194.55" font-family="Helvetica,sans-Serif" font-size="11.00">&lt; 7</text>
<polygon fill="#ffffff" stroke="none" points="671,-188.5 671,-208 719.25,-208 719.25,-188.5 671,-188.5"/>
<polygon fill="none" stroke="black" points="671,-188.5 671,-208 719.25,-208 719.25,-188.5 671,-188.5"/>
<text text-anchor="start" x="708.75" y="-194.55" font-family="Helvetica,sans-Serif" font-size="11.00"> &#160;</text>
<polygon fill="#ffffff" stroke="none" points="719.25,-188.5 719.25,-208 779.5,-208 779.5,-188.5 719.25,-188.5"/>
<polygon fill="none" stroke="black" points="719.25,-188.5 719.25,-208 779.5,-208 779.5,-188.5 719.25,-188.5"/>
<text text-anchor="start" x="757" y="-194.55" font-family="Helvetica,sans-Serif" font-size="11.00">3 &gt;</text>
</a>
</g>
</g>
<!-- exc_import_report&#45;&gt;exc_csv_mapping -->
<g id="edge3" class="edge">
<title>exc_import_report:w&#45;&gt;exc_csv_mapping:e</title>
<path fill="none" stroke="black" d="M594.18,-304.52C574.4,-304.58 564.39,-304.75 538.75,-304.75"/>
<polygon fill="black" stroke="black" points="601.42,-304.51 609.42,-308.1 605.75,-304.51 609.08,-304.5 609.08,-304.5 609.08,-304.5 605.75,-304.51 609.41,-300.9 601.42,-304.51"/>
<ellipse fill="none" stroke="black" cx="596.5" cy="-304.52" rx="3.2" ry="3.2"/>
</g>
<!-- exc_import_report&#45;&gt;lib_library -->
<g id="edge4" class="edge">
<title>exc_import_report:w&#45;&gt;lib_library:e</title>
<path fill="none" stroke="black" d="M593.95,-370.66C460.62,-373.28 411.44,-407.6 283,-351.75 260.44,-341.94 267.6,-313.5 243,-313.5"/>
<polygon fill="black" stroke="black" points="601.42,-370.58 609.45,-374.1 605.75,-370.54 609.08,-370.51 609.08,-370.51 609.08,-370.51 605.75,-370.54 609.38,-366.9 601.42,-370.58"/>
<ellipse fill="none" stroke="black" cx="596.5" cy="-370.63" rx="3.2" ry="3.2"/>
</g>
</g>
</svg>
