<?xml version="1.0" encoding="UTF-8" standalone="no"?>
<!DOCTYPE svg PUBLIC "-//W3C//DTD SVG 1.1//EN"
 "http://www.w3.org/Graphics/SVG/1.1/DTD/svg11.dtd">
<!-- Generated by graphviz version 12.2.0 (0)
 -->
<!-- Title: twoDegreesRelationshipsDiagram Pages: 1 -->
<svg width="667pt" height="800pt"
 viewBox="0.00 0.00 667.25 800.40" xmlns="http://www.w3.org/2000/svg" xmlns:xlink="http://www.w3.org/1999/xlink">
<g id="graph0" class="graph" transform="scale(1 1) rotate(0) translate(4 796.4)">
<title>twoDegreesRelationshipsDiagram</title>
<polygon fill="#ffffff" stroke="none" points="-4,4 -4,-796.4 663.25,-796.4 663.25,4 -4,4"/>
<text text-anchor="middle" x="79.25" y="-7.05" font-family="Helvetica,sans-Serif" font-size="11.00">Generated by SchemaSpy</text>
<!-- doc_export_property -->
<g id="node1" class="node">
<title>doc_export_property</title>
<g id="a_node1"><a xlink:href="../../tables/doc_export_property.html" xlink:title="doc_export_property" target="_top">
<polygon fill="#ffffff" stroke="none" points="428.5,-725.9 428.5,-788.4 614.25,-788.4 614.25,-725.9 428.5,-725.9"/>
<polygon fill="#f5f5f5" stroke="none" points="428.5,-764.9 428.5,-788.4 614.25,-788.4 614.25,-764.9 428.5,-764.9"/>
<polygon fill="none" stroke="black" points="428.5,-764.9 428.5,-788.4 614.25,-788.4 614.25,-764.9 428.5,-764.9"/>
<text text-anchor="start" x="433.5" y="-773.95" font-family="Helvetica,sans-Serif" font-weight="bold" font-size="11.00">doc_export_property</text>
<text text-anchor="start" x="572.5" y="-772.95" font-family="Helvetica,sans-Serif" font-size="11.00">[table]</text>
<polygon fill="none" stroke="black" points="428.5,-745.4 428.5,-764.9 614.25,-764.9 614.25,-745.4 428.5,-745.4"/>
<text text-anchor="start" x="431.5" y="-751.45" font-family="Helvetica,sans-Serif" font-size="11.00">...</text>
<polygon fill="#ffffff" stroke="none" points="428.5,-725.9 428.5,-745.4 498.42,-745.4 498.42,-725.9 428.5,-725.9"/>
<polygon fill="none" stroke="black" points="428.5,-725.9 428.5,-745.4 498.42,-745.4 498.42,-725.9 428.5,-725.9"/>
<text text-anchor="start" x="431.5" y="-731.95" font-family="Helvetica,sans-Serif" font-size="11.00">&lt; 2</text>
<polygon fill="#ffffff" stroke="none" points="498.42,-725.9 498.42,-745.4 556.33,-745.4 556.33,-725.9 498.42,-725.9"/>
<polygon fill="none" stroke="black" points="498.42,-725.9 498.42,-745.4 556.33,-745.4 556.33,-725.9 498.42,-725.9"/>
<text text-anchor="start" x="545.83" y="-731.95" font-family="Helvetica,sans-Serif" font-size="11.00"> &#160;</text>
<polygon fill="#ffffff" stroke="none" points="556.33,-725.9 556.33,-745.4 614.25,-745.4 614.25,-725.9 556.33,-725.9"/>
<polygon fill="none" stroke="black" points="556.33,-725.9 556.33,-745.4 614.25,-745.4 614.25,-725.9 556.33,-725.9"/>
<text text-anchor="start" x="603.75" y="-731.95" font-family="Helvetica,sans-Serif" font-size="11.00"> &#160;</text>
</a>
</g>
</g>
<!-- doc_property_type -->
<g id="node2" class="node">
<title>doc_property_type</title>
<g id="a_node2"><a xlink:href="../../tables/doc_property_type.html" xlink:title="doc_property_type" target="_top">
<polygon fill="#ffffff" stroke="none" points="170.75,-579.9 170.75,-664.4 342.5,-664.4 342.5,-579.9 170.75,-579.9"/>
<polygon fill="#f5f5f5" stroke="none" points="170.75,-640.9 170.75,-664.4 342.5,-664.4 342.5,-640.9 170.75,-640.9"/>
<polygon fill="none" stroke="black" points="170.75,-640.9 170.75,-664.4 342.5,-664.4 342.5,-640.9 170.75,-640.9"/>
<text text-anchor="start" x="175.75" y="-649.95" font-family="Helvetica,sans-Serif" font-weight="bold" font-size="11.00">doc_property_type</text>
<text text-anchor="start" x="300.75" y="-648.95" font-family="Helvetica,sans-Serif" font-size="11.00">[table]</text>
<polygon fill="none" stroke="black" points="170.75,-618.9 170.75,-640.9 342.5,-640.9 342.5,-618.9 170.75,-618.9"/>
<image xlink:href="../../images/primaryKeys.png" width="11px" height="12px" preserveAspectRatio="xMinYMin meet" x="175.75" y="-635.9"/>
<text text-anchor="start" x="202.62" y="-625.45" font-family="Helvetica,sans-Serif" font-size="11.00">identifier</text>
<polygon fill="none" stroke="black" points="170.75,-599.4 170.75,-618.9 342.5,-618.9 342.5,-599.4 170.75,-599.4"/>
<text text-anchor="start" x="173.75" y="-605.45" font-family="Helvetica,sans-Serif" font-size="11.00">...</text>
<polygon fill="#ffffff" stroke="none" points="170.75,-579.9 170.75,-599.4 224,-599.4 224,-579.9 170.75,-579.9"/>
<polygon fill="none" stroke="black" points="170.75,-579.9 170.75,-599.4 224,-599.4 224,-579.9 170.75,-579.9"/>
<text text-anchor="start" x="173.75" y="-585.95" font-family="Helvetica,sans-Serif" font-size="11.00"> &#160;</text>
<polygon fill="#ffffff" stroke="none" points="224,-579.9 224,-599.4 277.25,-599.4 277.25,-579.9 224,-579.9"/>
<polygon fill="none" stroke="black" points="224,-579.9 224,-599.4 277.25,-599.4 277.25,-579.9 224,-579.9"/>
<text text-anchor="start" x="266.75" y="-585.95" font-family="Helvetica,sans-Serif" font-size="11.00"> &#160;</text>
<polygon fill="#ffffff" stroke="none" points="277.25,-579.9 277.25,-599.4 342.5,-599.4 342.5,-579.9 277.25,-579.9"/>
<polygon fill="none" stroke="black" points="277.25,-579.9 277.25,-599.4 342.5,-599.4 342.5,-579.9 277.25,-579.9"/>
<text text-anchor="start" x="320" y="-585.95" font-family="Helvetica,sans-Serif" font-size="11.00">4 &gt;</text>
</a>
</g>
</g>
<!-- doc_export_property&#45;&gt;doc_property_type -->
<g id="edge1" class="edge">
<title>doc_export_property:w&#45;&gt;doc_property_type:e</title>
<path fill="none" stroke="black" d="M412.07,-752.08C399.35,-745.93 395.39,-731.26 383.5,-715.15 358.65,-681.48 385.35,-629.9 343.5,-629.9"/>
<polygon fill="black" stroke="black" points="419.33,-753.53 426.47,-758.62 423.58,-754.37 426.84,-755.02 426.84,-755.02 426.84,-755.02 423.58,-754.37 427.87,-751.55 419.33,-753.53"/>
<ellipse fill="none" stroke="black" cx="414.5" cy="-752.57" rx="3.2" ry="3.2"/>
</g>
<!-- doc_property -->
<g id="node3" class="node">
<title>doc_property</title>
<g id="a_node3"><a xlink:href="../../tables/doc_property.html" xlink:title="doc_property" target="_top">
<polygon fill="#ffffff" stroke="none" points="454,-641.9 454,-704.4 588.75,-704.4 588.75,-641.9 454,-641.9"/>
<polygon fill="#f5f5f5" stroke="none" points="454,-680.9 454,-704.4 588.75,-704.4 588.75,-680.9 454,-680.9"/>
<polygon fill="none" stroke="black" points="454,-680.9 454,-704.4 588.75,-704.4 588.75,-680.9 454,-680.9"/>
<text text-anchor="start" x="459" y="-689.95" font-family="Helvetica,sans-Serif" font-weight="bold" font-size="11.00">doc_property</text>
<text text-anchor="start" x="547" y="-688.95" font-family="Helvetica,sans-Serif" font-size="11.00">[table]</text>
<polygon fill="none" stroke="black" points="454,-661.4 454,-680.9 588.75,-680.9 588.75,-661.4 454,-661.4"/>
<text text-anchor="start" x="457" y="-667.45" font-family="Helvetica,sans-Serif" font-size="11.00">...</text>
<polygon fill="#ffffff" stroke="none" points="454,-641.9 454,-661.4 506.92,-661.4 506.92,-641.9 454,-641.9"/>
<polygon fill="none" stroke="black" points="454,-641.9 454,-661.4 506.92,-661.4 506.92,-641.9 454,-641.9"/>
<text text-anchor="start" x="457" y="-647.95" font-family="Helvetica,sans-Serif" font-size="11.00">&lt; 2</text>
<polygon fill="#ffffff" stroke="none" points="506.92,-641.9 506.92,-661.4 547.83,-661.4 547.83,-641.9 506.92,-641.9"/>
<polygon fill="none" stroke="black" points="506.92,-641.9 506.92,-661.4 547.83,-661.4 547.83,-641.9 506.92,-641.9"/>
<text text-anchor="start" x="537.33" y="-647.95" font-family="Helvetica,sans-Serif" font-size="11.00"> &#160;</text>
<polygon fill="#ffffff" stroke="none" points="547.83,-641.9 547.83,-661.4 588.75,-661.4 588.75,-641.9 547.83,-641.9"/>
<polygon fill="none" stroke="black" points="547.83,-641.9 547.83,-661.4 588.75,-661.4 588.75,-641.9 547.83,-641.9"/>
<text text-anchor="start" x="578.25" y="-647.95" font-family="Helvetica,sans-Serif" font-size="11.00"> &#160;</text>
</a>
</g>
</g>
<!-- doc_property&#45;&gt;doc_property_type -->
<g id="edge2" class="edge">
<title>doc_property:w&#45;&gt;doc_property_type:e</title>
<path fill="none" stroke="black" d="M437.48,-669.78C399.24,-662.62 389.82,-629.9 343.5,-629.9"/>
<polygon fill="black" stroke="black" points="444.7,-670.42 452.35,-674.71 449.02,-670.8 452.33,-671.09 452.33,-671.09 452.33,-671.09 449.02,-670.8 452.98,-667.53 444.7,-670.42"/>
<ellipse fill="none" stroke="black" cx="439.8" cy="-669.98" rx="3.2" ry="3.2"/>
</g>
<!-- exc_csv_mapping_rule -->
<g id="node4" class="node">
<title>exc_csv_mapping_rule</title>
<g id="a_node4"><a xlink:href="../../tables/exc_csv_mapping_rule.html" xlink:title="exc_csv_mapping_rule" target="_top">
<polygon fill="#ffffff" stroke="none" points="424,-557.9 424,-620.4 618.75,-620.4 618.75,-557.9 424,-557.9"/>
<polygon fill="#f5f5f5" stroke="none" points="424,-596.9 424,-620.4 618.75,-620.4 618.75,-596.9 424,-596.9"/>
<polygon fill="none" stroke="black" points="424,-596.9 424,-620.4 618.75,-620.4 618.75,-596.9 424,-596.9"/>
<text text-anchor="start" x="429" y="-605.95" font-family="Helvetica,sans-Serif" font-weight="bold" font-size="11.00">exc_csv_mapping_rule</text>
<text text-anchor="start" x="577" y="-604.95" font-family="Helvetica,sans-Serif" font-size="11.00">[table]</text>
<polygon fill="none" stroke="black" points="424,-577.4 424,-596.9 618.75,-596.9 618.75,-577.4 424,-577.4"/>
<text text-anchor="start" x="427" y="-583.45" font-family="Helvetica,sans-Serif" font-size="11.00">...</text>
<polygon fill="#ffffff" stroke="none" points="424,-557.9 424,-577.4 496.92,-577.4 496.92,-557.9 424,-557.9"/>
<polygon fill="none" stroke="black" points="424,-557.9 424,-577.4 496.92,-577.4 496.92,-557.9 424,-557.9"/>
<text text-anchor="start" x="427" y="-563.95" font-family="Helvetica,sans-Serif" font-size="11.00">&lt; 2</text>
<polygon fill="#ffffff" stroke="none" points="496.92,-557.9 496.92,-577.4 557.83,-577.4 557.83,-557.9 496.92,-557.9"/>
<polygon fill="none" stroke="black" points="496.92,-557.9 496.92,-577.4 557.83,-577.4 557.83,-557.9 496.92,-557.9"/>
<text text-anchor="start" x="547.33" y="-563.95" font-family="Helvetica,sans-Serif" font-size="11.00"> &#160;</text>
<polygon fill="#ffffff" stroke="none" points="557.83,-557.9 557.83,-577.4 618.75,-577.4 618.75,-557.9 557.83,-557.9"/>
<polygon fill="none" stroke="black" points="557.83,-557.9 557.83,-577.4 618.75,-577.4 618.75,-557.9 557.83,-557.9"/>
<text text-anchor="start" x="608.25" y="-563.95" font-family="Helvetica,sans-Serif" font-size="11.00"> &#160;</text>
</a>
</g>
</g>
<!-- exc_csv_mapping_rule&#45;&gt;doc_property_type -->
<g id="edge3" class="edge">
<title>exc_csv_mapping_rule:w&#45;&gt;doc_property_type:e</title>
<path fill="none" stroke="black" d="M407.57,-589.7C382.2,-598.9 377.66,-629.9 343.5,-629.9"/>
<polygon fill="black" stroke="black" points="414.78,-588.51 423.26,-590.76 419.05,-587.8 422.34,-587.26 422.34,-587.26 422.34,-587.26 419.05,-587.8 422.08,-583.65 414.78,-588.51"/>
<ellipse fill="none" stroke="black" cx="409.92" cy="-589.31" rx="3.2" ry="3.2"/>
</g>
<!-- exc_import_report -->
<g id="node5" class="node">
<title>exc_import_report</title>
<g id="a_node5"><a xlink:href="../../tables/exc_import_report.html" xlink:title="exc_import_report" target="_top">
<polygon fill="#ffffff" stroke="none" points="437,-53.9 437,-116.4 605.75,-116.4 605.75,-53.9 437,-53.9"/>
<polygon fill="#f5f5f5" stroke="none" points="437,-92.9 437,-116.4 605.75,-116.4 605.75,-92.9 437,-92.9"/>
<polygon fill="none" stroke="black" points="437,-92.9 437,-116.4 605.75,-116.4 605.75,-92.9 437,-92.9"/>
<text text-anchor="start" x="442" y="-101.95" font-family="Helvetica,sans-Serif" font-weight="bold" font-size="11.00">exc_import_report</text>
<text text-anchor="start" x="564" y="-100.95" font-family="Helvetica,sans-Serif" font-size="11.00">[table]</text>
<polygon fill="none" stroke="black" points="437,-73.4 437,-92.9 605.75,-92.9 605.75,-73.4 437,-73.4"/>
<text text-anchor="start" x="440" y="-79.45" font-family="Helvetica,sans-Serif" font-size="11.00">...</text>
<polygon fill="#ffffff" stroke="none" points="437,-53.9 437,-73.4 497.25,-73.4 497.25,-53.9 437,-53.9"/>
<polygon fill="none" stroke="black" points="437,-53.9 437,-73.4 497.25,-73.4 497.25,-53.9 437,-53.9"/>
<text text-anchor="start" x="440" y="-59.95" font-family="Helvetica,sans-Serif" font-size="11.00">&lt; 7</text>
<polygon fill="#ffffff" stroke="none" points="497.25,-53.9 497.25,-73.4 545.5,-73.4 545.5,-53.9 497.25,-53.9"/>
<polygon fill="none" stroke="black" points="497.25,-53.9 497.25,-73.4 545.5,-73.4 545.5,-53.9 497.25,-53.9"/>
<text text-anchor="start" x="535" y="-59.95" font-family="Helvetica,sans-Serif" font-size="11.00"> &#160;</text>
<polygon fill="#ffffff" stroke="none" points="545.5,-53.9 545.5,-73.4 605.75,-73.4 605.75,-53.9 545.5,-53.9"/>
<polygon fill="none" stroke="black" points="545.5,-53.9 545.5,-73.4 605.75,-73.4 605.75,-53.9 545.5,-53.9"/>
<text text-anchor="start" x="583.25" y="-59.95" font-family="Helvetica,sans-Serif" font-size="11.00">3 &gt;</text>
</a>
</g>
</g>
<!-- lib_library -->
<g id="node6" class="node">
<title>lib_library</title>
<g id="a_node6"><a xlink:href="../../tables/lib_library.html" xlink:title="lib_library" target="_top">
<polygon fill="#ffffff" stroke="none" points="8,-43.9 8,-106.4 121.75,-106.4 121.75,-43.9 8,-43.9"/>
<polygon fill="#f5f5f5" stroke="none" points="8,-82.9 8,-106.4 121.75,-106.4 121.75,-82.9 8,-82.9"/>
<polygon fill="none" stroke="black" points="8,-82.9 8,-106.4 121.75,-106.4 121.75,-82.9 8,-82.9"/>
<text text-anchor="start" x="13" y="-91.95" font-family="Helvetica,sans-Serif" font-weight="bold" font-size="11.00">lib_library</text>
<text text-anchor="start" x="80" y="-90.95" font-family="Helvetica,sans-Serif" font-size="11.00">[table]</text>
<polygon fill="none" stroke="black" points="8,-63.4 8,-82.9 121.75,-82.9 121.75,-63.4 8,-63.4"/>
<text text-anchor="start" x="11" y="-69.45" font-family="Helvetica,sans-Serif" font-size="11.00">...</text>
<polygon fill="#ffffff" stroke="none" points="8,-43.9 8,-63.4 47.67,-63.4 47.67,-43.9 8,-43.9"/>
<polygon fill="none" stroke="black" points="8,-43.9 8,-63.4 47.67,-63.4 47.67,-43.9 8,-43.9"/>
<text text-anchor="start" x="11" y="-49.95" font-family="Helvetica,sans-Serif" font-size="11.00">&lt; 6</text>
<polygon fill="#ffffff" stroke="none" points="47.67,-43.9 47.67,-63.4 75.33,-63.4 75.33,-43.9 47.67,-43.9"/>
<polygon fill="none" stroke="black" points="47.67,-43.9 47.67,-63.4 75.33,-63.4 75.33,-43.9 47.67,-43.9"/>
<text text-anchor="start" x="64.83" y="-49.95" font-family="Helvetica,sans-Serif" font-size="11.00"> &#160;</text>
<polygon fill="#ffffff" stroke="none" points="75.33,-43.9 75.33,-63.4 121.75,-63.4 121.75,-43.9 75.33,-43.9"/>
<polygon fill="none" stroke="black" points="75.33,-43.9 75.33,-63.4 121.75,-63.4 121.75,-43.9 75.33,-43.9"/>
<text text-anchor="start" x="92.5" y="-49.95" font-family="Helvetica,sans-Serif" font-size="11.00">27 &gt;</text>
</a>
</g>
</g>
<!-- exc_import_report&#45;&gt;lib_library -->
<g id="edge4" class="edge">
<title>exc_import_report:w&#45;&gt;lib_library:e</title>
<path fill="none" stroke="black" d="M420.33,-81.64C393.08,-75.93 384.86,-55.73 350.5,-49.15 268.55,-33.45 243.17,-26.88 162.75,-49.15 142.77,-54.68 143.48,-73.15 122.75,-73.15"/>
<polygon fill="black" stroke="black" points="427.7,-82.35 435.32,-86.7 432.02,-82.77 435.33,-83.09 435.33,-83.09 435.33,-83.09 432.02,-82.77 436.01,-79.53 427.7,-82.35"/>
<ellipse fill="none" stroke="black" cx="422.81" cy="-81.88" rx="3.2" ry="3.2"/>
</g>
<!-- exc_mapping -->
<g id="node7" class="node">
<title>exc_mapping</title>
<g id="a_node7"><a xlink:href="../../tables/exc_mapping.html" xlink:title="exc_mapping" target="_top">
<polygon fill="#ffffff" stroke="none" points="182.62,-59.9 182.62,-166.4 330.62,-166.4 330.62,-59.9 182.62,-59.9"/>
<polygon fill="#f5f5f5" stroke="none" points="182.62,-142.9 182.62,-166.4 330.62,-166.4 330.62,-142.9 182.62,-142.9"/>
<polygon fill="none" stroke="black" points="182.62,-142.9 182.62,-166.4 330.62,-166.4 330.62,-142.9 182.62,-142.9"/>
<text text-anchor="start" x="187.62" y="-151.95" font-family="Helvetica,sans-Serif" font-weight="bold" font-size="11.00">exc_mapping</text>
<text text-anchor="start" x="288.88" y="-150.95" font-family="Helvetica,sans-Serif" font-size="11.00">[table]</text>
<polygon fill="none" stroke="black" points="182.62,-120.9 182.62,-142.9 330.62,-142.9 330.62,-120.9 182.62,-120.9"/>
<image xlink:href="../../images/primaryKeys.png" width="11px" height="12px" preserveAspectRatio="xMinYMin meet" x="187.625" y="-137.9"/>
<text text-anchor="start" x="202.62" y="-127.45" font-family="Helvetica,sans-Serif" font-size="11.00">identifier</text>
<polygon fill="#ffffff" stroke="none" points="182.62,-98.9 182.62,-120.9 330.62,-120.9 330.62,-98.9 182.62,-98.9"/>
<polygon fill="none" stroke="black" points="182.62,-98.9 182.62,-120.9 330.62,-120.9 330.62,-98.9 182.62,-98.9"/>
<image xlink:href="../../images/foreignKeys.png" width="11px" height="12px" preserveAspectRatio="xMinYMin meet" x="187.625" y="-115.9"/>
<text text-anchor="start" x="202.62" y="-105.45" font-family="Helvetica,sans-Serif" font-size="11.00">library</text>
<polygon fill="none" stroke="black" points="182.62,-79.4 182.62,-98.9 330.62,-98.9 330.62,-79.4 182.62,-79.4"/>
<text text-anchor="start" x="185.62" y="-85.45" font-family="Helvetica,sans-Serif" font-size="11.00">...</text>
<polygon fill="#ffffff" stroke="none" points="182.62,-59.9 182.62,-79.4 235.96,-79.4 235.96,-59.9 182.62,-59.9"/>
<polygon fill="none" stroke="black" points="182.62,-59.9 182.62,-79.4 235.96,-79.4 235.96,-59.9 182.62,-59.9"/>
<text text-anchor="start" x="185.62" y="-65.95" font-family="Helvetica,sans-Serif" font-size="11.00">&lt; 1</text>
<polygon fill="#ffffff" stroke="none" points="235.96,-59.9 235.96,-79.4 277.29,-79.4 277.29,-59.9 235.96,-59.9"/>
<polygon fill="none" stroke="black" points="235.96,-59.9 235.96,-79.4 277.29,-79.4 277.29,-59.9 235.96,-59.9"/>
<text text-anchor="start" x="266.79" y="-65.95" font-family="Helvetica,sans-Serif" font-size="11.00"> &#160;</text>
<polygon fill="#ffffff" stroke="none" points="277.29,-59.9 277.29,-79.4 330.62,-79.4 330.62,-59.9 277.29,-59.9"/>
<polygon fill="none" stroke="black" points="277.29,-59.9 277.29,-79.4 330.62,-79.4 330.62,-59.9 277.29,-59.9"/>
<text text-anchor="start" x="308.12" y="-65.95" font-family="Helvetica,sans-Serif" font-size="11.00">3 &gt;</text>
</a>
</g>
</g>
<!-- exc_import_report&#45;&gt;exc_mapping -->
<g id="edge5" class="edge">
<title>exc_import_report:w&#45;&gt;exc_mapping:e</title>
<path fill="none" stroke="black" d="M420.35,-82.93C383.72,-87.15 377.02,-126.14 331.62,-131.9"/>
<polygon fill="black" stroke="black" points="427.67,-83.03 435.61,-86.75 432,-83.09 435.33,-83.14 435.33,-83.14 435.33,-83.14 432,-83.09 435.72,-79.55 427.67,-83.03"/>
<ellipse fill="none" stroke="black" cx="422.75" cy="-82.96" rx="3.2" ry="3.2"/>
</g>
<!-- exc_import_report&#45;&gt;exc_mapping -->
<g id="edge6" class="edge">
<title>exc_import_report:w&#45;&gt;exc_mapping:e</title>
<path fill="none" stroke="black" d="M420.84,-86.67C383.78,-99.65 377.22,-137.69 331.62,-131.9"/>
<polygon fill="black" stroke="black" points="427.88,-85.04 436.49,-86.73 432.1,-84.06 435.35,-83.3 435.35,-83.3 435.35,-83.3 432.1,-84.06 434.86,-79.72 427.88,-85.04"/>
<ellipse fill="none" stroke="black" cx="423.09" cy="-86.15" rx="3.2" ry="3.2"/>
</g>
<!-- exc_mapping&#45;&gt;lib_library -->
<g id="edge7" class="edge">
<title>exc_mapping:w&#45;&gt;lib_library:e</title>
<path fill="none" stroke="black" d="M166.43,-105.97C150.53,-96.49 147.33,-73.15 122.75,-73.15"/>
<polygon fill="black" stroke="black" points="173.56,-107.81 180.4,-113.3 177.75,-108.9 180.98,-109.73 180.98,-109.73 180.98,-109.73 177.75,-108.9 182.2,-106.33 173.56,-107.81"/>
<ellipse fill="none" stroke="black" cx="168.79" cy="-106.58" rx="3.2" ry="3.2"/>
</g>
<!-- exc_mapping_rule -->
<g id="node8" class="node">
<title>exc_mapping_rule</title>
<g id="a_node8"><a xlink:href="../../tables/exc_mapping_rule.html" xlink:title="exc_mapping_rule" target="_top">
<polygon fill="#ffffff" stroke="none" points="391.5,-137.65 391.5,-536.65 651.25,-536.65 651.25,-137.65 391.5,-137.65"/>
<polygon fill="#f5f5f5" stroke="none" points="393.5,-511.15 393.5,-534.65 649.25,-534.65 649.25,-511.15 393.5,-511.15"/>
<polygon fill="none" stroke="black" points="393.5,-511.15 393.5,-534.65 649.25,-534.65 649.25,-511.15 393.5,-511.15"/>
<text text-anchor="start" x="398.5" y="-520.2" font-family="Helvetica,sans-Serif" font-weight="bold" font-size="11.00">exc_mapping_rule</text>
<text text-anchor="start" x="607.5" y="-519.2" font-family="Helvetica,sans-Serif" font-size="11.00">[table]</text>
<polygon fill="none" stroke="black" points="393.5,-489.15 393.5,-511.15 541.5,-511.15 541.5,-489.15 393.5,-489.15"/>
<image xlink:href="../../images/primaryKeys.png" width="11px" height="12px" preserveAspectRatio="xMinYMin meet" x="398.5" y="-506.15"/>
<text text-anchor="start" x="413.5" y="-495.7" font-family="Helvetica,sans-Serif" font-size="11.00">identifier</text>
<polygon fill="none" stroke="black" points="541.5,-489.15 541.5,-511.15 639.25,-511.15 639.25,-489.15 541.5,-489.15"/>
<text text-anchor="start" x="544.5" y="-496.45" font-family="Helvetica,sans-Serif" font-size="11.00">varchar[191]</text>
<polygon fill="none" stroke="black" points="393.5,-467.15 393.5,-489.15 541.5,-489.15 541.5,-467.15 393.5,-467.15"/>
<text text-anchor="start" x="413.5" y="-473.7" font-family="Helvetica,sans-Serif" font-size="11.00">doc_unit_field</text>
<polygon fill="none" stroke="black" points="541.5,-467.15 541.5,-489.15 639.25,-489.15 639.25,-467.15 541.5,-467.15"/>
<text text-anchor="start" x="544.5" y="-474.45" font-family="Helvetica,sans-Serif" font-size="11.00">varchar[255]</text>
<polygon fill="none" stroke="black" points="393.5,-445.15 393.5,-467.15 541.5,-467.15 541.5,-445.15 393.5,-445.15"/>
<text text-anchor="start" x="413.5" y="-451.7" font-family="Helvetica,sans-Serif" font-size="11.00">bib_record_field</text>
<polygon fill="none" stroke="black" points="541.5,-445.15 541.5,-467.15 639.25,-467.15 639.25,-445.15 541.5,-445.15"/>
<text text-anchor="start" x="544.5" y="-452.45" font-family="Helvetica,sans-Serif" font-size="11.00">varchar[255]</text>
<polygon fill="#ffffff" stroke="none" points="393.5,-423.15 393.5,-445.15 541.5,-445.15 541.5,-423.15 393.5,-423.15"/>
<polygon fill="none" stroke="black" points="393.5,-423.15 393.5,-445.15 541.5,-445.15 541.5,-423.15 393.5,-423.15"/>
<image xlink:href="../../images/foreignKeys.png" width="11px" height="12px" preserveAspectRatio="xMinYMin meet" x="398.5" y="-440.15"/>
<text text-anchor="start" x="413.5" y="-429.7" font-family="Helvetica,sans-Serif" font-size="11.00">property</text>
<polygon fill="none" stroke="black" points="541.5,-423.15 541.5,-445.15 639.25,-445.15 639.25,-423.15 541.5,-423.15"/>
<text text-anchor="start" x="544.5" y="-430.45" font-family="Helvetica,sans-Serif" font-size="11.00">varchar[191]</text>
<polygon fill="none" stroke="black" points="393.5,-401.15 393.5,-423.15 541.5,-423.15 541.5,-401.15 393.5,-401.15"/>
<text text-anchor="start" x="413.5" y="-407.7" font-family="Helvetica,sans-Serif" font-size="11.00">expression</text>
<polygon fill="none" stroke="black" points="541.5,-401.15 541.5,-423.15 639.25,-423.15 639.25,-401.15 541.5,-401.15"/>
<text text-anchor="start" x="544.5" y="-408.45" font-family="Helvetica,sans-Serif" font-size="11.00">text[65535]</text>
<polygon fill="none" stroke="black" points="393.5,-379.15 393.5,-401.15 541.5,-401.15 541.5,-379.15 393.5,-379.15"/>
<text text-anchor="start" x="413.5" y="-385.7" font-family="Helvetica,sans-Serif" font-size="11.00">expression_conf</text>
<polygon fill="none" stroke="black" points="541.5,-379.15 541.5,-401.15 639.25,-401.15 639.25,-379.15 541.5,-379.15"/>
<text text-anchor="start" x="544.5" y="-386.45" font-family="Helvetica,sans-Serif" font-size="11.00">text[65535]</text>
<polygon fill="none" stroke="black" points="393.5,-357.15 393.5,-379.15 541.5,-379.15 541.5,-357.15 393.5,-357.15"/>
<text text-anchor="start" x="413.5" y="-363.7" font-family="Helvetica,sans-Serif" font-size="11.00">apply_if</text>
<polygon fill="none" stroke="black" points="541.5,-357.15 541.5,-379.15 639.25,-379.15 639.25,-357.15 541.5,-357.15"/>
<text text-anchor="start" x="544.5" y="-364.45" font-family="Helvetica,sans-Serif" font-size="11.00">text[65535]</text>
<polygon fill="none" stroke="black" points="393.5,-335.15 393.5,-357.15 541.5,-357.15 541.5,-335.15 393.5,-335.15"/>
<text text-anchor="start" x="413.5" y="-341.7" font-family="Helvetica,sans-Serif" font-size="11.00">apply_if_conf</text>
<polygon fill="none" stroke="black" points="541.5,-335.15 541.5,-357.15 639.25,-357.15 639.25,-335.15 541.5,-335.15"/>
<text text-anchor="start" x="544.5" y="-342.45" font-family="Helvetica,sans-Serif" font-size="11.00">text[65535]</text>
<polygon fill="#ffffff" stroke="none" points="393.5,-313.15 393.5,-335.15 541.5,-335.15 541.5,-313.15 393.5,-313.15"/>
<polygon fill="none" stroke="black" points="393.5,-313.15 393.5,-335.15 541.5,-335.15 541.5,-313.15 393.5,-313.15"/>
<image xlink:href="../../images/foreignKeys.png" width="11px" height="12px" preserveAspectRatio="xMinYMin meet" x="398.5" y="-330.15"/>
<text text-anchor="start" x="413.5" y="-319.7" font-family="Helvetica,sans-Serif" font-size="11.00">mapping</text>
<polygon fill="none" stroke="black" points="541.5,-313.15 541.5,-335.15 639.25,-335.15 639.25,-313.15 541.5,-313.15"/>
<text text-anchor="start" x="544.5" y="-320.45" font-family="Helvetica,sans-Serif" font-size="11.00">varchar[191]</text>
<polygon fill="none" stroke="black" points="393.5,-291.15 393.5,-313.15 541.5,-313.15 541.5,-291.15 393.5,-291.15"/>
<text text-anchor="start" x="413.5" y="-297.7" font-family="Helvetica,sans-Serif" font-size="11.00">version</text>
<polygon fill="none" stroke="black" points="541.5,-291.15 541.5,-313.15 639.25,-313.15 639.25,-291.15 541.5,-291.15"/>
<text text-anchor="start" x="544.5" y="-298.45" font-family="Helvetica,sans-Serif" font-size="11.00">bigint[19]</text>
<polygon fill="none" stroke="black" points="393.5,-269.15 393.5,-291.15 541.5,-291.15 541.5,-269.15 393.5,-269.15"/>
<text text-anchor="start" x="413.5" y="-275.7" font-family="Helvetica,sans-Serif" font-size="11.00">created_by</text>
<polygon fill="none" stroke="black" points="541.5,-269.15 541.5,-291.15 639.25,-291.15 639.25,-269.15 541.5,-269.15"/>
<text text-anchor="start" x="544.5" y="-276.45" font-family="Helvetica,sans-Serif" font-size="11.00">varchar[255]</text>
<polygon fill="none" stroke="black" points="393.5,-247.15 393.5,-269.15 541.5,-269.15 541.5,-247.15 393.5,-247.15"/>
<text text-anchor="start" x="413.5" y="-253.7" font-family="Helvetica,sans-Serif" font-size="11.00">last_modified_by</text>
<polygon fill="none" stroke="black" points="541.5,-247.15 541.5,-269.15 639.25,-269.15 639.25,-247.15 541.5,-247.15"/>
<text text-anchor="start" x="544.5" y="-254.45" font-family="Helvetica,sans-Serif" font-size="11.00">varchar[255]</text>
<polygon fill="none" stroke="black" points="393.5,-225.15 393.5,-247.15 541.5,-247.15 541.5,-225.15 393.5,-225.15"/>
<text text-anchor="start" x="413.5" y="-231.7" font-family="Helvetica,sans-Serif" font-size="11.00">created_date</text>
<polygon fill="none" stroke="black" points="541.5,-225.15 541.5,-247.15 639.25,-247.15 639.25,-225.15 541.5,-225.15"/>
<text text-anchor="start" x="544.5" y="-232.45" font-family="Helvetica,sans-Serif" font-size="11.00">timestamp[19]</text>
<polygon fill="none" stroke="black" points="393.5,-203.15 393.5,-225.15 541.5,-225.15 541.5,-203.15 393.5,-203.15"/>
<text text-anchor="start" x="413.5" y="-209.7" font-family="Helvetica,sans-Serif" font-size="11.00">last_modified_date</text>
<polygon fill="none" stroke="black" points="541.5,-203.15 541.5,-225.15 639.25,-225.15 639.25,-203.15 541.5,-203.15"/>
<text text-anchor="start" x="544.5" y="-210.45" font-family="Helvetica,sans-Serif" font-size="11.00">timestamp[19]</text>
<polygon fill="none" stroke="black" points="393.5,-181.15 393.5,-203.15 541.5,-203.15 541.5,-181.15 393.5,-181.15"/>
<text text-anchor="start" x="413.5" y="-187.7" font-family="Helvetica,sans-Serif" font-size="11.00">position</text>
<polygon fill="none" stroke="black" points="541.5,-181.15 541.5,-203.15 639.25,-203.15 639.25,-181.15 541.5,-181.15"/>
<text text-anchor="start" x="544.5" y="-188.45" font-family="Helvetica,sans-Serif" font-size="11.00">int[10]</text>
<polygon fill="none" stroke="black" points="393.5,-159.15 393.5,-181.15 541.5,-181.15 541.5,-159.15 393.5,-159.15"/>
<text text-anchor="start" x="413.5" y="-165.7" font-family="Helvetica,sans-Serif" font-size="11.00">default_rule</text>
<polygon fill="none" stroke="black" points="541.5,-159.15 541.5,-181.15 639.25,-181.15 639.25,-159.15 541.5,-159.15"/>
<text text-anchor="start" x="544.5" y="-166.45" font-family="Helvetica,sans-Serif" font-size="11.00">bit[1]</text>
<polygon fill="#ffffff" stroke="none" points="393.5,-139.65 393.5,-159.15 473.5,-159.15 473.5,-139.65 393.5,-139.65"/>
<polygon fill="none" stroke="black" points="393.5,-139.65 393.5,-159.15 473.5,-159.15 473.5,-139.65 393.5,-139.65"/>
<text text-anchor="start" x="396.5" y="-145.7" font-family="Helvetica,sans-Serif" font-size="11.00">&lt; 2</text>
<polygon fill="#ffffff" stroke="none" points="473.5,-139.65 473.5,-159.15 541.5,-159.15 541.5,-139.65 473.5,-139.65"/>
<polygon fill="none" stroke="black" points="473.5,-139.65 473.5,-159.15 541.5,-159.15 541.5,-139.65 473.5,-139.65"/>
<text text-anchor="start" x="531" y="-145.7" font-family="Helvetica,sans-Serif" font-size="11.00"> &#160;</text>
<polygon fill="#ffffff" stroke="none" points="541.5,-139.65 541.5,-159.15 639.25,-159.15 639.25,-139.65 541.5,-139.65"/>
<polygon fill="none" stroke="black" points="541.5,-139.65 541.5,-159.15 639.25,-159.15 639.25,-139.65 541.5,-139.65"/>
<text text-anchor="start" x="616.75" y="-145.7" font-family="Helvetica,sans-Serif" font-size="11.00">0 &gt;</text>
<polygon fill="none" stroke="black" stroke-width="2" points="392.5,-138.65 392.5,-535.65 650.25,-535.65 650.25,-138.65 392.5,-138.65"/>
</a>
</g>
</g>
<!-- exc_mapping_rule&#45;&gt;doc_property_type -->
<g id="edge9" class="edge">
<title>exc_mapping_rule:w&#45;&gt;doc_property_type:e</title>
<path fill="none" stroke="black" d="M377.05,-436.77C319.61,-460 427.05,-629.9 343.5,-629.9"/>
<polygon fill="black" stroke="black" points="384.28,-435.54 392.77,-437.76 388.56,-434.82 391.84,-434.26 391.84,-434.26 391.84,-434.26 388.56,-434.82 391.57,-430.66 384.28,-435.54"/>
<ellipse fill="none" stroke="black" cx="379.43" cy="-436.37" rx="3.2" ry="3.2"/>
</g>
<!-- exc_mapping_rule&#45;&gt;exc_mapping -->
<g id="edge8" class="edge">
<title>exc_mapping_rule:w&#45;&gt;exc_mapping:e</title>
<path fill="none" stroke="black" d="M376.9,-321.58C318.09,-298.76 415.12,-131.9 331.62,-131.9"/>
<polygon fill="black" stroke="black" points="384.28,-322.79 391.58,-327.65 388.55,-323.5 391.84,-324.04 391.84,-324.04 391.84,-324.04 388.55,-323.5 392.76,-320.54 384.28,-322.79"/>
<ellipse fill="none" stroke="black" cx="379.42" cy="-321.99" rx="3.2" ry="3.2"/>
</g>
</g>
</svg>
