<?xml version="1.0" encoding="UTF-8" standalone="no"?>
<!DOCTYPE svg PUBLIC "-//W3C//DTD SVG 1.1//EN"
 "http://www.w3.org/Graphics/SVG/1.1/DTD/svg11.dtd">
<!-- Generated by graphviz version 12.2.0 (0)
 -->
<!-- Title: oneDegreeRelationshipsDiagram Pages: 1 -->
<svg width="624pt" height="571pt"
 viewBox="0.00 0.00 623.50 571.00" xmlns="http://www.w3.org/2000/svg" xmlns:xlink="http://www.w3.org/1999/xlink">
<g id="graph0" class="graph" transform="scale(1 1) rotate(0) translate(4 567)">
<title>oneDegreeRelationshipsDiagram</title>
<polygon fill="#ffffff" stroke="none" points="-4,4 -4,-567 619.5,-567 619.5,4 -4,4"/>
<text text-anchor="middle" x="79.25" y="-7.05" font-family="Helvetica,sans-Serif" font-size="11.00">Generated by SchemaSpy</text>
<!-- image_metadata_values -->
<g id="node1" class="node">
<title>image_metadata_values</title>
<g id="a_node1"><a xlink:href="../../tables/image_metadata_values.html" xlink:title="image_metadata_values" target="_top">
<polygon fill="#ffffff" stroke="none" points="291.75,-130.25 291.75,-375.25 607.5,-375.25 607.5,-130.25 291.75,-130.25"/>
<polygon fill="#f5f5f5" stroke="none" points="293.75,-349.75 293.75,-373.25 605.5,-373.25 605.5,-349.75 293.75,-349.75"/>
<polygon fill="none" stroke="black" points="293.75,-349.75 293.75,-373.25 605.5,-373.25 605.5,-349.75 293.75,-349.75"/>
<text text-anchor="start" x="298.75" y="-358.8" font-family="Helvetica,sans-Serif" font-weight="bold" font-size="11.00">image_metadata_values</text>
<text text-anchor="start" x="563.75" y="-357.8" font-family="Helvetica,sans-Serif" font-size="11.00">[table]</text>
<polygon fill="none" stroke="black" points="293.75,-327.75 293.75,-349.75 476.75,-349.75 476.75,-327.75 293.75,-327.75"/>
<image xlink:href="../../images/primaryKeys.png" width="11px" height="12px" preserveAspectRatio="xMinYMin meet" x="298.75" y="-344.75"/>
<text text-anchor="start" x="313.75" y="-334.3" font-family="Helvetica,sans-Serif" font-size="11.00">identifier</text>
<polygon fill="none" stroke="black" points="476.75,-327.75 476.75,-349.75 585,-349.75 585,-327.75 476.75,-327.75"/>
<text text-anchor="start" x="479.75" y="-335.05" font-family="Helvetica,sans-Serif" font-size="11.00">varchar[191]</text>
<polygon fill="#ffffff" stroke="none" points="293.75,-305.75 293.75,-327.75 476.75,-327.75 476.75,-305.75 293.75,-305.75"/>
<polygon fill="none" stroke="black" points="293.75,-305.75 293.75,-327.75 476.75,-327.75 476.75,-305.75 293.75,-305.75"/>
<image xlink:href="../../images/foreignKeys.png" width="11px" height="12px" preserveAspectRatio="xMinYMin meet" x="298.75" y="-322.75"/>
<text text-anchor="start" x="313.75" y="-312.3" font-family="Helvetica,sans-Serif" font-size="11.00">doc_unit</text>
<polygon fill="none" stroke="black" points="476.75,-305.75 476.75,-327.75 585,-327.75 585,-305.75 476.75,-305.75"/>
<text text-anchor="start" x="479.75" y="-313.05" font-family="Helvetica,sans-Serif" font-size="11.00">varchar[191]</text>
<polygon fill="#ffffff" stroke="none" points="293.75,-283.75 293.75,-305.75 476.75,-305.75 476.75,-283.75 293.75,-283.75"/>
<polygon fill="none" stroke="black" points="293.75,-283.75 293.75,-305.75 476.75,-305.75 476.75,-283.75 293.75,-283.75"/>
<image xlink:href="../../images/foreignKeys.png" width="11px" height="12px" preserveAspectRatio="xMinYMin meet" x="298.75" y="-300.75"/>
<text text-anchor="start" x="313.75" y="-290.3" font-family="Helvetica,sans-Serif" font-size="11.00">metadata</text>
<polygon fill="none" stroke="black" points="476.75,-283.75 476.75,-305.75 585,-305.75 585,-283.75 476.75,-283.75"/>
<text text-anchor="start" x="479.75" y="-291.05" font-family="Helvetica,sans-Serif" font-size="11.00">varchar[191]</text>
<polygon fill="none" stroke="black" points="293.75,-261.75 293.75,-283.75 476.75,-283.75 476.75,-261.75 293.75,-261.75"/>
<text text-anchor="start" x="313.75" y="-268.3" font-family="Helvetica,sans-Serif" font-size="11.00">value</text>
<polygon fill="none" stroke="black" points="476.75,-261.75 476.75,-283.75 585,-283.75 585,-261.75 476.75,-261.75"/>
<text text-anchor="start" x="479.75" y="-269.05" font-family="Helvetica,sans-Serif" font-size="11.00">varchar[255]</text>
<polygon fill="none" stroke="black" points="293.75,-239.75 293.75,-261.75 476.75,-261.75 476.75,-239.75 293.75,-239.75"/>
<text text-anchor="start" x="313.75" y="-246.3" font-family="Helvetica,sans-Serif" font-size="11.00">version</text>
<polygon fill="none" stroke="black" points="476.75,-239.75 476.75,-261.75 585,-261.75 585,-239.75 476.75,-239.75"/>
<text text-anchor="start" x="479.75" y="-247.05" font-family="Helvetica,sans-Serif" font-size="11.00">bigint[19]</text>
<polygon fill="none" stroke="black" points="293.75,-217.75 293.75,-239.75 476.75,-239.75 476.75,-217.75 293.75,-217.75"/>
<text text-anchor="start" x="313.75" y="-224.3" font-family="Helvetica,sans-Serif" font-size="11.00">created_by</text>
<polygon fill="none" stroke="black" points="476.75,-217.75 476.75,-239.75 585,-239.75 585,-217.75 476.75,-217.75"/>
<text text-anchor="start" x="479.75" y="-225.05" font-family="Helvetica,sans-Serif" font-size="11.00">varchar[191]</text>
<polygon fill="none" stroke="black" points="293.75,-195.75 293.75,-217.75 476.75,-217.75 476.75,-195.75 293.75,-195.75"/>
<text text-anchor="start" x="313.75" y="-202.3" font-family="Helvetica,sans-Serif" font-size="11.00">last_modified_by</text>
<polygon fill="none" stroke="black" points="476.75,-195.75 476.75,-217.75 585,-217.75 585,-195.75 476.75,-195.75"/>
<text text-anchor="start" x="479.75" y="-203.05" font-family="Helvetica,sans-Serif" font-size="11.00">varchar[191]</text>
<polygon fill="none" stroke="black" points="293.75,-173.75 293.75,-195.75 476.75,-195.75 476.75,-173.75 293.75,-173.75"/>
<text text-anchor="start" x="313.75" y="-180.3" font-family="Helvetica,sans-Serif" font-size="11.00">created_date</text>
<polygon fill="none" stroke="black" points="476.75,-173.75 476.75,-195.75 585,-195.75 585,-173.75 476.75,-173.75"/>
<text text-anchor="start" x="479.75" y="-181.05" font-family="Helvetica,sans-Serif" font-size="11.00">timestamp[19]</text>
<polygon fill="none" stroke="black" points="293.75,-151.75 293.75,-173.75 476.75,-173.75 476.75,-151.75 293.75,-151.75"/>
<text text-anchor="start" x="313.75" y="-158.3" font-family="Helvetica,sans-Serif" font-size="11.00">last_modified_date</text>
<polygon fill="none" stroke="black" points="476.75,-151.75 476.75,-173.75 585,-173.75 585,-151.75 476.75,-151.75"/>
<text text-anchor="start" x="479.75" y="-159.05" font-family="Helvetica,sans-Serif" font-size="11.00">timestamp[19]</text>
<polygon fill="#ffffff" stroke="none" points="293.75,-132.25 293.75,-151.75 391.25,-151.75 391.25,-132.25 293.75,-132.25"/>
<polygon fill="none" stroke="black" points="293.75,-132.25 293.75,-151.75 391.25,-151.75 391.25,-132.25 293.75,-132.25"/>
<text text-anchor="start" x="296.75" y="-138.3" font-family="Helvetica,sans-Serif" font-size="11.00">&lt; 2</text>
<polygon fill="#ffffff" stroke="none" points="391.25,-132.25 391.25,-151.75 476.75,-151.75 476.75,-132.25 391.25,-132.25"/>
<polygon fill="none" stroke="black" points="391.25,-132.25 391.25,-151.75 476.75,-151.75 476.75,-132.25 391.25,-132.25"/>
<text text-anchor="start" x="466.25" y="-138.3" font-family="Helvetica,sans-Serif" font-size="11.00"> &#160;</text>
<polygon fill="#ffffff" stroke="none" points="476.75,-132.25 476.75,-151.75 585,-151.75 585,-132.25 476.75,-132.25"/>
<polygon fill="none" stroke="black" points="476.75,-132.25 476.75,-151.75 585,-151.75 585,-132.25 476.75,-132.25"/>
<text text-anchor="start" x="562.5" y="-138.3" font-family="Helvetica,sans-Serif" font-size="11.00">0 &gt;</text>
<polygon fill="none" stroke="black" stroke-width="2" points="292.75,-131.25 292.75,-374.25 606.5,-374.25 606.5,-131.25 292.75,-131.25"/>
</a>
</g>
</g>
<!-- doc_unit -->
<g id="node2" class="node">
<title>doc_unit</title>
<g id="a_node2"><a xlink:href="../../tables/doc_unit.html" xlink:title="doc_unit" target="_top">
<polygon fill="#ffffff" stroke="none" points="31.88,-144.5 31.88,-559 218.88,-559 218.88,-144.5 31.88,-144.5"/>
<polygon fill="#f5f5f5" stroke="none" points="31.88,-535.5 31.88,-559 218.88,-559 218.88,-535.5 31.88,-535.5"/>
<polygon fill="none" stroke="black" points="31.88,-535.5 31.88,-559 218.88,-559 218.88,-535.5 31.88,-535.5"/>
<text text-anchor="start" x="36.88" y="-544.55" font-family="Helvetica,sans-Serif" font-weight="bold" font-size="11.00">doc_unit</text>
<text text-anchor="start" x="177.12" y="-543.55" font-family="Helvetica,sans-Serif" font-size="11.00">[table]</text>
<polygon fill="none" stroke="black" points="31.88,-513.5 31.88,-535.5 218.88,-535.5 218.88,-513.5 31.88,-513.5"/>
<image xlink:href="../../images/primaryKeys.png" width="11px" height="12px" preserveAspectRatio="xMinYMin meet" x="36.875" y="-530.5"/>
<text text-anchor="start" x="51.88" y="-520.05" font-family="Helvetica,sans-Serif" font-size="11.00">identifier</text>
<polygon fill="#ffffff" stroke="none" points="31.88,-491.5 31.88,-513.5 218.88,-513.5 218.88,-491.5 31.88,-491.5"/>
<polygon fill="none" stroke="black" points="31.88,-491.5 31.88,-513.5 218.88,-513.5 218.88,-491.5 31.88,-491.5"/>
<text text-anchor="start" x="51.88" y="-498.05" font-family="Helvetica,sans-Serif" font-size="11.00">pgcn_id</text>
<polygon fill="#ffffff" stroke="none" points="31.88,-469.5 31.88,-491.5 218.88,-491.5 218.88,-469.5 31.88,-469.5"/>
<polygon fill="none" stroke="black" points="31.88,-469.5 31.88,-491.5 218.88,-491.5 218.88,-469.5 31.88,-469.5"/>
<image xlink:href="../../images/foreignKeys.png" width="11px" height="12px" preserveAspectRatio="xMinYMin meet" x="36.875" y="-486.5"/>
<text text-anchor="start" x="51.88" y="-476.05" font-family="Helvetica,sans-Serif" font-size="11.00">library</text>
<polygon fill="#ffffff" stroke="none" points="31.88,-447.5 31.88,-469.5 218.88,-469.5 218.88,-447.5 31.88,-447.5"/>
<polygon fill="none" stroke="black" points="31.88,-447.5 31.88,-469.5 218.88,-469.5 218.88,-447.5 31.88,-447.5"/>
<image xlink:href="../../images/foreignKeys.png" width="11px" height="12px" preserveAspectRatio="xMinYMin meet" x="36.875" y="-464.5"/>
<text text-anchor="start" x="51.88" y="-454.05" font-family="Helvetica,sans-Serif" font-size="11.00">project</text>
<polygon fill="#ffffff" stroke="none" points="31.88,-425.5 31.88,-447.5 218.88,-447.5 218.88,-425.5 31.88,-425.5"/>
<polygon fill="none" stroke="black" points="31.88,-425.5 31.88,-447.5 218.88,-447.5 218.88,-425.5 31.88,-425.5"/>
<text text-anchor="start" x="51.88" y="-432.05" font-family="Helvetica,sans-Serif" font-size="11.00">state</text>
<polygon fill="#ffffff" stroke="none" points="31.88,-403.5 31.88,-425.5 218.88,-425.5 218.88,-403.5 31.88,-403.5"/>
<polygon fill="none" stroke="black" points="31.88,-403.5 31.88,-425.5 218.88,-425.5 218.88,-403.5 31.88,-403.5"/>
<image xlink:href="../../images/foreignKeys.png" width="11px" height="12px" preserveAspectRatio="xMinYMin meet" x="36.875" y="-420.5"/>
<text text-anchor="start" x="51.88" y="-410.05" font-family="Helvetica,sans-Serif" font-size="11.00">lot</text>
<polygon fill="#ffffff" stroke="none" points="31.88,-381.5 31.88,-403.5 218.88,-403.5 218.88,-381.5 31.88,-381.5"/>
<polygon fill="none" stroke="black" points="31.88,-381.5 31.88,-403.5 218.88,-403.5 218.88,-381.5 31.88,-381.5"/>
<image xlink:href="../../images/foreignKeys.png" width="11px" height="12px" preserveAspectRatio="xMinYMin meet" x="36.875" y="-398.5"/>
<text text-anchor="start" x="51.88" y="-388.05" font-family="Helvetica,sans-Serif" font-size="11.00">collection_omeka</text>
<polygon fill="#ffffff" stroke="none" points="31.88,-359.5 31.88,-381.5 218.88,-381.5 218.88,-359.5 31.88,-359.5"/>
<polygon fill="none" stroke="black" points="31.88,-359.5 31.88,-381.5 218.88,-381.5 218.88,-359.5 31.88,-359.5"/>
<image xlink:href="../../images/foreignKeys.png" width="11px" height="12px" preserveAspectRatio="xMinYMin meet" x="36.875" y="-376.5"/>
<text text-anchor="start" x="51.88" y="-366.05" font-family="Helvetica,sans-Serif" font-size="11.00">items_omeka</text>
<polygon fill="#ffffff" stroke="none" points="31.88,-337.5 31.88,-359.5 218.88,-359.5 218.88,-337.5 31.88,-337.5"/>
<polygon fill="none" stroke="black" points="31.88,-337.5 31.88,-359.5 218.88,-359.5 218.88,-337.5 31.88,-337.5"/>
<image xlink:href="../../images/foreignKeys.png" width="11px" height="12px" preserveAspectRatio="xMinYMin meet" x="36.875" y="-354.5"/>
<text text-anchor="start" x="51.88" y="-344.05" font-family="Helvetica,sans-Serif" font-size="11.00">parent</text>
<polygon fill="#ffffff" stroke="none" points="31.88,-315.5 31.88,-337.5 218.88,-337.5 218.88,-315.5 31.88,-315.5"/>
<polygon fill="none" stroke="black" points="31.88,-315.5 31.88,-337.5 218.88,-337.5 218.88,-315.5 31.88,-315.5"/>
<image xlink:href="../../images/foreignKeys.png" width="11px" height="12px" preserveAspectRatio="xMinYMin meet" x="36.875" y="-332.5"/>
<text text-anchor="start" x="51.88" y="-322.05" font-family="Helvetica,sans-Serif" font-size="11.00">active_ocr_lang</text>
<polygon fill="#ffffff" stroke="none" points="31.88,-293.5 31.88,-315.5 218.88,-315.5 218.88,-293.5 31.88,-293.5"/>
<polygon fill="none" stroke="black" points="31.88,-293.5 31.88,-315.5 218.88,-315.5 218.88,-293.5 31.88,-293.5"/>
<image xlink:href="../../images/foreignKeys.png" width="11px" height="12px" preserveAspectRatio="xMinYMin meet" x="36.875" y="-310.5"/>
<text text-anchor="start" x="51.88" y="-300.05" font-family="Helvetica,sans-Serif" font-size="11.00">collection_ia</text>
<polygon fill="#ffffff" stroke="none" points="31.88,-271.5 31.88,-293.5 218.88,-293.5 218.88,-271.5 31.88,-271.5"/>
<polygon fill="none" stroke="black" points="31.88,-271.5 31.88,-293.5 218.88,-293.5 218.88,-271.5 31.88,-271.5"/>
<image xlink:href="../../images/foreignKeys.png" width="11px" height="12px" preserveAspectRatio="xMinYMin meet" x="36.875" y="-288.5"/>
<text text-anchor="start" x="51.88" y="-278.05" font-family="Helvetica,sans-Serif" font-size="11.00">classement_pac</text>
<polygon fill="#ffffff" stroke="none" points="31.88,-249.5 31.88,-271.5 218.88,-271.5 218.88,-249.5 31.88,-249.5"/>
<polygon fill="none" stroke="black" points="31.88,-249.5 31.88,-271.5 218.88,-271.5 218.88,-249.5 31.88,-249.5"/>
<image xlink:href="../../images/foreignKeys.png" width="11px" height="12px" preserveAspectRatio="xMinYMin meet" x="36.875" y="-266.5"/>
<text text-anchor="start" x="51.88" y="-256.05" font-family="Helvetica,sans-Serif" font-size="11.00">sibling</text>
<polygon fill="#ffffff" stroke="none" points="31.88,-227.5 31.88,-249.5 218.88,-249.5 218.88,-227.5 31.88,-227.5"/>
<polygon fill="none" stroke="black" points="31.88,-227.5 31.88,-249.5 218.88,-249.5 218.88,-227.5 31.88,-227.5"/>
<image xlink:href="../../images/foreignKeys.png" width="11px" height="12px" preserveAspectRatio="xMinYMin meet" x="36.875" y="-244.5"/>
<text text-anchor="start" x="51.88" y="-234.05" font-family="Helvetica,sans-Serif" font-size="11.00">export_data</text>
<polygon fill="#ffffff" stroke="none" points="31.88,-205.5 31.88,-227.5 218.88,-227.5 218.88,-205.5 31.88,-205.5"/>
<polygon fill="none" stroke="black" points="31.88,-205.5 31.88,-227.5 218.88,-227.5 218.88,-205.5 31.88,-205.5"/>
<image xlink:href="../../images/foreignKeys.png" width="11px" height="12px" preserveAspectRatio="xMinYMin meet" x="36.875" y="-222.5"/>
<text text-anchor="start" x="51.88" y="-212.05" font-family="Helvetica,sans-Serif" font-size="11.00">archive_item</text>
<polygon fill="#ffffff" stroke="none" points="31.88,-183.5 31.88,-205.5 218.88,-205.5 218.88,-183.5 31.88,-183.5"/>
<polygon fill="none" stroke="black" points="31.88,-183.5 31.88,-205.5 218.88,-205.5 218.88,-183.5 31.88,-183.5"/>
<image xlink:href="../../images/foreignKeys.png" width="11px" height="12px" preserveAspectRatio="xMinYMin meet" x="36.875" y="-200.5"/>
<text text-anchor="start" x="51.88" y="-190.05" font-family="Helvetica,sans-Serif" font-size="11.00">workflow</text>
<polygon fill="none" stroke="black" points="31.88,-164 31.88,-183.5 218.88,-183.5 218.88,-164 31.88,-164"/>
<text text-anchor="start" x="34.88" y="-170.05" font-family="Helvetica,sans-Serif" font-size="11.00">...</text>
<polygon fill="#ffffff" stroke="none" points="31.88,-144.5 31.88,-164 100.46,-164 100.46,-144.5 31.88,-144.5"/>
<polygon fill="none" stroke="black" points="31.88,-144.5 31.88,-164 100.46,-164 100.46,-144.5 31.88,-144.5"/>
<text text-anchor="start" x="34.88" y="-150.55" font-family="Helvetica,sans-Serif" font-size="11.00">&lt; 13</text>
<polygon fill="#ffffff" stroke="none" points="100.46,-144.5 100.46,-164 150.29,-164 150.29,-144.5 100.46,-144.5"/>
<polygon fill="none" stroke="black" points="100.46,-144.5 100.46,-164 150.29,-164 150.29,-144.5 100.46,-144.5"/>
<text text-anchor="start" x="139.79" y="-150.55" font-family="Helvetica,sans-Serif" font-size="11.00"> &#160;</text>
<polygon fill="#ffffff" stroke="none" points="150.29,-144.5 150.29,-164 218.88,-164 218.88,-144.5 150.29,-144.5"/>
<polygon fill="none" stroke="black" points="150.29,-144.5 150.29,-164 218.88,-164 218.88,-144.5 150.29,-144.5"/>
<text text-anchor="start" x="189.62" y="-150.55" font-family="Helvetica,sans-Serif" font-size="11.00">11 &gt;</text>
</a>
</g>
</g>
<!-- image_metadata_values&#45;&gt;doc_unit -->
<g id="edge1" class="edge">
<title>image_metadata_values:w&#45;&gt;doc_unit:e</title>
<path fill="none" stroke="black" d="M277.31,-318.94C208.96,-341.15 311.8,-524.5 219.88,-524.5"/>
<polygon fill="black" stroke="black" points="284.5,-317.92 292.92,-320.36 288.79,-317.31 292.09,-316.84 292.09,-316.84 292.09,-316.84 288.79,-317.31 291.91,-313.23 284.5,-317.92"/>
<ellipse fill="none" stroke="black" cx="279.63" cy="-318.61" rx="3.2" ry="3.2"/>
</g>
<!-- image_metadata_properties -->
<g id="node3" class="node">
<title>image_metadata_properties</title>
<g id="a_node3"><a xlink:href="../../tables/image_metadata_properties.html" xlink:title="image_metadata_properties" target="_top">
<polygon fill="#ffffff" stroke="none" points="8,-38.5 8,-123 242.75,-123 242.75,-38.5 8,-38.5"/>
<polygon fill="#f5f5f5" stroke="none" points="8,-99.5 8,-123 242.75,-123 242.75,-99.5 8,-99.5"/>
<polygon fill="none" stroke="black" points="8,-99.5 8,-123 242.75,-123 242.75,-99.5 8,-99.5"/>
<text text-anchor="start" x="13" y="-108.55" font-family="Helvetica,sans-Serif" font-weight="bold" font-size="11.00">image_metadata_properties</text>
<text text-anchor="start" x="201" y="-107.55" font-family="Helvetica,sans-Serif" font-size="11.00">[table]</text>
<polygon fill="none" stroke="black" points="8,-77.5 8,-99.5 242.75,-99.5 242.75,-77.5 8,-77.5"/>
<image xlink:href="../../images/primaryKeys.png" width="11px" height="12px" preserveAspectRatio="xMinYMin meet" x="13" y="-94.5"/>
<text text-anchor="start" x="40.88" y="-84.05" font-family="Helvetica,sans-Serif" font-size="11.00">identifier</text>
<polygon fill="none" stroke="black" points="8,-58 8,-77.5 242.75,-77.5 242.75,-58 8,-58"/>
<text text-anchor="start" x="11" y="-64.05" font-family="Helvetica,sans-Serif" font-size="11.00">...</text>
<polygon fill="#ffffff" stroke="none" points="8,-38.5 8,-58 82.25,-58 82.25,-38.5 8,-38.5"/>
<polygon fill="none" stroke="black" points="8,-38.5 8,-58 82.25,-58 82.25,-38.5 8,-38.5"/>
<text text-anchor="start" x="11" y="-44.55" font-family="Helvetica,sans-Serif" font-size="11.00"> &#160;</text>
<polygon fill="#ffffff" stroke="none" points="82.25,-38.5 82.25,-58 156.5,-58 156.5,-38.5 82.25,-38.5"/>
<polygon fill="none" stroke="black" points="82.25,-38.5 82.25,-58 156.5,-58 156.5,-38.5 82.25,-38.5"/>
<text text-anchor="start" x="146" y="-44.55" font-family="Helvetica,sans-Serif" font-size="11.00"> &#160;</text>
<polygon fill="#ffffff" stroke="none" points="156.5,-38.5 156.5,-58 242.75,-58 242.75,-38.5 156.5,-38.5"/>
<polygon fill="none" stroke="black" points="156.5,-38.5 156.5,-58 242.75,-58 242.75,-38.5 156.5,-38.5"/>
<text text-anchor="start" x="220.25" y="-44.55" font-family="Helvetica,sans-Serif" font-size="11.00">1 &gt;</text>
</a>
</g>
</g>
<!-- image_metadata_values&#45;&gt;image_metadata_properties -->
<g id="edge2" class="edge">
<title>image_metadata_values:w&#45;&gt;image_metadata_properties:e</title>
<path fill="none" stroke="black" d="M277.32,-292.29C215.54,-269.02 331.9,-88.5 243.75,-88.5"/>
<polygon fill="black" stroke="black" points="284.52,-293.44 291.85,-298.25 288.8,-294.12 292.09,-294.64 292.09,-294.64 292.09,-294.64 288.8,-294.12 292.99,-291.14 284.52,-293.44"/>
<ellipse fill="none" stroke="black" cx="279.66" cy="-292.66" rx="3.2" ry="3.2"/>
</g>
</g>
</svg>
