<?xml version="1.0" encoding="UTF-8" standalone="no"?>
<!DOCTYPE svg PUBLIC "-//W3C//DTD SVG 1.1//EN"
 "http://www.w3.org/Graphics/SVG/1.1/DTD/svg11.dtd">
<!-- Generated by graphviz version 12.2.0 (0)
 -->
<!-- Title: twoDegreesRelationshipsDiagram Pages: 1 -->
<svg width="1718pt" height="1046pt"
 viewBox="0.00 0.00 1718.02 1045.78" xmlns="http://www.w3.org/2000/svg" xmlns:xlink="http://www.w3.org/1999/xlink">
<g id="graph0" class="graph" transform="scale(1 1) rotate(0) translate(4 1041.78)">
<title>twoDegreesRelationshipsDiagram</title>
<polygon fill="#ffffff" stroke="none" points="-4,4 -4,-1041.78 1714.02,-1041.78 1714.02,4 -4,4"/>
<text text-anchor="middle" x="79.25" y="-7.05" font-family="Helvetica,sans-Serif" font-size="11.00">Generated by SchemaSpy</text>
<!-- conf_configuration_check -->
<g id="node1" class="node">
<title>conf_configuration_check</title>
<g id="a_node1"><a xlink:href="../../tables/conf_configuration_check.html" xlink:title="conf_configuration_check" target="_top">
<polygon fill="#ffffff" stroke="none" points="419.52,-361.05 419.52,-423.55 637.27,-423.55 637.27,-361.05 419.52,-361.05"/>
<polygon fill="#f5f5f5" stroke="none" points="419.52,-400.05 419.52,-423.55 637.27,-423.55 637.27,-400.05 419.52,-400.05"/>
<polygon fill="none" stroke="black" points="419.52,-400.05 419.52,-423.55 637.27,-423.55 637.27,-400.05 419.52,-400.05"/>
<text text-anchor="start" x="424.52" y="-409.1" font-family="Helvetica,sans-Serif" font-weight="bold" font-size="11.00">conf_configuration_check</text>
<text text-anchor="start" x="595.52" y="-408.1" font-family="Helvetica,sans-Serif" font-size="11.00">[table]</text>
<polygon fill="none" stroke="black" points="419.52,-380.55 419.52,-400.05 637.27,-400.05 637.27,-380.55 419.52,-380.55"/>
<text text-anchor="start" x="422.52" y="-386.6" font-family="Helvetica,sans-Serif" font-size="11.00">...</text>
<polygon fill="#ffffff" stroke="none" points="419.52,-361.05 419.52,-380.55 496.11,-380.55 496.11,-361.05 419.52,-361.05"/>
<polygon fill="none" stroke="black" points="419.52,-361.05 419.52,-380.55 496.11,-380.55 496.11,-361.05 419.52,-361.05"/>
<text text-anchor="start" x="422.52" y="-367.1" font-family="Helvetica,sans-Serif" font-size="11.00">&lt; 1</text>
<polygon fill="#ffffff" stroke="none" points="496.11,-361.05 496.11,-380.55 560.69,-380.55 560.69,-361.05 496.11,-361.05"/>
<polygon fill="none" stroke="black" points="496.11,-361.05 496.11,-380.55 560.69,-380.55 560.69,-361.05 496.11,-361.05"/>
<text text-anchor="start" x="550.19" y="-367.1" font-family="Helvetica,sans-Serif" font-size="11.00"> &#160;</text>
<polygon fill="#ffffff" stroke="none" points="560.69,-361.05 560.69,-380.55 637.27,-380.55 637.27,-361.05 560.69,-361.05"/>
<polygon fill="none" stroke="black" points="560.69,-361.05 560.69,-380.55 637.27,-380.55 637.27,-361.05 560.69,-361.05"/>
<text text-anchor="start" x="614.77" y="-367.1" font-family="Helvetica,sans-Serif" font-size="11.00">4 &gt;</text>
</a>
</g>
</g>
<!-- lib_library -->
<g id="node2" class="node">
<title>lib_library</title>
<g id="a_node2"><a xlink:href="../../tables/lib_library.html" xlink:title="lib_library" target="_top">
<polygon fill="#ffffff" stroke="none" points="256.77,-334.05 256.77,-396.55 370.52,-396.55 370.52,-334.05 256.77,-334.05"/>
<polygon fill="#f5f5f5" stroke="none" points="256.77,-373.05 256.77,-396.55 370.52,-396.55 370.52,-373.05 256.77,-373.05"/>
<polygon fill="none" stroke="black" points="256.77,-373.05 256.77,-396.55 370.52,-396.55 370.52,-373.05 256.77,-373.05"/>
<text text-anchor="start" x="261.77" y="-382.1" font-family="Helvetica,sans-Serif" font-weight="bold" font-size="11.00">lib_library</text>
<text text-anchor="start" x="328.77" y="-381.1" font-family="Helvetica,sans-Serif" font-size="11.00">[table]</text>
<polygon fill="none" stroke="black" points="256.77,-353.55 256.77,-373.05 370.52,-373.05 370.52,-353.55 256.77,-353.55"/>
<text text-anchor="start" x="259.77" y="-359.6" font-family="Helvetica,sans-Serif" font-size="11.00">...</text>
<polygon fill="#ffffff" stroke="none" points="256.77,-334.05 256.77,-353.55 296.44,-353.55 296.44,-334.05 256.77,-334.05"/>
<polygon fill="none" stroke="black" points="256.77,-334.05 256.77,-353.55 296.44,-353.55 296.44,-334.05 256.77,-334.05"/>
<text text-anchor="start" x="259.77" y="-340.1" font-family="Helvetica,sans-Serif" font-size="11.00">&lt; 6</text>
<polygon fill="#ffffff" stroke="none" points="296.44,-334.05 296.44,-353.55 324.11,-353.55 324.11,-334.05 296.44,-334.05"/>
<polygon fill="none" stroke="black" points="296.44,-334.05 296.44,-353.55 324.11,-353.55 324.11,-334.05 296.44,-334.05"/>
<text text-anchor="start" x="313.61" y="-340.1" font-family="Helvetica,sans-Serif" font-size="11.00"> &#160;</text>
<polygon fill="#ffffff" stroke="none" points="324.11,-334.05 324.11,-353.55 370.52,-353.55 370.52,-334.05 324.11,-334.05"/>
<polygon fill="none" stroke="black" points="324.11,-334.05 324.11,-353.55 370.52,-353.55 370.52,-334.05 324.11,-334.05"/>
<text text-anchor="start" x="341.27" y="-340.1" font-family="Helvetica,sans-Serif" font-size="11.00">27 &gt;</text>
</a>
</g>
</g>
<!-- conf_configuration_check&#45;&gt;lib_library -->
<g id="edge1" class="edge">
<title>conf_configuration_check:w&#45;&gt;lib_library:e</title>
<path fill="none" stroke="black" d="M403.73,-385.59C393.28,-377.86 389.21,-363.3 371.52,-363.3"/>
<polygon fill="black" stroke="black" points="410.58,-387.77 417.11,-393.63 414.71,-389.09 417.89,-390.09 417.89,-390.09 417.89,-390.09 414.71,-389.09 419.29,-386.76 410.58,-387.77"/>
<ellipse fill="none" stroke="black" cx="405.89" cy="-386.28" rx="3.2" ry="3.2"/>
</g>
<!-- lib_library&#45;&gt;conf_configuration_check -->
<g id="edge18" class="edge">
<title>lib_library:w&#45;&gt;conf_configuration_check:e</title>
<path fill="none" stroke="black" d="M246.75,-350.53C247.52,-343.51 251.47,-335.2 256.77,-330.05 295.61,-292.36 325.82,-317.78 378.52,-330.05 394.45,-333.75 395.69,-342.21 411.52,-346.3 435.84,-352.57 619.67,-339.14 637.27,-357.05 647.64,-367.59 653.06,-390.3 638.27,-390.3"/>
<polygon fill="black" stroke="black" points="250.96,-356.49 252.64,-365.1 253.46,-360.03 255.39,-362.75 255.39,-362.75 255.39,-362.75 253.46,-360.03 258.52,-360.95 250.96,-356.49"/>
<ellipse fill="none" stroke="black" cx="248.12" cy="-352.48" rx="3.2" ry="3.2"/>
</g>
<!-- conf_configuration_ftp -->
<g id="node3" class="node">
<title>conf_configuration_ftp</title>
<g id="a_node3"><a xlink:href="../../tables/conf_configuration_ftp.html" xlink:title="conf_configuration_ftp" target="_top">
<polygon fill="#ffffff" stroke="none" points="10.02,-334.05 10.02,-396.55 207.77,-396.55 207.77,-334.05 10.02,-334.05"/>
<polygon fill="#f5f5f5" stroke="none" points="10.02,-373.05 10.02,-396.55 207.77,-396.55 207.77,-373.05 10.02,-373.05"/>
<polygon fill="none" stroke="black" points="10.02,-373.05 10.02,-396.55 207.77,-396.55 207.77,-373.05 10.02,-373.05"/>
<text text-anchor="start" x="15.02" y="-382.1" font-family="Helvetica,sans-Serif" font-weight="bold" font-size="11.00">conf_configuration_ftp</text>
<text text-anchor="start" x="166.02" y="-381.1" font-family="Helvetica,sans-Serif" font-size="11.00">[table]</text>
<polygon fill="none" stroke="black" points="10.02,-353.55 10.02,-373.05 207.77,-373.05 207.77,-353.55 10.02,-353.55"/>
<text text-anchor="start" x="13.02" y="-359.6" font-family="Helvetica,sans-Serif" font-size="11.00">...</text>
<polygon fill="#ffffff" stroke="none" points="10.02,-334.05 10.02,-353.55 79.94,-353.55 79.94,-334.05 10.02,-334.05"/>
<polygon fill="none" stroke="black" points="10.02,-334.05 10.02,-353.55 79.94,-353.55 79.94,-334.05 10.02,-334.05"/>
<text text-anchor="start" x="13.02" y="-340.1" font-family="Helvetica,sans-Serif" font-size="11.00">&lt; 1</text>
<polygon fill="#ffffff" stroke="none" points="79.94,-334.05 79.94,-353.55 137.86,-353.55 137.86,-334.05 79.94,-334.05"/>
<polygon fill="none" stroke="black" points="79.94,-334.05 79.94,-353.55 137.86,-353.55 137.86,-334.05 79.94,-334.05"/>
<text text-anchor="start" x="127.36" y="-340.1" font-family="Helvetica,sans-Serif" font-size="11.00"> &#160;</text>
<polygon fill="#ffffff" stroke="none" points="137.86,-334.05 137.86,-353.55 207.77,-353.55 207.77,-334.05 137.86,-334.05"/>
<polygon fill="none" stroke="black" points="137.86,-334.05 137.86,-353.55 207.77,-353.55 207.77,-334.05 137.86,-334.05"/>
<text text-anchor="start" x="185.27" y="-340.1" font-family="Helvetica,sans-Serif" font-size="11.00">3 &gt;</text>
</a>
</g>
</g>
<!-- lib_library&#45;&gt;conf_configuration_ftp -->
<g id="edge20" class="edge">
<title>lib_library:w&#45;&gt;conf_configuration_ftp:e</title>
<path fill="none" stroke="black" d="M240.16,-363.3C230.25,-363.3 223.3,-363.3 208.77,-363.3"/>
<polygon fill="black" stroke="black" points="247.44,-363.3 255.44,-366.9 251.77,-363.3 255.1,-363.3 255.1,-363.3 255.1,-363.3 251.77,-363.3 255.44,-359.7 247.44,-363.3"/>
<ellipse fill="none" stroke="black" cx="242.52" cy="-363.3" rx="3.2" ry="3.2"/>
</g>
<!-- conf_export_ftp -->
<g id="node5" class="node">
<title>conf_export_ftp</title>
<g id="a_node5"><a xlink:href="../../tables/conf_export_ftp.html" xlink:title="conf_export_ftp" target="_top">
<polygon fill="#ffffff" stroke="none" points="33.02,-445.05 33.02,-507.55 184.77,-507.55 184.77,-445.05 33.02,-445.05"/>
<polygon fill="#f5f5f5" stroke="none" points="33.02,-484.05 33.02,-507.55 184.77,-507.55 184.77,-484.05 33.02,-484.05"/>
<polygon fill="none" stroke="black" points="33.02,-484.05 33.02,-507.55 184.77,-507.55 184.77,-484.05 33.02,-484.05"/>
<text text-anchor="start" x="38.02" y="-493.1" font-family="Helvetica,sans-Serif" font-weight="bold" font-size="11.00">conf_export_ftp</text>
<text text-anchor="start" x="143.02" y="-492.1" font-family="Helvetica,sans-Serif" font-size="11.00">[table]</text>
<polygon fill="none" stroke="black" points="33.02,-464.55 33.02,-484.05 184.77,-484.05 184.77,-464.55 33.02,-464.55"/>
<text text-anchor="start" x="36.02" y="-470.6" font-family="Helvetica,sans-Serif" font-size="11.00">...</text>
<polygon fill="#ffffff" stroke="none" points="33.02,-445.05 33.02,-464.55 87.61,-464.55 87.61,-445.05 33.02,-445.05"/>
<polygon fill="none" stroke="black" points="33.02,-445.05 33.02,-464.55 87.61,-464.55 87.61,-445.05 33.02,-445.05"/>
<text text-anchor="start" x="36.02" y="-451.1" font-family="Helvetica,sans-Serif" font-size="11.00">&lt; 1</text>
<polygon fill="#ffffff" stroke="none" points="87.61,-445.05 87.61,-464.55 130.19,-464.55 130.19,-445.05 87.61,-445.05"/>
<polygon fill="none" stroke="black" points="87.61,-445.05 87.61,-464.55 130.19,-464.55 130.19,-445.05 87.61,-445.05"/>
<text text-anchor="start" x="119.69" y="-451.1" font-family="Helvetica,sans-Serif" font-size="11.00"> &#160;</text>
<polygon fill="#ffffff" stroke="none" points="130.19,-445.05 130.19,-464.55 184.77,-464.55 184.77,-445.05 130.19,-445.05"/>
<polygon fill="none" stroke="black" points="130.19,-445.05 130.19,-464.55 184.77,-464.55 184.77,-445.05 130.19,-445.05"/>
<text text-anchor="start" x="162.27" y="-451.1" font-family="Helvetica,sans-Serif" font-size="11.00">5 &gt;</text>
</a>
</g>
</g>
<!-- lib_library&#45;&gt;conf_export_ftp -->
<g id="edge19" class="edge">
<title>lib_library:w&#45;&gt;conf_export_ftp:e</title>
<path fill="none" stroke="black" d="M240.58,-366.74C206.12,-385.48 237.95,-474.3 185.77,-474.3"/>
<polygon fill="black" stroke="black" points="247.64,-365.14 256.24,-366.88 251.87,-364.18 255.12,-363.44 255.12,-363.44 255.12,-363.44 251.87,-364.18 254.65,-359.86 247.64,-365.14"/>
<ellipse fill="none" stroke="black" cx="242.85" cy="-366.23" rx="3.2" ry="3.2"/>
</g>
<!-- user_address -->
<g id="node15" class="node">
<title>user_address</title>
<g id="a_node15"><a xlink:href="../../tables/user_address.html" xlink:title="user_address" target="_top">
<polygon fill="#ffffff" stroke="none" points="41.02,-238.05 41.02,-300.55 176.77,-300.55 176.77,-238.05 41.02,-238.05"/>
<polygon fill="#f5f5f5" stroke="none" points="41.02,-277.05 41.02,-300.55 176.77,-300.55 176.77,-277.05 41.02,-277.05"/>
<polygon fill="none" stroke="black" points="41.02,-277.05 41.02,-300.55 176.77,-300.55 176.77,-277.05 41.02,-277.05"/>
<text text-anchor="start" x="46.02" y="-286.1" font-family="Helvetica,sans-Serif" font-weight="bold" font-size="11.00">user_address</text>
<text text-anchor="start" x="135.02" y="-285.1" font-family="Helvetica,sans-Serif" font-size="11.00">[table]</text>
<polygon fill="none" stroke="black" points="41.02,-257.55 41.02,-277.05 176.77,-277.05 176.77,-257.55 41.02,-257.55"/>
<text text-anchor="start" x="44.02" y="-263.6" font-family="Helvetica,sans-Serif" font-size="11.00">...</text>
<polygon fill="#ffffff" stroke="none" points="41.02,-238.05 41.02,-257.55 82.27,-257.55 82.27,-238.05 41.02,-238.05"/>
<polygon fill="none" stroke="black" points="41.02,-238.05 41.02,-257.55 82.27,-257.55 82.27,-238.05 41.02,-238.05"/>
<text text-anchor="start" x="44.02" y="-244.1" font-family="Helvetica,sans-Serif" font-size="11.00"> &#160;</text>
<polygon fill="#ffffff" stroke="none" points="82.27,-238.05 82.27,-257.55 123.52,-257.55 123.52,-238.05 82.27,-238.05"/>
<polygon fill="none" stroke="black" points="82.27,-238.05 82.27,-257.55 123.52,-257.55 123.52,-238.05 82.27,-238.05"/>
<text text-anchor="start" x="113.02" y="-244.1" font-family="Helvetica,sans-Serif" font-size="11.00"> &#160;</text>
<polygon fill="#ffffff" stroke="none" points="123.52,-238.05 123.52,-257.55 176.77,-257.55 176.77,-238.05 123.52,-238.05"/>
<polygon fill="none" stroke="black" points="123.52,-238.05 123.52,-257.55 176.77,-257.55 176.77,-238.05 123.52,-238.05"/>
<text text-anchor="start" x="154.27" y="-244.1" font-family="Helvetica,sans-Serif" font-size="11.00">2 &gt;</text>
</a>
</g>
</g>
<!-- lib_library&#45;&gt;user_address -->
<g id="edge21" class="edge">
<title>lib_library:w&#45;&gt;user_address:e</title>
<path fill="none" stroke="black" d="M240.63,-360.1C206.75,-343.45 226.73,-267.3 177.77,-267.3"/>
<polygon fill="black" stroke="black" points="247.62,-361.58 254.7,-366.75 251.86,-362.47 255.12,-363.16 255.12,-363.16 255.12,-363.16 251.86,-362.47 256.19,-359.71 247.62,-361.58"/>
<ellipse fill="none" stroke="black" cx="242.81" cy="-360.56" rx="3.2" ry="3.2"/>
</g>
<!-- user_role -->
<g id="node16" class="node">
<title>user_role</title>
<g id="a_node16"><a xlink:href="../../tables/user_role.html" xlink:title="user_role" target="_top">
<polygon fill="#ffffff" stroke="none" points="54.52,-129.05 54.52,-191.55 163.27,-191.55 163.27,-129.05 54.52,-129.05"/>
<polygon fill="#f5f5f5" stroke="none" points="54.52,-168.05 54.52,-191.55 163.27,-191.55 163.27,-168.05 54.52,-168.05"/>
<polygon fill="none" stroke="black" points="54.52,-168.05 54.52,-191.55 163.27,-191.55 163.27,-168.05 54.52,-168.05"/>
<text text-anchor="start" x="59.52" y="-177.1" font-family="Helvetica,sans-Serif" font-weight="bold" font-size="11.00">user_role</text>
<text text-anchor="start" x="121.52" y="-176.1" font-family="Helvetica,sans-Serif" font-size="11.00">[table]</text>
<polygon fill="none" stroke="black" points="54.52,-148.55 54.52,-168.05 163.27,-168.05 163.27,-148.55 54.52,-148.55"/>
<text text-anchor="start" x="57.52" y="-154.6" font-family="Helvetica,sans-Serif" font-size="11.00">...</text>
<polygon fill="#ffffff" stroke="none" points="54.52,-129.05 54.52,-148.55 86.77,-148.55 86.77,-129.05 54.52,-129.05"/>
<polygon fill="none" stroke="black" points="54.52,-129.05 54.52,-148.55 86.77,-148.55 86.77,-129.05 54.52,-129.05"/>
<text text-anchor="start" x="57.52" y="-135.1" font-family="Helvetica,sans-Serif" font-size="11.00"> &#160;</text>
<polygon fill="#ffffff" stroke="none" points="86.77,-129.05 86.77,-148.55 119.02,-148.55 119.02,-129.05 86.77,-129.05"/>
<polygon fill="none" stroke="black" points="86.77,-129.05 86.77,-148.55 119.02,-148.55 119.02,-129.05 86.77,-129.05"/>
<text text-anchor="start" x="108.52" y="-135.1" font-family="Helvetica,sans-Serif" font-size="11.00"> &#160;</text>
<polygon fill="#ffffff" stroke="none" points="119.02,-129.05 119.02,-148.55 163.27,-148.55 163.27,-129.05 119.02,-129.05"/>
<polygon fill="none" stroke="black" points="119.02,-129.05 119.02,-148.55 163.27,-148.55 163.27,-129.05 119.02,-129.05"/>
<text text-anchor="start" x="140.77" y="-135.1" font-family="Helvetica,sans-Serif" font-size="11.00">3 &gt;</text>
</a>
</g>
</g>
<!-- lib_library&#45;&gt;user_role -->
<g id="edge22" class="edge">
<title>lib_library:w&#45;&gt;user_role:e</title>
<path fill="none" stroke="black" d="M240.4,-361.11C202.01,-347.96 241.2,-278.15 215.77,-227.3 198.66,-193.07 202.54,-158.3 164.27,-158.3"/>
<polygon fill="black" stroke="black" points="247.52,-362.13 254.94,-366.81 251.81,-362.73 255.11,-363.2 255.11,-363.2 255.11,-363.2 251.81,-362.73 255.95,-359.69 247.52,-362.13"/>
<ellipse fill="none" stroke="black" cx="242.65" cy="-361.43" rx="3.2" ry="3.2"/>
</g>
<!-- conf_configuration_ftp&#45;&gt;lib_library -->
<g id="edge2" class="edge">
<title>conf_configuration_ftp:w&#45;&gt;lib_library:e</title>
<path fill="none" stroke="black" d="M0,-350.53C0.77,-343.51 4.72,-335.2 10.02,-330.05 24.4,-316.1 356.15,-316.1 370.52,-330.05 381.13,-340.34 386.31,-363.3 371.52,-363.3"/>
<polygon fill="black" stroke="black" points="4.21,-356.49 5.89,-365.1 6.71,-360.03 8.64,-362.75 8.64,-362.75 8.64,-362.75 6.71,-360.03 11.77,-360.95 4.21,-356.49"/>
<ellipse fill="none" stroke="black" cx="1.37" cy="-352.48" rx="3.2" ry="3.2"/>
</g>
<!-- conf_delivery_folder -->
<g id="node4" class="node">
<title>conf_delivery_folder</title>
<g id="a_node4"><a xlink:href="../../tables/conf_delivery_folder.html" xlink:title="conf_delivery_folder" target="_top">
<polygon fill="#ffffff" stroke="none" points="729.27,-552.05 729.27,-614.55 912.02,-614.55 912.02,-552.05 729.27,-552.05"/>
<polygon fill="#f5f5f5" stroke="none" points="729.27,-591.05 729.27,-614.55 912.02,-614.55 912.02,-591.05 729.27,-591.05"/>
<polygon fill="none" stroke="black" points="729.27,-591.05 729.27,-614.55 912.02,-614.55 912.02,-591.05 729.27,-591.05"/>
<text text-anchor="start" x="734.27" y="-600.1" font-family="Helvetica,sans-Serif" font-weight="bold" font-size="11.00">conf_delivery_folder</text>
<text text-anchor="start" x="870.27" y="-599.1" font-family="Helvetica,sans-Serif" font-size="11.00">[table]</text>
<polygon fill="none" stroke="black" points="729.27,-571.55 729.27,-591.05 912.02,-591.05 912.02,-571.55 729.27,-571.55"/>
<text text-anchor="start" x="732.27" y="-577.6" font-family="Helvetica,sans-Serif" font-size="11.00">...</text>
<polygon fill="#ffffff" stroke="none" points="729.27,-552.05 729.27,-571.55 794.19,-571.55 794.19,-552.05 729.27,-552.05"/>
<polygon fill="none" stroke="black" points="729.27,-552.05 729.27,-571.55 794.19,-571.55 794.19,-552.05 729.27,-552.05"/>
<text text-anchor="start" x="732.27" y="-558.1" font-family="Helvetica,sans-Serif" font-size="11.00">&lt; 1</text>
<polygon fill="#ffffff" stroke="none" points="794.19,-552.05 794.19,-571.55 847.11,-571.55 847.11,-552.05 794.19,-552.05"/>
<polygon fill="none" stroke="black" points="794.19,-552.05 794.19,-571.55 847.11,-571.55 847.11,-552.05 794.19,-552.05"/>
<text text-anchor="start" x="836.61" y="-558.1" font-family="Helvetica,sans-Serif" font-size="11.00"> &#160;</text>
<polygon fill="#ffffff" stroke="none" points="847.11,-552.05 847.11,-571.55 912.02,-571.55 912.02,-552.05 847.11,-552.05"/>
<polygon fill="none" stroke="black" points="847.11,-552.05 847.11,-571.55 912.02,-571.55 912.02,-552.05 847.11,-552.05"/>
<text text-anchor="start" x="889.52" y="-558.1" font-family="Helvetica,sans-Serif" font-size="11.00">3 &gt;</text>
</a>
</g>
</g>
<!-- conf_delivery_folder&#45;&gt;conf_export_ftp -->
<g id="edge3" class="edge">
<title>conf_delivery_folder:w&#45;&gt;conf_export_ftp:e</title>
<path fill="none" stroke="black" d="M712.55,-581.38C510.64,-583.62 437.42,-627.42 248.77,-538.3 212.68,-521.25 225.69,-474.3 185.77,-474.3"/>
<polygon fill="black" stroke="black" points="719.94,-581.34 727.96,-584.9 724.27,-581.32 727.6,-581.3 727.6,-581.3 727.6,-581.3 724.27,-581.32 727.92,-577.7 719.94,-581.34"/>
<ellipse fill="none" stroke="black" cx="715.02" cy="-581.37" rx="3.2" ry="3.2"/>
</g>
<!-- conf_export_ftp&#45;&gt;lib_library -->
<g id="edge4" class="edge">
<title>conf_export_ftp:w&#45;&gt;lib_library:e</title>
<path fill="none" stroke="black" d="M23.46,-461.23C24.51,-454.45 28.36,-446.48 33.02,-441.05 86.81,-378.36 151.28,-458.9 215.77,-407.3 244.92,-383.97 217.62,-350.62 248.77,-330.05 293.93,-300.23 331.69,-292.36 370.52,-330.05 381.13,-340.34 386.31,-363.3 371.52,-363.3"/>
<polygon fill="black" stroke="black" points="27.46,-467.33 28.83,-475.99 29.83,-470.95 31.66,-473.74 31.66,-473.74 31.66,-473.74 29.83,-470.95 34.85,-472.04 27.46,-467.33"/>
<ellipse fill="none" stroke="black" cx="24.76" cy="-463.21" rx="3.2" ry="3.2"/>
</g>
<!-- conf_lists_omeka -->
<g id="node6" class="node">
<title>conf_lists_omeka</title>
<g id="a_node6"><a xlink:href="../../tables/conf_lists_omeka.html" xlink:title="conf_lists_omeka" target="_top">
<polygon fill="#ffffff" stroke="none" points="740.27,-636.05 740.27,-698.55 901.02,-698.55 901.02,-636.05 740.27,-636.05"/>
<polygon fill="#f5f5f5" stroke="none" points="740.27,-675.05 740.27,-698.55 901.02,-698.55 901.02,-675.05 740.27,-675.05"/>
<polygon fill="none" stroke="black" points="740.27,-675.05 740.27,-698.55 901.02,-698.55 901.02,-675.05 740.27,-675.05"/>
<text text-anchor="start" x="745.27" y="-684.1" font-family="Helvetica,sans-Serif" font-weight="bold" font-size="11.00">conf_lists_omeka</text>
<text text-anchor="start" x="859.27" y="-683.1" font-family="Helvetica,sans-Serif" font-size="11.00">[table]</text>
<polygon fill="none" stroke="black" points="740.27,-655.55 740.27,-675.05 901.02,-675.05 901.02,-655.55 740.27,-655.55"/>
<text text-anchor="start" x="743.27" y="-661.6" font-family="Helvetica,sans-Serif" font-size="11.00">...</text>
<polygon fill="#ffffff" stroke="none" points="740.27,-636.05 740.27,-655.55 797.86,-655.55 797.86,-636.05 740.27,-636.05"/>
<polygon fill="none" stroke="black" points="740.27,-636.05 740.27,-655.55 797.86,-655.55 797.86,-636.05 740.27,-636.05"/>
<text text-anchor="start" x="743.27" y="-642.1" font-family="Helvetica,sans-Serif" font-size="11.00">&lt; 1</text>
<polygon fill="#ffffff" stroke="none" points="797.86,-636.05 797.86,-655.55 843.44,-655.55 843.44,-636.05 797.86,-636.05"/>
<polygon fill="none" stroke="black" points="797.86,-636.05 797.86,-655.55 843.44,-655.55 843.44,-636.05 797.86,-636.05"/>
<text text-anchor="start" x="832.94" y="-642.1" font-family="Helvetica,sans-Serif" font-size="11.00"> &#160;</text>
<polygon fill="#ffffff" stroke="none" points="843.44,-636.05 843.44,-655.55 901.02,-655.55 901.02,-636.05 843.44,-636.05"/>
<polygon fill="none" stroke="black" points="843.44,-636.05 843.44,-655.55 901.02,-655.55 901.02,-636.05 843.44,-636.05"/>
<text text-anchor="start" x="878.52" y="-642.1" font-family="Helvetica,sans-Serif" font-size="11.00">6 &gt;</text>
</a>
</g>
</g>
<!-- conf_omeka -->
<g id="node7" class="node">
<title>conf_omeka</title>
<g id="a_node7"><a xlink:href="../../tables/conf_omeka.html" xlink:title="conf_omeka" target="_top">
<polygon fill="#ffffff" stroke="none" points="465.02,-614.05 465.02,-676.55 591.77,-676.55 591.77,-614.05 465.02,-614.05"/>
<polygon fill="#f5f5f5" stroke="none" points="465.02,-653.05 465.02,-676.55 591.77,-676.55 591.77,-653.05 465.02,-653.05"/>
<polygon fill="none" stroke="black" points="465.02,-653.05 465.02,-676.55 591.77,-676.55 591.77,-653.05 465.02,-653.05"/>
<text text-anchor="start" x="470.02" y="-662.1" font-family="Helvetica,sans-Serif" font-weight="bold" font-size="11.00">conf_omeka</text>
<text text-anchor="start" x="550.02" y="-661.1" font-family="Helvetica,sans-Serif" font-size="11.00">[table]</text>
<polygon fill="none" stroke="black" points="465.02,-633.55 465.02,-653.05 591.77,-653.05 591.77,-633.55 465.02,-633.55"/>
<text text-anchor="start" x="468.02" y="-639.6" font-family="Helvetica,sans-Serif" font-size="11.00">...</text>
<polygon fill="#ffffff" stroke="none" points="465.02,-614.05 465.02,-633.55 511.27,-633.55 511.27,-614.05 465.02,-614.05"/>
<polygon fill="none" stroke="black" points="465.02,-614.05 465.02,-633.55 511.27,-633.55 511.27,-614.05 465.02,-614.05"/>
<text text-anchor="start" x="468.02" y="-620.1" font-family="Helvetica,sans-Serif" font-size="11.00">&lt; 1</text>
<polygon fill="#ffffff" stroke="none" points="511.27,-614.05 511.27,-633.55 545.52,-633.55 545.52,-614.05 511.27,-614.05"/>
<polygon fill="none" stroke="black" points="511.27,-614.05 511.27,-633.55 545.52,-633.55 545.52,-614.05 511.27,-614.05"/>
<text text-anchor="start" x="535.02" y="-620.1" font-family="Helvetica,sans-Serif" font-size="11.00"> &#160;</text>
<polygon fill="#ffffff" stroke="none" points="545.52,-614.05 545.52,-633.55 591.77,-633.55 591.77,-614.05 545.52,-614.05"/>
<polygon fill="none" stroke="black" points="545.52,-614.05 545.52,-633.55 591.77,-633.55 591.77,-614.05 545.52,-614.05"/>
<text text-anchor="start" x="569.27" y="-620.1" font-family="Helvetica,sans-Serif" font-size="11.00">3 &gt;</text>
</a>
</g>
</g>
<!-- conf_lists_omeka&#45;&gt;conf_omeka -->
<g id="edge5" class="edge">
<title>conf_lists_omeka:w&#45;&gt;conf_omeka:e</title>
<path fill="none" stroke="black" d="M723.7,-664.86C670.58,-661.76 653.08,-643.3 592.77,-643.3"/>
<polygon fill="black" stroke="black" points="730.94,-665.06 738.84,-668.89 735.27,-665.18 738.6,-665.28 738.6,-665.28 738.6,-665.28 735.27,-665.18 739.04,-661.69 730.94,-665.06"/>
<ellipse fill="none" stroke="black" cx="726.03" cy="-664.92" rx="3.2" ry="3.2"/>
</g>
<!-- conf_omeka&#45;&gt;lib_library -->
<g id="edge6" class="edge">
<title>conf_omeka:w&#45;&gt;lib_library:e</title>
<path fill="none" stroke="black" d="M452.72,-632.66C424.86,-581.52 400.45,-363.3 371.52,-363.3"/>
<polygon fill="black" stroke="black" points="457.95,-637.58 461.31,-645.69 461.11,-640.56 463.54,-642.84 463.54,-642.84 463.54,-642.84 461.11,-640.56 466.25,-640.45 457.95,-637.58"/>
<ellipse fill="none" stroke="black" cx="454.37" cy="-634.21" rx="3.2" ry="3.2"/>
</g>
<!-- conf_views_format_configuration -->
<g id="node8" class="node">
<title>conf_views_format_configuration</title>
<g id="a_node8"><a xlink:href="../../tables/conf_views_format_configuration.html" xlink:title="conf_views_format_configuration" target="_top">
<polygon fill="#ffffff" stroke="none" points="686.27,-442.05 686.27,-504.55 955.02,-504.55 955.02,-442.05 686.27,-442.05"/>
<polygon fill="#f5f5f5" stroke="none" points="686.27,-481.05 686.27,-504.55 955.02,-504.55 955.02,-481.05 686.27,-481.05"/>
<polygon fill="none" stroke="black" points="686.27,-481.05 686.27,-504.55 955.02,-504.55 955.02,-481.05 686.27,-481.05"/>
<text text-anchor="start" x="691.27" y="-490.1" font-family="Helvetica,sans-Serif" font-weight="bold" font-size="11.00">conf_views_format_configuration</text>
<text text-anchor="start" x="913.27" y="-489.1" font-family="Helvetica,sans-Serif" font-size="11.00">[table]</text>
<polygon fill="none" stroke="black" points="686.27,-461.55 686.27,-481.05 955.02,-481.05 955.02,-461.55 686.27,-461.55"/>
<text text-anchor="start" x="689.27" y="-467.6" font-family="Helvetica,sans-Serif" font-size="11.00">...</text>
<polygon fill="#ffffff" stroke="none" points="686.27,-442.05 686.27,-461.55 779.86,-461.55 779.86,-442.05 686.27,-442.05"/>
<polygon fill="none" stroke="black" points="686.27,-442.05 686.27,-461.55 779.86,-461.55 779.86,-442.05 686.27,-442.05"/>
<text text-anchor="start" x="689.27" y="-448.1" font-family="Helvetica,sans-Serif" font-size="11.00">&lt; 1</text>
<polygon fill="#ffffff" stroke="none" points="779.86,-442.05 779.86,-461.55 861.44,-461.55 861.44,-442.05 779.86,-442.05"/>
<polygon fill="none" stroke="black" points="779.86,-442.05 779.86,-461.55 861.44,-461.55 861.44,-442.05 779.86,-442.05"/>
<text text-anchor="start" x="850.94" y="-448.1" font-family="Helvetica,sans-Serif" font-size="11.00"> &#160;</text>
<polygon fill="#ffffff" stroke="none" points="861.44,-442.05 861.44,-461.55 955.02,-461.55 955.02,-442.05 861.44,-442.05"/>
<polygon fill="none" stroke="black" points="861.44,-442.05 861.44,-461.55 955.02,-461.55 955.02,-442.05 861.44,-442.05"/>
<text text-anchor="start" x="932.52" y="-448.1" font-family="Helvetica,sans-Serif" font-size="11.00">3 &gt;</text>
</a>
</g>
</g>
<!-- conf_views_format_configuration&#45;&gt;lib_library -->
<g id="edge7" class="edge">
<title>conf_views_format_configuration:w&#45;&gt;lib_library:e</title>
<path fill="none" stroke="black" d="M669.5,-471.47C558.06,-473.91 508.66,-500.19 411.52,-434.3 381.55,-413.96 407.74,-363.3 371.52,-363.3"/>
<polygon fill="black" stroke="black" points="676.94,-471.39 684.98,-474.9 681.27,-471.34 684.6,-471.3 684.6,-471.3 684.6,-471.3 681.27,-471.34 684.9,-467.7 676.94,-471.39"/>
<ellipse fill="none" stroke="black" cx="672.02" cy="-471.44" rx="3.2" ry="3.2"/>
</g>
<!-- doc_unit -->
<g id="node9" class="node">
<title>doc_unit</title>
<g id="a_node9"><a xlink:href="../../tables/doc_unit.html" xlink:title="doc_unit" target="_top">
<polygon fill="#ffffff" stroke="none" points="1566.27,-780.05 1566.27,-842.55 1669.02,-842.55 1669.02,-780.05 1566.27,-780.05"/>
<polygon fill="#f5f5f5" stroke="none" points="1566.27,-819.05 1566.27,-842.55 1669.02,-842.55 1669.02,-819.05 1566.27,-819.05"/>
<polygon fill="none" stroke="black" points="1566.27,-819.05 1566.27,-842.55 1669.02,-842.55 1669.02,-819.05 1566.27,-819.05"/>
<text text-anchor="start" x="1571.27" y="-828.1" font-family="Helvetica,sans-Serif" font-weight="bold" font-size="11.00">doc_unit</text>
<text text-anchor="start" x="1627.27" y="-827.1" font-family="Helvetica,sans-Serif" font-size="11.00">[table]</text>
<polygon fill="none" stroke="black" points="1566.27,-799.55 1566.27,-819.05 1669.02,-819.05 1669.02,-799.55 1566.27,-799.55"/>
<text text-anchor="start" x="1569.27" y="-805.6" font-family="Helvetica,sans-Serif" font-size="11.00">...</text>
<polygon fill="#ffffff" stroke="none" points="1566.27,-780.05 1566.27,-799.55 1606.77,-799.55 1606.77,-780.05 1566.27,-780.05"/>
<polygon fill="none" stroke="black" points="1566.27,-780.05 1566.27,-799.55 1606.77,-799.55 1606.77,-780.05 1566.27,-780.05"/>
<text text-anchor="start" x="1569.27" y="-786.1" font-family="Helvetica,sans-Serif" font-size="11.00">&lt; 13</text>
<polygon fill="#ffffff" stroke="none" points="1606.77,-780.05 1606.77,-799.55 1628.52,-799.55 1628.52,-780.05 1606.77,-780.05"/>
<polygon fill="none" stroke="black" points="1606.77,-780.05 1606.77,-799.55 1628.52,-799.55 1628.52,-780.05 1606.77,-780.05"/>
<text text-anchor="start" x="1618.02" y="-786.1" font-family="Helvetica,sans-Serif" font-size="11.00"> &#160;</text>
<polygon fill="#ffffff" stroke="none" points="1628.52,-780.05 1628.52,-799.55 1669.02,-799.55 1669.02,-780.05 1628.52,-780.05"/>
<polygon fill="none" stroke="black" points="1628.52,-780.05 1628.52,-799.55 1669.02,-799.55 1669.02,-780.05 1628.52,-780.05"/>
<text text-anchor="start" x="1639.77" y="-786.1" font-family="Helvetica,sans-Serif" font-size="11.00">11 &gt;</text>
</a>
</g>
</g>
<!-- doc_unit&#45;&gt;lib_library -->
<g id="edge12" class="edge">
<title>doc_unit:w&#45;&gt;lib_library:e</title>
<path fill="none" stroke="black" d="M1549.97,-811.84C1522.3,-822.49 1527.67,-863.73 1492.27,-881.3 1166.78,-1042.79 1013.54,-1097.36 678.27,-957.3 522.62,-892.27 485.06,-839.11 411.52,-687.3 379.9,-622.01 444.07,-363.3 371.52,-363.3"/>
<polygon fill="black" stroke="black" points="1557.05,-810.66 1565.53,-812.9 1561.33,-809.95 1564.61,-809.41 1564.61,-809.41 1564.61,-809.41 1561.33,-809.95 1564.35,-805.8 1557.05,-810.66"/>
<ellipse fill="none" stroke="black" cx="1552.2" cy="-811.47" rx="3.2" ry="3.2"/>
</g>
<!-- doc_unit&#45;&gt;conf_lists_omeka -->
<g id="edge10" class="edge">
<title>doc_unit:w&#45;&gt;conf_lists_omeka:e</title>
<path fill="none" stroke="black" d="M1549.86,-807.32C1448.7,-790.02 937.11,-665.3 902.02,-665.3"/>
<polygon fill="black" stroke="black" points="1557.01,-808.23 1564.48,-812.83 1561.31,-808.79 1564.61,-809.21 1564.61,-809.21 1564.61,-809.21 1561.31,-808.79 1565.4,-805.68 1557.01,-808.23"/>
<ellipse fill="none" stroke="black" cx="1552.13" cy="-807.61" rx="3.2" ry="3.2"/>
</g>
<!-- doc_unit&#45;&gt;conf_lists_omeka -->
<g id="edge11" class="edge">
<title>doc_unit:w&#45;&gt;conf_lists_omeka:e</title>
<path fill="none" stroke="black" d="M1549.82,-808.14C1437.03,-794.51 973.46,-665.3 902.02,-665.3"/>
<polygon fill="black" stroke="black" points="1556.96,-808.67 1564.67,-812.86 1561.28,-809 1564.61,-809.25 1564.61,-809.25 1564.61,-809.25 1561.28,-809 1565.21,-805.68 1556.96,-808.67"/>
<ellipse fill="none" stroke="black" cx="1552.06" cy="-808.31" rx="3.2" ry="3.2"/>
</g>
<!-- conf_classement_pac -->
<g id="node10" class="node">
<title>conf_classement_pac</title>
<g id="a_node10"><a xlink:href="../../tables/conf_classement_pac.html" xlink:title="conf_classement_pac" target="_top">
<polygon fill="#ffffff" stroke="none" points="726.77,-884.05 726.77,-946.55 914.52,-946.55 914.52,-884.05 726.77,-884.05"/>
<polygon fill="#f5f5f5" stroke="none" points="726.77,-923.05 726.77,-946.55 914.52,-946.55 914.52,-923.05 726.77,-923.05"/>
<polygon fill="none" stroke="black" points="726.77,-923.05 726.77,-946.55 914.52,-946.55 914.52,-923.05 726.77,-923.05"/>
<text text-anchor="start" x="731.77" y="-932.1" font-family="Helvetica,sans-Serif" font-weight="bold" font-size="11.00">conf_classement_pac</text>
<text text-anchor="start" x="872.77" y="-931.1" font-family="Helvetica,sans-Serif" font-size="11.00">[table]</text>
<polygon fill="none" stroke="black" points="726.77,-903.55 726.77,-923.05 914.52,-923.05 914.52,-903.55 726.77,-903.55"/>
<text text-anchor="start" x="729.77" y="-909.6" font-family="Helvetica,sans-Serif" font-size="11.00">...</text>
<polygon fill="#ffffff" stroke="none" points="726.77,-884.05 726.77,-903.55 793.36,-903.55 793.36,-884.05 726.77,-884.05"/>
<polygon fill="none" stroke="black" points="726.77,-884.05 726.77,-903.55 793.36,-903.55 793.36,-884.05 726.77,-884.05"/>
<text text-anchor="start" x="729.77" y="-890.1" font-family="Helvetica,sans-Serif" font-size="11.00">&lt; 1</text>
<polygon fill="#ffffff" stroke="none" points="793.36,-884.05 793.36,-903.55 847.94,-903.55 847.94,-884.05 793.36,-884.05"/>
<polygon fill="none" stroke="black" points="793.36,-884.05 793.36,-903.55 847.94,-903.55 847.94,-884.05 793.36,-884.05"/>
<text text-anchor="start" x="837.44" y="-890.1" font-family="Helvetica,sans-Serif" font-size="11.00"> &#160;</text>
<polygon fill="#ffffff" stroke="none" points="847.94,-884.05 847.94,-903.55 914.52,-903.55 914.52,-884.05 847.94,-884.05"/>
<polygon fill="none" stroke="black" points="847.94,-884.05 847.94,-903.55 914.52,-903.55 914.52,-884.05 847.94,-884.05"/>
<text text-anchor="start" x="892.02" y="-890.1" font-family="Helvetica,sans-Serif" font-size="11.00">3 &gt;</text>
</a>
</g>
</g>
<!-- doc_unit&#45;&gt;conf_classement_pac -->
<g id="edge8" class="edge">
<title>doc_unit:w&#45;&gt;conf_classement_pac:e</title>
<path fill="none" stroke="black" d="M1549.78,-811.1C1527.74,-816.76 1520.8,-834.29 1492.27,-842.3 1243.61,-912.06 1173.79,-913.3 915.52,-913.3"/>
<polygon fill="black" stroke="black" points="1556.99,-810.26 1565.36,-812.91 1561.3,-809.76 1564.61,-809.37 1564.61,-809.37 1564.61,-809.37 1561.3,-809.76 1564.52,-805.76 1556.99,-810.26"/>
<ellipse fill="none" stroke="black" cx="1552.11" cy="-810.83" rx="3.2" ry="3.2"/>
</g>
<!-- conf_collection_ia -->
<g id="node11" class="node">
<title>conf_collection_ia</title>
<g id="a_node11"><a xlink:href="../../tables/conf_collection_ia.html" xlink:title="conf_collection_ia" target="_top">
<polygon fill="#ffffff" stroke="none" points="738.27,-800.05 738.27,-862.55 903.02,-862.55 903.02,-800.05 738.27,-800.05"/>
<polygon fill="#f5f5f5" stroke="none" points="738.27,-839.05 738.27,-862.55 903.02,-862.55 903.02,-839.05 738.27,-839.05"/>
<polygon fill="none" stroke="black" points="738.27,-839.05 738.27,-862.55 903.02,-862.55 903.02,-839.05 738.27,-839.05"/>
<text text-anchor="start" x="743.27" y="-848.1" font-family="Helvetica,sans-Serif" font-weight="bold" font-size="11.00">conf_collection_ia</text>
<text text-anchor="start" x="861.27" y="-847.1" font-family="Helvetica,sans-Serif" font-size="11.00">[table]</text>
<polygon fill="none" stroke="black" points="738.27,-819.55 738.27,-839.05 903.02,-839.05 903.02,-819.55 738.27,-819.55"/>
<text text-anchor="start" x="741.27" y="-825.6" font-family="Helvetica,sans-Serif" font-size="11.00">...</text>
<polygon fill="#ffffff" stroke="none" points="738.27,-800.05 738.27,-819.55 797.19,-819.55 797.19,-800.05 738.27,-800.05"/>
<polygon fill="none" stroke="black" points="738.27,-800.05 738.27,-819.55 797.19,-819.55 797.19,-800.05 738.27,-800.05"/>
<text text-anchor="start" x="741.27" y="-806.1" font-family="Helvetica,sans-Serif" font-size="11.00">&lt; 1</text>
<polygon fill="#ffffff" stroke="none" points="797.19,-800.05 797.19,-819.55 844.11,-819.55 844.11,-800.05 797.19,-800.05"/>
<polygon fill="none" stroke="black" points="797.19,-800.05 797.19,-819.55 844.11,-819.55 844.11,-800.05 797.19,-800.05"/>
<text text-anchor="start" x="833.61" y="-806.1" font-family="Helvetica,sans-Serif" font-size="11.00"> &#160;</text>
<polygon fill="#ffffff" stroke="none" points="844.11,-800.05 844.11,-819.55 903.02,-819.55 903.02,-800.05 844.11,-800.05"/>
<polygon fill="none" stroke="black" points="844.11,-800.05 844.11,-819.55 903.02,-819.55 903.02,-800.05 844.11,-800.05"/>
<text text-anchor="start" x="880.52" y="-806.1" font-family="Helvetica,sans-Serif" font-size="11.00">3 &gt;</text>
</a>
</g>
</g>
<!-- doc_unit&#45;&gt;conf_collection_ia -->
<g id="edge9" class="edge">
<title>doc_unit:w&#45;&gt;conf_collection_ia:e</title>
<path fill="none" stroke="black" d="M1549.62,-810.37C1528.78,-813.44 1519.35,-822.27 1492.27,-825.3 1232.44,-854.33 1165.47,-829.3 904.02,-829.3"/>
<polygon fill="black" stroke="black" points="1556.96,-809.87 1565.19,-812.91 1561.28,-809.57 1564.61,-809.34 1564.61,-809.34 1564.61,-809.34 1561.28,-809.57 1564.69,-805.73 1556.96,-809.87"/>
<ellipse fill="none" stroke="black" cx="1552.05" cy="-810.2" rx="3.2" ry="3.2"/>
</g>
<!-- lot_lot -->
<g id="node12" class="node">
<title>lot_lot</title>
<g id="a_node12"><a xlink:href="../../tables/lot_lot.html" xlink:title="lot_lot" target="_top">
<polygon fill="#ffffff" stroke="none" points="1319.15,-636.05 1319.15,-698.55 1407.9,-698.55 1407.9,-636.05 1319.15,-636.05"/>
<polygon fill="#f5f5f5" stroke="none" points="1319.15,-675.05 1319.15,-698.55 1407.9,-698.55 1407.9,-675.05 1319.15,-675.05"/>
<polygon fill="none" stroke="black" points="1319.15,-675.05 1319.15,-698.55 1407.9,-698.55 1407.9,-675.05 1319.15,-675.05"/>
<text text-anchor="start" x="1324.02" y="-684.1" font-family="Helvetica,sans-Serif" font-weight="bold" font-size="11.00">lot_lot</text>
<text text-anchor="start" x="1366.15" y="-683.1" font-family="Helvetica,sans-Serif" font-size="11.00">[table]</text>
<polygon fill="none" stroke="black" points="1319.15,-655.55 1319.15,-675.05 1407.9,-675.05 1407.9,-655.55 1319.15,-655.55"/>
<text text-anchor="start" x="1322.15" y="-661.6" font-family="Helvetica,sans-Serif" font-size="11.00">...</text>
<polygon fill="#ffffff" stroke="none" points="1319.15,-636.05 1319.15,-655.55 1357.23,-655.55 1357.23,-636.05 1319.15,-636.05"/>
<polygon fill="none" stroke="black" points="1319.15,-636.05 1319.15,-655.55 1357.23,-655.55 1357.23,-636.05 1319.15,-636.05"/>
<text text-anchor="start" x="1322.15" y="-642.1" font-family="Helvetica,sans-Serif" font-size="11.00">&lt; 14</text>
<polygon fill="#ffffff" stroke="none" points="1357.23,-636.05 1357.23,-655.55 1376.56,-655.55 1376.56,-636.05 1357.23,-636.05"/>
<polygon fill="none" stroke="black" points="1357.23,-636.05 1357.23,-655.55 1376.56,-655.55 1376.56,-636.05 1357.23,-636.05"/>
<text text-anchor="start" x="1366.06" y="-642.1" font-family="Helvetica,sans-Serif" font-size="11.00"> &#160;</text>
<polygon fill="#ffffff" stroke="none" points="1376.56,-636.05 1376.56,-655.55 1407.9,-655.55 1407.9,-636.05 1376.56,-636.05"/>
<polygon fill="none" stroke="black" points="1376.56,-636.05 1376.56,-655.55 1407.9,-655.55 1407.9,-636.05 1376.56,-636.05"/>
<text text-anchor="start" x="1385.4" y="-642.1" font-family="Helvetica,sans-Serif" font-size="11.00">4 &gt;</text>
</a>
</g>
</g>
<!-- doc_unit&#45;&gt;lot_lot -->
<g id="edge13" class="edge">
<title>doc_unit:w&#45;&gt;lot_lot:e</title>
<path fill="none" stroke="black" d="M1549.92,-807.87C1474.18,-792.92 1497.84,-665.3 1408.9,-665.3"/>
<polygon fill="black" stroke="black" points="1556.97,-808.53 1564.61,-812.85 1561.29,-808.93 1564.61,-809.24 1564.61,-809.24 1564.61,-809.24 1561.29,-808.93 1565.27,-805.68 1556.97,-808.53"/>
<ellipse fill="none" stroke="black" cx="1552.08" cy="-808.07" rx="3.2" ry="3.2"/>
</g>
<!-- proj_project -->
<g id="node13" class="node">
<title>proj_project</title>
<g id="a_node13"><a xlink:href="../../tables/proj_project.html" xlink:title="proj_project" target="_top">
<polygon fill="#ffffff" stroke="none" points="1035.52,-387.05 1035.52,-449.55 1162.27,-449.55 1162.27,-387.05 1035.52,-387.05"/>
<polygon fill="#f5f5f5" stroke="none" points="1035.52,-426.05 1035.52,-449.55 1162.27,-449.55 1162.27,-426.05 1035.52,-426.05"/>
<polygon fill="none" stroke="black" points="1035.52,-426.05 1035.52,-449.55 1162.27,-449.55 1162.27,-426.05 1035.52,-426.05"/>
<text text-anchor="start" x="1040.52" y="-435.1" font-family="Helvetica,sans-Serif" font-weight="bold" font-size="11.00">proj_project</text>
<text text-anchor="start" x="1120.52" y="-434.1" font-family="Helvetica,sans-Serif" font-size="11.00">[table]</text>
<polygon fill="none" stroke="black" points="1035.52,-406.55 1035.52,-426.05 1162.27,-426.05 1162.27,-406.55 1035.52,-406.55"/>
<text text-anchor="start" x="1038.52" y="-412.6" font-family="Helvetica,sans-Serif" font-size="11.00">...</text>
<polygon fill="#ffffff" stroke="none" points="1035.52,-387.05 1035.52,-406.55 1086.27,-406.55 1086.27,-387.05 1035.52,-387.05"/>
<polygon fill="none" stroke="black" points="1035.52,-387.05 1035.52,-406.55 1086.27,-406.55 1086.27,-387.05 1035.52,-387.05"/>
<text text-anchor="start" x="1038.52" y="-393.1" font-family="Helvetica,sans-Serif" font-size="11.00">&lt; 13</text>
<polygon fill="#ffffff" stroke="none" points="1086.27,-387.05 1086.27,-406.55 1118.27,-406.55 1118.27,-387.05 1086.27,-387.05"/>
<polygon fill="none" stroke="black" points="1086.27,-387.05 1086.27,-406.55 1118.27,-406.55 1118.27,-387.05 1086.27,-387.05"/>
<text text-anchor="start" x="1107.77" y="-393.1" font-family="Helvetica,sans-Serif" font-size="11.00"> &#160;</text>
<polygon fill="#ffffff" stroke="none" points="1118.27,-387.05 1118.27,-406.55 1162.27,-406.55 1162.27,-387.05 1118.27,-387.05"/>
<polygon fill="none" stroke="black" points="1118.27,-387.05 1118.27,-406.55 1162.27,-406.55 1162.27,-387.05 1118.27,-387.05"/>
<text text-anchor="start" x="1139.77" y="-393.1" font-family="Helvetica,sans-Serif" font-size="11.00">7 &gt;</text>
</a>
</g>
</g>
<!-- doc_unit&#45;&gt;proj_project -->
<g id="edge14" class="edge">
<title>doc_unit:w&#45;&gt;proj_project:e</title>
<path fill="none" stroke="black" d="M1549.87,-807.71C1487.23,-793.07 1552.63,-681.01 1492.27,-625.3 1404.31,-544.1 1322.94,-627.27 1234.77,-546.3 1205.84,-519.72 1228.97,-492.65 1201.77,-464.3 1192.84,-454.98 1181.67,-447.41 1170.04,-441.29"/>
<polygon fill="black" stroke="black" points="1556.98,-808.44 1564.57,-812.84 1561.29,-808.89 1564.61,-809.23 1564.61,-809.23 1564.61,-809.23 1561.29,-808.89 1565.31,-805.68 1556.98,-808.44"/>
<ellipse fill="none" stroke="black" cx="1552.09" cy="-807.94" rx="3.2" ry="3.2"/>
</g>
<!-- lot_lot&#45;&gt;conf_configuration_check -->
<g id="edge23" class="edge">
<title>lot_lot:w&#45;&gt;conf_configuration_check:e</title>
<path fill="none" stroke="black" d="M1302.34,-665.62C1262.76,-667.32 1247.9,-675.42 1201.77,-681.3 1143.99,-688.66 721.95,-747.84 678.27,-709.3 624.7,-662.03 709.72,-390.3 638.27,-390.3"/>
<polygon fill="black" stroke="black" points="1309.82,-665.47 1317.89,-668.9 1314.15,-665.38 1317.48,-665.31 1317.48,-665.31 1317.48,-665.31 1314.15,-665.38 1317.74,-661.7 1309.82,-665.47"/>
<ellipse fill="none" stroke="black" cx="1304.9" cy="-665.57" rx="3.2" ry="3.2"/>
</g>
<!-- lot_lot&#45;&gt;conf_configuration_ftp -->
<g id="edge25" class="edge">
<title>lot_lot:w&#45;&gt;conf_configuration_ftp:e</title>
<path fill="none" stroke="black" d="M1302.46,-663.95C1255.66,-655.28 1254.45,-607.09 1201.77,-585.3 1043.91,-519.99 992.48,-528.3 821.65,-528.3 821.65,-528.3 821.65,-528.3 527.4,-528.3 392.39,-528.3 358.55,-485.89 248.77,-407.3 227.28,-391.91 235.2,-363.3 208.77,-363.3"/>
<polygon fill="black" stroke="black" points="1309.84,-664.58 1317.51,-668.86 1314.16,-664.95 1317.48,-665.24 1317.48,-665.24 1317.48,-665.24 1314.16,-664.95 1318.12,-661.68 1309.84,-664.58"/>
<ellipse fill="none" stroke="black" cx="1304.94" cy="-664.16" rx="3.2" ry="3.2"/>
</g>
<!-- lot_lot&#45;&gt;conf_delivery_folder -->
<g id="edge26" class="edge">
<title>lot_lot:w&#45;&gt;conf_delivery_folder:e</title>
<path fill="none" stroke="black" d="M1302.36,-665.09C1131.95,-660.45 1091.52,-581.3 913.02,-581.3"/>
<polygon fill="black" stroke="black" points="1309.81,-665.19 1317.77,-668.89 1314.15,-665.24 1317.48,-665.29 1317.48,-665.29 1317.48,-665.29 1314.15,-665.24 1317.86,-661.69 1309.81,-665.19"/>
<ellipse fill="none" stroke="black" cx="1304.9" cy="-665.12" rx="3.2" ry="3.2"/>
</g>
<!-- lot_lot&#45;&gt;conf_export_ftp -->
<g id="edge24" class="edge">
<title>lot_lot:w&#45;&gt;conf_export_ftp:e</title>
<path fill="none" stroke="black" d="M1302.56,-666.78C1254.02,-676.76 1257.66,-734.47 1201.77,-755.3 1122.5,-784.84 906.25,-776.3 821.65,-776.3 821.65,-776.3 821.65,-776.3 527.4,-776.3 373.66,-776.3 354.27,-683.13 248.77,-571.3 213.5,-533.9 237.18,-474.3 185.77,-474.3"/>
<polygon fill="black" stroke="black" points="1309.85,-666.09 1318.16,-668.91 1314.17,-665.68 1317.48,-665.36 1317.48,-665.36 1317.48,-665.36 1314.17,-665.68 1317.47,-661.74 1309.85,-666.09"/>
<ellipse fill="none" stroke="black" cx="1304.95" cy="-666.55" rx="3.2" ry="3.2"/>
</g>
<!-- lot_lot&#45;&gt;conf_lists_omeka -->
<g id="edge30" class="edge">
<title>lot_lot:w&#45;&gt;conf_lists_omeka:e</title>
<path fill="none" stroke="black" d="M1302.5,-665.3C1130.42,-665.3 1081.64,-665.3 902.02,-665.3"/>
<polygon fill="black" stroke="black" points="1309.81,-665.3 1317.81,-668.9 1314.15,-665.3 1317.48,-665.3 1317.48,-665.3 1317.48,-665.3 1314.15,-665.3 1317.81,-661.7 1309.81,-665.3"/>
<ellipse fill="none" stroke="black" cx="1304.9" cy="-665.3" rx="3.2" ry="3.2"/>
</g>
<!-- lot_lot&#45;&gt;conf_lists_omeka -->
<g id="edge31" class="edge">
<title>lot_lot:w&#45;&gt;conf_lists_omeka:e</title>
<path fill="none" stroke="black" d="M1302.5,-665.3C1130.42,-665.3 1081.64,-665.3 902.02,-665.3"/>
<polygon fill="black" stroke="black" points="1309.81,-665.3 1317.81,-668.9 1314.15,-665.3 1317.48,-665.3 1317.48,-665.3 1317.48,-665.3 1314.15,-665.3 1317.81,-661.7 1309.81,-665.3"/>
<ellipse fill="none" stroke="black" cx="1304.9" cy="-665.3" rx="3.2" ry="3.2"/>
</g>
<!-- lot_lot&#45;&gt;conf_omeka -->
<g id="edge32" class="edge">
<title>lot_lot:w&#45;&gt;conf_omeka:e</title>
<path fill="none" stroke="black" d="M1302.57,-666.64C1258.11,-674.84 1253.91,-718.36 1201.77,-732.3 1089.39,-762.34 785.3,-777.89 678.27,-732.3 627.81,-710.8 647.62,-643.3 592.77,-643.3"/>
<polygon fill="black" stroke="black" points="1309.84,-666.01 1318.12,-668.91 1314.16,-665.64 1317.48,-665.35 1317.48,-665.35 1317.48,-665.35 1314.16,-665.64 1317.51,-661.74 1309.84,-666.01"/>
<ellipse fill="none" stroke="black" cx="1304.94" cy="-666.43" rx="3.2" ry="3.2"/>
</g>
<!-- lot_lot&#45;&gt;conf_views_format_configuration -->
<g id="edge27" class="edge">
<title>lot_lot:w&#45;&gt;conf_views_format_configuration:e</title>
<path fill="none" stroke="black" d="M1302.39,-664C1268.14,-657.81 1260.01,-630.21 1234.77,-596.3 1212.3,-566.1 1231.05,-541.96 1201.77,-518.3 1115.29,-448.39 1067.22,-471.3 956.02,-471.3"/>
<polygon fill="black" stroke="black" points="1309.84,-664.61 1317.52,-668.86 1314.16,-664.97 1317.48,-665.24 1317.48,-665.24 1317.48,-665.24 1314.16,-664.97 1318.11,-661.68 1309.84,-664.61"/>
<ellipse fill="none" stroke="black" cx="1304.94" cy="-664.21" rx="3.2" ry="3.2"/>
</g>
<!-- lot_lot&#45;&gt;conf_classement_pac -->
<g id="edge28" class="edge">
<title>lot_lot:w&#45;&gt;conf_classement_pac:e</title>
<path fill="none" stroke="black" d="M1302.64,-666.63C1237.09,-678.89 1266.94,-772.73 1201.77,-819.3 1092.83,-897.15 1049.43,-913.3 915.52,-913.3"/>
<polygon fill="black" stroke="black" points="1309.84,-666.01 1318.12,-668.91 1314.16,-665.64 1317.48,-665.35 1317.48,-665.35 1317.48,-665.35 1314.16,-665.64 1317.51,-661.74 1309.84,-666.01"/>
<ellipse fill="none" stroke="black" cx="1304.94" cy="-666.43" rx="3.2" ry="3.2"/>
</g>
<!-- lot_lot&#45;&gt;conf_collection_ia -->
<g id="edge29" class="edge">
<title>lot_lot:w&#45;&gt;conf_collection_ia:e</title>
<path fill="none" stroke="black" d="M1302.39,-666.82C1246.83,-678.56 1262.97,-754.89 1201.77,-786.3 1082.82,-847.35 1037.73,-829.3 904.02,-829.3"/>
<polygon fill="black" stroke="black" points="1309.85,-666.1 1318.16,-668.91 1314.17,-665.68 1317.48,-665.36 1317.48,-665.36 1317.48,-665.36 1314.17,-665.68 1317.47,-661.75 1309.85,-666.1"/>
<ellipse fill="none" stroke="black" cx="1304.96" cy="-666.57" rx="3.2" ry="3.2"/>
</g>
<!-- lot_lot&#45;&gt;proj_project -->
<g id="edge33" class="edge">
<title>lot_lot:w&#45;&gt;proj_project:e</title>
<path fill="none" stroke="black" d="M1302.75,-664.14C1267.68,-658.42 1257.87,-631.93 1234.77,-596.3 1204.93,-550.24 1235.35,-520.72 1201.77,-477.3 1193.21,-466.22 1181.93,-456.85 1170.01,-449.06"/>
<polygon fill="black" stroke="black" points="1309.84,-664.67 1317.55,-668.86 1314.16,-665 1317.48,-665.25 1317.48,-665.25 1317.48,-665.25 1314.16,-665 1318.08,-661.68 1309.84,-664.67"/>
<ellipse fill="none" stroke="black" cx="1304.93" cy="-664.31" rx="3.2" ry="3.2"/>
</g>
<!-- user_user -->
<g id="node17" class="node">
<title>user_user</title>
<g id="a_node17"><a xlink:href="../../tables/user_user.html" xlink:title="user_user" target="_top">
<polygon fill="#ffffff" stroke="none" points="764.77,-141.05 764.77,-203.55 876.52,-203.55 876.52,-141.05 764.77,-141.05"/>
<polygon fill="#f5f5f5" stroke="none" points="764.77,-180.05 764.77,-203.55 876.52,-203.55 876.52,-180.05 764.77,-180.05"/>
<polygon fill="none" stroke="black" points="764.77,-180.05 764.77,-203.55 876.52,-203.55 876.52,-180.05 764.77,-180.05"/>
<text text-anchor="start" x="769.77" y="-189.1" font-family="Helvetica,sans-Serif" font-weight="bold" font-size="11.00">user_user</text>
<text text-anchor="start" x="834.77" y="-188.1" font-family="Helvetica,sans-Serif" font-size="11.00">[table]</text>
<polygon fill="none" stroke="black" points="764.77,-160.55 764.77,-180.05 876.52,-180.05 876.52,-160.55 764.77,-160.55"/>
<text text-anchor="start" x="767.77" y="-166.6" font-family="Helvetica,sans-Serif" font-size="11.00">...</text>
<polygon fill="#ffffff" stroke="none" points="764.77,-141.05 764.77,-160.55 806.02,-160.55 806.02,-141.05 764.77,-141.05"/>
<polygon fill="none" stroke="black" points="764.77,-141.05 764.77,-160.55 806.02,-160.55 806.02,-141.05 764.77,-141.05"/>
<text text-anchor="start" x="767.77" y="-147.1" font-family="Helvetica,sans-Serif" font-size="11.00">&lt; 4</text>
<polygon fill="#ffffff" stroke="none" points="806.02,-141.05 806.02,-160.55 835.27,-160.55 835.27,-141.05 806.02,-141.05"/>
<polygon fill="none" stroke="black" points="806.02,-141.05 806.02,-160.55 835.27,-160.55 835.27,-141.05 806.02,-141.05"/>
<text text-anchor="start" x="824.77" y="-147.1" font-family="Helvetica,sans-Serif" font-size="11.00"> &#160;</text>
<polygon fill="#ffffff" stroke="none" points="835.27,-141.05 835.27,-160.55 876.52,-160.55 876.52,-141.05 835.27,-141.05"/>
<polygon fill="none" stroke="black" points="835.27,-141.05 835.27,-160.55 876.52,-160.55 876.52,-141.05 835.27,-141.05"/>
<text text-anchor="start" x="854.02" y="-147.1" font-family="Helvetica,sans-Serif" font-size="11.00">4 &gt;</text>
</a>
</g>
</g>
<!-- lot_lot&#45;&gt;user_user -->
<g id="edge34" class="edge">
<title>lot_lot:w&#45;&gt;user_user:e</title>
<path fill="none" stroke="black" d="M1302.49,-663.53C1192.02,-637.63 1207.59,-336.19 1201.77,-329.3 1139.64,-255.71 1074.22,-317.51 996.02,-261.3 976.17,-247.03 982.95,-231.45 963.02,-217.3 939.82,-200.81 910.31,-190.17 884.26,-183.41"/>
<polygon fill="black" stroke="black" points="1309.87,-664.36 1317.41,-668.84 1314.17,-664.85 1317.48,-665.22 1317.48,-665.22 1317.48,-665.22 1314.17,-664.85 1318.22,-661.68 1309.87,-664.36"/>
<ellipse fill="none" stroke="black" cx="1304.98" cy="-663.81" rx="3.2" ry="3.2"/>
</g>
<!-- workflow_model -->
<g id="node18" class="node">
<title>workflow_model</title>
<g id="a_node18"><a xlink:href="../../tables/workflow_model.html" xlink:title="workflow_model" target="_top">
<polygon fill="#ffffff" stroke="none" points="742.77,-251.05 742.77,-313.55 898.52,-313.55 898.52,-251.05 742.77,-251.05"/>
<polygon fill="#f5f5f5" stroke="none" points="742.77,-290.05 742.77,-313.55 898.52,-313.55 898.52,-290.05 742.77,-290.05"/>
<polygon fill="none" stroke="black" points="742.77,-290.05 742.77,-313.55 898.52,-313.55 898.52,-290.05 742.77,-290.05"/>
<text text-anchor="start" x="747.77" y="-299.1" font-family="Helvetica,sans-Serif" font-weight="bold" font-size="11.00">workflow_model</text>
<text text-anchor="start" x="856.77" y="-298.1" font-family="Helvetica,sans-Serif" font-size="11.00">[table]</text>
<polygon fill="none" stroke="black" points="742.77,-270.55 742.77,-290.05 898.52,-290.05 898.52,-270.55 742.77,-270.55"/>
<text text-anchor="start" x="745.77" y="-276.6" font-family="Helvetica,sans-Serif" font-size="11.00">...</text>
<polygon fill="#ffffff" stroke="none" points="742.77,-251.05 742.77,-270.55 798.69,-270.55 798.69,-251.05 742.77,-251.05"/>
<polygon fill="none" stroke="black" points="742.77,-251.05 742.77,-270.55 798.69,-270.55 798.69,-251.05 742.77,-251.05"/>
<text text-anchor="start" x="745.77" y="-257.1" font-family="Helvetica,sans-Serif" font-size="11.00">&lt; 1</text>
<polygon fill="#ffffff" stroke="none" points="798.69,-251.05 798.69,-270.55 842.61,-270.55 842.61,-251.05 798.69,-251.05"/>
<polygon fill="none" stroke="black" points="798.69,-251.05 798.69,-270.55 842.61,-270.55 842.61,-251.05 798.69,-251.05"/>
<text text-anchor="start" x="832.11" y="-257.1" font-family="Helvetica,sans-Serif" font-size="11.00"> &#160;</text>
<polygon fill="#ffffff" stroke="none" points="842.61,-251.05 842.61,-270.55 898.52,-270.55 898.52,-251.05 842.61,-251.05"/>
<polygon fill="none" stroke="black" points="842.61,-251.05 842.61,-270.55 898.52,-270.55 898.52,-251.05 842.61,-251.05"/>
<text text-anchor="start" x="876.02" y="-257.1" font-family="Helvetica,sans-Serif" font-size="11.00">4 &gt;</text>
</a>
</g>
</g>
<!-- lot_lot&#45;&gt;workflow_model -->
<g id="edge35" class="edge">
<title>lot_lot:w&#45;&gt;workflow_model:e</title>
<path fill="none" stroke="black" d="M1302.39,-663.9C1254.47,-654.6 1257.74,-600.4 1234.77,-546.3 1204.7,-475.45 1255.17,-431.73 1201.77,-376.3 1136.63,-308.67 1084.38,-360.09 996.02,-328.3 950.95,-312.08 947.42,-280.3 899.52,-280.3"/>
<polygon fill="black" stroke="black" points="1309.85,-664.56 1317.5,-668.85 1314.16,-664.94 1317.48,-665.24 1317.48,-665.24 1317.48,-665.24 1314.16,-664.94 1318.13,-661.68 1309.85,-664.56"/>
<ellipse fill="none" stroke="black" cx="1304.95" cy="-664.13" rx="3.2" ry="3.2"/>
</g>
<!-- proj_project&#45;&gt;conf_configuration_check -->
<g id="edge36" class="edge">
<title>proj_project:w&#45;&gt;conf_configuration_check:e</title>
<path fill="none" stroke="black" d="M1012.31,-391.14C996.1,-387.04 979.16,-383.47 963.02,-381.3 837.6,-364.41 804.05,-367.32 678.27,-381.3 660.16,-383.31 656.5,-390.3 638.27,-390.3"/>
<polygon fill="black" stroke="black" points="1019.53,-393.05 1026.34,-398.58 1023.72,-394.16 1026.94,-395.02 1026.94,-395.02 1026.94,-395.02 1023.72,-394.16 1028.19,-391.62 1019.53,-393.05"/>
<ellipse fill="none" stroke="black" cx="1014.78" cy="-391.79" rx="3.2" ry="3.2"/>
</g>
<!-- proj_project&#45;&gt;lib_library -->
<g id="edge45" class="edge">
<title>proj_project:w&#45;&gt;lib_library:e</title>
<path fill="none" stroke="black" d="M1013.07,-380.92C996.74,-375.07 979.56,-369.81 963.02,-366.3 723.15,-315.38 653.72,-311.93 411.52,-350.3 393.06,-353.22 390.22,-363.3 371.52,-363.3"/>
<polygon fill="black" stroke="black" points="1019.98,-383.51 1026.21,-389.69 1024.04,-385.03 1027.16,-386.2 1027.16,-386.2 1027.16,-386.2 1024.04,-385.03 1028.74,-382.94 1019.98,-383.51"/>
<ellipse fill="none" stroke="black" cx="1015.38" cy="-381.79" rx="3.2" ry="3.2"/>
</g>
<!-- proj_project&#45;&gt;conf_configuration_ftp -->
<g id="edge38" class="edge">
<title>proj_project:w&#45;&gt;conf_configuration_ftp:e</title>
<path fill="none" stroke="black" d="M1050.97,-371.88C1032.57,-352.31 1012.07,-328.67 996.02,-305.3 977.68,-278.59 990.64,-257.25 963.02,-240.3 909.09,-207.2 741.28,-234.44 678.27,-240.3 558.17,-251.46 529.91,-267.2 411.52,-290.3 339.08,-304.43 313.8,-288.39 248.77,-323.3 226.62,-335.19 233.91,-363.3 208.77,-363.3"/>
<polygon fill="black" stroke="black" points="1056.04,-377.18 1058.97,-385.45 1059.03,-380.31 1061.34,-382.71 1061.34,-382.71 1061.34,-382.71 1059.03,-380.31 1064.17,-380.47 1056.04,-377.18"/>
<ellipse fill="none" stroke="black" cx="1052.64" cy="-373.62" rx="3.2" ry="3.2"/>
</g>
<!-- proj_project&#45;&gt;conf_delivery_folder -->
<g id="edge39" class="edge">
<title>proj_project:w&#45;&gt;conf_delivery_folder:e</title>
<path fill="none" stroke="black" d="M1070.46,-466.56C1039.15,-514.63 983.08,-581.3 913.02,-581.3"/>
<polygon fill="black" stroke="black" points="1074.38,-460.32 1081.68,-455.46 1076.69,-456.65 1078.46,-453.83 1078.46,-453.83 1078.46,-453.83 1076.69,-456.65 1075.59,-451.63 1074.38,-460.32"/>
<ellipse fill="none" stroke="black" cx="1071.76" cy="-464.49" rx="3.2" ry="3.2"/>
</g>
<!-- proj_project&#45;&gt;conf_export_ftp -->
<g id="edge37" class="edge">
<title>proj_project:w&#45;&gt;conf_export_ftp:e</title>
<path fill="none" stroke="black" d="M1012.03,-406.57C995.79,-404.79 978.91,-403.24 963.02,-402.3 899.86,-398.56 736.92,-378.53 678.27,-402.3 659.34,-409.97 663.86,-425.81 645.27,-434.3 458.81,-519.46 390.77,-474.3 185.77,-474.3"/>
<polygon fill="black" stroke="black" points="1019.41,-407.42 1026.94,-411.91 1023.71,-407.92 1027.02,-408.3 1027.02,-408.3 1027.02,-408.3 1023.71,-407.92 1027.77,-404.76 1019.41,-407.42"/>
<ellipse fill="none" stroke="black" cx="1014.52" cy="-406.86" rx="3.2" ry="3.2"/>
</g>
<!-- proj_project&#45;&gt;conf_lists_omeka -->
<g id="edge43" class="edge">
<title>proj_project:w&#45;&gt;conf_lists_omeka:e</title>
<path fill="none" stroke="black" d="M1081.83,-468.22C1056.49,-539.11 999.79,-660.76 902.02,-665.3"/>
<polygon fill="black" stroke="black" points="1084.19,-461.38 1090.2,-454.99 1085.6,-457.28 1086.69,-454.13 1086.69,-454.13 1086.69,-454.13 1085.6,-457.28 1083.4,-452.64 1084.19,-461.38"/>
<ellipse fill="none" stroke="black" cx="1082.59" cy="-466.03" rx="3.2" ry="3.2"/>
</g>
<!-- proj_project&#45;&gt;conf_lists_omeka -->
<g id="edge44" class="edge">
<title>proj_project:w&#45;&gt;conf_lists_omeka:e</title>
<path fill="none" stroke="black" d="M1084.54,-468.28C1060.67,-541.87 1003.45,-670 902.02,-665.3"/>
<polygon fill="black" stroke="black" points="1086.67,-461.44 1092.47,-454.86 1087.95,-457.3 1088.94,-454.12 1088.94,-454.12 1088.94,-454.12 1087.95,-457.3 1085.6,-452.73 1086.67,-461.44"/>
<ellipse fill="none" stroke="black" cx="1085.21" cy="-466.14" rx="3.2" ry="3.2"/>
</g>
<!-- proj_project&#45;&gt;conf_omeka -->
<g id="edge46" class="edge">
<title>proj_project:w&#45;&gt;conf_omeka:e</title>
<path fill="none" stroke="black" d="M1012.33,-410.28C905.45,-402.05 730.28,-395.01 678.27,-431.3 636.61,-460.36 643.57,-643.3 592.77,-643.3"/>
<polygon fill="black" stroke="black" points="1019.6,-410.86 1027.29,-415.08 1023.92,-411.2 1027.24,-411.47 1027.24,-411.47 1027.24,-411.47 1023.92,-411.2 1027.86,-407.91 1019.6,-410.86"/>
<ellipse fill="none" stroke="black" cx="1014.7" cy="-410.46" rx="3.2" ry="3.2"/>
</g>
<!-- proj_project&#45;&gt;conf_views_format_configuration -->
<g id="edge40" class="edge">
<title>proj_project:w&#45;&gt;conf_views_format_configuration:e</title>
<path fill="none" stroke="black" d="M1018.22,-459.19C998.41,-466.21 976.87,-471.3 956.02,-471.3"/>
<polygon fill="black" stroke="black" points="1025.22,-456.5 1033.97,-456.98 1029.26,-454.94 1032.37,-453.74 1032.37,-453.74 1032.37,-453.74 1029.26,-454.94 1031.39,-450.26 1025.22,-456.5"/>
<ellipse fill="none" stroke="black" cx="1020.63" cy="-458.27" rx="3.2" ry="3.2"/>
</g>
<!-- proj_project&#45;&gt;conf_classement_pac -->
<g id="edge41" class="edge">
<title>proj_project:w&#45;&gt;conf_classement_pac:e</title>
<path fill="none" stroke="black" d="M1090.32,-468.94C1070.02,-595.09 1009.51,-913.3 915.52,-913.3"/>
<polygon fill="black" stroke="black" points="1091.46,-461.73 1096.26,-454.39 1092.13,-457.45 1092.65,-454.16 1092.65,-454.16 1092.65,-454.16 1092.13,-457.45 1089.15,-453.27 1091.46,-461.73"/>
<ellipse fill="none" stroke="black" cx="1090.69" cy="-466.59" rx="3.2" ry="3.2"/>
</g>
<!-- proj_project&#45;&gt;conf_collection_ia -->
<g id="edge42" class="edge">
<title>proj_project:w&#45;&gt;conf_collection_ia:e</title>
<path fill="none" stroke="black" d="M1096.76,-469.11C1091.31,-579.08 1061.61,-829.3 904.02,-829.3"/>
<polygon fill="black" stroke="black" points="1097.07,-461.67 1101,-453.82 1097.25,-457.34 1097.39,-454.01 1097.39,-454.01 1097.39,-454.01 1097.25,-457.34 1093.81,-453.52 1097.07,-461.67"/>
<ellipse fill="none" stroke="black" cx="1096.86" cy="-466.58" rx="3.2" ry="3.2"/>
</g>
<!-- proj_project&#45;&gt;user_user -->
<g id="edge47" class="edge">
<title>proj_project:w&#45;&gt;user_user:e</title>
<path fill="none" stroke="black" d="M1035.57,-373.1C1020.92,-360.02 1006.54,-344.78 996.02,-328.3 968.33,-284.91 999.07,-254.04 963.02,-217.3 942.28,-196.15 911.64,-184.92 884.19,-178.97"/>
<polygon fill="black" stroke="black" points="1040.95,-377.69 1044.7,-385.62 1044.25,-380.5 1046.79,-382.67 1046.79,-382.67 1046.79,-382.67 1044.25,-380.5 1049.38,-380.14 1040.95,-377.69"/>
<ellipse fill="none" stroke="black" cx="1037.21" cy="-374.5" rx="3.2" ry="3.2"/>
</g>
<!-- proj_project&#45;&gt;workflow_model -->
<g id="edge48" class="edge">
<title>proj_project:w&#45;&gt;workflow_model:e</title>
<path fill="none" stroke="black" d="M1014.01,-379.98C1007.72,-376.01 1001.64,-371.77 996.02,-367.3 978,-352.94 979.74,-343.16 963.02,-327.3 937.55,-303.13 934.63,-280.3 899.52,-280.3"/>
<polygon fill="black" stroke="black" points="1020.4,-383.75 1025.46,-390.91 1024.14,-385.95 1027.01,-387.64 1027.01,-387.64 1027.01,-387.64 1024.14,-385.95 1029.12,-384.71 1020.4,-383.75"/>
<ellipse fill="none" stroke="black" cx="1016.17" cy="-381.25" rx="3.2" ry="3.2"/>
</g>
<!-- exc_import_report -->
<g id="node14" class="node">
<title>exc_import_report</title>
<g id="a_node14"><a xlink:href="../../tables/exc_import_report.html" xlink:title="exc_import_report" target="_top">
<polygon fill="#ffffff" stroke="none" points="1533.27,-336.05 1533.27,-398.55 1702.02,-398.55 1702.02,-336.05 1533.27,-336.05"/>
<polygon fill="#f5f5f5" stroke="none" points="1533.27,-375.05 1533.27,-398.55 1702.02,-398.55 1702.02,-375.05 1533.27,-375.05"/>
<polygon fill="none" stroke="black" points="1533.27,-375.05 1533.27,-398.55 1702.02,-398.55 1702.02,-375.05 1533.27,-375.05"/>
<text text-anchor="start" x="1538.27" y="-384.1" font-family="Helvetica,sans-Serif" font-weight="bold" font-size="11.00">exc_import_report</text>
<text text-anchor="start" x="1660.27" y="-383.1" font-family="Helvetica,sans-Serif" font-size="11.00">[table]</text>
<polygon fill="none" stroke="black" points="1533.27,-355.55 1533.27,-375.05 1702.02,-375.05 1702.02,-355.55 1533.27,-355.55"/>
<text text-anchor="start" x="1536.27" y="-361.6" font-family="Helvetica,sans-Serif" font-size="11.00">...</text>
<polygon fill="#ffffff" stroke="none" points="1533.27,-336.05 1533.27,-355.55 1593.52,-355.55 1593.52,-336.05 1533.27,-336.05"/>
<polygon fill="none" stroke="black" points="1533.27,-336.05 1533.27,-355.55 1593.52,-355.55 1593.52,-336.05 1533.27,-336.05"/>
<text text-anchor="start" x="1536.27" y="-342.1" font-family="Helvetica,sans-Serif" font-size="11.00">&lt; 7</text>
<polygon fill="#ffffff" stroke="none" points="1593.52,-336.05 1593.52,-355.55 1641.77,-355.55 1641.77,-336.05 1593.52,-336.05"/>
<polygon fill="none" stroke="black" points="1593.52,-336.05 1593.52,-355.55 1641.77,-355.55 1641.77,-336.05 1593.52,-336.05"/>
<text text-anchor="start" x="1631.27" y="-342.1" font-family="Helvetica,sans-Serif" font-size="11.00"> &#160;</text>
<polygon fill="#ffffff" stroke="none" points="1641.77,-336.05 1641.77,-355.55 1702.02,-355.55 1702.02,-336.05 1641.77,-336.05"/>
<polygon fill="none" stroke="black" points="1641.77,-336.05 1641.77,-355.55 1702.02,-355.55 1702.02,-336.05 1641.77,-336.05"/>
<text text-anchor="start" x="1679.52" y="-342.1" font-family="Helvetica,sans-Serif" font-size="11.00">3 &gt;</text>
</a>
</g>
</g>
<!-- exc_import_report&#45;&gt;lib_library -->
<g id="edge15" class="edge">
<title>exc_import_report:w&#45;&gt;lib_library:e</title>
<path fill="none" stroke="black" d="M1518.02,-359.21C1483.71,-322.93 1531.77,-135.32 1492.27,-98.3 1364.58,21.38 1274.9,-65.3 1099.9,-65.3 1099.9,-65.3 1099.9,-65.3 819.65,-65.3 637.01,-65.3 543.33,13.14 411.52,-113.3 370.92,-152.24 427.79,-363.3 371.52,-363.3"/>
<polygon fill="black" stroke="black" points="1524.61,-362.03 1530.55,-368.48 1528.59,-363.73 1531.66,-365.03 1531.66,-365.03 1531.66,-365.03 1528.59,-363.73 1533.38,-361.85 1524.61,-362.03"/>
<ellipse fill="none" stroke="black" cx="1520.08" cy="-360.09" rx="3.2" ry="3.2"/>
</g>
<!-- exc_import_report&#45;&gt;lot_lot -->
<g id="edge16" class="edge">
<title>exc_import_report:w&#45;&gt;lot_lot:e</title>
<path fill="none" stroke="black" d="M1518.45,-372.7C1495.3,-402.51 1506.59,-513.75 1492.27,-546.3 1466.28,-605.41 1473.48,-665.3 1408.9,-665.3"/>
<polygon fill="black" stroke="black" points="1524.92,-369.23 1533.68,-368.63 1528.75,-367.18 1531.68,-365.61 1531.68,-365.61 1531.68,-365.61 1528.75,-367.18 1530.28,-362.28 1524.92,-369.23"/>
<ellipse fill="none" stroke="black" cx="1520.59" cy="-371.55" rx="3.2" ry="3.2"/>
</g>
<!-- exc_import_report&#45;&gt;proj_project -->
<g id="edge17" class="edge">
<title>exc_import_report:w&#45;&gt;proj_project:e</title>
<path fill="none" stroke="black" d="M1516.47,-365.26C1396.92,-364.62 1359.95,-357.33 1234.77,-378.3 1213.45,-381.87 1190.76,-387.75 1170.18,-393.92"/>
<polygon fill="black" stroke="black" points="1523.94,-365.27 1531.93,-368.9 1528.27,-365.29 1531.6,-365.3 1531.6,-365.3 1531.6,-365.3 1528.27,-365.29 1531.95,-361.7 1523.94,-365.27"/>
<ellipse fill="none" stroke="black" cx="1519.02" cy="-365.26" rx="3.2" ry="3.2"/>
</g>
<!-- user_user&#45;&gt;lib_library -->
<g id="edge57" class="edge">
<title>user_user:w&#45;&gt;lib_library:e</title>
<path fill="none" stroke="black" d="M742.55,-207.02C712.6,-219.63 677.74,-233.23 645.27,-243.3 543.71,-274.8 497.44,-231.64 411.52,-294.3 382.88,-315.18 406.97,-363.3 371.52,-363.3"/>
<polygon fill="black" stroke="black" points="749.16,-204.2 757.94,-204.37 753.15,-202.5 756.22,-201.19 756.22,-201.19 756.22,-201.19 753.15,-202.5 755.11,-197.75 749.16,-204.2"/>
<ellipse fill="none" stroke="black" cx="744.64" cy="-206.13" rx="3.2" ry="3.2"/>
</g>
<!-- user_user&#45;&gt;user_address -->
<g id="edge55" class="edge">
<title>user_user:w&#45;&gt;user_address:e</title>
<path fill="none" stroke="black" d="M741.45,-165.22C711.41,-162.83 676.77,-160.47 645.27,-159.3 541.46,-155.43 512.99,-136.99 411.52,-159.3 355.64,-171.58 234.99,-267.3 177.77,-267.3"/>
<polygon fill="black" stroke="black" points="748.86,-165.83 756.54,-170.07 753.18,-166.18 756.5,-166.45 756.5,-166.45 756.5,-166.45 753.18,-166.18 757.12,-162.89 748.86,-165.83"/>
<ellipse fill="none" stroke="black" cx="743.95" cy="-165.43" rx="3.2" ry="3.2"/>
</g>
<!-- user_user&#45;&gt;user_role -->
<g id="edge58" class="edge">
<title>user_user:w&#45;&gt;user_role:e</title>
<path fill="none" stroke="black" d="M741.96,-152.73C711.96,-146.1 677.22,-139.56 645.27,-136.3 469.96,-118.39 423.57,-113.92 248.77,-136.3 210.28,-141.23 203.08,-158.3 164.27,-158.3"/>
<polygon fill="black" stroke="black" points="749.04,-154.34 756.05,-159.62 753.27,-155.3 756.52,-156.03 756.52,-156.03 756.52,-156.03 753.27,-155.3 757.64,-152.6 749.04,-154.34"/>
<ellipse fill="none" stroke="black" cx="744.25" cy="-153.25" rx="3.2" ry="3.2"/>
</g>
<!-- user_dashboard -->
<g id="node23" class="node">
<title>user_dashboard</title>
<g id="a_node23"><a xlink:href="../../tables/user_dashboard.html" xlink:title="user_dashboard" target="_top">
<polygon fill="#ffffff" stroke="none" points="451.52,-170.05 451.52,-232.55 605.27,-232.55 605.27,-170.05 451.52,-170.05"/>
<polygon fill="#f5f5f5" stroke="none" points="451.52,-209.05 451.52,-232.55 605.27,-232.55 605.27,-209.05 451.52,-209.05"/>
<polygon fill="none" stroke="black" points="451.52,-209.05 451.52,-232.55 605.27,-232.55 605.27,-209.05 451.52,-209.05"/>
<text text-anchor="start" x="456.52" y="-218.1" font-family="Helvetica,sans-Serif" font-weight="bold" font-size="11.00">user_dashboard</text>
<text text-anchor="start" x="563.52" y="-217.1" font-family="Helvetica,sans-Serif" font-size="11.00">[table]</text>
<polygon fill="none" stroke="black" points="451.52,-189.55 451.52,-209.05 605.27,-209.05 605.27,-189.55 451.52,-189.55"/>
<text text-anchor="start" x="454.52" y="-195.6" font-family="Helvetica,sans-Serif" font-size="11.00">...</text>
<polygon fill="#ffffff" stroke="none" points="451.52,-170.05 451.52,-189.55 498.77,-189.55 498.77,-170.05 451.52,-170.05"/>
<polygon fill="none" stroke="black" points="451.52,-170.05 451.52,-189.55 498.77,-189.55 498.77,-170.05 451.52,-170.05"/>
<text text-anchor="start" x="454.52" y="-176.1" font-family="Helvetica,sans-Serif" font-size="11.00"> &#160;</text>
<polygon fill="#ffffff" stroke="none" points="498.77,-170.05 498.77,-189.55 546.02,-189.55 546.02,-170.05 498.77,-170.05"/>
<polygon fill="none" stroke="black" points="498.77,-170.05 498.77,-189.55 546.02,-189.55 546.02,-170.05 498.77,-170.05"/>
<text text-anchor="start" x="535.52" y="-176.1" font-family="Helvetica,sans-Serif" font-size="11.00"> &#160;</text>
<polygon fill="#ffffff" stroke="none" points="546.02,-170.05 546.02,-189.55 605.27,-189.55 605.27,-170.05 546.02,-170.05"/>
<polygon fill="none" stroke="black" points="546.02,-170.05 546.02,-189.55 605.27,-189.55 605.27,-170.05 546.02,-170.05"/>
<text text-anchor="start" x="582.77" y="-176.1" font-family="Helvetica,sans-Serif" font-size="11.00">1 &gt;</text>
</a>
</g>
</g>
<!-- user_user&#45;&gt;user_dashboard -->
<g id="edge56" class="edge">
<title>user_user:w&#45;&gt;user_dashboard:e</title>
<path fill="none" stroke="black" d="M741.41,-186.98C701.18,-193.31 651.27,-199.3 606.27,-199.3"/>
<polygon fill="black" stroke="black" points="748.66,-185.8 757.14,-188.06 752.94,-185.1 756.23,-184.56 756.23,-184.56 756.23,-184.56 752.94,-185.1 755.98,-180.96 748.66,-185.8"/>
<ellipse fill="none" stroke="black" cx="743.81" cy="-186.59" rx="3.2" ry="3.2"/>
</g>
<!-- workflow_model&#45;&gt;lib_library -->
<g id="edge60" class="edge">
<title>workflow_model:w&#45;&gt;lib_library:e</title>
<path fill="none" stroke="black" d="M726.42,-282.24C661.74,-290.88 415.2,-325.58 411.52,-327.3 389.85,-337.42 395.44,-363.3 371.52,-363.3"/>
<polygon fill="black" stroke="black" points="733.5,-281.34 741.89,-283.91 737.8,-280.8 741.11,-280.38 741.11,-280.38 741.11,-280.38 737.8,-280.8 740.99,-276.77 733.5,-281.34"/>
<ellipse fill="none" stroke="black" cx="728.62" cy="-281.96" rx="3.2" ry="3.2"/>
</g>
<!-- proj_project_library -->
<g id="node19" class="node">
<title>proj_project_library</title>
<g id="a_node19"><a xlink:href="../../tables/proj_project_library.html" xlink:title="proj_project_library" target="_top">
<polygon fill="#ffffff" stroke="none" points="1274.65,-109.05 1274.65,-171.55 1452.4,-171.55 1452.4,-109.05 1274.65,-109.05"/>
<polygon fill="#f5f5f5" stroke="none" points="1274.65,-148.05 1274.65,-171.55 1452.4,-171.55 1452.4,-148.05 1274.65,-148.05"/>
<polygon fill="none" stroke="black" points="1274.65,-148.05 1274.65,-171.55 1452.4,-171.55 1452.4,-148.05 1274.65,-148.05"/>
<text text-anchor="start" x="1279.65" y="-157.1" font-family="Helvetica,sans-Serif" font-weight="bold" font-size="11.00">proj_project_library</text>
<text text-anchor="start" x="1410.65" y="-156.1" font-family="Helvetica,sans-Serif" font-size="11.00">[table]</text>
<polygon fill="none" stroke="black" points="1274.65,-128.55 1274.65,-148.05 1452.4,-148.05 1452.4,-128.55 1274.65,-128.55"/>
<text text-anchor="start" x="1277.65" y="-134.6" font-family="Helvetica,sans-Serif" font-size="11.00">...</text>
<polygon fill="#ffffff" stroke="none" points="1274.65,-109.05 1274.65,-128.55 1341.9,-128.55 1341.9,-109.05 1274.65,-109.05"/>
<polygon fill="none" stroke="black" points="1274.65,-109.05 1274.65,-128.55 1341.9,-128.55 1341.9,-109.05 1274.65,-109.05"/>
<text text-anchor="start" x="1277.65" y="-115.1" font-family="Helvetica,sans-Serif" font-size="11.00">&lt; 2</text>
<polygon fill="#ffffff" stroke="none" points="1341.9,-109.05 1341.9,-128.55 1397.15,-128.55 1397.15,-109.05 1341.9,-109.05"/>
<polygon fill="none" stroke="black" points="1341.9,-109.05 1341.9,-128.55 1397.15,-128.55 1397.15,-109.05 1341.9,-109.05"/>
<text text-anchor="start" x="1386.65" y="-115.1" font-family="Helvetica,sans-Serif" font-size="11.00"> &#160;</text>
<polygon fill="#ffffff" stroke="none" points="1397.15,-109.05 1397.15,-128.55 1452.4,-128.55 1452.4,-109.05 1397.15,-109.05"/>
<polygon fill="none" stroke="black" points="1397.15,-109.05 1397.15,-128.55 1452.4,-128.55 1452.4,-109.05 1397.15,-109.05"/>
<text text-anchor="start" x="1441.9" y="-115.1" font-family="Helvetica,sans-Serif" font-size="11.00"> &#160;</text>
</a>
</g>
</g>
<!-- proj_project_library&#45;&gt;lib_library -->
<g id="edge49" class="edge">
<title>proj_project_library:w&#45;&gt;lib_library:e</title>
<path fill="none" stroke="black" d="M1257.86,-137.87C1237.82,-136.71 1227.79,-133.49 1201.77,-132.3 969.35,-121.64 910.6,-117.71 678.27,-130.3 559.19,-136.75 499.37,-78.65 411.52,-159.3 343.46,-221.78 463.92,-363.3 371.52,-363.3"/>
<polygon fill="black" stroke="black" points="1265.32,-138.07 1273.22,-141.89 1269.65,-138.19 1272.98,-138.28 1272.98,-138.28 1272.98,-138.28 1269.65,-138.19 1273.41,-134.69 1265.32,-138.07"/>
<ellipse fill="none" stroke="black" cx="1260.4" cy="-137.94" rx="3.2" ry="3.2"/>
</g>
<!-- proj_project_library&#45;&gt;proj_project -->
<g id="edge50" class="edge">
<title>proj_project_library:w&#45;&gt;proj_project:e</title>
<path fill="none" stroke="black" d="M1260.33,-145.73C1223.6,-179.23 1150.98,-317.32 1117.53,-383.12"/>
<polygon fill="black" stroke="black" points="1266.37,-142.36 1275.11,-141.6 1270.16,-140.25 1273.06,-138.62 1273.06,-138.62 1273.06,-138.62 1270.16,-140.25 1271.6,-135.32 1266.37,-142.36"/>
<ellipse fill="none" stroke="black" cx="1262.08" cy="-144.76" rx="3.2" ry="3.2"/>
</g>
<!-- proj_project_platform -->
<g id="node20" class="node">
<title>proj_project_platform</title>
<g id="a_node20"><a xlink:href="../../tables/proj_project_platform.html" xlink:title="proj_project_platform" target="_top">
<polygon fill="#ffffff" stroke="none" points="1267.65,-473.05 1267.65,-535.55 1459.4,-535.55 1459.4,-473.05 1267.65,-473.05"/>
<polygon fill="#f5f5f5" stroke="none" points="1267.65,-512.05 1267.65,-535.55 1459.4,-535.55 1459.4,-512.05 1267.65,-512.05"/>
<polygon fill="none" stroke="black" points="1267.65,-512.05 1267.65,-535.55 1459.4,-535.55 1459.4,-512.05 1267.65,-512.05"/>
<text text-anchor="start" x="1272.65" y="-521.1" font-family="Helvetica,sans-Serif" font-weight="bold" font-size="11.00">proj_project_platform</text>
<text text-anchor="start" x="1417.65" y="-520.1" font-family="Helvetica,sans-Serif" font-size="11.00">[table]</text>
<polygon fill="none" stroke="black" points="1267.65,-492.55 1267.65,-512.05 1459.4,-512.05 1459.4,-492.55 1267.65,-492.55"/>
<text text-anchor="start" x="1270.65" y="-498.6" font-family="Helvetica,sans-Serif" font-size="11.00">...</text>
<polygon fill="#ffffff" stroke="none" points="1267.65,-473.05 1267.65,-492.55 1339.56,-492.55 1339.56,-473.05 1267.65,-473.05"/>
<polygon fill="none" stroke="black" points="1267.65,-473.05 1267.65,-492.55 1339.56,-492.55 1339.56,-473.05 1267.65,-473.05"/>
<text text-anchor="start" x="1270.65" y="-479.1" font-family="Helvetica,sans-Serif" font-size="11.00">&lt; 2</text>
<polygon fill="#ffffff" stroke="none" points="1339.56,-473.05 1339.56,-492.55 1399.48,-492.55 1399.48,-473.05 1339.56,-473.05"/>
<polygon fill="none" stroke="black" points="1339.56,-473.05 1339.56,-492.55 1399.48,-492.55 1399.48,-473.05 1339.56,-473.05"/>
<text text-anchor="start" x="1388.98" y="-479.1" font-family="Helvetica,sans-Serif" font-size="11.00"> &#160;</text>
<polygon fill="#ffffff" stroke="none" points="1399.48,-473.05 1399.48,-492.55 1459.4,-492.55 1459.4,-473.05 1399.48,-473.05"/>
<polygon fill="none" stroke="black" points="1399.48,-473.05 1399.48,-492.55 1459.4,-492.55 1459.4,-473.05 1399.48,-473.05"/>
<text text-anchor="start" x="1448.9" y="-479.1" font-family="Helvetica,sans-Serif" font-size="11.00"> &#160;</text>
</a>
</g>
</g>
<!-- proj_project_platform&#45;&gt;proj_project -->
<g id="edge51" class="edge">
<title>proj_project_platform:w&#45;&gt;proj_project:e</title>
<path fill="none" stroke="black" d="M1251.51,-497.9C1230.6,-489.55 1194.52,-470.7 1162.8,-453.43"/>
<polygon fill="black" stroke="black" points="1258.64,-499.97 1265.32,-505.66 1262.81,-501.18 1266.01,-502.11 1266.01,-502.11 1266.01,-502.11 1262.81,-501.18 1267.33,-498.75 1258.64,-499.97"/>
<ellipse fill="none" stroke="black" cx="1253.92" cy="-498.6" rx="3.2" ry="3.2"/>
</g>
<!-- proj_project_user -->
<g id="node21" class="node">
<title>proj_project_user</title>
<g id="a_node21"><a xlink:href="../../tables/proj_project_user.html" xlink:title="proj_project_user" target="_top">
<polygon fill="#ffffff" stroke="none" points="1242.77,-230.8 1242.77,-321.8 1484.27,-321.8 1484.27,-230.8 1242.77,-230.8"/>
<polygon fill="#f5f5f5" stroke="none" points="1244.77,-296.3 1244.77,-319.8 1482.27,-319.8 1482.27,-296.3 1244.77,-296.3"/>
<polygon fill="none" stroke="black" points="1244.77,-296.3 1244.77,-319.8 1482.27,-319.8 1482.27,-296.3 1244.77,-296.3"/>
<text text-anchor="start" x="1249.77" y="-305.35" font-family="Helvetica,sans-Serif" font-weight="bold" font-size="11.00">proj_project_user</text>
<text text-anchor="start" x="1440.52" y="-304.35" font-family="Helvetica,sans-Serif" font-size="11.00">[table]</text>
<polygon fill="none" stroke="black" points="1244.77,-274.3 1244.77,-296.3 1381.77,-296.3 1381.77,-274.3 1244.77,-274.3"/>
<image xlink:href="../../images/primaryKeys.png" width="11px" height="12px" preserveAspectRatio="xMinYMin meet" x="1249.77" y="-291.297"/>
<text text-anchor="start" x="1264.77" y="-280.85" font-family="Helvetica,sans-Serif" font-size="11.00">proj_user</text>
<polygon fill="none" stroke="black" points="1381.77,-274.3 1381.77,-296.3 1470.65,-296.3 1470.65,-274.3 1381.77,-274.3"/>
<text text-anchor="start" x="1384.77" y="-281.6" font-family="Helvetica,sans-Serif" font-size="11.00">varchar[191]</text>
<polygon fill="none" stroke="black" points="1244.77,-252.3 1244.77,-274.3 1381.77,-274.3 1381.77,-252.3 1244.77,-252.3"/>
<image xlink:href="../../images/primaryKeys.png" width="11px" height="12px" preserveAspectRatio="xMinYMin meet" x="1249.77" y="-269.297"/>
<text text-anchor="start" x="1264.77" y="-258.85" font-family="Helvetica,sans-Serif" font-size="11.00">project</text>
<polygon fill="none" stroke="black" points="1381.77,-252.3 1381.77,-274.3 1470.65,-274.3 1470.65,-252.3 1381.77,-252.3"/>
<text text-anchor="start" x="1384.77" y="-259.6" font-family="Helvetica,sans-Serif" font-size="11.00">varchar[191]</text>
<polygon fill="#ffffff" stroke="none" points="1244.77,-232.8 1244.77,-252.3 1319.27,-252.3 1319.27,-232.8 1244.77,-232.8"/>
<polygon fill="none" stroke="black" points="1244.77,-232.8 1244.77,-252.3 1319.27,-252.3 1319.27,-232.8 1244.77,-232.8"/>
<text text-anchor="start" x="1247.77" y="-238.85" font-family="Helvetica,sans-Serif" font-size="11.00">&lt; 2</text>
<polygon fill="#ffffff" stroke="none" points="1319.27,-232.8 1319.27,-252.3 1381.77,-252.3 1381.77,-232.8 1319.27,-232.8"/>
<polygon fill="none" stroke="black" points="1319.27,-232.8 1319.27,-252.3 1381.77,-252.3 1381.77,-232.8 1319.27,-232.8"/>
<text text-anchor="start" x="1371.27" y="-238.85" font-family="Helvetica,sans-Serif" font-size="11.00"> &#160;</text>
<polygon fill="#ffffff" stroke="none" points="1381.77,-232.8 1381.77,-252.3 1470.65,-252.3 1470.65,-232.8 1381.77,-232.8"/>
<polygon fill="none" stroke="black" points="1381.77,-232.8 1381.77,-252.3 1470.65,-252.3 1470.65,-232.8 1381.77,-232.8"/>
<text text-anchor="start" x="1448.15" y="-238.85" font-family="Helvetica,sans-Serif" font-size="11.00">0 &gt;</text>
<polygon fill="none" stroke="black" stroke-width="2" points="1243.77,-231.8 1243.77,-320.8 1483.27,-320.8 1483.27,-231.8 1243.77,-231.8"/>
</a>
</g>
</g>
<!-- proj_project_user&#45;&gt;proj_project -->
<g id="edge53" class="edge">
<title>proj_project_user:w&#45;&gt;proj_project:e</title>
<path fill="none" stroke="black" d="M1228.21,-264.74C1171.74,-275.26 1133.17,-341.15 1113.98,-383.13"/>
<polygon fill="black" stroke="black" points="1235.47,-264.06 1243.77,-266.91 1239.79,-263.67 1243.11,-263.36 1243.11,-263.36 1243.11,-263.36 1239.79,-263.67 1243.11,-259.74 1235.47,-264.06"/>
<ellipse fill="none" stroke="black" cx="1230.58" cy="-264.52" rx="3.2" ry="3.2"/>
</g>
<!-- proj_project_user&#45;&gt;user_user -->
<g id="edge52" class="edge">
<title>proj_project_user:w&#45;&gt;user_user:e</title>
<path fill="none" stroke="black" d="M1228.36,-283.6C1166.75,-273.43 982.07,-219.92 884.17,-190.96"/>
<polygon fill="black" stroke="black" points="1235.49,-284.39 1243.05,-288.84 1239.8,-284.86 1243.11,-285.22 1243.11,-285.22 1243.11,-285.22 1239.8,-284.86 1243.83,-281.68 1235.49,-284.39"/>
<ellipse fill="none" stroke="black" cx="1230.6" cy="-283.85" rx="3.2" ry="3.2"/>
</g>
<!-- train_train -->
<g id="node22" class="node">
<title>train_train</title>
<g id="a_node22"><a xlink:href="../../tables/train_train.html" xlink:title="train_train" target="_top">
<polygon fill="#ffffff" stroke="none" points="1305.15,-389.05 1305.15,-451.55 1421.9,-451.55 1421.9,-389.05 1305.15,-389.05"/>
<polygon fill="#f5f5f5" stroke="none" points="1305.15,-428.05 1305.15,-451.55 1421.9,-451.55 1421.9,-428.05 1305.15,-428.05"/>
<polygon fill="none" stroke="black" points="1305.15,-428.05 1305.15,-451.55 1421.9,-451.55 1421.9,-428.05 1305.15,-428.05"/>
<text text-anchor="start" x="1310.15" y="-437.1" font-family="Helvetica,sans-Serif" font-weight="bold" font-size="11.00">train_train</text>
<text text-anchor="start" x="1380.15" y="-436.1" font-family="Helvetica,sans-Serif" font-size="11.00">[table]</text>
<polygon fill="none" stroke="black" points="1305.15,-408.55 1305.15,-428.05 1421.9,-428.05 1421.9,-408.55 1305.15,-408.55"/>
<text text-anchor="start" x="1308.15" y="-414.6" font-family="Helvetica,sans-Serif" font-size="11.00">...</text>
<polygon fill="#ffffff" stroke="none" points="1305.15,-389.05 1305.15,-408.55 1348.06,-408.55 1348.06,-389.05 1305.15,-389.05"/>
<polygon fill="none" stroke="black" points="1305.15,-389.05 1305.15,-408.55 1348.06,-408.55 1348.06,-389.05 1305.15,-389.05"/>
<text text-anchor="start" x="1308.15" y="-395.1" font-family="Helvetica,sans-Serif" font-size="11.00">&lt; 1</text>
<polygon fill="#ffffff" stroke="none" points="1348.06,-389.05 1348.06,-408.55 1378.98,-408.55 1378.98,-389.05 1348.06,-389.05"/>
<polygon fill="none" stroke="black" points="1348.06,-389.05 1348.06,-408.55 1378.98,-408.55 1378.98,-389.05 1348.06,-389.05"/>
<text text-anchor="start" x="1368.48" y="-395.1" font-family="Helvetica,sans-Serif" font-size="11.00"> &#160;</text>
<polygon fill="#ffffff" stroke="none" points="1378.98,-389.05 1378.98,-408.55 1421.9,-408.55 1421.9,-389.05 1378.98,-389.05"/>
<polygon fill="none" stroke="black" points="1378.98,-389.05 1378.98,-408.55 1421.9,-408.55 1421.9,-389.05 1378.98,-389.05"/>
<text text-anchor="start" x="1399.4" y="-395.1" font-family="Helvetica,sans-Serif" font-size="11.00">1 &gt;</text>
</a>
</g>
</g>
<!-- train_train&#45;&gt;proj_project -->
<g id="edge54" class="edge">
<title>train_train:w&#45;&gt;proj_project:e</title>
<path fill="none" stroke="black" d="M1288.51,-418.3C1248.05,-418.3 1204.75,-418.3 1169.85,-418.3"/>
<polygon fill="black" stroke="black" points="1295.81,-418.3 1303.81,-421.9 1300.15,-418.3 1303.48,-418.3 1303.48,-418.3 1303.48,-418.3 1300.15,-418.3 1303.81,-414.7 1295.81,-418.3"/>
<ellipse fill="none" stroke="black" cx="1290.9" cy="-418.3" rx="3.2" ry="3.2"/>
</g>
<!-- workflow_group_user -->
<g id="node24" class="node">
<title>workflow_group_user</title>
<g id="a_node24"><a xlink:href="../../tables/workflow_group_user.html" xlink:title="workflow_group_user" target="_top">
<polygon fill="#ffffff" stroke="none" points="1004.02,-143.05 1004.02,-205.55 1193.77,-205.55 1193.77,-143.05 1004.02,-143.05"/>
<polygon fill="#f5f5f5" stroke="none" points="1004.02,-182.05 1004.02,-205.55 1193.77,-205.55 1193.77,-182.05 1004.02,-182.05"/>
<polygon fill="none" stroke="black" points="1004.02,-182.05 1004.02,-205.55 1193.77,-205.55 1193.77,-182.05 1004.02,-182.05"/>
<text text-anchor="start" x="1009.02" y="-191.1" font-family="Helvetica,sans-Serif" font-weight="bold" font-size="11.00">workflow_group_user</text>
<text text-anchor="start" x="1152.02" y="-190.1" font-family="Helvetica,sans-Serif" font-size="11.00">[table]</text>
<polygon fill="none" stroke="black" points="1004.02,-162.55 1004.02,-182.05 1193.77,-182.05 1193.77,-162.55 1004.02,-162.55"/>
<text text-anchor="start" x="1007.02" y="-168.6" font-family="Helvetica,sans-Serif" font-size="11.00">...</text>
<polygon fill="#ffffff" stroke="none" points="1004.02,-143.05 1004.02,-162.55 1075.27,-162.55 1075.27,-143.05 1004.02,-143.05"/>
<polygon fill="none" stroke="black" points="1004.02,-143.05 1004.02,-162.55 1075.27,-162.55 1075.27,-143.05 1004.02,-143.05"/>
<text text-anchor="start" x="1007.02" y="-149.1" font-family="Helvetica,sans-Serif" font-size="11.00">&lt; 2</text>
<polygon fill="#ffffff" stroke="none" points="1075.27,-143.05 1075.27,-162.55 1134.52,-162.55 1134.52,-143.05 1075.27,-143.05"/>
<polygon fill="none" stroke="black" points="1075.27,-143.05 1075.27,-162.55 1134.52,-162.55 1134.52,-143.05 1075.27,-143.05"/>
<text text-anchor="start" x="1124.02" y="-149.1" font-family="Helvetica,sans-Serif" font-size="11.00"> &#160;</text>
<polygon fill="#ffffff" stroke="none" points="1134.52,-143.05 1134.52,-162.55 1193.77,-162.55 1193.77,-143.05 1134.52,-143.05"/>
<polygon fill="none" stroke="black" points="1134.52,-143.05 1134.52,-162.55 1193.77,-162.55 1193.77,-143.05 1134.52,-143.05"/>
<text text-anchor="start" x="1183.27" y="-149.1" font-family="Helvetica,sans-Serif" font-size="11.00"> &#160;</text>
</a>
</g>
</g>
<!-- workflow_group_user&#45;&gt;user_user -->
<g id="edge59" class="edge">
<title>workflow_group_user:w&#45;&gt;user_user:e</title>
<path fill="none" stroke="black" d="M987.53,-172.3C952.22,-172.3 914.64,-172.3 884.18,-172.3"/>
<polygon fill="black" stroke="black" points="994.69,-172.3 1002.69,-175.9 999.02,-172.3 1002.35,-172.3 1002.35,-172.3 1002.35,-172.3 999.02,-172.3 1002.69,-168.7 994.69,-172.3"/>
<ellipse fill="none" stroke="black" cx="989.77" cy="-172.3" rx="3.2" ry="3.2"/>
</g>
</g>
</svg>
