<?xml version="1.0" encoding="UTF-8" standalone="no"?>
<!DOCTYPE svg PUBLIC "-//W3C//DTD SVG 1.1//EN"
 "http://www.w3.org/Graphics/SVG/1.1/DTD/svg11.dtd">
<!-- Generated by graphviz version 12.2.0 (0)
 -->
<!-- Title: twoDegreesRelationshipsDiagram Pages: 1 -->
<svg width="2042pt" height="1054pt"
 viewBox="0.00 0.00 2041.72 1054.44" xmlns="http://www.w3.org/2000/svg" xmlns:xlink="http://www.w3.org/1999/xlink">
<g id="graph0" class="graph" transform="scale(1 1) rotate(0) translate(4 1050.44)">
<title>twoDegreesRelationshipsDiagram</title>
<polygon fill="#ffffff" stroke="none" points="-4,4 -4,-1050.44 2037.72,-1050.44 2037.72,4 -4,4"/>
<text text-anchor="middle" x="79.25" y="-7.05" font-family="Helvetica,sans-Serif" font-size="11.00">Generated by SchemaSpy</text>
<!-- conf_configuration_check -->
<g id="node1" class="node">
<title>conf_configuration_check</title>
<g id="a_node1"><a xlink:href="../../tables/conf_configuration_check.html" xlink:title="conf_configuration_check" target="_top">
<polygon fill="#ffffff" stroke="none" points="418.72,-719.54 418.72,-782.04 636.47,-782.04 636.47,-719.54 418.72,-719.54"/>
<polygon fill="#f5f5f5" stroke="none" points="418.72,-758.54 418.72,-782.04 636.47,-782.04 636.47,-758.54 418.72,-758.54"/>
<polygon fill="none" stroke="black" points="418.72,-758.54 418.72,-782.04 636.47,-782.04 636.47,-758.54 418.72,-758.54"/>
<text text-anchor="start" x="423.72" y="-767.59" font-family="Helvetica,sans-Serif" font-weight="bold" font-size="11.00">conf_configuration_check</text>
<text text-anchor="start" x="594.72" y="-766.59" font-family="Helvetica,sans-Serif" font-size="11.00">[table]</text>
<polygon fill="none" stroke="black" points="418.72,-739.04 418.72,-758.54 636.47,-758.54 636.47,-739.04 418.72,-739.04"/>
<text text-anchor="start" x="421.72" y="-745.09" font-family="Helvetica,sans-Serif" font-size="11.00">...</text>
<polygon fill="#ffffff" stroke="none" points="418.72,-719.54 418.72,-739.04 495.3,-739.04 495.3,-719.54 418.72,-719.54"/>
<polygon fill="none" stroke="black" points="418.72,-719.54 418.72,-739.04 495.3,-739.04 495.3,-719.54 418.72,-719.54"/>
<text text-anchor="start" x="421.72" y="-725.59" font-family="Helvetica,sans-Serif" font-size="11.00">&lt; 1</text>
<polygon fill="#ffffff" stroke="none" points="495.3,-719.54 495.3,-739.04 559.88,-739.04 559.88,-719.54 495.3,-719.54"/>
<polygon fill="none" stroke="black" points="495.3,-719.54 495.3,-739.04 559.88,-739.04 559.88,-719.54 495.3,-719.54"/>
<text text-anchor="start" x="549.38" y="-725.59" font-family="Helvetica,sans-Serif" font-size="11.00"> &#160;</text>
<polygon fill="#ffffff" stroke="none" points="559.88,-719.54 559.88,-739.04 636.47,-739.04 636.47,-719.54 559.88,-719.54"/>
<polygon fill="none" stroke="black" points="559.88,-719.54 559.88,-739.04 636.47,-739.04 636.47,-719.54 559.88,-719.54"/>
<text text-anchor="start" x="613.97" y="-725.59" font-family="Helvetica,sans-Serif" font-size="11.00">4 &gt;</text>
</a>
</g>
</g>
<!-- lib_library -->
<g id="node2" class="node">
<title>lib_library</title>
<g id="a_node2"><a xlink:href="../../tables/lib_library.html" xlink:title="lib_library" target="_top">
<polygon fill="#ffffff" stroke="none" points="255.97,-635.54 255.97,-698.04 369.72,-698.04 369.72,-635.54 255.97,-635.54"/>
<polygon fill="#f5f5f5" stroke="none" points="255.97,-674.54 255.97,-698.04 369.72,-698.04 369.72,-674.54 255.97,-674.54"/>
<polygon fill="none" stroke="black" points="255.97,-674.54 255.97,-698.04 369.72,-698.04 369.72,-674.54 255.97,-674.54"/>
<text text-anchor="start" x="260.97" y="-683.59" font-family="Helvetica,sans-Serif" font-weight="bold" font-size="11.00">lib_library</text>
<text text-anchor="start" x="327.97" y="-682.59" font-family="Helvetica,sans-Serif" font-size="11.00">[table]</text>
<polygon fill="none" stroke="black" points="255.97,-655.04 255.97,-674.54 369.72,-674.54 369.72,-655.04 255.97,-655.04"/>
<text text-anchor="start" x="258.97" y="-661.09" font-family="Helvetica,sans-Serif" font-size="11.00">...</text>
<polygon fill="#ffffff" stroke="none" points="255.97,-635.54 255.97,-655.04 295.63,-655.04 295.63,-635.54 255.97,-635.54"/>
<polygon fill="none" stroke="black" points="255.97,-635.54 255.97,-655.04 295.63,-655.04 295.63,-635.54 255.97,-635.54"/>
<text text-anchor="start" x="258.97" y="-641.59" font-family="Helvetica,sans-Serif" font-size="11.00">&lt; 6</text>
<polygon fill="#ffffff" stroke="none" points="295.63,-635.54 295.63,-655.04 323.3,-655.04 323.3,-635.54 295.63,-635.54"/>
<polygon fill="none" stroke="black" points="295.63,-635.54 295.63,-655.04 323.3,-655.04 323.3,-635.54 295.63,-635.54"/>
<text text-anchor="start" x="312.8" y="-641.59" font-family="Helvetica,sans-Serif" font-size="11.00"> &#160;</text>
<polygon fill="#ffffff" stroke="none" points="323.3,-635.54 323.3,-655.04 369.72,-655.04 369.72,-635.54 323.3,-635.54"/>
<polygon fill="none" stroke="black" points="323.3,-635.54 323.3,-655.04 369.72,-655.04 369.72,-635.54 323.3,-635.54"/>
<text text-anchor="start" x="340.47" y="-641.59" font-family="Helvetica,sans-Serif" font-size="11.00">27 &gt;</text>
</a>
</g>
</g>
<!-- conf_configuration_check&#45;&gt;lib_library -->
<g id="edge1" class="edge">
<title>conf_configuration_check:w&#45;&gt;lib_library:e</title>
<path fill="none" stroke="black" d="M403,-743.28C385,-724.59 406.81,-664.79 370.72,-664.79"/>
<polygon fill="black" stroke="black" points="409.91,-745.87 416.14,-752.04 413.97,-747.39 417.09,-748.56 417.09,-748.56 417.09,-748.56 413.97,-747.39 418.67,-745.3 409.91,-745.87"/>
<ellipse fill="none" stroke="black" cx="405.31" cy="-744.14" rx="3.2" ry="3.2"/>
</g>
<!-- lib_library&#45;&gt;conf_configuration_check -->
<g id="edge18" class="edge">
<title>lib_library:w&#45;&gt;conf_configuration_check:e</title>
<path fill="none" stroke="black" d="M244.66,-653.19C238.24,-624.76 267.39,-559.07 377.72,-631.54 408.58,-651.81 380.21,-686.99 410.72,-707.79 431.46,-721.93 618.76,-697.76 636.47,-715.54 646.9,-726.02 652.25,-748.79 637.47,-748.79"/>
<polygon fill="black" stroke="black" points="249.43,-658.56 252.05,-666.93 252.31,-661.8 254.52,-664.29 254.52,-664.29 254.52,-664.29 252.31,-661.8 257.44,-662.15 249.43,-658.56"/>
<ellipse fill="none" stroke="black" cx="246.17" cy="-654.88" rx="3.2" ry="3.2"/>
</g>
<!-- conf_configuration_ftp -->
<g id="node3" class="node">
<title>conf_configuration_ftp</title>
<g id="a_node3"><a xlink:href="../../tables/conf_configuration_ftp.html" xlink:title="conf_configuration_ftp" target="_top">
<polygon fill="#ffffff" stroke="none" points="9.22,-705.54 9.22,-768.04 206.97,-768.04 206.97,-705.54 9.22,-705.54"/>
<polygon fill="#f5f5f5" stroke="none" points="9.22,-744.54 9.22,-768.04 206.97,-768.04 206.97,-744.54 9.22,-744.54"/>
<polygon fill="none" stroke="black" points="9.22,-744.54 9.22,-768.04 206.97,-768.04 206.97,-744.54 9.22,-744.54"/>
<text text-anchor="start" x="14.22" y="-753.59" font-family="Helvetica,sans-Serif" font-weight="bold" font-size="11.00">conf_configuration_ftp</text>
<text text-anchor="start" x="165.22" y="-752.59" font-family="Helvetica,sans-Serif" font-size="11.00">[table]</text>
<polygon fill="none" stroke="black" points="9.22,-725.04 9.22,-744.54 206.97,-744.54 206.97,-725.04 9.22,-725.04"/>
<text text-anchor="start" x="12.22" y="-731.09" font-family="Helvetica,sans-Serif" font-size="11.00">...</text>
<polygon fill="#ffffff" stroke="none" points="9.22,-705.54 9.22,-725.04 79.13,-725.04 79.13,-705.54 9.22,-705.54"/>
<polygon fill="none" stroke="black" points="9.22,-705.54 9.22,-725.04 79.13,-725.04 79.13,-705.54 9.22,-705.54"/>
<text text-anchor="start" x="12.22" y="-711.59" font-family="Helvetica,sans-Serif" font-size="11.00">&lt; 1</text>
<polygon fill="#ffffff" stroke="none" points="79.13,-705.54 79.13,-725.04 137.05,-725.04 137.05,-705.54 79.13,-705.54"/>
<polygon fill="none" stroke="black" points="79.13,-705.54 79.13,-725.04 137.05,-725.04 137.05,-705.54 79.13,-705.54"/>
<text text-anchor="start" x="126.55" y="-711.59" font-family="Helvetica,sans-Serif" font-size="11.00"> &#160;</text>
<polygon fill="#ffffff" stroke="none" points="137.05,-705.54 137.05,-725.04 206.97,-725.04 206.97,-705.54 137.05,-705.54"/>
<polygon fill="none" stroke="black" points="137.05,-705.54 137.05,-725.04 206.97,-725.04 206.97,-705.54 137.05,-705.54"/>
<text text-anchor="start" x="184.47" y="-711.59" font-family="Helvetica,sans-Serif" font-size="11.00">3 &gt;</text>
</a>
</g>
</g>
<!-- lib_library&#45;&gt;conf_configuration_ftp -->
<g id="edge20" class="edge">
<title>lib_library:w&#45;&gt;conf_configuration_ftp:e</title>
<path fill="none" stroke="black" d="M240.35,-670.76C225.43,-687.69 238.71,-734.79 207.97,-734.79"/>
<polygon fill="black" stroke="black" points="247.25,-667.94 256.02,-668.25 251.26,-666.3 254.35,-665.04 254.35,-665.04 254.35,-665.04 251.26,-666.3 253.3,-661.58 247.25,-667.94"/>
<ellipse fill="none" stroke="black" cx="242.7" cy="-669.8" rx="3.2" ry="3.2"/>
</g>
<!-- conf_export_ftp -->
<g id="node5" class="node">
<title>conf_export_ftp</title>
<g id="a_node5"><a xlink:href="../../tables/conf_export_ftp.html" xlink:title="conf_export_ftp" target="_top">
<polygon fill="#ffffff" stroke="none" points="32.22,-390.54 32.22,-453.04 183.97,-453.04 183.97,-390.54 32.22,-390.54"/>
<polygon fill="#f5f5f5" stroke="none" points="32.22,-429.54 32.22,-453.04 183.97,-453.04 183.97,-429.54 32.22,-429.54"/>
<polygon fill="none" stroke="black" points="32.22,-429.54 32.22,-453.04 183.97,-453.04 183.97,-429.54 32.22,-429.54"/>
<text text-anchor="start" x="37.22" y="-438.59" font-family="Helvetica,sans-Serif" font-weight="bold" font-size="11.00">conf_export_ftp</text>
<text text-anchor="start" x="142.22" y="-437.59" font-family="Helvetica,sans-Serif" font-size="11.00">[table]</text>
<polygon fill="none" stroke="black" points="32.22,-410.04 32.22,-429.54 183.97,-429.54 183.97,-410.04 32.22,-410.04"/>
<text text-anchor="start" x="35.22" y="-416.09" font-family="Helvetica,sans-Serif" font-size="11.00">...</text>
<polygon fill="#ffffff" stroke="none" points="32.22,-390.54 32.22,-410.04 86.8,-410.04 86.8,-390.54 32.22,-390.54"/>
<polygon fill="none" stroke="black" points="32.22,-390.54 32.22,-410.04 86.8,-410.04 86.8,-390.54 32.22,-390.54"/>
<text text-anchor="start" x="35.22" y="-396.59" font-family="Helvetica,sans-Serif" font-size="11.00">&lt; 1</text>
<polygon fill="#ffffff" stroke="none" points="86.8,-390.54 86.8,-410.04 129.38,-410.04 129.38,-390.54 86.8,-390.54"/>
<polygon fill="none" stroke="black" points="86.8,-390.54 86.8,-410.04 129.38,-410.04 129.38,-390.54 86.8,-390.54"/>
<text text-anchor="start" x="118.88" y="-396.59" font-family="Helvetica,sans-Serif" font-size="11.00"> &#160;</text>
<polygon fill="#ffffff" stroke="none" points="129.38,-390.54 129.38,-410.04 183.97,-410.04 183.97,-390.54 129.38,-390.54"/>
<polygon fill="none" stroke="black" points="129.38,-390.54 129.38,-410.04 183.97,-410.04 183.97,-390.54 129.38,-390.54"/>
<text text-anchor="start" x="161.47" y="-396.59" font-family="Helvetica,sans-Serif" font-size="11.00">5 &gt;</text>
</a>
</g>
</g>
<!-- lib_library&#45;&gt;conf_export_ftp -->
<g id="edge19" class="edge">
<title>lib_library:w&#45;&gt;conf_export_ftp:e</title>
<path fill="none" stroke="black" d="M239.48,-662.89C157.2,-640.08 292.35,-419.79 184.97,-419.79"/>
<polygon fill="black" stroke="black" points="246.7,-663.77 254.2,-668.32 251,-664.3 254.3,-664.71 254.3,-664.71 254.3,-664.71 251,-664.3 255.07,-661.18 246.7,-663.77"/>
<ellipse fill="none" stroke="black" cx="241.81" cy="-663.18" rx="3.2" ry="3.2"/>
</g>
<!-- conf_configuration_ftp&#45;&gt;lib_library -->
<g id="edge2" class="edge">
<title>conf_configuration_ftp:w&#45;&gt;lib_library:e</title>
<path fill="none" stroke="black" d="M0,-721.25C1.25,-714.67 4.98,-707.02 9.22,-701.54 76.83,-614.04 138.51,-647.25 247.97,-631.54 301.53,-623.85 330.88,-593.86 369.72,-631.54 380.33,-641.84 385.5,-664.79 370.72,-664.79"/>
<polygon fill="black" stroke="black" points="3.89,-727.67 4.97,-736.37 6.14,-731.37 7.87,-734.22 7.87,-734.22 7.87,-734.22 6.14,-731.37 11.12,-732.64 3.89,-727.67"/>
<ellipse fill="none" stroke="black" cx="1.34" cy="-723.46" rx="3.2" ry="3.2"/>
</g>
<!-- conf_delivery_folder -->
<g id="node4" class="node">
<title>conf_delivery_folder</title>
<g id="a_node4"><a xlink:href="../../tables/conf_delivery_folder.html" xlink:title="conf_delivery_folder" target="_top">
<polygon fill="#ffffff" stroke="none" points="728.47,-333.54 728.47,-396.04 911.22,-396.04 911.22,-333.54 728.47,-333.54"/>
<polygon fill="#f5f5f5" stroke="none" points="728.47,-372.54 728.47,-396.04 911.22,-396.04 911.22,-372.54 728.47,-372.54"/>
<polygon fill="none" stroke="black" points="728.47,-372.54 728.47,-396.04 911.22,-396.04 911.22,-372.54 728.47,-372.54"/>
<text text-anchor="start" x="733.47" y="-381.59" font-family="Helvetica,sans-Serif" font-weight="bold" font-size="11.00">conf_delivery_folder</text>
<text text-anchor="start" x="869.47" y="-380.59" font-family="Helvetica,sans-Serif" font-size="11.00">[table]</text>
<polygon fill="none" stroke="black" points="728.47,-353.04 728.47,-372.54 911.22,-372.54 911.22,-353.04 728.47,-353.04"/>
<text text-anchor="start" x="731.47" y="-359.09" font-family="Helvetica,sans-Serif" font-size="11.00">...</text>
<polygon fill="#ffffff" stroke="none" points="728.47,-333.54 728.47,-353.04 793.38,-353.04 793.38,-333.54 728.47,-333.54"/>
<polygon fill="none" stroke="black" points="728.47,-333.54 728.47,-353.04 793.38,-353.04 793.38,-333.54 728.47,-333.54"/>
<text text-anchor="start" x="731.47" y="-339.59" font-family="Helvetica,sans-Serif" font-size="11.00">&lt; 1</text>
<polygon fill="#ffffff" stroke="none" points="793.38,-333.54 793.38,-353.04 846.3,-353.04 846.3,-333.54 793.38,-333.54"/>
<polygon fill="none" stroke="black" points="793.38,-333.54 793.38,-353.04 846.3,-353.04 846.3,-333.54 793.38,-333.54"/>
<text text-anchor="start" x="835.8" y="-339.59" font-family="Helvetica,sans-Serif" font-size="11.00"> &#160;</text>
<polygon fill="#ffffff" stroke="none" points="846.3,-333.54 846.3,-353.04 911.22,-353.04 911.22,-333.54 846.3,-333.54"/>
<polygon fill="none" stroke="black" points="846.3,-333.54 846.3,-353.04 911.22,-353.04 911.22,-333.54 846.3,-333.54"/>
<text text-anchor="start" x="888.72" y="-339.59" font-family="Helvetica,sans-Serif" font-size="11.00">3 &gt;</text>
</a>
</g>
</g>
<!-- conf_delivery_folder&#45;&gt;conf_export_ftp -->
<g id="edge3" class="edge">
<title>conf_delivery_folder:w&#45;&gt;conf_export_ftp:e</title>
<path fill="none" stroke="black" d="M711.77,-362.83C510.6,-363.78 455.07,-383.23 247.97,-409.79 219.85,-413.4 213.32,-419.79 184.97,-419.79"/>
<polygon fill="black" stroke="black" points="719.13,-362.81 727.14,-366.39 723.47,-362.8 726.8,-362.79 726.8,-362.79 726.8,-362.79 723.47,-362.8 727.13,-359.19 719.13,-362.81"/>
<ellipse fill="none" stroke="black" cx="714.22" cy="-362.82" rx="3.2" ry="3.2"/>
</g>
<!-- conf_export_ftp&#45;&gt;lib_library -->
<g id="edge4" class="edge">
<title>conf_export_ftp:w&#45;&gt;lib_library:e</title>
<path fill="none" stroke="black" d="M22.2,-407.03C22.97,-400 26.91,-391.69 32.22,-386.54 83.17,-337.1 128.72,-354.29 191.97,-386.54 251.89,-417.1 347.99,-567.88 369.72,-631.54 374.49,-645.53 385.5,-664.79 370.72,-664.79"/>
<polygon fill="black" stroke="black" points="26.41,-412.98 28.09,-421.59 28.91,-416.52 30.83,-419.24 30.83,-419.24 30.83,-419.24 28.91,-416.52 33.96,-417.44 26.41,-412.98"/>
<ellipse fill="none" stroke="black" cx="23.57" cy="-408.97" rx="3.2" ry="3.2"/>
</g>
<!-- conf_lists_omeka -->
<g id="node6" class="node">
<title>conf_lists_omeka</title>
<g id="a_node6"><a xlink:href="../../tables/conf_lists_omeka.html" xlink:title="conf_lists_omeka" target="_top">
<polygon fill="#ffffff" stroke="none" points="739.47,-814.54 739.47,-877.04 900.22,-877.04 900.22,-814.54 739.47,-814.54"/>
<polygon fill="#f5f5f5" stroke="none" points="739.47,-853.54 739.47,-877.04 900.22,-877.04 900.22,-853.54 739.47,-853.54"/>
<polygon fill="none" stroke="black" points="739.47,-853.54 739.47,-877.04 900.22,-877.04 900.22,-853.54 739.47,-853.54"/>
<text text-anchor="start" x="744.47" y="-862.59" font-family="Helvetica,sans-Serif" font-weight="bold" font-size="11.00">conf_lists_omeka</text>
<text text-anchor="start" x="858.47" y="-861.59" font-family="Helvetica,sans-Serif" font-size="11.00">[table]</text>
<polygon fill="none" stroke="black" points="739.47,-834.04 739.47,-853.54 900.22,-853.54 900.22,-834.04 739.47,-834.04"/>
<text text-anchor="start" x="742.47" y="-840.09" font-family="Helvetica,sans-Serif" font-size="11.00">...</text>
<polygon fill="#ffffff" stroke="none" points="739.47,-814.54 739.47,-834.04 797.05,-834.04 797.05,-814.54 739.47,-814.54"/>
<polygon fill="none" stroke="black" points="739.47,-814.54 739.47,-834.04 797.05,-834.04 797.05,-814.54 739.47,-814.54"/>
<text text-anchor="start" x="742.47" y="-820.59" font-family="Helvetica,sans-Serif" font-size="11.00">&lt; 1</text>
<polygon fill="#ffffff" stroke="none" points="797.05,-814.54 797.05,-834.04 842.63,-834.04 842.63,-814.54 797.05,-814.54"/>
<polygon fill="none" stroke="black" points="797.05,-814.54 797.05,-834.04 842.63,-834.04 842.63,-814.54 797.05,-814.54"/>
<text text-anchor="start" x="832.13" y="-820.59" font-family="Helvetica,sans-Serif" font-size="11.00"> &#160;</text>
<polygon fill="#ffffff" stroke="none" points="842.63,-814.54 842.63,-834.04 900.22,-834.04 900.22,-814.54 842.63,-814.54"/>
<polygon fill="none" stroke="black" points="842.63,-814.54 842.63,-834.04 900.22,-834.04 900.22,-814.54 842.63,-814.54"/>
<text text-anchor="start" x="877.72" y="-820.59" font-family="Helvetica,sans-Serif" font-size="11.00">6 &gt;</text>
</a>
</g>
</g>
<!-- conf_omeka -->
<g id="node7" class="node">
<title>conf_omeka</title>
<g id="a_node7"><a xlink:href="../../tables/conf_omeka.html" xlink:title="conf_omeka" target="_top">
<polygon fill="#ffffff" stroke="none" points="464.22,-635.54 464.22,-698.04 590.97,-698.04 590.97,-635.54 464.22,-635.54"/>
<polygon fill="#f5f5f5" stroke="none" points="464.22,-674.54 464.22,-698.04 590.97,-698.04 590.97,-674.54 464.22,-674.54"/>
<polygon fill="none" stroke="black" points="464.22,-674.54 464.22,-698.04 590.97,-698.04 590.97,-674.54 464.22,-674.54"/>
<text text-anchor="start" x="469.22" y="-683.59" font-family="Helvetica,sans-Serif" font-weight="bold" font-size="11.00">conf_omeka</text>
<text text-anchor="start" x="549.22" y="-682.59" font-family="Helvetica,sans-Serif" font-size="11.00">[table]</text>
<polygon fill="none" stroke="black" points="464.22,-655.04 464.22,-674.54 590.97,-674.54 590.97,-655.04 464.22,-655.04"/>
<text text-anchor="start" x="467.22" y="-661.09" font-family="Helvetica,sans-Serif" font-size="11.00">...</text>
<polygon fill="#ffffff" stroke="none" points="464.22,-635.54 464.22,-655.04 510.47,-655.04 510.47,-635.54 464.22,-635.54"/>
<polygon fill="none" stroke="black" points="464.22,-635.54 464.22,-655.04 510.47,-655.04 510.47,-635.54 464.22,-635.54"/>
<text text-anchor="start" x="467.22" y="-641.59" font-family="Helvetica,sans-Serif" font-size="11.00">&lt; 1</text>
<polygon fill="#ffffff" stroke="none" points="510.47,-635.54 510.47,-655.04 544.72,-655.04 544.72,-635.54 510.47,-635.54"/>
<polygon fill="none" stroke="black" points="510.47,-635.54 510.47,-655.04 544.72,-655.04 544.72,-635.54 510.47,-635.54"/>
<text text-anchor="start" x="534.22" y="-641.59" font-family="Helvetica,sans-Serif" font-size="11.00"> &#160;</text>
<polygon fill="#ffffff" stroke="none" points="544.72,-635.54 544.72,-655.04 590.97,-655.04 590.97,-635.54 544.72,-635.54"/>
<polygon fill="none" stroke="black" points="544.72,-635.54 544.72,-655.04 590.97,-655.04 590.97,-635.54 544.72,-635.54"/>
<text text-anchor="start" x="568.47" y="-641.59" font-family="Helvetica,sans-Serif" font-size="11.00">3 &gt;</text>
</a>
</g>
</g>
<!-- conf_lists_omeka&#45;&gt;conf_omeka -->
<g id="edge5" class="edge">
<title>conf_lists_omeka:w&#45;&gt;conf_omeka:e</title>
<path fill="none" stroke="black" d="M723,-842.24C641.65,-824.75 689.15,-664.79 591.97,-664.79"/>
<polygon fill="black" stroke="black" points="730.17,-842.96 737.78,-847.34 734.49,-843.39 737.8,-843.72 737.8,-843.72 737.8,-843.72 734.49,-843.39 738.49,-840.17 730.17,-842.96"/>
<ellipse fill="none" stroke="black" cx="725.28" cy="-842.47" rx="3.2" ry="3.2"/>
</g>
<!-- conf_omeka&#45;&gt;lib_library -->
<g id="edge6" class="edge">
<title>conf_omeka:w&#45;&gt;lib_library:e</title>
<path fill="none" stroke="black" d="M447.53,-664.79C418.61,-664.79 406.05,-664.79 370.72,-664.79"/>
<polygon fill="black" stroke="black" points="454.88,-664.79 462.88,-668.39 459.22,-664.79 462.55,-664.79 462.55,-664.79 462.55,-664.79 459.22,-664.79 462.88,-661.19 454.88,-664.79"/>
<ellipse fill="none" stroke="black" cx="449.97" cy="-664.79" rx="3.2" ry="3.2"/>
</g>
<!-- conf_views_format_configuration -->
<g id="node8" class="node">
<title>conf_views_format_configuration</title>
<g id="a_node8"><a xlink:href="../../tables/conf_views_format_configuration.html" xlink:title="conf_views_format_configuration" target="_top">
<polygon fill="#ffffff" stroke="none" points="685.47,-664.54 685.47,-727.04 954.22,-727.04 954.22,-664.54 685.47,-664.54"/>
<polygon fill="#f5f5f5" stroke="none" points="685.47,-703.54 685.47,-727.04 954.22,-727.04 954.22,-703.54 685.47,-703.54"/>
<polygon fill="none" stroke="black" points="685.47,-703.54 685.47,-727.04 954.22,-727.04 954.22,-703.54 685.47,-703.54"/>
<text text-anchor="start" x="690.47" y="-712.59" font-family="Helvetica,sans-Serif" font-weight="bold" font-size="11.00">conf_views_format_configuration</text>
<text text-anchor="start" x="912.47" y="-711.59" font-family="Helvetica,sans-Serif" font-size="11.00">[table]</text>
<polygon fill="none" stroke="black" points="685.47,-684.04 685.47,-703.54 954.22,-703.54 954.22,-684.04 685.47,-684.04"/>
<text text-anchor="start" x="688.47" y="-690.09" font-family="Helvetica,sans-Serif" font-size="11.00">...</text>
<polygon fill="#ffffff" stroke="none" points="685.47,-664.54 685.47,-684.04 779.05,-684.04 779.05,-664.54 685.47,-664.54"/>
<polygon fill="none" stroke="black" points="685.47,-664.54 685.47,-684.04 779.05,-684.04 779.05,-664.54 685.47,-664.54"/>
<text text-anchor="start" x="688.47" y="-670.59" font-family="Helvetica,sans-Serif" font-size="11.00">&lt; 1</text>
<polygon fill="#ffffff" stroke="none" points="779.05,-664.54 779.05,-684.04 860.63,-684.04 860.63,-664.54 779.05,-664.54"/>
<polygon fill="none" stroke="black" points="779.05,-664.54 779.05,-684.04 860.63,-684.04 860.63,-664.54 779.05,-664.54"/>
<text text-anchor="start" x="850.13" y="-670.59" font-family="Helvetica,sans-Serif" font-size="11.00"> &#160;</text>
<polygon fill="#ffffff" stroke="none" points="860.63,-664.54 860.63,-684.04 954.22,-684.04 954.22,-664.54 860.63,-664.54"/>
<polygon fill="none" stroke="black" points="860.63,-664.54 860.63,-684.04 954.22,-684.04 954.22,-664.54 860.63,-664.54"/>
<text text-anchor="start" x="931.72" y="-670.59" font-family="Helvetica,sans-Serif" font-size="11.00">3 &gt;</text>
</a>
</g>
</g>
<!-- conf_views_format_configuration&#45;&gt;lib_library -->
<g id="edge7" class="edge">
<title>conf_views_format_configuration:w&#45;&gt;lib_library:e</title>
<path fill="none" stroke="black" d="M669.87,-688.55C657.07,-675.03 669.18,-639.03 644.47,-624.79 599.46,-598.86 458.71,-604.91 410.72,-624.79 387.49,-634.41 395.86,-664.79 370.72,-664.79"/>
<polygon fill="black" stroke="black" points="676.62,-690.98 682.94,-697.07 680.7,-692.44 683.84,-693.56 683.84,-693.56 683.84,-693.56 680.7,-692.44 685.37,-690.29 676.62,-690.98"/>
<ellipse fill="none" stroke="black" cx="671.99" cy="-689.31" rx="3.2" ry="3.2"/>
</g>
<!-- doc_unit -->
<g id="node9" class="node">
<title>doc_unit</title>
<g id="a_node9"><a xlink:href="../../tables/doc_unit.html" xlink:title="doc_unit" target="_top">
<polygon fill="#ffffff" stroke="none" points="1555.97,-671.54 1555.97,-734.04 1658.72,-734.04 1658.72,-671.54 1555.97,-671.54"/>
<polygon fill="#f5f5f5" stroke="none" points="1555.97,-710.54 1555.97,-734.04 1658.72,-734.04 1658.72,-710.54 1555.97,-710.54"/>
<polygon fill="none" stroke="black" points="1555.97,-710.54 1555.97,-734.04 1658.72,-734.04 1658.72,-710.54 1555.97,-710.54"/>
<text text-anchor="start" x="1560.97" y="-719.59" font-family="Helvetica,sans-Serif" font-weight="bold" font-size="11.00">doc_unit</text>
<text text-anchor="start" x="1616.97" y="-718.59" font-family="Helvetica,sans-Serif" font-size="11.00">[table]</text>
<polygon fill="none" stroke="black" points="1555.97,-691.04 1555.97,-710.54 1658.72,-710.54 1658.72,-691.04 1555.97,-691.04"/>
<text text-anchor="start" x="1558.97" y="-697.09" font-family="Helvetica,sans-Serif" font-size="11.00">...</text>
<polygon fill="#ffffff" stroke="none" points="1555.97,-671.54 1555.97,-691.04 1596.47,-691.04 1596.47,-671.54 1555.97,-671.54"/>
<polygon fill="none" stroke="black" points="1555.97,-671.54 1555.97,-691.04 1596.47,-691.04 1596.47,-671.54 1555.97,-671.54"/>
<text text-anchor="start" x="1558.97" y="-677.59" font-family="Helvetica,sans-Serif" font-size="11.00">&lt; 13</text>
<polygon fill="#ffffff" stroke="none" points="1596.47,-671.54 1596.47,-691.04 1618.22,-691.04 1618.22,-671.54 1596.47,-671.54"/>
<polygon fill="none" stroke="black" points="1596.47,-671.54 1596.47,-691.04 1618.22,-691.04 1618.22,-671.54 1596.47,-671.54"/>
<text text-anchor="start" x="1607.72" y="-677.59" font-family="Helvetica,sans-Serif" font-size="11.00"> &#160;</text>
<polygon fill="#ffffff" stroke="none" points="1618.22,-671.54 1618.22,-691.04 1658.72,-691.04 1658.72,-671.54 1618.22,-671.54"/>
<polygon fill="none" stroke="black" points="1618.22,-671.54 1618.22,-691.04 1658.72,-691.04 1658.72,-671.54 1618.22,-671.54"/>
<text text-anchor="start" x="1629.47" y="-677.59" font-family="Helvetica,sans-Serif" font-size="11.00">11 &gt;</text>
</a>
</g>
</g>
<!-- doc_unit&#45;&gt;lib_library -->
<g id="edge12" class="edge">
<title>doc_unit:w&#45;&gt;lib_library:e</title>
<path fill="none" stroke="black" d="M1539.67,-704.59C1498.61,-727.31 1510.33,-845.27 1481.97,-878.79 1372.54,-1008.14 1295.65,-1015.79 1126.22,-1015.79 1126.22,-1015.79 1126.22,-1015.79 818.84,-1015.79 737.65,-1015.79 433.05,-900.19 410.72,-873.79 349.63,-801.59 465.29,-664.79 370.72,-664.79"/>
<polygon fill="black" stroke="black" points="1546.88,-702.8 1555.51,-704.36 1551.09,-701.75 1554.32,-700.95 1554.32,-700.95 1554.32,-700.95 1551.09,-701.75 1553.78,-697.38 1546.88,-702.8"/>
<ellipse fill="none" stroke="black" cx="1542.11" cy="-703.99" rx="3.2" ry="3.2"/>
</g>
<!-- doc_unit&#45;&gt;conf_lists_omeka -->
<g id="edge10" class="edge">
<title>doc_unit:w&#45;&gt;conf_lists_omeka:e</title>
<path fill="none" stroke="black" d="M1539.77,-704.21C1527.53,-711.07 1524.8,-727.34 1514.97,-744.79 1489.69,-789.62 1523.22,-825.02 1481.97,-855.79 1412.95,-907.28 1374.32,-857.12 1288.22,-855.79 1116.16,-853.12 1073.3,-843.79 901.22,-843.79"/>
<polygon fill="black" stroke="black" points="1546.84,-702.62 1555.43,-704.38 1551.07,-701.67 1554.32,-700.94 1554.32,-700.94 1554.32,-700.94 1551.07,-701.67 1553.85,-697.35 1546.84,-702.62"/>
<ellipse fill="none" stroke="black" cx="1542.04" cy="-703.7" rx="3.2" ry="3.2"/>
</g>
<!-- doc_unit&#45;&gt;conf_lists_omeka -->
<g id="edge11" class="edge">
<title>doc_unit:w&#45;&gt;conf_lists_omeka:e</title>
<path fill="none" stroke="black" d="M1539.84,-705.43C1502.75,-729.7 1496.32,-841.2 1481.97,-851.79 1412.68,-902.93 1374.32,-852.68 1288.22,-851.79 1116.19,-850.01 1073.25,-843.79 901.22,-843.79"/>
<polygon fill="black" stroke="black" points="1547,-703.24 1555.71,-704.33 1551.14,-701.96 1554.33,-700.99 1554.33,-700.99 1554.33,-700.99 1551.14,-701.96 1553.59,-697.45 1547,-703.24"/>
<ellipse fill="none" stroke="black" cx="1542.3" cy="-704.68" rx="3.2" ry="3.2"/>
</g>
<!-- conf_classement_pac -->
<g id="node10" class="node">
<title>conf_classement_pac</title>
<g id="a_node10"><a xlink:href="../../tables/conf_classement_pac.html" xlink:title="conf_classement_pac" target="_top">
<polygon fill="#ffffff" stroke="none" points="725.97,-139.54 725.97,-202.04 913.72,-202.04 913.72,-139.54 725.97,-139.54"/>
<polygon fill="#f5f5f5" stroke="none" points="725.97,-178.54 725.97,-202.04 913.72,-202.04 913.72,-178.54 725.97,-178.54"/>
<polygon fill="none" stroke="black" points="725.97,-178.54 725.97,-202.04 913.72,-202.04 913.72,-178.54 725.97,-178.54"/>
<text text-anchor="start" x="730.97" y="-187.59" font-family="Helvetica,sans-Serif" font-weight="bold" font-size="11.00">conf_classement_pac</text>
<text text-anchor="start" x="871.97" y="-186.59" font-family="Helvetica,sans-Serif" font-size="11.00">[table]</text>
<polygon fill="none" stroke="black" points="725.97,-159.04 725.97,-178.54 913.72,-178.54 913.72,-159.04 725.97,-159.04"/>
<text text-anchor="start" x="728.97" y="-165.09" font-family="Helvetica,sans-Serif" font-size="11.00">...</text>
<polygon fill="#ffffff" stroke="none" points="725.97,-139.54 725.97,-159.04 792.55,-159.04 792.55,-139.54 725.97,-139.54"/>
<polygon fill="none" stroke="black" points="725.97,-139.54 725.97,-159.04 792.55,-159.04 792.55,-139.54 725.97,-139.54"/>
<text text-anchor="start" x="728.97" y="-145.59" font-family="Helvetica,sans-Serif" font-size="11.00">&lt; 1</text>
<polygon fill="#ffffff" stroke="none" points="792.55,-139.54 792.55,-159.04 847.13,-159.04 847.13,-139.54 792.55,-139.54"/>
<polygon fill="none" stroke="black" points="792.55,-139.54 792.55,-159.04 847.13,-159.04 847.13,-139.54 792.55,-139.54"/>
<text text-anchor="start" x="836.63" y="-145.59" font-family="Helvetica,sans-Serif" font-size="11.00"> &#160;</text>
<polygon fill="#ffffff" stroke="none" points="847.13,-139.54 847.13,-159.04 913.72,-159.04 913.72,-139.54 847.13,-139.54"/>
<polygon fill="none" stroke="black" points="847.13,-139.54 847.13,-159.04 913.72,-159.04 913.72,-139.54 847.13,-139.54"/>
<text text-anchor="start" x="891.22" y="-145.59" font-family="Helvetica,sans-Serif" font-size="11.00">3 &gt;</text>
</a>
</g>
</g>
<!-- doc_unit&#45;&gt;conf_classement_pac -->
<g id="edge8" class="edge">
<title>doc_unit:w&#45;&gt;conf_classement_pac:e</title>
<path fill="none" stroke="black" d="M1539.73,-697.48C1461.66,-659.99 1545.51,-315.19 1481.97,-240.79 1316.92,-47.54 1168.85,-168.79 914.72,-168.79"/>
<polygon fill="black" stroke="black" points="1546.82,-699.02 1553.88,-704.24 1551.06,-699.94 1554.31,-700.65 1554.31,-700.65 1554.31,-700.65 1551.06,-699.94 1555.41,-697.2 1546.82,-699.02"/>
<ellipse fill="none" stroke="black" cx="1542.02" cy="-697.98" rx="3.2" ry="3.2"/>
</g>
<!-- conf_collection_ia -->
<g id="node11" class="node">
<title>conf_collection_ia</title>
<g id="a_node11"><a xlink:href="../../tables/conf_collection_ia.html" xlink:title="conf_collection_ia" target="_top">
<polygon fill="#ffffff" stroke="none" points="737.47,-223.54 737.47,-286.04 902.22,-286.04 902.22,-223.54 737.47,-223.54"/>
<polygon fill="#f5f5f5" stroke="none" points="737.47,-262.54 737.47,-286.04 902.22,-286.04 902.22,-262.54 737.47,-262.54"/>
<polygon fill="none" stroke="black" points="737.47,-262.54 737.47,-286.04 902.22,-286.04 902.22,-262.54 737.47,-262.54"/>
<text text-anchor="start" x="742.47" y="-271.59" font-family="Helvetica,sans-Serif" font-weight="bold" font-size="11.00">conf_collection_ia</text>
<text text-anchor="start" x="860.47" y="-270.59" font-family="Helvetica,sans-Serif" font-size="11.00">[table]</text>
<polygon fill="none" stroke="black" points="737.47,-243.04 737.47,-262.54 902.22,-262.54 902.22,-243.04 737.47,-243.04"/>
<text text-anchor="start" x="740.47" y="-249.09" font-family="Helvetica,sans-Serif" font-size="11.00">...</text>
<polygon fill="#ffffff" stroke="none" points="737.47,-223.54 737.47,-243.04 796.38,-243.04 796.38,-223.54 737.47,-223.54"/>
<polygon fill="none" stroke="black" points="737.47,-223.54 737.47,-243.04 796.38,-243.04 796.38,-223.54 737.47,-223.54"/>
<text text-anchor="start" x="740.47" y="-229.59" font-family="Helvetica,sans-Serif" font-size="11.00">&lt; 1</text>
<polygon fill="#ffffff" stroke="none" points="796.38,-223.54 796.38,-243.04 843.3,-243.04 843.3,-223.54 796.38,-223.54"/>
<polygon fill="none" stroke="black" points="796.38,-223.54 796.38,-243.04 843.3,-243.04 843.3,-223.54 796.38,-223.54"/>
<text text-anchor="start" x="832.8" y="-229.59" font-family="Helvetica,sans-Serif" font-size="11.00"> &#160;</text>
<polygon fill="#ffffff" stroke="none" points="843.3,-223.54 843.3,-243.04 902.22,-243.04 902.22,-223.54 843.3,-223.54"/>
<polygon fill="none" stroke="black" points="843.3,-223.54 843.3,-243.04 902.22,-243.04 902.22,-223.54 843.3,-223.54"/>
<text text-anchor="start" x="879.72" y="-229.59" font-family="Helvetica,sans-Serif" font-size="11.00">3 &gt;</text>
</a>
</g>
</g>
<!-- doc_unit&#45;&gt;conf_collection_ia -->
<g id="edge9" class="edge">
<title>doc_unit:w&#45;&gt;conf_collection_ia:e</title>
<path fill="none" stroke="black" d="M1539.36,-698.96C1493.52,-686.5 1528.16,-612.92 1514.97,-551.79 1495.88,-463.3 1535.45,-423.83 1481.97,-350.79 1415.21,-259.62 1365.12,-262.07 1255.22,-235.79 1142.83,-208.92 1110.29,-225.25 995.22,-235.79 953.81,-239.58 944.8,-252.79 903.22,-252.79"/>
<polygon fill="black" stroke="black" points="1546.69,-699.82 1554.22,-704.33 1551,-700.32 1554.3,-700.71 1554.3,-700.71 1554.3,-700.71 1551,-700.32 1555.06,-697.18 1546.69,-699.82"/>
<ellipse fill="none" stroke="black" cx="1541.81" cy="-699.24" rx="3.2" ry="3.2"/>
</g>
<!-- lot_lot -->
<g id="node12" class="node">
<title>lot_lot</title>
<g id="a_node12"><a xlink:href="../../tables/lot_lot.html" xlink:title="lot_lot" target="_top">
<polygon fill="#ffffff" stroke="none" points="1340.72,-698.54 1340.72,-761.04 1429.47,-761.04 1429.47,-698.54 1340.72,-698.54"/>
<polygon fill="#f5f5f5" stroke="none" points="1340.72,-737.54 1340.72,-761.04 1429.47,-761.04 1429.47,-737.54 1340.72,-737.54"/>
<polygon fill="none" stroke="black" points="1340.72,-737.54 1340.72,-761.04 1429.47,-761.04 1429.47,-737.54 1340.72,-737.54"/>
<text text-anchor="start" x="1345.59" y="-746.59" font-family="Helvetica,sans-Serif" font-weight="bold" font-size="11.00">lot_lot</text>
<text text-anchor="start" x="1387.72" y="-745.59" font-family="Helvetica,sans-Serif" font-size="11.00">[table]</text>
<polygon fill="none" stroke="black" points="1340.72,-718.04 1340.72,-737.54 1429.47,-737.54 1429.47,-718.04 1340.72,-718.04"/>
<text text-anchor="start" x="1343.72" y="-724.09" font-family="Helvetica,sans-Serif" font-size="11.00">...</text>
<polygon fill="#ffffff" stroke="none" points="1340.72,-698.54 1340.72,-718.04 1378.8,-718.04 1378.8,-698.54 1340.72,-698.54"/>
<polygon fill="none" stroke="black" points="1340.72,-698.54 1340.72,-718.04 1378.8,-718.04 1378.8,-698.54 1340.72,-698.54"/>
<text text-anchor="start" x="1343.72" y="-704.59" font-family="Helvetica,sans-Serif" font-size="11.00">&lt; 14</text>
<polygon fill="#ffffff" stroke="none" points="1378.8,-698.54 1378.8,-718.04 1398.13,-718.04 1398.13,-698.54 1378.8,-698.54"/>
<polygon fill="none" stroke="black" points="1378.8,-698.54 1378.8,-718.04 1398.13,-718.04 1398.13,-698.54 1378.8,-698.54"/>
<text text-anchor="start" x="1387.63" y="-704.59" font-family="Helvetica,sans-Serif" font-size="11.00"> &#160;</text>
<polygon fill="#ffffff" stroke="none" points="1398.13,-698.54 1398.13,-718.04 1429.47,-718.04 1429.47,-698.54 1398.13,-698.54"/>
<polygon fill="none" stroke="black" points="1398.13,-698.54 1398.13,-718.04 1429.47,-718.04 1429.47,-698.54 1398.13,-698.54"/>
<text text-anchor="start" x="1406.97" y="-704.59" font-family="Helvetica,sans-Serif" font-size="11.00">4 &gt;</text>
</a>
</g>
</g>
<!-- doc_unit&#45;&gt;lot_lot -->
<g id="edge13" class="edge">
<title>doc_unit:w&#45;&gt;lot_lot:e</title>
<path fill="none" stroke="black" d="M1539.31,-701.54C1495.66,-705.9 1481.45,-727.79 1430.47,-727.79"/>
<polygon fill="black" stroke="black" points="1546.64,-701.19 1554.81,-704.4 1550.97,-700.98 1554.3,-700.82 1554.3,-700.82 1554.3,-700.82 1550.97,-700.98 1554.46,-697.21 1546.64,-701.19"/>
<ellipse fill="none" stroke="black" cx="1541.73" cy="-701.42" rx="3.2" ry="3.2"/>
</g>
<!-- proj_project -->
<g id="node13" class="node">
<title>proj_project</title>
<g id="a_node13"><a xlink:href="../../tables/proj_project.html" xlink:title="proj_project" target="_top">
<polygon fill="#ffffff" stroke="none" points="1003.22,-381.54 1003.22,-752.04 1247.22,-752.04 1247.22,-381.54 1003.22,-381.54"/>
<polygon fill="#f5f5f5" stroke="none" points="1003.22,-728.54 1003.22,-752.04 1247.22,-752.04 1247.22,-728.54 1003.22,-728.54"/>
<polygon fill="none" stroke="black" points="1003.22,-728.54 1003.22,-752.04 1247.22,-752.04 1247.22,-728.54 1003.22,-728.54"/>
<text text-anchor="start" x="1008.22" y="-737.59" font-family="Helvetica,sans-Serif" font-weight="bold" font-size="11.00">proj_project</text>
<text text-anchor="start" x="1205.47" y="-736.59" font-family="Helvetica,sans-Serif" font-size="11.00">[table]</text>
<polygon fill="none" stroke="black" points="1003.22,-706.54 1003.22,-728.54 1247.22,-728.54 1247.22,-706.54 1003.22,-706.54"/>
<image xlink:href="../../images/primaryKeys.png" width="11px" height="12px" preserveAspectRatio="xMinYMin meet" x="1008.22" y="-723.54"/>
<text text-anchor="start" x="1023.22" y="-713.09" font-family="Helvetica,sans-Serif" font-size="11.00">identifier</text>
<polygon fill="#ffffff" stroke="none" points="1003.22,-684.54 1003.22,-706.54 1247.22,-706.54 1247.22,-684.54 1003.22,-684.54"/>
<polygon fill="none" stroke="black" points="1003.22,-684.54 1003.22,-706.54 1247.22,-706.54 1247.22,-684.54 1003.22,-684.54"/>
<image xlink:href="../../images/foreignKeys.png" width="11px" height="12px" preserveAspectRatio="xMinYMin meet" x="1008.22" y="-701.54"/>
<text text-anchor="start" x="1023.22" y="-691.09" font-family="Helvetica,sans-Serif" font-size="11.00">library</text>
<polygon fill="#ffffff" stroke="none" points="1003.22,-662.54 1003.22,-684.54 1247.22,-684.54 1247.22,-662.54 1003.22,-662.54"/>
<polygon fill="none" stroke="black" points="1003.22,-662.54 1003.22,-684.54 1247.22,-684.54 1247.22,-662.54 1003.22,-662.54"/>
<image xlink:href="../../images/foreignKeys.png" width="11px" height="12px" preserveAspectRatio="xMinYMin meet" x="1008.22" y="-679.54"/>
<text text-anchor="start" x="1023.22" y="-669.09" font-family="Helvetica,sans-Serif" font-size="11.00">active_configuration_ftp</text>
<polygon fill="#ffffff" stroke="none" points="1003.22,-640.54 1003.22,-662.54 1247.22,-662.54 1247.22,-640.54 1003.22,-640.54"/>
<polygon fill="none" stroke="black" points="1003.22,-640.54 1003.22,-662.54 1247.22,-662.54 1247.22,-640.54 1003.22,-640.54"/>
<image xlink:href="../../images/foreignKeys.png" width="11px" height="12px" preserveAspectRatio="xMinYMin meet" x="1008.22" y="-657.54"/>
<text text-anchor="start" x="1023.22" y="-647.09" font-family="Helvetica,sans-Serif" font-size="11.00">active_configuration_check</text>
<polygon fill="#ffffff" stroke="none" points="1003.22,-618.54 1003.22,-640.54 1247.22,-640.54 1247.22,-618.54 1003.22,-618.54"/>
<polygon fill="none" stroke="black" points="1003.22,-618.54 1003.22,-640.54 1247.22,-640.54 1247.22,-618.54 1003.22,-618.54"/>
<image xlink:href="../../images/foreignKeys.png" width="11px" height="12px" preserveAspectRatio="xMinYMin meet" x="1008.22" y="-635.54"/>
<text text-anchor="start" x="1023.22" y="-625.09" font-family="Helvetica,sans-Serif" font-size="11.00">provider</text>
<polygon fill="#ffffff" stroke="none" points="1003.22,-596.54 1003.22,-618.54 1247.22,-618.54 1247.22,-596.54 1003.22,-596.54"/>
<polygon fill="none" stroke="black" points="1003.22,-596.54 1003.22,-618.54 1247.22,-618.54 1247.22,-596.54 1003.22,-596.54"/>
<image xlink:href="../../images/foreignKeys.png" width="11px" height="12px" preserveAspectRatio="xMinYMin meet" x="1008.22" y="-613.54"/>
<text text-anchor="start" x="1023.22" y="-603.09" font-family="Helvetica,sans-Serif" font-size="11.00">collection_omeka</text>
<polygon fill="#ffffff" stroke="none" points="1003.22,-574.54 1003.22,-596.54 1247.22,-596.54 1247.22,-574.54 1003.22,-574.54"/>
<polygon fill="none" stroke="black" points="1003.22,-574.54 1003.22,-596.54 1247.22,-596.54 1247.22,-574.54 1003.22,-574.54"/>
<image xlink:href="../../images/foreignKeys.png" width="11px" height="12px" preserveAspectRatio="xMinYMin meet" x="1008.22" y="-591.54"/>
<text text-anchor="start" x="1023.22" y="-581.09" font-family="Helvetica,sans-Serif" font-size="11.00">items_omeka</text>
<polygon fill="#ffffff" stroke="none" points="1003.22,-552.54 1003.22,-574.54 1247.22,-574.54 1247.22,-552.54 1003.22,-552.54"/>
<polygon fill="none" stroke="black" points="1003.22,-552.54 1003.22,-574.54 1247.22,-574.54 1247.22,-552.54 1003.22,-552.54"/>
<image xlink:href="../../images/foreignKeys.png" width="11px" height="12px" preserveAspectRatio="xMinYMin meet" x="1008.22" y="-569.54"/>
<text text-anchor="start" x="1023.22" y="-559.09" font-family="Helvetica,sans-Serif" font-size="11.00">active_configuration_export_ftp</text>
<polygon fill="#ffffff" stroke="none" points="1003.22,-530.54 1003.22,-552.54 1247.22,-552.54 1247.22,-530.54 1003.22,-530.54"/>
<polygon fill="none" stroke="black" points="1003.22,-530.54 1003.22,-552.54 1247.22,-552.54 1247.22,-530.54 1003.22,-530.54"/>
<image xlink:href="../../images/foreignKeys.png" width="11px" height="12px" preserveAspectRatio="xMinYMin meet" x="1008.22" y="-547.54"/>
<text text-anchor="start" x="1023.22" y="-537.09" font-family="Helvetica,sans-Serif" font-size="11.00">collection_ia</text>
<polygon fill="#ffffff" stroke="none" points="1003.22,-508.54 1003.22,-530.54 1247.22,-530.54 1247.22,-508.54 1003.22,-508.54"/>
<polygon fill="none" stroke="black" points="1003.22,-508.54 1003.22,-530.54 1247.22,-530.54 1247.22,-508.54 1003.22,-508.54"/>
<image xlink:href="../../images/foreignKeys.png" width="11px" height="12px" preserveAspectRatio="xMinYMin meet" x="1008.22" y="-525.54"/>
<text text-anchor="start" x="1023.22" y="-515.09" font-family="Helvetica,sans-Serif" font-size="11.00">classement_pac</text>
<polygon fill="#ffffff" stroke="none" points="1003.22,-486.54 1003.22,-508.54 1247.22,-508.54 1247.22,-486.54 1003.22,-486.54"/>
<polygon fill="none" stroke="black" points="1003.22,-486.54 1003.22,-508.54 1247.22,-508.54 1247.22,-486.54 1003.22,-486.54"/>
<image xlink:href="../../images/foreignKeys.png" width="11px" height="12px" preserveAspectRatio="xMinYMin meet" x="1008.22" y="-503.54"/>
<text text-anchor="start" x="1023.22" y="-493.09" font-family="Helvetica,sans-Serif" font-size="11.00">workflow_model</text>
<polygon fill="#ffffff" stroke="none" points="1003.22,-464.54 1003.22,-486.54 1247.22,-486.54 1247.22,-464.54 1003.22,-464.54"/>
<polygon fill="none" stroke="black" points="1003.22,-464.54 1003.22,-486.54 1247.22,-486.54 1247.22,-464.54 1003.22,-464.54"/>
<image xlink:href="../../images/foreignKeys.png" width="11px" height="12px" preserveAspectRatio="xMinYMin meet" x="1008.22" y="-481.54"/>
<text text-anchor="start" x="1023.22" y="-471.09" font-family="Helvetica,sans-Serif" font-size="11.00">active_format_configuration</text>
<polygon fill="#ffffff" stroke="none" points="1003.22,-442.54 1003.22,-464.54 1247.22,-464.54 1247.22,-442.54 1003.22,-442.54"/>
<polygon fill="none" stroke="black" points="1003.22,-442.54 1003.22,-464.54 1247.22,-464.54 1247.22,-442.54 1003.22,-442.54"/>
<image xlink:href="../../images/foreignKeys.png" width="11px" height="12px" preserveAspectRatio="xMinYMin meet" x="1008.22" y="-459.54"/>
<text text-anchor="start" x="1023.22" y="-449.09" font-family="Helvetica,sans-Serif" font-size="11.00">omeka_configuration</text>
<polygon fill="#ffffff" stroke="none" points="1003.22,-420.54 1003.22,-442.54 1247.22,-442.54 1247.22,-420.54 1003.22,-420.54"/>
<polygon fill="none" stroke="black" points="1003.22,-420.54 1003.22,-442.54 1247.22,-442.54 1247.22,-420.54 1003.22,-420.54"/>
<image xlink:href="../../images/foreignKeys.png" width="11px" height="12px" preserveAspectRatio="xMinYMin meet" x="1008.22" y="-437.54"/>
<text text-anchor="start" x="1023.22" y="-427.09" font-family="Helvetica,sans-Serif" font-size="11.00">active_export_ftp_delivery_folder</text>
<polygon fill="none" stroke="black" points="1003.22,-401.04 1003.22,-420.54 1247.22,-420.54 1247.22,-401.04 1003.22,-401.04"/>
<text text-anchor="start" x="1006.22" y="-407.09" font-family="Helvetica,sans-Serif" font-size="11.00">...</text>
<polygon fill="#ffffff" stroke="none" points="1003.22,-381.54 1003.22,-401.04 1093.05,-401.04 1093.05,-381.54 1003.22,-381.54"/>
<polygon fill="none" stroke="black" points="1003.22,-381.54 1003.22,-401.04 1093.05,-401.04 1093.05,-381.54 1003.22,-381.54"/>
<text text-anchor="start" x="1006.22" y="-387.59" font-family="Helvetica,sans-Serif" font-size="11.00">&lt; 13</text>
<polygon fill="#ffffff" stroke="none" points="1093.05,-381.54 1093.05,-401.04 1164.13,-401.04 1164.13,-381.54 1093.05,-381.54"/>
<polygon fill="none" stroke="black" points="1093.05,-381.54 1093.05,-401.04 1164.13,-401.04 1164.13,-381.54 1093.05,-381.54"/>
<text text-anchor="start" x="1153.63" y="-387.59" font-family="Helvetica,sans-Serif" font-size="11.00"> &#160;</text>
<polygon fill="#ffffff" stroke="none" points="1164.13,-381.54 1164.13,-401.04 1247.22,-401.04 1247.22,-381.54 1164.13,-381.54"/>
<polygon fill="none" stroke="black" points="1164.13,-381.54 1164.13,-401.04 1247.22,-401.04 1247.22,-381.54 1164.13,-381.54"/>
<text text-anchor="start" x="1224.72" y="-387.59" font-family="Helvetica,sans-Serif" font-size="11.00">7 &gt;</text>
</a>
</g>
</g>
<!-- doc_unit&#45;&gt;proj_project -->
<g id="edge14" class="edge">
<title>doc_unit:w&#45;&gt;proj_project:e</title>
<path fill="none" stroke="black" d="M1539.4,-699.91C1518.59,-697.39 1508.9,-690.17 1481.97,-687.79 1396.19,-680.21 1369.96,-660.72 1288.22,-687.79 1267.19,-694.75 1270.37,-717.54 1248.22,-717.54"/>
<polygon fill="black" stroke="black" points="1546.65,-700.32 1554.43,-704.37 1550.97,-700.56 1554.3,-700.75 1554.3,-700.75 1554.3,-700.75 1550.97,-700.56 1554.84,-697.18 1546.65,-700.32"/>
<ellipse fill="none" stroke="black" cx="1541.74" cy="-700.04" rx="3.2" ry="3.2"/>
</g>
<!-- lot_lot&#45;&gt;conf_configuration_check -->
<g id="edge21" class="edge">
<title>lot_lot:w&#45;&gt;conf_configuration_check:e</title>
<path fill="none" stroke="black" d="M1324.48,-729.54C1245.39,-748.59 1256.52,-916.75 1255.22,-917.79 1205.07,-957.87 727.82,-957.61 677.47,-917.79 616.93,-869.91 714.65,-748.79 637.47,-748.79"/>
<polygon fill="black" stroke="black" points="1331.44,-728.74 1339.8,-731.4 1335.74,-728.25 1339.05,-727.87 1339.05,-727.87 1339.05,-727.87 1335.74,-728.25 1338.98,-724.25 1331.44,-728.74"/>
<ellipse fill="none" stroke="black" cx="1326.55" cy="-729.3" rx="3.2" ry="3.2"/>
</g>
<!-- lot_lot&#45;&gt;conf_configuration_ftp -->
<g id="edge23" class="edge">
<title>lot_lot:w&#45;&gt;conf_configuration_ftp:e</title>
<path fill="none" stroke="black" d="M1324.24,-729.58C1245.26,-749.05 1278.38,-921.52 1255.22,-942.79 1183.72,-1008.44 917.91,-988.79 820.84,-988.79 820.84,-988.79 820.84,-988.79 526.59,-988.79 369.63,-988.79 367.6,-873.39 247.97,-771.79 229.51,-756.11 232.19,-734.79 207.97,-734.79"/>
<polygon fill="black" stroke="black" points="1331.44,-728.75 1339.8,-731.4 1335.74,-728.25 1339.05,-727.87 1339.05,-727.87 1339.05,-727.87 1335.74,-728.25 1338.97,-724.25 1331.44,-728.75"/>
<ellipse fill="none" stroke="black" cx="1326.55" cy="-729.31" rx="3.2" ry="3.2"/>
</g>
<!-- lot_lot&#45;&gt;conf_delivery_folder -->
<g id="edge24" class="edge">
<title>lot_lot:w&#45;&gt;conf_delivery_folder:e</title>
<path fill="none" stroke="black" d="M1324.16,-725.37C1302.02,-717.38 1299.85,-690.64 1288.22,-661.79 1261.74,-596.1 1307.83,-392.21 1255.22,-344.79 1169.38,-267.43 1110.12,-332.47 995.22,-344.79 957.69,-348.81 949.96,-362.79 912.22,-362.79"/>
<polygon fill="black" stroke="black" points="1331.48,-726.51 1338.83,-731.3 1335.77,-727.18 1339.06,-727.69 1339.06,-727.69 1339.06,-727.69 1335.77,-727.18 1339.94,-724.18 1331.48,-726.51"/>
<ellipse fill="none" stroke="black" cx="1326.62" cy="-725.76" rx="3.2" ry="3.2"/>
</g>
<!-- lot_lot&#45;&gt;conf_export_ftp -->
<g id="edge22" class="edge">
<title>lot_lot:w&#45;&gt;conf_export_ftp:e</title>
<path fill="none" stroke="black" d="M1324.14,-725.38C1301.97,-717.4 1299.68,-690.7 1288.22,-661.79 1258.86,-587.72 1314.09,-358.47 1255.22,-304.79 1169.83,-226.93 1110.73,-301.52 995.22,-304.79 734.36,-312.17 668.4,-319.49 410.72,-360.79 338.17,-372.42 317.93,-367.35 247.97,-389.79 218.44,-399.26 215.98,-419.79 184.97,-419.79"/>
<polygon fill="black" stroke="black" points="1331.48,-726.51 1338.84,-731.3 1335.77,-727.18 1339.06,-727.69 1339.06,-727.69 1339.06,-727.69 1335.77,-727.18 1339.94,-724.18 1331.48,-726.51"/>
<ellipse fill="none" stroke="black" cx="1326.62" cy="-725.76" rx="3.2" ry="3.2"/>
</g>
<!-- lot_lot&#45;&gt;conf_lists_omeka -->
<g id="edge28" class="edge">
<title>lot_lot:w&#45;&gt;conf_lists_omeka:e</title>
<path fill="none" stroke="black" d="M1324.25,-729.91C1290.95,-740.23 1295.66,-785.38 1255.22,-804.79 1112.52,-873.29 1059.5,-843.79 901.22,-843.79"/>
<polygon fill="black" stroke="black" points="1331.46,-728.92 1339.88,-731.4 1335.76,-728.33 1339.06,-727.88 1339.06,-727.88 1339.06,-727.88 1335.76,-728.33 1338.9,-724.27 1331.46,-728.92"/>
<ellipse fill="none" stroke="black" cx="1326.59" cy="-729.59" rx="3.2" ry="3.2"/>
</g>
<!-- lot_lot&#45;&gt;conf_lists_omeka -->
<g id="edge29" class="edge">
<title>lot_lot:w&#45;&gt;conf_lists_omeka:e</title>
<path fill="none" stroke="black" d="M1324.13,-729.96C1291.8,-740.08 1295.03,-782.97 1255.22,-800.79 1110.56,-865.55 1059.71,-843.79 901.22,-843.79"/>
<polygon fill="black" stroke="black" points="1331.46,-728.94 1339.88,-731.4 1335.76,-728.34 1339.06,-727.88 1339.06,-727.88 1339.06,-727.88 1335.76,-728.34 1338.89,-724.27 1331.46,-728.94"/>
<ellipse fill="none" stroke="black" cx="1326.59" cy="-729.62" rx="3.2" ry="3.2"/>
</g>
<!-- lot_lot&#45;&gt;conf_omeka -->
<g id="edge30" class="edge">
<title>lot_lot:w&#45;&gt;conf_omeka:e</title>
<path fill="none" stroke="black" d="M1324.37,-730.15C1307.76,-736.14 1302.88,-752.81 1288.22,-771.79 1267.68,-798.37 1282.15,-819.71 1255.22,-839.79 1203.58,-878.29 726.97,-929 677.47,-887.79 615.3,-836.03 685.21,-778.68 644.47,-708.79 629.14,-682.49 622.41,-664.79 591.97,-664.79"/>
<polygon fill="black" stroke="black" points="1331.48,-729.06 1339.93,-731.4 1335.76,-728.4 1339.06,-727.89 1339.06,-727.89 1339.06,-727.89 1335.76,-728.4 1338.84,-724.28 1331.48,-729.06"/>
<ellipse fill="none" stroke="black" cx="1326.62" cy="-729.8" rx="3.2" ry="3.2"/>
</g>
<!-- lot_lot&#45;&gt;conf_views_format_configuration -->
<g id="edge25" class="edge">
<title>lot_lot:w&#45;&gt;conf_views_format_configuration:e</title>
<path fill="none" stroke="black" d="M1324.39,-729.85C1294.54,-738.75 1293.12,-774.03 1255.22,-785.79 1200.03,-802.91 1043.54,-817.47 995.22,-785.79 957.93,-761.34 999.8,-693.79 955.22,-693.79"/>
<polygon fill="black" stroke="black" points="1331.46,-728.9 1339.87,-731.4 1335.75,-728.32 1339.06,-727.88 1339.06,-727.88 1339.06,-727.88 1335.75,-728.32 1338.91,-724.27 1331.46,-728.9"/>
<ellipse fill="none" stroke="black" cx="1326.58" cy="-729.55" rx="3.2" ry="3.2"/>
</g>
<!-- lot_lot&#45;&gt;conf_classement_pac -->
<g id="edge26" class="edge">
<title>lot_lot:w&#45;&gt;conf_classement_pac:e</title>
<path fill="none" stroke="black" d="M1324.13,-725.38C1301.9,-717.43 1299.46,-690.79 1288.22,-661.79 1253.89,-573.26 1318.32,-306.74 1255.22,-235.79 1242.41,-221.38 934,-168.79 914.72,-168.79"/>
<polygon fill="black" stroke="black" points="1331.48,-726.52 1338.84,-731.3 1335.76,-727.18 1339.06,-727.69 1339.06,-727.69 1339.06,-727.69 1335.76,-727.18 1339.94,-724.18 1331.48,-726.52"/>
<ellipse fill="none" stroke="black" cx="1326.62" cy="-725.77" rx="3.2" ry="3.2"/>
</g>
<!-- lot_lot&#45;&gt;conf_collection_ia -->
<g id="edge27" class="edge">
<title>lot_lot:w&#45;&gt;conf_collection_ia:e</title>
<path fill="none" stroke="black" d="M1324.13,-725.38C1301.92,-717.41 1299.55,-690.75 1288.22,-661.79 1256.12,-579.76 1318.85,-327.7 1255.22,-266.79 1198.67,-212.65 981.5,-252.79 903.22,-252.79"/>
<polygon fill="black" stroke="black" points="1331.48,-726.52 1338.84,-731.3 1335.76,-727.18 1339.06,-727.69 1339.06,-727.69 1339.06,-727.69 1335.76,-727.18 1339.94,-724.18 1331.48,-726.52"/>
<ellipse fill="none" stroke="black" cx="1326.62" cy="-725.77" rx="3.2" ry="3.2"/>
</g>
<!-- lot_lot&#45;&gt;proj_project -->
<g id="edge31" class="edge">
<title>lot_lot:w&#45;&gt;proj_project:e</title>
<path fill="none" stroke="black" d="M1324.14,-727.24C1295.46,-725.11 1283.38,-717.54 1248.22,-717.54"/>
<polygon fill="black" stroke="black" points="1331.39,-727.5 1339.26,-731.38 1335.72,-727.65 1339.05,-727.77 1339.05,-727.77 1339.05,-727.77 1335.72,-727.65 1339.51,-724.18 1331.39,-727.5"/>
<ellipse fill="none" stroke="black" cx="1326.47" cy="-727.32" rx="3.2" ry="3.2"/>
</g>
<!-- user_user -->
<g id="node15" class="node">
<title>user_user</title>
<g id="a_node15"><a xlink:href="../../tables/user_user.html" xlink:title="user_user" target="_top">
<polygon fill="#ffffff" stroke="none" points="763.97,-443.54 763.97,-506.04 875.72,-506.04 875.72,-443.54 763.97,-443.54"/>
<polygon fill="#f5f5f5" stroke="none" points="763.97,-482.54 763.97,-506.04 875.72,-506.04 875.72,-482.54 763.97,-482.54"/>
<polygon fill="none" stroke="black" points="763.97,-482.54 763.97,-506.04 875.72,-506.04 875.72,-482.54 763.97,-482.54"/>
<text text-anchor="start" x="768.97" y="-491.59" font-family="Helvetica,sans-Serif" font-weight="bold" font-size="11.00">user_user</text>
<text text-anchor="start" x="833.97" y="-490.59" font-family="Helvetica,sans-Serif" font-size="11.00">[table]</text>
<polygon fill="none" stroke="black" points="763.97,-463.04 763.97,-482.54 875.72,-482.54 875.72,-463.04 763.97,-463.04"/>
<text text-anchor="start" x="766.97" y="-469.09" font-family="Helvetica,sans-Serif" font-size="11.00">...</text>
<polygon fill="#ffffff" stroke="none" points="763.97,-443.54 763.97,-463.04 805.22,-463.04 805.22,-443.54 763.97,-443.54"/>
<polygon fill="none" stroke="black" points="763.97,-443.54 763.97,-463.04 805.22,-463.04 805.22,-443.54 763.97,-443.54"/>
<text text-anchor="start" x="766.97" y="-449.59" font-family="Helvetica,sans-Serif" font-size="11.00">&lt; 4</text>
<polygon fill="#ffffff" stroke="none" points="805.22,-443.54 805.22,-463.04 834.47,-463.04 834.47,-443.54 805.22,-443.54"/>
<polygon fill="none" stroke="black" points="805.22,-443.54 805.22,-463.04 834.47,-463.04 834.47,-443.54 805.22,-443.54"/>
<text text-anchor="start" x="823.97" y="-449.59" font-family="Helvetica,sans-Serif" font-size="11.00"> &#160;</text>
<polygon fill="#ffffff" stroke="none" points="834.47,-443.54 834.47,-463.04 875.72,-463.04 875.72,-443.54 834.47,-443.54"/>
<polygon fill="none" stroke="black" points="834.47,-443.54 834.47,-463.04 875.72,-463.04 875.72,-443.54 834.47,-443.54"/>
<text text-anchor="start" x="853.22" y="-449.59" font-family="Helvetica,sans-Serif" font-size="11.00">4 &gt;</text>
</a>
</g>
</g>
<!-- lot_lot&#45;&gt;user_user -->
<g id="edge32" class="edge">
<title>lot_lot:w&#45;&gt;user_user:e</title>
<path fill="none" stroke="black" d="M1324.17,-725.37C1302.06,-717.36 1299.98,-690.58 1288.22,-661.79 1263.61,-601.54 1303.76,-414.14 1255.22,-370.79 1212.12,-332.31 1048.1,-347.52 995.22,-370.79 975.35,-379.53 978.2,-392.1 962.22,-406.79 926.87,-439.27 924.72,-472.79 876.72,-472.79"/>
<polygon fill="black" stroke="black" points="1331.48,-726.51 1338.83,-731.3 1335.77,-727.17 1339.06,-727.69 1339.06,-727.69 1339.06,-727.69 1335.77,-727.17 1339.94,-724.18 1331.48,-726.51"/>
<ellipse fill="none" stroke="black" cx="1326.62" cy="-725.75" rx="3.2" ry="3.2"/>
</g>
<!-- workflow_model -->
<g id="node16" class="node">
<title>workflow_model</title>
<g id="a_node16"><a xlink:href="../../tables/workflow_model.html" xlink:title="workflow_model" target="_top">
<polygon fill="#ffffff" stroke="none" points="741.97,-580.54 741.97,-643.04 897.72,-643.04 897.72,-580.54 741.97,-580.54"/>
<polygon fill="#f5f5f5" stroke="none" points="741.97,-619.54 741.97,-643.04 897.72,-643.04 897.72,-619.54 741.97,-619.54"/>
<polygon fill="none" stroke="black" points="741.97,-619.54 741.97,-643.04 897.72,-643.04 897.72,-619.54 741.97,-619.54"/>
<text text-anchor="start" x="746.97" y="-628.59" font-family="Helvetica,sans-Serif" font-weight="bold" font-size="11.00">workflow_model</text>
<text text-anchor="start" x="855.97" y="-627.59" font-family="Helvetica,sans-Serif" font-size="11.00">[table]</text>
<polygon fill="none" stroke="black" points="741.97,-600.04 741.97,-619.54 897.72,-619.54 897.72,-600.04 741.97,-600.04"/>
<text text-anchor="start" x="744.97" y="-606.09" font-family="Helvetica,sans-Serif" font-size="11.00">...</text>
<polygon fill="#ffffff" stroke="none" points="741.97,-580.54 741.97,-600.04 797.88,-600.04 797.88,-580.54 741.97,-580.54"/>
<polygon fill="none" stroke="black" points="741.97,-580.54 741.97,-600.04 797.88,-600.04 797.88,-580.54 741.97,-580.54"/>
<text text-anchor="start" x="744.97" y="-586.59" font-family="Helvetica,sans-Serif" font-size="11.00">&lt; 1</text>
<polygon fill="#ffffff" stroke="none" points="797.88,-580.54 797.88,-600.04 841.8,-600.04 841.8,-580.54 797.88,-580.54"/>
<polygon fill="none" stroke="black" points="797.88,-580.54 797.88,-600.04 841.8,-600.04 841.8,-580.54 797.88,-580.54"/>
<text text-anchor="start" x="831.3" y="-586.59" font-family="Helvetica,sans-Serif" font-size="11.00"> &#160;</text>
<polygon fill="#ffffff" stroke="none" points="841.8,-580.54 841.8,-600.04 897.72,-600.04 897.72,-580.54 841.8,-580.54"/>
<polygon fill="none" stroke="black" points="841.8,-580.54 841.8,-600.04 897.72,-600.04 897.72,-580.54 841.8,-580.54"/>
<text text-anchor="start" x="875.22" y="-586.59" font-family="Helvetica,sans-Serif" font-size="11.00">4 &gt;</text>
</a>
</g>
</g>
<!-- lot_lot&#45;&gt;workflow_model -->
<g id="edge33" class="edge">
<title>lot_lot:w&#45;&gt;workflow_model:e</title>
<path fill="none" stroke="black" d="M1324.17,-729.35C1297.17,-735.21 1289.32,-756.01 1255.22,-762.79 1198.55,-774.06 1041.62,-797.22 995.22,-762.79 954.57,-732.63 992.01,-694.71 962.22,-653.79 942.01,-626.03 933.05,-609.79 898.72,-609.79"/>
<polygon fill="black" stroke="black" points="1331.43,-728.62 1339.74,-731.41 1335.74,-728.19 1339.05,-727.86 1339.05,-727.86 1339.05,-727.86 1335.74,-728.19 1339.03,-724.24 1331.43,-728.62"/>
<ellipse fill="none" stroke="black" cx="1326.53" cy="-729.11" rx="3.2" ry="3.2"/>
</g>
<!-- proj_project&#45;&gt;conf_configuration_check -->
<g id="edge36" class="edge">
<title>proj_project:w&#45;&gt;conf_configuration_check:e</title>
<path fill="none" stroke="black" d="M987.19,-656.17C970.3,-671.12 991.66,-718.28 962.22,-737.79 841.83,-817.56 781.88,-748.79 637.47,-748.79"/>
<polygon fill="black" stroke="black" points="994.25,-653.99 1002.96,-655.08 998.4,-652.72 1001.58,-651.74 1001.58,-651.74 1001.58,-651.74 998.4,-652.72 1000.84,-648.2 994.25,-653.99"/>
<ellipse fill="none" stroke="black" cx="989.55" cy="-655.44" rx="3.2" ry="3.2"/>
</g>
<!-- proj_project&#45;&gt;lib_library -->
<g id="edge45" class="edge">
<title>proj_project:w&#45;&gt;lib_library:e</title>
<path fill="none" stroke="black" d="M986.74,-692.25C957.07,-675.62 1004.2,-600.49 962.22,-569.79 863.29,-497.45 512.82,-504.01 410.72,-571.79 373.23,-596.68 415.71,-664.79 370.72,-664.79"/>
<polygon fill="black" stroke="black" points="994.07,-693.81 1001.14,-698.99 998.31,-694.71 1001.56,-695.4 1001.56,-695.4 1001.56,-695.4 998.31,-694.71 1002.64,-691.95 994.07,-693.81"/>
<ellipse fill="none" stroke="black" cx="989.26" cy="-692.78" rx="3.2" ry="3.2"/>
</g>
<!-- proj_project&#45;&gt;conf_configuration_ftp -->
<g id="edge38" class="edge">
<title>proj_project:w&#45;&gt;conf_configuration_ftp:e</title>
<path fill="none" stroke="black" d="M987.07,-677.82C968.01,-692.99 993.25,-744.47 962.22,-766.79 904.71,-808.16 715.26,-789.9 644.47,-792.79 540.67,-797.03 513.6,-807.22 410.72,-792.79 317.9,-779.77 301.69,-734.79 207.97,-734.79"/>
<polygon fill="black" stroke="black" points="994.2,-675.81 1002.87,-677.1 998.37,-674.63 1001.57,-673.72 1001.57,-673.72 1001.57,-673.72 998.37,-674.63 1000.92,-670.17 994.2,-675.81"/>
<ellipse fill="none" stroke="black" cx="989.46" cy="-677.14" rx="3.2" ry="3.2"/>
</g>
<!-- proj_project&#45;&gt;conf_delivery_folder -->
<g id="edge39" class="edge">
<title>proj_project:w&#45;&gt;conf_delivery_folder:e</title>
<path fill="none" stroke="black" d="M986.84,-428.93C953.55,-416.37 956.65,-362.79 912.22,-362.79"/>
<polygon fill="black" stroke="black" points="994,-430.14 1001.29,-435.03 998.27,-430.87 1001.56,-431.43 1001.56,-431.43 1001.56,-431.43 998.27,-430.87 1002.49,-427.93 994,-430.14"/>
<ellipse fill="none" stroke="black" cx="989.15" cy="-429.32" rx="3.2" ry="3.2"/>
</g>
<!-- proj_project&#45;&gt;conf_export_ftp -->
<g id="edge37" class="edge">
<title>proj_project:w&#45;&gt;conf_export_ftp:e</title>
<path fill="none" stroke="black" d="M987.04,-560.57C954.76,-544.31 1005.65,-465.49 962.22,-432.79 927.72,-406.82 228.15,-419.79 184.97,-419.79"/>
<polygon fill="black" stroke="black" points="994.04,-561.94 1001.2,-567.01 998.29,-562.77 1001.56,-563.41 1001.56,-563.41 1001.56,-563.41 998.29,-562.77 1002.58,-559.94 994.04,-561.94"/>
<ellipse fill="none" stroke="black" cx="989.21" cy="-561" rx="3.2" ry="3.2"/>
</g>
<!-- proj_project&#45;&gt;conf_lists_omeka -->
<g id="edge43" class="edge">
<title>proj_project:w&#45;&gt;conf_lists_omeka:e</title>
<path fill="none" stroke="black" d="M986.7,-609.17C926.93,-623.72 1007.03,-732.46 962.22,-800.79 944.03,-828.53 934.39,-843.79 901.22,-843.79"/>
<polygon fill="black" stroke="black" points="993.93,-608.41 1002.26,-611.16 998.24,-607.96 1001.55,-607.61 1001.55,-607.61 1001.55,-607.61 998.24,-607.96 1001.51,-603.99 993.93,-608.41"/>
<ellipse fill="none" stroke="black" cx="989.04" cy="-608.92" rx="3.2" ry="3.2"/>
</g>
<!-- proj_project&#45;&gt;conf_lists_omeka -->
<g id="edge44" class="edge">
<title>proj_project:w&#45;&gt;conf_lists_omeka:e</title>
<path fill="none" stroke="black" d="M988.32,-592.23C960.91,-624.56 985.4,-764.64 962.22,-800.79 944.31,-828.71 934.39,-843.79 901.22,-843.79"/>
<polygon fill="black" stroke="black" points="994.71,-589.15 1003.48,-588.93 998.61,-587.27 1001.62,-585.83 1001.62,-585.83 1001.62,-585.83 998.61,-587.27 1000.36,-582.44 994.71,-589.15"/>
<ellipse fill="none" stroke="black" cx="990.28" cy="-591.29" rx="3.2" ry="3.2"/>
</g>
<!-- proj_project&#45;&gt;conf_omeka -->
<g id="edge46" class="edge">
<title>proj_project:w&#45;&gt;conf_omeka:e</title>
<path fill="none" stroke="black" d="M987.43,-458.83C975.58,-471.2 983.95,-502.07 962.22,-516.79 855.64,-588.99 789.75,-506.83 677.47,-569.79 627.92,-597.57 648.77,-664.79 591.97,-664.79"/>
<polygon fill="black" stroke="black" points="994.37,-456.35 1003.12,-457.04 998.45,-454.89 1001.59,-453.77 1001.59,-453.77 1001.59,-453.77 998.45,-454.89 1000.69,-450.26 994.37,-456.35"/>
<ellipse fill="none" stroke="black" cx="989.74" cy="-458" rx="3.2" ry="3.2"/>
</g>
<!-- proj_project&#45;&gt;conf_views_format_configuration -->
<g id="edge40" class="edge">
<title>proj_project:w&#45;&gt;conf_views_format_configuration:e</title>
<path fill="none" stroke="black" d="M986.84,-477.84C920.41,-501.17 1048.43,-693.79 955.22,-693.79"/>
<polygon fill="black" stroke="black" points="993.98,-476.77 1002.42,-479.15 998.26,-476.13 1001.56,-475.64 1001.56,-475.64 1001.56,-475.64 998.26,-476.13 1001.35,-472.03 993.98,-476.77"/>
<ellipse fill="none" stroke="black" cx="989.11" cy="-477.5" rx="3.2" ry="3.2"/>
</g>
<!-- proj_project&#45;&gt;conf_classement_pac -->
<g id="edge41" class="edge">
<title>proj_project:w&#45;&gt;conf_classement_pac:e</title>
<path fill="none" stroke="black" d="M987.5,-514.6C942.95,-479.58 991.11,-268.74 962.22,-212.79 949.02,-187.22 943.49,-168.79 914.72,-168.79"/>
<polygon fill="black" stroke="black" points="994.32,-516.89 1000.75,-522.85 998.43,-518.27 1001.58,-519.33 1001.58,-519.33 1001.58,-519.33 998.43,-518.27 1003.05,-516.02 994.32,-516.89"/>
<ellipse fill="none" stroke="black" cx="989.65" cy="-515.32" rx="3.2" ry="3.2"/>
</g>
<!-- proj_project&#45;&gt;conf_collection_ia -->
<g id="edge42" class="edge">
<title>proj_project:w&#45;&gt;conf_collection_ia:e</title>
<path fill="none" stroke="black" d="M987.93,-534.86C959.24,-502.52 980.82,-362.25 962.22,-322.79 944.87,-285.99 943.91,-252.79 903.22,-252.79"/>
<polygon fill="black" stroke="black" points="994.67,-538.01 1000.39,-544.66 998.59,-539.85 1001.61,-541.26 1001.61,-541.26 1001.61,-541.26 998.59,-539.85 1003.44,-538.14 994.67,-538.01"/>
<ellipse fill="none" stroke="black" cx="990.21" cy="-535.93" rx="3.2" ry="3.2"/>
</g>
<!-- proj_project&#45;&gt;user_user -->
<g id="edge47" class="edge">
<title>proj_project:w&#45;&gt;user_user:e</title>
<path fill="none" stroke="black" d="M986.98,-626.44C960.49,-612.44 991.79,-554.27 962.22,-519.79 933.99,-486.87 920.08,-472.79 876.72,-472.79"/>
<polygon fill="black" stroke="black" points="994.05,-627.88 1001.17,-633 998.3,-628.74 1001.56,-629.41 1001.56,-629.41 1001.56,-629.41 998.3,-628.74 1002.61,-625.95 994.05,-627.88"/>
<ellipse fill="none" stroke="black" cx="989.23" cy="-626.9" rx="3.2" ry="3.2"/>
</g>
<!-- proj_project&#45;&gt;workflow_model -->
<g id="edge48" class="edge">
<title>proj_project:w&#45;&gt;workflow_model:e</title>
<path fill="none" stroke="black" d="M987.4,-501.7C972.54,-513.15 981.9,-545.65 962.22,-566.79 938.99,-591.74 932.8,-609.79 898.72,-609.79"/>
<polygon fill="black" stroke="black" points="994.19,-499.79 1002.87,-501.1 998.37,-498.62 1001.57,-497.72 1001.57,-497.72 1001.57,-497.72 998.37,-498.62 1000.92,-494.16 994.19,-499.79"/>
<ellipse fill="none" stroke="black" cx="989.46" cy="-501.12" rx="3.2" ry="3.2"/>
</g>
<!-- exc_import_report -->
<g id="node14" class="node">
<title>exc_import_report</title>
<g id="a_node14"><a xlink:href="../../tables/exc_import_report.html" xlink:title="exc_import_report" target="_top">
<polygon fill="#ffffff" stroke="none" points="1522.97,-478.54 1522.97,-541.04 1691.72,-541.04 1691.72,-478.54 1522.97,-478.54"/>
<polygon fill="#f5f5f5" stroke="none" points="1522.97,-517.54 1522.97,-541.04 1691.72,-541.04 1691.72,-517.54 1522.97,-517.54"/>
<polygon fill="none" stroke="black" points="1522.97,-517.54 1522.97,-541.04 1691.72,-541.04 1691.72,-517.54 1522.97,-517.54"/>
<text text-anchor="start" x="1527.97" y="-526.59" font-family="Helvetica,sans-Serif" font-weight="bold" font-size="11.00">exc_import_report</text>
<text text-anchor="start" x="1649.97" y="-525.59" font-family="Helvetica,sans-Serif" font-size="11.00">[table]</text>
<polygon fill="none" stroke="black" points="1522.97,-498.04 1522.97,-517.54 1691.72,-517.54 1691.72,-498.04 1522.97,-498.04"/>
<text text-anchor="start" x="1525.97" y="-504.09" font-family="Helvetica,sans-Serif" font-size="11.00">...</text>
<polygon fill="#ffffff" stroke="none" points="1522.97,-478.54 1522.97,-498.04 1583.22,-498.04 1583.22,-478.54 1522.97,-478.54"/>
<polygon fill="none" stroke="black" points="1522.97,-478.54 1522.97,-498.04 1583.22,-498.04 1583.22,-478.54 1522.97,-478.54"/>
<text text-anchor="start" x="1525.97" y="-484.59" font-family="Helvetica,sans-Serif" font-size="11.00">&lt; 7</text>
<polygon fill="#ffffff" stroke="none" points="1583.22,-478.54 1583.22,-498.04 1631.47,-498.04 1631.47,-478.54 1583.22,-478.54"/>
<polygon fill="none" stroke="black" points="1583.22,-478.54 1583.22,-498.04 1631.47,-498.04 1631.47,-478.54 1583.22,-478.54"/>
<text text-anchor="start" x="1620.97" y="-484.59" font-family="Helvetica,sans-Serif" font-size="11.00"> &#160;</text>
<polygon fill="#ffffff" stroke="none" points="1631.47,-478.54 1631.47,-498.04 1691.72,-498.04 1691.72,-478.54 1631.47,-478.54"/>
<polygon fill="none" stroke="black" points="1631.47,-478.54 1631.47,-498.04 1691.72,-498.04 1691.72,-478.54 1631.47,-478.54"/>
<text text-anchor="start" x="1669.22" y="-484.59" font-family="Helvetica,sans-Serif" font-size="11.00">3 &gt;</text>
</a>
</g>
</g>
<!-- exc_import_report&#45;&gt;lib_library -->
<g id="edge15" class="edge">
<title>exc_import_report:w&#45;&gt;lib_library:e</title>
<path fill="none" stroke="black" d="M1506.87,-503.23C1451.73,-463.91 1540.23,-182.44 1481.97,-129.79 1404.54,-59.81 1033.65,43.22 677.47,-128.79 505.77,-211.71 490.93,-291.81 410.72,-464.79 391.65,-505.91 416.04,-664.79 370.72,-664.79"/>
<polygon fill="black" stroke="black" points="1513.99,-505.38 1520.61,-511.14 1518.14,-506.63 1521.33,-507.6 1521.33,-507.6 1521.33,-507.6 1518.14,-506.63 1522.69,-504.25 1513.99,-505.38"/>
<ellipse fill="none" stroke="black" cx="1509.28" cy="-503.96" rx="3.2" ry="3.2"/>
</g>
<!-- exc_import_report&#45;&gt;lot_lot -->
<g id="edge16" class="edge">
<title>exc_import_report:w&#45;&gt;lot_lot:e</title>
<path fill="none" stroke="black" d="M1506.53,-509.72C1461.22,-523.16 1510.57,-603.82 1481.97,-661.79 1465.5,-695.16 1467.67,-727.79 1430.47,-727.79"/>
<polygon fill="black" stroke="black" points="1513.7,-508.83 1522.08,-511.4 1518,-508.29 1521.3,-507.87 1521.3,-507.87 1521.3,-507.87 1518,-508.29 1521.19,-504.26 1513.7,-508.83"/>
<ellipse fill="none" stroke="black" cx="1508.82" cy="-509.44" rx="3.2" ry="3.2"/>
</g>
<!-- exc_import_report&#45;&gt;proj_project -->
<g id="edge17" class="edge">
<title>exc_import_report:w&#45;&gt;proj_project:e</title>
<path fill="none" stroke="black" d="M1506.24,-507.6C1410.73,-505.37 1360.84,-485.19 1288.22,-554.79 1234.44,-606.33 1322.7,-717.54 1248.22,-717.54"/>
<polygon fill="black" stroke="black" points="1513.63,-507.69 1521.59,-511.39 1517.97,-507.74 1521.3,-507.78 1521.3,-507.78 1521.3,-507.78 1517.97,-507.74 1521.68,-504.19 1513.63,-507.69"/>
<ellipse fill="none" stroke="black" cx="1508.72" cy="-507.63" rx="3.2" ry="3.2"/>
</g>
<!-- user_user&#45;&gt;lib_library -->
<g id="edge56" class="edge">
<title>user_user:w&#45;&gt;lib_library:e</title>
<path fill="none" stroke="black" d="M747.32,-472.69C598.12,-470.81 526.43,-444.17 410.72,-546.79 369.29,-583.53 426.09,-664.79 370.72,-664.79"/>
<polygon fill="black" stroke="black" points="754.63,-472.74 762.61,-476.39 758.97,-472.76 762.3,-472.79 762.3,-472.79 762.3,-472.79 758.97,-472.76 762.66,-469.19 754.63,-472.74"/>
<ellipse fill="none" stroke="black" cx="749.72" cy="-472.71" rx="3.2" ry="3.2"/>
</g>
<!-- workflow_model&#45;&gt;lib_library -->
<g id="edge57" class="edge">
<title>workflow_model:w&#45;&gt;lib_library:e</title>
<path fill="none" stroke="black" d="M725.41,-609.51C590.17,-604.61 535.47,-538.03 410.72,-604.79 382.46,-619.91 402.77,-664.79 370.72,-664.79"/>
<polygon fill="black" stroke="black" points="732.63,-609.64 740.57,-613.38 736.97,-609.72 740.3,-609.78 740.3,-609.78 740.3,-609.78 736.97,-609.72 740.7,-606.18 732.63,-609.64"/>
<ellipse fill="none" stroke="black" cx="727.72" cy="-609.55" rx="3.2" ry="3.2"/>
</g>
<!-- plat_platform -->
<g id="node17" class="node">
<title>plat_platform</title>
<g id="a_node17"><a xlink:href="../../tables/plat_platform.html" xlink:title="plat_platform" target="_top">
<polygon fill="#ffffff" stroke="none" points="1533.34,-755.54 1533.34,-884.04 1681.34,-884.04 1681.34,-755.54 1533.34,-755.54"/>
<polygon fill="#f5f5f5" stroke="none" points="1533.34,-860.54 1533.34,-884.04 1681.34,-884.04 1681.34,-860.54 1533.34,-860.54"/>
<polygon fill="none" stroke="black" points="1533.34,-860.54 1533.34,-884.04 1681.34,-884.04 1681.34,-860.54 1533.34,-860.54"/>
<text text-anchor="start" x="1538.34" y="-869.59" font-family="Helvetica,sans-Serif" font-weight="bold" font-size="11.00">plat_platform</text>
<text text-anchor="start" x="1639.59" y="-868.59" font-family="Helvetica,sans-Serif" font-size="11.00">[table]</text>
<polygon fill="none" stroke="black" points="1533.34,-838.54 1533.34,-860.54 1681.34,-860.54 1681.34,-838.54 1533.34,-838.54"/>
<image xlink:href="../../images/primaryKeys.png" width="11px" height="12px" preserveAspectRatio="xMinYMin meet" x="1538.34" y="-855.54"/>
<text text-anchor="start" x="1553.34" y="-845.09" font-family="Helvetica,sans-Serif" font-size="11.00">identifier</text>
<polygon fill="#ffffff" stroke="none" points="1533.34,-816.54 1533.34,-838.54 1681.34,-838.54 1681.34,-816.54 1533.34,-816.54"/>
<polygon fill="none" stroke="black" points="1533.34,-816.54 1533.34,-838.54 1681.34,-838.54 1681.34,-816.54 1533.34,-816.54"/>
<image xlink:href="../../images/foreignKeys.png" width="11px" height="12px" preserveAspectRatio="xMinYMin meet" x="1538.34" y="-833.54"/>
<text text-anchor="start" x="1553.34" y="-823.09" font-family="Helvetica,sans-Serif" font-size="11.00">library</text>
<polygon fill="#ffffff" stroke="none" points="1533.34,-794.54 1533.34,-816.54 1681.34,-816.54 1681.34,-794.54 1533.34,-794.54"/>
<polygon fill="none" stroke="black" points="1533.34,-794.54 1533.34,-816.54 1681.34,-816.54 1681.34,-794.54 1533.34,-794.54"/>
<image xlink:href="../../images/foreignKeys.png" width="11px" height="12px" preserveAspectRatio="xMinYMin meet" x="1538.34" y="-811.54"/>
<text text-anchor="start" x="1553.34" y="-801.09" font-family="Helvetica,sans-Serif" font-size="11.00">lot</text>
<polygon fill="none" stroke="black" points="1533.34,-775.04 1533.34,-794.54 1681.34,-794.54 1681.34,-775.04 1533.34,-775.04"/>
<text text-anchor="start" x="1536.34" y="-781.09" font-family="Helvetica,sans-Serif" font-size="11.00">...</text>
<polygon fill="#ffffff" stroke="none" points="1533.34,-755.54 1533.34,-775.04 1586.68,-775.04 1586.68,-755.54 1533.34,-755.54"/>
<polygon fill="none" stroke="black" points="1533.34,-755.54 1533.34,-775.04 1586.68,-775.04 1586.68,-755.54 1533.34,-755.54"/>
<text text-anchor="start" x="1536.34" y="-761.59" font-family="Helvetica,sans-Serif" font-size="11.00">&lt; 2</text>
<polygon fill="#ffffff" stroke="none" points="1586.68,-755.54 1586.68,-775.04 1628.01,-775.04 1628.01,-755.54 1586.68,-755.54"/>
<polygon fill="none" stroke="black" points="1586.68,-755.54 1586.68,-775.04 1628.01,-775.04 1628.01,-755.54 1586.68,-755.54"/>
<text text-anchor="start" x="1617.51" y="-761.59" font-family="Helvetica,sans-Serif" font-size="11.00"> &#160;</text>
<polygon fill="#ffffff" stroke="none" points="1628.01,-755.54 1628.01,-775.04 1681.34,-775.04 1681.34,-755.54 1628.01,-755.54"/>
<polygon fill="none" stroke="black" points="1628.01,-755.54 1628.01,-775.04 1681.34,-775.04 1681.34,-755.54 1628.01,-755.54"/>
<text text-anchor="start" x="1658.84" y="-761.59" font-family="Helvetica,sans-Serif" font-size="11.00">1 &gt;</text>
</a>
</g>
</g>
<!-- plat_platform&#45;&gt;lib_library -->
<g id="edge34" class="edge">
<title>plat_platform:w&#45;&gt;lib_library:e</title>
<path fill="none" stroke="black" d="M1517,-830.19C1482.85,-844.73 1521.1,-915.59 1481.97,-951.79 1362.17,-1062.62 1289.42,-1042.79 1126.22,-1042.79 1126.22,-1042.79 1126.22,-1042.79 818.84,-1042.79 630.87,-1042.79 530.42,-1076.73 410.72,-931.79 372.51,-885.53 430.71,-664.79 370.72,-664.79"/>
<polygon fill="black" stroke="black" points="1524.13,-828.96 1532.63,-831.14 1528.4,-828.22 1531.68,-827.65 1531.68,-827.65 1531.68,-827.65 1528.4,-828.22 1531.4,-824.05 1524.13,-828.96"/>
<ellipse fill="none" stroke="black" cx="1519.28" cy="-829.79" rx="3.2" ry="3.2"/>
</g>
<!-- plat_platform&#45;&gt;lot_lot -->
<g id="edge35" class="edge">
<title>plat_platform:w&#45;&gt;lot_lot:e</title>
<path fill="none" stroke="black" d="M1516.72,-803.21C1477.14,-790.28 1481.53,-727.79 1430.47,-727.79"/>
<polygon fill="black" stroke="black" points="1524.1,-804.31 1531.48,-809.05 1528.39,-804.95 1531.68,-805.44 1531.68,-805.44 1531.68,-805.44 1528.39,-804.95 1532.54,-801.93 1524.1,-804.31"/>
<ellipse fill="none" stroke="black" cx="1519.23" cy="-803.59" rx="3.2" ry="3.2"/>
</g>
<!-- proj_project_library -->
<g id="node18" class="node">
<title>proj_project_library</title>
<g id="a_node18"><a xlink:href="../../tables/proj_project_library.html" xlink:title="proj_project_library" target="_top">
<polygon fill="#ffffff" stroke="none" points="1296.22,-782.54 1296.22,-845.04 1473.97,-845.04 1473.97,-782.54 1296.22,-782.54"/>
<polygon fill="#f5f5f5" stroke="none" points="1296.22,-821.54 1296.22,-845.04 1473.97,-845.04 1473.97,-821.54 1296.22,-821.54"/>
<polygon fill="none" stroke="black" points="1296.22,-821.54 1296.22,-845.04 1473.97,-845.04 1473.97,-821.54 1296.22,-821.54"/>
<text text-anchor="start" x="1301.22" y="-830.59" font-family="Helvetica,sans-Serif" font-weight="bold" font-size="11.00">proj_project_library</text>
<text text-anchor="start" x="1432.22" y="-829.59" font-family="Helvetica,sans-Serif" font-size="11.00">[table]</text>
<polygon fill="none" stroke="black" points="1296.22,-802.04 1296.22,-821.54 1473.97,-821.54 1473.97,-802.04 1296.22,-802.04"/>
<text text-anchor="start" x="1299.22" y="-808.09" font-family="Helvetica,sans-Serif" font-size="11.00">...</text>
<polygon fill="#ffffff" stroke="none" points="1296.22,-782.54 1296.22,-802.04 1363.47,-802.04 1363.47,-782.54 1296.22,-782.54"/>
<polygon fill="none" stroke="black" points="1296.22,-782.54 1296.22,-802.04 1363.47,-802.04 1363.47,-782.54 1296.22,-782.54"/>
<text text-anchor="start" x="1299.22" y="-788.59" font-family="Helvetica,sans-Serif" font-size="11.00">&lt; 2</text>
<polygon fill="#ffffff" stroke="none" points="1363.47,-782.54 1363.47,-802.04 1418.72,-802.04 1418.72,-782.54 1363.47,-782.54"/>
<polygon fill="none" stroke="black" points="1363.47,-782.54 1363.47,-802.04 1418.72,-802.04 1418.72,-782.54 1363.47,-782.54"/>
<text text-anchor="start" x="1408.22" y="-788.59" font-family="Helvetica,sans-Serif" font-size="11.00"> &#160;</text>
<polygon fill="#ffffff" stroke="none" points="1418.72,-782.54 1418.72,-802.04 1473.97,-802.04 1473.97,-782.54 1418.72,-782.54"/>
<polygon fill="none" stroke="black" points="1418.72,-782.54 1418.72,-802.04 1473.97,-802.04 1473.97,-782.54 1418.72,-782.54"/>
<text text-anchor="start" x="1463.47" y="-788.59" font-family="Helvetica,sans-Serif" font-size="11.00"> &#160;</text>
</a>
</g>
</g>
<!-- proj_project_library&#45;&gt;lib_library -->
<g id="edge49" class="edge">
<title>proj_project_library:w&#45;&gt;lib_library:e</title>
<path fill="none" stroke="black" d="M1280.02,-814.77C1247.75,-831.13 1298.99,-910.39 1255.22,-942.79 1152.03,-1019.18 801.67,-975.32 677.47,-942.79 545.89,-908.33 496.32,-898.49 410.72,-792.79 373.21,-746.47 430.32,-664.79 370.72,-664.79"/>
<polygon fill="black" stroke="black" points="1287.04,-813.4 1295.58,-815.39 1291.29,-812.56 1294.56,-811.92 1294.56,-811.92 1294.56,-811.92 1291.29,-812.56 1294.2,-808.32 1287.04,-813.4"/>
<ellipse fill="none" stroke="black" cx="1282.21" cy="-814.34" rx="3.2" ry="3.2"/>
</g>
<!-- proj_project_library&#45;&gt;proj_project -->
<g id="edge50" class="edge">
<title>proj_project_library:w&#45;&gt;proj_project:e</title>
<path fill="none" stroke="black" d="M1280.49,-806.72C1259.67,-787.15 1288.44,-717.54 1248.22,-717.54"/>
<polygon fill="black" stroke="black" points="1287.34,-809.08 1293.73,-815.09 1291.44,-810.49 1294.59,-811.57 1294.59,-811.57 1294.59,-811.57 1291.44,-810.49 1296.07,-808.28 1287.34,-809.08"/>
<ellipse fill="none" stroke="black" cx="1282.69" cy="-807.48" rx="3.2" ry="3.2"/>
</g>
<!-- proj_project_platform -->
<g id="node19" class="node">
<title>proj_project_platform</title>
<g id="a_node19"><a xlink:href="../../tables/proj_project_platform.html" xlink:title="proj_project_platform" target="_top">
<polygon fill="#ffffff" stroke="none" points="1740.72,-663.29 1740.72,-754.29 2025.72,-754.29 2025.72,-663.29 1740.72,-663.29"/>
<polygon fill="#f5f5f5" stroke="none" points="1742.72,-728.79 1742.72,-752.29 2023.72,-752.29 2023.72,-728.79 1742.72,-728.79"/>
<polygon fill="none" stroke="black" points="1742.72,-728.79 1742.72,-752.29 2023.72,-752.29 2023.72,-728.79 1742.72,-728.79"/>
<text text-anchor="start" x="1747.72" y="-737.84" font-family="Helvetica,sans-Serif" font-weight="bold" font-size="11.00">proj_project_platform</text>
<text text-anchor="start" x="1981.97" y="-736.84" font-family="Helvetica,sans-Serif" font-size="11.00">[table]</text>
<polygon fill="none" stroke="black" points="1742.72,-706.79 1742.72,-728.79 1908.72,-728.79 1908.72,-706.79 1742.72,-706.79"/>
<image xlink:href="../../images/primaryKeys.png" width="11px" height="12px" preserveAspectRatio="xMinYMin meet" x="1747.72" y="-723.79"/>
<text text-anchor="start" x="1762.72" y="-713.34" font-family="Helvetica,sans-Serif" font-size="11.00">proj_platform</text>
<polygon fill="none" stroke="black" points="1908.72,-706.79 1908.72,-728.79 2004.84,-728.79 2004.84,-706.79 1908.72,-706.79"/>
<text text-anchor="start" x="1911.72" y="-714.09" font-family="Helvetica,sans-Serif" font-size="11.00">varchar[191]</text>
<polygon fill="none" stroke="black" points="1742.72,-684.79 1742.72,-706.79 1908.72,-706.79 1908.72,-684.79 1742.72,-684.79"/>
<image xlink:href="../../images/primaryKeys.png" width="11px" height="12px" preserveAspectRatio="xMinYMin meet" x="1747.72" y="-701.79"/>
<text text-anchor="start" x="1762.72" y="-691.34" font-family="Helvetica,sans-Serif" font-size="11.00">project</text>
<polygon fill="none" stroke="black" points="1908.72,-684.79 1908.72,-706.79 2004.84,-706.79 2004.84,-684.79 1908.72,-684.79"/>
<text text-anchor="start" x="1911.72" y="-692.09" font-family="Helvetica,sans-Serif" font-size="11.00">varchar[191]</text>
<polygon fill="#ffffff" stroke="none" points="1742.72,-665.29 1742.72,-684.79 1831.72,-684.79 1831.72,-665.29 1742.72,-665.29"/>
<polygon fill="none" stroke="black" points="1742.72,-665.29 1742.72,-684.79 1831.72,-684.79 1831.72,-665.29 1742.72,-665.29"/>
<text text-anchor="start" x="1745.72" y="-671.34" font-family="Helvetica,sans-Serif" font-size="11.00">&lt; 2</text>
<polygon fill="#ffffff" stroke="none" points="1831.72,-665.29 1831.72,-684.79 1908.72,-684.79 1908.72,-665.29 1831.72,-665.29"/>
<polygon fill="none" stroke="black" points="1831.72,-665.29 1831.72,-684.79 1908.72,-684.79 1908.72,-665.29 1831.72,-665.29"/>
<text text-anchor="start" x="1898.22" y="-671.34" font-family="Helvetica,sans-Serif" font-size="11.00"> &#160;</text>
<polygon fill="#ffffff" stroke="none" points="1908.72,-665.29 1908.72,-684.79 2004.84,-684.79 2004.84,-665.29 1908.72,-665.29"/>
<polygon fill="none" stroke="black" points="1908.72,-665.29 1908.72,-684.79 2004.84,-684.79 2004.84,-665.29 1908.72,-665.29"/>
<text text-anchor="start" x="1982.34" y="-671.34" font-family="Helvetica,sans-Serif" font-size="11.00">0 &gt;</text>
<polygon fill="none" stroke="black" stroke-width="2" points="1741.72,-664.29 1741.72,-753.29 2024.72,-753.29 2024.72,-664.29 1741.72,-664.29"/>
</a>
</g>
</g>
<!-- proj_project_platform&#45;&gt;proj_project -->
<g id="edge52" class="edge">
<title>proj_project_platform:w&#45;&gt;proj_project:e</title>
<path fill="none" stroke="black" d="M1726.61,-691.13C1717.34,-683.83 1714.79,-669.61 1699.72,-660.79 1610.33,-608.48 1583.83,-596.54 1481.97,-577.79 1397.28,-562.2 1356.98,-525.95 1288.22,-577.79 1236.63,-616.68 1312.82,-717.54 1248.22,-717.54"/>
<polygon fill="black" stroke="black" points="1733.75,-693.34 1740.34,-699.13 1737.9,-694.61 1741.08,-695.59 1741.08,-695.59 1741.08,-695.59 1737.9,-694.61 1742.46,-692.25 1733.75,-693.34"/>
<ellipse fill="none" stroke="black" cx="1729.05" cy="-691.89" rx="3.2" ry="3.2"/>
</g>
<!-- proj_project_platform&#45;&gt;plat_platform -->
<g id="edge51" class="edge">
<title>proj_project_platform:w&#45;&gt;plat_platform:e</title>
<path fill="none" stroke="black" d="M1726.47,-721.31C1689.71,-742.27 1740.3,-849.54 1682.34,-849.54"/>
<polygon fill="black" stroke="black" points="1733.6,-719.67 1742.2,-721.37 1737.82,-718.69 1741.07,-717.94 1741.07,-717.94 1741.07,-717.94 1737.82,-718.69 1740.58,-714.36 1733.6,-719.67"/>
<ellipse fill="none" stroke="black" cx="1728.81" cy="-720.77" rx="3.2" ry="3.2"/>
</g>
<!-- proj_project_user -->
<g id="node20" class="node">
<title>proj_project_user</title>
<g id="a_node20"><a xlink:href="../../tables/proj_project_user.html" xlink:title="proj_project_user" target="_top">
<polygon fill="#ffffff" stroke="none" points="1303.72,-361.54 1303.72,-424.04 1466.47,-424.04 1466.47,-361.54 1303.72,-361.54"/>
<polygon fill="#f5f5f5" stroke="none" points="1303.72,-400.54 1303.72,-424.04 1466.47,-424.04 1466.47,-400.54 1303.72,-400.54"/>
<polygon fill="none" stroke="black" points="1303.72,-400.54 1303.72,-424.04 1466.47,-424.04 1466.47,-400.54 1303.72,-400.54"/>
<text text-anchor="start" x="1308.72" y="-409.59" font-family="Helvetica,sans-Serif" font-weight="bold" font-size="11.00">proj_project_user</text>
<text text-anchor="start" x="1424.72" y="-408.59" font-family="Helvetica,sans-Serif" font-size="11.00">[table]</text>
<polygon fill="none" stroke="black" points="1303.72,-381.04 1303.72,-400.54 1466.47,-400.54 1466.47,-381.04 1303.72,-381.04"/>
<text text-anchor="start" x="1306.72" y="-387.09" font-family="Helvetica,sans-Serif" font-size="11.00">...</text>
<polygon fill="#ffffff" stroke="none" points="1303.72,-361.54 1303.72,-381.04 1365.97,-381.04 1365.97,-361.54 1303.72,-361.54"/>
<polygon fill="none" stroke="black" points="1303.72,-361.54 1303.72,-381.04 1365.97,-381.04 1365.97,-361.54 1303.72,-361.54"/>
<text text-anchor="start" x="1306.72" y="-367.59" font-family="Helvetica,sans-Serif" font-size="11.00">&lt; 2</text>
<polygon fill="#ffffff" stroke="none" points="1365.97,-361.54 1365.97,-381.04 1416.22,-381.04 1416.22,-361.54 1365.97,-361.54"/>
<polygon fill="none" stroke="black" points="1365.97,-361.54 1365.97,-381.04 1416.22,-381.04 1416.22,-361.54 1365.97,-361.54"/>
<text text-anchor="start" x="1405.72" y="-367.59" font-family="Helvetica,sans-Serif" font-size="11.00"> &#160;</text>
<polygon fill="#ffffff" stroke="none" points="1416.22,-361.54 1416.22,-381.04 1466.47,-381.04 1466.47,-361.54 1416.22,-361.54"/>
<polygon fill="none" stroke="black" points="1416.22,-361.54 1416.22,-381.04 1466.47,-381.04 1466.47,-361.54 1416.22,-361.54"/>
<text text-anchor="start" x="1455.97" y="-367.59" font-family="Helvetica,sans-Serif" font-size="11.00"> &#160;</text>
</a>
</g>
</g>
<!-- proj_project_user&#45;&gt;proj_project -->
<g id="edge54" class="edge">
<title>proj_project_user:w&#45;&gt;proj_project:e</title>
<path fill="none" stroke="black" d="M1288.06,-396.74C1242.89,-441.03 1315.94,-717.54 1248.22,-717.54"/>
<polygon fill="black" stroke="black" points="1295,-393.93 1303.76,-394.25 1299.01,-392.29 1302.1,-391.04 1302.1,-391.04 1302.1,-391.04 1299.01,-392.29 1301.05,-387.58 1295,-393.93"/>
<ellipse fill="none" stroke="black" cx="1290.44" cy="-395.78" rx="3.2" ry="3.2"/>
</g>
<!-- proj_project_user&#45;&gt;user_user -->
<g id="edge53" class="edge">
<title>proj_project_user:w&#45;&gt;user_user:e</title>
<path fill="none" stroke="black" d="M1287.73,-386.1C1275.91,-376.67 1275.56,-355.63 1255.22,-347.79 1147.39,-306.23 1094.9,-289.33 995.22,-347.79 969.3,-362.99 981.84,-384.04 962.22,-406.79 930.87,-443.14 924.72,-472.79 876.72,-472.79"/>
<polygon fill="black" stroke="black" points="1294.76,-388.3 1301.32,-394.13 1298.9,-389.6 1302.08,-390.59 1302.08,-390.59 1302.08,-390.59 1298.9,-389.6 1303.47,-387.25 1294.76,-388.3"/>
<ellipse fill="none" stroke="black" cx="1290.07" cy="-386.83" rx="3.2" ry="3.2"/>
</g>
<!-- train_train -->
<g id="node21" class="node">
<title>train_train</title>
<g id="a_node21"><a xlink:href="../../tables/train_train.html" xlink:title="train_train" target="_top">
<polygon fill="#ffffff" stroke="none" points="1326.72,-588.54 1326.72,-651.04 1443.47,-651.04 1443.47,-588.54 1326.72,-588.54"/>
<polygon fill="#f5f5f5" stroke="none" points="1326.72,-627.54 1326.72,-651.04 1443.47,-651.04 1443.47,-627.54 1326.72,-627.54"/>
<polygon fill="none" stroke="black" points="1326.72,-627.54 1326.72,-651.04 1443.47,-651.04 1443.47,-627.54 1326.72,-627.54"/>
<text text-anchor="start" x="1331.72" y="-636.59" font-family="Helvetica,sans-Serif" font-weight="bold" font-size="11.00">train_train</text>
<text text-anchor="start" x="1401.72" y="-635.59" font-family="Helvetica,sans-Serif" font-size="11.00">[table]</text>
<polygon fill="none" stroke="black" points="1326.72,-608.04 1326.72,-627.54 1443.47,-627.54 1443.47,-608.04 1326.72,-608.04"/>
<text text-anchor="start" x="1329.72" y="-614.09" font-family="Helvetica,sans-Serif" font-size="11.00">...</text>
<polygon fill="#ffffff" stroke="none" points="1326.72,-588.54 1326.72,-608.04 1369.63,-608.04 1369.63,-588.54 1326.72,-588.54"/>
<polygon fill="none" stroke="black" points="1326.72,-588.54 1326.72,-608.04 1369.63,-608.04 1369.63,-588.54 1326.72,-588.54"/>
<text text-anchor="start" x="1329.72" y="-594.59" font-family="Helvetica,sans-Serif" font-size="11.00">&lt; 1</text>
<polygon fill="#ffffff" stroke="none" points="1369.63,-588.54 1369.63,-608.04 1400.55,-608.04 1400.55,-588.54 1369.63,-588.54"/>
<polygon fill="none" stroke="black" points="1369.63,-588.54 1369.63,-608.04 1400.55,-608.04 1400.55,-588.54 1369.63,-588.54"/>
<text text-anchor="start" x="1390.05" y="-594.59" font-family="Helvetica,sans-Serif" font-size="11.00"> &#160;</text>
<polygon fill="#ffffff" stroke="none" points="1400.55,-588.54 1400.55,-608.04 1443.47,-608.04 1443.47,-588.54 1400.55,-588.54"/>
<polygon fill="none" stroke="black" points="1400.55,-588.54 1400.55,-608.04 1443.47,-608.04 1443.47,-588.54 1400.55,-588.54"/>
<text text-anchor="start" x="1420.97" y="-594.59" font-family="Helvetica,sans-Serif" font-size="11.00">1 &gt;</text>
</a>
</g>
</g>
<!-- train_train&#45;&gt;proj_project -->
<g id="edge55" class="edge">
<title>train_train:w&#45;&gt;proj_project:e</title>
<path fill="none" stroke="black" d="M1310.32,-621.11C1276.1,-638.42 1298.22,-717.54 1248.22,-717.54"/>
<polygon fill="black" stroke="black" points="1317.57,-619.55 1326.15,-621.38 1321.81,-618.63 1325.06,-617.93 1325.06,-617.93 1325.06,-617.93 1321.81,-618.63 1324.63,-614.34 1317.57,-619.55"/>
<ellipse fill="none" stroke="black" cx="1312.76" cy="-620.58" rx="3.2" ry="3.2"/>
</g>
</g>
</svg>
