<?xml version="1.0" encoding="UTF-8" standalone="no"?>
<!DOCTYPE svg PUBLIC "-//W3C//DTD SVG 1.1//EN"
 "http://www.w3.org/Graphics/SVG/1.1/DTD/svg11.dtd">
<!-- Generated by graphviz version 12.2.0 (0)
 -->
<!-- Title: oneDegreeRelationshipsDiagram Pages: 1 -->
<svg width="606pt" height="664pt"
 viewBox="0.00 0.00 605.50 664.25" xmlns="http://www.w3.org/2000/svg" xmlns:xlink="http://www.w3.org/1999/xlink">
<g id="graph0" class="graph" transform="scale(1 1) rotate(0) translate(4 660.25)">
<title>oneDegreeRelationshipsDiagram</title>
<polygon fill="#ffffff" stroke="none" points="-4,4 -4,-660.25 601.5,-660.25 601.5,4 -4,4"/>
<text text-anchor="middle" x="79.25" y="-7.05" font-family="Helvetica,sans-Serif" font-size="11.00">Generated by SchemaSpy</text>
<!-- sto_stored_file -->
<g id="node1" class="node">
<title>sto_stored_file</title>
<g id="a_node1"><a xlink:href="../../tables/sto_stored_file.html" xlink:title="sto_stored_file" target="_top">
<polygon fill="#ffffff" stroke="none" points="325.75,-77.25 325.75,-652.25 589.5,-652.25 589.5,-77.25 325.75,-77.25"/>
<polygon fill="#f5f5f5" stroke="none" points="327.75,-626.75 327.75,-650.25 587.5,-650.25 587.5,-626.75 327.75,-626.75"/>
<polygon fill="none" stroke="black" points="327.75,-626.75 327.75,-650.25 587.5,-650.25 587.5,-626.75 327.75,-626.75"/>
<text text-anchor="start" x="332.75" y="-635.8" font-family="Helvetica,sans-Serif" font-weight="bold" font-size="11.00">sto_stored_file</text>
<text text-anchor="start" x="545.75" y="-634.8" font-family="Helvetica,sans-Serif" font-size="11.00">[table]</text>
<polygon fill="none" stroke="black" points="327.75,-604.75 327.75,-626.75 490.75,-626.75 490.75,-604.75 327.75,-604.75"/>
<image xlink:href="../../images/primaryKeys.png" width="11px" height="12px" preserveAspectRatio="xMinYMin meet" x="332.75" y="-621.75"/>
<text text-anchor="start" x="347.75" y="-611.3" font-family="Helvetica,sans-Serif" font-size="11.00">identifier</text>
<polygon fill="none" stroke="black" points="490.75,-604.75 490.75,-626.75 583,-626.75 583,-604.75 490.75,-604.75"/>
<text text-anchor="start" x="493.75" y="-612.05" font-family="Helvetica,sans-Serif" font-size="11.00">varchar[191]</text>
<polygon fill="none" stroke="black" points="327.75,-582.75 327.75,-604.75 490.75,-604.75 490.75,-582.75 327.75,-582.75"/>
<text text-anchor="start" x="347.75" y="-589.3" font-family="Helvetica,sans-Serif" font-size="11.00">filename</text>
<polygon fill="none" stroke="black" points="490.75,-582.75 490.75,-604.75 583,-604.75 583,-582.75 490.75,-582.75"/>
<text text-anchor="start" x="493.75" y="-590.05" font-family="Helvetica,sans-Serif" font-size="11.00">varchar[255]</text>
<polygon fill="none" stroke="black" points="327.75,-560.75 327.75,-582.75 490.75,-582.75 490.75,-560.75 327.75,-560.75"/>
<text text-anchor="start" x="347.75" y="-567.3" font-family="Helvetica,sans-Serif" font-size="11.00">length</text>
<polygon fill="none" stroke="black" points="490.75,-560.75 490.75,-582.75 583,-582.75 583,-560.75 490.75,-560.75"/>
<text text-anchor="start" x="493.75" y="-568.05" font-family="Helvetica,sans-Serif" font-size="11.00">bigint[19]</text>
<polygon fill="none" stroke="black" points="327.75,-538.75 327.75,-560.75 490.75,-560.75 490.75,-538.75 327.75,-538.75"/>
<text text-anchor="start" x="347.75" y="-545.3" font-family="Helvetica,sans-Serif" font-size="11.00">page_digest</text>
<polygon fill="none" stroke="black" points="490.75,-538.75 490.75,-560.75 583,-560.75 583,-538.75 490.75,-538.75"/>
<text text-anchor="start" x="493.75" y="-546.05" font-family="Helvetica,sans-Serif" font-size="11.00">varchar[255]</text>
<polygon fill="none" stroke="black" points="327.75,-516.75 327.75,-538.75 490.75,-538.75 490.75,-516.75 327.75,-516.75"/>
<text text-anchor="start" x="347.75" y="-523.3" font-family="Helvetica,sans-Serif" font-size="11.00">mimetype</text>
<polygon fill="none" stroke="black" points="490.75,-516.75 490.75,-538.75 583,-538.75 583,-516.75 490.75,-516.75"/>
<text text-anchor="start" x="493.75" y="-524.05" font-family="Helvetica,sans-Serif" font-size="11.00">varchar[255]</text>
<polygon fill="none" stroke="black" points="327.75,-494.75 327.75,-516.75 490.75,-516.75 490.75,-494.75 327.75,-494.75"/>
<text text-anchor="start" x="347.75" y="-501.3" font-family="Helvetica,sans-Serif" font-size="11.00">type</text>
<polygon fill="none" stroke="black" points="490.75,-494.75 490.75,-516.75 583,-516.75 583,-494.75 490.75,-494.75"/>
<text text-anchor="start" x="493.75" y="-502.05" font-family="Helvetica,sans-Serif" font-size="11.00">varchar[255]</text>
<polygon fill="#ffffff" stroke="none" points="327.75,-472.75 327.75,-494.75 490.75,-494.75 490.75,-472.75 327.75,-472.75"/>
<polygon fill="none" stroke="black" points="327.75,-472.75 327.75,-494.75 490.75,-494.75 490.75,-472.75 327.75,-472.75"/>
<image xlink:href="../../images/foreignKeys.png" width="11px" height="12px" preserveAspectRatio="xMinYMin meet" x="332.75" y="-489.75"/>
<text text-anchor="start" x="347.75" y="-479.3" font-family="Helvetica,sans-Serif" font-size="11.00">page</text>
<polygon fill="none" stroke="black" points="490.75,-472.75 490.75,-494.75 583,-494.75 583,-472.75 490.75,-472.75"/>
<text text-anchor="start" x="493.75" y="-480.05" font-family="Helvetica,sans-Serif" font-size="11.00">varchar[191]</text>
<polygon fill="none" stroke="black" points="327.75,-450.75 327.75,-472.75 490.75,-472.75 490.75,-450.75 327.75,-450.75"/>
<text text-anchor="start" x="347.75" y="-457.3" font-family="Helvetica,sans-Serif" font-size="11.00">version</text>
<polygon fill="none" stroke="black" points="490.75,-450.75 490.75,-472.75 583,-472.75 583,-450.75 490.75,-450.75"/>
<text text-anchor="start" x="493.75" y="-458.05" font-family="Helvetica,sans-Serif" font-size="11.00">bigint[19]</text>
<polygon fill="none" stroke="black" points="327.75,-428.75 327.75,-450.75 490.75,-450.75 490.75,-428.75 327.75,-428.75"/>
<text text-anchor="start" x="347.75" y="-435.3" font-family="Helvetica,sans-Serif" font-size="11.00">created_by</text>
<polygon fill="none" stroke="black" points="490.75,-428.75 490.75,-450.75 583,-450.75 583,-428.75 490.75,-428.75"/>
<text text-anchor="start" x="493.75" y="-436.05" font-family="Helvetica,sans-Serif" font-size="11.00">varchar[191]</text>
<polygon fill="none" stroke="black" points="327.75,-406.75 327.75,-428.75 490.75,-428.75 490.75,-406.75 327.75,-406.75"/>
<text text-anchor="start" x="347.75" y="-413.3" font-family="Helvetica,sans-Serif" font-size="11.00">last_modified_by</text>
<polygon fill="none" stroke="black" points="490.75,-406.75 490.75,-428.75 583,-428.75 583,-406.75 490.75,-406.75"/>
<text text-anchor="start" x="493.75" y="-414.05" font-family="Helvetica,sans-Serif" font-size="11.00">varchar[191]</text>
<polygon fill="none" stroke="black" points="327.75,-384.75 327.75,-406.75 490.75,-406.75 490.75,-384.75 327.75,-384.75"/>
<text text-anchor="start" x="347.75" y="-391.3" font-family="Helvetica,sans-Serif" font-size="11.00">created_date</text>
<polygon fill="none" stroke="black" points="490.75,-384.75 490.75,-406.75 583,-406.75 583,-384.75 490.75,-384.75"/>
<text text-anchor="start" x="493.75" y="-392.05" font-family="Helvetica,sans-Serif" font-size="11.00">timestamp[19]</text>
<polygon fill="none" stroke="black" points="327.75,-362.75 327.75,-384.75 490.75,-384.75 490.75,-362.75 327.75,-362.75"/>
<text text-anchor="start" x="347.75" y="-369.3" font-family="Helvetica,sans-Serif" font-size="11.00">last_modified_date</text>
<polygon fill="none" stroke="black" points="490.75,-362.75 490.75,-384.75 583,-384.75 583,-362.75 490.75,-362.75"/>
<text text-anchor="start" x="493.75" y="-370.05" font-family="Helvetica,sans-Serif" font-size="11.00">timestamp[19]</text>
<polygon fill="none" stroke="black" points="327.75,-340.75 327.75,-362.75 490.75,-362.75 490.75,-340.75 327.75,-340.75"/>
<text text-anchor="start" x="347.75" y="-347.3" font-family="Helvetica,sans-Serif" font-size="11.00">height</text>
<polygon fill="none" stroke="black" points="490.75,-340.75 490.75,-362.75 583,-362.75 583,-340.75 490.75,-340.75"/>
<text text-anchor="start" x="493.75" y="-348.05" font-family="Helvetica,sans-Serif" font-size="11.00">bigint[19]</text>
<polygon fill="none" stroke="black" points="327.75,-318.75 327.75,-340.75 490.75,-340.75 490.75,-318.75 327.75,-318.75"/>
<text text-anchor="start" x="347.75" y="-325.3" font-family="Helvetica,sans-Serif" font-size="11.00">width</text>
<polygon fill="none" stroke="black" points="490.75,-318.75 490.75,-340.75 583,-340.75 583,-318.75 490.75,-318.75"/>
<text text-anchor="start" x="493.75" y="-326.05" font-family="Helvetica,sans-Serif" font-size="11.00">bigint[19]</text>
<polygon fill="none" stroke="black" points="327.75,-296.75 327.75,-318.75 490.75,-318.75 490.75,-296.75 327.75,-296.75"/>
<text text-anchor="start" x="347.75" y="-303.3" font-family="Helvetica,sans-Serif" font-size="11.00">title_toc</text>
<polygon fill="none" stroke="black" points="490.75,-296.75 490.75,-318.75 583,-318.75 583,-296.75 490.75,-296.75"/>
<text text-anchor="start" x="493.75" y="-304.05" font-family="Helvetica,sans-Serif" font-size="11.00">text[65535]</text>
<polygon fill="none" stroke="black" points="327.75,-274.75 327.75,-296.75 490.75,-296.75 490.75,-274.75 327.75,-274.75"/>
<text text-anchor="start" x="347.75" y="-281.3" font-family="Helvetica,sans-Serif" font-size="11.00">type_toc</text>
<polygon fill="none" stroke="black" points="490.75,-274.75 490.75,-296.75 583,-296.75 583,-274.75 490.75,-274.75"/>
<text text-anchor="start" x="493.75" y="-282.05" font-family="Helvetica,sans-Serif" font-size="11.00">varchar[255]</text>
<polygon fill="none" stroke="black" points="327.75,-252.75 327.75,-274.75 490.75,-274.75 490.75,-252.75 327.75,-252.75"/>
<text text-anchor="start" x="347.75" y="-259.3" font-family="Helvetica,sans-Serif" font-size="11.00">order_toc</text>
<polygon fill="none" stroke="black" points="490.75,-252.75 490.75,-274.75 583,-274.75 583,-252.75 490.75,-252.75"/>
<text text-anchor="start" x="493.75" y="-260.05" font-family="Helvetica,sans-Serif" font-size="11.00">varchar[255]</text>
<polygon fill="none" stroke="black" points="327.75,-230.75 327.75,-252.75 490.75,-252.75 490.75,-230.75 327.75,-230.75"/>
<text text-anchor="start" x="347.75" y="-237.3" font-family="Helvetica,sans-Serif" font-size="11.00">compression_type</text>
<polygon fill="none" stroke="black" points="490.75,-230.75 490.75,-252.75 583,-252.75 583,-230.75 490.75,-230.75"/>
<text text-anchor="start" x="493.75" y="-238.05" font-family="Helvetica,sans-Serif" font-size="11.00">varchar[255]</text>
<polygon fill="none" stroke="black" points="327.75,-208.75 327.75,-230.75 490.75,-230.75 490.75,-208.75 327.75,-208.75"/>
<text text-anchor="start" x="347.75" y="-215.3" font-family="Helvetica,sans-Serif" font-size="11.00">colorspace</text>
<polygon fill="none" stroke="black" points="490.75,-208.75 490.75,-230.75 583,-230.75 583,-208.75 490.75,-208.75"/>
<text text-anchor="start" x="493.75" y="-216.05" font-family="Helvetica,sans-Serif" font-size="11.00">varchar[255]</text>
<polygon fill="none" stroke="black" points="327.75,-186.75 327.75,-208.75 490.75,-208.75 490.75,-186.75 327.75,-186.75"/>
<text text-anchor="start" x="347.75" y="-193.3" font-family="Helvetica,sans-Serif" font-size="11.00">compression_rate</text>
<polygon fill="none" stroke="black" points="490.75,-186.75 490.75,-208.75 583,-208.75 583,-186.75 490.75,-186.75"/>
<text text-anchor="start" x="493.75" y="-194.05" font-family="Helvetica,sans-Serif" font-size="11.00">int[10]</text>
<polygon fill="none" stroke="black" points="327.75,-164.75 327.75,-186.75 490.75,-186.75 490.75,-164.75 327.75,-164.75"/>
<text text-anchor="start" x="347.75" y="-171.3" font-family="Helvetica,sans-Serif" font-size="11.00">resolution</text>
<polygon fill="none" stroke="black" points="490.75,-164.75 490.75,-186.75 583,-186.75 583,-164.75 490.75,-164.75"/>
<text text-anchor="start" x="493.75" y="-172.05" font-family="Helvetica,sans-Serif" font-size="11.00">int[10]</text>
<polygon fill="none" stroke="black" points="327.75,-142.75 327.75,-164.75 490.75,-164.75 490.75,-142.75 327.75,-142.75"/>
<text text-anchor="start" x="347.75" y="-149.3" font-family="Helvetica,sans-Serif" font-size="11.00">text_ocr</text>
<polygon fill="none" stroke="black" points="490.75,-142.75 490.75,-164.75 583,-164.75 583,-142.75 490.75,-142.75"/>
<text text-anchor="start" x="493.75" y="-150.05" font-family="Helvetica,sans-Serif" font-size="11.00">text[65535]</text>
<polygon fill="none" stroke="black" points="327.75,-120.75 327.75,-142.75 490.75,-142.75 490.75,-120.75 327.75,-120.75"/>
<text text-anchor="start" x="347.75" y="-127.3" font-family="Helvetica,sans-Serif" font-size="11.00">file_format</text>
<polygon fill="none" stroke="black" points="490.75,-120.75 490.75,-142.75 583,-142.75 583,-120.75 490.75,-120.75"/>
<text text-anchor="start" x="493.75" y="-128.05" font-family="Helvetica,sans-Serif" font-size="11.00">varchar[255]</text>
<polygon fill="#ffffff" stroke="none" points="327.75,-98.75 327.75,-120.75 490.75,-120.75 490.75,-98.75 327.75,-98.75"/>
<polygon fill="none" stroke="black" points="327.75,-98.75 327.75,-120.75 490.75,-120.75 490.75,-98.75 327.75,-98.75"/>
<image xlink:href="../../images/foreignKeys.png" width="11px" height="12px" preserveAspectRatio="xMinYMin meet" x="332.75" y="-115.75"/>
<text text-anchor="start" x="347.75" y="-105.3" font-family="Helvetica,sans-Serif" font-size="11.00">format_configuration</text>
<polygon fill="none" stroke="black" points="490.75,-98.75 490.75,-120.75 583,-120.75 583,-98.75 490.75,-98.75"/>
<text text-anchor="start" x="493.75" y="-106.05" font-family="Helvetica,sans-Serif" font-size="11.00">varchar[191]</text>
<polygon fill="#ffffff" stroke="none" points="327.75,-79.25 327.75,-98.75 415.25,-98.75 415.25,-79.25 327.75,-79.25"/>
<polygon fill="none" stroke="black" points="327.75,-79.25 327.75,-98.75 415.25,-98.75 415.25,-79.25 327.75,-79.25"/>
<text text-anchor="start" x="330.75" y="-85.3" font-family="Helvetica,sans-Serif" font-size="11.00">&lt; 2</text>
<polygon fill="#ffffff" stroke="none" points="415.25,-79.25 415.25,-98.75 490.75,-98.75 490.75,-79.25 415.25,-79.25"/>
<polygon fill="none" stroke="black" points="415.25,-79.25 415.25,-98.75 490.75,-98.75 490.75,-79.25 415.25,-79.25"/>
<text text-anchor="start" x="480.25" y="-85.3" font-family="Helvetica,sans-Serif" font-size="11.00"> &#160;</text>
<polygon fill="#ffffff" stroke="none" points="490.75,-79.25 490.75,-98.75 583,-98.75 583,-79.25 490.75,-79.25"/>
<polygon fill="none" stroke="black" points="490.75,-79.25 490.75,-98.75 583,-98.75 583,-79.25 490.75,-79.25"/>
<text text-anchor="start" x="560.5" y="-85.3" font-family="Helvetica,sans-Serif" font-size="11.00">0 &gt;</text>
<polygon fill="none" stroke="black" stroke-width="2" points="326.75,-78.25 326.75,-651.25 588.5,-651.25 588.5,-78.25 326.75,-78.25"/>
</a>
</g>
</g>
<!-- conf_views_format_configuration -->
<g id="node2" class="node">
<title>conf_views_format_configuration</title>
<g id="a_node2"><a xlink:href="../../tables/conf_views_format_configuration.html" xlink:title="conf_views_format_configuration" target="_top">
<polygon fill="#ffffff" stroke="none" points="8,-38.5 8,-145 276.75,-145 276.75,-38.5 8,-38.5"/>
<polygon fill="#f5f5f5" stroke="none" points="8,-121.5 8,-145 276.75,-145 276.75,-121.5 8,-121.5"/>
<polygon fill="none" stroke="black" points="8,-121.5 8,-145 276.75,-145 276.75,-121.5 8,-121.5"/>
<text text-anchor="start" x="13" y="-130.55" font-family="Helvetica,sans-Serif" font-weight="bold" font-size="11.00">conf_views_format_configuration</text>
<text text-anchor="start" x="235" y="-129.55" font-family="Helvetica,sans-Serif" font-size="11.00">[table]</text>
<polygon fill="none" stroke="black" points="8,-99.5 8,-121.5 276.75,-121.5 276.75,-99.5 8,-99.5"/>
<image xlink:href="../../images/primaryKeys.png" width="11px" height="12px" preserveAspectRatio="xMinYMin meet" x="13" y="-116.5"/>
<text text-anchor="start" x="40.88" y="-106.05" font-family="Helvetica,sans-Serif" font-size="11.00">identifier</text>
<polygon fill="#ffffff" stroke="none" points="8,-77.5 8,-99.5 276.75,-99.5 276.75,-77.5 8,-77.5"/>
<polygon fill="none" stroke="black" points="8,-77.5 8,-99.5 276.75,-99.5 276.75,-77.5 8,-77.5"/>
<image xlink:href="../../images/foreignKeys.png" width="11px" height="12px" preserveAspectRatio="xMinYMin meet" x="13" y="-94.5"/>
<text text-anchor="start" x="40.88" y="-84.05" font-family="Helvetica,sans-Serif" font-size="11.00">library</text>
<polygon fill="none" stroke="black" points="8,-58 8,-77.5 276.75,-77.5 276.75,-58 8,-58"/>
<text text-anchor="start" x="11" y="-64.05" font-family="Helvetica,sans-Serif" font-size="11.00">...</text>
<polygon fill="#ffffff" stroke="none" points="8,-38.5 8,-58 101.58,-58 101.58,-38.5 8,-38.5"/>
<polygon fill="none" stroke="black" points="8,-38.5 8,-58 101.58,-58 101.58,-38.5 8,-38.5"/>
<text text-anchor="start" x="11" y="-44.55" font-family="Helvetica,sans-Serif" font-size="11.00">&lt; 1</text>
<polygon fill="#ffffff" stroke="none" points="101.58,-38.5 101.58,-58 183.17,-58 183.17,-38.5 101.58,-38.5"/>
<polygon fill="none" stroke="black" points="101.58,-38.5 101.58,-58 183.17,-58 183.17,-38.5 101.58,-38.5"/>
<text text-anchor="start" x="172.67" y="-44.55" font-family="Helvetica,sans-Serif" font-size="11.00"> &#160;</text>
<polygon fill="#ffffff" stroke="none" points="183.17,-38.5 183.17,-58 276.75,-58 276.75,-38.5 183.17,-38.5"/>
<polygon fill="none" stroke="black" points="183.17,-38.5 183.17,-58 276.75,-58 276.75,-38.5 183.17,-38.5"/>
<text text-anchor="start" x="254.25" y="-44.55" font-family="Helvetica,sans-Serif" font-size="11.00">3 &gt;</text>
</a>
</g>
</g>
<!-- sto_stored_file&#45;&gt;conf_views_format_configuration -->
<g id="edge1" class="edge">
<title>sto_stored_file:w&#45;&gt;conf_views_format_configuration:e</title>
<path fill="none" stroke="black" d="M311.17,-109.9C300.46,-110.12 293.23,-110.5 277.75,-110.5"/>
<polygon fill="black" stroke="black" points="318.42,-109.83 326.45,-113.35 322.75,-109.79 326.08,-109.76 326.08,-109.76 326.08,-109.76 322.75,-109.79 326.38,-106.15 318.42,-109.83"/>
<ellipse fill="none" stroke="black" cx="313.5" cy="-109.88" rx="3.2" ry="3.2"/>
</g>
<!-- doc_page -->
<g id="node3" class="node">
<title>doc_page</title>
<g id="a_node3"><a xlink:href="../../tables/doc_page.html" xlink:title="doc_page" target="_top">
<polygon fill="#ffffff" stroke="none" points="68.38,-367.5 68.38,-518 216.38,-518 216.38,-367.5 68.38,-367.5"/>
<polygon fill="#f5f5f5" stroke="none" points="68.38,-494.5 68.38,-518 216.38,-518 216.38,-494.5 68.38,-494.5"/>
<polygon fill="none" stroke="black" points="68.38,-494.5 68.38,-518 216.38,-518 216.38,-494.5 68.38,-494.5"/>
<text text-anchor="start" x="73.38" y="-503.55" font-family="Helvetica,sans-Serif" font-weight="bold" font-size="11.00">doc_page</text>
<text text-anchor="start" x="174.62" y="-502.55" font-family="Helvetica,sans-Serif" font-size="11.00">[table]</text>
<polygon fill="none" stroke="black" points="68.38,-472.5 68.38,-494.5 216.38,-494.5 216.38,-472.5 68.38,-472.5"/>
<image xlink:href="../../images/primaryKeys.png" width="11px" height="12px" preserveAspectRatio="xMinYMin meet" x="73.375" y="-489.5"/>
<text text-anchor="start" x="88.38" y="-479.05" font-family="Helvetica,sans-Serif" font-size="11.00">identifier</text>
<polygon fill="#ffffff" stroke="none" points="68.38,-450.5 68.38,-472.5 216.38,-472.5 216.38,-450.5 68.38,-450.5"/>
<polygon fill="none" stroke="black" points="68.38,-450.5 68.38,-472.5 216.38,-472.5 216.38,-450.5 68.38,-450.5"/>
<image xlink:href="../../images/foreignKeys.png" width="11px" height="12px" preserveAspectRatio="xMinYMin meet" x="73.375" y="-467.5"/>
<text text-anchor="start" x="88.38" y="-457.05" font-family="Helvetica,sans-Serif" font-size="11.00">digital_document</text>
<polygon fill="#ffffff" stroke="none" points="68.38,-428.5 68.38,-450.5 216.38,-450.5 216.38,-428.5 68.38,-428.5"/>
<polygon fill="none" stroke="black" points="68.38,-428.5 68.38,-450.5 216.38,-450.5 216.38,-428.5 68.38,-428.5"/>
<image xlink:href="../../images/foreignKeys.png" width="11px" height="12px" preserveAspectRatio="xMinYMin meet" x="73.375" y="-445.5"/>
<text text-anchor="start" x="88.38" y="-435.05" font-family="Helvetica,sans-Serif" font-size="11.00">sample</text>
<polygon fill="#ffffff" stroke="none" points="68.38,-406.5 68.38,-428.5 216.38,-428.5 216.38,-406.5 68.38,-406.5"/>
<polygon fill="none" stroke="black" points="68.38,-406.5 68.38,-428.5 216.38,-428.5 216.38,-406.5 68.38,-406.5"/>
<text text-anchor="start" x="88.38" y="-413.05" font-family="Helvetica,sans-Serif" font-size="11.00">piece</text>
<polygon fill="none" stroke="black" points="68.38,-387 68.38,-406.5 216.38,-406.5 216.38,-387 68.38,-387"/>
<text text-anchor="start" x="71.38" y="-393.05" font-family="Helvetica,sans-Serif" font-size="11.00">...</text>
<polygon fill="#ffffff" stroke="none" points="68.38,-367.5 68.38,-387 121.71,-387 121.71,-367.5 68.38,-367.5"/>
<polygon fill="none" stroke="black" points="68.38,-367.5 68.38,-387 121.71,-387 121.71,-367.5 68.38,-367.5"/>
<text text-anchor="start" x="71.38" y="-373.55" font-family="Helvetica,sans-Serif" font-size="11.00">&lt; 2</text>
<polygon fill="#ffffff" stroke="none" points="121.71,-367.5 121.71,-387 163.04,-387 163.04,-367.5 121.71,-367.5"/>
<polygon fill="none" stroke="black" points="121.71,-367.5 121.71,-387 163.04,-387 163.04,-367.5 121.71,-367.5"/>
<text text-anchor="start" x="152.54" y="-373.55" font-family="Helvetica,sans-Serif" font-size="11.00"> &#160;</text>
<polygon fill="#ffffff" stroke="none" points="163.04,-367.5 163.04,-387 216.38,-387 216.38,-367.5 163.04,-367.5"/>
<polygon fill="none" stroke="black" points="163.04,-367.5 163.04,-387 216.38,-387 216.38,-367.5 163.04,-367.5"/>
<text text-anchor="start" x="193.88" y="-373.55" font-family="Helvetica,sans-Serif" font-size="11.00">3 &gt;</text>
</a>
</g>
</g>
<!-- sto_stored_file&#45;&gt;doc_page -->
<g id="edge2" class="edge">
<title>sto_stored_file:w&#45;&gt;doc_page:e</title>
<path fill="none" stroke="black" d="M311.04,-483.74C274.79,-483.69 260.29,-483.5 217.38,-483.5"/>
<polygon fill="black" stroke="black" points="318.42,-483.74 326.41,-487.35 322.75,-483.75 326.08,-483.75 326.08,-483.75 326.08,-483.75 322.75,-483.75 326.42,-480.15 318.42,-483.74"/>
<ellipse fill="none" stroke="black" cx="313.5" cy="-483.74" rx="3.2" ry="3.2"/>
</g>
</g>
</svg>
