<?xml version="1.0" encoding="UTF-8" standalone="no"?>
<!DOCTYPE svg PUBLIC "-//W3C//DTD SVG 1.1//EN"
 "http://www.w3.org/Graphics/SVG/1.1/DTD/svg11.dtd">
<!-- Generated by graphviz version 12.2.0 (0)
 -->
<!-- Title: twoDegreesRelationshipsDiagram Pages: 1 -->
<svg width="2305pt" height="1017pt"
 viewBox="0.00 0.00 2305.13 1016.65" xmlns="http://www.w3.org/2000/svg" xmlns:xlink="http://www.w3.org/1999/xlink">
<g id="graph0" class="graph" transform="scale(1 1) rotate(0) translate(4 1012.65)">
<title>twoDegreesRelationshipsDiagram</title>
<polygon fill="#ffffff" stroke="none" points="-4,4 -4,-1012.65 2301.13,-1012.65 2301.13,4 -4,4"/>
<text text-anchor="middle" x="79.25" y="-7.05" font-family="Helvetica,sans-Serif" font-size="11.00">Generated by SchemaSpy</text>
<!-- check_automatic_result -->
<g id="node1" class="node">
<title>check_automatic_result</title>
<g id="a_node1"><a xlink:href="../../tables/check_automatic_result.html" xlink:title="check_automatic_result" target="_top">
<polygon fill="#ffffff" stroke="none" points="2059.38,-433.15 2059.38,-495.65 2264.13,-495.65 2264.13,-433.15 2059.38,-433.15"/>
<polygon fill="#f5f5f5" stroke="none" points="2059.38,-472.15 2059.38,-495.65 2264.13,-495.65 2264.13,-472.15 2059.38,-472.15"/>
<polygon fill="none" stroke="black" points="2059.38,-472.15 2059.38,-495.65 2264.13,-495.65 2264.13,-472.15 2059.38,-472.15"/>
<text text-anchor="start" x="2064.38" y="-481.2" font-family="Helvetica,sans-Serif" font-weight="bold" font-size="11.00">check_automatic_result</text>
<text text-anchor="start" x="2222.38" y="-480.2" font-family="Helvetica,sans-Serif" font-size="11.00">[table]</text>
<polygon fill="none" stroke="black" points="2059.38,-452.65 2059.38,-472.15 2264.13,-472.15 2264.13,-452.65 2059.38,-452.65"/>
<text text-anchor="start" x="2062.38" y="-458.7" font-family="Helvetica,sans-Serif" font-size="11.00">...</text>
<polygon fill="#ffffff" stroke="none" points="2059.38,-433.15 2059.38,-452.65 2135.63,-452.65 2135.63,-433.15 2059.38,-433.15"/>
<polygon fill="none" stroke="black" points="2059.38,-433.15 2059.38,-452.65 2135.63,-452.65 2135.63,-433.15 2059.38,-433.15"/>
<text text-anchor="start" x="2062.38" y="-439.2" font-family="Helvetica,sans-Serif" font-size="11.00">&lt; 6</text>
<polygon fill="#ffffff" stroke="none" points="2135.63,-433.15 2135.63,-452.65 2199.88,-452.65 2199.88,-433.15 2135.63,-433.15"/>
<polygon fill="none" stroke="black" points="2135.63,-433.15 2135.63,-452.65 2199.88,-452.65 2199.88,-433.15 2135.63,-433.15"/>
<text text-anchor="start" x="2189.38" y="-439.2" font-family="Helvetica,sans-Serif" font-size="11.00"> &#160;</text>
<polygon fill="#ffffff" stroke="none" points="2199.88,-433.15 2199.88,-452.65 2264.13,-452.65 2264.13,-433.15 2199.88,-433.15"/>
<polygon fill="none" stroke="black" points="2199.88,-433.15 2199.88,-452.65 2264.13,-452.65 2264.13,-433.15 2199.88,-433.15"/>
<text text-anchor="start" x="2253.63" y="-439.2" font-family="Helvetica,sans-Serif" font-size="11.00"> &#160;</text>
</a>
</g>
</g>
<!-- doc_unit -->
<g id="node2" class="node">
<title>doc_unit</title>
<g id="a_node2"><a xlink:href="../../tables/doc_unit.html" xlink:title="doc_unit" target="_top">
<polygon fill="#ffffff" stroke="none" points="1547.38,-416.15 1547.38,-478.65 1650.13,-478.65 1650.13,-416.15 1547.38,-416.15"/>
<polygon fill="#f5f5f5" stroke="none" points="1547.38,-455.15 1547.38,-478.65 1650.13,-478.65 1650.13,-455.15 1547.38,-455.15"/>
<polygon fill="none" stroke="black" points="1547.38,-455.15 1547.38,-478.65 1650.13,-478.65 1650.13,-455.15 1547.38,-455.15"/>
<text text-anchor="start" x="1552.38" y="-464.2" font-family="Helvetica,sans-Serif" font-weight="bold" font-size="11.00">doc_unit</text>
<text text-anchor="start" x="1608.38" y="-463.2" font-family="Helvetica,sans-Serif" font-size="11.00">[table]</text>
<polygon fill="none" stroke="black" points="1547.38,-435.65 1547.38,-455.15 1650.13,-455.15 1650.13,-435.65 1547.38,-435.65"/>
<text text-anchor="start" x="1550.38" y="-441.7" font-family="Helvetica,sans-Serif" font-size="11.00">...</text>
<polygon fill="#ffffff" stroke="none" points="1547.38,-416.15 1547.38,-435.65 1587.88,-435.65 1587.88,-416.15 1547.38,-416.15"/>
<polygon fill="none" stroke="black" points="1547.38,-416.15 1547.38,-435.65 1587.88,-435.65 1587.88,-416.15 1547.38,-416.15"/>
<text text-anchor="start" x="1550.38" y="-422.2" font-family="Helvetica,sans-Serif" font-size="11.00">&lt; 13</text>
<polygon fill="#ffffff" stroke="none" points="1587.88,-416.15 1587.88,-435.65 1609.63,-435.65 1609.63,-416.15 1587.88,-416.15"/>
<polygon fill="none" stroke="black" points="1587.88,-416.15 1587.88,-435.65 1609.63,-435.65 1609.63,-416.15 1587.88,-416.15"/>
<text text-anchor="start" x="1599.13" y="-422.2" font-family="Helvetica,sans-Serif" font-size="11.00"> &#160;</text>
<polygon fill="#ffffff" stroke="none" points="1609.63,-416.15 1609.63,-435.65 1650.13,-435.65 1650.13,-416.15 1609.63,-416.15"/>
<polygon fill="none" stroke="black" points="1609.63,-416.15 1609.63,-435.65 1650.13,-435.65 1650.13,-416.15 1609.63,-416.15"/>
<text text-anchor="start" x="1620.88" y="-422.2" font-family="Helvetica,sans-Serif" font-size="11.00">11 &gt;</text>
</a>
</g>
</g>
<!-- check_automatic_result&#45;&gt;doc_unit -->
<g id="edge1" class="edge">
<title>check_automatic_result:w&#45;&gt;doc_unit:e</title>
<path fill="none" stroke="black" d="M2042.56,-462.1C2025.45,-461.37 2016.19,-459.54 1993.38,-458.4 1841.35,-450.84 1803.35,-445.4 1651.13,-445.4"/>
<polygon fill="black" stroke="black" points="2050.05,-462.24 2057.97,-466 2054.38,-462.33 2057.71,-462.39 2057.71,-462.39 2057.71,-462.39 2054.38,-462.33 2058.11,-458.8 2050.05,-462.24"/>
<ellipse fill="none" stroke="black" cx="2045.13" cy="-462.15" rx="3.2" ry="3.2"/>
</g>
<!-- doc_physical_document -->
<g id="node3" class="node">
<title>doc_physical_document</title>
<g id="a_node3"><a xlink:href="../../tables/doc_physical_document.html" xlink:title="doc_physical_document" target="_top">
<polygon fill="#ffffff" stroke="none" points="1780.63,-469.15 1780.63,-597.65 1985.38,-597.65 1985.38,-469.15 1780.63,-469.15"/>
<polygon fill="#f5f5f5" stroke="none" points="1780.63,-574.15 1780.63,-597.65 1985.38,-597.65 1985.38,-574.15 1780.63,-574.15"/>
<polygon fill="none" stroke="black" points="1780.63,-574.15 1780.63,-597.65 1985.38,-597.65 1985.38,-574.15 1780.63,-574.15"/>
<text text-anchor="start" x="1785.63" y="-583.2" font-family="Helvetica,sans-Serif" font-weight="bold" font-size="11.00">doc_physical_document</text>
<text text-anchor="start" x="1943.63" y="-582.2" font-family="Helvetica,sans-Serif" font-size="11.00">[table]</text>
<polygon fill="none" stroke="black" points="1780.63,-552.15 1780.63,-574.15 1985.38,-574.15 1985.38,-552.15 1780.63,-552.15"/>
<image xlink:href="../../images/primaryKeys.png" width="11px" height="12px" preserveAspectRatio="xMinYMin meet" x="1785.63" y="-569.154"/>
<text text-anchor="start" x="1813.5" y="-558.7" font-family="Helvetica,sans-Serif" font-size="11.00">identifier</text>
<polygon fill="#ffffff" stroke="none" points="1780.63,-530.15 1780.63,-552.15 1985.38,-552.15 1985.38,-530.15 1780.63,-530.15"/>
<polygon fill="none" stroke="black" points="1780.63,-530.15 1780.63,-552.15 1985.38,-552.15 1985.38,-530.15 1780.63,-530.15"/>
<image xlink:href="../../images/foreignKeys.png" width="11px" height="12px" preserveAspectRatio="xMinYMin meet" x="1785.63" y="-547.154"/>
<text text-anchor="start" x="1813.5" y="-536.7" font-family="Helvetica,sans-Serif" font-size="11.00">doc_unit</text>
<polygon fill="#ffffff" stroke="none" points="1780.63,-508.15 1780.63,-530.15 1985.38,-530.15 1985.38,-508.15 1780.63,-508.15"/>
<polygon fill="none" stroke="black" points="1780.63,-508.15 1780.63,-530.15 1985.38,-530.15 1985.38,-508.15 1780.63,-508.15"/>
<image xlink:href="../../images/foreignKeys.png" width="11px" height="12px" preserveAspectRatio="xMinYMin meet" x="1785.63" y="-525.154"/>
<text text-anchor="start" x="1813.5" y="-514.7" font-family="Helvetica,sans-Serif" font-size="11.00">train</text>
<polygon fill="none" stroke="black" points="1780.63,-488.65 1780.63,-508.15 1985.38,-508.15 1985.38,-488.65 1780.63,-488.65"/>
<text text-anchor="start" x="1783.63" y="-494.7" font-family="Helvetica,sans-Serif" font-size="11.00">...</text>
<polygon fill="#ffffff" stroke="none" points="1780.63,-469.15 1780.63,-488.65 1852.88,-488.65 1852.88,-469.15 1780.63,-469.15"/>
<polygon fill="none" stroke="black" points="1780.63,-469.15 1780.63,-488.65 1852.88,-488.65 1852.88,-469.15 1780.63,-469.15"/>
<text text-anchor="start" x="1783.63" y="-475.2" font-family="Helvetica,sans-Serif" font-size="11.00">&lt; 2</text>
<polygon fill="#ffffff" stroke="none" points="1852.88,-469.15 1852.88,-488.65 1913.13,-488.65 1913.13,-469.15 1852.88,-469.15"/>
<polygon fill="none" stroke="black" points="1852.88,-469.15 1852.88,-488.65 1913.13,-488.65 1913.13,-469.15 1852.88,-469.15"/>
<text text-anchor="start" x="1902.63" y="-475.2" font-family="Helvetica,sans-Serif" font-size="11.00"> &#160;</text>
<polygon fill="#ffffff" stroke="none" points="1913.13,-469.15 1913.13,-488.65 1985.38,-488.65 1985.38,-469.15 1913.13,-469.15"/>
<polygon fill="none" stroke="black" points="1913.13,-469.15 1913.13,-488.65 1985.38,-488.65 1985.38,-469.15 1913.13,-469.15"/>
<text text-anchor="start" x="1962.88" y="-475.2" font-family="Helvetica,sans-Serif" font-size="11.00">2 &gt;</text>
</a>
</g>
</g>
<!-- check_automatic_result&#45;&gt;doc_physical_document -->
<g id="edge2" class="edge">
<title>check_automatic_result:w&#45;&gt;doc_physical_document:e</title>
<path fill="none" stroke="black" d="M2042.99,-465.99C2010.77,-483.94 2035.18,-563.15 1986.38,-563.15"/>
<polygon fill="black" stroke="black" points="2050.26,-464.3 2058.87,-465.99 2054.48,-463.31 2057.73,-462.56 2057.73,-462.56 2057.73,-462.56 2054.48,-463.31 2057.24,-458.97 2050.26,-464.3"/>
<ellipse fill="none" stroke="black" cx="2045.47" cy="-465.41" rx="3.2" ry="3.2"/>
</g>
<!-- lib_library -->
<g id="node5" class="node">
<title>lib_library</title>
<g id="a_node5"><a xlink:href="../../tables/lib_library.html" xlink:title="lib_library" target="_top">
<polygon fill="#ffffff" stroke="none" points="275.88,-638.15 275.88,-700.65 389.63,-700.65 389.63,-638.15 275.88,-638.15"/>
<polygon fill="#f5f5f5" stroke="none" points="275.88,-677.15 275.88,-700.65 389.63,-700.65 389.63,-677.15 275.88,-677.15"/>
<polygon fill="none" stroke="black" points="275.88,-677.15 275.88,-700.65 389.63,-700.65 389.63,-677.15 275.88,-677.15"/>
<text text-anchor="start" x="280.88" y="-686.2" font-family="Helvetica,sans-Serif" font-weight="bold" font-size="11.00">lib_library</text>
<text text-anchor="start" x="347.88" y="-685.2" font-family="Helvetica,sans-Serif" font-size="11.00">[table]</text>
<polygon fill="none" stroke="black" points="275.88,-657.65 275.88,-677.15 389.63,-677.15 389.63,-657.65 275.88,-657.65"/>
<text text-anchor="start" x="278.88" y="-663.7" font-family="Helvetica,sans-Serif" font-size="11.00">...</text>
<polygon fill="#ffffff" stroke="none" points="275.88,-638.15 275.88,-657.65 315.54,-657.65 315.54,-638.15 275.88,-638.15"/>
<polygon fill="none" stroke="black" points="275.88,-638.15 275.88,-657.65 315.54,-657.65 315.54,-638.15 275.88,-638.15"/>
<text text-anchor="start" x="278.88" y="-644.2" font-family="Helvetica,sans-Serif" font-size="11.00">&lt; 6</text>
<polygon fill="#ffffff" stroke="none" points="315.54,-638.15 315.54,-657.65 343.21,-657.65 343.21,-638.15 315.54,-638.15"/>
<polygon fill="none" stroke="black" points="315.54,-638.15 315.54,-657.65 343.21,-657.65 343.21,-638.15 315.54,-638.15"/>
<text text-anchor="start" x="332.71" y="-644.2" font-family="Helvetica,sans-Serif" font-size="11.00"> &#160;</text>
<polygon fill="#ffffff" stroke="none" points="343.21,-638.15 343.21,-657.65 389.63,-657.65 389.63,-638.15 343.21,-638.15"/>
<polygon fill="none" stroke="black" points="343.21,-638.15 343.21,-657.65 389.63,-657.65 389.63,-638.15 343.21,-638.15"/>
<text text-anchor="start" x="360.38" y="-644.2" font-family="Helvetica,sans-Serif" font-size="11.00">27 &gt;</text>
</a>
</g>
</g>
<!-- doc_unit&#45;&gt;lib_library -->
<g id="edge17" class="edge">
<title>doc_unit:w&#45;&gt;lib_library:e</title>
<path fill="none" stroke="black" d="M1530.72,-444.1C1481.62,-435.24 1482.67,-382.46 1457.88,-328.4 1428.88,-265.17 1475.91,-222.68 1424.88,-175.4 1357.89,-113.36 687.69,-60.86 606.38,-102.4 487.68,-163.04 479.43,-221.37 430.63,-345.4 404.23,-412.5 462.73,-667.4 390.63,-667.4"/>
<polygon fill="black" stroke="black" points="1538.07,-444.71 1545.75,-448.96 1542.39,-445.07 1545.71,-445.35 1545.71,-445.35 1545.71,-445.35 1542.39,-445.07 1546.34,-441.79 1538.07,-444.71"/>
<ellipse fill="none" stroke="black" cx="1533.17" cy="-444.31" rx="3.2" ry="3.2"/>
</g>
<!-- conf_lists_omeka -->
<g id="node9" class="node">
<title>conf_lists_omeka</title>
<g id="a_node9"><a xlink:href="../../tables/conf_lists_omeka.html" xlink:title="conf_lists_omeka" target="_top">
<polygon fill="#ffffff" stroke="none" points="668.38,-638.15 668.38,-700.65 829.13,-700.65 829.13,-638.15 668.38,-638.15"/>
<polygon fill="#f5f5f5" stroke="none" points="668.38,-677.15 668.38,-700.65 829.13,-700.65 829.13,-677.15 668.38,-677.15"/>
<polygon fill="none" stroke="black" points="668.38,-677.15 668.38,-700.65 829.13,-700.65 829.13,-677.15 668.38,-677.15"/>
<text text-anchor="start" x="673.38" y="-686.2" font-family="Helvetica,sans-Serif" font-weight="bold" font-size="11.00">conf_lists_omeka</text>
<text text-anchor="start" x="787.38" y="-685.2" font-family="Helvetica,sans-Serif" font-size="11.00">[table]</text>
<polygon fill="none" stroke="black" points="668.38,-657.65 668.38,-677.15 829.13,-677.15 829.13,-657.65 668.38,-657.65"/>
<text text-anchor="start" x="671.38" y="-663.7" font-family="Helvetica,sans-Serif" font-size="11.00">...</text>
<polygon fill="#ffffff" stroke="none" points="668.38,-638.15 668.38,-657.65 725.96,-657.65 725.96,-638.15 668.38,-638.15"/>
<polygon fill="none" stroke="black" points="668.38,-638.15 668.38,-657.65 725.96,-657.65 725.96,-638.15 668.38,-638.15"/>
<text text-anchor="start" x="671.38" y="-644.2" font-family="Helvetica,sans-Serif" font-size="11.00">&lt; 1</text>
<polygon fill="#ffffff" stroke="none" points="725.96,-638.15 725.96,-657.65 771.54,-657.65 771.54,-638.15 725.96,-638.15"/>
<polygon fill="none" stroke="black" points="725.96,-638.15 725.96,-657.65 771.54,-657.65 771.54,-638.15 725.96,-638.15"/>
<text text-anchor="start" x="761.04" y="-644.2" font-family="Helvetica,sans-Serif" font-size="11.00"> &#160;</text>
<polygon fill="#ffffff" stroke="none" points="771.54,-638.15 771.54,-657.65 829.13,-657.65 829.13,-638.15 771.54,-638.15"/>
<polygon fill="none" stroke="black" points="771.54,-638.15 771.54,-657.65 829.13,-657.65 829.13,-638.15 771.54,-638.15"/>
<text text-anchor="start" x="806.63" y="-644.2" font-family="Helvetica,sans-Serif" font-size="11.00">6 &gt;</text>
</a>
</g>
</g>
<!-- doc_unit&#45;&gt;conf_lists_omeka -->
<g id="edge15" class="edge">
<title>doc_unit:w&#45;&gt;conf_lists_omeka:e</title>
<path fill="none" stroke="black" d="M1530.81,-446.49C1454.63,-457.97 1489.82,-558.47 1457.88,-643.4 1440.36,-689.98 1461.09,-716.26 1424.88,-750.4 1343.35,-827.27 1022.83,-862.44 924.13,-809.4 890.79,-791.49 867.97,-667.4 830.13,-667.4"/>
<polygon fill="black" stroke="black" points="1538.06,-445.98 1546.29,-449.02 1542.39,-445.68 1545.71,-445.45 1545.71,-445.45 1545.71,-445.45 1542.39,-445.68 1545.79,-441.84 1538.06,-445.98"/>
<ellipse fill="none" stroke="black" cx="1533.16" cy="-446.33" rx="3.2" ry="3.2"/>
</g>
<!-- doc_unit&#45;&gt;conf_lists_omeka -->
<g id="edge16" class="edge">
<title>doc_unit:w&#45;&gt;conf_lists_omeka:e</title>
<path fill="none" stroke="black" d="M1530.82,-446.49C1454.68,-457.99 1490.28,-558.65 1457.88,-643.4 1440.71,-688.3 1460.03,-713.62 1424.88,-746.4 1342.93,-822.82 1023.18,-857.78 924.13,-805.4 891.33,-788.06 867.23,-667.4 830.13,-667.4"/>
<polygon fill="black" stroke="black" points="1538.06,-445.99 1546.3,-449.02 1542.39,-445.68 1545.71,-445.45 1545.71,-445.45 1545.71,-445.45 1542.39,-445.68 1545.79,-441.84 1538.06,-445.99"/>
<ellipse fill="none" stroke="black" cx="1533.16" cy="-446.33" rx="3.2" ry="3.2"/>
</g>
<!-- conf_classement_pac -->
<g id="node14" class="node">
<title>conf_classement_pac</title>
<g id="a_node14"><a xlink:href="../../tables/conf_classement_pac.html" xlink:title="conf_classement_pac" target="_top">
<polygon fill="#ffffff" stroke="none" points="654.88,-501.15 654.88,-563.65 842.63,-563.65 842.63,-501.15 654.88,-501.15"/>
<polygon fill="#f5f5f5" stroke="none" points="654.88,-540.15 654.88,-563.65 842.63,-563.65 842.63,-540.15 654.88,-540.15"/>
<polygon fill="none" stroke="black" points="654.88,-540.15 654.88,-563.65 842.63,-563.65 842.63,-540.15 654.88,-540.15"/>
<text text-anchor="start" x="659.88" y="-549.2" font-family="Helvetica,sans-Serif" font-weight="bold" font-size="11.00">conf_classement_pac</text>
<text text-anchor="start" x="800.88" y="-548.2" font-family="Helvetica,sans-Serif" font-size="11.00">[table]</text>
<polygon fill="none" stroke="black" points="654.88,-520.65 654.88,-540.15 842.63,-540.15 842.63,-520.65 654.88,-520.65"/>
<text text-anchor="start" x="657.88" y="-526.7" font-family="Helvetica,sans-Serif" font-size="11.00">...</text>
<polygon fill="#ffffff" stroke="none" points="654.88,-501.15 654.88,-520.65 721.46,-520.65 721.46,-501.15 654.88,-501.15"/>
<polygon fill="none" stroke="black" points="654.88,-501.15 654.88,-520.65 721.46,-520.65 721.46,-501.15 654.88,-501.15"/>
<text text-anchor="start" x="657.88" y="-507.2" font-family="Helvetica,sans-Serif" font-size="11.00">&lt; 1</text>
<polygon fill="#ffffff" stroke="none" points="721.46,-501.15 721.46,-520.65 776.04,-520.65 776.04,-501.15 721.46,-501.15"/>
<polygon fill="none" stroke="black" points="721.46,-501.15 721.46,-520.65 776.04,-520.65 776.04,-501.15 721.46,-501.15"/>
<text text-anchor="start" x="765.54" y="-507.2" font-family="Helvetica,sans-Serif" font-size="11.00"> &#160;</text>
<polygon fill="#ffffff" stroke="none" points="776.04,-501.15 776.04,-520.65 842.63,-520.65 842.63,-501.15 776.04,-501.15"/>
<polygon fill="none" stroke="black" points="776.04,-501.15 776.04,-520.65 842.63,-520.65 842.63,-501.15 776.04,-501.15"/>
<text text-anchor="start" x="820.13" y="-507.2" font-family="Helvetica,sans-Serif" font-size="11.00">3 &gt;</text>
</a>
</g>
</g>
<!-- doc_unit&#45;&gt;conf_classement_pac -->
<g id="edge13" class="edge">
<title>doc_unit:w&#45;&gt;conf_classement_pac:e</title>
<path fill="none" stroke="black" d="M1530.74,-445.22C1265.25,-438.81 1153.47,-271.97 924.13,-417.4 895.08,-435.82 911.61,-459.77 891.13,-487.4 874.17,-510.28 872.1,-530.4 843.63,-530.4"/>
<polygon fill="black" stroke="black" points="1538.04,-445.3 1546,-449 1542.38,-445.36 1545.71,-445.4 1545.71,-445.4 1545.71,-445.4 1542.38,-445.36 1546.09,-441.8 1538.04,-445.3"/>
<ellipse fill="none" stroke="black" cx="1533.13" cy="-445.24" rx="3.2" ry="3.2"/>
</g>
<!-- conf_collection_ia -->
<g id="node15" class="node">
<title>conf_collection_ia</title>
<g id="a_node15"><a xlink:href="../../tables/conf_collection_ia.html" xlink:title="conf_collection_ia" target="_top">
<polygon fill="#ffffff" stroke="none" points="666.38,-223.15 666.38,-285.65 831.13,-285.65 831.13,-223.15 666.38,-223.15"/>
<polygon fill="#f5f5f5" stroke="none" points="666.38,-262.15 666.38,-285.65 831.13,-285.65 831.13,-262.15 666.38,-262.15"/>
<polygon fill="none" stroke="black" points="666.38,-262.15 666.38,-285.65 831.13,-285.65 831.13,-262.15 666.38,-262.15"/>
<text text-anchor="start" x="671.38" y="-271.2" font-family="Helvetica,sans-Serif" font-weight="bold" font-size="11.00">conf_collection_ia</text>
<text text-anchor="start" x="789.38" y="-270.2" font-family="Helvetica,sans-Serif" font-size="11.00">[table]</text>
<polygon fill="none" stroke="black" points="666.38,-242.65 666.38,-262.15 831.13,-262.15 831.13,-242.65 666.38,-242.65"/>
<text text-anchor="start" x="669.38" y="-248.7" font-family="Helvetica,sans-Serif" font-size="11.00">...</text>
<polygon fill="#ffffff" stroke="none" points="666.38,-223.15 666.38,-242.65 725.29,-242.65 725.29,-223.15 666.38,-223.15"/>
<polygon fill="none" stroke="black" points="666.38,-223.15 666.38,-242.65 725.29,-242.65 725.29,-223.15 666.38,-223.15"/>
<text text-anchor="start" x="669.38" y="-229.2" font-family="Helvetica,sans-Serif" font-size="11.00">&lt; 1</text>
<polygon fill="#ffffff" stroke="none" points="725.29,-223.15 725.29,-242.65 772.21,-242.65 772.21,-223.15 725.29,-223.15"/>
<polygon fill="none" stroke="black" points="725.29,-223.15 725.29,-242.65 772.21,-242.65 772.21,-223.15 725.29,-223.15"/>
<text text-anchor="start" x="761.71" y="-229.2" font-family="Helvetica,sans-Serif" font-size="11.00"> &#160;</text>
<polygon fill="#ffffff" stroke="none" points="772.21,-223.15 772.21,-242.65 831.13,-242.65 831.13,-223.15 772.21,-223.15"/>
<polygon fill="none" stroke="black" points="772.21,-223.15 772.21,-242.65 831.13,-242.65 831.13,-223.15 772.21,-223.15"/>
<text text-anchor="start" x="808.63" y="-229.2" font-family="Helvetica,sans-Serif" font-size="11.00">3 &gt;</text>
</a>
</g>
</g>
<!-- doc_unit&#45;&gt;conf_collection_ia -->
<g id="edge14" class="edge">
<title>doc_unit:w&#45;&gt;conf_collection_ia:e</title>
<path fill="none" stroke="black" d="M1530.82,-444.05C1482.37,-434.86 1486.96,-380.28 1457.88,-328.4 1438.26,-293.42 1457.5,-267.74 1424.88,-244.4 1243.84,-114.87 1145.58,-210.78 924.13,-233.4 882.59,-237.65 873.88,-252.4 832.13,-252.4"/>
<polygon fill="black" stroke="black" points="1538.07,-444.68 1545.73,-448.96 1542.39,-445.06 1545.71,-445.35 1545.71,-445.35 1545.71,-445.35 1542.39,-445.06 1546.36,-441.79 1538.07,-444.68"/>
<ellipse fill="none" stroke="black" cx="1533.17" cy="-444.26" rx="3.2" ry="3.2"/>
</g>
<!-- lot_lot -->
<g id="node16" class="node">
<title>lot_lot</title>
<g id="a_node16"><a xlink:href="../../tables/lot_lot.html" xlink:title="lot_lot" target="_top">
<polygon fill="#ffffff" stroke="none" points="1276.63,-255.15 1276.63,-317.65 1365.38,-317.65 1365.38,-255.15 1276.63,-255.15"/>
<polygon fill="#f5f5f5" stroke="none" points="1276.63,-294.15 1276.63,-317.65 1365.38,-317.65 1365.38,-294.15 1276.63,-294.15"/>
<polygon fill="none" stroke="black" points="1276.63,-294.15 1276.63,-317.65 1365.38,-317.65 1365.38,-294.15 1276.63,-294.15"/>
<text text-anchor="start" x="1281.5" y="-303.2" font-family="Helvetica,sans-Serif" font-weight="bold" font-size="11.00">lot_lot</text>
<text text-anchor="start" x="1323.63" y="-302.2" font-family="Helvetica,sans-Serif" font-size="11.00">[table]</text>
<polygon fill="none" stroke="black" points="1276.63,-274.65 1276.63,-294.15 1365.38,-294.15 1365.38,-274.65 1276.63,-274.65"/>
<text text-anchor="start" x="1279.63" y="-280.7" font-family="Helvetica,sans-Serif" font-size="11.00">...</text>
<polygon fill="#ffffff" stroke="none" points="1276.63,-255.15 1276.63,-274.65 1314.71,-274.65 1314.71,-255.15 1276.63,-255.15"/>
<polygon fill="none" stroke="black" points="1276.63,-255.15 1276.63,-274.65 1314.71,-274.65 1314.71,-255.15 1276.63,-255.15"/>
<text text-anchor="start" x="1279.63" y="-261.2" font-family="Helvetica,sans-Serif" font-size="11.00">&lt; 14</text>
<polygon fill="#ffffff" stroke="none" points="1314.71,-255.15 1314.71,-274.65 1334.04,-274.65 1334.04,-255.15 1314.71,-255.15"/>
<polygon fill="none" stroke="black" points="1314.71,-255.15 1314.71,-274.65 1334.04,-274.65 1334.04,-255.15 1314.71,-255.15"/>
<text text-anchor="start" x="1323.54" y="-261.2" font-family="Helvetica,sans-Serif" font-size="11.00"> &#160;</text>
<polygon fill="#ffffff" stroke="none" points="1334.04,-255.15 1334.04,-274.65 1365.38,-274.65 1365.38,-255.15 1334.04,-255.15"/>
<polygon fill="none" stroke="black" points="1334.04,-255.15 1334.04,-274.65 1365.38,-274.65 1365.38,-255.15 1334.04,-255.15"/>
<text text-anchor="start" x="1342.88" y="-261.2" font-family="Helvetica,sans-Serif" font-size="11.00">4 &gt;</text>
</a>
</g>
</g>
<!-- doc_unit&#45;&gt;lot_lot -->
<g id="edge18" class="edge">
<title>doc_unit:w&#45;&gt;lot_lot:e</title>
<path fill="none" stroke="black" d="M1530.81,-444.15C1442.25,-429.17 1468.15,-284.4 1366.38,-284.4"/>
<polygon fill="black" stroke="black" points="1538.07,-444.74 1545.76,-448.97 1542.39,-445.08 1545.71,-445.35 1545.71,-445.35 1545.71,-445.35 1542.39,-445.08 1546.33,-441.79 1538.07,-444.74"/>
<ellipse fill="none" stroke="black" cx="1533.17" cy="-444.34" rx="3.2" ry="3.2"/>
</g>
<!-- proj_project -->
<g id="node17" class="node">
<title>proj_project</title>
<g id="a_node17"><a xlink:href="../../tables/proj_project.html" xlink:title="proj_project" target="_top">
<polygon fill="#ffffff" stroke="none" points="932.13,-428.15 932.13,-798.65 1176.13,-798.65 1176.13,-428.15 932.13,-428.15"/>
<polygon fill="#f5f5f5" stroke="none" points="932.13,-775.15 932.13,-798.65 1176.13,-798.65 1176.13,-775.15 932.13,-775.15"/>
<polygon fill="none" stroke="black" points="932.13,-775.15 932.13,-798.65 1176.13,-798.65 1176.13,-775.15 932.13,-775.15"/>
<text text-anchor="start" x="937.13" y="-784.2" font-family="Helvetica,sans-Serif" font-weight="bold" font-size="11.00">proj_project</text>
<text text-anchor="start" x="1134.38" y="-783.2" font-family="Helvetica,sans-Serif" font-size="11.00">[table]</text>
<polygon fill="none" stroke="black" points="932.13,-753.15 932.13,-775.15 1176.13,-775.15 1176.13,-753.15 932.13,-753.15"/>
<image xlink:href="../../images/primaryKeys.png" width="11px" height="12px" preserveAspectRatio="xMinYMin meet" x="937.128" y="-770.154"/>
<text text-anchor="start" x="952.13" y="-759.7" font-family="Helvetica,sans-Serif" font-size="11.00">identifier</text>
<polygon fill="#ffffff" stroke="none" points="932.13,-731.15 932.13,-753.15 1176.13,-753.15 1176.13,-731.15 932.13,-731.15"/>
<polygon fill="none" stroke="black" points="932.13,-731.15 932.13,-753.15 1176.13,-753.15 1176.13,-731.15 932.13,-731.15"/>
<image xlink:href="../../images/foreignKeys.png" width="11px" height="12px" preserveAspectRatio="xMinYMin meet" x="937.128" y="-748.154"/>
<text text-anchor="start" x="952.13" y="-737.7" font-family="Helvetica,sans-Serif" font-size="11.00">library</text>
<polygon fill="#ffffff" stroke="none" points="932.13,-709.15 932.13,-731.15 1176.13,-731.15 1176.13,-709.15 932.13,-709.15"/>
<polygon fill="none" stroke="black" points="932.13,-709.15 932.13,-731.15 1176.13,-731.15 1176.13,-709.15 932.13,-709.15"/>
<image xlink:href="../../images/foreignKeys.png" width="11px" height="12px" preserveAspectRatio="xMinYMin meet" x="937.128" y="-726.154"/>
<text text-anchor="start" x="952.13" y="-715.7" font-family="Helvetica,sans-Serif" font-size="11.00">active_configuration_ftp</text>
<polygon fill="#ffffff" stroke="none" points="932.13,-687.15 932.13,-709.15 1176.13,-709.15 1176.13,-687.15 932.13,-687.15"/>
<polygon fill="none" stroke="black" points="932.13,-687.15 932.13,-709.15 1176.13,-709.15 1176.13,-687.15 932.13,-687.15"/>
<image xlink:href="../../images/foreignKeys.png" width="11px" height="12px" preserveAspectRatio="xMinYMin meet" x="937.128" y="-704.154"/>
<text text-anchor="start" x="952.13" y="-693.7" font-family="Helvetica,sans-Serif" font-size="11.00">active_configuration_check</text>
<polygon fill="#ffffff" stroke="none" points="932.13,-665.15 932.13,-687.15 1176.13,-687.15 1176.13,-665.15 932.13,-665.15"/>
<polygon fill="none" stroke="black" points="932.13,-665.15 932.13,-687.15 1176.13,-687.15 1176.13,-665.15 932.13,-665.15"/>
<image xlink:href="../../images/foreignKeys.png" width="11px" height="12px" preserveAspectRatio="xMinYMin meet" x="937.128" y="-682.154"/>
<text text-anchor="start" x="952.13" y="-671.7" font-family="Helvetica,sans-Serif" font-size="11.00">provider</text>
<polygon fill="#ffffff" stroke="none" points="932.13,-643.15 932.13,-665.15 1176.13,-665.15 1176.13,-643.15 932.13,-643.15"/>
<polygon fill="none" stroke="black" points="932.13,-643.15 932.13,-665.15 1176.13,-665.15 1176.13,-643.15 932.13,-643.15"/>
<image xlink:href="../../images/foreignKeys.png" width="11px" height="12px" preserveAspectRatio="xMinYMin meet" x="937.128" y="-660.154"/>
<text text-anchor="start" x="952.13" y="-649.7" font-family="Helvetica,sans-Serif" font-size="11.00">collection_omeka</text>
<polygon fill="#ffffff" stroke="none" points="932.13,-621.15 932.13,-643.15 1176.13,-643.15 1176.13,-621.15 932.13,-621.15"/>
<polygon fill="none" stroke="black" points="932.13,-621.15 932.13,-643.15 1176.13,-643.15 1176.13,-621.15 932.13,-621.15"/>
<image xlink:href="../../images/foreignKeys.png" width="11px" height="12px" preserveAspectRatio="xMinYMin meet" x="937.128" y="-638.154"/>
<text text-anchor="start" x="952.13" y="-627.7" font-family="Helvetica,sans-Serif" font-size="11.00">items_omeka</text>
<polygon fill="#ffffff" stroke="none" points="932.13,-599.15 932.13,-621.15 1176.13,-621.15 1176.13,-599.15 932.13,-599.15"/>
<polygon fill="none" stroke="black" points="932.13,-599.15 932.13,-621.15 1176.13,-621.15 1176.13,-599.15 932.13,-599.15"/>
<image xlink:href="../../images/foreignKeys.png" width="11px" height="12px" preserveAspectRatio="xMinYMin meet" x="937.128" y="-616.154"/>
<text text-anchor="start" x="952.13" y="-605.7" font-family="Helvetica,sans-Serif" font-size="11.00">active_configuration_export_ftp</text>
<polygon fill="#ffffff" stroke="none" points="932.13,-577.15 932.13,-599.15 1176.13,-599.15 1176.13,-577.15 932.13,-577.15"/>
<polygon fill="none" stroke="black" points="932.13,-577.15 932.13,-599.15 1176.13,-599.15 1176.13,-577.15 932.13,-577.15"/>
<image xlink:href="../../images/foreignKeys.png" width="11px" height="12px" preserveAspectRatio="xMinYMin meet" x="937.128" y="-594.154"/>
<text text-anchor="start" x="952.13" y="-583.7" font-family="Helvetica,sans-Serif" font-size="11.00">collection_ia</text>
<polygon fill="#ffffff" stroke="none" points="932.13,-555.15 932.13,-577.15 1176.13,-577.15 1176.13,-555.15 932.13,-555.15"/>
<polygon fill="none" stroke="black" points="932.13,-555.15 932.13,-577.15 1176.13,-577.15 1176.13,-555.15 932.13,-555.15"/>
<image xlink:href="../../images/foreignKeys.png" width="11px" height="12px" preserveAspectRatio="xMinYMin meet" x="937.128" y="-572.154"/>
<text text-anchor="start" x="952.13" y="-561.7" font-family="Helvetica,sans-Serif" font-size="11.00">classement_pac</text>
<polygon fill="#ffffff" stroke="none" points="932.13,-533.15 932.13,-555.15 1176.13,-555.15 1176.13,-533.15 932.13,-533.15"/>
<polygon fill="none" stroke="black" points="932.13,-533.15 932.13,-555.15 1176.13,-555.15 1176.13,-533.15 932.13,-533.15"/>
<image xlink:href="../../images/foreignKeys.png" width="11px" height="12px" preserveAspectRatio="xMinYMin meet" x="937.128" y="-550.154"/>
<text text-anchor="start" x="952.13" y="-539.7" font-family="Helvetica,sans-Serif" font-size="11.00">workflow_model</text>
<polygon fill="#ffffff" stroke="none" points="932.13,-511.15 932.13,-533.15 1176.13,-533.15 1176.13,-511.15 932.13,-511.15"/>
<polygon fill="none" stroke="black" points="932.13,-511.15 932.13,-533.15 1176.13,-533.15 1176.13,-511.15 932.13,-511.15"/>
<image xlink:href="../../images/foreignKeys.png" width="11px" height="12px" preserveAspectRatio="xMinYMin meet" x="937.128" y="-528.154"/>
<text text-anchor="start" x="952.13" y="-517.7" font-family="Helvetica,sans-Serif" font-size="11.00">active_format_configuration</text>
<polygon fill="#ffffff" stroke="none" points="932.13,-489.15 932.13,-511.15 1176.13,-511.15 1176.13,-489.15 932.13,-489.15"/>
<polygon fill="none" stroke="black" points="932.13,-489.15 932.13,-511.15 1176.13,-511.15 1176.13,-489.15 932.13,-489.15"/>
<image xlink:href="../../images/foreignKeys.png" width="11px" height="12px" preserveAspectRatio="xMinYMin meet" x="937.128" y="-506.154"/>
<text text-anchor="start" x="952.13" y="-495.7" font-family="Helvetica,sans-Serif" font-size="11.00">omeka_configuration</text>
<polygon fill="#ffffff" stroke="none" points="932.13,-467.15 932.13,-489.15 1176.13,-489.15 1176.13,-467.15 932.13,-467.15"/>
<polygon fill="none" stroke="black" points="932.13,-467.15 932.13,-489.15 1176.13,-489.15 1176.13,-467.15 932.13,-467.15"/>
<image xlink:href="../../images/foreignKeys.png" width="11px" height="12px" preserveAspectRatio="xMinYMin meet" x="937.128" y="-484.154"/>
<text text-anchor="start" x="952.13" y="-473.7" font-family="Helvetica,sans-Serif" font-size="11.00">active_export_ftp_delivery_folder</text>
<polygon fill="none" stroke="black" points="932.13,-447.65 932.13,-467.15 1176.13,-467.15 1176.13,-447.65 932.13,-447.65"/>
<text text-anchor="start" x="935.13" y="-453.7" font-family="Helvetica,sans-Serif" font-size="11.00">...</text>
<polygon fill="#ffffff" stroke="none" points="932.13,-428.15 932.13,-447.65 1021.96,-447.65 1021.96,-428.15 932.13,-428.15"/>
<polygon fill="none" stroke="black" points="932.13,-428.15 932.13,-447.65 1021.96,-447.65 1021.96,-428.15 932.13,-428.15"/>
<text text-anchor="start" x="935.13" y="-434.2" font-family="Helvetica,sans-Serif" font-size="11.00">&lt; 13</text>
<polygon fill="#ffffff" stroke="none" points="1021.96,-428.15 1021.96,-447.65 1093.04,-447.65 1093.04,-428.15 1021.96,-428.15"/>
<polygon fill="none" stroke="black" points="1021.96,-428.15 1021.96,-447.65 1093.04,-447.65 1093.04,-428.15 1021.96,-428.15"/>
<text text-anchor="start" x="1082.54" y="-434.2" font-family="Helvetica,sans-Serif" font-size="11.00"> &#160;</text>
<polygon fill="#ffffff" stroke="none" points="1093.04,-428.15 1093.04,-447.65 1176.13,-447.65 1176.13,-428.15 1093.04,-428.15"/>
<polygon fill="none" stroke="black" points="1093.04,-428.15 1093.04,-447.65 1176.13,-447.65 1176.13,-428.15 1093.04,-428.15"/>
<text text-anchor="start" x="1153.63" y="-434.2" font-family="Helvetica,sans-Serif" font-size="11.00">7 &gt;</text>
</a>
</g>
</g>
<!-- doc_unit&#45;&gt;proj_project -->
<g id="edge19" class="edge">
<title>doc_unit:w&#45;&gt;proj_project:e</title>
<path fill="none" stroke="black" d="M1530.74,-445.64C1367.55,-450.56 1325.13,-533.95 1217.13,-666.4 1187.46,-702.79 1224.07,-764.15 1177.13,-764.15"/>
<polygon fill="black" stroke="black" points="1538.04,-445.53 1546.1,-449.01 1542.38,-445.46 1545.71,-445.41 1545.71,-445.41 1545.71,-445.41 1542.38,-445.46 1545.99,-441.81 1538.04,-445.53"/>
<ellipse fill="none" stroke="black" cx="1533.13" cy="-445.6" rx="3.2" ry="3.2"/>
</g>
<!-- doc_physical_document&#45;&gt;doc_unit -->
<g id="edge10" class="edge">
<title>doc_physical_document:w&#45;&gt;doc_unit:e</title>
<path fill="none" stroke="black" d="M1764.07,-539.41C1710.09,-526.43 1716.65,-445.4 1651.13,-445.4"/>
<polygon fill="black" stroke="black" points="1771.35,-540.23 1778.89,-544.69 1775.65,-540.71 1778.96,-541.08 1778.96,-541.08 1778.96,-541.08 1775.65,-540.71 1779.7,-537.54 1771.35,-540.23"/>
<ellipse fill="none" stroke="black" cx="1766.46" cy="-539.68" rx="3.2" ry="3.2"/>
</g>
<!-- train_train -->
<g id="node12" class="node">
<title>train_train</title>
<g id="a_node12"><a xlink:href="../../tables/train_train.html" xlink:title="train_train" target="_top">
<polygon fill="#ffffff" stroke="none" points="1465.88,-653.9 1465.88,-986.9 1731.63,-986.9 1731.63,-653.9 1465.88,-653.9"/>
<polygon fill="#f5f5f5" stroke="none" points="1467.88,-961.4 1467.88,-984.9 1729.63,-984.9 1729.63,-961.4 1467.88,-961.4"/>
<polygon fill="none" stroke="black" points="1467.88,-961.4 1467.88,-984.9 1729.63,-984.9 1729.63,-961.4 1467.88,-961.4"/>
<text text-anchor="start" x="1472.88" y="-970.45" font-family="Helvetica,sans-Serif" font-weight="bold" font-size="11.00">train_train</text>
<text text-anchor="start" x="1687.88" y="-969.45" font-family="Helvetica,sans-Serif" font-size="11.00">[table]</text>
<polygon fill="none" stroke="black" points="1467.88,-939.4 1467.88,-961.4 1641.88,-961.4 1641.88,-939.4 1467.88,-939.4"/>
<image xlink:href="../../images/primaryKeys.png" width="11px" height="12px" preserveAspectRatio="xMinYMin meet" x="1472.88" y="-956.404"/>
<text text-anchor="start" x="1487.88" y="-945.95" font-family="Helvetica,sans-Serif" font-size="11.00">identifier</text>
<polygon fill="none" stroke="black" points="1641.88,-939.4 1641.88,-961.4 1729.63,-961.4 1729.63,-939.4 1641.88,-939.4"/>
<text text-anchor="start" x="1644.88" y="-946.7" font-family="Helvetica,sans-Serif" font-size="11.00">varchar[191]</text>
<polygon fill="none" stroke="black" points="1467.88,-917.4 1467.88,-939.4 1641.88,-939.4 1641.88,-917.4 1467.88,-917.4"/>
<text text-anchor="start" x="1487.88" y="-923.95" font-family="Helvetica,sans-Serif" font-size="11.00">label</text>
<polygon fill="none" stroke="black" points="1641.88,-917.4 1641.88,-939.4 1729.63,-939.4 1729.63,-917.4 1641.88,-917.4"/>
<text text-anchor="start" x="1644.88" y="-924.7" font-family="Helvetica,sans-Serif" font-size="11.00">varchar[255]</text>
<polygon fill="none" stroke="black" points="1467.88,-895.4 1467.88,-917.4 1641.88,-917.4 1641.88,-895.4 1467.88,-895.4"/>
<text text-anchor="start" x="1487.88" y="-901.95" font-family="Helvetica,sans-Serif" font-size="11.00">description</text>
<polygon fill="none" stroke="black" points="1641.88,-895.4 1641.88,-917.4 1729.63,-917.4 1729.63,-895.4 1641.88,-895.4"/>
<text text-anchor="start" x="1644.88" y="-902.7" font-family="Helvetica,sans-Serif" font-size="11.00">varchar[2000]</text>
<polygon fill="none" stroke="black" points="1467.88,-873.4 1467.88,-895.4 1641.88,-895.4 1641.88,-873.4 1467.88,-873.4"/>
<text text-anchor="start" x="1487.88" y="-879.95" font-family="Helvetica,sans-Serif" font-size="11.00">active</text>
<polygon fill="none" stroke="black" points="1641.88,-873.4 1641.88,-895.4 1729.63,-895.4 1729.63,-873.4 1641.88,-873.4"/>
<text text-anchor="start" x="1644.88" y="-880.7" font-family="Helvetica,sans-Serif" font-size="11.00">bit[1]</text>
<polygon fill="none" stroke="black" points="1467.88,-851.4 1467.88,-873.4 1641.88,-873.4 1641.88,-851.4 1467.88,-851.4"/>
<text text-anchor="start" x="1487.88" y="-857.95" font-family="Helvetica,sans-Serif" font-size="11.00">status</text>
<polygon fill="none" stroke="black" points="1641.88,-851.4 1641.88,-873.4 1729.63,-873.4 1729.63,-851.4 1641.88,-851.4"/>
<text text-anchor="start" x="1644.88" y="-858.7" font-family="Helvetica,sans-Serif" font-size="11.00">varchar[255]</text>
<polygon fill="none" stroke="black" points="1467.88,-829.4 1467.88,-851.4 1641.88,-851.4 1641.88,-829.4 1467.88,-829.4"/>
<text text-anchor="start" x="1487.88" y="-835.95" font-family="Helvetica,sans-Serif" font-size="11.00">provider_sending_date</text>
<polygon fill="none" stroke="black" points="1641.88,-829.4 1641.88,-851.4 1729.63,-851.4 1729.63,-829.4 1641.88,-829.4"/>
<text text-anchor="start" x="1644.88" y="-836.7" font-family="Helvetica,sans-Serif" font-size="11.00">date[10]</text>
<polygon fill="none" stroke="black" points="1467.88,-807.4 1467.88,-829.4 1641.88,-829.4 1641.88,-807.4 1467.88,-807.4"/>
<text text-anchor="start" x="1487.88" y="-813.95" font-family="Helvetica,sans-Serif" font-size="11.00">return_date</text>
<polygon fill="none" stroke="black" points="1641.88,-807.4 1641.88,-829.4 1729.63,-829.4 1729.63,-807.4 1641.88,-807.4"/>
<text text-anchor="start" x="1644.88" y="-814.7" font-family="Helvetica,sans-Serif" font-size="11.00">date[10]</text>
<polygon fill="none" stroke="black" points="1467.88,-785.4 1467.88,-807.4 1641.88,-807.4 1641.88,-785.4 1467.88,-785.4"/>
<text text-anchor="start" x="1487.88" y="-791.95" font-family="Helvetica,sans-Serif" font-size="11.00">version</text>
<polygon fill="none" stroke="black" points="1641.88,-785.4 1641.88,-807.4 1729.63,-807.4 1729.63,-785.4 1641.88,-785.4"/>
<text text-anchor="start" x="1644.88" y="-792.7" font-family="Helvetica,sans-Serif" font-size="11.00">bigint[19]</text>
<polygon fill="none" stroke="black" points="1467.88,-763.4 1467.88,-785.4 1641.88,-785.4 1641.88,-763.4 1467.88,-763.4"/>
<text text-anchor="start" x="1487.88" y="-769.95" font-family="Helvetica,sans-Serif" font-size="11.00">created_by</text>
<polygon fill="none" stroke="black" points="1641.88,-763.4 1641.88,-785.4 1729.63,-785.4 1729.63,-763.4 1641.88,-763.4"/>
<text text-anchor="start" x="1644.88" y="-770.7" font-family="Helvetica,sans-Serif" font-size="11.00">varchar[191]</text>
<polygon fill="none" stroke="black" points="1467.88,-741.4 1467.88,-763.4 1641.88,-763.4 1641.88,-741.4 1467.88,-741.4"/>
<text text-anchor="start" x="1487.88" y="-747.95" font-family="Helvetica,sans-Serif" font-size="11.00">last_modified_by</text>
<polygon fill="none" stroke="black" points="1641.88,-741.4 1641.88,-763.4 1729.63,-763.4 1729.63,-741.4 1641.88,-741.4"/>
<text text-anchor="start" x="1644.88" y="-748.7" font-family="Helvetica,sans-Serif" font-size="11.00">varchar[191]</text>
<polygon fill="none" stroke="black" points="1467.88,-719.4 1467.88,-741.4 1641.88,-741.4 1641.88,-719.4 1467.88,-719.4"/>
<text text-anchor="start" x="1487.88" y="-725.95" font-family="Helvetica,sans-Serif" font-size="11.00">created_date</text>
<polygon fill="none" stroke="black" points="1641.88,-719.4 1641.88,-741.4 1729.63,-741.4 1729.63,-719.4 1641.88,-719.4"/>
<text text-anchor="start" x="1644.88" y="-726.7" font-family="Helvetica,sans-Serif" font-size="11.00">timestamp[19]</text>
<polygon fill="none" stroke="black" points="1467.88,-697.4 1467.88,-719.4 1641.88,-719.4 1641.88,-697.4 1467.88,-697.4"/>
<text text-anchor="start" x="1487.88" y="-703.95" font-family="Helvetica,sans-Serif" font-size="11.00">last_modified_date</text>
<polygon fill="none" stroke="black" points="1641.88,-697.4 1641.88,-719.4 1729.63,-719.4 1729.63,-697.4 1641.88,-697.4"/>
<text text-anchor="start" x="1644.88" y="-704.7" font-family="Helvetica,sans-Serif" font-size="11.00">timestamp[19]</text>
<polygon fill="#ffffff" stroke="none" points="1467.88,-675.4 1467.88,-697.4 1641.88,-697.4 1641.88,-675.4 1467.88,-675.4"/>
<polygon fill="none" stroke="black" points="1467.88,-675.4 1467.88,-697.4 1641.88,-697.4 1641.88,-675.4 1467.88,-675.4"/>
<image xlink:href="../../images/foreignKeys.png" width="11px" height="12px" preserveAspectRatio="xMinYMin meet" x="1472.88" y="-692.404"/>
<text text-anchor="start" x="1487.88" y="-681.95" font-family="Helvetica,sans-Serif" font-size="11.00">project</text>
<polygon fill="none" stroke="black" points="1641.88,-675.4 1641.88,-697.4 1729.63,-697.4 1729.63,-675.4 1641.88,-675.4"/>
<text text-anchor="start" x="1644.88" y="-682.7" font-family="Helvetica,sans-Serif" font-size="11.00">varchar[191]</text>
<polygon fill="#ffffff" stroke="none" points="1467.88,-655.9 1467.88,-675.4 1560.88,-675.4 1560.88,-655.9 1467.88,-655.9"/>
<polygon fill="none" stroke="black" points="1467.88,-655.9 1467.88,-675.4 1560.88,-675.4 1560.88,-655.9 1467.88,-655.9"/>
<text text-anchor="start" x="1470.88" y="-661.95" font-family="Helvetica,sans-Serif" font-size="11.00">&lt; 1</text>
<polygon fill="#ffffff" stroke="none" points="1560.88,-655.9 1560.88,-675.4 1641.88,-675.4 1641.88,-655.9 1560.88,-655.9"/>
<polygon fill="none" stroke="black" points="1560.88,-655.9 1560.88,-675.4 1641.88,-675.4 1641.88,-655.9 1560.88,-655.9"/>
<text text-anchor="start" x="1631.38" y="-661.95" font-family="Helvetica,sans-Serif" font-size="11.00"> &#160;</text>
<polygon fill="#ffffff" stroke="none" points="1641.88,-655.9 1641.88,-675.4 1729.63,-675.4 1729.63,-655.9 1641.88,-655.9"/>
<polygon fill="none" stroke="black" points="1641.88,-655.9 1641.88,-675.4 1729.63,-675.4 1729.63,-655.9 1641.88,-655.9"/>
<text text-anchor="start" x="1707.13" y="-661.95" font-family="Helvetica,sans-Serif" font-size="11.00">1 &gt;</text>
<polygon fill="none" stroke="black" stroke-width="2" points="1466.88,-654.9 1466.88,-985.9 1730.63,-985.9 1730.63,-654.9 1466.88,-654.9"/>
</a>
</g>
</g>
<!-- doc_physical_document&#45;&gt;train_train -->
<g id="edge11" class="edge">
<title>doc_physical_document:w&#45;&gt;train_train:e</title>
<path fill="none" stroke="black" d="M1764.65,-523.71C1699.72,-569.79 1821.24,-950.4 1730.63,-950.4"/>
<polygon fill="black" stroke="black" points="1771.65,-521.58 1780.35,-522.7 1775.8,-520.32 1778.99,-519.35 1778.99,-519.35 1778.99,-519.35 1775.8,-520.32 1778.26,-515.81 1771.65,-521.58"/>
<ellipse fill="none" stroke="black" cx="1766.95" cy="-523.01" rx="3.2" ry="3.2"/>
</g>
<!-- conf_configuration_check -->
<g id="node4" class="node">
<title>conf_configuration_check</title>
<g id="a_node4"><a xlink:href="../../tables/conf_configuration_check.html" xlink:title="conf_configuration_check" target="_top">
<polygon fill="#ffffff" stroke="none" points="9.13,-790.15 9.13,-852.65 226.88,-852.65 226.88,-790.15 9.13,-790.15"/>
<polygon fill="#f5f5f5" stroke="none" points="9.13,-829.15 9.13,-852.65 226.88,-852.65 226.88,-829.15 9.13,-829.15"/>
<polygon fill="none" stroke="black" points="9.13,-829.15 9.13,-852.65 226.88,-852.65 226.88,-829.15 9.13,-829.15"/>
<text text-anchor="start" x="14.13" y="-838.2" font-family="Helvetica,sans-Serif" font-weight="bold" font-size="11.00">conf_configuration_check</text>
<text text-anchor="start" x="185.13" y="-837.2" font-family="Helvetica,sans-Serif" font-size="11.00">[table]</text>
<polygon fill="none" stroke="black" points="9.13,-809.65 9.13,-829.15 226.88,-829.15 226.88,-809.65 9.13,-809.65"/>
<text text-anchor="start" x="12.13" y="-815.7" font-family="Helvetica,sans-Serif" font-size="11.00">...</text>
<polygon fill="#ffffff" stroke="none" points="9.13,-790.15 9.13,-809.65 85.71,-809.65 85.71,-790.15 9.13,-790.15"/>
<polygon fill="none" stroke="black" points="9.13,-790.15 9.13,-809.65 85.71,-809.65 85.71,-790.15 9.13,-790.15"/>
<text text-anchor="start" x="12.13" y="-796.2" font-family="Helvetica,sans-Serif" font-size="11.00">&lt; 1</text>
<polygon fill="#ffffff" stroke="none" points="85.71,-790.15 85.71,-809.65 150.29,-809.65 150.29,-790.15 85.71,-790.15"/>
<polygon fill="none" stroke="black" points="85.71,-790.15 85.71,-809.65 150.29,-809.65 150.29,-790.15 85.71,-790.15"/>
<text text-anchor="start" x="139.79" y="-796.2" font-family="Helvetica,sans-Serif" font-size="11.00"> &#160;</text>
<polygon fill="#ffffff" stroke="none" points="150.29,-790.15 150.29,-809.65 226.88,-809.65 226.88,-790.15 150.29,-790.15"/>
<polygon fill="none" stroke="black" points="150.29,-790.15 150.29,-809.65 226.88,-809.65 226.88,-790.15 150.29,-790.15"/>
<text text-anchor="start" x="204.38" y="-796.2" font-family="Helvetica,sans-Serif" font-size="11.00">4 &gt;</text>
</a>
</g>
</g>
<!-- conf_configuration_check&#45;&gt;lib_library -->
<g id="edge3" class="edge">
<title>conf_configuration_check:w&#45;&gt;lib_library:e</title>
<path fill="none" stroke="black" d="M0,-805.93C1.27,-799.37 5,-791.72 9.13,-786.15 72.21,-701.18 156.94,-782 234.88,-710.4 262.07,-685.42 237.01,-654.43 267.88,-634.15 313.1,-604.45 350.79,-596.47 389.63,-634.15 400.24,-644.45 405.41,-667.4 390.63,-667.4"/>
<polygon fill="black" stroke="black" points="3.82,-812.27 4.87,-820.98 6.06,-815.98 7.78,-818.83 7.78,-818.83 7.78,-818.83 6.06,-815.98 11.04,-817.26 3.82,-812.27"/>
<ellipse fill="none" stroke="black" cx="1.28" cy="-808.06" rx="3.2" ry="3.2"/>
</g>
<!-- lib_library&#45;&gt;conf_configuration_check -->
<g id="edge23" class="edge">
<title>lib_library:w&#45;&gt;conf_configuration_check:e</title>
<path fill="none" stroke="black" d="M259.58,-670.86C219.8,-693.49 292.24,-819.4 227.88,-819.4"/>
<polygon fill="black" stroke="black" points="266.75,-669.24 275.35,-670.99 270.98,-668.29 274.23,-667.55 274.23,-667.55 274.23,-667.55 270.98,-668.29 273.76,-663.97 266.75,-669.24"/>
<ellipse fill="none" stroke="black" cx="261.95" cy="-670.33" rx="3.2" ry="3.2"/>
</g>
<!-- conf_configuration_ftp -->
<g id="node6" class="node">
<title>conf_configuration_ftp</title>
<g id="a_node6"><a xlink:href="../../tables/conf_configuration_ftp.html" xlink:title="conf_configuration_ftp" target="_top">
<polygon fill="#ffffff" stroke="none" points="19.13,-638.15 19.13,-700.65 216.88,-700.65 216.88,-638.15 19.13,-638.15"/>
<polygon fill="#f5f5f5" stroke="none" points="19.13,-677.15 19.13,-700.65 216.88,-700.65 216.88,-677.15 19.13,-677.15"/>
<polygon fill="none" stroke="black" points="19.13,-677.15 19.13,-700.65 216.88,-700.65 216.88,-677.15 19.13,-677.15"/>
<text text-anchor="start" x="24.13" y="-686.2" font-family="Helvetica,sans-Serif" font-weight="bold" font-size="11.00">conf_configuration_ftp</text>
<text text-anchor="start" x="175.13" y="-685.2" font-family="Helvetica,sans-Serif" font-size="11.00">[table]</text>
<polygon fill="none" stroke="black" points="19.13,-657.65 19.13,-677.15 216.88,-677.15 216.88,-657.65 19.13,-657.65"/>
<text text-anchor="start" x="22.13" y="-663.7" font-family="Helvetica,sans-Serif" font-size="11.00">...</text>
<polygon fill="#ffffff" stroke="none" points="19.13,-638.15 19.13,-657.65 89.04,-657.65 89.04,-638.15 19.13,-638.15"/>
<polygon fill="none" stroke="black" points="19.13,-638.15 19.13,-657.65 89.04,-657.65 89.04,-638.15 19.13,-638.15"/>
<text text-anchor="start" x="22.13" y="-644.2" font-family="Helvetica,sans-Serif" font-size="11.00">&lt; 1</text>
<polygon fill="#ffffff" stroke="none" points="89.04,-638.15 89.04,-657.65 146.96,-657.65 146.96,-638.15 89.04,-638.15"/>
<polygon fill="none" stroke="black" points="89.04,-638.15 89.04,-657.65 146.96,-657.65 146.96,-638.15 89.04,-638.15"/>
<text text-anchor="start" x="136.46" y="-644.2" font-family="Helvetica,sans-Serif" font-size="11.00"> &#160;</text>
<polygon fill="#ffffff" stroke="none" points="146.96,-638.15 146.96,-657.65 216.88,-657.65 216.88,-638.15 146.96,-638.15"/>
<polygon fill="none" stroke="black" points="146.96,-638.15 146.96,-657.65 216.88,-657.65 216.88,-638.15 146.96,-638.15"/>
<text text-anchor="start" x="194.38" y="-644.2" font-family="Helvetica,sans-Serif" font-size="11.00">3 &gt;</text>
</a>
</g>
</g>
<!-- lib_library&#45;&gt;conf_configuration_ftp -->
<g id="edge25" class="edge">
<title>lib_library:w&#45;&gt;conf_configuration_ftp:e</title>
<path fill="none" stroke="black" d="M259.28,-667.4C245.36,-667.4 237.08,-667.4 217.88,-667.4"/>
<polygon fill="black" stroke="black" points="266.54,-667.4 274.54,-671 270.88,-667.4 274.21,-667.4 274.21,-667.4 274.21,-667.4 270.88,-667.4 274.54,-663.8 266.54,-667.4"/>
<ellipse fill="none" stroke="black" cx="261.62" cy="-667.4" rx="3.2" ry="3.2"/>
</g>
<!-- conf_export_ftp -->
<g id="node8" class="node">
<title>conf_export_ftp</title>
<g id="a_node8"><a xlink:href="../../tables/conf_export_ftp.html" xlink:title="conf_export_ftp" target="_top">
<polygon fill="#ffffff" stroke="none" points="42.13,-554.15 42.13,-616.65 193.88,-616.65 193.88,-554.15 42.13,-554.15"/>
<polygon fill="#f5f5f5" stroke="none" points="42.13,-593.15 42.13,-616.65 193.88,-616.65 193.88,-593.15 42.13,-593.15"/>
<polygon fill="none" stroke="black" points="42.13,-593.15 42.13,-616.65 193.88,-616.65 193.88,-593.15 42.13,-593.15"/>
<text text-anchor="start" x="47.13" y="-602.2" font-family="Helvetica,sans-Serif" font-weight="bold" font-size="11.00">conf_export_ftp</text>
<text text-anchor="start" x="152.13" y="-601.2" font-family="Helvetica,sans-Serif" font-size="11.00">[table]</text>
<polygon fill="none" stroke="black" points="42.13,-573.65 42.13,-593.15 193.88,-593.15 193.88,-573.65 42.13,-573.65"/>
<text text-anchor="start" x="45.13" y="-579.7" font-family="Helvetica,sans-Serif" font-size="11.00">...</text>
<polygon fill="#ffffff" stroke="none" points="42.13,-554.15 42.13,-573.65 96.71,-573.65 96.71,-554.15 42.13,-554.15"/>
<polygon fill="none" stroke="black" points="42.13,-554.15 42.13,-573.65 96.71,-573.65 96.71,-554.15 42.13,-554.15"/>
<text text-anchor="start" x="45.13" y="-560.2" font-family="Helvetica,sans-Serif" font-size="11.00">&lt; 1</text>
<polygon fill="#ffffff" stroke="none" points="96.71,-554.15 96.71,-573.65 139.29,-573.65 139.29,-554.15 96.71,-554.15"/>
<polygon fill="none" stroke="black" points="96.71,-554.15 96.71,-573.65 139.29,-573.65 139.29,-554.15 96.71,-554.15"/>
<text text-anchor="start" x="128.79" y="-560.2" font-family="Helvetica,sans-Serif" font-size="11.00"> &#160;</text>
<polygon fill="#ffffff" stroke="none" points="139.29,-554.15 139.29,-573.65 193.88,-573.65 193.88,-554.15 139.29,-554.15"/>
<polygon fill="none" stroke="black" points="139.29,-554.15 139.29,-573.65 193.88,-573.65 193.88,-554.15 139.29,-554.15"/>
<text text-anchor="start" x="171.38" y="-560.2" font-family="Helvetica,sans-Serif" font-size="11.00">5 &gt;</text>
</a>
</g>
</g>
<!-- lib_library&#45;&gt;conf_export_ftp -->
<g id="edge24" class="edge">
<title>lib_library:w&#45;&gt;conf_export_ftp:e</title>
<path fill="none" stroke="black" d="M259.59,-664.21C227.71,-648.87 240.39,-583.4 194.88,-583.4"/>
<polygon fill="black" stroke="black" points="266.72,-665.7 273.82,-670.86 270.96,-666.59 274.22,-667.27 274.22,-667.27 274.22,-667.27 270.96,-666.59 275.29,-663.81 266.72,-665.7"/>
<ellipse fill="none" stroke="black" cx="261.9" cy="-664.7" rx="3.2" ry="3.2"/>
</g>
<!-- conf_configuration_ftp&#45;&gt;lib_library -->
<g id="edge4" class="edge">
<title>conf_configuration_ftp:w&#45;&gt;lib_library:e</title>
<path fill="none" stroke="black" d="M9.1,-654.64C9.88,-647.61 13.82,-639.3 19.13,-634.15 26.51,-626.99 382.24,-626.99 389.63,-634.15 400.24,-644.45 405.41,-667.4 390.63,-667.4"/>
<polygon fill="black" stroke="black" points="13.32,-660.6 15,-669.21 15.82,-664.14 17.74,-666.86 17.74,-666.86 17.74,-666.86 15.82,-664.14 20.87,-665.05 13.32,-660.6"/>
<ellipse fill="none" stroke="black" cx="10.48" cy="-656.58" rx="3.2" ry="3.2"/>
</g>
<!-- conf_delivery_folder -->
<g id="node7" class="node">
<title>conf_delivery_folder</title>
<g id="a_node7"><a xlink:href="../../tables/conf_delivery_folder.html" xlink:title="conf_delivery_folder" target="_top">
<polygon fill="#ffffff" stroke="none" points="657.38,-113.15 657.38,-175.65 840.13,-175.65 840.13,-113.15 657.38,-113.15"/>
<polygon fill="#f5f5f5" stroke="none" points="657.38,-152.15 657.38,-175.65 840.13,-175.65 840.13,-152.15 657.38,-152.15"/>
<polygon fill="none" stroke="black" points="657.38,-152.15 657.38,-175.65 840.13,-175.65 840.13,-152.15 657.38,-152.15"/>
<text text-anchor="start" x="662.38" y="-161.2" font-family="Helvetica,sans-Serif" font-weight="bold" font-size="11.00">conf_delivery_folder</text>
<text text-anchor="start" x="798.38" y="-160.2" font-family="Helvetica,sans-Serif" font-size="11.00">[table]</text>
<polygon fill="none" stroke="black" points="657.38,-132.65 657.38,-152.15 840.13,-152.15 840.13,-132.65 657.38,-132.65"/>
<text text-anchor="start" x="660.38" y="-138.7" font-family="Helvetica,sans-Serif" font-size="11.00">...</text>
<polygon fill="#ffffff" stroke="none" points="657.38,-113.15 657.38,-132.65 722.29,-132.65 722.29,-113.15 657.38,-113.15"/>
<polygon fill="none" stroke="black" points="657.38,-113.15 657.38,-132.65 722.29,-132.65 722.29,-113.15 657.38,-113.15"/>
<text text-anchor="start" x="660.38" y="-119.2" font-family="Helvetica,sans-Serif" font-size="11.00">&lt; 1</text>
<polygon fill="#ffffff" stroke="none" points="722.29,-113.15 722.29,-132.65 775.21,-132.65 775.21,-113.15 722.29,-113.15"/>
<polygon fill="none" stroke="black" points="722.29,-113.15 722.29,-132.65 775.21,-132.65 775.21,-113.15 722.29,-113.15"/>
<text text-anchor="start" x="764.71" y="-119.2" font-family="Helvetica,sans-Serif" font-size="11.00"> &#160;</text>
<polygon fill="#ffffff" stroke="none" points="775.21,-113.15 775.21,-132.65 840.13,-132.65 840.13,-113.15 775.21,-113.15"/>
<polygon fill="none" stroke="black" points="775.21,-113.15 775.21,-132.65 840.13,-132.65 840.13,-113.15 775.21,-113.15"/>
<text text-anchor="start" x="817.63" y="-119.2" font-family="Helvetica,sans-Serif" font-size="11.00">3 &gt;</text>
</a>
</g>
</g>
<!-- conf_delivery_folder&#45;&gt;conf_export_ftp -->
<g id="edge5" class="edge">
<title>conf_delivery_folder:w&#45;&gt;conf_export_ftp:e</title>
<path fill="none" stroke="black" d="M640.82,-142.21C477.1,-138.22 390.82,-73.95 267.88,-189.4 138.06,-311.32 372.97,-583.4 194.88,-583.4"/>
<polygon fill="black" stroke="black" points="648.04,-142.3 656,-146 652.38,-142.36 655.71,-142.4 655.71,-142.4 655.71,-142.4 652.38,-142.36 656.09,-138.8 648.04,-142.3"/>
<ellipse fill="none" stroke="black" cx="643.13" cy="-142.24" rx="3.2" ry="3.2"/>
</g>
<!-- conf_export_ftp&#45;&gt;lib_library -->
<g id="edge6" class="edge">
<title>conf_export_ftp:w&#45;&gt;lib_library:e</title>
<path fill="none" stroke="black" d="M32.1,-570.64C32.88,-563.61 36.82,-555.3 42.13,-550.15 93.08,-500.71 134.17,-528.79 201.88,-550.15 236.04,-560.93 235.72,-580.63 267.88,-596.4 318.74,-621.35 355.34,-589.06 389.63,-634.15 398.58,-645.92 405.41,-667.4 390.63,-667.4"/>
<polygon fill="black" stroke="black" points="36.32,-576.6 38,-585.21 38.82,-580.14 40.74,-582.86 40.74,-582.86 40.74,-582.86 38.82,-580.14 43.87,-581.05 36.32,-576.6"/>
<ellipse fill="none" stroke="black" cx="33.48" cy="-572.58" rx="3.2" ry="3.2"/>
</g>
<!-- conf_omeka -->
<g id="node10" class="node">
<title>conf_omeka</title>
<g id="a_node10"><a xlink:href="../../tables/conf_omeka.html" xlink:title="conf_omeka" target="_top">
<polygon fill="#ffffff" stroke="none" points="438.63,-638.15 438.63,-700.65 565.38,-700.65 565.38,-638.15 438.63,-638.15"/>
<polygon fill="#f5f5f5" stroke="none" points="438.63,-677.15 438.63,-700.65 565.38,-700.65 565.38,-677.15 438.63,-677.15"/>
<polygon fill="none" stroke="black" points="438.63,-677.15 438.63,-700.65 565.38,-700.65 565.38,-677.15 438.63,-677.15"/>
<text text-anchor="start" x="443.63" y="-686.2" font-family="Helvetica,sans-Serif" font-weight="bold" font-size="11.00">conf_omeka</text>
<text text-anchor="start" x="523.63" y="-685.2" font-family="Helvetica,sans-Serif" font-size="11.00">[table]</text>
<polygon fill="none" stroke="black" points="438.63,-657.65 438.63,-677.15 565.38,-677.15 565.38,-657.65 438.63,-657.65"/>
<text text-anchor="start" x="441.63" y="-663.7" font-family="Helvetica,sans-Serif" font-size="11.00">...</text>
<polygon fill="#ffffff" stroke="none" points="438.63,-638.15 438.63,-657.65 484.88,-657.65 484.88,-638.15 438.63,-638.15"/>
<polygon fill="none" stroke="black" points="438.63,-638.15 438.63,-657.65 484.88,-657.65 484.88,-638.15 438.63,-638.15"/>
<text text-anchor="start" x="441.63" y="-644.2" font-family="Helvetica,sans-Serif" font-size="11.00">&lt; 1</text>
<polygon fill="#ffffff" stroke="none" points="484.88,-638.15 484.88,-657.65 519.13,-657.65 519.13,-638.15 484.88,-638.15"/>
<polygon fill="none" stroke="black" points="484.88,-638.15 484.88,-657.65 519.13,-657.65 519.13,-638.15 484.88,-638.15"/>
<text text-anchor="start" x="508.63" y="-644.2" font-family="Helvetica,sans-Serif" font-size="11.00"> &#160;</text>
<polygon fill="#ffffff" stroke="none" points="519.13,-638.15 519.13,-657.65 565.38,-657.65 565.38,-638.15 519.13,-638.15"/>
<polygon fill="none" stroke="black" points="519.13,-638.15 519.13,-657.65 565.38,-657.65 565.38,-638.15 519.13,-638.15"/>
<text text-anchor="start" x="542.88" y="-644.2" font-family="Helvetica,sans-Serif" font-size="11.00">3 &gt;</text>
</a>
</g>
</g>
<!-- conf_lists_omeka&#45;&gt;conf_omeka -->
<g id="edge7" class="edge">
<title>conf_lists_omeka:w&#45;&gt;conf_omeka:e</title>
<path fill="none" stroke="black" d="M651.55,-667.4C619.04,-667.4 605.48,-667.4 566.38,-667.4"/>
<polygon fill="black" stroke="black" points="659.04,-667.4 667.04,-671 663.38,-667.4 666.71,-667.4 666.71,-667.4 666.71,-667.4 663.38,-667.4 667.04,-663.8 659.04,-667.4"/>
<ellipse fill="none" stroke="black" cx="654.12" cy="-667.4" rx="3.2" ry="3.2"/>
</g>
<!-- conf_omeka&#45;&gt;lib_library -->
<g id="edge8" class="edge">
<title>conf_omeka:w&#45;&gt;lib_library:e</title>
<path fill="none" stroke="black" d="M422.01,-667.4C412.1,-667.4 405.15,-667.4 390.63,-667.4"/>
<polygon fill="black" stroke="black" points="429.29,-667.4 437.29,-671 433.63,-667.4 436.96,-667.4 436.96,-667.4 436.96,-667.4 433.63,-667.4 437.29,-663.8 429.29,-667.4"/>
<ellipse fill="none" stroke="black" cx="424.37" cy="-667.4" rx="3.2" ry="3.2"/>
</g>
<!-- conf_views_format_configuration -->
<g id="node11" class="node">
<title>conf_views_format_configuration</title>
<g id="a_node11"><a xlink:href="../../tables/conf_views_format_configuration.html" xlink:title="conf_views_format_configuration" target="_top">
<polygon fill="#ffffff" stroke="none" points="614.38,-391.15 614.38,-453.65 883.13,-453.65 883.13,-391.15 614.38,-391.15"/>
<polygon fill="#f5f5f5" stroke="none" points="614.38,-430.15 614.38,-453.65 883.13,-453.65 883.13,-430.15 614.38,-430.15"/>
<polygon fill="none" stroke="black" points="614.38,-430.15 614.38,-453.65 883.13,-453.65 883.13,-430.15 614.38,-430.15"/>
<text text-anchor="start" x="619.38" y="-439.2" font-family="Helvetica,sans-Serif" font-weight="bold" font-size="11.00">conf_views_format_configuration</text>
<text text-anchor="start" x="841.38" y="-438.2" font-family="Helvetica,sans-Serif" font-size="11.00">[table]</text>
<polygon fill="none" stroke="black" points="614.38,-410.65 614.38,-430.15 883.13,-430.15 883.13,-410.65 614.38,-410.65"/>
<text text-anchor="start" x="617.38" y="-416.7" font-family="Helvetica,sans-Serif" font-size="11.00">...</text>
<polygon fill="#ffffff" stroke="none" points="614.38,-391.15 614.38,-410.65 707.96,-410.65 707.96,-391.15 614.38,-391.15"/>
<polygon fill="none" stroke="black" points="614.38,-391.15 614.38,-410.65 707.96,-410.65 707.96,-391.15 614.38,-391.15"/>
<text text-anchor="start" x="617.38" y="-397.2" font-family="Helvetica,sans-Serif" font-size="11.00">&lt; 1</text>
<polygon fill="#ffffff" stroke="none" points="707.96,-391.15 707.96,-410.65 789.54,-410.65 789.54,-391.15 707.96,-391.15"/>
<polygon fill="none" stroke="black" points="707.96,-391.15 707.96,-410.65 789.54,-410.65 789.54,-391.15 707.96,-391.15"/>
<text text-anchor="start" x="779.04" y="-397.2" font-family="Helvetica,sans-Serif" font-size="11.00"> &#160;</text>
<polygon fill="#ffffff" stroke="none" points="789.54,-391.15 789.54,-410.65 883.13,-410.65 883.13,-391.15 789.54,-391.15"/>
<polygon fill="none" stroke="black" points="789.54,-391.15 789.54,-410.65 883.13,-410.65 883.13,-391.15 789.54,-391.15"/>
<text text-anchor="start" x="860.63" y="-397.2" font-family="Helvetica,sans-Serif" font-size="11.00">3 &gt;</text>
</a>
</g>
</g>
<!-- conf_views_format_configuration&#45;&gt;lib_library -->
<g id="edge9" class="edge">
<title>conf_views_format_configuration:w&#45;&gt;lib_library:e</title>
<path fill="none" stroke="black" d="M601.84,-430.7C556.82,-477.45 398.73,-667.4 390.63,-667.4"/>
<polygon fill="black" stroke="black" points="607.16,-425.95 615.53,-423.31 610.39,-423.07 612.88,-420.85 612.88,-420.85 612.88,-420.85 610.39,-423.07 610.73,-417.94 607.16,-425.95"/>
<ellipse fill="none" stroke="black" cx="603.49" cy="-429.23" rx="3.2" ry="3.2"/>
</g>
<!-- train_train&#45;&gt;proj_project -->
<g id="edge57" class="edge">
<title>train_train:w&#45;&gt;proj_project:e</title>
<path fill="none" stroke="black" d="M1452.13,-691.58C1439.49,-704.26 1448.37,-736.87 1424.88,-750.4 1329.32,-805.46 1287.41,-764.15 1177.13,-764.15"/>
<polygon fill="black" stroke="black" points="1459.01,-689.16 1467.75,-689.91 1463.1,-687.73 1466.25,-686.63 1466.25,-686.63 1466.25,-686.63 1463.1,-687.73 1465.37,-683.12 1459.01,-689.16"/>
<ellipse fill="none" stroke="black" cx="1454.37" cy="-690.79" rx="3.2" ry="3.2"/>
</g>
<!-- doc_physical_document_digital -->
<g id="node13" class="node">
<title>doc_physical_document_digital</title>
<g id="a_node13"><a xlink:href="../../tables/doc_physical_document_digital.html" xlink:title="doc_physical_document_digital" target="_top">
<polygon fill="#ffffff" stroke="none" points="2034.38,-533.15 2034.38,-595.65 2289.13,-595.65 2289.13,-533.15 2034.38,-533.15"/>
<polygon fill="#f5f5f5" stroke="none" points="2034.38,-572.15 2034.38,-595.65 2289.13,-595.65 2289.13,-572.15 2034.38,-572.15"/>
<polygon fill="none" stroke="black" points="2034.38,-572.15 2034.38,-595.65 2289.13,-595.65 2289.13,-572.15 2034.38,-572.15"/>
<text text-anchor="start" x="2039.38" y="-581.2" font-family="Helvetica,sans-Serif" font-weight="bold" font-size="11.00">doc_physical_document_digital</text>
<text text-anchor="start" x="2247.38" y="-580.2" font-family="Helvetica,sans-Serif" font-size="11.00">[table]</text>
<polygon fill="none" stroke="black" points="2034.38,-552.65 2034.38,-572.15 2289.13,-572.15 2289.13,-552.65 2034.38,-552.65"/>
<text text-anchor="start" x="2037.38" y="-558.7" font-family="Helvetica,sans-Serif" font-size="11.00">...</text>
<polygon fill="#ffffff" stroke="none" points="2034.38,-533.15 2034.38,-552.65 2127.29,-552.65 2127.29,-533.15 2034.38,-533.15"/>
<polygon fill="none" stroke="black" points="2034.38,-533.15 2034.38,-552.65 2127.29,-552.65 2127.29,-533.15 2034.38,-533.15"/>
<text text-anchor="start" x="2037.38" y="-539.2" font-family="Helvetica,sans-Serif" font-size="11.00">&lt; 2</text>
<polygon fill="#ffffff" stroke="none" points="2127.29,-533.15 2127.29,-552.65 2208.21,-552.65 2208.21,-533.15 2127.29,-533.15"/>
<polygon fill="none" stroke="black" points="2127.29,-533.15 2127.29,-552.65 2208.21,-552.65 2208.21,-533.15 2127.29,-533.15"/>
<text text-anchor="start" x="2197.71" y="-539.2" font-family="Helvetica,sans-Serif" font-size="11.00"> &#160;</text>
<polygon fill="#ffffff" stroke="none" points="2208.21,-533.15 2208.21,-552.65 2289.13,-552.65 2289.13,-533.15 2208.21,-533.15"/>
<polygon fill="none" stroke="black" points="2208.21,-533.15 2208.21,-552.65 2289.13,-552.65 2289.13,-533.15 2208.21,-533.15"/>
<text text-anchor="start" x="2278.63" y="-539.2" font-family="Helvetica,sans-Serif" font-size="11.00"> &#160;</text>
</a>
</g>
</g>
<!-- doc_physical_document_digital&#45;&gt;doc_physical_document -->
<g id="edge12" class="edge">
<title>doc_physical_document_digital:w&#45;&gt;doc_physical_document:e</title>
<path fill="none" stroke="black" d="M2017.76,-562.57C2007.85,-562.79 2000.9,-563.15 1986.38,-563.15"/>
<polygon fill="black" stroke="black" points="2025.04,-562.49 2033.08,-566.01 2029.38,-562.45 2032.71,-562.41 2032.71,-562.41 2032.71,-562.41 2029.38,-562.45 2033.01,-558.81 2025.04,-562.49"/>
<ellipse fill="none" stroke="black" cx="2020.13" cy="-562.55" rx="3.2" ry="3.2"/>
</g>
<!-- lot_lot&#45;&gt;conf_configuration_check -->
<g id="edge26" class="edge">
<title>lot_lot:w&#45;&gt;conf_configuration_check:e</title>
<path fill="none" stroke="black" d="M1262.58,-292.91C1214.84,-359.91 1225.09,-801.28 1184.13,-842.4 1045.98,-981.1 945.52,-915.4 749.75,-915.4 749.75,-915.4 749.75,-915.4 501,-915.4 372.33,-915.4 356.55,-819.4 227.88,-819.4"/>
<polygon fill="black" stroke="black" points="1268.64,-288.95 1277.31,-287.6 1272.28,-286.59 1275.07,-284.77 1275.07,-284.77 1275.07,-284.77 1272.28,-286.59 1273.38,-281.57 1268.64,-288.95"/>
<ellipse fill="none" stroke="black" cx="1264.52" cy="-291.64" rx="3.2" ry="3.2"/>
</g>
<!-- lot_lot&#45;&gt;conf_configuration_ftp -->
<g id="edge28" class="edge">
<title>lot_lot:w&#45;&gt;conf_configuration_ftp:e</title>
<path fill="none" stroke="black" d="M1260.16,-282.76C1228.29,-275.4 1223.13,-245.18 1184.13,-233.4 998.75,-177.42 943.4,-199.4 749.75,-199.4 749.75,-199.4 749.75,-199.4 501,-199.4 440.23,-199.4 278.65,-667.4 217.88,-667.4"/>
<polygon fill="black" stroke="black" points="1267.34,-283.53 1274.92,-287.95 1271.65,-283.98 1274.96,-284.33 1274.96,-284.33 1274.96,-284.33 1271.65,-283.98 1275.67,-280.79 1267.34,-283.53"/>
<ellipse fill="none" stroke="black" cx="1262.45" cy="-283.01" rx="3.2" ry="3.2"/>
</g>
<!-- lot_lot&#45;&gt;conf_delivery_folder -->
<g id="edge29" class="edge">
<title>lot_lot:w&#45;&gt;conf_delivery_folder:e</title>
<path fill="none" stroke="black" d="M1260.02,-282.4C1220.2,-270.93 1231.08,-213.26 1184.13,-189.4 1046.96,-119.7 995,-142.4 841.13,-142.4"/>
<polygon fill="black" stroke="black" points="1267.36,-283.34 1274.84,-287.93 1271.66,-283.9 1274.96,-284.32 1274.96,-284.32 1274.96,-284.32 1271.66,-283.9 1275.75,-280.79 1267.36,-283.34"/>
<ellipse fill="none" stroke="black" cx="1262.48" cy="-282.72" rx="3.2" ry="3.2"/>
</g>
<!-- lot_lot&#45;&gt;conf_export_ftp -->
<g id="edge27" class="edge">
<title>lot_lot:w&#45;&gt;conf_export_ftp:e</title>
<path fill="none" stroke="black" d="M1260.01,-282.61C1205.13,-268.44 1244.72,-173.91 1184.13,-135.4 1012.26,-26.18 419.11,15.97 267.88,-120.4 190.52,-190.16 299.04,-583.4 194.88,-583.4"/>
<polygon fill="black" stroke="black" points="1267.35,-283.45 1274.89,-287.94 1271.65,-283.95 1274.96,-284.33 1274.96,-284.33 1274.96,-284.33 1271.65,-283.95 1275.71,-280.79 1267.35,-283.45"/>
<ellipse fill="none" stroke="black" cx="1262.46" cy="-282.89" rx="3.2" ry="3.2"/>
</g>
<!-- lot_lot&#45;&gt;conf_lists_omeka -->
<g id="edge33" class="edge">
<title>lot_lot:w&#45;&gt;conf_lists_omeka:e</title>
<path fill="none" stroke="black" d="M1260.19,-286.07C1226.07,-294.2 1223.86,-329.95 1184.13,-348.4 1075.7,-398.77 1006.43,-330.69 924.13,-417.4 875.04,-469.12 918.49,-508.56 891.13,-574.4 872.16,-620.05 879.56,-667.4 830.13,-667.4"/>
<polygon fill="black" stroke="black" points="1267.34,-285.3 1275.68,-288.02 1271.65,-284.83 1274.96,-284.48 1274.96,-284.48 1274.96,-284.48 1271.65,-284.83 1274.91,-280.86 1267.34,-285.3"/>
<ellipse fill="none" stroke="black" cx="1262.45" cy="-285.83" rx="3.2" ry="3.2"/>
</g>
<!-- lot_lot&#45;&gt;conf_lists_omeka -->
<g id="edge34" class="edge">
<title>lot_lot:w&#45;&gt;conf_lists_omeka:e</title>
<path fill="none" stroke="black" d="M1259.99,-286.04C1226.63,-293.7 1222.9,-326.43 1184.13,-344.4 1074.79,-395.1 1006.07,-333.03 924.13,-421.4 876.83,-472.41 917.99,-510.24 891.13,-574.4 872.04,-620 879.56,-667.4 830.13,-667.4"/>
<polygon fill="black" stroke="black" points="1267.34,-285.27 1275.67,-288.02 1271.65,-284.82 1274.96,-284.47 1274.96,-284.47 1274.96,-284.47 1271.65,-284.82 1274.92,-280.86 1267.34,-285.27"/>
<ellipse fill="none" stroke="black" cx="1262.45" cy="-285.78" rx="3.2" ry="3.2"/>
</g>
<!-- lot_lot&#45;&gt;conf_omeka -->
<g id="edge35" class="edge">
<title>lot_lot:w&#45;&gt;conf_omeka:e</title>
<path fill="none" stroke="black" d="M1259.97,-284.9C1231.19,-286.86 1219.22,-294.1 1184.13,-298.4 1126.54,-305.46 967.86,-284.26 924.13,-322.4 875.3,-364.99 939.98,-421.84 891.13,-464.4 843.22,-506.15 654.16,-448.52 606.38,-490.4 545.73,-543.57 647.03,-667.4 566.38,-667.4"/>
<polygon fill="black" stroke="black" points="1267.3,-284.67 1275.41,-288.01 1271.63,-284.53 1274.96,-284.43 1274.96,-284.43 1274.96,-284.43 1271.63,-284.53 1275.18,-280.82 1267.3,-284.67"/>
<ellipse fill="none" stroke="black" cx="1262.38" cy="-284.83" rx="3.2" ry="3.2"/>
</g>
<!-- lot_lot&#45;&gt;conf_views_format_configuration -->
<g id="edge30" class="edge">
<title>lot_lot:w&#45;&gt;conf_views_format_configuration:e</title>
<path fill="none" stroke="black" d="M1260.03,-284.1C1172.43,-281.03 982.73,-257.09 924.13,-301.4 879.62,-335.06 939.92,-420.4 884.13,-420.4"/>
<polygon fill="black" stroke="black" points="1267.3,-284.24 1275.22,-288 1271.63,-284.33 1274.96,-284.39 1274.96,-284.39 1274.96,-284.39 1271.63,-284.33 1275.36,-280.8 1267.3,-284.24"/>
<ellipse fill="none" stroke="black" cx="1262.38" cy="-284.14" rx="3.2" ry="3.2"/>
</g>
<!-- lot_lot&#45;&gt;conf_classement_pac -->
<g id="edge31" class="edge">
<title>lot_lot:w&#45;&gt;conf_classement_pac:e</title>
<path fill="none" stroke="black" d="M1260.02,-285.68C1229.72,-291.01 1220.92,-311.73 1184.13,-321.4 1127.77,-336.22 967.63,-316.64 924.13,-355.4 878.98,-395.64 922.22,-435.54 891.13,-487.4 876.49,-511.83 872.1,-530.4 843.63,-530.4"/>
<polygon fill="black" stroke="black" points="1267.32,-285.08 1275.59,-288.02 1271.64,-284.73 1274.96,-284.46 1274.96,-284.46 1274.96,-284.46 1271.64,-284.73 1275,-280.84 1267.32,-285.08"/>
<ellipse fill="none" stroke="black" cx="1262.42" cy="-285.48" rx="3.2" ry="3.2"/>
</g>
<!-- lot_lot&#45;&gt;conf_collection_ia -->
<g id="edge32" class="edge">
<title>lot_lot:w&#45;&gt;conf_collection_ia:e</title>
<path fill="none" stroke="black" d="M1260.05,-283C1229.87,-277.16 1221.47,-254.67 1184.13,-247.4 1070.7,-225.34 1039.64,-244.27 924.13,-247.4 883.19,-248.52 873.08,-252.4 832.13,-252.4"/>
<polygon fill="black" stroke="black" points="1267.33,-283.66 1274.97,-287.96 1271.64,-284.05 1274.96,-284.34 1274.96,-284.34 1274.96,-284.34 1271.64,-284.05 1275.62,-280.79 1267.33,-283.66"/>
<ellipse fill="none" stroke="black" cx="1262.43" cy="-283.22" rx="3.2" ry="3.2"/>
</g>
<!-- lot_lot&#45;&gt;proj_project -->
<g id="edge36" class="edge">
<title>lot_lot:w&#45;&gt;proj_project:e</title>
<path fill="none" stroke="black" d="M1260.1,-286.01C1238.79,-290.96 1230.14,-307.19 1217.13,-331.4 1194.27,-373.94 1225.42,-764.15 1177.13,-764.15"/>
<polygon fill="black" stroke="black" points="1267.34,-285.26 1275.66,-288.02 1271.65,-284.81 1274.96,-284.47 1274.96,-284.47 1274.96,-284.47 1271.65,-284.81 1274.93,-280.86 1267.34,-285.26"/>
<ellipse fill="none" stroke="black" cx="1262.44" cy="-285.76" rx="3.2" ry="3.2"/>
</g>
<!-- user_user -->
<g id="node19" class="node">
<title>user_user</title>
<g id="a_node19"><a xlink:href="../../tables/user_user.html" xlink:title="user_user" target="_top">
<polygon fill="#ffffff" stroke="none" points="692.88,-775.15 692.88,-837.65 804.63,-837.65 804.63,-775.15 692.88,-775.15"/>
<polygon fill="#f5f5f5" stroke="none" points="692.88,-814.15 692.88,-837.65 804.63,-837.65 804.63,-814.15 692.88,-814.15"/>
<polygon fill="none" stroke="black" points="692.88,-814.15 692.88,-837.65 804.63,-837.65 804.63,-814.15 692.88,-814.15"/>
<text text-anchor="start" x="697.88" y="-823.2" font-family="Helvetica,sans-Serif" font-weight="bold" font-size="11.00">user_user</text>
<text text-anchor="start" x="762.88" y="-822.2" font-family="Helvetica,sans-Serif" font-size="11.00">[table]</text>
<polygon fill="none" stroke="black" points="692.88,-794.65 692.88,-814.15 804.63,-814.15 804.63,-794.65 692.88,-794.65"/>
<text text-anchor="start" x="695.88" y="-800.7" font-family="Helvetica,sans-Serif" font-size="11.00">...</text>
<polygon fill="#ffffff" stroke="none" points="692.88,-775.15 692.88,-794.65 734.13,-794.65 734.13,-775.15 692.88,-775.15"/>
<polygon fill="none" stroke="black" points="692.88,-775.15 692.88,-794.65 734.13,-794.65 734.13,-775.15 692.88,-775.15"/>
<text text-anchor="start" x="695.88" y="-781.2" font-family="Helvetica,sans-Serif" font-size="11.00">&lt; 4</text>
<polygon fill="#ffffff" stroke="none" points="734.13,-775.15 734.13,-794.65 763.38,-794.65 763.38,-775.15 734.13,-775.15"/>
<polygon fill="none" stroke="black" points="734.13,-775.15 734.13,-794.65 763.38,-794.65 763.38,-775.15 734.13,-775.15"/>
<text text-anchor="start" x="752.88" y="-781.2" font-family="Helvetica,sans-Serif" font-size="11.00"> &#160;</text>
<polygon fill="#ffffff" stroke="none" points="763.38,-775.15 763.38,-794.65 804.63,-794.65 804.63,-775.15 763.38,-775.15"/>
<polygon fill="none" stroke="black" points="763.38,-775.15 763.38,-794.65 804.63,-794.65 804.63,-775.15 763.38,-775.15"/>
<text text-anchor="start" x="782.13" y="-781.2" font-family="Helvetica,sans-Serif" font-size="11.00">4 &gt;</text>
</a>
</g>
</g>
<!-- lot_lot&#45;&gt;user_user -->
<g id="edge37" class="edge">
<title>lot_lot:w&#45;&gt;user_user:e</title>
<path fill="none" stroke="black" d="M1262.73,-293.29C1218.13,-359.51 1225.82,-774.35 1184.13,-809.4 1055.36,-917.67 973.86,-804.4 805.63,-804.4"/>
<polygon fill="black" stroke="black" points="1268.76,-289.13 1277.39,-287.56 1272.33,-286.67 1275.08,-284.78 1275.08,-284.78 1275.08,-284.78 1272.33,-286.67 1273.31,-281.63 1268.76,-289.13"/>
<ellipse fill="none" stroke="black" cx="1264.71" cy="-291.92" rx="3.2" ry="3.2"/>
</g>
<!-- workflow_model -->
<g id="node20" class="node">
<title>workflow_model</title>
<g id="a_node20"><a xlink:href="../../tables/workflow_model.html" xlink:title="workflow_model" target="_top">
<polygon fill="#ffffff" stroke="none" points="670.88,-307.15 670.88,-369.65 826.63,-369.65 826.63,-307.15 670.88,-307.15"/>
<polygon fill="#f5f5f5" stroke="none" points="670.88,-346.15 670.88,-369.65 826.63,-369.65 826.63,-346.15 670.88,-346.15"/>
<polygon fill="none" stroke="black" points="670.88,-346.15 670.88,-369.65 826.63,-369.65 826.63,-346.15 670.88,-346.15"/>
<text text-anchor="start" x="675.88" y="-355.2" font-family="Helvetica,sans-Serif" font-weight="bold" font-size="11.00">workflow_model</text>
<text text-anchor="start" x="784.88" y="-354.2" font-family="Helvetica,sans-Serif" font-size="11.00">[table]</text>
<polygon fill="none" stroke="black" points="670.88,-326.65 670.88,-346.15 826.63,-346.15 826.63,-326.65 670.88,-326.65"/>
<text text-anchor="start" x="673.88" y="-332.7" font-family="Helvetica,sans-Serif" font-size="11.00">...</text>
<polygon fill="#ffffff" stroke="none" points="670.88,-307.15 670.88,-326.65 726.79,-326.65 726.79,-307.15 670.88,-307.15"/>
<polygon fill="none" stroke="black" points="670.88,-307.15 670.88,-326.65 726.79,-326.65 726.79,-307.15 670.88,-307.15"/>
<text text-anchor="start" x="673.88" y="-313.2" font-family="Helvetica,sans-Serif" font-size="11.00">&lt; 1</text>
<polygon fill="#ffffff" stroke="none" points="726.79,-307.15 726.79,-326.65 770.71,-326.65 770.71,-307.15 726.79,-307.15"/>
<polygon fill="none" stroke="black" points="726.79,-307.15 726.79,-326.65 770.71,-326.65 770.71,-307.15 726.79,-307.15"/>
<text text-anchor="start" x="760.21" y="-313.2" font-family="Helvetica,sans-Serif" font-size="11.00"> &#160;</text>
<polygon fill="#ffffff" stroke="none" points="770.71,-307.15 770.71,-326.65 826.63,-326.65 826.63,-307.15 770.71,-307.15"/>
<polygon fill="none" stroke="black" points="770.71,-307.15 770.71,-326.65 826.63,-326.65 826.63,-307.15 770.71,-307.15"/>
<text text-anchor="start" x="804.13" y="-313.2" font-family="Helvetica,sans-Serif" font-size="11.00">4 &gt;</text>
</a>
</g>
</g>
<!-- lot_lot&#45;&gt;workflow_model -->
<g id="edge38" class="edge">
<title>lot_lot:w&#45;&gt;workflow_model:e</title>
<path fill="none" stroke="black" d="M1260.05,-283.98C1231.36,-282.33 1219.23,-276.32 1184.13,-274.4 1068.74,-268.12 1034.73,-240.92 924.13,-274.4 907.26,-279.51 905.92,-286.82 891.13,-296.4 863.14,-314.55 860.98,-336.4 827.63,-336.4"/>
<polygon fill="black" stroke="black" points="1267.3,-284.18 1275.2,-287.99 1271.63,-284.3 1274.96,-284.39 1274.96,-284.39 1274.96,-284.39 1271.63,-284.3 1275.39,-280.8 1267.3,-284.18"/>
<ellipse fill="none" stroke="black" cx="1262.38" cy="-284.04" rx="3.2" ry="3.2"/>
</g>
<!-- proj_project&#45;&gt;conf_configuration_check -->
<g id="edge39" class="edge">
<title>proj_project:w&#45;&gt;conf_configuration_check:e</title>
<path fill="none" stroke="black" d="M916.67,-703.77C907.85,-713.24 908.24,-732.17 891.13,-740.4 833.9,-767.93 669.47,-757.17 606.38,-764.4 437.5,-783.77 397.87,-819.4 227.88,-819.4"/>
<polygon fill="black" stroke="black" points="923.36,-701.17 932.12,-701.63 927.4,-699.6 930.5,-698.4 930.5,-698.4 930.5,-698.4 927.4,-699.6 929.51,-694.92 923.36,-701.17"/>
<ellipse fill="none" stroke="black" cx="918.77" cy="-702.95" rx="3.2" ry="3.2"/>
</g>
<!-- proj_project&#45;&gt;lib_library -->
<g id="edge48" class="edge">
<title>proj_project:w&#45;&gt;lib_library:e</title>
<path fill="none" stroke="black" d="M915.46,-741.76C830.28,-739.02 453.61,-722.43 430.63,-711.4 406.8,-699.98 417.06,-667.4 390.63,-667.4"/>
<polygon fill="black" stroke="black" points="922.8,-741.95 930.7,-745.74 927.13,-742.05 930.46,-742.14 930.46,-742.14 930.46,-742.14 927.13,-742.05 930.88,-738.55 922.8,-741.95"/>
<ellipse fill="none" stroke="black" cx="917.88" cy="-741.82" rx="3.2" ry="3.2"/>
</g>
<!-- proj_project&#45;&gt;conf_configuration_ftp -->
<g id="edge41" class="edge">
<title>proj_project:w&#45;&gt;conf_configuration_ftp:e</title>
<path fill="none" stroke="black" d="M915.79,-723.29C884.87,-739.78 933.96,-816.89 891.13,-848.4 789.18,-923.4 730.61,-872.55 606.38,-848.4 447.06,-817.44 405.95,-796.71 267.88,-711.4 242.7,-695.84 247.48,-667.4 217.88,-667.4"/>
<polygon fill="black" stroke="black" points="922.96,-721.82 931.52,-723.75 927.21,-720.96 930.47,-720.29 930.47,-720.29 930.47,-720.29 927.21,-720.96 930.08,-716.69 922.96,-721.82"/>
<ellipse fill="none" stroke="black" cx="918.14" cy="-722.81" rx="3.2" ry="3.2"/>
</g>
<!-- proj_project&#45;&gt;conf_delivery_folder -->
<g id="edge42" class="edge">
<title>proj_project:w&#45;&gt;conf_delivery_folder:e</title>
<path fill="none" stroke="black" d="M916.39,-472.48C879.02,-438.54 911.36,-262.35 891.13,-212.4 876.78,-176.97 879.36,-142.4 841.13,-142.4"/>
<polygon fill="black" stroke="black" points="923.35,-475.16 929.52,-481.39 927.4,-476.72 930.5,-477.91 930.5,-477.91 930.5,-477.91 927.4,-476.72 932.11,-474.67 923.35,-475.16"/>
<ellipse fill="none" stroke="black" cx="918.76" cy="-473.39" rx="3.2" ry="3.2"/>
</g>
<!-- proj_project&#45;&gt;conf_export_ftp -->
<g id="edge40" class="edge">
<title>proj_project:w&#45;&gt;conf_export_ftp:e</title>
<path fill="none" stroke="black" d="M915.49,-610.13C601,-609.3 517.04,-583.4 194.88,-583.4"/>
<polygon fill="black" stroke="black" points="922.79,-610.14 930.79,-613.75 927.13,-610.15 930.46,-610.15 930.46,-610.15 930.46,-610.15 927.13,-610.15 930.8,-606.55 922.79,-610.14"/>
<ellipse fill="none" stroke="black" cx="917.88" cy="-610.14" rx="3.2" ry="3.2"/>
</g>
<!-- proj_project&#45;&gt;conf_lists_omeka -->
<g id="edge46" class="edge">
<title>proj_project:w&#45;&gt;conf_lists_omeka:e</title>
<path fill="none" stroke="black" d="M915.65,-654.72C882.7,-657.26 869.74,-667.4 830.13,-667.4"/>
<polygon fill="black" stroke="black" points="922.8,-654.46 930.93,-657.76 927.13,-654.3 930.46,-654.18 930.46,-654.18 930.46,-654.18 927.13,-654.3 930.66,-650.57 922.8,-654.46"/>
<ellipse fill="none" stroke="black" cx="917.88" cy="-654.64" rx="3.2" ry="3.2"/>
</g>
<!-- proj_project&#45;&gt;conf_lists_omeka -->
<g id="edge47" class="edge">
<title>proj_project:w&#45;&gt;conf_lists_omeka:e</title>
<path fill="none" stroke="black" d="M915.54,-633.58C881.54,-640.17 871.91,-667.4 830.13,-667.4"/>
<polygon fill="black" stroke="black" points="922.83,-632.91 931.12,-635.77 927.14,-632.52 930.46,-632.22 930.46,-632.22 930.46,-632.22 927.14,-632.52 930.47,-628.6 922.83,-632.91"/>
<ellipse fill="none" stroke="black" cx="917.93" cy="-633.36" rx="3.2" ry="3.2"/>
</g>
<!-- proj_project&#45;&gt;conf_omeka -->
<g id="edge49" class="edge">
<title>proj_project:w&#45;&gt;conf_omeka:e</title>
<path fill="none" stroke="black" d="M916.11,-505.11C902.01,-518.66 915.73,-556.45 891.13,-574.4 787.14,-650.28 720.28,-567.42 606.38,-627.4 584.13,-639.12 591.52,-667.4 566.38,-667.4"/>
<polygon fill="black" stroke="black" points="923.21,-502.77 931.94,-503.68 927.33,-501.41 930.49,-500.36 930.49,-500.36 930.49,-500.36 927.33,-501.41 929.68,-496.84 923.21,-502.77"/>
<ellipse fill="none" stroke="black" cx="918.54" cy="-504.31" rx="3.2" ry="3.2"/>
</g>
<!-- proj_project&#45;&gt;conf_views_format_configuration -->
<g id="edge43" class="edge">
<title>proj_project:w&#45;&gt;conf_views_format_configuration:e</title>
<path fill="none" stroke="black" d="M916.22,-517.25C893.49,-496.92 927.33,-420.4 884.13,-420.4"/>
<polygon fill="black" stroke="black" points="923.21,-519.55 929.68,-525.47 927.33,-520.9 930.49,-521.95 930.49,-521.95 930.49,-521.95 927.33,-520.9 931.94,-518.63 923.21,-519.55"/>
<ellipse fill="none" stroke="black" cx="918.54" cy="-518.01" rx="3.2" ry="3.2"/>
</g>
<!-- proj_project&#45;&gt;conf_classement_pac -->
<g id="edge44" class="edge">
<title>proj_project:w&#45;&gt;conf_classement_pac:e</title>
<path fill="none" stroke="black" d="M915.48,-564.23C887.38,-556.81 879.73,-530.4 843.63,-530.4"/>
<polygon fill="black" stroke="black" points="922.86,-565.14 930.36,-569.69 927.16,-565.67 930.46,-566.07 930.46,-566.07 930.46,-566.07 927.16,-565.67 931.23,-562.54 922.86,-565.14"/>
<ellipse fill="none" stroke="black" cx="917.97" cy="-564.54" rx="3.2" ry="3.2"/>
</g>
<!-- proj_project&#45;&gt;conf_collection_ia -->
<g id="edge45" class="edge">
<title>proj_project:w&#45;&gt;conf_collection_ia:e</title>
<path fill="none" stroke="black" d="M916.34,-582.75C875.49,-547.3 921.4,-347.7 891.13,-296.4 874.5,-268.23 864.84,-252.4 832.13,-252.4"/>
<polygon fill="black" stroke="black" points="923.3,-585.3 929.58,-591.42 927.37,-586.78 930.5,-587.92 930.5,-587.92 930.5,-587.92 927.37,-586.78 932.05,-584.66 923.3,-585.3"/>
<ellipse fill="none" stroke="black" cx="918.68" cy="-583.61" rx="3.2" ry="3.2"/>
</g>
<!-- proj_project&#45;&gt;user_user -->
<g id="edge50" class="edge">
<title>proj_project:w&#45;&gt;user_user:e</title>
<path fill="none" stroke="black" d="M916.34,-679.89C897.51,-692.8 915.76,-736.1 891.13,-761.4 861.46,-791.89 848.16,-804.4 805.63,-804.4"/>
<polygon fill="black" stroke="black" points="923.05,-678.2 931.69,-679.73 927.25,-677.14 930.48,-676.32 930.48,-676.32 930.48,-676.32 927.25,-677.14 929.92,-672.75 923.05,-678.2"/>
<ellipse fill="none" stroke="black" cx="918.28" cy="-679.4" rx="3.2" ry="3.2"/>
</g>
<!-- proj_project&#45;&gt;workflow_model -->
<g id="edge51" class="edge">
<title>proj_project:w&#45;&gt;workflow_model:e</title>
<path fill="none" stroke="black" d="M915.61,-542.17C868.1,-527.69 930.09,-437.08 891.13,-380.4 871.68,-352.11 861.96,-336.4 827.63,-336.4"/>
<polygon fill="black" stroke="black" points="922.86,-543.1 930.34,-547.68 927.16,-543.65 930.46,-544.07 930.46,-544.07 930.46,-544.07 927.16,-543.65 931.25,-540.54 922.86,-543.1"/>
<ellipse fill="none" stroke="black" cx="917.98" cy="-542.48" rx="3.2" ry="3.2"/>
</g>
<!-- exc_import_report -->
<g id="node18" class="node">
<title>exc_import_report</title>
<g id="a_node18"><a xlink:href="../../tables/exc_import_report.html" xlink:title="exc_import_report" target="_top">
<polygon fill="#ffffff" stroke="none" points="1514.38,-255.15 1514.38,-317.65 1683.13,-317.65 1683.13,-255.15 1514.38,-255.15"/>
<polygon fill="#f5f5f5" stroke="none" points="1514.38,-294.15 1514.38,-317.65 1683.13,-317.65 1683.13,-294.15 1514.38,-294.15"/>
<polygon fill="none" stroke="black" points="1514.38,-294.15 1514.38,-317.65 1683.13,-317.65 1683.13,-294.15 1514.38,-294.15"/>
<text text-anchor="start" x="1519.38" y="-303.2" font-family="Helvetica,sans-Serif" font-weight="bold" font-size="11.00">exc_import_report</text>
<text text-anchor="start" x="1641.38" y="-302.2" font-family="Helvetica,sans-Serif" font-size="11.00">[table]</text>
<polygon fill="none" stroke="black" points="1514.38,-274.65 1514.38,-294.15 1683.13,-294.15 1683.13,-274.65 1514.38,-274.65"/>
<text text-anchor="start" x="1517.38" y="-280.7" font-family="Helvetica,sans-Serif" font-size="11.00">...</text>
<polygon fill="#ffffff" stroke="none" points="1514.38,-255.15 1514.38,-274.65 1574.63,-274.65 1574.63,-255.15 1514.38,-255.15"/>
<polygon fill="none" stroke="black" points="1514.38,-255.15 1514.38,-274.65 1574.63,-274.65 1574.63,-255.15 1514.38,-255.15"/>
<text text-anchor="start" x="1517.38" y="-261.2" font-family="Helvetica,sans-Serif" font-size="11.00">&lt; 7</text>
<polygon fill="#ffffff" stroke="none" points="1574.63,-255.15 1574.63,-274.65 1622.88,-274.65 1622.88,-255.15 1574.63,-255.15"/>
<polygon fill="none" stroke="black" points="1574.63,-255.15 1574.63,-274.65 1622.88,-274.65 1622.88,-255.15 1574.63,-255.15"/>
<text text-anchor="start" x="1612.38" y="-261.2" font-family="Helvetica,sans-Serif" font-size="11.00"> &#160;</text>
<polygon fill="#ffffff" stroke="none" points="1622.88,-255.15 1622.88,-274.65 1683.13,-274.65 1683.13,-255.15 1622.88,-255.15"/>
<polygon fill="none" stroke="black" points="1622.88,-255.15 1622.88,-274.65 1683.13,-274.65 1683.13,-255.15 1622.88,-255.15"/>
<text text-anchor="start" x="1660.63" y="-261.2" font-family="Helvetica,sans-Serif" font-size="11.00">3 &gt;</text>
</a>
</g>
</g>
<!-- exc_import_report&#45;&gt;lib_library -->
<g id="edge20" class="edge">
<title>exc_import_report:w&#45;&gt;lib_library:e</title>
<path fill="none" stroke="black" d="M1497.96,-282.75C1438.62,-268.41 1487.74,-164.88 1424.88,-120.4 1289.09,-24.33 1221.47,-62.4 1055.13,-62.4 1055.13,-62.4 1055.13,-62.4 747.75,-62.4 604.55,-62.4 525.43,-12.08 430.63,-119.4 390.21,-165.16 451.68,-667.4 390.63,-667.4"/>
<polygon fill="black" stroke="black" points="1505.09,-283.51 1512.66,-287.95 1509.4,-283.98 1512.71,-284.33 1512.71,-284.33 1512.71,-284.33 1509.4,-283.98 1513.43,-280.79 1505.09,-283.51"/>
<ellipse fill="none" stroke="black" cx="1500.2" cy="-282.99" rx="3.2" ry="3.2"/>
</g>
<!-- exc_import_report&#45;&gt;lot_lot -->
<g id="edge21" class="edge">
<title>exc_import_report:w&#45;&gt;lot_lot:e</title>
<path fill="none" stroke="black" d="M1497.56,-284.4C1444.88,-284.4 1426.1,-284.4 1366.38,-284.4"/>
<polygon fill="black" stroke="black" points="1505.04,-284.4 1513.04,-288 1509.38,-284.4 1512.71,-284.4 1512.71,-284.4 1512.71,-284.4 1509.38,-284.4 1513.04,-280.8 1505.04,-284.4"/>
<ellipse fill="none" stroke="black" cx="1500.12" cy="-284.4" rx="3.2" ry="3.2"/>
</g>
<!-- exc_import_report&#45;&gt;proj_project -->
<g id="edge22" class="edge">
<title>exc_import_report:w&#45;&gt;proj_project:e</title>
<path fill="none" stroke="black" d="M1498.85,-289.88C1438.89,-318.48 1226.51,-450.05 1217.13,-464.4 1180.37,-520.66 1244.33,-764.15 1177.13,-764.15"/>
<polygon fill="black" stroke="black" points="1505.58,-287.34 1514.33,-287.89 1509.63,-285.81 1512.75,-284.64 1512.75,-284.64 1512.75,-284.64 1509.63,-285.81 1511.8,-281.15 1505.58,-287.34"/>
<ellipse fill="none" stroke="black" cx="1500.98" cy="-289.08" rx="3.2" ry="3.2"/>
</g>
<!-- user_user&#45;&gt;lib_library -->
<g id="edge58" class="edge">
<title>user_user:w&#45;&gt;lib_library:e</title>
<path fill="none" stroke="black" d="M676.12,-804.41C567.51,-804.48 522.22,-803.63 430.63,-734.4 402.96,-713.49 425.31,-667.4 390.63,-667.4"/>
<polygon fill="black" stroke="black" points="683.54,-804.41 691.55,-808 687.88,-804.41 691.21,-804.4 691.21,-804.4 691.21,-804.4 687.88,-804.41 691.54,-800.8 683.54,-804.41"/>
<ellipse fill="none" stroke="black" cx="678.63" cy="-804.41" rx="3.2" ry="3.2"/>
</g>
<!-- workflow_model&#45;&gt;lib_library -->
<g id="edge59" class="edge">
<title>workflow_model:w&#45;&gt;lib_library:e</title>
<path fill="none" stroke="black" d="M654.06,-336.6C545.02,-339.33 499.14,-371.82 430.63,-464.4 375.93,-538.32 482.58,-667.4 390.63,-667.4"/>
<polygon fill="black" stroke="black" points="661.54,-336.51 669.59,-340.01 665.88,-336.45 669.21,-336.41 669.21,-336.41 669.21,-336.41 665.88,-336.45 669.5,-332.81 661.54,-336.51"/>
<ellipse fill="none" stroke="black" cx="656.63" cy="-336.56" rx="3.2" ry="3.2"/>
</g>
<!-- proj_project_library -->
<g id="node21" class="node">
<title>proj_project_library</title>
<g id="a_node21"><a xlink:href="../../tables/proj_project_library.html" xlink:title="proj_project_library" target="_top">
<polygon fill="#ffffff" stroke="none" points="1232.13,-942.15 1232.13,-1004.65 1409.88,-1004.65 1409.88,-942.15 1232.13,-942.15"/>
<polygon fill="#f5f5f5" stroke="none" points="1232.13,-981.15 1232.13,-1004.65 1409.88,-1004.65 1409.88,-981.15 1232.13,-981.15"/>
<polygon fill="none" stroke="black" points="1232.13,-981.15 1232.13,-1004.65 1409.88,-1004.65 1409.88,-981.15 1232.13,-981.15"/>
<text text-anchor="start" x="1237.13" y="-990.2" font-family="Helvetica,sans-Serif" font-weight="bold" font-size="11.00">proj_project_library</text>
<text text-anchor="start" x="1368.13" y="-989.2" font-family="Helvetica,sans-Serif" font-size="11.00">[table]</text>
<polygon fill="none" stroke="black" points="1232.13,-961.65 1232.13,-981.15 1409.88,-981.15 1409.88,-961.65 1232.13,-961.65"/>
<text text-anchor="start" x="1235.13" y="-967.7" font-family="Helvetica,sans-Serif" font-size="11.00">...</text>
<polygon fill="#ffffff" stroke="none" points="1232.13,-942.15 1232.13,-961.65 1299.38,-961.65 1299.38,-942.15 1232.13,-942.15"/>
<polygon fill="none" stroke="black" points="1232.13,-942.15 1232.13,-961.65 1299.38,-961.65 1299.38,-942.15 1232.13,-942.15"/>
<text text-anchor="start" x="1235.13" y="-948.2" font-family="Helvetica,sans-Serif" font-size="11.00">&lt; 2</text>
<polygon fill="#ffffff" stroke="none" points="1299.38,-942.15 1299.38,-961.65 1354.63,-961.65 1354.63,-942.15 1299.38,-942.15"/>
<polygon fill="none" stroke="black" points="1299.38,-942.15 1299.38,-961.65 1354.63,-961.65 1354.63,-942.15 1299.38,-942.15"/>
<text text-anchor="start" x="1344.13" y="-948.2" font-family="Helvetica,sans-Serif" font-size="11.00"> &#160;</text>
<polygon fill="#ffffff" stroke="none" points="1354.63,-942.15 1354.63,-961.65 1409.88,-961.65 1409.88,-942.15 1354.63,-942.15"/>
<polygon fill="none" stroke="black" points="1354.63,-942.15 1354.63,-961.65 1409.88,-961.65 1409.88,-942.15 1354.63,-942.15"/>
<text text-anchor="start" x="1399.38" y="-948.2" font-family="Helvetica,sans-Serif" font-size="11.00"> &#160;</text>
</a>
</g>
</g>
<!-- proj_project_library&#45;&gt;lib_library -->
<g id="edge52" class="edge">
<title>proj_project_library:w&#45;&gt;lib_library:e</title>
<path fill="none" stroke="black" d="M1215.59,-971.36C945.45,-969.82 872.59,-927.6 606.38,-848.4 525.63,-824.38 489.14,-838.01 430.63,-777.4 394.5,-739.98 442.65,-667.4 390.63,-667.4"/>
<polygon fill="black" stroke="black" points="1222.79,-971.38 1230.78,-975 1227.13,-971.39 1230.46,-971.4 1230.46,-971.4 1230.46,-971.4 1227.13,-971.39 1230.8,-967.8 1222.79,-971.38"/>
<ellipse fill="none" stroke="black" cx="1217.88" cy="-971.37" rx="3.2" ry="3.2"/>
</g>
<!-- proj_project_library&#45;&gt;proj_project -->
<g id="edge53" class="edge">
<title>proj_project_library:w&#45;&gt;proj_project:e</title>
<path fill="none" stroke="black" d="M1215.48,-968.93C1152.56,-945.55 1266.18,-764.15 1177.13,-764.15"/>
<polygon fill="black" stroke="black" points="1222.9,-970.1 1230.24,-974.91 1227.18,-970.78 1230.47,-971.3 1230.47,-971.3 1230.47,-971.3 1227.18,-970.78 1231.36,-967.8 1222.9,-970.1"/>
<ellipse fill="none" stroke="black" cx="1218.04" cy="-969.34" rx="3.2" ry="3.2"/>
</g>
<!-- proj_project_platform -->
<g id="node22" class="node">
<title>proj_project_platform</title>
<g id="a_node22"><a xlink:href="../../tables/proj_project_platform.html" xlink:title="proj_project_platform" target="_top">
<polygon fill="#ffffff" stroke="none" points="1225.13,-677.15 1225.13,-739.65 1416.88,-739.65 1416.88,-677.15 1225.13,-677.15"/>
<polygon fill="#f5f5f5" stroke="none" points="1225.13,-716.15 1225.13,-739.65 1416.88,-739.65 1416.88,-716.15 1225.13,-716.15"/>
<polygon fill="none" stroke="black" points="1225.13,-716.15 1225.13,-739.65 1416.88,-739.65 1416.88,-716.15 1225.13,-716.15"/>
<text text-anchor="start" x="1230.13" y="-725.2" font-family="Helvetica,sans-Serif" font-weight="bold" font-size="11.00">proj_project_platform</text>
<text text-anchor="start" x="1375.13" y="-724.2" font-family="Helvetica,sans-Serif" font-size="11.00">[table]</text>
<polygon fill="none" stroke="black" points="1225.13,-696.65 1225.13,-716.15 1416.88,-716.15 1416.88,-696.65 1225.13,-696.65"/>
<text text-anchor="start" x="1228.13" y="-702.7" font-family="Helvetica,sans-Serif" font-size="11.00">...</text>
<polygon fill="#ffffff" stroke="none" points="1225.13,-677.15 1225.13,-696.65 1297.04,-696.65 1297.04,-677.15 1225.13,-677.15"/>
<polygon fill="none" stroke="black" points="1225.13,-677.15 1225.13,-696.65 1297.04,-696.65 1297.04,-677.15 1225.13,-677.15"/>
<text text-anchor="start" x="1228.13" y="-683.2" font-family="Helvetica,sans-Serif" font-size="11.00">&lt; 2</text>
<polygon fill="#ffffff" stroke="none" points="1297.04,-677.15 1297.04,-696.65 1356.96,-696.65 1356.96,-677.15 1297.04,-677.15"/>
<polygon fill="none" stroke="black" points="1297.04,-677.15 1297.04,-696.65 1356.96,-696.65 1356.96,-677.15 1297.04,-677.15"/>
<text text-anchor="start" x="1346.46" y="-683.2" font-family="Helvetica,sans-Serif" font-size="11.00"> &#160;</text>
<polygon fill="#ffffff" stroke="none" points="1356.96,-677.15 1356.96,-696.65 1416.88,-696.65 1416.88,-677.15 1356.96,-677.15"/>
<polygon fill="none" stroke="black" points="1356.96,-677.15 1356.96,-696.65 1416.88,-696.65 1416.88,-677.15 1356.96,-677.15"/>
<text text-anchor="start" x="1406.38" y="-683.2" font-family="Helvetica,sans-Serif" font-size="11.00"> &#160;</text>
</a>
</g>
</g>
<!-- proj_project_platform&#45;&gt;proj_project -->
<g id="edge54" class="edge">
<title>proj_project_platform:w&#45;&gt;proj_project:e</title>
<path fill="none" stroke="black" d="M1209.56,-712.58C1196.67,-727.48 1203.5,-764.15 1177.13,-764.15"/>
<polygon fill="black" stroke="black" points="1216.46,-709.66 1225.23,-709.85 1220.45,-707.97 1223.51,-706.67 1223.51,-706.67 1223.51,-706.67 1220.45,-707.97 1222.41,-703.22 1216.46,-709.66"/>
<ellipse fill="none" stroke="black" cx="1211.93" cy="-711.58" rx="3.2" ry="3.2"/>
</g>
<!-- proj_project_user -->
<g id="node23" class="node">
<title>proj_project_user</title>
<g id="a_node23"><a xlink:href="../../tables/proj_project_user.html" xlink:title="proj_project_user" target="_top">
<polygon fill="#ffffff" stroke="none" points="1239.63,-858.15 1239.63,-920.65 1402.38,-920.65 1402.38,-858.15 1239.63,-858.15"/>
<polygon fill="#f5f5f5" stroke="none" points="1239.63,-897.15 1239.63,-920.65 1402.38,-920.65 1402.38,-897.15 1239.63,-897.15"/>
<polygon fill="none" stroke="black" points="1239.63,-897.15 1239.63,-920.65 1402.38,-920.65 1402.38,-897.15 1239.63,-897.15"/>
<text text-anchor="start" x="1244.63" y="-906.2" font-family="Helvetica,sans-Serif" font-weight="bold" font-size="11.00">proj_project_user</text>
<text text-anchor="start" x="1360.63" y="-905.2" font-family="Helvetica,sans-Serif" font-size="11.00">[table]</text>
<polygon fill="none" stroke="black" points="1239.63,-877.65 1239.63,-897.15 1402.38,-897.15 1402.38,-877.65 1239.63,-877.65"/>
<text text-anchor="start" x="1242.63" y="-883.7" font-family="Helvetica,sans-Serif" font-size="11.00">...</text>
<polygon fill="#ffffff" stroke="none" points="1239.63,-858.15 1239.63,-877.65 1301.88,-877.65 1301.88,-858.15 1239.63,-858.15"/>
<polygon fill="none" stroke="black" points="1239.63,-858.15 1239.63,-877.65 1301.88,-877.65 1301.88,-858.15 1239.63,-858.15"/>
<text text-anchor="start" x="1242.63" y="-864.2" font-family="Helvetica,sans-Serif" font-size="11.00">&lt; 2</text>
<polygon fill="#ffffff" stroke="none" points="1301.88,-858.15 1301.88,-877.65 1352.13,-877.65 1352.13,-858.15 1301.88,-858.15"/>
<polygon fill="none" stroke="black" points="1301.88,-858.15 1301.88,-877.65 1352.13,-877.65 1352.13,-858.15 1301.88,-858.15"/>
<text text-anchor="start" x="1341.63" y="-864.2" font-family="Helvetica,sans-Serif" font-size="11.00"> &#160;</text>
<polygon fill="#ffffff" stroke="none" points="1352.13,-858.15 1352.13,-877.65 1402.38,-877.65 1402.38,-858.15 1352.13,-858.15"/>
<polygon fill="none" stroke="black" points="1352.13,-858.15 1352.13,-877.65 1402.38,-877.65 1402.38,-858.15 1352.13,-858.15"/>
<text text-anchor="start" x="1391.88" y="-864.2" font-family="Helvetica,sans-Serif" font-size="11.00"> &#160;</text>
</a>
</g>
</g>
<!-- proj_project_user&#45;&gt;proj_project -->
<g id="edge56" class="edge">
<title>proj_project_user:w&#45;&gt;proj_project:e</title>
<path fill="none" stroke="black" d="M1223.5,-883.85C1188.53,-863.64 1232.13,-764.15 1177.13,-764.15"/>
<polygon fill="black" stroke="black" points="1230.51,-885.5 1237.48,-890.83 1234.73,-886.49 1237.98,-887.25 1237.98,-887.25 1237.98,-887.25 1234.73,-886.49 1239.13,-883.82 1230.51,-885.5"/>
<ellipse fill="none" stroke="black" cx="1225.73" cy="-884.37" rx="3.2" ry="3.2"/>
</g>
<!-- proj_project_user&#45;&gt;user_user -->
<g id="edge55" class="edge">
<title>proj_project_user:w&#45;&gt;user_user:e</title>
<path fill="none" stroke="black" d="M1223.06,-887.5C1095.48,-889.07 1053.41,-908.96 924.13,-871.4 866.03,-854.53 866.13,-804.4 805.63,-804.4"/>
<polygon fill="black" stroke="black" points="1230.29,-887.46 1238.32,-891.01 1234.63,-887.43 1237.96,-887.41 1237.96,-887.41 1237.96,-887.41 1234.63,-887.43 1238.27,-883.81 1230.29,-887.46"/>
<ellipse fill="none" stroke="black" cx="1225.38" cy="-887.49" rx="3.2" ry="3.2"/>
</g>
</g>
</svg>
