<?xml version="1.0" encoding="UTF-8" standalone="no"?>
<!DOCTYPE svg PUBLIC "-//W3C//DTD SVG 1.1//EN"
 "http://www.w3.org/Graphics/SVG/1.1/DTD/svg11.dtd">
<!-- Generated by graphviz version 12.2.0 (0)
 -->
<!-- Title: twoDegreesRelationshipsDiagram Pages: 1 -->
<svg width="542pt" height="401pt"
 viewBox="0.00 0.00 541.50 401.25" xmlns="http://www.w3.org/2000/svg" xmlns:xlink="http://www.w3.org/1999/xlink">
<g id="graph0" class="graph" transform="scale(1 1) rotate(0) translate(4 397.25)">
<title>twoDegreesRelationshipsDiagram</title>
<polygon fill="#ffffff" stroke="none" points="-4,4 -4,-397.25 537.5,-397.25 537.5,4 -4,4"/>
<text text-anchor="middle" x="79.25" y="-7.05" font-family="Helvetica,sans-Serif" font-size="11.00">Generated by SchemaSpy</text>
<!-- user_role_authorization -->
<g id="node1" class="node">
<title>user_role_authorization</title>
<g id="a_node1"><a xlink:href="../../tables/user_role_authorization.html" xlink:title="user_role_authorization" target="_top">
<polygon fill="#ffffff" stroke="none" points="319.75,-168.25 319.75,-255.25 525.5,-255.25 525.5,-168.25 319.75,-168.25"/>
<polygon fill="#f5f5f5" stroke="none" points="319.75,-231.75 319.75,-255.25 525.5,-255.25 525.5,-231.75 319.75,-231.75"/>
<polygon fill="none" stroke="black" points="319.75,-231.75 319.75,-255.25 525.5,-255.25 525.5,-231.75 319.75,-231.75"/>
<text text-anchor="start" x="324.75" y="-240.8" font-family="Helvetica,sans-Serif" font-weight="bold" font-size="11.00">user_role_authorization</text>
<text text-anchor="start" x="483.75" y="-239.8" font-family="Helvetica,sans-Serif" font-size="11.00">[table]</text>
<polygon fill="none" stroke="black" points="319.75,-209.75 319.75,-231.75 525.5,-231.75 525.5,-209.75 319.75,-209.75"/>
<image xlink:href="../../images/primaryKeys.png" width="11px" height="12px" preserveAspectRatio="xMinYMin meet" x="324.75" y="-226.75"/>
<text text-anchor="start" x="352.62" y="-216.3" font-family="Helvetica,sans-Serif" font-size="11.00">user_authorization</text>
<polygon fill="none" stroke="black" points="319.75,-187.75 319.75,-209.75 525.5,-209.75 525.5,-187.75 319.75,-187.75"/>
<image xlink:href="../../images/primaryKeys.png" width="11px" height="12px" preserveAspectRatio="xMinYMin meet" x="324.75" y="-204.75"/>
<text text-anchor="start" x="352.62" y="-194.3" font-family="Helvetica,sans-Serif" font-size="11.00">role</text>
<polygon fill="#ffffff" stroke="none" points="319.75,-168.25 319.75,-187.75 396.33,-187.75 396.33,-168.25 319.75,-168.25"/>
<polygon fill="none" stroke="black" points="319.75,-168.25 319.75,-187.75 396.33,-187.75 396.33,-168.25 319.75,-168.25"/>
<text text-anchor="start" x="322.75" y="-174.3" font-family="Helvetica,sans-Serif" font-size="11.00">&lt; 2</text>
<polygon fill="#ffffff" stroke="none" points="396.33,-168.25 396.33,-187.75 460.92,-187.75 460.92,-168.25 396.33,-168.25"/>
<polygon fill="none" stroke="black" points="396.33,-168.25 396.33,-187.75 460.92,-187.75 460.92,-168.25 396.33,-168.25"/>
<text text-anchor="start" x="450.42" y="-174.3" font-family="Helvetica,sans-Serif" font-size="11.00"> &#160;</text>
<polygon fill="#ffffff" stroke="none" points="460.92,-168.25 460.92,-187.75 525.5,-187.75 525.5,-168.25 460.92,-168.25"/>
<polygon fill="none" stroke="black" points="460.92,-168.25 460.92,-187.75 525.5,-187.75 525.5,-168.25 460.92,-168.25"/>
<text text-anchor="start" x="515" y="-174.3" font-family="Helvetica,sans-Serif" font-size="11.00"> &#160;</text>
</a>
</g>
</g>
<!-- user_role -->
<g id="node2" class="node">
<title>user_role</title>
<g id="a_node2"><a xlink:href="../../tables/user_role.html" xlink:title="user_role" target="_top">
<polygon fill="#ffffff" stroke="none" points="85,-38.5 85,-101 193.75,-101 193.75,-38.5 85,-38.5"/>
<polygon fill="#f5f5f5" stroke="none" points="85,-77.5 85,-101 193.75,-101 193.75,-77.5 85,-77.5"/>
<polygon fill="none" stroke="black" points="85,-77.5 85,-101 193.75,-101 193.75,-77.5 85,-77.5"/>
<text text-anchor="start" x="90" y="-86.55" font-family="Helvetica,sans-Serif" font-weight="bold" font-size="11.00">user_role</text>
<text text-anchor="start" x="152" y="-85.55" font-family="Helvetica,sans-Serif" font-size="11.00">[table]</text>
<polygon fill="none" stroke="black" points="85,-58 85,-77.5 193.75,-77.5 193.75,-58 85,-58"/>
<text text-anchor="start" x="88" y="-64.05" font-family="Helvetica,sans-Serif" font-size="11.00">...</text>
<polygon fill="#ffffff" stroke="none" points="85,-38.5 85,-58 117.25,-58 117.25,-38.5 85,-38.5"/>
<polygon fill="none" stroke="black" points="85,-38.5 85,-58 117.25,-58 117.25,-38.5 85,-38.5"/>
<text text-anchor="start" x="88" y="-44.55" font-family="Helvetica,sans-Serif" font-size="11.00"> &#160;</text>
<polygon fill="#ffffff" stroke="none" points="117.25,-38.5 117.25,-58 149.5,-58 149.5,-38.5 117.25,-38.5"/>
<polygon fill="none" stroke="black" points="117.25,-38.5 117.25,-58 149.5,-58 149.5,-38.5 117.25,-38.5"/>
<text text-anchor="start" x="139" y="-44.55" font-family="Helvetica,sans-Serif" font-size="11.00"> &#160;</text>
<polygon fill="#ffffff" stroke="none" points="149.5,-38.5 149.5,-58 193.75,-58 193.75,-38.5 149.5,-38.5"/>
<polygon fill="none" stroke="black" points="149.5,-38.5 149.5,-58 193.75,-58 193.75,-38.5 149.5,-38.5"/>
<text text-anchor="start" x="171.25" y="-44.55" font-family="Helvetica,sans-Serif" font-size="11.00">3 &gt;</text>
</a>
</g>
</g>
<!-- user_role_authorization&#45;&gt;user_role -->
<g id="edge1" class="edge">
<title>user_role_authorization:w&#45;&gt;user_role:e</title>
<path fill="none" stroke="black" d="M303.47,-194.76C284.83,-181.42 303.36,-137.67 278.75,-111.75 249.73,-81.19 236.89,-67.75 194.75,-67.75"/>
<polygon fill="black" stroke="black" points="310.69,-196.65 317.52,-202.15 314.88,-197.74 318.1,-198.58 318.1,-198.58 318.1,-198.58 314.88,-197.74 319.34,-195.18 310.69,-196.65"/>
<ellipse fill="none" stroke="black" cx="305.93" cy="-195.4" rx="3.2" ry="3.2"/>
</g>
<!-- user_authorization -->
<g id="node3" class="node">
<title>user_authorization</title>
<g id="a_node3"><a xlink:href="../../tables/user_authorization.html" xlink:title="user_authorization" target="_top">
<polygon fill="#ffffff" stroke="none" points="8,-122.25 8,-389.25 270.75,-389.25 270.75,-122.25 8,-122.25"/>
<polygon fill="#f5f5f5" stroke="none" points="10,-363.75 10,-387.25 268.75,-387.25 268.75,-363.75 10,-363.75"/>
<polygon fill="none" stroke="black" points="10,-363.75 10,-387.25 268.75,-387.25 268.75,-363.75 10,-363.75"/>
<text text-anchor="start" x="15" y="-372.8" font-family="Helvetica,sans-Serif" font-weight="bold" font-size="11.00">user_authorization</text>
<text text-anchor="start" x="227" y="-371.8" font-family="Helvetica,sans-Serif" font-size="11.00">[table]</text>
<polygon fill="none" stroke="black" points="10,-341.75 10,-363.75 158,-363.75 158,-341.75 10,-341.75"/>
<image xlink:href="../../images/primaryKeys.png" width="11px" height="12px" preserveAspectRatio="xMinYMin meet" x="15" y="-358.75"/>
<text text-anchor="start" x="30" y="-348.3" font-family="Helvetica,sans-Serif" font-size="11.00">identifier</text>
<polygon fill="none" stroke="black" points="158,-341.75 158,-363.75 257.25,-363.75 257.25,-341.75 158,-341.75"/>
<text text-anchor="start" x="161" y="-349.05" font-family="Helvetica,sans-Serif" font-size="11.00">varchar[191]</text>
<polygon fill="#ffffff" stroke="none" points="10,-319.75 10,-341.75 158,-341.75 158,-319.75 10,-319.75"/>
<polygon fill="none" stroke="black" points="10,-319.75 10,-341.75 158,-341.75 158,-319.75 10,-319.75"/>
<text text-anchor="start" x="30" y="-326.3" font-family="Helvetica,sans-Serif" font-size="11.00">code</text>
<polygon fill="none" stroke="black" points="158,-319.75 158,-341.75 257.25,-341.75 257.25,-319.75 158,-319.75"/>
<text text-anchor="start" x="161" y="-327.05" font-family="Helvetica,sans-Serif" font-size="11.00">varchar[191]</text>
<polygon fill="#ffffff" stroke="none" points="10,-297.75 10,-319.75 158,-319.75 158,-297.75 10,-297.75"/>
<polygon fill="none" stroke="black" points="10,-297.75 10,-319.75 158,-319.75 158,-297.75 10,-297.75"/>
<text text-anchor="start" x="30" y="-304.3" font-family="Helvetica,sans-Serif" font-size="11.00">label</text>
<polygon fill="none" stroke="black" points="158,-297.75 158,-319.75 257.25,-319.75 257.25,-297.75 158,-297.75"/>
<text text-anchor="start" x="161" y="-305.05" font-family="Helvetica,sans-Serif" font-size="11.00">varchar[191]</text>
<polygon fill="none" stroke="black" points="10,-275.75 10,-297.75 158,-297.75 158,-275.75 10,-275.75"/>
<text text-anchor="start" x="30" y="-282.3" font-family="Helvetica,sans-Serif" font-size="11.00">description</text>
<polygon fill="none" stroke="black" points="158,-275.75 158,-297.75 257.25,-297.75 257.25,-275.75 158,-275.75"/>
<text text-anchor="start" x="161" y="-283.05" font-family="Helvetica,sans-Serif" font-size="11.00">varchar[2000]</text>
<polygon fill="none" stroke="black" points="10,-253.75 10,-275.75 158,-275.75 158,-253.75 10,-253.75"/>
<text text-anchor="start" x="30" y="-260.3" font-family="Helvetica,sans-Serif" font-size="11.00">module</text>
<polygon fill="none" stroke="black" points="158,-253.75 158,-275.75 257.25,-275.75 257.25,-253.75 158,-253.75"/>
<text text-anchor="start" x="161" y="-261.05" font-family="Helvetica,sans-Serif" font-size="11.00">varchar[255]</text>
<polygon fill="none" stroke="black" points="10,-231.75 10,-253.75 158,-253.75 158,-231.75 10,-231.75"/>
<text text-anchor="start" x="30" y="-238.3" font-family="Helvetica,sans-Serif" font-size="11.00">version</text>
<polygon fill="none" stroke="black" points="158,-231.75 158,-253.75 257.25,-253.75 257.25,-231.75 158,-231.75"/>
<text text-anchor="start" x="161" y="-239.05" font-family="Helvetica,sans-Serif" font-size="11.00">bigint[19]</text>
<polygon fill="none" stroke="black" points="10,-209.75 10,-231.75 158,-231.75 158,-209.75 10,-209.75"/>
<text text-anchor="start" x="30" y="-216.3" font-family="Helvetica,sans-Serif" font-size="11.00">created_by</text>
<polygon fill="none" stroke="black" points="158,-209.75 158,-231.75 257.25,-231.75 257.25,-209.75 158,-209.75"/>
<text text-anchor="start" x="161" y="-217.05" font-family="Helvetica,sans-Serif" font-size="11.00">varchar[191]</text>
<polygon fill="none" stroke="black" points="10,-187.75 10,-209.75 158,-209.75 158,-187.75 10,-187.75"/>
<text text-anchor="start" x="30" y="-194.3" font-family="Helvetica,sans-Serif" font-size="11.00">last_modified_by</text>
<polygon fill="none" stroke="black" points="158,-187.75 158,-209.75 257.25,-209.75 257.25,-187.75 158,-187.75"/>
<text text-anchor="start" x="161" y="-195.05" font-family="Helvetica,sans-Serif" font-size="11.00">varchar[191]</text>
<polygon fill="none" stroke="black" points="10,-165.75 10,-187.75 158,-187.75 158,-165.75 10,-165.75"/>
<text text-anchor="start" x="30" y="-172.3" font-family="Helvetica,sans-Serif" font-size="11.00">created_date</text>
<polygon fill="none" stroke="black" points="158,-165.75 158,-187.75 257.25,-187.75 257.25,-165.75 158,-165.75"/>
<text text-anchor="start" x="161" y="-173.05" font-family="Helvetica,sans-Serif" font-size="11.00">timestamp[19]</text>
<polygon fill="none" stroke="black" points="10,-143.75 10,-165.75 158,-165.75 158,-143.75 10,-143.75"/>
<text text-anchor="start" x="30" y="-150.3" font-family="Helvetica,sans-Serif" font-size="11.00">last_modified_date</text>
<polygon fill="none" stroke="black" points="158,-143.75 158,-165.75 257.25,-165.75 257.25,-143.75 158,-143.75"/>
<text text-anchor="start" x="161" y="-151.05" font-family="Helvetica,sans-Serif" font-size="11.00">timestamp[19]</text>
<polygon fill="#ffffff" stroke="none" points="10,-124.25 10,-143.75 90,-143.75 90,-124.25 10,-124.25"/>
<polygon fill="none" stroke="black" points="10,-124.25 10,-143.75 90,-143.75 90,-124.25 10,-124.25"/>
<text text-anchor="start" x="13" y="-130.3" font-family="Helvetica,sans-Serif" font-size="11.00">&lt; 0</text>
<polygon fill="#ffffff" stroke="none" points="90,-124.25 90,-143.75 158,-143.75 158,-124.25 90,-124.25"/>
<polygon fill="none" stroke="black" points="90,-124.25 90,-143.75 158,-143.75 158,-124.25 90,-124.25"/>
<text text-anchor="start" x="147.5" y="-130.3" font-family="Helvetica,sans-Serif" font-size="11.00"> &#160;</text>
<polygon fill="#ffffff" stroke="none" points="158,-124.25 158,-143.75 257.25,-143.75 257.25,-124.25 158,-124.25"/>
<polygon fill="none" stroke="black" points="158,-124.25 158,-143.75 257.25,-143.75 257.25,-124.25 158,-124.25"/>
<text text-anchor="start" x="234.75" y="-130.3" font-family="Helvetica,sans-Serif" font-size="11.00">1 &gt;</text>
<polygon fill="none" stroke="black" stroke-width="2" points="9,-123.25 9,-388.25 269.75,-388.25 269.75,-123.25 9,-123.25"/>
</a>
</g>
</g>
<!-- user_role_authorization&#45;&gt;user_authorization -->
<g id="edge2" class="edge">
<title>user_role_authorization:w&#45;&gt;user_authorization:e</title>
<path fill="none" stroke="black" d="M303.4,-224.28C266.34,-245.27 316.48,-352.75 258.25,-352.75"/>
<polygon fill="black" stroke="black" points="310.63,-222.62 319.23,-224.33 314.85,-221.65 318.1,-220.9 318.1,-220.9 318.1,-220.9 314.85,-221.65 317.62,-217.32 310.63,-222.62"/>
<ellipse fill="none" stroke="black" cx="305.83" cy="-223.72" rx="3.2" ry="3.2"/>
</g>
</g>
</svg>
