<?xml version="1.0" encoding="UTF-8" standalone="no"?>
<!DOCTYPE svg PUBLIC "-//W3C//DTD SVG 1.1//EN"
 "http://www.w3.org/Graphics/SVG/1.1/DTD/svg11.dtd">
<!-- Generated by graphviz version 12.2.1 (0)
 -->
<!-- Title: oneDegreeRelationshipsDiagram Pages: 1 -->
<svg width="357pt" height="384pt"
 viewBox="0.00 0.00 357.00 383.50" xmlns="http://www.w3.org/2000/svg" xmlns:xlink="http://www.w3.org/1999/xlink">
<g id="graph0" class="graph" transform="scale(1 1) rotate(0) translate(4 379.5)">
<title>oneDegreeRelationshipsDiagram</title>
<polygon fill="#ffffff" stroke="none" points="-4,4 -4,-379.5 353,-379.5 353,4 -4,4"/>
<text text-anchor="middle" x="79.25" y="-7.05" font-family="Helvetica,sans-Serif" font-size="11.00">Generated by SchemaSpy</text>
<!-- aud_exc_mapping_rule -->
<g id="node1" class="node">
<title>aud_exc_mapping_rule</title>
<g id="a_node1"><a xlink:href="../../tables/aud_exc_mapping_rule.html" xlink:title="aud_exc_mapping_rule" target="_top">
<polygon fill="#ffffff" stroke="none" points="8,-38.5 8,-371.5 341,-371.5 341,-38.5 8,-38.5"/>
<polygon fill="#f5f5f5" stroke="none" points="10,-346 10,-369.5 339,-369.5 339,-346 10,-346"/>
<polygon fill="none" stroke="black" points="10,-346 10,-369.5 339,-369.5 339,-346 10,-346"/>
<text text-anchor="start" x="15" y="-355.05" font-family="Helvetica,sans-Serif" font-weight="bold" font-size="11.00">aud_exc_mapping_rule</text>
<text text-anchor="start" x="297.25" y="-354.05" font-family="Helvetica,sans-Serif" font-size="11.00">[table]</text>
<polygon fill="none" stroke="black" points="10,-324 10,-346 195,-346 195,-324 10,-324"/>
<image xlink:href="../../images/primaryKeys.png" width="11px" height="12px" preserveAspectRatio="xMinYMin meet" x="15" y="-341"/>
<text text-anchor="start" x="30" y="-330.55" font-family="Helvetica,sans-Serif" font-size="11.00">identifier</text>
<polygon fill="none" stroke="black" points="195,-324 195,-346 305.62,-346 305.62,-324 195,-324"/>
<text text-anchor="start" x="198" y="-331.3" font-family="Helvetica,sans-Serif" font-size="11.00">varchar[191]</text>
<polygon fill="none" stroke="black" points="10,-302 10,-324 195,-324 195,-302 10,-302"/>
<image xlink:href="../../images/primaryKeys.png" width="11px" height="12px" preserveAspectRatio="xMinYMin meet" x="15" y="-319"/>
<text text-anchor="start" x="30" y="-308.55" font-family="Helvetica,sans-Serif" font-size="11.00">rev</text>
<polygon fill="none" stroke="black" points="195,-302 195,-324 305.62,-324 305.62,-302 195,-302"/>
<text text-anchor="start" x="198" y="-309.3" font-family="Helvetica,sans-Serif" font-size="11.00">int[10]</text>
<polygon fill="none" stroke="black" points="10,-280 10,-302 195,-302 195,-280 10,-280"/>
<text text-anchor="start" x="30" y="-286.55" font-family="Helvetica,sans-Serif" font-size="11.00">revtype</text>
<polygon fill="none" stroke="black" points="195,-280 195,-302 305.62,-302 305.62,-280 195,-280"/>
<text text-anchor="start" x="198" y="-287.3" font-family="Helvetica,sans-Serif" font-size="11.00">tinyint[3]</text>
<polygon fill="none" stroke="black" points="10,-258 10,-280 195,-280 195,-258 10,-258"/>
<text text-anchor="start" x="30" y="-264.55" font-family="Helvetica,sans-Serif" font-size="11.00">doc_unit_field</text>
<polygon fill="none" stroke="black" points="195,-258 195,-280 305.62,-280 305.62,-258 195,-258"/>
<text text-anchor="start" x="198" y="-265.3" font-family="Helvetica,sans-Serif" font-size="11.00">varchar[255]</text>
<polygon fill="none" stroke="black" points="10,-236 10,-258 195,-258 195,-236 10,-236"/>
<text text-anchor="start" x="30" y="-242.55" font-family="Helvetica,sans-Serif" font-size="11.00">bib_record_field</text>
<polygon fill="none" stroke="black" points="195,-236 195,-258 305.62,-258 305.62,-236 195,-236"/>
<text text-anchor="start" x="198" y="-243.3" font-family="Helvetica,sans-Serif" font-size="11.00">varchar[255]</text>
<polygon fill="none" stroke="black" points="10,-214 10,-236 195,-236 195,-214 10,-214"/>
<text text-anchor="start" x="30" y="-220.55" font-family="Helvetica,sans-Serif" font-size="11.00">property</text>
<polygon fill="none" stroke="black" points="195,-214 195,-236 305.62,-236 305.62,-214 195,-214"/>
<text text-anchor="start" x="198" y="-221.3" font-family="Helvetica,sans-Serif" font-size="11.00">varchar[191]</text>
<polygon fill="none" stroke="black" points="10,-192 10,-214 195,-214 195,-192 10,-192"/>
<text text-anchor="start" x="30" y="-198.55" font-family="Helvetica,sans-Serif" font-size="11.00">expression</text>
<polygon fill="none" stroke="black" points="195,-192 195,-214 305.62,-214 305.62,-192 195,-192"/>
<text text-anchor="start" x="198" y="-199.3" font-family="Helvetica,sans-Serif" font-size="11.00">text[65535]</text>
<polygon fill="none" stroke="black" points="10,-170 10,-192 195,-192 195,-170 10,-170"/>
<text text-anchor="start" x="30" y="-176.55" font-family="Helvetica,sans-Serif" font-size="11.00">expression_conf</text>
<polygon fill="none" stroke="black" points="195,-170 195,-192 305.62,-192 305.62,-170 195,-170"/>
<text text-anchor="start" x="198" y="-177.3" font-family="Helvetica,sans-Serif" font-size="11.00">text[65535]</text>
<polygon fill="none" stroke="black" points="10,-148 10,-170 195,-170 195,-148 10,-148"/>
<text text-anchor="start" x="30" y="-154.55" font-family="Helvetica,sans-Serif" font-size="11.00">apply_if</text>
<polygon fill="none" stroke="black" points="195,-148 195,-170 305.62,-170 305.62,-148 195,-148"/>
<text text-anchor="start" x="198" y="-155.3" font-family="Helvetica,sans-Serif" font-size="11.00">text[65535]</text>
<polygon fill="none" stroke="black" points="10,-126 10,-148 195,-148 195,-126 10,-126"/>
<text text-anchor="start" x="30" y="-132.55" font-family="Helvetica,sans-Serif" font-size="11.00">apply_if_conf</text>
<polygon fill="none" stroke="black" points="195,-126 195,-148 305.62,-148 305.62,-126 195,-126"/>
<text text-anchor="start" x="198" y="-133.3" font-family="Helvetica,sans-Serif" font-size="11.00">text[65535]</text>
<polygon fill="none" stroke="black" points="10,-104 10,-126 195,-126 195,-104 10,-104"/>
<text text-anchor="start" x="30" y="-110.55" font-family="Helvetica,sans-Serif" font-size="11.00">mapping</text>
<polygon fill="none" stroke="black" points="195,-104 195,-126 305.62,-126 305.62,-104 195,-104"/>
<text text-anchor="start" x="198" y="-111.3" font-family="Helvetica,sans-Serif" font-size="11.00">varchar[191]</text>
<polygon fill="none" stroke="black" points="10,-82 10,-104 195,-104 195,-82 10,-82"/>
<text text-anchor="start" x="30" y="-88.55" font-family="Helvetica,sans-Serif" font-size="11.00">position</text>
<polygon fill="none" stroke="black" points="195,-82 195,-104 305.62,-104 305.62,-82 195,-82"/>
<text text-anchor="start" x="198" y="-89.3" font-family="Helvetica,sans-Serif" font-size="11.00">int[10]</text>
<polygon fill="none" stroke="black" points="10,-60 10,-82 195,-82 195,-60 10,-60"/>
<text text-anchor="start" x="30" y="-66.55" font-family="Helvetica,sans-Serif" font-size="11.00">default_rule</text>
<polygon fill="none" stroke="black" points="195,-60 195,-82 305.62,-82 305.62,-60 195,-60"/>
<text text-anchor="start" x="198" y="-67.3" font-family="Helvetica,sans-Serif" font-size="11.00">bit[1]</text>
<polygon fill="#ffffff" stroke="none" points="10,-40.5 10,-60 339,-60 339,-40.5 10,-40.5"/>
<polygon fill="none" stroke="black" points="10,-40.5 10,-60 339,-60 339,-40.5 10,-40.5"/>
<polygon fill="#ffffff" stroke="none" points="11,-41.5 11,-59 124,-59 124,-41.5 11,-41.5"/>
<text text-anchor="start" x="13" y="-46.55" font-family="Helvetica,sans-Serif" font-size="11.00">&lt; 0</text>
<polygon fill="#ffffff" stroke="none" points="124,-41.5 124,-59 225,-59 225,-41.5 124,-41.5"/>
<text text-anchor="start" x="170.75" y="-46.55" font-family="Helvetica,sans-Serif" font-size="11.00"> &#160;</text>
<polygon fill="#ffffff" stroke="none" points="225,-41.5 225,-59 338,-59 338,-41.5 225,-41.5"/>
<text text-anchor="start" x="316.5" y="-46.55" font-family="Helvetica,sans-Serif" font-size="11.00">0 &gt;</text>
<polygon fill="black" stroke="black" points="124,-41.5 124,-59 124,-59 124,-41.5 124,-41.5"/>
<polygon fill="black" stroke="black" points="225,-41.5 225,-59 225,-59 225,-41.5 225,-41.5"/>
<polygon fill="none" stroke="black" stroke-width="2" points="9,-39.5 9,-370.5 340,-370.5 340,-39.5 9,-39.5"/>
</a>
</g>
</g>
</g>
</svg>
