<?xml version="1.0" encoding="UTF-8" standalone="no"?>
<!DOCTYPE svg PUBLIC "-//W3C//DTD SVG 1.1//EN"
 "http://www.w3.org/Graphics/SVG/1.1/DTD/svg11.dtd">
<!-- Generated by graphviz version 12.2.1 (0)
 -->
<!-- Title: oneDegreeRelationshipsDiagram Pages: 1 -->
<svg width="649pt" height="489pt"
 viewBox="0.00 0.00 648.50 489.25" xmlns="http://www.w3.org/2000/svg" xmlns:xlink="http://www.w3.org/1999/xlink">
<g id="graph0" class="graph" transform="scale(1 1) rotate(0) translate(4 485.25)">
<title>oneDegreeRelationshipsDiagram</title>
<polygon fill="#ffffff" stroke="none" points="-4,4 -4,-485.25 644.5,-485.25 644.5,4 -4,4"/>
<text text-anchor="middle" x="79.25" y="-7.05" font-family="Helvetica,sans-Serif" font-size="11.00">Generated by SchemaSpy</text>
<!-- check_automatic_result -->
<g id="node1" class="node">
<title>check_automatic_result</title>
<g id="a_node1"><a xlink:href="../../tables/check_automatic_result.html" xlink:title="check_automatic_result" target="_top">
<polygon fill="#ffffff" stroke="none" points="402.75,-260.75 402.75,-477.25 620.5,-477.25 620.5,-260.75 402.75,-260.75"/>
<polygon fill="#f5f5f5" stroke="none" points="402.75,-453.75 402.75,-477.25 620.5,-477.25 620.5,-453.75 402.75,-453.75"/>
<polygon fill="none" stroke="black" points="402.75,-453.75 402.75,-477.25 620.5,-477.25 620.5,-453.75 402.75,-453.75"/>
<text text-anchor="start" x="407.75" y="-462.8" font-family="Helvetica,sans-Serif" font-weight="bold" font-size="11.00">check_automatic_result</text>
<text text-anchor="start" x="578.75" y="-461.8" font-family="Helvetica,sans-Serif" font-size="11.00">[table]</text>
<polygon fill="none" stroke="black" points="402.75,-431.75 402.75,-453.75 620.5,-453.75 620.5,-431.75 402.75,-431.75"/>
<image xlink:href="../../images/primaryKeys.png" width="11px" height="12px" preserveAspectRatio="xMinYMin meet" x="407.75" y="-448.75"/>
<text text-anchor="start" x="435.62" y="-438.3" font-family="Helvetica,sans-Serif" font-size="11.00">identifier</text>
<polygon fill="#ffffff" stroke="none" points="402.75,-409.75 402.75,-431.75 620.5,-431.75 620.5,-409.75 402.75,-409.75"/>
<polygon fill="none" stroke="black" points="402.75,-409.75 402.75,-431.75 620.5,-431.75 620.5,-409.75 402.75,-409.75"/>
<image xlink:href="../../images/foreignKeys.png" width="11px" height="12px" preserveAspectRatio="xMinYMin meet" x="407.75" y="-426.75"/>
<text text-anchor="start" x="435.62" y="-416.3" font-family="Helvetica,sans-Serif" font-size="11.00">check_type</text>
<polygon fill="#ffffff" stroke="none" points="402.75,-387.75 402.75,-409.75 620.5,-409.75 620.5,-387.75 402.75,-387.75"/>
<polygon fill="none" stroke="black" points="402.75,-387.75 402.75,-409.75 620.5,-409.75 620.5,-387.75 402.75,-387.75"/>
<image xlink:href="../../images/foreignKeys.png" width="11px" height="12px" preserveAspectRatio="xMinYMin meet" x="407.75" y="-404.75"/>
<text text-anchor="start" x="435.62" y="-394.3" font-family="Helvetica,sans-Serif" font-size="11.00">digital_document</text>
<polygon fill="#ffffff" stroke="none" points="402.75,-365.75 402.75,-387.75 620.5,-387.75 620.5,-365.75 402.75,-365.75"/>
<polygon fill="none" stroke="black" points="402.75,-365.75 402.75,-387.75 620.5,-387.75 620.5,-365.75 402.75,-365.75"/>
<image xlink:href="../../images/foreignKeys.png" width="11px" height="12px" preserveAspectRatio="xMinYMin meet" x="407.75" y="-382.75"/>
<text text-anchor="start" x="435.62" y="-372.3" font-family="Helvetica,sans-Serif" font-size="11.00">doc_unit</text>
<polygon fill="#ffffff" stroke="none" points="402.75,-343.75 402.75,-365.75 620.5,-365.75 620.5,-343.75 402.75,-343.75"/>
<polygon fill="none" stroke="black" points="402.75,-343.75 402.75,-365.75 620.5,-365.75 620.5,-343.75 402.75,-343.75"/>
<image xlink:href="../../images/foreignKeys.png" width="11px" height="12px" preserveAspectRatio="xMinYMin meet" x="407.75" y="-360.75"/>
<text text-anchor="start" x="435.62" y="-350.3" font-family="Helvetica,sans-Serif" font-size="11.00">page</text>
<polygon fill="#ffffff" stroke="none" points="402.75,-321.75 402.75,-343.75 620.5,-343.75 620.5,-321.75 402.75,-321.75"/>
<polygon fill="none" stroke="black" points="402.75,-321.75 402.75,-343.75 620.5,-343.75 620.5,-321.75 402.75,-321.75"/>
<image xlink:href="../../images/foreignKeys.png" width="11px" height="12px" preserveAspectRatio="xMinYMin meet" x="407.75" y="-338.75"/>
<text text-anchor="start" x="435.62" y="-328.3" font-family="Helvetica,sans-Serif" font-size="11.00">delivery</text>
<polygon fill="#ffffff" stroke="none" points="402.75,-299.75 402.75,-321.75 620.5,-321.75 620.5,-299.75 402.75,-299.75"/>
<polygon fill="none" stroke="black" points="402.75,-299.75 402.75,-321.75 620.5,-321.75 620.5,-299.75 402.75,-299.75"/>
<image xlink:href="../../images/foreignKeys.png" width="11px" height="12px" preserveAspectRatio="xMinYMin meet" x="407.75" y="-316.75"/>
<text text-anchor="start" x="435.62" y="-306.3" font-family="Helvetica,sans-Serif" font-size="11.00">physical_document</text>
<polygon fill="none" stroke="black" points="402.75,-280.25 402.75,-299.75 620.5,-299.75 620.5,-280.25 402.75,-280.25"/>
<text text-anchor="start" x="405.75" y="-286.3" font-family="Helvetica,sans-Serif" font-size="11.00">...</text>
<polygon fill="#ffffff" stroke="none" points="402.75,-260.75 402.75,-280.25 620.5,-280.25 620.5,-260.75 402.75,-260.75"/>
<polygon fill="none" stroke="black" points="402.75,-260.75 402.75,-280.25 620.5,-280.25 620.5,-260.75 402.75,-260.75"/>
<polygon fill="#ffffff" stroke="none" points="403.75,-261.75 403.75,-279.25 483.67,-279.25 483.67,-261.75 403.75,-261.75"/>
<text text-anchor="start" x="405.75" y="-266.8" font-family="Helvetica,sans-Serif" font-size="11.00">&lt; 6</text>
<polygon fill="#ffffff" stroke="none" points="483.67,-261.75 483.67,-279.25 551.58,-279.25 551.58,-261.75 483.67,-261.75"/>
<text text-anchor="start" x="513.88" y="-266.8" font-family="Helvetica,sans-Serif" font-size="11.00"> &#160;</text>
<polygon fill="#ffffff" stroke="none" points="551.58,-261.75 551.58,-279.25 619.5,-279.25 619.5,-261.75 551.58,-261.75"/>
<text text-anchor="start" x="610" y="-266.8" font-family="Helvetica,sans-Serif" font-size="11.00"> &#160;</text>
<polygon fill="black" stroke="black" points="483.67,-261.75 483.67,-279.25 483.67,-279.25 483.67,-261.75 483.67,-261.75"/>
<polygon fill="black" stroke="black" points="551.58,-261.75 551.58,-279.25 551.58,-279.25 551.58,-261.75 551.58,-261.75"/>
</a>
</g>
</g>
<!-- check_automatic_type -->
<g id="node2" class="node">
<title>check_automatic_type</title>
<g id="a_node2"><a xlink:href="../../tables/check_automatic_type.html" xlink:title="check_automatic_type" target="_top">
<polygon fill="#ffffff" stroke="none" points="8,-38.5 8,-327.5 341.75,-327.5 341.75,-38.5 8,-38.5"/>
<polygon fill="#f5f5f5" stroke="none" points="10,-302 10,-325.5 339.75,-325.5 339.75,-302 10,-302"/>
<polygon fill="none" stroke="black" points="10,-302 10,-325.5 339.75,-325.5 339.75,-302 10,-302"/>
<text text-anchor="start" x="15" y="-311.05" font-family="Helvetica,sans-Serif" font-weight="bold" font-size="11.00">check_automatic_type</text>
<text text-anchor="start" x="298" y="-310.05" font-family="Helvetica,sans-Serif" font-size="11.00">[table]</text>
<polygon fill="none" stroke="black" points="10,-280 10,-302 192,-302 192,-280 10,-280"/>
<image xlink:href="../../images/primaryKeys.png" width="11px" height="12px" preserveAspectRatio="xMinYMin meet" x="15" y="-297"/>
<text text-anchor="start" x="30" y="-286.55" font-family="Helvetica,sans-Serif" font-size="11.00">identifier</text>
<polygon fill="none" stroke="black" points="192,-280 192,-302 309.75,-302 309.75,-280 192,-280"/>
<text text-anchor="start" x="195" y="-287.3" font-family="Helvetica,sans-Serif" font-size="11.00">varchar[191]</text>
<polygon fill="none" stroke="black" points="10,-258 10,-280 192,-280 192,-258 10,-258"/>
<text text-anchor="start" x="30" y="-264.55" font-family="Helvetica,sans-Serif" font-size="11.00">label</text>
<polygon fill="none" stroke="black" points="192,-258 192,-280 309.75,-280 309.75,-258 192,-258"/>
<text text-anchor="start" x="195" y="-265.3" font-family="Helvetica,sans-Serif" font-size="11.00">varchar[255]</text>
<polygon fill="none" stroke="black" points="10,-236 10,-258 192,-258 192,-236 10,-236"/>
<text text-anchor="start" x="30" y="-242.55" font-family="Helvetica,sans-Serif" font-size="11.00">type</text>
<polygon fill="none" stroke="black" points="192,-236 192,-258 309.75,-258 309.75,-236 192,-236"/>
<text text-anchor="start" x="195" y="-243.3" font-family="Helvetica,sans-Serif" font-size="11.00">varchar[255]</text>
<polygon fill="none" stroke="black" points="10,-214 10,-236 192,-236 192,-214 10,-214"/>
<text text-anchor="start" x="30" y="-220.55" font-family="Helvetica,sans-Serif" font-size="11.00">active</text>
<polygon fill="none" stroke="black" points="192,-214 192,-236 309.75,-236 309.75,-214 192,-214"/>
<text text-anchor="start" x="195" y="-221.3" font-family="Helvetica,sans-Serif" font-size="11.00">bit[1]</text>
<polygon fill="none" stroke="black" points="10,-192 10,-214 192,-214 192,-192 10,-192"/>
<text text-anchor="start" x="30" y="-198.55" font-family="Helvetica,sans-Serif" font-size="11.00">version</text>
<polygon fill="none" stroke="black" points="192,-192 192,-214 309.75,-214 309.75,-192 192,-192"/>
<text text-anchor="start" x="195" y="-199.3" font-family="Helvetica,sans-Serif" font-size="11.00">bigint[19]</text>
<polygon fill="none" stroke="black" points="10,-170 10,-192 192,-192 192,-170 10,-170"/>
<text text-anchor="start" x="30" y="-176.55" font-family="Helvetica,sans-Serif" font-size="11.00">created_by</text>
<polygon fill="none" stroke="black" points="192,-170 192,-192 309.75,-192 309.75,-170 192,-170"/>
<text text-anchor="start" x="195" y="-177.3" font-family="Helvetica,sans-Serif" font-size="11.00">varchar[191]</text>
<polygon fill="none" stroke="black" points="10,-148 10,-170 192,-170 192,-148 10,-148"/>
<text text-anchor="start" x="30" y="-154.55" font-family="Helvetica,sans-Serif" font-size="11.00">last_modified_by</text>
<polygon fill="none" stroke="black" points="192,-148 192,-170 309.75,-170 309.75,-148 192,-148"/>
<text text-anchor="start" x="195" y="-155.3" font-family="Helvetica,sans-Serif" font-size="11.00">varchar[191]</text>
<polygon fill="none" stroke="black" points="10,-126 10,-148 192,-148 192,-126 10,-126"/>
<text text-anchor="start" x="30" y="-132.55" font-family="Helvetica,sans-Serif" font-size="11.00">created_date</text>
<polygon fill="none" stroke="black" points="192,-126 192,-148 309.75,-148 309.75,-126 192,-126"/>
<text text-anchor="start" x="195" y="-133.3" font-family="Helvetica,sans-Serif" font-size="11.00">timestamp[19]</text>
<polygon fill="none" stroke="black" points="10,-104 10,-126 192,-126 192,-104 10,-104"/>
<text text-anchor="start" x="30" y="-110.55" font-family="Helvetica,sans-Serif" font-size="11.00">last_modified_date</text>
<polygon fill="none" stroke="black" points="192,-104 192,-126 309.75,-126 309.75,-104 192,-104"/>
<text text-anchor="start" x="195" y="-111.3" font-family="Helvetica,sans-Serif" font-size="11.00">timestamp[19]</text>
<polygon fill="none" stroke="black" points="10,-82 10,-104 192,-104 192,-82 10,-82"/>
<text text-anchor="start" x="30" y="-88.55" font-family="Helvetica,sans-Serif" font-size="11.00">configurable</text>
<polygon fill="none" stroke="black" points="192,-82 192,-104 309.75,-104 309.75,-82 192,-82"/>
<text text-anchor="start" x="195" y="-89.3" font-family="Helvetica,sans-Serif" font-size="11.00">bit[1]</text>
<polygon fill="none" stroke="black" points="10,-60 10,-82 192,-82 192,-60 10,-60"/>
<text text-anchor="start" x="30" y="-66.55" font-family="Helvetica,sans-Serif" font-size="11.00">order</text>
<polygon fill="none" stroke="black" points="192,-60 192,-82 309.75,-82 309.75,-60 192,-60"/>
<text text-anchor="start" x="195" y="-67.3" font-family="Helvetica,sans-Serif" font-size="11.00">int[10]</text>
<polygon fill="#ffffff" stroke="none" points="10,-40.5 10,-60 339.75,-60 339.75,-40.5 10,-40.5"/>
<polygon fill="none" stroke="black" points="10,-40.5 10,-60 339.75,-60 339.75,-40.5 10,-40.5"/>
<polygon fill="#ffffff" stroke="none" points="11,-41.5 11,-59 124.25,-59 124.25,-41.5 11,-41.5"/>
<text text-anchor="start" x="13" y="-46.55" font-family="Helvetica,sans-Serif" font-size="11.00">&lt; 0</text>
<polygon fill="#ffffff" stroke="none" points="124.25,-41.5 124.25,-59 225.5,-59 225.5,-41.5 124.25,-41.5"/>
<text text-anchor="start" x="171.12" y="-46.55" font-family="Helvetica,sans-Serif" font-size="11.00"> &#160;</text>
<polygon fill="#ffffff" stroke="none" points="225.5,-41.5 225.5,-59 338.75,-59 338.75,-41.5 225.5,-41.5"/>
<text text-anchor="start" x="317.25" y="-46.55" font-family="Helvetica,sans-Serif" font-size="11.00">2 &gt;</text>
<polygon fill="black" stroke="black" points="124.25,-41.5 124.25,-59 124.25,-59 124.25,-41.5 124.25,-41.5"/>
<polygon fill="black" stroke="black" points="225.5,-41.5 225.5,-59 225.5,-59 225.5,-41.5 225.5,-41.5"/>
<polygon fill="none" stroke="black" stroke-width="2" points="9,-39.5 9,-326.5 340.75,-326.5 340.75,-39.5 9,-39.5"/>
</a>
</g>
</g>
<!-- check_automatic_result&#45;&gt;check_automatic_type -->
<g id="edge1" class="edge">
<title>check_automatic_result:w&#45;&gt;check_automatic_type:e</title>
<path fill="none" stroke="black" d="M386.41,-418.16C338.84,-399.87 375.27,-291 310.75,-291"/>
<polygon fill="black" stroke="black" points="393.53,-419.36 400.82,-424.24 397.81,-420.08 401.09,-420.64 401.09,-420.64 401.09,-420.64 397.81,-420.08 402.02,-417.14 393.53,-419.36"/>
<ellipse fill="none" stroke="black" cx="388.68" cy="-418.54" rx="3.2" ry="3.2"/>
</g>
<!-- conf_automatic_check_rule -->
<g id="node3" class="node">
<title>conf_automatic_check_rule</title>
<g id="a_node3"><a xlink:href="../../tables/conf_automatic_check_rule.html" xlink:title="conf_automatic_check_rule" target="_top">
<polygon fill="#ffffff" stroke="none" points="390.75,-110.75 390.75,-239.25 632.5,-239.25 632.5,-110.75 390.75,-110.75"/>
<polygon fill="#f5f5f5" stroke="none" points="390.75,-215.75 390.75,-239.25 632.5,-239.25 632.5,-215.75 390.75,-215.75"/>
<polygon fill="none" stroke="black" points="390.75,-215.75 390.75,-239.25 632.5,-239.25 632.5,-215.75 390.75,-215.75"/>
<text text-anchor="start" x="395.75" y="-224.8" font-family="Helvetica,sans-Serif" font-weight="bold" font-size="11.00">conf_automatic_check_rule</text>
<text text-anchor="start" x="590.75" y="-223.8" font-family="Helvetica,sans-Serif" font-size="11.00">[table]</text>
<polygon fill="none" stroke="black" points="390.75,-193.75 390.75,-215.75 632.5,-215.75 632.5,-193.75 390.75,-193.75"/>
<image xlink:href="../../images/primaryKeys.png" width="11px" height="12px" preserveAspectRatio="xMinYMin meet" x="395.75" y="-210.75"/>
<text text-anchor="start" x="423.62" y="-200.3" font-family="Helvetica,sans-Serif" font-size="11.00">identifier</text>
<polygon fill="#ffffff" stroke="none" points="390.75,-171.75 390.75,-193.75 632.5,-193.75 632.5,-171.75 390.75,-171.75"/>
<polygon fill="none" stroke="black" points="390.75,-171.75 390.75,-193.75 632.5,-193.75 632.5,-171.75 390.75,-171.75"/>
<image xlink:href="../../images/foreignKeys.png" width="11px" height="12px" preserveAspectRatio="xMinYMin meet" x="395.75" y="-188.75"/>
<text text-anchor="start" x="423.62" y="-178.3" font-family="Helvetica,sans-Serif" font-size="11.00">check_configuration</text>
<polygon fill="#ffffff" stroke="none" points="390.75,-149.75 390.75,-171.75 632.5,-171.75 632.5,-149.75 390.75,-149.75"/>
<polygon fill="none" stroke="black" points="390.75,-149.75 390.75,-171.75 632.5,-171.75 632.5,-149.75 390.75,-149.75"/>
<image xlink:href="../../images/foreignKeys.png" width="11px" height="12px" preserveAspectRatio="xMinYMin meet" x="395.75" y="-166.75"/>
<text text-anchor="start" x="423.62" y="-156.3" font-family="Helvetica,sans-Serif" font-size="11.00">check_type</text>
<polygon fill="none" stroke="black" points="390.75,-130.25 390.75,-149.75 632.5,-149.75 632.5,-130.25 390.75,-130.25"/>
<text text-anchor="start" x="393.75" y="-136.3" font-family="Helvetica,sans-Serif" font-size="11.00">...</text>
<polygon fill="#ffffff" stroke="none" points="390.75,-110.75 390.75,-130.25 632.5,-130.25 632.5,-110.75 390.75,-110.75"/>
<polygon fill="none" stroke="black" points="390.75,-110.75 390.75,-130.25 632.5,-130.25 632.5,-110.75 390.75,-110.75"/>
<polygon fill="#ffffff" stroke="none" points="391.75,-111.75 391.75,-129.25 479.67,-129.25 479.67,-111.75 391.75,-111.75"/>
<text text-anchor="start" x="393.75" y="-116.8" font-family="Helvetica,sans-Serif" font-size="11.00">&lt; 2</text>
<polygon fill="#ffffff" stroke="none" points="479.67,-111.75 479.67,-129.25 555.58,-129.25 555.58,-111.75 479.67,-111.75"/>
<text text-anchor="start" x="513.88" y="-116.8" font-family="Helvetica,sans-Serif" font-size="11.00"> &#160;</text>
<polygon fill="#ffffff" stroke="none" points="555.58,-111.75 555.58,-129.25 631.5,-129.25 631.5,-111.75 555.58,-111.75"/>
<text text-anchor="start" x="622" y="-116.8" font-family="Helvetica,sans-Serif" font-size="11.00"> &#160;</text>
<polygon fill="black" stroke="black" points="479.67,-111.75 479.67,-129.25 479.67,-129.25 479.67,-111.75 479.67,-111.75"/>
<polygon fill="black" stroke="black" points="555.58,-111.75 555.58,-129.25 555.58,-129.25 555.58,-111.75 555.58,-111.75"/>
</a>
</g>
</g>
<!-- conf_automatic_check_rule&#45;&gt;check_automatic_type -->
<g id="edge2" class="edge">
<title>conf_automatic_check_rule:w&#45;&gt;check_automatic_type:e</title>
<path fill="none" stroke="black" d="M374.33,-163.72C331.18,-183.1 372.37,-291 310.75,-291"/>
<polygon fill="black" stroke="black" points="381.57,-162.32 390.1,-164.35 385.82,-161.51 389.09,-160.88 389.09,-160.88 389.09,-160.88 385.82,-161.51 388.74,-157.28 381.57,-162.32"/>
<ellipse fill="none" stroke="black" cx="376.74" cy="-163.25" rx="3.2" ry="3.2"/>
</g>
</g>
</svg>
