<?xml version="1.0" encoding="UTF-8" standalone="no"?>
<!DOCTYPE svg PUBLIC "-//W3C//DTD SVG 1.1//EN"
 "http://www.w3.org/Graphics/SVG/1.1/DTD/svg11.dtd">
<!-- Generated by graphviz version 12.2.1 (0)
 -->
<!-- Title: oneDegreeRelationshipsDiagram Pages: 1 -->
<svg width="578pt" height="629pt"
 viewBox="0.00 0.00 577.50 629.00" xmlns="http://www.w3.org/2000/svg" xmlns:xlink="http://www.w3.org/1999/xlink">
<g id="graph0" class="graph" transform="scale(1 1) rotate(0) translate(4 625)">
<title>oneDegreeRelationshipsDiagram</title>
<polygon fill="#ffffff" stroke="none" points="-4,4 -4,-625 573.5,-625 573.5,4 -4,4"/>
<text text-anchor="middle" x="79.25" y="-7.05" font-family="Helvetica,sans-Serif" font-size="11.00">Generated by SchemaSpy</text>
<!-- doc_export_property -->
<g id="node1" class="node">
<title>doc_export_property</title>
<g id="a_node1"><a xlink:href="../../tables/doc_export_property.html" xlink:title="doc_export_property" target="_top">
<polygon fill="#ffffff" stroke="none" points="359.25,-488.5 359.25,-617 556,-617 556,-488.5 359.25,-488.5"/>
<polygon fill="#f5f5f5" stroke="none" points="359.25,-593.5 359.25,-617 556,-617 556,-593.5 359.25,-593.5"/>
<polygon fill="none" stroke="black" points="359.25,-593.5 359.25,-617 556,-617 556,-593.5 359.25,-593.5"/>
<text text-anchor="start" x="364.25" y="-602.55" font-family="Helvetica,sans-Serif" font-weight="bold" font-size="11.00">doc_export_property</text>
<text text-anchor="start" x="514.25" y="-601.55" font-family="Helvetica,sans-Serif" font-size="11.00">[table]</text>
<polygon fill="none" stroke="black" points="359.25,-571.5 359.25,-593.5 556,-593.5 556,-571.5 359.25,-571.5"/>
<image xlink:href="../../images/primaryKeys.png" width="11px" height="12px" preserveAspectRatio="xMinYMin meet" x="364.25" y="-588.5"/>
<text text-anchor="start" x="392.12" y="-578.05" font-family="Helvetica,sans-Serif" font-size="11.00">identifier</text>
<polygon fill="#ffffff" stroke="none" points="359.25,-549.5 359.25,-571.5 556,-571.5 556,-549.5 359.25,-549.5"/>
<polygon fill="none" stroke="black" points="359.25,-549.5 359.25,-571.5 556,-571.5 556,-549.5 359.25,-549.5"/>
<image xlink:href="../../images/foreignKeys.png" width="11px" height="12px" preserveAspectRatio="xMinYMin meet" x="364.25" y="-566.5"/>
<text text-anchor="start" x="392.12" y="-556.05" font-family="Helvetica,sans-Serif" font-size="11.00">type</text>
<polygon fill="#ffffff" stroke="none" points="359.25,-527.5 359.25,-549.5 556,-549.5 556,-527.5 359.25,-527.5"/>
<polygon fill="none" stroke="black" points="359.25,-527.5 359.25,-549.5 556,-549.5 556,-527.5 359.25,-527.5"/>
<image xlink:href="../../images/foreignKeys.png" width="11px" height="12px" preserveAspectRatio="xMinYMin meet" x="364.25" y="-544.5"/>
<text text-anchor="start" x="392.12" y="-534.05" font-family="Helvetica,sans-Serif" font-size="11.00">record</text>
<polygon fill="none" stroke="black" points="359.25,-508 359.25,-527.5 556,-527.5 556,-508 359.25,-508"/>
<text text-anchor="start" x="362.25" y="-514.05" font-family="Helvetica,sans-Serif" font-size="11.00">...</text>
<polygon fill="#ffffff" stroke="none" points="359.25,-488.5 359.25,-508 556,-508 556,-488.5 359.25,-488.5"/>
<polygon fill="none" stroke="black" points="359.25,-488.5 359.25,-508 556,-508 556,-488.5 359.25,-488.5"/>
<polygon fill="#ffffff" stroke="none" points="360.25,-489.5 360.25,-507 433.17,-507 433.17,-489.5 360.25,-489.5"/>
<text text-anchor="start" x="362.25" y="-494.55" font-family="Helvetica,sans-Serif" font-size="11.00">&lt; 2</text>
<polygon fill="#ffffff" stroke="none" points="433.17,-489.5 433.17,-507 494.08,-507 494.08,-489.5 433.17,-489.5"/>
<text text-anchor="start" x="459.88" y="-494.55" font-family="Helvetica,sans-Serif" font-size="11.00"> &#160;</text>
<polygon fill="#ffffff" stroke="none" points="494.08,-489.5 494.08,-507 555,-507 555,-489.5 494.08,-489.5"/>
<text text-anchor="start" x="545.5" y="-494.55" font-family="Helvetica,sans-Serif" font-size="11.00"> &#160;</text>
<polygon fill="black" stroke="black" points="433.17,-489.5 433.17,-507 433.17,-507 433.17,-489.5 433.17,-489.5"/>
<polygon fill="black" stroke="black" points="494.08,-489.5 494.08,-507 494.08,-507 494.08,-489.5 494.08,-489.5"/>
</a>
</g>
</g>
<!-- doc_property_type -->
<g id="node2" class="node">
<title>doc_property_type</title>
<g id="a_node2"><a xlink:href="../../tables/doc_property_type.html" xlink:title="doc_property_type" target="_top">
<polygon fill="#ffffff" stroke="none" points="8,-116.25 8,-361.25 304.75,-361.25 304.75,-116.25 8,-116.25"/>
<polygon fill="#f5f5f5" stroke="none" points="10,-335.75 10,-359.25 302.75,-359.25 302.75,-335.75 10,-335.75"/>
<polygon fill="none" stroke="black" points="10,-335.75 10,-359.25 302.75,-359.25 302.75,-335.75 10,-335.75"/>
<text text-anchor="start" x="15" y="-344.8" font-family="Helvetica,sans-Serif" font-weight="bold" font-size="11.00">doc_property_type</text>
<text text-anchor="start" x="261" y="-343.8" font-family="Helvetica,sans-Serif" font-size="11.00">[table]</text>
<polygon fill="none" stroke="black" points="10,-313.75 10,-335.75 168,-335.75 168,-313.75 10,-313.75"/>
<image xlink:href="../../images/primaryKeys.png" width="11px" height="12px" preserveAspectRatio="xMinYMin meet" x="15" y="-330.75"/>
<text text-anchor="start" x="30" y="-320.3" font-family="Helvetica,sans-Serif" font-size="11.00">identifier</text>
<polygon fill="none" stroke="black" points="168,-313.75 168,-335.75 279.25,-335.75 279.25,-313.75 168,-313.75"/>
<text text-anchor="start" x="171" y="-321.05" font-family="Helvetica,sans-Serif" font-size="11.00">varchar[191]</text>
<polygon fill="none" stroke="black" points="10,-291.75 10,-313.75 168,-313.75 168,-291.75 10,-291.75"/>
<text text-anchor="start" x="30" y="-298.3" font-family="Helvetica,sans-Serif" font-size="11.00">label</text>
<polygon fill="none" stroke="black" points="168,-291.75 168,-313.75 279.25,-313.75 279.25,-291.75 168,-291.75"/>
<text text-anchor="start" x="171" y="-299.05" font-family="Helvetica,sans-Serif" font-size="11.00">varchar[255]</text>
<polygon fill="none" stroke="black" points="10,-269.75 10,-291.75 168,-291.75 168,-269.75 10,-269.75"/>
<text text-anchor="start" x="30" y="-276.3" font-family="Helvetica,sans-Serif" font-size="11.00">supertype</text>
<polygon fill="none" stroke="black" points="168,-269.75 168,-291.75 279.25,-291.75 279.25,-269.75 168,-269.75"/>
<text text-anchor="start" x="171" y="-277.05" font-family="Helvetica,sans-Serif" font-size="11.00">varchar[255]</text>
<polygon fill="none" stroke="black" points="10,-247.75 10,-269.75 168,-269.75 168,-247.75 10,-247.75"/>
<text text-anchor="start" x="30" y="-254.3" font-family="Helvetica,sans-Serif" font-size="11.00">rank</text>
<polygon fill="none" stroke="black" points="168,-247.75 168,-269.75 279.25,-269.75 279.25,-247.75 168,-247.75"/>
<text text-anchor="start" x="171" y="-255.05" font-family="Helvetica,sans-Serif" font-size="11.00">int[10]</text>
<polygon fill="none" stroke="black" points="10,-225.75 10,-247.75 168,-247.75 168,-225.75 10,-225.75"/>
<text text-anchor="start" x="30" y="-232.3" font-family="Helvetica,sans-Serif" font-size="11.00">version</text>
<polygon fill="none" stroke="black" points="168,-225.75 168,-247.75 279.25,-247.75 279.25,-225.75 168,-225.75"/>
<text text-anchor="start" x="171" y="-233.05" font-family="Helvetica,sans-Serif" font-size="11.00">bigint[19]</text>
<polygon fill="none" stroke="black" points="10,-203.75 10,-225.75 168,-225.75 168,-203.75 10,-203.75"/>
<text text-anchor="start" x="30" y="-210.3" font-family="Helvetica,sans-Serif" font-size="11.00">created_by</text>
<polygon fill="none" stroke="black" points="168,-203.75 168,-225.75 279.25,-225.75 279.25,-203.75 168,-203.75"/>
<text text-anchor="start" x="171" y="-211.05" font-family="Helvetica,sans-Serif" font-size="11.00">varchar[191]</text>
<polygon fill="none" stroke="black" points="10,-181.75 10,-203.75 168,-203.75 168,-181.75 10,-181.75"/>
<text text-anchor="start" x="30" y="-188.3" font-family="Helvetica,sans-Serif" font-size="11.00">last_modified_by</text>
<polygon fill="none" stroke="black" points="168,-181.75 168,-203.75 279.25,-203.75 279.25,-181.75 168,-181.75"/>
<text text-anchor="start" x="171" y="-189.05" font-family="Helvetica,sans-Serif" font-size="11.00">varchar[191]</text>
<polygon fill="none" stroke="black" points="10,-159.75 10,-181.75 168,-181.75 168,-159.75 10,-159.75"/>
<text text-anchor="start" x="30" y="-166.3" font-family="Helvetica,sans-Serif" font-size="11.00">created_date</text>
<polygon fill="none" stroke="black" points="168,-159.75 168,-181.75 279.25,-181.75 279.25,-159.75 168,-159.75"/>
<text text-anchor="start" x="171" y="-167.05" font-family="Helvetica,sans-Serif" font-size="11.00">timestamp[19]</text>
<polygon fill="none" stroke="black" points="10,-137.75 10,-159.75 168,-159.75 168,-137.75 10,-137.75"/>
<text text-anchor="start" x="30" y="-144.3" font-family="Helvetica,sans-Serif" font-size="11.00">last_modified_date</text>
<polygon fill="none" stroke="black" points="168,-137.75 168,-159.75 279.25,-159.75 279.25,-137.75 168,-137.75"/>
<text text-anchor="start" x="171" y="-145.05" font-family="Helvetica,sans-Serif" font-size="11.00">timestamp[19]</text>
<polygon fill="#ffffff" stroke="none" points="10,-118.25 10,-137.75 302.75,-137.75 302.75,-118.25 10,-118.25"/>
<polygon fill="none" stroke="black" points="10,-118.25 10,-137.75 302.75,-137.75 302.75,-118.25 10,-118.25"/>
<polygon fill="#ffffff" stroke="none" points="11,-119.25 11,-136.75 111.92,-136.75 111.92,-119.25 11,-119.25"/>
<text text-anchor="start" x="13" y="-124.3" font-family="Helvetica,sans-Serif" font-size="11.00">&lt; 0</text>
<polygon fill="#ffffff" stroke="none" points="111.92,-119.25 111.92,-136.75 200.83,-136.75 200.83,-119.25 111.92,-119.25"/>
<text text-anchor="start" x="152.62" y="-124.3" font-family="Helvetica,sans-Serif" font-size="11.00"> &#160;</text>
<polygon fill="#ffffff" stroke="none" points="200.83,-119.25 200.83,-136.75 301.75,-136.75 301.75,-119.25 200.83,-119.25"/>
<text text-anchor="start" x="280.25" y="-124.3" font-family="Helvetica,sans-Serif" font-size="11.00">4 &gt;</text>
<polygon fill="black" stroke="black" points="111.92,-119.25 111.92,-136.75 111.92,-136.75 111.92,-119.25 111.92,-119.25"/>
<polygon fill="black" stroke="black" points="200.83,-119.25 200.83,-136.75 200.83,-136.75 200.83,-119.25 200.83,-119.25"/>
<polygon fill="none" stroke="black" stroke-width="2" points="9,-117.25 9,-360.25 303.75,-360.25 303.75,-117.25 9,-117.25"/>
</a>
</g>
</g>
<!-- doc_export_property&#45;&gt;doc_property_type -->
<g id="edge1" class="edge">
<title>doc_export_property:w&#45;&gt;doc_property_type:e</title>
<path fill="none" stroke="black" d="M342.58,-558.53C262.49,-535.86 384.69,-324.75 280.25,-324.75"/>
<polygon fill="black" stroke="black" points="349.98,-559.46 357.47,-564.03 354.28,-560 357.59,-560.42 357.59,-560.42 357.59,-560.42 354.28,-560 358.37,-556.89 349.98,-559.46"/>
<ellipse fill="none" stroke="black" cx="345.1" cy="-558.85" rx="3.2" ry="3.2"/>
</g>
<!-- doc_property -->
<g id="node3" class="node">
<title>doc_property</title>
<g id="a_node3"><a xlink:href="../../tables/doc_property.html" xlink:title="doc_property" target="_top">
<polygon fill="#ffffff" stroke="none" points="378.62,-338.5 378.62,-467 536.62,-467 536.62,-338.5 378.62,-338.5"/>
<polygon fill="#f5f5f5" stroke="none" points="378.62,-443.5 378.62,-467 536.62,-467 536.62,-443.5 378.62,-443.5"/>
<polygon fill="none" stroke="black" points="378.62,-443.5 378.62,-467 536.62,-467 536.62,-443.5 378.62,-443.5"/>
<text text-anchor="start" x="383.62" y="-452.55" font-family="Helvetica,sans-Serif" font-weight="bold" font-size="11.00">doc_property</text>
<text text-anchor="start" x="494.88" y="-451.55" font-family="Helvetica,sans-Serif" font-size="11.00">[table]</text>
<polygon fill="none" stroke="black" points="378.62,-421.5 378.62,-443.5 536.62,-443.5 536.62,-421.5 378.62,-421.5"/>
<image xlink:href="../../images/primaryKeys.png" width="11px" height="12px" preserveAspectRatio="xMinYMin meet" x="383.625" y="-438.5"/>
<text text-anchor="start" x="398.62" y="-428.05" font-family="Helvetica,sans-Serif" font-size="11.00">identifier</text>
<polygon fill="#ffffff" stroke="none" points="378.62,-399.5 378.62,-421.5 536.62,-421.5 536.62,-399.5 378.62,-399.5"/>
<polygon fill="none" stroke="black" points="378.62,-399.5 378.62,-421.5 536.62,-421.5 536.62,-399.5 378.62,-399.5"/>
<image xlink:href="../../images/foreignKeys.png" width="11px" height="12px" preserveAspectRatio="xMinYMin meet" x="383.625" y="-416.5"/>
<text text-anchor="start" x="398.62" y="-406.05" font-family="Helvetica,sans-Serif" font-size="11.00">type</text>
<polygon fill="#ffffff" stroke="none" points="378.62,-377.5 378.62,-399.5 536.62,-399.5 536.62,-377.5 378.62,-377.5"/>
<polygon fill="none" stroke="black" points="378.62,-377.5 378.62,-399.5 536.62,-399.5 536.62,-377.5 378.62,-377.5"/>
<image xlink:href="../../images/foreignKeys.png" width="11px" height="12px" preserveAspectRatio="xMinYMin meet" x="383.625" y="-394.5"/>
<text text-anchor="start" x="398.62" y="-384.05" font-family="Helvetica,sans-Serif" font-size="11.00">record</text>
<polygon fill="none" stroke="black" points="378.62,-358 378.62,-377.5 536.62,-377.5 536.62,-358 378.62,-358"/>
<text text-anchor="start" x="381.62" y="-364.05" font-family="Helvetica,sans-Serif" font-size="11.00">...</text>
<polygon fill="#ffffff" stroke="none" points="378.62,-338.5 378.62,-358 536.62,-358 536.62,-338.5 378.62,-338.5"/>
<polygon fill="none" stroke="black" points="378.62,-338.5 378.62,-358 536.62,-358 536.62,-338.5 378.62,-338.5"/>
<polygon fill="#ffffff" stroke="none" points="379.62,-339.5 379.62,-357 439.62,-357 439.62,-339.5 379.62,-339.5"/>
<text text-anchor="start" x="381.62" y="-344.55" font-family="Helvetica,sans-Serif" font-size="11.00">&lt; 2</text>
<polygon fill="#ffffff" stroke="none" points="439.62,-339.5 439.62,-357 487.62,-357 487.62,-339.5 439.62,-339.5"/>
<text text-anchor="start" x="459.88" y="-344.55" font-family="Helvetica,sans-Serif" font-size="11.00"> &#160;</text>
<polygon fill="#ffffff" stroke="none" points="487.62,-339.5 487.62,-357 535.62,-357 535.62,-339.5 487.62,-339.5"/>
<text text-anchor="start" x="526.12" y="-344.55" font-family="Helvetica,sans-Serif" font-size="11.00"> &#160;</text>
<polygon fill="black" stroke="black" points="439.62,-339.5 439.62,-357 439.62,-357 439.62,-339.5 439.62,-339.5"/>
<polygon fill="black" stroke="black" points="487.62,-339.5 487.62,-357 487.62,-357 487.62,-339.5 487.62,-339.5"/>
</a>
</g>
</g>
<!-- doc_property&#45;&gt;doc_property_type -->
<g id="edge2" class="edge">
<title>doc_property:w&#45;&gt;doc_property_type:e</title>
<path fill="none" stroke="black" d="M362.24,-408.03C322.83,-393.97 332.06,-324.75 280.25,-324.75"/>
<polygon fill="black" stroke="black" points="369.4,-409.18 376.72,-414 373.68,-409.87 376.96,-410.39 376.96,-410.39 376.96,-410.39 373.68,-409.87 377.87,-406.89 369.4,-409.18"/>
<ellipse fill="none" stroke="black" cx="364.54" cy="-408.4" rx="3.2" ry="3.2"/>
</g>
<!-- exc_csv_mapping_rule -->
<g id="node4" class="node">
<title>exc_csv_mapping_rule</title>
<g id="a_node4"><a xlink:href="../../tables/exc_csv_mapping_rule.html" xlink:title="exc_csv_mapping_rule" target="_top">
<polygon fill="#ffffff" stroke="none" points="353.75,-188.5 353.75,-317 561.5,-317 561.5,-188.5 353.75,-188.5"/>
<polygon fill="#f5f5f5" stroke="none" points="353.75,-293.5 353.75,-317 561.5,-317 561.5,-293.5 353.75,-293.5"/>
<polygon fill="none" stroke="black" points="353.75,-293.5 353.75,-317 561.5,-317 561.5,-293.5 353.75,-293.5"/>
<text text-anchor="start" x="358.75" y="-302.55" font-family="Helvetica,sans-Serif" font-weight="bold" font-size="11.00">exc_csv_mapping_rule</text>
<text text-anchor="start" x="519.75" y="-301.55" font-family="Helvetica,sans-Serif" font-size="11.00">[table]</text>
<polygon fill="none" stroke="black" points="353.75,-271.5 353.75,-293.5 561.5,-293.5 561.5,-271.5 353.75,-271.5"/>
<image xlink:href="../../images/primaryKeys.png" width="11px" height="12px" preserveAspectRatio="xMinYMin meet" x="358.75" y="-288.5"/>
<text text-anchor="start" x="386.62" y="-278.05" font-family="Helvetica,sans-Serif" font-size="11.00">identifier</text>
<polygon fill="#ffffff" stroke="none" points="353.75,-249.5 353.75,-271.5 561.5,-271.5 561.5,-249.5 353.75,-249.5"/>
<polygon fill="none" stroke="black" points="353.75,-249.5 353.75,-271.5 561.5,-271.5 561.5,-249.5 353.75,-249.5"/>
<image xlink:href="../../images/foreignKeys.png" width="11px" height="12px" preserveAspectRatio="xMinYMin meet" x="358.75" y="-266.5"/>
<text text-anchor="start" x="386.62" y="-256.05" font-family="Helvetica,sans-Serif" font-size="11.00">mapping</text>
<polygon fill="#ffffff" stroke="none" points="353.75,-227.5 353.75,-249.5 561.5,-249.5 561.5,-227.5 353.75,-227.5"/>
<polygon fill="none" stroke="black" points="353.75,-227.5 353.75,-249.5 561.5,-249.5 561.5,-227.5 353.75,-227.5"/>
<image xlink:href="../../images/foreignKeys.png" width="11px" height="12px" preserveAspectRatio="xMinYMin meet" x="358.75" y="-244.5"/>
<text text-anchor="start" x="386.62" y="-234.05" font-family="Helvetica,sans-Serif" font-size="11.00">property</text>
<polygon fill="none" stroke="black" points="353.75,-208 353.75,-227.5 561.5,-227.5 561.5,-208 353.75,-208"/>
<text text-anchor="start" x="356.75" y="-214.05" font-family="Helvetica,sans-Serif" font-size="11.00">...</text>
<polygon fill="#ffffff" stroke="none" points="353.75,-188.5 353.75,-208 561.5,-208 561.5,-188.5 353.75,-188.5"/>
<polygon fill="none" stroke="black" points="353.75,-188.5 353.75,-208 561.5,-208 561.5,-188.5 353.75,-188.5"/>
<polygon fill="#ffffff" stroke="none" points="354.75,-189.5 354.75,-207 431.33,-207 431.33,-189.5 354.75,-189.5"/>
<text text-anchor="start" x="356.75" y="-194.55" font-family="Helvetica,sans-Serif" font-size="11.00">&lt; 2</text>
<polygon fill="#ffffff" stroke="none" points="431.33,-189.5 431.33,-207 495.92,-207 495.92,-189.5 431.33,-189.5"/>
<text text-anchor="start" x="459.88" y="-194.55" font-family="Helvetica,sans-Serif" font-size="11.00"> &#160;</text>
<polygon fill="#ffffff" stroke="none" points="495.92,-189.5 495.92,-207 560.5,-207 560.5,-189.5 495.92,-189.5"/>
<text text-anchor="start" x="551" y="-194.55" font-family="Helvetica,sans-Serif" font-size="11.00"> &#160;</text>
<polygon fill="black" stroke="black" points="431.33,-189.5 431.33,-207 431.33,-207 431.33,-189.5 431.33,-189.5"/>
<polygon fill="black" stroke="black" points="495.92,-189.5 495.92,-207 495.92,-207 495.92,-189.5 495.92,-189.5"/>
</a>
</g>
</g>
<!-- exc_csv_mapping_rule&#45;&gt;doc_property_type -->
<g id="edge3" class="edge">
<title>exc_csv_mapping_rule:w&#45;&gt;doc_property_type:e</title>
<path fill="none" stroke="black" d="M337.7,-241.99C308.23,-258.12 324.26,-324.75 280.25,-324.75"/>
<polygon fill="black" stroke="black" points="344.63,-240.38 353.24,-242.08 348.85,-239.4 352.1,-238.65 352.1,-238.65 352.1,-238.65 348.85,-239.4 351.61,-235.07 344.63,-240.38"/>
<ellipse fill="none" stroke="black" cx="339.84" cy="-241.49" rx="3.2" ry="3.2"/>
</g>
<!-- exc_mapping_rule -->
<g id="node5" class="node">
<title>exc_mapping_rule</title>
<g id="a_node5"><a xlink:href="../../tables/exc_mapping_rule.html" xlink:title="exc_mapping_rule" target="_top">
<polygon fill="#ffffff" stroke="none" points="369.25,-38.5 369.25,-167 546,-167 546,-38.5 369.25,-38.5"/>
<polygon fill="#f5f5f5" stroke="none" points="369.25,-143.5 369.25,-167 546,-167 546,-143.5 369.25,-143.5"/>
<polygon fill="none" stroke="black" points="369.25,-143.5 369.25,-167 546,-167 546,-143.5 369.25,-143.5"/>
<text text-anchor="start" x="374.25" y="-152.55" font-family="Helvetica,sans-Serif" font-weight="bold" font-size="11.00">exc_mapping_rule</text>
<text text-anchor="start" x="504.25" y="-151.55" font-family="Helvetica,sans-Serif" font-size="11.00">[table]</text>
<polygon fill="none" stroke="black" points="369.25,-121.5 369.25,-143.5 546,-143.5 546,-121.5 369.25,-121.5"/>
<image xlink:href="../../images/primaryKeys.png" width="11px" height="12px" preserveAspectRatio="xMinYMin meet" x="374.25" y="-138.5"/>
<text text-anchor="start" x="398.62" y="-128.05" font-family="Helvetica,sans-Serif" font-size="11.00">identifier</text>
<polygon fill="#ffffff" stroke="none" points="369.25,-99.5 369.25,-121.5 546,-121.5 546,-99.5 369.25,-99.5"/>
<polygon fill="none" stroke="black" points="369.25,-99.5 369.25,-121.5 546,-121.5 546,-99.5 369.25,-99.5"/>
<image xlink:href="../../images/foreignKeys.png" width="11px" height="12px" preserveAspectRatio="xMinYMin meet" x="374.25" y="-116.5"/>
<text text-anchor="start" x="398.62" y="-106.05" font-family="Helvetica,sans-Serif" font-size="11.00">property</text>
<polygon fill="#ffffff" stroke="none" points="369.25,-77.5 369.25,-99.5 546,-99.5 546,-77.5 369.25,-77.5"/>
<polygon fill="none" stroke="black" points="369.25,-77.5 369.25,-99.5 546,-99.5 546,-77.5 369.25,-77.5"/>
<image xlink:href="../../images/foreignKeys.png" width="11px" height="12px" preserveAspectRatio="xMinYMin meet" x="374.25" y="-94.5"/>
<text text-anchor="start" x="398.62" y="-84.05" font-family="Helvetica,sans-Serif" font-size="11.00">mapping</text>
<polygon fill="none" stroke="black" points="369.25,-58 369.25,-77.5 546,-77.5 546,-58 369.25,-58"/>
<text text-anchor="start" x="372.25" y="-64.05" font-family="Helvetica,sans-Serif" font-size="11.00">...</text>
<polygon fill="#ffffff" stroke="none" points="369.25,-38.5 369.25,-58 546,-58 546,-38.5 369.25,-38.5"/>
<polygon fill="none" stroke="black" points="369.25,-38.5 369.25,-58 546,-58 546,-38.5 369.25,-38.5"/>
<polygon fill="#ffffff" stroke="none" points="370.25,-39.5 370.25,-57 436.5,-57 436.5,-39.5 370.25,-39.5"/>
<text text-anchor="start" x="372.25" y="-44.55" font-family="Helvetica,sans-Serif" font-size="11.00">&lt; 2</text>
<polygon fill="#ffffff" stroke="none" points="436.5,-39.5 436.5,-57 490.75,-57 490.75,-39.5 436.5,-39.5"/>
<text text-anchor="start" x="459.88" y="-44.55" font-family="Helvetica,sans-Serif" font-size="11.00"> &#160;</text>
<polygon fill="#ffffff" stroke="none" points="490.75,-39.5 490.75,-57 545,-57 545,-39.5 490.75,-39.5"/>
<text text-anchor="start" x="535.5" y="-44.55" font-family="Helvetica,sans-Serif" font-size="11.00"> &#160;</text>
<polygon fill="black" stroke="black" points="436.5,-39.5 436.5,-57 436.5,-57 436.5,-39.5 436.5,-39.5"/>
<polygon fill="black" stroke="black" points="490.75,-39.5 490.75,-57 490.75,-57 490.75,-39.5 490.75,-39.5"/>
</a>
</g>
</g>
<!-- exc_mapping_rule&#45;&gt;doc_property_type -->
<g id="edge4" class="edge">
<title>exc_mapping_rule:w&#45;&gt;doc_property_type:e</title>
<path fill="none" stroke="black" d="M352.8,-112.48C277.95,-134.08 377.36,-324.75 280.25,-324.75"/>
<polygon fill="black" stroke="black" points="359.98,-111.56 368.38,-114.11 364.28,-111.01 367.59,-110.59 367.59,-110.59 367.59,-110.59 364.28,-111.01 367.46,-106.97 359.98,-111.56"/>
<ellipse fill="none" stroke="black" cx="355.11" cy="-112.19" rx="3.2" ry="3.2"/>
</g>
</g>
</svg>
