<?xml version="1.0" encoding="UTF-8" standalone="no"?>
<!DOCTYPE svg PUBLIC "-//W3C//DTD SVG 1.1//EN"
 "http://www.w3.org/Graphics/SVG/1.1/DTD/svg11.dtd">
<!-- Generated by graphviz version 12.2.1 (0)
 -->
<!-- Title: oneDegreeRelationshipsDiagram Pages: 1 -->
<svg width="659pt" height="571pt"
 viewBox="0.00 0.00 658.50 571.00" xmlns="http://www.w3.org/2000/svg" xmlns:xlink="http://www.w3.org/1999/xlink">
<g id="graph0" class="graph" transform="scale(1 1) rotate(0) translate(4 567)">
<title>oneDegreeRelationshipsDiagram</title>
<polygon fill="#ffffff" stroke="none" points="-4,4 -4,-567 654.5,-567 654.5,4 -4,4"/>
<text text-anchor="middle" x="79.25" y="-7.05" font-family="Helvetica,sans-Serif" font-size="11.00">Generated by SchemaSpy</text>
<!-- proj_project_platform -->
<g id="node1" class="node">
<title>proj_project_platform</title>
<g id="a_node1"><a xlink:href="../../tables/proj_project_platform.html" xlink:title="proj_project_platform" target="_top">
<polygon fill="#ffffff" stroke="none" points="320,-405.25 320,-496.25 642.5,-496.25 642.5,-405.25 320,-405.25"/>
<polygon fill="#f5f5f5" stroke="none" points="322,-470.75 322,-494.25 640.5,-494.25 640.5,-470.75 322,-470.75"/>
<polygon fill="none" stroke="black" points="322,-470.75 322,-494.25 640.5,-494.25 640.5,-470.75 322,-470.75"/>
<text text-anchor="start" x="327" y="-479.8" font-family="Helvetica,sans-Serif" font-weight="bold" font-size="11.00">proj_project_platform</text>
<text text-anchor="start" x="598.75" y="-478.8" font-family="Helvetica,sans-Serif" font-size="11.00">[table]</text>
<polygon fill="none" stroke="black" points="322,-448.75 322,-470.75 500,-470.75 500,-448.75 322,-448.75"/>
<image xlink:href="../../images/primaryKeys.png" width="11px" height="12px" preserveAspectRatio="xMinYMin meet" x="327" y="-465.75"/>
<text text-anchor="start" x="342" y="-455.3" font-family="Helvetica,sans-Serif" font-size="11.00">proj_platform</text>
<polygon fill="none" stroke="black" points="500,-448.75 500,-470.75 608.88,-470.75 608.88,-448.75 500,-448.75"/>
<text text-anchor="start" x="503" y="-456.05" font-family="Helvetica,sans-Serif" font-size="11.00">varchar[191]</text>
<polygon fill="none" stroke="black" points="322,-426.75 322,-448.75 500,-448.75 500,-426.75 322,-426.75"/>
<image xlink:href="../../images/primaryKeys.png" width="11px" height="12px" preserveAspectRatio="xMinYMin meet" x="327" y="-443.75"/>
<text text-anchor="start" x="342" y="-433.3" font-family="Helvetica,sans-Serif" font-size="11.00">project</text>
<polygon fill="none" stroke="black" points="500,-426.75 500,-448.75 608.88,-448.75 608.88,-426.75 500,-426.75"/>
<text text-anchor="start" x="503" y="-434.05" font-family="Helvetica,sans-Serif" font-size="11.00">varchar[191]</text>
<polygon fill="#ffffff" stroke="none" points="322,-407.25 322,-426.75 640.5,-426.75 640.5,-407.25 322,-407.25"/>
<polygon fill="none" stroke="black" points="322,-407.25 322,-426.75 640.5,-426.75 640.5,-407.25 322,-407.25"/>
<polygon fill="#ffffff" stroke="none" points="323,-408.25 323,-425.75 432.5,-425.75 432.5,-408.25 323,-408.25"/>
<text text-anchor="start" x="325" y="-413.3" font-family="Helvetica,sans-Serif" font-size="11.00">&lt; 2</text>
<polygon fill="#ffffff" stroke="none" points="432.5,-408.25 432.5,-425.75 530,-425.75 530,-408.25 432.5,-408.25"/>
<text text-anchor="start" x="477.5" y="-413.3" font-family="Helvetica,sans-Serif" font-size="11.00"> &#160;</text>
<polygon fill="#ffffff" stroke="none" points="530,-408.25 530,-425.75 639.5,-425.75 639.5,-408.25 530,-408.25"/>
<text text-anchor="start" x="618" y="-413.3" font-family="Helvetica,sans-Serif" font-size="11.00">0 &gt;</text>
<polygon fill="black" stroke="black" points="432.5,-408.25 432.5,-425.75 432.5,-425.75 432.5,-408.25 432.5,-408.25"/>
<polygon fill="black" stroke="black" points="530,-408.25 530,-425.75 530,-425.75 530,-408.25 530,-408.25"/>
<polygon fill="none" stroke="black" stroke-width="2" points="321,-406.25 321,-495.25 641.5,-495.25 641.5,-406.25 321,-406.25"/>
</a>
</g>
</g>
<!-- plat_platform -->
<g id="node2" class="node">
<title>plat_platform</title>
<g id="a_node2"><a xlink:href="../../tables/plat_platform.html" xlink:title="plat_platform" target="_top">
<polygon fill="#ffffff" stroke="none" points="60.5,-430.5 60.5,-559 218.5,-559 218.5,-430.5 60.5,-430.5"/>
<polygon fill="#f5f5f5" stroke="none" points="60.5,-535.5 60.5,-559 218.5,-559 218.5,-535.5 60.5,-535.5"/>
<polygon fill="none" stroke="black" points="60.5,-535.5 60.5,-559 218.5,-559 218.5,-535.5 60.5,-535.5"/>
<text text-anchor="start" x="65.5" y="-544.55" font-family="Helvetica,sans-Serif" font-weight="bold" font-size="11.00">plat_platform</text>
<text text-anchor="start" x="176.75" y="-543.55" font-family="Helvetica,sans-Serif" font-size="11.00">[table]</text>
<polygon fill="none" stroke="black" points="60.5,-513.5 60.5,-535.5 218.5,-535.5 218.5,-513.5 60.5,-513.5"/>
<image xlink:href="../../images/primaryKeys.png" width="11px" height="12px" preserveAspectRatio="xMinYMin meet" x="65.5" y="-530.5"/>
<text text-anchor="start" x="80.5" y="-520.05" font-family="Helvetica,sans-Serif" font-size="11.00">identifier</text>
<polygon fill="#ffffff" stroke="none" points="60.5,-491.5 60.5,-513.5 218.5,-513.5 218.5,-491.5 60.5,-491.5"/>
<polygon fill="none" stroke="black" points="60.5,-491.5 60.5,-513.5 218.5,-513.5 218.5,-491.5 60.5,-491.5"/>
<image xlink:href="../../images/foreignKeys.png" width="11px" height="12px" preserveAspectRatio="xMinYMin meet" x="65.5" y="-508.5"/>
<text text-anchor="start" x="80.5" y="-498.05" font-family="Helvetica,sans-Serif" font-size="11.00">library</text>
<polygon fill="#ffffff" stroke="none" points="60.5,-469.5 60.5,-491.5 218.5,-491.5 218.5,-469.5 60.5,-469.5"/>
<polygon fill="none" stroke="black" points="60.5,-469.5 60.5,-491.5 218.5,-491.5 218.5,-469.5 60.5,-469.5"/>
<image xlink:href="../../images/foreignKeys.png" width="11px" height="12px" preserveAspectRatio="xMinYMin meet" x="65.5" y="-486.5"/>
<text text-anchor="start" x="80.5" y="-476.05" font-family="Helvetica,sans-Serif" font-size="11.00">lot</text>
<polygon fill="none" stroke="black" points="60.5,-450 60.5,-469.5 218.5,-469.5 218.5,-450 60.5,-450"/>
<text text-anchor="start" x="63.5" y="-456.05" font-family="Helvetica,sans-Serif" font-size="11.00">...</text>
<polygon fill="#ffffff" stroke="none" points="60.5,-430.5 60.5,-450 218.5,-450 218.5,-430.5 60.5,-430.5"/>
<polygon fill="none" stroke="black" points="60.5,-430.5 60.5,-450 218.5,-450 218.5,-430.5 60.5,-430.5"/>
<polygon fill="#ffffff" stroke="none" points="61.5,-431.5 61.5,-449 117.5,-449 117.5,-431.5 61.5,-431.5"/>
<text text-anchor="start" x="63.5" y="-436.55" font-family="Helvetica,sans-Serif" font-size="11.00">&lt; 2</text>
<polygon fill="#ffffff" stroke="none" points="117.5,-431.5 117.5,-449 161.5,-449 161.5,-431.5 117.5,-431.5"/>
<text text-anchor="start" x="135.75" y="-436.55" font-family="Helvetica,sans-Serif" font-size="11.00"> &#160;</text>
<polygon fill="#ffffff" stroke="none" points="161.5,-431.5 161.5,-449 217.5,-449 217.5,-431.5 161.5,-431.5"/>
<text text-anchor="start" x="196" y="-436.55" font-family="Helvetica,sans-Serif" font-size="11.00">1 &gt;</text>
<polygon fill="black" stroke="black" points="117.5,-431.5 117.5,-449 117.5,-449 117.5,-431.5 117.5,-431.5"/>
<polygon fill="black" stroke="black" points="161.5,-431.5 161.5,-449 161.5,-449 161.5,-431.5 161.5,-431.5"/>
</a>
</g>
</g>
<!-- proj_project_platform&#45;&gt;plat_platform -->
<g id="edge1" class="edge">
<title>proj_project_platform:w&#45;&gt;plat_platform:e</title>
<path fill="none" stroke="black" d="M305.41,-461.9C267.99,-473.14 267.16,-524.5 219.5,-524.5"/>
<polygon fill="black" stroke="black" points="312.74,-460.89 321.16,-463.36 317.04,-460.3 320.34,-459.84 320.34,-459.84 320.34,-459.84 317.04,-460.3 320.18,-456.23 312.74,-460.89"/>
<ellipse fill="none" stroke="black" cx="307.87" cy="-461.56" rx="3.2" ry="3.2"/>
</g>
<!-- proj_project -->
<g id="node3" class="node">
<title>proj_project</title>
<g id="a_node3"><a xlink:href="../../tables/proj_project.html" xlink:title="proj_project" target="_top">
<polygon fill="#ffffff" stroke="none" points="8,-38.5 8,-409 271,-409 271,-38.5 8,-38.5"/>
<polygon fill="#f5f5f5" stroke="none" points="8,-385.5 8,-409 271,-409 271,-385.5 8,-385.5"/>
<polygon fill="none" stroke="black" points="8,-385.5 8,-409 271,-409 271,-385.5 8,-385.5"/>
<text text-anchor="start" x="13" y="-394.55" font-family="Helvetica,sans-Serif" font-weight="bold" font-size="11.00">proj_project</text>
<text text-anchor="start" x="229.25" y="-393.55" font-family="Helvetica,sans-Serif" font-size="11.00">[table]</text>
<polygon fill="none" stroke="black" points="8,-363.5 8,-385.5 271,-385.5 271,-363.5 8,-363.5"/>
<image xlink:href="../../images/primaryKeys.png" width="11px" height="12px" preserveAspectRatio="xMinYMin meet" x="13" y="-380.5"/>
<text text-anchor="start" x="28" y="-370.05" font-family="Helvetica,sans-Serif" font-size="11.00">identifier</text>
<polygon fill="#ffffff" stroke="none" points="8,-341.5 8,-363.5 271,-363.5 271,-341.5 8,-341.5"/>
<polygon fill="none" stroke="black" points="8,-341.5 8,-363.5 271,-363.5 271,-341.5 8,-341.5"/>
<image xlink:href="../../images/foreignKeys.png" width="11px" height="12px" preserveAspectRatio="xMinYMin meet" x="13" y="-358.5"/>
<text text-anchor="start" x="28" y="-348.05" font-family="Helvetica,sans-Serif" font-size="11.00">library</text>
<polygon fill="#ffffff" stroke="none" points="8,-319.5 8,-341.5 271,-341.5 271,-319.5 8,-319.5"/>
<polygon fill="none" stroke="black" points="8,-319.5 8,-341.5 271,-341.5 271,-319.5 8,-319.5"/>
<image xlink:href="../../images/foreignKeys.png" width="11px" height="12px" preserveAspectRatio="xMinYMin meet" x="13" y="-336.5"/>
<text text-anchor="start" x="28" y="-326.05" font-family="Helvetica,sans-Serif" font-size="11.00">active_configuration_ftp</text>
<polygon fill="#ffffff" stroke="none" points="8,-297.5 8,-319.5 271,-319.5 271,-297.5 8,-297.5"/>
<polygon fill="none" stroke="black" points="8,-297.5 8,-319.5 271,-319.5 271,-297.5 8,-297.5"/>
<image xlink:href="../../images/foreignKeys.png" width="11px" height="12px" preserveAspectRatio="xMinYMin meet" x="13" y="-314.5"/>
<text text-anchor="start" x="28" y="-304.05" font-family="Helvetica,sans-Serif" font-size="11.00">active_configuration_check</text>
<polygon fill="#ffffff" stroke="none" points="8,-275.5 8,-297.5 271,-297.5 271,-275.5 8,-275.5"/>
<polygon fill="none" stroke="black" points="8,-275.5 8,-297.5 271,-297.5 271,-275.5 8,-275.5"/>
<image xlink:href="../../images/foreignKeys.png" width="11px" height="12px" preserveAspectRatio="xMinYMin meet" x="13" y="-292.5"/>
<text text-anchor="start" x="28" y="-282.05" font-family="Helvetica,sans-Serif" font-size="11.00">provider</text>
<polygon fill="#ffffff" stroke="none" points="8,-253.5 8,-275.5 271,-275.5 271,-253.5 8,-253.5"/>
<polygon fill="none" stroke="black" points="8,-253.5 8,-275.5 271,-275.5 271,-253.5 8,-253.5"/>
<image xlink:href="../../images/foreignKeys.png" width="11px" height="12px" preserveAspectRatio="xMinYMin meet" x="13" y="-270.5"/>
<text text-anchor="start" x="28" y="-260.05" font-family="Helvetica,sans-Serif" font-size="11.00">collection_omeka</text>
<polygon fill="#ffffff" stroke="none" points="8,-231.5 8,-253.5 271,-253.5 271,-231.5 8,-231.5"/>
<polygon fill="none" stroke="black" points="8,-231.5 8,-253.5 271,-253.5 271,-231.5 8,-231.5"/>
<image xlink:href="../../images/foreignKeys.png" width="11px" height="12px" preserveAspectRatio="xMinYMin meet" x="13" y="-248.5"/>
<text text-anchor="start" x="28" y="-238.05" font-family="Helvetica,sans-Serif" font-size="11.00">items_omeka</text>
<polygon fill="#ffffff" stroke="none" points="8,-209.5 8,-231.5 271,-231.5 271,-209.5 8,-209.5"/>
<polygon fill="none" stroke="black" points="8,-209.5 8,-231.5 271,-231.5 271,-209.5 8,-209.5"/>
<image xlink:href="../../images/foreignKeys.png" width="11px" height="12px" preserveAspectRatio="xMinYMin meet" x="13" y="-226.5"/>
<text text-anchor="start" x="28" y="-216.05" font-family="Helvetica,sans-Serif" font-size="11.00">active_configuration_export_ftp</text>
<polygon fill="#ffffff" stroke="none" points="8,-187.5 8,-209.5 271,-209.5 271,-187.5 8,-187.5"/>
<polygon fill="none" stroke="black" points="8,-187.5 8,-209.5 271,-209.5 271,-187.5 8,-187.5"/>
<image xlink:href="../../images/foreignKeys.png" width="11px" height="12px" preserveAspectRatio="xMinYMin meet" x="13" y="-204.5"/>
<text text-anchor="start" x="28" y="-194.05" font-family="Helvetica,sans-Serif" font-size="11.00">collection_ia</text>
<polygon fill="#ffffff" stroke="none" points="8,-165.5 8,-187.5 271,-187.5 271,-165.5 8,-165.5"/>
<polygon fill="none" stroke="black" points="8,-165.5 8,-187.5 271,-187.5 271,-165.5 8,-165.5"/>
<image xlink:href="../../images/foreignKeys.png" width="11px" height="12px" preserveAspectRatio="xMinYMin meet" x="13" y="-182.5"/>
<text text-anchor="start" x="28" y="-172.05" font-family="Helvetica,sans-Serif" font-size="11.00">classement_pac</text>
<polygon fill="#ffffff" stroke="none" points="8,-143.5 8,-165.5 271,-165.5 271,-143.5 8,-143.5"/>
<polygon fill="none" stroke="black" points="8,-143.5 8,-165.5 271,-165.5 271,-143.5 8,-143.5"/>
<image xlink:href="../../images/foreignKeys.png" width="11px" height="12px" preserveAspectRatio="xMinYMin meet" x="13" y="-160.5"/>
<text text-anchor="start" x="28" y="-150.05" font-family="Helvetica,sans-Serif" font-size="11.00">workflow_model</text>
<polygon fill="#ffffff" stroke="none" points="8,-121.5 8,-143.5 271,-143.5 271,-121.5 8,-121.5"/>
<polygon fill="none" stroke="black" points="8,-121.5 8,-143.5 271,-143.5 271,-121.5 8,-121.5"/>
<image xlink:href="../../images/foreignKeys.png" width="11px" height="12px" preserveAspectRatio="xMinYMin meet" x="13" y="-138.5"/>
<text text-anchor="start" x="28" y="-128.05" font-family="Helvetica,sans-Serif" font-size="11.00">active_format_configuration</text>
<polygon fill="#ffffff" stroke="none" points="8,-99.5 8,-121.5 271,-121.5 271,-99.5 8,-99.5"/>
<polygon fill="none" stroke="black" points="8,-99.5 8,-121.5 271,-121.5 271,-99.5 8,-99.5"/>
<image xlink:href="../../images/foreignKeys.png" width="11px" height="12px" preserveAspectRatio="xMinYMin meet" x="13" y="-116.5"/>
<text text-anchor="start" x="28" y="-106.05" font-family="Helvetica,sans-Serif" font-size="11.00">omeka_configuration</text>
<polygon fill="#ffffff" stroke="none" points="8,-77.5 8,-99.5 271,-99.5 271,-77.5 8,-77.5"/>
<polygon fill="none" stroke="black" points="8,-77.5 8,-99.5 271,-99.5 271,-77.5 8,-77.5"/>
<image xlink:href="../../images/foreignKeys.png" width="11px" height="12px" preserveAspectRatio="xMinYMin meet" x="13" y="-94.5"/>
<text text-anchor="start" x="28" y="-84.05" font-family="Helvetica,sans-Serif" font-size="11.00">active_export_ftp_delivery_folder</text>
<polygon fill="none" stroke="black" points="8,-58 8,-77.5 271,-77.5 271,-58 8,-58"/>
<text text-anchor="start" x="11" y="-64.05" font-family="Helvetica,sans-Serif" font-size="11.00">...</text>
<polygon fill="#ffffff" stroke="none" points="8,-38.5 8,-58 271,-58 271,-38.5 8,-38.5"/>
<polygon fill="none" stroke="black" points="8,-38.5 8,-58 271,-58 271,-38.5 8,-38.5"/>
<polygon fill="#ffffff" stroke="none" points="9,-39.5 9,-57 104.5,-57 104.5,-39.5 9,-39.5"/>
<text text-anchor="start" x="11" y="-44.55" font-family="Helvetica,sans-Serif" font-size="11.00">&lt; 13</text>
<polygon fill="#ffffff" stroke="none" points="104.5,-39.5 104.5,-57 181.25,-57 181.25,-39.5 104.5,-39.5"/>
<text text-anchor="start" x="139.12" y="-44.55" font-family="Helvetica,sans-Serif" font-size="11.00"> &#160;</text>
<polygon fill="#ffffff" stroke="none" points="181.25,-39.5 181.25,-57 270,-57 270,-39.5 181.25,-39.5"/>
<text text-anchor="start" x="248.5" y="-44.55" font-family="Helvetica,sans-Serif" font-size="11.00">7 &gt;</text>
<polygon fill="black" stroke="black" points="104.5,-39.5 104.5,-57 104.5,-57 104.5,-39.5 104.5,-39.5"/>
<polygon fill="black" stroke="black" points="181.25,-39.5 181.25,-57 181.25,-57 181.25,-39.5 181.25,-39.5"/>
</a>
</g>
</g>
<!-- proj_project_platform&#45;&gt;proj_project -->
<g id="edge2" class="edge">
<title>proj_project_platform:w&#45;&gt;proj_project:e</title>
<path fill="none" stroke="black" d="M306.32,-431.91C291.71,-416.25 300.89,-374.5 272,-374.5"/>
<polygon fill="black" stroke="black" points="313.26,-434.67 319.36,-440.97 317.28,-436.27 320.38,-437.5 320.38,-437.5 320.38,-437.5 317.28,-436.27 322.02,-434.28 313.26,-434.67"/>
<ellipse fill="none" stroke="black" cx="308.68" cy="-432.85" rx="3.2" ry="3.2"/>
</g>
</g>
</svg>
