<?xml version="1.0" encoding="UTF-8" standalone="no"?>
<!DOCTYPE svg PUBLIC "-//W3C//DTD SVG 1.1//EN"
 "http://www.w3.org/Graphics/SVG/1.1/DTD/svg11.dtd">
<!-- Generated by graphviz version 12.2.1 (0)
 -->
<!-- Title: twoDegreesRelationshipsDiagram Pages: 1 -->
<svg width="688pt" height="406pt"
 viewBox="0.00 0.00 688.00 405.50" xmlns="http://www.w3.org/2000/svg" xmlns:xlink="http://www.w3.org/1999/xlink">
<g id="graph0" class="graph" transform="scale(1 1) rotate(0) translate(4 401.5)">
<title>twoDegreesRelationshipsDiagram</title>
<polygon fill="#ffffff" stroke="none" points="-4,4 -4,-401.5 684,-401.5 684,4 -4,4"/>
<text text-anchor="middle" x="79.25" y="-7.05" font-family="Helvetica,sans-Serif" font-size="11.00">Generated by SchemaSpy</text>
<!-- del_slip -->
<g id="node1" class="node">
<title>del_slip</title>
<g id="a_node1"><a xlink:href="../../tables/del_slip.html" xlink:title="del_slip" target="_top">
<polygon fill="#ffffff" stroke="none" points="191.75,-262.75 191.75,-369.25 349.75,-369.25 349.75,-262.75 191.75,-262.75"/>
<polygon fill="#f5f5f5" stroke="none" points="191.75,-345.75 191.75,-369.25 349.75,-369.25 349.75,-345.75 191.75,-345.75"/>
<polygon fill="none" stroke="black" points="191.75,-345.75 191.75,-369.25 349.75,-369.25 349.75,-345.75 191.75,-345.75"/>
<text text-anchor="start" x="196.75" y="-354.8" font-family="Helvetica,sans-Serif" font-weight="bold" font-size="11.00">del_slip</text>
<text text-anchor="start" x="308" y="-353.8" font-family="Helvetica,sans-Serif" font-size="11.00">[table]</text>
<polygon fill="none" stroke="black" points="191.75,-323.75 191.75,-345.75 349.75,-345.75 349.75,-323.75 191.75,-323.75"/>
<image xlink:href="../../images/primaryKeys.png" width="11px" height="12px" preserveAspectRatio="xMinYMin meet" x="196.75" y="-340.75"/>
<text text-anchor="start" x="211.75" y="-330.3" font-family="Helvetica,sans-Serif" font-size="11.00">identifier</text>
<polygon fill="#ffffff" stroke="none" points="191.75,-301.75 191.75,-323.75 349.75,-323.75 349.75,-301.75 191.75,-301.75"/>
<polygon fill="none" stroke="black" points="191.75,-301.75 191.75,-323.75 349.75,-323.75 349.75,-301.75 191.75,-301.75"/>
<image xlink:href="../../images/foreignKeys.png" width="11px" height="12px" preserveAspectRatio="xMinYMin meet" x="196.75" y="-318.75"/>
<text text-anchor="start" x="211.75" y="-308.3" font-family="Helvetica,sans-Serif" font-size="11.00">delivery</text>
<polygon fill="none" stroke="black" points="191.75,-282.25 191.75,-301.75 349.75,-301.75 349.75,-282.25 191.75,-282.25"/>
<text text-anchor="start" x="194.75" y="-288.3" font-family="Helvetica,sans-Serif" font-size="11.00">...</text>
<polygon fill="#ffffff" stroke="none" points="191.75,-262.75 191.75,-282.25 349.75,-282.25 349.75,-262.75 191.75,-262.75"/>
<polygon fill="none" stroke="black" points="191.75,-262.75 191.75,-282.25 349.75,-282.25 349.75,-262.75 191.75,-262.75"/>
<polygon fill="#ffffff" stroke="none" points="192.75,-263.75 192.75,-281.25 248.75,-281.25 248.75,-263.75 192.75,-263.75"/>
<text text-anchor="start" x="194.75" y="-268.8" font-family="Helvetica,sans-Serif" font-size="11.00">&lt; 1</text>
<polygon fill="#ffffff" stroke="none" points="248.75,-263.75 248.75,-281.25 292.75,-281.25 292.75,-263.75 248.75,-263.75"/>
<text text-anchor="start" x="267" y="-268.8" font-family="Helvetica,sans-Serif" font-size="11.00"> &#160;</text>
<polygon fill="#ffffff" stroke="none" points="292.75,-263.75 292.75,-281.25 348.75,-281.25 348.75,-263.75 292.75,-263.75"/>
<text text-anchor="start" x="327.25" y="-268.8" font-family="Helvetica,sans-Serif" font-size="11.00">1 &gt;</text>
<polygon fill="black" stroke="black" points="248.75,-263.75 248.75,-281.25 248.75,-281.25 248.75,-263.75 248.75,-263.75"/>
<polygon fill="black" stroke="black" points="292.75,-263.75 292.75,-281.25 292.75,-281.25 292.75,-263.75 292.75,-263.75"/>
</a>
</g>
</g>
<!-- del_delivery -->
<g id="node2" class="node">
<title>del_delivery</title>
<g id="a_node2"><a xlink:href="../../tables/del_delivery.html" xlink:title="del_delivery" target="_top">
<polygon fill="#ffffff" stroke="none" points="8,-283.75 8,-346.25 142.75,-346.25 142.75,-283.75 8,-283.75"/>
<polygon fill="#f5f5f5" stroke="none" points="8,-322.75 8,-346.25 142.75,-346.25 142.75,-322.75 8,-322.75"/>
<polygon fill="none" stroke="black" points="8,-322.75 8,-346.25 142.75,-346.25 142.75,-322.75 8,-322.75"/>
<text text-anchor="start" x="13" y="-331.8" font-family="Helvetica,sans-Serif" font-weight="bold" font-size="11.00">del_delivery</text>
<text text-anchor="start" x="101" y="-330.8" font-family="Helvetica,sans-Serif" font-size="11.00">[table]</text>
<polygon fill="none" stroke="black" points="8,-303.25 8,-322.75 142.75,-322.75 142.75,-303.25 8,-303.25"/>
<text text-anchor="start" x="11" y="-309.3" font-family="Helvetica,sans-Serif" font-size="11.00">...</text>
<polygon fill="#ffffff" stroke="none" points="8,-283.75 8,-303.25 142.75,-303.25 142.75,-283.75 8,-283.75"/>
<polygon fill="none" stroke="black" points="8,-283.75 8,-303.25 142.75,-303.25 142.75,-283.75 8,-283.75"/>
<polygon fill="#ffffff" stroke="none" points="9,-284.75 9,-302.25 57.25,-302.25 57.25,-284.75 9,-284.75"/>
<text text-anchor="start" x="11" y="-289.8" font-family="Helvetica,sans-Serif" font-size="11.00">&lt; 2</text>
<polygon fill="#ffffff" stroke="none" points="57.25,-284.75 57.25,-302.25 93.5,-302.25 93.5,-284.75 57.25,-284.75"/>
<text text-anchor="start" x="71.62" y="-289.8" font-family="Helvetica,sans-Serif" font-size="11.00"> &#160;</text>
<polygon fill="#ffffff" stroke="none" points="93.5,-284.75 93.5,-302.25 141.75,-302.25 141.75,-284.75 93.5,-284.75"/>
<text text-anchor="start" x="120.25" y="-289.8" font-family="Helvetica,sans-Serif" font-size="11.00">4 &gt;</text>
<polygon fill="black" stroke="black" points="57.25,-284.75 57.25,-302.25 57.25,-302.25 57.25,-284.75 57.25,-284.75"/>
<polygon fill="black" stroke="black" points="93.5,-284.75 93.5,-302.25 93.5,-302.25 93.5,-284.75 93.5,-284.75"/>
</a>
</g>
</g>
<!-- del_slip&#45;&gt;del_delivery -->
<g id="edge1" class="edge">
<title>del_slip:w&#45;&gt;del_delivery:e</title>
<path fill="none" stroke="black" d="M175.13,-312.81C165.22,-312.88 158.27,-313 143.75,-313"/>
<polygon fill="black" stroke="black" points="182.42,-312.78 190.43,-316.35 186.75,-312.76 190.08,-312.75 190.08,-312.75 190.08,-312.75 186.75,-312.76 190.4,-309.15 182.42,-312.78"/>
<ellipse fill="none" stroke="black" cx="177.5" cy="-312.8" rx="3.2" ry="3.2"/>
</g>
<!-- del_slip_line -->
<g id="node3" class="node">
<title>del_slip_line</title>
<g id="a_node3"><a xlink:href="../../tables/del_slip_line.html" xlink:title="del_slip_line" target="_top">
<polygon fill="#ffffff" stroke="none" points="398.75,-38.5 398.75,-393.5 672,-393.5 672,-38.5 398.75,-38.5"/>
<polygon fill="#f5f5f5" stroke="none" points="400.75,-368 400.75,-391.5 670,-391.5 670,-368 400.75,-368"/>
<polygon fill="none" stroke="black" points="400.75,-368 400.75,-391.5 670,-391.5 670,-368 400.75,-368"/>
<text text-anchor="start" x="405.75" y="-377.05" font-family="Helvetica,sans-Serif" font-weight="bold" font-size="11.00">del_slip_line</text>
<text text-anchor="start" x="628.25" y="-376.05" font-family="Helvetica,sans-Serif" font-size="11.00">[table]</text>
<polygon fill="none" stroke="black" points="400.75,-346 400.75,-368 558.75,-368 558.75,-346 400.75,-346"/>
<image xlink:href="../../images/primaryKeys.png" width="11px" height="12px" preserveAspectRatio="xMinYMin meet" x="405.75" y="-363"/>
<text text-anchor="start" x="420.75" y="-352.55" font-family="Helvetica,sans-Serif" font-size="11.00">identifier</text>
<polygon fill="none" stroke="black" points="558.75,-346 558.75,-368 658.25,-368 658.25,-346 558.75,-346"/>
<text text-anchor="start" x="561.75" y="-353.3" font-family="Helvetica,sans-Serif" font-size="11.00">varchar[191]</text>
<polygon fill="#ffffff" stroke="none" points="400.75,-324 400.75,-346 558.75,-346 558.75,-324 400.75,-324"/>
<polygon fill="none" stroke="black" points="400.75,-324 400.75,-346 558.75,-346 558.75,-324 400.75,-324"/>
<image xlink:href="../../images/foreignKeys.png" width="11px" height="12px" preserveAspectRatio="xMinYMin meet" x="405.75" y="-341"/>
<text text-anchor="start" x="420.75" y="-330.55" font-family="Helvetica,sans-Serif" font-size="11.00">slip</text>
<polygon fill="none" stroke="black" points="558.75,-324 558.75,-346 658.25,-346 658.25,-324 558.75,-324"/>
<text text-anchor="start" x="561.75" y="-331.3" font-family="Helvetica,sans-Serif" font-size="11.00">varchar[191]</text>
<polygon fill="none" stroke="black" points="400.75,-302 400.75,-324 558.75,-324 558.75,-302 400.75,-302"/>
<text text-anchor="start" x="420.75" y="-308.55" font-family="Helvetica,sans-Serif" font-size="11.00">pgcn_id</text>
<polygon fill="none" stroke="black" points="558.75,-302 558.75,-324 658.25,-324 658.25,-302 558.75,-302"/>
<text text-anchor="start" x="561.75" y="-309.3" font-family="Helvetica,sans-Serif" font-size="11.00">varchar[255]</text>
<polygon fill="none" stroke="black" points="400.75,-280 400.75,-302 558.75,-302 558.75,-280 400.75,-280"/>
<text text-anchor="start" x="420.75" y="-286.55" font-family="Helvetica,sans-Serif" font-size="11.00">lot</text>
<polygon fill="none" stroke="black" points="558.75,-280 558.75,-302 658.25,-302 658.25,-280 558.75,-280"/>
<text text-anchor="start" x="561.75" y="-287.3" font-family="Helvetica,sans-Serif" font-size="11.00">varchar[255]</text>
<polygon fill="none" stroke="black" points="400.75,-258 400.75,-280 558.75,-280 558.75,-258 400.75,-258"/>
<text text-anchor="start" x="420.75" y="-264.55" font-family="Helvetica,sans-Serif" font-size="11.00">train</text>
<polygon fill="none" stroke="black" points="558.75,-258 558.75,-280 658.25,-280 658.25,-258 558.75,-258"/>
<text text-anchor="start" x="561.75" y="-265.3" font-family="Helvetica,sans-Serif" font-size="11.00">varchar[255]</text>
<polygon fill="none" stroke="black" points="400.75,-236 400.75,-258 558.75,-258 558.75,-236 400.75,-236"/>
<text text-anchor="start" x="420.75" y="-242.55" font-family="Helvetica,sans-Serif" font-size="11.00">radical</text>
<polygon fill="none" stroke="black" points="558.75,-236 558.75,-258 658.25,-258 658.25,-236 558.75,-236"/>
<text text-anchor="start" x="561.75" y="-243.3" font-family="Helvetica,sans-Serif" font-size="11.00">varchar[255]</text>
<polygon fill="none" stroke="black" points="400.75,-214 400.75,-236 558.75,-236 558.75,-214 400.75,-214"/>
<text text-anchor="start" x="420.75" y="-220.55" font-family="Helvetica,sans-Serif" font-size="11.00">title</text>
<polygon fill="none" stroke="black" points="558.75,-214 558.75,-236 658.25,-236 658.25,-214 558.75,-214"/>
<text text-anchor="start" x="561.75" y="-221.3" font-family="Helvetica,sans-Serif" font-size="11.00">varchar[255]</text>
<polygon fill="none" stroke="black" points="400.75,-192 400.75,-214 558.75,-214 558.75,-192 400.75,-192"/>
<text text-anchor="start" x="420.75" y="-198.55" font-family="Helvetica,sans-Serif" font-size="11.00">nb_pages</text>
<polygon fill="none" stroke="black" points="558.75,-192 558.75,-214 658.25,-214 658.25,-192 558.75,-192"/>
<text text-anchor="start" x="561.75" y="-199.3" font-family="Helvetica,sans-Serif" font-size="11.00">varchar[255]</text>
<polygon fill="none" stroke="black" points="400.75,-170 400.75,-192 558.75,-192 558.75,-170 400.75,-170"/>
<text text-anchor="start" x="420.75" y="-176.55" font-family="Helvetica,sans-Serif" font-size="11.00">date</text>
<polygon fill="none" stroke="black" points="558.75,-170 558.75,-192 658.25,-192 658.25,-170 558.75,-170"/>
<text text-anchor="start" x="561.75" y="-177.3" font-family="Helvetica,sans-Serif" font-size="11.00">varchar[255]</text>
<polygon fill="none" stroke="black" points="400.75,-148 400.75,-170 558.75,-170 558.75,-148 400.75,-148"/>
<text text-anchor="start" x="420.75" y="-154.55" font-family="Helvetica,sans-Serif" font-size="11.00">version</text>
<polygon fill="none" stroke="black" points="558.75,-148 558.75,-170 658.25,-170 658.25,-148 558.75,-148"/>
<text text-anchor="start" x="561.75" y="-155.3" font-family="Helvetica,sans-Serif" font-size="11.00">bigint[19]</text>
<polygon fill="none" stroke="black" points="400.75,-126 400.75,-148 558.75,-148 558.75,-126 400.75,-126"/>
<text text-anchor="start" x="420.75" y="-132.55" font-family="Helvetica,sans-Serif" font-size="11.00">created_by</text>
<polygon fill="none" stroke="black" points="558.75,-126 558.75,-148 658.25,-148 658.25,-126 558.75,-126"/>
<text text-anchor="start" x="561.75" y="-133.3" font-family="Helvetica,sans-Serif" font-size="11.00">varchar[191]</text>
<polygon fill="none" stroke="black" points="400.75,-104 400.75,-126 558.75,-126 558.75,-104 400.75,-104"/>
<text text-anchor="start" x="420.75" y="-110.55" font-family="Helvetica,sans-Serif" font-size="11.00">last_modified_by</text>
<polygon fill="none" stroke="black" points="558.75,-104 558.75,-126 658.25,-126 658.25,-104 558.75,-104"/>
<text text-anchor="start" x="561.75" y="-111.3" font-family="Helvetica,sans-Serif" font-size="11.00">varchar[191]</text>
<polygon fill="none" stroke="black" points="400.75,-82 400.75,-104 558.75,-104 558.75,-82 400.75,-82"/>
<text text-anchor="start" x="420.75" y="-88.55" font-family="Helvetica,sans-Serif" font-size="11.00">created_date</text>
<polygon fill="none" stroke="black" points="558.75,-82 558.75,-104 658.25,-104 658.25,-82 558.75,-82"/>
<text text-anchor="start" x="561.75" y="-89.3" font-family="Helvetica,sans-Serif" font-size="11.00">timestamp[19]</text>
<polygon fill="none" stroke="black" points="400.75,-60 400.75,-82 558.75,-82 558.75,-60 400.75,-60"/>
<text text-anchor="start" x="420.75" y="-66.55" font-family="Helvetica,sans-Serif" font-size="11.00">last_modified_date</text>
<polygon fill="none" stroke="black" points="558.75,-60 558.75,-82 658.25,-82 658.25,-60 558.75,-60"/>
<text text-anchor="start" x="561.75" y="-67.3" font-family="Helvetica,sans-Serif" font-size="11.00">timestamp[19]</text>
<polygon fill="#ffffff" stroke="none" points="400.75,-40.5 400.75,-60 670,-60 670,-40.5 400.75,-40.5"/>
<polygon fill="none" stroke="black" points="400.75,-40.5 400.75,-60 670,-60 670,-40.5 400.75,-40.5"/>
<polygon fill="#ffffff" stroke="none" points="401.75,-41.5 401.75,-59 494.83,-59 494.83,-41.5 401.75,-41.5"/>
<text text-anchor="start" x="403.75" y="-46.55" font-family="Helvetica,sans-Serif" font-size="11.00">&lt; 1</text>
<polygon fill="#ffffff" stroke="none" points="494.83,-41.5 494.83,-59 575.92,-59 575.92,-41.5 494.83,-41.5"/>
<text text-anchor="start" x="531.62" y="-46.55" font-family="Helvetica,sans-Serif" font-size="11.00"> &#160;</text>
<polygon fill="#ffffff" stroke="none" points="575.92,-41.5 575.92,-59 669,-59 669,-41.5 575.92,-41.5"/>
<text text-anchor="start" x="647.5" y="-46.55" font-family="Helvetica,sans-Serif" font-size="11.00">0 &gt;</text>
<polygon fill="black" stroke="black" points="494.83,-41.5 494.83,-59 494.83,-59 494.83,-41.5 494.83,-41.5"/>
<polygon fill="black" stroke="black" points="575.92,-41.5 575.92,-59 575.92,-59 575.92,-41.5 575.92,-41.5"/>
<polygon fill="none" stroke="black" stroke-width="2" points="399.75,-39.5 399.75,-392.5 671,-392.5 671,-39.5 399.75,-39.5"/>
</a>
</g>
</g>
<!-- del_slip_line&#45;&gt;del_slip -->
<g id="edge2" class="edge">
<title>del_slip_line:w&#45;&gt;del_slip:e</title>
<path fill="none" stroke="black" d="M384.17,-334.95C373.46,-334.88 366.23,-334.75 350.75,-334.75"/>
<polygon fill="black" stroke="black" points="391.42,-334.97 399.4,-338.6 395.75,-334.99 399.08,-335 399.08,-335 399.08,-335 395.75,-334.99 399.43,-331.4 391.42,-334.97"/>
<ellipse fill="none" stroke="black" cx="386.5" cy="-334.96" rx="3.2" ry="3.2"/>
</g>
</g>
</svg>
