<?xml version="1.0" encoding="UTF-8" standalone="no"?>
<!DOCTYPE svg PUBLIC "-//W3C//DTD SVG 1.1//EN"
 "http://www.w3.org/Graphics/SVG/1.1/DTD/svg11.dtd">
<!-- Generated by graphviz version 12.2.1 (0)
 -->
<!-- Title: oneDegreeRelationshipsDiagram Pages: 1 -->
<svg width="1159pt" height="402pt"
 viewBox="0.00 0.00 1159.25 402.25" xmlns="http://www.w3.org/2000/svg" xmlns:xlink="http://www.w3.org/1999/xlink">
<g id="graph0" class="graph" transform="scale(1 1) rotate(0) translate(4 398.25)">
<title>oneDegreeRelationshipsDiagram</title>
<polygon fill="#ffffff" stroke="none" points="-4,4 -4,-398.25 1155.25,-398.25 1155.25,4 -4,4"/>
<text text-anchor="middle" x="79.25" y="-7.05" font-family="Helvetica,sans-Serif" font-size="11.00">Generated by SchemaSpy</text>
<!-- doc_condreport_property_config -->
<g id="node1" class="node">
<title>doc_condreport_property_config</title>
<g id="a_node1"><a xlink:href="../../tables/doc_condreport_property_config.html" xlink:title="doc_condreport_property_config" target="_top">
<polygon fill="#ffffff" stroke="none" points="327.75,-38.5 327.75,-349.5 772.5,-349.5 772.5,-38.5 327.75,-38.5"/>
<polygon fill="#f5f5f5" stroke="none" points="329.75,-324 329.75,-347.5 770.5,-347.5 770.5,-324 329.75,-324"/>
<polygon fill="none" stroke="black" points="329.75,-324 329.75,-347.5 770.5,-347.5 770.5,-324 329.75,-324"/>
<text text-anchor="start" x="334.75" y="-333.05" font-family="Helvetica,sans-Serif" font-weight="bold" font-size="11.00">doc_condreport_property_config</text>
<text text-anchor="start" x="728.75" y="-332.05" font-family="Helvetica,sans-Serif" font-size="11.00">[table]</text>
<polygon fill="none" stroke="black" points="329.75,-302 329.75,-324 585.75,-324 585.75,-302 329.75,-302"/>
<image xlink:href="../../images/primaryKeys.png" width="11px" height="12px" preserveAspectRatio="xMinYMin meet" x="334.75" y="-319"/>
<text text-anchor="start" x="349.75" y="-308.55" font-family="Helvetica,sans-Serif" font-size="11.00">identifier</text>
<polygon fill="none" stroke="black" points="585.75,-302 585.75,-324 722,-324 722,-302 585.75,-302"/>
<text text-anchor="start" x="588.75" y="-309.3" font-family="Helvetica,sans-Serif" font-size="11.00">varchar[191]</text>
<polygon fill="none" stroke="black" points="329.75,-280 329.75,-302 585.75,-302 585.75,-280 329.75,-280"/>
<text text-anchor="start" x="349.75" y="-286.55" font-family="Helvetica,sans-Serif" font-size="11.00">required</text>
<polygon fill="none" stroke="black" points="585.75,-280 585.75,-302 722,-302 722,-280 585.75,-280"/>
<text text-anchor="start" x="588.75" y="-287.3" font-family="Helvetica,sans-Serif" font-size="11.00">bit[1]</text>
<polygon fill="none" stroke="black" points="329.75,-258 329.75,-280 585.75,-280 585.75,-258 329.75,-258"/>
<text text-anchor="start" x="349.75" y="-264.55" font-family="Helvetica,sans-Serif" font-size="11.00">allow_comment</text>
<polygon fill="none" stroke="black" points="585.75,-258 585.75,-280 722,-280 722,-258 585.75,-258"/>
<text text-anchor="start" x="588.75" y="-265.3" font-family="Helvetica,sans-Serif" font-size="11.00">bit[1]</text>
<polygon fill="#ffffff" stroke="none" points="329.75,-236 329.75,-258 585.75,-258 585.75,-236 329.75,-236"/>
<polygon fill="none" stroke="black" points="329.75,-236 329.75,-258 585.75,-258 585.75,-236 329.75,-236"/>
<image xlink:href="../../images/foreignKeys.png" width="11px" height="12px" preserveAspectRatio="xMinYMin meet" x="334.75" y="-253"/>
<text text-anchor="start" x="349.75" y="-242.55" font-family="Helvetica,sans-Serif" font-size="11.00">library</text>
<polygon fill="none" stroke="black" points="585.75,-236 585.75,-258 722,-258 722,-236 585.75,-236"/>
<text text-anchor="start" x="588.75" y="-243.3" font-family="Helvetica,sans-Serif" font-size="11.00">varchar[191]</text>
<polygon fill="#ffffff" stroke="none" points="329.75,-214 329.75,-236 585.75,-236 585.75,-214 329.75,-214"/>
<polygon fill="none" stroke="black" points="329.75,-214 329.75,-236 585.75,-236 585.75,-214 329.75,-214"/>
<image xlink:href="../../images/foreignKeys.png" width="11px" height="12px" preserveAspectRatio="xMinYMin meet" x="334.75" y="-231"/>
<text text-anchor="start" x="349.75" y="-220.55" font-family="Helvetica,sans-Serif" font-size="11.00">desc_property</text>
<polygon fill="none" stroke="black" points="585.75,-214 585.75,-236 722,-236 722,-214 585.75,-214"/>
<text text-anchor="start" x="588.75" y="-221.3" font-family="Helvetica,sans-Serif" font-size="11.00">varchar[191]</text>
<polygon fill="none" stroke="black" points="329.75,-192 329.75,-214 585.75,-214 585.75,-192 329.75,-192"/>
<text text-anchor="start" x="349.75" y="-198.55" font-family="Helvetica,sans-Serif" font-size="11.00">version</text>
<polygon fill="none" stroke="black" points="585.75,-192 585.75,-214 722,-214 722,-192 585.75,-192"/>
<text text-anchor="start" x="588.75" y="-199.3" font-family="Helvetica,sans-Serif" font-size="11.00">bigint[19]</text>
<polygon fill="none" stroke="black" points="329.75,-170 329.75,-192 585.75,-192 585.75,-170 329.75,-170"/>
<text text-anchor="start" x="349.75" y="-176.55" font-family="Helvetica,sans-Serif" font-size="11.00">created_by</text>
<polygon fill="none" stroke="black" points="585.75,-170 585.75,-192 722,-192 722,-170 585.75,-170"/>
<text text-anchor="start" x="588.75" y="-177.3" font-family="Helvetica,sans-Serif" font-size="11.00">varchar[191]</text>
<polygon fill="none" stroke="black" points="329.75,-148 329.75,-170 585.75,-170 585.75,-148 329.75,-148"/>
<text text-anchor="start" x="349.75" y="-154.55" font-family="Helvetica,sans-Serif" font-size="11.00">last_modified_by</text>
<polygon fill="none" stroke="black" points="585.75,-148 585.75,-170 722,-170 722,-148 585.75,-148"/>
<text text-anchor="start" x="588.75" y="-155.3" font-family="Helvetica,sans-Serif" font-size="11.00">varchar[191]</text>
<polygon fill="none" stroke="black" points="329.75,-126 329.75,-148 585.75,-148 585.75,-126 329.75,-126"/>
<text text-anchor="start" x="349.75" y="-132.55" font-family="Helvetica,sans-Serif" font-size="11.00">created_date</text>
<polygon fill="none" stroke="black" points="585.75,-126 585.75,-148 722,-148 722,-126 585.75,-126"/>
<text text-anchor="start" x="588.75" y="-133.3" font-family="Helvetica,sans-Serif" font-size="11.00">timestamp[19]</text>
<polygon fill="none" stroke="black" points="329.75,-104 329.75,-126 585.75,-126 585.75,-104 329.75,-104"/>
<text text-anchor="start" x="349.75" y="-110.55" font-family="Helvetica,sans-Serif" font-size="11.00">last_modified_date</text>
<polygon fill="none" stroke="black" points="585.75,-104 585.75,-126 722,-126 722,-104 585.75,-104"/>
<text text-anchor="start" x="588.75" y="-111.3" font-family="Helvetica,sans-Serif" font-size="11.00">timestamp[19]</text>
<polygon fill="none" stroke="black" points="329.75,-82 329.75,-104 585.75,-104 585.75,-82 329.75,-82"/>
<text text-anchor="start" x="349.75" y="-88.55" font-family="Helvetica,sans-Serif" font-size="11.00">show_on_creation</text>
<polygon fill="none" stroke="black" points="585.75,-82 585.75,-104 722,-104 722,-82 585.75,-82"/>
<text text-anchor="start" x="588.75" y="-89.3" font-family="Helvetica,sans-Serif" font-size="11.00">bit[1]</text>
<polygon fill="none" stroke="black" points="329.75,-60 329.75,-82 585.75,-82 585.75,-60 329.75,-60"/>
<text text-anchor="start" x="349.75" y="-66.55" font-family="Helvetica,sans-Serif" font-size="11.00">internal_prop</text>
<polygon fill="none" stroke="black" points="585.75,-60 585.75,-82 722,-82 722,-60 585.75,-60"/>
<text text-anchor="start" x="588.75" y="-67.3" font-family="Helvetica,sans-Serif" font-size="11.00">varchar[255]</text>
<polygon fill="#ffffff" stroke="none" points="329.75,-40.5 329.75,-60 770.5,-60 770.5,-40.5 329.75,-40.5"/>
<polygon fill="none" stroke="black" points="329.75,-40.5 329.75,-60 770.5,-60 770.5,-40.5 329.75,-40.5"/>
<polygon fill="#ffffff" stroke="none" points="330.75,-41.5 330.75,-59 481,-59 481,-41.5 330.75,-41.5"/>
<text text-anchor="start" x="332.75" y="-46.55" font-family="Helvetica,sans-Serif" font-size="11.00">&lt; 2</text>
<polygon fill="#ffffff" stroke="none" points="481,-41.5 481,-59 619.25,-59 619.25,-41.5 481,-41.5"/>
<text text-anchor="start" x="546.38" y="-46.55" font-family="Helvetica,sans-Serif" font-size="11.00"> &#160;</text>
<polygon fill="#ffffff" stroke="none" points="619.25,-41.5 619.25,-59 769.5,-59 769.5,-41.5 619.25,-41.5"/>
<text text-anchor="start" x="748" y="-46.55" font-family="Helvetica,sans-Serif" font-size="11.00">1 &gt;</text>
<polygon fill="black" stroke="black" points="481,-41.5 481,-59 481,-59 481,-41.5 481,-41.5"/>
<polygon fill="black" stroke="black" points="619.25,-41.5 619.25,-59 619.25,-59 619.25,-41.5 619.25,-41.5"/>
<polygon fill="none" stroke="black" stroke-width="2" points="328.75,-39.5 328.75,-348.5 771.5,-348.5 771.5,-39.5 328.75,-39.5"/>
</a>
</g>
</g>
<!-- doc_condreport_desc_property -->
<g id="node2" class="node">
<title>doc_condreport_desc_property</title>
<g id="a_node2"><a xlink:href="../../tables/doc_condreport_desc_property.html" xlink:title="doc_condreport_desc_property" target="_top">
<polygon fill="#ffffff" stroke="none" points="8,-67.75 8,-152.25 278.75,-152.25 278.75,-67.75 8,-67.75"/>
<polygon fill="#f5f5f5" stroke="none" points="8,-128.75 8,-152.25 278.75,-152.25 278.75,-128.75 8,-128.75"/>
<polygon fill="none" stroke="black" points="8,-128.75 8,-152.25 278.75,-152.25 278.75,-128.75 8,-128.75"/>
<text text-anchor="start" x="13" y="-137.8" font-family="Helvetica,sans-Serif" font-weight="bold" font-size="11.00">doc_condreport_desc_property</text>
<text text-anchor="start" x="237" y="-136.8" font-family="Helvetica,sans-Serif" font-size="11.00">[table]</text>
<polygon fill="none" stroke="black" points="8,-106.75 8,-128.75 278.75,-128.75 278.75,-106.75 8,-106.75"/>
<image xlink:href="../../images/primaryKeys.png" width="11px" height="12px" preserveAspectRatio="xMinYMin meet" x="13" y="-123.75"/>
<text text-anchor="start" x="40.88" y="-113.3" font-family="Helvetica,sans-Serif" font-size="11.00">identifier</text>
<polygon fill="none" stroke="black" points="8,-87.25 8,-106.75 278.75,-106.75 278.75,-87.25 8,-87.25"/>
<text text-anchor="start" x="11" y="-93.3" font-family="Helvetica,sans-Serif" font-size="11.00">...</text>
<polygon fill="#ffffff" stroke="none" points="8,-67.75 8,-87.25 278.75,-87.25 278.75,-67.75 8,-67.75"/>
<polygon fill="none" stroke="black" points="8,-67.75 8,-87.25 278.75,-87.25 278.75,-67.75 8,-67.75"/>
<polygon fill="#ffffff" stroke="none" points="9,-68.75 9,-86.25 94.58,-86.25 94.58,-68.75 9,-68.75"/>
<text text-anchor="start" x="11" y="-73.8" font-family="Helvetica,sans-Serif" font-size="11.00"> &#160;</text>
<polygon fill="#ffffff" stroke="none" points="94.58,-68.75 94.58,-86.25 180.17,-86.25 180.17,-68.75 94.58,-68.75"/>
<text text-anchor="start" x="133.62" y="-73.8" font-family="Helvetica,sans-Serif" font-size="11.00"> &#160;</text>
<polygon fill="#ffffff" stroke="none" points="180.17,-68.75 180.17,-86.25 277.75,-86.25 277.75,-68.75 180.17,-68.75"/>
<text text-anchor="start" x="256.25" y="-73.8" font-family="Helvetica,sans-Serif" font-size="11.00">3 &gt;</text>
<polygon fill="black" stroke="black" points="94.58,-68.75 94.58,-86.25 94.58,-86.25 94.58,-68.75 94.58,-68.75"/>
<polygon fill="black" stroke="black" points="180.17,-68.75 180.17,-86.25 180.17,-86.25 180.17,-68.75 180.17,-68.75"/>
</a>
</g>
</g>
<!-- doc_condreport_property_config&#45;&gt;doc_condreport_desc_property -->
<g id="edge1" class="edge">
<title>doc_condreport_property_config:w&#45;&gt;doc_condreport_desc_property:e</title>
<path fill="none" stroke="black" d="M313.75,-220.39C288.61,-199.86 325.61,-117.75 279.75,-117.75"/>
<polygon fill="black" stroke="black" points="320.78,-222.55 327.37,-228.34 324.93,-223.83 328.11,-224.8 328.11,-224.8 328.11,-224.8 324.93,-223.83 329.49,-221.46 320.78,-222.55"/>
<ellipse fill="none" stroke="black" cx="316.08" cy="-221.11" rx="3.2" ry="3.2"/>
</g>
<!-- lib_library -->
<g id="node3" class="node">
<title>lib_library</title>
<g id="a_node3"><a xlink:href="../../tables/lib_library.html" xlink:title="lib_library" target="_top">
<polygon fill="#ffffff" stroke="none" points="17.38,-173.75 17.38,-390.25 269.38,-390.25 269.38,-173.75 17.38,-173.75"/>
<polygon fill="#f5f5f5" stroke="none" points="17.38,-366.75 17.38,-390.25 269.38,-390.25 269.38,-366.75 17.38,-366.75"/>
<polygon fill="none" stroke="black" points="17.38,-366.75 17.38,-390.25 269.38,-390.25 269.38,-366.75 17.38,-366.75"/>
<text text-anchor="start" x="22.38" y="-375.8" font-family="Helvetica,sans-Serif" font-weight="bold" font-size="11.00">lib_library</text>
<text text-anchor="start" x="227.62" y="-374.8" font-family="Helvetica,sans-Serif" font-size="11.00">[table]</text>
<polygon fill="none" stroke="black" points="17.38,-344.75 17.38,-366.75 269.38,-366.75 269.38,-344.75 17.38,-344.75"/>
<image xlink:href="../../images/primaryKeys.png" width="11px" height="12px" preserveAspectRatio="xMinYMin meet" x="22.375" y="-361.75"/>
<text text-anchor="start" x="37.38" y="-351.3" font-family="Helvetica,sans-Serif" font-size="11.00">identifier</text>
<polygon fill="#ffffff" stroke="none" points="17.38,-322.75 17.38,-344.75 269.38,-344.75 269.38,-322.75 17.38,-322.75"/>
<polygon fill="none" stroke="black" points="17.38,-322.75 17.38,-344.75 269.38,-344.75 269.38,-322.75 17.38,-322.75"/>
<image xlink:href="../../images/foreignKeys.png" width="11px" height="12px" preserveAspectRatio="xMinYMin meet" x="22.375" y="-339.75"/>
<text text-anchor="start" x="37.38" y="-329.3" font-family="Helvetica,sans-Serif" font-size="11.00">address</text>
<polygon fill="#ffffff" stroke="none" points="17.38,-300.75 17.38,-322.75 269.38,-322.75 269.38,-300.75 17.38,-300.75"/>
<polygon fill="none" stroke="black" points="17.38,-300.75 17.38,-322.75 269.38,-322.75 269.38,-300.75 17.38,-300.75"/>
<image xlink:href="../../images/foreignKeys.png" width="11px" height="12px" preserveAspectRatio="xMinYMin meet" x="22.375" y="-317.75"/>
<text text-anchor="start" x="37.38" y="-307.3" font-family="Helvetica,sans-Serif" font-size="11.00">active_configuration_ftp</text>
<polygon fill="#ffffff" stroke="none" points="17.38,-278.75 17.38,-300.75 269.38,-300.75 269.38,-278.75 17.38,-278.75"/>
<polygon fill="none" stroke="black" points="17.38,-278.75 17.38,-300.75 269.38,-300.75 269.38,-278.75 17.38,-278.75"/>
<image xlink:href="../../images/foreignKeys.png" width="11px" height="12px" preserveAspectRatio="xMinYMin meet" x="22.375" y="-295.75"/>
<text text-anchor="start" x="37.38" y="-285.3" font-family="Helvetica,sans-Serif" font-size="11.00">active_configuration_check</text>
<polygon fill="#ffffff" stroke="none" points="17.38,-256.75 17.38,-278.75 269.38,-278.75 269.38,-256.75 17.38,-256.75"/>
<polygon fill="none" stroke="black" points="17.38,-256.75 17.38,-278.75 269.38,-278.75 269.38,-256.75 17.38,-256.75"/>
<image xlink:href="../../images/foreignKeys.png" width="11px" height="12px" preserveAspectRatio="xMinYMin meet" x="22.375" y="-273.75"/>
<text text-anchor="start" x="37.38" y="-263.3" font-family="Helvetica,sans-Serif" font-size="11.00">role</text>
<polygon fill="#ffffff" stroke="none" points="17.38,-234.75 17.38,-256.75 269.38,-256.75 269.38,-234.75 17.38,-234.75"/>
<polygon fill="none" stroke="black" points="17.38,-234.75 17.38,-256.75 269.38,-256.75 269.38,-234.75 17.38,-234.75"/>
<image xlink:href="../../images/foreignKeys.png" width="11px" height="12px" preserveAspectRatio="xMinYMin meet" x="22.375" y="-251.75"/>
<text text-anchor="start" x="37.38" y="-241.3" font-family="Helvetica,sans-Serif" font-size="11.00">active_configuration_export_ftp</text>
<polygon fill="#ffffff" stroke="none" points="17.38,-212.75 17.38,-234.75 269.38,-234.75 269.38,-212.75 17.38,-212.75"/>
<polygon fill="none" stroke="black" points="17.38,-212.75 17.38,-234.75 269.38,-234.75 269.38,-212.75 17.38,-212.75"/>
<image xlink:href="../../images/foreignKeys.png" width="11px" height="12px" preserveAspectRatio="xMinYMin meet" x="22.375" y="-229.75"/>
<text text-anchor="start" x="37.38" y="-219.3" font-family="Helvetica,sans-Serif" font-size="11.00">active_configuration_ocr_lang</text>
<polygon fill="none" stroke="black" points="17.38,-193.25 17.38,-212.75 269.38,-212.75 269.38,-193.25 17.38,-193.25"/>
<text text-anchor="start" x="20.38" y="-199.3" font-family="Helvetica,sans-Serif" font-size="11.00">...</text>
<polygon fill="#ffffff" stroke="none" points="17.38,-173.75 17.38,-193.25 269.38,-193.25 269.38,-173.75 17.38,-173.75"/>
<polygon fill="none" stroke="black" points="17.38,-173.75 17.38,-193.25 269.38,-193.25 269.38,-173.75 17.38,-173.75"/>
<polygon fill="#ffffff" stroke="none" points="18.38,-174.75 18.38,-192.25 103.46,-192.25 103.46,-174.75 18.38,-174.75"/>
<text text-anchor="start" x="20.38" y="-179.8" font-family="Helvetica,sans-Serif" font-size="11.00">&lt; 6</text>
<polygon fill="#ffffff" stroke="none" points="103.46,-174.75 103.46,-192.25 176.54,-192.25 176.54,-174.75 103.46,-174.75"/>
<text text-anchor="start" x="136.25" y="-179.8" font-family="Helvetica,sans-Serif" font-size="11.00"> &#160;</text>
<polygon fill="#ffffff" stroke="none" points="176.54,-174.75 176.54,-192.25 268.38,-192.25 268.38,-174.75 176.54,-174.75"/>
<text text-anchor="start" x="240.13" y="-179.8" font-family="Helvetica,sans-Serif" font-size="11.00">27 &gt;</text>
<polygon fill="black" stroke="black" points="103.46,-174.75 103.46,-192.25 103.46,-192.25 103.46,-174.75 103.46,-174.75"/>
<polygon fill="black" stroke="black" points="176.54,-174.75 176.54,-192.25 176.54,-192.25 176.54,-174.75 176.54,-174.75"/>
</a>
</g>
</g>
<!-- doc_condreport_property_config&#45;&gt;lib_library -->
<g id="edge2" class="edge">
<title>doc_condreport_property_config:w&#45;&gt;lib_library:e</title>
<path fill="none" stroke="black" d="M313.5,-251.13C284.47,-270.99 318.8,-355.75 270.38,-355.75"/>
<polygon fill="black" stroke="black" points="320.71,-249.18 329.37,-250.56 324.89,-248.05 328.1,-247.17 328.1,-247.17 328.1,-247.17 324.89,-248.05 327.49,-243.61 320.71,-249.18"/>
<ellipse fill="none" stroke="black" cx="315.96" cy="-250.46" rx="3.2" ry="3.2"/>
</g>
<!-- doc_condreport_property_config_type -->
<g id="node4" class="node">
<title>doc_condreport_property_config_type</title>
<g id="a_node4"><a xlink:href="../../tables/doc_condreport_property_config_type.html" xlink:title="doc_condreport_property_config_type" target="_top">
<polygon fill="#ffffff" stroke="none" points="821.5,-262.75 821.5,-347.25 1143.25,-347.25 1143.25,-262.75 821.5,-262.75"/>
<polygon fill="#f5f5f5" stroke="none" points="821.5,-323.75 821.5,-347.25 1143.25,-347.25 1143.25,-323.75 821.5,-323.75"/>
<polygon fill="none" stroke="black" points="821.5,-323.75 821.5,-347.25 1143.25,-347.25 1143.25,-323.75 821.5,-323.75"/>
<text text-anchor="start" x="826.5" y="-332.8" font-family="Helvetica,sans-Serif" font-weight="bold" font-size="11.00">doc_condreport_property_config_type</text>
<text text-anchor="start" x="1101.5" y="-331.8" font-family="Helvetica,sans-Serif" font-size="11.00">[table]</text>
<polygon fill="#ffffff" stroke="none" points="821.5,-301.75 821.5,-323.75 1143.25,-323.75 1143.25,-301.75 821.5,-301.75"/>
<polygon fill="none" stroke="black" points="821.5,-301.75 821.5,-323.75 1143.25,-323.75 1143.25,-301.75 821.5,-301.75"/>
<image xlink:href="../../images/foreignKeys.png" width="11px" height="12px" preserveAspectRatio="xMinYMin meet" x="826.5" y="-318.75"/>
<text text-anchor="start" x="854.38" y="-308.3" font-family="Helvetica,sans-Serif" font-size="11.00">conf</text>
<polygon fill="none" stroke="black" points="821.5,-282.25 821.5,-301.75 1143.25,-301.75 1143.25,-282.25 821.5,-282.25"/>
<text text-anchor="start" x="824.5" y="-288.3" font-family="Helvetica,sans-Serif" font-size="11.00">...</text>
<polygon fill="#ffffff" stroke="none" points="821.5,-262.75 821.5,-282.25 1143.25,-282.25 1143.25,-262.75 821.5,-262.75"/>
<polygon fill="none" stroke="black" points="821.5,-262.75 821.5,-282.25 1143.25,-282.25 1143.25,-262.75 821.5,-262.75"/>
<polygon fill="#ffffff" stroke="none" points="822.5,-263.75 822.5,-281.25 937.08,-281.25 937.08,-263.75 822.5,-263.75"/>
<text text-anchor="start" x="824.5" y="-268.8" font-family="Helvetica,sans-Serif" font-size="11.00">&lt; 1</text>
<polygon fill="#ffffff" stroke="none" points="937.08,-263.75 937.08,-281.25 1039.67,-281.25 1039.67,-263.75 937.08,-263.75"/>
<text text-anchor="start" x="984.62" y="-268.8" font-family="Helvetica,sans-Serif" font-size="11.00"> &#160;</text>
<polygon fill="#ffffff" stroke="none" points="1039.67,-263.75 1039.67,-281.25 1142.25,-281.25 1142.25,-263.75 1039.67,-263.75"/>
<text text-anchor="start" x="1132.75" y="-268.8" font-family="Helvetica,sans-Serif" font-size="11.00"> &#160;</text>
<polygon fill="black" stroke="black" points="937.08,-263.75 937.08,-281.25 937.08,-281.25 937.08,-263.75 937.08,-263.75"/>
<polygon fill="black" stroke="black" points="1039.67,-263.75 1039.67,-281.25 1039.67,-281.25 1039.67,-263.75 1039.67,-263.75"/>
</a>
</g>
</g>
<!-- doc_condreport_property_config_type&#45;&gt;doc_condreport_property_config -->
<g id="edge3" class="edge">
<title>doc_condreport_property_config_type:w&#45;&gt;doc_condreport_property_config:e</title>
<path fill="none" stroke="black" d="M804.8,-312.76C773.72,-312.81 760.58,-313 723,-313"/>
<polygon fill="black" stroke="black" points="812.17,-312.76 820.17,-316.35 816.5,-312.75 819.83,-312.75 819.83,-312.75 819.83,-312.75 816.5,-312.75 820.16,-309.15 812.17,-312.76"/>
<ellipse fill="none" stroke="black" cx="807.25" cy="-312.76" rx="3.2" ry="3.2"/>
</g>
</g>
</svg>
