<?xml version="1.0" encoding="UTF-8" standalone="no"?>
<!DOCTYPE svg PUBLIC "-//W3C//DTD SVG 1.1//EN"
 "http://www.w3.org/Graphics/SVG/1.1/DTD/svg11.dtd">
<!-- Generated by graphviz version 12.2.1 (0)
 -->
<!-- Title: oneDegreeRelationshipsDiagram Pages: 1 -->
<svg width="900pt" height="728pt"
 viewBox="0.00 0.00 900.00 728.00" xmlns="http://www.w3.org/2000/svg" xmlns:xlink="http://www.w3.org/1999/xlink">
<g id="graph0" class="graph" transform="scale(1 1) rotate(0) translate(4 724)">
<title>oneDegreeRelationshipsDiagram</title>
<polygon fill="#ffffff" stroke="none" points="-4,4 -4,-724 896,-724 896,4 -4,4"/>
<text text-anchor="middle" x="79.25" y="-7.05" font-family="Helvetica,sans-Serif" font-size="11.00">Generated by SchemaSpy</text>
<!-- doc_physical_document -->
<g id="node1" class="node">
<title>doc_physical_document</title>
<g id="a_node1"><a xlink:href="../../tables/doc_physical_document.html" xlink:title="doc_physical_document" target="_top">
<polygon fill="#ffffff" stroke="none" points="665.25,-587.5 665.25,-716 884,-716 884,-587.5 665.25,-587.5"/>
<polygon fill="#f5f5f5" stroke="none" points="665.25,-692.5 665.25,-716 884,-716 884,-692.5 665.25,-692.5"/>
<polygon fill="none" stroke="black" points="665.25,-692.5 665.25,-716 884,-716 884,-692.5 665.25,-692.5"/>
<text text-anchor="start" x="670.25" y="-701.55" font-family="Helvetica,sans-Serif" font-weight="bold" font-size="11.00">doc_physical_document</text>
<text text-anchor="start" x="842.25" y="-700.55" font-family="Helvetica,sans-Serif" font-size="11.00">[table]</text>
<polygon fill="none" stroke="black" points="665.25,-670.5 665.25,-692.5 884,-692.5 884,-670.5 665.25,-670.5"/>
<image xlink:href="../../images/primaryKeys.png" width="11px" height="12px" preserveAspectRatio="xMinYMin meet" x="670.25" y="-687.5"/>
<text text-anchor="start" x="698.12" y="-677.05" font-family="Helvetica,sans-Serif" font-size="11.00">identifier</text>
<polygon fill="#ffffff" stroke="none" points="665.25,-648.5 665.25,-670.5 884,-670.5 884,-648.5 665.25,-648.5"/>
<polygon fill="none" stroke="black" points="665.25,-648.5 665.25,-670.5 884,-670.5 884,-648.5 665.25,-648.5"/>
<image xlink:href="../../images/foreignKeys.png" width="11px" height="12px" preserveAspectRatio="xMinYMin meet" x="670.25" y="-665.5"/>
<text text-anchor="start" x="698.12" y="-655.05" font-family="Helvetica,sans-Serif" font-size="11.00">doc_unit</text>
<polygon fill="#ffffff" stroke="none" points="665.25,-626.5 665.25,-648.5 884,-648.5 884,-626.5 665.25,-626.5"/>
<polygon fill="none" stroke="black" points="665.25,-626.5 665.25,-648.5 884,-648.5 884,-626.5 665.25,-626.5"/>
<image xlink:href="../../images/foreignKeys.png" width="11px" height="12px" preserveAspectRatio="xMinYMin meet" x="670.25" y="-643.5"/>
<text text-anchor="start" x="698.12" y="-633.05" font-family="Helvetica,sans-Serif" font-size="11.00">train</text>
<polygon fill="none" stroke="black" points="665.25,-607 665.25,-626.5 884,-626.5 884,-607 665.25,-607"/>
<text text-anchor="start" x="668.25" y="-613.05" font-family="Helvetica,sans-Serif" font-size="11.00">...</text>
<polygon fill="#ffffff" stroke="none" points="665.25,-587.5 665.25,-607 884,-607 884,-587.5 665.25,-587.5"/>
<polygon fill="none" stroke="black" points="665.25,-587.5 665.25,-607 884,-607 884,-587.5 665.25,-587.5"/>
<polygon fill="#ffffff" stroke="none" points="666.25,-588.5 666.25,-606 742.5,-606 742.5,-588.5 666.25,-588.5"/>
<text text-anchor="start" x="668.25" y="-593.55" font-family="Helvetica,sans-Serif" font-size="11.00">&lt; 2</text>
<polygon fill="#ffffff" stroke="none" points="742.5,-588.5 742.5,-606 806.75,-606 806.75,-588.5 742.5,-588.5"/>
<text text-anchor="start" x="770.88" y="-593.55" font-family="Helvetica,sans-Serif" font-size="11.00"> &#160;</text>
<polygon fill="#ffffff" stroke="none" points="806.75,-588.5 806.75,-606 883,-606 883,-588.5 806.75,-588.5"/>
<text text-anchor="start" x="861.5" y="-593.55" font-family="Helvetica,sans-Serif" font-size="11.00">2 &gt;</text>
<polygon fill="black" stroke="black" points="742.5,-588.5 742.5,-606 742.5,-606 742.5,-588.5 742.5,-588.5"/>
<polygon fill="black" stroke="black" points="806.75,-588.5 806.75,-606 806.75,-606 806.75,-588.5 806.75,-588.5"/>
</a>
</g>
</g>
<!-- train_train -->
<g id="node2" class="node">
<title>train_train</title>
<g id="a_node2"><a xlink:href="../../tables/train_train.html" xlink:title="train_train" target="_top">
<polygon fill="#ffffff" stroke="none" points="320,-341.25 320,-674.25 616.25,-674.25 616.25,-341.25 320,-341.25"/>
<polygon fill="#f5f5f5" stroke="none" points="322,-648.75 322,-672.25 614.25,-672.25 614.25,-648.75 322,-648.75"/>
<polygon fill="none" stroke="black" points="322,-648.75 322,-672.25 614.25,-672.25 614.25,-648.75 322,-648.75"/>
<text text-anchor="start" x="327" y="-657.8" font-family="Helvetica,sans-Serif" font-weight="bold" font-size="11.00">train_train</text>
<text text-anchor="start" x="572.5" y="-656.8" font-family="Helvetica,sans-Serif" font-size="11.00">[table]</text>
<polygon fill="none" stroke="black" points="322,-626.75 322,-648.75 509,-648.75 509,-626.75 322,-626.75"/>
<image xlink:href="../../images/primaryKeys.png" width="11px" height="12px" preserveAspectRatio="xMinYMin meet" x="327" y="-643.75"/>
<text text-anchor="start" x="342" y="-633.3" font-family="Helvetica,sans-Serif" font-size="11.00">identifier</text>
<polygon fill="none" stroke="black" points="509,-626.75 509,-648.75 605.5,-648.75 605.5,-626.75 509,-626.75"/>
<text text-anchor="start" x="512" y="-634.05" font-family="Helvetica,sans-Serif" font-size="11.00">varchar[191]</text>
<polygon fill="none" stroke="black" points="322,-604.75 322,-626.75 509,-626.75 509,-604.75 322,-604.75"/>
<text text-anchor="start" x="342" y="-611.3" font-family="Helvetica,sans-Serif" font-size="11.00">label</text>
<polygon fill="none" stroke="black" points="509,-604.75 509,-626.75 605.5,-626.75 605.5,-604.75 509,-604.75"/>
<text text-anchor="start" x="512" y="-612.05" font-family="Helvetica,sans-Serif" font-size="11.00">varchar[255]</text>
<polygon fill="none" stroke="black" points="322,-582.75 322,-604.75 509,-604.75 509,-582.75 322,-582.75"/>
<text text-anchor="start" x="342" y="-589.3" font-family="Helvetica,sans-Serif" font-size="11.00">description</text>
<polygon fill="none" stroke="black" points="509,-582.75 509,-604.75 605.5,-604.75 605.5,-582.75 509,-582.75"/>
<text text-anchor="start" x="512" y="-590.05" font-family="Helvetica,sans-Serif" font-size="11.00">varchar[2000]</text>
<polygon fill="none" stroke="black" points="322,-560.75 322,-582.75 509,-582.75 509,-560.75 322,-560.75"/>
<text text-anchor="start" x="342" y="-567.3" font-family="Helvetica,sans-Serif" font-size="11.00">active</text>
<polygon fill="none" stroke="black" points="509,-560.75 509,-582.75 605.5,-582.75 605.5,-560.75 509,-560.75"/>
<text text-anchor="start" x="512" y="-568.05" font-family="Helvetica,sans-Serif" font-size="11.00">bit[1]</text>
<polygon fill="none" stroke="black" points="322,-538.75 322,-560.75 509,-560.75 509,-538.75 322,-538.75"/>
<text text-anchor="start" x="342" y="-545.3" font-family="Helvetica,sans-Serif" font-size="11.00">status</text>
<polygon fill="none" stroke="black" points="509,-538.75 509,-560.75 605.5,-560.75 605.5,-538.75 509,-538.75"/>
<text text-anchor="start" x="512" y="-546.05" font-family="Helvetica,sans-Serif" font-size="11.00">varchar[255]</text>
<polygon fill="none" stroke="black" points="322,-516.75 322,-538.75 509,-538.75 509,-516.75 322,-516.75"/>
<text text-anchor="start" x="342" y="-523.3" font-family="Helvetica,sans-Serif" font-size="11.00">provider_sending_date</text>
<polygon fill="none" stroke="black" points="509,-516.75 509,-538.75 605.5,-538.75 605.5,-516.75 509,-516.75"/>
<text text-anchor="start" x="512" y="-524.05" font-family="Helvetica,sans-Serif" font-size="11.00">date[10]</text>
<polygon fill="none" stroke="black" points="322,-494.75 322,-516.75 509,-516.75 509,-494.75 322,-494.75"/>
<text text-anchor="start" x="342" y="-501.3" font-family="Helvetica,sans-Serif" font-size="11.00">return_date</text>
<polygon fill="none" stroke="black" points="509,-494.75 509,-516.75 605.5,-516.75 605.5,-494.75 509,-494.75"/>
<text text-anchor="start" x="512" y="-502.05" font-family="Helvetica,sans-Serif" font-size="11.00">date[10]</text>
<polygon fill="none" stroke="black" points="322,-472.75 322,-494.75 509,-494.75 509,-472.75 322,-472.75"/>
<text text-anchor="start" x="342" y="-479.3" font-family="Helvetica,sans-Serif" font-size="11.00">version</text>
<polygon fill="none" stroke="black" points="509,-472.75 509,-494.75 605.5,-494.75 605.5,-472.75 509,-472.75"/>
<text text-anchor="start" x="512" y="-480.05" font-family="Helvetica,sans-Serif" font-size="11.00">bigint[19]</text>
<polygon fill="none" stroke="black" points="322,-450.75 322,-472.75 509,-472.75 509,-450.75 322,-450.75"/>
<text text-anchor="start" x="342" y="-457.3" font-family="Helvetica,sans-Serif" font-size="11.00">created_by</text>
<polygon fill="none" stroke="black" points="509,-450.75 509,-472.75 605.5,-472.75 605.5,-450.75 509,-450.75"/>
<text text-anchor="start" x="512" y="-458.05" font-family="Helvetica,sans-Serif" font-size="11.00">varchar[191]</text>
<polygon fill="none" stroke="black" points="322,-428.75 322,-450.75 509,-450.75 509,-428.75 322,-428.75"/>
<text text-anchor="start" x="342" y="-435.3" font-family="Helvetica,sans-Serif" font-size="11.00">last_modified_by</text>
<polygon fill="none" stroke="black" points="509,-428.75 509,-450.75 605.5,-450.75 605.5,-428.75 509,-428.75"/>
<text text-anchor="start" x="512" y="-436.05" font-family="Helvetica,sans-Serif" font-size="11.00">varchar[191]</text>
<polygon fill="none" stroke="black" points="322,-406.75 322,-428.75 509,-428.75 509,-406.75 322,-406.75"/>
<text text-anchor="start" x="342" y="-413.3" font-family="Helvetica,sans-Serif" font-size="11.00">created_date</text>
<polygon fill="none" stroke="black" points="509,-406.75 509,-428.75 605.5,-428.75 605.5,-406.75 509,-406.75"/>
<text text-anchor="start" x="512" y="-414.05" font-family="Helvetica,sans-Serif" font-size="11.00">timestamp[19]</text>
<polygon fill="none" stroke="black" points="322,-384.75 322,-406.75 509,-406.75 509,-384.75 322,-384.75"/>
<text text-anchor="start" x="342" y="-391.3" font-family="Helvetica,sans-Serif" font-size="11.00">last_modified_date</text>
<polygon fill="none" stroke="black" points="509,-384.75 509,-406.75 605.5,-406.75 605.5,-384.75 509,-384.75"/>
<text text-anchor="start" x="512" y="-392.05" font-family="Helvetica,sans-Serif" font-size="11.00">timestamp[19]</text>
<polygon fill="#ffffff" stroke="none" points="322,-362.75 322,-384.75 509,-384.75 509,-362.75 322,-362.75"/>
<polygon fill="none" stroke="black" points="322,-362.75 322,-384.75 509,-384.75 509,-362.75 322,-362.75"/>
<image xlink:href="../../images/foreignKeys.png" width="11px" height="12px" preserveAspectRatio="xMinYMin meet" x="327" y="-379.75"/>
<text text-anchor="start" x="342" y="-369.3" font-family="Helvetica,sans-Serif" font-size="11.00">project</text>
<polygon fill="none" stroke="black" points="509,-362.75 509,-384.75 605.5,-384.75 605.5,-362.75 509,-362.75"/>
<text text-anchor="start" x="512" y="-370.05" font-family="Helvetica,sans-Serif" font-size="11.00">varchar[191]</text>
<polygon fill="#ffffff" stroke="none" points="322,-343.25 322,-362.75 614.25,-362.75 614.25,-343.25 322,-343.25"/>
<polygon fill="none" stroke="black" points="322,-343.25 322,-362.75 614.25,-362.75 614.25,-343.25 322,-343.25"/>
<polygon fill="#ffffff" stroke="none" points="323,-344.25 323,-361.75 423.75,-361.75 423.75,-344.25 323,-344.25"/>
<text text-anchor="start" x="325" y="-349.3" font-family="Helvetica,sans-Serif" font-size="11.00">&lt; 1</text>
<polygon fill="#ffffff" stroke="none" points="423.75,-344.25 423.75,-361.75 512.5,-361.75 512.5,-344.25 423.75,-344.25"/>
<text text-anchor="start" x="464.38" y="-349.3" font-family="Helvetica,sans-Serif" font-size="11.00"> &#160;</text>
<polygon fill="#ffffff" stroke="none" points="512.5,-344.25 512.5,-361.75 613.25,-361.75 613.25,-344.25 512.5,-344.25"/>
<text text-anchor="start" x="591.75" y="-349.3" font-family="Helvetica,sans-Serif" font-size="11.00">1 &gt;</text>
<polygon fill="black" stroke="black" points="423.75,-344.25 423.75,-361.75 423.75,-361.75 423.75,-344.25 423.75,-344.25"/>
<polygon fill="black" stroke="black" points="512.5,-344.25 512.5,-361.75 512.5,-361.75 512.5,-344.25 512.5,-344.25"/>
<polygon fill="none" stroke="black" stroke-width="2" points="321,-342.25 321,-673.25 615.25,-673.25 615.25,-342.25 321,-342.25"/>
</a>
</g>
</g>
<!-- doc_physical_document&#45;&gt;train_train -->
<g id="edge1" class="edge">
<title>doc_physical_document:w&#45;&gt;train_train:e</title>
<path fill="none" stroke="black" d="M648.44,-637.54C634.35,-637.61 625.95,-637.75 606.5,-637.75"/>
<polygon fill="black" stroke="black" points="655.92,-637.52 663.92,-641.1 660.25,-637.51 663.58,-637.5 663.58,-637.5 663.58,-637.5 660.25,-637.51 663.91,-633.9 655.92,-637.52"/>
<ellipse fill="none" stroke="black" cx="651" cy="-637.53" rx="3.2" ry="3.2"/>
</g>
<!-- proj_project -->
<g id="node3" class="node">
<title>proj_project</title>
<g id="a_node3"><a xlink:href="../../tables/proj_project.html" xlink:title="proj_project" target="_top">
<polygon fill="#ffffff" stroke="none" points="8,-38.5 8,-409 271,-409 271,-38.5 8,-38.5"/>
<polygon fill="#f5f5f5" stroke="none" points="8,-385.5 8,-409 271,-409 271,-385.5 8,-385.5"/>
<polygon fill="none" stroke="black" points="8,-385.5 8,-409 271,-409 271,-385.5 8,-385.5"/>
<text text-anchor="start" x="13" y="-394.55" font-family="Helvetica,sans-Serif" font-weight="bold" font-size="11.00">proj_project</text>
<text text-anchor="start" x="229.25" y="-393.55" font-family="Helvetica,sans-Serif" font-size="11.00">[table]</text>
<polygon fill="none" stroke="black" points="8,-363.5 8,-385.5 271,-385.5 271,-363.5 8,-363.5"/>
<image xlink:href="../../images/primaryKeys.png" width="11px" height="12px" preserveAspectRatio="xMinYMin meet" x="13" y="-380.5"/>
<text text-anchor="start" x="28" y="-370.05" font-family="Helvetica,sans-Serif" font-size="11.00">identifier</text>
<polygon fill="#ffffff" stroke="none" points="8,-341.5 8,-363.5 271,-363.5 271,-341.5 8,-341.5"/>
<polygon fill="none" stroke="black" points="8,-341.5 8,-363.5 271,-363.5 271,-341.5 8,-341.5"/>
<image xlink:href="../../images/foreignKeys.png" width="11px" height="12px" preserveAspectRatio="xMinYMin meet" x="13" y="-358.5"/>
<text text-anchor="start" x="28" y="-348.05" font-family="Helvetica,sans-Serif" font-size="11.00">library</text>
<polygon fill="#ffffff" stroke="none" points="8,-319.5 8,-341.5 271,-341.5 271,-319.5 8,-319.5"/>
<polygon fill="none" stroke="black" points="8,-319.5 8,-341.5 271,-341.5 271,-319.5 8,-319.5"/>
<image xlink:href="../../images/foreignKeys.png" width="11px" height="12px" preserveAspectRatio="xMinYMin meet" x="13" y="-336.5"/>
<text text-anchor="start" x="28" y="-326.05" font-family="Helvetica,sans-Serif" font-size="11.00">active_configuration_ftp</text>
<polygon fill="#ffffff" stroke="none" points="8,-297.5 8,-319.5 271,-319.5 271,-297.5 8,-297.5"/>
<polygon fill="none" stroke="black" points="8,-297.5 8,-319.5 271,-319.5 271,-297.5 8,-297.5"/>
<image xlink:href="../../images/foreignKeys.png" width="11px" height="12px" preserveAspectRatio="xMinYMin meet" x="13" y="-314.5"/>
<text text-anchor="start" x="28" y="-304.05" font-family="Helvetica,sans-Serif" font-size="11.00">active_configuration_check</text>
<polygon fill="#ffffff" stroke="none" points="8,-275.5 8,-297.5 271,-297.5 271,-275.5 8,-275.5"/>
<polygon fill="none" stroke="black" points="8,-275.5 8,-297.5 271,-297.5 271,-275.5 8,-275.5"/>
<image xlink:href="../../images/foreignKeys.png" width="11px" height="12px" preserveAspectRatio="xMinYMin meet" x="13" y="-292.5"/>
<text text-anchor="start" x="28" y="-282.05" font-family="Helvetica,sans-Serif" font-size="11.00">provider</text>
<polygon fill="#ffffff" stroke="none" points="8,-253.5 8,-275.5 271,-275.5 271,-253.5 8,-253.5"/>
<polygon fill="none" stroke="black" points="8,-253.5 8,-275.5 271,-275.5 271,-253.5 8,-253.5"/>
<image xlink:href="../../images/foreignKeys.png" width="11px" height="12px" preserveAspectRatio="xMinYMin meet" x="13" y="-270.5"/>
<text text-anchor="start" x="28" y="-260.05" font-family="Helvetica,sans-Serif" font-size="11.00">collection_omeka</text>
<polygon fill="#ffffff" stroke="none" points="8,-231.5 8,-253.5 271,-253.5 271,-231.5 8,-231.5"/>
<polygon fill="none" stroke="black" points="8,-231.5 8,-253.5 271,-253.5 271,-231.5 8,-231.5"/>
<image xlink:href="../../images/foreignKeys.png" width="11px" height="12px" preserveAspectRatio="xMinYMin meet" x="13" y="-248.5"/>
<text text-anchor="start" x="28" y="-238.05" font-family="Helvetica,sans-Serif" font-size="11.00">items_omeka</text>
<polygon fill="#ffffff" stroke="none" points="8,-209.5 8,-231.5 271,-231.5 271,-209.5 8,-209.5"/>
<polygon fill="none" stroke="black" points="8,-209.5 8,-231.5 271,-231.5 271,-209.5 8,-209.5"/>
<image xlink:href="../../images/foreignKeys.png" width="11px" height="12px" preserveAspectRatio="xMinYMin meet" x="13" y="-226.5"/>
<text text-anchor="start" x="28" y="-216.05" font-family="Helvetica,sans-Serif" font-size="11.00">active_configuration_export_ftp</text>
<polygon fill="#ffffff" stroke="none" points="8,-187.5 8,-209.5 271,-209.5 271,-187.5 8,-187.5"/>
<polygon fill="none" stroke="black" points="8,-187.5 8,-209.5 271,-209.5 271,-187.5 8,-187.5"/>
<image xlink:href="../../images/foreignKeys.png" width="11px" height="12px" preserveAspectRatio="xMinYMin meet" x="13" y="-204.5"/>
<text text-anchor="start" x="28" y="-194.05" font-family="Helvetica,sans-Serif" font-size="11.00">collection_ia</text>
<polygon fill="#ffffff" stroke="none" points="8,-165.5 8,-187.5 271,-187.5 271,-165.5 8,-165.5"/>
<polygon fill="none" stroke="black" points="8,-165.5 8,-187.5 271,-187.5 271,-165.5 8,-165.5"/>
<image xlink:href="../../images/foreignKeys.png" width="11px" height="12px" preserveAspectRatio="xMinYMin meet" x="13" y="-182.5"/>
<text text-anchor="start" x="28" y="-172.05" font-family="Helvetica,sans-Serif" font-size="11.00">classement_pac</text>
<polygon fill="#ffffff" stroke="none" points="8,-143.5 8,-165.5 271,-165.5 271,-143.5 8,-143.5"/>
<polygon fill="none" stroke="black" points="8,-143.5 8,-165.5 271,-165.5 271,-143.5 8,-143.5"/>
<image xlink:href="../../images/foreignKeys.png" width="11px" height="12px" preserveAspectRatio="xMinYMin meet" x="13" y="-160.5"/>
<text text-anchor="start" x="28" y="-150.05" font-family="Helvetica,sans-Serif" font-size="11.00">workflow_model</text>
<polygon fill="#ffffff" stroke="none" points="8,-121.5 8,-143.5 271,-143.5 271,-121.5 8,-121.5"/>
<polygon fill="none" stroke="black" points="8,-121.5 8,-143.5 271,-143.5 271,-121.5 8,-121.5"/>
<image xlink:href="../../images/foreignKeys.png" width="11px" height="12px" preserveAspectRatio="xMinYMin meet" x="13" y="-138.5"/>
<text text-anchor="start" x="28" y="-128.05" font-family="Helvetica,sans-Serif" font-size="11.00">active_format_configuration</text>
<polygon fill="#ffffff" stroke="none" points="8,-99.5 8,-121.5 271,-121.5 271,-99.5 8,-99.5"/>
<polygon fill="none" stroke="black" points="8,-99.5 8,-121.5 271,-121.5 271,-99.5 8,-99.5"/>
<image xlink:href="../../images/foreignKeys.png" width="11px" height="12px" preserveAspectRatio="xMinYMin meet" x="13" y="-116.5"/>
<text text-anchor="start" x="28" y="-106.05" font-family="Helvetica,sans-Serif" font-size="11.00">omeka_configuration</text>
<polygon fill="#ffffff" stroke="none" points="8,-77.5 8,-99.5 271,-99.5 271,-77.5 8,-77.5"/>
<polygon fill="none" stroke="black" points="8,-77.5 8,-99.5 271,-99.5 271,-77.5 8,-77.5"/>
<image xlink:href="../../images/foreignKeys.png" width="11px" height="12px" preserveAspectRatio="xMinYMin meet" x="13" y="-94.5"/>
<text text-anchor="start" x="28" y="-84.05" font-family="Helvetica,sans-Serif" font-size="11.00">active_export_ftp_delivery_folder</text>
<polygon fill="none" stroke="black" points="8,-58 8,-77.5 271,-77.5 271,-58 8,-58"/>
<text text-anchor="start" x="11" y="-64.05" font-family="Helvetica,sans-Serif" font-size="11.00">...</text>
<polygon fill="#ffffff" stroke="none" points="8,-38.5 8,-58 271,-58 271,-38.5 8,-38.5"/>
<polygon fill="none" stroke="black" points="8,-38.5 8,-58 271,-58 271,-38.5 8,-38.5"/>
<polygon fill="#ffffff" stroke="none" points="9,-39.5 9,-57 104.5,-57 104.5,-39.5 9,-39.5"/>
<text text-anchor="start" x="11" y="-44.55" font-family="Helvetica,sans-Serif" font-size="11.00">&lt; 13</text>
<polygon fill="#ffffff" stroke="none" points="104.5,-39.5 104.5,-57 181.25,-57 181.25,-39.5 104.5,-39.5"/>
<text text-anchor="start" x="139.12" y="-44.55" font-family="Helvetica,sans-Serif" font-size="11.00"> &#160;</text>
<polygon fill="#ffffff" stroke="none" points="181.25,-39.5 181.25,-57 270,-57 270,-39.5 181.25,-39.5"/>
<text text-anchor="start" x="248.5" y="-44.55" font-family="Helvetica,sans-Serif" font-size="11.00">7 &gt;</text>
<polygon fill="black" stroke="black" points="104.5,-39.5 104.5,-57 104.5,-57 104.5,-39.5 104.5,-39.5"/>
<polygon fill="black" stroke="black" points="181.25,-39.5 181.25,-57 181.25,-57 181.25,-39.5 181.25,-39.5"/>
</a>
</g>
</g>
<!-- train_train&#45;&gt;proj_project -->
<g id="edge2" class="edge">
<title>train_train:w&#45;&gt;proj_project:e</title>
<path fill="none" stroke="black" d="M305.42,-373.9C294.71,-374.12 287.48,-374.5 272,-374.5"/>
<polygon fill="black" stroke="black" points="312.67,-373.83 320.7,-377.35 317,-373.79 320.33,-373.76 320.33,-373.76 320.33,-373.76 317,-373.79 320.63,-370.15 312.67,-373.83"/>
<ellipse fill="none" stroke="black" cx="307.75" cy="-373.88" rx="3.2" ry="3.2"/>
</g>
</g>
</svg>
